# https://github.com/mikedh/trimesh
v 0.03641666 0.02806195 0.00000971
v 0.03641506 0.02910007 0.00000971
v 0.02851404 0.02806195 0.00000971
v 0.03641346 0.02806195 -0.00037731
v 0.03640867 0.02806195 -0.00090425
v 0.03640548 0.02910007 -0.00090425
v 0.03631442 0.02967932 0.00000971
v 0.03067380 0.02995131 0.00000971
v 0.02009863 0.03052741 -0.02429505
v 0.02009863 0.03004331 -0.02332452
v 0.02009863 0.02908144 -0.02221408
v 0.02009863 0.02806195 -0.02106493
v 0.03638151 0.02806195 -0.00166638
v 0.03634158 0.02910007 -0.00270240
v 0.03617065 0.03023993 -0.00270240
v 0.03620100 0.03027404 -0.00090425
v 0.03620739 0.03027978 0.00000971
v 0.03157476 0.03049474 0.00000971
v 0.02009863 0.03094156 -0.02609915
v 0.02009863 0.02806195 -0.03040398
v 0.03633998 0.02806195 -0.00270240
v 0.03616107 0.02806195 -0.00450352
v 0.03616107 0.02910007 -0.00450352
v 0.03600611 0.03000577 -0.00542343
v 0.03608279 0.03011526 -0.00450352
v 0.03510195 0.03073491 -0.00270240
v 0.03482399 0.03049474 -0.00810279
v 0.03510195 0.03076902 -0.00090425
v 0.03510195 0.03077476 0.00000971
v 0.03242781 0.03073922 0.00000971
v 0.02070406 0.03099000 -0.02609915
v 0.02009863 0.03092409 -0.02790027
v 0.03330321 0.03099000 0.00000971
v 0.02009863 0.02852598 -0.03039505
v 0.02052515 0.02894386 -0.03009139
v 0.02197724 0.02910007 -0.02907621
v 0.02062738 0.02806195 -0.03003483
v 0.03601091 0.02806195 -0.00545320
v 0.03600931 0.02910007 -0.00544427
v 0.03584477 0.02806195 -0.00635228
v 0.03550611 0.02806195 -0.00810279
v 0.03548374 0.02910007 -0.00810279
v 0.03504285 0.02910007 -0.00990392
v 0.03420578 0.03000519 -0.01261304
v 0.03434795 0.03017717 -0.01170206
v 0.03461792 0.03042078 -0.00990392
v 0.03330321 0.03091577 -0.00990392
v 0.03330321 0.03099000 -0.00810279
v 0.02250440 0.03099000 -0.02430100
v 0.02430473 0.03096650 -0.02430100
v 0.02250440 0.03094530 -0.02609915
v 0.02070406 0.03089055 -0.02790027
v 0.02009863 0.03046894 -0.02955849
v 0.02009863 0.02923134 -0.03037719
v 0.02184624 0.03019752 -0.02897797
v 0.02287661 0.02910007 -0.02837065
v 0.02198522 0.02806195 -0.02908217
v 0.03531920 0.02806195 -0.00886492
v 0.03504923 0.02806195 -0.00990392
v 0.03449332 0.02910007 -0.01170206
v 0.03420738 0.02910007 -0.01261602
v 0.03383037 0.02910007 -0.01351807
v 0.03304123 0.02910007 -0.01530133
v 0.03247573 0.03010122 -0.01635224
v 0.03272014 0.03031932 -0.01530133
v 0.03333357 0.03039585 -0.01332754
v 0.03330321 0.03067215 -0.01170206
v 0.03150288 0.03081431 -0.01530133
v 0.03150288 0.03098599 -0.01350319
v 0.02790381 0.03099000 -0.01890060
v 0.02610507 0.03099000 -0.02070173
v 0.02610507 0.03094415 -0.02249988
v 0.02614980 0.03053859 -0.02433077
v 0.02432869 0.03053945 -0.02614083
v 0.02970254 0.03098255 -0.01709948
v 0.02246925 0.03047869 -0.02790623
v 0.02070406 0.03039556 -0.02937094
v 0.02374562 0.03027031 -0.02730784
v 0.02392454 0.02910007 -0.02747158
v 0.02288459 0.02806195 -0.02837660
v 0.02349163 0.02806195 -0.02785859
v 0.03481601 0.02806195 -0.01066604
v 0.03420897 0.02806195 -0.01261900
v 0.03404923 0.02806195 -0.01300006
v 0.03383037 0.02806195 -0.01351807
v 0.03349651 0.02806195 -0.01427425
v 0.03304283 0.02806195 -0.01530133
v 0.03251247 0.02910007 -0.01642964
v 0.03205400 0.02910007 -0.01732871
v 0.03115303 0.02910007 -0.01886786
v 0.02899327 0.03020755 -0.02184195
v 0.03097093 0.03032019 -0.01857610
v 0.03154282 0.03045088 -0.01701017
v 0.02986868 0.03058817 -0.01906434
v 0.02790381 0.03089800 -0.02070173
v 0.02558110 0.03029898 -0.02556625
v 0.02790221 0.03048384 -0.02246415
v 0.02730156 0.03026889 -0.02375024
v 0.02482550 0.02910007 -0.02665883
v 0.02445489 0.02806195 -0.02701013
v 0.02393572 0.02806195 -0.02747753
v 0.03251407 0.02806195 -0.01642964
v 0.03232078 0.02806195 -0.01681071
v 0.03205240 0.02806195 -0.01733169
v 0.03115303 0.02806195 -0.01887083
v 0.03058114 0.02806195 -0.01976991
v 0.03057635 0.02910007 -0.01976693
v 0.02937826 0.03040302 -0.02070173
v 0.02996133 0.02910007 -0.02070173
v 0.02908752 0.02910007 -0.02196401
v 0.02835269 0.02910007 -0.02286308
v 0.02745332 0.02910007 -0.02393185
v 0.02667536 0.02910007 -0.02483092
v 0.02577599 0.02910007 -0.02575679
v 0.02483669 0.02806195 -0.02666479
v 0.03032076 0.02806195 -0.02016586
v 0.02996612 0.02806195 -0.02070173
v 0.02959711 0.02806195 -0.02123462
v 0.02908752 0.02806195 -0.02196401
v 0.02835429 0.02806195 -0.02286308
v 0.02745652 0.02806195 -0.02393780
v 0.02668015 0.02806195 -0.02483687
v 0.02577919 0.02806195 -0.02576572
f 1 2 7
f 1 7 17
f 1 17 29
f 1 29 33
f 1 33 30
f 1 30 18
f 1 18 8
f 1 8 3
f 1 3 12
f 1 12 20
f 1 20 37
f 1 37 57
f 1 57 80
f 1 80 81
f 1 81 101
f 1 101 100
f 1 100 115
f 1 115 123
f 1 123 122
f 1 122 121
f 1 121 120
f 1 120 119
f 1 119 118
f 1 118 117
f 1 117 116
f 1 116 106
f 1 106 105
f 1 105 104
f 1 104 103
f 1 103 102
f 1 102 87
f 1 87 86
f 1 86 85
f 1 85 84
f 1 84 83
f 1 83 82
f 1 82 59
f 1 59 58
f 1 58 41
f 1 41 40
f 1 40 38
f 1 38 22
f 1 22 21
f 1 21 13
f 1 13 5
f 1 5 4
f 1 4 2
f 2 4 5
f 2 5 6
f 2 6 7
f 3 8 9
f 3 9 10
f 3 10 11
f 3 11 12
f 5 13 14
f 5 14 6
f 6 14 15
f 6 15 16
f 6 16 7
f 7 16 17
f 8 18 9
f 9 19 32
f 9 32 53
f 9 53 54
f 9 54 34
f 9 34 20
f 9 20 12
f 9 12 11
f 9 11 10
f 9 18 19
f 13 21 14
f 14 21 22
f 14 22 23
f 14 23 24
f 14 24 25
f 14 25 15
f 15 26 16
f 15 25 27
f 15 27 26
f 16 26 28
f 16 28 17
f 17 28 29
f 18 30 19
f 19 31 32
f 19 30 33
f 19 33 31
f 20 34 35
f 20 35 36
f 20 36 37
f 22 38 23
f 23 38 39
f 23 39 24
f 24 39 40
f 24 40 41
f 24 41 42
f 24 42 43
f 24 43 44
f 24 44 45
f 24 45 46
f 24 46 25
f 25 46 27
f 26 27 47
f 26 47 48
f 26 48 28
f 27 46 47
f 28 48 29
f 29 48 33
f 31 49 50
f 31 50 51
f 31 51 32
f 31 33 48
f 31 48 70
f 31 70 71
f 31 71 49
f 32 51 52
f 32 52 53
f 34 54 35
f 35 54 36
f 36 55 56
f 36 56 80
f 36 80 57
f 36 57 37
f 36 54 55
f 38 40 39
f 41 58 43
f 41 43 42
f 43 58 59
f 43 59 60
f 43 60 44
f 44 60 61
f 44 61 62
f 44 62 63
f 44 63 64
f 44 64 65
f 44 65 45
f 45 65 46
f 46 65 66
f 46 66 67
f 46 67 47
f 47 67 68
f 47 68 69
f 47 69 48
f 48 69 70
f 49 71 50
f 50 72 73
f 50 73 74
f 50 74 51
f 50 71 70
f 50 70 75
f 50 75 72
f 51 74 52
f 52 76 77
f 52 77 53
f 52 74 76
f 53 77 54
f 54 77 55
f 55 77 76
f 55 76 78
f 55 78 79
f 55 79 56
f 56 79 81
f 56 81 80
f 59 82 60
f 60 82 83
f 60 83 61
f 61 83 62
f 62 83 84
f 62 84 85
f 62 85 86
f 62 86 87
f 62 87 63
f 63 87 102
f 63 102 88
f 63 88 64
f 64 88 89
f 64 89 90
f 64 90 91
f 64 91 92
f 64 92 65
f 65 92 93
f 65 93 68
f 65 68 66
f 66 68 67
f 68 93 94
f 68 94 95
f 68 95 75
f 68 75 69
f 69 75 70
f 72 75 95
f 72 95 73
f 73 96 74
f 73 95 97
f 73 97 98
f 73 98 96
f 74 78 76
f 74 96 78
f 78 96 99
f 78 99 79
f 79 99 100
f 79 100 101
f 79 101 81
f 88 102 103
f 88 103 89
f 89 103 104
f 89 104 105
f 89 105 90
f 90 105 106
f 90 106 107
f 90 107 91
f 91 108 92
f 91 107 109
f 91 109 110
f 91 110 111
f 91 111 112
f 91 112 113
f 91 113 98
f 91 98 97
f 91 97 108
f 92 108 94
f 92 94 93
f 94 108 95
f 95 108 97
f 96 98 113
f 96 113 114
f 96 114 99
f 99 115 100
f 99 114 115
f 106 116 107
f 107 116 109
f 109 117 110
f 109 116 117
f 110 117 118
f 110 118 119
f 110 119 120
f 110 120 111
f 111 120 121
f 111 121 112
f 112 121 122
f 112 122 113
f 113 122 123
f 113 123 114
f 114 123 115

