# https://github.com/mikedh/trimesh
v 0.00090509 0.02910007 -0.03643161
v 0.00090509 0.03028981 -0.03621502
v 0.00270427 0.03022187 -0.03615636
v 0.00450542 0.03011468 -0.03607665
v 0.00270427 0.02910007 -0.03631579
v 0.00270427 0.02806195 -0.03632031
v 0.00194164 0.02806195 -0.03636844
v 0.00090509 0.02806195 -0.03642860
v -0.00003490 0.02806195 -0.03643011
v -0.00003490 0.02910007 -0.03643011
v -0.00003490 0.02972030 -0.03631880
v 0.00090509 0.03078479 -0.03510051
v 0.00270427 0.03071686 -0.03510051
v -0.00003490 0.03028981 -0.03621502
v -0.00003490 0.03054804 -0.03563445
v 0.00450542 0.03060967 -0.03510051
v 0.00810379 0.03049474 -0.03481473
v 0.00990494 0.03042423 -0.03461770
v 0.00549468 0.03002927 -0.03601949
v 0.00450542 0.02910007 -0.03615486
v 0.00450542 0.02806195 -0.03615636
v -0.00003490 0.02806195 -0.02851419
v -0.00003490 0.03078479 -0.03510051
v -0.00003490 0.03089170 -0.03416347
v 0.00810379 0.03099000 -0.03330164
v 0.00990494 0.03091921 -0.03330164
v 0.01350331 0.03049474 -0.03311213
v 0.01136912 0.03023564 -0.03439811
v 0.00553803 0.02910007 -0.03602852
v 0.00990494 0.02910007 -0.03505689
v 0.00810379 0.02910007 -0.03547502
v 0.00810379 0.02806195 -0.03550209
v 0.00553212 0.02806195 -0.03602551
v -0.00003490 0.02995074 -0.03067403
v 0.02009703 0.02806195 -0.02106754
v 0.02009703 0.02908144 -0.02221665
v -0.00003490 0.03099000 -0.03330164
v 0.01350331 0.03099000 -0.03150127
v 0.01530249 0.03081316 -0.03150127
v 0.01530249 0.03031819 -0.03272859
v 0.01633707 0.03009434 -0.03246989
v 0.01350331 0.02910007 -0.03384010
v 0.01257120 0.02910007 -0.03418453
v 0.01167260 0.02910007 -0.03450339
v 0.00740028 0.02806195 -0.03564949
v 0.00605040 0.02806195 -0.03592624
v 0.00990494 0.02806195 -0.03507343
v -0.00003490 0.03021098 -0.03110420
v 0.02009703 0.03004331 -0.02332665
v 0.02009703 0.02806195 -0.03040330
v -0.00003490 0.03049474 -0.03157346
v 0.02009703 0.03052741 -0.02429828
v 0.01890283 0.03084699 -0.02610316
v 0.02009703 0.03094156 -0.02610316
v 0.01890283 0.03099000 -0.02790203
v 0.01710168 0.03098857 -0.02970090
v 0.01907230 0.03059276 -0.02987236
v 0.01858556 0.03032793 -0.03096582
v 0.01700314 0.03045146 -0.03154037
v 0.01978567 0.02943999 -0.03058529
v 0.01732239 0.02910007 -0.03205477
v 0.01642181 0.02910007 -0.03251200
v 0.01530249 0.02910007 -0.03306701
v 0.01453986 0.02806195 -0.03340392
v 0.01340084 0.02806195 -0.03388973
v 0.01259288 0.02806195 -0.03419806
v 0.01530249 0.02806195 -0.03307753
v 0.01252785 0.02806195 -0.03422063
v 0.01179478 0.02806195 -0.03447482
v 0.01997682 0.02806195 -0.03048602
v 0.02009703 0.02817660 -0.03040179
v 0.02009703 0.03092409 -0.02790203
v 0.02009703 0.03046894 -0.02955801
v 0.02009703 0.02923134 -0.03037773
v 0.01980341 0.02823994 -0.03060184
v 0.01907230 0.02894386 -0.03104403
v 0.01898165 0.02806195 -0.03111322
v 0.01823282 0.02806195 -0.03154489
v 0.01733815 0.02806195 -0.03205928
v 0.01643955 0.02806195 -0.03252103
v 0.01596462 0.02806195 -0.03275566
v 0.01980538 0.02806195 -0.03060334
v 0.02009703 0.02852598 -0.03039427
v 0.01947037 0.02806195 -0.03081090
f 1 2 3
f 1 3 4
f 1 4 5
f 1 5 6
f 1 6 7
f 1 7 8
f 1 8 9
f 1 9 10
f 1 10 11
f 1 11 2
f 2 12 13
f 2 13 3
f 2 11 14
f 2 14 15
f 2 15 12
f 3 13 16
f 3 16 17
f 3 17 4
f 4 17 18
f 4 18 19
f 4 19 5
f 5 19 20
f 5 20 6
f 6 20 21
f 6 21 33
f 6 33 46
f 6 46 45
f 6 45 32
f 6 32 47
f 6 47 69
f 6 69 68
f 6 68 66
f 6 66 65
f 6 65 64
f 6 64 67
f 6 67 81
f 6 81 80
f 6 80 79
f 6 79 78
f 6 78 77
f 6 77 84
f 6 84 82
f 6 82 70
f 6 70 50
f 6 50 35
f 6 35 22
f 6 22 9
f 6 9 8
f 6 8 7
f 9 22 34
f 9 34 48
f 9 48 51
f 9 51 37
f 9 37 24
f 9 24 23
f 9 23 15
f 9 15 14
f 9 14 11
f 9 11 10
f 12 15 23
f 12 23 24
f 12 24 25
f 12 25 13
f 13 25 26
f 13 26 16
f 16 26 17
f 17 26 18
f 18 26 27
f 18 27 28
f 18 28 19
f 19 29 20
f 19 28 30
f 19 30 31
f 19 31 32
f 19 32 29
f 20 29 21
f 21 29 33
f 22 35 36
f 22 36 34
f 24 37 25
f 25 37 55
f 25 55 38
f 25 38 26
f 26 38 39
f 26 39 27
f 27 39 40
f 27 40 28
f 28 40 41
f 28 41 42
f 28 42 43
f 28 43 44
f 28 44 30
f 29 32 45
f 29 45 46
f 29 46 33
f 30 47 32
f 30 32 31
f 30 44 47
f 34 36 49
f 34 49 48
f 35 50 71
f 35 71 83
f 35 83 74
f 35 74 73
f 35 73 72
f 35 72 54
f 35 54 52
f 35 52 49
f 35 49 36
f 37 51 52
f 37 52 53
f 37 53 54
f 37 54 55
f 38 55 56
f 38 56 39
f 39 56 57
f 39 57 58
f 39 58 59
f 39 59 40
f 40 59 58
f 40 58 41
f 41 58 60
f 41 60 61
f 41 61 62
f 41 62 63
f 41 63 42
f 42 64 65
f 42 65 66
f 42 66 43
f 42 63 67
f 42 67 64
f 43 66 44
f 44 66 68
f 44 68 69
f 44 69 47
f 48 49 51
f 49 52 51
f 50 70 71
f 52 54 53
f 54 72 55
f 55 72 56
f 56 72 57
f 57 72 73
f 57 73 58
f 58 73 60
f 60 74 75
f 60 75 76
f 60 76 61
f 60 73 74
f 61 76 77
f 61 77 78
f 61 78 79
f 61 79 80
f 61 80 62
f 62 80 63
f 63 80 81
f 63 81 67
f 70 82 75
f 70 75 71
f 71 75 83
f 74 83 75
f 75 82 76
f 76 82 84
f 76 84 77

