# https://github.com/mikedh/trimesh
v -0.02221056 0.02800957 0.01807650
v -0.02498922 0.03018384 0.01807650
v -0.03161653 0.02800957 0.01807650
v -0.02231213 0.02800957 0.01691151
v -0.02609678 0.03065768 0.01807650
v -0.02628741 0.02800957 -0.00860869
v -0.02998857 0.03045080 -0.00860869
v -0.03161653 0.02815633 0.01807650
v -0.03168888 0.02800957 0.01794851
v -0.02789727 0.03096111 0.01709696
v -0.02789727 0.03097687 0.01807650
v -0.03101126 0.03081611 -0.00860869
v -0.03149547 0.03096579 -0.00860869
v -0.03537474 0.02800957 -0.00860869
v -0.03161096 0.02910020 0.01807650
v -0.03203674 0.02800957 0.01732944
v -0.02969638 0.03099000 0.01529723
v -0.02969638 0.03098271 0.01709696
v -0.02969638 0.03085608 0.01807650
v -0.03278949 0.03099000 -0.00860869
v -0.03542762 0.02800957 -0.00840756
v -0.03535944 0.02910020 -0.00860869
v -0.03147878 0.02964990 0.01807650
v -0.03247782 0.03010943 0.01634729
v -0.03203117 0.02910020 0.01732683
v -0.03252095 0.02910020 0.01642827
v -0.03251956 0.02800957 0.01642827
v -0.03149547 0.03099000 0.01349749
v -0.03149547 0.03082456 0.01529723
v -0.03115597 0.03034227 0.01807650
v -0.03152748 0.03045577 0.01700554
v -0.03329597 0.03096958 -0.00860869
v -0.03329597 0.03099000 -0.00810194
v -0.03550692 0.02800957 -0.00810194
v -0.03476113 0.03047444 -0.00860869
v -0.03548327 0.02910020 -0.00810194
v -0.03600227 0.03000966 -0.00543499
v -0.03272549 0.03032943 0.01529723
v -0.03441049 0.03025299 0.01137125
v -0.03382053 0.02910020 0.01349749
v -0.03306221 0.02910020 0.01529723
v -0.03306638 0.02800957 0.01529723
v -0.03285350 0.02800957 0.01574128
v -0.03329597 0.03099000 0.00809568
v -0.03329597 0.03093223 0.00989541
v -0.03310117 0.03049487 0.01349749
v -0.03439101 0.03061390 -0.00860869
v -0.03509646 0.03073908 -0.00270012
v -0.03509646 0.03077293 -0.00090039
v -0.03509646 0.03078401 0.00089935
v -0.03564189 0.02800957 -0.00741496
v -0.03607880 0.03012024 -0.00449986
v -0.03481957 0.03049487 -0.00810194
v -0.03591600 0.02800957 -0.00601226
v -0.03600644 0.02910020 -0.00546111
v -0.03616367 0.02910020 -0.00449986
v -0.03634038 0.02910020 -0.00270012
v -0.03451763 0.02910020 0.01166641
v -0.03417952 0.02910020 0.01256759
v -0.03462199 0.03043709 0.00989541
v -0.03601340 0.03002978 0.00549664
v -0.03505750 0.02910020 0.00989541
v -0.03383027 0.02800957 0.01349749
v -0.03353112 0.02800957 0.01420537
v -0.03509646 0.03072508 0.00269908
v -0.03481261 0.03049487 0.00809568
v -0.03616785 0.03024394 -0.00270012
v -0.03619846 0.03027779 -0.00090039
v -0.03509646 0.03061536 -0.00449986
v -0.03620820 0.03028887 0.00089935
v -0.03600644 0.02800957 -0.00546633
v -0.03606906 0.02800957 -0.00508758
v -0.03634178 0.02800957 -0.00270012
v -0.03616367 0.02800957 -0.00449986
v -0.03640439 0.02800957 -0.00090039
v -0.03640161 0.02910020 -0.00090039
v -0.03485157 0.02800957 0.01059545
v -0.03451624 0.02800957 0.01167164
v -0.03418369 0.02800957 0.01257020
v -0.03615950 0.03022994 0.00269908
v -0.03606906 0.03011031 0.00449882
v -0.03602453 0.02910020 0.00555411
v -0.03582973 0.02910020 0.00645528
v -0.03546936 0.02910020 0.00809568
v -0.03632369 0.02910020 0.00269908
v -0.03614420 0.02910020 0.00449882
v -0.03549440 0.02800957 0.00809568
v -0.03533161 0.02800957 0.00880617
v -0.03506446 0.02800957 0.00989541
v -0.03509646 0.03060545 0.00449882
v -0.03642248 0.02910020 0.00089935
v -0.03642387 0.02800957 0.00089935
v -0.03602732 0.02800957 0.00556455
v -0.03584504 0.02800957 0.00646573
v -0.03614837 0.02800957 0.00449882
v -0.03638491 0.02800957 0.00160984
v -0.03632508 0.02800957 0.00269908
f 1 2 5
f 1 5 11
f 1 11 19
f 1 19 30
f 1 30 23
f 1 23 15
f 1 15 8
f 1 8 3
f 1 3 9
f 1 9 16
f 1 16 27
f 1 27 43
f 1 43 42
f 1 42 64
f 1 64 63
f 1 63 79
f 1 79 78
f 1 78 77
f 1 77 89
f 1 89 88
f 1 88 87
f 1 87 94
f 1 94 93
f 1 93 95
f 1 95 97
f 1 97 96
f 1 96 92
f 1 92 75
f 1 75 73
f 1 73 74
f 1 74 72
f 1 72 71
f 1 71 54
f 1 54 51
f 1 51 34
f 1 34 21
f 1 21 14
f 1 14 6
f 1 6 4
f 1 4 2
f 2 4 6
f 2 6 7
f 2 7 5
f 3 8 9
f 5 10 11
f 5 7 12
f 5 12 13
f 5 13 10
f 6 14 22
f 6 22 35
f 6 35 47
f 6 47 32
f 6 32 20
f 6 20 13
f 6 13 12
f 6 12 7
f 8 15 16
f 8 16 9
f 10 13 11
f 11 17 18
f 11 18 19
f 11 13 20
f 11 20 17
f 14 21 22
f 15 23 24
f 15 24 25
f 15 25 16
f 16 25 26
f 16 26 27
f 17 28 18
f 17 20 33
f 17 33 44
f 17 44 28
f 18 28 29
f 18 29 19
f 19 29 31
f 19 31 30
f 20 32 33
f 21 34 22
f 22 34 36
f 22 36 37
f 22 37 35
f 23 30 24
f 24 38 39
f 24 39 40
f 24 40 41
f 24 41 26
f 24 26 25
f 24 30 38
f 26 41 42
f 26 42 43
f 26 43 27
f 28 44 45
f 28 45 29
f 29 38 31
f 29 45 46
f 29 46 38
f 30 31 38
f 32 47 48
f 32 48 33
f 33 48 49
f 33 49 50
f 33 50 44
f 34 51 37
f 34 37 36
f 35 37 52
f 35 52 53
f 35 53 47
f 37 51 54
f 37 54 55
f 37 55 56
f 37 56 57
f 37 57 52
f 38 46 39
f 39 58 59
f 39 59 40
f 39 46 60
f 39 60 61
f 39 61 62
f 39 62 58
f 40 59 63
f 40 63 41
f 41 64 42
f 41 63 64
f 44 50 45
f 45 50 65
f 45 65 66
f 45 66 60
f 45 60 46
f 47 53 48
f 48 67 68
f 48 68 49
f 48 53 69
f 48 69 67
f 49 68 70
f 49 70 50
f 50 70 65
f 52 57 67
f 52 67 53
f 53 67 69
f 54 71 55
f 55 71 72
f 55 72 56
f 56 73 57
f 56 72 74
f 56 74 73
f 57 73 75
f 57 75 76
f 57 76 67
f 58 62 77
f 58 77 78
f 58 78 79
f 58 79 59
f 59 79 63
f 60 66 80
f 60 80 81
f 60 81 61
f 61 82 83
f 61 83 84
f 61 84 62
f 61 81 85
f 61 85 86
f 61 86 82
f 62 84 87
f 62 87 88
f 62 88 89
f 62 89 77
f 65 70 80
f 65 80 90
f 65 90 66
f 66 90 80
f 67 76 68
f 68 76 91
f 68 91 70
f 70 91 80
f 75 92 91
f 75 91 76
f 80 85 81
f 80 91 85
f 82 93 94
f 82 94 87
f 82 87 83
f 82 86 95
f 82 95 93
f 83 87 84
f 85 96 97
f 85 97 95
f 85 95 86
f 85 91 96
f 91 92 96

