# https://github.com/mikedh/trimesh
v 0.01281768 0.01280791 0.01718937
v 0.01263968 0.01280791 0.02418265
v 0.01282530 0.01280510 0.01710204
v -0.01282605 0.01280791 0.01710204
v 0.01297787 0.00183485 0.01710204
v 0.01253797 0.01280791 0.02495910
v 0.01261934 0.01014884 0.02342725
v -0.01299896 0.00204533 0.01710204
v -0.01264043 0.01280791 0.02413425
v 0.01260663 0.00031237 0.01710204
v 0.01201671 0.01280791 0.02552933
v 0.01249474 0.01240098 0.02479602
v 0.01165818 0.01280791 0.02587547
v 0.01188957 -0.00152302 0.01710204
v -0.01298625 0.00075158 0.01710204
v -0.01263789 0.01280791 0.02421211
v 0.01012235 0.01280791 0.02669085
v 0.01129456 0.01163623 0.02544937
v 0.01170140 -0.00152583 0.01716727
v 0.01144713 -0.00152583 0.01710204
v -0.01254889 -0.00052253 0.01710204
v -0.01261500 0.01013621 0.02343461
v -0.01260738 0.01280791 0.02438781
v 0.00990113 0.01280791 0.02675292
v 0.00990113 -0.00152583 0.01769753
v -0.01188777 -0.00152583 0.01710204
v -0.01166910 0.01280791 0.02588810
v -0.01199203 0.01280791 0.02559246
v -0.01250312 0.01236450 0.02483180
v 0.00892217 0.01280791 0.02700437
v 0.00887386 -0.00152583 0.01797002
v 0.00988587 -0.00152583 0.01770174
v -0.01171995 -0.00152583 0.01716096
v -0.00989425 0.01280791 0.02678343
v -0.01130294 0.01163343 0.02545358
v 0.00810340 0.01280791 0.02721269
v 0.00886114 -0.00152583 0.01797318
v -0.01169452 -0.00152583 0.01716938
v -0.00992222 -0.00152583 0.01769227
v -0.00887206 -0.00152583 0.01797213
v -0.00911108 0.01280791 0.02698123
v 0.00773724 0.01280791 0.02729580
v 0.00797372 -0.00152583 0.01817203
v -0.00797193 -0.00152583 0.01817203
v -0.00809398 0.01280791 0.02723689
v 0.00632093 0.01280791 0.02757250
v 0.00630313 -0.00152583 0.01846135
v -0.00629625 -0.00152583 0.01846240
v -0.00632167 0.01280791 0.02758303
v -0.00657086 0.01280791 0.02753463
v 0.00627516 -0.00152583 0.01846556
v 0.00564201 0.01280791 0.02767245
v -0.00449597 -0.00152583 0.01868861
v -0.00449597 0.01280791 0.02784815
v -0.00461040 0.01280791 0.02783237
v 0.00450285 0.01280791 0.02783869
v 0.00450285 -0.00152583 0.01868755
f 1 2 3
f 1 3 4
f 1 4 9
f 1 9 16
f 1 16 23
f 1 23 28
f 1 28 27
f 1 27 34
f 1 34 41
f 1 41 45
f 1 45 50
f 1 50 49
f 1 49 55
f 1 55 54
f 1 54 56
f 1 56 52
f 1 52 46
f 1 46 42
f 1 42 36
f 1 36 30
f 1 30 24
f 1 24 17
f 1 17 13
f 1 13 11
f 1 11 6
f 1 6 2
f 2 5 3
f 2 6 7
f 2 7 5
f 3 5 10
f 3 10 14
f 3 14 20
f 3 20 26
f 3 26 21
f 3 21 15
f 3 15 8
f 3 8 4
f 4 8 9
f 5 7 10
f 6 11 12
f 6 12 7
f 7 12 11
f 7 11 13
f 7 13 14
f 7 14 10
f 8 15 16
f 8 16 9
f 13 17 18
f 13 18 14
f 14 18 17
f 14 17 19
f 14 19 20
f 15 21 22
f 15 22 16
f 16 22 23
f 17 24 25
f 17 25 19
f 19 25 32
f 19 32 31
f 19 31 37
f 19 37 43
f 19 43 47
f 19 47 51
f 19 51 57
f 19 57 53
f 19 53 48
f 19 48 44
f 19 44 40
f 19 40 39
f 19 39 38
f 19 38 33
f 19 33 26
f 19 26 20
f 21 26 22
f 22 26 27
f 22 27 28
f 22 28 29
f 22 29 23
f 23 29 28
f 24 30 31
f 24 31 32
f 24 32 25
f 26 33 34
f 26 34 35
f 26 35 27
f 27 35 34
f 30 36 31
f 31 36 37
f 33 38 34
f 34 39 40
f 34 40 41
f 34 38 39
f 36 42 37
f 37 42 43
f 40 44 45
f 40 45 41
f 42 46 43
f 43 46 47
f 44 48 49
f 44 49 50
f 44 50 45
f 46 51 47
f 46 52 51
f 48 53 54
f 48 54 55
f 48 55 49
f 51 52 56
f 51 56 57
f 53 57 54
f 54 57 56

