# https://github.com/mikedh/trimesh
v 0.03642410 0.02910020 0.00089963
v 0.03621270 0.03028538 0.00089963
v 0.03616237 0.03022585 0.00269951
v 0.03632487 0.02910020 0.00269951
v 0.03632631 0.02800957 0.00269951
v 0.03636513 0.02800957 0.00198986
v 0.03642410 0.02800957 0.00089963
v 0.03641547 0.02818843 0.00000971
v 0.03641403 0.02910020 0.00000971
v 0.03631336 0.02967937 0.00000971
v 0.03620694 0.03027983 0.00000971
v 0.03510250 0.03078022 0.00089963
v 0.03510250 0.03072099 0.00269951
v 0.03510250 0.03077468 0.00000971
v 0.03607177 0.03010536 0.00449938
v 0.03481776 0.03049487 0.00809913
v 0.03462649 0.03043563 0.00989901
v 0.03601856 0.03002600 0.00548660
v 0.03614798 0.02910020 0.00449938
v 0.03622420 0.02800957 0.00378974
v 0.03641547 0.02800957 0.00000971
v 0.03330346 0.03099000 0.00000971
v 0.03330346 0.03099000 0.00809913
v 0.03330346 0.03093077 0.00989901
v 0.03310356 0.03049487 0.01349876
v 0.03441509 0.03025095 0.01136695
v 0.03505935 0.02910020 0.00989901
v 0.03547209 0.02910020 0.00809913
v 0.03603006 0.02910020 0.00554669
v 0.03603438 0.02800957 0.00556386
v 0.03615374 0.02800957 0.00449938
v 0.02801131 0.02800957 0.00000971
v 0.03157488 0.03049487 0.00000971
v 0.02173409 0.03099000 0.02506489
v 0.03150298 0.03099000 0.01349876
v 0.03150298 0.03082253 0.01529578
v 0.03272966 0.03032739 0.01529578
v 0.03452151 0.02910020 0.01166169
v 0.03248231 0.03010652 0.01634308
v 0.03382117 0.02910020 0.01349876
v 0.03418356 0.02910020 0.01256305
v 0.03506655 0.02800957 0.00989901
v 0.03549653 0.02800957 0.00809913
v 0.03592652 0.02800957 0.00610754
v 0.03563890 0.02800957 0.00744672
v 0.02250490 0.02800957 0.01601401
v 0.02173409 0.03000674 0.02172840
v 0.02173409 0.03046714 0.02260115
v 0.02173409 0.03059378 0.02297887
v 0.03067464 0.02995130 0.00000971
v 0.03113051 0.03022673 0.00000971
v 0.02173409 0.03083390 0.02423506
v 0.02173409 0.03096783 0.02609789
v 0.02430394 0.03096082 0.02429515
v 0.02250490 0.03099000 0.02429515
v 0.02790490 0.03099000 0.01889553
v 0.02970250 0.03098183 0.01709565
v 0.02970250 0.03074666 0.01889553
v 0.03153318 0.03045343 0.01700408
v 0.03087454 0.03025183 0.01889553
v 0.03451864 0.02800957 0.01166741
v 0.03418932 0.02800957 0.01256878
v 0.03432162 0.02800957 0.01221395
v 0.03252546 0.02910020 0.01642320
v 0.03306330 0.02910020 0.01529578
v 0.03061424 0.03001607 0.01981406
v 0.03383411 0.02800957 0.01349876
v 0.03397648 0.02800957 0.01312963
v 0.02173409 0.02800957 0.01911014
v 0.02173409 0.02988915 0.02153954
v 0.02173409 0.03092347 0.02686477
v 0.02250490 0.03095120 0.02609789
v 0.02434133 0.03053980 0.02614081
v 0.02614037 0.03054184 0.02432663
v 0.02610442 0.03095383 0.02249528
v 0.02790490 0.03088321 0.02069540
v 0.02791353 0.03047970 0.02245522
v 0.02962484 0.03032038 0.02052657
v 0.02897483 0.03018764 0.02182855
v 0.03252402 0.02800957 0.01642320
v 0.03306761 0.02800957 0.01529578
v 0.03203507 0.02910020 0.01732171
v 0.03204226 0.02800957 0.01732457
v 0.03223496 0.02800957 0.01696974
v 0.03061568 0.02910020 0.01981693
v 0.03114777 0.02910020 0.01889553
v 0.02838234 0.02910020 0.02285296
v 0.02906687 0.02910020 0.02195159
v 0.02907262 0.02800957 0.02196018
v 0.02942639 0.02800957 0.02147373
v 0.02173409 0.02800957 0.02924266
v 0.02173409 0.03064775 0.02789776
v 0.02556514 0.03029121 0.02556851
v 0.02246032 0.03047999 0.02790063
v 0.02376610 0.03027837 0.02730258
v 0.02732103 0.03028188 0.02374861
v 0.02748210 0.02910020 0.02392888
v 0.03108737 0.02800957 0.01899854
v 0.03032088 0.02800957 0.02022039
v 0.03060993 0.02800957 0.01980834
v 0.02838234 0.02800957 0.02286155
v 0.02196562 0.02800957 0.02907956
v 0.02173409 0.02910750 0.02923122
v 0.02173409 0.03044322 0.02851012
v 0.02485329 0.02910020 0.02666446
v 0.02575353 0.02910020 0.02576310
v 0.02665233 0.02910020 0.02483025
v 0.02173409 0.03020864 0.02901088
v 0.02183044 0.03019171 0.02897654
v 0.02395305 0.02910020 0.02745996
v 0.02748210 0.02800957 0.02392888
v 0.02665952 0.02800957 0.02483025
v 0.02698596 0.02800957 0.02447543
v 0.02195411 0.02910020 0.02907097
v 0.02232082 0.02800957 0.02879627
v 0.02285435 0.02910020 0.02836132
v 0.02173409 0.03011440 0.02905953
v 0.02485185 0.02800957 0.02666732
v 0.02575928 0.02800957 0.02576882
v 0.02611449 0.02800957 0.02539969
v 0.02395161 0.02800957 0.02746282
v 0.02329872 0.02800957 0.02800650
v 0.02286586 0.02800957 0.02836132
f 1 2 3
f 1 3 4
f 1 4 5
f 1 5 6
f 1 6 7
f 1 7 21
f 1 21 8
f 1 8 9
f 1 9 10
f 1 10 11
f 1 11 2
f 2 12 13
f 2 13 3
f 2 11 14
f 2 14 12
f 3 15 4
f 3 13 16
f 3 16 17
f 3 17 15
f 4 15 18
f 4 18 19
f 4 19 20
f 4 20 5
f 5 20 31
f 5 31 30
f 5 30 44
f 5 44 45
f 5 45 43
f 5 43 42
f 5 42 61
f 5 61 63
f 5 63 62
f 5 62 68
f 5 68 67
f 5 67 81
f 5 81 80
f 5 80 84
f 5 84 83
f 5 83 98
f 5 98 100
f 5 100 99
f 5 99 90
f 5 90 89
f 5 89 101
f 5 101 111
f 5 111 113
f 5 113 112
f 5 112 120
f 5 120 119
f 5 119 118
f 5 118 121
f 5 121 122
f 5 122 123
f 5 123 115
f 5 115 102
f 5 102 91
f 5 91 69
f 5 69 46
f 5 46 32
f 5 32 21
f 5 21 7
f 5 7 6
f 8 21 32
f 8 32 50
f 8 50 51
f 8 51 33
f 8 33 22
f 8 22 14
f 8 14 11
f 8 11 10
f 8 10 9
f 12 14 22
f 12 22 23
f 12 23 24
f 12 24 13
f 13 24 16
f 15 17 18
f 16 24 17
f 17 24 25
f 17 25 26
f 17 26 18
f 18 26 27
f 18 27 28
f 18 28 29
f 18 29 19
f 19 29 30
f 19 30 31
f 19 31 20
f 22 33 34
f 22 34 55
f 22 55 56
f 22 56 35
f 22 35 23
f 23 35 24
f 24 35 36
f 24 36 25
f 25 36 37
f 25 37 26
f 26 38 27
f 26 37 39
f 26 39 40
f 26 40 41
f 26 41 38
f 27 38 42
f 27 42 43
f 27 43 28
f 28 43 29
f 29 44 30
f 29 43 45
f 29 45 44
f 32 46 47
f 32 47 48
f 32 48 49
f 32 49 50
f 33 51 49
f 33 49 52
f 33 52 34
f 34 52 49
f 34 49 48
f 34 48 47
f 34 47 70
f 34 70 69
f 34 69 91
f 34 91 103
f 34 103 117
f 34 117 108
f 34 108 104
f 34 104 92
f 34 92 71
f 34 71 53
f 34 53 54
f 34 54 55
f 35 56 57
f 35 57 36
f 36 57 58
f 36 58 59
f 36 59 37
f 37 59 60
f 37 60 39
f 38 61 42
f 38 41 62
f 38 62 63
f 38 63 61
f 39 64 65
f 39 65 40
f 39 60 66
f 39 66 64
f 40 65 67
f 40 67 41
f 41 68 62
f 41 67 68
f 46 69 70
f 46 70 47
f 49 51 50
f 53 71 72
f 53 72 54
f 54 72 73
f 54 73 74
f 54 74 75
f 54 75 56
f 54 56 55
f 56 75 57
f 57 75 76
f 57 76 58
f 58 76 77
f 58 77 78
f 58 78 60
f 58 60 59
f 60 78 79
f 60 79 66
f 64 80 81
f 64 81 65
f 64 66 82
f 64 82 83
f 64 83 84
f 64 84 80
f 65 81 67
f 66 85 86
f 66 86 82
f 66 79 87
f 66 87 88
f 66 88 89
f 66 89 90
f 66 90 85
f 71 92 73
f 71 73 72
f 73 93 74
f 73 92 94
f 73 94 95
f 73 95 93
f 74 96 77
f 74 77 76
f 74 76 75
f 74 93 96
f 77 96 79
f 77 79 78
f 79 96 97
f 79 97 87
f 82 86 83
f 83 86 98
f 85 99 100
f 85 100 98
f 85 98 86
f 85 90 99
f 87 97 101
f 87 101 89
f 87 89 88
f 91 102 103
f 92 104 94
f 93 95 105
f 93 105 106
f 93 106 107
f 93 107 96
f 94 104 108
f 94 108 109
f 94 109 95
f 95 110 105
f 95 109 110
f 96 107 97
f 97 111 101
f 97 107 112
f 97 112 113
f 97 113 111
f 102 114 103
f 102 115 116
f 102 116 114
f 103 114 109
f 103 109 117
f 105 110 121
f 105 121 118
f 105 118 119
f 105 119 106
f 106 119 107
f 107 119 120
f 107 120 112
f 108 117 109
f 109 116 110
f 109 114 116
f 110 116 122
f 110 122 121
f 115 123 116
f 116 123 122

