# https://github.com/mikedh/trimesh
v -0.02742798 -0.00152583 0.00089489
v -0.02717561 -0.01770705 0.00267597
v -0.02718098 -0.00152583 0.00264647
v -0.02742261 -0.00152583 -0.00092675
v -0.02742261 -0.00511027 -0.00090094
v -0.02739039 -0.14908805 0.00089489
v -0.02717561 -0.14908805 0.00254690
v -0.02717561 -0.13289220 0.00257271
v -0.02717561 -0.12749358 0.00258009
v -0.02699304 -0.07530694 0.00359416
v -0.02717561 -0.00870935 0.00267597
v -0.02699304 -0.00152583 0.00356097
v -0.02699304 -0.03390290 0.00358310
v -0.02699304 -0.02850428 0.00357941
v -0.02717561 -0.00152583 -0.00268571
v -0.02717561 -0.02310567 -0.00268939
v -0.02717561 -0.02850428 -0.00268939
v -0.02716487 -0.09868632 -0.00263039
v -0.02715950 -0.12389450 -0.00261564
v -0.02715413 -0.14908805 -0.00259721
v -0.02738502 -0.11669634 -0.00090094
v -0.02736892 -0.14188990 -0.00090094
v -0.02736355 -0.14908805 -0.00090094
v -0.02717561 -0.15024386 -0.00090094
v -0.02719172 -0.15025848 0.00089489
v -0.02711654 -0.15017070 0.00229615
v -0.02694471 -0.14908805 0.00344666
v -0.02695545 -0.14728851 0.00344666
v -0.02696082 -0.14368943 0.00345404
v -0.02699304 -0.07889139 0.00358679
v -0.02666012 -0.07170786 0.00449761
v -0.02666549 -0.03390290 0.00449761
v -0.02699304 -0.06990832 0.00359416
v -0.02663864 -0.12569404 0.00449761
v -0.02664938 -0.10228540 0.00449761
v -0.02665475 -0.08968862 0.00449761
v -0.02666549 -0.00331073 0.00449761
v -0.02666549 -0.00152583 0.00448286
v -0.02698767 -0.00152583 -0.00357440
v -0.02699304 -0.01770705 -0.00358547
v -0.02699304 -0.02310567 -0.00358915
v -0.02699304 -0.03390290 -0.00358915
v -0.02699304 -0.03750198 -0.00358547
v -0.02697693 -0.14368943 -0.00350434
v -0.02715950 -0.12209496 -0.00261933
v -0.02715413 -0.14728851 -0.00260089
v -0.02697156 -0.14728851 -0.00350065
v -0.02696619 -0.14908805 -0.00349696
v -0.02710043 -0.15014144 -0.00233170
v -0.02589762 -0.15049257 -0.00449997
v -0.02609630 -0.15074129 -0.00090094
v -0.02609630 -0.15075591 0.00089489
v -0.02526400 -0.15009755 0.00731120
v -0.02660105 -0.14908805 0.00449761
v -0.02589225 -0.15049257 0.00449761
v -0.02552712 -0.15031700 0.00629712
v -0.02661716 -0.14728851 0.00449761
v -0.02587615 -0.13469174 0.00629712
v -0.02588152 -0.03030383 0.00629712
v -0.02587078 -0.14188990 0.00629712
v -0.02588152 -0.00152583 0.00629712
v -0.02666012 -0.00152583 0.00449761
v -0.02666012 -0.00152583 -0.00449997
v -0.02666549 -0.00331073 -0.00449997
v -0.02666549 -0.01770705 -0.00449997
v -0.02666012 -0.04110106 -0.00449997
v -0.02663327 -0.11849588 -0.00449997
v -0.02662790 -0.13109266 -0.00449997
v -0.02662253 -0.14188990 -0.00449997
v -0.02661716 -0.14728851 -0.00449997
v -0.02660642 -0.14908805 -0.00449997
v -0.02526400 -0.15008291 -0.00730619
v -0.02551638 -0.15031700 -0.00629949
v -0.02429209 -0.15079981 -0.00629949
v -0.02429209 -0.15099000 -0.00449997
v -0.02429209 -0.15099000 0.00449761
v -0.02425987 -0.15040479 0.00798233
v -0.02364236 -0.15024386 0.00930246
v -0.02376586 -0.14908805 0.00945734
v -0.02466797 -0.14908805 0.00826627
v -0.02530159 -0.14908805 0.00736651
v -0.02586004 -0.14908805 0.00629712
v -0.02429209 -0.15081444 0.00629712
v -0.02586541 -0.14728851 0.00629712
v -0.02530696 -0.14548898 0.00737020
v -0.02530696 -0.14188990 0.00737388
v -0.02531770 -0.00152583 0.00735913
v -0.02664938 -0.00152583 -0.00452579
v -0.02587078 -0.00152583 -0.00631424
v -0.02588152 -0.00331073 -0.00629949
v -0.02588152 -0.00870935 -0.00629949
v -0.02586004 -0.12029543 -0.00629949
v -0.02585467 -0.13649127 -0.00629949
v -0.02584393 -0.14908805 -0.00629949
v -0.02530159 -0.14908805 -0.00736150
v -0.02467871 -0.14908805 -0.00826126
v -0.02378197 -0.14908805 -0.00945971
v -0.02365310 -0.15024386 -0.00930483
v -0.02427061 -0.15040479 -0.00798469
v -0.02250398 -0.15050719 -0.00990221
v -0.02249325 -0.15093148 -0.00809901
v -0.01889556 -0.15099000 -0.00989852
v -0.01889556 -0.15099000 0.00989616
v -0.02069440 -0.15093148 0.00989616
v -0.02249325 -0.15091685 0.00809664
v -0.02250935 -0.15049257 0.00989984
v -0.02191869 -0.15025848 0.01109460
v -0.02297652 -0.14908805 0.01035710
v -0.02466797 -0.14728851 0.00826995
v -0.02298189 -0.14188990 0.01036078
v -0.02377660 -0.13109266 0.00946471
v -0.02530696 -0.14728851 0.00736651
v -0.02467334 -0.13829082 0.00827364
v -0.02467871 -0.12569404 0.00826995
v -0.02469482 -0.03030383 0.00827364
v -0.02470556 -0.00152583 0.00826258
v -0.02530696 -0.00152583 0.00737757
v -0.02530696 -0.00152583 -0.00737625
v -0.02530696 -0.01230843 -0.00737625
v -0.02530696 -0.13469174 -0.00737256
v -0.02530696 -0.13829082 -0.00736887
v -0.02468408 -0.14368943 -0.00826495
v -0.02468408 -0.14548898 -0.00826126
v -0.02378734 -0.13829082 -0.00946708
v -0.02297115 -0.14368943 -0.01036315
v -0.02296578 -0.14728851 -0.01036315
v -0.02296578 -0.14908805 -0.01035946
v -0.02190795 -0.15025848 -0.01110435
v -0.02065681 -0.15046331 -0.01170173
v -0.02069440 -0.15093148 -0.00989852
v -0.01709134 -0.15099000 -0.01170173
v -0.01709134 -0.15099000 0.01169567
v -0.01529250 -0.15096075 0.01349519
v -0.01889556 -0.15088760 0.01169567
v -0.02065681 -0.15046331 0.01169567
v -0.02003393 -0.15018533 0.01277243
v -0.02207978 -0.14908805 0.01124579
v -0.02298726 -0.12209496 0.01036816
v -0.02378197 -0.11849588 0.00946840
v -0.02379271 -0.04110106 0.00947209
v -0.02379808 -0.00152583 0.00947209
v -0.02469482 -0.00152583 0.00827733
v -0.02469482 -0.00152583 -0.00827601
v -0.02469482 -0.01410797 -0.00827601
v -0.02468408 -0.13469174 -0.00827232
v -0.02468408 -0.14009035 -0.00826863
v -0.02299263 -0.10589911 -0.01037053
v -0.02298726 -0.11489680 -0.01037053
v -0.02298189 -0.12749358 -0.01036684
v -0.02297652 -0.13469174 -0.01036684
v -0.02379808 -0.02310567 -0.00947814
v -0.02297115 -0.14009035 -0.01036684
v -0.02207441 -0.13649127 -0.01126660
v -0.02206904 -0.14728851 -0.01125922
v -0.02206367 -0.14908805 -0.01125922
v -0.02104880 -0.14908805 -0.01215898
v -0.02002856 -0.15018533 -0.01277480
v -0.01889556 -0.15039016 -0.01315461
v -0.01889556 -0.15087296 -0.01170173
v -0.01529250 -0.15093148 -0.01350124
v -0.00809176 -0.15099000 -0.01530076
v -0.00989597 -0.15099000 0.01529471
v -0.01169481 -0.15091685 0.01529471
v -0.01529250 -0.15046331 0.01506608
v -0.01725781 -0.15056572 0.01366482
v -0.01889556 -0.15039016 0.01316331
v -0.01795586 -0.14908805 0.01436913
v -0.01889556 -0.14908805 0.01373488
v -0.02015206 -0.14908805 0.01286462
v -0.02105417 -0.14908805 0.01214555
v -0.01676916 -0.15028775 0.01469364
v -0.02105954 -0.13469174 0.01214924
v -0.02208515 -0.12929312 0.01124948
v -0.02209052 -0.10769865 0.01125317
v -0.02209589 -0.06630924 0.01126054
v -0.02209589 -0.05371247 0.01126423
v -0.02299263 -0.09688678 0.01036816
v -0.02299800 -0.03390290 0.01037185
v -0.02300873 -0.00152583 0.01036078
v -0.02379271 -0.00152583 -0.00947446
v -0.02379808 -0.01950659 -0.00947814
v -0.02209052 -0.11309727 -0.01127028
v -0.02299263 -0.02850428 -0.01037790
v -0.02207978 -0.13109266 -0.01126660
v -0.02105954 -0.13469174 -0.01216636
v -0.02105417 -0.14368943 -0.01216267
v -0.02015206 -0.14548898 -0.01286330
v -0.02015206 -0.14728851 -0.01285961
v -0.02014669 -0.14908805 -0.01285961
v -0.01889556 -0.14908805 -0.01371881
v -0.01793438 -0.14908805 -0.01436044
v -0.01675305 -0.15028775 -0.01469969
v -0.01724707 -0.15056572 -0.01365981
v -0.01529250 -0.15043405 -0.01493569
v -0.00629291 -0.15078518 -0.01710028
v -0.00449407 -0.15090222 -0.01710028
v -0.00269523 -0.15094611 -0.01710028
v -0.00089638 -0.15097538 -0.01710028
v 0.00810321 -0.15099000 -0.01530076
v 0.00990205 -0.15099000 0.01529471
v -0.00449407 -0.15088760 0.01709791
v -0.00629291 -0.15077055 0.01709791
v -0.01169481 -0.15041941 0.01665172
v -0.01318222 -0.15024386 0.01640834
v -0.01705376 -0.14908805 0.01484482
v -0.01795586 -0.14548898 0.01437651
v -0.01889556 -0.14728851 0.01374225
v -0.02015743 -0.14548898 0.01286462
v -0.01437966 -0.14908805 0.01619077
v -0.01529250 -0.14908805 0.01573721
v -0.02016280 -0.13109266 0.01286831
v -0.02016280 -0.12029543 0.01287200
v -0.02107028 -0.04651431 0.01216399
v -0.02107028 -0.03210336 0.01216768
v -0.02209589 -0.03210336 0.01126792
v -0.02211200 -0.00152583 0.01125686
v -0.02299800 -0.00152583 0.01037185
v -0.02299263 -0.00152583 -0.01037421
v -0.02299263 -0.01770705 -0.01037790
v -0.02106491 -0.10589911 -0.01216636
v -0.02105954 -0.12029543 -0.01217004
v -0.02209589 -0.01590751 -0.01127028
v -0.02016280 -0.11669634 -0.01287436
v -0.02015743 -0.13649127 -0.01286699
v -0.01889556 -0.14728851 -0.01372987
v -0.01793438 -0.14728851 -0.01436781
v -0.01703228 -0.14908805 -0.01485088
v -0.00882203 -0.14908805 -0.01795210
v -0.00767829 -0.15014144 -0.01810328
v -0.00820452 -0.15047794 -0.01725515
v -0.00629291 -0.15028775 -0.01823235
v -0.00449407 -0.15040479 -0.01835404
v -0.00269523 -0.15044868 -0.01843516
v -0.00089638 -0.15047794 -0.01847941
v 0.00090246 -0.15097538 -0.01710028
v 0.00270131 -0.15094611 -0.01710028
v 0.00450015 -0.15090222 -0.01710028
v 0.01529858 -0.15093148 -0.01350124
v 0.01710279 -0.15099000 -0.01170173
v 0.01710279 -0.15099000 0.01169567
v 0.01529858 -0.15096075 0.01349519
v 0.01170089 -0.15091685 0.01529471
v 0.00450015 -0.15088760 0.01709791
v -0.00449407 -0.15039016 0.01833692
v -0.00629291 -0.15028775 0.01821892
v -0.00989597 -0.15049257 0.01690247
v -0.00764607 -0.15014144 0.01809723
v -0.01169481 -0.14908805 0.01712741
v -0.01348292 -0.14908805 0.01651159
v -0.01529250 -0.14728851 0.01574090
v -0.01705913 -0.14368943 0.01484851
v -0.01889556 -0.14368943 0.01374594
v -0.01706987 -0.12569404 0.01485589
v -0.01796660 -0.13109266 0.01438020
v -0.01889556 -0.13289220 0.01375332
v -0.01437966 -0.14188990 0.01619077
v -0.01529250 -0.01950659 0.01575933
v -0.01529250 -0.12929312 0.01574458
v -0.01347755 -0.14548898 0.01651528
v -0.01347218 -0.13649127 0.01651897
v -0.01345607 -0.10769865 0.01653003
v -0.01347218 -0.00152583 0.01654109
v -0.01889556 -0.12569404 0.01375700
v -0.02016817 -0.02310567 0.01287937
v -0.02107028 -0.00870935 0.01217136
v -0.02209589 -0.00152583 0.01127161
v -0.02298189 -0.00152583 -0.01038528
v -0.02209589 -0.00152583 -0.01127028
v -0.02016280 -0.10228540 -0.01287805
v -0.02207978 -0.00152583 -0.01128503
v -0.02104880 -0.00152583 -0.01218111
v -0.01889556 -0.09508724 -0.01375937
v -0.01889556 -0.11849588 -0.01374831
v -0.01889556 -0.12569404 -0.01374462
v -0.01703765 -0.14548898 -0.01485457
v -0.01793975 -0.13649127 -0.01437150
v -0.00882203 -0.14728851 -0.01796316
v -0.00791993 -0.14908805 -0.01815491
v -0.00629291 -0.14908805 -0.01846466
v -0.00449407 -0.14908805 -0.01871173
v -0.00269523 -0.14908805 -0.01886660
v -0.00089638 -0.14908805 -0.01895879
v 0.00090246 -0.15047794 -0.01847941
v 0.00629899 -0.15078518 -0.01710028
v 0.00270131 -0.15044868 -0.01843516
v 0.00450015 -0.15040479 -0.01835404
v 0.01529858 -0.15043405 -0.01493569
v 0.01675913 -0.15028775 -0.01469969
v 0.01725315 -0.15056572 -0.01365981
v 0.01890164 -0.15087296 -0.01170173
v 0.02070048 -0.15093148 -0.00989852
v 0.02249933 -0.15093148 -0.00809901
v 0.02249933 -0.15099000 -0.00629949
v 0.02429817 -0.15099000 0.00449761
v 0.02070048 -0.15093148 0.00989616
v 0.01890164 -0.15088760 0.01169567
v 0.01726389 -0.15056572 0.01366113
v 0.01529858 -0.15046331 0.01506239
v 0.01170089 -0.15041941 0.01665172
v 0.00629899 -0.15077055 0.01709791
v 0.00450015 -0.15039016 0.01833692
v -0.00449407 -0.14908805 0.01867986
v -0.00629291 -0.14908805 0.01844017
v -0.00787160 -0.14908805 0.01815254
v -0.00876834 -0.14908805 0.01793129
v -0.00989597 -0.14908805 0.01764366
v -0.00989597 -0.14728851 0.01767685
v -0.01169481 -0.14728851 0.01714585
v -0.01706987 -0.11669634 0.01485958
v -0.01706450 -0.10409957 0.01486326
v -0.01705913 -0.06271016 0.01486695
v -0.01796660 -0.10769865 0.01438020
v -0.01439039 -0.00152583 0.01618340
v -0.01529250 -0.00152583 0.01575933
v -0.01169481 -0.13829082 0.01714953
v -0.01169481 -0.12389450 0.01715322
v -0.01169481 -0.00152583 0.01716797
v -0.01169481 -0.09688678 0.01715691
v -0.01889556 -0.11489680 0.01375700
v -0.02018428 -0.00152583 0.01286831
v -0.02107028 -0.00152583 0.01217136
v -0.02016280 -0.08249047 -0.01287805
v -0.02015743 -0.00152583 -0.01287067
v -0.02016280 -0.02490520 -0.01287436
v -0.01889556 -0.05011339 -0.01375937
v -0.01796660 -0.07530694 -0.01438625
v -0.01795586 -0.10409957 -0.01437888
v -0.01704839 -0.12209496 -0.01485825
v -0.00792530 -0.14368943 -0.01815860
v -0.00791993 -0.14728851 -0.01815860
v -0.01705376 -0.10949818 -0.01485825
v -0.01706450 -0.08429000 -0.01485825
v -0.00882740 -0.13109266 -0.01796316
v -0.00794678 -0.00152583 -0.01816966
v -0.00792530 -0.12749358 -0.01816228
v -0.00629291 -0.00152583 -0.01849047
v -0.00269523 -0.14548898 -0.01887029
v -0.00626606 -0.00152583 -0.01849416
v -0.00446722 -0.00152583 -0.01873385
v 0.00090246 -0.14908805 -0.01895879
v -0.00089638 -0.00152583 -0.01897354
v 0.00629899 -0.15028775 -0.01823235
v 0.00821060 -0.15047794 -0.01725515
v 0.00270131 -0.14908805 -0.01886660
v 0.00768437 -0.15014144 -0.01810328
v 0.00882274 -0.14908805 -0.01794841
v 0.01703836 -0.14908805 -0.01485088
v 0.01793509 -0.14908805 -0.01435675
v 0.02003464 -0.15018533 -0.01277111
v 0.01890164 -0.15037553 -0.01315093
v 0.02066289 -0.15046331 -0.01170173
v 0.02251007 -0.15050719 -0.00990221
v 0.02429817 -0.15079981 -0.00629949
v 0.02429817 -0.15097538 -0.00449997
v 0.02429817 -0.15099000 -0.00270046
v 0.02610238 -0.15075591 0.00089489
v 0.02589296 -0.15049257 0.00449761
v 0.02429817 -0.15081444 0.00629712
v 0.02249933 -0.15091685 0.00809664
v 0.02251544 -0.15049257 0.00989984
v 0.02066289 -0.15046331 0.01169567
v 0.01890164 -0.15039016 0.01315962
v 0.01676987 -0.15028775 0.01469364
v 0.01318830 -0.15024386 0.01640465
v 0.00990205 -0.15049257 0.01690247
v 0.00764678 -0.15014144 0.01809723
v 0.00629899 -0.15028775 0.01821892
v 0.00450015 -0.14908805 0.01867986
v -0.00449407 -0.14548898 0.01868355
v -0.00629291 -0.14548898 0.01844386
v -0.00878445 -0.14009035 0.01794973
v -0.00877371 -0.14728851 0.01794604
v -0.00629291 -0.13649127 0.01844755
v -0.00789308 -0.13469174 0.01815254
v -0.00883277 -0.09328770 0.01796448
v -0.00989597 -0.14188990 0.01768054
v -0.01705913 -0.03930152 0.01486695
v -0.01796123 -0.04831385 0.01437651
v -0.01889556 -0.00152583 0.01375332
v -0.01704839 -0.00152583 0.01486695
v -0.01705376 -0.01590751 0.01486695
v -0.00989597 -0.12389450 0.01768423
v -0.00989597 -0.00152583 0.01769898
v -0.01889556 -0.00152583 -0.01374831
v -0.01889556 -0.01050889 -0.01375199
v -0.01889556 -0.02670475 -0.01375568
v -0.01796123 -0.02130613 -0.01438256
v -0.01796660 -0.07170786 -0.01438625
v -0.01706450 -0.04290060 -0.01485825
v -0.00884888 -0.00152583 -0.01796684
v -0.00883277 -0.00152583 -0.01797053
v -0.00266838 -0.00152583 -0.01888504
v 0.00270131 -0.14188990 -0.01887029
v 0.00092931 -0.00152583 -0.01896985
v 0.00270131 -0.00152583 -0.01888504
v 0.00450015 -0.14908805 -0.01871173
v 0.00629899 -0.14908805 -0.01846466
v 0.00792601 -0.14908805 -0.01815491
v 0.00882274 -0.14728851 -0.01795947
v 0.01793509 -0.14728851 -0.01436412
v 0.00886033 -0.00152583 -0.01796684
v 0.01705984 -0.00511027 -0.01485457
v 0.01795657 -0.01410797 -0.01437519
v 0.01890164 -0.14908805 -0.01371512
v 0.02191403 -0.15025848 -0.01110435
v 0.02015277 -0.14908805 -0.01285592
v 0.02104951 -0.14908805 -0.01215529
v 0.02365381 -0.15024386 -0.00930483
v 0.02427132 -0.15040479 -0.00798101
v 0.02552245 -0.15030238 -0.00629949
v 0.02589833 -0.15049257 -0.00449997
v 0.02610238 -0.15074129 -0.00090094
v 0.02719243 -0.15025848 0.00089489
v 0.02712262 -0.15015607 0.00228509
v 0.02552782 -0.15031700 0.00629712
v 0.02426595 -0.15039016 0.00798233
v 0.02364844 -0.15022922 0.00929878
v 0.02191940 -0.15025848 0.01109092
v 0.02004001 -0.15018533 0.01277243
v 0.01795657 -0.14908805 0.01436545
v 0.01705447 -0.14908805 0.01484114
v 0.01529858 -0.14908805 0.01573352
v 0.01438037 -0.14908805 0.01618709
v 0.01348363 -0.14908805 0.01651159
v 0.01170089 -0.14908805 0.01712372
v 0.00990205 -0.14908805 0.01763997
v 0.00877442 -0.14908805 0.01792760
v 0.00787231 -0.14908805 0.01814886
v 0.00629899 -0.14908805 0.01844017
v -0.00449407 -0.08429000 0.01869830
v -0.00449407 -0.10589911 0.01869461
v -0.00449407 -0.12569404 0.01869092
v -0.00449407 -0.13649127 0.01868724
v 0.00627751 -0.00152583 0.01846230
v 0.00450015 -0.00152583 0.01868355
v -0.00629291 -0.00152583 0.01845861
v -0.00631976 -0.00152583 0.01845492
v -0.00797362 -0.00152583 0.01817098
v -0.00883814 -0.08968862 0.01796448
v -0.00885425 -0.05911109 0.01796817
v -0.01795049 -0.01230843 0.01437282
v -0.01796123 -0.00152583 0.01436176
v -0.01795049 -0.00331073 0.01436913
v -0.00888647 -0.00152583 0.01796448
v -0.01887945 -0.00152583 -0.01375937
v -0.01794512 -0.00152583 -0.01438625
v -0.01705913 -0.00511027 -0.01485825
v -0.01703228 -0.00152583 -0.01486563
v 0.00450015 -0.00152583 -0.01873385
v 0.00629899 -0.00152583 -0.01849047
v 0.00791527 -0.14368943 -0.01815860
v 0.00632584 -0.00152583 -0.01848679
v 0.00797433 -0.00152583 -0.01816966
v 0.01890164 -0.14728851 -0.01372249
v 0.01797268 -0.00152583 -0.01436781
v 0.01705984 -0.00152583 -0.01485457
v 0.02206975 -0.14908805 -0.01125554
v 0.02296649 -0.14908805 -0.01035578
v 0.02016888 -0.03390290 -0.01287067
v 0.02106562 -0.03570244 -0.01217004
v 0.02209660 -0.02670475 -0.01127028
v 0.02378268 -0.14908805 -0.00945602
v 0.02527008 -0.15008291 -0.00730250
v 0.02710114 -0.15014144 -0.00232064
v 0.02718169 -0.15024386 -0.00090094
v 0.02738574 -0.14908805 0.00089489
v 0.02718169 -0.14908805 0.00252846
v 0.02694542 -0.14908805 0.00342822
v 0.02659640 -0.14908805 0.00449761
v 0.02527008 -0.15008291 0.00730751
v 0.02376657 -0.14908805 0.00944996
v 0.02298260 -0.14908805 0.01035341
v 0.02208049 -0.14908805 0.01124211
v 0.02105488 -0.14908805 0.01214186
v 0.02015814 -0.14908805 0.01286093
v 0.01890164 -0.14908805 0.01373119
v 0.01795657 -0.14728851 0.01437282
v 0.01529858 -0.14728851 0.01573721
v 0.01706521 -0.04110106 0.01485589
v 0.01438037 -0.14728851 0.01619077
v 0.01170089 -0.14728851 0.01714216
v 0.01345141 -0.00152583 0.01654847
v 0.00990205 -0.14728851 0.01767685
v 0.00877442 -0.14728851 0.01794235
v 0.00886033 -0.00152583 0.01797185
v 0.00797433 -0.00152583 0.01817098
v -0.00449407 -0.06450970 0.01869830
v -0.00449407 -0.00152583 0.01868724
v -0.00887036 -0.00152583 0.01796817
v -0.01705376 -0.00152583 -0.01485457
v 0.01890164 -0.02490520 -0.01374462
v 0.01890164 -0.00152583 -0.01374462
v 0.02299871 -0.01950659 -0.01037053
v 0.02016888 -0.01590751 -0.01287067
v 0.02106562 -0.00152583 -0.01217004
v 0.02209660 -0.00152583 -0.01127028
v 0.02211271 -0.00152583 -0.01125554
v 0.02468479 -0.14908805 -0.00825388
v 0.02379879 -0.02310567 -0.00946708
v 0.02469552 -0.03930152 -0.00827232
v 0.02530230 -0.14908805 -0.00735412
v 0.02583927 -0.14908805 -0.00629949
v 0.02660713 -0.14908805 -0.00449997
v 0.02696690 -0.14908805 -0.00347853
v 0.02715484 -0.14908805 -0.00257877
v 0.02736426 -0.14908805 -0.00090094
v 0.02742333 -0.00152583 -0.00090094
v 0.02742870 -0.00152583 0.00089489
v 0.02695616 -0.14728851 0.00342822
v 0.02718169 -0.01050889 0.00265753
v 0.02699375 -0.01050889 0.00355729
v 0.02661250 -0.14728851 0.00449761
v 0.02586075 -0.14908805 0.00629712
v 0.02530767 -0.14908805 0.00735913
v 0.02466868 -0.14908805 0.00825889
v 0.02379879 -0.00511027 0.00946840
v 0.02299871 -0.03030383 0.01036447
v 0.02210197 -0.00152583 0.01126792
v 0.02107099 -0.00870935 0.01216768
v 0.02106025 -0.00152583 0.01217874
v 0.01890164 -0.14728851 0.01373488
v 0.02017425 -0.03930152 0.01287568
v 0.01890164 -0.05191293 0.01375332
v 0.01796731 -0.06450970 0.01437651
v 0.01529858 -0.01230843 0.01575565
v 0.01705984 -0.03030383 0.01485958
v 0.01438574 -0.07170786 0.01619077
v 0.01170089 -0.00152583 0.01716428
v 0.01438574 -0.03570244 0.01619077
v 0.01438037 -0.00152583 0.01618709
v 0.00990205 -0.00152583 0.01769529
v 0.02016351 -0.00152583 -0.01286699
v 0.02299871 -0.00152583 -0.01037053
v 0.02379879 -0.00690981 -0.00947077
v 0.02531304 -0.05371247 -0.00737256
v 0.02470626 -0.00152583 -0.00826126
v 0.02588223 -0.00511027 -0.00629949
v 0.02587686 -0.02490520 -0.00629949
v 0.02661787 -0.14728851 -0.00449997
v 0.02666083 -0.02130613 -0.00449997
v 0.02697764 -0.14728851 -0.00347853
v 0.02717632 -0.01950659 -0.00267096
v 0.02718169 -0.00152583 -0.00265621
v 0.02718169 -0.00152583 0.00265753
v 0.02699375 -0.00152583 0.00355729
v 0.02666620 -0.00690981 0.00449761
v 0.02588223 -0.04470014 0.00629712
v 0.02531841 -0.05371247 0.00737388
v 0.02469552 -0.01410797 0.00827364
v 0.02470089 -0.00152583 0.00826995
v 0.02379879 -0.00152583 0.00946840
v 0.02299871 -0.00870935 0.01036816
v 0.02298797 -0.00152583 0.01037922
v 0.02017425 -0.00152583 0.01287568
v 0.01890164 -0.03030383 0.01375332
v 0.01796731 -0.04831385 0.01437651
v 0.01702762 -0.00152583 0.01487801
v 0.01705447 -0.01590751 0.01486326
v 0.01529858 -0.00152583 0.01575565
v 0.02379879 -0.00152583 -0.00947077
v 0.02531304 -0.00152583 -0.00737256
v 0.02588223 -0.00331073 -0.00629949
v 0.02699375 -0.02670475 -0.00356703
v 0.02666083 -0.00152583 -0.00449997
v 0.02666620 -0.00152583 -0.00448522
v 0.02699375 -0.02130613 -0.00357072
v 0.02699375 -0.01770705 -0.00357072
v 0.02699375 -0.00690981 -0.00356334
v 0.02699375 -0.00152583 -0.00355965
v 0.02666083 -0.00152583 0.00449761
v 0.02666620 -0.00331073 0.00449761
v 0.02588223 -0.00152583 0.00629712
v 0.02531841 -0.04470014 0.00737388
v 0.02531304 -0.00152583 0.00737020
v 0.02299871 -0.00152583 0.01036816
v 0.01890164 -0.00152583 0.01374963
v 0.01795120 -0.00152583 0.01436913
v 0.02587686 -0.00152583 -0.00629949
v 0.02665009 -0.00152583 0.00452342
f 1 2 3
f 1 3 12
f 1 12 38
f 1 38 62
f 1 62 61
f 1 61 87
f 1 87 117
f 1 117 116
f 1 116 142
f 1 142 141
f 1 141 179
f 1 179 217
f 1 217 216
f 1 216 266
f 1 266 321
f 1 321 320
f 1 320 379
f 1 379 442
f 1 442 380
f 1 380 314
f 1 314 313
f 1 313 262
f 1 262 317
f 1 317 383
f 1 383 444
f 1 444 489
f 1 489 438
f 1 438 437
f 1 437 436
f 1 436 488
f 1 488 435
f 1 435 434
f 1 434 486
f 1 486 485
f 1 485 531
f 1 531 528
f 1 528 482
f 1 482 530
f 1 530 559
f 1 559 557
f 1 557 577
f 1 577 576
f 1 576 554
f 1 554 520
f 1 520 518
f 1 518 553
f 1 553 575
f 1 575 551
f 1 551 550
f 1 550 574
f 1 574 572
f 1 572 579
f 1 579 570
f 1 570 545
f 1 545 544
f 1 544 508
f 1 508 507
f 1 507 543
f 1 543 569
f 1 569 565
f 1 565 564
f 1 564 578
f 1 578 561
f 1 561 536
f 1 536 560
f 1 560 533
f 1 533 497
f 1 497 496
f 1 496 495
f 1 495 532
f 1 532 492
f 1 492 455
f 1 455 456
f 1 456 401
f 1 401 453
f 1 453 452
f 1 452 450
f 1 450 449
f 1 449 395
f 1 395 394
f 1 394 341
f 1 341 392
f 1 392 339
f 1 339 338
f 1 338 336
f 1 336 334
f 1 334 391
f 1 391 390
f 1 390 448
f 1 448 490
f 1 490 446
f 1 446 445
f 1 445 384
f 1 384 323
f 1 323 271
f 1 271 270
f 1 270 268
f 1 268 267
f 1 267 218
f 1 218 180
f 1 180 143
f 1 143 118
f 1 118 89
f 1 89 88
f 1 88 63
f 1 63 39
f 1 39 15
f 1 15 4
f 1 4 5
f 1 5 6
f 1 6 7
f 1 7 8
f 1 8 9
f 1 9 2
f 2 10 33
f 2 33 11
f 2 11 3
f 2 9 10
f 3 11 13
f 3 13 14
f 3 14 12
f 4 15 16
f 4 16 17
f 4 17 18
f 4 18 19
f 4 19 20
f 4 20 21
f 4 21 5
f 5 21 6
f 6 21 22
f 6 22 23
f 6 23 24
f 6 24 25
f 6 25 26
f 6 26 7
f 7 26 27
f 7 27 28
f 7 28 29
f 7 29 30
f 7 30 10
f 7 10 8
f 8 10 9
f 10 31 32
f 10 32 37
f 10 37 33
f 10 30 34
f 10 34 35
f 10 35 36
f 10 36 31
f 11 33 13
f 12 37 38
f 12 14 37
f 13 37 14
f 13 33 37
f 15 39 40
f 15 40 41
f 15 41 16
f 16 41 42
f 16 42 17
f 17 42 43
f 17 43 44
f 17 44 18
f 18 44 45
f 18 45 19
f 19 45 46
f 19 46 20
f 20 46 44
f 20 44 47
f 20 47 48
f 20 48 49
f 20 49 23
f 20 23 22
f 20 22 21
f 23 49 24
f 24 49 50
f 24 50 51
f 24 51 25
f 25 51 52
f 25 52 26
f 26 53 54
f 26 54 27
f 26 52 55
f 26 55 56
f 26 56 53
f 27 54 57
f 27 57 28
f 28 57 29
f 29 57 30
f 30 57 34
f 31 36 58
f 31 58 32
f 32 59 61
f 32 61 37
f 32 58 59
f 34 57 84
f 34 84 60
f 34 60 58
f 34 58 35
f 35 58 36
f 37 61 62
f 37 62 38
f 39 63 64
f 39 64 40
f 40 64 41
f 41 64 65
f 41 65 42
f 42 65 66
f 42 66 67
f 42 67 43
f 43 67 44
f 44 67 68
f 44 68 69
f 44 69 70
f 44 70 47
f 44 46 45
f 47 70 48
f 48 70 71
f 48 71 49
f 49 71 72
f 49 72 73
f 49 73 50
f 50 73 74
f 50 74 75
f 50 75 51
f 51 75 52
f 52 75 76
f 52 76 55
f 53 56 77
f 53 77 78
f 53 78 79
f 53 79 80
f 53 80 81
f 53 81 82
f 53 82 54
f 54 82 57
f 55 76 83
f 55 83 56
f 56 83 77
f 57 82 84
f 58 60 85
f 58 85 86
f 58 86 59
f 59 87 61
f 59 86 87
f 60 84 85
f 63 88 64
f 64 88 89
f 64 89 90
f 64 90 91
f 64 91 65
f 65 91 92
f 65 92 66
f 66 92 93
f 66 93 67
f 67 93 68
f 68 93 69
f 69 94 70
f 69 93 94
f 70 94 71
f 71 94 72
f 72 94 95
f 72 95 96
f 72 96 97
f 72 97 98
f 72 98 99
f 72 99 73
f 73 99 74
f 74 99 100
f 74 100 101
f 74 101 75
f 75 101 130
f 75 130 102
f 75 102 131
f 75 131 161
f 75 161 199
f 75 199 239
f 75 239 293
f 75 293 355
f 75 355 294
f 75 294 240
f 75 240 200
f 75 200 162
f 75 162 132
f 75 132 103
f 75 103 76
f 76 103 104
f 76 104 105
f 76 105 83
f 77 83 106
f 77 106 78
f 78 107 108
f 78 108 79
f 78 106 107
f 79 109 80
f 79 108 110
f 79 110 111
f 79 111 113
f 79 113 109
f 80 109 85
f 80 85 112
f 80 112 81
f 81 112 84
f 81 84 82
f 83 105 106
f 84 112 85
f 85 109 113
f 85 113 86
f 86 113 114
f 86 114 115
f 86 115 116
f 86 116 117
f 86 117 87
f 89 118 90
f 90 118 119
f 90 119 91
f 91 119 120
f 91 120 92
f 92 120 93
f 93 120 121
f 93 121 95
f 93 95 94
f 95 121 122
f 95 122 123
f 95 123 96
f 96 123 122
f 96 122 97
f 97 122 124
f 97 124 125
f 97 125 126
f 97 126 127
f 97 127 98
f 98 127 128
f 98 128 100
f 98 100 99
f 100 128 129
f 100 129 130
f 100 130 101
f 102 130 131
f 103 132 104
f 104 133 134
f 104 134 135
f 104 135 106
f 104 106 105
f 104 132 133
f 106 135 107
f 107 136 137
f 107 137 108
f 107 135 136
f 108 137 110
f 110 137 138
f 110 138 139
f 110 139 111
f 111 139 113
f 113 139 114
f 114 139 115
f 115 140 141
f 115 141 142
f 115 142 116
f 115 139 140
f 118 143 144
f 118 144 119
f 119 144 120
f 120 145 146
f 120 146 122
f 120 122 121
f 120 144 145
f 122 146 124
f 124 147 148
f 124 148 149
f 124 149 150
f 124 150 125
f 124 146 145
f 124 145 151
f 124 151 147
f 125 150 152
f 125 152 153
f 125 153 154
f 125 154 126
f 126 154 127
f 127 154 155
f 127 155 128
f 128 155 156
f 128 156 157
f 128 157 129
f 129 158 159
f 129 159 130
f 129 157 158
f 130 159 131
f 131 159 160
f 131 160 161
f 132 162 133
f 133 163 164
f 133 164 165
f 133 165 134
f 133 162 163
f 134 165 166
f 134 166 135
f 135 166 136
f 136 167 168
f 136 168 169
f 136 169 170
f 136 170 137
f 136 166 171
f 136 171 167
f 137 170 172
f 137 172 173
f 137 173 138
f 138 173 174
f 138 174 175
f 138 175 176
f 138 176 177
f 138 177 139
f 139 177 140
f 140 178 141
f 140 177 178
f 141 178 179
f 143 180 181
f 143 181 151
f 143 151 144
f 144 151 145
f 147 182 148
f 147 151 183
f 147 183 182
f 148 182 149
f 149 182 150
f 150 182 184
f 150 184 153
f 150 153 152
f 151 181 219
f 151 219 183
f 153 184 185
f 153 185 186
f 153 186 154
f 154 186 156
f 154 156 155
f 156 186 187
f 156 187 188
f 156 188 189
f 156 189 157
f 157 189 190
f 157 190 191
f 157 191 192
f 157 192 158
f 158 192 193
f 158 193 159
f 159 193 160
f 160 193 192
f 160 192 194
f 160 194 195
f 160 195 196
f 160 196 161
f 161 196 197
f 161 197 198
f 161 198 235
f 161 235 199
f 162 200 243
f 162 243 201
f 162 201 163
f 163 201 202
f 163 202 203
f 163 203 164
f 164 203 204
f 164 204 171
f 164 171 165
f 165 171 166
f 167 205 206
f 167 206 207
f 167 207 168
f 167 171 205
f 168 207 169
f 169 207 208
f 169 208 170
f 170 208 211
f 170 211 172
f 171 204 209
f 171 209 210
f 171 210 205
f 172 174 173
f 172 211 212
f 172 212 213
f 172 213 176
f 172 176 174
f 174 176 175
f 176 213 214
f 176 214 215
f 176 215 177
f 177 215 216
f 177 216 178
f 178 216 217
f 178 217 179
f 180 218 181
f 181 218 219
f 182 220 221
f 182 221 185
f 182 185 184
f 182 183 222
f 182 222 220
f 183 219 268
f 183 268 222
f 185 221 223
f 185 223 224
f 185 224 187
f 185 187 186
f 187 225 188
f 187 224 225
f 188 225 189
f 189 225 190
f 190 225 191
f 191 225 226
f 191 226 227
f 191 227 192
f 192 227 228
f 192 228 229
f 192 229 194
f 194 229 230
f 194 230 195
f 195 230 231
f 195 231 232
f 195 232 196
f 196 232 233
f 196 233 234
f 196 234 197
f 197 234 198
f 198 234 283
f 198 283 235
f 199 235 236
f 199 236 237
f 199 237 238
f 199 238 239
f 200 240 241
f 200 241 242
f 200 242 243
f 201 243 301
f 201 301 244
f 201 244 202
f 202 244 245
f 202 245 246
f 202 246 203
f 203 246 245
f 203 245 247
f 203 247 204
f 204 247 248
f 204 248 249
f 204 249 209
f 205 210 250
f 205 250 251
f 205 251 206
f 206 252 207
f 206 251 253
f 206 253 254
f 206 254 252
f 207 252 208
f 208 252 255
f 208 255 211
f 209 256 314
f 209 314 257
f 209 257 258
f 209 258 250
f 209 250 210
f 209 249 259
f 209 259 260
f 209 260 261
f 209 261 262
f 209 262 256
f 211 255 263
f 211 263 212
f 212 263 264
f 212 264 265
f 212 265 214
f 212 214 213
f 214 265 215
f 215 265 266
f 215 266 216
f 218 267 219
f 219 267 268
f 220 269 221
f 220 222 270
f 220 270 271
f 220 271 269
f 221 269 223
f 222 268 270
f 223 269 272
f 223 272 273
f 223 273 274
f 223 274 224
f 224 274 225
f 225 274 226
f 226 275 227
f 226 274 276
f 226 276 275
f 227 275 277
f 227 277 228
f 228 278 229
f 228 277 278
f 229 278 279
f 229 279 280
f 229 280 231
f 229 231 230
f 231 280 281
f 231 281 232
f 232 281 233
f 233 281 282
f 233 282 234
f 234 282 340
f 234 340 283
f 235 283 236
f 236 283 237
f 237 284 238
f 237 283 285
f 237 285 286
f 237 286 284
f 238 284 287
f 238 287 288
f 238 288 289
f 238 289 290
f 238 290 239
f 239 290 291
f 239 291 292
f 239 292 293
f 240 294 295
f 240 295 241
f 241 295 296
f 241 296 297
f 241 297 298
f 241 298 242
f 242 298 299
f 242 299 300
f 242 300 243
f 243 300 301
f 244 301 368
f 244 368 302
f 244 302 245
f 245 302 247
f 247 302 303
f 247 303 304
f 247 304 305
f 247 305 306
f 247 306 248
f 248 306 307
f 248 307 308
f 248 308 249
f 249 308 259
f 250 258 309
f 250 309 253
f 250 253 251
f 252 254 255
f 253 309 254
f 254 263 255
f 254 309 310
f 254 310 311
f 254 311 377
f 254 377 312
f 254 312 319
f 254 319 263
f 256 262 313
f 256 313 314
f 257 314 377
f 257 377 311
f 257 311 310
f 257 310 309
f 257 309 258
f 259 308 315
f 259 315 316
f 259 316 260
f 260 316 261
f 261 316 262
f 262 316 318
f 262 318 317
f 263 319 320
f 263 320 264
f 264 320 265
f 265 320 321
f 265 321 266
f 269 271 322
f 269 322 325
f 269 325 272
f 271 323 324
f 271 324 322
f 272 325 388
f 272 388 326
f 272 326 273
f 273 327 274
f 273 326 327
f 274 327 276
f 275 328 277
f 275 276 327
f 275 327 326
f 275 326 328
f 277 329 330
f 277 330 278
f 277 328 331
f 277 331 332
f 277 332 333
f 277 333 334
f 277 334 335
f 277 335 329
f 278 330 279
f 279 330 329
f 279 329 335
f 279 335 336
f 279 336 338
f 279 338 280
f 280 337 281
f 280 338 339
f 280 339 337
f 281 337 282
f 282 337 341
f 282 341 340
f 283 340 285
f 284 286 342
f 284 342 343
f 284 343 287
f 285 340 344
f 285 344 286
f 286 344 342
f 287 343 345
f 287 345 288
f 288 345 346
f 288 346 347
f 288 347 348
f 288 348 349
f 288 349 350
f 288 350 289
f 289 350 290
f 290 350 351
f 290 351 291
f 291 351 352
f 291 352 292
f 292 353 354
f 292 354 293
f 292 352 353
f 293 354 355
f 294 355 356
f 294 356 357
f 294 357 358
f 294 358 359
f 294 359 295
f 295 359 360
f 295 360 361
f 295 361 296
f 296 361 362
f 296 362 297
f 297 362 363
f 297 363 298
f 298 363 364
f 298 364 299
f 299 365 300
f 299 364 366
f 299 366 367
f 299 367 365
f 300 365 367
f 300 367 301
f 301 367 368
f 302 368 369
f 302 369 370
f 302 370 303
f 303 370 304
f 304 371 372
f 304 372 307
f 304 307 305
f 304 370 373
f 304 373 374
f 304 374 439
f 304 439 375
f 304 375 371
f 305 307 306
f 307 372 371
f 307 371 376
f 307 376 308
f 308 376 315
f 312 377 378
f 312 378 379
f 312 379 319
f 314 380 381
f 314 381 377
f 315 376 316
f 316 376 382
f 316 382 318
f 317 318 383
f 318 382 383
f 319 379 320
f 322 324 325
f 323 384 385
f 323 385 324
f 324 385 386
f 324 386 325
f 325 386 387
f 325 387 388
f 326 388 389
f 326 389 332
f 326 332 331
f 326 331 328
f 332 389 390
f 332 390 333
f 333 390 391
f 333 391 334
f 334 336 335
f 337 339 392
f 337 392 341
f 340 393 344
f 340 341 394
f 340 394 395
f 340 395 393
f 342 344 396
f 342 396 345
f 342 345 343
f 344 393 396
f 345 396 397
f 345 397 398
f 345 398 346
f 346 398 399
f 346 399 347
f 347 400 348
f 347 399 401
f 347 401 402
f 347 402 403
f 347 403 400
f 348 400 454
f 348 454 404
f 348 404 349
f 349 405 351
f 349 351 350
f 349 404 406
f 349 406 407
f 349 407 405
f 351 405 352
f 352 405 408
f 352 408 409
f 352 409 353
f 353 409 410
f 353 410 411
f 353 411 354
f 354 411 412
f 354 412 356
f 354 356 355
f 356 412 413
f 356 413 414
f 356 414 357
f 357 415 358
f 357 414 415
f 358 415 416
f 358 416 360
f 358 360 359
f 360 416 417
f 360 417 418
f 360 418 361
f 361 418 419
f 361 419 362
f 362 419 363
f 363 419 420
f 363 420 421
f 363 421 422
f 363 422 423
f 363 423 364
f 364 423 424
f 364 424 425
f 364 425 366
f 366 425 426
f 366 426 427
f 366 427 428
f 366 428 429
f 366 429 368
f 366 368 367
f 368 430 431
f 368 431 432
f 368 432 433
f 368 433 369
f 368 429 434
f 368 434 435
f 368 435 430
f 369 433 373
f 369 373 370
f 371 375 376
f 373 433 432
f 373 432 431
f 373 431 430
f 373 430 436
f 373 436 437
f 373 437 438
f 373 438 374
f 374 438 439
f 375 439 376
f 376 439 440
f 376 440 382
f 377 381 378
f 378 381 380
f 378 380 441
f 378 441 379
f 379 441 442
f 380 442 443
f 380 443 441
f 382 440 383
f 383 440 444
f 384 445 385
f 385 445 446
f 385 446 387
f 385 387 386
f 387 446 447
f 387 447 388
f 388 447 389
f 389 447 390
f 390 447 448
f 393 395 449
f 393 449 396
f 396 449 450
f 396 450 452
f 396 452 397
f 397 451 398
f 397 452 451
f 398 451 399
f 399 451 453
f 399 453 401
f 400 403 455
f 400 455 454
f 401 456 402
f 402 456 455
f 402 455 403
f 404 454 406
f 405 407 457
f 405 457 458
f 405 458 408
f 406 454 459
f 406 459 460
f 406 460 407
f 407 460 461
f 407 461 457
f 408 458 462
f 408 462 463
f 408 463 409
f 409 463 410
f 410 463 464
f 410 464 411
f 411 464 465
f 411 465 412
f 412 465 413
f 413 465 466
f 413 466 414
f 414 466 467
f 414 467 468
f 414 468 469
f 414 469 470
f 414 470 415
f 415 470 416
f 416 470 417
f 417 470 471
f 417 471 472
f 417 472 418
f 418 472 473
f 418 473 419
f 419 473 474
f 419 474 475
f 419 475 476
f 419 476 420
f 420 476 477
f 420 477 421
f 421 478 422
f 421 477 479
f 421 479 478
f 422 478 480
f 422 480 423
f 423 480 424
f 424 481 425
f 424 480 482
f 424 482 481
f 425 481 483
f 425 483 426
f 426 483 427
f 427 483 428
f 428 483 484
f 428 484 485
f 428 485 486
f 428 486 429
f 429 486 434
f 430 435 487
f 430 487 436
f 435 488 487
f 436 487 488
f 438 489 440
f 438 440 439
f 440 489 444
f 441 443 442
f 446 490 447
f 447 490 448
f 451 452 453
f 454 455 491
f 454 491 459
f 455 492 491
f 457 461 493
f 457 493 458
f 458 493 462
f 459 491 492
f 459 492 494
f 459 494 495
f 459 495 460
f 460 495 496
f 460 496 461
f 461 496 497
f 461 497 493
f 462 498 463
f 462 493 499
f 462 499 500
f 462 500 498
f 463 498 501
f 463 501 502
f 463 502 503
f 463 503 464
f 464 503 504
f 464 504 505
f 464 505 506
f 464 506 465
f 465 506 466
f 466 506 507
f 466 507 508
f 466 508 467
f 467 509 468
f 467 508 510
f 467 510 511
f 467 511 509
f 468 509 512
f 468 512 469
f 469 513 470
f 469 512 513
f 470 513 514
f 470 514 515
f 470 515 471
f 471 515 516
f 471 516 472
f 472 516 517
f 472 517 518
f 472 518 473
f 473 518 474
f 474 518 519
f 474 519 520
f 474 520 475
f 475 521 476
f 475 520 522
f 475 522 521
f 476 521 477
f 477 521 523
f 477 523 524
f 477 524 479
f 478 479 525
f 478 525 480
f 479 524 526
f 479 526 525
f 480 525 527
f 480 527 482
f 481 482 528
f 481 528 483
f 482 527 529
f 482 529 530
f 483 528 531
f 483 531 485
f 483 485 484
f 492 532 494
f 493 497 533
f 493 533 560
f 493 560 534
f 493 534 499
f 494 532 495
f 498 500 535
f 498 535 501
f 499 534 500
f 500 534 536
f 500 536 535
f 501 535 537
f 501 537 538
f 501 538 502
f 502 539 503
f 502 538 540
f 502 540 539
f 503 539 541
f 503 541 504
f 504 541 505
f 505 541 542
f 505 542 507
f 505 507 506
f 507 542 543
f 508 544 510
f 509 511 512
f 510 544 545
f 510 545 511
f 511 545 571
f 511 571 546
f 511 546 512
f 512 546 513
f 513 546 547
f 513 547 514
f 514 547 548
f 514 548 549
f 514 549 515
f 515 549 516
f 516 549 550
f 516 550 551
f 516 551 575
f 516 575 552
f 516 552 517
f 517 552 518
f 518 552 553
f 518 520 519
f 520 554 522
f 521 522 523
f 522 554 555
f 522 555 523
f 523 555 556
f 523 556 524
f 524 556 557
f 524 557 558
f 524 558 526
f 525 526 557
f 525 557 559
f 525 559 529
f 525 529 527
f 526 558 557
f 529 559 530
f 534 560 536
f 535 536 561
f 535 561 562
f 535 562 537
f 537 562 564
f 537 564 540
f 537 540 538
f 539 540 563
f 539 563 541
f 540 564 565
f 540 565 566
f 540 566 563
f 541 563 542
f 542 563 566
f 542 566 543
f 543 567 568
f 543 568 569
f 543 566 567
f 545 570 571
f 546 571 572
f 546 572 547
f 547 572 573
f 547 573 548
f 548 573 550
f 548 550 549
f 550 573 574
f 552 575 553
f 554 576 555
f 555 576 556
f 556 576 577
f 556 577 557
f 561 578 562
f 562 578 564
f 565 569 568
f 565 568 567
f 565 567 566
f 570 579 571
f 571 579 572
f 572 574 573

