# https://github.com/mikedh/trimesh
v -0.00003490 0.01972807 0.00000971
v -0.00003490 0.01972807 0.03210141
v -0.00003490 0.02798982 0.00000971
v 0.03457047 0.01972807 0.00000971
v -0.00003490 0.02345202 0.03541472
v 0.00450491 0.01972807 0.03260072
v -0.00003490 0.02800928 0.02800702
v 0.02800701 0.02800928 0.00000971
v 0.03463828 0.01991208 0.00000971
v 0.03472037 0.02010014 0.00090134
v 0.03458118 0.01972807 0.00090134
v -0.00003490 0.02435099 0.03617082
v 0.00630371 0.01972807 0.03240813
v 0.00413373 0.02448636 0.03606739
v 0.00270612 0.02439557 0.03613159
v 0.00090376 0.02435018 0.03617082
v -0.00003490 0.02800928 0.03643475
v 0.03641566 0.02800928 0.00000971
v 0.03503444 0.02098857 0.00000971
v 0.03455262 0.01972807 0.00154689
v 0.03536993 0.02190051 0.00000971
v 0.03538064 0.02190051 0.00090134
v -0.00003490 0.02490139 0.03628139
v 0.00672842 0.01972807 0.03232253
v 0.00752432 0.02270626 0.03426273
v 0.00630371 0.02254170 0.03437685
v 0.00270612 0.02549962 0.03632062
v 0.00630371 0.02370007 0.03516506
v 0.00533293 0.02476764 0.03598536
v 0.00090376 0.02549962 0.03639908
v -0.00003490 0.02730000 0.03644545
v 0.00090376 0.02800928 0.03643475
v 0.03642280 0.02800928 0.00090134
v 0.03641923 0.02730000 0.00000971
v 0.03449195 0.01972807 0.00269888
v 0.03560906 0.02256278 0.00000971
v 0.03585532 0.02321857 0.00090134
v 0.03528071 0.02190051 0.00269888
v 0.03462757 0.02010014 0.00269888
v -0.00003490 0.02549962 0.03639908
v 0.00810607 0.01972807 0.03204434
v 0.00872351 0.02288378 0.03413790
v 0.00270612 0.02730000 0.03636342
v 0.00464054 0.02542019 0.03611376
v 0.00811678 0.02357037 0.03471211
v 0.00990486 0.02402269 0.03456232
v 0.01129679 0.02434693 0.03435189
v 0.00990486 0.02549962 0.03500100
v 0.00810607 0.02549962 0.03545752
v 0.00620020 0.02542019 0.03584984
v 0.00552922 0.02596735 0.03602103
v 0.00090376 0.02730000 0.03644188
v 0.00161399 0.02800928 0.03640621
v 0.03642637 0.02730000 0.00090134
v 0.03632644 0.02800928 0.00269888
v 0.03637283 0.02549962 0.00000971
v 0.03445626 0.01972807 0.00308050
v 0.03584818 0.02323072 0.00000971
v 0.03580536 0.02336447 0.00269888
v 0.03616583 0.02412969 0.00000971
v 0.03616583 0.02411753 0.00090134
v 0.03600165 0.02459822 0.00540231
v 0.00812035 0.01972807 0.03204077
v 0.00939092 0.02084023 0.03250799
v 0.00994055 0.01972807 0.03156999
v 0.00990486 0.02312372 0.03397384
v 0.00270612 0.02800928 0.03635628
v 0.00450491 0.02730000 0.03617082
v 0.01181787 0.02372844 0.03376698
v 0.01357026 0.02358901 0.03302157
v 0.01530481 0.02418806 0.03266492
v 0.01628630 0.02453581 0.03243310
v 0.01249598 0.02516971 0.03415930
v 0.00990486 0.02730000 0.03507233
v 0.01181787 0.02566175 0.03441252
v 0.01261019 0.02636941 0.03419853
v 0.01170366 0.02730000 0.03451595
v 0.00810607 0.02730000 0.03552885
v 0.00556492 0.02730000 0.03602459
v 0.00646431 0.02730000 0.03586410
v 0.03637997 0.02549962 0.00090134
v 0.03632644 0.02730000 0.00269888
v 0.03622293 0.02800928 0.00379024
v 0.03615869 0.02730000 0.00449998
v 0.03434205 0.01972807 0.00407913
v 0.03611586 0.02426344 0.00269888
v 0.03604091 0.02448555 0.00449998
v 0.03627647 0.02549962 0.00269888
v 0.03611943 0.02549962 0.00449998
v 0.03601950 0.02549962 0.00549504
v 0.03583391 0.02549962 0.00639381
v 0.03546630 0.02549962 0.00809862
v 0.03502017 0.02549962 0.00989972
v 0.03437417 0.02416211 0.01128710
v 0.03508798 0.02370007 0.00809862
v 0.03558051 0.02387840 0.00612275
v 0.03422784 0.02093507 0.00729971
v 0.03396730 0.01972807 0.00630108
v 0.03416360 0.01972807 0.00518476
v 0.03425996 0.01972807 0.00460698
v 0.00948729 0.01972807 0.03168769
v 0.01059012 0.02108989 0.03233323
v 0.01151807 0.01972807 0.03105284
v 0.01170366 0.02134281 0.03215134
v 0.01170366 0.02224258 0.03278975
v 0.00450491 0.02800928 0.03616012
v 0.00489751 0.02800928 0.03611019
v 0.01301349 0.02256764 0.03255792
v 0.01421269 0.02291540 0.03231540
v 0.01530481 0.02328828 0.03206574
v 0.01665748 0.02245821 0.03083172
v 0.01707149 0.02372520 0.03147726
v 0.01852765 0.02411348 0.03092088
v 0.01884173 0.02549962 0.03112061
v 0.01728563 0.02549962 0.03201938
v 0.01638623 0.02549962 0.03248302
v 0.01530481 0.02549962 0.03299661
v 0.01332757 0.02566175 0.03386328
v 0.00990486 0.02800928 0.03506163
v 0.00881631 0.02800928 0.03533982
v 0.01061510 0.02800928 0.03485120
v 0.01352743 0.02730000 0.03383831
v 0.01262804 0.02730000 0.03420566
v 0.01206770 0.02800928 0.03439469
v 0.01170366 0.02800928 0.03451238
v 0.00810607 0.02800928 0.03551458
v 0.00643576 0.02800928 0.03585697
v 0.00589327 0.02800928 0.03595683
v 0.00553636 0.02800928 0.03601746
v 0.03615155 0.02800928 0.00449998
v 0.03608017 0.02800928 0.00514909
v 0.03603377 0.02800928 0.00556281
v 0.03603377 0.02730000 0.00557351
v 0.03585889 0.02730000 0.00647227
v 0.03551269 0.02730000 0.00809862
v 0.03507013 0.02730000 0.00989972
v 0.03451693 0.02730000 0.01167229
v 0.03448481 0.02549962 0.01160095
v 0.03457761 0.02361819 0.00995321
v 0.03416717 0.02549962 0.01249972
v 0.03379242 0.02549962 0.01349835
v 0.03243975 0.02450987 0.01627668
v 0.03336413 0.02370007 0.01349835
v 0.03397087 0.02361819 0.01181138
v 0.03413862 0.02296322 0.01059162
v 0.03432064 0.02251009 0.00938970
v 0.03443841 0.02190618 0.00798092
v 0.03378528 0.02024118 0.00798092
v 0.03356400 0.01972807 0.00804868
v 0.01264231 0.01972807 0.03051430
v 0.01461242 0.02089697 0.03068906
v 0.01350602 0.02060191 0.03092088
v 0.01357026 0.02194104 0.03188741
v 0.01524771 0.02187538 0.03110634
v 0.01581162 0.02125850 0.03041087
v 0.01719640 0.02187538 0.03013268
v 0.01785667 0.02291459 0.03051430
v 0.01903803 0.02358901 0.03024681
v 0.02065123 0.02374303 0.02930168
v 0.02179689 0.02437044 0.02894502
v 0.01974113 0.02549962 0.03055709
v 0.01735344 0.02730000 0.03204791
v 0.01979466 0.02667015 0.03059276
v 0.01907729 0.02728216 0.03104214
v 0.01645047 0.02730000 0.03252226
v 0.01530481 0.02730000 0.03306437
v 0.01530481 0.02800928 0.03306437
v 0.01422696 0.02800928 0.03353159
v 0.01352743 0.02800928 0.03383474
v 0.01262804 0.02800928 0.03420566
v 0.03592670 0.02800928 0.00610849
v 0.03563761 0.02800928 0.00744951
v 0.03549485 0.02800928 0.00809862
v 0.03506656 0.02800928 0.00989972
v 0.03451693 0.02800928 0.01166872
v 0.03432064 0.02800928 0.01221440
v 0.03419215 0.02730000 0.01257105
v 0.03383882 0.02730000 0.01349835
v 0.03307147 0.02730000 0.01529945
v 0.03301437 0.02549962 0.01529945
v 0.03247188 0.02264951 0.01453978
v 0.03266460 0.02382652 0.01520316
v 0.03248972 0.02549962 0.01636941
v 0.03202218 0.02549962 0.01727175
v 0.03112278 0.02549962 0.01884816
v 0.03056958 0.02549962 0.01974692
v 0.03087295 0.02370007 0.01844157
v 0.03176164 0.02382652 0.01696503
v 0.03216851 0.02331097 0.01574170
v 0.03330703 0.02190051 0.01170082
v 0.03267174 0.02198967 0.01340562
v 0.03246474 0.02086698 0.01274225
v 0.03255753 0.01972807 0.01129780
v 0.03291087 0.01972807 0.01027064
v 0.03302864 0.01972807 0.00989972
v 0.03407437 0.02130957 0.00849807
v 0.03134763 0.01972807 0.01322373
v 0.02430235 0.02021281 0.02249672
v 0.02249999 0.02024686 0.02429782
v 0.02079756 0.02044384 0.02621305
v 0.02026220 0.02073242 0.02731511
v 0.01816004 0.02090021 0.02888796
v 0.01935567 0.02139306 0.02851704
v 0.02001594 0.02259358 0.02894145
v 0.02121514 0.02317074 0.02852773
v 0.02146497 0.02113529 0.02689426
v 0.02201460 0.02233581 0.02732938
v 0.02321380 0.02302564 0.02683720
v 0.02369919 0.02422453 0.02725092
v 0.02389548 0.02549962 0.02741854
v 0.02283548 0.02549962 0.02832088
v 0.02193608 0.02549962 0.02905202
v 0.02070120 0.02549962 0.02991155
v 0.01801728 0.02800928 0.03165559
v 0.01735701 0.02800928 0.03204077
v 0.01645404 0.02800928 0.03252582
v 0.01980894 0.02787066 0.03059989
v 0.02052631 0.02728216 0.03010058
v 0.01948772 0.02800928 0.03079605
v 0.01576165 0.02800928 0.03285394
v 0.03418858 0.02800928 0.01256749
v 0.03397444 0.02800928 0.01313100
v 0.03383168 0.02800928 0.01349835
v 0.03306791 0.02800928 0.01529945
v 0.03252184 0.02730000 0.01643004
v 0.03252184 0.02800928 0.01642648
v 0.03182231 0.02198967 0.01520316
v 0.03219349 0.02144981 0.01394060
v 0.03204716 0.02730000 0.01732881
v 0.03104069 0.02719705 0.01907641
v 0.03060170 0.02652829 0.01979329
v 0.02991288 0.02549962 0.02069562
v 0.02894210 0.02433802 0.02179055
v 0.03029476 0.02370007 0.01934034
v 0.03063739 0.02273220 0.01805639
v 0.03089079 0.02203993 0.01700069
v 0.03068022 0.02090670 0.01633375
v 0.03239336 0.01972807 0.01158669
v 0.03206501 0.01972807 0.01213950
v 0.02912055 0.02071863 0.01845227
v 0.02738243 0.02073647 0.02069562
v 0.02610115 0.02024118 0.02069562
v 0.02595839 0.02075349 0.02232910
v 0.02413104 0.02075755 0.02415160
v 0.02249999 0.02074214 0.02557821
v 0.02341723 0.02098614 0.02521086
v 0.02074046 0.02186484 0.02792142
v 0.02379198 0.02190051 0.02553541
v 0.02510538 0.02292026 0.02510743
v 0.02440229 0.02357280 0.02618095
v 0.02552653 0.02411915 0.02552828
v 0.02479488 0.02549962 0.02663034
v 0.02394902 0.02730000 0.02746491
v 0.02287117 0.02730000 0.02836367
v 0.02197177 0.02730000 0.02908055
v 0.01980894 0.02800928 0.03059989
v 0.01988746 0.02800928 0.03054640
v 0.02052631 0.02800928 0.03010058
v 0.03223275 0.02800928 0.01697216
v 0.03108709 0.02800928 0.01899795
v 0.03204002 0.02800928 0.01732881
v 0.03060884 0.02800928 0.01980755
v 0.03060884 0.02772881 0.01980399
v 0.03031975 0.02800928 0.02022127
v 0.03009847 0.02719705 0.02052086
v 0.02907415 0.02730000 0.02196888
v 0.02904560 0.02549962 0.02192964
v 0.02833536 0.02549962 0.02282841
v 0.02743597 0.02549962 0.02388411
v 0.02726465 0.02418725 0.02369151
v 0.02793206 0.02366359 0.02252525
v 0.02859590 0.02313912 0.02132690
v 0.02903489 0.02238444 0.02012498
v 0.02936324 0.02372357 0.02071345
v 0.02967732 0.02195806 0.01885172
v 0.03031975 0.02153249 0.01753567
v 0.02868870 0.02118393 0.01965419
v 0.02702196 0.02097803 0.02161936
v 0.02526242 0.02094074 0.02345969
v 0.02469138 0.02190051 0.02472581
v 0.02560148 0.02190051 0.02382348
v 0.02650445 0.02190051 0.02286051
v 0.02687563 0.02298754 0.02325996
v 0.02620108 0.02355416 0.02439769
v 0.02662937 0.02549962 0.02478287
v 0.02572640 0.02549962 0.02573157
v 0.02484842 0.02730000 0.02666957
v 0.02394902 0.02800928 0.02746134
v 0.02329588 0.02800928 0.02800702
v 0.02430592 0.02800928 0.02714749
v 0.02286403 0.02800928 0.02836367
v 0.02231797 0.02800928 0.02879879
v 0.02196463 0.02800928 0.02907698
v 0.02942392 0.02800928 0.02147313
v 0.02907058 0.02800928 0.02196174
v 0.02837819 0.02800928 0.02286051
v 0.02837819 0.02730000 0.02286764
v 0.02747879 0.02730000 0.02393047
v 0.02731462 0.02190051 0.02196174
v 0.02826398 0.02183080 0.02071345
v 0.02666148 0.02730000 0.02482924
v 0.02576209 0.02730000 0.02577080
v 0.02484842 0.02800928 0.02666600
v 0.02783570 0.02800928 0.02350605
v 0.02747879 0.02800928 0.02393047
v 0.02698270 0.02800928 0.02447615
v 0.02665792 0.02800928 0.02482924
v 0.02611185 0.02800928 0.02539988
v 0.02575852 0.02800928 0.02576724
f 1 2 5
f 1 5 12
f 1 12 23
f 1 23 40
f 1 40 31
f 1 31 17
f 1 17 7
f 1 7 3
f 1 3 8
f 1 8 18
f 1 18 34
f 1 34 56
f 1 56 60
f 1 60 58
f 1 58 36
f 1 36 21
f 1 21 19
f 1 19 9
f 1 9 4
f 1 4 11
f 1 11 20
f 1 20 35
f 1 35 57
f 1 57 85
f 1 85 100
f 1 100 99
f 1 99 98
f 1 98 149
f 1 149 195
f 1 195 194
f 1 194 193
f 1 193 238
f 1 238 239
f 1 239 197
f 1 197 150
f 1 150 103
f 1 103 65
f 1 65 101
f 1 101 63
f 1 63 41
f 1 41 24
f 1 24 13
f 1 13 6
f 1 6 2
f 2 6 5
f 3 7 8
f 4 9 10
f 4 10 11
f 5 6 12
f 6 13 14
f 6 14 15
f 6 15 16
f 6 16 12
f 7 17 32
f 7 32 53
f 7 53 67
f 7 67 106
f 7 106 107
f 7 107 129
f 7 129 128
f 7 128 127
f 7 127 126
f 7 126 120
f 7 120 119
f 7 119 121
f 7 121 125
f 7 125 124
f 7 124 170
f 7 170 169
f 7 169 168
f 7 168 167
f 7 167 220
f 7 220 216
f 7 216 215
f 7 215 214
f 7 214 219
f 7 219 256
f 7 256 257
f 7 257 258
f 7 258 293
f 7 293 292
f 7 292 291
f 7 291 289
f 7 289 288
f 7 288 290
f 7 290 303
f 7 303 309
f 7 309 308
f 7 308 307
f 7 307 306
f 7 306 305
f 7 305 304
f 7 304 296
f 7 296 295
f 7 295 294
f 7 294 264
f 7 264 262
f 7 262 260
f 7 260 261
f 7 261 259
f 7 259 226
f 7 226 224
f 7 224 223
f 7 223 222
f 7 222 221
f 7 221 176
f 7 176 175
f 7 175 174
f 7 174 173
f 7 173 172
f 7 172 171
f 7 171 132
f 7 132 131
f 7 131 130
f 7 130 83
f 7 83 55
f 7 55 33
f 7 33 18
f 7 18 8
f 9 19 10
f 10 20 11
f 10 19 21
f 10 21 22
f 10 22 20
f 12 16 23
f 13 24 25
f 13 25 26
f 13 26 14
f 14 27 15
f 14 26 28
f 14 28 29
f 14 29 27
f 15 27 30
f 15 30 16
f 16 30 23
f 17 31 32
f 18 33 54
f 18 54 34
f 20 22 35
f 21 36 22
f 22 36 37
f 22 37 38
f 22 38 39
f 22 39 35
f 23 30 40
f 24 41 25
f 25 28 26
f 25 41 42
f 25 42 28
f 27 43 52
f 27 52 30
f 27 29 44
f 27 44 43
f 28 42 45
f 28 45 29
f 29 45 46
f 29 46 47
f 29 47 48
f 29 48 49
f 29 49 50
f 29 50 51
f 29 51 44
f 30 52 31
f 30 31 40
f 31 52 32
f 32 52 53
f 33 55 54
f 34 54 81
f 34 81 56
f 35 39 57
f 36 58 37
f 37 59 38
f 37 58 60
f 37 60 61
f 37 61 86
f 37 86 59
f 38 59 62
f 38 62 57
f 38 57 39
f 41 63 42
f 42 63 64
f 42 64 65
f 42 65 66
f 42 66 46
f 42 46 45
f 43 67 53
f 43 53 52
f 43 44 68
f 43 68 67
f 44 51 68
f 46 66 47
f 47 66 69
f 47 69 70
f 47 70 71
f 47 71 72
f 47 72 73
f 47 73 48
f 48 74 78
f 48 78 49
f 48 73 75
f 48 75 76
f 48 76 77
f 48 77 74
f 49 78 51
f 49 51 50
f 51 79 68
f 51 78 80
f 51 80 79
f 54 55 82
f 54 82 81
f 55 83 84
f 55 84 82
f 56 81 60
f 57 62 85
f 59 86 87
f 59 87 62
f 60 81 61
f 61 81 86
f 62 87 88
f 62 88 89
f 62 89 90
f 62 90 91
f 62 91 92
f 62 92 93
f 62 93 94
f 62 94 95
f 62 95 96
f 62 96 97
f 62 97 98
f 62 98 99
f 62 99 100
f 62 100 85
f 63 101 64
f 64 101 65
f 65 102 66
f 65 103 104
f 65 104 102
f 66 102 105
f 66 105 69
f 67 68 106
f 68 79 107
f 68 107 106
f 69 105 108
f 69 108 70
f 70 109 71
f 70 108 109
f 71 109 110
f 71 110 72
f 72 111 112
f 72 112 113
f 72 113 114
f 72 114 115
f 72 115 116
f 72 116 117
f 72 117 73
f 72 110 111
f 73 118 76
f 73 76 75
f 73 117 118
f 74 119 120
f 74 120 78
f 74 77 121
f 74 121 119
f 76 118 122
f 76 122 123
f 76 123 77
f 77 123 124
f 77 124 125
f 77 125 121
f 78 126 127
f 78 127 80
f 78 120 126
f 79 128 129
f 79 129 107
f 79 80 128
f 80 127 128
f 81 82 88
f 81 88 86
f 82 84 89
f 82 89 88
f 83 130 84
f 84 130 131
f 84 131 132
f 84 132 133
f 84 133 90
f 84 90 89
f 86 88 87
f 90 133 134
f 90 134 91
f 91 134 135
f 91 135 92
f 92 135 136
f 92 136 93
f 93 136 137
f 93 137 138
f 93 138 94
f 94 139 95
f 94 138 140
f 94 140 141
f 94 141 142
f 94 142 143
f 94 143 144
f 94 144 145
f 94 145 139
f 95 139 146
f 95 146 147
f 95 147 97
f 95 97 96
f 97 147 148
f 97 148 149
f 97 149 98
f 102 104 105
f 103 150 151
f 103 151 152
f 103 152 153
f 103 153 108
f 103 108 104
f 104 108 105
f 108 153 109
f 109 153 151
f 109 151 154
f 109 154 110
f 110 155 111
f 110 154 155
f 111 155 156
f 111 156 157
f 111 157 112
f 112 157 113
f 113 157 158
f 113 158 159
f 113 159 160
f 113 160 161
f 113 161 114
f 114 162 115
f 114 161 163
f 114 163 164
f 114 164 162
f 115 162 165
f 115 165 116
f 116 165 117
f 117 165 166
f 117 166 122
f 117 122 118
f 122 166 167
f 122 167 168
f 122 168 169
f 122 169 170
f 122 170 123
f 123 170 124
f 132 171 134
f 132 134 133
f 134 171 135
f 135 172 173
f 135 173 174
f 135 174 136
f 135 171 172
f 136 174 175
f 136 175 137
f 137 175 176
f 137 176 177
f 137 177 140
f 137 140 138
f 139 145 146
f 140 177 141
f 141 177 178
f 141 178 179
f 141 179 180
f 141 180 142
f 142 181 182
f 142 182 143
f 142 180 183
f 142 183 184
f 142 184 185
f 142 185 186
f 142 186 187
f 142 187 188
f 142 188 189
f 142 189 181
f 143 190 144
f 143 182 181
f 143 181 191
f 143 191 192
f 143 192 193
f 143 193 190
f 144 190 145
f 145 190 193
f 145 193 194
f 145 194 195
f 145 195 146
f 146 195 149
f 146 149 148
f 146 148 196
f 146 196 147
f 147 196 148
f 150 197 198
f 150 198 199
f 150 199 200
f 150 200 201
f 150 201 202
f 150 202 151
f 151 155 154
f 151 153 152
f 151 202 155
f 155 202 156
f 156 202 157
f 157 202 203
f 157 203 158
f 158 203 204
f 158 204 159
f 159 204 205
f 159 205 160
f 160 205 206
f 160 206 207
f 160 207 208
f 160 208 209
f 160 209 210
f 160 210 211
f 160 211 212
f 160 212 213
f 160 213 161
f 161 213 163
f 162 214 215
f 162 215 216
f 162 216 165
f 162 164 214
f 163 217 164
f 163 213 212
f 163 212 218
f 163 218 217
f 164 217 219
f 164 219 214
f 165 216 220
f 165 220 166
f 166 220 167
f 176 221 177
f 177 221 222
f 177 222 178
f 178 223 224
f 178 224 179
f 178 222 223
f 179 225 180
f 179 224 226
f 179 226 225
f 180 225 183
f 181 189 227
f 181 227 228
f 181 228 192
f 181 192 191
f 183 225 184
f 184 229 185
f 184 225 229
f 185 229 230
f 185 230 231
f 185 231 186
f 186 231 232
f 186 232 233
f 186 233 187
f 187 233 234
f 187 234 235
f 187 235 188
f 188 235 236
f 188 236 189
f 189 236 227
f 192 228 193
f 193 228 237
f 193 237 238
f 197 239 240
f 197 240 241
f 197 241 242
f 197 242 198
f 198 242 243
f 198 243 244
f 198 244 199
f 199 244 245
f 199 245 200
f 200 245 201
f 201 245 246
f 201 246 206
f 201 206 202
f 202 206 203
f 203 247 204
f 203 206 247
f 204 247 205
f 205 247 206
f 206 246 207
f 207 246 208
f 208 246 248
f 208 248 249
f 208 249 250
f 208 250 209
f 209 250 251
f 209 251 252
f 209 252 210
f 210 253 211
f 210 252 253
f 211 253 254
f 211 254 212
f 212 254 255
f 212 255 218
f 217 256 219
f 217 218 257
f 217 257 256
f 218 258 257
f 218 255 258
f 225 226 229
f 226 259 229
f 227 236 237
f 227 237 228
f 229 260 230
f 229 259 261
f 229 261 260
f 230 260 262
f 230 262 263
f 230 263 231
f 231 263 264
f 231 264 265
f 231 265 266
f 231 266 267
f 231 267 232
f 232 267 233
f 233 268 269
f 233 269 270
f 233 270 271
f 233 271 272
f 233 272 273
f 233 273 274
f 233 274 234
f 233 267 268
f 234 275 235
f 234 274 275
f 235 275 276
f 235 276 236
f 236 276 237
f 237 239 238
f 237 276 277
f 237 277 240
f 237 240 239
f 240 277 278
f 240 278 241
f 241 278 243
f 241 243 242
f 243 279 244
f 243 278 279
f 244 246 245
f 244 279 246
f 246 279 280
f 246 280 249
f 246 249 248
f 249 279 281
f 249 281 282
f 249 282 283
f 249 283 284
f 249 284 251
f 249 251 250
f 249 280 279
f 251 284 270
f 251 270 285
f 251 285 286
f 251 286 252
f 252 286 287
f 252 287 253
f 253 288 289
f 253 289 254
f 253 287 290
f 253 290 288
f 254 291 255
f 254 289 291
f 255 291 292
f 255 292 293
f 255 293 258
f 262 264 263
f 264 266 265
f 264 294 266
f 266 294 295
f 266 295 296
f 266 296 297
f 266 297 267
f 267 297 268
f 268 297 298
f 268 298 269
f 269 298 285
f 269 285 270
f 270 283 299
f 270 299 271
f 270 284 283
f 271 299 272
f 272 300 277
f 272 277 273
f 272 299 278
f 272 278 300
f 273 277 275
f 273 275 274
f 275 277 276
f 277 300 278
f 278 299 283
f 278 283 282
f 278 282 281
f 278 281 279
f 285 298 301
f 285 301 286
f 286 301 302
f 286 302 287
f 287 303 290
f 287 302 303
f 296 304 297
f 297 304 305
f 297 305 298
f 298 305 306
f 298 306 301
f 301 306 307
f 301 307 302
f 302 307 308
f 302 308 309
f 302 309 303

