# https://github.com/mikedh/trimesh
v -0.00003490 0.02729921 -0.03643032
v -0.00003490 0.02806114 -0.03642676
v 0.00090357 0.02806114 -0.03642676
v 0.00090357 0.02729921 -0.03642676
v -0.00003490 0.02549963 -0.03636968
v -0.00003490 0.02806114 -0.02851168
v 0.00194196 0.02806114 -0.03636612
v 0.00270559 0.02729921 -0.03631975
v 0.00270559 0.02549963 -0.03626981
v 0.00090357 0.02549963 -0.03636612
v -0.00003490 0.02434124 -0.03615567
v -0.00003490 0.02798935 0.00000971
v 0.02851187 0.02806114 0.00000971
v 0.00270559 0.02806114 -0.03631975
v 0.00450404 0.02729921 -0.03615567
v 0.00460395 0.02551431 -0.03609859
v 0.00407227 0.02450113 -0.03605936
v 0.00270559 0.02441466 -0.03610930
v 0.00090357 0.02434369 -0.03615210
v -0.00003490 0.02391051 -0.03587031
v -0.00003490 0.01972807 0.00000971
v 0.03641576 0.02806114 0.00000971
v 0.00450404 0.02806114 -0.03615567
v 0.00553172 0.02806114 -0.03602369
v 0.00552815 0.02729921 -0.03602369
v 0.00547819 0.02612451 -0.03601299
v 0.00527123 0.02492451 -0.03598088
v 0.00450404 0.02233527 -0.03452557
v 0.00270559 0.02220801 -0.03461117
v 0.00270559 0.02351568 -0.03551005
v 0.00990651 0.02400351 -0.03458264
v 0.00812948 0.02356789 -0.03472175
v 0.00630605 0.02370004 -0.03516762
v 0.00460395 0.02382160 -0.03552788
v 0.00090357 0.02344471 -0.03555642
v -0.00003490 0.02344226 -0.03555642
v -0.00003490 0.01972807 -0.03295254
v 0.03457093 0.01972807 0.00000971
v 0.03641933 0.02729921 0.00000971
v 0.03640863 0.02806114 -0.00090343
v 0.00605270 0.02806114 -0.03592738
v 0.00642737 0.02729921 -0.03585248
v 0.00617045 0.02551431 -0.03584534
v 0.00810450 0.02729921 -0.03552075
v 0.00810450 0.02549963 -0.03546011
v 0.01134099 0.02432574 -0.03437219
v 0.00438628 0.01997198 -0.03288477
v 0.00417575 0.01972807 -0.03273852
v 0.00311238 0.01972807 -0.03284553
v 0.00270559 0.02130821 -0.03398696
v 0.00630605 0.02252941 -0.03439002
v 0.00630605 0.02033663 -0.03286337
v 0.00630605 0.01972807 -0.03243890
v 0.00457183 0.01972807 -0.03269215
v 0.00990651 0.02310453 -0.03397982
v 0.00874680 0.02288020 -0.03414390
v 0.00754427 0.02269584 -0.03427231
v 0.00090357 0.02214846 -0.03465398
v -0.00003490 0.02282228 -0.03512481
v -0.00003490 0.02172099 -0.03435435
v 0.00090357 0.02010006 -0.03322006
v 0.00090357 0.01972807 -0.03295611
v 0.03456736 0.01972807 -0.00032558
v 0.03463873 0.01991162 0.00000971
v 0.03637295 0.02549963 0.00000971
v 0.03636581 0.02549963 -0.00090343
v 0.03640863 0.02729921 -0.00090343
v 0.03638008 0.02806114 -0.00166676
v 0.00740153 0.02806114 -0.03564916
v 0.00810450 0.02806114 -0.03550291
v 0.00990651 0.02806114 -0.03507131
v 0.00990651 0.02729921 -0.03508558
v 0.00990651 0.02549963 -0.03502851
v 0.01184769 0.02371636 -0.03374440
v 0.01057023 0.02111651 -0.03231049
v 0.00937126 0.02082038 -0.03252450
v 0.01253995 0.02508848 -0.03417600
v 0.01632597 0.02451663 -0.03246030
v 0.00270559 0.01972807 -0.03287763
v 0.00090357 0.02124866 -0.03402619
v 0.00810450 0.01972807 -0.03208934
v 0.00810450 0.02058707 -0.03268858
v 0.00159226 0.01972807 -0.03292757
v 0.03455666 0.01972807 -0.00090343
v 0.03469582 0.02010006 -0.00090343
v 0.03537024 0.02190046 0.00000971
v 0.03503481 0.02098843 0.00000971
v 0.03626589 0.02479970 0.00000971
v 0.03616241 0.02414219 -0.00090343
v 0.03629087 0.02549963 -0.00270474
v 0.03633726 0.02729921 -0.00270474
v 0.03612316 0.02426130 -0.00270474
v 0.03633726 0.02806114 -0.00270474
v 0.01179774 0.02806114 -0.03447206
v 0.01187981 0.02734734 -0.03445423
v 0.01261846 0.02628848 -0.03420454
v 0.01184769 0.02561302 -0.03443283
v 0.01530542 0.02423519 -0.03268145
v 0.00993149 0.01972807 -0.03151505
v 0.00826151 0.01972807 -0.03204297
v 0.01333213 0.02561302 -0.03387638
v 0.01530542 0.02549963 -0.03302744
v 0.01127676 0.01972807 -0.03087657
v 0.01034542 0.01972807 -0.03131887
v 0.01642588 0.02549963 -0.03251380
v 0.01732511 0.02549963 -0.03202513
v 0.01976586 0.02497754 -0.03057695
v 0.01856689 0.02421398 -0.03092294
v 0.01762485 0.02301480 -0.03039503
v 0.03443890 0.01972807 -0.00263341
v 0.03524891 0.02190046 -0.00270474
v 0.03579487 0.02336232 -0.00270474
v 0.03535596 0.02190046 -0.00090343
v 0.03584483 0.02324240 -0.00090343
v 0.03560932 0.02256286 0.00000971
v 0.03616241 0.02412995 0.00000971
v 0.03600897 0.02368618 0.00000971
v 0.03584840 0.02323016 0.00000971
v 0.03606964 0.02441384 -0.00406375
v 0.03610532 0.02558202 -0.00460237
v 0.03615884 0.02729921 -0.00450249
v 0.03626233 0.02806114 -0.00346451
v 0.01259705 0.02806114 -0.03419741
v 0.01261846 0.02677875 -0.03420454
v 0.01333213 0.02734734 -0.03392275
v 0.01530542 0.02729921 -0.03308452
v 0.01243647 0.01972807 -0.03003477
v 0.01769265 0.02118259 -0.02862582
v 0.01988004 0.02095009 -0.02705279
v 0.02200678 0.02076654 -0.02547263
v 0.02396580 0.02068007 -0.02386393
v 0.02256344 0.02046960 -0.02439898
v 0.01645443 0.02729921 -0.03252807
v 0.01735365 0.02729921 -0.03206080
v 0.01906289 0.02554613 -0.03102638
v 0.01981581 0.02617753 -0.03060905
v 0.02052948 0.02554613 -0.03007400
v 0.02194612 0.02549963 -0.02906099
v 0.02179981 0.02441547 -0.02895041
v 0.02054019 0.02377020 -0.02925004
v 0.01906289 0.02364865 -0.03011681
v 0.01890232 0.02247068 -0.02911449
v 0.03451027 0.01994833 -0.00277252
v 0.03440678 0.01972807 -0.00297583
v 0.03598043 0.02503709 -0.00526582
v 0.03505265 0.02190046 -0.00450249
v 0.03574848 0.02376857 -0.00460237
v 0.03544160 0.02370004 -0.00630380
v 0.03600897 0.02623709 -0.00544773
v 0.03601254 0.02729921 -0.00546200
v 0.03615884 0.02806114 -0.00450249
v 0.01340349 0.02806114 -0.03389065
v 0.01530542 0.02806114 -0.03307738
v 0.01596913 0.02806114 -0.03275636
v 0.01319296 0.01972807 -0.02943195
v 0.01890232 0.02157089 -0.02825842
v 0.01983365 0.02277904 -0.02882200
v 0.02108258 0.02138163 -0.02667113
v 0.02320574 0.02116790 -0.02506243
v 0.02516833 0.02103819 -0.02336813
v 0.02573213 0.02067028 -0.02216606
v 0.02446180 0.02041168 -0.02266187
v 0.01644016 0.02806114 -0.03252094
v 0.01696113 0.02806114 -0.03225341
v 0.01734295 0.02806114 -0.03205723
v 0.01890232 0.02729921 -0.03116906
v 0.01981581 0.02729921 -0.03060905
v 0.02071504 0.02729921 -0.02998840
v 0.02198894 0.02729921 -0.02908952
v 0.02288816 0.02729921 -0.02837970
v 0.02284534 0.02549963 -0.02834760
v 0.02391228 0.02549963 -0.02744516
v 0.02371602 0.02426130 -0.02727038
v 0.02308799 0.02306211 -0.02677100
v 0.03421766 0.01972807 -0.00450249
v 0.03507050 0.02370004 -0.00810512
v 0.03547729 0.02549963 -0.00810512
v 0.03585553 0.02558202 -0.00615043
v 0.03432828 0.02067599 -0.00600061
v 0.03552368 0.02729921 -0.00810512
v 0.03585553 0.02729921 -0.00636088
v 0.03600897 0.02806114 -0.00545487
v 0.02250278 0.02001767 -0.02250135
v 0.03122739 0.01972807 -0.01312026
v 0.02553944 0.02418787 -0.02553684
v 0.02564649 0.02223819 -0.02384610
v 0.02684546 0.02301235 -0.02322545
v 0.02628879 0.02166633 -0.02269397
v 0.02693110 0.02109367 -0.02152044
v 0.02623884 0.02041903 -0.02083202
v 0.02741639 0.02069231 -0.02032194
v 0.03140224 0.01972807 -0.01293834
v 0.01898082 0.02806114 -0.03111199
v 0.01980511 0.02806114 -0.03060191
v 0.01997639 0.02806114 -0.03048421
v 0.02198180 0.02806114 -0.02908239
v 0.02062583 0.02806114 -0.03003477
v 0.02250278 0.02806114 -0.02867576
v 0.02349121 0.02806114 -0.02785892
v 0.02394082 0.02729921 -0.02748083
v 0.02288102 0.02806114 -0.02837613
v 0.02481150 0.02549963 -0.02663903
v 0.03392506 0.01972807 -0.00608622
v 0.03419982 0.02100230 -0.00719911
v 0.03445674 0.02218598 -0.00810512
v 0.03429616 0.02257918 -0.00931432
v 0.03456022 0.02364702 -0.00991000
v 0.03436040 0.02421071 -0.01132251
v 0.03500627 0.02549963 -0.00990286
v 0.03385369 0.01972807 -0.00644648
v 0.03398929 0.02008619 -0.00648215
v 0.03505265 0.02729921 -0.00990286
v 0.03504909 0.02806114 -0.00990286
v 0.03532028 0.02806114 -0.00886488
v 0.03550584 0.02806114 -0.00810512
v 0.03584483 0.02806114 -0.00635374
v 0.02574641 0.02549963 -0.02574015
v 0.02664563 0.02549963 -0.02480561
v 0.02725582 0.02421153 -0.02371055
v 0.02790169 0.02369107 -0.02250492
v 0.02734859 0.02229366 -0.02202338
v 0.02855113 0.02316898 -0.02128146
v 0.02798376 0.02178462 -0.02079992
v 0.02861536 0.02127558 -0.01955505
v 0.02904713 0.02076899 -0.01835298
v 0.03061720 0.02098272 -0.01622708
v 0.03211234 0.01972807 -0.01170418
v 0.02393369 0.02806114 -0.02747726
v 0.02484005 0.02729921 -0.02667113
v 0.02578209 0.02729921 -0.02577225
v 0.03352183 0.01972807 -0.00773059
v 0.03342192 0.01972807 -0.00811225
v 0.03290451 0.01972807 -0.00981012
v 0.03383942 0.02194777 -0.00991000
v 0.03411418 0.02301154 -0.01051638
v 0.03395360 0.02364702 -0.01183615
v 0.03331487 0.02370004 -0.01350549
v 0.03417484 0.02510806 -0.01252458
v 0.03441392 0.02562444 -0.01183615
v 0.03420696 0.02630806 -0.01261375
v 0.03449242 0.02729921 -0.01170418
v 0.03481715 0.02806114 -0.01066619
v 0.02668131 0.02729921 -0.02484128
v 0.02741996 0.02549963 -0.02390674
v 0.02894721 0.02436816 -0.02178440
v 0.02900788 0.02247558 -0.02007939
v 0.02942894 0.02188578 -0.01893083
v 0.03033173 0.02190046 -0.01756469
v 0.03059579 0.02281167 -0.01799272
v 0.03086698 0.02190046 -0.01666581
v 0.03244419 0.02450766 -0.01629128
v 0.03214088 0.02330848 -0.01566350
v 0.03173409 0.02204648 -0.01516056
v 0.03213375 0.02154397 -0.01383722
v 0.03241565 0.02097048 -0.01263515
v 0.03259763 0.02055934 -0.01170418
v 0.03275464 0.01972807 -0.01026669
v 0.02445109 0.02806114 -0.02700999
v 0.02483291 0.02806114 -0.02666399
v 0.02577852 0.02806114 -0.02576512
v 0.02667774 0.02806114 -0.02483771
v 0.03285812 0.01972807 -0.00995637
v 0.03263332 0.02382486 -0.01516056
v 0.03260834 0.02204648 -0.01334141
v 0.03299015 0.02549963 -0.01530324
v 0.03386796 0.02562444 -0.01333071
v 0.03304367 0.02729921 -0.01530324
v 0.03382871 0.02729921 -0.01351976
v 0.03420696 0.02729921 -0.01261732
v 0.03420696 0.02806114 -0.01261732
v 0.02745564 0.02729921 -0.02393884
v 0.02835487 0.02729921 -0.02286162
v 0.02831918 0.02549963 -0.02281525
v 0.02905069 0.02549963 -0.02191637
v 0.02991067 0.02549963 -0.02070004
v 0.03056010 0.02549963 -0.01973340
v 0.03092408 0.02401085 -0.01852777
v 0.03033173 0.02352710 -0.01903427
v 0.02934330 0.02374165 -0.02068934
v 0.03153426 0.02366007 -0.01714379
v 0.03111677 0.02549963 -0.01883096
v 0.03201956 0.02549963 -0.01728646
v 0.03249058 0.02549963 -0.01638759
v 0.02745208 0.02806114 -0.02393527
v 0.03304367 0.02806114 -0.01530324
v 0.03349686 0.02806114 -0.01427595
v 0.03251556 0.02729921 -0.01643396
v 0.03382871 0.02806114 -0.01351619
v 0.03404638 0.02806114 -0.01299898
v 0.02835487 0.02806114 -0.02286162
v 0.02877593 0.02806114 -0.02234441
v 0.02908638 0.02729921 -0.02196274
v 0.02996776 0.02729921 -0.02070004
v 0.03058508 0.02729921 -0.01977263
v 0.03115245 0.02729921 -0.01887376
v 0.03205168 0.02729921 -0.01733640
v 0.03251199 0.02806114 -0.01643396
v 0.03231930 0.02806114 -0.01681563
v 0.02908638 0.02806114 -0.02196274
v 0.02959665 0.02806114 -0.02123509
v 0.02996419 0.02806114 -0.02070004
v 0.03032103 0.02806114 -0.02016500
v 0.03058151 0.02806114 -0.01976907
v 0.03115245 0.02806114 -0.01887019
v 0.03205168 0.02806114 -0.01733283
f 1 2 3
f 1 3 4
f 1 4 10
f 1 10 5
f 1 5 11
f 1 11 20
f 1 20 36
f 1 36 59
f 1 59 60
f 1 60 37
f 1 37 21
f 1 21 12
f 1 12 6
f 1 6 2
f 2 6 13
f 2 13 22
f 2 22 40
f 2 40 68
f 2 68 93
f 2 93 122
f 2 122 151
f 2 151 182
f 2 182 216
f 2 216 215
f 2 215 214
f 2 214 213
f 2 213 242
f 2 242 270
f 2 270 289
f 2 289 288
f 2 288 286
f 2 286 285
f 2 285 297
f 2 297 298
f 2 298 305
f 2 305 304
f 2 304 303
f 2 303 302
f 2 302 301
f 2 301 300
f 2 300 299
f 2 299 291
f 2 291 290
f 2 290 284
f 2 284 261
f 2 261 260
f 2 260 259
f 2 259 258
f 2 258 228
f 2 228 199
f 2 199 201
f 2 201 198
f 2 198 196
f 2 196 197
f 2 197 195
f 2 195 194
f 2 194 193
f 2 193 165
f 2 165 164
f 2 164 163
f 2 163 154
f 2 154 153
f 2 153 152
f 2 152 123
f 2 123 94
f 2 94 71
f 2 71 70
f 2 70 69
f 2 69 41
f 2 41 24
f 2 24 23
f 2 23 14
f 2 14 7
f 2 7 3
f 3 7 4
f 4 7 8
f 4 8 9
f 4 9 10
f 5 10 11
f 6 12 13
f 7 14 8
f 8 14 23
f 8 23 15
f 8 15 16
f 8 16 9
f 9 16 17
f 9 17 10
f 10 17 18
f 10 18 19
f 10 19 11
f 11 19 20
f 12 21 38
f 12 38 64
f 12 64 87
f 12 87 86
f 12 86 115
f 12 115 118
f 12 118 117
f 12 117 116
f 12 116 88
f 12 88 65
f 12 65 39
f 12 39 22
f 12 22 13
f 15 23 24
f 15 24 25
f 15 25 26
f 15 26 16
f 16 26 27
f 16 27 17
f 17 28 29
f 17 29 30
f 17 30 18
f 17 27 31
f 17 31 32
f 17 32 33
f 17 33 34
f 17 34 28
f 18 30 35
f 18 35 19
f 19 35 20
f 20 35 36
f 21 37 62
f 21 62 83
f 21 83 79
f 21 79 49
f 21 49 48
f 21 48 54
f 21 54 53
f 21 53 81
f 21 81 100
f 21 100 99
f 21 99 104
f 21 104 103
f 21 103 127
f 21 127 155
f 21 155 184
f 21 184 192
f 21 192 227
f 21 227 257
f 21 257 262
f 21 262 233
f 21 233 232
f 21 232 231
f 21 231 210
f 21 210 203
f 21 203 175
f 21 175 144
f 21 144 110
f 21 110 84
f 21 84 63
f 21 63 38
f 22 39 40
f 24 41 25
f 25 41 42
f 25 42 26
f 26 43 27
f 26 42 44
f 26 44 45
f 26 45 43
f 27 43 45
f 27 45 46
f 27 46 31
f 28 47 48
f 28 48 49
f 28 49 50
f 28 50 29
f 28 34 51
f 28 51 52
f 28 52 53
f 28 53 54
f 28 54 47
f 29 50 35
f 29 35 30
f 31 46 55
f 31 55 56
f 31 56 32
f 32 56 57
f 32 57 33
f 33 57 51
f 33 51 34
f 35 50 58
f 35 58 59
f 35 59 36
f 37 60 61
f 37 61 62
f 38 63 64
f 39 65 66
f 39 66 67
f 39 67 40
f 40 67 68
f 41 69 44
f 41 44 42
f 44 70 71
f 44 71 72
f 44 72 73
f 44 73 45
f 44 69 70
f 45 73 46
f 46 74 75
f 46 75 76
f 46 76 55
f 46 73 77
f 46 77 78
f 46 78 74
f 47 54 48
f 49 79 50
f 50 79 61
f 50 61 80
f 50 80 58
f 51 57 52
f 52 57 53
f 53 57 81
f 55 76 56
f 56 76 81
f 56 81 82
f 56 82 57
f 57 82 81
f 58 80 59
f 59 80 60
f 60 80 61
f 61 79 83
f 61 83 62
f 63 84 85
f 63 85 86
f 63 86 87
f 63 87 64
f 65 88 89
f 65 89 66
f 66 90 91
f 66 91 67
f 66 89 92
f 66 92 90
f 67 91 68
f 68 91 93
f 71 94 72
f 72 94 95
f 72 95 96
f 72 96 97
f 72 97 73
f 73 97 77
f 74 78 98
f 74 98 75
f 75 99 76
f 75 98 99
f 76 99 100
f 76 100 81
f 77 97 96
f 77 96 101
f 77 101 102
f 77 102 78
f 78 103 104
f 78 104 99
f 78 99 98
f 78 102 105
f 78 105 106
f 78 106 107
f 78 107 108
f 78 108 109
f 78 109 103
f 84 110 111
f 84 111 85
f 85 111 112
f 85 112 113
f 85 113 86
f 86 113 114
f 86 114 115
f 88 116 89
f 89 116 117
f 89 117 118
f 89 118 114
f 89 114 92
f 90 92 119
f 90 119 120
f 90 120 91
f 91 120 121
f 91 121 122
f 91 122 93
f 92 114 113
f 92 113 112
f 92 112 119
f 94 123 95
f 95 123 124
f 95 124 96
f 96 124 125
f 96 125 126
f 96 126 102
f 96 102 101
f 102 126 105
f 103 109 128
f 103 128 129
f 103 129 130
f 103 130 131
f 103 131 132
f 103 132 127
f 105 126 133
f 105 133 134
f 105 134 106
f 106 134 135
f 106 135 107
f 107 135 136
f 107 136 137
f 107 137 138
f 107 138 139
f 107 139 108
f 108 139 140
f 108 140 141
f 108 141 109
f 109 141 142
f 109 142 128
f 110 143 111
f 110 144 143
f 111 119 112
f 111 143 119
f 114 118 115
f 119 145 120
f 119 143 144
f 119 144 146
f 119 146 147
f 119 147 148
f 119 148 145
f 120 145 149
f 120 149 121
f 121 149 150
f 121 150 151
f 121 151 122
f 123 152 124
f 124 152 125
f 125 152 126
f 126 153 154
f 126 154 133
f 126 152 153
f 127 132 155
f 128 142 156
f 128 156 129
f 129 156 142
f 129 142 157
f 129 157 158
f 129 158 130
f 130 158 159
f 130 159 131
f 131 160 161
f 131 161 162
f 131 162 132
f 131 159 160
f 132 162 155
f 133 163 164
f 133 164 165
f 133 165 134
f 133 154 163
f 134 165 166
f 134 166 135
f 135 166 136
f 136 166 167
f 136 167 168
f 136 168 169
f 136 169 138
f 136 138 137
f 138 169 170
f 138 170 171
f 138 171 139
f 139 171 172
f 139 172 173
f 139 173 174
f 139 174 159
f 139 159 140
f 140 157 141
f 140 159 157
f 141 157 142
f 144 175 146
f 145 148 176
f 145 176 177
f 145 177 178
f 145 178 149
f 146 148 147
f 146 175 148
f 148 175 179
f 148 179 176
f 149 178 177
f 149 177 180
f 149 180 181
f 149 181 150
f 150 182 151
f 150 181 182
f 155 162 183
f 155 183 184
f 157 159 158
f 159 174 160
f 160 185 186
f 160 186 187
f 160 187 188
f 160 188 189
f 160 189 161
f 160 174 173
f 160 173 185
f 161 190 162
f 161 189 191
f 161 191 192
f 161 192 190
f 162 190 192
f 162 192 184
f 162 184 183
f 165 193 166
f 166 193 167
f 167 193 194
f 167 194 195
f 167 195 168
f 168 196 169
f 168 195 197
f 168 197 196
f 169 196 198
f 169 198 170
f 170 199 200
f 170 200 172
f 170 172 171
f 170 198 201
f 170 201 199
f 172 200 202
f 172 202 173
f 173 202 185
f 175 203 179
f 176 179 204
f 176 204 205
f 176 205 206
f 176 206 207
f 176 207 208
f 176 208 177
f 177 208 209
f 177 209 212
f 177 212 180
f 179 203 210
f 179 210 211
f 179 211 204
f 180 212 213
f 180 213 214
f 180 214 215
f 180 215 216
f 180 216 181
f 181 216 182
f 185 202 217
f 185 217 218
f 185 218 219
f 185 219 187
f 185 187 186
f 187 219 220
f 187 220 221
f 187 221 189
f 187 189 188
f 189 221 222
f 189 222 223
f 189 223 224
f 189 224 225
f 189 225 191
f 191 225 192
f 192 226 227
f 192 225 226
f 199 228 200
f 200 228 229
f 200 229 202
f 202 229 230
f 202 230 217
f 204 211 210
f 204 210 231
f 204 231 232
f 204 232 205
f 205 232 206
f 206 232 233
f 206 233 234
f 206 234 235
f 206 235 207
f 207 235 208
f 208 235 236
f 208 236 237
f 208 237 238
f 208 238 209
f 209 238 239
f 209 239 240
f 209 240 212
f 212 240 241
f 212 241 242
f 212 242 213
f 217 230 243
f 217 243 218
f 218 243 244
f 218 244 219
f 219 244 245
f 219 245 220
f 220 245 222
f 220 222 221
f 222 245 246
f 222 246 224
f 222 224 223
f 224 246 247
f 224 247 226
f 224 226 225
f 226 247 248
f 226 248 249
f 226 249 250
f 226 250 251
f 226 251 252
f 226 252 253
f 226 253 254
f 226 254 255
f 226 255 227
f 227 255 256
f 227 256 257
f 228 258 229
f 229 258 259
f 229 259 260
f 229 260 230
f 230 260 261
f 230 261 243
f 233 262 235
f 233 235 234
f 235 262 236
f 236 262 257
f 236 257 256
f 236 256 255
f 236 255 237
f 237 263 251
f 237 251 238
f 237 255 264
f 237 264 263
f 238 265 266
f 238 266 240
f 238 240 239
f 238 251 265
f 240 266 265
f 240 265 267
f 240 267 268
f 240 268 269
f 240 269 241
f 241 269 242
f 242 269 270
f 243 261 284
f 243 284 271
f 243 271 244
f 244 271 272
f 244 272 273
f 244 273 245
f 245 273 274
f 245 274 275
f 245 275 276
f 245 276 277
f 245 277 278
f 245 278 279
f 245 279 246
f 246 279 278
f 246 278 247
f 247 278 249
f 247 249 248
f 249 277 280
f 249 280 250
f 249 278 277
f 250 280 251
f 251 255 254
f 251 254 252
f 251 280 277
f 251 277 276
f 251 276 281
f 251 281 282
f 251 282 283
f 251 283 265
f 251 263 255
f 252 254 253
f 255 263 264
f 265 283 267
f 267 285 286
f 267 286 268
f 267 283 287
f 267 287 285
f 268 286 288
f 268 288 289
f 268 289 270
f 268 270 269
f 271 284 290
f 271 290 272
f 272 290 291
f 272 291 292
f 272 292 274
f 272 274 273
f 274 292 275
f 275 292 293
f 275 293 276
f 276 293 294
f 276 294 295
f 276 295 281
f 281 295 296
f 281 296 282
f 282 296 283
f 283 296 287
f 285 287 297
f 287 296 298
f 287 298 297
f 291 299 292
f 292 299 300
f 292 300 293
f 293 300 301
f 293 301 302
f 293 302 294
f 294 302 303
f 294 303 304
f 294 304 295
f 295 304 305
f 295 305 296
f 296 305 298

