# https://github.com/mikedh/trimesh
v -0.01988824 0.02816465 -0.02155947
v -0.01988824 0.02816465 -0.03054621
v -0.01988824 0.02932687 -0.02272120
v -0.02742798 0.02816465 -0.00860869
v -0.02061281 0.02816465 -0.03004373
v -0.01988824 0.02840002 -0.03054192
v -0.01988824 0.02992043 -0.02335682
v -0.02763413 0.02836103 -0.00860869
v -0.03537245 0.02816465 -0.00860869
v -0.01988824 0.03000618 -0.02349211
v -0.02131767 0.02816465 -0.02955198
v -0.02197251 0.02910007 -0.02907741
v -0.02051883 0.02899137 -0.03009312
v -0.01988824 0.02944415 -0.03051830
v -0.02998822 0.03045065 -0.00860869
v -0.03535881 0.02910007 -0.00860869
v -0.03504351 0.02910007 -0.00990355
v -0.03504958 0.02816465 -0.00990355
v -0.01988824 0.03049684 -0.02436608
v -0.02197857 0.02816465 -0.02908385
v -0.02241059 0.02816465 -0.02874672
v -0.02287291 0.02910007 -0.02837308
v -0.02184215 0.03019896 -0.02898078
v -0.01988824 0.02961840 -0.03044958
v -0.03101141 0.03081630 -0.00860869
v -0.01988824 0.03069433 -0.02492655
v -0.03476157 0.03047444 -0.00860869
v -0.03461302 0.03042244 -0.00990355
v -0.03434320 0.03018153 -0.01170305
v -0.03420071 0.03000894 -0.01261783
v -0.03449630 0.02910007 -0.01170305
v -0.03450084 0.02816465 -0.01170305
v -0.02287746 0.02816465 -0.02837952
v -0.02393248 0.02816465 -0.02747977
v -0.02392187 0.02910007 -0.02747333
v -0.02373997 0.03027143 -0.02731227
v -0.02246364 0.03048024 -0.02790710
v -0.02069770 0.03039672 -0.02937590
v -0.01988824 0.03049435 -0.02962284
v -0.03149647 0.03096566 -0.00860869
v -0.01988824 0.03092500 -0.02610116
v -0.03439019 0.03061384 -0.00860869
v -0.03329576 0.03091726 -0.00990355
v -0.03329576 0.03067662 -0.01170305
v -0.03332759 0.03039865 -0.01333075
v -0.03271671 0.03032232 -0.01530204
v -0.03247115 0.03010409 -0.01635854
v -0.03304413 0.02910007 -0.01530204
v -0.03382782 0.02910007 -0.01353046
v -0.03420678 0.02910007 -0.01263071
v -0.03434926 0.02816465 -0.01219050
v -0.02483288 0.02816465 -0.02667021
v -0.02482227 0.02910007 -0.02666162
v -0.02557564 0.03029991 -0.02556861
v -0.02432356 0.03054082 -0.02614196
v -0.02069770 0.03089153 -0.02790065
v -0.01988824 0.03074300 -0.02888200
v -0.03149647 0.03099000 -0.00990355
v -0.03278947 0.03099000 -0.00860869
v -0.01988824 0.03099000 -0.02691072
v -0.03329576 0.03096953 -0.00860869
v -0.03149647 0.03098668 -0.01350254
v -0.03149647 0.03081713 -0.01530204
v -0.03153740 0.03045314 -0.01701564
v -0.03096593 0.03032121 -0.01858322
v -0.02898777 0.03020947 -0.02184507
v -0.03115389 0.02910007 -0.01888385
v -0.03205430 0.02910007 -0.01734204
v -0.03251208 0.02910007 -0.01644229
v -0.03304868 0.02816465 -0.01530204
v -0.03277128 0.02816465 -0.01590115
v -0.03382933 0.02816465 -0.01353690
v -0.03420981 0.02816465 -0.01263715
v -0.02529066 0.02816465 -0.02623644
v -0.02577421 0.02910007 -0.02576187
v -0.02667461 0.02910007 -0.02484280
v -0.02729611 0.03027031 -0.02375408
v -0.02614407 0.03053999 -0.02433387
v -0.02249699 0.03094603 -0.02610116
v -0.02429779 0.03096732 -0.02430166
v -0.01988824 0.03093579 -0.02790065
v -0.03149647 0.03099000 -0.01170305
v -0.02789637 0.03099000 -0.01890318
v -0.02969566 0.03098336 -0.01710368
v -0.02789637 0.03089956 -0.02070053
v -0.02986392 0.03058867 -0.01907067
v -0.02937582 0.03040447 -0.02070053
v -0.02789486 0.03048578 -0.02246781
v -0.02745527 0.02910007 -0.02394305
v -0.02835415 0.02910007 -0.02287581
v -0.02908933 0.02910007 -0.02197606
v -0.02997155 0.02910007 -0.02070053
v -0.03057788 0.02910007 -0.01978145
v -0.03152224 0.02816465 -0.01826326
v -0.03059000 0.02816465 -0.01979219
v -0.03069308 0.02816465 -0.01962899
v -0.03109781 0.02816465 -0.01898692
v -0.03205581 0.02816465 -0.01734848
v -0.03227712 0.02816465 -0.01691686
v -0.03251511 0.02816465 -0.01644873
v -0.02578027 0.02816465 -0.02577046
v -0.02668068 0.02816465 -0.02484924
v -0.02746436 0.02816465 -0.02394949
v -0.02609708 0.03094519 -0.02250002
v -0.02789486 0.02816465 -0.02343842
v -0.02836325 0.02816465 -0.02288225
v -0.02871644 0.02816465 -0.02244848
v -0.02909236 0.02816465 -0.02198250
v -0.03004734 0.02816465 -0.02060819
f 1 2 6
f 1 6 14
f 1 14 24
f 1 24 39
f 1 39 57
f 1 57 81
f 1 81 60
f 1 60 41
f 1 41 26
f 1 26 19
f 1 19 10
f 1 10 7
f 1 7 3
f 1 3 4
f 1 4 9
f 1 9 18
f 1 18 32
f 1 32 51
f 1 51 73
f 1 73 72
f 1 72 70
f 1 70 71
f 1 71 100
f 1 100 99
f 1 99 98
f 1 98 94
f 1 94 97
f 1 97 96
f 1 96 95
f 1 95 109
f 1 109 108
f 1 108 107
f 1 107 106
f 1 106 105
f 1 105 103
f 1 103 102
f 1 102 101
f 1 101 74
f 1 74 52
f 1 52 34
f 1 34 33
f 1 33 21
f 1 21 20
f 1 20 11
f 1 11 5
f 1 5 2
f 2 5 6
f 3 7 4
f 4 8 15
f 4 15 25
f 4 25 40
f 4 40 59
f 4 59 61
f 4 61 42
f 4 42 27
f 4 27 16
f 4 16 9
f 4 7 10
f 4 10 8
f 5 11 12
f 5 12 13
f 5 13 6
f 6 13 14
f 8 10 15
f 9 16 17
f 9 17 18
f 10 19 15
f 11 20 12
f 12 21 22
f 12 22 23
f 12 23 14
f 12 14 13
f 12 20 21
f 14 23 24
f 15 19 26
f 15 26 25
f 16 27 28
f 16 28 29
f 16 29 30
f 16 30 17
f 17 31 18
f 17 30 31
f 18 31 32
f 21 33 22
f 22 34 35
f 22 35 23
f 22 33 34
f 23 35 36
f 23 36 37
f 23 37 38
f 23 38 24
f 24 38 39
f 25 26 40
f 26 41 40
f 27 42 43
f 27 43 28
f 28 43 44
f 28 44 45
f 28 45 46
f 28 46 29
f 29 46 30
f 30 46 47
f 30 47 48
f 30 48 49
f 30 49 50
f 30 50 31
f 31 51 32
f 31 50 51
f 34 52 35
f 35 52 53
f 35 53 36
f 36 53 54
f 36 54 55
f 36 55 37
f 37 56 38
f 37 55 56
f 38 56 57
f 38 57 39
f 40 58 59
f 40 41 60
f 40 60 58
f 42 61 43
f 43 61 62
f 43 62 63
f 43 63 44
f 44 63 45
f 45 63 46
f 46 63 64
f 46 64 65
f 46 65 47
f 47 65 66
f 47 66 67
f 47 67 68
f 47 68 69
f 47 69 48
f 48 70 49
f 48 69 71
f 48 71 70
f 49 72 73
f 49 73 50
f 49 70 72
f 50 73 51
f 52 74 75
f 52 75 53
f 53 75 54
f 54 76 77
f 54 77 78
f 54 78 55
f 54 75 76
f 55 79 56
f 55 78 80
f 55 80 79
f 56 81 57
f 56 79 81
f 58 60 83
f 58 83 82
f 58 82 59
f 59 82 62
f 59 62 61
f 60 81 79
f 60 79 80
f 60 80 83
f 62 84 63
f 62 82 83
f 62 83 84
f 63 84 85
f 63 85 86
f 63 86 64
f 64 86 65
f 65 86 87
f 65 87 66
f 66 88 77
f 66 77 76
f 66 76 89
f 66 89 90
f 66 90 91
f 66 91 92
f 66 92 93
f 66 93 67
f 66 87 88
f 67 94 68
f 67 93 95
f 67 95 96
f 67 96 97
f 67 97 94
f 68 94 98
f 68 98 99
f 68 99 69
f 69 100 71
f 69 99 100
f 74 101 75
f 75 101 76
f 76 101 102
f 76 102 103
f 76 103 89
f 77 88 78
f 78 88 85
f 78 85 104
f 78 104 80
f 80 104 84
f 80 84 83
f 84 104 85
f 85 88 87
f 85 87 86
f 89 103 105
f 89 105 90
f 90 105 106
f 90 106 91
f 91 106 107
f 91 107 108
f 91 108 109
f 91 109 92
f 92 109 95
f 92 95 93

