# https://github.com/mikedh/trimesh
v -0.00003490 0.02730000 0.03644109
v -0.00003490 0.02800928 0.03643668
v -0.00089691 0.02730000 0.03644550
v -0.00003490 0.02549962 0.03640140
v -0.00089691 0.02800928 0.03643668
v -0.00003490 0.02800928 0.02800445
v -0.00269928 0.02730000 0.03636611
v -0.00089691 0.02549962 0.03640140
v -0.00003490 0.02490139 0.03628232
v -0.00269928 0.02800928 0.03635730
v -0.00003490 0.02798982 -0.00860869
v -0.02628686 0.02800928 -0.00860869
v -0.00269928 0.02549962 0.03631760
v -0.00449809 0.02730000 0.03617207
v -0.00463701 0.02541613 0.03611474
v -0.00269928 0.02439881 0.03613238
v -0.00089691 0.02435180 0.03617207
v -0.00003490 0.02435099 0.03617207
v -0.00449809 0.02800928 0.03616325
v -0.00003490 0.01972807 -0.00860869
v -0.03537353 0.02800928 -0.00860869
v -0.00532804 0.02475954 0.03598684
v -0.00413120 0.02448961 0.03606623
v -0.00555957 0.02730000 0.03602653
v -0.00552395 0.02596005 0.03601771
v -0.00449809 0.01972807 0.03259102
v -0.00003490 0.02345202 0.03541352
v -0.00553463 0.02800928 0.03601771
v -0.03286944 0.01972807 -0.00860869
v -0.00003490 0.01972807 0.03210149
v -0.03538778 0.02730000 -0.00860869
v -0.03542696 0.02800928 -0.00840582
v -0.00619360 0.02541613 0.03585013
v -0.00809928 0.02549962 0.03545762
v -0.00989809 0.02549962 0.03500338
v -0.01129439 0.02434612 0.03435067
v -0.00989809 0.02402107 0.03456236
v -0.00809571 0.02356956 0.03470349
v -0.00629690 0.02370007 0.03515332
v -0.00629690 0.02255873 0.03436831
v -0.00629690 0.01972807 0.03238374
v -0.00569136 0.01972807 0.03245430
v -0.00643226 0.02800928 0.03585895
v -0.00646075 0.02730000 0.03586336
v -0.00809928 0.02730000 0.03552818
v -0.00379994 0.01972807 0.03253369
v -0.03407696 0.02216639 -0.00860869
v -0.03291575 0.01972807 -0.00847638
v -0.03537353 0.02679255 -0.00860869
v -0.03551957 0.02730000 -0.00810152
v -0.03550532 0.02800928 -0.00810152
v -0.00989809 0.02730000 0.03507394
v -0.01260521 0.02634428 0.03420073
v -0.01181444 0.02564635 0.03441242
v -0.01249122 0.02514377 0.03416104
v -0.01628120 0.02453337 0.03243666
v -0.01529808 0.02417833 0.03266599
v -0.01357051 0.02358334 0.03302321
v -0.01181444 0.02372844 0.03376853
v -0.00989809 0.02312210 0.03397581
v -0.00869057 0.02288297 0.03413899
v -0.00805653 0.01972807 0.03205739
v -0.00742606 0.02800928 0.03565608
v -0.00809928 0.02800928 0.03551495
v -0.03429068 0.02260169 -0.00860869
v -0.03304398 0.01972807 -0.00810152
v -0.03533078 0.02549962 -0.00860869
v -0.03546614 0.02549962 -0.00810152
v -0.03564068 0.02800928 -0.00741354
v -0.03585440 0.02558069 -0.00614782
v -0.03585440 0.02730000 -0.00636833
v -0.03591495 0.02800928 -0.00601111
v -0.00989809 0.02800928 0.03506071
v -0.01169690 0.02800928 0.03451385
v -0.01169690 0.02730000 0.03451826
v -0.01262658 0.02730000 0.03420514
v -0.01352777 0.02730000 0.03383909
v -0.01332473 0.02564635 0.03386556
v -0.01529808 0.02549962 0.03300117
v -0.01529808 0.02327936 0.03207062
v -0.01638449 0.02549962 0.03248518
v -0.01728212 0.02549962 0.03202211
v -0.01883871 0.02549962 0.03112244
v -0.01852526 0.02410213 0.03092398
v -0.01786273 0.02290323 0.03052265
v -0.01666589 0.02245253 0.03083578
v -0.01421880 0.02290566 0.03232641
v -0.01301840 0.02256197 0.03256015
v -0.01169690 0.02222718 0.03278948
v -0.01062117 0.02107449 0.03234405
v -0.00997289 0.02176514 0.03301439
v -0.00942434 0.02082483 0.03252045
v -0.00815983 0.01972807 0.03203534
v -0.00809928 0.01972807 0.03204857
v -0.03482854 0.02370169 -0.00860869
v -0.03410902 0.02118068 -0.00668586
v -0.03497102 0.02370007 -0.00810152
v -0.03351773 0.01972807 -0.00621838
v -0.03597194 0.02503515 -0.00527020
v -0.03600044 0.02623485 -0.00544661
v -0.03600756 0.02730000 -0.00546866
v -0.03606812 0.02800928 -0.00508497
v -0.01225969 0.02800928 0.03432862
v -0.01262658 0.02800928 0.03420514
v -0.01317157 0.02800928 0.03398463
v -0.01352777 0.02800928 0.03383468
v -0.01529808 0.02800928 0.03306731
v -0.01529808 0.02730000 0.03306731
v -0.01644861 0.02730000 0.03252487
v -0.01582170 0.02125202 0.03041681
v -0.01525178 0.02187132 0.03111802
v -0.01734980 0.02730000 0.03204857
v -0.01907024 0.02724082 0.03104305
v -0.01978977 0.02660206 0.03059322
v -0.01973634 0.02549962 0.03055794
v -0.02179518 0.02436152 0.02894823
v -0.02064821 0.02373735 0.02930545
v -0.01903106 0.02358172 0.03025363
v -0.01936589 0.02138982 0.02852485
v -0.01816906 0.02088724 0.02889971
v -0.01719663 0.02187132 0.03015220
v -0.01462130 0.02088724 0.03069906
v -0.01357051 0.02193698 0.03190303
v -0.01169690 0.02132740 0.03216764
v -0.01040745 0.01972807 0.03144879
v -0.00995152 0.01972807 0.03159874
v -0.03391311 0.01972807 -0.00449842
v -0.03535572 0.02370007 -0.00629777
v -0.03606812 0.02441665 -0.00407063
v -0.03610730 0.02558069 -0.00459985
v -0.03616429 0.02730000 -0.00449842
v -0.03616429 0.02800928 -0.00449842
v -0.01645217 0.02800928 0.03252928
v -0.01699716 0.02800928 0.03223821
v -0.01735336 0.02800928 0.03204416
v -0.01907381 0.02800928 0.03103864
v -0.01980402 0.02800928 0.03060204
v -0.01980402 0.02780257 0.03060204
v -0.02051998 0.02724082 0.03010369
v -0.02193409 0.02549962 0.02905407
v -0.02069452 0.02549962 0.02991846
v -0.02121457 0.02316263 0.02853367
v -0.02283172 0.02549962 0.02832199
v -0.02389320 0.02549962 0.02742231
v -0.02479438 0.02549962 0.02663730
v -0.02369728 0.02421643 0.02725032
v -0.02321642 0.02301753 0.02684458
v -0.02201602 0.02231068 0.02733411
v -0.02148172 0.02111097 0.02691073
v -0.02001417 0.02258953 0.02893941
v -0.02074795 0.02185025 0.02792948
v -0.01196761 0.01972807 0.03083137
v -0.01172183 0.01972807 0.03096808
v -0.01152592 0.01972807 0.03106951
v -0.02028133 0.02072593 0.02732529
v -0.01349927 0.02058894 0.03093280
v -0.03395941 0.01972807 -0.00427350
v -0.03417670 0.01972807 -0.00318419
v -0.03569411 0.02377059 -0.00459985
v -0.03449015 0.02027766 -0.00269908
v -0.03432630 0.01972807 -0.00201550
v -0.03575823 0.02337582 -0.00269908
v -0.03612155 0.02427560 -0.00269908
v -0.03629609 0.02549962 -0.00269908
v -0.03426219 0.01972807 -0.00269908
v -0.03634240 0.02730000 -0.00269908
v -0.03633883 0.02800928 -0.00269908
v -0.02013528 0.02800928 0.03037271
v -0.02196615 0.02730000 0.02908494
v -0.02286378 0.02730000 0.02836609
v -0.02394663 0.02730000 0.02746641
v -0.02484781 0.02730000 0.02667258
v -0.02572050 0.02549962 0.02573763
v -0.02552103 0.02410780 0.02553036
v -0.02440256 0.02356307 0.02618747
v -0.02511140 0.02290810 0.02511580
v -0.02380415 0.02190051 0.02554799
v -0.02342301 0.02097479 0.02522164
v -0.02256813 0.02178702 0.02650941
v -0.01339241 0.01972807 0.02976852
v -0.02080850 0.02043979 0.02622716
v -0.02249333 0.02073404 0.02560092
v -0.03439042 0.01972807 -0.00101439
v -0.03439754 0.01972807 -0.00084240
v -0.03580097 0.02328666 -0.00089973
v -0.03615361 0.02418563 -0.00089973
v -0.03636021 0.02549962 -0.00089973
v -0.03640295 0.02730000 -0.00089973
v -0.03640295 0.02800928 -0.00089973
v -0.02142473 0.02800928 0.02945981
v -0.02195903 0.02800928 0.02908053
v -0.02285665 0.02800928 0.02836168
v -0.02394663 0.02800928 0.02746200
v -0.02449161 0.02800928 0.02698571
v -0.02484781 0.02800928 0.02667258
v -0.02575612 0.02730000 0.02577291
v -0.02665731 0.02730000 0.02483355
v -0.02662169 0.02549962 0.02478504
v -0.02726285 0.02417346 0.02369573
v -0.02620137 0.02354119 0.02440576
v -0.02470177 0.02190051 0.02474094
v -0.02688172 0.02297457 0.02327235
v -0.02651127 0.02190051 0.02288426
v -0.02703132 0.02095939 0.02164059
v -0.02561364 0.02190051 0.02384126
v -0.02526457 0.02093102 0.02347081
v -0.02413185 0.02074539 0.02415879
v -0.01344228 0.01972807 0.02972442
v -0.02249333 0.02023875 0.02429551
v -0.03442960 0.01972807 0.00045419
v -0.03458276 0.02010014 0.00089961
v -0.03581522 0.02325990 0.00089961
v -0.03616073 0.02415887 0.00089961
v -0.03637445 0.02549962 0.00089961
v -0.03642432 0.02730000 0.00089961
v -0.03641007 0.02800928 -0.00018970
v -0.02539992 0.02800928 0.02612573
v -0.02575256 0.02800928 0.02577291
v -0.02665375 0.02800928 0.02483355
v -0.02747657 0.02800928 0.02393388
v -0.02747657 0.02730000 0.02393388
v -0.02743739 0.02549962 0.02388536
v -0.02793251 0.02365467 0.02253145
v -0.02732697 0.02190051 0.02198459
v -0.02893699 0.02433397 0.02179054
v -0.02859860 0.02313507 0.02133629
v -0.02827446 0.02182188 0.02071887
v -0.02868765 0.02116934 0.01966484
v -0.02911509 0.02071539 0.01846087
v -0.02739108 0.02072188 0.02069682
v -0.02595916 0.02073647 0.02234181
v -0.02429570 0.02020552 0.02249617
v -0.03133066 0.01972807 0.01321278
v -0.03443672 0.01972807 0.00089961
v -0.03439042 0.01972807 0.00243876
v -0.03577247 0.02338231 0.00269896
v -0.03611443 0.02428209 0.00269896
v -0.03627828 0.02549962 0.00269896
v -0.03642076 0.02800928 0.00089961
v -0.03632459 0.02730000 0.00269896
v -0.03632459 0.02800928 0.00269896
v -0.02802156 0.02800928 0.02328999
v -0.02837776 0.02730000 0.02287103
v -0.02833501 0.02549962 0.02283134
v -0.02904029 0.02549962 0.02193166
v -0.03055770 0.02516241 0.01973981
v -0.03029768 0.02370007 0.01934731
v -0.02936087 0.02372114 0.02071887
v -0.02903673 0.02236904 0.02013673
v -0.02967433 0.02194996 0.01885778
v -0.03031549 0.02153087 0.01753032
v -0.03067169 0.02090670 0.01633076
v -0.03155150 0.01972807 0.01289966
v -0.02609451 0.02022740 0.02069682
v -0.03435480 0.01972807 0.00284008
v -0.03604675 0.02446123 0.00416754
v -0.03598975 0.02466875 0.00536711
v -0.03608949 0.02536101 0.00466148
v -0.03601825 0.02586845 0.00552146
v -0.03615005 0.02730000 0.00449830
v -0.03614648 0.02800928 0.00449830
v -0.02837776 0.02800928 0.02286662
v -0.02906879 0.02730000 0.02197136
v -0.03059688 0.02636211 0.01979715
v -0.03004833 0.02565689 0.02051600
v -0.03101364 0.02565689 0.01904301
v -0.03201456 0.02549962 0.01727454
v -0.03243844 0.02450419 0.01627784
v -0.03086760 0.02370007 0.01844764
v -0.03063250 0.02273058 0.01805513
v -0.03088541 0.02203831 0.01699670
v -0.03181509 0.02199535 0.01519735
v -0.03217841 0.02145792 0.01392281
v -0.03253105 0.01972807 0.01125467
v -0.03208224 0.01972807 0.01202645
v -0.03419094 0.01972807 0.00449830
v -0.03444029 0.02036683 0.00449830
v -0.03574398 0.02379734 0.00466148
v -0.03394873 0.01983183 0.00630206
v -0.03475374 0.02190051 0.00630206
v -0.03545189 0.02370007 0.00630206
v -0.03506364 0.02370007 0.00810140
v -0.03437261 0.02416455 0.01129436
v -0.03501733 0.02549962 0.00990075
v -0.03546258 0.02549962 0.00810140
v -0.03586152 0.02536101 0.00619181
v -0.03585440 0.02730000 0.00647406
v -0.03602894 0.02730000 0.00557438
v -0.03610018 0.02800928 0.00491727
v -0.02879451 0.02800928 0.02231976
v -0.02906522 0.02800928 0.02196253
v -0.02996641 0.02800928 0.02071446
v -0.02996997 0.02730000 0.02071005
v -0.03060401 0.02730000 0.01981038
v -0.03114900 0.02730000 0.01889748
v -0.03203949 0.02730000 0.01732746
v -0.03251680 0.02730000 0.01642779
v -0.03248475 0.02549962 0.01637045
v -0.03301549 0.02549962 0.01529437
v -0.03378844 0.02549962 0.01349944
v -0.03335387 0.02370007 0.01349944
v -0.03266284 0.02382328 0.01519735
v -0.03216417 0.02330530 0.01573098
v -0.03175454 0.02382328 0.01696582
v -0.03245981 0.02265843 0.01453142
v -0.03244913 0.02088157 0.01272325
v -0.03327907 0.02190051 0.01170009
v -0.03395941 0.02361982 0.01181476
v -0.03412683 0.02296565 0.01056668
v -0.03299411 0.01972807 0.00990075
v -0.03392736 0.01972807 0.00617858
v -0.03390598 0.01972807 0.00630206
v -0.03364240 0.01972807 0.00748398
v -0.03419807 0.02098776 0.00722378
v -0.03440467 0.02191996 0.00793382
v -0.03406271 0.02133308 0.00842335
v -0.03430137 0.02253359 0.00936712
v -0.03456495 0.02361982 0.00994044
v -0.03448659 0.02549962 0.01160748
v -0.03416245 0.02549962 0.01250715
v -0.03451509 0.02730000 0.01167804
v -0.03506720 0.02730000 0.00990075
v -0.03550889 0.02730000 0.00810140
v -0.03584371 0.02800928 0.00646965
v -0.03602538 0.02800928 0.00556997
v -0.03060757 0.02800928 0.01981479
v -0.03114900 0.02800928 0.01889748
v -0.03203593 0.02800928 0.01732746
v -0.03252037 0.02800928 0.01642779
v -0.03306891 0.02730000 0.01529437
v -0.03383474 0.02730000 0.01349944
v -0.03418738 0.02730000 0.01257772
v -0.03265572 0.02199535 0.01339360
v -0.03314728 0.02010014 0.00990075
v -0.03308672 0.01972807 0.00958322
v -0.03351773 0.01972807 0.00801320
v -0.03451509 0.02800928 0.01167363
v -0.03484992 0.02800928 0.01059755
v -0.03506364 0.02800928 0.00990075
v -0.03533078 0.02800928 0.00881144
v -0.03549108 0.02800928 0.00810140
v -0.03285163 0.02800928 0.01573980
v -0.03306535 0.02800928 0.01529437
v -0.03353197 0.02800928 0.01420506
v -0.03383118 0.02800928 0.01349944
v -0.03418382 0.02800928 0.01257331
f 1 2 3
f 1 3 4
f 1 4 9
f 1 9 18
f 1 18 27
f 1 27 30
f 1 30 20
f 1 20 11
f 1 11 6
f 1 6 2
f 2 5 3
f 2 6 12
f 2 12 21
f 2 21 32
f 2 32 51
f 2 51 69
f 2 69 72
f 2 72 102
f 2 102 132
f 2 132 167
f 2 167 189
f 2 189 216
f 2 216 239
f 2 239 241
f 2 241 261
f 2 261 289
f 2 289 325
f 2 325 324
f 2 324 341
f 2 341 340
f 2 340 339
f 2 339 338
f 2 338 337
f 2 337 346
f 2 346 345
f 2 345 344
f 2 344 343
f 2 343 342
f 2 342 329
f 2 329 328
f 2 328 327
f 2 327 326
f 2 326 292
f 2 292 291
f 2 291 290
f 2 290 262
f 2 262 242
f 2 242 220
f 2 220 219
f 2 219 218
f 2 218 217
f 2 217 195
f 2 195 194
f 2 194 193
f 2 193 192
f 2 192 191
f 2 191 190
f 2 190 168
f 2 168 137
f 2 137 136
f 2 136 135
f 2 135 134
f 2 134 133
f 2 133 107
f 2 107 106
f 2 106 105
f 2 105 104
f 2 104 103
f 2 103 74
f 2 74 73
f 2 73 64
f 2 64 63
f 2 63 43
f 2 43 28
f 2 28 19
f 2 19 10
f 2 10 5
f 3 5 10
f 3 10 7
f 3 7 8
f 3 8 4
f 4 8 9
f 6 11 12
f 7 13 8
f 7 10 19
f 7 19 14
f 7 14 15
f 7 15 13
f 8 13 16
f 8 16 17
f 8 17 9
f 9 17 18
f 11 20 29
f 11 29 47
f 11 47 65
f 11 65 95
f 11 95 67
f 11 67 49
f 11 49 31
f 11 31 21
f 11 21 12
f 13 15 22
f 13 22 23
f 13 23 16
f 14 19 24
f 14 24 25
f 14 25 15
f 15 25 22
f 16 23 26
f 16 26 17
f 17 26 18
f 18 26 27
f 19 28 24
f 20 30 46
f 20 46 26
f 20 26 42
f 20 42 41
f 20 41 62
f 20 62 94
f 20 94 93
f 20 93 126
f 20 126 125
f 20 125 154
f 20 154 153
f 20 153 152
f 20 152 180
f 20 180 208
f 20 208 233
f 20 233 253
f 20 253 275
f 20 275 274
f 20 274 310
f 20 310 335
f 20 335 336
f 20 336 313
f 20 313 312
f 20 312 311
f 20 311 276
f 20 276 255
f 20 255 235
f 20 235 234
f 20 234 210
f 20 210 184
f 20 184 183
f 20 183 161
f 20 161 165
f 20 165 158
f 20 158 157
f 20 157 127
f 20 127 98
f 20 98 66
f 20 66 48
f 20 48 29
f 21 31 32
f 22 25 33
f 22 33 34
f 22 34 35
f 22 35 36
f 22 36 37
f 22 37 38
f 22 38 39
f 22 39 23
f 23 39 40
f 23 40 41
f 23 41 42
f 23 42 26
f 24 28 43
f 24 43 44
f 24 44 25
f 25 44 45
f 25 45 34
f 25 34 33
f 26 46 27
f 27 46 30
f 29 48 47
f 31 49 50
f 31 50 32
f 32 50 51
f 34 45 52
f 34 52 35
f 35 52 53
f 35 53 54
f 35 54 55
f 35 55 36
f 36 55 56
f 36 56 57
f 36 57 58
f 36 58 59
f 36 59 60
f 36 60 37
f 37 60 61
f 37 61 38
f 38 61 39
f 39 61 40
f 40 61 62
f 40 62 41
f 43 63 44
f 44 63 45
f 45 63 64
f 45 64 73
f 45 73 52
f 47 48 66
f 47 66 65
f 49 67 68
f 49 68 50
f 50 69 51
f 50 68 70
f 50 70 71
f 50 71 72
f 50 72 69
f 52 73 74
f 52 74 75
f 52 75 53
f 53 75 76
f 53 76 77
f 53 77 78
f 53 78 55
f 53 55 54
f 55 78 79
f 55 79 56
f 56 80 57
f 56 79 81
f 56 81 82
f 56 82 83
f 56 83 84
f 56 84 85
f 56 85 86
f 56 86 80
f 57 80 87
f 57 87 58
f 58 87 88
f 58 88 59
f 59 88 89
f 59 89 60
f 60 89 90
f 60 90 91
f 60 91 92
f 60 92 61
f 61 92 93
f 61 93 94
f 61 94 62
f 65 66 95
f 66 96 97
f 66 97 95
f 66 98 96
f 67 95 97
f 67 97 68
f 68 97 99
f 68 99 70
f 70 99 100
f 70 100 71
f 71 101 72
f 71 100 101
f 72 101 102
f 74 103 75
f 75 103 104
f 75 104 76
f 76 104 105
f 76 105 77
f 77 105 106
f 77 106 107
f 77 107 108
f 77 108 79
f 77 79 78
f 79 108 109
f 79 109 81
f 80 86 110
f 80 110 111
f 80 111 87
f 81 109 82
f 82 109 112
f 82 112 83
f 83 113 114
f 83 114 115
f 83 115 116
f 83 116 84
f 83 112 113
f 84 116 117
f 84 117 118
f 84 118 85
f 85 118 119
f 85 119 120
f 85 120 121
f 85 121 86
f 86 121 110
f 87 111 110
f 87 110 122
f 87 122 123
f 87 123 88
f 88 123 124
f 88 124 89
f 89 124 90
f 90 124 125
f 90 125 126
f 90 126 92
f 90 92 91
f 92 126 93
f 96 98 127
f 96 127 97
f 97 127 128
f 97 128 129
f 97 129 99
f 99 129 130
f 99 130 100
f 100 130 131
f 100 131 101
f 101 132 102
f 101 131 132
f 107 133 108
f 108 133 109
f 109 133 112
f 110 121 120
f 110 120 122
f 112 133 134
f 112 134 135
f 112 135 136
f 112 136 113
f 113 136 137
f 113 137 138
f 113 138 114
f 114 138 139
f 114 139 140
f 114 140 141
f 114 141 115
f 115 141 116
f 116 142 117
f 116 141 140
f 116 140 143
f 116 143 144
f 116 144 145
f 116 145 146
f 116 146 147
f 116 147 148
f 116 148 149
f 116 149 142
f 117 142 150
f 117 150 118
f 118 150 119
f 119 150 151
f 119 151 149
f 119 149 120
f 120 152 153
f 120 153 154
f 120 154 122
f 120 149 155
f 120 155 152
f 122 154 156
f 122 156 123
f 123 156 154
f 123 154 124
f 124 154 125
f 127 157 128
f 128 157 158
f 128 158 159
f 128 159 129
f 129 160 161
f 129 161 162
f 129 162 163
f 129 163 164
f 129 164 130
f 129 159 165
f 129 165 160
f 130 164 131
f 131 164 166
f 131 166 132
f 132 166 167
f 137 168 138
f 138 168 139
f 139 168 169
f 139 169 140
f 140 169 170
f 140 170 143
f 142 151 150
f 142 149 151
f 143 170 171
f 143 171 144
f 144 171 145
f 145 171 172
f 145 172 173
f 145 173 174
f 145 174 146
f 146 174 175
f 146 175 147
f 147 175 176
f 147 176 177
f 147 177 178
f 147 178 179
f 147 179 148
f 148 179 149
f 149 179 178
f 149 178 155
f 152 155 181
f 152 181 180
f 155 178 182
f 155 182 181
f 158 165 159
f 160 165 161
f 161 183 162
f 162 183 163
f 163 183 184
f 163 184 185
f 163 185 186
f 163 186 187
f 163 187 164
f 164 187 166
f 166 187 188
f 166 188 189
f 166 189 167
f 168 190 169
f 169 190 191
f 169 191 192
f 169 192 170
f 170 192 193
f 170 193 171
f 171 193 194
f 171 194 195
f 171 195 172
f 172 195 217
f 172 217 196
f 172 196 173
f 173 196 197
f 173 197 198
f 173 198 174
f 174 198 199
f 174 199 200
f 174 200 176
f 174 176 175
f 176 201 178
f 176 178 177
f 176 200 202
f 176 202 203
f 176 203 204
f 176 204 205
f 176 205 206
f 176 206 201
f 178 201 206
f 178 206 207
f 178 207 182
f 180 181 209
f 180 209 208
f 181 182 209
f 182 207 209
f 184 210 185
f 185 210 186
f 186 210 211
f 186 211 212
f 186 212 213
f 186 213 214
f 186 214 187
f 187 214 215
f 187 215 188
f 188 215 189
f 189 215 216
f 196 217 218
f 196 218 219
f 196 219 197
f 197 219 220
f 197 220 221
f 197 221 198
f 198 221 222
f 198 222 199
f 199 223 224
f 199 224 202
f 199 202 200
f 199 222 225
f 199 225 223
f 202 224 204
f 202 204 203
f 204 226 227
f 204 227 228
f 204 228 229
f 204 229 230
f 204 230 231
f 204 231 206
f 204 206 205
f 204 224 226
f 206 231 207
f 207 231 232
f 207 232 209
f 208 209 232
f 208 232 233
f 210 234 211
f 211 234 235
f 211 235 212
f 212 235 213
f 213 235 236
f 213 236 237
f 213 237 214
f 214 237 238
f 214 238 215
f 215 239 216
f 215 238 240
f 215 240 241
f 215 241 239
f 220 242 243
f 220 243 221
f 221 243 244
f 221 244 222
f 222 244 225
f 223 225 226
f 223 226 224
f 225 245 246
f 225 246 247
f 225 247 248
f 225 248 249
f 225 249 226
f 225 244 245
f 226 249 228
f 226 228 227
f 228 249 250
f 228 250 251
f 228 251 252
f 228 252 229
f 229 252 253
f 229 253 233
f 229 233 230
f 230 254 231
f 230 233 254
f 231 254 232
f 232 254 233
f 235 255 236
f 236 255 256
f 236 256 237
f 237 256 238
f 238 256 257
f 238 257 258
f 238 258 240
f 240 258 259
f 240 259 260
f 240 260 241
f 241 260 261
f 242 262 243
f 243 262 263
f 243 263 245
f 243 245 244
f 245 263 264
f 245 264 265
f 245 265 246
f 246 265 264
f 246 264 266
f 246 266 267
f 246 267 268
f 246 268 269
f 246 269 247
f 247 249 248
f 247 269 270
f 247 270 250
f 247 250 249
f 250 270 251
f 251 270 271
f 251 271 252
f 252 271 272
f 252 272 273
f 252 273 274
f 252 274 275
f 252 275 253
f 255 276 277
f 255 277 278
f 255 278 256
f 256 278 257
f 257 279 280
f 257 280 281
f 257 281 282
f 257 282 283
f 257 283 284
f 257 284 285
f 257 285 286
f 257 286 259
f 257 259 258
f 257 278 277
f 257 277 276
f 257 276 279
f 259 286 285
f 259 285 287
f 259 287 288
f 259 288 260
f 260 288 289
f 260 289 261
f 262 290 263
f 263 290 291
f 263 291 292
f 263 292 293
f 263 293 264
f 264 293 294
f 264 294 295
f 264 295 266
f 266 295 267
f 267 295 296
f 267 296 297
f 267 297 298
f 267 298 268
f 268 298 299
f 268 299 300
f 268 300 283
f 268 283 301
f 268 301 302
f 268 302 303
f 268 303 304
f 268 304 269
f 269 304 270
f 270 304 271
f 271 304 303
f 271 303 272
f 272 303 305
f 272 305 273
f 273 305 306
f 273 306 274
f 274 307 308
f 274 308 283
f 274 283 309
f 274 309 310
f 274 306 301
f 274 301 307
f 276 311 279
f 279 311 312
f 279 312 313
f 279 313 314
f 279 314 282
f 279 282 280
f 280 282 281
f 282 314 315
f 282 315 316
f 282 316 317
f 282 317 318
f 282 318 283
f 283 319 284
f 283 318 309
f 283 308 301
f 283 300 320
f 283 320 319
f 284 319 321
f 284 321 322
f 284 322 285
f 285 323 287
f 285 322 323
f 287 323 324
f 287 324 325
f 287 325 288
f 288 325 289
f 292 326 293
f 293 326 294
f 294 326 295
f 295 326 327
f 295 327 296
f 296 327 328
f 296 328 329
f 296 329 297
f 297 329 330
f 297 330 299
f 297 299 298
f 299 330 300
f 300 331 332
f 300 332 320
f 300 330 331
f 301 308 307
f 301 306 333
f 301 333 305
f 301 305 302
f 302 305 303
f 305 333 306
f 309 318 317
f 309 317 334
f 309 334 310
f 310 334 335
f 313 336 316
f 313 316 314
f 314 316 315
f 316 336 317
f 317 336 335
f 317 335 334
f 319 320 321
f 320 332 321
f 321 332 337
f 321 337 338
f 321 338 322
f 322 338 339
f 322 339 323
f 323 339 340
f 323 340 341
f 323 341 324
f 329 342 330
f 330 342 343
f 330 343 344
f 330 344 331
f 331 344 345
f 331 345 332
f 332 345 346
f 332 346 337

