# https://github.com/mikedh/trimesh
v -0.01540919 0.01972807 0.01458403
v -0.01399937 0.01280931 0.01458403
v -0.01431869 0.01972807 0.02789770
v 0.01536569 0.01972807 0.01458403
v -0.01263776 0.01280931 0.02421122
v 0.01400107 0.01280931 0.01458403
v -0.01260764 0.01280931 0.02438761
v -0.01261969 0.01356579 0.02528718
v -0.01343906 0.01972807 0.02972507
v 0.01432038 0.01972807 0.02789770
v 0.01254004 0.01280931 0.02495910
v -0.01199310 0.01280931 0.02559233
v -0.01338785 0.01972807 0.02976917
v -0.01167077 0.01280931 0.02588866
v 0.01343774 0.01972807 0.02971272
v 0.01201588 0.01280931 0.02552883
v -0.01229736 0.01936439 0.03036006
v -0.01196298 0.01972807 0.03083278
v -0.00989646 0.01280931 0.02678294
v -0.01097490 0.01369447 0.02707045
v 0.01342268 0.01972807 0.02972860
v 0.01165740 0.01280931 0.02587455
v 0.01263945 0.01972807 0.03051528
v -0.01171897 0.01972807 0.03097036
v -0.00989646 0.01783516 0.03029304
v -0.01042062 0.01575601 0.02868792
v -0.00809503 0.01280931 0.02723625
v -0.00921866 0.01550882 0.02886077
v -0.01109841 0.01901493 0.03072695
v -0.01152316 0.01972807 0.03107090
v 0.01097057 0.01369921 0.02706692
v 0.01012107 0.01280931 0.02668945
v 0.01151281 0.01972807 0.03105326
v -0.00994767 0.01972807 0.03160006
v -0.01040254 0.01972807 0.03145189
v -0.00657075 0.01280931 0.02753435
v -0.00809503 0.01313371 0.02746379
v -0.00843242 0.01756562 0.03048177
v 0.01108806 0.01902712 0.03071813
v 0.00993731 0.01972807 0.03157184
v 0.01037713 0.01576550 0.02868262
v 0.00990116 0.01280931 0.02675295
v -0.00809503 0.01971249 0.03204103
v -0.00809503 0.01972807 0.03205161
v -0.00632072 0.01280931 0.02758197
v -0.00629360 0.01416922 0.02853975
v -0.00809503 0.01442116 0.02836336
v -0.00809503 0.01532122 0.02899130
v -0.00723047 0.01738885 0.03060524
v 0.00811781 0.01972807 0.03204279
v 0.00917818 0.01553252 0.02884490
v 0.00810275 0.01280931 0.02721332
v -0.00629360 0.01972807 0.03238498
v -0.00460966 0.01280931 0.02783244
v -0.00629360 0.01506929 0.02916592
v -0.00629360 0.01636960 0.03006726
v 0.00810275 0.01972807 0.03204632
v 0.00844315 0.01758661 0.03046589
v 0.00724421 0.01738547 0.03060700
v 0.00773825 0.01280931 0.02729623
v -0.00449519 0.01280931 0.02784831
v -0.00449519 0.01399111 0.02866322
v -0.00568510 0.01972807 0.03245730
v 0.00630132 0.01972807 0.03240967
v 0.00631940 0.01280931 0.02757315
v 0.00450291 0.01280931 0.02783950
v -0.00449519 0.01972807 0.03259135
v 0.00450291 0.01399923 0.02865969
v 0.00450291 0.01972807 0.03260194
f 1 2 3
f 1 3 9
f 1 9 13
f 1 13 18
f 1 18 24
f 1 24 30
f 1 30 35
f 1 35 34
f 1 34 44
f 1 44 53
f 1 53 63
f 1 63 67
f 1 67 69
f 1 69 64
f 1 64 57
f 1 57 50
f 1 50 40
f 1 40 33
f 1 33 23
f 1 23 21
f 1 21 15
f 1 15 10
f 1 10 4
f 1 4 6
f 1 6 2
f 2 5 3
f 2 6 11
f 2 11 16
f 2 16 22
f 2 22 32
f 2 32 42
f 2 42 52
f 2 52 60
f 2 60 65
f 2 65 66
f 2 66 61
f 2 61 54
f 2 54 45
f 2 45 36
f 2 36 27
f 2 27 19
f 2 19 14
f 2 14 12
f 2 12 7
f 2 7 5
f 3 5 7
f 3 7 8
f 3 8 9
f 4 10 6
f 6 10 11
f 7 12 8
f 8 12 9
f 9 12 14
f 9 14 13
f 10 15 11
f 11 15 16
f 13 14 17
f 13 17 18
f 14 19 20
f 14 20 17
f 15 21 16
f 16 21 23
f 16 23 22
f 17 20 18
f 18 20 24
f 19 25 26
f 19 26 20
f 19 27 28
f 19 28 25
f 20 26 29
f 20 29 30
f 20 30 24
f 22 31 32
f 22 23 31
f 23 33 31
f 25 34 26
f 25 28 34
f 26 35 29
f 26 34 35
f 27 36 37
f 27 37 28
f 28 37 38
f 28 38 34
f 29 35 30
f 31 33 39
f 31 39 40
f 31 40 41
f 31 41 42
f 31 42 32
f 33 40 39
f 34 38 43
f 34 43 44
f 36 45 46
f 36 46 37
f 37 47 38
f 37 46 47
f 38 47 48
f 38 48 49
f 38 49 43
f 40 50 51
f 40 51 42
f 40 42 41
f 42 51 52
f 43 49 53
f 43 53 44
f 45 54 46
f 46 55 49
f 46 49 47
f 46 54 55
f 47 49 48
f 49 55 56
f 49 56 53
f 50 57 52
f 50 52 58
f 50 58 51
f 51 58 52
f 52 59 60
f 52 57 59
f 53 56 61
f 53 61 62
f 53 62 63
f 54 61 55
f 55 61 56
f 57 64 59
f 59 64 65
f 59 65 60
f 61 66 62
f 62 67 63
f 62 66 68
f 62 68 69
f 62 69 67
f 64 69 68
f 64 68 66
f 64 66 65

