# https://github.com/mikedh/trimesh
v 0.02173409 0.02800957 0.01911257
v 0.02173409 0.02988915 0.02154098
v 0.02173409 0.02800957 0.02924167
v -0.00003490 0.02800957 0.02800712
v 0.02173409 0.03000674 0.02172921
v -0.00003490 0.02994838 0.03067294
v 0.02052801 0.02800957 0.03009975
v 0.02173409 0.02910750 0.02922980
v 0.02052801 0.02914747 0.03009466
v -0.00003490 0.02800957 0.03643531
v 0.02173409 0.03046714 0.02260425
v -0.00003490 0.03049487 0.03157341
v 0.01980991 0.02857911 0.03060171
v 0.01988875 0.02800957 0.03054745
v 0.02173409 0.03011440 0.02905852
v 0.01979712 0.02977857 0.03059323
v 0.00090481 0.02800957 0.03643531
v -0.00003490 0.02910020 0.03642344
v 0.02173409 0.03059378 0.02298242
v -0.00003490 0.03099000 0.03329636
v 0.01907902 0.02914747 0.03102906
v 0.01907902 0.02800957 0.03103754
v 0.01948815 0.02800957 0.03079504
v 0.01980991 0.02800957 0.03060171
v 0.02173409 0.03020864 0.02901104
v 0.01859744 0.03031689 0.03094935
v 0.01637494 0.03012753 0.03249085
v 0.01735727 0.02910020 0.03203298
v 0.00090481 0.02910020 0.03642344
v 0.00161439 0.02800957 0.03640479
v -0.00003490 0.02966624 0.03631830
v 0.02173409 0.03083390 0.02423902
v -0.00003490 0.03087942 0.03423584
v 0.00810503 0.03099000 0.03329636
v 0.02173409 0.03099000 0.02506827
v 0.01735301 0.02800957 0.03204315
v 0.02173409 0.03044322 0.02851077
v 0.02070274 0.03039129 0.02937734
v 0.01702486 0.03046453 0.03152932
v 0.01530311 0.03033964 0.03272826
v 0.01907902 0.03058619 0.02987421
v 0.01645805 0.02910020 0.03253324
v 0.01260756 0.03000353 0.03420023
v 0.01530311 0.02910020 0.03306234
v 0.00270540 0.02910020 0.03634543
v 0.00270540 0.03023607 0.03616398
v 0.00090481 0.03028304 0.03620298
v 0.00270540 0.02800957 0.03635730
v -0.00003490 0.03028304 0.03620298
v -0.00003490 0.03077788 0.03509731
v 0.00090481 0.03077788 0.03509731
v 0.00270540 0.03073091 0.03509731
v 0.00990561 0.03092289 0.03329636
v 0.01350253 0.03098650 0.03149710
v 0.01530311 0.03099000 0.02969784
v 0.02070274 0.03099000 0.02609933
v 0.02173409 0.03096783 0.02609933
v 0.01645165 0.02800957 0.03252646
v 0.02173409 0.03064775 0.02789858
v 0.02070274 0.03088613 0.02789689
v 0.01530311 0.03083478 0.03149710
v 0.01170194 0.03067809 0.03329636
v 0.00990561 0.03042776 0.03461231
v 0.01170194 0.03018297 0.03434776
v 0.01530311 0.02800957 0.03306403
v 0.01575699 0.02800957 0.03285545
v 0.01262674 0.02910020 0.03420701
v 0.01352597 0.02910020 0.03382715
v 0.00543931 0.03000791 0.03600118
v 0.00990561 0.02910020 0.03504644
v 0.01170194 0.02910020 0.03451226
v 0.01422489 0.02800957 0.03353377
v 0.00450385 0.02800957 0.03616229
v 0.00450385 0.02910020 0.03614702
v 0.00450385 0.03010039 0.03606562
v 0.00810503 0.03049487 0.03482938
v -0.00003490 0.03051996 0.03567389
v 0.01710157 0.03098008 0.02969784
v 0.01890216 0.03099000 0.02789689
v 0.02173409 0.03092347 0.02686753
v 0.01170194 0.02800957 0.03451395
v 0.01206632 0.02800957 0.03439355
v 0.01262674 0.02800957 0.03420701
v 0.01352597 0.02800957 0.03383393
v 0.00549684 0.02910020 0.03601136
v 0.00639607 0.02910020 0.03585026
v 0.00810503 0.02910020 0.03549583
v 0.00881461 0.02800957 0.03533982
v 0.00990561 0.02800957 0.03506170
v 0.01061306 0.02800957 0.03485142
v 0.00489594 0.02800957 0.03610971
v 0.00553733 0.02800957 0.03601984
v 0.00589105 0.02800957 0.03595709
v 0.00643656 0.02800957 0.03585873
v 0.00810503 0.02800957 0.03551618
f 1 2 5
f 1 5 11
f 1 11 19
f 1 19 32
f 1 32 35
f 1 35 57
f 1 57 80
f 1 80 59
f 1 59 37
f 1 37 25
f 1 25 15
f 1 15 8
f 1 8 3
f 1 3 7
f 1 7 14
f 1 14 24
f 1 24 23
f 1 23 22
f 1 22 36
f 1 36 58
f 1 58 66
f 1 66 65
f 1 65 72
f 1 72 84
f 1 84 83
f 1 83 82
f 1 82 81
f 1 81 90
f 1 90 89
f 1 89 88
f 1 88 95
f 1 95 94
f 1 94 93
f 1 93 92
f 1 92 91
f 1 91 73
f 1 73 48
f 1 48 30
f 1 30 17
f 1 17 10
f 1 10 4
f 1 4 2
f 2 4 6
f 2 6 5
f 3 8 9
f 3 9 7
f 4 10 18
f 4 18 31
f 4 31 49
f 4 49 77
f 4 77 50
f 4 50 33
f 4 33 20
f 4 20 12
f 4 12 6
f 5 6 12
f 5 12 11
f 7 9 13
f 7 13 14
f 8 15 16
f 8 16 9
f 9 16 13
f 10 17 29
f 10 29 18
f 11 12 19
f 12 20 19
f 13 16 21
f 13 21 22
f 13 22 23
f 13 23 24
f 13 24 14
f 15 25 16
f 16 25 26
f 16 26 27
f 16 27 28
f 16 28 21
f 17 30 29
f 18 29 31
f 19 20 32
f 20 33 34
f 20 34 55
f 20 55 79
f 20 79 56
f 20 56 35
f 20 35 32
f 21 28 22
f 22 28 36
f 25 37 38
f 25 38 26
f 26 39 40
f 26 40 27
f 26 38 41
f 26 41 39
f 27 42 28
f 27 40 43
f 27 43 44
f 27 44 42
f 28 42 36
f 29 30 45
f 29 45 46
f 29 46 47
f 29 47 31
f 30 48 45
f 31 47 49
f 33 50 51
f 33 51 34
f 34 51 52
f 34 52 53
f 34 53 54
f 34 54 55
f 35 56 57
f 36 42 58
f 37 59 60
f 37 60 38
f 38 60 41
f 39 41 61
f 39 61 40
f 40 61 62
f 40 62 63
f 40 63 64
f 40 64 43
f 41 60 61
f 42 44 65
f 42 65 66
f 42 66 58
f 43 67 68
f 43 68 44
f 43 64 69
f 43 69 70
f 43 70 71
f 43 71 67
f 44 68 72
f 44 72 65
f 45 48 73
f 45 73 74
f 45 74 69
f 45 69 75
f 45 75 46
f 46 52 47
f 46 75 76
f 46 76 52
f 47 52 51
f 47 51 77
f 47 77 49
f 50 77 51
f 52 76 53
f 53 76 63
f 53 63 62
f 53 62 61
f 53 61 54
f 54 61 78
f 54 78 79
f 54 79 55
f 56 79 57
f 57 79 78
f 57 78 80
f 59 80 60
f 60 80 78
f 60 78 61
f 63 76 75
f 63 75 69
f 63 69 64
f 67 71 81
f 67 81 82
f 67 82 83
f 67 83 84
f 67 84 68
f 68 84 72
f 69 74 85
f 69 85 86
f 69 86 87
f 69 87 70
f 70 87 88
f 70 88 89
f 70 89 90
f 70 90 71
f 71 90 81
f 73 91 74
f 74 91 85
f 85 91 92
f 85 92 93
f 85 93 86
f 86 93 94
f 86 94 95
f 86 95 87
f 87 95 88

