# https://github.com/mikedh/trimesh
v -0.00089666 0.02729977 -0.03643155
v -0.00089666 0.02816438 -0.03642883
v -0.00003490 0.02816438 -0.03642883
v -0.00003490 0.02729977 -0.03642883
v -0.00089666 0.02549954 -0.03637164
v -0.00269978 0.02549954 -0.03626542
v -0.00269978 0.02729977 -0.03631717
v -0.00176188 0.02816438 -0.03637436
v -0.00003490 0.02816438 -0.02896383
v -0.00003490 0.02549954 -0.03636892
v -0.00003490 0.02494626 -0.03626815
v -0.00003490 0.02434178 -0.03615649
v -0.00089666 0.02433930 -0.03615649
v -0.00269978 0.02442105 -0.03610746
v -0.00415335 0.02451519 -0.03605027
v -0.00535428 0.02468613 -0.03599580
v -0.00465172 0.02537154 -0.03609385
v -0.00269978 0.02816438 -0.03631445
v -0.00449944 0.02729977 -0.03615921
v -0.00449944 0.02816438 -0.03615921
v -0.00356154 0.02816438 -0.03624091
v -0.00003490 0.02798931 -0.00861141
v -0.02742432 0.02816438 -0.00861141
v -0.00003490 0.02344249 -0.03555460
v -0.00089666 0.02344001 -0.03555733
v -0.00269978 0.02352176 -0.03550558
v -0.00465172 0.02382979 -0.03553009
v -0.00629910 0.02370013 -0.03516242
v -0.00807453 0.02358122 -0.03470216
v -0.00989841 0.02403706 -0.03456326
v -0.01127584 0.02434756 -0.03435900
v -0.00989841 0.02549954 -0.03499357
v -0.00809876 0.02549954 -0.03544294
v -0.00618489 0.02537154 -0.03585146
v -0.00551002 0.02588601 -0.03602304
v -0.00555847 0.02729977 -0.03603393
v -0.00555155 0.02816438 -0.03603121
v -0.00003490 0.01972807 -0.00861141
v -0.03537050 0.02816438 -0.00861141
v -0.00003490 0.02282232 -0.03512429
v -0.00003490 0.02172153 -0.03435628
v -0.00089666 0.02215508 -0.03465586
v -0.00269978 0.02222031 -0.03460684
v -0.00449944 0.02235244 -0.03451696
v -0.00629910 0.02256137 -0.03437262
v -0.00745849 0.02272405 -0.03425551
v -0.00865596 0.02290242 -0.03412751
v -0.00989841 0.02313777 -0.03396410
v -0.01180536 0.02372904 -0.03375439
v -0.01354618 0.02359443 -0.03301634
v -0.01529739 0.02419726 -0.03267046
v -0.01627336 0.02453997 -0.03243896
v -0.01349773 0.02549954 -0.03377891
v -0.01248715 0.02549954 -0.03416019
v -0.01158732 0.02549954 -0.03446794
v -0.00989841 0.02729977 -0.03506165
v -0.00809876 0.02729977 -0.03551102
v -0.00646176 0.02729977 -0.03584874
v -0.00809876 0.02816438 -0.03549196
v -0.03286828 0.01972807 -0.00861141
v -0.00003490 0.01972807 -0.03295097
v -0.03504864 0.02816438 -0.00990233
v -0.03539127 0.02729977 -0.00861141
v -0.00024948 0.01972807 -0.03295097
v -0.00089666 0.01972807 -0.03294553
v -0.00269978 0.02132103 -0.03397499
v -0.00449944 0.02145233 -0.03387695
v -0.00307009 0.01972807 -0.03281752
v -0.00407721 0.01972807 -0.03270859
v -0.00629910 0.01972807 -0.03234909
v -0.00449944 0.02019051 -0.03297821
v -0.00449944 0.01972807 -0.03264867
v -0.00809876 0.01972807 -0.03198142
v -0.00809876 0.02065708 -0.03264595
v -0.00933083 0.02086188 -0.03250160
v -0.00991226 0.01972807 -0.03151571
v -0.01053175 0.02111210 -0.03231913
v -0.01169807 0.02228060 -0.03277667
v -0.01297514 0.02259523 -0.03254790
v -0.01417606 0.02292389 -0.03231096
v -0.01529739 0.02329798 -0.03204406
v -0.01635988 0.02549954 -0.03248254
v -0.01529739 0.02549954 -0.03299999
v -0.01661944 0.02250273 -0.03081306
v -0.01781691 0.02292554 -0.03050258
v -0.01855754 0.02412459 -0.03091927
v -0.01975500 0.02499745 -0.03057611
v -0.01725971 0.02549954 -0.03201683
v -0.01349773 0.02729977 -0.03384154
v -0.01255637 0.02729977 -0.03418470
v -0.01165654 0.02729977 -0.03450062
v -0.00989841 0.02816438 -0.03505621
v -0.01074287 0.02816438 -0.03479203
v -0.00896398 0.02816438 -0.03528770
v -0.03407613 0.02216581 -0.00861141
v -0.03434954 0.02430462 -0.01135393
v -0.03386156 0.02370344 -0.01185233
v -0.03256719 0.01972807 -0.00947747
v -0.03505210 0.02729977 -0.00990233
v -0.03449836 0.02816438 -0.01170254
v -0.03450528 0.02729977 -0.01170254
v -0.03533243 0.02549954 -0.00861141
v -0.00276208 0.01972807 -0.03284203
v -0.00287629 0.01992048 -0.03297004
v -0.00941735 0.01972807 -0.03164371
v -0.01144543 0.01972807 -0.03100642
v -0.01169807 0.02138048 -0.03212577
v -0.01354618 0.02195771 -0.03185886
v -0.01454984 0.02091886 -0.03067416
v -0.01521087 0.02190156 -0.03107996
v -0.01575076 0.02130286 -0.03038275
v -0.01640833 0.02729977 -0.03250705
v -0.01529739 0.02729977 -0.03305991
v -0.01730816 0.02729977 -0.03204951
v -0.01717319 0.02190156 -0.03006955
v -0.01803495 0.02096759 -0.02883310
v -0.01905244 0.02359526 -0.03020300
v -0.02179346 0.02440784 -0.02895021
v -0.02052332 0.02555817 -0.03007228
v -0.01981038 0.02619734 -0.03061152
v -0.01905244 0.02555817 -0.03102004
v -0.02193882 0.02549954 -0.02905915
v -0.01349773 0.02816438 -0.03383610
v -0.01300975 0.02816438 -0.03401585
v -0.01255637 0.02816438 -0.03418198
v -0.01529739 0.02816438 -0.03305991
v -0.01436295 0.02816438 -0.03346571
v -0.01165654 0.02816438 -0.03449790
v -0.03429070 0.02260100 -0.00861141
v -0.03450528 0.02370344 -0.00977160
v -0.03483060 0.02370096 -0.00861141
v -0.03417996 0.02491240 -0.01255226
v -0.03307247 0.02355232 -0.01364164
v -0.03262948 0.02239951 -0.01313235
v -0.03245298 0.01972807 -0.00976888
v -0.03498980 0.02549954 -0.00990233
v -0.03420764 0.02611228 -0.01263396
v -0.03434608 0.02816438 -0.01219276
v -0.03420764 0.02816438 -0.01263669
v -0.03421110 0.02729977 -0.01264213
v -0.01254945 0.01972807 -0.03046718
v -0.01349773 0.02064470 -0.03088931
v -0.01709705 0.02074462 -0.02911089
v -0.01640833 0.02816438 -0.03250705
v -0.01730816 0.02816438 -0.03204951
v -0.01889324 0.02729977 -0.03116166
v -0.01874096 0.02071985 -0.02779546
v -0.01992805 0.02089491 -0.02712277
v -0.02371079 0.02431205 -0.02726984
v -0.02390806 0.02549954 -0.02744686
v -0.02283865 0.02549954 -0.02834560
v -0.01981038 0.02729977 -0.03061152
v -0.02198035 0.02729977 -0.02908911
v -0.02071021 0.02729977 -0.02999057
v -0.02288018 0.02729977 -0.02838373
v -0.03386502 0.02550697 -0.01334206
v -0.03299287 0.02549954 -0.01530295
v -0.03249451 0.02549954 -0.01640868
v -0.03244606 0.02450941 -0.01630519
v -0.03236300 0.02285370 -0.01433340
v -0.03205498 0.02183962 -0.01364164
v -0.03226955 0.02119963 -0.01229080
v -0.03221764 0.01972807 -0.01036532
v -0.03382694 0.02729977 -0.01354360
v -0.03305171 0.02729977 -0.01530295
v -0.03401037 0.02816438 -0.01310512
v -0.01337314 0.01972807 -0.02971006
v -0.01889324 0.02017895 -0.02610147
v -0.01898323 0.02816438 -0.03109902
v -0.02059254 0.02068433 -0.02599253
v -0.02423685 0.02062075 -0.02244931
v -0.02360004 0.02085197 -0.02359044
v -0.02424031 0.02195523 -0.02424407
v -0.02487711 0.02306427 -0.02489770
v -0.02429568 0.02368857 -0.02609602
v -0.02553122 0.02426416 -0.02553499
v -0.02480789 0.02549954 -0.02664344
v -0.02393921 0.02729977 -0.02748499
v -0.01979999 0.02816438 -0.03060335
v -0.01966156 0.02816438 -0.03068778
v -0.02197689 0.02816438 -0.02908366
v -0.02240950 0.02816438 -0.02874595
v -0.02131586 0.02816438 -0.02955210
v -0.02060984 0.02816438 -0.03004232
v -0.02017031 0.02816438 -0.03034735
v -0.02287672 0.02816438 -0.02837828
v -0.03251873 0.02729977 -0.01645498
v -0.03205844 0.02729977 -0.01735372
v -0.03202383 0.02549954 -0.01730742
v -0.03092327 0.02410477 -0.01856566
v -0.03149431 0.02370757 -0.01708954
v -0.03121052 0.02184953 -0.01533019
v -0.03212073 0.02322282 -0.01530295
v -0.03057026 0.02507178 -0.01976670
v -0.03161544 0.01972807 -0.01167803
v -0.03382694 0.02816438 -0.01353543
v -0.03342548 0.02816438 -0.01445323
v -0.03304825 0.02816438 -0.01530295
v -0.03277138 0.02816438 -0.01590211
v -0.03085751 0.01972807 -0.01305610
v -0.02603650 0.02063892 -0.02061915
v -0.02539624 0.02084619 -0.02181202
v -0.02480097 0.02134167 -0.02301034
v -0.02547930 0.02254155 -0.02369666
v -0.02610572 0.02367949 -0.02430943
v -0.02726858 0.02429305 -0.02372117
v -0.02664216 0.02549954 -0.02482145
v -0.02574233 0.02549954 -0.02574470
v -0.02483904 0.02729977 -0.02667612
v -0.02578386 0.02729977 -0.02577738
v -0.02392883 0.02816438 -0.02747954
v -0.03251527 0.02816438 -0.01644953
v -0.03205498 0.02816438 -0.01734827
v -0.03152200 0.02816438 -0.01826335
v -0.03104786 0.02733445 -0.01908039
v -0.03060141 0.02627166 -0.01981300
v -0.03102017 0.02560277 -0.01906133
v -0.02894711 0.02440619 -0.02180657
v -0.03022763 0.02358370 -0.01906133
v -0.03051488 0.02290490 -0.01787390
v -0.03086097 0.02241603 -0.01667285
v -0.03044221 0.02121615 -0.01594569
v -0.03078483 0.02080408 -0.01474737
v -0.03007189 0.02560277 -0.02052927
v -0.02905785 0.02549954 -0.02195092
v -0.02883636 0.02095685 -0.01805909
v -0.02712668 0.02088335 -0.01996279
v -0.02659717 0.02137718 -0.02116384
v -0.02603650 0.02195936 -0.02243569
v -0.02668023 0.02309400 -0.02305664
v -0.02720974 0.02257706 -0.02186104
v -0.02783962 0.02375051 -0.02243297
v -0.02744508 0.02549954 -0.02391998
v -0.02668369 0.02729977 -0.02485685
v -0.02482865 0.02816438 -0.02666795
v -0.02436143 0.02816438 -0.02709009
v -0.02528895 0.02816438 -0.02623764
v -0.02577694 0.02816438 -0.02576921
v -0.02620955 0.02816438 -0.02532801
v -0.03109631 0.02816438 -0.01898779
v -0.03060141 0.02675723 -0.01981300
v -0.03011342 0.02733445 -0.02052927
v -0.02909246 0.02729977 -0.02198905
v -0.02834491 0.02549954 -0.02284694
v -0.02841067 0.02320713 -0.02112299
v -0.03012380 0.02184953 -0.01720665
v -0.02837260 0.02729977 -0.02288779
v -0.02747277 0.02729977 -0.02395811
v -0.02667677 0.02816438 -0.02484868
v -0.03069139 0.02816438 -0.01963325
v -0.03059102 0.02795710 -0.01979666
v -0.03004420 0.02816438 -0.02061098
v -0.02909246 0.02816438 -0.02198360
v -0.02871523 0.02816438 -0.02245203
v -0.02836221 0.02816438 -0.02288234
v -0.02789500 0.02816438 -0.02343793
v -0.02746238 0.02816438 -0.02394994
v -0.02705400 0.02816438 -0.02441837
v -0.03058756 0.02816438 -0.01979394
f 1 2 3
f 1 3 4
f 1 4 10
f 1 10 5
f 1 5 6
f 1 6 7
f 1 7 8
f 1 8 2
f 2 8 18
f 2 18 21
f 2 21 20
f 2 20 37
f 2 37 59
f 2 59 94
f 2 94 92
f 2 92 93
f 2 93 128
f 2 128 125
f 2 125 124
f 2 124 123
f 2 123 127
f 2 127 126
f 2 126 144
f 2 144 145
f 2 145 169
f 2 169 180
f 2 180 179
f 2 179 185
f 2 185 184
f 2 184 183
f 2 183 181
f 2 181 182
f 2 182 186
f 2 186 211
f 2 211 236
f 2 236 235
f 2 235 237
f 2 237 238
f 2 238 239
f 2 239 249
f 2 249 258
f 2 258 257
f 2 257 256
f 2 256 255
f 2 255 254
f 2 254 253
f 2 253 252
f 2 252 259
f 2 259 250
f 2 250 240
f 2 240 214
f 2 214 213
f 2 213 212
f 2 212 199
f 2 199 198
f 2 198 197
f 2 197 196
f 2 196 166
f 2 166 139
f 2 139 138
f 2 138 100
f 2 100 62
f 2 62 39
f 2 39 23
f 2 23 9
f 2 9 3
f 3 9 22
f 3 22 38
f 3 38 61
f 3 61 41
f 3 41 40
f 3 40 24
f 3 24 12
f 3 12 11
f 3 11 10
f 3 10 4
f 5 10 11
f 5 11 12
f 5 12 13
f 5 13 14
f 5 14 15
f 5 15 6
f 6 15 16
f 6 16 17
f 6 17 7
f 7 18 8
f 7 17 19
f 7 19 20
f 7 20 21
f 7 21 18
f 9 23 22
f 12 24 25
f 12 25 13
f 13 25 14
f 14 26 15
f 14 25 26
f 15 26 27
f 15 27 16
f 16 28 29
f 16 29 30
f 16 30 31
f 16 31 32
f 16 32 33
f 16 33 34
f 16 34 35
f 16 35 17
f 16 27 28
f 17 35 19
f 19 35 36
f 19 36 20
f 20 36 37
f 22 23 39
f 22 39 63
f 22 63 102
f 22 102 131
f 22 131 129
f 22 129 95
f 22 95 60
f 22 60 38
f 24 40 25
f 25 40 41
f 25 41 42
f 25 42 43
f 25 43 26
f 26 43 27
f 27 43 44
f 27 44 45
f 27 45 28
f 28 45 46
f 28 46 47
f 28 47 29
f 29 47 30
f 30 47 48
f 30 48 31
f 31 48 49
f 31 49 50
f 31 50 51
f 31 51 52
f 31 52 53
f 31 53 54
f 31 54 55
f 31 55 32
f 32 56 57
f 32 57 33
f 32 55 56
f 33 57 35
f 33 35 34
f 35 57 58
f 35 58 36
f 36 58 37
f 37 58 57
f 37 57 59
f 38 60 98
f 38 98 135
f 38 135 163
f 38 163 195
f 38 195 200
f 38 200 167
f 38 167 141
f 38 141 106
f 38 106 76
f 38 76 105
f 38 105 73
f 38 73 70
f 38 70 72
f 38 72 69
f 38 69 68
f 38 68 103
f 38 103 65
f 38 65 64
f 38 64 61
f 39 62 63
f 41 64 42
f 41 61 64
f 42 64 65
f 42 65 66
f 42 66 43
f 43 66 44
f 44 67 45
f 44 66 68
f 44 68 69
f 44 69 67
f 45 70 46
f 45 67 71
f 45 71 72
f 45 72 70
f 46 70 73
f 46 73 74
f 46 74 47
f 47 74 73
f 47 73 75
f 47 75 48
f 48 76 77
f 48 77 78
f 48 78 49
f 48 75 76
f 49 78 79
f 49 79 50
f 50 80 51
f 50 79 80
f 51 80 81
f 51 81 52
f 52 82 83
f 52 83 53
f 52 81 84
f 52 84 85
f 52 85 86
f 52 86 87
f 52 87 88
f 52 88 82
f 53 83 89
f 53 89 54
f 54 90 91
f 54 91 55
f 54 89 90
f 55 91 56
f 56 92 57
f 56 91 93
f 56 93 92
f 57 92 94
f 57 94 59
f 60 95 96
f 60 96 97
f 60 97 98
f 62 99 63
f 62 100 101
f 62 101 99
f 63 99 102
f 65 103 66
f 66 103 104
f 66 104 68
f 67 69 71
f 68 104 103
f 69 72 71
f 73 105 75
f 75 105 76
f 76 106 77
f 77 106 107
f 77 107 78
f 78 107 79
f 79 107 106
f 79 106 108
f 79 108 80
f 80 108 109
f 80 109 110
f 80 110 81
f 81 111 84
f 81 110 111
f 82 112 113
f 82 113 83
f 82 88 114
f 82 114 112
f 83 113 89
f 84 111 85
f 85 115 116
f 85 116 117
f 85 117 86
f 85 111 115
f 86 117 118
f 86 118 87
f 87 119 120
f 87 120 121
f 87 121 88
f 87 118 122
f 87 122 119
f 88 121 114
f 89 123 124
f 89 124 125
f 89 125 90
f 89 113 126
f 89 126 127
f 89 127 123
f 90 125 128
f 90 128 91
f 91 128 93
f 95 129 130
f 95 130 96
f 96 130 131
f 96 131 102
f 96 102 132
f 96 132 97
f 97 132 133
f 97 133 134
f 97 134 135
f 97 135 98
f 99 136 102
f 99 101 137
f 99 137 136
f 100 138 101
f 101 138 139
f 101 139 140
f 101 140 137
f 102 136 132
f 106 141 109
f 106 109 142
f 106 142 108
f 108 142 109
f 109 111 110
f 109 141 143
f 109 143 116
f 109 116 111
f 111 116 115
f 112 144 126
f 112 126 113
f 112 114 145
f 112 145 144
f 114 121 146
f 114 146 145
f 116 143 147
f 116 147 148
f 116 148 149
f 116 149 118
f 116 118 117
f 118 149 150
f 118 150 151
f 118 151 122
f 119 122 120
f 120 152 146
f 120 146 121
f 120 122 153
f 120 153 154
f 120 154 152
f 122 151 155
f 122 155 153
f 129 131 130
f 132 137 156
f 132 156 157
f 132 157 158
f 132 158 159
f 132 159 133
f 132 136 137
f 133 159 160
f 133 160 134
f 134 160 161
f 134 161 162
f 134 162 163
f 134 163 135
f 137 164 165
f 137 165 157
f 137 157 156
f 137 140 164
f 139 166 140
f 140 166 164
f 141 167 168
f 141 168 147
f 141 147 143
f 145 146 169
f 146 152 169
f 147 168 170
f 147 170 148
f 148 170 171
f 148 171 172
f 148 172 173
f 148 173 174
f 148 174 175
f 148 175 149
f 149 175 176
f 149 176 177
f 149 177 150
f 150 178 155
f 150 155 151
f 150 177 178
f 152 179 180
f 152 180 169
f 152 154 179
f 153 181 154
f 153 155 182
f 153 182 181
f 154 181 183
f 154 183 184
f 154 184 185
f 154 185 179
f 155 186 182
f 155 178 186
f 157 165 158
f 158 187 188
f 158 188 189
f 158 189 159
f 158 165 187
f 159 190 191
f 159 191 192
f 159 192 193
f 159 193 160
f 159 189 194
f 159 194 190
f 160 193 161
f 161 193 192
f 161 192 195
f 161 195 162
f 162 195 163
f 164 166 196
f 164 196 197
f 164 197 165
f 165 197 198
f 165 198 199
f 165 199 187
f 167 200 168
f 168 200 171
f 168 171 170
f 171 200 201
f 171 201 202
f 171 202 172
f 172 202 203
f 172 203 173
f 173 203 174
f 174 203 204
f 174 204 205
f 174 205 176
f 174 176 175
f 176 205 206
f 176 206 207
f 176 207 208
f 176 208 177
f 177 209 178
f 177 208 210
f 177 210 209
f 178 211 186
f 178 209 211
f 187 212 213
f 187 213 188
f 187 199 212
f 188 213 214
f 188 214 215
f 188 215 216
f 188 216 217
f 188 217 189
f 189 217 194
f 190 194 218
f 190 218 219
f 190 219 220
f 190 220 191
f 191 220 221
f 191 221 192
f 192 221 222
f 192 222 223
f 192 223 195
f 194 224 225
f 194 225 218
f 194 217 216
f 194 216 224
f 195 223 200
f 200 223 222
f 200 222 226
f 200 226 227
f 200 227 201
f 201 227 202
f 202 227 228
f 202 228 229
f 202 229 204
f 202 204 203
f 204 229 230
f 204 230 205
f 205 230 206
f 206 231 232
f 206 232 218
f 206 218 233
f 206 233 207
f 206 230 231
f 207 233 234
f 207 234 208
f 208 234 210
f 209 235 236
f 209 236 211
f 209 210 237
f 209 237 235
f 210 238 237
f 210 234 239
f 210 239 238
f 214 240 215
f 215 240 241
f 215 241 216
f 216 241 242
f 216 242 243
f 216 243 224
f 218 244 233
f 218 232 245
f 218 245 226
f 218 226 219
f 218 225 244
f 219 226 220
f 220 226 246
f 220 246 222
f 220 222 221
f 222 246 226
f 224 243 225
f 225 243 244
f 226 245 232
f 226 232 231
f 226 231 228
f 226 228 227
f 228 231 230
f 228 230 229
f 233 244 247
f 233 247 248
f 233 248 234
f 234 249 239
f 234 248 249
f 240 250 241
f 241 250 251
f 241 251 242
f 242 252 253
f 242 253 243
f 242 251 252
f 243 253 247
f 243 247 244
f 247 254 255
f 247 255 248
f 247 253 254
f 248 255 256
f 248 256 257
f 248 257 258
f 248 258 249
f 250 259 251
f 251 259 252

