# https://github.com/mikedh/trimesh
v -0.03161670 0.02800957 0.01807830
v -0.03114681 0.02800957 0.01889963
v -0.03114681 0.02910020 0.01889963
v -0.03161052 0.02910020 0.01807830
v -0.02220646 0.02800957 0.01807830
v -0.03093659 0.02800957 0.01926267
v -0.03061200 0.02910020 0.01982341
v -0.03060891 0.03001928 0.01981802
v -0.03147759 0.02964990 0.01807830
v -0.02498564 0.03018384 0.01807830
v -0.00003490 0.02800957 0.02800801
v -0.03060581 0.02800957 0.01981622
v -0.02996589 0.02800957 0.02071664
v -0.02906629 0.02800957 0.02196751
v -0.02995971 0.02910020 0.02072382
v -0.03087167 0.03025475 0.01889963
v -0.02906011 0.02910020 0.02195852
v -0.02837691 0.02910020 0.02285894
v -0.02896737 0.03018968 0.02183272
v -0.03115608 0.03034227 0.01807830
v -0.02609545 0.03065768 0.01807830
v -0.00003490 0.02994838 0.03067331
v -0.00003490 0.02800957 0.03643524
v -0.02879734 0.02800957 0.02232156
v -0.02961965 0.03032330 0.02053152
v -0.02969385 0.03074987 0.01889963
v -0.02837691 0.02800957 0.02286792
v -0.02747731 0.02910020 0.02393548
v -0.02731347 0.03028304 0.02375396
v -0.02790701 0.03048174 0.02245995
v -0.02969385 0.03085608 0.01807830
v -0.02789465 0.03097687 0.01807830
v -0.00003490 0.03049487 0.03157372
v -0.00003490 0.03023344 0.03114238
v -0.00089740 0.02800957 0.03643704
v -0.00003490 0.02910020 0.03642266
v -0.02789465 0.03088467 0.02069866
v -0.02802140 0.02800957 0.02329207
v -0.02747731 0.02800957 0.02393548
v -0.02665190 0.02800957 0.02483589
v -0.02664572 0.02910020 0.02483410
v -0.02574612 0.02910020 0.02576866
v -0.02555755 0.03029238 0.02557456
v -0.02613255 0.03054330 0.02433087
v -0.02789465 0.03099000 0.01889963
v -0.00003490 0.03099000 0.03329727
v -0.00269660 0.02800957 0.03635796
v -0.00089740 0.02910020 0.03642266
v -0.00269660 0.02910020 0.03634538
v -0.00003490 0.02966624 0.03631842
v -0.02609545 0.03095469 0.02249949
v -0.02629948 0.02800957 0.02520433
v -0.02575230 0.02800957 0.02577405
v -0.02539988 0.02800957 0.02612810
v -0.02484652 0.02910020 0.02666907
v -0.02375835 0.03027925 0.02730349
v -0.02433335 0.03054097 0.02614428
v -0.02429625 0.03096170 0.02429852
v -0.02429625 0.03099000 0.02249949
v -0.00809729 0.03099000 0.03329727
v -0.00003490 0.03087942 0.03423542
v -0.00378787 0.02800957 0.03624113
v -0.00089740 0.03028304 0.03620340
v -0.00269660 0.03023636 0.03616385
v -0.00449889 0.03010098 0.03606501
v -0.00543559 0.03000820 0.03600210
v -0.00449889 0.02910020 0.03614768
v -0.00449889 0.02800957 0.03616385
v -0.00003490 0.03028304 0.03620340
v -0.02484652 0.02800957 0.02667446
v -0.02394693 0.02910020 0.02746345
v -0.02182313 0.03019317 0.02897852
v -0.02245378 0.03048145 0.02790198
v -0.02069477 0.03088730 0.02789658
v -0.02249396 0.03095178 0.02609935
v -0.01709637 0.03098067 0.02969741
v -0.01889557 0.03099000 0.02789658
v -0.02069477 0.03099000 0.02609935
v -0.01349797 0.03098680 0.03149644
v -0.00989958 0.03092318 0.03329727
v -0.00269660 0.03073120 0.03509630
v -0.00089740 0.03077788 0.03509630
v -0.01529717 0.03099000 0.02969741
v -0.00003490 0.03077788 0.03509630
v -0.00809729 0.03049487 0.03483031
v -0.00989958 0.03042805 0.03461284
v -0.00549432 0.02910020 0.03601109
v -0.01169878 0.03018443 0.03434865
v -0.01260456 0.03000499 0.03420128
v -0.00989958 0.02910020 0.03504957
v -0.00809729 0.02910020 0.03549708
v -0.00639392 0.02910020 0.03585114
v -0.00553451 0.02800957 0.03602008
v -0.02449101 0.02800957 0.02698718
v -0.02394693 0.02800957 0.02746525
v -0.02285875 0.02800957 0.02836566
v -0.02284948 0.02910020 0.02836386
v -0.02194988 0.02910020 0.02907557
v -0.01979208 0.02987077 0.03059423
v -0.01859261 0.03031747 0.03095008
v -0.02069477 0.03039246 0.02938110
v -0.01907178 0.03058648 0.02987534
v -0.01529717 0.03083595 0.03149644
v -0.01169878 0.03067955 0.03329727
v -0.01529717 0.03034081 0.03272934
v -0.01529717 0.02910020 0.03306543
v -0.01352580 0.02910020 0.03382745
v -0.01262620 0.02910020 0.03420847
v -0.01169878 0.02910020 0.03451400
v -0.01636989 0.03012869 0.03249211
v -0.00989958 0.02800957 0.03506395
v -0.00809729 0.02800957 0.03551865
v -0.00742645 0.02800957 0.03565704
v -0.00643411 0.02800957 0.03586012
v -0.02195915 0.02800957 0.02908096
v -0.02052165 0.02920291 0.03009819
v -0.01980444 0.02867130 0.03060321
v -0.01907178 0.02920291 0.03103096
v -0.01735296 0.02910020 0.03203561
v -0.01701908 0.03046569 0.03152879
v -0.01529717 0.02800957 0.03306722
v -0.01352580 0.02800957 0.03383644
v -0.01645336 0.02910020 0.03253524
v -0.01317028 0.02800957 0.03398561
v -0.01262620 0.02800957 0.03420847
v -0.01169878 0.02800957 0.03451759
v -0.02142743 0.02800957 0.02946197
v -0.02052165 0.02800957 0.03010359
v -0.02013522 0.02800957 0.03037317
v -0.01980444 0.02800957 0.03060321
v -0.01907178 0.02800957 0.03103815
v -0.01734987 0.02800957 0.03204460
v -0.01699435 0.02800957 0.03224229
v -0.01644717 0.02800957 0.03252985
f 1 2 3
f 1 3 4
f 1 4 9
f 1 9 20
f 1 20 31
f 1 31 32
f 1 32 21
f 1 21 10
f 1 10 5
f 1 5 11
f 1 11 23
f 1 23 35
f 1 35 47
f 1 47 62
f 1 62 68
f 1 68 93
f 1 93 114
f 1 114 113
f 1 113 112
f 1 112 111
f 1 111 126
f 1 126 125
f 1 125 124
f 1 124 122
f 1 122 121
f 1 121 134
f 1 134 133
f 1 133 132
f 1 132 131
f 1 131 130
f 1 130 129
f 1 129 128
f 1 128 127
f 1 127 115
f 1 115 96
f 1 96 95
f 1 95 94
f 1 94 70
f 1 70 54
f 1 54 53
f 1 53 52
f 1 52 40
f 1 40 39
f 1 39 38
f 1 38 27
f 1 27 24
f 1 24 14
f 1 14 13
f 1 13 12
f 1 12 6
f 1 6 2
f 2 6 7
f 2 7 3
f 3 7 8
f 3 8 4
f 4 8 9
f 5 10 11
f 6 12 7
f 7 12 13
f 7 13 14
f 7 14 15
f 7 15 8
f 8 16 9
f 8 15 17
f 8 17 18
f 8 18 19
f 8 19 16
f 9 16 20
f 10 21 11
f 11 22 34
f 11 34 33
f 11 33 46
f 11 46 61
f 11 61 84
f 11 84 69
f 11 69 50
f 11 50 36
f 11 36 23
f 11 21 22
f 14 24 18
f 14 18 17
f 14 17 15
f 16 19 25
f 16 25 26
f 16 26 20
f 18 24 27
f 18 27 28
f 18 28 19
f 19 28 29
f 19 29 30
f 19 30 25
f 20 26 31
f 21 32 33
f 21 33 34
f 21 34 22
f 23 36 35
f 25 30 26
f 26 30 37
f 26 37 31
f 27 38 28
f 28 38 39
f 28 39 40
f 28 40 41
f 28 41 29
f 29 41 42
f 29 42 43
f 29 43 44
f 29 44 30
f 30 44 37
f 31 37 45
f 31 45 32
f 32 45 46
f 32 46 33
f 35 36 48
f 35 48 49
f 35 49 47
f 36 50 48
f 37 44 51
f 37 51 45
f 40 52 41
f 41 52 53
f 41 53 42
f 42 54 55
f 42 55 43
f 42 53 54
f 43 55 56
f 43 56 57
f 43 57 44
f 44 57 58
f 44 58 51
f 45 51 58
f 45 58 59
f 45 59 78
f 45 78 77
f 45 77 83
f 45 83 60
f 45 60 46
f 46 60 61
f 47 49 62
f 48 63 64
f 48 64 49
f 48 50 63
f 49 64 65
f 49 65 66
f 49 66 67
f 49 67 68
f 49 68 62
f 50 69 63
f 54 70 55
f 55 70 71
f 55 71 56
f 56 71 72
f 56 72 73
f 56 73 57
f 57 73 74
f 57 74 75
f 57 75 58
f 58 75 76
f 58 76 77
f 58 77 78
f 58 78 59
f 60 79 80
f 60 80 81
f 60 81 82
f 60 82 61
f 60 83 79
f 61 82 84
f 63 82 81
f 63 81 64
f 63 69 84
f 63 84 82
f 64 81 85
f 64 85 65
f 65 85 86
f 65 86 66
f 66 87 67
f 66 86 88
f 66 88 89
f 66 89 90
f 66 90 91
f 66 91 92
f 66 92 87
f 67 87 68
f 68 87 93
f 70 94 71
f 71 94 95
f 71 95 96
f 71 96 97
f 71 97 72
f 72 98 99
f 72 99 100
f 72 100 101
f 72 101 73
f 72 97 98
f 73 101 74
f 74 101 102
f 74 102 103
f 74 103 76
f 74 76 75
f 76 103 79
f 76 79 77
f 77 79 83
f 79 103 80
f 80 86 85
f 80 85 81
f 80 103 104
f 80 104 86
f 86 104 105
f 86 105 88
f 87 92 114
f 87 114 93
f 88 105 89
f 89 106 107
f 89 107 108
f 89 108 109
f 89 109 90
f 89 105 110
f 89 110 106
f 90 111 112
f 90 112 91
f 90 109 111
f 91 112 92
f 92 112 113
f 92 113 114
f 96 115 97
f 97 115 98
f 98 115 116
f 98 116 99
f 99 116 117
f 99 117 118
f 99 118 119
f 99 119 110
f 99 110 100
f 100 110 105
f 100 105 120
f 100 120 102
f 100 102 101
f 102 120 103
f 103 120 105
f 103 105 104
f 106 121 122
f 106 122 107
f 106 110 123
f 106 123 121
f 107 122 108
f 108 122 124
f 108 124 125
f 108 125 126
f 108 126 109
f 109 126 111
f 110 119 123
f 115 127 116
f 116 128 117
f 116 127 128
f 117 128 129
f 117 129 130
f 117 130 131
f 117 131 118
f 118 131 132
f 118 132 119
f 119 132 133
f 119 133 123
f 121 123 134
f 123 133 134

