# https://github.com/mikedh/trimesh
v -0.01342721 0.01262540 -0.01549480
v -0.01342721 0.01280640 -0.01549480
v -0.01341370 0.00910528 -0.01549480
v -0.01529201 -0.00152375 -0.01547246
v -0.01529201 -0.00149878 -0.01547246
v -0.02789293 0.01972807 -0.01433659
v -0.01576497 0.01972807 -0.01438445
v 0.01342997 0.01280640 -0.01549480
v -0.01340694 0.00750125 -0.01549480
v -0.01702844 -0.00152375 -0.01486624
v -0.02969016 0.01972807 -0.01377503
v -0.01338667 0.00727864 -0.01549480
v -0.01319074 0.00553107 -0.01549480
v -0.01079217 -0.00152375 -0.01549480
v 0.01601096 0.01972807 -0.01438445
v 0.02789568 0.01972807 -0.01433659
v 0.01529477 -0.00149878 -0.01547246
v 0.01529477 -0.00152375 -0.01547246
v 0.01342321 0.00929876 -0.01549480
v -0.01705547 -0.00152375 -0.01485667
v -0.03064283 0.01972807 -0.01320390
v -0.01794057 -0.00152375 -0.01438764
v 0.01078141 -0.00152375 -0.01549480
v 0.02919293 0.01972807 -0.01422491
v 0.01340970 0.00751373 -0.01549480
v 0.01341645 0.00769265 -0.01549480
v 0.01532179 -0.00152375 -0.01546608
v 0.01317998 0.00555395 -0.01549480
v 0.01320024 0.00561428 -0.01549480
v 0.01320700 0.00564341 -0.01549480
v -0.03085229 0.01972807 -0.01305075
v -0.01887973 -0.00152375 -0.01375908
v -0.02015671 -0.00152375 -0.01286569
v 0.02969967 0.01972807 -0.01405581
v 0.01705822 -0.00152375 -0.01485348
v -0.03160902 0.01972807 -0.01167239
v -0.02104181 -0.00152375 -0.01218289
v -0.02207556 -0.00152375 -0.01128313
v -0.02298769 -0.00152375 -0.01037379
v -0.02377821 -0.00152375 -0.00948678
v -0.02468358 -0.00152375 -0.00827752
v -0.02530518 -0.00152375 -0.00737776
v 0.01795684 -0.00152375 -0.01437488
v 0.03122665 0.01972807 -0.01311456
v -0.03221035 0.01972807 -0.01036103
v -0.02586597 -0.00152375 -0.00631527
v 0.01891626 -0.00152375 -0.01373036
v 0.03140232 0.01972807 -0.01293270
v 0.02301072 -0.00152375 -0.01035783
v 0.02209859 -0.00152375 -0.01127036
v 0.02105808 -0.00152375 -0.01217013
v 0.02015946 -0.00152375 -0.01286569
v -0.03229143 0.01972807 -0.01016001
v -0.02665649 -0.00152375 -0.00449978
v 0.03211175 0.01972807 -0.01169791
v 0.02530793 -0.00152375 -0.00737138
v 0.02469309 -0.00152375 -0.00827114
v 0.02379447 -0.00152375 -0.00947083
v -0.03256169 0.01972807 -0.00947402
v -0.02698756 -0.00152375 -0.00357449
v 0.03274687 0.01972807 -0.01026211
v 0.03237526 0.01924124 -0.01074390
v 0.02588899 -0.00152375 -0.00627379
v -0.03304140 0.01972807 -0.00809566
v -0.02716998 -0.00152375 -0.00268749
v -0.03391299 0.01972807 -0.00449978
v -0.03351436 0.01972807 -0.00621636
v 0.03284821 0.01972807 -0.00995262
v 0.02699031 -0.00152375 -0.00354577
v 0.02665924 -0.00152375 -0.00448702
v -0.02741997 -0.00152375 -0.00090072
v -0.03425757 0.01972807 -0.00269706
v -0.03417650 0.01972807 -0.00318204
v 0.03289551 0.01972807 -0.00980266
v 0.02717949 -0.00152375 -0.00263324
v 0.03341576 0.01972807 -0.00810523
v 0.03351711 0.01972807 -0.00772554
v 0.03384818 0.01972807 -0.00644289
v -0.02741997 -0.00152375 0.00089244
v -0.03444000 0.01972807 0.00089563
v -0.03439270 0.01972807 -0.00094219
v -0.03432514 0.01972807 -0.00201745
v 0.02742272 -0.00152375 -0.00090072
v 0.03405087 0.01972807 -0.00537721
v 0.03421303 0.01972807 -0.00449978
v -0.02717674 -0.00152375 0.00264411
v -0.03419001 0.01972807 0.00449469
v -0.03428460 0.01972807 0.00354387
v -0.03439270 0.01972807 0.00243352
v 0.02742272 -0.00152375 0.00089244
v 0.03440221 0.01972807 -0.00297465
v 0.03443600 0.01972807 -0.00262686
v 0.03455762 0.01972807 -0.00089753
v 0.03458464 0.01972807 0.00089563
v -0.02698756 -0.00152375 0.00356940
v -0.03392650 0.01972807 0.00617298
v 0.02717949 -0.00152375 0.00265368
v 0.03455086 0.01972807 0.00154333
v 0.03449005 0.01972807 0.00269835
v 0.03445627 0.01972807 0.00307804
v 0.03420628 0.01918091 0.00363640
v 0.03434141 0.01972807 0.00407672
v -0.02666324 -0.00152375 0.00447874
v -0.03252791 0.01972807 0.01124932
v -0.03299410 0.01972807 0.00989329
v -0.03308870 0.01972807 0.00957741
v -0.03351436 0.01972807 0.00800761
v -0.03364273 0.01972807 0.00747477
v 0.02698355 -0.00152375 0.00355345
v 0.03430087 0.01972807 0.00434154
v 0.03426033 0.01972807 0.00460317
v 0.03400358 0.01972807 0.00608683
v 0.03396304 0.01972807 0.00629422
v -0.02665649 -0.00152375 0.00449469
v -0.03070364 0.01534664 0.01103236
v -0.03208197 0.01972807 0.01202146
v -0.02587948 -0.00152375 0.00629422
v -0.02530518 -0.00152375 0.00737267
v 0.02665924 -0.00152375 0.00449469
v 0.03394953 0.01972807 0.00635485
v 0.03356440 0.01972807 0.00804271
v 0.03303064 0.01972807 0.00989329
v 0.03290902 0.01972807 0.01026660
v 0.03244958 0.01908729 0.01090154
v -0.02896722 0.01159350 0.01112808
v -0.03198062 0.01972807 0.01218738
v -0.02469034 -0.00152375 0.00827243
v 0.02586873 -0.00152375 0.00631018
v 0.03255768 0.01972807 0.01129080
v -0.02720376 0.00798391 0.01113765
v -0.03133200 0.01972807 0.01320839
v -0.03154145 0.01972807 0.01288932
v -0.02380523 -0.00152375 0.00945298
v 0.02530118 -0.00152375 0.00738224
v 0.03206446 0.01972807 0.01213632
v -0.02379172 -0.00152375 0.00946893
v -0.02744024 0.00943399 0.01172154
v -0.02969016 0.01972807 0.01415282
v -0.02702134 0.01012262 0.01261173
v -0.02519708 0.00657961 0.01260216
v -0.01796084 -0.00152375 0.01436022
v 0.02897673 0.01159350 0.01112169
v 0.02469309 -0.00152375 0.00826924
v 0.03134151 0.01972807 0.01321796
v -0.02300796 -0.00152375 0.01035594
v -0.02910235 0.01972807 0.01429959
v -0.01704195 -0.00152375 0.01486434
v -0.01529201 -0.00152375 0.01575772
v -0.01438664 -0.00152375 0.01617889
v -0.01254211 -0.00052097 0.01710099
v -0.01298128 0.00075226 0.01710099
v -0.02209583 -0.00152375 0.01126847
v -0.02108235 -0.00152375 0.01215547
v -0.02016347 -0.00152375 0.01287975
v -0.01889324 -0.00152375 0.01375080
v 0.02721327 0.00798808 0.01112808
v 0.02379447 -0.00152375 0.00946574
v 0.02969967 0.01972807 0.01415601
v 0.01793657 -0.00152375 0.01437298
v 0.02519983 0.00659418 0.01259578
v 0.02702409 0.01013510 0.01260854
v 0.02744299 0.00944023 0.01171516
v -0.01299480 0.00204631 0.01710099
v -0.01281913 0.01280640 0.01710099
v -0.02789293 0.01972807 0.01433469
v -0.01348127 -0.00152375 0.01653625
v -0.01187997 -0.00152375 0.01710099
v 0.02299720 -0.00152375 0.01036551
v 0.02790244 0.01972807 0.01433469
v 0.01282188 0.01280432 0.01710099
v 0.01297052 0.00183618 0.01710099
v 0.01259891 0.00031329 0.01710099
v 0.01188272 -0.00152167 0.01710099
v 0.01347726 -0.00152375 0.01653625
v 0.01437588 -0.00152375 0.01618527
v 0.01528125 -0.00152375 0.01575772
v 0.01705146 -0.00152375 0.01486434
v 0.01888248 -0.00152375 0.01375399
v 0.02017298 -0.00152375 0.01287337
v 0.02107159 -0.00152375 0.01216823
v 0.02208507 -0.00152375 0.01128123
v 0.01536233 0.01972807 0.01458037
v -0.01540012 0.01972807 0.01458037
v 0.01144355 -0.00152375 0.01710099
f 1 2 8
f 1 8 19
f 1 19 26
f 1 26 25
f 1 25 30
f 1 30 29
f 1 29 28
f 1 28 23
f 1 23 14
f 1 14 13
f 1 13 12
f 1 12 9
f 1 9 3
f 1 3 4
f 1 4 5
f 1 5 2
f 2 5 6
f 2 6 7
f 2 7 15
f 2 15 8
f 3 9 4
f 4 10 11
f 4 11 6
f 4 6 5
f 4 9 12
f 4 12 13
f 4 13 14
f 4 14 23
f 4 23 18
f 4 18 27
f 4 27 35
f 4 35 43
f 4 43 47
f 4 47 52
f 4 52 51
f 4 51 50
f 4 50 49
f 4 49 58
f 4 58 57
f 4 57 56
f 4 56 63
f 4 63 70
f 4 70 69
f 4 69 75
f 4 75 83
f 4 83 90
f 4 90 97
f 4 97 109
f 4 109 119
f 4 119 128
f 4 128 134
f 4 134 143
f 4 143 157
f 4 157 168
f 4 168 181
f 4 181 180
f 4 180 179
f 4 179 178
f 4 178 159
f 4 159 177
f 4 177 176
f 4 176 175
f 4 175 174
f 4 174 184
f 4 184 167
f 4 167 166
f 4 166 149
f 4 149 148
f 4 148 147
f 4 147 141
f 4 141 155
f 4 155 154
f 4 154 153
f 4 153 152
f 4 152 145
f 4 145 136
f 4 136 133
f 4 133 127
f 4 127 118
f 4 118 117
f 4 117 114
f 4 114 103
f 4 103 95
f 4 95 86
f 4 86 79
f 4 79 71
f 4 71 65
f 4 65 60
f 4 60 54
f 4 54 46
f 4 46 42
f 4 42 41
f 4 41 40
f 4 40 39
f 4 39 38
f 4 38 37
f 4 37 33
f 4 33 32
f 4 32 22
f 4 22 20
f 4 20 10
f 6 11 21
f 6 21 31
f 6 31 36
f 6 36 45
f 6 45 53
f 6 53 59
f 6 59 64
f 6 64 67
f 6 67 66
f 6 66 73
f 6 73 72
f 6 72 82
f 6 82 81
f 6 81 80
f 6 80 89
f 6 89 88
f 6 88 87
f 6 87 96
f 6 96 108
f 6 108 107
f 6 107 106
f 6 106 105
f 6 105 104
f 6 104 116
f 6 116 126
f 6 126 132
f 6 132 131
f 6 131 138
f 6 138 146
f 6 146 165
f 6 165 183
f 6 183 182
f 6 182 169
f 6 169 158
f 6 158 144
f 6 144 135
f 6 135 129
f 6 129 123
f 6 123 122
f 6 122 121
f 6 121 120
f 6 120 113
f 6 113 112
f 6 112 111
f 6 111 110
f 6 110 102
f 6 102 100
f 6 100 99
f 6 99 98
f 6 98 94
f 6 94 93
f 6 93 92
f 6 92 91
f 6 91 85
f 6 85 84
f 6 84 78
f 6 78 77
f 6 77 76
f 6 76 74
f 6 74 68
f 6 68 61
f 6 61 55
f 6 55 48
f 6 48 44
f 6 44 34
f 6 34 24
f 6 24 16
f 6 16 15
f 6 15 7
f 8 15 16
f 8 16 17
f 8 17 18
f 8 18 19
f 10 20 11
f 11 20 22
f 11 22 21
f 16 24 17
f 17 24 18
f 18 25 26
f 18 26 19
f 18 24 27
f 18 23 28
f 18 28 29
f 18 29 30
f 18 30 25
f 21 22 32
f 21 32 33
f 21 33 31
f 24 34 27
f 27 34 35
f 31 33 37
f 31 37 38
f 31 38 39
f 31 39 40
f 31 40 41
f 31 41 42
f 31 42 36
f 34 43 35
f 34 44 43
f 36 42 46
f 36 46 45
f 43 44 47
f 44 48 49
f 44 49 50
f 44 50 51
f 44 51 52
f 44 52 47
f 45 46 54
f 45 54 53
f 48 55 56
f 48 56 57
f 48 57 58
f 48 58 49
f 53 54 59
f 54 60 59
f 55 61 62
f 55 62 63
f 55 63 56
f 59 60 64
f 60 65 66
f 60 66 67
f 60 67 64
f 61 68 69
f 61 69 70
f 61 70 62
f 62 70 63
f 65 71 72
f 65 72 73
f 65 73 66
f 68 74 69
f 69 74 76
f 69 76 77
f 69 77 78
f 69 78 75
f 71 79 80
f 71 80 81
f 71 81 82
f 71 82 72
f 75 78 84
f 75 84 85
f 75 85 83
f 79 86 87
f 79 87 88
f 79 88 89
f 79 89 80
f 83 85 91
f 83 91 92
f 83 92 93
f 83 93 94
f 83 94 90
f 86 95 96
f 86 96 87
f 90 94 98
f 90 98 99
f 90 99 100
f 90 100 101
f 90 101 102
f 90 102 97
f 95 103 104
f 95 104 105
f 95 105 106
f 95 106 107
f 95 107 108
f 95 108 96
f 97 102 110
f 97 110 111
f 97 111 112
f 97 112 113
f 97 113 109
f 100 102 101
f 103 114 104
f 104 115 116
f 104 114 117
f 104 117 118
f 104 118 115
f 109 113 120
f 109 120 121
f 109 121 122
f 109 122 123
f 109 123 124
f 109 124 119
f 115 118 125
f 115 125 116
f 116 125 126
f 118 127 125
f 119 124 129
f 119 129 128
f 123 129 124
f 125 127 130
f 125 130 131
f 125 131 132
f 125 132 126
f 127 133 130
f 128 129 134
f 129 135 134
f 130 133 136
f 130 136 137
f 130 137 131
f 131 137 139
f 131 139 140
f 131 140 141
f 131 141 138
f 134 142 143
f 134 135 142
f 135 144 142
f 136 145 139
f 136 139 137
f 138 141 147
f 138 147 148
f 138 148 149
f 138 149 150
f 138 150 151
f 138 151 146
f 139 145 140
f 140 145 152
f 140 152 153
f 140 153 154
f 140 154 155
f 140 155 141
f 142 156 143
f 142 144 156
f 143 156 157
f 144 158 159
f 144 159 160
f 144 160 161
f 144 161 162
f 144 162 156
f 146 151 163
f 146 163 164
f 146 164 165
f 149 166 150
f 150 166 167
f 150 167 184
f 150 184 173
f 150 173 172
f 150 172 171
f 150 171 170
f 150 170 164
f 150 164 163
f 150 163 151
f 156 162 161
f 156 161 157
f 157 161 168
f 158 169 170
f 158 170 171
f 158 171 172
f 158 172 173
f 158 173 174
f 158 174 175
f 158 175 176
f 158 176 177
f 158 177 159
f 159 178 160
f 160 178 179
f 160 179 180
f 160 180 181
f 160 181 168
f 160 168 161
f 164 170 182
f 164 182 183
f 164 183 165
f 169 182 170
f 173 184 174

