# https://github.com/mikedh/trimesh
v -0.00003490 0.02910007 -0.03643147
v -0.00003490 0.02972018 -0.03631939
v -0.00003490 0.02816465 -0.03643002
v -0.00089769 0.02816465 -0.03643002
v -0.00089769 0.02910007 -0.03643002
v -0.00089769 0.03028996 -0.03621605
v -0.00003490 0.03028996 -0.03621605
v -0.00003490 0.02816465 -0.02896576
v -0.00269710 0.02816465 -0.03631648
v -0.00269710 0.02910007 -0.03631503
v -0.00449651 0.03011543 -0.03607776
v -0.00269710 0.03022219 -0.03615637
v -0.00089769 0.03078505 -0.03510107
v -0.00003490 0.03054801 -0.03563526
v -0.00269710 0.03071729 -0.03510107
v -0.01988673 0.02816465 -0.02156118
v -0.00003490 0.02855685 -0.02933693
v -0.00449651 0.02816465 -0.03615928
v -0.00449651 0.02910007 -0.03615637
v -0.00548949 0.03003023 -0.03601954
v -0.00989669 0.03042466 -0.03461927
v -0.00809728 0.03049491 -0.03481577
v -0.00449651 0.03061052 -0.03510107
v -0.00003490 0.03099000 -0.03330196
v -0.00003490 0.03078477 -0.03510107
v -0.00809728 0.03099000 -0.03330196
v -0.00989669 0.03091975 -0.03330196
v -0.01988673 0.02932687 -0.02272419
v -0.01988673 0.02816465 -0.03054507
v -0.00003490 0.02905084 -0.02980563
v -0.00003490 0.02995058 -0.03067462
v -0.00555167 0.02816465 -0.03603264
v -0.00554390 0.02910007 -0.03603119
v -0.00809728 0.02910007 -0.03547078
v -0.00989669 0.02910007 -0.03505012
v -0.01136381 0.03023630 -0.03439947
v -0.01349551 0.03049491 -0.03311419
v -0.00003490 0.03049491 -0.03157417
v -0.01988673 0.03099000 -0.02691192
v -0.01988673 0.03092500 -0.02610261
v -0.01988673 0.03069433 -0.02492941
v -0.01349551 0.03099000 -0.03150139
v -0.01529493 0.03081409 -0.03150139
v -0.01988673 0.02992043 -0.02335883
v -0.01988673 0.02840002 -0.03054216
v -0.01980123 0.02816465 -0.03060475
v -0.01988673 0.03000618 -0.02349274
v -0.00809728 0.02816465 -0.03549262
v -0.00896201 0.02816465 -0.03528884
v -0.00989669 0.02816465 -0.03505594
v -0.01165141 0.02910007 -0.03449845
v -0.01255111 0.02910007 -0.03418113
v -0.01349551 0.02910007 -0.03383470
v -0.01633260 0.03009552 -0.03247082
v -0.01529493 0.03031927 -0.03272991
v -0.01988673 0.03049684 -0.02436755
v -0.01889569 0.03099000 -0.02790318
v -0.01988673 0.03093579 -0.02790318
v -0.01709628 0.03098890 -0.02970083
v -0.01699912 0.03045259 -0.03154070
v -0.01858089 0.03032840 -0.03096719
v -0.01906669 0.03059310 -0.02987259
v -0.01988673 0.03074300 -0.02888279
v -0.01988673 0.02944415 -0.03051742
v -0.01978180 0.02951883 -0.03058728
v -0.01979928 0.02831871 -0.03060330
v -0.01906669 0.02899137 -0.03104288
v -0.01898314 0.02816465 -0.03110111
v -0.01073810 0.02816465 -0.03479102
v -0.01165335 0.02816465 -0.03449991
v -0.01255306 0.02816465 -0.03418404
v -0.01300583 0.02816465 -0.03401811
v -0.01349551 0.02816465 -0.03383761
v -0.01436024 0.02816465 -0.03346644
v -0.01529493 0.02910007 -0.03306033
v -0.01640255 0.02910007 -0.03250575
v -0.01730226 0.02910007 -0.03205161
v -0.01988673 0.02961840 -0.03045046
v -0.01988673 0.03049435 -0.02962223
v -0.01730420 0.02816465 -0.03205161
v -0.01529493 0.02816465 -0.03306033
v -0.01582736 0.02816465 -0.03279541
v -0.01640450 0.02816465 -0.03250721
v -0.01683589 0.02816465 -0.03228887
f 1 2 7
f 1 7 14
f 1 14 25
f 1 25 24
f 1 24 38
f 1 38 31
f 1 31 30
f 1 30 17
f 1 17 8
f 1 8 3
f 1 3 4
f 1 4 5
f 1 5 6
f 1 6 2
f 2 6 7
f 3 8 16
f 3 16 29
f 3 29 46
f 3 46 68
f 3 68 80
f 3 80 84
f 3 84 83
f 3 83 82
f 3 82 81
f 3 81 74
f 3 74 73
f 3 73 72
f 3 72 71
f 3 71 70
f 3 70 69
f 3 69 50
f 3 50 49
f 3 49 48
f 3 48 32
f 3 32 18
f 3 18 9
f 3 9 4
f 4 9 5
f 5 9 10
f 5 10 11
f 5 11 12
f 5 12 6
f 6 13 14
f 6 14 7
f 6 12 15
f 6 15 13
f 8 17 16
f 9 18 10
f 10 18 19
f 10 19 20
f 10 20 11
f 11 20 21
f 11 21 22
f 11 22 12
f 12 22 23
f 12 23 15
f 13 24 25
f 13 25 14
f 13 15 26
f 13 26 24
f 15 23 27
f 15 27 26
f 16 28 44
f 16 44 47
f 16 47 56
f 16 56 41
f 16 41 40
f 16 40 39
f 16 39 58
f 16 58 63
f 16 63 79
f 16 79 78
f 16 78 64
f 16 64 45
f 16 45 29
f 16 17 30
f 16 30 31
f 16 31 28
f 18 32 33
f 18 33 19
f 19 33 20
f 20 33 34
f 20 34 35
f 20 35 36
f 20 36 21
f 21 36 37
f 21 37 27
f 21 27 22
f 22 27 23
f 24 26 42
f 24 42 57
f 24 57 39
f 24 39 40
f 24 40 41
f 24 41 38
f 26 27 42
f 27 37 43
f 27 43 42
f 28 31 44
f 29 45 46
f 31 38 47
f 31 47 44
f 32 48 33
f 33 48 34
f 34 48 35
f 35 48 49
f 35 49 50
f 35 50 51
f 35 51 36
f 36 51 52
f 36 52 53
f 36 53 54
f 36 54 55
f 36 55 37
f 37 55 43
f 38 41 56
f 38 56 47
f 39 57 58
f 42 43 59
f 42 59 57
f 43 55 60
f 43 60 61
f 43 61 62
f 43 62 63
f 43 63 59
f 45 64 65
f 45 65 66
f 45 66 46
f 46 66 67
f 46 67 68
f 50 69 51
f 51 69 70
f 51 70 71
f 51 71 52
f 52 71 72
f 52 72 53
f 53 72 73
f 53 73 74
f 53 74 75
f 53 75 54
f 54 75 76
f 54 76 77
f 54 77 65
f 54 65 61
f 54 61 55
f 55 61 60
f 57 59 58
f 58 59 63
f 61 65 78
f 61 78 79
f 61 79 62
f 62 79 63
f 64 78 65
f 65 77 67
f 65 67 66
f 67 77 68
f 68 77 80
f 74 81 75
f 75 81 82
f 75 82 83
f 75 83 76
f 76 83 77
f 77 83 84
f 77 84 80

