# https://github.com/mikedh/trimesh
v 0.01601915 0.01972807 -0.01438692
v 0.01410875 0.01280848 -0.01438692
v 0.01321266 0.00564341 -0.01549588
v 0.01426432 0.01972807 -0.02733084
v -0.01576699 0.01972807 -0.01438692
v 0.01077954 -0.00152375 -0.01549588
v 0.01318466 0.00555395 -0.01549588
v 0.01319711 0.00559348 -0.01549588
v -0.01410238 0.01280848 -0.01438692
v 0.01090400 -0.00152375 -0.01644486
v 0.01413675 0.01972807 -0.02789987
v -0.01430151 0.01972807 -0.02789987
v -0.01319385 0.00553107 -0.01549588
v 0.01090089 -0.00152375 -0.01585766
v -0.01079496 -0.00152375 -0.01549588
v 0.01090400 -0.00152375 -0.01586857
v 0.00991457 -0.00152375 -0.01730112
v 0.01318466 0.01972807 -0.02943241
v 0.01330289 0.01972807 -0.02925970
v -0.01340543 0.01972807 -0.02967420
v -0.01258091 0.00492773 -0.01956086
v -0.01090075 -0.00152375 -0.01584675
v -0.01090075 -0.00152375 -0.01645213
v 0.00989901 -0.00152375 -0.01731385
v 0.01242859 0.01972807 -0.03003416
v -0.01337120 0.01972807 -0.02971056
v -0.00989576 -0.00152375 -0.01731930
v -0.01254668 0.01972807 -0.03046502
v 0.01127114 0.01972807 -0.03087406
v 0.00887536 -0.00152375 -0.01796286
v -0.00988020 -0.00152375 -0.01733021
v -0.01144213 0.01972807 -0.03100495
v -0.00884722 -0.00152375 -0.01797013
v 0.00885980 -0.00152375 -0.01797195
v 0.01034083 0.01972807 -0.03131946
v -0.00990821 0.01972807 -0.03151398
v -0.00883477 -0.00152375 -0.01797377
v 0.00809751 0.01972807 -0.03208846
v 0.00825619 0.01972807 -0.03204120
v 0.00992390 0.01972807 -0.03151398
v 0.00797305 -0.00152375 -0.01817193
v -0.00941349 0.01972807 -0.03164124
v -0.00809426 0.01972807 -0.03197938
v -0.00806314 0.01972807 -0.03198666
v -0.00794802 -0.00152375 -0.01817375
v 0.00798239 0.01972807 -0.03211209
v 0.00632401 -0.00152375 -0.01849189
v 0.00629912 0.01972807 -0.03243933
v -0.00664745 0.01972807 -0.03227571
v -0.00629586 0.01972807 -0.03234661
v -0.00629586 -0.00152375 -0.01849189
v 0.00629912 -0.00152375 -0.01849553
v 0.00456606 0.01972807 -0.03269021
v -0.00449436 0.01972807 -0.03264658
v -0.00407432 0.01972807 -0.03270657
v -0.00449436 -0.00152375 -0.01873368
v 0.00452872 -0.00152375 -0.01873368
v 0.00417091 0.01972807 -0.03273748
v -0.00306622 0.01972807 -0.03281565
v -0.00446636 -0.00152375 -0.01873732
v 0.00269922 -0.00152375 -0.01888639
v 0.00310370 0.01972807 -0.03284292
v -0.00275819 0.01972807 -0.03284110
v -0.00269285 -0.00152375 -0.01888639
v 0.00090082 -0.00152375 -0.01897547
v 0.00269922 0.01972807 -0.03287564
v -0.00089446 0.01972807 -0.03294291
v -0.00089446 -0.00152375 -0.01897547
v 0.00089771 0.01972807 -0.03295927
f 1 2 3
f 1 3 4
f 1 4 11
f 1 11 19
f 1 19 18
f 1 18 25
f 1 25 29
f 1 29 35
f 1 35 40
f 1 40 39
f 1 39 38
f 1 38 46
f 1 46 48
f 1 48 53
f 1 53 58
f 1 58 62
f 1 62 66
f 1 66 69
f 1 69 67
f 1 67 63
f 1 63 59
f 1 59 55
f 1 55 54
f 1 54 50
f 1 50 49
f 1 49 44
f 1 44 43
f 1 43 42
f 1 42 36
f 1 36 32
f 1 32 28
f 1 28 26
f 1 26 20
f 1 20 12
f 1 12 5
f 1 5 9
f 1 9 2
f 2 6 7
f 2 7 8
f 2 8 3
f 2 9 15
f 2 15 6
f 3 8 10
f 3 10 11
f 3 11 4
f 5 12 13
f 5 13 9
f 6 14 7
f 6 15 22
f 6 22 23
f 6 23 27
f 6 27 31
f 6 31 33
f 6 33 37
f 6 37 45
f 6 45 51
f 6 51 56
f 6 56 60
f 6 60 64
f 6 64 68
f 6 68 65
f 6 65 61
f 6 61 57
f 6 57 52
f 6 52 47
f 6 47 41
f 6 41 34
f 6 34 30
f 6 30 24
f 6 24 17
f 6 17 10
f 6 10 16
f 6 16 14
f 7 14 16
f 7 16 10
f 7 10 8
f 9 13 15
f 10 17 18
f 10 18 19
f 10 19 11
f 12 20 21
f 12 21 13
f 13 22 15
f 13 21 23
f 13 23 22
f 17 24 18
f 18 24 25
f 20 26 21
f 21 26 23
f 23 26 28
f 23 28 27
f 24 29 25
f 24 30 29
f 27 28 31
f 28 32 33
f 28 33 31
f 29 30 34
f 29 34 35
f 32 36 33
f 33 36 37
f 34 38 39
f 34 39 40
f 34 40 35
f 34 41 38
f 36 42 37
f 37 42 43
f 37 43 44
f 37 44 45
f 38 41 46
f 41 47 48
f 41 48 46
f 44 49 45
f 45 49 50
f 45 50 51
f 47 52 48
f 48 52 53
f 50 54 51
f 51 54 55
f 51 55 56
f 52 57 53
f 53 57 58
f 55 59 60
f 55 60 56
f 57 61 62
f 57 62 58
f 59 63 64
f 59 64 60
f 61 65 66
f 61 66 62
f 63 67 64
f 64 67 68
f 65 69 66
f 65 68 69
f 67 69 68

