# https://github.com/mikedh/trimesh
v -0.02052048 0.02815632 -0.02073792
v -0.02052048 0.02815632 -0.03010527
v -0.02052048 0.02830666 -0.02091458
v -0.02741829 0.02815632 -0.00861968
v -0.02061796 0.02815632 -0.03003797
v -0.02052048 0.02897597 -0.03009265
v -0.02052048 0.02939676 -0.02221642
v -0.02764089 0.02836852 -0.00861968
v -0.03538401 0.02815632 -0.00861968
v -0.02052048 0.02948579 -0.02233420
v -0.02052048 0.03057006 -0.02411976
v -0.02131487 0.02815632 -0.02955004
v -0.02197395 0.02910024 -0.02907474
v -0.02052048 0.03022001 -0.02961103
v -0.02184446 0.03019864 -0.02897799
v -0.02998769 0.03045106 -0.00861968
v -0.02052048 0.03059002 -0.02415551
v -0.03536510 0.02910024 -0.00861968
v -0.03505229 0.02910024 -0.00990048
v -0.03506538 0.02815632 -0.00990048
v -0.02197831 0.02815632 -0.02907684
v -0.02240606 0.02815632 -0.02874244
v -0.02287455 0.02910024 -0.02836808
v -0.02070089 0.03039642 -0.02937338
v -0.02052048 0.03041805 -0.02942806
v -0.02391919 0.02910024 -0.02746794
v -0.02374314 0.03027132 -0.02730810
v -0.02246717 0.03047991 -0.02790539
v -0.03100177 0.03081304 -0.00861968
v -0.02052048 0.03059807 -0.02417864
v -0.03476276 0.03047381 -0.00861968
v -0.03461581 0.03042165 -0.00990048
v -0.03434519 0.03017978 -0.01170076
v -0.03420407 0.03000726 -0.01261352
v -0.03450233 0.02910024 -0.01170076
v -0.03450960 0.02815632 -0.01170076
v -0.02287746 0.02815632 -0.02837229
v -0.02337504 0.02815632 -0.02794535
v -0.02392501 0.02815632 -0.02747215
v -0.02070089 0.03089153 -0.02789909
v -0.02052048 0.03085852 -0.02811571
v -0.02481979 0.02910024 -0.02665403
v -0.02557926 0.03029961 -0.02556671
v -0.02432657 0.03054066 -0.02613876
v -0.03149936 0.03096642 -0.00861968
v -0.02052048 0.03097558 -0.02609880
v -0.03438302 0.03061665 -0.00861968
v -0.03329910 0.03091678 -0.00990048
v -0.03329910 0.03067491 -0.01170076
v -0.03333111 0.03039752 -0.01332859
v -0.03272004 0.03032125 -0.01530133
v -0.03247416 0.03010295 -0.01635499
v -0.03304885 0.02910024 -0.01530133
v -0.03383306 0.02910024 -0.01352418
v -0.03420843 0.02910024 -0.01262404
v -0.03420843 0.02815632 -0.01262404
v -0.02482561 0.02815632 -0.02665824
v -0.02052048 0.03090124 -0.02789909
v -0.02250063 0.03094590 -0.02609880
v -0.02527809 0.02815632 -0.02623130
v -0.02577276 0.02910024 -0.02575389
v -0.02667191 0.02910024 -0.02483482
v -0.02729898 0.03026994 -0.02375171
v -0.02614813 0.03053982 -0.02433007
v -0.02430038 0.03096726 -0.02429852
v -0.03149936 0.03099000 -0.00990048
v -0.03277969 0.03099000 -0.00861968
v -0.02052048 0.03099000 -0.02627757
v -0.03329910 0.03096864 -0.00861968
v -0.03149936 0.03098640 -0.01350104
v -0.03149936 0.03081609 -0.01530133
v -0.03154010 0.03045245 -0.01701327
v -0.03096831 0.03032097 -0.01858011
v -0.02899106 0.03020891 -0.02184206
v -0.03115454 0.02910024 -0.01888086
v -0.03205514 0.02910024 -0.01733926
v -0.03251490 0.02910024 -0.01643912
v -0.03305758 0.02815632 -0.01530133
v -0.03343004 0.02815632 -0.01445587
v -0.03383888 0.02815632 -0.01352418
v -0.03401638 0.02815632 -0.01309514
v -0.02577422 0.02815632 -0.02575810
v -0.02620342 0.02815632 -0.02532275
v -0.02667482 0.02815632 -0.02483903
v -0.02746630 0.02815632 -0.02393889
v -0.02745757 0.02910024 -0.02393468
v -0.02789987 0.03048546 -0.02246459
v -0.02790132 0.03089902 -0.02069796
v -0.02610012 0.03094507 -0.02249824
v -0.02070089 0.03099000 -0.02609880
v -0.02969961 0.03098307 -0.01710161
v -0.02790132 0.03099000 -0.01890189
v -0.03149936 0.03099000 -0.01170076
v -0.02986693 0.03058836 -0.01906803
v -0.02937807 0.03040419 -0.02069796
v -0.02835671 0.02910024 -0.02287050
v -0.02909000 0.02910024 -0.02197036
v -0.02997168 0.02910024 -0.02069796
v -0.03058130 0.02910024 -0.01977679
v -0.03069042 0.02815632 -0.01963798
v -0.03109780 0.02815632 -0.01898601
v -0.03151536 0.02815632 -0.01827095
v -0.03205514 0.02815632 -0.01734347
v -0.03251926 0.02815632 -0.01644333
v -0.02789550 0.02815632 -0.02343203
v -0.02836544 0.02815632 -0.02287260
v -0.02871463 0.02815632 -0.02244356
v -0.02909000 0.02815632 -0.02197246
v -0.03004443 0.02815632 -0.02060542
v -0.03059294 0.02815632 -0.01978941
f 1 2 6
f 1 6 14
f 1 14 25
f 1 25 41
f 1 41 58
f 1 58 68
f 1 68 46
f 1 46 30
f 1 30 17
f 1 17 11
f 1 11 10
f 1 10 7
f 1 7 3
f 1 3 4
f 1 4 9
f 1 9 20
f 1 20 36
f 1 36 56
f 1 56 81
f 1 81 80
f 1 80 79
f 1 79 78
f 1 78 104
f 1 104 103
f 1 103 102
f 1 102 101
f 1 101 100
f 1 100 110
f 1 110 109
f 1 109 108
f 1 108 107
f 1 107 106
f 1 106 105
f 1 105 85
f 1 85 84
f 1 84 83
f 1 83 82
f 1 82 60
f 1 60 57
f 1 57 39
f 1 39 38
f 1 38 37
f 1 37 22
f 1 22 21
f 1 21 12
f 1 12 5
f 1 5 2
f 2 5 6
f 3 7 4
f 4 8 16
f 4 16 29
f 4 29 45
f 4 45 67
f 4 67 69
f 4 69 47
f 4 47 31
f 4 31 18
f 4 18 9
f 4 7 10
f 4 10 11
f 4 11 8
f 5 12 13
f 5 13 6
f 6 13 15
f 6 15 14
f 8 11 17
f 8 17 16
f 9 18 19
f 9 19 20
f 12 21 13
f 13 21 22
f 13 22 23
f 13 23 15
f 14 15 24
f 14 24 25
f 15 23 26
f 15 26 27
f 15 27 28
f 15 28 24
f 16 17 30
f 16 30 29
f 18 31 32
f 18 32 33
f 18 33 34
f 18 34 19
f 19 35 20
f 19 34 35
f 20 35 36
f 22 37 23
f 23 37 38
f 23 38 39
f 23 39 26
f 24 28 40
f 24 40 25
f 25 40 41
f 26 39 57
f 26 57 42
f 26 42 27
f 27 42 43
f 27 43 44
f 27 44 28
f 28 44 40
f 29 30 46
f 29 46 45
f 31 47 32
f 32 48 49
f 32 49 50
f 32 50 51
f 32 51 33
f 32 47 48
f 33 51 34
f 34 51 52
f 34 52 53
f 34 53 54
f 34 54 55
f 34 55 35
f 35 55 36
f 36 55 56
f 40 58 41
f 40 44 59
f 40 59 58
f 42 60 61
f 42 61 43
f 42 57 60
f 43 61 62
f 43 62 63
f 43 63 64
f 43 64 44
f 44 64 65
f 44 65 59
f 45 66 67
f 45 46 68
f 45 68 66
f 47 69 48
f 48 69 70
f 48 70 71
f 48 71 49
f 49 71 50
f 50 71 51
f 51 71 72
f 51 72 73
f 51 73 52
f 52 73 74
f 52 74 75
f 52 75 76
f 52 76 77
f 52 77 53
f 53 78 54
f 53 77 78
f 54 78 79
f 54 79 80
f 54 80 55
f 55 80 81
f 55 81 56
f 58 59 68
f 59 65 68
f 60 82 61
f 61 82 83
f 61 83 62
f 62 84 85
f 62 85 86
f 62 86 74
f 62 74 63
f 62 83 84
f 63 74 87
f 63 87 64
f 64 87 88
f 64 88 89
f 64 89 65
f 65 90 68
f 65 89 91
f 65 91 92
f 65 92 90
f 66 68 90
f 66 90 92
f 66 92 93
f 66 93 67
f 67 93 70
f 67 70 69
f 70 91 71
f 70 93 92
f 70 92 91
f 71 91 88
f 71 88 94
f 71 94 72
f 72 94 73
f 73 94 95
f 73 95 74
f 74 86 96
f 74 96 97
f 74 97 98
f 74 98 99
f 74 99 75
f 74 95 87
f 75 99 100
f 75 100 101
f 75 101 76
f 76 101 102
f 76 102 103
f 76 103 104
f 76 104 77
f 77 104 78
f 85 105 86
f 86 105 96
f 87 95 88
f 88 95 94
f 88 91 89
f 96 105 106
f 96 106 97
f 97 106 107
f 97 107 108
f 97 108 109
f 97 109 98
f 98 109 110
f 98 110 99
f 99 110 100

