# https://github.com/mikedh/trimesh
v -0.00003603 0.02729989 0.03643712
v -0.00090199 0.02729989 0.03643271
v -0.00090199 0.02549936 0.03638861
v -0.00003603 0.02549936 0.03638861
v -0.00003603 0.02801356 0.03642830
v -0.00090199 0.02801356 0.03642830
v -0.00198889 0.02801356 0.03637979
v -0.00270161 0.02729989 0.03634891
v -0.00270161 0.02549936 0.03630040
v -0.00270161 0.02438567 0.03612398
v -0.00090199 0.02431858 0.03616809
v -0.00003603 0.02431858 0.03616809
v -0.00003603 0.02801356 0.02805733
v -0.00270161 0.02801356 0.03634450
v -0.00450124 0.02729989 0.03615926
v -0.00464022 0.02544821 0.03610193
v -0.00533512 0.02481421 0.03598726
v -0.00413419 0.02449133 0.03606224
v -0.00270161 0.02348666 0.03551975
v -0.00090199 0.02341957 0.03556386
v -0.00003603 0.02385062 0.03585494
v -0.00003603 0.02798924 -0.00861967
v -0.02635331 0.02801356 -0.00861967
v -0.00378851 0.02801356 0.03622983
v -0.00450124 0.02801356 0.03615044
v -0.00512131 0.02801356 0.03606665
v -0.00550974 0.02801356 0.03601372
v -0.00552756 0.02729989 0.03601813
v -0.00549549 0.02601427 0.03601372
v -0.00617613 0.02544821 0.03587259
v -0.00810049 0.02549936 0.03547565
v -0.01133268 0.02432612 0.03436864
v -0.00990011 0.02400745 0.03457152
v -0.00630086 0.02370051 0.03519338
v -0.00464022 0.02381456 0.03553740
v -0.00450124 0.02232684 0.03452741
v -0.00344997 0.01944784 0.03263975
v -0.00270161 0.02219602 0.03462003
v -0.00003603 0.02341957 0.03556386
v -0.00270161 0.02010029 0.03315577
v -0.00208867 0.01944784 0.03272796
v -0.00090199 0.01944784 0.03278089
v -0.00003603 0.01944784 -0.00861967
v -0.03538707 0.02801356 -0.00861967
v -0.00605497 0.02801356 0.03593433
v -0.00642915 0.02729989 0.03588141
v -0.00810049 0.02729989 0.03554181
v -0.00990011 0.02549936 0.03501256
v -0.01253362 0.02509850 0.03417458
v -0.01631105 0.02450727 0.03245451
v -0.01530255 0.02416511 0.03267945
v -0.01356707 0.02358814 0.03303228
v -0.01184228 0.02371644 0.03378205
v -0.00990011 0.02310844 0.03398052
v -0.00812900 0.02357136 0.03472588
v -0.00874550 0.02288453 0.03413930
v -0.00754456 0.02268997 0.03427602
v -0.00630086 0.02252308 0.03439069
v -0.00450124 0.02142616 0.03390113
v -0.00399164 0.01944784 0.03258242
v -0.00270161 0.01944784 0.03269709
v -0.00003603 0.02064708 0.03361887
v -0.00003603 0.01944784 0.03277648
v -0.00003603 0.01976065 0.03299700
v -0.03325247 0.01944784 -0.00861967
v -0.03540489 0.02729989 -0.00861967
v -0.03554030 0.02729989 -0.00809924
v -0.03544053 0.02801356 -0.00841238
v -0.00641133 0.02801356 0.03587259
v -0.00741984 0.02801356 0.03566530
v -0.00810049 0.02801356 0.03552416
v -0.00990011 0.02801356 0.03506107
v -0.00990011 0.02729989 0.03506989
v -0.01184228 0.02561929 0.03443038
v -0.01261202 0.02629857 0.03420104
v -0.01332831 0.02561929 0.03387467
v -0.01530255 0.02549936 0.03301905
v -0.01530255 0.02326611 0.03207081
v -0.01641083 0.02549936 0.03250744
v -0.01731243 0.02549936 0.03201347
v -0.01975706 0.02508340 0.03057127
v -0.01855613 0.02410808 0.03091969
v -0.01786479 0.02290885 0.03052276
v -0.01666385 0.02246186 0.03084030
v -0.01420852 0.02291388 0.03231779
v -0.01300758 0.02256501 0.03256037
v -0.01170330 0.02223292 0.03279412
v -0.01056294 0.02107897 0.03232661
v -0.00807198 0.01944784 0.03179736
v -0.00638282 0.01944784 0.03222517
v -0.00630086 0.01944784 0.03224282
v -0.00630086 0.02033343 0.03286468
v -0.00630086 0.02162324 0.03376441
v -0.00483622 0.01944784 0.03247216
v -0.00441927 0.01944784 0.03252949
v -0.03410417 0.02144796 -0.00861967
v -0.03344490 0.01944784 -0.00809042
v -0.03539420 0.02677994 -0.00861967
v -0.03551892 0.02801356 -0.00809924
v -0.03550111 0.02549936 -0.00809924
v -0.03588598 0.02532828 -0.00617189
v -0.03587172 0.02729989 -0.00642329
v -0.03592517 0.02801356 -0.00604840
v -0.01170330 0.02801356 0.03451859
v -0.01170330 0.02729989 0.03452300
v -0.01262627 0.02729989 0.03420986
v -0.01352787 0.02729989 0.03384380
v -0.01530255 0.02729989 0.03307638
v -0.01521346 0.02187734 0.03109170
v -0.01645716 0.02729989 0.03253390
v -0.01735875 0.02729989 0.03203994
v -0.01980695 0.02628348 0.03060214
v -0.01905147 0.02561006 0.03101231
v -0.02052324 0.02561006 0.03006407
v -0.02193443 0.02549936 0.02905409
v -0.02179901 0.02436973 0.02894824
v -0.02065153 0.02374160 0.02932753
v -0.01905147 0.02358562 0.03026695
v -0.02002077 0.02258681 0.02895265
v -0.01877351 0.02195198 0.02923491
v -0.01809286 0.02095569 0.02884680
v -0.01719839 0.02187734 0.03008171
v -0.01575156 0.02126179 0.03036839
v -0.01455063 0.02094143 0.03066389
v -0.01356707 0.02193940 0.03184588
v -0.01170330 0.02133307 0.03211491
v -0.00961502 0.01944784 0.03116226
v -0.00625453 0.01944784 0.03225164
v -0.03478126 0.02321243 -0.00861967
v -0.03407923 0.02130624 -0.00851823
v -0.03422533 0.02092634 -0.00731860
v -0.03378701 0.02023615 -0.00798898
v -0.03385828 0.01944784 -0.00629980
v -0.03536569 0.02549936 -0.00861967
v -0.03510555 0.02370051 -0.00809924
v -0.03599645 0.02461378 -0.00539566
v -0.03601427 0.02581384 -0.00549269
v -0.03601783 0.02729989 -0.00552356
v -0.03607841 0.02801356 -0.00511780
v -0.01262627 0.02801356 0.03420545
v -0.01316794 0.02801356 0.03398493
v -0.01352431 0.02801356 0.03383498
v -0.01459695 0.02801356 0.03337629
v -0.01530255 0.02801356 0.03307198
v -0.01645716 0.02801356 0.03253390
v -0.01700239 0.02801356 0.03223841
v -0.01735875 0.02801356 0.03203553
v -0.01828529 0.02801356 0.03149746
v -0.01889823 0.02729989 0.03114462
v -0.01980695 0.02729989 0.03060214
v -0.02070855 0.02729989 0.02998027
v -0.02196650 0.02729989 0.02908055
v -0.02286453 0.02729989 0.02837488
v -0.02283603 0.02549936 0.02834401
v -0.02390867 0.02549936 0.02744428
v -0.02371267 0.02420536 0.02726787
v -0.02321733 0.02300613 0.02684888
v -0.02122171 0.02317050 0.02852925
v -0.02201640 0.02236877 0.02732520
v -0.02137494 0.02116954 0.02683124
v -0.01928667 0.02138675 0.02845427
v -0.00998207 0.01944784 0.03094615
v -0.02017401 0.02082738 0.02725464
v -0.01877351 0.02068817 0.02787209
v -0.03495944 0.02367787 -0.00861967
v -0.03398301 0.01976904 -0.00629980
v -0.03547972 0.02370051 -0.00629980
v -0.03411486 0.01944784 -0.00489728
v -0.03427879 0.01944784 -0.00389612
v -0.03607129 0.02439992 -0.00419603
v -0.03631361 0.02549936 -0.00269649
v -0.03611405 0.02532828 -0.00467676
v -0.03617463 0.02729989 -0.00449594
v -0.03617106 0.02801356 -0.00449594
v -0.01896951 0.02801356 0.03109611
v -0.01980339 0.02801356 0.03060214
v -0.02014550 0.02801356 0.03036398
v -0.02063015 0.02801356 0.03002438
v -0.02138207 0.02801356 0.02949072
v -0.02195938 0.02801356 0.02907614
v -0.02250105 0.02801356 0.02865274
v -0.02286097 0.02801356 0.02837047
v -0.02395144 0.02801356 0.02747075
v -0.02395144 0.02729989 0.02747516
v -0.02481027 0.02549936 0.02664159
v -0.02554081 0.02412653 0.02553899
v -0.02440401 0.02356717 0.02619614
v -0.02509892 0.02292730 0.02509794
v -0.02389798 0.02224550 0.02564925
v -0.02334206 0.02104542 0.02514646
v -0.02267923 0.02170710 0.02624024
v -0.01154294 0.01944784 0.02959657
v -0.02074418 0.02055147 0.02617850
v -0.02264359 0.02049780 0.02444520
v -0.02214112 0.02075442 0.02563161
v -0.03433581 0.01944784 -0.00338010
v -0.03613543 0.02422465 -0.00269649
v -0.03639914 0.02549936 -0.00089704
v -0.03635281 0.02729989 -0.00269649
v -0.03624234 0.02801356 -0.00378145
v -0.02484947 0.02801356 0.02666805
v -0.02485303 0.02729989 0.02667246
v -0.02574037 0.02549936 0.02574187
v -0.02664196 0.02549936 0.02480686
v -0.02727272 0.02416930 0.02371307
v -0.02621077 0.02354872 0.02440551
v -0.02453943 0.02162995 0.02452018
v -0.02688073 0.02297007 0.02326762
v -0.02567979 0.02221363 0.02389831
v -0.02518088 0.02101355 0.02338229
v -0.02398351 0.02073849 0.02394683
v -0.02069786 0.02007430 0.02429966
v -0.03153481 0.01944784 0.01167264
v -0.02446816 0.02048774 0.02266781
v -0.03438926 0.01944784 -0.00269649
v -0.03449260 0.01944784 -0.00089704
v -0.03618176 0.02409634 -0.00089704
v -0.03640270 0.02549936 0.00090241
v -0.03644190 0.02729989 0.00090241
v -0.03642764 0.02729989 -0.00089704
v -0.03634925 0.02801356 -0.00269649
v -0.02540183 0.02801356 0.02612557
v -0.02576532 0.02729989 0.02577274
v -0.02666335 0.02729989 0.02484214
v -0.02747941 0.02729989 0.02394242
v -0.02744378 0.02549936 0.02390713
v -0.02793199 0.02365019 0.02253549
v -0.02895118 0.02432948 0.02180337
v -0.02859482 0.02313025 0.02132704
v -0.02739389 0.02227736 0.02206799
v -0.02629629 0.02164588 0.02272514
v -0.02691636 0.02107729 0.02150346
v -0.02740458 0.02076784 0.02030382
v -0.02571542 0.02073765 0.02218266
v -0.03183771 0.01944784 0.01131099
v -0.03449260 0.01944784 -0.00008993
v -0.03618176 0.02409802 0.00090241
v -0.03613899 0.02422130 0.00270186
v -0.03631361 0.02549936 0.00270186
v -0.03634568 0.02729989 0.00270186
v -0.03634212 0.02801356 0.00270186
v -0.03643477 0.02801356 0.00090241
v -0.03642764 0.02801356 -0.00018255
v -0.03642052 0.02801356 -0.00089704
v -0.02575819 0.02801356 0.02576833
v -0.02665978 0.02801356 0.02483773
v -0.02747941 0.02801356 0.02393801
v -0.02838101 0.02729989 0.02286186
v -0.02834537 0.02549936 0.02283540
v -0.02905097 0.02549936 0.02193568
v -0.03057619 0.02497690 0.01976575
v -0.03030892 0.02370051 0.01936000
v -0.02937882 0.02371812 0.02071399
v -0.02903315 0.02242412 0.02012741
v -0.02799970 0.02175071 0.02081543
v -0.02860552 0.02122489 0.01952318
v -0.02900108 0.02085338 0.01832355
v -0.03222258 0.01944784 0.01076410
v -0.03448904 0.01944784 0.00090241
v -0.03444628 0.01944784 0.00170952
v -0.03438569 0.01944784 0.00270186
v -0.03607129 0.02439405 0.00420140
v -0.03599645 0.02460287 0.00540103
v -0.03611048 0.02532157 0.00468214
v -0.03616750 0.02729989 0.00450131
v -0.03616038 0.02801356 0.00450131
v -0.02837744 0.02801356 0.02285746
v -0.02879439 0.02801356 0.02231497
v -0.02906878 0.02729989 0.02196214
v -0.03060826 0.02617697 0.01981427
v -0.03006660 0.02554548 0.02052876
v -0.03102521 0.02554548 0.01905568
v -0.03202302 0.02549936 0.01731797
v -0.03246134 0.02446534 0.01632122
v -0.03087197 0.02370051 0.01846027
v -0.03062965 0.02274615 0.01804569
v -0.02961758 0.02198552 0.01878664
v -0.03059045 0.02100852 0.01618450
v -0.03235087 0.01944784 0.01057004
v -0.03427879 0.01944784 0.00389267
v -0.03411130 0.01944784 0.00487178
v -0.03394381 0.01944784 0.00583325
v -0.03398301 0.01976317 0.00630076
v -0.03423246 0.02090956 0.00734162
v -0.03548329 0.02370051 0.00630076
v -0.03511267 0.02370051 0.00810021
v -0.03437857 0.02415756 0.01135509
v -0.03549754 0.02549936 0.00810021
v -0.03588598 0.02532157 0.00618609
v -0.03601783 0.02580294 0.00551129
v -0.03602852 0.02729989 0.00557745
v -0.03602852 0.02801356 0.00557304
v -0.03611048 0.02801356 0.00492471
v -0.02906522 0.02801356 0.02195773
v -0.02996325 0.02801356 0.02072722
v -0.03061896 0.02801356 0.01982750
v -0.02996681 0.02729989 0.02072722
v -0.03061896 0.02729989 0.01982750
v -0.03116775 0.02729989 0.01889690
v -0.03204797 0.02729989 0.01735326
v -0.03251124 0.02549936 0.01641825
v -0.03303865 0.02549936 0.01529800
v -0.03418257 0.02514462 0.01255473
v -0.03338076 0.02370051 0.01350297
v -0.03267873 0.02379863 0.01520539
v -0.03246847 0.02267068 0.01453941
v -0.03216557 0.02326611 0.01573905
v -0.03175575 0.02379863 0.01699160
v -0.03089692 0.02231594 0.01709745
v -0.03282840 0.01944784 0.00975852
v -0.03386184 0.01944784 0.00630076
v -0.03444628 0.02189998 0.00800759
v -0.03363734 0.01944784 0.00731515
v -0.03345203 0.01944784 0.00810462
v -0.03407566 0.02129953 0.00854125
v -0.03431442 0.02249960 0.00938805
v -0.03458526 0.02361497 0.00995258
v -0.03503427 0.02549936 0.00990407
v -0.03412911 0.02295833 0.01058768
v -0.03398301 0.02361497 0.01185347
v -0.03552605 0.02729989 0.00810021
v -0.03587172 0.02729989 0.00647718
v -0.03507347 0.02729989 0.00990407
v -0.03585390 0.02801356 0.00647277
v -0.03095037 0.02801356 0.01926738
v -0.03169160 0.02801356 0.01796631
v -0.03204084 0.02801356 0.01734444
v -0.03252905 0.02801356 0.01644471
v -0.03253262 0.02729989 0.01645353
v -0.03308498 0.02729989 0.01529800
v -0.03389035 0.02564696 0.01332655
v -0.03420039 0.02634470 0.01260765
v -0.03443559 0.02564696 0.01185347
v -0.03506991 0.02801356 0.00990407
v -0.03534074 0.02801356 0.00881470
v -0.03550467 0.02801356 0.00810021
v -0.03445697 0.02724873 0.01187993
v -0.03485253 0.02801356 0.01060532
v -0.03286403 0.02801356 0.01574787
v -0.03307785 0.02801356 0.01529800
v -0.03391886 0.02724873 0.01332655
v -0.03420039 0.02661557 0.01260765
v -0.03419682 0.02781565 0.01259442
v -0.03448191 0.02801356 0.01179172
v -0.03387966 0.02801356 0.01339712
v -0.03413981 0.02801356 0.01273555
v -0.03419326 0.02801356 0.01259001
f 1 2 3
f 1 3 4
f 1 4 12
f 1 12 21
f 1 21 39
f 1 39 62
f 1 62 64
f 1 64 63
f 1 63 43
f 1 43 22
f 1 22 13
f 1 13 5
f 1 5 6
f 1 6 2
f 2 6 7
f 2 7 8
f 2 8 3
f 3 8 9
f 3 9 10
f 3 10 11
f 3 11 12
f 3 12 4
f 5 13 23
f 5 23 44
f 5 44 68
f 5 68 99
f 5 99 103
f 5 103 139
f 5 139 174
f 5 174 200
f 5 200 221
f 5 221 244
f 5 244 243
f 5 243 242
f 5 242 241
f 5 241 266
f 5 266 293
f 5 293 292
f 5 292 324
f 5 324 336
f 5 336 335
f 5 335 334
f 5 334 338
f 5 338 344
f 5 344 347
f 5 347 346
f 5 346 345
f 5 345 340
f 5 340 339
f 5 339 328
f 5 328 327
f 5 327 326
f 5 326 325
f 5 325 296
f 5 296 295
f 5 295 294
f 5 294 268
f 5 268 267
f 5 267 247
f 5 247 246
f 5 246 245
f 5 245 222
f 5 222 201
f 5 201 183
f 5 183 182
f 5 182 181
f 5 181 180
f 5 180 179
f 5 179 178
f 5 178 177
f 5 177 176
f 5 176 175
f 5 175 148
f 5 148 147
f 5 147 146
f 5 146 145
f 5 145 144
f 5 144 143
f 5 143 142
f 5 142 141
f 5 141 140
f 5 140 104
f 5 104 72
f 5 72 71
f 5 71 70
f 5 70 69
f 5 69 45
f 5 45 27
f 5 27 26
f 5 26 25
f 5 25 24
f 5 24 14
f 5 14 7
f 5 7 6
f 7 14 8
f 8 14 15
f 8 15 16
f 8 16 9
f 9 16 17
f 9 17 18
f 9 18 10
f 10 18 19
f 10 19 20
f 10 20 11
f 11 20 21
f 11 21 12
f 13 22 23
f 14 24 15
f 15 24 25
f 15 25 26
f 15 26 27
f 15 27 28
f 15 28 29
f 15 29 16
f 16 29 17
f 17 29 30
f 17 30 31
f 17 31 32
f 17 32 33
f 17 33 34
f 17 34 18
f 18 34 35
f 18 35 36
f 18 36 19
f 19 36 37
f 19 37 38
f 19 38 20
f 20 39 21
f 20 38 40
f 20 40 41
f 20 41 42
f 20 42 39
f 22 43 65
f 22 65 96
f 22 96 129
f 22 129 165
f 22 165 134
f 22 134 98
f 22 98 66
f 22 66 44
f 22 44 23
f 27 45 28
f 28 45 46
f 28 46 29
f 29 46 30
f 30 46 47
f 30 47 31
f 31 47 48
f 31 48 32
f 32 48 49
f 32 49 50
f 32 50 51
f 32 51 52
f 32 52 53
f 32 53 54
f 32 54 33
f 33 55 34
f 33 54 56
f 33 56 55
f 34 55 57
f 34 57 58
f 34 58 35
f 35 58 36
f 36 58 59
f 36 59 60
f 36 60 37
f 37 60 95
f 37 95 94
f 37 94 128
f 37 128 91
f 37 91 90
f 37 90 89
f 37 89 127
f 37 127 162
f 37 162 192
f 37 192 213
f 37 213 235
f 37 235 258
f 37 258 279
f 37 279 310
f 37 310 314
f 37 314 313
f 37 313 311
f 37 311 282
f 37 282 281
f 37 281 280
f 37 280 261
f 37 261 260
f 37 260 259
f 37 259 236
f 37 236 216
f 37 216 215
f 37 215 196
f 37 196 169
f 37 169 168
f 37 168 133
f 37 133 97
f 37 97 65
f 37 65 43
f 37 43 63
f 37 63 42
f 37 42 41
f 37 41 61
f 37 61 40
f 37 40 38
f 39 42 62
f 40 61 41
f 42 63 64
f 42 64 62
f 44 66 67
f 44 67 68
f 45 69 46
f 46 69 47
f 47 69 70
f 47 70 71
f 47 71 72
f 47 72 73
f 47 73 48
f 48 73 74
f 48 74 49
f 49 74 75
f 49 75 76
f 49 76 77
f 49 77 50
f 50 78 51
f 50 77 79
f 50 79 80
f 50 80 81
f 50 81 82
f 50 82 83
f 50 83 84
f 50 84 78
f 51 78 85
f 51 85 52
f 52 85 86
f 52 86 53
f 53 86 87
f 53 87 54
f 54 87 88
f 54 88 56
f 55 56 57
f 56 88 89
f 56 89 90
f 56 90 57
f 57 90 91
f 57 91 92
f 57 92 93
f 57 93 58
f 58 93 59
f 59 93 94
f 59 94 95
f 59 95 60
f 65 97 96
f 66 98 67
f 67 99 68
f 67 98 100
f 67 100 101
f 67 101 102
f 67 102 103
f 67 103 99
f 72 104 73
f 73 104 105
f 73 105 74
f 74 105 75
f 75 105 106
f 75 106 107
f 75 107 76
f 76 107 77
f 77 107 108
f 77 108 79
f 78 84 109
f 78 109 85
f 79 110 111
f 79 111 80
f 79 108 110
f 80 111 112
f 80 112 113
f 80 113 81
f 81 113 112
f 81 112 114
f 81 114 115
f 81 115 116
f 81 116 82
f 82 116 117
f 82 117 118
f 82 118 83
f 83 118 119
f 83 119 120
f 83 120 121
f 83 121 122
f 83 122 84
f 84 122 123
f 84 123 109
f 85 109 124
f 85 124 125
f 85 125 86
f 86 125 126
f 86 126 87
f 87 126 88
f 88 126 124
f 88 124 89
f 89 124 127
f 91 128 92
f 92 128 94
f 92 94 93
f 96 97 130
f 96 130 129
f 97 131 132
f 97 132 130
f 97 133 131
f 98 134 100
f 100 134 135
f 100 135 136
f 100 136 101
f 101 136 137
f 101 137 102
f 102 138 139
f 102 139 103
f 102 137 138
f 104 140 106
f 104 106 105
f 106 140 107
f 107 141 142
f 107 142 143
f 107 143 144
f 107 144 108
f 107 140 141
f 108 144 145
f 108 145 110
f 109 123 124
f 110 145 146
f 110 146 111
f 111 146 147
f 111 147 148
f 111 148 149
f 111 149 112
f 112 149 150
f 112 150 151
f 112 151 152
f 112 152 115
f 112 115 114
f 115 152 153
f 115 153 154
f 115 154 116
f 116 154 155
f 116 155 156
f 116 156 157
f 116 157 158
f 116 158 117
f 117 158 119
f 117 119 118
f 119 158 159
f 119 159 160
f 119 160 161
f 119 161 120
f 120 161 121
f 121 162 127
f 121 127 124
f 121 124 123
f 121 123 122
f 121 161 160
f 121 160 163
f 121 163 164
f 121 164 162
f 124 126 125
f 129 130 165
f 130 132 131
f 130 131 135
f 130 135 165
f 131 166 167
f 131 167 135
f 131 133 166
f 133 168 166
f 134 165 135
f 135 167 136
f 136 168 169
f 136 169 170
f 136 170 171
f 136 171 172
f 136 172 137
f 136 167 166
f 136 166 168
f 137 172 173
f 137 173 138
f 138 173 139
f 139 173 174
f 148 175 149
f 149 175 176
f 149 176 150
f 150 176 151
f 151 176 177
f 151 177 178
f 151 178 179
f 151 179 152
f 152 179 180
f 152 180 181
f 152 181 182
f 152 182 153
f 153 182 183
f 153 183 184
f 153 184 154
f 154 184 155
f 155 184 202
f 155 202 185
f 155 185 156
f 156 185 186
f 156 186 187
f 156 187 157
f 157 187 188
f 157 188 189
f 157 189 190
f 157 190 191
f 157 191 159
f 157 159 158
f 159 191 160
f 160 191 190
f 160 190 163
f 162 164 163
f 162 163 193
f 162 193 194
f 162 194 192
f 163 190 195
f 163 195 193
f 169 196 170
f 170 196 197
f 170 197 171
f 171 197 198
f 171 198 199
f 171 199 172
f 172 199 173
f 173 199 200
f 173 200 174
f 183 201 202
f 183 202 184
f 185 202 203
f 185 203 186
f 186 203 204
f 186 204 205
f 186 205 206
f 186 206 188
f 186 188 187
f 188 207 189
f 188 206 208
f 188 208 209
f 188 209 210
f 188 210 207
f 189 207 190
f 190 207 210
f 190 210 211
f 190 211 195
f 192 194 212
f 192 212 213
f 193 195 194
f 194 211 214
f 194 214 213
f 194 213 212
f 194 195 211
f 196 215 197
f 197 215 216
f 197 216 217
f 197 217 198
f 198 217 218
f 198 218 219
f 198 219 220
f 198 220 199
f 199 221 200
f 199 220 221
f 201 222 202
f 202 222 223
f 202 223 203
f 203 223 224
f 203 224 204
f 204 224 225
f 204 225 226
f 204 226 205
f 205 227 208
f 205 208 206
f 205 226 228
f 205 228 227
f 208 210 209
f 208 227 229
f 208 229 230
f 208 230 231
f 208 231 210
f 210 231 232
f 210 232 233
f 210 233 234
f 210 234 211
f 211 234 214
f 213 214 234
f 213 234 233
f 213 233 235
f 216 236 217
f 217 236 237
f 217 237 218
f 218 237 238
f 218 238 239
f 218 239 219
f 219 239 240
f 219 240 241
f 219 241 242
f 219 242 243
f 219 243 220
f 220 243 244
f 220 244 221
f 222 245 223
f 223 245 246
f 223 246 224
f 224 246 247
f 224 247 225
f 225 247 248
f 225 248 249
f 225 249 226
f 226 249 228
f 227 228 229
f 228 250 251
f 228 251 252
f 228 252 253
f 228 253 229
f 228 249 250
f 229 253 254
f 229 254 230
f 230 254 255
f 230 255 232
f 230 232 231
f 232 255 256
f 232 256 233
f 233 256 257
f 233 257 235
f 235 257 258
f 236 259 237
f 237 259 238
f 238 260 261
f 238 261 262
f 238 262 239
f 238 259 260
f 239 262 263
f 239 263 264
f 239 264 265
f 239 265 240
f 240 265 241
f 241 265 266
f 247 267 248
f 248 267 268
f 248 268 269
f 248 269 250
f 248 250 249
f 250 269 270
f 250 270 271
f 250 271 251
f 251 271 270
f 251 270 272
f 251 272 273
f 251 273 274
f 251 274 275
f 251 275 252
f 252 254 253
f 252 275 276
f 252 276 254
f 254 276 277
f 254 277 256
f 254 256 255
f 256 277 278
f 256 278 257
f 257 278 279
f 257 279 258
f 261 280 262
f 262 280 263
f 263 281 282
f 263 282 283
f 263 283 284
f 263 284 285
f 263 285 286
f 263 286 287
f 263 287 288
f 263 288 289
f 263 289 290
f 263 290 264
f 263 280 281
f 264 290 265
f 265 291 292
f 265 292 293
f 265 293 266
f 265 290 291
f 268 294 269
f 269 294 295
f 269 295 296
f 269 296 297
f 269 297 270
f 270 297 298
f 270 298 299
f 270 299 273
f 270 273 272
f 273 299 300
f 273 300 301
f 273 301 274
f 274 301 302
f 274 302 303
f 274 303 304
f 274 304 305
f 274 305 306
f 274 306 307
f 274 307 308
f 274 308 275
f 275 308 276
f 276 308 307
f 276 307 309
f 276 309 278
f 276 278 277
f 278 309 306
f 278 306 310
f 278 310 279
f 282 311 283
f 283 311 284
f 284 312 286
f 284 286 285
f 284 311 313
f 284 313 314
f 284 314 315
f 284 315 312
f 286 312 316
f 286 316 317
f 286 317 287
f 287 318 288
f 287 317 316
f 287 316 319
f 287 319 320
f 287 320 304
f 287 304 303
f 287 303 318
f 288 321 322
f 288 322 289
f 288 318 323
f 288 323 321
f 289 322 290
f 290 322 291
f 291 322 292
f 292 322 324
f 296 325 298
f 296 298 297
f 298 325 299
f 299 325 300
f 300 326 327
f 300 327 328
f 300 328 329
f 300 329 301
f 300 325 326
f 301 329 330
f 301 330 302
f 302 330 331
f 302 331 303
f 303 331 332
f 303 332 333
f 303 333 318
f 304 320 310
f 304 310 306
f 304 306 305
f 306 309 307
f 310 320 314
f 312 315 316
f 314 320 319
f 314 319 316
f 314 316 315
f 318 333 323
f 321 323 334
f 321 334 335
f 321 335 336
f 321 336 324
f 321 324 322
f 323 333 337
f 323 337 338
f 323 338 334
f 328 339 329
f 329 339 330
f 330 339 340
f 330 340 341
f 330 341 331
f 331 341 332
f 332 341 342
f 332 342 337
f 332 337 333
f 337 342 343
f 337 343 344
f 337 344 338
f 340 345 341
f 341 345 346
f 341 346 343
f 341 343 342
f 343 346 347
f 343 347 344

