# https://github.com/mikedh/trimesh
v -0.00090161 0.02729954 -0.03644143
v -0.00090161 0.02815632 -0.03643871
v -0.00003603 0.02729954 -0.03644143
v -0.00090161 0.02549988 -0.03639241
v -0.00270202 0.02549988 -0.03629980
v -0.00270202 0.02729954 -0.03634065
v -0.00003603 0.02815632 -0.03643871
v -0.00270202 0.02815632 -0.03632976
v -0.00003603 0.02549988 -0.03639241
v -0.00090161 0.02431914 -0.03616907
v -0.00270202 0.02438820 -0.03612549
v -0.00413196 0.02449050 -0.03606285
v -0.00533339 0.02478547 -0.03598931
v -0.00464093 0.02543082 -0.03610643
v -0.00450243 0.02729954 -0.03617179
v -0.00355722 0.02815632 -0.03625622
v -0.00003603 0.02815632 -0.02895420
v -0.00003603 0.02432085 -0.03616907
v -0.00090161 0.02342058 -0.03556170
v -0.00270202 0.02348964 -0.03551540
v -0.00395885 0.01944785 -0.03257662
v -0.00450243 0.02233789 -0.03452400
v -0.00464093 0.02381445 -0.03553446
v -0.00630284 0.02370021 -0.03518312
v -0.00990020 0.02402331 -0.03457303
v -0.01133360 0.02433193 -0.03436876
v -0.00810325 0.02549988 -0.03546910
v -0.00618512 0.02543082 -0.03586947
v -0.00550651 0.02598581 -0.03601655
v -0.00557229 0.02729954 -0.03603016
v -0.00556537 0.02815632 -0.03603016
v -0.00500793 0.02815632 -0.03610370
v -0.00450243 0.02815632 -0.03616634
v -0.00003603 0.02798923 -0.00862240
v -0.02741612 0.02815632 -0.00862240
v -0.00003603 0.02342144 -0.03555898
v -0.00003603 0.01944785 -0.03277272
v -0.00090161 0.02010003 -0.03323301
v -0.00157677 0.01944785 -0.03274003
v -0.00270202 0.02010003 -0.03313768
v -0.00440203 0.01997897 -0.03288438
v -0.00270202 0.01944785 -0.03268011
v -0.00481404 0.01944785 -0.03245133
v -0.00512565 0.01944785 -0.03240503
v -0.00630284 0.01944785 -0.03222255
v -0.00630284 0.02253908 -0.03438237
v -0.00750773 0.02269850 -0.03427071
v -0.00810325 0.02358001 -0.03472283
v -0.00870570 0.02289970 -0.03412908
v -0.00990020 0.02312391 -0.03396566
v -0.01254542 0.02549988 -0.03417810
v -0.01164521 0.02549988 -0.03448315
v -0.00990020 0.02549988 -0.03501153
v -0.01170061 0.02224070 -0.03278906
v -0.01183910 0.02371982 -0.03377501
v -0.01355642 0.02359365 -0.03303146
v -0.01530143 0.02417166 -0.03268011
v -0.01631243 0.02450670 -0.03245678
v -0.00990020 0.02729954 -0.03507690
v -0.00810325 0.02729954 -0.03553174
v -0.00647250 0.02729954 -0.03586675
v -0.00646557 0.02815632 -0.03584496
v -0.00003603 0.01944785 -0.00862240
v -0.03538293 0.02815632 -0.00862240
v -0.00090161 0.01944785 -0.03277544
v -0.00773625 0.01944785 -0.03188754
v -0.00807209 0.01944785 -0.03180856
v -0.00810325 0.02064053 -0.03265560
v -0.01055804 0.02108469 -0.03232332
v -0.00993482 0.02177097 -0.03298516
v -0.01259043 0.02729954 -0.03419444
v -0.01169022 0.02729954 -0.03451038
v -0.01350102 0.02549988 -0.03379680
v -0.01350102 0.02729954 -0.03385127
v -0.01170061 0.02134045 -0.03211088
v -0.01299206 0.02256977 -0.03255755
v -0.01419003 0.02292272 -0.03231242
v -0.01530143 0.02327225 -0.03206185
v -0.01641284 0.02549988 -0.03250580
v -0.01530143 0.02549988 -0.03302329
v -0.01663789 0.02246491 -0.03083895
v -0.01783586 0.02292698 -0.03050939
v -0.01855602 0.02412647 -0.03092066
v -0.01975745 0.02498837 -0.03057203
v -0.01731304 0.02549988 -0.03201827
v -0.00990020 0.02815632 -0.03506600
v -0.00895845 0.02815632 -0.03530568
v -0.01167984 0.02815632 -0.03450494
v -0.01074155 0.02815632 -0.03480181
v -0.00810325 0.02815632 -0.03550723
v -0.03325360 0.01944785 -0.00862240
v -0.03506440 0.02815632 -0.00990250
v -0.03540717 0.02729954 -0.00862240
v -0.00921812 0.01944785 -0.03137278
v -0.01456049 0.02093720 -0.03066736
v -0.01302322 0.02815632 -0.03402558
v -0.01258004 0.02815632 -0.03418900
v -0.01210917 0.02815632 -0.03435514
v -0.01350102 0.02815632 -0.03384582
v -0.01530143 0.02729954 -0.03308049
v -0.01521834 0.02187924 -0.03109224
v -0.01644746 0.02729954 -0.03252214
v -0.01734767 0.02729954 -0.03205640
v -0.01576192 0.02126457 -0.03036776
v -0.01718494 0.02187924 -0.03007633
v -0.01808514 0.02095596 -0.02885071
v -0.01877068 0.02196193 -0.02922384
v -0.02000674 0.02260217 -0.02894331
v -0.01905113 0.02359620 -0.03025609
v -0.02064380 0.02374539 -0.02932189
v -0.02180022 0.02437370 -0.02895148
v -0.02052955 0.02555273 -0.03006544
v -0.01981631 0.02618786 -0.03061016
v -0.01905113 0.02555273 -0.03102143
v -0.02193871 0.02549988 -0.02905226
v -0.03406379 0.02134897 -0.00862240
v -0.03412957 0.02296534 -0.01057251
v -0.03397723 0.02361922 -0.01185261
v -0.03282773 0.01944785 -0.00976904
v -0.03507479 0.02729954 -0.00990250
v -0.03451043 0.02815632 -0.01170009
v -0.03536562 0.02549988 -0.00862240
v -0.03503670 0.02549988 -0.00990250
v -0.00962668 0.01944785 -0.03118212
v -0.01435968 0.02815632 -0.03347813
v -0.01530143 0.02815632 -0.03307231
v -0.01733728 0.02815632 -0.03205368
v -0.01686294 0.02815632 -0.03229881
v -0.01643708 0.02815632 -0.03251670
v -0.01889879 0.02729954 -0.03116578
v -0.02017639 0.02081700 -0.02726011
v -0.02137782 0.02117505 -0.02682161
v -0.01928657 0.02140268 -0.02845851
v -0.02069228 0.02188861 -0.02789199
v -0.02200796 0.02237455 -0.02732548
v -0.02120816 0.02317506 -0.02852387
v -0.02250307 0.02369595 -0.02789744
v -0.02371143 0.02421599 -0.02726828
v -0.02390185 0.02549988 -0.02744260
v -0.02283892 0.02549988 -0.02834139
v -0.01981284 0.02729954 -0.03061016
v -0.02198026 0.02729954 -0.02907949
v -0.02071305 0.02729954 -0.02998101
v -0.02287701 0.02729954 -0.02837680
v -0.03410533 0.02144786 -0.00862240
v -0.03430961 0.02250669 -0.00937412
v -0.03437885 0.02416398 -0.01135419
v -0.03337132 0.02370021 -0.01350040
v -0.03246073 0.02267804 -0.01453265
v -0.03152244 0.02185195 -0.01534701
v -0.03057376 0.02102501 -0.01616409
v -0.03270655 0.01944785 -0.00998965
v -0.03451389 0.02729954 -0.01170009
v -0.03443425 0.02560815 -0.01185261
v -0.03420574 0.02815632 -0.01262339
v -0.03495706 0.02367720 -0.00862240
v -0.03418150 0.02508129 -0.01255530
v -0.01061344 0.01944785 -0.03040862
v -0.02074421 0.02054931 -0.02617067
v -0.01898535 0.02815632 -0.03110314
v -0.02214299 0.02076158 -0.02562050
v -0.02334442 0.02104291 -0.02515203
v -0.02320939 0.02301735 -0.02683795
v -0.02440389 0.02356978 -0.02618973
v -0.02553953 0.02412221 -0.02553879
v -0.02479860 0.02549988 -0.02663913
v -0.02392609 0.02729954 -0.02747800
v -0.01980246 0.02815632 -0.03060199
v -0.01967435 0.02815632 -0.03068098
v -0.02131203 0.02815632 -0.02955068
v -0.02061610 0.02815632 -0.03003548
v -0.02197680 0.02815632 -0.02907677
v -0.02287354 0.02815632 -0.02837135
v -0.03478049 0.02321257 -0.00862240
v -0.03458313 0.02361922 -0.00994335
v -0.03246073 0.02446662 -0.01632206
v -0.03267193 0.02380081 -0.01519993
v -0.03216297 0.02326799 -0.01573376
v -0.03088883 0.02233533 -0.01710102
v -0.03231531 0.01944785 -0.01069507
v -0.03062223 0.02275562 -0.01804339
v -0.03028985 0.02143507 -0.01710102
v -0.02859331 0.02124326 -0.01952776
v -0.02901225 0.02084343 -0.01832937
v -0.03420574 0.02729954 -0.01262339
v -0.03420228 0.02628078 -0.01260977
v -0.03401531 0.02815632 -0.01309458
v -0.03388721 0.02560815 -0.01332608
v -0.03303201 0.02549988 -0.01530071
v -0.01142362 0.01944785 -0.02974405
v -0.02264503 0.02049986 -0.02444934
v -0.02396071 0.02073516 -0.02395092
v -0.02516214 0.02103183 -0.02335989
v -0.02452853 0.02163712 -0.02452560
v -0.02509982 0.02292272 -0.02510301
v -0.02389839 0.02224241 -0.02563956
v -0.02620430 0.02355443 -0.02440849
v -0.02727070 0.02418615 -0.02371396
v -0.02664056 0.02549988 -0.02480886
v -0.02574035 0.02549988 -0.02573761
v -0.02482630 0.02729954 -0.02666364
v -0.02577497 0.02729954 -0.02576212
v -0.02392263 0.02815632 -0.02747256
v -0.02435196 0.02815632 -0.02708580
v -0.03250574 0.02549988 -0.01641467
v -0.03202447 0.02549988 -0.01731618
v -0.03057722 0.02505231 -0.01976744
v -0.03086459 0.02370021 -0.01845738
v -0.03175095 0.02380081 -0.01699480
v -0.02739188 0.02076841 -0.02032578
v -0.03153975 0.01944785 -0.01167013
v -0.03030370 0.02370021 -0.01935617
v -0.02902610 0.02244275 -0.02011606
v -0.02961816 0.02199944 -0.01878422
v -0.02799086 0.02175306 -0.02082148
v -0.02693139 0.02106252 -0.02152417
v -0.03384220 0.02729954 -0.01352219
v -0.03383873 0.02815632 -0.01352491
v -0.03306317 0.02729954 -0.01530071
v -0.02069920 0.02007957 -0.02429954
v -0.02445583 0.02048793 -0.02265448
v -0.02572996 0.02074197 -0.02216422
v -0.02566764 0.02223132 -0.02390189
v -0.02686561 0.02298666 -0.02325640
v -0.02792854 0.02366100 -0.02253191
v -0.02895339 0.02433534 -0.02180743
v -0.02744382 0.02549988 -0.02390734
v -0.02667518 0.02729954 -0.02484426
v -0.02482283 0.02815632 -0.02665819
v -0.02527640 0.02815632 -0.02623059
v -0.02577151 0.02815632 -0.02575940
v -0.03251958 0.02729954 -0.01644735
v -0.03205217 0.02729954 -0.01734614
v -0.03102386 0.02559110 -0.01906202
v -0.03060492 0.02625265 -0.01981102
v -0.03007172 0.02559110 -0.02052733
v -0.02905726 0.02549988 -0.02194361
v -0.02937579 0.02372152 -0.02070981
v -0.02858638 0.02313585 -0.02131718
v -0.02738495 0.02226287 -0.02205800
v -0.03343018 0.02815632 -0.01445639
v -0.03305625 0.02815632 -0.01530071
v -0.03277233 0.02815632 -0.01590263
v -0.03251612 0.02815632 -0.01644463
v -0.02834402 0.02549988 -0.02284241
v -0.02747151 0.02729954 -0.02394275
v -0.02667171 0.02815632 -0.02483882
v -0.02620084 0.02815632 -0.02532090
v -0.03227376 0.02815632 -0.01691581
v -0.03205217 0.02815632 -0.01734342
v -0.03151551 0.02815632 -0.01826945
v -0.03104810 0.02733791 -0.01907836
v -0.03060492 0.02676331 -0.01981102
v -0.03010634 0.02733791 -0.02052733
v -0.02908842 0.02729954 -0.02197902
v -0.02837172 0.02729954 -0.02287509
v -0.02746459 0.02815632 -0.02394002
v -0.02789392 0.02815632 -0.02343343
v -0.03109657 0.02815632 -0.01898576
v -0.03059453 0.02796280 -0.01979468
v -0.03004402 0.02815632 -0.02060904
v -0.02908842 0.02815632 -0.02197629
v -0.02871449 0.02815632 -0.02244748
v -0.02836479 0.02815632 -0.02287237
v -0.03068802 0.02815632 -0.01963943
v -0.03059107 0.02815632 -0.01979195
f 1 2 7
f 1 7 3
f 1 3 9
f 1 9 4
f 1 4 5
f 1 5 6
f 1 6 2
f 2 6 8
f 2 8 16
f 2 16 33
f 2 33 32
f 2 32 31
f 2 31 62
f 2 62 90
f 2 90 87
f 2 87 86
f 2 86 89
f 2 89 88
f 2 88 98
f 2 98 97
f 2 97 96
f 2 96 99
f 2 99 125
f 2 125 126
f 2 126 129
f 2 129 128
f 2 128 127
f 2 127 160
f 2 160 169
f 2 169 168
f 2 168 171
f 2 171 170
f 2 170 172
f 2 172 173
f 2 173 203
f 2 203 204
f 2 204 229
f 2 229 230
f 2 230 231
f 2 231 248
f 2 248 247
f 2 247 257
f 2 257 258
f 2 258 264
f 2 264 263
f 2 263 262
f 2 262 261
f 2 261 266
f 2 266 265
f 2 265 259
f 2 259 251
f 2 251 250
f 2 250 249
f 2 249 244
f 2 244 243
f 2 243 242
f 2 242 241
f 2 241 218
f 2 218 187
f 2 187 155
f 2 155 121
f 2 121 92
f 2 92 64
f 2 64 35
f 2 35 17
f 2 17 7
f 3 7 17
f 3 17 34
f 3 34 63
f 3 63 37
f 3 37 36
f 3 36 18
f 3 18 9
f 4 9 10
f 4 10 11
f 4 11 5
f 5 11 12
f 5 12 13
f 5 13 14
f 5 14 15
f 5 15 6
f 6 15 16
f 6 16 8
f 9 18 10
f 10 18 19
f 10 19 11
f 11 19 20
f 11 20 12
f 12 20 21
f 12 21 22
f 12 22 23
f 12 23 24
f 12 24 13
f 13 24 25
f 13 25 26
f 13 26 27
f 13 27 28
f 13 28 29
f 13 29 14
f 14 29 15
f 15 29 30
f 15 30 31
f 15 31 32
f 15 32 33
f 15 33 16
f 17 35 34
f 18 36 19
f 19 36 37
f 19 37 38
f 19 38 20
f 20 38 39
f 20 39 40
f 20 40 21
f 21 41 22
f 21 40 42
f 21 42 39
f 21 39 65
f 21 65 37
f 21 37 63
f 21 63 91
f 21 91 119
f 21 119 152
f 21 152 180
f 21 180 211
f 21 211 190
f 21 190 158
f 21 158 124
f 21 124 94
f 21 94 67
f 21 67 66
f 21 66 45
f 21 45 44
f 21 44 43
f 21 43 41
f 22 43 44
f 22 44 45
f 22 45 23
f 22 41 43
f 23 45 46
f 23 46 24
f 24 46 47
f 24 47 48
f 24 48 25
f 25 48 49
f 25 49 50
f 25 50 26
f 26 51 52
f 26 52 53
f 26 53 27
f 26 50 54
f 26 54 55
f 26 55 56
f 26 56 57
f 26 57 58
f 26 58 51
f 27 53 59
f 27 59 60
f 27 60 28
f 28 61 29
f 28 60 61
f 29 61 30
f 30 61 31
f 31 61 60
f 31 60 62
f 34 35 64
f 34 64 93
f 34 93 122
f 34 122 156
f 34 156 174
f 34 174 145
f 34 145 116
f 34 116 91
f 34 91 63
f 37 65 38
f 38 65 39
f 39 42 40
f 45 66 47
f 45 47 46
f 47 66 67
f 47 67 68
f 47 68 49
f 47 49 48
f 49 68 67
f 49 67 69
f 49 69 70
f 49 70 50
f 50 70 69
f 50 69 54
f 51 71 72
f 51 72 52
f 51 58 73
f 51 73 74
f 51 74 71
f 52 59 53
f 52 72 59
f 54 75 76
f 54 76 55
f 54 69 75
f 55 76 56
f 56 77 57
f 56 76 77
f 57 77 78
f 57 78 58
f 58 79 80
f 58 80 73
f 58 78 81
f 58 81 82
f 58 82 83
f 58 83 84
f 58 84 85
f 58 85 79
f 59 86 87
f 59 87 60
f 59 72 88
f 59 88 89
f 59 89 86
f 60 87 90
f 60 90 62
f 64 92 93
f 67 94 69
f 69 94 95
f 69 95 75
f 71 96 97
f 71 97 98
f 71 98 72
f 71 74 99
f 71 99 96
f 72 98 88
f 73 80 100
f 73 100 74
f 74 100 99
f 75 95 76
f 76 95 77
f 77 95 101
f 77 101 78
f 78 101 81
f 79 102 100
f 79 100 80
f 79 85 103
f 79 103 102
f 81 101 104
f 81 104 105
f 81 105 82
f 82 105 106
f 82 106 107
f 82 107 108
f 82 108 109
f 82 109 83
f 83 109 110
f 83 110 111
f 83 111 84
f 84 112 113
f 84 113 114
f 84 114 85
f 84 111 115
f 84 115 112
f 85 114 113
f 85 113 103
f 91 116 117
f 91 117 118
f 91 118 119
f 92 120 93
f 92 121 120
f 93 120 123
f 93 123 122
f 94 124 95
f 95 104 101
f 95 124 106
f 95 106 104
f 99 100 125
f 100 126 125
f 100 102 126
f 102 103 127
f 102 127 128
f 102 128 129
f 102 129 126
f 103 113 130
f 103 130 127
f 104 106 105
f 106 131 132
f 106 132 133
f 106 133 107
f 106 124 131
f 107 133 108
f 108 133 134
f 108 134 135
f 108 135 136
f 108 136 110
f 108 110 109
f 110 136 111
f 111 136 135
f 111 135 137
f 111 137 138
f 111 138 139
f 111 139 140
f 111 140 115
f 112 115 113
f 113 141 130
f 113 115 142
f 113 142 143
f 113 143 141
f 115 140 144
f 115 144 142
f 116 145 117
f 117 145 146
f 117 146 147
f 117 147 118
f 118 147 148
f 118 148 119
f 119 149 150
f 119 150 151
f 119 151 152
f 119 148 149
f 120 121 153
f 120 153 154
f 120 154 123
f 121 155 153
f 122 123 147
f 122 147 156
f 123 154 157
f 123 157 147
f 124 158 159
f 124 159 131
f 127 130 160
f 130 141 160
f 131 159 161
f 131 161 162
f 131 162 132
f 132 162 135
f 132 135 134
f 132 134 133
f 135 162 163
f 135 163 137
f 137 163 138
f 138 163 164
f 138 164 165
f 138 165 166
f 138 166 139
f 139 167 144
f 139 144 140
f 139 166 167
f 141 168 169
f 141 169 160
f 141 143 170
f 141 170 171
f 141 171 168
f 142 172 170
f 142 170 143
f 142 144 172
f 144 173 172
f 144 167 203
f 144 203 173
f 145 174 146
f 146 174 175
f 146 175 147
f 147 175 156
f 147 157 148
f 148 157 176
f 148 176 177
f 148 177 149
f 149 177 176
f 149 176 178
f 149 178 179
f 149 179 150
f 150 179 151
f 151 180 152
f 151 179 181
f 151 181 182
f 151 182 183
f 151 183 184
f 151 184 180
f 153 155 185
f 153 185 186
f 153 186 154
f 154 186 157
f 155 187 185
f 156 175 174
f 157 186 188
f 157 188 189
f 157 189 176
f 158 190 191
f 158 191 159
f 159 191 161
f 161 191 192
f 161 192 162
f 162 192 193
f 162 193 194
f 162 194 195
f 162 195 196
f 162 196 163
f 163 196 195
f 163 195 164
f 164 195 165
f 165 195 197
f 165 197 198
f 165 198 199
f 165 199 200
f 165 200 166
f 166 201 167
f 166 200 202
f 166 202 201
f 167 201 204
f 167 204 203
f 176 189 205
f 176 205 206
f 176 206 207
f 176 207 208
f 176 208 209
f 176 209 178
f 178 209 181
f 178 181 179
f 180 184 210
f 180 210 211
f 181 208 212
f 181 212 213
f 181 213 214
f 181 214 182
f 181 209 208
f 182 214 183
f 183 214 213
f 183 213 215
f 183 215 216
f 183 216 184
f 184 216 210
f 185 187 217
f 185 217 186
f 186 217 188
f 187 218 217
f 188 217 189
f 189 217 219
f 189 219 205
f 190 211 220
f 190 220 191
f 191 220 211
f 191 211 221
f 191 221 192
f 192 221 222
f 192 222 193
f 193 195 194
f 193 222 216
f 193 216 223
f 193 223 195
f 195 223 224
f 195 224 197
f 197 224 198
f 198 224 225
f 198 225 226
f 198 226 227
f 198 227 199
f 199 227 228
f 199 228 200
f 200 228 202
f 201 229 204
f 201 202 230
f 201 230 229
f 202 231 230
f 202 228 231
f 205 232 233
f 205 233 206
f 205 219 232
f 206 233 234
f 206 234 207
f 207 212 208
f 207 234 235
f 207 235 236
f 207 236 237
f 207 237 226
f 207 226 212
f 210 216 222
f 210 222 211
f 211 222 221
f 212 226 238
f 212 238 213
f 213 238 239
f 213 239 215
f 215 239 240
f 215 240 216
f 216 240 224
f 216 224 223
f 217 218 219
f 218 241 219
f 219 242 243
f 219 243 244
f 219 244 232
f 219 241 242
f 224 240 225
f 225 239 226
f 225 240 239
f 226 237 245
f 226 245 227
f 226 239 238
f 227 246 228
f 227 245 246
f 228 247 248
f 228 248 231
f 228 246 247
f 232 244 249
f 232 249 250
f 232 250 233
f 233 250 251
f 233 251 252
f 233 252 235
f 233 235 234
f 235 252 253
f 235 253 254
f 235 254 255
f 235 255 237
f 235 237 236
f 237 255 245
f 245 255 256
f 245 256 246
f 246 257 247
f 246 256 258
f 246 258 257
f 251 259 252
f 252 259 253
f 253 259 260
f 253 260 261
f 253 261 254
f 254 261 262
f 254 262 255
f 255 262 263
f 255 263 256
f 256 263 264
f 256 264 258
f 259 265 260
f 260 265 266
f 260 266 261

