# https://github.com/mikedh/trimesh
v 0.02223619 0.02800298 0.01798670
v 0.02502100 0.03016714 0.01798670
v 0.03168031 0.02800298 0.01798670
v -0.00003293 0.02800298 0.02794483
v 0.02544012 0.03040692 0.01798670
v 0.03166790 0.02910012 0.01798670
v 0.03115564 0.02910012 0.01890036
v 0.03116185 0.02800298 0.01890036
v -0.00003293 0.02800298 0.03642954
v -0.00003293 0.02994959 0.03067315
v 0.02609829 0.03063794 0.01798670
v 0.03118979 0.03035020 0.01798670
v 0.03060924 0.03001713 0.01981762
v 0.03061855 0.02910012 0.01983026
v 0.03061855 0.02800298 0.01983026
v -0.00003293 0.02816410 0.03642954
v 0.00090155 0.02800298 0.03643135
v -0.00003293 0.03023323 0.03114081
v 0.02701414 0.03090461 0.01798670
v -0.00003293 0.03049494 0.03157417
v 0.03058440 0.03060577 0.01798670
v 0.02969959 0.03074759 0.01890036
v 0.03087002 0.03025254 0.01890036
v 0.02996038 0.02910012 0.02073128
v 0.02897002 0.03018819 0.02183272
v 0.02837704 0.02910012 0.02285472
v 0.02906005 0.02910012 0.02195370
v 0.02941708 0.02800298 0.02148243
v 0.03022116 0.02800298 0.02037918
v -0.00003293 0.02910012 0.03642051
v 0.00270221 0.02800298 0.03634829
v 0.00270221 0.02910012 0.03634106
v 0.00090155 0.02910012 0.03642051
v 0.02789894 0.03097567 0.01798670
v -0.00003293 0.03099000 0.03329856
v 0.02969959 0.03086689 0.01798670
v 0.02789894 0.03088385 0.02070058
v 0.02790825 0.03048032 0.02245928
v 0.02962198 0.03032124 0.02053085
v 0.02731528 0.03028206 0.02375393
v 0.02747672 0.02910012 0.02393630
v 0.02838015 0.02800298 0.02286013
v 0.02906316 0.02800298 0.02196092
v -0.00003293 0.02966712 0.03631759
v 0.00450286 0.02800298 0.03615328
v 0.00450286 0.02910012 0.03614244
v 0.00543423 0.03000690 0.03600341
v 0.00450286 0.03009931 0.03606661
v 0.00270221 0.03023498 0.03616592
v 0.00090155 0.03028177 0.03620384
v 0.02881479 0.03098590 0.01798670
v -0.00003293 0.03087917 0.03423568
v 0.00810106 0.03099000 0.03329856
v 0.02789894 0.03099000 0.01890036
v 0.02609829 0.03095403 0.02250081
v 0.02613554 0.03054231 0.02433173
v 0.02555809 0.03029142 0.02557402
v 0.02575057 0.02910012 0.02576902
v 0.02664779 0.02910012 0.02483731
v 0.02698309 0.02800298 0.02449063
v 0.02747982 0.02800298 0.02394171
v -0.00003293 0.03028177 0.03620384
v 0.00488472 0.02800298 0.03610272
v 0.00548391 0.02910012 0.03601063
v 0.00641217 0.02800298 0.03587340
v 0.00638423 0.02910012 0.03585715
v 0.00810106 0.02910012 0.03550144
v 0.01260580 0.03000310 0.03420138
v 0.01170237 0.03018265 0.03434944
v 0.00990172 0.03042768 0.03461307
v 0.00810106 0.03049494 0.03483155
v 0.00270221 0.03073004 0.03509878
v 0.00090155 0.03077683 0.03509878
v -0.00003293 0.03051950 0.03567478
v -0.00003293 0.03077683 0.03509878
v 0.00990172 0.03092245 0.03329856
v 0.01350302 0.03098650 0.03149833
v 0.01530057 0.03099000 0.02969991
v 0.02069943 0.03099000 0.02610126
v 0.02429763 0.03096105 0.02430104
v 0.02433489 0.03053997 0.02614460
v 0.02376054 0.03027826 0.02730382
v 0.02485025 0.02910012 0.02666823
v 0.02575989 0.02800298 0.02577264
v 0.02611070 0.02800298 0.02540970
v 0.02665711 0.02800298 0.02484092
v 0.00551185 0.02800298 0.03601424
v 0.00810106 0.02800298 0.03552491
v 0.00880270 0.02800298 0.03534796
v 0.00990172 0.02910012 0.03504642
v 0.01170237 0.02910012 0.03451195
v 0.01262443 0.02910012 0.03420860
v 0.01352476 0.02910012 0.03382761
v 0.01530057 0.02910012 0.03306743
v 0.01637165 0.03012737 0.03249143
v 0.01530057 0.03033937 0.03272978
v 0.01170237 0.03067741 0.03329856
v 0.01530057 0.03083444 0.03149833
v 0.01709812 0.03098006 0.02969991
v 0.01889878 0.03099000 0.02789968
v 0.02249698 0.03095111 0.02610126
v 0.02069943 0.03088619 0.02789968
v 0.02245351 0.03048003 0.02790329
v 0.02394992 0.02910012 0.02746633
v 0.02182639 0.03019170 0.02897765
v 0.02485025 0.02800298 0.02667365
v 0.02430384 0.02800298 0.02716298
v 0.00990172 0.02800298 0.03506267
v 0.01170237 0.02800298 0.03451917
v 0.01206250 0.02800298 0.03440180
v 0.01060335 0.02800298 0.03485321
v 0.01262753 0.02800298 0.03420860
v 0.01352476 0.02800298 0.03383664
v 0.01422018 0.02800298 0.03354051
v 0.01530057 0.02800298 0.03307466
v 0.01645548 0.02910012 0.03253838
v 0.01735580 0.02910012 0.03203280
v 0.01979289 0.02965483 0.03059370
v 0.01859453 0.03031687 0.03095122
v 0.01702051 0.03046453 0.03153083
v 0.01907574 0.03058618 0.02987686
v 0.02069943 0.03039143 0.02938031
v 0.02285090 0.02910012 0.02836554
v 0.02328864 0.02800298 0.02802247
v 0.02394992 0.02800298 0.02747355
v 0.02195057 0.02910012 0.02907516
v 0.01575384 0.02800298 0.03286701
v 0.01645548 0.02800298 0.03253657
v 0.01735580 0.02800298 0.03203822
v 0.01896708 0.02800298 0.03109928
v 0.01907574 0.02907322 0.03102706
v 0.01980221 0.02845506 0.03060093
v 0.02051936 0.02907322 0.03009715
v 0.02286022 0.02800298 0.02837276
v 0.02063423 0.02800298 0.03002673
v 0.02195989 0.02800298 0.02907877
v 0.01944829 0.02800298 0.03081580
v 0.01980531 0.02800298 0.03060273
f 1 2 5
f 1 5 11
f 1 11 19
f 1 19 34
f 1 34 51
f 1 51 36
f 1 36 21
f 1 21 12
f 1 12 6
f 1 6 3
f 1 3 8
f 1 8 15
f 1 15 29
f 1 29 28
f 1 28 43
f 1 43 42
f 1 42 61
f 1 61 60
f 1 60 86
f 1 86 85
f 1 85 84
f 1 84 106
f 1 106 107
f 1 107 125
f 1 125 124
f 1 124 134
f 1 134 136
f 1 136 135
f 1 135 138
f 1 138 137
f 1 137 130
f 1 130 129
f 1 129 128
f 1 128 127
f 1 127 115
f 1 115 114
f 1 114 113
f 1 113 112
f 1 112 110
f 1 110 109
f 1 109 111
f 1 111 108
f 1 108 89
f 1 89 88
f 1 88 65
f 1 65 87
f 1 87 63
f 1 63 45
f 1 45 31
f 1 31 17
f 1 17 9
f 1 9 4
f 1 4 2
f 2 4 5
f 3 6 7
f 3 7 8
f 4 9 16
f 4 16 30
f 4 30 44
f 4 44 62
f 4 62 74
f 4 74 75
f 4 75 52
f 4 52 35
f 4 35 20
f 4 20 18
f 4 18 10
f 4 10 5
f 5 10 11
f 6 12 13
f 6 13 7
f 7 13 14
f 7 14 8
f 8 14 15
f 9 17 16
f 10 18 11
f 11 18 20
f 11 20 19
f 12 21 22
f 12 22 23
f 12 23 13
f 13 24 14
f 13 23 25
f 13 25 26
f 13 26 27
f 13 27 24
f 14 24 28
f 14 28 29
f 14 29 15
f 16 17 30
f 17 31 32
f 17 32 33
f 17 33 30
f 19 20 35
f 19 35 34
f 21 36 22
f 22 36 37
f 22 37 38
f 22 38 39
f 22 39 23
f 23 39 25
f 24 27 28
f 25 39 38
f 25 38 40
f 25 40 41
f 25 41 26
f 26 41 61
f 26 61 42
f 26 42 43
f 26 43 27
f 27 43 28
f 30 33 44
f 31 45 32
f 32 45 46
f 32 46 47
f 32 47 48
f 32 48 49
f 32 49 33
f 33 49 50
f 33 50 44
f 34 35 51
f 35 52 53
f 35 53 78
f 35 78 100
f 35 100 79
f 35 79 54
f 35 54 51
f 36 51 37
f 37 51 55
f 37 55 56
f 37 56 38
f 38 56 40
f 40 56 57
f 40 57 58
f 40 58 59
f 40 59 41
f 41 59 60
f 41 60 61
f 44 50 62
f 45 63 46
f 46 63 64
f 46 64 47
f 47 64 65
f 47 65 66
f 47 66 67
f 47 67 68
f 47 68 69
f 47 69 70
f 47 70 48
f 48 70 71
f 48 71 49
f 49 72 50
f 49 71 72
f 50 73 74
f 50 74 62
f 50 72 73
f 51 54 55
f 52 75 73
f 52 73 53
f 53 76 77
f 53 77 78
f 53 73 72
f 53 72 76
f 54 79 80
f 54 80 55
f 55 80 56
f 56 80 81
f 56 81 57
f 57 81 82
f 57 82 83
f 57 83 58
f 58 83 84
f 58 84 85
f 58 85 59
f 59 85 86
f 59 86 60
f 63 87 64
f 64 87 65
f 65 88 66
f 66 88 67
f 67 88 89
f 67 89 90
f 67 90 68
f 68 90 91
f 68 91 92
f 68 92 93
f 68 93 94
f 68 94 95
f 68 95 96
f 68 96 69
f 69 96 70
f 70 97 76
f 70 76 71
f 70 96 97
f 71 76 72
f 73 75 74
f 76 97 98
f 76 98 77
f 77 98 99
f 77 99 100
f 77 100 78
f 79 100 80
f 80 100 99
f 80 99 101
f 80 101 81
f 81 101 102
f 81 102 103
f 81 103 82
f 82 104 83
f 82 103 105
f 82 105 104
f 83 106 84
f 83 104 107
f 83 107 106
f 89 108 90
f 90 108 91
f 91 109 110
f 91 110 92
f 91 108 111
f 91 111 109
f 92 110 112
f 92 112 113
f 92 113 93
f 93 113 114
f 93 114 94
f 94 115 116
f 94 116 95
f 94 114 115
f 95 116 117
f 95 117 118
f 95 118 105
f 95 105 119
f 95 119 96
f 96 119 120
f 96 120 98
f 96 98 97
f 98 120 121
f 98 121 102
f 98 102 99
f 99 102 101
f 102 121 122
f 102 122 103
f 103 122 105
f 104 105 123
f 104 123 124
f 104 124 125
f 104 125 107
f 105 126 123
f 105 122 119
f 105 118 126
f 115 127 116
f 116 127 128
f 116 128 129
f 116 129 117
f 117 129 130
f 117 130 131
f 117 131 118
f 118 131 132
f 118 132 133
f 118 133 126
f 119 121 120
f 119 122 121
f 123 126 134
f 123 134 124
f 126 133 135
f 126 135 136
f 126 136 134
f 130 137 131
f 131 137 132
f 132 138 135
f 132 135 133
f 132 137 138

