# https://github.com/mikedh/trimesh
v 0.01393492 0.01944700 0.01611019
v 0.01373988 0.01944700 0.02429171
v 0.01443522 -0.00149861 0.01611019
v -0.01393539 0.01944700 0.01611019
v 0.01443805 -0.00233891 0.01611019
v 0.01337807 0.01944700 0.02623876
v -0.01395517 0.01944487 0.01611019
v -0.01374600 0.01944700 0.02409424
v 0.01292016 0.01944700 0.02729308
v 0.01153796 0.01944700 0.02959755
v 0.01142207 0.01944700 0.02974443
v 0.01061083 0.01944700 0.03041031
v 0.00962435 0.01944700 0.03118391
v 0.00921732 0.01944700 0.03137486
v 0.01431368 -0.00233891 0.01616405
v -0.01443852 -0.00233891 0.01611019
v -0.01443570 -0.00149861 0.01611019
v -0.01373752 0.01944700 0.02429171
v 0.00806971 0.01944700 0.03181388
v 0.01341199 -0.00233891 0.01653779
v 0.01389252 -0.00233891 0.01633868
v -0.01431415 -0.00233891 0.01616405
v -0.00961069 0.01944700 0.03116432
v -0.00997814 0.01944700 0.03094563
v -0.01153843 0.01944700 0.02959755
v -0.01165997 0.01944700 0.02946535
v -0.01337572 0.01944700 0.02618164
v -0.01340964 0.01944700 0.02610657
v 0.00773900 0.01944700 0.03189549
v 0.00887247 -0.00233891 0.01797727
v 0.00989853 -0.00233891 0.01767860
v 0.01169907 -0.00233891 0.01714002
v 0.01261206 -0.00233891 0.01682014
v -0.01341247 -0.00233891 0.01653779
v -0.00807019 0.01944700 0.03180083
v 0.00632005 0.01944700 0.03224149
v 0.00629743 0.01944700 0.03224638
v 0.00797361 -0.00233891 0.01814700
v -0.01169954 -0.00233891 0.01714002
v -0.01073850 -0.00233891 0.01742889
v -0.00989900 -0.00233891 0.01768023
v -0.00936194 -0.00233891 0.01784017
v -0.00887294 -0.00233891 0.01797727
v -0.00629791 0.01944700 0.03224638
v 0.00517245 0.01944700 0.03242754
v 0.00629743 -0.00233891 0.01844730
v -0.00839242 -0.00233891 0.01807193
v -0.00706957 -0.00233891 0.01831184
v -0.00629791 -0.00233891 0.01844730
v -0.00483090 0.01944700 0.03247324
v 0.00482760 0.01944700 0.03247813
v 0.00545793 -0.00233891 0.01856807
v -0.00449736 -0.00233891 0.01870353
v -0.00441822 0.01944700 0.03252873
v 0.00398810 0.01944700 0.03258422
v 0.00449972 -0.00233891 0.01870353
v -0.00269964 -0.00233891 0.01885368
v -0.00344586 0.01944700 0.03263971
v -0.00399140 0.01944700 0.03258585
v 0.00269917 0.01944700 0.03269520
v 0.00365739 -0.00233891 0.01877535
v -0.00089910 -0.00233891 0.01894998
v -0.00269964 0.01944700 0.03270009
v 0.00157701 0.01944700 0.03274742
v 0.00089862 -0.00233891 0.01894998
v 0.00185684 -0.00233891 0.01890101
v 0.00269917 -0.00233891 0.01885368
v -0.00089910 0.01944700 0.03278170
v 0.00089862 0.01944700 0.03277843
f 1 2 3
f 1 3 5
f 1 5 16
f 1 16 17
f 1 17 7
f 1 7 4
f 1 4 8
f 1 8 18
f 1 18 28
f 1 28 27
f 1 27 26
f 1 26 25
f 1 25 24
f 1 24 23
f 1 23 35
f 1 35 44
f 1 44 50
f 1 50 54
f 1 54 59
f 1 59 58
f 1 58 63
f 1 63 68
f 1 68 69
f 1 69 64
f 1 64 60
f 1 60 55
f 1 55 51
f 1 51 45
f 1 45 37
f 1 37 36
f 1 36 29
f 1 29 19
f 1 19 14
f 1 14 13
f 1 13 12
f 1 12 11
f 1 11 10
f 1 10 9
f 1 9 6
f 1 6 2
f 2 5 3
f 2 6 5
f 4 7 8
f 5 6 9
f 5 9 10
f 5 10 11
f 5 11 12
f 5 12 13
f 5 13 14
f 5 14 15
f 5 15 21
f 5 21 20
f 5 20 33
f 5 33 32
f 5 32 31
f 5 31 30
f 5 30 38
f 5 38 46
f 5 46 52
f 5 52 56
f 5 56 61
f 5 61 67
f 5 67 66
f 5 66 65
f 5 65 62
f 5 62 57
f 5 57 53
f 5 53 49
f 5 49 48
f 5 48 47
f 5 47 43
f 5 43 42
f 5 42 41
f 5 41 40
f 5 40 39
f 5 39 34
f 5 34 22
f 5 22 16
f 7 17 8
f 8 17 18
f 14 19 20
f 14 20 21
f 14 21 15
f 16 22 23
f 16 23 24
f 16 24 25
f 16 25 26
f 16 26 27
f 16 27 28
f 16 28 18
f 16 18 17
f 19 29 30
f 19 30 31
f 19 31 32
f 19 32 33
f 19 33 20
f 22 34 23
f 23 34 35
f 29 36 30
f 30 36 37
f 30 37 38
f 34 39 35
f 35 39 40
f 35 40 41
f 35 41 42
f 35 42 43
f 35 43 44
f 37 45 46
f 37 46 38
f 43 47 44
f 44 48 49
f 44 49 50
f 44 47 48
f 45 51 46
f 46 51 52
f 49 53 50
f 50 53 54
f 51 55 56
f 51 56 52
f 53 57 58
f 53 58 59
f 53 59 54
f 55 60 56
f 56 60 61
f 57 62 63
f 57 63 58
f 60 64 65
f 60 65 66
f 60 66 67
f 60 67 61
f 62 65 68
f 62 68 63
f 64 69 65
f 65 69 68

