# https://github.com/mikedh/trimesh
v 0.00090069 0.02729928 -0.03644439
v 0.00090069 0.02810902 -0.03643894
v 0.00189292 0.02810902 -0.03638447
v 0.00270128 0.02729928 -0.03634089
v 0.00270128 0.02549922 -0.03630276
v 0.00090069 0.02549922 -0.03639264
v -0.00003256 0.02549922 -0.03639264
v -0.00003256 0.02729928 -0.03644166
v -0.00003256 0.02810902 -0.03643894
v 0.00270128 0.02810902 -0.03633272
v 0.00450187 0.02810902 -0.03616930
v 0.00450187 0.02729928 -0.03617202
v 0.00464411 0.02542036 -0.03610666
v 0.00534145 0.02476665 -0.03598954
v 0.00414105 0.02449448 -0.03606308
v 0.00270128 0.02439358 -0.03612572
v 0.00090069 0.02432151 -0.03616930
v -0.00003256 0.02432066 -0.03616930
v -0.00003256 0.02810902 -0.02890811
v 0.00557042 0.02810902 -0.03603040
v 0.00557736 0.02729928 -0.03603040
v 0.00551144 0.02596726 -0.03601678
v 0.00618796 0.02542036 -0.03586970
v 0.00810304 0.02549922 -0.03547205
v 0.01133300 0.02433253 -0.03436898
v 0.00990016 0.02401966 -0.03457325
v 0.00809957 0.02357706 -0.03472033
v 0.00630245 0.02370001 -0.03518062
v 0.00464411 0.02381617 -0.03552925
v 0.00450187 0.02234508 -0.03451878
v 0.00474472 0.01944700 -0.03246517
v 0.00435962 0.01944700 -0.03250874
v 0.00389126 0.01944700 -0.03256049
v 0.00270128 0.02349397 -0.03549656
v 0.00090069 0.02342275 -0.03555376
v -0.00003256 0.02342190 -0.03555921
v -0.00003256 0.02798946 -0.00861980
v 0.02737869 0.02810902 -0.00861980
v 0.00606654 0.02810902 -0.03594051
v 0.00647592 0.02729928 -0.03586698
v 0.00810304 0.02729928 -0.03553469
v 0.00990016 0.02549922 -0.03501448
v 0.01183952 0.02372035 -0.03377251
v 0.01170075 0.02224079 -0.03278383
v 0.00990016 0.02312090 -0.03396861
v 0.01164871 0.02549922 -0.03448337
v 0.01254727 0.02549922 -0.03417833
v 0.01631497 0.02450974 -0.03245699
v 0.01530192 0.02416974 -0.03268033
v 0.01356031 0.02359063 -0.03302623
v 0.00869630 0.02289451 -0.03413203
v 0.00749591 0.02270797 -0.03426276
v 0.00630245 0.02253755 -0.03438260
v 0.00630245 0.02163795 -0.03376161
v 0.00630245 0.02033983 -0.03286009
v 0.00627470 0.01944700 -0.03224183
v 0.00339168 0.01944700 -0.03260407
v 0.00270128 0.01944700 -0.03265309
v 0.00090069 0.01944700 -0.03276749
v -0.00003256 0.01944700 -0.03277294
v -0.00003256 0.01944700 -0.00861980
v 0.03538940 0.02810902 -0.00861980
v 0.00810304 0.02810902 -0.03551018
v 0.00990016 0.02810902 -0.03506895
v 0.00990016 0.02729928 -0.03507712
v 0.01299828 0.02257316 -0.03255504
v 0.01170075 0.02134119 -0.03211382
v 0.01055933 0.02108173 -0.03232354
v 0.00993832 0.02176937 -0.03298810
v 0.01169034 0.02729928 -0.03451061
v 0.01259237 0.02729928 -0.03419467
v 0.01350133 0.02729928 -0.03385149
v 0.01350133 0.02549922 -0.03379429
v 0.01665496 0.02246887 -0.03082826
v 0.01530192 0.02327098 -0.03205934
v 0.01530192 0.02549922 -0.03302351
v 0.01641558 0.02549922 -0.03250602
v 0.01731414 0.02549922 -0.03201849
v 0.01975655 0.02497777 -0.03057224
v 0.01855616 0.02411123 -0.03092087
v 0.01785189 0.02291147 -0.03052049
v 0.01419520 0.02291741 -0.03231537
v 0.00810304 0.02064168 -0.03265582
v 0.00634755 0.01944700 -0.03222549
v 0.00630245 0.01944700 -0.03223638
v 0.03324535 0.01944700 -0.00861980
v 0.03539981 0.02781904 -0.00861980
v 0.03532001 0.02810902 -0.00891123
v 0.01168340 0.02810902 -0.03450516
v 0.01356031 0.02194403 -0.03184418
v 0.01455254 0.02094183 -0.03066212
v 0.00807182 0.01944700 -0.03179515
v 0.01217605 0.02810902 -0.03433357
v 0.01258196 0.02810902 -0.03418922
v 0.01350133 0.02810902 -0.03384604
v 0.01530192 0.02729928 -0.03308071
v 0.01575294 0.02126911 -0.03036797
v 0.01521172 0.02188129 -0.03108429
v 0.01719271 0.02188129 -0.03008471
v 0.01644680 0.02729928 -0.03252236
v 0.01734883 0.02729928 -0.03205662
v 0.01981553 0.02617753 -0.03061038
v 0.01905228 0.02554670 -0.03102164
v 0.02053022 0.02554670 -0.03006837
v 0.02193877 0.02549922 -0.02905518
v 0.02179999 0.02436644 -0.02895168
v 0.02064470 0.02374070 -0.02931937
v 0.01905228 0.02358724 -0.03025903
v 0.02000981 0.02260284 -0.02893807
v 0.01877473 0.02196184 -0.02922677
v 0.01809127 0.02095370 -0.02885091
v 0.03293657 0.01944700 -0.00945595
v 0.03397391 0.02361098 -0.01185275
v 0.03413350 0.02295132 -0.01058354
v 0.03406064 0.02135984 -0.00861980
v 0.03540674 0.02729928 -0.00861980
v 0.03524716 0.02810902 -0.00919721
v 0.00961567 0.01944700 -0.03116599
v 0.01449356 0.02810902 -0.03342116
v 0.01530192 0.02810902 -0.03307253
v 0.01593334 0.02810902 -0.03276749
v 0.01643639 0.02810902 -0.03251691
v 0.01733842 0.02810902 -0.03205390
v 0.01889963 0.02729928 -0.03116599
v 0.01981553 0.02729928 -0.03061038
v 0.02071409 0.02729928 -0.02998122
v 0.02198040 0.02729928 -0.02908242
v 0.02287896 0.02729928 -0.02837700
v 0.02284080 0.02549922 -0.02834432
v 0.02390241 0.02549922 -0.02744279
v 0.02371160 0.02422145 -0.02726848
v 0.02250080 0.02369492 -0.02789764
v 0.02199775 0.02236967 -0.02732840
v 0.02121021 0.02316669 -0.02852680
v 0.01929166 0.02140308 -0.02845054
v 0.02068981 0.02188638 -0.02788947
v 0.02137327 0.02116906 -0.02683543
v 0.02017287 0.02083076 -0.02724942
v 0.01877473 0.02068916 -0.02787040
v 0.00997995 0.01944700 -0.03094538
v 0.03282556 0.01944700 -0.00975555
v 0.03337024 0.02370001 -0.01350054
v 0.03437635 0.02415023 -0.01135432
v 0.03457757 0.02361098 -0.00995165
v 0.03430350 0.02251381 -0.00938514
v 0.03495226 0.02367542 -0.00861980
v 0.03536511 0.02549922 -0.00861980
v 0.03503552 0.02549922 -0.00990263
v 0.03507369 0.02729928 -0.00990263
v 0.03506328 0.02810902 -0.00990263
v 0.01897942 0.02810902 -0.03110880
v 0.01980512 0.02810902 -0.03060220
v 0.02062042 0.02810902 -0.03003297
v 0.01945819 0.02810902 -0.03081737
v 0.02197693 0.02810902 -0.02907697
v 0.02247305 0.02810902 -0.02869022
v 0.02287549 0.02810902 -0.02837428
v 0.02392670 0.02729928 -0.02747820
v 0.02480097 0.02549922 -0.02663932
v 0.02553994 0.02412565 -0.02553898
v 0.02440547 0.02357452 -0.02618720
v 0.02319814 0.02302254 -0.02683270
v 0.02389548 0.02225096 -0.02563431
v 0.02333691 0.02105121 -0.02514133
v 0.02213652 0.02075360 -0.02563431
v 0.02074185 0.02055265 -0.02617903
v 0.01154116 0.01944700 -0.02959718
v 0.02263957 0.02049753 -0.02444408
v 0.03246822 0.02266813 -0.01454097
v 0.03235026 0.01944700 -0.01056992
v 0.03058783 0.02100881 -0.01618876
v 0.03418207 0.02508376 -0.01255544
v 0.03267638 0.02380260 -0.01520553
v 0.03246127 0.02447073 -0.01632222
v 0.03508063 0.02421976 -0.00861980
v 0.03443533 0.02561029 -0.01185275
v 0.03451512 0.02729928 -0.01170022
v 0.03481696 0.02810902 -0.01071155
v 0.02392323 0.02810902 -0.02747275
v 0.02441935 0.02810902 -0.02702608
v 0.02482873 0.02729928 -0.02666384
v 0.02577239 0.02729928 -0.02576232
v 0.02574117 0.02549922 -0.02573780
v 0.02509587 0.02292673 -0.02510047
v 0.02664319 0.02549922 -0.02480905
v 0.02727114 0.02418839 -0.02371415
v 0.02620259 0.02355756 -0.02440595
v 0.02453730 0.02163285 -0.02452034
v 0.02517913 0.02101474 -0.02338186
v 0.02398221 0.02073919 -0.02394021
v 0.02069674 0.02007275 -0.02429973
v 0.03153496 0.01944700 -0.01167026
v 0.02446792 0.02048821 -0.02266827
v 0.03088619 0.02231964 -0.01710118
v 0.03062599 0.02275037 -0.01804628
v 0.03215250 0.02327182 -0.01574209
v 0.03222536 0.01944700 -0.01076329
v 0.02899887 0.02085365 -0.01832953
v 0.02860337 0.02123435 -0.01952793
v 0.03029294 0.02142004 -0.01710118
v 0.03303372 0.02549922 -0.01530086
v 0.03388717 0.02561029 -0.01332623
v 0.03420289 0.02628352 -0.01260991
v 0.03202414 0.02549922 -0.01731634
v 0.03250638 0.02549922 -0.01641755
v 0.03086885 0.02370001 -0.01846027
v 0.03057742 0.02505662 -0.01976761
v 0.03450819 0.02810902 -0.01170022
v 0.03420635 0.02729928 -0.01262353
v 0.03437635 0.02810902 -0.01211694
v 0.02482179 0.02810902 -0.02665839
v 0.02577239 0.02810902 -0.02575959
v 0.02667442 0.02729928 -0.02484173
v 0.02686523 0.02298863 -0.02325385
v 0.02566484 0.02221536 -0.02389935
v 0.02744461 0.02549922 -0.02390752
v 0.02895377 0.02433846 -0.02180488
v 0.02792685 0.02366439 -0.02253209
v 0.02628932 0.02164642 -0.02271730
v 0.02691380 0.02107834 -0.02150529
v 0.02740298 0.02076801 -0.02030689
v 0.02571341 0.02073749 -0.02218347
v 0.03183679 0.01944700 -0.01131074
v 0.02901969 0.02243411 -0.02011079
v 0.03029987 0.02370001 -0.01935907
v 0.02799277 0.02175665 -0.02080804
v 0.03306494 0.02729928 -0.01530086
v 0.03384207 0.02729928 -0.01352233
v 0.03205536 0.02729928 -0.01734630
v 0.03102150 0.02559418 -0.01905947
v 0.03252026 0.02729928 -0.01644751
v 0.02905785 0.02549922 -0.02194379
v 0.03007090 0.02559418 -0.02052750
v 0.03060518 0.02625638 -0.01981119
v 0.03420635 0.02810902 -0.01262353
v 0.02626850 0.02810902 -0.02525300
v 0.02667095 0.02810902 -0.02483901
v 0.02711155 0.02810902 -0.02434331
v 0.02747236 0.02729928 -0.02394293
v 0.02738216 0.02227810 -0.02205546
v 0.02834317 0.02549922 -0.02283986
v 0.02937009 0.02372374 -0.02070726
v 0.02858255 0.02313955 -0.02130918
v 0.03305800 0.02810902 -0.01530086
v 0.03383860 0.02810902 -0.01352505
v 0.03281862 0.02810902 -0.01581290
v 0.03104579 0.02733320 -0.01907853
v 0.03205536 0.02810902 -0.01734358
v 0.03231209 0.02810902 -0.01684788
v 0.03251678 0.02810902 -0.01644478
v 0.02908908 0.02729928 -0.02197647
v 0.03060518 0.02675664 -0.01981119
v 0.03010559 0.02733320 -0.02052750
v 0.02746543 0.02810902 -0.02394021
v 0.02796154 0.02810902 -0.02335190
v 0.02837092 0.02729928 -0.02287527
v 0.03109436 0.02810902 -0.01899138
v 0.02908908 0.02810902 -0.02197375
v 0.02966152 0.02810902 -0.02116211
v 0.03059477 0.02795640 -0.01979485
v 0.03004662 0.02810902 -0.02060376
v 0.03051151 0.02810902 -0.01991469
v 0.02836398 0.02810902 -0.02287255
v 0.03059130 0.02810902 -0.01979212
f 1 2 3
f 1 3 4
f 1 4 5
f 1 5 6
f 1 6 7
f 1 7 8
f 1 8 9
f 1 9 2
f 2 9 19
f 2 19 38
f 2 38 62
f 2 62 88
f 2 88 117
f 2 117 150
f 2 150 178
f 2 178 208
f 2 208 210
f 2 210 235
f 2 235 245
f 2 245 244
f 2 244 246
f 2 246 250
f 2 250 249
f 2 249 248
f 2 248 257
f 2 257 264
f 2 264 262
f 2 262 261
f 2 261 259
f 2 259 258
f 2 258 263
f 2 263 255
f 2 255 254
f 2 254 238
f 2 238 237
f 2 237 236
f 2 236 212
f 2 212 211
f 2 211 180
f 2 180 179
f 2 179 157
f 2 157 156
f 2 156 155
f 2 155 153
f 2 153 152
f 2 152 154
f 2 154 151
f 2 151 123
f 2 123 122
f 2 122 121
f 2 121 120
f 2 120 119
f 2 119 95
f 2 95 94
f 2 94 93
f 2 93 89
f 2 89 64
f 2 64 63
f 2 63 39
f 2 39 20
f 2 20 11
f 2 11 10
f 2 10 3
f 3 10 4
f 4 10 11
f 4 11 12
f 4 12 5
f 5 12 13
f 5 13 14
f 5 14 15
f 5 15 16
f 5 16 6
f 6 17 18
f 6 18 7
f 6 16 17
f 7 18 36
f 7 36 60
f 7 60 61
f 7 61 37
f 7 37 19
f 7 19 9
f 7 9 8
f 11 20 12
f 12 20 21
f 12 21 22
f 12 22 13
f 13 22 14
f 14 22 23
f 14 23 24
f 14 24 25
f 14 25 26
f 14 26 27
f 14 27 28
f 14 28 15
f 15 29 30
f 15 30 31
f 15 31 32
f 15 32 33
f 15 33 16
f 15 28 29
f 16 33 34
f 16 34 35
f 16 35 17
f 17 35 36
f 17 36 18
f 19 37 38
f 20 39 21
f 21 39 40
f 21 40 22
f 22 40 23
f 23 40 41
f 23 41 24
f 24 41 65
f 24 65 42
f 24 42 25
f 25 43 44
f 25 44 45
f 25 45 26
f 25 42 46
f 25 46 47
f 25 47 48
f 25 48 49
f 25 49 50
f 25 50 43
f 26 45 51
f 26 51 27
f 27 52 28
f 27 51 52
f 28 53 29
f 28 52 53
f 29 31 30
f 29 53 54
f 29 54 55
f 29 55 56
f 29 56 31
f 31 56 85
f 31 85 84
f 31 84 92
f 31 92 118
f 31 118 140
f 31 140 167
f 31 167 192
f 31 192 223
f 31 223 197
f 31 197 170
f 31 170 141
f 31 141 112
f 31 112 86
f 31 86 61
f 31 61 60
f 31 60 59
f 31 59 58
f 31 58 57
f 31 57 33
f 31 33 32
f 33 57 34
f 34 57 58
f 34 58 59
f 34 59 35
f 35 59 36
f 36 59 60
f 37 61 86
f 37 86 115
f 37 115 146
f 37 146 175
f 37 175 147
f 37 147 116
f 37 116 87
f 37 87 62
f 37 62 38
f 39 63 41
f 39 41 40
f 41 63 64
f 41 64 65
f 42 65 46
f 43 66 44
f 43 50 66
f 44 66 67
f 44 67 68
f 44 68 45
f 45 68 69
f 45 69 51
f 46 65 70
f 46 70 47
f 47 70 71
f 47 71 72
f 47 72 73
f 47 73 48
f 48 74 75
f 48 75 49
f 48 73 76
f 48 76 77
f 48 77 78
f 48 78 79
f 48 79 80
f 48 80 81
f 48 81 74
f 49 75 82
f 49 82 50
f 50 82 66
f 51 69 83
f 51 83 84
f 51 84 85
f 51 85 52
f 52 85 55
f 52 55 54
f 52 54 53
f 55 85 56
f 62 87 88
f 64 89 65
f 65 89 70
f 66 82 90
f 66 90 67
f 67 90 91
f 67 91 68
f 68 91 92
f 68 92 83
f 68 83 69
f 70 93 71
f 70 89 93
f 71 94 95
f 71 95 72
f 71 93 94
f 72 95 96
f 72 96 76
f 72 76 73
f 74 97 98
f 74 98 75
f 74 81 99
f 74 99 97
f 75 98 82
f 76 96 77
f 77 96 100
f 77 100 101
f 77 101 78
f 78 101 102
f 78 102 103
f 78 103 79
f 79 103 102
f 79 102 104
f 79 104 105
f 79 105 106
f 79 106 80
f 80 106 107
f 80 107 108
f 80 108 81
f 81 108 109
f 81 109 110
f 81 110 111
f 81 111 99
f 82 98 91
f 82 91 90
f 83 92 84
f 86 112 113
f 86 113 114
f 86 114 115
f 87 116 117
f 87 117 88
f 91 118 92
f 91 98 97
f 91 97 111
f 91 111 118
f 95 119 96
f 96 120 121
f 96 121 100
f 96 119 120
f 97 99 111
f 100 121 122
f 100 122 123
f 100 123 101
f 101 123 124
f 101 124 102
f 102 124 125
f 102 125 126
f 102 126 127
f 102 127 105
f 102 105 104
f 105 127 128
f 105 128 129
f 105 129 106
f 106 129 130
f 106 130 131
f 106 131 132
f 106 132 133
f 106 133 134
f 106 134 107
f 107 109 108
f 107 134 109
f 109 135 110
f 109 134 136
f 109 136 135
f 110 135 111
f 111 135 137
f 111 137 138
f 111 138 139
f 111 139 140
f 111 140 118
f 112 141 113
f 113 141 142
f 113 142 143
f 113 143 114
f 114 143 144
f 114 144 145
f 114 145 115
f 115 145 144
f 115 144 146
f 116 147 148
f 116 148 149
f 116 149 117
f 117 149 150
f 123 151 124
f 124 151 125
f 125 152 153
f 125 153 126
f 125 151 154
f 125 154 152
f 126 155 127
f 126 153 155
f 127 155 156
f 127 156 157
f 127 157 128
f 128 157 158
f 128 158 130
f 128 130 129
f 130 158 159
f 130 159 131
f 131 159 160
f 131 160 161
f 131 161 162
f 131 162 132
f 132 162 133
f 133 137 134
f 133 162 163
f 133 163 164
f 133 164 137
f 134 137 136
f 135 136 137
f 137 164 165
f 137 165 138
f 138 165 166
f 138 166 140
f 138 140 139
f 140 166 168
f 140 168 167
f 141 169 142
f 141 170 171
f 141 171 169
f 142 172 143
f 142 169 173
f 142 173 174
f 142 174 172
f 143 148 147
f 143 147 175
f 143 175 146
f 143 146 144
f 143 172 148
f 148 172 176
f 148 176 149
f 149 176 177
f 149 177 178
f 149 178 150
f 157 179 158
f 158 179 180
f 158 180 181
f 158 181 159
f 159 181 182
f 159 182 183
f 159 183 160
f 160 184 161
f 160 183 185
f 160 185 186
f 160 186 187
f 160 187 184
f 161 184 162
f 162 184 163
f 163 184 164
f 164 184 188
f 164 188 189
f 164 189 190
f 164 190 165
f 165 168 166
f 165 190 168
f 167 168 191
f 167 191 192
f 168 190 193
f 168 193 192
f 168 192 191
f 169 194 195
f 169 195 196
f 169 196 174
f 169 174 173
f 169 171 194
f 170 197 171
f 171 198 199
f 171 199 200
f 171 200 195
f 171 195 194
f 171 197 198
f 172 174 201
f 172 201 202
f 172 202 203
f 172 203 176
f 174 204 205
f 174 205 201
f 174 196 195
f 174 195 206
f 174 206 207
f 174 207 204
f 176 203 177
f 177 208 178
f 177 203 209
f 177 209 210
f 177 210 208
f 180 211 181
f 181 211 212
f 181 212 182
f 182 212 213
f 182 213 183
f 183 213 185
f 184 187 214
f 184 214 215
f 184 215 189
f 184 189 188
f 185 213 216
f 185 216 186
f 186 216 217
f 186 217 218
f 186 218 214
f 186 214 187
f 189 215 219
f 189 219 220
f 189 220 221
f 189 221 222
f 189 222 190
f 190 222 193
f 192 193 222
f 192 222 221
f 192 221 223
f 195 200 199
f 195 199 224
f 195 224 225
f 195 225 206
f 197 223 198
f 198 221 199
f 198 223 221
f 199 221 220
f 199 220 226
f 199 226 224
f 201 205 227
f 201 227 228
f 201 228 202
f 202 228 203
f 203 228 209
f 204 229 205
f 204 207 230
f 204 230 229
f 205 231 227
f 205 229 231
f 206 225 207
f 207 225 217
f 207 217 232
f 207 232 233
f 207 233 234
f 207 234 230
f 209 228 235
f 209 235 210
f 212 236 213
f 213 236 237
f 213 237 238
f 213 238 239
f 213 239 216
f 214 218 240
f 214 240 219
f 214 219 215
f 216 239 256
f 216 256 241
f 216 241 217
f 217 225 242
f 217 242 224
f 217 224 243
f 217 243 218
f 217 241 232
f 218 243 240
f 219 240 220
f 220 240 226
f 224 226 243
f 224 242 225
f 226 240 243
f 227 244 245
f 227 245 228
f 227 231 246
f 227 246 244
f 228 245 235
f 229 230 234
f 229 234 247
f 229 247 248
f 229 248 249
f 229 249 231
f 231 249 250
f 231 250 246
f 232 241 251
f 232 251 234
f 232 234 233
f 234 252 247
f 234 251 253
f 234 253 252
f 238 254 239
f 239 254 255
f 239 255 256
f 241 256 251
f 247 252 257
f 247 257 248
f 251 256 258
f 251 258 259
f 251 259 253
f 252 260 257
f 252 253 259
f 252 259 261
f 252 261 262
f 252 262 260
f 255 263 256
f 256 263 258
f 257 260 264
f 260 262 264

