# https://github.com/mikedh/trimesh
v -0.03163162 0.02801440 0.01807903
v -0.03116152 0.02801440 0.01890179
v -0.03115534 0.02910025 0.01890179
v -0.03162544 0.02852616 0.01807903
v -0.02223274 0.02801440 0.01807903
v -0.03094813 0.02801440 0.01927005
v -0.03062029 0.02910025 0.01983054
v -0.03161616 0.02910025 0.01807903
v -0.03061102 0.03001717 0.01981796
v -0.02498838 0.03018581 0.01807903
v -0.00003603 0.02801440 0.02805811
v -0.03061720 0.02801440 0.01983054
v -0.02996463 0.02801440 0.02073054
v -0.02906464 0.02801440 0.02196108
v -0.02995844 0.02910025 0.02073054
v -0.03148317 0.02964755 0.01807903
v -0.03087080 0.03025251 0.01890179
v -0.02905845 0.02910025 0.02195390
v -0.02837804 0.02910025 0.02285390
v -0.02896876 0.03018843 0.02183354
v -0.02609868 0.03065942 0.01807903
v -0.00003603 0.02994959 0.03067369
v -0.00003603 0.02801440 0.03642940
v -0.02879247 0.02801440 0.02231857
v -0.03115843 0.03034019 0.01807903
v -0.02962133 0.03032125 0.02053114
v -0.02969865 0.03074767 0.01890179
v -0.02837804 0.02801440 0.02286109
v -0.02802238 0.02801440 0.02329043
v -0.02747805 0.02910025 0.02393714
v -0.02731723 0.03028222 0.02375391
v -0.02790794 0.03048029 0.02246049
v -0.02789867 0.03097690 0.01807903
v -0.00003603 0.03049485 0.03157370
v -0.00003603 0.03023300 0.03114076
v -0.00090200 0.02801440 0.03642940
v -0.00003603 0.02816411 0.03642940
v -0.02969865 0.03085456 0.01807903
v -0.02789867 0.03088369 0.02070000
v -0.02747805 0.02801440 0.02394073
v -0.02665847 0.02801440 0.02484074
v -0.02664919 0.02910025 0.02483714
v -0.02556055 0.03029155 0.02557367
v -0.02613580 0.03054232 0.02433235
v -0.02789867 0.03098971 0.01890179
v -0.00003603 0.03098971 0.03329825
v -0.00003603 0.03075233 0.03247011
v -0.00270198 0.02801440 0.03634677
v -0.00090200 0.02910025 0.03642222
v -0.00270198 0.02910025 0.03634138
v -0.00003603 0.02910025 0.03642222
v -0.02609868 0.03095389 0.02250001
v -0.02630281 0.02801440 0.02521080
v -0.02574920 0.02910025 0.02576769
v -0.02484921 0.02910025 0.02666769
v -0.02376056 0.03027843 0.02730542
v -0.02433581 0.03053999 0.02614493
v -0.02429870 0.03096117 0.02430001
v -0.02069873 0.03098971 0.02610002
v -0.00810194 0.03098971 0.03329825
v -0.00003603 0.03087903 0.03423598
v -0.00378754 0.02801440 0.03623180
v -0.00090200 0.03028193 0.03620485
v -0.00270198 0.03023504 0.03616533
v -0.00003603 0.02966706 0.03631803
v -0.00450197 0.03009931 0.03606653
v -0.00543289 0.03000697 0.03600366
v -0.00450197 0.02910025 0.03614377
v -0.02575848 0.02801440 0.02577308
v -0.02540282 0.02801440 0.02613056
v -0.02485230 0.02801440 0.02667308
v -0.02395231 0.02801440 0.02747248
v -0.02394922 0.02910025 0.02746530
v -0.02182450 0.03019193 0.02897788
v -0.02245542 0.03048029 0.02790183
v -0.02069873 0.03088631 0.02789823
v -0.02249872 0.03095127 0.02610002
v -0.01709876 0.03098010 0.02969824
v -0.01889875 0.03098971 0.02789823
v -0.01350189 0.03098651 0.03149825
v -0.00990192 0.03092243 0.03329825
v -0.00270198 0.03072990 0.03509826
v -0.00090200 0.03077680 0.03509826
v -0.01530187 0.03098971 0.02969824
v -0.00003603 0.03077680 0.03509826
v -0.00450197 0.02801440 0.03615276
v -0.00003603 0.03028193 0.03620485
v -0.00003603 0.03051932 0.03567491
v -0.00810194 0.03049485 0.03483060
v -0.00990192 0.03042757 0.03461323
v -0.00548237 0.02910025 0.03601084
v -0.01170191 0.03018260 0.03434916
v -0.01260808 0.03000319 0.03420185
v -0.00810194 0.02910025 0.03550066
v -0.00638236 0.02910025 0.03585815
v -0.00605453 0.02801440 0.03593359
v -0.02286057 0.02801440 0.02837249
v -0.02285129 0.02910025 0.02836530
v -0.02195130 0.02910025 0.02907489
v -0.01979255 0.02964842 0.03059465
v -0.01637197 0.03012727 0.03249167
v -0.01859256 0.03031689 0.03095214
v -0.02069873 0.03039145 0.02938027
v -0.01907504 0.03058602 0.02987609
v -0.01530187 0.03083447 0.03149825
v -0.01170191 0.03067747 0.03329825
v -0.00512052 0.02801440 0.03606832
v -0.01530187 0.03033960 0.03272879
v -0.00551021 0.02801440 0.03601443
v -0.01530187 0.02910025 0.03306652
v -0.01352354 0.02910025 0.03382820
v -0.01262355 0.02910025 0.03420724
v -0.01170191 0.02910025 0.03451084
v -0.00990192 0.02910025 0.03504617
v -0.00810194 0.02801440 0.03552581
v -0.00741844 0.02801440 0.03566773
v -0.00641020 0.02801440 0.03587252
v -0.02250181 0.02801440 0.02865452
v -0.02196058 0.02801440 0.02907848
v -0.02051935 0.02906938 0.03009704
v -0.01980183 0.02844869 0.03060184
v -0.01907504 0.02906938 0.03102759
v -0.01735546 0.02910025 0.03203178
v -0.01645547 0.02910025 0.03253837
v -0.01702144 0.03046456 0.03153058
v -0.01530187 0.02801440 0.03307370
v -0.01352663 0.02801440 0.03383718
v -0.01316787 0.02801440 0.03398808
v -0.01262664 0.02801440 0.03420904
v -0.01170191 0.02801440 0.03451982
v -0.00990192 0.02801440 0.03506234
v -0.02063069 0.02801440 0.03002698
v -0.02014513 0.02801440 0.03036651
v -0.01980493 0.02801440 0.03060184
v -0.01896988 0.02801440 0.03109765
v -0.01828638 0.02801440 0.03149825
v -0.01735546 0.02801440 0.03203717
v -0.01699670 0.02801440 0.03223837
v -0.01645547 0.02801440 0.03253657
f 1 2 3
f 1 3 4
f 1 4 8
f 1 8 16
f 1 16 25
f 1 25 38
f 1 38 33
f 1 33 21
f 1 21 10
f 1 10 5
f 1 5 11
f 1 11 23
f 1 23 36
f 1 36 48
f 1 48 62
f 1 62 86
f 1 86 107
f 1 107 109
f 1 109 96
f 1 96 117
f 1 117 116
f 1 116 115
f 1 115 131
f 1 131 130
f 1 130 129
f 1 129 128
f 1 128 127
f 1 127 126
f 1 126 139
f 1 139 138
f 1 138 137
f 1 137 136
f 1 136 135
f 1 135 134
f 1 134 133
f 1 133 132
f 1 132 119
f 1 119 118
f 1 118 97
f 1 97 72
f 1 72 71
f 1 71 70
f 1 70 69
f 1 69 53
f 1 53 41
f 1 41 40
f 1 40 29
f 1 29 28
f 1 28 24
f 1 24 14
f 1 14 13
f 1 13 12
f 1 12 6
f 1 6 2
f 2 6 7
f 2 7 3
f 3 8 4
f 3 7 9
f 3 9 8
f 5 10 11
f 6 12 7
f 7 12 13
f 7 13 14
f 7 14 15
f 7 15 9
f 8 9 16
f 9 17 16
f 9 15 18
f 9 18 19
f 9 19 20
f 9 20 17
f 10 21 11
f 11 22 35
f 11 35 34
f 11 34 47
f 11 47 46
f 11 46 61
f 11 61 85
f 11 85 88
f 11 88 87
f 11 87 65
f 11 65 51
f 11 51 37
f 11 37 23
f 11 21 22
f 14 24 19
f 14 19 18
f 14 18 15
f 16 17 25
f 17 20 26
f 17 26 27
f 17 27 25
f 19 24 28
f 19 28 29
f 19 29 30
f 19 30 20
f 20 30 31
f 20 31 32
f 20 32 26
f 21 33 34
f 21 34 35
f 21 35 22
f 23 37 36
f 25 27 38
f 26 32 27
f 27 32 39
f 27 39 38
f 29 40 30
f 30 40 41
f 30 41 42
f 30 42 31
f 31 42 43
f 31 43 44
f 31 44 32
f 32 44 39
f 33 38 45
f 33 45 46
f 33 46 47
f 33 47 34
f 36 37 49
f 36 49 50
f 36 50 48
f 37 51 49
f 38 39 45
f 39 44 52
f 39 52 45
f 41 53 42
f 42 53 54
f 42 54 43
f 43 54 55
f 43 55 56
f 43 56 57
f 43 57 44
f 44 57 58
f 44 58 52
f 45 52 58
f 45 58 59
f 45 59 79
f 45 79 84
f 45 84 60
f 45 60 46
f 46 60 61
f 48 50 62
f 49 63 64
f 49 64 50
f 49 51 65
f 49 65 63
f 50 64 66
f 50 66 67
f 50 67 68
f 50 68 62
f 53 69 54
f 54 69 70
f 54 70 55
f 55 70 71
f 55 71 72
f 55 72 73
f 55 73 56
f 56 73 74
f 56 74 75
f 56 75 57
f 57 75 76
f 57 76 77
f 57 77 58
f 58 77 78
f 58 78 79
f 58 79 59
f 60 80 81
f 60 81 82
f 60 82 83
f 60 83 61
f 60 84 80
f 61 83 85
f 62 68 86
f 63 83 82
f 63 82 64
f 63 65 87
f 63 87 88
f 63 88 83
f 64 82 89
f 64 89 66
f 66 89 90
f 66 90 67
f 67 91 68
f 67 90 92
f 67 92 93
f 67 93 94
f 67 94 95
f 67 95 96
f 67 96 91
f 68 91 86
f 72 97 73
f 73 97 98
f 73 98 74
f 74 98 99
f 74 99 100
f 74 100 101
f 74 101 102
f 74 102 103
f 74 103 75
f 75 103 76
f 76 103 104
f 76 104 105
f 76 105 78
f 76 78 77
f 78 105 80
f 78 80 79
f 79 80 84
f 80 105 81
f 81 90 89
f 81 89 82
f 81 105 106
f 81 106 90
f 83 88 85
f 86 91 107
f 90 106 108
f 90 108 92
f 91 109 107
f 91 96 109
f 92 108 93
f 93 110 111
f 93 111 112
f 93 112 113
f 93 113 114
f 93 114 94
f 93 108 101
f 93 101 110
f 94 114 115
f 94 115 95
f 95 115 116
f 95 116 117
f 95 117 96
f 97 118 99
f 97 99 98
f 99 119 120
f 99 120 100
f 99 118 119
f 100 120 121
f 100 121 122
f 100 122 123
f 100 123 101
f 101 108 102
f 101 123 124
f 101 124 110
f 102 108 125
f 102 125 104
f 102 104 103
f 104 125 105
f 105 125 108
f 105 108 106
f 110 126 127
f 110 127 111
f 110 124 126
f 111 127 112
f 112 127 128
f 112 128 129
f 112 129 130
f 112 130 113
f 113 130 131
f 113 131 114
f 114 131 115
f 119 132 120
f 120 132 133
f 120 133 121
f 121 134 135
f 121 135 122
f 121 133 134
f 122 135 136
f 122 136 123
f 123 136 137
f 123 137 124
f 124 137 138
f 124 138 139
f 124 139 126

