# https://github.com/mikedh/trimesh
v -0.02742588 -0.14909843 -0.00089827
v -0.02717890 -0.14009160 -0.00266882
v -0.02717890 -0.14368560 -0.00266882
v -0.02717890 -0.14909843 -0.00266511
v -0.02711984 -0.15016062 -0.00237558
v -0.02721112 -0.15027702 -0.00089827
v -0.02742588 -0.14909843 0.00089827
v -0.02740441 -0.04650212 -0.00089827
v -0.02699098 -0.14009160 -0.00357080
v -0.02739367 -0.00235558 -0.00089827
v -0.02715205 -0.01770647 -0.00259087
v -0.02715205 -0.02130047 -0.00259829
v -0.02715205 -0.02310475 -0.00260201
v -0.02698024 -0.02310475 -0.00350027
v -0.02699098 -0.14189588 -0.00357080
v -0.02699098 -0.14729415 -0.00356709
v -0.02698561 -0.14909843 -0.00356338
v -0.02665272 -0.14909843 -0.00449876
v -0.02527820 -0.15010242 -0.00732348
v -0.02553593 -0.15032068 -0.00629901
v -0.02591714 -0.15048074 -0.00449876
v -0.02627151 -0.15049529 -0.00286555
v -0.02721112 -0.15027702 0.00089827
v -0.02609969 -0.15077175 -0.00089827
v -0.02711984 -0.15016062 0.00237558
v -0.02717890 -0.14909843 0.00266511
v -0.02717890 -0.14368560 0.00266882
v -0.02717890 -0.14009160 0.00266882
v -0.02740441 -0.04650212 0.00089827
v -0.02666346 -0.13828733 -0.00449876
v -0.02664198 -0.01590220 -0.00449876
v -0.02739367 -0.00235558 0.00089827
v -0.02714668 -0.00235558 -0.00255746
v -0.02706615 -0.00235558 -0.00298061
v -0.02697487 -0.01050392 -0.00347429
v -0.02681379 -0.00235558 -0.00394198
v -0.02663661 -0.00690992 -0.00449876
v -0.02666346 -0.14368560 -0.00449876
v -0.02665809 -0.14729415 -0.00449876
v -0.02587955 -0.14909843 -0.00629901
v -0.02531579 -0.14909843 -0.00738287
v -0.02469296 -0.14909843 -0.00828485
v -0.02379094 -0.14909843 -0.00947264
v -0.02366208 -0.15024792 -0.00931303
v -0.02427416 -0.15040797 -0.00799161
v -0.02429564 -0.15081539 -0.00629901
v -0.02609969 -0.15077175 0.00089827
v -0.02627151 -0.15049529 0.00286555
v -0.02429564 -0.15097546 -0.00449876
v -0.02527820 -0.15010242 0.00732348
v -0.02665272 -0.14909843 0.00449876
v -0.02698561 -0.14909843 0.00356338
v -0.02591714 -0.15048074 0.00449876
v -0.02553593 -0.15032068 0.00629901
v -0.02699098 -0.14729415 0.00356709
v -0.02699098 -0.14189588 0.00357080
v -0.02699098 -0.14009160 0.00357080
v -0.02698024 -0.02310475 0.00350027
v -0.02715205 -0.02310475 0.00260201
v -0.02715205 -0.02130047 0.00259829
v -0.02715205 -0.01770647 0.00259087
v -0.02589029 -0.09508658 -0.00629901
v -0.02587955 -0.04830639 -0.00629901
v -0.02714668 -0.00235558 0.00255746
v -0.02696950 -0.00235558 -0.00345944
v -0.02662587 -0.00235558 -0.00449876
v -0.02663124 -0.00330137 -0.00449876
v -0.02584734 -0.00330137 -0.00629901
v -0.02585271 -0.00871420 -0.00629901
v -0.02585808 -0.01590220 -0.00629901
v -0.02587418 -0.03931412 -0.00629901
v -0.02588492 -0.14729415 -0.00629901
v -0.02589029 -0.13649760 -0.00629901
v -0.02531579 -0.14368560 -0.00738658
v -0.02379094 -0.13828733 -0.00947635
v -0.02532116 -0.11129596 -0.00738658
v -0.02469296 -0.08069604 -0.00828485
v -0.02299629 -0.14729415 -0.01037462
v -0.02299629 -0.14909843 -0.01037091
v -0.02192782 -0.15026247 -0.01111328
v -0.02251843 -0.15050983 -0.00990692
v -0.02249696 -0.15093180 -0.00809925
v -0.02429564 -0.15081539 0.00629901
v -0.02429564 -0.15097546 0.00449876
v -0.02069828 -0.15094635 -0.00989950
v -0.01889960 -0.15097546 -0.00989950
v -0.02379094 -0.14909843 0.00947264
v -0.02469296 -0.14909843 0.00828485
v -0.02531579 -0.14909843 0.00738287
v -0.02587955 -0.14909843 0.00629901
v -0.02427416 -0.15040797 0.00799161
v -0.02366208 -0.15024792 0.00931303
v -0.02665809 -0.14729415 0.00449876
v -0.02666346 -0.14368560 0.00449876
v -0.02666346 -0.13828733 0.00449876
v -0.02664198 -0.01590220 0.00449876
v -0.02663661 -0.00690992 0.00449876
v -0.02697487 -0.01050392 0.00347429
v -0.02532116 -0.10049941 -0.00738658
v -0.02531579 -0.06450121 -0.00737916
v -0.02531579 -0.06991404 -0.00738287
v -0.02696950 -0.00235558 0.00345944
v -0.02626077 -0.00235558 -0.00533764
v -0.02584197 -0.00235558 -0.00629901
v -0.02528357 -0.00235558 -0.00734204
v -0.02528894 -0.00871420 -0.00734575
v -0.02529968 -0.03030730 -0.00736060
v -0.02530505 -0.03931412 -0.00736431
v -0.02531042 -0.05190039 -0.00737173
v -0.02379094 -0.12749078 -0.00947635
v -0.02469296 -0.06630549 -0.00828113
v -0.02379094 -0.04650212 -0.00946521
v -0.02209964 -0.13469333 -0.01126917
v -0.02209427 -0.14909843 -0.01126917
v -0.02299629 -0.11669423 -0.01037462
v -0.02004860 -0.15018973 -0.01278732
v -0.02066606 -0.15048074 -0.01170717
v -0.02251843 -0.15050983 0.00990692
v -0.02249696 -0.15093180 0.00809925
v -0.01889960 -0.15097546 0.00989950
v -0.02069828 -0.15094635 0.00989950
v -0.01889960 -0.15088815 -0.01169975
v -0.01529686 -0.15096090 -0.01349999
v -0.01709554 -0.15097546 -0.01169975
v -0.02299629 -0.14909843 0.01037091
v -0.02299629 -0.14729415 0.01037462
v -0.02379094 -0.13828733 0.00947635
v -0.02531579 -0.14368560 0.00738658
v -0.02469296 -0.08069604 0.00828485
v -0.02532116 -0.11129596 0.00738658
v -0.02589029 -0.13649760 0.00629901
v -0.02588492 -0.14729415 0.00629901
v -0.02192782 -0.15026247 0.01111328
v -0.02589029 -0.09508658 0.00629901
v -0.02587955 -0.04830639 0.00629901
v -0.02585808 -0.01590220 0.00629901
v -0.02585271 -0.00871420 0.00629901
v -0.02584734 -0.00330137 0.00629901
v -0.02663124 -0.00330137 0.00449876
v -0.02587418 -0.03931412 0.00629901
v -0.02468222 -0.00510565 -0.00824402
v -0.02468759 -0.02130047 -0.00825515
v -0.02662587 -0.00235558 0.00449876
v -0.02500437 -0.00235558 -0.00776148
v -0.02468222 -0.00235558 -0.00824030
v -0.02378557 -0.00690992 -0.00945037
v -0.02378557 -0.01770647 -0.00945779
v -0.02378557 -0.02490902 -0.00946150
v -0.02299092 -0.02850302 -0.01036348
v -0.02209964 -0.13288905 -0.01126917
v -0.02107412 -0.14368560 -0.01217115
v -0.02107412 -0.14909843 -0.01216744
v -0.02209427 -0.05011067 -0.01126546
v -0.01676265 -0.15029158 -0.01471006
v -0.01889960 -0.15039343 -0.01316964
v -0.02017210 -0.14909843 -0.01288012
v -0.01889960 -0.14909843 -0.01374869
v -0.01794925 -0.14909843 -0.01436485
v -0.02066606 -0.15048074 0.01170717
v -0.01709554 -0.15097546 0.01169975
v -0.01529686 -0.15096090 0.01349999
v -0.01889960 -0.15088815 0.01169975
v -0.01725662 -0.15056804 -0.01366332
v -0.01529686 -0.15046619 -0.01506639
v -0.01169950 -0.15093180 -0.01529653
v -0.00989545 -0.15097546 -0.01529653
v -0.01349818 -0.15097546 -0.01349999
v -0.02209427 -0.14909843 0.01126917
v -0.02209964 -0.13469333 0.01126917
v -0.02299629 -0.11669423 0.01037462
v -0.02379094 -0.12749078 0.00947635
v -0.02532116 -0.10049941 0.00738658
v -0.02379094 -0.04650212 0.00946521
v -0.02469296 -0.06630549 0.00828113
v -0.02004860 -0.15018973 0.01278732
v -0.02531579 -0.06991404 0.00738287
v -0.02531579 -0.06450121 0.00737916
v -0.02531042 -0.05190039 0.00737173
v -0.02530505 -0.03931412 0.00736431
v -0.02529968 -0.03030730 0.00736060
v -0.02528894 -0.00871420 0.00734575
v -0.02528357 -0.00235558 0.00734204
v -0.02554666 -0.00235558 0.00685207
v -0.02584197 -0.00235558 0.00629901
v -0.02426342 -0.00235558 -0.00880451
v -0.02378557 -0.00510565 -0.00944666
v -0.02340972 -0.00235558 -0.00986609
v -0.02298555 -0.00690992 -0.01034863
v -0.02299092 -0.01770647 -0.01035606
v -0.02299092 -0.02130047 -0.01035977
v -0.02209427 -0.02310475 -0.01125433
v -0.02209427 -0.04110384 -0.01126175
v -0.02107412 -0.14009160 -0.01217115
v -0.02017210 -0.14009160 -0.01288383
v -0.02106338 -0.04650212 -0.01216373
v -0.02107412 -0.11129596 -0.01216744
v -0.01317066 -0.15024792 -0.01642493
v -0.01704722 -0.14909843 -0.01486224
v -0.01529686 -0.14909843 -0.01574195
v -0.01889960 -0.14729415 -0.01375240
v -0.01794925 -0.14729415 -0.01436857
v -0.01889960 -0.15039343 0.01316964
v -0.01349818 -0.15097546 0.01349999
v -0.01169950 -0.15093180 0.01529653
v -0.01529686 -0.15046619 0.01506639
v -0.01725662 -0.15056804 0.01366332
v -0.00989545 -0.15097546 0.01529653
v -0.01169950 -0.15043708 -0.01666249
v -0.00629809 -0.15078629 -0.01709678
v -0.00449941 -0.15090270 -0.01709678
v -0.00269536 -0.15094635 -0.01709678
v -0.00089667 -0.15097546 -0.01709678
v -0.02107412 -0.14909843 0.01216744
v -0.02107412 -0.14368560 0.01217115
v -0.02209964 -0.13288905 0.01126917
v -0.02209427 -0.05011067 0.01126546
v -0.02299092 -0.02850302 0.01036348
v -0.02378557 -0.02490902 0.00946150
v -0.02378557 -0.01770647 0.00945779
v -0.02378557 -0.00690992 0.00945037
v -0.02468759 -0.02130047 0.00825515
v -0.01676265 -0.15029158 0.01471006
v -0.01794925 -0.14909843 0.01436485
v -0.01889960 -0.14909843 0.01374869
v -0.02017210 -0.14909843 0.01288012
v -0.02468222 -0.00510565 0.00824402
v -0.02468222 -0.00235558 0.00824030
v -0.02378020 -0.00235558 -0.00944666
v -0.02298019 -0.00235558 -0.01034492
v -0.02208353 -0.00235558 -0.01124319
v -0.02208353 -0.00510565 -0.01124690
v -0.02105801 -0.01050392 -0.01214888
v -0.02106338 -0.03931412 -0.01216002
v -0.02017210 -0.09689086 -0.01288383
v -0.02015599 -0.00510565 -0.01287640
v -0.02015599 -0.01230820 -0.01288012
v -0.00768334 -0.15014606 -0.01810269
v -0.01435725 -0.14909843 -0.01617624
v -0.01345523 -0.14909843 -0.01653629
v -0.01169950 -0.14909843 -0.01714874
v -0.01529686 -0.14548988 -0.01574937
v -0.01704722 -0.14009160 -0.01486595
v -0.01435725 -0.14729415 -0.01618366
v -0.01889960 -0.11488996 -0.01375240
v -0.01794925 -0.13828733 -0.01436857
v -0.00449941 -0.15090270 0.01709678
v -0.00629809 -0.15078629 0.01709678
v -0.01169950 -0.15043708 0.01666249
v -0.01317066 -0.15024792 0.01642493
v -0.00089667 -0.15097546 0.01709678
v -0.00269536 -0.15094635 0.01709678
v -0.00629809 -0.15029158 -0.01823260
v -0.00449941 -0.15040797 -0.01835509
v -0.00269536 -0.15045163 -0.01843304
v -0.00089667 -0.15048074 -0.01847758
v 0.00089664 -0.15097546 -0.01709678
v -0.02017210 -0.14009160 0.01288383
v -0.02107412 -0.14009160 0.01217115
v -0.02106338 -0.04650212 0.01216373
v -0.02209427 -0.04110384 0.01126175
v -0.02107412 -0.11129596 0.01216744
v -0.02209427 -0.02310475 0.01125433
v -0.02299092 -0.02130047 0.01035977
v -0.02298555 -0.00690992 0.01034863
v -0.02335603 -0.00235558 0.00992548
v -0.02378557 -0.00510565 0.00944666
v -0.02420436 -0.00235558 0.00888245
v -0.02299092 -0.01770647 0.01035606
v -0.01529686 -0.14909843 0.01574195
v -0.01704722 -0.14909843 0.01486224
v -0.01794925 -0.14729415 0.01436857
v -0.01889960 -0.14729415 0.01375240
v -0.02160030 -0.00235558 -0.01166634
v -0.02105264 -0.00235558 -0.01214517
v -0.02063385 -0.00235558 -0.01248666
v -0.02015062 -0.00235558 -0.01287640
v -0.01956538 -0.00235558 -0.01327357
v -0.01889960 -0.00330137 -0.01372642
v -0.01889960 -0.01050392 -0.01373013
v -0.01889960 -0.02130047 -0.01373384
v -0.01889960 -0.03931412 -0.01373755
v -0.01889960 -0.09508658 -0.01374869
v -0.00989545 -0.14909843 -0.01766098
v -0.00882698 -0.14909843 -0.01795050
v -0.00792496 -0.14909843 -0.01815465
v -0.00629809 -0.14909843 -0.01846274
v -0.00449941 -0.14909843 -0.01871143
v -0.01169950 -0.14729415 -0.01716730
v -0.01346060 -0.14548988 -0.01653629
v -0.00989545 -0.14729415 -0.01769067
v -0.01529686 -0.13109933 -0.01575309
v -0.01437873 -0.09869514 -0.01619108
v -0.01436799 -0.12389678 -0.01618737
v -0.01704722 -0.12749078 -0.01486595
v -0.01529686 -0.10768741 -0.01575680
v -0.01794388 -0.12028823 -0.01436857
v -0.01702038 -0.01411247 -0.01486967
v -0.00089667 -0.15048074 0.01847758
v -0.00269536 -0.15045163 0.01843304
v -0.00449941 -0.15040797 0.01835509
v -0.00629809 -0.15029158 0.01823260
v -0.00768334 -0.15014606 0.01810269
v -0.01169950 -0.14909843 0.01714874
v -0.01345523 -0.14909843 0.01653629
v -0.01435725 -0.14909843 0.01617624
v 0.00089664 -0.15097546 0.01709678
v -0.00269536 -0.14909843 -0.01886733
v -0.00089667 -0.14909843 -0.01896012
v 0.00089664 -0.15048074 -0.01847758
v 0.00269532 -0.15094635 -0.01709678
v 0.00989541 -0.15097546 -0.01529653
v -0.02017210 -0.09689086 0.01288383
v -0.02015599 -0.01230820 0.01288012
v -0.02015599 -0.00510565 0.01287640
v -0.02106338 -0.03931412 0.01216002
v -0.02105801 -0.01050392 0.01214888
v -0.02208353 -0.00510565 0.01124690
v -0.02208353 -0.00235558 0.01124319
v -0.02250233 -0.00235558 0.01082375
v -0.02298019 -0.00235558 0.01034492
v -0.02378020 -0.00235558 0.00944666
v -0.01435725 -0.14729415 0.01618366
v -0.01529686 -0.14548988 0.01574937
v -0.01704722 -0.14009160 0.01486595
v -0.01794925 -0.13828733 0.01436857
v -0.01889960 -0.11488996 0.01375240
v -0.01889960 -0.00235558 -0.01372271
v -0.01843784 -0.00235558 -0.01401594
v -0.01791703 -0.00690992 -0.01435001
v -0.01792240 -0.02130047 -0.01435372
v -0.01792777 -0.03750984 -0.01435743
v -0.01793314 -0.06090722 -0.01436114
v -0.00882698 -0.14729415 -0.01796164
v -0.00886993 -0.00235558 -0.01797277
v -0.00792496 -0.10949168 -0.01815465
v -0.00629809 -0.12749078 -0.01846274
v -0.00269536 -0.14009160 -0.01887104
v -0.00449941 -0.12028823 -0.01871143
v -0.00269536 -0.12568650 -0.01887475
v -0.01346597 -0.13109933 -0.01653629
v -0.01169950 -0.12028823 -0.01716730
v -0.00989545 -0.10049941 -0.01769067
v -0.01437873 -0.09329686 -0.01619108
v -0.01529686 -0.09329686 -0.01575680
v -0.01701501 -0.00235558 -0.01486595
v -0.01529686 -0.01590220 -0.01573824
v -0.01529686 -0.02671330 -0.01574195
v 0.00089664 -0.15048074 0.01847758
v -0.00089667 -0.14909843 0.01896012
v -0.00269536 -0.14909843 0.01886733
v -0.00449941 -0.14909843 0.01871143
v -0.00629809 -0.14909843 0.01846274
v -0.00792496 -0.14909843 0.01815465
v -0.00882698 -0.14909843 0.01795050
v -0.00989545 -0.14909843 0.01766098
v -0.00989545 -0.14729415 0.01769067
v -0.01169950 -0.14729415 0.01716730
v -0.01346060 -0.14548988 0.01653629
v 0.00989541 -0.15097546 0.01529653
v 0.00269532 -0.15094635 0.01709678
v 0.00089664 -0.12749078 -0.01895641
v 0.00089664 -0.14909843 -0.01895641
v -0.00269536 -0.10228913 -0.01887475
v -0.00089667 -0.00235558 -0.01894899
v -0.00005371 -0.00235558 -0.01894899
v 0.00269532 -0.15045163 -0.01843304
v 0.00449937 -0.15090270 -0.01709678
v 0.01169946 -0.15093180 -0.01529653
v 0.01529683 -0.15096090 -0.01349999
v 0.01349814 -0.15097546 -0.01349999
v -0.01889960 -0.03931412 0.01373755
v -0.01889960 -0.02130047 0.01373384
v -0.01889960 -0.01050392 0.01373013
v -0.01889960 -0.09508658 0.01374869
v -0.01889960 -0.00330137 0.01372642
v -0.01948484 -0.00235558 0.01332925
v -0.02015062 -0.00235558 0.01287640
v -0.02057479 -0.00235558 0.01253491
v -0.02105264 -0.00235558 0.01214517
v -0.01436799 -0.12389678 0.01618737
v -0.01437873 -0.09869514 0.01619108
v -0.01529686 -0.13109933 0.01575309
v -0.01529686 -0.10768741 0.01575680
v -0.01704722 -0.12749078 0.01486595
v -0.01794388 -0.12028823 0.01436857
v -0.01702038 -0.01411247 0.01486967
v -0.01791166 -0.00235558 -0.01434630
v -0.00989545 -0.05190039 -0.01768696
v -0.00989545 -0.00871420 -0.01767954
v -0.00989545 -0.00235558 -0.01767582
v -0.00796791 -0.00235558 -0.01814352
v -0.00629809 -0.00235558 -0.01844418
v -0.00545512 -0.00235558 -0.01856667
v -0.00449941 -0.00235558 -0.01870029
v -0.01346597 -0.12389678 -0.01653629
v -0.01342838 -0.02130047 -0.01653629
v -0.01169950 -0.03390129 -0.01715245
v -0.01347671 -0.09689086 -0.01652886
v -0.01436799 -0.06450121 -0.01618737
v -0.01529686 -0.00235558 -0.01572710
v -0.01529686 -0.00510565 -0.01573082
v 0.00449937 -0.15090270 0.01709678
v 0.00269532 -0.15045163 0.01843304
v 0.00089664 -0.14909843 0.01895641
v -0.00269536 -0.10228913 0.01887475
v -0.00269536 -0.12568650 0.01887475
v -0.00269536 -0.14009160 0.01887104
v 0.00089664 -0.12749078 0.01895641
v 0.00089664 -0.00235558 0.01894899
v -0.00089667 -0.00235558 0.01894899
v -0.00449941 -0.12028823 0.01871143
v -0.00629809 -0.12749078 0.01846274
v -0.00839208 -0.00235558 0.01806928
v -0.00882698 -0.14729415 0.01796164
v -0.00886993 -0.00235558 0.01797277
v -0.00989545 -0.10049941 0.01769067
v -0.01169950 -0.12028823 0.01716730
v -0.01346597 -0.13109933 0.01653629
v 0.01349814 -0.15097546 0.01349999
v 0.01529683 -0.15096090 0.01349999
v 0.01169946 -0.15093180 0.01529653
v 0.00089664 -0.04110384 -0.01894899
v 0.00269532 -0.03931412 -0.01886733
v 0.00269532 -0.14909843 -0.01886733
v -0.00269536 -0.00235558 -0.01885248
v 0.00089664 -0.00235558 -0.01894528
v 0.00449937 -0.15040797 -0.01835509
v 0.00629805 -0.15078629 -0.01709678
v 0.01169946 -0.15043708 -0.01666249
v 0.01529683 -0.15046619 -0.01506639
v 0.01725658 -0.15056804 -0.01366332
v 0.01889956 -0.15088815 -0.01169975
v 0.02069824 -0.15094635 -0.00989950
v 0.01709551 -0.15097546 -0.01169975
v -0.01792777 -0.03750984 0.01435743
v -0.01793314 -0.06090722 0.01436114
v -0.01791703 -0.00690992 0.01435001
v -0.01792240 -0.02130047 0.01435372
v -0.01837341 -0.00235558 0.01405677
v -0.01889960 -0.00235558 0.01372271
v -0.01437873 -0.09329686 0.01619108
v -0.01529686 -0.09329686 0.01575680
v -0.01529686 -0.02671330 0.01574195
v -0.01529686 -0.01590220 0.01573824
v -0.01701501 -0.00235558 0.01486595
v -0.01169950 -0.01770647 -0.01714874
v -0.01169950 -0.00871420 -0.01714503
v -0.01169950 -0.00330137 -0.01714132
v -0.01169950 -0.00235558 -0.01713761
v -0.01341764 -0.00690992 -0.01653629
v -0.01434115 -0.03570557 -0.01617624
v -0.01341227 -0.00235558 -0.01653629
v -0.01483511 -0.00235558 -0.01593126
v -0.01431430 -0.00235558 -0.01616139
v 0.00629805 -0.15078629 0.01709678
v 0.00449937 -0.15040797 0.01835509
v 0.00269532 -0.14909843 0.01886733
v -0.00269536 -0.00235558 0.01885248
v -0.00449941 -0.00235558 0.01870029
v 0.00269532 -0.03931412 0.01886733
v 0.00269532 -0.00235558 0.01885248
v -0.00533700 -0.00235558 0.01858152
v -0.00629809 -0.00235558 0.01844418
v -0.00707125 -0.00235558 0.01831055
v -0.00935853 -0.00235558 0.01783543
v -0.00989545 -0.05190039 0.01768696
v -0.01346597 -0.12389678 0.01653629
v -0.01169950 -0.03390129 0.01715245
v -0.01342838 -0.02130047 0.01653629
v 0.01709551 -0.15097546 0.01169975
v 0.02069824 -0.15094635 0.00989950
v 0.01889956 -0.15088815 0.01169975
v 0.01725658 -0.15056804 0.01366332
v 0.01529683 -0.15046619 0.01506639
v 0.01169946 -0.15043708 0.01666249
v 0.00173960 -0.00235558 -0.01890073
v 0.00269532 -0.00235558 -0.01884877
v 0.00449937 -0.00235558 -0.01870029
v 0.00449937 -0.03570557 -0.01871143
v 0.00449937 -0.14909843 -0.01871143
v 0.00629805 -0.15029158 -0.01823260
v 0.00768330 -0.15014606 -0.01810269
v 0.01317062 -0.15024792 -0.01642493
v 0.01676262 -0.15029158 -0.01471006
v 0.01889956 -0.15039343 -0.01316964
v 0.02066602 -0.15048074 -0.01170717
v 0.02249692 -0.15093180 -0.00809925
v 0.02429560 -0.15097546 -0.00449876
v 0.01889956 -0.15097546 -0.00989950
v 0.02251840 -0.15050983 -0.00990692
v -0.01791166 -0.00235558 0.01434630
v -0.01347671 -0.09689086 0.01652886
v -0.01436799 -0.06450121 0.01618737
v -0.01529686 -0.00510565 0.01573082
v -0.01529686 -0.00235558 0.01572710
v -0.01261226 -0.00235558 -0.01681839
v 0.00629805 -0.15029158 0.01823260
v 0.00449937 -0.14909843 0.01871143
v 0.00449937 -0.03570557 0.01871143
v 0.00449937 -0.00235558 0.01870029
v -0.01073841 -0.00235558 0.01742713
v -0.00989545 -0.00871420 0.01767954
v -0.01169950 -0.01770647 0.01714874
v -0.01341764 -0.00690992 0.01653629
v 0.01889956 -0.15097546 0.00989950
v 0.02429560 -0.15097546 0.00449876
v 0.02249692 -0.15093180 0.00809925
v 0.02251840 -0.15050983 0.00990692
v 0.02066602 -0.15048074 0.01170717
v 0.01889956 -0.15039343 0.01316964
v 0.01676262 -0.15029158 0.01471006
v 0.01317062 -0.15024792 0.01642493
v 0.00768330 -0.15014606 0.01810269
v 0.00629805 -0.00235558 -0.01844418
v 0.00629805 -0.04110384 -0.01845531
v 0.00629805 -0.12209251 -0.01846645
v 0.00629805 -0.14189588 -0.01846645
v 0.00629805 -0.14909843 -0.01846274
v 0.00793029 -0.14909843 -0.01815465
v 0.00882694 -0.14909843 -0.01795050
v 0.00989541 -0.14909843 -0.01766098
v 0.01169946 -0.14909843 -0.01714874
v 0.01345519 -0.14909843 -0.01654000
v 0.01435722 -0.14909843 -0.01617624
v 0.01529683 -0.14909843 -0.01574195
v 0.01704718 -0.14909843 -0.01486224
v 0.01794921 -0.14909843 -0.01436485
v 0.02004857 -0.15018973 -0.01278732
v 0.02192779 -0.15026247 -0.01111328
v 0.02429560 -0.15081539 -0.00629901
v 0.02609965 -0.15077175 -0.00089827
v 0.02366204 -0.15024792 -0.00931303
v 0.02427413 -0.15040797 -0.00799161
v -0.01341227 -0.00235558 0.01653629
v -0.01434115 -0.03570557 0.01617624
v -0.01431430 -0.00235558 0.01616139
v 0.00629805 -0.14909843 0.01846274
v 0.00629805 -0.14189588 0.01846645
v 0.00629805 -0.04110384 0.01845531
v 0.00545509 -0.00235558 0.01856667
v 0.00629805 -0.12209251 0.01846645
v -0.01169950 -0.00235558 0.01713761
v -0.01169950 -0.00330137 0.01714132
v -0.01169950 -0.00871420 0.01714503
v 0.02609965 -0.15077175 0.00089827
v 0.02429560 -0.15081539 0.00629901
v 0.02427413 -0.15040797 0.00799161
v 0.02366204 -0.15024792 0.00931303
v 0.02192779 -0.15026247 0.01111328
v 0.02004857 -0.15018973 0.01278732
v 0.01794921 -0.14909843 0.01436485
v 0.01704718 -0.14909843 0.01486224
v 0.01529683 -0.14909843 0.01574195
v 0.01435722 -0.14909843 0.01617624
v 0.01345519 -0.14909843 0.01654000
v 0.01169946 -0.14909843 0.01714874
v 0.00989541 -0.14909843 0.01766098
v 0.00882694 -0.14909843 0.01795050
v 0.00793029 -0.14909843 0.01815465
v 0.00707121 -0.00235558 -0.01830684
v 0.00839204 -0.00235558 -0.01806928
v 0.00794639 -0.11849851 -0.01815836
v 0.00794639 -0.12389678 -0.01815836
v 0.00794103 -0.13288905 -0.01815836
v 0.00883231 -0.14548988 -0.01796164
v 0.00882694 -0.14729415 -0.01796164
v 0.00883768 -0.13288905 -0.01796535
v 0.00989541 -0.14729415 -0.01769067
v 0.01169946 -0.14729415 -0.01716730
v 0.01435722 -0.14729415 -0.01617995
v 0.01345519 -0.14009160 -0.01654000
v 0.01529683 -0.14729415 -0.01574566
v 0.01705255 -0.14729415 -0.01486224
v 0.01794921 -0.14729415 -0.01437228
v 0.01889956 -0.14909843 -0.01374869
v 0.02017206 -0.14909843 -0.01288012
v 0.02107408 -0.14909843 -0.01216744
v 0.02209423 -0.14909843 -0.01126917
v 0.02299626 -0.14909843 -0.01037091
v 0.02553589 -0.15032068 -0.00629901
v 0.02591710 -0.15048074 -0.00449876
v 0.02627147 -0.15049529 -0.00286555
v 0.02721108 -0.15027702 -0.00089827
v 0.02379090 -0.14909843 -0.00947264
v 0.02527817 -0.15010242 -0.00732348
v 0.00794103 -0.13288905 0.01815836
v 0.00794639 -0.12389678 0.01815836
v 0.00797324 -0.00235558 0.01814352
v 0.00629805 -0.00235558 0.01844418
v 0.00794639 -0.11849851 0.01815836
v 0.00886990 -0.00235558 0.01797648
v 0.02721108 -0.15027702 0.00089827
v 0.02627147 -0.15049529 0.00286555
v 0.02591710 -0.15048074 0.00449876
v 0.02553589 -0.15032068 0.00629901
v 0.02527817 -0.15010242 0.00732348
v 0.02379090 -0.14909843 0.00947264
v 0.02299626 -0.14909843 0.01037091
v 0.02209423 -0.14909843 0.01126917
v 0.02107408 -0.14909843 0.01216744
v 0.02017206 -0.14909843 0.01288012
v 0.01889956 -0.14909843 0.01374869
v 0.01794921 -0.14729415 0.01437228
v 0.01705255 -0.14729415 0.01486224
v 0.01529683 -0.14729415 0.01574566
v 0.01435722 -0.14729415 0.01617995
v 0.01169946 -0.14729415 0.01716730
v 0.01345519 -0.14009160 0.01654000
v 0.00989541 -0.14729415 0.01769067
v 0.00882694 -0.14729415 0.01796164
v 0.00883231 -0.14548988 0.01796164
v 0.00883768 -0.13288905 0.01796535
v 0.00886990 -0.00235558 -0.01797648
v 0.00885379 -0.10409341 -0.01796906
v 0.00884305 -0.12929505 -0.01796535
v 0.00989541 -0.09508658 -0.01769067
v 0.01169946 -0.12929505 -0.01716730
v 0.01435722 -0.14189588 -0.01617995
v 0.01343908 -0.03750984 -0.01653629
v 0.01705792 -0.13109933 -0.01486595
v 0.01705255 -0.14189588 -0.01486595
v 0.01529683 -0.10589768 -0.01574566
v 0.01706329 -0.11488996 -0.01486595
v 0.01889956 -0.14729415 -0.01375611
v 0.01795458 -0.13109933 -0.01437599
v 0.01795458 -0.14009160 -0.01437228
v 0.01889956 -0.12929505 -0.01375982
v 0.02016669 -0.02850302 -0.01288754
v 0.02107408 -0.13469333 -0.01216744
v 0.02209423 -0.14548988 -0.01126917
v 0.02299626 -0.14548988 -0.01037462
v 0.02711980 -0.15016062 -0.00237558
v 0.02742584 -0.14909843 -0.00089827
v 0.02469292 -0.14909843 -0.00828485
v 0.02379627 -0.13649760 -0.00947264
v 0.02531575 -0.14909843 -0.00738287
v 0.02587952 -0.14909843 -0.00629901
v 0.02664731 -0.14909843 -0.00449876
v 0.00884305 -0.12929505 0.01796535
v 0.00885379 -0.10409341 0.01796906
v 0.00989541 -0.00871420 0.01767954
v 0.00989541 -0.00235558 0.01767582
v 0.00989541 -0.09508658 0.01769067
v 0.02742584 -0.14909843 0.00089827
v 0.02711980 -0.15016062 0.00237558
v 0.02664731 -0.14909843 0.00449876
v 0.02587952 -0.14909843 0.00629901
v 0.02531575 -0.14909843 0.00738287
v 0.02469292 -0.14909843 0.00828485
v 0.02299626 -0.14548988 0.01037462
v 0.02379627 -0.13649760 0.00947264
v 0.02209423 -0.14548988 0.01126917
v 0.02107408 -0.13469333 0.01216744
v 0.02016669 -0.02850302 0.01288754
v 0.01889956 -0.12929505 0.01375982
v 0.01889956 -0.14729415 0.01375611
v 0.01795458 -0.14009160 0.01437228
v 0.01795458 -0.13109933 0.01437599
v 0.01705255 -0.14189588 0.01486595
v 0.01705792 -0.13109933 0.01486595
v 0.01706329 -0.11488996 0.01486595
v 0.01529683 -0.10589768 0.01574566
v 0.01435722 -0.14189588 0.01617995
v 0.01169946 -0.12929505 0.01716730
v 0.01343908 -0.03750984 0.01653629
v 0.00935849 -0.00235558 -0.01783543
v 0.00989541 -0.00871420 -0.01767954
v 0.01169946 -0.01411247 -0.01714503
v 0.01435185 -0.12028823 -0.01617995
v 0.01434111 -0.04290812 -0.01617624
v 0.01529683 -0.03390129 -0.01574195
v 0.01341761 -0.00690992 -0.01653629
v 0.01796532 -0.10768741 -0.01437970
v 0.01706329 -0.09149258 -0.01486595
v 0.01795995 -0.12389678 -0.01437599
v 0.01889956 -0.09689086 -0.01375982
v 0.02016669 -0.02310475 -0.01288754
v 0.02106871 -0.03030730 -0.01215631
v 0.02209423 -0.06450121 -0.01125804
v 0.02299626 -0.12389678 -0.01037462
v 0.02698557 -0.14909843 -0.00356338
v 0.02717886 -0.14909843 -0.00266511
v 0.02717886 -0.12749078 -0.00266511
v 0.02716812 -0.06090722 -0.00267624
v 0.02739363 -0.00235558 -0.00089827
v 0.02531575 -0.14729415 -0.00738658
v 0.02469292 -0.14009160 -0.00828485
v 0.02379627 -0.12929505 -0.00947264
v 0.02588489 -0.14729415 -0.00629901
v 0.02665805 -0.14729415 -0.00449876
v 0.01169946 -0.01411247 0.01714503
v 0.01169946 -0.00330137 0.01714132
v 0.01169946 -0.00235558 0.01713761
v 0.02717886 -0.12749078 0.00266511
v 0.02717886 -0.14909843 0.00266511
v 0.02739363 -0.00235558 0.00089827
v 0.02716812 -0.06090722 0.00267624
v 0.02698557 -0.14909843 0.00356338
v 0.02665805 -0.14729415 0.00449876
v 0.02588489 -0.14729415 0.00629901
v 0.02531575 -0.14729415 0.00738658
v 0.02469292 -0.14009160 0.00828485
v 0.02299626 -0.12389678 0.01037462
v 0.02379627 -0.12929505 0.00947264
v 0.02209423 -0.06450121 0.01125804
v 0.02106871 -0.03030730 0.01215631
v 0.02016669 -0.02310475 0.01288754
v 0.01889956 -0.09689086 0.01375982
v 0.01796532 -0.10768741 0.01437970
v 0.01795995 -0.12389678 0.01437599
v 0.01706329 -0.09149258 0.01486595
v 0.01529683 -0.03390129 0.01574195
v 0.01435185 -0.12028823 0.01617995
v 0.01434111 -0.04290812 0.01617624
v 0.01341761 -0.00690992 0.01653629
v 0.01073838 -0.00235558 -0.01742713
v 0.01169946 -0.00330137 -0.01714132
v 0.01341224 -0.00235558 -0.01653629
v 0.01433574 -0.03211157 -0.01617253
v 0.01529683 -0.00510565 -0.01573082
v 0.01529683 -0.01411247 -0.01573453
v 0.01702034 -0.00690992 -0.01486595
v 0.01704718 -0.04290812 -0.01486595
v 0.01705792 -0.05731322 -0.01486595
v 0.01796532 -0.09508658 -0.01437970
v 0.01889956 -0.04471239 -0.01375240
v 0.01889956 -0.02490902 -0.01374869
v 0.01889956 -0.00235558 -0.01372642
v 0.01948480 -0.00235558 -0.01332925
v 0.02016132 -0.01590220 -0.01288383
v 0.02016132 -0.01230820 -0.01288012
v 0.02057475 -0.00235558 -0.01253491
v 0.02106334 -0.01590220 -0.01215259
v 0.02106871 -0.02310475 -0.01215259
v 0.02208886 -0.01770647 -0.01125433
v 0.02299626 -0.10409341 -0.01037091
v 0.02699094 -0.14729415 -0.00356338
v 0.02699094 -0.13109933 -0.00356709
v 0.02699094 -0.06810976 -0.00357822
v 0.02699094 -0.06271149 -0.00357822
v 0.02699094 -0.05550894 -0.00356709
v 0.02716812 -0.04650212 -0.00265026
v 0.02716812 -0.04290812 -0.00264284
v 0.02715739 -0.02130047 -0.00259829
v 0.02715202 -0.01050392 -0.00257602
v 0.02714665 -0.00235558 -0.00255746
v 0.02531575 -0.14368560 -0.00738658
v 0.02379090 -0.08429004 -0.00946893
v 0.02378553 -0.02850302 -0.00945779
v 0.02468755 -0.02130047 -0.00824773
v 0.02588489 -0.13288905 -0.00629901
v 0.02665805 -0.10049941 -0.00449876
v 0.01341224 -0.00235558 0.01653629
v 0.01261223 -0.00235558 0.01681839
v 0.02699094 -0.06271149 0.00357822
v 0.02699094 -0.13109933 0.00356709
v 0.02699094 -0.14729415 0.00356338
v 0.02699094 -0.06810976 0.00357822
v 0.02728088 -0.00235558 0.00167404
v 0.02716812 -0.04290812 0.00264284
v 0.02716812 -0.04650212 0.00265026
v 0.02699094 -0.05550894 0.00356709
v 0.02665805 -0.10049941 0.00449876
v 0.02588489 -0.13288905 0.00629901
v 0.02531575 -0.14368560 0.00738658
v 0.02379090 -0.08429004 0.00946893
v 0.02468755 -0.02130047 0.00824773
v 0.02378553 -0.02850302 0.00945779
v 0.02299626 -0.10409341 0.01037091
v 0.02208886 -0.01770647 0.01125433
v 0.02106871 -0.02310475 0.01215259
v 0.02106334 -0.01590220 0.01215259
v 0.02063381 -0.00235558 0.01248666
v 0.02016132 -0.01230820 0.01288012
v 0.02016132 -0.01590220 0.01288383
v 0.01889956 -0.00235558 0.01372642
v 0.01889956 -0.02490902 0.01374869
v 0.01889956 -0.04471239 0.01375240
v 0.01796532 -0.09508658 0.01437970
v 0.01705792 -0.05731322 0.01486595
v 0.01704718 -0.04290812 0.01486595
v 0.01702034 -0.00690992 0.01486595
v 0.01529683 -0.01411247 0.01573453
v 0.01529683 -0.00510565 0.01573082
v 0.01433574 -0.03211157 0.01617253
v 0.01169946 -0.00235558 -0.01713761
v 0.01431426 -0.00235558 -0.01616139
v 0.01431963 -0.01050392 -0.01616510
v 0.01529683 -0.00235558 -0.01572710
v 0.01701497 -0.00235558 -0.01486595
v 0.01795995 -0.05910294 -0.01437599
v 0.01792236 -0.01050392 -0.01435372
v 0.01791700 -0.00330137 -0.01435001
v 0.01791700 -0.00235558 -0.01434630
v 0.02015058 -0.00235558 -0.01287640
v 0.02015595 -0.00510565 -0.01287640
v 0.02015595 -0.00871420 -0.01288012
v 0.02105261 -0.00235558 -0.01214517
v 0.02105798 -0.00871420 -0.01214888
v 0.02208349 -0.00510565 -0.01124690
v 0.02298552 -0.00690992 -0.01034863
v 0.02299089 -0.01951075 -0.01035235
v 0.02299089 -0.02490902 -0.01035606
v 0.02299089 -0.03390129 -0.01035977
v 0.02665268 -0.04650212 -0.00449876
v 0.02664731 -0.02490902 -0.00449876
v 0.02664194 -0.01411247 -0.00449876
v 0.02699094 -0.05190039 -0.00355966
v 0.02699094 -0.05011067 -0.00355595
v 0.02697483 -0.01230820 -0.00347800
v 0.02696946 -0.00235558 -0.00345944
v 0.02531575 -0.13469333 -0.00738287
v 0.02378553 -0.01050392 -0.00945037
v 0.02420433 -0.00235558 -0.00888245
v 0.02468218 -0.00235558 -0.00824030
v 0.02528353 -0.00235558 -0.00734204
v 0.02585267 -0.01230820 -0.00629901
v 0.01431426 -0.00235558 0.01616139
v 0.01431963 -0.01050392 0.01616510
v 0.02664194 -0.01411247 0.00449876
v 0.02664731 -0.02490902 0.00449876
v 0.02665268 -0.04650212 0.00449876
v 0.02714665 -0.00235558 0.00255746
v 0.02715202 -0.01050392 0.00257602
v 0.02715739 -0.02130047 0.00259829
v 0.02699094 -0.05011067 0.00355595
v 0.02699094 -0.05190039 0.00355966
v 0.02706611 -0.00235558 0.00298061
v 0.02697483 -0.01230820 0.00347800
v 0.02531575 -0.13469333 0.00738287
v 0.02585267 -0.01230820 0.00629901
v 0.02299089 -0.03390129 0.01035977
v 0.02500434 -0.00235558 0.00776148
v 0.02468218 -0.00235558 0.00824030
v 0.02426339 -0.00235558 0.00880451
v 0.02378553 -0.01050392 0.00945037
v 0.02299089 -0.02490902 0.01035606
v 0.02299089 -0.01951075 0.01035235
v 0.02298552 -0.00690992 0.01034863
v 0.02208349 -0.00510565 0.01124690
v 0.02105798 -0.00871420 0.01214888
v 0.02105261 -0.00235558 0.01214517
v 0.02015058 -0.00235558 0.01287640
v 0.02015595 -0.00510565 0.01287640
v 0.02015595 -0.00871420 0.01288012
v 0.01791700 -0.00235558 0.01434630
v 0.01791700 -0.00330137 0.01435001
v 0.01792236 -0.01050392 0.01435372
v 0.01795995 -0.05910294 0.01437599
v 0.01701497 -0.00235558 0.01486595
v 0.01529683 -0.00235558 0.01572710
v 0.01483508 -0.00235558 0.01593126
v 0.02208349 -0.00235558 -0.01124319
v 0.02250229 -0.00235558 -0.01082375
v 0.02298015 -0.00235558 -0.01034492
v 0.02335599 -0.00235558 -0.00992548
v 0.02378553 -0.00690992 -0.00944666
v 0.02584730 -0.00330137 -0.00629901
v 0.02663657 -0.00690992 -0.00449876
v 0.02663120 -0.00330137 -0.00449876
v 0.02662583 -0.00235558 -0.00449876
v 0.02378016 -0.00235558 -0.00944666
v 0.02554662 -0.00235558 -0.00685207
v 0.02663657 -0.00690992 0.00449876
v 0.02584730 -0.00330137 0.00629901
v 0.02681376 -0.00235558 0.00394198
v 0.02696946 -0.00235558 0.00345944
v 0.02528353 -0.00235558 0.00734204
v 0.02378016 -0.00235558 0.00944666
v 0.02378553 -0.00690992 0.00944666
v 0.02340968 -0.00235558 0.00986609
v 0.02298015 -0.00235558 0.01034492
v 0.02208349 -0.00235558 0.01124319
v 0.02160027 -0.00235558 0.01166634
v 0.02584193 -0.00235558 -0.00629901
v 0.02663120 -0.00330137 0.00449876
v 0.02626073 -0.00235558 0.00533764
v 0.02584193 -0.00235558 0.00629901
v 0.02662583 -0.00235558 0.00449876
f 1 2 3
f 1 3 4
f 1 4 5
f 1 5 6
f 1 6 23
f 1 23 7
f 1 7 29
f 1 29 8
f 1 8 2
f 2 9 15
f 2 15 3
f 2 8 10
f 2 10 11
f 2 11 12
f 2 12 13
f 2 13 14
f 2 14 9
f 3 15 4
f 4 15 16
f 4 16 17
f 4 17 5
f 5 17 18
f 5 18 19
f 5 19 20
f 5 20 21
f 5 21 22
f 5 22 6
f 6 22 24
f 6 24 47
f 6 47 23
f 7 23 25
f 7 25 26
f 7 26 27
f 7 27 28
f 7 28 29
f 8 29 32
f 8 32 10
f 9 30 38
f 9 38 15
f 9 14 31
f 9 31 30
f 10 32 64
f 10 64 102
f 10 102 143
f 10 143 184
f 10 184 183
f 10 183 182
f 10 182 227
f 10 227 267
f 10 267 321
f 10 321 265
f 10 265 320
f 10 320 319
f 10 319 318
f 10 318 379
f 10 379 378
f 10 378 377
f 10 377 376
f 10 376 440
f 10 440 439
f 10 439 491
f 10 491 445
f 10 445 495
f 10 495 536
f 10 536 534
f 10 534 542
f 10 542 501
f 10 501 465
f 10 465 415
f 10 415 413
f 10 413 464
f 10 464 463
f 10 463 462
f 10 462 459
f 10 459 458
f 10 458 410
f 10 410 409
f 10 409 461
f 10 461 500
f 10 500 540
f 10 540 589
f 10 589 588
f 10 588 591
f 10 591 642
f 10 642 693
f 10 693 754
f 10 754 753
f 10 753 818
f 10 818 852
f 10 852 851
f 10 851 850
f 10 850 846
f 10 846 776
f 10 776 843
f 10 843 773
f 10 773 842
f 10 842 874
f 10 874 873
f 10 873 872
f 10 872 871
f 10 871 869
f 10 869 835
f 10 835 834
f 10 834 833
f 10 833 868
f 10 868 878
f 10 878 877
f 10 877 879
f 10 879 866
f 10 866 867
f 10 867 828
f 10 828 823
f 10 823 759
f 10 759 696
f 10 696 685
f 10 685 746
f 10 746 811
f 10 811 861
f 10 861 875
f 10 875 863
f 10 863 816
f 10 816 815
f 10 815 814
f 10 814 862
f 10 862 856
f 10 856 855
f 10 855 854
f 10 854 853
f 10 853 798
f 10 798 732
f 10 732 795
f 10 795 729
f 10 729 728
f 10 728 794
f 10 794 790
f 10 790 789
f 10 789 787
f 10 787 718
f 10 718 786
f 10 786 716
f 10 716 666
f 10 666 613
f 10 613 561
f 10 561 560
f 10 560 514
f 10 514 478
f 10 478 477
f 10 477 476
f 10 476 426
f 10 426 365
f 10 365 364
f 10 364 425
f 10 425 394
f 10 394 393
f 10 393 392
f 10 392 391
f 10 391 334
f 10 334 390
f 10 390 449
f 10 449 496
f 10 496 452
f 10 452 454
f 10 454 453
f 10 453 400
f 10 400 345
f 10 345 387
f 10 387 328
f 10 328 327
f 10 327 277
f 10 277 276
f 10 276 275
f 10 275 274
f 10 274 273
f 10 273 230
f 10 230 229
f 10 229 187
f 10 187 228
f 10 228 185
f 10 185 145
f 10 145 144
f 10 144 105
f 10 105 104
f 10 104 103
f 10 103 66
f 10 66 36
f 10 36 65
f 10 65 34
f 10 34 33
f 10 33 11
f 11 33 34
f 11 34 14
f 11 14 12
f 12 14 13
f 14 34 35
f 14 35 36
f 14 36 37
f 14 37 31
f 15 38 16
f 16 38 39
f 16 39 18
f 16 18 17
f 18 40 19
f 18 39 72
f 18 72 40
f 19 40 41
f 19 41 42
f 19 42 43
f 19 43 44
f 19 44 45
f 19 45 20
f 20 45 46
f 20 46 21
f 21 46 24
f 21 24 22
f 23 47 48
f 23 48 25
f 24 46 49
f 24 49 84
f 24 84 47
f 25 50 51
f 25 51 52
f 25 52 26
f 25 48 53
f 25 53 54
f 25 54 50
f 26 52 55
f 26 55 56
f 26 56 27
f 27 56 57
f 27 57 28
f 28 57 58
f 28 58 59
f 28 59 60
f 28 60 61
f 28 61 32
f 28 32 29
f 30 62 73
f 30 73 38
f 30 31 62
f 31 37 71
f 31 71 63
f 31 63 62
f 32 61 64
f 34 65 35
f 35 65 36
f 36 66 67
f 36 67 37
f 37 67 68
f 37 68 69
f 37 69 70
f 37 70 71
f 38 72 39
f 38 73 72
f 40 72 41
f 41 72 73
f 41 73 74
f 41 74 42
f 42 75 43
f 42 74 76
f 42 76 99
f 42 99 77
f 42 77 110
f 42 110 75
f 43 78 79
f 43 79 44
f 43 75 78
f 44 79 80
f 44 80 81
f 44 81 45
f 45 81 46
f 46 81 82
f 46 82 49
f 47 83 53
f 47 53 48
f 47 84 83
f 49 82 85
f 49 85 86
f 49 86 124
f 49 124 167
f 49 167 166
f 49 166 212
f 49 212 256
f 49 256 311
f 49 311 370
f 49 370 434
f 49 434 489
f 49 489 488
f 49 488 506
f 49 506 505
f 49 505 470
f 49 470 419
f 49 419 359
f 49 359 306
f 49 306 250
f 49 250 207
f 49 207 203
f 49 203 160
f 49 160 120
f 49 120 84
f 50 87 88
f 50 88 89
f 50 89 90
f 50 90 51
f 50 54 91
f 50 91 92
f 50 92 87
f 51 90 132
f 51 132 93
f 51 93 55
f 51 55 52
f 53 83 54
f 54 83 91
f 55 93 94
f 55 94 56
f 56 94 95
f 56 95 57
f 57 95 96
f 57 96 58
f 58 96 97
f 58 97 98
f 58 98 64
f 58 64 61
f 58 61 60
f 58 60 59
f 62 99 76
f 62 76 73
f 62 63 99
f 63 71 100
f 63 100 101
f 63 101 99
f 64 98 102
f 66 103 67
f 67 103 68
f 68 103 104
f 68 104 105
f 68 105 106
f 68 106 69
f 69 106 107
f 69 107 108
f 69 108 70
f 70 108 109
f 70 109 100
f 70 100 71
f 73 76 74
f 75 110 115
f 75 115 78
f 77 99 111
f 77 111 112
f 77 112 110
f 78 113 114
f 78 114 79
f 78 115 150
f 78 150 113
f 79 114 80
f 80 114 116
f 80 116 117
f 80 117 81
f 81 117 85
f 81 85 82
f 83 118 91
f 83 84 119
f 83 119 118
f 84 120 121
f 84 121 119
f 85 117 122
f 85 122 123
f 85 123 124
f 85 124 86
f 87 92 125
f 87 125 126
f 87 126 127
f 87 127 88
f 88 128 89
f 88 127 171
f 88 171 129
f 88 129 172
f 88 172 130
f 88 130 128
f 89 128 131
f 89 131 132
f 89 132 90
f 91 118 92
f 92 133 125
f 92 118 133
f 93 132 94
f 94 132 131
f 94 131 134
f 94 134 95
f 95 134 96
f 96 135 140
f 96 140 97
f 96 134 135
f 97 136 137
f 97 137 138
f 97 138 139
f 97 139 102
f 97 102 98
f 97 140 136
f 99 101 111
f 100 111 101
f 100 109 141
f 100 141 142
f 100 142 111
f 102 139 143
f 105 144 106
f 106 144 107
f 107 144 145
f 107 145 141
f 107 141 108
f 108 141 109
f 110 112 115
f 111 142 146
f 111 146 147
f 111 147 148
f 111 148 112
f 112 148 149
f 112 149 115
f 113 150 193
f 113 193 151
f 113 151 114
f 114 151 152
f 114 152 116
f 115 149 153
f 115 153 150
f 116 154 155
f 116 155 117
f 116 152 156
f 116 156 157
f 116 157 158
f 116 158 154
f 117 155 122
f 118 159 133
f 118 119 121
f 118 121 159
f 120 160 121
f 121 161 162
f 121 162 159
f 121 160 161
f 122 155 163
f 122 163 123
f 123 163 164
f 123 164 165
f 123 165 166
f 123 166 167
f 123 167 124
f 125 168 126
f 125 133 168
f 126 168 169
f 126 169 215
f 126 215 170
f 126 170 171
f 126 171 127
f 128 130 131
f 129 171 173
f 129 173 174
f 129 174 172
f 130 172 134
f 130 134 131
f 133 175 168
f 133 159 175
f 134 172 135
f 135 176 177
f 135 177 140
f 135 172 176
f 136 140 177
f 136 177 178
f 136 178 179
f 136 179 137
f 137 179 180
f 137 180 181
f 137 181 138
f 138 182 183
f 138 183 184
f 138 184 143
f 138 143 139
f 138 181 182
f 141 145 185
f 141 185 142
f 142 185 146
f 146 185 186
f 146 186 187
f 146 187 188
f 146 188 189
f 146 189 190
f 146 190 147
f 147 190 149
f 147 149 148
f 149 190 191
f 149 191 192
f 149 192 153
f 150 153 193
f 151 193 234
f 151 234 194
f 151 194 156
f 151 156 152
f 153 192 195
f 153 195 196
f 153 196 193
f 154 197 164
f 154 164 163
f 154 163 155
f 154 158 198
f 154 198 199
f 154 199 197
f 156 194 200
f 156 200 157
f 157 200 201
f 157 201 158
f 158 201 198
f 159 162 202
f 159 202 175
f 160 203 161
f 161 204 205
f 161 205 206
f 161 206 162
f 161 203 207
f 161 207 204
f 162 206 202
f 164 197 208
f 164 208 165
f 165 208 209
f 165 209 210
f 165 210 211
f 165 211 166
f 166 211 212
f 168 175 213
f 168 213 214
f 168 214 169
f 169 214 258
f 169 258 215
f 170 215 216
f 170 216 217
f 170 217 173
f 170 173 171
f 172 174 176
f 173 217 218
f 173 218 174
f 174 218 219
f 174 219 220
f 174 220 221
f 174 221 177
f 174 177 176
f 175 202 222
f 175 222 223
f 175 223 224
f 175 224 225
f 175 225 213
f 177 221 226
f 177 226 178
f 178 226 179
f 179 226 180
f 180 226 227
f 180 227 181
f 181 227 182
f 185 228 186
f 186 228 187
f 187 229 188
f 188 229 230
f 188 230 231
f 188 231 189
f 189 231 190
f 190 231 191
f 191 231 232
f 191 232 233
f 191 233 195
f 191 195 192
f 193 196 234
f 194 234 244
f 194 244 200
f 195 233 235
f 195 235 236
f 195 236 234
f 195 234 196
f 197 237 208
f 197 199 238
f 197 238 239
f 197 239 240
f 197 240 237
f 198 241 199
f 198 201 242
f 198 242 241
f 199 243 238
f 199 241 243
f 200 244 245
f 200 245 201
f 201 245 294
f 201 294 242
f 202 206 222
f 204 246 247
f 204 247 248
f 204 248 205
f 204 207 251
f 204 251 246
f 205 248 249
f 205 249 222
f 205 222 206
f 207 250 251
f 208 237 252
f 208 252 209
f 209 252 253
f 209 253 210
f 210 253 254
f 210 254 255
f 210 255 211
f 211 255 212
f 212 255 309
f 212 309 256
f 213 225 214
f 214 257 312
f 214 312 258
f 214 225 257
f 215 258 216
f 216 259 260
f 216 260 217
f 216 258 261
f 216 261 259
f 217 260 262
f 217 262 263
f 217 263 219
f 217 219 218
f 219 263 220
f 220 264 265
f 220 265 266
f 220 266 267
f 220 267 226
f 220 226 221
f 220 263 268
f 220 268 264
f 222 249 269
f 222 269 270
f 222 270 223
f 223 270 271
f 223 271 272
f 223 272 224
f 224 272 225
f 225 272 257
f 226 267 227
f 230 273 231
f 231 273 274
f 231 274 232
f 232 274 275
f 232 275 235
f 232 235 233
f 234 236 244
f 235 275 276
f 235 276 277
f 235 277 278
f 235 278 279
f 235 279 236
f 236 279 280
f 236 280 281
f 236 281 282
f 236 282 244
f 237 240 283
f 237 283 284
f 237 284 285
f 237 285 286
f 237 286 287
f 237 287 252
f 238 243 239
f 239 288 240
f 239 243 289
f 239 289 288
f 240 288 290
f 240 290 283
f 241 242 291
f 241 291 292
f 241 292 293
f 241 293 243
f 242 294 344
f 242 344 295
f 242 295 291
f 243 293 289
f 244 282 245
f 245 282 296
f 245 296 297
f 245 297 294
f 246 251 298
f 246 298 299
f 246 299 300
f 246 300 247
f 247 300 301
f 247 301 248
f 248 301 302
f 248 302 249
f 249 302 303
f 249 303 304
f 249 304 305
f 249 305 269
f 250 306 348
f 250 348 298
f 250 298 251
f 252 287 307
f 252 307 253
f 253 307 308
f 253 308 254
f 254 308 255
f 255 308 309
f 256 309 310
f 256 310 311
f 257 272 326
f 257 326 312
f 258 312 261
f 259 313 314
f 259 314 315
f 259 315 262
f 259 262 260
f 259 261 312
f 259 312 313
f 262 316 317
f 262 317 263
f 262 315 316
f 263 317 268
f 264 317 318
f 264 318 319
f 264 319 320
f 264 320 265
f 264 268 317
f 265 321 266
f 266 321 267
f 269 305 322
f 269 322 323
f 269 323 270
f 270 323 324
f 270 324 271
f 271 324 384
f 271 384 325
f 271 325 326
f 271 326 272
f 277 327 278
f 278 327 328
f 278 328 329
f 278 329 279
f 279 329 330
f 279 330 331
f 279 331 280
f 280 331 332
f 280 332 296
f 280 296 281
f 281 296 282
f 283 290 284
f 284 290 333
f 284 333 285
f 285 333 334
f 285 334 335
f 285 335 336
f 285 336 286
f 286 336 338
f 286 338 287
f 287 337 307
f 287 338 363
f 287 363 339
f 287 339 337
f 288 289 340
f 288 340 395
f 288 395 341
f 288 341 342
f 288 342 290
f 289 293 292
f 289 292 340
f 290 342 334
f 290 334 333
f 291 295 292
f 292 295 344
f 292 344 343
f 292 343 395
f 292 395 340
f 294 297 344
f 296 332 297
f 297 332 331
f 297 331 330
f 297 330 329
f 297 329 345
f 297 345 346
f 297 346 347
f 297 347 344
f 298 348 349
f 298 349 299
f 299 349 300
f 300 349 350
f 300 350 301
f 301 350 351
f 301 351 302
f 302 351 352
f 302 352 353
f 302 353 354
f 302 354 355
f 302 355 303
f 303 355 356
f 303 356 357
f 303 357 304
f 304 322 305
f 304 357 358
f 304 358 322
f 306 359 360
f 306 360 348
f 307 337 308
f 308 361 362
f 308 362 309
f 308 337 339
f 308 339 363
f 308 363 364
f 308 364 365
f 308 365 361
f 309 366 367
f 309 367 310
f 309 362 366
f 310 367 368
f 310 368 311
f 311 368 369
f 311 369 370
f 312 326 313
f 313 371 372
f 313 372 373
f 313 373 375
f 313 375 314
f 313 326 374
f 313 374 371
f 314 375 376
f 314 376 377
f 314 377 378
f 314 378 316
f 314 316 315
f 316 378 379
f 316 379 317
f 317 379 318
f 322 358 380
f 322 380 323
f 323 380 381
f 323 381 382
f 323 382 324
f 324 382 383
f 324 383 442
f 324 442 384
f 325 385 374
f 325 374 326
f 325 384 386
f 325 386 385
f 328 387 329
f 329 387 345
f 334 388 389
f 334 389 390
f 334 391 335
f 334 342 388
f 335 391 336
f 336 391 392
f 336 392 393
f 336 393 394
f 336 394 338
f 338 394 363
f 341 395 396
f 341 396 397
f 341 397 388
f 341 388 342
f 343 398 395
f 343 344 347
f 343 347 399
f 343 399 396
f 343 396 398
f 345 400 401
f 345 401 346
f 346 401 399
f 346 399 347
f 348 360 402
f 348 402 403
f 348 403 404
f 348 404 349
f 349 405 406
f 349 406 407
f 349 407 350
f 349 404 408
f 349 408 409
f 349 409 410
f 349 410 405
f 350 407 351
f 351 407 406
f 351 406 405
f 351 405 411
f 351 411 412
f 351 412 352
f 352 412 413
f 352 413 353
f 353 414 354
f 353 413 415
f 353 415 414
f 354 414 356
f 354 356 355
f 356 414 415
f 356 415 416
f 356 416 417
f 356 417 357
f 357 417 467
f 357 467 418
f 357 418 358
f 358 418 381
f 358 381 380
f 359 419 420
f 359 420 421
f 359 421 402
f 359 402 360
f 361 365 422
f 361 422 423
f 361 423 424
f 361 424 362
f 362 424 366
f 363 394 425
f 363 425 364
f 365 426 422
f 366 427 367
f 366 424 427
f 367 427 428
f 367 428 368
f 368 428 429
f 368 429 430
f 368 430 369
f 369 430 431
f 369 431 432
f 369 432 433
f 369 433 434
f 369 434 370
f 371 374 385
f 371 385 372
f 372 435 373
f 372 385 436
f 372 436 435
f 373 437 375
f 373 435 438
f 373 438 437
f 375 437 439
f 375 439 440
f 375 440 376
f 381 441 442
f 381 442 383
f 381 383 382
f 381 418 467
f 381 467 441
f 384 442 386
f 385 386 436
f 386 443 444
f 386 444 445
f 386 445 437
f 386 437 438
f 386 438 435
f 386 435 436
f 386 442 443
f 388 397 389
f 389 397 446
f 389 446 447
f 389 447 390
f 390 448 449
f 390 447 448
f 395 398 396
f 396 399 450
f 396 450 446
f 396 446 397
f 399 401 451
f 399 451 452
f 399 452 450
f 400 453 401
f 401 453 454
f 401 454 451
f 402 455 456
f 402 456 403
f 402 421 455
f 403 456 457
f 403 457 404
f 404 457 460
f 404 460 408
f 405 410 458
f 405 458 459
f 405 459 411
f 408 460 409
f 409 460 461
f 411 459 412
f 412 459 462
f 412 462 463
f 412 463 464
f 412 464 413
f 415 465 416
f 416 465 466
f 416 466 417
f 417 466 468
f 417 468 469
f 417 469 467
f 419 470 420
f 420 470 471
f 420 471 472
f 420 472 473
f 420 473 474
f 420 474 421
f 421 474 475
f 421 475 455
f 422 426 423
f 423 426 476
f 423 476 477
f 423 477 478
f 423 478 479
f 423 479 480
f 423 480 424
f 424 480 481
f 424 481 427
f 427 481 428
f 428 481 429
f 429 481 482
f 429 482 483
f 429 483 430
f 430 483 484
f 430 484 431
f 431 484 485
f 431 485 432
f 432 485 486
f 432 486 433
f 433 487 488
f 433 488 489
f 433 489 434
f 433 486 490
f 433 490 487
f 437 445 491
f 437 491 439
f 441 467 492
f 441 492 469
f 441 469 493
f 441 493 443
f 441 443 442
f 443 493 444
f 444 494 445
f 444 493 494
f 445 494 495
f 446 450 447
f 447 450 452
f 447 452 448
f 448 452 496
f 448 496 449
f 451 454 452
f 455 475 497
f 455 497 456
f 456 497 457
f 457 497 498
f 457 498 499
f 457 499 460
f 460 499 500
f 460 500 461
f 465 501 502
f 465 502 466
f 466 502 468
f 467 469 492
f 468 502 503
f 468 503 469
f 469 503 504
f 469 504 493
f 470 505 471
f 471 505 506
f 471 506 507
f 471 507 508
f 471 508 509
f 471 509 472
f 472 509 510
f 472 510 473
f 473 510 511
f 473 511 474
f 474 511 512
f 474 512 475
f 475 512 513
f 475 513 497
f 478 514 479
f 479 514 515
f 479 515 516
f 479 516 517
f 479 517 480
f 480 517 518
f 480 518 482
f 480 482 481
f 482 518 519
f 482 519 520
f 482 520 521
f 482 521 522
f 482 522 483
f 483 522 523
f 483 523 524
f 483 524 525
f 483 525 484
f 484 525 526
f 484 526 527
f 484 527 528
f 484 528 485
f 485 528 486
f 486 528 529
f 486 529 490
f 487 490 530
f 487 530 488
f 488 530 531
f 488 531 545
f 488 545 506
f 490 529 532
f 490 532 533
f 490 533 530
f 493 504 534
f 493 534 535
f 493 535 494
f 494 536 495
f 494 535 536
f 497 513 498
f 498 513 537
f 498 537 538
f 498 538 541
f 498 541 499
f 499 539 540
f 499 540 500
f 499 541 539
f 501 542 543
f 501 543 544
f 501 544 502
f 502 544 503
f 503 544 504
f 504 544 534
f 506 545 546
f 506 546 507
f 507 546 508
f 508 546 547
f 508 547 548
f 508 548 549
f 508 549 509
f 509 549 550
f 509 550 510
f 510 550 511
f 511 550 551
f 511 551 552
f 511 552 553
f 511 553 512
f 512 553 554
f 512 554 555
f 512 555 556
f 512 556 513
f 513 556 557
f 513 557 558
f 513 558 559
f 513 559 537
f 514 560 515
f 515 560 561
f 515 561 516
f 516 562 563
f 516 563 517
f 516 561 562
f 517 519 518
f 517 563 564
f 517 564 519
f 519 565 566
f 519 566 520
f 519 564 567
f 519 567 565
f 520 566 568
f 520 568 521
f 521 568 522
f 522 568 569
f 522 569 523
f 523 570 524
f 523 569 617
f 523 617 571
f 523 571 618
f 523 618 570
f 524 570 572
f 524 572 525
f 525 572 526
f 526 572 573
f 526 573 574
f 526 574 527
f 527 575 528
f 527 574 624
f 527 624 575
f 528 575 576
f 528 576 577
f 528 577 578
f 528 578 529
f 529 578 579
f 529 579 532
f 530 533 580
f 530 580 581
f 530 581 531
f 531 581 582
f 531 582 583
f 531 583 592
f 531 592 545
f 532 579 584
f 532 584 585
f 532 585 533
f 533 585 580
f 534 544 543
f 534 543 542
f 534 536 535
f 537 559 538
f 538 559 586
f 538 586 587
f 538 587 590
f 538 590 541
f 539 588 589
f 539 589 540
f 539 541 588
f 541 590 591
f 541 591 588
f 545 592 593
f 545 593 594
f 545 594 546
f 546 594 595
f 546 595 547
f 547 595 596
f 547 596 548
f 548 596 597
f 548 597 598
f 548 598 549
f 549 598 599
f 549 599 550
f 550 599 600
f 550 600 601
f 550 601 602
f 550 602 551
f 551 602 656
f 551 656 603
f 551 603 552
f 552 603 604
f 552 604 605
f 552 605 553
f 553 605 606
f 553 606 554
f 554 606 555
f 555 607 556
f 555 606 663
f 555 663 608
f 555 608 664
f 555 664 607
f 556 607 609
f 556 609 557
f 557 609 558
f 558 609 610
f 558 610 559
f 559 610 611
f 559 611 612
f 559 612 586
f 561 613 562
f 562 613 563
f 563 613 614
f 563 614 564
f 564 614 615
f 564 615 567
f 565 568 566
f 565 567 568
f 567 615 568
f 568 615 614
f 568 614 613
f 568 613 616
f 568 616 617
f 568 617 569
f 570 618 622
f 570 622 572
f 571 617 619
f 571 619 618
f 572 620 621
f 572 621 573
f 572 622 674
f 572 674 623
f 572 623 620
f 573 621 574
f 574 621 625
f 574 625 675
f 574 675 626
f 574 626 624
f 575 624 576
f 576 624 627
f 576 627 628
f 576 628 577
f 577 628 677
f 577 677 629
f 577 629 630
f 577 630 578
f 578 630 680
f 578 680 631
f 578 631 579
f 579 631 584
f 580 585 632
f 580 632 581
f 581 632 582
f 582 632 583
f 583 632 633
f 583 633 644
f 583 644 592
f 584 634 585
f 584 631 635
f 584 635 634
f 585 634 636
f 585 636 637
f 585 637 638
f 585 638 632
f 586 612 639
f 586 639 640
f 586 640 587
f 587 640 591
f 587 591 590
f 591 641 642
f 591 640 609
f 591 609 643
f 591 643 641
f 592 644 645
f 592 645 593
f 593 645 594
f 594 645 595
f 595 645 596
f 596 645 646
f 596 646 647
f 596 647 648
f 596 648 649
f 596 649 597
f 597 650 598
f 597 649 651
f 597 651 650
f 598 650 599
f 599 650 703
f 599 703 652
f 599 652 653
f 599 653 600
f 600 653 707
f 600 707 654
f 600 654 601
f 601 655 656
f 601 656 602
f 601 654 655
f 603 656 657
f 603 657 710
f 603 710 658
f 603 658 659
f 603 659 604
f 604 659 605
f 605 659 660
f 605 660 661
f 605 661 711
f 605 711 662
f 605 662 663
f 605 663 606
f 607 664 643
f 607 643 609
f 608 663 665
f 608 665 664
f 609 639 612
f 609 612 611
f 609 611 610
f 609 640 639
f 613 666 616
f 616 666 667
f 616 667 617
f 617 667 668
f 617 668 619
f 618 619 669
f 618 669 670
f 618 670 671
f 618 671 622
f 619 668 672
f 619 672 670
f 619 670 669
f 620 623 673
f 620 673 621
f 621 673 625
f 622 671 674
f 623 674 725
f 623 725 673
f 624 626 675
f 624 675 673
f 624 673 627
f 625 673 675
f 627 673 725
f 627 725 676
f 627 676 677
f 627 677 628
f 629 677 678
f 629 678 679
f 629 679 630
f 630 679 680
f 631 680 688
f 631 688 635
f 632 638 681
f 632 681 682
f 632 682 633
f 633 682 683
f 633 683 684
f 633 684 685
f 633 685 696
f 633 696 644
f 634 686 636
f 634 635 688
f 634 688 687
f 634 687 747
f 634 747 686
f 636 686 689
f 636 689 637
f 637 689 690
f 637 690 638
f 638 690 681
f 641 691 692
f 641 692 642
f 641 643 664
f 641 664 691
f 642 692 693
f 644 694 695
f 644 695 645
f 644 696 697
f 644 697 694
f 645 695 698
f 645 698 646
f 646 698 699
f 646 699 647
f 647 699 700
f 647 700 648
f 648 700 701
f 648 701 649
f 649 701 765
f 649 765 702
f 649 702 704
f 649 704 651
f 650 651 704
f 650 704 703
f 652 703 705
f 652 705 653
f 653 705 706
f 653 706 707
f 654 707 708
f 654 708 655
f 655 708 779
f 655 779 709
f 655 709 656
f 656 709 710
f 656 710 657
f 658 710 709
f 658 709 659
f 659 709 660
f 660 709 661
f 661 709 779
f 661 779 711
f 662 711 712
f 662 712 663
f 663 713 665
f 663 712 714
f 663 714 713
f 664 665 691
f 665 714 715
f 665 715 691
f 665 713 714
f 666 716 667
f 667 716 668
f 668 716 717
f 668 717 672
f 670 672 718
f 670 718 719
f 670 719 720
f 670 720 721
f 670 721 671
f 671 721 722
f 671 722 723
f 671 723 724
f 671 724 674
f 672 717 718
f 674 724 725
f 676 725 726
f 676 726 677
f 677 726 727
f 677 727 728
f 677 728 729
f 677 729 730
f 677 730 796
f 677 796 731
f 677 731 732
f 677 732 733
f 677 733 734
f 677 734 678
f 678 734 735
f 678 735 679
f 679 735 736
f 679 736 680
f 680 736 688
f 681 690 737
f 681 737 682
f 682 737 738
f 682 738 739
f 682 739 740
f 682 740 683
f 683 740 684
f 684 740 741
f 684 741 742
f 684 742 685
f 685 742 743
f 685 743 744
f 685 744 745
f 685 745 746
f 686 747 751
f 686 751 689
f 687 688 748
f 687 748 749
f 687 749 750
f 687 750 747
f 688 736 748
f 689 751 752
f 689 752 690
f 690 738 737
f 690 752 740
f 690 740 739
f 690 739 738
f 691 715 692
f 692 715 753
f 692 753 754
f 692 754 693
f 694 697 755
f 694 755 758
f 694 758 695
f 695 756 757
f 695 757 698
f 695 758 756
f 696 759 760
f 696 760 761
f 696 761 697
f 697 761 762
f 697 762 755
f 698 757 699
f 699 763 764
f 699 764 700
f 699 757 756
f 699 756 758
f 699 758 755
f 699 755 763
f 700 764 765
f 700 765 701
f 702 766 704
f 702 765 767
f 702 767 768
f 702 768 766
f 703 704 769
f 703 769 705
f 704 766 769
f 705 770 706
f 705 769 770
f 706 770 771
f 706 771 707
f 707 771 772
f 707 772 773
f 707 773 774
f 707 774 844
f 707 844 775
f 707 775 776
f 707 776 777
f 707 777 778
f 707 778 708
f 708 778 779
f 711 779 780
f 711 780 712
f 712 780 781
f 712 781 782
f 712 782 783
f 712 783 714
f 714 783 784
f 714 784 785
f 714 785 753
f 714 753 715
f 716 786 717
f 717 786 718
f 718 787 788
f 718 788 719
f 719 788 720
f 720 787 789
f 720 789 790
f 720 790 722
f 720 722 721
f 720 788 787
f 722 790 791
f 722 791 723
f 723 791 724
f 724 791 725
f 725 791 727
f 725 727 726
f 727 792 728
f 727 791 792
f 728 792 793
f 728 793 794
f 729 795 796
f 729 796 797
f 729 797 730
f 730 797 796
f 731 796 732
f 732 796 795
f 732 798 799
f 732 799 733
f 733 799 800
f 733 800 735
f 733 735 734
f 735 800 801
f 735 801 802
f 735 802 803
f 735 803 804
f 735 804 736
f 736 804 748
f 740 752 805
f 740 805 806
f 740 806 807
f 740 807 741
f 741 808 742
f 741 807 808
f 742 808 743
f 743 808 809
f 743 809 810
f 743 810 744
f 744 810 745
f 745 810 811
f 745 811 746
f 747 812 751
f 747 750 812
f 748 804 749
f 749 804 813
f 749 813 750
f 750 813 814
f 750 814 815
f 750 815 816
f 750 816 812
f 751 812 817
f 751 817 806
f 751 806 805
f 751 805 752
f 753 785 819
f 753 819 818
f 755 762 820
f 755 820 821
f 755 821 822
f 755 822 763
f 759 823 824
f 759 824 825
f 759 825 760
f 760 826 827
f 760 827 761
f 760 825 828
f 760 828 829
f 760 829 826
f 761 827 762
f 762 827 820
f 763 822 764
f 764 830 765
f 764 822 821
f 764 821 831
f 764 831 830
f 765 830 767
f 766 768 832
f 766 832 769
f 767 833 834
f 767 834 835
f 767 835 836
f 767 836 768
f 767 830 833
f 768 836 832
f 769 832 770
f 770 832 837
f 770 837 838
f 770 838 839
f 770 839 840
f 770 840 772
f 770 772 771
f 772 840 841
f 772 841 773
f 773 841 842
f 773 843 844
f 773 844 774
f 775 844 845
f 775 845 776
f 776 845 844
f 776 844 843
f 776 846 847
f 776 847 848
f 776 848 777
f 777 848 849
f 777 849 779
f 777 779 778
f 779 849 780
f 780 849 781
f 781 849 782
f 782 850 784
f 782 784 783
f 782 849 850
f 784 850 851
f 784 851 852
f 784 852 818
f 784 818 819
f 784 819 785
f 790 794 793
f 790 793 792
f 790 792 791
f 798 853 800
f 798 800 799
f 800 853 801
f 801 853 854
f 801 854 855
f 801 855 856
f 801 856 857
f 801 857 813
f 801 813 802
f 802 813 803
f 803 813 804
f 806 817 807
f 807 817 858
f 807 858 859
f 807 859 809
f 807 809 808
f 809 859 810
f 810 859 811
f 811 859 860
f 811 860 861
f 812 816 817
f 813 857 814
f 814 857 862
f 816 863 858
f 816 858 817
f 820 864 865
f 820 865 831
f 820 831 821
f 820 827 826
f 820 826 864
f 823 828 824
f 824 828 825
f 826 829 866
f 826 866 864
f 828 867 829
f 829 867 866
f 830 831 868
f 830 868 833
f 831 865 868
f 832 836 837
f 835 869 870
f 835 870 836
f 836 870 871
f 836 871 839
f 836 839 838
f 836 838 837
f 839 871 872
f 839 872 873
f 839 873 840
f 840 873 874
f 840 874 841
f 841 874 842
f 846 850 847
f 847 850 848
f 848 850 849
f 856 862 857
f 858 863 875
f 858 875 861
f 858 861 860
f 858 860 859
f 864 866 876
f 864 876 865
f 865 876 877
f 865 877 878
f 865 878 868
f 866 879 876
f 869 871 870
f 876 879 877

