# https://github.com/mikedh/trimesh
v 0.03539215 0.02810929 -0.00861980
v 0.03536509 0.02910027 -0.00861980
v 0.02738093 0.02810929 -0.00861980
v 0.03532052 0.02810929 -0.00890921
v 0.03505152 0.02910027 -0.00990022
v 0.03523934 0.02948182 -0.00861980
v 0.03420312 0.03000749 -0.01261235
v 0.03434638 0.03017979 -0.01170027
v 0.02998660 0.03045108 -0.00861980
v 0.01913253 0.03038481 -0.02461412
v 0.01913253 0.02841245 -0.02232076
v 0.01913253 0.02810929 -0.02203574
v 0.03524730 0.02810929 -0.00919643
v 0.03506585 0.02810929 -0.00990022
v 0.03450237 0.02910027 -0.01170027
v 0.03461538 0.03042175 -0.00990022
v 0.03476182 0.03047365 -0.00861980
v 0.03420790 0.02910027 -0.01262551
v 0.03383384 0.02910027 -0.01352443
v 0.03304911 0.02910027 -0.01530036
v 0.03247290 0.03010280 -0.01635496
v 0.03271962 0.03032108 -0.01530036
v 0.03149876 0.03096631 -0.00861980
v 0.01913253 0.03086423 -0.02609845
v 0.01913253 0.02810929 -0.03101843
v 0.03481754 0.02810929 -0.01070926
v 0.03451033 0.02810929 -0.01170027
v 0.03437821 0.02810929 -0.01211684
v 0.03333085 0.03039750 -0.01332711
v 0.03329901 0.03067499 -0.01170027
v 0.03329901 0.03091668 -0.00990022
v 0.03329901 0.03096885 -0.00861980
v 0.03420790 0.02810929 -0.01262331
v 0.03383861 0.02810929 -0.01352443
v 0.03305866 0.02810929 -0.01530036
v 0.03281831 0.02810929 -0.01581341
v 0.03251588 0.02910027 -0.01643827
v 0.03205428 0.02910027 -0.01733939
v 0.03115494 0.02910027 -0.01888072
v 0.02899177 0.03020884 -0.02184280
v 0.03096871 0.03032079 -0.01857816
v 0.03149876 0.03081628 -0.01530036
v 0.03154014 0.03045221 -0.01701271
v 0.03149876 0.03099000 -0.00990022
v 0.02070040 0.03099000 -0.02609845
v 0.01913253 0.03097731 -0.02789850
v 0.01913253 0.02893163 -0.03100747
v 0.01946043 0.02810929 -0.03081672
v 0.03149876 0.03098633 -0.01350031
v 0.03149876 0.03099000 -0.01170027
v 0.03251906 0.02810929 -0.01644266
v 0.03231213 0.02810929 -0.01684827
v 0.03205428 0.02810929 -0.01734378
v 0.03109445 0.02810929 -0.01899035
v 0.03059306 0.02810929 -0.01979280
v 0.03058032 0.02910027 -0.01977965
v 0.02937697 0.03040427 -0.02069831
v 0.02997069 0.02910027 -0.02069831
v 0.02909046 0.02910027 -0.02196996
v 0.02835666 0.02910027 -0.02286889
v 0.02745574 0.02910027 -0.02393664
v 0.02667260 0.02910027 -0.02483557
v 0.02729816 0.03027003 -0.02375247
v 0.02789824 0.03048521 -0.02246547
v 0.02986722 0.03058842 -0.01906708
v 0.02969850 0.03098323 -0.01710041
v 0.02789983 0.03089919 -0.02069831
v 0.02430091 0.03096716 -0.02429840
v 0.02789983 0.03099000 -0.01890046
v 0.02250065 0.03094600 -0.02609845
v 0.02070040 0.03089158 -0.02789850
v 0.01913253 0.03058588 -0.02985202
v 0.01913253 0.02902977 -0.03100527
v 0.01980425 0.02831065 -0.03060185
v 0.01980584 0.02810929 -0.03060185
v 0.03004868 0.02810929 -0.02060184
v 0.02966189 0.02810929 -0.02115873
v 0.02908886 0.02810929 -0.02197215
v 0.02836621 0.02810929 -0.02287327
v 0.02746529 0.02810929 -0.02393883
v 0.02711351 0.02810929 -0.02434445
v 0.02667419 0.02810929 -0.02483995
v 0.02577327 0.02910027 -0.02575422
v 0.02557908 0.03029965 -0.02556567
v 0.02614733 0.03053964 -0.02433129
v 0.02610117 0.03094488 -0.02249836
v 0.02432638 0.03054048 -0.02614011
v 0.02246723 0.03048013 -0.02790507
v 0.02070040 0.03039638 -0.02937186
v 0.01913253 0.02995701 -0.03079260
v 0.01978674 0.02951059 -0.03058431
v 0.02052212 0.02898634 -0.03009100
v 0.02062399 0.02810929 -0.03003400
v 0.02577486 0.02810929 -0.02575861
v 0.02482618 0.02810929 -0.02665973
v 0.02481982 0.02910027 -0.02665535
v 0.02374380 0.03027116 -0.02730871
v 0.02184486 0.03019869 -0.02897721
v 0.02197379 0.02910027 -0.02907368
v 0.02197856 0.02810929 -0.02907806
v 0.02392526 0.02810929 -0.02747315
v 0.02392048 0.02910027 -0.02746877
v 0.02287471 0.02910027 -0.02836769
v 0.02287790 0.02810929 -0.02837427
v 0.02345570 0.02810929 -0.02787876
f 1 2 6
f 1 6 17
f 1 17 32
f 1 32 23
f 1 23 9
f 1 9 3
f 1 3 12
f 1 12 25
f 1 25 48
f 1 48 75
f 1 75 93
f 1 93 100
f 1 100 104
f 1 104 105
f 1 105 101
f 1 101 95
f 1 95 94
f 1 94 82
f 1 82 81
f 1 81 80
f 1 80 79
f 1 79 78
f 1 78 77
f 1 77 76
f 1 76 55
f 1 55 54
f 1 54 53
f 1 53 52
f 1 52 51
f 1 51 36
f 1 36 35
f 1 35 34
f 1 34 33
f 1 33 28
f 1 28 27
f 1 27 26
f 1 26 14
f 1 14 13
f 1 13 4
f 1 4 5
f 1 5 2
f 2 5 7
f 2 7 8
f 2 8 6
f 3 9 10
f 3 10 11
f 3 11 12
f 4 13 5
f 5 13 14
f 5 14 15
f 5 15 7
f 6 8 16
f 6 16 17
f 7 18 19
f 7 19 20
f 7 20 21
f 7 21 22
f 7 22 8
f 7 15 18
f 8 22 16
f 9 23 24
f 9 24 10
f 10 24 46
f 10 46 72
f 10 72 90
f 10 90 73
f 10 73 47
f 10 47 25
f 10 25 12
f 10 12 11
f 14 26 15
f 15 26 27
f 15 27 28
f 15 28 18
f 16 22 29
f 16 29 30
f 16 30 31
f 16 31 17
f 17 31 32
f 18 28 33
f 18 33 34
f 18 34 19
f 19 34 35
f 19 35 20
f 20 35 36
f 20 36 37
f 20 37 21
f 21 37 38
f 21 38 39
f 21 39 40
f 21 40 41
f 21 41 22
f 22 42 29
f 22 41 43
f 22 43 42
f 23 32 44
f 23 44 45
f 23 45 46
f 23 46 24
f 25 47 48
f 29 42 30
f 30 42 31
f 31 42 49
f 31 49 32
f 32 49 50
f 32 50 44
f 36 51 37
f 37 51 52
f 37 52 38
f 38 53 54
f 38 54 39
f 38 52 53
f 39 54 55
f 39 55 56
f 39 56 40
f 40 57 41
f 40 56 58
f 40 58 59
f 40 59 60
f 40 60 61
f 40 61 62
f 40 62 63
f 40 63 64
f 40 64 57
f 41 57 65
f 41 65 43
f 42 66 49
f 42 43 65
f 42 65 67
f 42 67 66
f 44 50 69
f 44 69 45
f 45 68 46
f 45 69 68
f 46 68 70
f 46 70 71
f 46 71 72
f 47 73 74
f 47 74 48
f 48 74 75
f 49 66 69
f 49 69 50
f 55 76 58
f 55 58 56
f 57 64 67
f 57 67 65
f 58 76 59
f 59 76 77
f 59 77 78
f 59 78 79
f 59 79 60
f 60 79 61
f 61 79 80
f 61 80 81
f 61 81 62
f 62 81 82
f 62 82 94
f 62 94 83
f 62 83 84
f 62 84 63
f 63 84 85
f 63 85 64
f 64 85 67
f 66 67 86
f 66 86 68
f 66 68 69
f 67 85 86
f 68 86 85
f 68 85 87
f 68 87 70
f 70 87 71
f 71 87 88
f 71 88 89
f 71 89 72
f 72 89 90
f 73 90 91
f 73 91 74
f 74 91 92
f 74 92 93
f 74 93 75
f 83 94 95
f 83 95 96
f 83 96 84
f 84 96 97
f 84 97 87
f 84 87 85
f 87 97 88
f 88 98 89
f 88 97 98
f 89 98 90
f 90 98 91
f 91 98 99
f 91 99 92
f 92 99 93
f 93 99 100
f 95 101 102
f 95 102 96
f 96 102 97
f 97 102 98
f 98 102 103
f 98 103 99
f 99 103 104
f 99 104 100
f 101 105 102
f 102 105 103
f 103 105 104

