# https://github.com/mikedh/trimesh
v 0.03644173 0.02729921 0.00090232
v 0.03640245 0.02549947 0.00090232
v 0.03639888 0.02549947 -0.00089713
v 0.03642744 0.02729921 -0.00089713
v 0.03643459 0.02800269 0.00090232
v 0.03634175 0.02800269 0.00270178
v 0.03634532 0.02729921 0.00270178
v 0.03631318 0.02549947 0.00270178
v 0.03618107 0.02411428 0.00090232
v 0.03618107 0.02409920 -0.00089713
v 0.03613822 0.02422482 0.00270178
v 0.03613822 0.02421394 -0.00269659
v 0.03631675 0.02549947 -0.00269659
v 0.03635246 0.02729921 -0.00269659
v 0.03639531 0.02800269 -0.00159839
v 0.03642030 0.02800269 -0.00089713
v 0.03623106 0.02800269 0.00379998
v 0.03616679 0.02729921 0.00450123
v 0.03607038 0.02440572 0.00420133
v 0.03610965 0.02532360 0.00468206
v 0.03599897 0.02460588 0.00540096
v 0.03447430 0.01944700 0.00090232
v 0.03448144 0.01944700 0.00011286
v 0.03448858 0.01944700 -0.00089713
v 0.03437789 0.01944700 0.00270178
v 0.03439574 0.01944700 -0.00259074
v 0.03607038 0.02441158 -0.00419614
v 0.03599897 0.02460336 -0.00539577
v 0.03611322 0.02532192 -0.00467687
v 0.03617393 0.02729921 -0.00449605
v 0.03628105 0.02800269 -0.00340226
v 0.03634889 0.02800269 -0.00269659
v 0.03615964 0.02800269 0.00450123
v 0.03602753 0.02800269 0.00557297
v 0.03602753 0.02729921 0.00557738
v 0.03601682 0.02580599 0.00551122
v 0.03426006 0.01944700 0.00380880
v 0.03431362 0.01944700 0.00335452
v 0.03588471 0.02532360 0.00618602
v 0.03549550 0.02549947 0.00810015
v 0.03503489 0.02549947 0.00990401
v 0.03437789 0.02415615 0.01135505
v 0.03510630 0.02370056 0.00810015
v 0.03548479 0.02370056 0.00630069
v 0.03423149 0.02091594 0.00733273
v 0.03398155 0.01976609 0.00630069
v 0.03410652 0.01944700 0.00484525
v 0.03418508 0.01944700 0.00432041
v 0.03419222 0.01944700 -0.00427111
v 0.03416365 0.01944700 -0.00449605
v 0.03410652 0.01944700 -0.00485329
v 0.03393156 0.01944700 -0.00591179
v 0.03386729 0.01944700 -0.00629991
v 0.03548122 0.02370056 -0.00629991
v 0.03509916 0.02370056 -0.00809937
v 0.03508131 0.02421980 -0.00861980
v 0.03549907 0.02549947 -0.00809937
v 0.03588471 0.02532192 -0.00617201
v 0.03601325 0.02580347 -0.00549280
v 0.03617036 0.02800269 -0.00449605
v 0.03602039 0.02729921 -0.00552368
v 0.03593112 0.02800269 0.00611986
v 0.03587042 0.02729921 0.00647711
v 0.03552407 0.02729921 0.00810015
v 0.03507417 0.02729921 0.00990401
v 0.03443502 0.02564602 0.01185342
v 0.03418150 0.02514354 0.01255468
v 0.03337811 0.02370056 0.01350293
v 0.03398155 0.02361430 0.01185342
v 0.03413151 0.02295688 0.01057440
v 0.03457785 0.02361430 0.00994812
v 0.03407795 0.02131458 0.00853237
v 0.03378516 0.02023005 0.00800312
v 0.03344595 0.01944700 0.00810015
v 0.03385657 0.01944700 0.00630069
v 0.03363877 0.01944700 -0.00729226
v 0.03422435 0.02093521 -0.00730549
v 0.03407795 0.02131375 -0.00850513
v 0.03495276 0.02367544 -0.00861980
v 0.03536339 0.02549947 -0.00861980
v 0.03537767 0.02601954 -0.00861980
v 0.03540624 0.02729921 -0.00861980
v 0.03553835 0.02729921 -0.00809937
v 0.03587042 0.02729921 -0.00642340
v 0.03601682 0.02800269 -0.00550603
v 0.03585614 0.02800269 0.00647270
v 0.03564547 0.02800269 0.00746063
v 0.03550621 0.02800269 0.00810015
v 0.03506702 0.02800269 0.00990401
v 0.03448144 0.02800269 0.01179609
v 0.03445645 0.02724980 0.01187989
v 0.03419936 0.02634364 0.01260761
v 0.03389228 0.02564602 0.01332651
v 0.03303890 0.02549947 0.01529797
v 0.03246045 0.02446602 0.01631678
v 0.03282823 0.01944700 0.00976729
v 0.03267469 0.02379938 0.01520094
v 0.03246402 0.02267214 0.01453497
v 0.03322457 0.01944700 0.00870879
v 0.03344238 0.01944700 -0.00808614
v 0.03406010 0.02135981 -0.00861980
v 0.03539910 0.02781928 -0.00861980
v 0.03552050 0.02800269 -0.00809937
v 0.03572403 0.02800269 -0.00707615
v 0.03585614 0.02800269 -0.00640576
v 0.03424221 0.02800269 0.01246206
v 0.03419936 0.02661667 0.01260761
v 0.03391728 0.02724980 0.01332651
v 0.03308532 0.02729921 0.01529797
v 0.03251044 0.02549947 0.01641822
v 0.03202483 0.02549947 0.01731795
v 0.03057872 0.02497939 0.01976133
v 0.03085723 0.02370056 0.01844261
v 0.03174632 0.02379938 0.01699158
v 0.03216409 0.02326675 0.01573901
v 0.03270682 0.01944700 0.00999222
v 0.03057872 0.02101979 0.01616683
v 0.03088580 0.02234217 0.01709743
v 0.03324599 0.01944700 -0.00861980
v 0.03539195 0.02800269 -0.00861980
v 0.03388157 0.02800269 0.01339708
v 0.03419579 0.02781677 0.01259438
v 0.03307817 0.02800269 0.01529797
v 0.03274253 0.02800269 0.01600364
v 0.03253186 0.02729921 0.01645351
v 0.03204626 0.02729921 0.01735323
v 0.03116787 0.02729921 0.01889688
v 0.03060728 0.02617950 0.01981425
v 0.03102505 0.02554721 0.01905566
v 0.03031092 0.02370056 0.01934234
v 0.03006812 0.02554721 0.02052874
v 0.02905048 0.02549947 0.02193567
v 0.02895407 0.02434458 0.02180336
v 0.03061443 0.02277012 0.01802362
v 0.03231405 0.01944700 0.01069348
v 0.03028949 0.02144272 0.01709743
v 0.02859701 0.02123419 0.01952317
v 0.02900763 0.02084727 0.01832353
v -0.00003246 0.01944700 -0.00861980
v 0.02617968 0.02800269 -0.00861980
v 0.03252829 0.02800269 0.01644468
v 0.03223550 0.02800269 0.01699158
v 0.03204269 0.02800269 0.01734441
v 0.03116073 0.02800269 0.01889688
v 0.03061800 0.02800269 0.01982748
v 0.03061800 0.02729921 0.01982748
v 0.02996814 0.02729921 0.02072721
v 0.02937898 0.02372652 0.02070516
v 0.02903263 0.02243429 0.02010975
v 0.02906833 0.02729921 0.02196213
v 0.02837920 0.02729921 0.02286186
v 0.02834706 0.02549947 0.02283540
v 0.02744369 0.02549947 0.02390714
v 0.02727230 0.02416620 0.02371308
v 0.02792573 0.02365617 0.02253549
v 0.02857558 0.02314531 0.02130939
v 0.02962179 0.02200215 0.01877339
v 0.03153922 0.01944700 0.01167260
v 0.02739370 0.02076938 0.02032145
v 0.02798643 0.02174840 0.02081542
v 0.02692952 0.02106334 0.02152109
v -0.00003246 0.02798929 -0.00861980
v -0.00003246 0.01944700 0.03277651
v -0.00003246 0.02800269 0.02794268
v 0.03022165 0.02800269 0.02037438
v 0.02737585 0.02226261 0.02207239
v 0.02996457 0.02800269 0.02072721
v 0.02941469 0.02800269 0.02148140
v 0.02906476 0.02800269 0.02195772
v 0.02837920 0.02800269 0.02285745
v 0.02747939 0.02729921 0.02394242
v 0.02664029 0.02549947 0.02480686
v 0.02554053 0.02412349 0.02553900
v 0.02621182 0.02354563 0.02440992
v 0.02688310 0.02296693 0.02327203
v 0.02572978 0.02073923 0.02216501
v 0.02445862 0.02048799 0.02265898
v 0.02265188 0.02050055 0.02445403
v 0.02069873 0.02007847 0.02429966
v 0.01142575 0.01944700 0.02974214
v 0.02630822 0.02164622 0.02271632
v 0.02516561 0.02102900 0.02336465
v 0.00090305 0.01944700 0.03277651
v -0.00003246 0.02010024 0.03323520
v -0.00003246 0.02800269 0.03642835
v 0.02747939 0.02800269 0.02393801
v 0.02666529 0.02729921 0.02484215
v 0.02574049 0.02549947 0.02574187
v 0.02510134 0.02292422 0.02510236
v 0.02480855 0.02549947 0.02664160
v 0.02371236 0.02420305 0.02726788
v 0.02440507 0.02356405 0.02619615
v 0.02568336 0.02222911 0.02390273
v 0.02396231 0.02073672 0.02395565
v 0.02215199 0.02076017 0.02562279
v 0.02074515 0.02054829 0.02617410
v 0.01061522 0.01944700 0.03040811
v 0.02453361 0.02163199 0.02452901
v 0.02335172 0.02103487 0.02515970
v 0.00090305 0.02010024 0.03323520
v 0.00157790 0.01944700 0.03274564
v -0.00003246 0.02064711 0.03361890
v -0.00003246 0.02729921 0.03643276
v 0.00090305 0.02729921 0.03643717
v 0.00090305 0.02800269 0.03642835
v 0.02698308 0.02800269 0.02448490
v 0.02665815 0.02800269 0.02483774
v 0.02610827 0.02800269 0.02540668
v 0.02576548 0.02729921 0.02577275
v 0.02485140 0.02729921 0.02667248
v 0.02321604 0.02300378 0.02685330
v 0.02390160 0.02223414 0.02565367
v 0.02395159 0.02729921 0.02747518
v 0.02390874 0.02549947 0.02743989
v 0.02179849 0.02436887 0.02894826
v 0.02017742 0.02081712 0.02725906
v 0.00962972 0.01944700 0.03118435
v 0.02201630 0.02237483 0.02732522
v 0.02137715 0.02117472 0.02682243
v 0.00270266 0.02010024 0.03315140
v 0.00090305 0.02342000 0.03555950
v -0.00003246 0.02342000 0.03556391
v 0.00270266 0.01944700 0.03269272
v -0.00003246 0.02636375 0.03641071
v -0.00003246 0.02549947 0.03638866
v 0.00090305 0.02549947 0.03638866
v 0.00270266 0.02549947 0.03630486
v 0.00270266 0.02729921 0.03634896
v 0.00270266 0.02800269 0.03634455
v 0.00160290 0.02800269 0.03639748
v 0.02575834 0.02800269 0.02576834
v 0.02485140 0.02800269 0.02666807
v 0.02122362 0.02316960 0.02852486
v 0.02395159 0.02800269 0.02747076
v 0.02328745 0.02800269 0.02802207
v 0.02286612 0.02729921 0.02837490
v 0.02283398 0.02549947 0.02833962
v 0.02193418 0.02549947 0.02905411
v 0.01975608 0.02508156 0.03057130
v 0.01855634 0.02411512 0.03091972
v 0.02065231 0.02374076 0.02932315
v 0.01808859 0.02095614 0.02884682
v 0.01456078 0.02093772 0.03066391
v 0.00921909 0.01944700 0.03137400
v 0.02069873 0.02188407 0.02789416
v 0.02002388 0.02259258 0.02895267
v 0.01928475 0.02139247 0.02845870
v 0.00399166 0.01944700 0.03258246
v 0.00270266 0.02219812 0.03462007
v 0.00270266 0.02348701 0.03551980
v 0.00090305 0.02431862 0.03616813
v -0.00003246 0.02385047 0.03585499
v -0.00003246 0.02431862 0.03616813
v 0.00270266 0.02438562 0.03612403
v 0.00413806 0.02449030 0.03606228
v 0.00533780 0.02480855 0.03598731
v 0.00464152 0.02544503 0.03610198
v 0.00450227 0.02729921 0.03615932
v 0.00450227 0.02800269 0.03615490
v 0.02285898 0.02800269 0.02837049
v 0.02196631 0.02729921 0.02908057
v 0.01980607 0.02628168 0.03060217
v 0.02052377 0.02560918 0.03006410
v 0.01905266 0.02560918 0.03101234
v 0.01731376 0.02549947 0.03201351
v 0.01631397 0.02450706 0.03245455
v 0.01785649 0.02291585 0.03051396
v 0.01905266 0.02358918 0.03026257
v 0.01877058 0.02195609 0.02923053
v 0.01719235 0.02187737 0.03008174
v 0.01576052 0.02126182 0.03036401
v 0.01521779 0.02187737 0.03109614
v 0.01420729 0.02291500 0.03231783
v 0.01300755 0.02256326 0.03256040
v 0.01170069 0.02133385 0.03211054
v 0.01056166 0.02108260 0.03232224
v 0.00807292 0.01944700 0.03181063
v 0.00483077 0.01944700 0.03247661
v 0.00450227 0.02232459 0.03453186
v 0.00464152 0.02381446 0.03553744
v 0.00630187 0.02370056 0.03519343
v 0.00617690 0.02544503 0.03587264
v 0.00549491 0.02600865 0.03601377
v 0.00990109 0.02400876 0.03457156
v 0.01133292 0.02432365 0.03436868
v 0.00810148 0.02549947 0.03547570
v 0.00553061 0.02729921 0.03601818
v 0.00488433 0.02800269 0.03610198
v 0.02195917 0.02800269 0.02907616
v 0.02119148 0.02800269 0.02962747
v 0.02070587 0.02729921 0.02998030
v 0.01980607 0.02729921 0.03060217
v 0.01889912 0.02729921 0.03114465
v 0.01735660 0.02729921 0.03203997
v 0.01641395 0.02549947 0.03250748
v 0.01530348 0.02549947 0.03302350
v 0.01253266 0.02509832 0.03417462
v 0.01530348 0.02416536 0.03267948
v 0.01530348 0.02326675 0.03206643
v 0.01665319 0.02246193 0.03084033
v 0.01356457 0.02358918 0.03303232
v 0.01183995 0.02371480 0.03378209
v 0.01170069 0.02223414 0.03279857
v 0.00990109 0.02310930 0.03398056
v 0.00993679 0.02176934 0.03299703
v 0.00873706 0.02288821 0.03413493
v 0.00774084 0.01944700 0.03189443
v 0.00517712 0.01944700 0.03242368
v 0.00630187 0.02252306 0.03439073
v 0.00630187 0.02162277 0.03376445
v 0.00753732 0.02269140 0.03427606
v 0.00812290 0.02357327 0.03472592
v 0.00643042 0.02729921 0.03588145
v 0.00810148 0.02729921 0.03554186
v 0.00990109 0.02549947 0.03501260
v 0.00551276 0.02800269 0.03601377
v 0.02063446 0.02800269 0.03002440
v 0.01980250 0.02800269 0.03060217
v 0.01944900 0.02800269 0.03081387
v 0.01896697 0.02800269 0.03110055
v 0.01736017 0.02800269 0.03203556
v 0.01646037 0.02800269 0.03253394
v 0.01645680 0.02729921 0.03253394
v 0.01530348 0.02729921 0.03307642
v 0.01352887 0.02729921 0.03384384
v 0.01332891 0.02561839 0.03387471
v 0.01261121 0.02629842 0.03420108
v 0.01183995 0.02561839 0.03443043
v 0.00630187 0.01944700 0.03224726
v 0.00641256 0.02800269 0.03587264
v 0.00990109 0.02729921 0.03506994
v 0.00990109 0.02800269 0.03506112
v 0.00880490 0.02800269 0.03534779
v 0.00810148 0.02800269 0.03552421
v 0.01575338 0.02800269 0.03286472
v 0.01530348 0.02800269 0.03307201
v 0.01422157 0.02800269 0.03353952
v 0.01352530 0.02800269 0.03383502
v 0.01262549 0.02800269 0.03420990
v 0.01262906 0.02729921 0.03420990
v 0.01170069 0.02729921 0.03452304
v 0.01060451 0.02800269 0.03485383
v 0.01206133 0.02800269 0.03439955
v 0.01170069 0.02800269 0.03451864
f 1 2 3
f 1 3 4
f 1 4 16
f 1 16 5
f 1 5 6
f 1 6 7
f 1 7 8
f 1 8 2
f 2 9 10
f 2 10 3
f 2 8 11
f 2 11 9
f 3 10 12
f 3 12 13
f 3 13 14
f 3 14 4
f 4 14 15
f 4 15 16
f 5 16 15
f 5 15 32
f 5 32 31
f 5 31 60
f 5 60 85
f 5 85 105
f 5 105 104
f 5 104 103
f 5 103 120
f 5 120 140
f 5 140 164
f 5 164 185
f 5 185 205
f 5 205 230
f 5 230 229
f 5 229 259
f 5 259 288
f 5 288 316
f 5 316 330
f 5 330 334
f 5 334 333
f 5 333 332
f 5 332 342
f 5 342 344
f 5 344 343
f 5 343 339
f 5 339 338
f 5 338 337
f 5 337 336
f 5 336 335
f 5 335 322
f 5 322 321
f 5 321 320
f 5 320 319
f 5 319 318
f 5 318 317
f 5 317 290
f 5 290 289
f 5 289 260
f 5 260 235
f 5 235 234
f 5 234 232
f 5 232 231
f 5 231 208
f 5 208 207
f 5 207 206
f 5 206 186
f 5 186 170
f 5 170 169
f 5 169 168
f 5 168 167
f 5 167 165
f 5 165 145
f 5 145 144
f 5 144 143
f 5 143 142
f 5 142 141
f 5 141 124
f 5 124 123
f 5 123 121
f 5 121 106
f 5 106 90
f 5 90 89
f 5 89 88
f 5 88 87
f 5 87 86
f 5 86 62
f 5 62 34
f 5 34 33
f 5 33 17
f 5 17 6
f 6 17 18
f 6 18 7
f 7 18 8
f 8 19 11
f 8 18 20
f 8 20 21
f 8 21 19
f 9 22 23
f 9 23 24
f 9 24 10
f 9 11 22
f 10 24 12
f 11 25 22
f 11 19 25
f 12 24 26
f 12 26 27
f 12 27 13
f 13 27 28
f 13 28 29
f 13 29 30
f 13 30 14
f 14 30 31
f 14 31 32
f 14 32 15
f 17 33 18
f 18 33 34
f 18 34 35
f 18 35 36
f 18 36 20
f 19 37 38
f 19 38 25
f 19 21 37
f 20 36 21
f 21 36 39
f 21 39 40
f 21 40 41
f 21 41 42
f 21 42 43
f 21 43 44
f 21 44 45
f 21 45 46
f 21 46 47
f 21 47 48
f 21 48 37
f 22 25 38
f 22 38 37
f 22 37 48
f 22 48 47
f 22 47 75
f 22 75 74
f 22 74 99
f 22 99 96
f 22 96 116
f 22 116 135
f 22 135 158
f 22 158 180
f 22 180 197
f 22 197 217
f 22 217 244
f 22 244 277
f 22 277 307
f 22 307 329
f 22 329 308
f 22 308 278
f 22 278 248
f 22 248 223
f 22 223 201
f 22 201 183
f 22 183 163
f 22 163 139
f 22 139 119
f 22 119 100
f 22 100 76
f 22 76 53
f 22 53 52
f 22 52 51
f 22 51 50
f 22 50 49
f 22 49 26
f 22 26 24
f 22 24 23
f 26 49 28
f 26 28 27
f 28 49 50
f 28 50 51
f 28 51 52
f 28 52 53
f 28 53 54
f 28 54 55
f 28 55 56
f 28 56 57
f 28 57 58
f 28 58 59
f 28 59 29
f 29 59 30
f 30 60 31
f 30 59 61
f 30 61 60
f 34 62 63
f 34 63 35
f 35 63 36
f 36 63 39
f 39 63 40
f 40 64 65
f 40 65 41
f 40 63 64
f 41 65 66
f 41 66 67
f 41 67 42
f 42 67 68
f 42 68 69
f 42 69 70
f 42 70 71
f 42 71 43
f 43 71 72
f 43 72 45
f 43 45 44
f 45 73 74
f 45 74 75
f 45 75 46
f 45 72 73
f 46 75 47
f 53 76 77
f 53 77 54
f 54 77 55
f 55 77 78
f 55 78 79
f 55 79 56
f 56 80 57
f 56 79 101
f 56 101 119
f 56 119 139
f 56 139 162
f 56 162 140
f 56 140 120
f 56 120 102
f 56 102 82
f 56 82 81
f 56 81 80
f 57 80 81
f 57 81 82
f 57 82 83
f 57 83 58
f 58 84 59
f 58 83 84
f 59 84 61
f 60 61 85
f 61 84 85
f 62 86 63
f 63 86 87
f 63 87 64
f 64 87 88
f 64 88 89
f 64 89 65
f 65 89 90
f 65 90 91
f 65 91 66
f 66 91 92
f 66 92 67
f 67 92 93
f 67 93 94
f 67 94 95
f 67 95 68
f 68 96 69
f 68 95 97
f 68 97 98
f 68 98 96
f 69 96 99
f 69 99 74
f 69 74 70
f 70 74 72
f 70 72 71
f 72 74 73
f 76 100 78
f 76 78 77
f 78 100 101
f 78 101 79
f 82 102 83
f 83 103 104
f 83 104 84
f 83 102 103
f 84 105 85
f 84 104 105
f 90 106 107
f 90 107 91
f 91 107 92
f 92 107 108
f 92 108 93
f 93 108 109
f 93 109 94
f 94 109 110
f 94 110 95
f 95 110 111
f 95 111 112
f 95 112 113
f 95 113 114
f 95 114 115
f 95 115 98
f 95 98 97
f 96 98 117
f 96 117 116
f 98 115 118
f 98 118 117
f 100 119 101
f 102 120 103
f 106 121 122
f 106 122 107
f 107 122 108
f 108 121 109
f 108 122 121
f 109 123 124
f 109 124 125
f 109 125 110
f 109 121 123
f 110 125 126
f 110 126 111
f 111 126 127
f 111 127 128
f 111 128 129
f 111 129 112
f 112 130 113
f 112 129 128
f 112 128 131
f 112 131 132
f 112 132 133
f 112 133 130
f 113 134 114
f 113 130 134
f 114 134 115
f 115 134 118
f 116 117 135
f 117 118 134
f 117 134 136
f 117 136 137
f 117 137 138
f 117 138 135
f 124 141 125
f 125 141 142
f 125 142 126
f 126 142 143
f 126 143 144
f 126 144 127
f 127 144 145
f 127 145 146
f 127 146 128
f 128 146 147
f 128 147 132
f 128 132 131
f 130 133 148
f 130 148 149
f 130 149 134
f 132 150 151
f 132 151 152
f 132 152 133
f 132 147 150
f 133 152 153
f 133 153 154
f 133 154 155
f 133 155 156
f 133 156 149
f 133 149 148
f 134 149 157
f 134 157 136
f 135 138 159
f 135 159 158
f 136 157 137
f 137 149 160
f 137 160 161
f 137 161 138
f 137 157 149
f 138 161 159
f 139 163 184
f 139 184 202
f 139 202 222
f 139 222 252
f 139 252 253
f 139 253 225
f 139 225 224
f 139 224 203
f 139 203 185
f 139 185 164
f 139 164 162
f 140 162 164
f 145 165 147
f 145 147 146
f 147 165 167
f 147 167 150
f 149 156 166
f 149 166 160
f 150 167 168
f 150 168 169
f 150 169 170
f 150 170 151
f 151 170 186
f 151 186 171
f 151 171 152
f 152 171 153
f 153 171 172
f 153 172 154
f 154 172 173
f 154 173 174
f 154 174 175
f 154 175 155
f 155 175 156
f 156 175 166
f 158 159 176
f 158 176 177
f 158 177 178
f 158 178 179
f 158 179 180
f 159 161 176
f 160 166 161
f 161 166 175
f 161 175 181
f 161 181 182
f 161 182 176
f 163 183 200
f 163 200 184
f 171 186 187
f 171 187 172
f 172 187 188
f 172 188 173
f 173 189 174
f 173 188 190
f 173 190 191
f 173 191 192
f 173 192 189
f 174 189 175
f 175 189 193
f 175 193 181
f 176 182 194
f 176 194 177
f 177 194 178
f 178 194 195
f 178 195 196
f 178 196 197
f 178 197 180
f 178 180 179
f 181 193 182
f 182 193 189
f 182 189 198
f 182 198 199
f 182 199 194
f 183 201 200
f 184 200 202
f 185 203 204
f 185 204 205
f 186 206 187
f 187 206 207
f 187 207 208
f 187 208 209
f 187 209 188
f 188 209 210
f 188 210 190
f 189 192 211
f 189 211 212
f 189 212 199
f 189 199 198
f 190 210 213
f 190 213 214
f 190 214 191
f 191 211 192
f 191 214 215
f 191 215 211
f 194 199 195
f 195 199 216
f 195 216 196
f 196 216 217
f 196 217 197
f 199 212 211
f 199 211 218
f 199 218 219
f 199 219 216
f 200 201 220
f 200 220 221
f 200 221 222
f 200 222 202
f 201 223 220
f 203 224 204
f 204 224 225
f 204 225 226
f 204 226 227
f 204 227 228
f 204 228 229
f 204 229 230
f 204 230 205
f 208 231 209
f 209 231 232
f 209 232 210
f 210 232 234
f 210 234 213
f 211 215 233
f 211 233 218
f 213 234 235
f 213 235 236
f 213 236 237
f 213 237 214
f 214 237 215
f 215 237 238
f 215 238 239
f 215 239 240
f 215 240 241
f 215 241 233
f 216 219 242
f 216 242 217
f 217 243 244
f 217 242 243
f 218 245 219
f 218 233 246
f 218 246 245
f 219 245 247
f 219 247 242
f 220 223 248
f 220 248 249
f 220 249 221
f 221 249 250
f 221 250 251
f 221 251 222
f 222 251 252
f 225 253 251
f 225 251 226
f 226 251 254
f 226 254 227
f 227 254 255
f 227 255 256
f 227 256 257
f 227 257 228
f 228 257 258
f 228 258 259
f 228 259 229
f 233 241 246
f 235 260 236
f 236 260 289
f 236 289 261
f 236 261 238
f 236 238 237
f 238 261 262
f 238 262 263
f 238 263 239
f 239 263 262
f 239 262 264
f 239 264 265
f 239 265 266
f 239 266 240
f 240 267 268
f 240 268 241
f 240 266 267
f 241 268 246
f 242 247 269
f 242 269 267
f 242 267 270
f 242 270 271
f 242 271 243
f 243 271 272
f 243 272 273
f 243 273 274
f 243 274 275
f 243 275 276
f 243 276 244
f 244 276 277
f 245 246 247
f 246 268 267
f 246 267 269
f 246 269 247
f 248 278 279
f 248 279 250
f 248 250 249
f 250 279 255
f 250 255 254
f 250 254 251
f 251 253 252
f 255 279 280
f 255 280 281
f 255 281 256
f 256 282 283
f 256 283 257
f 256 281 284
f 256 284 285
f 256 285 286
f 256 286 282
f 257 283 258
f 258 283 287
f 258 287 259
f 259 287 288
f 261 290 291
f 261 291 262
f 261 289 290
f 262 292 293
f 262 293 294
f 262 294 265
f 262 265 264
f 262 291 292
f 265 294 323
f 265 323 295
f 265 295 266
f 266 295 296
f 266 296 297
f 266 297 285
f 266 285 298
f 266 298 299
f 266 299 300
f 266 300 267
f 267 300 270
f 270 300 271
f 271 300 272
f 272 300 299
f 272 299 273
f 273 299 298
f 273 298 301
f 273 301 274
f 274 301 302
f 274 302 303
f 274 303 275
f 275 303 276
f 276 303 304
f 276 304 305
f 276 305 277
f 277 305 306
f 277 306 307
f 278 308 279
f 279 309 280
f 279 308 310
f 279 310 309
f 280 309 281
f 281 309 311
f 281 311 312
f 281 312 284
f 282 313 283
f 282 286 314
f 282 314 313
f 283 313 287
f 284 312 306
f 284 306 304
f 284 304 285
f 285 315 286
f 285 304 303
f 285 303 302
f 285 302 301
f 285 301 298
f 285 297 315
f 286 315 314
f 287 316 288
f 287 313 316
f 290 317 291
f 291 317 318
f 291 318 292
f 292 319 293
f 292 318 319
f 293 319 320
f 293 320 321
f 293 321 294
f 294 321 322
f 294 322 323
f 295 323 324
f 295 324 296
f 296 324 325
f 296 325 326
f 296 326 297
f 297 326 327
f 297 327 328
f 297 328 315
f 304 306 305
f 306 329 307
f 306 312 311
f 306 311 329
f 308 329 310
f 309 310 311
f 310 329 311
f 313 330 316
f 313 314 330
f 314 315 331
f 314 331 332
f 314 332 333
f 314 333 334
f 314 334 330
f 315 328 331
f 322 335 324
f 322 324 323
f 324 335 336
f 324 336 325
f 325 336 337
f 325 337 338
f 325 338 339
f 325 339 340
f 325 340 327
f 325 327 326
f 327 340 341
f 327 341 328
f 328 341 331
f 331 341 342
f 331 342 332
f 339 343 341
f 339 341 340
f 341 343 344
f 341 344 342

