# https://github.com/mikedh/trimesh
v 0.01376931 0.01944700 -0.02229490
v 0.01376661 0.01944700 -0.02250035
v 0.01376661 0.01944700 -0.02070034
v 0.01269375 0.00634133 -0.01711411
v 0.01257514 0.00490813 -0.01711411
v 0.01374505 0.01944700 -0.02409491
v 0.01376392 0.01944700 -0.02049335
v 0.01371809 0.01944700 -0.01711411
v 0.01373965 0.01944700 -0.02429270
v 0.01176915 -0.00233891 -0.01711411
v 0.01242688 0.01944700 -0.01711411
v 0.01340809 0.01944700 -0.02610345
v 0.01169906 -0.00233891 -0.01714018
v 0.00806805 0.01944700 -0.03179634
v 0.00961264 0.01944700 -0.03116465
v 0.00997925 0.01944700 -0.03094539
v 0.01154002 0.01944700 -0.02959768
v 0.01165863 0.01944700 -0.02946583
v 0.01337305 0.01944700 -0.02618011
v -0.01177180 -0.00233891 -0.01711411
v -0.01370187 0.01944700 -0.01740082
v -0.01371266 0.01943634 -0.01711411
v 0.01073942 -0.00233891 -0.01742842
v 0.00887404 -0.00233891 -0.01797732
v 0.00629971 0.01944700 -0.03223791
v 0.00989838 -0.00233891 -0.01767987
v 0.00936195 -0.00233891 -0.01783933
v -0.01263171 0.00570151 -0.01711411
v -0.01373961 0.01944700 -0.02429270
v -0.01337840 0.01944700 -0.02623837
v -0.01292014 0.01944700 -0.02729324
v -0.01153998 0.01944700 -0.02959768
v -0.01142137 0.01944700 -0.02974487
v -0.01060998 0.01944700 -0.03041030
v -0.00962608 0.01944700 -0.03118305
v -0.00921365 0.01944700 -0.03137317
v -0.00807070 0.01944700 -0.03180860
v -0.01169902 -0.00233891 -0.01714018
v -0.01376657 0.01944700 -0.02070034
v 0.00839422 -0.00233891 -0.01807085
v 0.00629971 -0.00233891 -0.01844649
v 0.00474164 0.01944700 -0.03246636
v 0.00797370 -0.00233891 -0.01814751
v 0.00707066 -0.00233891 -0.01831003
v -0.01376926 0.01944700 -0.02250035
v -0.00629967 0.01944700 -0.03222258
v -0.00887130 -0.00233891 -0.01797732
v -0.00989834 -0.00233891 -0.01767987
v 0.00449903 -0.00233891 -0.01870100
v 0.00435616 0.01944700 -0.03250929
v -0.00512437 0.01944700 -0.03240503
v -0.00629967 -0.00233891 -0.01844649
v -0.00797096 -0.00233891 -0.01814598
v 0.00269835 -0.00233891 -0.01885280
v 0.00338843 0.01944700 -0.03260435
v 0.00388982 0.01944700 -0.03255989
v -0.00481168 0.01944700 -0.03245256
v -0.00395717 0.01944700 -0.03257675
v -0.00545863 -0.00233891 -0.01856761
v 0.00089767 -0.00233891 -0.01894939
v 0.00089767 0.01944700 -0.03276841
v 0.00212418 0.01944700 -0.03269021
v 0.00269835 0.01944700 -0.03265341
v -0.00269831 0.01944700 -0.03268101
v -0.00269831 -0.00233891 -0.01885433
v -0.00365795 -0.00233891 -0.01877460
v -0.00449899 -0.00233891 -0.01870254
v 0.00022915 0.01944700 -0.03277147
v -0.00005659 -0.00233891 -0.01895092
v -0.00089762 0.01944700 -0.03277607
v -0.00157423 0.01944700 -0.03274081
v -0.00185727 -0.00233891 -0.01890033
v -0.00089762 -0.00233891 -0.01895092
f 1 2 6
f 1 6 9
f 1 9 12
f 1 12 19
f 1 19 18
f 1 18 17
f 1 17 16
f 1 16 15
f 1 15 14
f 1 14 25
f 1 25 42
f 1 42 50
f 1 50 56
f 1 56 55
f 1 55 63
f 1 63 62
f 1 62 61
f 1 61 68
f 1 68 70
f 1 70 71
f 1 71 64
f 1 64 58
f 1 58 57
f 1 57 51
f 1 51 46
f 1 46 37
f 1 37 36
f 1 36 35
f 1 35 34
f 1 34 33
f 1 33 32
f 1 32 31
f 1 31 30
f 1 30 29
f 1 29 45
f 1 45 39
f 1 39 21
f 1 21 11
f 1 11 8
f 1 8 7
f 1 7 3
f 1 3 4
f 1 4 5
f 1 5 2
f 2 5 6
f 3 7 4
f 4 7 8
f 4 8 11
f 4 11 22
f 4 22 28
f 4 28 20
f 4 20 10
f 4 10 5
f 5 9 6
f 5 10 9
f 9 10 12
f 10 13 14
f 10 14 15
f 10 15 16
f 10 16 17
f 10 17 18
f 10 18 19
f 10 19 12
f 10 20 38
f 10 38 48
f 10 48 47
f 10 47 53
f 10 53 52
f 10 52 59
f 10 59 67
f 10 67 66
f 10 66 65
f 10 65 72
f 10 72 73
f 10 73 69
f 10 69 60
f 10 60 54
f 10 54 49
f 10 49 41
f 10 41 44
f 10 44 43
f 10 43 40
f 10 40 24
f 10 24 27
f 10 27 26
f 10 26 23
f 10 23 13
f 11 21 22
f 13 23 14
f 14 24 25
f 14 23 26
f 14 26 27
f 14 27 24
f 20 28 29
f 20 29 30
f 20 30 31
f 20 31 32
f 20 32 33
f 20 33 34
f 20 34 35
f 20 35 36
f 20 36 37
f 20 37 38
f 21 39 22
f 22 39 28
f 24 40 25
f 25 41 42
f 25 40 43
f 25 43 44
f 25 44 41
f 28 39 45
f 28 45 29
f 37 46 47
f 37 47 48
f 37 48 38
f 41 49 42
f 42 49 50
f 46 51 52
f 46 52 53
f 46 53 47
f 49 54 55
f 49 55 56
f 49 56 50
f 51 57 52
f 52 57 58
f 52 58 59
f 54 60 61
f 54 61 62
f 54 62 63
f 54 63 55
f 58 64 65
f 58 65 66
f 58 66 67
f 58 67 59
f 60 68 61
f 60 69 70
f 60 70 68
f 64 71 72
f 64 72 65
f 69 73 70
f 70 73 71
f 71 73 72

