# https://github.com/mikedh/trimesh
v -0.01370949 0.01943643 -0.01711411
v -0.01262906 0.00570155 -0.01711411
v -0.02789022 0.01944495 -0.01370274
v -0.01371624 0.01944495 -0.01709785
v 0.01242357 0.01944495 -0.01711411
v -0.01177146 -0.00233891 -0.01711411
v -0.02930154 0.01944495 -0.01331249
v -0.01529638 0.01944708 0.01411182
v 0.01371334 0.01944495 -0.01711411
v -0.01341237 -0.00233891 -0.01653525
v 0.01176855 -0.00233891 -0.01711411
v -0.02945010 0.01944495 -0.01321819
v -0.01389181 -0.00233891 -0.01633687
v -0.01431048 -0.00233891 -0.01616127
v -0.01483720 -0.00233891 -0.01593037
v -0.01529638 -0.00233891 -0.01572875
v -0.01701158 -0.00233891 -0.01486371
v -0.01749102 -0.00233891 -0.01459054
v -0.01790969 -0.00233891 -0.01434664
v -0.01843640 -0.00233891 -0.01401493
v -0.01889559 -0.00233891 -0.01372550
v -0.03153669 0.01944495 -0.01166697
v -0.03231326 0.01944495 -0.01069136
v -0.03270491 0.01944495 -0.00998567
v -0.03282646 0.01944495 -0.00976454
v -0.03322487 0.01944495 -0.00870112
v -0.03344772 0.01944495 -0.00808974
v -0.03385963 0.01944495 -0.00629788
v -0.03411623 0.01944495 -0.00487024
v -0.03427830 0.01944495 -0.00389789
v -0.03433232 0.01944495 -0.00338407
v -0.03438634 0.01944495 -0.00269789
v -0.03442686 0.01944495 -0.00203123
v -0.03448763 0.01944495 -0.00089952
v -0.03448763 0.01944495 0.00089885
v -0.03438634 0.01944495 0.00269722
v -0.03427830 0.01944495 0.00389071
v -0.03410948 0.01944495 0.00486631
v -0.03385963 0.01944495 0.00629720
v -0.03363679 0.01944495 0.00731184
v -0.03344772 0.01944495 0.00810208
v -0.03282646 0.01944495 0.00975410
v -0.03234702 0.01944495 0.01056711
v -0.03222547 0.01944495 0.01076223
v -0.03183381 0.01944495 0.01130857
v -0.03152994 0.01944495 0.01166629
v -0.02964593 0.01944495 0.01318499
v -0.02789022 0.01944495 0.01369881
v -0.01395259 0.01944495 0.01610856
v 0.01392942 0.01944495 0.01610856
v 0.02788731 0.01944495 0.01370206
v 0.02929863 0.01944495 0.01331182
v 0.02945394 0.01944495 0.01321751
v 0.03154054 0.01944495 0.01166955
v 0.03231035 0.01944495 0.01069069
v 0.03270201 0.01944495 0.00998825
v 0.03282356 0.01944495 0.00976386
v 0.03322197 0.01944495 0.00870370
v 0.03344481 0.01944495 0.00809557
v 0.03385672 0.01944495 0.00629720
v 0.03410657 0.01944495 0.00484030
v 0.03425514 0.01944495 0.00380615
v 0.03430915 0.01944495 0.00335087
v 0.03437668 0.01944495 0.00269722
v 0.03447122 0.01944495 0.00089885
v 0.03447797 0.01944495 0.00011186
v 0.03448473 0.01944495 -0.00089952
v 0.03439694 0.01944495 -0.00259057
v 0.03416060 0.01944495 -0.00449951
v 0.03410657 0.01944495 -0.00485398
v 0.03393100 0.01944495 -0.00591089
v 0.03386348 0.01944495 -0.00629788
v 0.03364064 0.01944495 -0.00729300
v 0.03343805 0.01944495 -0.00808974
v 0.03282356 0.01944495 -0.00975478
v 0.03235087 0.01944495 -0.01056779
v 0.03222256 0.01944495 -0.01075966
v 0.03183766 0.01944495 -0.01130600
v 0.03153378 0.01944495 -0.01166697
v 0.02964302 0.01944495 -0.01318241
v 0.02788731 0.01944495 -0.01369948
v 0.01269367 0.00633924 -0.01711411
v 0.01257213 0.00490816 -0.01711411
v 0.01340946 -0.00233891 -0.01653525
v -0.02015159 -0.00233891 -0.01287672
v -0.02887612 0.01180333 -0.01088323
v -0.03059806 0.01559535 -0.01079868
v -0.02063104 -0.00233891 -0.01248648
v -0.02104971 -0.00233891 -0.01214502
v -0.02208287 -0.00233891 -0.01124421
v -0.02468267 -0.00233891 -0.00824259
v -0.02528367 -0.00233891 -0.00734178
v -0.03238754 0.01742098 -0.00896779
v -0.02583739 -0.00233891 -0.00629788
v -0.02662746 -0.00233891 -0.00449951
v -0.02680978 -0.00233891 -0.00394342
v -0.02696509 -0.00233891 -0.00345886
v -0.02706639 -0.00233891 -0.00298082
v -0.02714742 -0.00233891 -0.00255805
v -0.02739052 -0.00233891 -0.00089952
v -0.03421077 0.01916130 -0.00368000
v -0.02739052 -0.00233891 0.00089885
v -0.03421077 0.01916557 0.00367282
v -0.03410948 0.01943856 0.00487282
v -0.02726222 -0.00233891 0.00178340
v -0.02714742 -0.00233891 0.00255738
v -0.02705288 -0.00233891 0.00303868
v -0.02696509 -0.00233891 0.00345819
v -0.03239429 0.01740818 0.00898338
v -0.02662746 -0.00233891 0.00449884
v -0.02583739 -0.00233891 0.00629720
v -0.02554702 -0.00233891 0.00685330
v -0.02528367 -0.00233891 0.00734110
v -0.02468267 -0.00233891 0.00824191
v -0.02887612 0.01181826 0.01087930
v -0.02208287 -0.00233891 0.01124353
v -0.02104971 -0.00233891 0.01214434
v -0.02015159 -0.00233891 0.01287605
v -0.01948307 -0.00233891 0.01332808
v -0.01889559 -0.00233891 0.01372483
v -0.01837563 -0.00233891 0.01405653
v -0.01790969 -0.00233891 0.01434596
v -0.01701158 -0.00233891 0.01486629
v -0.01609996 -0.00233891 0.01532482
v -0.01529638 -0.00233891 0.01572807
v -0.01443203 -0.00233891 0.01610856
v -0.01443203 -0.00149860 0.01610856
v 0.01443588 -0.00149860 0.01610856
v 0.01443588 -0.00233891 0.01610856
v 0.01529347 -0.00233891 0.01572807
v 0.01621185 -0.00233891 0.01526954
v 0.01701542 -0.00233891 0.01486629
v 0.01791353 -0.00233891 0.01434921
v 0.01844025 -0.00233891 0.01401751
v 0.01889943 -0.00233891 0.01372483
v 0.02015544 -0.00233891 0.01287605
v 0.02887996 0.01180333 0.01088256
v 0.03059516 0.01559535 0.01080126
v 0.02063488 -0.00233891 0.01248580
v 0.02105355 -0.00233891 0.01214434
v 0.02160052 -0.00233891 0.01166629
v 0.02207997 -0.00233891 0.01124353
v 0.02467977 -0.00233891 0.00824191
v 0.02500390 -0.00233891 0.00776062
v 0.02528076 -0.00233891 0.00734110
v 0.03238463 0.01742311 0.00896386
v 0.02584124 -0.00233891 0.00629720
v 0.02662455 -0.00233891 0.00449884
v 0.02681363 -0.00233891 0.00394274
v 0.02696894 -0.00233891 0.00345819
v 0.02706348 -0.00233891 0.00298014
v 0.02714451 -0.00233891 0.00255738
v 0.02727957 -0.00233891 0.00167608
v 0.02739436 -0.00233891 0.00089885
v 0.02739436 -0.00233891 -0.00089952
v 0.02714451 -0.00233891 -0.00255805
v 0.02696894 -0.00233891 -0.00345886
v 0.03239138 0.01741672 -0.00897430
v 0.02662455 -0.00233891 -0.00449951
v 0.02584124 -0.00233891 -0.00629788
v 0.02554411 -0.00233891 -0.00685398
v 0.02528076 -0.00233891 -0.00734178
v 0.03228334 0.01938097 -0.01063283
v 0.02467977 -0.00233891 -0.00823934
v 0.03058165 0.01563587 -0.01077917
v 0.02887321 0.01181826 -0.01087673
v 0.02207997 -0.00233891 -0.01124421
v 0.02153300 -0.00233891 -0.01172551
v 0.02105355 -0.00233891 -0.01214502
v 0.02015544 -0.00233891 -0.01287672
v 0.01889943 -0.00233891 -0.01372550
v 0.01791353 -0.00233891 -0.01434664
v 0.01743409 -0.00233891 -0.01462306
v 0.01701542 -0.00233891 -0.01486371
v 0.01609705 -0.00233891 -0.01532550
v 0.01529347 -0.00233891 -0.01572875
v 0.01477351 -0.00233891 -0.01595964
v 0.01431433 -0.00233891 -0.01616127
v 0.01383489 -0.00233891 -0.01635964
v -0.02256232 -0.00233891 -0.01076616
v -0.02298099 -0.00233891 -0.01034665
v -0.02378456 -0.00233891 -0.00944584
v -0.02426401 -0.00233891 -0.00880519
v -0.02620879 -0.00233891 0.00545818
v -0.02378456 -0.00233891 0.00944841
v -0.02298099 -0.00233891 0.01034597
v 0.02255941 -0.00233891 0.01076548
v 0.02297808 -0.00233891 0.01034597
v 0.02341025 -0.00233891 0.00986793
v 0.02378165 -0.00233891 0.00944516
v 0.02426110 -0.00233891 0.00880451
v 0.02625990 -0.00233891 0.00533786
v 0.02496338 -0.00233891 -0.00781983
v 0.02378165 -0.00233891 -0.00944584
v 0.02335623 -0.00233891 -0.00992714
v 0.02297808 -0.00233891 -0.01034665
f 1 2 3
f 1 3 4
f 1 4 5
f 1 5 9
f 1 9 82
f 1 82 83
f 1 83 11
f 1 11 6
f 1 6 2
f 2 6 3
f 3 7 8
f 3 8 4
f 3 6 7
f 4 8 5
f 5 8 9
f 6 10 7
f 6 11 84
f 6 84 179
f 6 179 178
f 6 178 177
f 6 177 176
f 6 176 175
f 6 175 174
f 6 174 173
f 6 173 172
f 6 172 171
f 6 171 170
f 6 170 169
f 6 169 168
f 6 168 167
f 6 167 196
f 6 196 195
f 6 195 194
f 6 194 164
f 6 164 193
f 6 193 162
f 6 162 161
f 6 161 160
f 6 160 159
f 6 159 157
f 6 157 156
f 6 156 155
f 6 155 154
f 6 154 153
f 6 153 152
f 6 152 151
f 6 151 150
f 6 150 149
f 6 149 148
f 6 148 192
f 6 192 147
f 6 147 145
f 6 145 144
f 6 144 143
f 6 143 191
f 6 191 190
f 6 190 189
f 6 189 188
f 6 188 187
f 6 187 142
f 6 142 141
f 6 141 140
f 6 140 139
f 6 139 136
f 6 136 135
f 6 135 134
f 6 134 133
f 6 133 132
f 6 132 131
f 6 131 130
f 6 130 129
f 6 129 126
f 6 126 125
f 6 125 124
f 6 124 123
f 6 123 122
f 6 122 121
f 6 121 120
f 6 120 119
f 6 119 118
f 6 118 117
f 6 117 116
f 6 116 186
f 6 186 185
f 6 185 114
f 6 114 113
f 6 113 112
f 6 112 111
f 6 111 184
f 6 184 110
f 6 110 108
f 6 108 107
f 6 107 106
f 6 106 105
f 6 105 102
f 6 102 100
f 6 100 99
f 6 99 98
f 6 98 97
f 6 97 96
f 6 96 95
f 6 95 94
f 6 94 92
f 6 92 91
f 6 91 183
f 6 183 182
f 6 182 181
f 6 181 180
f 6 180 90
f 6 90 89
f 6 89 88
f 6 88 85
f 6 85 21
f 6 21 20
f 6 20 19
f 6 19 18
f 6 18 17
f 6 17 16
f 6 16 15
f 6 15 14
f 6 14 13
f 6 13 10
f 7 12 8
f 7 10 13
f 7 13 14
f 7 14 15
f 7 15 16
f 7 16 17
f 7 17 18
f 7 18 19
f 7 19 20
f 7 20 21
f 7 21 12
f 8 12 22
f 8 22 23
f 8 23 24
f 8 24 25
f 8 25 26
f 8 26 27
f 8 27 28
f 8 28 29
f 8 29 30
f 8 30 31
f 8 31 32
f 8 32 33
f 8 33 34
f 8 34 35
f 8 35 36
f 8 36 37
f 8 37 38
f 8 38 39
f 8 39 40
f 8 40 41
f 8 41 42
f 8 42 43
f 8 43 44
f 8 44 45
f 8 45 46
f 8 46 47
f 8 47 48
f 8 48 49
f 8 49 50
f 8 50 51
f 8 51 52
f 8 52 53
f 8 53 54
f 8 54 55
f 8 55 56
f 8 56 57
f 8 57 58
f 8 58 59
f 8 59 60
f 8 60 61
f 8 61 62
f 8 62 63
f 8 63 64
f 8 64 65
f 8 65 66
f 8 66 67
f 8 67 68
f 8 68 69
f 8 69 70
f 8 70 71
f 8 71 72
f 8 72 73
f 8 73 74
f 8 74 75
f 8 75 76
f 8 76 77
f 8 77 78
f 8 78 79
f 8 79 80
f 8 80 81
f 8 81 9
f 9 81 82
f 11 83 81
f 11 81 80
f 11 80 84
f 12 21 85
f 12 85 22
f 22 86 87
f 22 87 23
f 22 85 88
f 22 88 89
f 22 89 90
f 22 90 86
f 23 87 91
f 23 91 92
f 23 92 24
f 24 92 25
f 25 93 26
f 25 92 94
f 25 94 93
f 26 93 27
f 27 93 95
f 27 95 96
f 27 96 97
f 27 97 28
f 28 97 98
f 28 98 99
f 28 99 29
f 29 99 30
f 30 99 100
f 30 100 101
f 30 101 31
f 31 101 100
f 31 100 32
f 32 100 33
f 33 100 34
f 34 100 102
f 34 102 35
f 35 102 36
f 36 103 37
f 36 102 103
f 37 104 38
f 37 103 102
f 37 102 105
f 37 105 106
f 37 106 104
f 38 104 39
f 39 104 106
f 39 106 107
f 39 107 108
f 39 108 40
f 40 108 41
f 41 109 42
f 41 108 110
f 41 110 109
f 42 109 111
f 42 111 112
f 42 112 113
f 42 113 43
f 43 113 44
f 44 113 114
f 44 114 115
f 44 115 45
f 45 115 46
f 46 115 116
f 46 116 117
f 46 117 118
f 46 118 47
f 47 118 119
f 47 119 120
f 47 120 121
f 47 121 122
f 47 122 123
f 47 123 124
f 47 124 125
f 47 125 126
f 47 126 48
f 48 126 127
f 48 127 49
f 49 127 126
f 49 126 129
f 49 129 128
f 49 128 50
f 50 128 51
f 51 129 52
f 51 128 129
f 52 129 130
f 52 130 131
f 52 131 132
f 52 132 133
f 52 133 53
f 53 133 134
f 53 134 135
f 53 135 136
f 53 136 54
f 54 137 138
f 54 138 55
f 54 136 139
f 54 139 140
f 54 140 141
f 54 141 142
f 54 142 137
f 55 138 143
f 55 143 144
f 55 144 145
f 55 145 56
f 56 145 57
f 57 146 58
f 57 145 147
f 57 147 146
f 58 146 59
f 59 146 148
f 59 148 149
f 59 149 150
f 59 150 60
f 60 150 151
f 60 151 152
f 60 152 61
f 61 152 153
f 61 153 154
f 61 154 62
f 62 154 63
f 63 154 64
f 64 154 65
f 65 154 66
f 66 154 67
f 67 154 155
f 67 155 68
f 68 155 69
f 69 155 156
f 69 156 70
f 70 156 71
f 71 156 72
f 72 156 157
f 72 157 73
f 73 157 74
f 74 158 75
f 74 157 159
f 74 159 158
f 75 158 160
f 75 160 161
f 75 161 162
f 75 162 76
f 76 163 77
f 76 162 163
f 77 163 164
f 77 164 165
f 77 165 78
f 78 165 166
f 78 166 79
f 79 166 167
f 79 167 168
f 79 168 169
f 79 169 170
f 79 170 80
f 80 170 171
f 80 171 172
f 80 172 173
f 80 173 174
f 80 174 175
f 80 175 176
f 80 176 177
f 80 177 178
f 80 178 179
f 80 179 84
f 81 83 82
f 86 90 180
f 86 180 181
f 86 181 182
f 86 182 87
f 87 182 183
f 87 183 91
f 93 94 95
f 109 110 184
f 109 184 111
f 114 185 115
f 115 185 186
f 115 186 116
f 137 142 187
f 137 187 188
f 137 188 189
f 137 189 190
f 137 190 191
f 137 191 138
f 138 191 143
f 146 147 192
f 146 192 148
f 158 159 160
f 162 193 163
f 163 193 164
f 164 166 165
f 164 194 166
f 166 194 195
f 166 195 196
f 166 196 167

