# https://github.com/mikedh/trimesh
v -0.00003603 0.02815632 -0.03644058
v -0.00003603 0.02910024 -0.03643597
v -0.00003603 0.02815632 -0.02895437
v -0.00090024 0.02815632 -0.03643905
v -0.00090024 0.02910024 -0.03643597
v -0.00003603 0.03029102 -0.03621466
v -0.02052048 0.02815632 -0.02073967
v -0.00003603 0.02855741 -0.02933552
v -0.00270085 0.02815632 -0.03633147
v -0.00090024 0.03029102 -0.03621466
v -0.00270085 0.02910024 -0.03632224
v -0.00450146 0.03011655 -0.03607634
v -0.00270085 0.03022333 -0.03615472
v -0.00003603 0.03054842 -0.03563525
v -0.02052048 0.02830666 -0.02091641
v -0.02052048 0.02815632 -0.03010397
v -0.00003603 0.02904975 -0.02980427
v -0.00003603 0.02948163 -0.03022077
v -0.00003603 0.02994956 -0.03067415
v -0.00355704 0.02815632 -0.03625615
v -0.00090024 0.03078586 -0.03509887
v -0.00270085 0.03071818 -0.03509887
v -0.00450146 0.02910024 -0.03616241
v -0.00549601 0.03003083 -0.03601794
v -0.00990129 0.03042499 -0.03461783
v -0.00810068 0.03049489 -0.03481455
v -0.00450146 0.03061166 -0.03509887
v -0.00003603 0.03078586 -0.03509887
v -0.02052048 0.02939676 -0.02221816
v -0.02052048 0.02897597 -0.03009167
v -0.02017559 0.02815632 -0.03034526
v -0.00003603 0.03049489 -0.03157324
v -0.02052048 0.03057006 -0.02412083
v -0.02052048 0.02948579 -0.02233650
v -0.00450146 0.02815632 -0.03616702
v -0.00003603 0.03089209 -0.03416290
v -0.00810068 0.03099000 -0.03329917
v -0.00990129 0.03091983 -0.03329917
v -0.00500475 0.02815632 -0.03610554
v -0.00556218 0.02910024 -0.03603023
v -0.00810068 0.02815632 -0.03550769
v -0.00810068 0.02910024 -0.03548002
v -0.00990129 0.02910024 -0.03505584
v -0.01136905 0.03023665 -0.03439651
v -0.01349850 0.03049489 -0.03311321
v -0.02052048 0.03022001 -0.02961062
v -0.01978459 0.02949772 -0.03058501
v -0.01980264 0.02829751 -0.03060038
v -0.01980264 0.02815632 -0.03060192
v -0.00003603 0.03099000 -0.03329917
v -0.02052048 0.03059807 -0.02417924
v -0.02052048 0.03059002 -0.02415618
v -0.01349850 0.03099000 -0.03149947
v -0.01529911 0.03081443 -0.03149947
v -0.00556619 0.02815632 -0.03603023
v -0.00646649 0.02815632 -0.03584734
v -0.00895687 0.02815632 -0.03530635
v -0.00990129 0.02815632 -0.03506660
v -0.01166781 0.02910024 -0.03450102
v -0.01256812 0.02910024 -0.03418288
v -0.01349850 0.02910024 -0.03383862
v -0.01633777 0.03009574 -0.03246925
v -0.01529911 0.03031931 -0.03272745
v -0.02052048 0.03041805 -0.02942773
v -0.01858552 0.03032846 -0.03096616
v -0.01907076 0.02897874 -0.03104301
v -0.01732028 0.02910024 -0.03205275
v -0.01967431 0.02815632 -0.03068184
v -0.02052048 0.03099000 -0.02628017
v -0.02052048 0.03097558 -0.02610036
v -0.01709972 0.03098890 -0.02969976
v -0.01889832 0.03099000 -0.02790006
v -0.01700147 0.03045245 -0.03153943
v -0.01907076 0.03059308 -0.02987036
v -0.02052048 0.03085852 -0.02811830
v -0.01073943 0.02815632 -0.03480225
v -0.01167784 0.02815632 -0.03450563
v -0.01257814 0.02815632 -0.03418903
v -0.01302128 0.02815632 -0.03402612
v -0.01349850 0.02815632 -0.03384477
v -0.01435469 0.02815632 -0.03347899
v -0.01529911 0.02910024 -0.03306710
v -0.01641998 0.02910024 -0.03251074
v -0.01898655 0.02815632 -0.03110448
v -0.01643401 0.02815632 -0.03251843
v -0.01686111 0.02815632 -0.03230019
v -0.01733432 0.02815632 -0.03205429
v -0.02052048 0.03090124 -0.02790006
v -0.01529911 0.02815632 -0.03307325
f 1 2 6
f 1 6 14
f 1 14 28
f 1 28 36
f 1 36 50
f 1 50 32
f 1 32 19
f 1 19 18
f 1 18 17
f 1 17 8
f 1 8 3
f 1 3 7
f 1 7 16
f 1 16 31
f 1 31 49
f 1 49 68
f 1 68 84
f 1 84 87
f 1 87 86
f 1 86 85
f 1 85 89
f 1 89 81
f 1 81 80
f 1 80 79
f 1 79 78
f 1 78 77
f 1 77 76
f 1 76 58
f 1 58 57
f 1 57 41
f 1 41 56
f 1 56 55
f 1 55 39
f 1 39 35
f 1 35 20
f 1 20 9
f 1 9 4
f 1 4 5
f 1 5 2
f 2 5 10
f 2 10 6
f 3 8 7
f 4 9 5
f 5 9 11
f 5 11 12
f 5 12 13
f 5 13 10
f 6 10 14
f 7 15 29
f 7 29 34
f 7 34 33
f 7 33 52
f 7 52 51
f 7 51 70
f 7 70 69
f 7 69 88
f 7 88 75
f 7 75 64
f 7 64 46
f 7 46 30
f 7 30 16
f 7 8 17
f 7 17 18
f 7 18 19
f 7 19 15
f 9 20 11
f 10 21 14
f 10 13 22
f 10 22 21
f 11 20 23
f 11 23 24
f 11 24 12
f 12 24 25
f 12 25 26
f 12 26 13
f 13 26 27
f 13 27 22
f 14 21 28
f 15 19 29
f 16 30 31
f 19 32 33
f 19 33 34
f 19 34 29
f 20 35 23
f 21 36 28
f 21 22 37
f 21 37 36
f 22 27 38
f 22 38 37
f 23 35 39
f 23 39 40
f 23 40 24
f 24 40 41
f 24 41 42
f 24 42 43
f 24 43 44
f 24 44 25
f 25 44 45
f 25 45 38
f 25 38 26
f 26 38 27
f 30 46 47
f 30 47 48
f 30 48 31
f 31 48 49
f 32 50 51
f 32 51 52
f 32 52 33
f 36 37 50
f 37 38 53
f 37 53 72
f 37 72 69
f 37 69 50
f 38 45 54
f 38 54 53
f 39 55 40
f 40 55 56
f 40 56 41
f 41 57 42
f 42 57 43
f 43 57 58
f 43 58 59
f 43 59 44
f 44 59 60
f 44 60 61
f 44 61 62
f 44 62 63
f 44 63 45
f 45 63 54
f 46 64 65
f 46 65 47
f 47 66 48
f 47 65 62
f 47 62 67
f 47 67 66
f 48 66 68
f 48 68 49
f 50 69 70
f 50 70 51
f 53 54 71
f 53 71 72
f 54 63 73
f 54 73 65
f 54 65 74
f 54 74 75
f 54 75 71
f 58 76 59
f 59 76 77
f 59 77 78
f 59 78 60
f 60 78 79
f 60 79 61
f 61 79 80
f 61 80 81
f 61 81 82
f 61 82 62
f 62 82 83
f 62 83 67
f 62 65 63
f 63 65 73
f 64 75 74
f 64 74 65
f 66 84 68
f 66 67 84
f 67 83 85
f 67 85 86
f 67 86 87
f 67 87 84
f 69 72 88
f 71 75 88
f 71 88 72
f 81 89 82
f 82 89 85
f 82 85 83

