# https://github.com/mikedh/trimesh
v -0.00003415 0.02810929 -0.03643949
v -0.00003415 0.02810929 -0.02891048
v -0.00003415 0.02823620 -0.03643949
v 0.00090018 0.02810929 -0.03643949
v -0.00003415 0.02855741 -0.02933628
v 0.01912906 0.02810929 -0.02203709
v 0.01912906 0.02841245 -0.02232330
v -0.00003415 0.02910027 -0.03643526
v 0.00090018 0.02910027 -0.03643526
v 0.00189268 0.02810929 -0.03638451
v -0.00003415 0.02904979 -0.02980437
v 0.01912906 0.02810929 -0.03101832
v 0.01912906 0.03038481 -0.02461584
v -0.00003415 0.02994939 -0.03067430
v -0.00003415 0.02948182 -0.03022171
v -0.00003415 0.02971927 -0.03632106
v 0.00090018 0.03029090 -0.03621531
v 0.00270131 0.03022322 -0.03615469
v 0.00450055 0.03011662 -0.03607714
v 0.00270131 0.02910027 -0.03632247
v 0.00270131 0.02810929 -0.03633234
v 0.01898085 0.02810929 -0.03110856
v 0.01907090 0.02898634 -0.03104370
v 0.01912906 0.02885210 -0.03100845
v 0.01912906 0.03086423 -0.02610050
v 0.01889829 0.03084561 -0.02610050
v -0.00003415 0.03049479 -0.03157383
v -0.00003415 0.03021138 -0.03110574
v -0.00003415 0.03029090 -0.03621531
v -0.00003415 0.03054837 -0.03563442
v 0.00090018 0.03078582 -0.03509865
v 0.00270131 0.03071815 -0.03509865
v 0.00450055 0.03061154 -0.03509865
v 0.00810093 0.03049479 -0.03481385
v 0.00989830 0.03042486 -0.03461787
v 0.00549492 0.03003089 -0.03601793
v 0.00450055 0.02910027 -0.03616315
v 0.00450055 0.02810929 -0.03616879
v 0.01818910 0.02810929 -0.03156537
v 0.01732043 0.02910027 -0.03205321
v 0.01912906 0.02902977 -0.03100563
v 0.01912906 0.03097731 -0.02790097
v 0.01889829 0.03099000 -0.02790097
v 0.01709905 0.03096180 -0.02790097
v -0.00003415 0.03099000 -0.03329958
v -0.00003415 0.03073253 -0.03240146
v -0.00003415 0.03078582 -0.03509865
v 0.00810093 0.03099000 -0.03329958
v 0.00989830 0.03091978 -0.03329958
v 0.01349867 0.03049479 -0.03311206
v 0.01136922 0.03023647 -0.03439651
v 0.00989830 0.02910027 -0.03505635
v 0.00810093 0.02910027 -0.03547933
v 0.00810093 0.02810929 -0.03551035
v 0.00556247 0.02910027 -0.03603061
v 0.00556997 0.02810929 -0.03603061
v 0.01733357 0.02810929 -0.03205462
v 0.01643488 0.02810929 -0.03251849
v 0.01641987 0.02910027 -0.03251144
v 0.01633732 0.03009575 -0.03246914
v 0.01912906 0.02995701 -0.03079273
v 0.01912906 0.03058588 -0.02985231
v 0.01907090 0.03059293 -0.02987064
v 0.01709905 0.03098888 -0.02969863
v 0.01349867 0.03099000 -0.03149911
v 0.01529980 0.03081431 -0.03149911
v 0.01529980 0.03031939 -0.03272856
v 0.01349867 0.02910027 -0.03383818
v 0.01256809 0.02910027 -0.03418361
v 0.01166753 0.02910027 -0.03450084
v 0.00989830 0.02810929 -0.03506904
v 0.00606528 0.02810929 -0.03594179
v 0.01593019 0.02810929 -0.03276804
v 0.01529980 0.02910027 -0.03306695
v 0.01858498 0.03032841 -0.03096615
v 0.01700148 0.03045250 -0.03153859
v 0.01349867 0.02810929 -0.03384664
v 0.01257935 0.02810929 -0.03419066
v 0.01217410 0.02810929 -0.03433306
v 0.01167879 0.02810929 -0.03450648
v 0.01529980 0.02810929 -0.03307400
f 1 2 5
f 1 5 11
f 1 11 15
f 1 15 14
f 1 14 28
f 1 28 27
f 1 27 46
f 1 46 45
f 1 45 47
f 1 47 30
f 1 30 29
f 1 29 16
f 1 16 8
f 1 8 3
f 1 3 4
f 1 4 10
f 1 10 21
f 1 21 38
f 1 38 56
f 1 56 72
f 1 72 54
f 1 54 71
f 1 71 80
f 1 80 79
f 1 79 78
f 1 78 77
f 1 77 81
f 1 81 73
f 1 73 58
f 1 58 57
f 1 57 39
f 1 39 22
f 1 22 12
f 1 12 6
f 1 6 2
f 2 6 7
f 2 7 5
f 3 8 9
f 3 9 4
f 4 9 10
f 5 7 11
f 6 12 24
f 6 24 41
f 6 41 61
f 6 61 62
f 6 62 42
f 6 42 25
f 6 25 13
f 6 13 7
f 7 13 14
f 7 14 15
f 7 15 11
f 8 16 9
f 9 17 18
f 9 18 19
f 9 19 20
f 9 20 10
f 9 16 17
f 10 20 21
f 12 22 23
f 12 23 24
f 13 25 26
f 13 26 27
f 13 27 28
f 13 28 14
f 16 29 17
f 17 29 30
f 17 30 31
f 17 31 32
f 17 32 18
f 18 32 33
f 18 33 34
f 18 34 19
f 19 34 35
f 19 35 36
f 19 36 20
f 20 36 37
f 20 37 21
f 21 37 38
f 22 39 40
f 22 40 23
f 23 41 24
f 23 40 41
f 25 42 43
f 25 43 44
f 25 44 45
f 25 45 26
f 26 45 46
f 26 46 27
f 30 47 31
f 31 47 45
f 31 45 48
f 31 48 32
f 32 48 49
f 32 49 33
f 33 49 34
f 34 49 35
f 35 49 50
f 35 50 51
f 35 51 36
f 36 51 52
f 36 52 53
f 36 53 54
f 36 54 55
f 36 55 37
f 37 55 38
f 38 55 56
f 39 57 40
f 40 57 58
f 40 58 59
f 40 59 60
f 40 60 41
f 41 60 61
f 42 62 63
f 42 63 64
f 42 64 43
f 43 64 65
f 43 65 48
f 43 48 45
f 43 45 44
f 48 65 49
f 49 65 66
f 49 66 50
f 50 66 67
f 50 67 51
f 51 67 60
f 51 60 68
f 51 68 69
f 51 69 70
f 51 70 52
f 52 71 54
f 52 54 53
f 52 70 71
f 54 72 55
f 55 72 56
f 58 73 74
f 58 74 59
f 59 74 60
f 60 67 75
f 60 75 61
f 60 74 68
f 61 75 62
f 62 75 63
f 63 75 66
f 63 66 64
f 64 66 65
f 66 75 76
f 66 76 67
f 67 76 75
f 68 77 78
f 68 78 69
f 68 74 77
f 69 78 70
f 70 78 79
f 70 79 80
f 70 80 71
f 73 81 74
f 74 81 77

