# https://github.com/mikedh/trimesh
v 0.03643754 0.02800298 0.00090122
v 0.03643059 0.02910012 0.00090122
v 0.03637917 0.02800298 0.00199760
v 0.03642225 0.02800298 -0.00089829
v 0.03621100 0.03028704 0.00090122
v 0.03616096 0.03022797 0.00270074
v 0.03633330 0.02910012 0.00270074
v 0.03634164 0.02800298 0.00270074
v 0.03641113 0.02910012 -0.00089829
v 0.03619988 0.03027592 -0.00089829
v 0.03639724 0.02800298 -0.00160143
v 0.03509912 0.03078209 0.00090122
v 0.03509912 0.03072303 0.00270074
v 0.03509912 0.03077098 -0.00089829
v 0.03481559 0.03049494 0.00809928
v 0.03462379 0.03043617 0.00989880
v 0.03607062 0.03010778 0.00450025
v 0.03601642 0.03002766 0.00549246
v 0.03615262 0.02910012 0.00450025
v 0.03623185 0.02800298 0.00379972
v 0.03634581 0.02910012 -0.00269781
v 0.03616930 0.03024200 -0.00269781
v 0.03509912 0.03073706 -0.00269781
v 0.03634998 0.02800298 -0.00269781
v 0.03329927 0.03099000 -0.00809896
v 0.03329927 0.03099000 0.00809928
v 0.03329927 0.03093122 0.00989880
v 0.03441254 0.03025166 0.01136758
v 0.03310191 0.03049494 0.01349783
v 0.03272666 0.03032827 0.01529995
v 0.03547438 0.02910012 0.00809928
v 0.03583435 0.02910012 0.00646123
v 0.03602893 0.02910012 0.00556017
v 0.03506021 0.02910012 0.00989880
v 0.03616096 0.02800298 0.00450025
v 0.03616791 0.02910012 -0.00449993
v 0.03600391 0.03000778 -0.00542703
v 0.03608035 0.03011802 -0.00449993
v 0.03482254 0.03049494 -0.00809896
v 0.03329927 0.03096865 -0.00861980
v 0.03617208 0.02800298 -0.00449993
v 0.03149943 0.03096631 -0.00861980
v 0.02790112 0.03097567 0.01798490
v 0.02881564 0.03098590 0.01798490
v 0.02969958 0.03099000 0.01529995
v 0.03149943 0.03099000 0.01349783
v 0.03149943 0.03082303 0.01529995
v 0.03418321 0.02910012 0.01257073
v 0.03451956 0.02910012 0.01166967
v 0.03248066 0.03010749 0.01634684
v 0.03382464 0.02910012 0.01349783
v 0.03153000 0.03045430 0.01700831
v 0.03119088 0.03035020 0.01798490
v 0.03550635 0.02800298 0.00809928
v 0.03564672 0.02800298 0.00745865
v 0.03602893 0.02800298 0.00556798
v 0.03593303 0.02800298 0.00611747
v 0.03506993 0.02800298 0.00989880
v 0.03601642 0.02800298 -0.00550515
v 0.03601225 0.02910012 -0.00547651
v 0.03585659 0.02800298 -0.00640621
v 0.03552163 0.02800298 -0.00809896
v 0.03549106 0.02910012 -0.00809896
v 0.03536458 0.02910012 -0.00861980
v 0.03523811 0.02948202 -0.00861980
v 0.03476278 0.03047389 -0.00861980
v 0.02998727 0.03045108 -0.00861980
v 0.02609988 0.03063794 0.01798490
v 0.02701579 0.03090461 0.01798490
v 0.02969958 0.03086689 0.01798490
v 0.02969958 0.03098211 0.01709946
v 0.03058491 0.03060577 0.01798490
v 0.03419433 0.02800298 0.01258896
v 0.03424298 0.02800298 0.01245875
v 0.03448203 0.02800298 0.01179207
v 0.03252652 0.02910012 0.01643539
v 0.03306856 0.02910012 0.01529995
v 0.03167038 0.02910012 0.01798490
v 0.03203452 0.02910012 0.01733384
v 0.03388162 0.02800298 0.01339366
v 0.03539377 0.02800298 -0.00861980
v 0.02618327 0.02800298 -0.00861980
v 0.02502414 0.03016714 0.01798490
v 0.02544109 0.03040692 0.01798490
v 0.03253069 0.02800298 0.01644580
v 0.03307968 0.02800298 0.01529995
v 0.03204285 0.02800298 0.01734686
v 0.03223465 0.02800298 0.01699529
v 0.03168010 0.02800298 0.01798490
v 0.02250018 0.02800298 0.01577392
v 0.02223889 0.02800298 0.01798490
f 1 2 3
f 1 3 8
f 1 8 20
f 1 20 35
f 1 35 56
f 1 56 57
f 1 57 55
f 1 55 54
f 1 54 58
f 1 58 75
f 1 75 74
f 1 74 73
f 1 73 80
f 1 80 86
f 1 86 85
f 1 85 88
f 1 88 87
f 1 87 89
f 1 89 91
f 1 91 90
f 1 90 82
f 1 82 81
f 1 81 62
f 1 62 61
f 1 61 59
f 1 59 41
f 1 41 24
f 1 24 11
f 1 11 4
f 1 4 2
f 2 5 6
f 2 6 7
f 2 7 8
f 2 8 3
f 2 4 9
f 2 9 10
f 2 10 5
f 4 11 9
f 5 12 13
f 5 13 6
f 5 10 14
f 5 14 12
f 6 13 15
f 6 15 16
f 6 16 17
f 6 17 7
f 7 17 18
f 7 18 19
f 7 19 20
f 7 20 8
f 9 11 21
f 9 21 22
f 9 22 10
f 10 22 23
f 10 23 14
f 11 24 21
f 12 14 25
f 12 25 26
f 12 26 27
f 12 27 13
f 13 27 15
f 14 23 25
f 15 27 16
f 16 28 18
f 16 18 17
f 16 27 29
f 16 29 30
f 16 30 28
f 18 31 32
f 18 32 33
f 18 33 19
f 18 28 34
f 18 34 31
f 19 33 35
f 19 35 20
f 21 36 37
f 21 37 38
f 21 38 22
f 21 24 41
f 21 41 36
f 22 38 39
f 22 39 23
f 23 39 40
f 23 40 25
f 25 40 42
f 25 42 43
f 25 43 44
f 25 44 45
f 25 45 46
f 25 46 26
f 26 46 27
f 27 46 47
f 27 47 29
f 28 48 49
f 28 49 34
f 28 30 50
f 28 50 51
f 28 51 48
f 29 47 30
f 30 47 52
f 30 52 53
f 30 53 50
f 31 54 32
f 31 34 54
f 32 54 55
f 32 55 33
f 33 56 35
f 33 55 57
f 33 57 56
f 34 49 58
f 34 58 54
f 36 41 59
f 36 59 60
f 36 60 37
f 37 60 61
f 37 61 62
f 37 62 63
f 37 63 64
f 37 64 65
f 37 65 66
f 37 66 38
f 38 66 39
f 39 66 40
f 40 66 65
f 40 65 64
f 40 64 81
f 40 81 82
f 40 82 67
f 40 67 42
f 42 67 68
f 42 68 69
f 42 69 43
f 43 69 68
f 43 68 84
f 43 84 83
f 43 83 91
f 43 91 89
f 43 89 78
f 43 78 53
f 43 53 72
f 43 72 70
f 43 70 44
f 44 70 71
f 44 71 46
f 44 46 45
f 46 71 47
f 47 71 70
f 47 70 72
f 47 72 52
f 48 73 74
f 48 74 49
f 48 51 73
f 49 74 75
f 49 75 58
f 50 76 77
f 50 77 51
f 50 53 78
f 50 78 79
f 50 79 76
f 51 77 80
f 51 80 73
f 52 72 53
f 59 61 60
f 62 81 64
f 62 64 63
f 67 82 83
f 67 83 84
f 67 84 68
f 76 85 86
f 76 86 77
f 76 79 87
f 76 87 88
f 76 88 85
f 77 86 80
f 78 89 87
f 78 87 79
f 82 90 83
f 83 90 91

