# https://github.com/mikedh/trimesh
v -0.02223286 0.02801440 0.01807903
v -0.02499010 0.03018581 0.01807903
v -0.03163085 0.02801440 0.01807903
v -0.02236912 0.02801440 0.01696571
v -0.02609967 0.03065942 0.01807903
v -0.02635413 0.02801440 -0.00861967
v -0.02998735 0.03045116 -0.00861967
v -0.03162946 0.02814343 0.01807903
v -0.03204242 0.02801440 0.01734727
v -0.02790030 0.03096175 0.01709900
v -0.02790030 0.03097690 0.01807903
v -0.03100237 0.03081320 -0.00861967
v -0.03149876 0.03096641 -0.00861967
v -0.03538782 0.02801440 -0.00861967
v -0.03162529 0.02852616 0.01807903
v -0.03203547 0.02910025 0.01733420
v -0.03252769 0.02910025 0.01643519
v -0.03253047 0.02801440 0.01644564
v -0.02969953 0.03098971 0.01529835
v -0.02969953 0.03098214 0.01709900
v -0.02969953 0.03085456 0.01807903
v -0.03277935 0.03098971 -0.00861967
v -0.03552131 0.02801440 -0.00809960
v -0.03536557 0.02910025 -0.00861967
v -0.03161695 0.02910025 0.01807903
v -0.03248041 0.03010746 0.01634633
v -0.03306857 0.02910025 0.01529835
v -0.03307969 0.02801440 0.01529835
v -0.03286417 0.02801440 0.01575047
v -0.03149876 0.03098971 0.01349770
v -0.03149876 0.03082311 0.01529835
v -0.03115810 0.03034019 0.01807903
v -0.03153074 0.03045437 0.01700753
v -0.03329938 0.03096874 -0.00861967
v -0.03329938 0.03098971 -0.00809960
v -0.03592732 0.02801440 -0.00604807
v -0.03600379 0.03000784 -0.00542607
v -0.03549211 0.02910025 -0.00809960
v -0.03476212 0.03047388 -0.00861967
v -0.03148207 0.02964755 0.01807903
v -0.03272652 0.03032824 0.01529835
v -0.03441312 0.03025193 0.01136777
v -0.03382497 0.02910025 0.01349770
v -0.03388059 0.02801440 0.01339578
v -0.03329938 0.03098971 0.00809838
v -0.03329938 0.03093117 0.00989902
v -0.03310194 0.03049485 0.01349770
v -0.03438253 0.03061660 -0.00861967
v -0.03509861 0.03073689 -0.00269766
v -0.03509861 0.03077097 -0.00089963
v -0.03509861 0.03078204 0.00090102
v -0.03601630 0.02801440 -0.00550448
v -0.03601213 0.02910025 -0.00547573
v -0.03616786 0.02910025 -0.00449831
v -0.03634584 0.02910025 -0.00269766
v -0.03608026 0.03011794 -0.00449831
v -0.03482191 0.03049485 -0.00809960
v -0.03462447 0.03043630 0.00989902
v -0.03601630 0.03002765 0.00549018
v -0.03506107 0.02910025 0.00989902
v -0.03452019 0.02910025 0.01167092
v -0.03418370 0.02910025 0.01256994
v -0.03419483 0.02801440 0.01258823
v -0.03413921 0.02801440 0.01273197
v -0.03509861 0.03072291 0.00270166
v -0.03481496 0.03049485 0.00809838
v -0.03616925 0.03024203 -0.00269766
v -0.03619984 0.03027611 -0.00089963
v -0.03621096 0.03028718 0.00090102
v -0.03607887 0.02801440 -0.00511769
v -0.03617203 0.02801440 -0.00449831
v -0.03624294 0.02801440 -0.00378485
v -0.03635001 0.02801440 -0.00269766
v -0.03642231 0.02801440 -0.00089963
v -0.03641119 0.02910025 -0.00089963
v -0.03616091 0.03022775 0.00270166
v -0.03607053 0.03010775 0.00450231
v -0.03602882 0.02910025 0.00556075
v -0.03583415 0.02910025 0.00645976
v -0.03547542 0.02910025 0.00809838
v -0.03633332 0.02910025 0.00270166
v -0.03615257 0.02910025 0.00450231
v -0.03534194 0.02801440 0.00881184
v -0.03506941 0.02801440 0.00989902
v -0.03485528 0.02801440 0.01060203
v -0.03448265 0.02801440 0.01179114
v -0.03509861 0.03060291 0.00450231
v -0.03643065 0.02910025 0.00090102
v -0.03643065 0.02801440 -0.00018355
v -0.03611224 0.02801440 0.00492046
v -0.03602882 0.02801440 0.00556859
v -0.03585640 0.02801440 0.00646760
v -0.03550601 0.02801440 0.00809838
v -0.03634167 0.02801440 0.00270166
v -0.03616091 0.02801440 0.00450231
v -0.03643622 0.02801440 0.00090102
f 1 2 5
f 1 5 11
f 1 11 21
f 1 21 32
f 1 32 40
f 1 40 25
f 1 25 15
f 1 15 8
f 1 8 3
f 1 3 9
f 1 9 18
f 1 18 29
f 1 29 28
f 1 28 44
f 1 44 64
f 1 64 63
f 1 63 86
f 1 86 85
f 1 85 84
f 1 84 83
f 1 83 93
f 1 93 92
f 1 92 91
f 1 91 90
f 1 90 95
f 1 95 94
f 1 94 96
f 1 96 89
f 1 89 74
f 1 74 73
f 1 73 72
f 1 72 71
f 1 71 70
f 1 70 52
f 1 52 36
f 1 36 23
f 1 23 14
f 1 14 6
f 1 6 4
f 1 4 2
f 2 4 6
f 2 6 7
f 2 7 5
f 3 8 9
f 5 10 11
f 5 7 12
f 5 12 13
f 5 13 10
f 6 14 24
f 6 24 39
f 6 39 48
f 6 48 34
f 6 34 22
f 6 22 13
f 6 13 12
f 6 12 7
f 8 15 9
f 9 15 16
f 9 16 17
f 9 17 18
f 10 13 11
f 11 19 20
f 11 20 21
f 11 13 22
f 11 22 19
f 14 23 24
f 15 25 16
f 16 25 26
f 16 26 17
f 17 26 27
f 17 27 28
f 17 28 29
f 17 29 18
f 19 30 20
f 19 22 35
f 19 35 45
f 19 45 30
f 20 30 31
f 20 31 21
f 21 31 33
f 21 33 32
f 22 34 35
f 23 36 37
f 23 37 38
f 23 38 24
f 24 38 37
f 24 37 39
f 25 40 26
f 26 41 42
f 26 42 43
f 26 43 27
f 26 40 32
f 26 32 41
f 27 43 44
f 27 44 28
f 30 45 46
f 30 46 31
f 31 41 33
f 31 46 47
f 31 47 41
f 32 33 41
f 34 48 49
f 34 49 35
f 35 49 50
f 35 50 51
f 35 51 45
f 36 52 53
f 36 53 37
f 37 53 54
f 37 54 55
f 37 55 56
f 37 56 39
f 39 56 57
f 39 57 48
f 41 47 58
f 41 58 42
f 42 58 59
f 42 59 60
f 42 60 61
f 42 61 62
f 42 62 43
f 43 62 63
f 43 63 64
f 43 64 44
f 45 51 46
f 46 51 65
f 46 65 66
f 46 66 58
f 46 58 47
f 48 57 49
f 49 67 68
f 49 68 50
f 49 57 67
f 50 68 69
f 50 69 51
f 51 69 65
f 52 70 53
f 53 70 54
f 54 70 71
f 54 71 72
f 54 72 55
f 55 67 56
f 55 72 73
f 55 73 74
f 55 74 75
f 55 75 67
f 56 67 57
f 58 66 76
f 58 76 77
f 58 77 59
f 59 78 79
f 59 79 80
f 59 80 60
f 59 77 81
f 59 81 82
f 59 82 78
f 60 80 83
f 60 83 84
f 60 84 85
f 60 85 61
f 61 85 86
f 61 86 63
f 61 63 62
f 65 69 76
f 65 76 87
f 65 87 66
f 66 87 76
f 67 75 68
f 68 75 88
f 68 88 69
f 69 88 76
f 74 89 75
f 75 89 88
f 76 81 77
f 76 88 81
f 78 82 90
f 78 90 91
f 78 91 92
f 78 92 93
f 78 93 79
f 79 93 80
f 80 93 83
f 81 94 95
f 81 95 82
f 81 88 94
f 82 95 90
f 88 89 96
f 88 96 94

