# https://github.com/mikedh/trimesh
v -30.66622257 47.79539347 -15.84212780
v -28.82875919 48.59724283 -18.41604352
v -30.66622257 48.59724283 -15.84453583
v -30.66622257 18.20172310 -15.84212780
v -28.82875919 49.39908981 -18.42326641
v -28.82875919 1.40275717 -18.41604352
v -30.66622257 49.39908981 -15.85175872
v -30.66622257 4.60018873 -15.84453583
v -28.82875919 49.40905094 -18.42808247
v -30.66622257 0.60091019 -15.87583661
v -28.82875919 0.60091019 -18.42326641
v -28.82875919 50.13619423 -18.79406452
v -30.66622257 50.15611410 -17.21215367
v -30.66622257 0.41663408 -16.19125605
v -28.82875919 -0.13121367 -18.80128860
v -28.82875919 50.27066469 -19.09503698
v -28.82875919 50.43501854 -19.60067034
v -30.66622257 50.41011572 -18.13433290
v -30.66622257 -0.13121367 -17.16881394
v -28.82875919 -0.43003798 -19.60067034
v -28.82875919 50.43999910 -19.97146845
v -29.20002937 50.43999910 -19.60067034
v -30.66622257 50.43999910 -18.93371582
v -30.66622257 -0.36529303 -17.99949765
v -30.66622257 -0.43501854 -18.80128860
v -29.20002937 -0.43999910 -19.60067034
v -28.82875919 -0.43999910 -20.40005445
v -29.99995232 -0.41011572 -18.80128860
v -28.82875919 50.43999910 -38.79789591
v -30.66622257 50.43999910 -38.79789591
v -30.66622257 -0.43999910 -19.60067034
v -28.82875919 -0.43999910 -38.79789591
v -28.82875919 50.41011572 -39.59968567
v -30.66622257 50.43501854 -38.93273354
v -30.66622257 -0.43999910 -38.79789591
v -28.82875919 -0.42505741 -39.22647953
v -28.82875919 50.09136915 -40.21848679
v -30.66622257 50.41011572 -39.59968567
v -30.66622257 -0.41011572 -39.59968567
v -28.82875919 -0.41011572 -39.59968567
v -28.82875919 49.39908981 -40.44000149
v -30.66622257 50.09136915 -40.21848679
v -30.66622257 -0.14615297 -40.11495113
v -28.82875919 -0.24078131 -39.93196011
v -30.66622257 49.39908981 -40.44000149
v -28.82875919 0.60091019 -40.44000149
v -30.66622257 -0.09136915 -40.21848679
v -28.82875919 -0.09136915 -40.21848679
v -30.66622257 0.60091019 -40.44000149
f 1 2 3
f 1 3 7
f 1 7 13
f 1 13 18
f 1 18 23
f 1 23 30
f 1 30 34
f 1 34 38
f 1 38 42
f 1 42 45
f 1 45 49
f 1 49 47
f 1 47 43
f 1 43 39
f 1 39 35
f 1 35 31
f 1 31 25
f 1 25 24
f 1 24 19
f 1 19 14
f 1 14 10
f 1 10 8
f 1 8 4
f 1 4 6
f 1 6 2
f 2 5 7
f 2 7 3
f 2 6 11
f 2 11 15
f 2 15 20
f 2 20 27
f 2 27 32
f 2 32 36
f 2 36 40
f 2 40 44
f 2 44 48
f 2 48 46
f 2 46 41
f 2 41 37
f 2 37 33
f 2 33 29
f 2 29 21
f 2 21 17
f 2 17 16
f 2 16 12
f 2 12 9
f 2 9 5
f 4 8 6
f 5 9 7
f 6 8 10
f 6 10 11
f 7 9 12
f 7 12 13
f 10 14 15
f 10 15 11
f 12 16 13
f 13 16 17
f 13 17 18
f 14 19 15
f 15 19 20
f 17 21 22
f 17 22 23
f 17 23 18
f 19 24 20
f 20 25 26
f 20 26 27
f 20 24 28
f 20 28 25
f 21 29 30
f 21 30 23
f 21 23 22
f 24 25 28
f 25 31 26
f 26 31 35
f 26 35 32
f 26 32 27
f 29 33 34
f 29 34 30
f 32 35 36
f 33 37 42
f 33 42 38
f 33 38 34
f 35 39 36
f 36 39 40
f 37 41 45
f 37 45 42
f 39 43 44
f 39 44 40
f 41 46 49
f 41 49 45
f 43 47 48
f 43 48 44
f 46 48 47
f 46 47 49

