# https://github.com/mikedh/trimesh
v -38.00195456 50.43999910 -4.45558906
v -38.00195456 50.43999910 -26.69892788
v -38.80007744 50.43999910 -4.45558906
v -38.00195456 -0.43999910 -4.45558906
v -38.09909344 50.43999910 -26.70110703
v -38.00195456 49.84732866 -26.70110703
v -38.80007744 50.43999910 -26.70110703
v -39.54640865 50.41509628 -4.45558906
v -38.80007744 -0.43999910 -4.45558906
v -38.00195456 -0.43999910 -26.70110703
v -39.59987164 50.41011572 -26.70110703
v -39.59987164 50.41011572 -4.45558906
v -39.50105906 -0.41509628 -26.70110703
v -38.80007744 -0.43999910 -26.70110703
v -39.59987164 -0.41011572 -4.45558906
v -40.21994591 50.09136915 -26.70110703
v -40.21994591 50.09136915 -4.45558906
v -39.59987164 -0.41011572 -26.70110703
v -39.64116096 -0.39019585 -4.45558906
v -40.23450375 50.04654646 -4.45558906
v -40.44000149 49.39908981 -26.70110703
v -40.14332771 -0.13121367 -26.70110703
v -40.21994591 -0.09136915 -4.45558906
v -40.44000149 49.39908981 -4.45558906
v -40.44000149 0.60091019 -26.70110703
v -40.21994591 -0.09136915 -26.70110703
v -40.24715424 -0.00670195 -26.70110703
v -40.44000149 0.60091019 -4.45558906
f 1 2 5
f 1 5 7
f 1 7 3
f 1 3 8
f 1 8 12
f 1 12 17
f 1 17 20
f 1 20 24
f 1 24 28
f 1 28 23
f 1 23 19
f 1 19 15
f 1 15 9
f 1 9 4
f 1 4 10
f 1 10 6
f 1 6 2
f 2 6 5
f 3 7 8
f 4 9 14
f 4 14 10
f 5 6 10
f 5 10 14
f 5 14 13
f 5 13 18
f 5 18 22
f 5 22 26
f 5 26 27
f 5 27 25
f 5 25 21
f 5 21 16
f 5 16 11
f 5 11 7
f 7 11 8
f 8 11 12
f 9 13 14
f 9 15 13
f 11 16 17
f 11 17 12
f 13 15 18
f 15 19 18
f 16 20 17
f 16 21 20
f 18 19 22
f 19 23 22
f 20 21 24
f 21 25 28
f 21 28 24
f 22 23 26
f 23 27 26
f 23 28 27
f 25 27 28

