# https://github.com/mikedh/trimesh
v 30.41890860 49.39908981 40.43768883
v 30.41890860 49.76266146 40.32438755
v 27.51828432 49.39908981 40.43768883
v 30.41890860 0.60091019 40.43768883
v 27.51828432 50.02164364 40.24114609
v 30.41890860 50.09136915 40.21802425
v 27.51828432 0.60091019 40.43768883
v 27.51828432 0.53118229 40.41687965
v 30.41890860 0.27220249 40.33363819
v 27.51828432 50.09136915 40.21802425
v 30.41890860 50.26070356 39.89430666
v 27.51828432 -0.09136915 40.21802425
v 30.41890860 -0.09136915 40.21802425
v 27.51828432 50.38023472 39.66307878
v 30.41890860 50.41011572 39.59833622
v 27.51828432 -0.41011572 39.59833622
v 30.41890860 -0.24576187 39.92436409
v 27.51828432 50.41011572 39.59833622
v 30.41890860 50.43999910 38.79828930
v 27.51828432 -0.41509628 39.51740742
v 30.41890860 -0.41011572 39.59833622
v 27.51828432 50.43999910 38.79828930
v 30.41890860 50.43999910 19.18331623
v 30.41890860 -0.42505741 39.21681166
v 27.51828432 -0.43999910 38.79828930
v 30.41890860 -0.43999910 38.79828930
v 27.51828432 50.43999910 20.40188313
v 30.41890860 50.41011572 18.38327169
v 28.40016842 50.43003798 19.60183620
v 29.19999838 50.43999910 19.60183620
v 27.51828432 -0.43999910 20.40188313
v 30.41890860 -0.43999910 19.60183620
v 27.51828432 50.42007685 19.68276620
v 30.41890860 50.14615297 17.49536037
v 27.51828432 50.41509628 19.60183620
v 29.19999838 -0.43999910 19.60183620
v 27.51828432 -0.41509628 19.60183620
v 28.40016842 -0.43003798 19.60183620
v 30.41890860 -0.42505741 18.80179167
v 27.51828432 50.13121367 19.02608156
v 30.41890860 50.03658533 17.28494406
v 30.41890860 -0.28062582 17.99481034
v 29.99982834 -0.41011572 18.80179167
v 27.51828432 -0.38521528 19.53709364
v 30.41890860 -0.03658533 17.28494406
v 27.51828432 50.09634972 18.96133900
v 30.41890860 49.39908981 16.83867574
v 27.51828432 -0.09634972 18.96133900
v 30.41890860 0.60091019 16.83867574
v 27.51828432 49.46881771 18.74398470
v 27.51828432 49.39908981 18.72086287
v 30.41890860 48.59724283 16.82017803
v 27.51828432 0.60091019 18.72086287
v 30.41890860 1.38781548 16.82248950
v 30.41890860 3.78838062 16.82017803
f 1 2 3
f 1 3 7
f 1 7 4
f 1 4 9
f 1 9 13
f 1 13 17
f 1 17 21
f 1 21 24
f 1 24 26
f 1 26 32
f 1 32 39
f 1 39 42
f 1 42 45
f 1 45 49
f 1 49 54
f 1 54 55
f 1 55 52
f 1 52 47
f 1 47 41
f 1 41 34
f 1 34 28
f 1 28 23
f 1 23 19
f 1 19 15
f 1 15 11
f 1 11 6
f 1 6 2
f 2 5 3
f 2 6 5
f 3 5 10
f 3 10 14
f 3 14 18
f 3 18 22
f 3 22 27
f 3 27 33
f 3 33 35
f 3 35 40
f 3 40 46
f 3 46 50
f 3 50 51
f 3 51 53
f 3 53 48
f 3 48 44
f 3 44 37
f 3 37 31
f 3 31 25
f 3 25 20
f 3 20 16
f 3 16 12
f 3 12 8
f 3 8 7
f 4 7 8
f 4 8 9
f 5 6 10
f 6 11 10
f 8 12 13
f 8 13 9
f 10 11 14
f 11 15 14
f 12 16 17
f 12 17 13
f 14 15 18
f 15 19 22
f 15 22 18
f 16 20 21
f 16 21 17
f 19 23 30
f 19 30 27
f 19 27 22
f 20 24 21
f 20 25 26
f 20 26 24
f 23 28 29
f 23 29 30
f 25 31 36
f 25 36 32
f 25 32 26
f 27 30 29
f 27 29 33
f 28 34 35
f 28 35 33
f 28 33 29
f 31 37 38
f 31 38 36
f 32 36 39
f 34 40 35
f 34 41 40
f 36 38 39
f 37 42 43
f 37 43 39
f 37 39 38
f 37 44 45
f 37 45 42
f 39 43 42
f 40 41 46
f 41 47 46
f 44 48 45
f 45 48 49
f 46 47 50
f 47 51 50
f 47 52 51
f 48 53 49
f 49 53 54
f 51 52 55
f 51 55 53
f 53 55 54

