# https://github.com/mikedh/trimesh
v 27.62010098 48.59724283 -18.71191025
v 27.62010098 49.39908981 -18.71403694
v 24.15272713 49.39908981 -18.76082778
v 27.62010098 5.40203691 -18.71191025
v 27.62010098 50.09634972 -18.95650029
v 24.15272713 50.09136915 -18.98202300
v 24.15272713 0.60091019 -18.76082778
v 27.62010098 0.60091019 -18.71403694
v 27.62010098 50.10631084 -18.97564173
v 24.15272713 50.41011572 -19.60094213
v 24.15272713 0.38675070 -18.82888794
v 24.15272713 -0.09136915 -18.98202300
v 27.62010098 -0.08140802 -18.95011902
v 27.62010098 50.41509628 -19.60094213
v 27.59973764 50.41509628 -19.60094213
v 24.15272713 50.43999910 -20.40064335
v 27.62010098 -0.09634972 -18.95650029
v 24.15272713 -0.19097805 -19.17344093
v 27.62010098 50.43999910 -20.40064335
v 24.15272713 50.43999910 -38.79805803
v 24.15272713 -0.41011572 -19.60094213
v 27.62010098 -0.41011572 -19.58392620
v 27.62010098 50.43999910 -38.79805803
v 24.15272713 50.42007685 -39.35104370
v 24.15272713 -0.42007685 -19.84765768
v 27.59973764 -0.41509628 -19.60094213
v 27.62010098 -0.41509628 -19.60094213
v 27.62010098 50.41011572 -39.59988832
v 24.15272713 50.41011572 -39.59988832
v 24.15272713 -0.43999910 -20.40064335
v 27.62010098 -0.43999910 -20.40064335
v 27.62010098 50.40513515 -39.61477757
v 24.15272713 50.19097805 -40.02738953
v 24.15272713 -0.43999910 -38.79805803
v 27.62010098 -0.43999910 -38.79805803
v 27.62010098 50.09136915 -40.21880627
v 24.15272713 50.09136915 -40.21880627
v 24.15272713 -0.41011572 -39.59988832
v 27.62010098 -0.41011572 -39.59988832
v 27.62010098 50.07144690 -40.22518635
v 24.15272713 49.61324930 -40.37194252
v 24.15272713 -0.09136915 -40.21880627
v 27.62010098 -0.10133028 -40.20391941
v 27.62010098 49.39908981 -40.44000149
v 24.15272713 49.39908981 -40.44000149
v 24.15272713 0.60091019 -40.44000149
v 27.62010098 -0.09136915 -40.21880627
v 27.62010098 0.60091019 -40.44000149
f 1 2 3
f 1 3 7
f 1 7 4
f 1 4 8
f 1 8 13
f 1 13 17
f 1 17 22
f 1 22 27
f 1 27 31
f 1 31 35
f 1 35 39
f 1 39 43
f 1 43 47
f 1 47 48
f 1 48 44
f 1 44 40
f 1 40 36
f 1 36 32
f 1 32 28
f 1 28 23
f 1 23 19
f 1 19 14
f 1 14 9
f 1 9 5
f 1 5 2
f 2 5 6
f 2 6 3
f 3 6 10
f 3 10 16
f 3 16 20
f 3 20 24
f 3 24 29
f 3 29 33
f 3 33 37
f 3 37 41
f 3 41 45
f 3 45 46
f 3 46 42
f 3 42 38
f 3 38 34
f 3 34 30
f 3 30 25
f 3 25 21
f 3 21 18
f 3 18 12
f 3 12 11
f 3 11 7
f 4 7 8
f 5 9 6
f 6 9 10
f 7 11 8
f 8 11 12
f 8 12 13
f 9 14 15
f 9 15 10
f 10 15 16
f 12 17 13
f 12 18 17
f 14 19 16
f 14 16 15
f 16 19 23
f 16 23 20
f 17 18 21
f 17 21 22
f 20 23 24
f 21 25 26
f 21 26 22
f 22 26 27
f 23 28 24
f 24 28 29
f 25 30 26
f 26 30 31
f 26 31 27
f 28 32 29
f 29 32 33
f 30 34 35
f 30 35 31
f 32 36 33
f 33 36 37
f 34 38 39
f 34 39 35
f 36 40 41
f 36 41 37
f 38 42 43
f 38 43 39
f 40 44 41
f 41 44 45
f 42 46 48
f 42 48 47
f 42 47 43
f 44 48 46
f 44 46 45

