# https://github.com/mikedh/trimesh
v -20.39742231 49.39908981 40.44000149
v -20.39742231 50.09136915 40.21638393
v -28.65195036 49.39908981 40.44000149
v -20.39742231 0.60091019 40.44000149
v -28.65195036 50.09136915 40.21638393
v -20.39742231 50.41011572 39.59498405
v -20.40065289 50.41011572 39.59928274
v -24.96504545 50.18599749 40.03576756
v -28.65195036 0.60091019 40.44000149
v -20.39742231 -0.09136915 40.21638393
v -28.65195036 50.31050920 39.79279995
v -20.39742231 50.43999910 38.79511833
v -24.96504545 50.42007685 39.36276436
v -24.96504545 50.41011572 39.59928274
v -20.40065289 50.43999910 38.79726648
v -28.65195036 -0.09136915 40.21638393
v -20.39742231 -0.41011572 39.59928274
v -28.65195036 50.41011572 39.59713221
v -20.39742231 50.43999910 20.39821386
v -28.65195036 50.43999910 38.79726648
v -28.65195036 -0.41011572 39.59713221
v -24.96504545 -0.41011572 39.59928274
v -28.65195036 -0.42007685 39.34556246
v -20.39742231 -0.43999910 38.79726648
v -20.39742231 50.43003798 19.60049868
v -28.65195036 50.43501854 19.60264921
v -28.65195036 50.43999910 20.40251255
v -28.65195036 -0.43999910 38.79726648
v -20.39742231 -0.43999910 20.40251255
v -20.39742231 50.11129141 18.87803912
v -28.65195036 50.12623310 18.83288622
v -28.65195036 -0.43999910 20.15094280
v -28.65195036 -0.43501854 19.60264921
v -20.39742231 -0.43003798 19.60264921
v -20.39742231 50.10631084 18.87373924
v -28.65195036 49.39908981 18.48025680
v -28.65195036 -0.33540964 19.30592418
v -20.39742231 -0.11129141 18.87803912
v -20.39742231 49.39908981 18.54691267
v -28.65195036 49.06042099 18.47810626
v -28.65195036 -0.12623310 18.83288622
v -28.65195036 0.30208349 18.61786842
v -20.40065289 0.60091019 18.54691267
v -20.39742231 0.60091019 18.54906201
v -20.39742231 48.59724283 18.54476213
v -28.65195036 48.59724283 18.47595692
v -28.65195036 0.60091019 18.48025680
v -28.65195036 1.07404947 18.47595692
v -20.39742231 1.39777660 18.54476213
v -20.39742231 44.59796309 18.54261160
v -20.39742231 2.19962597 18.54261160
f 1 2 5
f 1 5 3
f 1 3 9
f 1 9 4
f 1 4 10
f 1 10 17
f 1 17 24
f 1 24 29
f 1 29 34
f 1 34 38
f 1 38 44
f 1 44 49
f 1 49 51
f 1 51 50
f 1 50 45
f 1 45 39
f 1 39 35
f 1 35 30
f 1 30 25
f 1 25 19
f 1 19 12
f 1 12 6
f 1 6 2
f 2 6 7
f 2 7 8
f 2 8 5
f 3 5 11
f 3 11 18
f 3 18 20
f 3 20 27
f 3 27 26
f 3 26 31
f 3 31 36
f 3 36 40
f 3 40 46
f 3 46 48
f 3 48 47
f 3 47 42
f 3 42 41
f 3 41 37
f 3 37 33
f 3 33 32
f 3 32 28
f 3 28 23
f 3 23 21
f 3 21 16
f 3 16 9
f 4 9 16
f 4 16 10
f 5 8 11
f 6 12 7
f 7 13 14
f 7 14 8
f 7 12 15
f 7 15 13
f 8 14 11
f 10 16 22
f 10 22 17
f 11 14 18
f 12 19 27
f 12 27 20
f 12 20 15
f 13 18 14
f 13 15 20
f 13 20 18
f 16 21 22
f 17 22 23
f 17 23 24
f 19 25 26
f 19 26 27
f 21 23 22
f 23 28 24
f 24 28 32
f 24 32 29
f 25 30 31
f 25 31 26
f 29 32 33
f 29 33 34
f 30 35 31
f 31 35 36
f 33 37 34
f 34 37 38
f 35 39 36
f 36 39 40
f 37 41 38
f 38 41 42
f 38 42 43
f 38 43 44
f 39 45 46
f 39 46 40
f 42 47 43
f 43 48 49
f 43 49 44
f 43 47 48
f 45 50 46
f 46 50 51
f 46 51 48
f 48 51 49

