# https://github.com/mikedh/trimesh
v 38.80006552 50.43999910 -4.45693254
v 37.78701782 50.43999910 -4.45693254
v 39.59990740 50.41011572 -4.45693254
v 38.80006552 50.43999910 -38.79848480
v 37.78701782 50.43999910 -38.79848480
v 37.78701782 -0.43999910 -4.45693254
v 39.64119673 50.39019585 -4.45693254
v 39.59990740 50.41011572 -38.79848480
v 39.59990740 50.39517403 -39.59810734
v 38.80006552 50.41011572 -39.59810734
v 37.78701782 50.42007685 -39.38675404
v 37.78701782 -0.43999910 -38.79848480
v 38.80006552 -0.43999910 -4.45693254
v 40.21978378 50.09136915 -4.45693254
v 40.21978378 50.09136915 -39.59810734
v 40.14655113 49.99176025 -40.14410496
v 39.59990740 50.09136915 -40.21808147
v 37.78701782 50.41011572 -39.59810734
v 38.80006552 -0.43999910 -38.79848480
v 37.78701782 -0.41011572 -39.59810734
v 39.54641104 -0.41509628 -4.45693254
v 40.44000149 49.39908981 -4.45693254
v 40.44000149 49.39908981 -39.59810734
v 40.21978378 49.39908981 -40.21808147
v 39.59990740 49.39908981 -40.44000149
v 37.78701782 50.09136915 -40.21808147
v 38.80006552 -0.41011572 -39.59810734
v 39.59990740 -0.39517403 -39.59810734
v 39.59990740 -0.41011572 -38.79848480
v 37.78701782 -0.32544851 -39.76366997
v 39.59990740 -0.41011572 -4.45693254
v 40.44000149 0.60091019 -4.45693254
v 40.44000149 0.60091019 -39.59810734
v 40.21978378 0.60091019 -40.21808147
v 37.78701782 49.39908981 -40.44000149
v 39.59990740 0.60091019 -40.44000149
v 39.59990740 -0.09136915 -40.21808147
v 40.14655113 0.00823975 -40.14410496
v 40.21978378 -0.09136915 -39.59810734
v 37.78701782 -0.09136915 -40.21808147
v 40.21978378 -0.09136915 -4.45693254
v 40.23458958 -0.04654646 -4.45693254
v 37.78701782 0.60091019 -40.44000149
v 37.78701782 0.09290695 -40.27796268
f 1 2 6
f 1 6 13
f 1 13 21
f 1 21 31
f 1 31 41
f 1 41 42
f 1 42 32
f 1 32 22
f 1 22 14
f 1 14 7
f 1 7 3
f 1 3 8
f 1 8 4
f 1 4 5
f 1 5 2
f 2 5 11
f 2 11 18
f 2 18 26
f 2 26 35
f 2 35 43
f 2 43 44
f 2 44 40
f 2 40 30
f 2 30 20
f 2 20 12
f 2 12 6
f 3 7 8
f 4 8 9
f 4 9 10
f 4 10 11
f 4 11 5
f 6 12 19
f 6 19 13
f 7 14 15
f 7 15 8
f 8 15 9
f 9 15 16
f 9 16 17
f 9 17 10
f 10 18 11
f 10 17 26
f 10 26 18
f 12 20 27
f 12 27 19
f 13 19 21
f 14 22 23
f 14 23 15
f 15 23 16
f 16 23 24
f 16 24 25
f 16 25 17
f 17 25 35
f 17 35 26
f 19 27 28
f 19 28 29
f 19 29 21
f 20 30 27
f 21 29 31
f 22 32 33
f 22 33 23
f 23 33 34
f 23 34 24
f 24 34 36
f 24 36 25
f 25 36 43
f 25 43 35
f 27 30 37
f 27 37 28
f 28 37 38
f 28 38 39
f 28 39 29
f 29 39 41
f 29 41 31
f 30 40 37
f 32 42 33
f 33 42 39
f 33 39 38
f 33 38 34
f 34 38 36
f 36 38 37
f 36 37 44
f 36 44 43
f 37 40 44
f 39 42 41

