# https://github.com/mikedh/trimesh
v -30.73976040 33.47667992 40.44000149
v -35.00791550 33.47667992 40.44000149
v -30.73808670 33.45676124 40.44000149
v -30.73808670 33.47667992 40.26949406
v -35.00791550 33.47667992 14.82369423
v -35.00791550 0.60578823 40.44000149
v -30.73808670 0.60578823 40.44000149
v -30.73808670 33.47667992 15.25247216
v -30.75898647 33.47667992 14.82369423
v -35.00791550 -0.43999910 14.82369423
v -30.73808670 -0.03496408 40.23689747
v -35.00791550 -0.08808374 40.21934509
v -30.73808670 32.99528658 15.19981503
v -30.73808670 32.19849765 15.19730806
v -30.75898647 1.35609865 14.82369423
v -32.40004063 -0.43999910 14.82369423
v -35.00791550 -0.43999910 38.79510164
v -30.73808670 -0.08808374 40.21934509
v -35.00791550 -0.40679932 39.60000038
v -30.73808670 -0.38356066 39.64764118
v -30.73808670 1.40589714 15.19730806
v -30.73808670 0.60578823 15.19981503
v -30.75940609 0.60246706 14.82369423
v -31.60041332 -0.41012049 14.82369423
v -30.73808670 -0.43999910 18.86322737
v -30.73808670 -0.43999910 38.79510164
v -35.00791550 -0.42007923 39.38937187
v -30.73808670 -0.40679932 39.60000038
v -30.73808670 -0.15448332 17.09796906
v -30.97969055 -0.08808374 14.82369423
v -30.73808670 -0.40679932 18.06334496
f 1 2 6
f 1 6 7
f 1 7 3
f 1 3 4
f 1 4 8
f 1 8 9
f 1 9 5
f 1 5 2
f 2 5 10
f 2 10 17
f 2 17 27
f 2 27 19
f 2 19 12
f 2 12 6
f 3 7 11
f 3 11 18
f 3 18 20
f 3 20 28
f 3 28 26
f 3 26 25
f 3 25 31
f 3 31 29
f 3 29 22
f 3 22 21
f 3 21 14
f 3 14 13
f 3 13 8
f 3 8 4
f 5 9 15
f 5 15 23
f 5 23 30
f 5 30 24
f 5 24 16
f 5 16 10
f 6 11 7
f 6 12 11
f 8 13 9
f 9 13 14
f 9 14 21
f 9 21 15
f 10 16 25
f 10 25 26
f 10 26 17
f 11 12 18
f 12 19 20
f 12 20 18
f 15 21 22
f 15 22 23
f 16 24 25
f 17 26 27
f 19 28 20
f 19 27 28
f 22 29 23
f 23 29 30
f 24 30 31
f 24 31 25
f 26 28 27
f 29 31 30

