# https://github.com/mikedh/trimesh
v -20.39742470 -0.43999910 20.39680004
v -20.39742470 -0.43999910 38.79659414
v -20.39742470 -0.43003798 19.60096002
v -13.99708033 -0.43999910 8.40350747
v 21.24964714 -0.43999910 38.79659414
v -20.39742470 -0.41011572 39.59641218
v -20.39742470 -0.11129141 18.87674689
v -16.16993546 -0.01666307 10.00314355
v -15.59920430 -0.33540964 10.00314355
v -14.79610443 -0.42505741 9.20332551
v -15.59920430 -0.43003798 10.80296159
v -13.19805741 -0.41509628 6.80387139
v -11.59593344 -0.42007685 5.20025611
v -12.39903331 -0.43999910 6.80387139
v 21.24964714 -0.43999910 20.39680004
v 21.24964714 -0.41011572 39.59641218
v 21.24964714 -0.39019585 39.63620424
v -20.39742470 -0.09136915 40.21716595
v -20.39742470 0.60091019 18.54647398
v -16.83035374 0.13274908 11.12129688
v -16.04355931 0.11282682 9.51370239
v -15.33422232 0.04310131 8.40350747
v -15.62366486 -0.09634972 9.22720075
v -14.79610443 -0.27564526 8.40350747
v -13.99708033 -0.37525415 7.60368943
v -13.22251678 -0.14615297 5.98017812
v -12.42756963 -0.15113354 5.17638087
v -10.79690933 -0.39517403 4.40043807
v -9.19886172 -0.43501854 3.60062003
v -9.99788523 -0.43999910 4.40043807
v 13.99728537 -0.43999910 8.40350747
v 21.24964714 -0.42007685 19.65268970
v 21.24964714 -0.09136915 40.21716595
v 21.24964714 -0.04654646 40.23308277
v -20.39742470 0.60091019 40.44000149
v -20.39742470 1.39777660 18.54249477
v -16.67544127 0.60091019 10.68358541
v -16.34523153 0.60091019 10.00314355
v -15.86011052 0.60091019 9.06803250
v -15.20376921 0.18753529 7.99365044
v -14.47812557 0.07298470 7.09037304
v -14.76756811 -0.01168251 7.67531514
v -14.00931120 -0.11129141 6.81580901
v -13.74840498 0.02318144 6.23086691
v -12.96976447 0.01820087 5.42309046
v -11.60408616 -0.13121367 4.38054204
v -12.17889428 0.01322031 4.63123083
v -9.99788523 -0.34039021 3.60062003
v -8.39983821 -0.40015459 2.80080080
v -7.59673774 -0.43999910 2.80080080
v 12.39923835 -0.43999910 6.80387139
v 11.59613729 -0.42007685 5.20025611
v 13.19826126 -0.41509628 6.80387139
v 14.79630947 -0.42505741 9.20332551
v 21.24964714 -0.41509628 19.60096002
v 21.24964714 0.60091019 40.44000149
v -20.39742470 49.39908981 40.44000149
v -20.39742470 48.59724283 18.54249477
v -16.67544127 49.39908981 10.68358541
v -16.34523153 49.39908981 10.00314355
v -15.46875238 0.60091019 8.40350747
v -15.86011052 49.39908981 9.06803250
v -15.20784616 0.60091019 7.98967123
v -14.91840363 0.60091019 7.58777261
v -14.51889157 0.60091019 7.03466415
v -14.22537327 0.60091019 6.63276553
v -13.82586122 0.60091019 6.14730358
v -13.45896244 0.60091019 5.74540496
v -12.66809225 0.60091019 4.93364930
v -11.34318113 0.04310131 3.89110088
v -10.75614214 -0.07144690 3.61255646
v -12.26858020 0.60091019 4.54766750
v -11.81607246 0.60091019 4.14576888
v -9.99788523 -0.02164364 2.99578190
v -9.23555195 -0.15113354 2.74509311
v -8.39983821 -0.08140802 2.12831736
v -6.79771423 -0.40015459 2.00098276
v -5.99869013 -0.43501854 2.00098276
v -5.19966662 -0.43999910 2.00098276
v 9.99809027 -0.43999910 4.40043807
v 9.19906676 -0.43501854 3.60062003
v 10.79711437 -0.39517403 4.40043807
v 12.42777467 -0.15113354 5.17638087
v 13.22272182 -0.14615297 5.98017812
v 13.99728537 -0.37525415 7.60368943
v 15.59940934 -0.33540964 10.00314355
v 14.79630947 -0.27564526 8.40350747
v 15.62386990 -0.09634972 9.22720075
v 15.33442736 0.04310131 8.40350747
v 21.24964714 -0.11627197 19.00010228
v 21.24964714 49.39908981 40.44000149
v -20.39742470 50.09136915 40.21716595
v -20.39742470 49.39908981 18.54647398
v -16.83035374 49.86725092 11.12129688
v -16.04355931 49.88717318 9.51370239
v -15.46875238 49.39908981 8.40350747
v -15.20376921 49.81246471 7.99365044
v -15.20784616 49.39908981 7.98967123
v -14.91840363 49.39908981 7.58777261
v -14.51889157 49.39908981 7.03466415
v -14.22537327 49.39908981 6.63276553
v -13.82586122 49.39908981 6.14730358
v -13.45896244 49.39908981 5.74540496
v -12.66809225 49.39908981 4.93364930
v -10.46262383 0.11282682 3.15097094
v -12.26858020 49.39908981 4.54766750
v -11.41656041 0.60091019 3.83141279
v -11.81607246 49.39908981 4.14576888
v -8.99095237 0.03812075 2.29544401
v -7.44182527 0.03314018 1.49164677
v -6.79771423 -0.08140802 1.36431217
v -5.19966662 -0.32544851 1.20116472
v -4.39656645 -0.41011572 1.20116472
v -3.59754264 -0.43003798 1.20116472
v -2.79851884 -0.43999910 1.20116472
v 7.59694219 -0.43999910 2.80080080
v 8.39596629 -0.40015459 2.80080080
v 9.99809027 -0.34039021 3.60062003
v 11.60429120 -0.13121367 4.38054204
v 12.17909932 0.01322031 4.63123083
v 12.96996951 0.01820087 5.42309046
v 13.74861002 0.02318144 6.23086691
v 14.00951505 -0.11129141 6.81580901
v 14.76777196 -0.01168251 7.67531514
v 14.47833061 0.07298470 7.09037304
v 15.20397425 0.18753529 7.99365044
v 16.04376435 0.11282682 9.51370239
v 21.24964714 -0.09634972 18.96031022
v 21.24964714 50.09136915 40.21716595
v 21.24964714 50.11129141 40.18135071
v -20.39742470 50.41011572 39.59641218
v -20.39742470 50.10631084 18.87276769
v -20.39742470 50.11129141 18.87674689
v -16.16993546 50.01666307 10.00314355
v -15.33422232 49.95689869 8.40350747
v -14.47812557 49.92701530 7.09037304
v -13.74840498 49.97681856 6.23086691
v -12.96976447 49.98179913 5.42309046
v -12.17889428 49.98677969 4.63123083
v -10.49523711 0.60091019 3.12709570
v -9.99788523 0.60091019 2.78886437
v -9.48830426 0.60091019 2.46256948
v -11.41656041 49.39908981 3.83141279
v -11.34318113 49.95689869 3.89110088
v -10.46262383 49.88717318 3.15097094
v -9.08879220 0.60091019 2.23973513
v -8.39983821 0.60091019 1.85773253
v -7.96771288 0.60091019 1.61898017
v -5.71740150 0.10784864 0.75549603
v -7.56412446 0.60091019 1.43991709
v -5.19966662 -0.00172138 0.67591190
v -4.39656645 -0.08638859 0.57245255
v -1.99949518 -0.22584200 0.40134668
v -1.19639486 -0.28062582 0.40134668
v -0.39737120 -0.32046795 0.40134668
v 2.79872358 -0.43999910 1.20116472
v 5.19987106 -0.43999910 2.00098276
v 5.99889517 -0.43501854 2.00098276
v 6.79791868 -0.40015459 2.00098276
v 9.23575640 -0.15113354 2.74509311
v 8.39596629 -0.08140802 2.12831736
v 9.99809027 -0.02164364 2.99578190
v 10.75634718 -0.07144690 3.61255646
v 11.34338498 0.04310131 3.89110088
v 11.81627631 0.60091019 4.14576888
v 12.26878524 0.60091019 4.54766750
v 12.66829729 0.60091019 4.93364930
v 13.45509052 0.60091019 5.74540496
v 13.82606626 0.60091019 6.14730358
v 14.22557831 0.60091019 6.63276553
v 14.51909661 0.60091019 7.03466415
v 14.91860867 0.60091019 7.58777261
v 15.20805120 0.60091019 7.98967123
v 15.46895623 0.60091019 8.40350747
v 15.86031556 0.60091019 9.06803250
v 21.24964714 0.60091019 18.72155786
v 21.24964714 0.56106567 18.73349547
v 21.24964714 50.41011572 39.59641218
v -20.39742470 50.43999910 38.79659414
v -20.39742470 50.43003798 19.59698081
v -15.59920430 50.33540964 10.00314355
v -15.62366486 50.09634972 9.22720075
v -14.79610443 50.27564526 8.40350747
v -14.76756811 50.01168251 7.67531514
v -14.00931120 50.11129141 6.81580901
v -13.22251678 50.14615297 5.98017812
v -12.42756963 50.15113354 5.17638087
v -11.60408616 50.13121367 4.38054204
v -10.49523711 49.39908981 3.12709570
v -9.99788523 49.39908981 2.78886437
v -8.39983821 1.40275717 1.85375333
v -9.48830426 49.39908981 2.46256948
v -10.75614214 50.07144690 3.61255646
v -9.99788523 50.02164364 2.99578190
v -8.99095237 49.96187925 2.29544401
v -7.96771288 49.39908981 1.61898017
v -6.79771423 0.60091019 1.12556100
v -6.17398620 0.60091019 0.88680863
v -5.77447474 0.60091019 0.73559999
v -5.19966662 0.60091019 0.54857731
v -4.39656645 0.60091019 0.34165978
v -2.52538323 0.14769077 -0.02044678
v -7.56412446 49.39908981 1.43991709
v -1.99949518 0.09290695 -0.04432201
v -3.59754264 -0.11129141 0.48491001
v -1.19639486 0.04310131 -0.07615566
v -0.39737120 -0.00172138 -0.10401011
v 0.40165249 -0.32046795 0.40134668
v 3.59774739 -0.43003798 1.20116472
v 4.39677089 -0.41011572 1.20116472
v 5.19987106 -0.32544851 1.20116472
v 6.79791868 -0.08140802 1.36431217
v 7.44202971 0.03314018 1.49164677
v 8.99115741 0.03812075 2.29544401
v 10.46282887 0.11282682 3.15097094
v 11.41676545 0.60091019 3.83141279
v 11.81627631 49.39908981 4.14576888
v 12.26878524 49.39908981 4.54766750
v 12.66829729 49.39908981 4.93364930
v 13.45509052 49.39908981 5.74540496
v 13.82606626 49.39908981 6.14730358
v 14.22557831 49.39908981 6.63276553
v 14.51909661 49.39908981 7.03466415
v 14.91860867 49.39908981 7.58777261
v 15.20805120 49.39908981 7.98967123
v 15.46895623 49.39908981 8.40350747
v 15.86031556 49.39908981 9.06803250
v 21.24964714 49.39908981 18.72155786
v 21.24964714 50.43999910 38.79659414
v -20.39742470 50.43999910 20.39680004
v -13.99708033 50.43999910 8.40350747
v -15.59920430 50.43003798 10.80296159
v -14.79610443 50.42505741 9.20332551
v -13.99708033 50.37525415 7.60368943
v -13.19805741 50.41509628 6.80387139
v -11.59593344 50.42007685 5.20025611
v -10.79690933 50.39517403 4.40043807
v -9.99788523 50.34039021 3.60062003
v -8.39983821 48.59724283 1.85375333
v -9.08879220 49.39908981 2.23973513
v -9.23555195 50.15113354 2.74509311
v -8.39983821 50.08140802 2.12831736
v -7.44182527 49.96685982 1.49164677
v -8.39983821 49.39908981 1.85773253
v -6.79771423 49.39908981 1.12556100
v -6.17398620 49.39908981 0.88680863
v -5.77447474 49.39908981 0.73559999
v -5.19966662 49.39908981 0.54857731
v -3.59754264 0.60091019 0.16657472
v -4.39656645 49.39908981 0.34165978
v -2.99012154 0.60091019 0.03924131
v -2.58653313 0.60091019 -0.03238440
v -1.99949518 0.60091019 -0.09207249
v -1.19639486 0.60091019 -0.15176058
v -0.39737120 0.60091019 -0.20746946
v -5.71740150 49.89215136 0.75549603
v 0.40165249 -0.00172138 -0.10401011
v 1.19659953 -0.28062582 0.40134668
v 1.99969992 -0.22584200 0.40134668
v 4.39677089 -0.08638859 0.57245255
v 5.19987106 -0.00172138 0.67591190
v 5.71760595 0.10784864 0.75549603
v 7.56432950 0.60091019 1.43991709
v 7.96791792 0.60091019 1.61898017
v 9.08899665 0.60091019 2.23973513
v 9.48850870 0.60091019 2.46256948
v 9.99809027 0.60091019 2.78886437
v 10.49544215 0.60091019 3.12709570
v 11.41676545 49.39908981 3.83141279
v 10.46282887 49.88717318 3.15097094
v 11.34338498 49.95689869 3.89110088
v 12.17909932 49.98677969 4.63123083
v 12.96996951 49.98179913 5.42309046
v 13.74861002 49.97681856 6.23086691
v 14.47833061 49.92701530 7.09037304
v 15.20397425 49.81246471 7.99365044
v 16.04376435 49.88717318 9.51370239
v 21.24964714 50.09634972 18.96031022
v 21.24964714 50.43999910 20.39680004
v -12.39903331 50.43999910 6.80387139
v -9.19886172 50.43501854 3.60062003
v -9.99788523 50.43999910 4.40043807
v -8.39983821 50.40015459 2.80080080
v -6.79771423 50.08140802 1.36431217
v -6.79771423 50.40015459 2.00098276
v -3.59754264 49.39908981 0.16657472
v -2.52538323 49.85230923 -0.02044678
v -2.99012154 49.39908981 0.03924131
v -2.58653313 49.39908981 -0.03238440
v -1.99949518 49.39908981 -0.09207249
v -1.19639486 49.39908981 -0.15176058
v 0.40165249 0.60091019 -0.20746946
v -0.39737120 49.39908981 -0.20746946
v -5.19966662 50.00172138 0.67591190
v 1.19659953 0.04310131 -0.07615566
v 3.59774739 -0.11129141 0.48491001
v 1.99969992 0.09290695 -0.04432201
v 2.52558798 0.14769077 -0.02044678
v 4.39677089 0.60091019 0.34165978
v 5.19987106 0.60091019 0.54857731
v 5.77467918 0.60091019 0.73559999
v 6.17419124 0.60091019 0.88680863
v 6.79791868 0.60091019 1.12556100
v 7.56432950 49.39908981 1.43991709
v 8.39596629 1.40275717 1.85375333
v 7.96791792 49.39908981 1.61898017
v 9.08899665 49.39908981 2.23973513
v 9.48850870 49.39908981 2.46256948
v 9.99809027 49.39908981 2.78886437
v 10.49544215 49.39908981 3.12709570
v 8.99115741 49.96187925 2.29544401
v 9.99809027 50.02164364 2.99578190
v 10.75634718 50.07144690 3.61255646
v 11.60429120 50.13121367 4.38054204
v 12.42777467 50.15113354 5.17638087
v 13.22272182 50.14615297 5.98017812
v 14.00951505 50.11129141 6.81580901
v 14.76777196 50.01168251 7.67531514
v 15.33442736 49.95689869 8.40350747
v 21.24964714 50.41509628 19.60096002
v 13.99728537 50.43999910 8.40350747
v 14.79630947 50.42505741 9.20332551
v -7.59673774 50.43999910 2.80080080
v -5.19966662 50.32544851 1.20116472
v -5.99869013 50.43501854 2.00098276
v -4.39656645 50.41011572 1.20116472
v -4.39656645 50.08638859 0.57245255
v -1.99949518 49.90709305 -0.04432201
v 1.19659953 0.60091019 -0.15176058
v 0.40165249 49.39908981 -0.20746946
v -1.19639486 49.95689869 -0.07615566
v -0.39737120 50.00172138 -0.10401011
v 1.99969992 0.60091019 -0.09207249
v 2.58673787 0.60091019 -0.03238440
v 2.98624963 0.60091019 0.03924131
v 3.59774739 0.60091019 0.16657472
v 4.39677089 49.39908981 0.34165978
v 5.19987106 49.39908981 0.54857731
v 5.77467918 49.39908981 0.73559999
v 6.17419124 49.39908981 0.88680863
v 6.79791868 49.39908981 1.12556100
v 5.71760595 49.89215136 0.75549603
v 7.44202971 49.96685982 1.49164677
v 8.39596629 48.59724283 1.85375333
v 8.39596629 50.08140802 2.12831736
v 9.23575640 50.15113354 2.74509311
v 9.99809027 50.34039021 3.60062003
v 10.79711437 50.39517403 4.40043807
v 11.59613729 50.42007685 5.20025611
v 13.19826126 50.41509628 6.80387139
v 13.99728537 50.37525415 7.60368943
v 14.79630947 50.27564526 8.40350747
v 15.62386990 50.09634972 9.22720075
v 15.59940934 50.33540964 10.00314355
v 12.39923835 50.43999910 6.80387139
v -5.19966662 50.43999910 2.00098276
v -3.59754264 50.43003798 1.20116472
v -2.79851884 50.43999910 1.20116472
v -0.39737120 50.32046795 0.40134668
v -1.19639486 50.28062582 0.40134668
v -1.99949518 50.22584200 0.40134668
v -3.59754264 50.11129141 0.48491001
v 1.19659953 49.39908981 -0.15176058
v 0.40165249 50.00172138 -0.10401011
v 1.19659953 49.95689869 -0.07615566
v 1.99969992 49.90709305 -0.04432201
v 2.52558798 49.85230923 -0.02044678
v 1.99969992 49.39908981 -0.09207249
v 2.58673787 49.39908981 -0.03238440
v 2.98624963 49.39908981 0.03924131
v 3.59774739 49.39908981 0.16657472
v 5.19987106 50.00172138 0.67591190
v 6.79791868 50.08140802 1.36431217
v 6.79791868 50.40015459 2.00098276
v 8.39596629 50.40015459 2.80080080
v 9.19906676 50.43501854 3.60062003
v 9.99809027 50.43999910 4.40043807
v 2.79872358 50.43999910 1.20116472
v 0.40165249 50.32046795 0.40134668
v 1.19659953 50.28062582 0.40134668
v 1.99969992 50.22584200 0.40134668
v 4.39677089 50.08638859 0.57245255
v 3.59774739 50.11129141 0.48491001
v 5.19987106 50.32544851 1.20116472
v 4.39677089 50.41011572 1.20116472
v 5.99889517 50.43501854 2.00098276
v 7.59694219 50.43999910 2.80080080
v 5.19987106 50.43999910 2.00098276
v 3.59774739 50.43003798 1.20116472
f 1 2 6
f 1 6 18
f 1 18 35
f 1 35 57
f 1 57 92
f 1 92 131
f 1 131 179
f 1 179 230
f 1 230 180
f 1 180 133
f 1 133 132
f 1 132 93
f 1 93 58
f 1 58 36
f 1 36 19
f 1 19 7
f 1 7 3
f 1 3 4
f 1 4 14
f 1 14 30
f 1 30 50
f 1 50 79
f 1 79 115
f 1 115 156
f 1 156 157
f 1 157 116
f 1 116 80
f 1 80 51
f 1 51 31
f 1 31 15
f 1 15 5
f 1 5 2
f 2 5 16
f 2 16 6
f 3 7 8
f 3 8 9
f 3 9 10
f 3 10 11
f 3 11 4
f 4 11 10
f 4 10 12
f 4 12 13
f 4 13 14
f 5 15 32
f 5 32 55
f 5 55 90
f 5 90 128
f 5 128 177
f 5 177 176
f 5 176 228
f 5 228 278
f 5 278 320
f 5 320 279
f 5 279 229
f 5 229 178
f 5 178 130
f 5 130 129
f 5 129 91
f 5 91 56
f 5 56 34
f 5 34 33
f 5 33 17
f 5 17 16
f 6 16 17
f 6 17 18
f 7 19 20
f 7 20 21
f 7 21 8
f 8 21 22
f 8 22 23
f 8 23 9
f 9 23 24
f 9 24 25
f 9 25 10
f 10 25 12
f 12 25 26
f 12 26 27
f 12 27 13
f 13 27 28
f 13 28 29
f 13 29 30
f 13 30 14
f 15 31 32
f 17 33 18
f 18 33 34
f 18 34 35
f 19 36 37
f 19 37 20
f 20 37 38
f 20 38 21
f 21 38 39
f 21 39 40
f 21 40 22
f 22 40 41
f 22 41 42
f 22 42 24
f 22 24 23
f 24 42 43
f 24 43 25
f 25 43 26
f 26 43 44
f 26 44 45
f 26 45 27
f 27 46 28
f 27 45 47
f 27 47 46
f 28 46 48
f 28 48 49
f 28 49 29
f 29 49 50
f 29 50 30
f 31 51 52
f 31 52 53
f 31 53 54
f 31 54 32
f 32 54 55
f 34 56 35
f 35 56 91
f 35 91 57
f 36 58 59
f 36 59 37
f 37 59 60
f 37 60 38
f 38 60 62
f 38 62 39
f 39 61 40
f 39 62 96
f 39 96 61
f 40 61 63
f 40 63 64
f 40 64 65
f 40 65 66
f 40 66 41
f 41 44 43
f 41 43 42
f 41 66 67
f 41 67 44
f 44 67 68
f 44 68 45
f 45 68 69
f 45 69 47
f 46 47 70
f 46 70 71
f 46 71 48
f 47 69 72
f 47 72 73
f 47 73 70
f 48 71 74
f 48 74 75
f 48 75 49
f 49 75 76
f 49 76 77
f 49 77 50
f 50 77 78
f 50 78 79
f 51 80 52
f 52 81 82
f 52 82 83
f 52 83 53
f 52 80 81
f 53 83 84
f 53 84 85
f 53 85 54
f 54 85 55
f 55 85 86
f 55 86 87
f 55 87 88
f 55 88 89
f 55 89 90
f 57 91 129
f 57 129 92
f 58 93 59
f 59 93 94
f 59 94 60
f 60 94 95
f 60 95 62
f 61 96 98
f 61 98 63
f 62 95 97
f 62 97 96
f 63 98 99
f 63 99 64
f 64 99 100
f 64 100 65
f 65 100 101
f 65 101 66
f 66 101 102
f 66 102 67
f 67 102 103
f 67 103 68
f 68 103 104
f 68 104 69
f 69 104 106
f 69 106 72
f 70 105 71
f 70 73 105
f 71 105 74
f 72 106 108
f 72 108 73
f 73 107 105
f 73 108 143
f 73 143 107
f 74 76 75
f 74 105 109
f 74 109 76
f 76 109 110
f 76 110 111
f 76 111 77
f 77 112 113
f 77 113 78
f 77 111 112
f 78 113 114
f 78 114 115
f 78 115 79
f 80 116 81
f 81 117 82
f 81 116 117
f 82 117 118
f 82 118 119
f 82 119 83
f 83 119 120
f 83 120 121
f 83 121 84
f 84 121 122
f 84 122 123
f 84 123 85
f 85 123 87
f 85 87 86
f 87 123 124
f 87 124 89
f 87 89 88
f 89 124 125
f 89 125 126
f 89 126 127
f 89 127 128
f 89 128 90
f 92 129 130
f 92 130 131
f 93 132 94
f 94 132 133
f 94 133 95
f 95 133 134
f 95 134 135
f 95 135 97
f 96 97 98
f 97 135 136
f 97 136 101
f 97 101 100
f 97 100 99
f 97 99 98
f 101 136 102
f 102 136 137
f 102 137 103
f 103 137 138
f 103 138 104
f 104 138 139
f 104 139 106
f 105 107 140
f 105 140 141
f 105 141 142
f 105 142 109
f 106 139 108
f 107 143 189
f 107 189 140
f 108 139 144
f 108 144 145
f 108 145 143
f 109 142 146
f 109 146 147
f 109 147 148
f 109 148 110
f 110 149 111
f 110 148 150
f 110 150 149
f 111 149 151
f 111 151 112
f 112 151 152
f 112 152 113
f 113 153 154
f 113 154 155
f 113 155 114
f 113 152 153
f 114 155 115
f 115 155 208
f 115 208 156
f 116 157 158
f 116 158 159
f 116 159 117
f 117 160 118
f 117 159 161
f 117 161 160
f 118 160 162
f 118 162 163
f 118 163 119
f 119 163 164
f 119 164 120
f 120 164 165
f 120 165 166
f 120 166 167
f 120 167 121
f 121 167 168
f 121 168 122
f 122 168 169
f 122 169 125
f 122 125 123
f 123 125 124
f 125 169 170
f 125 170 126
f 126 170 171
f 126 171 172
f 126 172 173
f 126 173 174
f 126 174 175
f 126 175 127
f 127 175 176
f 127 176 177
f 127 177 128
f 130 178 131
f 131 178 229
f 131 229 179
f 133 180 134
f 134 180 181
f 134 181 182
f 134 182 135
f 135 182 183
f 135 183 184
f 135 184 136
f 136 184 185
f 136 185 137
f 137 185 186
f 137 186 138
f 138 186 187
f 138 187 139
f 139 187 188
f 139 188 144
f 140 189 190
f 140 190 141
f 141 190 192
f 141 192 142
f 142 191 146
f 142 192 239
f 142 239 191
f 143 145 189
f 144 188 193
f 144 193 145
f 145 193 194
f 145 194 195
f 145 195 192
f 145 192 190
f 145 190 189
f 146 191 147
f 147 191 148
f 148 191 239
f 148 239 196
f 148 196 203
f 148 203 150
f 149 150 197
f 149 197 198
f 149 198 199
f 149 199 200
f 149 200 201
f 149 201 202
f 149 202 151
f 150 203 245
f 150 245 197
f 151 202 152
f 152 202 204
f 152 204 205
f 152 205 153
f 153 205 204
f 153 204 206
f 153 206 207
f 153 207 154
f 154 207 155
f 155 207 257
f 155 257 208
f 156 208 209
f 156 209 158
f 156 158 157
f 158 209 210
f 158 210 159
f 159 210 211
f 159 211 212
f 159 212 161
f 160 161 162
f 161 212 213
f 161 213 214
f 161 214 162
f 162 214 215
f 162 215 163
f 163 215 164
f 164 215 165
f 165 215 216
f 165 216 269
f 165 269 217
f 165 217 218
f 165 218 166
f 166 218 219
f 166 219 167
f 167 219 220
f 167 220 168
f 168 220 221
f 168 221 169
f 169 221 222
f 169 222 170
f 170 222 223
f 170 223 171
f 171 223 224
f 171 224 172
f 172 224 225
f 172 225 173
f 173 225 226
f 173 226 174
f 174 226 227
f 174 227 175
f 175 227 228
f 175 228 176
f 179 229 279
f 179 279 321
f 179 321 355
f 179 355 377
f 179 377 387
f 179 387 388
f 179 388 378
f 179 378 358
f 179 358 356
f 179 356 323
f 179 323 282
f 179 282 280
f 179 280 231
f 179 231 230
f 180 230 231
f 180 231 232
f 180 232 233
f 180 233 181
f 181 234 183
f 181 183 182
f 181 233 234
f 183 185 184
f 183 234 185
f 185 234 186
f 186 234 235
f 186 235 187
f 187 235 236
f 187 236 237
f 187 237 188
f 188 237 238
f 188 238 193
f 192 195 240
f 192 240 239
f 193 238 194
f 194 238 241
f 194 241 242
f 194 242 195
f 195 243 196
f 195 196 244
f 195 244 240
f 195 242 243
f 196 239 244
f 196 243 203
f 197 245 246
f 197 246 198
f 198 246 247
f 198 247 199
f 199 247 248
f 199 248 200
f 200 248 250
f 200 250 201
f 201 249 202
f 201 250 286
f 201 286 249
f 202 249 251
f 202 251 252
f 202 252 253
f 202 253 254
f 202 254 255
f 202 255 204
f 203 243 256
f 203 256 245
f 204 255 206
f 206 255 207
f 207 255 292
f 207 292 257
f 208 257 258
f 208 258 210
f 208 210 209
f 210 258 259
f 210 259 260
f 210 260 211
f 211 260 261
f 211 261 212
f 212 261 262
f 212 262 213
f 213 262 263
f 213 263 264
f 213 264 214
f 214 264 265
f 214 265 266
f 214 266 215
f 215 266 267
f 215 267 268
f 215 268 216
f 216 268 310
f 216 310 269
f 217 269 270
f 217 270 271
f 217 271 272
f 217 272 218
f 218 272 219
f 219 272 273
f 219 273 220
f 220 273 274
f 220 274 221
f 221 274 275
f 221 275 222
f 222 275 276
f 222 276 223
f 223 276 224
f 224 276 225
f 225 276 226
f 226 276 227
f 227 276 277
f 227 277 228
f 228 277 278
f 231 236 235
f 231 235 233
f 231 233 232
f 231 280 236
f 233 235 234
f 236 281 237
f 236 280 282
f 236 282 281
f 237 283 238
f 237 281 283
f 238 283 241
f 239 240 244
f 241 283 242
f 242 284 243
f 242 283 285
f 242 285 284
f 243 284 256
f 245 256 246
f 246 256 247
f 247 256 248
f 248 256 250
f 249 286 288
f 249 288 251
f 250 256 287
f 250 287 286
f 251 288 289
f 251 289 252
f 252 289 290
f 252 290 253
f 253 290 291
f 253 291 254
f 254 291 293
f 254 293 255
f 255 293 330
f 255 330 292
f 256 284 294
f 256 294 287
f 257 292 295
f 257 295 259
f 257 259 258
f 259 296 260
f 259 295 297
f 259 297 296
f 260 297 298
f 260 298 261
f 260 296 297
f 261 298 262
f 262 298 299
f 262 299 300
f 262 300 301
f 262 301 302
f 262 302 303
f 262 303 263
f 263 303 341
f 263 341 304
f 263 304 306
f 263 306 264
f 264 305 265
f 264 306 344
f 264 344 305
f 265 305 344
f 265 344 307
f 265 307 308
f 265 308 266
f 266 308 309
f 266 309 267
f 267 309 310
f 267 310 268
f 269 310 270
f 270 311 312
f 270 312 313
f 270 313 271
f 270 310 309
f 270 309 308
f 270 308 311
f 271 313 314
f 271 314 272
f 272 314 315
f 272 315 273
f 273 315 316
f 273 316 274
f 274 316 317
f 274 317 275
f 275 317 318
f 275 318 319
f 275 319 276
f 276 319 277
f 277 319 278
f 278 319 320
f 279 320 322
f 279 322 321
f 281 282 323
f 281 323 283
f 283 323 285
f 284 285 324
f 284 324 294
f 285 323 325
f 285 325 326
f 285 326 324
f 286 287 288
f 287 293 291
f 287 291 290
f 287 290 289
f 287 289 288
f 287 294 327
f 287 327 328
f 287 328 293
f 292 329 298
f 292 298 297
f 292 297 295
f 292 330 363
f 292 363 329
f 293 328 331
f 293 331 332
f 293 332 364
f 293 364 330
f 294 324 327
f 298 329 333
f 298 333 334
f 298 334 335
f 298 335 336
f 298 336 299
f 299 336 371
f 299 371 337
f 299 337 338
f 299 338 300
f 300 338 339
f 300 339 301
f 301 339 340
f 301 340 302
f 302 340 341
f 302 341 303
f 304 341 342
f 304 342 343
f 304 343 306
f 306 343 311
f 306 311 307
f 306 307 344
f 307 311 308
f 311 343 345
f 311 345 312
f 312 345 346
f 312 346 347
f 312 347 313
f 313 347 314
f 314 347 348
f 314 348 315
f 315 348 349
f 315 349 350
f 315 350 316
f 316 350 351
f 316 351 317
f 317 351 352
f 317 352 318
f 318 352 319
f 319 352 353
f 319 353 320
f 320 353 352
f 320 352 354
f 320 354 351
f 320 351 322
f 321 322 350
f 321 350 349
f 321 349 355
f 322 351 350
f 323 356 325
f 324 326 327
f 325 357 326
f 325 356 358
f 325 358 357
f 326 357 359
f 326 359 360
f 326 360 361
f 326 361 327
f 327 361 362
f 327 362 328
f 328 362 361
f 328 361 331
f 329 363 368
f 329 368 333
f 330 364 365
f 330 365 366
f 330 366 367
f 330 367 363
f 331 361 332
f 332 361 360
f 332 360 359
f 332 359 379
f 332 379 364
f 333 368 369
f 333 369 334
f 334 369 370
f 334 370 335
f 335 370 371
f 335 371 336
f 337 371 367
f 337 367 342
f 337 342 338
f 338 342 339
f 339 342 340
f 340 342 341
f 342 367 372
f 342 372 373
f 342 373 343
f 343 373 345
f 345 373 374
f 345 374 375
f 345 375 346
f 346 375 347
f 347 375 348
f 348 375 376
f 348 376 349
f 349 376 377
f 349 377 355
f 351 354 352
f 357 358 359
f 358 378 379
f 358 379 359
f 363 367 368
f 364 379 380
f 364 380 381
f 364 381 365
f 365 381 366
f 366 382 367
f 366 381 383
f 366 383 382
f 367 382 372
f 367 371 370
f 367 370 369
f 367 369 368
f 372 382 384
f 372 384 373
f 373 384 374
f 374 384 385
f 374 385 386
f 374 386 387
f 374 387 375
f 375 387 376
f 376 387 377
f 378 388 386
f 378 386 389
f 378 389 379
f 379 389 385
f 379 385 380
f 380 385 381
f 381 385 382
f 381 382 383
f 382 385 384
f 385 389 386
f 386 388 387

