# https://github.com/mikedh/trimesh
v 39.59838152 49.39908981 40.43741226
v 40.21929741 49.39908981 40.21330833
v 40.14573097 49.99176025 40.13860703
v 39.59838152 50.09136915 40.21330833
v 30.41903973 49.39908981 40.43741226
v 39.59838152 0.60091019 40.43741226
v 40.44000149 49.39908981 39.59373236
v 40.21929741 0.60091019 40.21330833
v 40.21929741 50.09136915 39.59373236
v 39.59838152 50.39019585 39.59373236
v 30.41903973 50.09136915 40.21330833
v 38.79894257 50.41011572 39.59373236
v 30.41903973 50.26070356 39.88814116
v 31.75994158 50.15611410 40.09027481
v 30.41903973 0.60091019 40.43741226
v 39.59838152 -0.09136915 40.21330833
v 40.14573097 0.00823975 40.13860703
v 40.44000149 49.39908981 -4.45341110
v 40.44000149 0.60091019 39.59373236
v 40.21929741 50.09136915 13.97133708
v 39.64056015 50.39019585 -4.45341110
v 39.59838152 50.41011572 38.79399300
v 38.79894257 50.43999910 38.79399300
v 35.15878916 50.42505741 39.23780441
v 30.41903973 50.41011572 39.59373236
v 30.41903973 -0.09136915 40.21330833
v 30.41903973 -0.24576187 39.91889954
v 35.15878916 -0.27066469 39.87056494
v 38.79894257 -0.41011572 39.59373236
v 39.59838152 -0.39019585 39.59373236
v 40.21929741 -0.09136915 39.59373236
v 40.21831512 50.09136915 -4.45341110
v 40.44000149 0.60091019 -4.45341110
v 40.23401260 -0.04654646 -4.45341110
v 39.59936142 50.41011572 -4.45341110
v 39.59936142 50.41011572 13.96694183
v 30.41903973 50.43999910 38.79399300
v 38.79894257 50.43999910 -4.45341110
v 30.41903973 -0.41011572 39.59373236
v 38.55763912 -0.42007685 39.34765816
v 38.79894257 -0.43999910 38.79399300
v 39.59838152 -0.41011572 38.79399300
v 40.19183159 -0.10631084 13.97133708
v 40.21929741 -0.09136915 13.97133708
v 40.21831512 -0.09136915 -4.45341110
v 30.41903973 50.43999910 19.18282032
v 32.40047455 50.43999910 -4.45341110
v 30.41903973 -0.42505741 39.21143770
v 39.54639435 -0.41509628 -4.45341110
v 30.41903973 -0.43999910 38.79399300
v 38.79894257 -0.43999910 -4.45341110
v 39.59936142 -0.41011572 13.96694183
v 39.59936142 -0.41011572 -4.45341110
v 31.65400505 50.41509628 -4.45341110
v 31.60103559 50.41011572 -4.45341110
v 30.98109961 50.09136915 -4.45341110
v 30.41903973 50.41011572 18.38308096
v 30.41903973 -0.43999910 19.60026622
v 32.40047455 -0.43999910 -4.45341110
v 30.96638680 50.04654646 -4.45341110
v 30.41903973 50.14117479 17.49985337
v 30.76137781 49.39908981 -4.45341110
v 30.41903973 -0.42505741 18.80052805
v 31.60103559 -0.41011572 -4.45341110
v 30.41903973 50.03658533 17.28893399
v 30.41903973 48.59724283 16.82315230
v 30.41903973 49.39908981 16.84512258
v 30.76137781 0.60091019 -4.45341110
v 30.41903973 -0.28062582 17.99639463
v 30.98109961 -0.09136915 -4.45341110
v 31.55885458 -0.39019585 -4.45341110
v 30.41903973 4.60018873 16.82315230
v 30.41903973 -0.03658533 17.28893399
v 30.41903973 0.60091019 16.84512258
v 30.41903973 1.38781548 16.82754636
f 1 2 3
f 1 3 4
f 1 4 11
f 1 11 5
f 1 5 15
f 1 15 6
f 1 6 8
f 1 8 2
f 2 7 3
f 2 8 19
f 2 19 7
f 3 9 10
f 3 10 4
f 3 7 9
f 4 10 12
f 4 12 13
f 4 13 14
f 4 14 11
f 5 11 13
f 5 13 25
f 5 25 37
f 5 37 46
f 5 46 57
f 5 57 61
f 5 61 65
f 5 65 67
f 5 67 66
f 5 66 72
f 5 72 75
f 5 75 74
f 5 74 73
f 5 73 69
f 5 69 63
f 5 63 58
f 5 58 50
f 5 50 48
f 5 48 39
f 5 39 27
f 5 27 26
f 5 26 15
f 6 15 26
f 6 26 16
f 6 16 17
f 6 17 8
f 7 18 20
f 7 20 9
f 7 19 33
f 7 33 18
f 8 17 19
f 9 20 21
f 9 21 22
f 9 22 10
f 10 22 23
f 10 23 12
f 11 14 13
f 12 23 24
f 12 24 25
f 12 25 13
f 16 26 27
f 16 27 28
f 16 28 29
f 16 29 30
f 16 30 17
f 17 30 31
f 17 31 19
f 18 32 20
f 18 33 34
f 18 34 45
f 18 45 53
f 18 53 49
f 18 49 51
f 18 51 59
f 18 59 64
f 18 64 71
f 18 71 70
f 18 70 68
f 18 68 62
f 18 62 60
f 18 60 56
f 18 56 55
f 18 55 54
f 18 54 47
f 18 47 38
f 18 38 35
f 18 35 21
f 18 21 32
f 19 31 34
f 19 34 33
f 20 32 21
f 21 35 36
f 21 36 22
f 22 36 23
f 23 37 24
f 23 36 35
f 23 35 38
f 23 38 47
f 23 47 46
f 23 46 37
f 24 37 25
f 27 39 28
f 28 39 29
f 29 39 40
f 29 40 41
f 29 41 30
f 30 41 42
f 30 42 31
f 31 43 44
f 31 44 34
f 31 42 43
f 34 44 45
f 39 48 40
f 40 48 41
f 41 49 42
f 41 48 50
f 41 50 58
f 41 58 59
f 41 59 51
f 41 51 49
f 42 49 52
f 42 52 43
f 43 45 44
f 43 52 53
f 43 53 45
f 46 47 54
f 46 54 55
f 46 55 56
f 46 56 57
f 49 53 52
f 56 60 57
f 57 60 62
f 57 62 61
f 58 63 64
f 58 64 59
f 61 62 65
f 62 66 67
f 62 67 65
f 62 68 72
f 62 72 66
f 63 69 68
f 63 68 70
f 63 70 71
f 63 71 64
f 68 69 73
f 68 73 74
f 68 74 75
f 68 75 72

