# https://github.com/mikedh/trimesh
v -34.12972927 50.43999910 -26.70110703
v -34.12972927 50.43999910 -38.79929543
v -38.79942894 50.43999910 -26.70110703
v -34.12972927 -0.43999910 -26.70110703
v -34.12972927 50.41509628 -39.46902752
v -38.79942894 50.43999910 -38.79929543
v -39.59995031 50.41011572 -26.70110703
v -38.79942894 -0.43999910 -26.70110703
v -34.12972927 -0.43999910 -38.79929543
v -34.12972927 50.41011572 -39.59947586
v -38.79942894 50.41011572 -39.59947586
v -39.59995031 50.39517403 -39.59947586
v -39.59995031 50.41011572 -38.79929543
v -40.21948814 50.09136915 -26.70110703
v -39.50050354 -0.41509628 -26.70110703
v -38.79942894 -0.43999910 -38.79929543
v -34.12972927 -0.41011572 -39.59947586
v -34.12972927 50.09136915 -40.21945000
v -39.59995031 50.09136915 -40.21945000
v -40.14660358 49.99176025 -40.14548302
v -40.21948814 50.09136915 -39.59947586
v -40.43938637 49.39908981 -26.70110703
v -39.59995031 -0.41011572 -26.70110703
v -39.59995031 -0.41011572 -38.79929543
v -39.59995031 -0.39517403 -39.59947586
v -38.79942894 -0.41011572 -39.59947586
v -34.12972927 -0.36031246 -39.70033884
v -34.12972927 49.39908981 -40.44000149
v -39.59995031 49.39908981 -40.44000149
v -40.43938637 49.39908981 -39.59947586
v -40.21948814 49.39908981 -40.21945000
v -40.43938637 0.60091019 -26.70110703
v -40.14289379 -0.13121367 -26.70110703
v -40.21948814 -0.09136915 -39.59947586
v -40.14660358 0.00823975 -40.14548302
v -39.59995031 -0.09136915 -40.21945000
v -34.12972927 -0.09136915 -40.21945000
v -34.12972927 0.60091019 -40.44000149
v -39.59995031 0.60091019 -40.44000149
v -40.43938637 0.60091019 -39.59947586
v -40.21948814 0.60091019 -40.21945000
v -40.24666786 -0.00670195 -26.70110703
v -40.21948814 -0.09136915 -26.70110703
f 1 2 6
f 1 6 3
f 1 3 7
f 1 7 14
f 1 14 22
f 1 22 32
f 1 32 42
f 1 42 43
f 1 43 33
f 1 33 23
f 1 23 15
f 1 15 8
f 1 8 4
f 1 4 9
f 1 9 17
f 1 17 27
f 1 27 37
f 1 37 38
f 1 38 28
f 1 28 18
f 1 18 10
f 1 10 5
f 1 5 2
f 2 5 6
f 3 6 13
f 3 13 7
f 4 8 16
f 4 16 9
f 5 10 11
f 5 11 6
f 6 11 12
f 6 12 13
f 7 13 21
f 7 21 14
f 8 15 16
f 9 16 26
f 9 26 17
f 10 18 19
f 10 19 11
f 11 19 12
f 12 19 20
f 12 20 21
f 12 21 13
f 14 21 30
f 14 30 22
f 15 23 24
f 15 24 16
f 16 24 25
f 16 25 26
f 17 26 27
f 18 28 29
f 18 29 19
f 19 29 20
f 20 30 21
f 20 29 31
f 20 31 30
f 22 30 40
f 22 40 32
f 23 33 24
f 24 33 34
f 24 34 25
f 25 34 35
f 25 35 36
f 25 36 26
f 26 36 27
f 27 36 37
f 28 38 39
f 28 39 29
f 29 39 41
f 29 41 31
f 30 31 41
f 30 41 40
f 32 40 42
f 33 43 34
f 34 43 42
f 34 42 40
f 34 40 35
f 35 40 41
f 35 41 39
f 35 39 36
f 36 39 38
f 36 38 37

