# https://github.com/mikedh/trimesh
v -38.48348618 49.39908981 40.44000149
v -38.48348618 49.67301369 40.35211563
v -39.59982634 49.39908981 40.44000149
v -38.48348618 0.60091019 40.44000149
v -38.48348618 50.09136915 40.21588326
v -39.59982634 50.09136915 40.21588326
v -40.14659882 49.99176025 40.14557838
v -40.21995068 49.39908981 40.21588326
v -39.59982634 0.60091019 40.44000149
v -38.48348618 -0.09136915 40.21588326
v -38.48348618 50.21588087 39.97419357
v -38.80006075 50.41011572 39.59627151
v -39.59982634 50.39517403 39.59627151
v -40.44000149 49.39908981 39.59627151
v -40.21995068 50.09136915 39.59627151
v -40.21995068 0.60091019 40.21588326
v -40.14659882 0.00823975 40.14557838
v -39.59982634 -0.09136915 40.21588326
v -38.48348618 -0.28560638 39.84236002
v -38.48348618 50.41011572 39.59627151
v -38.80006075 50.43999910 38.79648685
v -39.59982634 50.41011572 38.79648685
v -40.23450375 50.04654646 -4.45341110
v -40.44000149 49.39908981 -4.45341110
v -40.44000149 0.60091019 39.59627151
v -40.21995068 50.09136915 -4.45341110
v -40.21995068 -0.09136915 39.59627151
v -39.59982634 -0.39517403 39.59627151
v -38.80006075 -0.41011572 39.59627151
v -38.48348618 -0.41011572 39.59627151
v -38.48348618 50.43999910 38.79648685
v -38.80006075 50.43999910 -4.45341110
v -39.54658508 50.41509628 -4.45341110
v -39.59982634 50.41011572 -4.45341110
v -40.44000149 0.60091019 -4.45341110
v -40.21995068 -0.09136915 -4.45341110
v -39.64138508 -0.39019585 -4.45341110
v -39.59982634 -0.41011572 38.79648685
v -38.80006075 -0.43999910 38.79648685
v -38.48348618 -0.43999910 38.79648685
v -38.48348618 50.43999910 -4.45341110
v -39.59982634 -0.41011572 -4.45341110
v -38.80006075 -0.43999910 -4.45341110
v -38.48348618 -0.43999910 -4.45341110
f 1 2 3
f 1 3 9
f 1 9 4
f 1 4 10
f 1 10 19
f 1 19 30
f 1 30 40
f 1 40 44
f 1 44 41
f 1 41 31
f 1 31 20
f 1 20 11
f 1 11 5
f 1 5 2
f 2 5 6
f 2 6 3
f 3 6 7
f 3 7 8
f 3 8 16
f 3 16 9
f 4 9 18
f 4 18 10
f 5 11 6
f 6 11 12
f 6 12 13
f 6 13 7
f 7 14 8
f 7 13 15
f 7 15 14
f 8 14 25
f 8 25 16
f 9 16 17
f 9 17 18
f 10 18 19
f 11 20 12
f 12 20 31
f 12 31 21
f 12 21 13
f 13 21 22
f 13 22 15
f 14 15 23
f 14 23 24
f 14 24 35
f 14 35 25
f 15 26 23
f 15 22 34
f 15 34 26
f 16 25 17
f 17 27 28
f 17 28 18
f 17 25 27
f 18 28 29
f 18 29 19
f 19 29 30
f 21 31 41
f 21 41 32
f 21 32 33
f 21 33 22
f 22 33 34
f 23 26 34
f 23 34 33
f 23 33 32
f 23 32 41
f 23 41 44
f 23 44 43
f 23 43 42
f 23 42 37
f 23 37 36
f 23 36 35
f 23 35 24
f 25 35 36
f 25 36 27
f 27 36 37
f 27 37 38
f 27 38 28
f 28 38 39
f 28 39 29
f 29 39 40
f 29 40 30
f 37 42 38
f 38 42 43
f 38 43 39
f 39 43 44
f 39 44 40

