# https://github.com/mikedh/trimesh
v -35.00833511 33.48000050 14.82369423
v -35.00833511 50.43999910 14.82369423
v -30.75898647 33.48000050 14.82369423
v -35.00833511 33.48000050 40.44000149
v -32.40003824 50.43999910 14.82369423
v -35.00833511 50.43999910 38.79510164
v -30.75856924 37.40125299 14.82369423
v -30.73808670 38.20144057 15.19730806
v -30.73808670 37.40125299 15.19981503
v -30.73808670 33.48000050 15.25247216
v -30.73975801 33.48000050 40.44000149
v -35.00833511 49.39743042 40.44000149
v -30.80036879 50.43999910 18.80054116
v -31.60041332 50.41343689 14.82369423
v -35.00833511 50.41177750 39.60000038
v -32.84562349 50.42505741 39.24143076
v -30.73808670 50.43999910 38.79510164
v -30.75856924 46.17509842 14.82369423
v -30.73808670 45.00137806 15.19730806
v -30.73808670 33.48000050 40.26949406
v -30.73808670 34.20050144 40.44000149
v -35.00833511 50.09303093 40.21934509
v -30.73808670 49.39743042 40.44000149
v -30.73808670 50.43999910 19.60042357
v -30.73808670 50.43501854 18.80054116
v -30.99849939 50.10299206 14.82369423
v -30.80036879 50.41011810 18.00065756
v -30.73808670 50.38687468 18.00065756
v -30.73808670 50.41177750 39.60000038
v -30.75898647 49.39743042 14.82369423
v -30.73808670 45.79990625 15.19981503
v -30.73808670 50.09303093 40.21934509
v -30.97927094 50.09303093 14.82369423
v -30.73808670 50.15777588 17.09796906
v -30.73808670 49.39743042 15.25247216
f 1 2 5
f 1 5 14
f 1 14 26
f 1 26 33
f 1 33 30
f 1 30 18
f 1 18 7
f 1 7 3
f 1 3 10
f 1 10 20
f 1 20 11
f 1 11 4
f 1 4 12
f 1 12 22
f 1 22 15
f 1 15 6
f 1 6 2
f 2 6 17
f 2 17 24
f 2 24 13
f 2 13 5
f 3 7 8
f 3 8 9
f 3 9 10
f 4 11 21
f 4 21 23
f 4 23 12
f 5 13 14
f 6 15 16
f 6 16 17
f 7 18 19
f 7 19 8
f 8 19 31
f 8 31 35
f 8 35 34
f 8 34 28
f 8 28 25
f 8 25 24
f 8 24 17
f 8 17 29
f 8 29 32
f 8 32 23
f 8 23 21
f 8 21 20
f 8 20 10
f 8 10 9
f 11 20 21
f 12 23 32
f 12 32 22
f 13 24 25
f 13 25 14
f 14 25 27
f 14 27 28
f 14 28 26
f 15 22 32
f 15 32 29
f 15 29 16
f 16 29 17
f 18 30 19
f 19 30 31
f 25 28 27
f 26 28 33
f 28 34 33
f 30 33 34
f 30 34 35
f 30 35 31

