# https://github.com/mikedh/trimesh
v -32.39975929 50.43999910 -4.45693254
v -34.12972689 50.43999910 -4.45693254
v -31.60003424 50.41011572 -4.45693254
v -30.66640139 50.43999910 -18.93470287
v -34.12972689 50.43999910 -38.79848480
v -34.12972689 -0.43999910 -4.45693254
v -31.55867577 50.39019585 -4.45693254
v -30.98032475 50.09136915 -4.45693254
v -30.66640139 50.43501854 -18.80084515
v -30.66640139 50.43999910 -38.79848480
v -34.12972689 50.41509628 -39.46777344
v -34.12972689 -0.43999910 -38.79848480
v -32.39975929 -0.43999910 -4.45693254
v -30.76030731 49.39908981 -4.45693254
v -30.66640139 50.41011572 -18.13507795
v -30.66640139 50.43501854 -38.93234253
v -30.66640139 50.41011572 -39.59810734
v -34.12972689 50.41011572 -39.59810734
v -30.66640139 -0.43999910 -38.79848480
v -34.12972689 -0.41011572 -39.59810734
v -31.65359735 -0.41509628 -4.45693254
v -30.66640139 -0.43999910 -19.60046768
v -30.66640139 48.59724283 -15.84540725
v -30.66640139 49.39908981 -15.85245132
v -30.66640139 50.15611410 -17.21216440
v -30.76030731 0.60091019 -4.45693254
v -30.66640139 50.09136915 -40.21808147
v -34.12972689 50.09136915 -40.21808147
v -30.66640139 -0.41011572 -39.59810734
v -34.12972689 -0.36031246 -39.70026255
v -30.66640139 -0.43501854 -18.80084515
v -31.60003424 -0.41011572 -4.45693254
v -30.66640139 4.60018873 -15.84540725
v -30.96540928 -0.04654646 -4.45693254
v -30.66640139 -0.36529303 -18.00122023
v -30.66640139 -0.13121367 -17.16989398
v -30.66640139 0.41663408 -16.19061947
v -30.66640139 0.60091019 -15.87711096
v -30.66640139 49.39908981 -40.44000149
v -34.12972689 49.39908981 -40.44000149
v -30.66640139 -0.14615297 -40.11592388
v -34.12972689 -0.09136915 -40.21808147
v -30.98032475 -0.09136915 -4.45693254
v -30.66640139 0.60091019 -40.44000149
v -34.12972689 0.60091019 -40.44000149
v -30.66640139 -0.09136915 -40.21808147
f 1 2 6
f 1 6 13
f 1 13 21
f 1 21 32
f 1 32 43
f 1 43 34
f 1 34 26
f 1 26 14
f 1 14 8
f 1 8 7
f 1 7 3
f 1 3 4
f 1 4 10
f 1 10 5
f 1 5 2
f 2 5 11
f 2 11 18
f 2 18 28
f 2 28 40
f 2 40 45
f 2 45 42
f 2 42 30
f 2 30 20
f 2 20 12
f 2 12 6
f 3 7 4
f 4 7 8
f 4 8 9
f 4 9 15
f 4 15 25
f 4 25 24
f 4 24 23
f 4 23 33
f 4 33 38
f 4 38 37
f 4 37 36
f 4 36 35
f 4 35 31
f 4 31 22
f 4 22 19
f 4 19 29
f 4 29 41
f 4 41 46
f 4 46 44
f 4 44 39
f 4 39 27
f 4 27 17
f 4 17 16
f 4 16 10
f 5 10 16
f 5 16 11
f 6 12 19
f 6 19 22
f 6 22 13
f 8 14 15
f 8 15 9
f 11 16 17
f 11 17 18
f 12 20 29
f 12 29 19
f 13 22 21
f 14 23 24
f 14 24 25
f 14 25 15
f 14 26 33
f 14 33 23
f 17 27 28
f 17 28 18
f 20 30 29
f 21 22 31
f 21 31 32
f 26 34 35
f 26 35 36
f 26 36 37
f 26 37 38
f 26 38 33
f 27 39 40
f 27 40 28
f 29 30 41
f 30 42 41
f 31 35 43
f 31 43 32
f 34 43 35
f 39 44 45
f 39 45 40
f 41 42 46
f 42 45 44
f 42 44 46

