# https://github.com/mikedh/trimesh
v 37.78521299 28.62574756 -4.45555687
v 37.78661251 50.43501854 -4.46260095
v 33.62410545 50.43999910 -4.45907950
v 33.62550497 28.62574756 -4.45555687
v 37.78521299 -0.43501854 -4.45555687
v 37.78661251 50.43501854 -38.79505873
v 37.78661251 28.62574756 -4.46260095
v 33.62410545 50.43999910 -38.79505873
v 32.40004539 50.43999910 -4.45907950
v 31.65371656 50.41509628 -4.45907950
v 31.60055637 50.41011572 -4.45907950
v 30.98083258 50.09136915 -4.45907950
v 30.96614361 50.04654646 -4.45907950
v 30.76050282 49.39908981 -4.45907950
v 33.62550497 -0.43501854 -4.45555687
v 33.62410545 -0.43999910 -4.45907950
v 37.78661251 -0.43501854 -26.36464596
v 37.78661251 50.41509628 -39.37977076
v 33.62410545 50.42505741 -39.21774387
v 30.64159393 50.43999910 -38.79505873
v 30.64159393 50.43999910 -19.60171103
v 30.64159393 50.43003798 -18.80213499
v 30.64159393 50.35533190 -18.00255895
v 30.64159393 49.39908981 -16.00538015
v 30.64159393 45.39981127 -15.97015619
v 30.76050282 0.60091019 -4.45907950
v 30.64159393 50.12125254 -17.18184948
v 30.98083258 -0.09136915 -4.45907950
v 31.55928850 -0.39019585 -4.45907950
v 31.60055637 -0.41011572 -4.45907950
v 32.40004539 -0.43999910 -4.45907950
v 33.62410545 -0.43999910 -38.79505873
v 37.78661251 -0.43501854 -38.79505873
v 37.78661251 50.40513515 -39.59463596
v 33.62410545 50.41011572 -39.59463596
v 30.64159393 50.41011572 -39.59463596
v 30.64159393 1.40275717 -15.97015619
v 30.64159393 0.60091019 -15.98072290
v 30.64159393 -0.12125254 -17.18184948
v 30.64159393 -0.15611410 -17.24172831
v 30.64159393 -0.41011572 -18.16106558
v 30.64159393 -0.43999910 -18.96064162
v 30.64159393 -0.43999910 -38.79505873
v 33.62410545 -0.41011572 -39.59463596
v 37.78661251 -0.40513515 -39.59815741
v 37.78661251 50.08638859 -40.21457195
v 33.62410545 50.09136915 -40.21457195
v 30.64159393 50.15611410 -40.09128571
v 30.64159393 -0.41011572 -39.59463596
v 33.62410545 -0.26070356 -39.88698959
v 37.78661251 -0.09136915 -40.21809578
v 37.78661251 49.38912868 -40.43295860
v 33.62410545 49.39908981 -40.44000149
v 30.64159393 50.09136915 -40.21457195
v 30.64159393 -0.09136915 -40.21457195
v 33.62410545 -0.09136915 -40.21809578
v 33.62410545 0.60091019 -40.44000149
v 37.78661251 0.60589075 -40.44000149
v 37.78661251 28.62574756 -40.44000149
v 30.64159393 49.39908981 -40.44000149
v 30.64159393 0.60091019 -40.44000149
f 1 2 3
f 1 3 9
f 1 9 4
f 1 4 15
f 1 15 5
f 1 5 7
f 1 7 2
f 2 6 8
f 2 8 3
f 2 7 17
f 2 17 33
f 2 33 45
f 2 45 51
f 2 51 58
f 2 58 59
f 2 59 52
f 2 52 46
f 2 46 34
f 2 34 18
f 2 18 6
f 3 8 20
f 3 20 21
f 3 21 9
f 4 9 10
f 4 10 11
f 4 11 12
f 4 12 13
f 4 13 14
f 4 14 26
f 4 26 15
f 5 15 31
f 5 31 16
f 5 16 17
f 5 17 7
f 6 18 8
f 8 18 19
f 8 19 20
f 9 21 10
f 10 21 11
f 11 21 22
f 11 22 12
f 12 23 13
f 12 22 23
f 13 23 14
f 14 24 25
f 14 25 37
f 14 37 26
f 14 23 27
f 14 27 24
f 15 26 28
f 15 28 29
f 15 29 30
f 15 30 31
f 16 31 42
f 16 42 43
f 16 43 32
f 16 32 33
f 16 33 17
f 18 34 35
f 18 35 19
f 19 35 36
f 19 36 20
f 20 36 48
f 20 48 54
f 20 54 60
f 20 60 61
f 20 61 55
f 20 55 49
f 20 49 43
f 20 43 42
f 20 42 41
f 20 41 40
f 20 40 39
f 20 39 38
f 20 38 37
f 20 37 25
f 20 25 24
f 20 24 27
f 20 27 23
f 20 23 22
f 20 22 21
f 26 37 38
f 26 38 39
f 26 39 40
f 26 40 41
f 26 41 28
f 28 41 42
f 28 42 29
f 29 42 30
f 30 42 31
f 32 43 49
f 32 49 44
f 32 44 45
f 32 45 33
f 34 46 47
f 34 47 35
f 35 47 48
f 35 48 36
f 44 49 50
f 44 50 51
f 44 51 45
f 46 52 53
f 46 53 47
f 47 53 60
f 47 60 54
f 47 54 48
f 49 55 56
f 49 56 50
f 50 56 51
f 51 56 61
f 51 61 57
f 51 57 58
f 52 59 53
f 53 59 58
f 53 58 57
f 53 57 61
f 53 61 60
f 55 61 56

