# https://github.com/mikedh/trimesh
v -25.19560337 -0.43999910 -38.79958868
v -25.19560337 -0.43999910 -26.33355618
v -25.19560337 -0.41011572 -39.59908247
v 24.14789677 -0.43999910 -38.79958868
v 24.14789677 -0.43999910 -26.33355618
v -25.19560337 50.43999910 -26.33355618
v -25.19560337 -0.09136915 -40.21906853
v 24.14789677 -0.41011572 -39.59908247
v 24.14789677 50.43999910 -26.33355618
v -25.19560337 50.43999910 -38.79958868
v -25.19560337 0.60091019 -40.44000149
v 24.14789677 -0.09136915 -40.21906853
v 24.14789677 50.43999910 -38.79958868
v 24.14789677 50.42007685 -39.35191631
v -25.19560337 50.41011572 -39.59908247
v 24.14789677 0.60091019 -40.44000149
v -25.19560337 49.39908981 -40.44000149
v 24.14789677 50.41011572 -39.59908247
v 24.14789677 50.19097805 -40.02713680
v -25.19560337 50.09136915 -40.21906853
v 24.14789677 49.39908981 -40.44000149
v 24.14789677 50.09136915 -40.21906853
f 1 2 6
f 1 6 10
f 1 10 15
f 1 15 20
f 1 20 17
f 1 17 11
f 1 11 7
f 1 7 3
f 1 3 8
f 1 8 4
f 1 4 5
f 1 5 2
f 2 5 9
f 2 9 6
f 3 7 12
f 3 12 8
f 4 8 12
f 4 12 16
f 4 16 21
f 4 21 22
f 4 22 19
f 4 19 18
f 4 18 14
f 4 14 13
f 4 13 9
f 4 9 5
f 6 9 13
f 6 13 10
f 7 11 16
f 7 16 12
f 10 14 15
f 10 13 14
f 11 17 21
f 11 21 16
f 14 18 15
f 15 18 19
f 15 19 20
f 17 20 22
f 17 22 21
f 19 22 20

