# https://github.com/mikedh/trimesh
v 30.64089298 31.79827690 -15.96656799
v 30.64089298 45.39981127 -15.96896410
v 27.62039661 48.59724283 -18.71192455
v 30.64089298 2.20460653 -15.96656799
v 30.64089298 49.39908981 -16.00489736
v 27.62039661 49.39908981 -18.71431947
v 27.62039661 5.40203691 -18.71192455
v 27.62039661 0.60091019 -18.71431947
v 30.64089298 1.40275717 -15.96896410
v 30.64089298 50.12125254 -17.18113661
v 27.62039661 50.09634972 -18.95867109
v 30.64089298 0.60091019 -15.97854614
v 27.62039661 -0.08140802 -18.94908786
v 30.64089298 50.35533190 -17.99803495
v 27.62039661 50.41509628 -19.60069060
v 27.62039661 50.10631084 -18.97543907
v 27.62039661 -0.09634972 -18.95867109
v 30.64089298 -0.12125254 -17.18113661
v 30.64089298 50.43003798 -18.80056143
v 28.40013742 50.43003798 -19.60069060
v 27.62039661 50.43999910 -20.40081978
v 27.62039661 -0.41011572 -19.58392143
v 30.64089298 -0.15611410 -17.24102616
v 30.64089298 50.43999910 -19.60069060
v 29.19998407 50.43999910 -19.60069060
v 27.62039661 50.43999910 -38.79901648
v 27.62039661 -0.41509628 -19.60069060
v 30.64089298 -0.41011572 -18.16093564
v 30.64089298 50.43999910 -38.79901648
v 27.62039661 50.41011572 -39.59914684
v 27.62039661 -0.43999910 -20.40081978
v 28.40013742 -0.43003798 -19.60069060
v 30.64089298 -0.43999910 -18.96106601
v 30.64089298 50.41011572 -39.59914684
v 27.62039661 50.40513515 -39.61351871
v 29.19998407 -0.43999910 -19.60069060
v 27.62039661 -0.43999910 -38.79901648
v 30.64089298 -0.43999910 -38.79901648
v 30.64089298 50.15611410 -40.09503365
v 27.62039661 50.09136915 -40.21960735
v 27.62039661 -0.41011572 -39.59914684
v 30.64089298 -0.41011572 -39.59914684
v 30.64089298 50.09136915 -40.21960735
v 27.62039661 49.39908981 -40.44000149
v 27.62039661 -0.10133028 -40.20283699
v 30.64089298 -0.09136915 -40.21960735
v 30.64089298 49.39908981 -40.44000149
v 27.62039661 0.60091019 -40.44000149
v 27.62039661 -0.09136915 -40.21960735
v 30.64089298 0.60091019 -40.44000149
f 1 2 3
f 1 3 7
f 1 7 4
f 1 4 9
f 1 9 12
f 1 12 18
f 1 18 23
f 1 23 28
f 1 28 33
f 1 33 38
f 1 38 42
f 1 42 46
f 1 46 50
f 1 50 47
f 1 47 43
f 1 43 39
f 1 39 34
f 1 34 29
f 1 29 24
f 1 24 19
f 1 19 14
f 1 14 10
f 1 10 5
f 1 5 2
f 2 5 6
f 2 6 3
f 3 6 11
f 3 11 16
f 3 16 15
f 3 15 21
f 3 21 26
f 3 26 30
f 3 30 35
f 3 35 40
f 3 40 44
f 3 44 48
f 3 48 49
f 3 49 45
f 3 45 41
f 3 41 37
f 3 37 31
f 3 31 27
f 3 27 22
f 3 22 17
f 3 17 13
f 3 13 8
f 3 8 7
f 4 7 8
f 4 8 9
f 5 10 11
f 5 11 6
f 8 12 9
f 8 13 12
f 10 14 15
f 10 15 16
f 10 16 11
f 12 13 17
f 12 17 18
f 14 19 15
f 15 19 20
f 15 20 21
f 17 22 23
f 17 23 18
f 19 24 25
f 19 25 20
f 20 25 21
f 21 25 24
f 21 24 29
f 21 29 26
f 22 27 23
f 23 27 28
f 26 29 34
f 26 34 30
f 27 31 32
f 27 32 28
f 28 32 33
f 30 34 35
f 31 36 32
f 31 37 38
f 31 38 33
f 31 33 36
f 32 36 33
f 34 39 35
f 35 39 40
f 37 41 42
f 37 42 38
f 39 43 40
f 40 43 47
f 40 47 44
f 41 45 42
f 42 45 46
f 44 47 50
f 44 50 48
f 45 49 46
f 46 49 48
f 46 48 50

