# https://github.com/mikedh/trimesh
v 27.51828194 49.39908981 40.44000149
v 27.51828194 50.02164364 40.24228096
v 24.93280888 49.39908981 40.44000149
v 27.51828194 0.60091019 40.44000149
v 27.51828194 50.09136915 40.21889687
v 24.93280888 50.09136915 40.21889687
v 24.93280888 0.60091019 40.44000149
v 27.51828194 -0.09136915 40.21889687
v 27.51828194 50.38023472 39.66187477
v 24.93280888 50.30552864 39.80644464
v 24.93280888 -0.09136915 40.21889687
v 27.51828194 -0.41011572 39.59809303
v 27.51828194 50.41011572 39.59809303
v 24.93280888 50.41011572 39.59809303
v 24.93280888 -0.41011572 39.59809303
v 27.51828194 -0.41509628 39.51730490
v 24.93280888 50.43003798 39.06658649
v 27.51828194 50.43999910 38.79870653
v 24.93280888 -0.42007685 39.33233976
v 24.93280888 -0.43999910 38.79870653
v 27.51828194 -0.43999910 38.79870653
v 24.93280888 50.43999910 38.79870653
v 27.51828194 50.43999910 20.40005684
v 24.93280888 -0.43999910 20.40005684
v 27.51828194 -0.43999910 20.40005684
v 24.93280888 50.43999910 20.40005684
v 27.51828194 50.42007685 19.68358517
v 24.93280888 -0.41011572 19.60066915
v 27.51828194 -0.41509628 19.60066915
v 24.93280888 50.41011572 19.60066915
v 27.51828194 50.41509628 19.60066915
v 24.93280888 -0.30552864 19.39444423
v 27.51828194 -0.09634972 18.96073461
v 27.51828194 -0.38521528 19.53688860
v 27.51828194 50.13121367 19.02451515
v 24.93280888 50.09136915 18.98199558
v 24.93280888 -0.09136915 18.98199558
v 27.51828194 0.60091019 18.72262001
v 27.51828194 50.09634972 18.96073461
v 27.51828194 49.46881771 18.74387980
v 24.93280888 49.39908981 18.76088858
v 24.93280888 0.60091019 18.76088858
v 27.51828194 49.39908981 18.72262001
f 1 2 3
f 1 3 7
f 1 7 4
f 1 4 8
f 1 8 12
f 1 12 16
f 1 16 21
f 1 21 25
f 1 25 29
f 1 29 34
f 1 34 33
f 1 33 38
f 1 38 43
f 1 43 40
f 1 40 39
f 1 39 35
f 1 35 31
f 1 31 27
f 1 27 23
f 1 23 18
f 1 18 13
f 1 13 9
f 1 9 5
f 1 5 2
f 2 5 6
f 2 6 3
f 3 6 10
f 3 10 14
f 3 14 17
f 3 17 22
f 3 22 26
f 3 26 30
f 3 30 36
f 3 36 41
f 3 41 42
f 3 42 37
f 3 37 32
f 3 32 28
f 3 28 24
f 3 24 20
f 3 20 19
f 3 19 15
f 3 15 11
f 3 11 7
f 4 7 11
f 4 11 8
f 5 9 10
f 5 10 6
f 8 11 15
f 8 15 12
f 9 13 14
f 9 14 10
f 12 15 16
f 13 17 14
f 13 18 17
f 15 19 16
f 16 19 20
f 16 20 21
f 17 18 22
f 18 23 26
f 18 26 22
f 20 24 25
f 20 25 21
f 23 27 26
f 24 28 29
f 24 29 25
f 26 27 30
f 27 31 30
f 28 32 33
f 28 33 34
f 28 34 29
f 30 35 36
f 30 31 35
f 32 37 33
f 33 37 38
f 35 39 36
f 36 39 40
f 36 40 41
f 37 42 38
f 38 42 41
f 38 41 43
f 40 43 41

