# https://github.com/mikedh/trimesh
v -22.57639885 -0.43999910 -26.33355618
v 21.99713707 -0.43999910 -26.33355618
v -22.57639885 -0.43999910 -20.40059090
v -22.57639885 50.43999910 -26.33355618
v 21.99713707 -0.43999910 -20.40355682
v 21.99713707 50.02662420 -26.33355618
v 21.19868755 -0.43999910 -20.40059090
v -22.57639885 -0.41011572 -19.60068226
v -22.57639885 50.43999910 -20.40059090
v 21.53028488 50.43999910 -26.33355618
v 21.99713707 -0.41011572 -19.60290670
v 21.99713707 50.43999910 -26.33207321
v 21.19868755 -0.41011572 -19.60068226
v -22.57639885 -0.09136915 -18.98017883
v -22.57639885 50.42007685 -19.82382655
v 21.99713707 50.43999910 -20.40059090
v 21.99713707 -0.09136915 -18.98240328
v 21.19868755 -0.09136915 -18.98017883
v -22.57639885 0.60091019 -18.76074076
v -22.57639885 50.41011572 -19.60068226
v 21.99713707 50.41011572 -19.60068226
v 21.99713707 0.60091019 -18.76148224
v 21.19868755 0.60091019 -18.76074076
v -22.57639885 49.39908981 -18.76074076
v -22.57639885 50.18101692 -19.15365219
v 21.99713707 50.09136915 -18.98017883
v 21.99713707 1.39777660 -18.76074076
v 21.19868755 49.39908981 -18.76074076
v -22.57639885 49.59332705 -18.82153153
v -22.57639885 50.09136915 -18.98017883
v 21.99713707 49.39410925 -18.76074076
f 1 2 5
f 1 5 7
f 1 7 3
f 1 3 8
f 1 8 14
f 1 14 19
f 1 19 24
f 1 24 29
f 1 29 30
f 1 30 25
f 1 25 20
f 1 20 15
f 1 15 9
f 1 9 4
f 1 4 10
f 1 10 6
f 1 6 2
f 2 6 12
f 2 12 16
f 2 16 21
f 2 21 26
f 2 26 31
f 2 31 27
f 2 27 22
f 2 22 17
f 2 17 11
f 2 11 5
f 3 7 13
f 3 13 8
f 4 9 16
f 4 16 12
f 4 12 10
f 5 11 7
f 6 10 12
f 7 11 13
f 8 13 18
f 8 18 14
f 9 15 16
f 11 17 18
f 11 18 13
f 14 18 23
f 14 23 19
f 15 20 21
f 15 21 16
f 17 22 18
f 18 22 23
f 19 23 27
f 19 27 31
f 19 31 28
f 19 28 24
f 20 25 21
f 21 25 26
f 22 27 23
f 24 28 29
f 25 30 26
f 26 30 29
f 26 29 28
f 26 28 31

