# https://github.com/mikedh/trimesh
v -28.82875919 45.39483070 -18.41508389
v -25.20078421 49.39908981 -18.76003146
v -28.82769346 48.59724283 -18.41723919
v -28.82875919 48.69685173 -18.41723919
v -28.82875919 3.79834175 -18.41508389
v -25.20078421 50.09136915 -18.98209214
v -28.82875919 49.39908981 -18.42370749
v -25.20078421 1.40275717 -18.76003146
v -28.82875919 1.30314827 -18.41723919
v -28.82769346 1.40275717 -18.41723919
v -28.82875919 49.40905094 -18.42801929
v -25.20078421 50.41011572 -19.60084200
v -28.82875919 50.13619423 -18.79452586
v -25.20078421 0.60091019 -18.76218677
v -28.82875919 0.60091019 -18.42370749
v -28.82875919 50.43501854 -19.60084200
v -28.82875919 50.27066469 -19.09420013
v -25.20078421 50.43999910 -20.40068865
v -25.20078421 -0.09136915 -18.98209214
v -28.82875919 -0.13121367 -18.80099416
v -28.82875919 50.43999910 -19.97166038
v -25.20078421 50.43999910 -38.79934311
v -25.20078421 -0.41011572 -19.60084200
v -28.82875919 -0.43003798 -19.60084200
v -28.82875919 50.43999910 -38.79934311
v -25.20078421 50.41011572 -39.59918976
v -25.20078421 -0.43999910 -20.40068865
v -28.82875919 -0.43999910 -20.40068865
v -28.82875919 50.41011572 -39.59918976
v -25.20078421 50.09136915 -40.21794319
v -25.20078421 -0.43999910 -37.99949646
v -28.82875919 -0.43999910 -38.79934311
v -28.82875919 50.09136915 -40.21794319
v -25.20078421 49.39908981 -40.44000149
v -26.00025415 -0.43999910 -38.79934311
v -25.20078421 -0.43501854 -38.79934311
v -28.82875919 -0.42505741 -39.22837257
v -28.82875919 49.39908981 -40.44000149
v -25.20078421 0.60091019 -40.44000149
v -25.20078421 -0.41011572 -39.59918976
v -28.82875919 -0.41011572 -39.59918976
v -28.82875919 0.60091019 -40.44000149
v -25.20078421 -0.09136915 -40.21794319
v -28.82875919 -0.24078131 -39.93120432
v -28.82875919 -0.09136915 -40.21794319
f 1 2 3
f 1 3 4
f 1 4 7
f 1 7 11
f 1 11 13
f 1 13 17
f 1 17 16
f 1 16 21
f 1 21 25
f 1 25 29
f 1 29 33
f 1 33 38
f 1 38 42
f 1 42 45
f 1 45 44
f 1 44 41
f 1 41 37
f 1 37 32
f 1 32 28
f 1 28 24
f 1 24 20
f 1 20 15
f 1 15 9
f 1 9 5
f 1 5 8
f 1 8 2
f 2 6 7
f 2 7 4
f 2 4 3
f 2 8 14
f 2 14 19
f 2 19 23
f 2 23 27
f 2 27 31
f 2 31 36
f 2 36 40
f 2 40 43
f 2 43 39
f 2 39 34
f 2 34 30
f 2 30 26
f 2 26 22
f 2 22 18
f 2 18 12
f 2 12 6
f 5 9 10
f 5 10 8
f 6 11 7
f 6 12 13
f 6 13 11
f 8 10 9
f 8 9 14
f 9 15 14
f 12 16 17
f 12 17 13
f 12 18 16
f 14 15 19
f 15 20 19
f 16 18 21
f 18 22 25
f 18 25 21
f 19 20 23
f 20 24 23
f 22 26 29
f 22 29 25
f 23 24 27
f 24 28 27
f 26 30 33
f 26 33 29
f 27 28 32
f 27 32 35
f 27 35 31
f 30 34 38
f 30 38 33
f 31 35 36
f 32 37 35
f 34 39 42
f 34 42 38
f 35 37 40
f 35 40 36
f 37 41 40
f 39 43 45
f 39 45 42
f 40 41 44
f 40 44 43
f 43 44 45

