# https://github.com/mikedh/trimesh
v -32.40007639 50.43999910 14.82369423
v -35.00854492 50.43999910 14.82369423
v -31.60006285 50.41011572 14.82369423
v -32.40007639 50.43999910 -4.45152581
v -35.00854492 50.43999910 -4.45152581
v -35.00854492 -0.43999910 14.82369423
v -30.99849224 50.10133028 14.82369423
v -31.55887604 50.39019585 -4.45152581
v -31.60006285 50.41011572 -4.45152581
v -35.00854492 -0.43999910 -4.45152581
v -32.40007639 -0.43999910 14.82369423
v -30.97935677 50.09136915 14.82369423
v -30.98018885 50.09136915 -4.45152581
v -32.40007639 -0.43999910 -4.45152581
v -31.65373087 -0.41509628 -4.45152581
v -31.60006285 -0.41011572 14.82369423
v -30.97228289 50.07144690 14.82369423
v -30.96729279 50.05650759 14.82369423
v -30.76011181 49.39908981 -4.45152581
v -31.60006285 -0.41011572 -4.45152581
v -30.97935677 -0.09136915 14.82369423
v -30.75886250 49.39908981 14.82369423
v -30.75844765 45.37490845 14.82369423
v -30.76011181 0.60091019 -4.45152581
v -30.98018885 -0.09136915 -4.45152581
v -30.96562862 -0.04654646 -4.45152581
v -30.75927973 0.60091019 14.82369423
v -30.75844765 1.40275717 14.82369423
f 1 2 6
f 1 6 11
f 1 11 16
f 1 16 21
f 1 21 27
f 1 27 28
f 1 28 23
f 1 23 22
f 1 22 18
f 1 18 17
f 1 17 12
f 1 12 7
f 1 7 3
f 1 3 9
f 1 9 4
f 1 4 5
f 1 5 2
f 2 5 10
f 2 10 6
f 3 7 8
f 3 8 9
f 4 9 8
f 4 8 13
f 4 13 19
f 4 19 24
f 4 24 26
f 4 26 25
f 4 25 20
f 4 20 15
f 4 15 14
f 4 14 10
f 4 10 5
f 6 10 14
f 6 14 11
f 7 12 13
f 7 13 8
f 11 14 15
f 11 15 16
f 12 17 13
f 13 17 18
f 13 18 19
f 15 20 16
f 16 20 21
f 18 22 19
f 19 22 23
f 19 23 28
f 19 28 24
f 20 25 21
f 21 25 26
f 21 26 27
f 24 28 27
f 24 27 26

