# https://github.com/mikedh/trimesh
v 24.15272713 49.39908981 -18.76074076
v 24.15272713 50.09136915 -18.98017883
v 22.00009108 49.39908981 -18.76074076
v 24.15272713 0.60091019 -18.76074076
v 24.15272713 50.41011572 -19.60068226
v 21.99734926 50.09136915 -18.98017883
v 21.99734926 49.39410925 -18.76074076
v 22.00009108 0.60091019 -18.76074076
v 24.15272713 0.38675070 -18.82820368
v 21.99734926 50.41011572 -19.60068226
v 24.15272713 50.43999910 -20.40059090
v 21.99734926 1.39777660 -18.76074076
v 21.99734926 0.60091019 -18.76148224
v 22.00009108 -0.09136915 -18.98017883
v 24.15272713 -0.09136915 -18.98017883
v 21.99734926 50.43999910 -20.40059090
v 24.15272713 50.43999910 -26.33355618
v 21.99734926 -0.09136915 -18.98240328
v 24.15272713 -0.19097805 -19.17218685
v 22.00009108 -0.41011572 -19.60068226
v 21.99734926 50.43999910 -26.33207321
v 22.00009108 50.43999910 -26.33355618
v 24.15272713 -0.43999910 -26.33355618
v 21.99734926 -0.41011572 -19.60290670
v 24.15272713 -0.41011572 -19.60068226
v 24.15272713 -0.42007685 -19.84754920
v 22.00009108 -0.43999910 -20.40059090
v 21.99734926 50.02662420 -26.33355618
v 24.15272713 -0.43999910 -20.40059090
v 21.99734926 -0.43999910 -26.33355618
v 21.99734926 -0.43999910 -20.40355682
f 1 2 6
f 1 6 3
f 1 3 7
f 1 7 12
f 1 12 8
f 1 8 4
f 1 4 9
f 1 9 15
f 1 15 19
f 1 19 25
f 1 25 26
f 1 26 29
f 1 29 23
f 1 23 17
f 1 17 11
f 1 11 5
f 1 5 2
f 2 5 10
f 2 10 6
f 3 6 7
f 4 8 9
f 5 11 16
f 5 16 10
f 6 10 16
f 6 16 21
f 6 21 28
f 6 28 30
f 6 30 31
f 6 31 24
f 6 24 18
f 6 18 13
f 6 13 12
f 6 12 7
f 8 13 14
f 8 14 9
f 8 12 13
f 9 14 15
f 11 17 22
f 11 22 21
f 11 21 16
f 13 18 14
f 14 19 15
f 14 18 24
f 14 24 20
f 14 20 19
f 17 23 30
f 17 30 28
f 17 28 22
f 19 20 25
f 20 26 25
f 20 24 27
f 20 27 26
f 21 22 28
f 23 29 27
f 23 27 31
f 23 31 30
f 24 31 27
f 26 27 29

