# https://github.com/mikedh/trimesh
v 24.93255615 49.39908981 40.44000149
v 24.93255615 50.09136915 40.21886826
v 21.24964714 49.39908981 40.44000149
v 24.93255615 0.60091019 40.44000149
v 24.93255615 50.30552864 39.80637789
v 21.24964714 50.11129141 40.18059731
v 21.24964714 50.09136915 40.21886826
v 21.24964714 0.60091019 40.44000149
v 24.93255615 -0.09136915 40.21886826
v 24.93255615 50.41011572 39.59800482
v 21.24964714 50.41011572 39.59800482
v 21.24964714 -0.09136915 40.21886826
v 21.24964714 -0.39019585 39.63840485
v 24.93255615 -0.41011572 39.59800482
v 24.93255615 50.43003798 39.06644106
v 21.24964714 50.43999910 38.79853249
v 21.24964714 -0.41011572 39.59800482
v 24.93255615 -0.42007685 39.33222294
v 24.93255615 50.43999910 38.79853249
v 21.24964714 50.43999910 20.40005207
v 21.24964714 -0.43999910 38.79853249
v 24.93255615 -0.43999910 38.79853249
v 24.93255615 50.43999910 20.40005207
v 21.24964714 50.41509628 19.60058093
v 21.24964714 -0.43999910 20.40005207
v 24.93255615 -0.43999910 20.40005207
v 24.93255615 50.41011572 19.60058093
v 21.24964714 50.09634972 18.96057844
v 21.24964714 -0.42007685 19.65161085
v 24.93255615 -0.41011572 19.60058093
v 24.93255615 50.09136915 18.98184061
v 21.24964714 49.39908981 18.72031093
v 21.24964714 -0.41509628 19.60058093
v 21.24964714 -0.11627197 18.99885058
v 24.93255615 -0.30552864 19.39433455
v 24.93255615 49.39908981 18.76070976
v 21.24964714 0.60091019 18.72031093
v 21.24964714 -0.09634972 18.96057844
v 24.93255615 -0.09136915 18.98184061
v 24.93255615 0.60091019 18.76070976
v 21.24964714 0.56106567 18.73306870
f 1 2 7
f 1 7 3
f 1 3 8
f 1 8 4
f 1 4 9
f 1 9 14
f 1 14 18
f 1 18 22
f 1 22 26
f 1 26 30
f 1 30 35
f 1 35 39
f 1 39 40
f 1 40 36
f 1 36 31
f 1 31 27
f 1 27 23
f 1 23 19
f 1 19 15
f 1 15 10
f 1 10 5
f 1 5 2
f 2 5 6
f 2 6 7
f 3 7 6
f 3 6 11
f 3 11 16
f 3 16 20
f 3 20 24
f 3 24 28
f 3 28 32
f 3 32 37
f 3 37 41
f 3 41 38
f 3 38 34
f 3 34 33
f 3 33 29
f 3 29 25
f 3 25 21
f 3 21 17
f 3 17 13
f 3 13 12
f 3 12 8
f 4 8 12
f 4 12 9
f 5 10 11
f 5 11 6
f 9 12 13
f 9 13 14
f 10 15 11
f 11 15 16
f 13 17 14
f 14 17 18
f 15 19 16
f 16 19 23
f 16 23 20
f 17 21 18
f 18 21 22
f 20 23 24
f 21 25 26
f 21 26 22
f 23 27 24
f 24 27 28
f 25 29 26
f 26 29 30
f 27 31 28
f 28 31 32
f 29 33 30
f 30 33 34
f 30 34 35
f 31 36 32
f 32 36 40
f 32 40 37
f 34 38 39
f 34 39 35
f 37 40 39
f 37 39 41
f 38 41 39

