# https://github.com/mikedh/trimesh
v -22.57639885 49.39908981 -18.76074076
v -22.57639885 49.59332705 -18.82153153
v -25.20017624 49.39908981 -18.76074076
v -22.57639885 0.60091019 -18.76074076
v -25.20017624 50.09136915 -18.98017883
v -22.57639885 50.09136915 -18.98017883
v -25.20017624 0.60091019 -18.76074076
v -22.57639885 -0.09136915 -18.98017883
v -22.57639885 50.18101692 -19.15365219
v -25.20017624 50.41011572 -19.60068226
v -25.20017624 -0.09136915 -18.98092031
v -25.19991875 -0.09136915 -18.98017883
v -22.57639885 -0.41011572 -19.60068226
v -22.57639885 50.41011572 -19.60068226
v -22.57639885 50.42007685 -19.82382655
v -25.20017624 50.43999910 -20.40059090
v -25.20017624 -0.41011572 -19.60068226
v -22.57639885 -0.43999910 -20.40059090
v -22.57639885 50.43999910 -20.40059090
v -25.20017624 50.43999910 -26.33355618
v -25.20017624 -0.43999910 -20.40059090
v -22.57639885 -0.43999910 -26.33355618
v -22.57639885 50.43999910 -26.33355618
v -25.20017624 -0.43999910 -26.33355618
f 1 2 3
f 1 3 7
f 1 7 4
f 1 4 8
f 1 8 13
f 1 13 18
f 1 18 22
f 1 22 23
f 1 23 19
f 1 19 15
f 1 15 14
f 1 14 9
f 1 9 6
f 1 6 2
f 2 5 3
f 2 6 5
f 3 5 10
f 3 10 16
f 3 16 20
f 3 20 24
f 3 24 21
f 3 21 17
f 3 17 11
f 3 11 7
f 4 7 12
f 4 12 8
f 5 6 9
f 5 9 10
f 7 11 12
f 8 12 17
f 8 17 13
f 9 14 10
f 10 14 15
f 10 15 16
f 11 17 12
f 13 17 21
f 13 21 18
f 15 19 16
f 16 19 23
f 16 23 20
f 18 21 24
f 18 24 22
f 20 23 22
f 20 22 24

