# https://github.com/mikedh/trimesh
v -28.65231037 49.39908981 40.44000149
v -28.65231037 49.87223148 40.28926849
v -30.73808670 49.39908981 40.44000149
v -28.65231037 0.60091019 40.44000149
v -28.65231037 50.09136915 40.21760941
v -30.73808670 50.09136915 40.21760941
v -30.73808670 0.60091019 40.44000149
v -28.65231037 -0.09136915 40.21760941
v -30.73808670 50.11627197 40.17066002
v -28.65231037 50.31050920 39.79507208
v -30.73808670 -0.09136915 40.21760941
v -28.65231037 -0.41011572 39.59986210
v -30.73808670 50.41011572 39.59986210
v -28.65231037 50.41011572 39.59986210
v -30.73808670 -0.41011572 39.59986210
v -28.65231037 -0.42007685 39.34535027
v -30.73808670 50.41509628 39.53808784
v -28.65231037 50.43999910 38.79926205
v -30.73808670 -0.43999910 38.79926205
v -28.65231037 -0.43999910 38.79926205
v -30.73808670 50.43999910 38.79926205
v -28.65231037 50.43999910 20.40024281
v -30.73808670 -0.43999910 18.86328340
v -28.65231037 -0.43999910 20.14820099
v -30.73808670 50.43999910 19.60211039
v -28.65231037 50.43501854 19.60211039
v -29.20009136 50.43999910 19.60211039
v -30.73808670 -0.41011572 18.06268215
v -28.65231037 -0.43501854 19.60211039
v -29.20009136 -0.43999910 19.60211039
v -30.73808670 50.43501854 18.80150795
v -28.65231037 50.12623310 18.83116007
v -30.73808670 50.15611410 17.09652305
v -30.73808670 50.38521528 18.00090671
v -30.73808670 -0.15611410 17.09652305
v -28.65231037 -0.33540964 19.30312037
v -28.65231037 49.39908981 18.47780824
v -30.73808670 49.39908981 15.25316119
v -30.73808670 0.60091019 15.20127058
v -28.65231037 -0.12623310 18.83116007
v -28.65231037 48.59724283 18.47286701
v -30.73808670 45.00137806 15.19632816
v -30.73808670 45.79824448 15.20127058
v -30.73808670 1.40275717 15.19632816
v -28.65231037 0.60091019 18.47780824
v -28.65231037 0.30208349 18.61618400
v -28.65231037 1.40275717 18.47286701
f 1 2 3
f 1 3 7
f 1 7 4
f 1 4 8
f 1 8 12
f 1 12 16
f 1 16 20
f 1 20 24
f 1 24 29
f 1 29 36
f 1 36 40
f 1 40 46
f 1 46 45
f 1 45 47
f 1 47 41
f 1 41 37
f 1 37 32
f 1 32 26
f 1 26 22
f 1 22 18
f 1 18 14
f 1 14 10
f 1 10 5
f 1 5 2
f 2 5 6
f 2 6 3
f 3 6 9
f 3 9 13
f 3 13 17
f 3 17 21
f 3 21 25
f 3 25 31
f 3 31 34
f 3 34 33
f 3 33 38
f 3 38 43
f 3 43 42
f 3 42 44
f 3 44 39
f 3 39 35
f 3 35 28
f 3 28 23
f 3 23 19
f 3 19 15
f 3 15 11
f 3 11 7
f 4 7 11
f 4 11 8
f 5 9 6
f 5 10 9
f 8 11 15
f 8 15 12
f 9 10 13
f 10 14 13
f 12 15 16
f 13 14 17
f 14 18 17
f 15 19 16
f 16 19 20
f 17 18 21
f 18 22 27
f 18 27 25
f 18 25 21
f 19 23 30
f 19 30 24
f 19 24 20
f 22 26 27
f 23 28 29
f 23 29 30
f 24 30 29
f 25 27 31
f 26 32 33
f 26 33 34
f 26 34 31
f 26 31 27
f 28 35 29
f 29 35 36
f 32 37 38
f 32 38 33
f 35 39 36
f 36 39 40
f 37 41 42
f 37 42 43
f 37 43 38
f 39 44 47
f 39 47 45
f 39 45 46
f 39 46 40
f 41 47 44
f 41 44 42

