# https://github.com/mikedh/trimesh
v -35.00854492 49.39908981 40.44000149
v -35.00854492 50.09136915 40.21588326
v -38.48348618 49.67301369 40.35211563
v -38.48348618 49.39908981 40.44000149
v -35.00854492 0.60091019 40.44000149
v -35.00854492 50.41011572 39.59627151
v -38.48348618 50.21588087 39.97419357
v -38.48348618 50.09136915 40.21588326
v -38.48348618 0.60091019 40.44000149
v -35.00854492 -0.09136915 40.21588326
v -38.48348618 50.41011572 39.59627151
v -35.00854492 50.43999910 38.79648685
v -38.48348618 -0.09136915 40.21588326
v -35.00854492 -0.17603636 40.05768776
v -38.48348618 50.43999910 38.79648685
v -35.00854492 50.43999910 -4.45341110
v -38.48348618 -0.28560638 39.84236002
v -35.00854492 -0.41011572 39.59627151
v -38.48348618 50.43999910 -4.45341110
v -35.00854492 -0.43999910 -4.45341110
v -38.48348618 -0.41011572 39.59627151
v -35.00854492 -0.42007685 39.38973427
v -38.48348618 -0.43999910 -4.45341110
v -35.00854492 -0.43999910 38.79648685
v -38.48348618 -0.43999910 38.79648685
f 1 2 3
f 1 3 4
f 1 4 9
f 1 9 5
f 1 5 10
f 1 10 14
f 1 14 18
f 1 18 22
f 1 22 24
f 1 24 20
f 1 20 16
f 1 16 12
f 1 12 6
f 1 6 2
f 2 6 7
f 2 7 8
f 2 8 3
f 3 8 7
f 3 7 11
f 3 11 15
f 3 15 19
f 3 19 23
f 3 23 25
f 3 25 21
f 3 21 17
f 3 17 13
f 3 13 9
f 3 9 4
f 5 9 13
f 5 13 10
f 6 11 7
f 6 12 15
f 6 15 11
f 10 13 14
f 12 16 19
f 12 19 15
f 13 17 14
f 14 17 18
f 16 20 23
f 16 23 19
f 17 21 18
f 18 21 22
f 20 24 25
f 20 25 23
f 21 25 22
f 22 25 24

