# https://github.com/mikedh/trimesh
v -34.13010597 50.43999910 -4.45558906
v -34.13010597 50.43999910 -26.70110703
v -38.00133705 50.43999910 -4.45558906
v -34.13010597 -0.43999910 -4.45558906
v -37.99982071 50.43999910 -26.70110703
v -34.13010597 -0.43999910 -26.70110703
v -38.00133705 50.43999910 -26.69892788
v -38.00133705 -0.43999910 -4.45558906
v -38.00133705 49.84732866 -26.70110703
v -38.00133705 -0.43999910 -26.70110703
f 1 2 5
f 1 5 7
f 1 7 3
f 1 3 8
f 1 8 4
f 1 4 6
f 1 6 2
f 2 6 10
f 2 10 9
f 2 9 5
f 3 7 9
f 3 9 10
f 3 10 8
f 4 8 10
f 4 10 6
f 5 9 7

