# https://github.com/mikedh/trimesh
v 0.04044000 0.03959971 0.04939909
v 0.04021883 0.04021815 0.04939909
v 0.04014422 0.04014551 0.04999176
v 0.04021883 0.03959971 0.05009137
v 0.04044000 0.02038286 0.04939909
v 0.04044000 0.03959971 0.00060091
v 0.03959796 0.04044000 0.04939909
v 0.04021883 0.04021815 0.00060091
v 0.03959796 0.04021815 0.05009137
v 0.03959796 0.03959971 0.05039517
v 0.04021883 0.02038286 0.05009137
v 0.03959796 0.03879868 0.05041012
v 0.04044000 0.02038286 0.00060091
v 0.04022416 0.02038286 -0.00007643
v 0.04021883 0.03959971 -0.00009137
v 0.04014422 0.04014551 0.00000824
v 0.01322040 0.04044000 0.04939909
v 0.01322040 0.04022404 0.05007643
v 0.03959796 0.04044000 0.00060091
v 0.01322040 0.03961345 0.05040514
v 0.03879856 0.03959971 0.05041012
v 0.01322040 0.04021815 0.05009137
v 0.03879856 0.03879868 0.05044000
v 0.03959796 0.02038286 0.05041012
v 0.04021883 0.02038286 -0.00009137
v 0.03961129 0.02038286 -0.00040514
v 0.03959796 0.03879868 -0.00041012
v 0.03959796 0.03959971 -0.00039517
v 0.03959796 0.04021815 -0.00009137
v 0.01322040 0.04044000 0.00060091
v 0.01322040 0.03959971 0.05041012
v 0.01322040 0.03879868 0.05044000
v 0.03879856 0.02038286 0.05044000
v 0.03959796 0.02038286 -0.00041012
v 0.03879856 0.03879868 -0.00044000
v 0.03879856 0.03959971 -0.00041012
v 0.01322040 0.04021815 -0.00009137
v 0.01322040 0.02680091 0.05044000
v 0.01800081 0.02038286 0.05044000
v 0.03879856 0.02038286 -0.00044000
v 0.01322040 0.03879868 -0.00044000
v 0.01322040 0.03959971 -0.00041012
v 0.01322040 0.02600184 0.05041510
v 0.01720141 0.02038286 0.05040514
v 0.01800081 0.02038286 -0.00044000
v 0.01322040 0.02680091 -0.00044000
v 0.01322040 0.02515173 0.05004157
v 0.01640201 0.02038286 0.05009137
v 0.01322040 0.02600184 -0.00041510
v 0.01720141 0.02038286 -0.00040514
v 0.01322040 0.02508106 0.04996188
v 0.01599698 0.02038286 0.04980251
v 0.01322040 0.02598418 -0.00041012
v 0.01640201 0.02038286 -0.00009137
v 0.01322040 0.02474926 0.04945388
v 0.01587707 0.02038286 0.04939909
v 0.01322040 0.02515173 -0.00004157
v 0.01599698 0.02038286 0.00019749
v 0.01322040 0.02472766 0.04938415
v 0.01576249 0.02038286 0.04859724
v 0.01322040 0.02482583 0.00029212
v 0.01587707 0.02038286 0.00060091
v 0.01322040 0.02460790 0.04859724
v 0.01322040 0.02460593 0.04781532
v 0.01576249 0.02038286 0.00138782
v 0.01322040 0.02473355 0.00059593
v 0.01322040 0.02472766 0.00061585
v 0.01322040 0.02460593 0.00220461
v 0.01322040 0.02460790 0.00140276
f 1 2 3
f 1 3 4
f 1 4 11
f 1 11 5
f 1 5 13
f 1 13 6
f 1 6 8
f 1 8 2
f 2 7 3
f 2 8 19
f 2 19 7
f 3 7 9
f 3 9 10
f 3 10 4
f 4 10 12
f 4 12 24
f 4 24 11
f 5 11 24
f 5 24 33
f 5 33 39
f 5 39 44
f 5 44 48
f 5 48 52
f 5 52 56
f 5 56 60
f 5 60 65
f 5 65 62
f 5 62 58
f 5 58 54
f 5 54 50
f 5 50 45
f 5 45 40
f 5 40 34
f 5 34 26
f 5 26 25
f 5 25 14
f 5 14 13
f 6 13 14
f 6 14 15
f 6 15 16
f 6 16 8
f 7 17 18
f 7 18 9
f 7 19 30
f 7 30 17
f 8 16 19
f 9 20 21
f 9 21 10
f 9 18 22
f 9 22 20
f 10 21 23
f 10 23 12
f 12 23 33
f 12 33 24
f 14 25 15
f 15 25 26
f 15 26 27
f 15 27 28
f 15 28 16
f 16 28 29
f 16 29 19
f 17 30 37
f 17 37 42
f 17 42 41
f 17 41 46
f 17 46 49
f 17 49 53
f 17 53 57
f 17 57 61
f 17 61 66
f 17 66 67
f 17 67 69
f 17 69 68
f 17 68 64
f 17 64 63
f 17 63 59
f 17 59 55
f 17 55 51
f 17 51 47
f 17 47 43
f 17 43 38
f 17 38 32
f 17 32 31
f 17 31 20
f 17 20 22
f 17 22 18
f 19 29 37
f 19 37 30
f 20 31 21
f 21 31 32
f 21 32 23
f 23 32 38
f 23 38 39
f 23 39 33
f 26 34 27
f 27 34 40
f 27 40 35
f 27 35 28
f 28 35 36
f 28 36 29
f 29 36 42
f 29 42 37
f 35 40 45
f 35 45 46
f 35 46 41
f 35 41 42
f 35 42 36
f 38 43 39
f 39 43 44
f 43 47 48
f 43 48 44
f 45 49 46
f 45 50 49
f 47 51 52
f 47 52 48
f 49 50 54
f 49 54 53
f 51 55 52
f 52 55 56
f 53 54 57
f 54 58 57
f 55 59 56
f 56 59 60
f 57 58 61
f 58 62 61
f 59 63 60
f 60 63 64
f 60 64 68
f 60 68 65
f 61 62 66
f 62 65 67
f 62 67 66
f 65 68 69
f 65 69 67

