# https://github.com/mikedh/trimesh
v 0.04044000 0.02038286 0.04939909
v 0.04021774 0.02038286 0.05009137
v 0.04044000 -0.00000642 0.04939909
v 0.04044000 0.02038286 0.00060091
v 0.03959929 0.02038286 0.05041012
v 0.03990369 -0.00000642 0.05025572
v 0.04021774 -0.00000642 0.05009137
v 0.04044000 -0.00000642 0.00060091
v 0.04022258 0.02038286 -0.00007643
v 0.03959929 -0.00000642 0.05041012
v 0.03879966 0.02038286 0.05044000
v 0.04033129 -0.00000642 0.00026224
v 0.04021774 0.02038286 -0.00009137
v 0.04021774 -0.00000642 -0.00009137
v 0.03879966 -0.00000642 0.05044000
v 0.01800185 0.02038286 0.05044000
v 0.03991335 -0.00000642 -0.00025074
v 0.03961137 0.02038286 -0.00040514
v 0.01800185 -0.00000642 0.05044000
v 0.01720222 0.02038286 0.05040514
v 0.03959929 -0.00000642 -0.00041012
v 0.03959929 0.02038286 -0.00041012
v 0.01720222 -0.00000642 0.05040514
v 0.01640016 0.02038286 0.05009137
v 0.03920552 -0.00000642 -0.00042506
v 0.03879966 0.02038286 -0.00044000
v 0.01640016 0.01639921 0.05009137
v 0.01640016 -0.00000642 0.05008639
v 0.01599672 0.02038286 0.04980251
v 0.03879966 -0.00000642 -0.00044000
v 0.01800185 0.02038286 -0.00044000
v 0.01599672 -0.00000642 0.04980251
v 0.01619482 -0.00000642 0.04994196
v 0.01587593 0.02038286 0.04939909
v 0.01800185 -0.00000642 -0.00044000
v 0.01720222 0.02038286 -0.00040514
v 0.01587593 -0.00000642 0.04939909
v 0.01576239 0.02038286 0.04859724
v 0.01581795 -0.00000642 0.04899070
v 0.01720222 -0.00000642 -0.00040514
v 0.01640016 0.02038286 -0.00009137
v 0.01576239 -0.00000642 0.04859724
v 0.01576239 0.02038286 0.00140276
v 0.01640016 -0.00000642 -0.00008639
v 0.01640016 0.01639921 -0.00009137
v 0.01599672 0.02038286 0.00019749
v 0.01576239 -0.00000642 0.00140276
v 0.01587593 0.02038286 0.00060091
v 0.01599672 -0.00000642 0.00019749
v 0.01587593 -0.00000642 0.00060091
f 1 2 7
f 1 7 3
f 1 3 8
f 1 8 4
f 1 4 9
f 1 9 13
f 1 13 18
f 1 18 22
f 1 22 26
f 1 26 31
f 1 31 36
f 1 36 41
f 1 41 46
f 1 46 48
f 1 48 43
f 1 43 38
f 1 38 34
f 1 34 29
f 1 29 24
f 1 24 20
f 1 20 16
f 1 16 11
f 1 11 5
f 1 5 2
f 2 5 6
f 2 6 7
f 3 7 6
f 3 6 10
f 3 10 15
f 3 15 19
f 3 19 23
f 3 23 28
f 3 28 33
f 3 33 32
f 3 32 37
f 3 37 39
f 3 39 42
f 3 42 47
f 3 47 50
f 3 50 49
f 3 49 44
f 3 44 40
f 3 40 35
f 3 35 30
f 3 30 25
f 3 25 21
f 3 21 17
f 3 17 14
f 3 14 12
f 3 12 8
f 4 8 12
f 4 12 9
f 5 10 6
f 5 11 15
f 5 15 10
f 9 12 14
f 9 14 13
f 11 16 19
f 11 19 15
f 13 14 17
f 13 17 18
f 16 20 23
f 16 23 19
f 17 21 18
f 18 21 22
f 20 24 27
f 20 27 23
f 21 25 22
f 22 25 26
f 23 27 28
f 24 29 32
f 24 32 27
f 25 30 26
f 26 30 35
f 26 35 31
f 27 32 33
f 27 33 28
f 29 34 37
f 29 37 32
f 31 35 40
f 31 40 36
f 34 38 39
f 34 39 37
f 36 40 45
f 36 45 41
f 38 42 39
f 38 43 47
f 38 47 42
f 40 44 45
f 41 45 49
f 41 49 46
f 43 48 50
f 43 50 47
f 44 49 45
f 46 49 50
f 46 50 48

