# https://github.com/mikedh/trimesh
v 0.01158130 -0.04044000 0.00060091
v 0.01158130 -0.04021906 -0.00009137
v 0.01521477 -0.04033375 0.00026722
v 0.01521477 -0.04044000 0.00060091
v 0.01158130 -0.04044000 0.04939909
v 0.01521477 -0.03992055 -0.00024576
v 0.01521477 -0.04021906 -0.00009137
v 0.01158130 -0.03959842 -0.00041012
v 0.01521477 -0.04044000 0.04939909
v 0.01158130 -0.04022412 0.05007643
v 0.01521477 -0.03959842 -0.00041012
v 0.01521477 -0.03921389 -0.00042506
v 0.01158130 -0.03879900 -0.00044000
v 0.01521477 -0.04021906 0.05009137
v 0.01158130 -0.04021906 0.05009137
v 0.01521477 -0.03879900 -0.00044000
v 0.01158130 -0.02680097 -0.00044000
v 0.01521477 -0.03959842 0.05041012
v 0.01158130 -0.03961360 0.05040514
v 0.01521477 -0.02680097 -0.00044000
v 0.01158130 -0.02600155 -0.00041012
v 0.01479971 -0.02600155 -0.00043502
v 0.01158130 -0.03959842 0.05041012
v 0.01521477 -0.03879900 0.05044000
v 0.01521477 -0.02600155 -0.00043502
v 0.01158130 -0.02527465 -0.00009137
v 0.01521477 -0.02384953 0.00011283
v 0.01521477 -0.02440609 -0.00012623
v 0.01521477 -0.02520045 -0.00036529
v 0.01158130 -0.03879900 0.05044000
v 0.01521477 -0.02638608 0.05044000
v 0.01158130 -0.02487494 0.00050628
v 0.01521477 -0.02344813 0.00060091
v 0.01158130 -0.02680097 0.05044000
v 0.01479971 -0.02600155 0.05043502
v 0.01521477 -0.02600155 0.05043502
v 0.01158130 -0.02487326 0.00051126
v 0.01521477 -0.02339754 0.00076028
v 0.01158130 -0.02600155 0.05041012
v 0.01521477 -0.02558666 0.05042008
v 0.01158130 -0.02478050 0.00090472
v 0.01521477 -0.02321876 0.00140276
v 0.01521477 -0.02520045 0.05036529
v 0.01521477 -0.02478556 0.05028561
v 0.01521477 -0.02401649 0.05000172
v 0.01158130 -0.02527465 0.05009137
v 0.01158130 -0.02476026 0.00140276
v 0.01521477 -0.02321033 0.00220461
v 0.01521477 -0.02384953 0.04988717
v 0.01521477 -0.02361004 0.04961823
v 0.01521477 -0.02344813 0.04939909
v 0.01158130 -0.02487494 0.04949372
v 0.01158130 -0.02476026 0.04859724
v 0.01521477 -0.02321033 0.04779539
v 0.01521477 -0.02321876 0.04859724
v 0.01158130 -0.02478218 0.04910525
v 0.01158130 -0.02478050 0.04909528
f 1 2 3
f 1 3 4
f 1 4 9
f 1 9 5
f 1 5 10
f 1 10 15
f 1 15 19
f 1 19 23
f 1 23 30
f 1 30 34
f 1 34 39
f 1 39 46
f 1 46 52
f 1 52 56
f 1 56 57
f 1 57 53
f 1 53 47
f 1 47 41
f 1 41 37
f 1 37 32
f 1 32 26
f 1 26 21
f 1 21 17
f 1 17 13
f 1 13 8
f 1 8 2
f 2 6 7
f 2 7 3
f 2 8 6
f 3 7 6
f 3 6 11
f 3 11 12
f 3 12 16
f 3 16 20
f 3 20 25
f 3 25 29
f 3 29 28
f 3 28 27
f 3 27 33
f 3 33 38
f 3 38 42
f 3 42 48
f 3 48 54
f 3 54 55
f 3 55 51
f 3 51 50
f 3 50 49
f 3 49 45
f 3 45 44
f 3 44 43
f 3 43 40
f 3 40 36
f 3 36 31
f 3 31 24
f 3 24 18
f 3 18 14
f 3 14 9
f 3 9 4
f 5 9 10
f 6 8 11
f 8 12 11
f 8 13 12
f 9 14 10
f 10 14 15
f 12 13 16
f 13 17 20
f 13 20 16
f 14 18 19
f 14 19 15
f 17 21 22
f 17 22 25
f 17 25 20
f 18 23 19
f 18 24 30
f 18 30 23
f 21 26 27
f 21 27 28
f 21 28 29
f 21 29 22
f 22 29 25
f 24 31 34
f 24 34 30
f 26 32 33
f 26 33 27
f 31 35 34
f 31 36 35
f 32 37 33
f 33 37 38
f 34 35 39
f 35 36 40
f 35 40 39
f 37 41 42
f 37 42 38
f 39 40 43
f 39 43 44
f 39 44 45
f 39 45 46
f 41 47 42
f 42 47 48
f 45 49 46
f 46 49 50
f 46 50 51
f 46 51 52
f 47 53 54
f 47 54 48
f 51 55 52
f 52 55 56
f 53 57 55
f 53 55 54
f 55 57 56

