# https://github.com/mikedh/trimesh
v 0.01158130 -0.02680106 0.05044000
v 0.01158130 -0.03879926 0.05044000
v 0.01158130 -0.02600024 0.05041012
v -0.01359730 -0.02600024 0.05042008
v -0.01359730 -0.02680106 0.05044000
v -0.01359730 -0.03879926 0.05044000
v 0.01158130 -0.03959852 0.05041012
v 0.01158130 -0.02527450 0.05009137
v -0.01359730 -0.02516971 0.05010631
v -0.01359730 -0.03959852 0.05041012
v 0.01158130 -0.03961416 0.05040514
v 0.01158130 -0.02488348 0.04950866
v -0.01359730 -0.02479276 0.04980748
v -0.01359730 -0.04021946 0.05009137
v 0.01158130 -0.04021946 0.05009137
v 0.01158130 -0.02487566 0.04949372
v -0.01359730 -0.02460819 0.04939909
v -0.01359730 -0.04032895 0.04974772
v 0.01158130 -0.04044000 0.04939909
v 0.01158130 -0.02478025 0.04909528
v -0.01359730 -0.02446586 0.04859724
v -0.01359730 -0.04044000 0.04939909
v 0.01158130 -0.04044000 0.00060091
v 0.01158130 -0.02476148 0.04860720
v -0.01359730 -0.02446273 0.04779539
v -0.01359730 -0.04044000 0.00060091
v 0.01158130 -0.04021946 -0.00009137
v 0.01158130 -0.02476148 0.00140276
v -0.01359730 -0.02446273 0.00220461
v -0.01359730 -0.04021946 -0.00009137
v -0.01359730 -0.03991133 -0.00025074
v 0.01158130 -0.03959852 -0.00041012
v 0.01158130 -0.02478025 0.00090472
v -0.01359730 -0.02446586 0.00140276
v -0.01359730 -0.02446430 0.00180119
v -0.01359730 -0.03959852 -0.00041012
v -0.01359730 -0.03920124 -0.00042506
v 0.01158130 -0.03879926 -0.00044000
v 0.01158130 -0.02487253 0.00051126
v -0.01359730 -0.02460819 0.00060091
v -0.01359730 -0.02453938 0.00096448
v -0.01359730 -0.03879926 -0.00044000
v 0.01158130 -0.02680106 -0.00044000
v 0.01158130 -0.02487566 0.00050628
v -0.01359730 -0.02479276 0.00019252
v -0.01359730 -0.02477868 0.00021742
v -0.01359730 -0.02680106 -0.00044000
v -0.01359730 -0.02640378 -0.00043502
v -0.01359730 -0.02600024 -0.00042008
v 0.01158130 -0.02600024 -0.00041012
v 0.01158130 -0.02527450 -0.00009137
v -0.01359730 -0.02494761 0.00003314
v -0.01359730 -0.02560296 -0.00030553
v -0.01359730 -0.02516971 -0.00010631
f 1 2 7
f 1 7 11
f 1 11 15
f 1 15 19
f 1 19 23
f 1 23 27
f 1 27 32
f 1 32 38
f 1 38 43
f 1 43 50
f 1 50 51
f 1 51 44
f 1 44 39
f 1 39 33
f 1 33 28
f 1 28 24
f 1 24 20
f 1 20 16
f 1 16 12
f 1 12 8
f 1 8 3
f 1 3 4
f 1 4 5
f 1 5 6
f 1 6 2
f 2 6 10
f 2 10 7
f 3 8 9
f 3 9 4
f 4 9 13
f 4 13 17
f 4 17 21
f 4 21 25
f 4 25 29
f 4 29 35
f 4 35 34
f 4 34 41
f 4 41 40
f 4 40 46
f 4 46 45
f 4 45 52
f 4 52 54
f 4 54 53
f 4 53 49
f 4 49 48
f 4 48 47
f 4 47 42
f 4 42 37
f 4 37 36
f 4 36 31
f 4 31 30
f 4 30 26
f 4 26 22
f 4 22 18
f 4 18 14
f 4 14 10
f 4 10 6
f 4 6 5
f 7 10 11
f 8 12 13
f 8 13 9
f 10 14 11
f 11 14 15
f 12 16 13
f 13 16 17
f 14 18 15
f 15 18 19
f 16 20 17
f 17 20 21
f 18 22 19
f 19 22 26
f 19 26 23
f 20 24 21
f 21 24 25
f 23 26 30
f 23 30 27
f 24 28 29
f 24 29 25
f 27 30 31
f 27 31 32
f 28 33 34
f 28 34 35
f 28 35 29
f 31 36 32
f 32 36 37
f 32 37 38
f 33 39 40
f 33 40 41
f 33 41 34
f 37 42 38
f 38 42 47
f 38 47 43
f 39 44 45
f 39 45 46
f 39 46 40
f 43 48 49
f 43 49 50
f 43 47 48
f 44 51 45
f 45 51 52
f 49 53 50
f 50 53 51
f 51 53 54
f 51 54 52

