# https://github.com/mikedh/trimesh
v -0.01359730 -0.02680131 0.05044000
v -0.01359730 -0.03879920 0.05044000
v -0.01359730 -0.02600054 0.05042008
v -0.01800102 -0.02039119 0.05044000
v -0.03879781 -0.03879920 0.05044000
v -0.01359730 -0.03959997 0.05041012
v -0.01359730 -0.02517032 0.05010631
v -0.01640086 -0.02039119 0.05009137
v -0.01720225 -0.02039119 0.05040514
v -0.03879781 -0.02039119 0.05044000
v -0.03959920 -0.03879920 0.05041012
v -0.03959920 -0.03959997 0.05039517
v -0.03879781 -0.03959997 0.05041012
v -0.01359730 -0.04021822 0.05009137
v -0.01359730 -0.02479153 0.04980748
v -0.01599622 -0.02039119 0.04980251
v -0.03959920 -0.02039119 0.05041012
v -0.04021141 -0.02039119 0.05009635
v -0.04021929 -0.03959997 0.05009137
v -0.04014572 -0.04014560 0.04999176
v -0.03959920 -0.04021822 0.05009137
v -0.01359730 -0.04032813 0.04974772
v -0.01359730 -0.02460900 0.04939909
v -0.01587536 -0.02039119 0.04938913
v -0.01587798 -0.02039119 0.04939909
v -0.04021929 -0.02039119 0.05009137
v -0.04043475 -0.02039119 0.04940905
v -0.04043737 -0.03959997 0.04939909
v -0.04021929 -0.04021822 0.04939909
v -0.03959920 -0.04043804 0.04939909
v -0.01359730 -0.04043804 0.04939909
v -0.01359730 -0.02446572 0.04859724
v -0.01576237 -0.02039119 0.04859724
v -0.04043737 -0.02039119 0.04939909
v -0.04043737 -0.03959997 0.00060091
v -0.04021929 -0.04021822 0.00060091
v -0.03959920 -0.04043804 0.00060091
v -0.01359730 -0.04043804 0.00060091
v -0.01359730 -0.02446180 0.04779539
v -0.01576237 -0.02039119 0.00139280
v -0.04043737 -0.02039119 0.00060091
v -0.04021929 -0.03959997 -0.00009137
v -0.04014572 -0.04014560 0.00000824
v -0.03959920 -0.04021822 -0.00009137
v -0.01359730 -0.04033009 0.00025726
v -0.01359730 -0.02446180 0.00220461
v -0.01359730 -0.02446376 0.00180119
v -0.01359730 -0.02446572 0.00140276
v -0.01359730 -0.02454030 0.00096448
v -0.01359730 -0.02460900 0.00060091
v -0.01587798 -0.02039119 0.00059593
v -0.04021929 -0.02039119 -0.00009137
v -0.03959920 -0.03959997 -0.00039517
v -0.03959920 -0.03879920 -0.00041012
v -0.03879781 -0.03959997 -0.00041012
v -0.01359730 -0.03991204 -0.00025074
v -0.01359730 -0.04021822 -0.00009137
v -0.01359730 -0.02477975 0.00021742
v -0.01359730 -0.02479153 0.00019252
v -0.01599622 -0.02039119 0.00019749
v -0.03959920 -0.02039119 -0.00041012
v -0.03879781 -0.03879920 -0.00044000
v -0.01359730 -0.03959997 -0.00041012
v -0.01359730 -0.03920155 -0.00042506
v -0.01359730 -0.02494658 0.00003314
v -0.01359730 -0.02517032 -0.00010631
v -0.01600148 -0.02039119 0.00019252
v -0.03879781 -0.02039119 -0.00044000
v -0.01359730 -0.03879920 -0.00044000
v -0.01359730 -0.02560408 -0.00030553
v -0.01640086 -0.02039119 -0.00009137
v -0.01800102 -0.02039119 -0.00044000
v -0.01359730 -0.02680131 -0.00044000
v -0.01359730 -0.02600054 -0.00042008
v -0.01720225 -0.02039119 -0.00040514
v -0.01359730 -0.02640289 -0.00043502
f 1 2 6
f 1 6 14
f 1 14 22
f 1 22 31
f 1 31 38
f 1 38 45
f 1 45 57
f 1 57 56
f 1 56 63
f 1 63 64
f 1 64 69
f 1 69 73
f 1 73 76
f 1 76 74
f 1 74 70
f 1 70 66
f 1 66 65
f 1 65 59
f 1 59 58
f 1 58 50
f 1 50 49
f 1 49 48
f 1 48 47
f 1 47 46
f 1 46 39
f 1 39 32
f 1 32 23
f 1 23 15
f 1 15 7
f 1 7 3
f 1 3 4
f 1 4 10
f 1 10 5
f 1 5 2
f 2 5 13
f 2 13 6
f 3 7 8
f 3 8 9
f 3 9 4
f 4 9 8
f 4 8 16
f 4 16 25
f 4 25 24
f 4 24 33
f 4 33 40
f 4 40 51
f 4 51 60
f 4 60 67
f 4 67 71
f 4 71 75
f 4 75 72
f 4 72 68
f 4 68 61
f 4 61 52
f 4 52 41
f 4 41 34
f 4 34 27
f 4 27 26
f 4 26 18
f 4 18 17
f 4 17 10
f 5 10 17
f 5 17 11
f 5 11 12
f 5 12 13
f 6 13 21
f 6 21 14
f 7 15 16
f 7 16 8
f 11 17 18
f 11 18 19
f 11 19 12
f 12 19 20
f 12 20 21
f 12 21 13
f 14 21 22
f 15 23 24
f 15 24 25
f 15 25 16
f 18 26 19
f 19 26 27
f 19 27 28
f 19 28 20
f 20 28 29
f 20 29 30
f 20 30 21
f 21 30 22
f 22 30 31
f 23 32 33
f 23 33 24
f 27 34 28
f 28 34 41
f 28 41 35
f 28 35 36
f 28 36 29
f 29 36 37
f 29 37 30
f 30 37 38
f 30 38 31
f 32 39 33
f 33 39 46
f 33 46 40
f 35 41 52
f 35 52 42
f 35 42 43
f 35 43 36
f 36 43 37
f 37 43 44
f 37 44 45
f 37 45 38
f 40 46 47
f 40 47 48
f 40 48 49
f 40 49 50
f 40 50 51
f 42 53 43
f 42 52 61
f 42 61 54
f 42 54 53
f 43 53 44
f 44 53 55
f 44 55 56
f 44 56 57
f 44 57 45
f 50 58 51
f 51 58 59
f 51 59 60
f 53 54 62
f 53 62 55
f 54 61 68
f 54 68 62
f 55 63 56
f 55 62 64
f 55 64 63
f 59 65 60
f 60 65 66
f 60 66 67
f 62 68 72
f 62 72 73
f 62 73 69
f 62 69 64
f 66 70 67
f 67 70 71
f 70 74 71
f 71 74 75
f 72 76 73
f 72 75 76
f 74 76 75

