# https://github.com/mikedh/trimesh
v 0.01521477 -0.04044000 0.00060091
v 0.01521477 -0.04021836 -0.00009137
v 0.03959801 -0.04044000 0.00060091
v 0.01521477 -0.04044000 0.04939909
v 0.01521477 -0.03991756 -0.00024576
v 0.03959801 -0.04021836 -0.00009137
v 0.04014617 -0.04014316 0.00000824
v 0.04021778 -0.04021836 0.00060091
v 0.03959801 -0.04044000 0.04939909
v 0.01521477 -0.04032522 0.04975768
v 0.01521477 -0.03959697 -0.00041012
v 0.03879799 -0.03959697 -0.00041012
v 0.03959801 -0.03959697 -0.00039517
v 0.04043754 -0.03959697 0.00060091
v 0.04021778 -0.03959697 -0.00009137
v 0.04021778 -0.04021836 0.04939909
v 0.04014617 -0.04014316 0.04999176
v 0.03959801 -0.04021836 0.05009137
v 0.01521477 -0.04021836 0.05009137
v 0.01521477 -0.03921306 -0.00042506
v 0.03879799 -0.03879749 -0.00044000
v 0.03959801 -0.03879749 -0.00041012
v 0.04033136 -0.00000642 0.00026224
v 0.04043754 -0.00000642 0.00060091
v 0.04043754 -0.03959697 0.04939909
v 0.03991406 -0.00000642 -0.00025074
v 0.04021778 -0.00000642 -0.00009137
v 0.04021778 -0.03959697 0.05009137
v 0.03959801 -0.03959697 0.05039517
v 0.03879799 -0.03959697 0.05041012
v 0.01521477 -0.03959697 0.05041012
v 0.01521477 -0.03879749 -0.00044000
v 0.03879799 -0.00000642 -0.00044000
v 0.03920541 -0.00000642 -0.00042506
v 0.03959801 -0.00000642 -0.00041012
v 0.04043754 -0.00000642 0.04939909
v 0.04021778 -0.00000642 0.05009137
v 0.03990419 -0.00000642 0.05025572
v 0.03959801 -0.03879749 0.05041012
v 0.03879799 -0.03879749 0.05044000
v 0.01521477 -0.03879749 0.05044000
v 0.01521477 -0.02679723 -0.00044000
v 0.01800002 -0.00000642 -0.00044000
v 0.03959801 -0.00000642 0.05041012
v 0.03879799 -0.00000642 0.05044000
v 0.01521477 -0.02638165 0.05044000
v 0.01521477 -0.02599774 -0.00043502
v 0.01720247 -0.00000642 -0.00040514
v 0.01800002 -0.00000642 0.05044000
v 0.01720247 -0.00000642 0.05040514
v 0.01521477 -0.02599774 0.05043502
v 0.01521477 -0.02519825 -0.00036529
v 0.01599750 -0.00000642 0.00019749
v 0.01620245 -0.00000642 0.00005306
v 0.01640245 -0.00000642 -0.00008639
v 0.01640245 -0.00000642 0.05008639
v 0.01521477 -0.02558216 0.05042008
v 0.01521477 -0.02440272 -0.00012623
v 0.01576046 -0.00000642 0.00140276
v 0.01587651 -0.00000642 0.00060091
v 0.01619504 -0.00000642 0.04994196
v 0.01599750 -0.00000642 0.04980251
v 0.01593577 -0.00000642 0.04959831
v 0.01587651 -0.00000642 0.04939909
v 0.01521477 -0.02519825 0.05036529
v 0.01521477 -0.02384466 0.00011283
v 0.01521477 -0.02344491 0.00060091
v 0.01521477 -0.02339346 0.00076028
v 0.01521477 -0.02321536 0.00140276
v 0.01521477 -0.02320744 0.00220461
v 0.01576046 -0.00000642 0.04859724
v 0.01581725 -0.00000642 0.04899070
v 0.01521477 -0.02478267 0.05028561
v 0.01521477 -0.02320744 0.04781034
v 0.01521477 -0.02321536 0.04859724
v 0.01521477 -0.02344491 0.04939909
v 0.01521477 -0.02360719 0.04961823
v 0.01521477 -0.02384466 0.04988717
v 0.01521477 -0.02401485 0.05000172
f 1 2 6
f 1 6 3
f 1 3 9
f 1 9 4
f 1 4 10
f 1 10 19
f 1 19 31
f 1 31 41
f 1 41 46
f 1 46 51
f 1 51 57
f 1 57 65
f 1 65 73
f 1 73 79
f 1 79 78
f 1 78 77
f 1 77 76
f 1 76 75
f 1 75 74
f 1 74 70
f 1 70 69
f 1 69 68
f 1 68 67
f 1 67 66
f 1 66 58
f 1 58 52
f 1 52 47
f 1 47 42
f 1 42 32
f 1 32 20
f 1 20 11
f 1 11 5
f 1 5 2
f 2 5 6
f 3 6 7
f 3 7 8
f 3 8 16
f 3 16 9
f 4 9 10
f 5 11 12
f 5 12 6
f 6 12 13
f 6 13 7
f 7 14 8
f 7 13 15
f 7 15 14
f 8 14 25
f 8 25 16
f 9 16 17
f 9 17 18
f 9 18 10
f 10 18 19
f 11 20 12
f 12 20 21
f 12 21 13
f 13 21 22
f 13 22 15
f 14 15 23
f 14 23 24
f 14 24 36
f 14 36 25
f 15 22 26
f 15 26 27
f 15 27 23
f 16 25 17
f 17 25 28
f 17 28 29
f 17 29 18
f 18 29 30
f 18 30 31
f 18 31 19
f 20 32 21
f 21 32 42
f 21 42 43
f 21 43 33
f 21 33 34
f 21 34 22
f 22 34 35
f 22 35 26
f 23 27 26
f 23 26 35
f 23 35 34
f 23 34 33
f 23 33 43
f 23 43 48
f 23 48 55
f 23 55 54
f 23 54 53
f 23 53 60
f 23 60 59
f 23 59 71
f 23 71 72
f 23 72 64
f 23 64 63
f 23 63 62
f 23 62 61
f 23 61 56
f 23 56 50
f 23 50 49
f 23 49 45
f 23 45 44
f 23 44 38
f 23 38 37
f 23 37 36
f 23 36 24
f 25 36 37
f 25 37 28
f 28 37 38
f 28 38 39
f 28 39 29
f 29 39 40
f 29 40 30
f 30 40 41
f 30 41 31
f 38 44 39
f 39 44 45
f 39 45 40
f 40 45 49
f 40 49 46
f 40 46 41
f 42 47 48
f 42 48 43
f 46 49 50
f 46 50 51
f 47 52 53
f 47 53 54
f 47 54 55
f 47 55 48
f 50 56 51
f 51 56 57
f 52 58 59
f 52 59 60
f 52 60 53
f 56 61 57
f 57 61 62
f 57 62 63
f 57 63 64
f 57 64 65
f 58 66 59
f 59 66 67
f 59 67 68
f 59 68 69
f 59 69 70
f 59 70 74
f 59 74 71
f 64 72 73
f 64 73 65
f 71 74 75
f 71 75 76
f 71 76 77
f 71 77 78
f 71 78 79
f 71 79 73
f 71 73 72

