# https://github.com/mikedh/trimesh
v -0.03879891 -0.02038923 -0.00044000
v -0.01800368 -0.02038923 -0.00044000
v -0.03959891 -0.02038923 -0.00041012
v -0.03879891 -0.00000746 -0.00044000
v -0.01800368 0.02121320 -0.00044000
v -0.01720368 -0.02038923 -0.00040514
v -0.03959891 -0.00000746 -0.00041012
v -0.04021764 -0.02038923 -0.00009137
v -0.03990345 -0.00000746 -0.00025572
v -0.03879649 0.02121320 -0.00044000
v -0.01720368 0.02121320 -0.00040514
v -0.01640126 -0.02038923 -0.00009137
v -0.03959650 0.02121320 -0.00041012
v -0.04021764 -0.00000746 -0.00009137
v -0.04022248 -0.02038923 -0.00008141
v -0.04021523 0.02121320 -0.00009137
v -0.01641576 0.02121320 -0.00009635
v -0.01640126 -0.01639839 -0.00009137
v -0.01599764 -0.02038923 0.00019749
v -0.04022006 0.02121320 -0.00008141
v -0.04043517 -0.02038923 0.00060091
v -0.04043758 -0.00000339 0.00060091
v -0.04043758 0.02121320 0.00060091
v -0.01640368 0.02121320 -0.00009137
v -0.01599764 0.02121320 0.00019749
v -0.01587196 0.02119691 0.00060091
v -0.01587679 -0.02038923 0.00060091
v -0.04043517 -0.02038923 0.04940905
v -0.04043758 -0.00000339 0.04939909
v -0.04043758 0.02121320 0.04939909
v -0.01587196 0.02121320 0.00060091
v -0.01575111 0.02119691 0.00140276
v -0.01576319 -0.02038923 0.00139280
v -0.04021764 -0.02038923 0.05009137
v -0.04033124 -0.00000746 0.04973776
v -0.04021523 0.02121320 0.05009137
v -0.01575111 0.02121320 0.00140276
v -0.01575111 0.02119691 0.04859724
v -0.01576319 -0.02038923 0.04859724
v -0.04021039 -0.02038923 0.05009635
v -0.04021764 -0.00000746 0.05009137
v -0.03991311 -0.00000746 0.05025074
v -0.03959650 0.02121320 0.05041012
v -0.01575111 0.02121320 0.04859724
v -0.01586954 0.02121320 0.04938415
v -0.01587679 -0.02038923 0.04939909
v -0.03959891 -0.02038923 0.05041012
v -0.03959891 -0.00000746 0.05041012
v -0.03920495 -0.00000746 0.05042506
v -0.03879649 0.02121320 0.05044000
v -0.01587196 0.02121320 0.04939909
v -0.01587196 0.02119691 0.04939909
v -0.01599522 -0.02038923 0.04979753
v -0.03879891 -0.02038923 0.05044000
v -0.03879891 -0.00000746 0.05044000
v -0.01800368 0.02121320 0.05044000
v -0.01599522 0.02121320 0.04979753
v -0.01599764 -0.02038923 0.04980251
v -0.01800368 -0.02038923 0.05044000
v -0.01720368 0.02121320 0.05040514
v -0.01599764 0.02121320 0.04980251
v -0.01640126 -0.02038923 0.05009137
v -0.01720368 -0.02038923 0.05040514
v -0.01640126 -0.01639839 0.05009137
v -0.01640368 0.02121320 0.05009137
v -0.01639643 0.02121320 0.05008639
f 1 2 6
f 1 6 12
f 1 12 19
f 1 19 27
f 1 27 33
f 1 33 39
f 1 39 46
f 1 46 53
f 1 53 58
f 1 58 62
f 1 62 63
f 1 63 59
f 1 59 54
f 1 54 47
f 1 47 40
f 1 40 34
f 1 34 28
f 1 28 21
f 1 21 15
f 1 15 8
f 1 8 3
f 1 3 7
f 1 7 4
f 1 4 10
f 1 10 5
f 1 5 2
f 2 5 11
f 2 11 6
f 3 8 9
f 3 9 7
f 4 7 13
f 4 13 10
f 5 10 13
f 5 13 16
f 5 16 20
f 5 20 23
f 5 23 30
f 5 30 36
f 5 36 43
f 5 43 50
f 5 50 56
f 5 56 60
f 5 60 65
f 5 65 66
f 5 66 61
f 5 61 57
f 5 57 51
f 5 51 45
f 5 45 44
f 5 44 37
f 5 37 31
f 5 31 25
f 5 25 24
f 5 24 17
f 5 17 11
f 6 11 18
f 6 18 12
f 7 9 13
f 8 14 9
f 8 15 14
f 9 14 16
f 9 16 13
f 11 17 18
f 12 18 25
f 12 25 19
f 14 15 20
f 14 20 16
f 15 21 22
f 15 22 23
f 15 23 20
f 17 24 18
f 18 24 25
f 19 25 31
f 19 31 26
f 19 26 27
f 21 28 29
f 21 29 22
f 22 29 30
f 22 30 23
f 26 31 37
f 26 37 32
f 26 32 27
f 27 32 33
f 28 34 35
f 28 35 30
f 28 30 29
f 30 35 36
f 32 37 44
f 32 44 38
f 32 38 39
f 32 39 33
f 34 40 41
f 34 41 35
f 35 41 36
f 36 41 42
f 36 42 43
f 38 44 45
f 38 45 46
f 38 46 39
f 40 47 42
f 40 42 41
f 42 47 48
f 42 48 43
f 43 48 49
f 43 49 50
f 45 51 52
f 45 52 46
f 46 52 53
f 47 54 49
f 47 49 48
f 49 54 55
f 49 55 50
f 50 55 54
f 50 54 59
f 50 59 56
f 51 57 53
f 51 53 52
f 53 57 61
f 53 61 58
f 56 59 63
f 56 63 60
f 58 61 64
f 58 64 62
f 60 63 62
f 60 62 64
f 60 64 65
f 61 66 64
f 64 66 65

