# https://github.com/mikedh/trimesh
v -0.01274073 0.03879887 0.05044000
v -0.01274073 0.02680094 0.05044000
v -0.01274073 0.03959874 0.05041012
v -0.03879947 0.03879887 0.05044000
v -0.01800129 0.02121320 0.05044000
v -0.01274073 0.02600108 0.05041012
v -0.01274073 0.04021980 0.05009137
v -0.03879947 0.03959874 0.05041012
v -0.03879947 0.02121320 0.05044000
v -0.03959939 0.03959874 0.05039517
v -0.03959939 0.03879887 0.05041012
v -0.01720136 0.02121320 0.05040514
v -0.01718780 0.02121320 0.05040015
v -0.01640143 0.02121320 0.05009137
v -0.01274073 0.02566984 0.05026568
v -0.01274073 0.04034590 0.04969294
v -0.03959939 0.04021980 0.05009137
v -0.03959939 0.02121320 0.05041012
v -0.04014443 0.04014641 0.04999176
v -0.04021765 0.03959874 0.05009137
v -0.04020951 0.02121320 0.05009635
v -0.01639330 0.02121320 0.05008639
v -0.01274073 0.02522004 0.05006647
v -0.01274073 0.04043812 0.04939909
v -0.03959939 0.04043812 0.04939909
v -0.04021765 0.04021980 0.04939909
v -0.04044000 0.03959874 0.04939909
v -0.04021765 0.02121320 0.05009137
v -0.01599469 0.02121320 0.04980251
v -0.01274073 0.02504689 0.04986725
v -0.01274073 0.04043812 0.00060091
v -0.03959939 0.04043812 0.00060091
v -0.04021765 0.04021980 0.00060091
v -0.04044000 0.02121320 0.04939909
v -0.04044000 0.03959874 0.00060091
v -0.01599198 0.02121320 0.04979753
v -0.01274073 0.02485493 0.04960329
v -0.01274073 0.04021980 -0.00009137
v -0.03959939 0.04021980 -0.00009137
v -0.04014443 0.04014641 0.00000824
v -0.04044000 0.02121320 0.00060091
v -0.04021765 0.03959874 -0.00009137
v -0.04022307 0.02121320 -0.00008141
v -0.01586995 0.02121320 0.04939909
v -0.01274073 0.02481352 0.04948376
v -0.01274073 0.03959874 -0.00041012
v -0.03879947 0.03959874 -0.00041012
v -0.03959939 0.03959874 -0.00039517
v -0.03959939 0.03879887 -0.00041012
v -0.04021765 0.02121320 -0.00009137
v -0.01586724 0.02121320 0.04938415
v -0.01274073 0.02475142 0.04923972
v -0.01274073 0.03879887 -0.00044000
v -0.03879947 0.03879887 -0.00044000
v -0.03959939 0.02121320 -0.00041012
v -0.01574793 0.02121320 0.04859724
v -0.01274073 0.02470248 0.04891101
v -0.01274073 0.02680094 -0.00044000
v -0.03879947 0.02121320 -0.00044000
v -0.01274073 0.02468178 0.04825857
v -0.01274073 0.02468366 0.04859724
v -0.01574793 0.02121320 0.00140276
v -0.01800129 0.02121320 -0.00044000
v -0.01274073 0.02600108 -0.00041012
v -0.01274073 0.02468178 0.00220461
v -0.01586995 0.02121320 0.00060091
v -0.01274073 0.02475142 0.00076028
v -0.01274073 0.02468366 0.00140276
v -0.01720136 0.02121320 -0.00040514
v -0.01274073 0.02557763 -0.00022584
v -0.01640143 0.02121320 -0.00009137
v -0.01599469 0.02121320 0.00019749
v -0.01274073 0.02485493 0.00039671
v -0.01274073 0.02522004 -0.00006647
f 1 2 6
f 1 6 15
f 1 15 23
f 1 23 30
f 1 30 37
f 1 37 45
f 1 45 52
f 1 52 57
f 1 57 61
f 1 61 60
f 1 60 65
f 1 65 68
f 1 68 67
f 1 67 73
f 1 73 74
f 1 74 70
f 1 70 64
f 1 64 58
f 1 58 53
f 1 53 46
f 1 46 38
f 1 38 31
f 1 31 24
f 1 24 16
f 1 16 7
f 1 7 3
f 1 3 8
f 1 8 4
f 1 4 9
f 1 9 5
f 1 5 2
f 2 5 6
f 3 7 17
f 3 17 8
f 4 8 10
f 4 10 11
f 4 11 18
f 4 18 9
f 5 9 18
f 5 18 21
f 5 21 28
f 5 28 34
f 5 34 41
f 5 41 43
f 5 43 50
f 5 50 55
f 5 55 59
f 5 59 63
f 5 63 69
f 5 69 71
f 5 71 72
f 5 72 66
f 5 66 62
f 5 62 56
f 5 56 51
f 5 51 44
f 5 44 36
f 5 36 29
f 5 29 22
f 5 22 14
f 5 14 13
f 5 13 12
f 5 12 6
f 6 12 13
f 6 13 14
f 6 14 15
f 7 16 17
f 8 17 10
f 10 17 19
f 10 19 20
f 10 20 11
f 11 20 21
f 11 21 18
f 14 22 23
f 14 23 15
f 16 24 25
f 16 25 17
f 17 25 19
f 19 25 26
f 19 26 27
f 19 27 20
f 20 27 34
f 20 34 28
f 20 28 21
f 22 29 23
f 23 29 30
f 24 31 32
f 24 32 25
f 25 32 33
f 25 33 26
f 26 33 35
f 26 35 27
f 27 35 41
f 27 41 34
f 29 36 37
f 29 37 30
f 31 38 39
f 31 39 32
f 32 39 40
f 32 40 33
f 33 40 35
f 35 40 42
f 35 42 43
f 35 43 41
f 36 44 37
f 37 44 45
f 38 46 47
f 38 47 39
f 39 47 48
f 39 48 40
f 40 48 42
f 42 48 49
f 42 49 55
f 42 55 50
f 42 50 43
f 44 51 52
f 44 52 45
f 46 53 54
f 46 54 47
f 47 54 48
f 48 54 49
f 49 54 59
f 49 59 55
f 51 56 52
f 52 56 57
f 53 58 63
f 53 63 59
f 53 59 54
f 56 60 61
f 56 61 57
f 56 62 65
f 56 65 60
f 58 64 63
f 62 66 67
f 62 67 68
f 62 68 65
f 63 64 69
f 64 70 71
f 64 71 69
f 66 72 73
f 66 73 67
f 70 74 71
f 71 74 72
f 72 74 73

