# https://github.com/mikedh/trimesh
v 0.01321519 0.03879999 0.05044000
v 0.01321519 0.02680062 0.05044000
v 0.01321519 0.03959985 0.05041012
v -0.01273548 0.03879999 0.05044000
v -0.01273548 0.02680062 0.05044000
v 0.01321519 0.02600077 0.05041510
v 0.01321519 0.03961225 0.05040514
v -0.01273548 0.03959985 0.05041012
v -0.01273548 0.02600077 0.05041012
v 0.01319995 0.02600077 0.05041510
v 0.01321519 0.02515131 0.05004157
v 0.01321519 0.04021989 0.05009137
v -0.01273548 0.04021989 0.05009137
v -0.01273548 0.02566905 0.05026568
v -0.01239757 0.02526912 0.05009137
v -0.01273548 0.02522107 0.05006647
v 0.01321519 0.02508001 0.04996188
v -0.01273548 0.04034699 0.04969294
v 0.01321519 0.04043845 0.04939909
v -0.01273548 0.02504745 0.04986725
v 0.01303988 0.02483974 0.04966305
v 0.01321519 0.02474983 0.04945388
v -0.01273548 0.04043845 0.04939909
v 0.01321519 0.04043845 0.00060091
v -0.01273548 0.02485524 0.04960329
v -0.01273548 0.02481339 0.04948376
v 0.01321519 0.02472813 0.04938415
v -0.01273548 0.04043845 0.00060091
v 0.01321519 0.04043380 0.00058597
v -0.01273548 0.02475138 0.04923972
v 0.01321519 0.02460877 0.04859724
v -0.01273548 0.04031290 0.00020247
v 0.01321519 0.04021989 -0.00009137
v -0.01273548 0.02470333 0.04891101
v -0.01273548 0.02468318 0.04859724
v 0.01321519 0.02460412 0.04779539
v -0.01273548 0.04021989 -0.00009137
v 0.01321519 0.03959985 -0.00041012
v -0.01273548 0.03986181 -0.00027565
v -0.01273548 0.02468163 0.04825857
v 0.01321519 0.02460412 0.00220461
v 0.01321519 0.03879999 -0.00044000
v -0.01273548 0.03959985 -0.00041012
v -0.01273548 0.02468163 0.00220461
v -0.01273548 0.02468318 0.00140276
v 0.01321519 0.02460877 0.00140276
v 0.01321519 0.02680062 -0.00044000
v -0.01273548 0.03879999 -0.00044000
v -0.01273548 0.02475138 0.00076028
v 0.01321519 0.02472813 0.00061585
v 0.01321519 0.02600077 -0.00041510
v -0.01273548 0.02680062 -0.00044000
v 0.01321519 0.02473278 0.00059593
v -0.01273548 0.02485524 0.00039671
v 0.01321519 0.02598372 -0.00041012
v 0.01319995 0.02600077 -0.00041510
v -0.01273548 0.02600077 -0.00041012
v 0.01321519 0.02482579 0.00029212
v -0.01273548 0.02522107 -0.00006647
v -0.01239757 0.02526912 -0.00009137
v -0.01273548 0.02557759 -0.00022584
v 0.01321519 0.02515131 -0.00004157
f 1 2 6
f 1 6 11
f 1 11 17
f 1 17 22
f 1 22 27
f 1 27 31
f 1 31 36
f 1 36 41
f 1 41 46
f 1 46 50
f 1 50 53
f 1 53 58
f 1 58 62
f 1 62 55
f 1 55 51
f 1 51 47
f 1 47 42
f 1 42 38
f 1 38 33
f 1 33 29
f 1 29 24
f 1 24 19
f 1 19 12
f 1 12 7
f 1 7 3
f 1 3 8
f 1 8 4
f 1 4 5
f 1 5 2
f 2 5 10
f 2 10 6
f 3 7 8
f 4 8 13
f 4 13 18
f 4 18 23
f 4 23 28
f 4 28 32
f 4 32 37
f 4 37 39
f 4 39 43
f 4 43 48
f 4 48 52
f 4 52 57
f 4 57 61
f 4 61 59
f 4 59 54
f 4 54 49
f 4 49 45
f 4 45 44
f 4 44 40
f 4 40 35
f 4 35 34
f 4 34 30
f 4 30 26
f 4 26 25
f 4 25 20
f 4 20 16
f 4 16 14
f 4 14 9
f 4 9 5
f 5 9 10
f 6 10 11
f 7 12 13
f 7 13 8
f 9 14 10
f 10 14 15
f 10 15 11
f 11 15 16
f 11 16 17
f 12 18 13
f 12 19 18
f 14 16 15
f 16 20 17
f 17 20 21
f 17 21 22
f 18 19 23
f 19 24 28
f 19 28 23
f 20 25 21
f 21 25 22
f 22 26 27
f 22 25 26
f 24 29 28
f 26 30 27
f 27 30 31
f 28 29 32
f 29 33 32
f 30 34 31
f 31 34 35
f 31 35 36
f 32 33 37
f 33 38 39
f 33 39 37
f 35 40 36
f 36 40 44
f 36 44 41
f 38 42 48
f 38 48 43
f 38 43 39
f 41 44 45
f 41 45 46
f 42 47 52
f 42 52 48
f 45 49 46
f 46 49 50
f 47 51 56
f 47 56 52
f 49 53 50
f 49 54 53
f 51 55 56
f 52 56 57
f 53 54 58
f 54 59 58
f 55 60 61
f 55 61 57
f 55 57 56
f 55 62 60
f 58 59 62
f 59 61 60
f 59 60 62

