# https://github.com/mikedh/trimesh
v 0.02302325 0.02804603 0.01641519
v 0.02302325 0.02798896 0.00145193
v 0.01710768 0.02798896 0.00145193
v 0.01710768 0.02798896 0.01169157
v 0.02249916 0.02801842 0.01641519
v 0.02302325 0.02000473 0.01641519
v 0.02302325 0.00924066 0.00145193
v 0.01710768 0.00924066 0.00145193
v 0.01710768 0.02786746 0.01349167
v 0.01710768 0.02707585 0.01496368
v 0.02062459 0.02735567 0.01641519
v 0.02249916 0.02000473 0.01641519
v 0.01710768 0.00924251 0.01281645
v 0.02302325 0.00924066 0.01266705
v 0.01710768 0.00924066 0.01272417
v 0.01960710 0.02660456 0.01641519
v 0.01710768 0.02549999 0.01555688
v 0.02181466 0.02009126 0.01641519
v 0.02011672 0.02060120 0.01641519
v 0.01979531 0.02108537 0.01641519
v 0.01710768 0.02189908 0.01545728
v 0.01954456 0.02645728 0.01641519
v 0.01710768 0.02370874 0.01556274
v 0.01925964 0.02369953 0.01641519
v 0.01929844 0.02549999 0.01641519
v 0.01953935 0.02189908 0.01641519
v 0.01930133 0.02318959 0.01641519
v 0.01710768 0.02369953 0.01556274
f 1 2 3
f 1 3 4
f 1 4 5
f 1 5 11
f 1 11 16
f 1 16 22
f 1 22 25
f 1 25 24
f 1 24 27
f 1 27 26
f 1 26 20
f 1 20 19
f 1 19 18
f 1 18 12
f 1 12 6
f 1 6 14
f 1 14 7
f 1 7 2
f 2 7 8
f 2 8 3
f 3 8 15
f 3 15 13
f 3 13 21
f 3 21 28
f 3 28 23
f 3 23 17
f 3 17 10
f 3 10 9
f 3 9 4
f 4 9 5
f 5 9 10
f 5 10 11
f 6 12 13
f 6 13 14
f 7 14 15
f 7 15 8
f 10 16 11
f 10 17 16
f 12 18 13
f 13 15 14
f 13 18 19
f 13 19 20
f 13 20 21
f 16 17 22
f 17 23 24
f 17 24 25
f 17 25 22
f 20 26 21
f 21 26 27
f 21 27 28
f 23 28 24
f 24 28 27

