# https://github.com/mikedh/trimesh
v 0.01488648 -0.10530482 0.01899000
v 0.01488648 -0.10530482 -0.00714574
v 0.01265716 -0.10530482 0.01899000
v 0.01488648 -0.14909838 0.01899000
v 0.01426892 -0.10530482 -0.00714574
v 0.01488648 -0.15031474 -0.00714574
v 0.01265716 -0.10530482 0.00940911
v 0.01265716 -0.14909838 0.01899000
v 0.01488648 -0.15049362 0.01849369
v 0.01265716 -0.10586381 -0.00530119
v 0.01266392 -0.10530482 -0.00530887
v 0.01426892 -0.14729619 -0.00714574
v 0.01488648 -0.15060542 -0.00629894
v 0.01265716 -0.15045337 -0.00437764
v 0.01398240 -0.15026555 -0.00629894
v 0.01434486 -0.15004195 -0.00714574
v 0.01265716 -0.15049362 0.01849369
v 0.01265716 -0.15072616 0.01784132
v 0.01488648 -0.15099000 0.01709941
v 0.01265716 -0.14729619 -0.00530119
v 0.01427743 -0.14890609 -0.00714574
v 0.01335786 -0.15059201 -0.00464115
v 0.01488648 -0.15090504 -0.00452858
v 0.01265716 -0.15088268 -0.00269939
v 0.01265716 -0.14909838 -0.00528584
v 0.01430732 -0.14994357 -0.00714574
v 0.01265716 -0.15099000 0.01709941
v 0.01488648 -0.15099000 -0.00269939
v 0.01427896 -0.14909838 -0.00714574
v 0.01349970 -0.15099000 -0.00269939
v 0.01265716 -0.15099000 -0.00089833
f 1 2 5
f 1 5 11
f 1 11 7
f 1 7 3
f 1 3 8
f 1 8 4
f 1 4 9
f 1 9 19
f 1 19 28
f 1 28 23
f 1 23 13
f 1 13 6
f 1 6 2
f 2 6 16
f 2 16 26
f 2 26 29
f 2 29 21
f 2 21 12
f 2 12 5
f 3 7 10
f 3 10 20
f 3 20 25
f 3 25 14
f 3 14 24
f 3 24 31
f 3 31 27
f 3 27 18
f 3 18 17
f 3 17 8
f 4 8 17
f 4 17 9
f 5 10 11
f 5 12 20
f 5 20 10
f 6 13 14
f 6 14 15
f 6 15 16
f 7 11 10
f 9 17 18
f 9 18 19
f 12 21 20
f 13 22 14
f 13 23 24
f 13 24 22
f 14 25 16
f 14 16 15
f 14 22 24
f 16 25 26
f 18 27 19
f 19 27 31
f 19 31 30
f 19 30 28
f 20 21 25
f 21 29 25
f 23 28 30
f 23 30 24
f 24 30 31
f 25 29 26

