# https://github.com/mikedh/trimesh
v 0.01488648 -0.00167447 0.01899000
v 0.01488648 -0.00167447 -0.00714574
v 0.01265716 -0.00167447 0.01899000
v 0.01488648 -0.04433187 0.01899000
v 0.01425299 -0.00167447 -0.00714574
v 0.01488648 -0.04433187 -0.00714574
v 0.01265716 -0.00167447 -0.00533189
v 0.01265716 -0.04433187 0.01899000
v 0.01427437 -0.04433187 -0.00714574
v 0.01266152 -0.04433187 -0.00530119
v 0.01265716 -0.04289952 -0.00529608
v 0.01265716 -0.04433187 0.00322823
f 1 2 5
f 1 5 7
f 1 7 3
f 1 3 8
f 1 8 4
f 1 4 6
f 1 6 2
f 2 6 9
f 2 9 5
f 3 7 11
f 3 11 12
f 3 12 8
f 4 8 12
f 4 12 10
f 4 10 9
f 4 9 6
f 5 9 7
f 7 9 10
f 7 10 11
f 10 12 11

