# https://github.com/mikedh/trimesh
v 0.00163853 0.01685926 -0.02536366
v 0.00163853 0.01743882 -0.02620477
v 0.00312787 0.01686203 -0.02536366
v 0.00163853 0.02798985 -0.02536366
v 0.00163853 0.02037534 -0.03046547
v 0.00450017 0.01687032 -0.02536366
v 0.00163853 0.02135465 -0.03188606
v 0.00163853 0.02262028 -0.03372072
v 0.01422336 0.02814062 -0.02536366
v 0.01422336 0.02856941 -0.02572800
v 0.01422336 0.02987100 -0.02710426
v 0.01422336 0.03050450 -0.02799403
v 0.00163853 0.03046577 -0.03146767
v 0.00490916 0.01687862 -0.02536366
v 0.00163853 0.02287617 -0.03409046
v 0.01422336 0.02009871 -0.02536366
v 0.01422336 0.03096510 -0.02970003
v 0.01349902 0.03094850 -0.02970003
v 0.00163853 0.03099000 -0.03329908
v 0.00629994 0.01691735 -0.02536366
v 0.00163853 0.02337965 -0.03467643
v 0.00270041 0.02289138 -0.03406884
v 0.01421474 0.02000603 -0.02536366
v 0.01422336 0.02000603 -0.02537663
v 0.01422336 0.03091808 -0.03149902
v 0.01349902 0.03099000 -0.03149902
v 0.00989948 0.03099000 -0.03149902
v 0.00809848 0.03099000 -0.03329908
v 0.00163853 0.03075763 -0.03509915
v 0.00629994 0.01709993 -0.02561989
v 0.00809848 0.02090650 -0.03073034
v 0.00923920 0.02097012 -0.03064277
v 0.01043904 0.02105035 -0.03053142
v 0.01349902 0.02066582 -0.02929678
v 0.00658574 0.01696299 -0.02536366
v 0.00450017 0.02294671 -0.03399533
v 0.00163853 0.02381536 -0.03516834
v 0.00263265 0.02394261 -0.03526132
v 0.00887456 0.01747063 -0.02536366
v 0.01422336 0.02001018 -0.02610098
v 0.01422336 0.03042427 -0.03295853
v 0.01349902 0.03049481 -0.03311313
v 0.00989948 0.03091946 -0.03329908
v 0.00270041 0.03071751 -0.03509915
v 0.00163853 0.03026244 -0.03619000
v 0.00629994 0.02082903 -0.03084062
v 0.00629994 0.02237821 -0.03298123
v 0.00629994 0.02304077 -0.03388073
v 0.00809848 0.02247504 -0.03283420
v 0.01169925 0.02115270 -0.03040276
v 0.00809848 0.02317494 -0.03373478
v 0.01422336 0.02072391 -0.02919731
v 0.00809478 0.01723272 -0.02536366
v 0.00450017 0.02384717 -0.03499212
v 0.00163853 0.02429256 -0.03570458
v 0.00163853 0.02457335 -0.03601810
v 0.00198838 0.02458442 -0.03601053
v 0.00826109 0.01728252 -0.02536366
v 0.01422336 0.02052888 -0.02873567
v 0.01422336 0.02023288 -0.02790105
v 0.01422336 0.02010977 -0.02717670
v 0.01422336 0.02901894 -0.03352720
v 0.01256895 0.02945327 -0.03418236
v 0.01136911 0.03023616 -0.03439750
v 0.00989948 0.03042427 -0.03461805
v 0.00809848 0.03049481 -0.03481482
v 0.00450017 0.03061101 -0.03509915
v 0.00270041 0.03022233 -0.03615540
v 0.00163853 0.02909917 -0.03639325
v 0.00629994 0.02393984 -0.03484725
v 0.00989948 0.02261613 -0.03263960
v 0.01112027 0.02273231 -0.03248500
v 0.01349902 0.02134911 -0.03019735
v 0.01422336 0.02113195 -0.02973571
v 0.00809848 0.02407263 -0.03467102
v 0.00989948 0.02338380 -0.03353909
v 0.00163853 0.02487765 -0.03609054
v 0.00263265 0.02538667 -0.03614892
v 0.00318823 0.02471029 -0.03596945
v 0.01422336 0.02729963 -0.03354774
v 0.01352489 0.02729963 -0.03385262
v 0.01332039 0.02895117 -0.03391316
v 0.01260221 0.02825265 -0.03420074
v 0.01186062 0.02895117 -0.03444399
v 0.00989948 0.02909917 -0.03505915
v 0.00549430 0.03003006 -0.03601918
v 0.00450017 0.03011582 -0.03607648
v 0.00270041 0.02909917 -0.03632730
v 0.00270041 0.02729963 -0.03635000
v 0.00163853 0.02836054 -0.03640190
v 0.01232011 0.02286372 -0.03232716
v 0.01422336 0.02200337 -0.03071521
v 0.00989948 0.02428288 -0.03445696
v 0.00163853 0.02545168 -0.03621162
v 0.00450017 0.02594687 -0.03609054
v 0.00450017 0.02504779 -0.03589161
v 0.01422336 0.02550424 -0.03339314
v 0.01263055 0.02632171 -0.03421155
v 0.01262439 0.02729963 -0.03420939
v 0.01169925 0.02729963 -0.03452075
v 0.00809848 0.02909917 -0.03548078
v 0.00989948 0.02729963 -0.03508185
v 0.00809848 0.02729963 -0.03553700
v 0.00557191 0.02909917 -0.03603324
v 0.00450017 0.02909917 -0.03616730
v 0.00163853 0.02729963 -0.03640839
v 0.00450017 0.02729963 -0.03618135
v 0.00552017 0.02628575 -0.03602026
v 0.01110549 0.02447514 -0.03429155
v 0.01349902 0.02305875 -0.03213039
v 0.01422336 0.02284989 -0.03162767
v 0.00809848 0.02549871 -0.03534240
v 0.00619277 0.02561075 -0.03574566
v 0.01422336 0.02491085 -0.03318665
v 0.01230533 0.02512109 -0.03409803
v 0.01333764 0.02563288 -0.03379316
v 0.01170294 0.02563288 -0.03438669
v 0.00989948 0.02549871 -0.03489806
v 0.00649088 0.02729963 -0.03586566
v 0.00559038 0.02729963 -0.03603540
v 0.01422336 0.02411274 -0.03281691
v 0.01349902 0.02395644 -0.03296610
v 0.01422336 0.02328836 -0.03204715
f 1 2 3
f 1 3 6
f 1 6 14
f 1 14 20
f 1 20 35
f 1 35 53
f 1 53 58
f 1 58 39
f 1 39 23
f 1 23 16
f 1 16 9
f 1 9 4
f 1 4 13
f 1 13 19
f 1 19 29
f 1 29 45
f 1 45 69
f 1 69 90
f 1 90 106
f 1 106 94
f 1 94 77
f 1 77 56
f 1 56 55
f 1 55 37
f 1 37 21
f 1 21 15
f 1 15 8
f 1 8 7
f 1 7 5
f 1 5 2
f 2 5 3
f 3 5 7
f 3 7 8
f 3 8 6
f 4 9 10
f 4 10 11
f 4 11 12
f 4 12 13
f 6 8 15
f 6 15 14
f 9 16 24
f 9 24 40
f 9 40 61
f 9 61 60
f 9 60 59
f 9 59 52
f 9 52 74
f 9 74 92
f 9 92 111
f 9 111 123
f 9 123 121
f 9 121 114
f 9 114 97
f 9 97 80
f 9 80 62
f 9 62 41
f 9 41 25
f 9 25 17
f 9 17 12
f 9 12 11
f 9 11 10
f 12 17 18
f 12 18 13
f 13 18 19
f 14 15 20
f 15 21 22
f 15 22 20
f 16 23 24
f 17 25 26
f 17 26 27
f 17 27 19
f 17 19 18
f 19 27 26
f 19 26 28
f 19 28 29
f 20 30 31
f 20 31 32
f 20 32 33
f 20 33 34
f 20 34 35
f 20 22 36
f 20 36 30
f 21 37 38
f 21 38 22
f 22 38 36
f 23 39 24
f 24 39 40
f 25 41 42
f 25 42 43
f 25 43 26
f 26 43 28
f 28 43 44
f 28 44 29
f 29 44 45
f 30 36 46
f 30 46 31
f 31 46 36
f 31 36 47
f 31 47 48
f 31 48 32
f 32 48 49
f 32 49 33
f 33 50 34
f 33 49 51
f 33 51 50
f 34 50 52
f 34 52 35
f 35 52 53
f 36 38 54
f 36 54 48
f 36 48 47
f 37 55 38
f 38 55 56
f 38 56 57
f 38 57 54
f 39 58 59
f 39 59 60
f 39 60 61
f 39 61 40
f 41 62 63
f 41 63 64
f 41 64 42
f 42 64 65
f 42 65 43
f 43 65 66
f 43 66 67
f 43 67 44
f 44 67 68
f 44 68 45
f 45 68 69
f 48 54 70
f 48 70 51
f 48 51 49
f 50 71 72
f 50 72 73
f 50 73 74
f 50 74 52
f 50 51 71
f 51 70 75
f 51 75 76
f 51 76 72
f 51 72 71
f 52 59 58
f 52 58 53
f 54 57 70
f 56 77 57
f 57 77 78
f 57 78 79
f 57 79 70
f 62 80 81
f 62 81 82
f 62 82 63
f 63 82 83
f 63 83 84
f 63 84 85
f 63 85 64
f 64 85 86
f 64 86 65
f 65 86 87
f 65 87 66
f 66 87 68
f 66 68 67
f 68 87 69
f 69 87 88
f 69 88 89
f 69 89 90
f 70 79 75
f 72 91 73
f 72 76 91
f 73 91 74
f 74 91 92
f 75 79 93
f 75 93 76
f 76 93 91
f 77 94 78
f 78 94 89
f 78 89 95
f 78 95 79
f 79 95 96
f 79 96 93
f 80 97 98
f 80 98 81
f 81 98 99
f 81 99 82
f 82 99 83
f 83 99 84
f 84 99 100
f 84 100 85
f 85 101 86
f 85 100 102
f 85 102 103
f 85 103 101
f 86 101 104
f 86 104 105
f 86 105 88
f 86 88 87
f 88 105 89
f 89 106 90
f 89 105 107
f 89 107 108
f 89 108 95
f 89 94 106
f 91 93 109
f 91 109 110
f 91 110 92
f 92 110 111
f 93 96 109
f 95 108 96
f 96 112 109
f 96 108 113
f 96 113 112
f 97 114 115
f 97 115 116
f 97 116 98
f 98 116 115
f 98 115 117
f 98 117 118
f 98 118 102
f 98 102 100
f 98 100 99
f 101 103 104
f 102 118 103
f 103 108 119
f 103 119 104
f 103 118 112
f 103 112 108
f 104 119 120
f 104 120 107
f 104 107 105
f 107 120 108
f 108 120 119
f 108 112 113
f 109 112 118
f 109 118 115
f 109 115 121
f 109 121 122
f 109 122 110
f 110 122 121
f 110 121 123
f 110 123 111
f 114 121 115
f 115 118 117

