# https://github.com/mikedh/trimesh
v 0.01488648 -0.00168901 -0.00714574
v 0.01488648 -0.00168901 -0.00806081
v 0.01425310 -0.00168901 -0.00714574
v 0.01488648 -0.15030049 -0.00714574
v 0.01488648 -0.14728869 -0.00804621
v 0.01426897 -0.14728869 -0.00714574
v 0.01434505 -0.15003860 -0.00714574
v 0.01488648 -0.15018410 -0.00759638
v 0.01488648 -0.14909287 -0.00802292
v 0.01427908 -0.14909287 -0.00714574
v 0.01427765 -0.14890372 -0.00714574
v 0.01437984 -0.15002405 -0.00722689
v 0.01430741 -0.14993675 -0.00714574
f 1 2 3
f 1 3 6
f 1 6 11
f 1 11 10
f 1 10 13
f 1 13 7
f 1 7 4
f 1 4 8
f 1 8 9
f 1 9 5
f 1 5 2
f 2 5 3
f 3 5 6
f 4 7 8
f 5 9 10
f 5 10 11
f 5 11 6
f 7 12 8
f 7 13 12
f 8 12 9
f 9 12 13
f 9 13 10

