# https://github.com/mikedh/trimesh
v 0.00000346 0.00239114 0.02087428
v -0.00090060 0.00239114 0.02087723
v 0.00000346 -0.00167447 0.01899890
v 0.00000346 0.00239114 -0.00429179
v -0.00827365 -0.00167447 0.01899595
v -0.00647612 -0.00167447 0.01899890
v -0.00223152 0.00239114 0.02086251
v -0.01353898 -0.00167447 0.01898712
v 0.00000346 -0.00167447 0.00947183
v 0.00000346 -0.00167407 -0.00021128
v -0.01353898 -0.00166890 -0.00632910
v -0.01353898 0.00239114 -0.00919958
v -0.00270078 0.00239114 0.02085662
v -0.00403832 0.00239114 0.02083601
v -0.00585044 0.00239114 0.02079185
v -0.00630114 0.00239114 0.02077418
v -0.00754854 0.00239114 0.02059459
v -0.00807614 0.00239114 0.02050627
v -0.01353898 -0.00150334 0.01898712
v -0.01353898 -0.00167447 -0.00629083
v -0.00073093 -0.00167447 -0.00021423
v -0.01351247 -0.00167447 -0.00629966
v -0.01353898 0.00239114 0.01604598
v -0.00904516 0.00239114 0.02012648
v -0.00958203 0.00239114 0.01989390
v -0.01353898 0.00017129 0.01850429
v -0.01353898 0.00020631 0.01849251
v -0.01298090 0.00239114 0.01689976
v -0.00995453 0.00239114 0.01967015
v -0.01128411 0.00239114 0.01880164
v -0.01224651 0.00239114 0.01790075
f 1 2 3
f 1 3 9
f 1 9 10
f 1 10 4
f 1 4 12
f 1 12 23
f 1 23 28
f 1 28 31
f 1 31 30
f 1 30 29
f 1 29 25
f 1 25 24
f 1 24 18
f 1 18 17
f 1 17 16
f 1 16 15
f 1 15 14
f 1 14 13
f 1 13 7
f 1 7 2
f 2 5 6
f 2 6 3
f 2 7 8
f 2 8 5
f 3 6 5
f 3 5 8
f 3 8 20
f 3 20 22
f 3 22 21
f 3 21 9
f 4 10 11
f 4 11 12
f 7 13 8
f 8 13 14
f 8 14 15
f 8 15 16
f 8 16 17
f 8 17 18
f 8 18 19
f 8 19 26
f 8 26 27
f 8 27 23
f 8 23 12
f 8 12 11
f 8 11 20
f 9 21 10
f 10 21 22
f 10 22 11
f 11 22 20
f 18 24 19
f 19 24 25
f 19 25 26
f 23 27 28
f 25 29 27
f 25 27 26
f 27 29 30
f 27 30 31
f 27 31 28

