# https://github.com/mikedh/trimesh
v -0.01512619 0.00239114 0.01408649
v -0.01512619 0.00924066 0.01360899
v -0.02600943 0.00239114 0.01320123
v -0.01512619 0.00239114 -0.01049951
v -0.02711704 0.00924066 0.01261911
v -0.01512619 0.00924066 -0.01327868
v -0.02801083 0.00924066 0.01243669
v -0.02719765 0.00239114 0.01286859
v -0.01574483 0.00239114 -0.01109237
v -0.01512619 0.00382862 -0.01144379
v -0.01512619 0.00749945 -0.01293263
v -0.02070100 0.00239114 -0.01330551
v -0.02099192 0.00239114 -0.01330819
v -0.02250086 0.00239114 -0.01331892
v -0.02279178 0.00239114 -0.01331892
v -0.02429896 0.00239114 -0.01331355
v -0.02451101 0.00239114 -0.01330551
v -0.02708900 0.00924066 -0.01261876
v -0.02970027 0.00924066 0.01176873
v -0.02790042 0.00239114 0.01256814
v -0.01710130 0.00239114 -0.01189178
v -0.01512619 0.00553832 -0.01228612
v -0.01929372 0.00239114 -0.01294872
v -0.01512619 0.00643810 -0.01264827
v -0.02607603 0.00239114 -0.01319284
v -0.02794774 0.00924066 -0.01240952
v -0.03085694 0.00924066 0.01103101
v -0.02942688 0.00239114 0.01161045
v -0.02810897 0.00239114 0.01243938
v -0.01839291 0.00239114 -0.01251682
v -0.02790042 0.00239114 -0.01254633
v -0.02798279 0.00924066 -0.01239879
v -0.03182259 0.00924066 0.00977556
v -0.03030314 0.00239114 0.01029330
v -0.02940059 0.00239114 -0.01159669
v -0.02970378 0.00924066 -0.01165839
v -0.02963718 0.00924066 -0.01169058
v -0.03192599 0.00924066 0.00959582
v -0.03232557 0.00876128 0.00873471
v -0.03079561 0.00239114 0.00939463
v -0.02958461 0.00239114 -0.01141428
v -0.03077458 0.00924066 -0.01096092
v -0.03075004 0.00924066 -0.01097701
v -0.03255165 0.00924066 0.00822233
v -0.03259020 0.00924066 0.00807747
v -0.03248330 0.00798554 0.00753291
v -0.03121621 0.00239114 0.00809893
v -0.03037675 0.00239114 -0.01008103
v -0.03155621 0.00924066 -0.00990397
v -0.03152817 0.00924066 -0.00994421
v -0.03287411 0.00924066 0.00629891
v -0.03236938 0.00675322 0.00629891
v -0.03178754 0.00390037 0.00629891
v -0.03147910 0.00239114 0.00629891
v -0.03075705 0.00239114 -0.00932453
v -0.03225371 0.00924066 -0.00865120
v -0.03296349 0.00924066 0.00450157
v -0.03239567 0.00661845 0.00523929
v -0.03301782 0.00924066 0.00269887
v -0.03152466 0.00239114 0.00449889
v -0.03084292 0.00239114 -0.00910456
v -0.03228526 0.00924066 -0.00858414
v -0.03302834 0.00924066 0.00089884
v -0.03242371 0.00649040 0.00269887
v -0.03153342 0.00239114 0.00269887
v -0.03115312 0.00239114 -0.00809859
v -0.03252010 0.00924066 -0.00768278
v -0.03186290 0.00390037 0.00089884
v -0.03300205 0.00924066 -0.00089850
v -0.03149136 0.00239114 -0.00420882
v -0.03151590 0.00239114 -0.00240880
v -0.03152641 0.00239114 -0.00089850
v -0.03152817 0.00239114 -0.00060878
v -0.03153342 0.00239114 0.00089884
v -0.03120044 0.00239114 -0.00780618
v -0.03242897 0.00823965 -0.00731795
v -0.03270762 0.00924066 -0.00635490
v -0.03300030 0.00924066 -0.00095215
v -0.03144229 0.00239114 -0.00600884
v -0.03148435 0.00239114 -0.00449854
v -0.03143178 0.00239114 -0.00629856
v -0.03271288 0.00924066 -0.00629856
v -0.03293720 0.00924066 -0.00269584
v -0.03293370 0.00924066 -0.00276827
v -0.03283556 0.00924066 -0.00449854
v -0.03283030 0.00924066 -0.00458170
f 1 2 3
f 1 3 8
f 1 8 20
f 1 20 29
f 1 29 28
f 1 28 34
f 1 34 40
f 1 40 47
f 1 47 54
f 1 54 60
f 1 60 65
f 1 65 74
f 1 74 73
f 1 73 72
f 1 72 71
f 1 71 70
f 1 70 80
f 1 80 79
f 1 79 81
f 1 81 75
f 1 75 66
f 1 66 61
f 1 61 55
f 1 55 48
f 1 48 41
f 1 41 35
f 1 35 31
f 1 31 25
f 1 25 17
f 1 17 16
f 1 16 15
f 1 15 14
f 1 14 13
f 1 13 12
f 1 12 23
f 1 23 30
f 1 30 21
f 1 21 9
f 1 9 4
f 1 4 10
f 1 10 22
f 1 22 24
f 1 24 11
f 1 11 6
f 1 6 2
f 2 5 3
f 2 6 18
f 2 18 26
f 2 26 32
f 2 32 37
f 2 37 36
f 2 36 43
f 2 43 42
f 2 42 50
f 2 50 49
f 2 49 56
f 2 56 62
f 2 62 67
f 2 67 77
f 2 77 82
f 2 82 86
f 2 86 85
f 2 85 84
f 2 84 83
f 2 83 78
f 2 78 69
f 2 69 63
f 2 63 59
f 2 59 57
f 2 57 51
f 2 51 45
f 2 45 44
f 2 44 38
f 2 38 33
f 2 33 27
f 2 27 19
f 2 19 7
f 2 7 5
f 3 5 7
f 3 7 8
f 4 9 10
f 6 11 12
f 6 12 13
f 6 13 14
f 6 14 15
f 6 15 16
f 6 16 17
f 6 17 18
f 7 19 8
f 8 19 20
f 9 21 10
f 10 21 22
f 11 23 12
f 11 24 23
f 17 25 18
f 18 25 26
f 19 27 28
f 19 28 29
f 19 29 20
f 21 30 22
f 22 30 23
f 22 23 24
f 25 31 32
f 25 32 26
f 27 33 28
f 28 33 34
f 31 35 36
f 31 36 37
f 31 37 32
f 33 38 34
f 34 38 39
f 34 39 40
f 35 41 42
f 35 42 43
f 35 43 36
f 38 44 39
f 39 44 45
f 39 45 46
f 39 46 47
f 39 47 40
f 41 48 49
f 41 49 50
f 41 50 42
f 45 51 46
f 46 51 52
f 46 52 53
f 46 53 54
f 46 54 47
f 48 55 56
f 48 56 49
f 51 57 58
f 51 58 52
f 52 58 53
f 53 58 54
f 54 58 59
f 54 59 60
f 55 61 62
f 55 62 56
f 57 59 58
f 59 63 64
f 59 64 60
f 60 64 65
f 61 66 62
f 62 66 67
f 63 68 65
f 63 65 64
f 63 69 70
f 63 70 71
f 63 71 72
f 63 72 73
f 63 73 68
f 65 68 74
f 66 75 76
f 66 76 67
f 67 76 77
f 68 73 74
f 69 78 79
f 69 79 80
f 69 80 70
f 75 81 76
f 76 81 77
f 77 81 82
f 78 83 79
f 79 83 81
f 81 83 84
f 81 84 85
f 81 85 86
f 81 86 82

