# https://github.com/mikedh/trimesh
v -0.00514189 0.02799000 0.01709316
v -0.01169987 0.02799000 0.01709316
v -0.00514189 0.01828592 0.01709316
v -0.00514189 0.02799000 0.00145193
v -0.01349993 0.02786174 0.01709316
v -0.01702909 0.02799000 0.01169926
v -0.01306592 0.01828592 0.01709316
v -0.00514189 0.01828592 0.00145193
v -0.01702909 0.02799000 0.00145193
v -0.01496140 0.02706756 0.01709316
v -0.01702909 0.02786270 0.01349978
v -0.01487878 0.02057918 0.01709316
v -0.01702909 0.01828592 0.01308793
v -0.01702909 0.01828592 0.00145193
v -0.01496605 0.02705711 0.01709316
v -0.01702909 0.02707326 0.01496806
v -0.01546174 0.02189396 0.01709316
v -0.01702909 0.02065898 0.01495122
v -0.01702909 0.02056303 0.01490223
v -0.01553738 0.02549914 0.01709316
v -0.01702909 0.02549914 0.01555446
v -0.01556414 0.02368847 0.01709316
v -0.01702909 0.02190060 0.01550393
v -0.01553854 0.02548774 0.01709316
v -0.01702909 0.02369987 0.01559579
v -0.01556414 0.02369987 0.01709316
v -0.01702909 0.02202030 0.01551006
f 1 2 5
f 1 5 10
f 1 10 15
f 1 15 20
f 1 20 24
f 1 24 26
f 1 26 22
f 1 22 17
f 1 17 12
f 1 12 7
f 1 7 3
f 1 3 8
f 1 8 4
f 1 4 9
f 1 9 6
f 1 6 2
f 2 6 5
f 3 7 13
f 3 13 14
f 3 14 8
f 4 8 14
f 4 14 9
f 5 6 11
f 5 11 10
f 6 9 14
f 6 14 13
f 6 13 19
f 6 19 18
f 6 18 23
f 6 23 27
f 6 27 25
f 6 25 21
f 6 21 16
f 6 16 11
f 7 12 13
f 10 11 16
f 10 16 15
f 12 17 18
f 12 18 19
f 12 19 13
f 15 16 20
f 16 21 20
f 17 22 23
f 17 23 18
f 20 21 24
f 21 25 24
f 22 26 25
f 22 25 27
f 22 27 23
f 24 25 26

