# https://github.com/mikedh/trimesh
v 0.03640941 0.02812537 0.00145193
v 0.03640695 0.02854822 0.00145193
v 0.03638607 0.02812537 0.00187522
v 0.02892116 0.02812537 0.00145193
v 0.03640204 0.02910007 0.00145193
v 0.03633202 0.02910007 0.00270131
v 0.03633939 0.02812537 0.00270131
v 0.02386020 0.02812537 0.01641519
v 0.02923931 0.02848233 0.00145193
v 0.03616005 0.03022814 0.00270131
v 0.03619444 0.03026936 0.00145193
v 0.03607038 0.03010813 0.00450141
v 0.03601633 0.03002793 0.00549447
v 0.03614777 0.02910007 0.00450141
v 0.03615268 0.02812537 0.00450141
v 0.03254368 0.02812537 0.01641519
v 0.02639928 0.03037367 0.01641519
v 0.03064336 0.02996961 0.00145193
v 0.03509872 0.03072306 0.00270131
v 0.03509872 0.03060305 0.00450141
v 0.03481496 0.03049480 0.00810015
v 0.03462334 0.03043648 0.00989879
v 0.03586892 0.03042106 0.00145193
v 0.03602615 0.02910007 0.00555013
v 0.03441205 0.03025198 0.01136933
v 0.03505818 0.02910007 0.00989879
v 0.03546969 0.02910007 0.00810015
v 0.03583084 0.02910007 0.00644945
v 0.03602615 0.02812537 0.00555159
v 0.03253753 0.02910007 0.01641519
v 0.03307557 0.02812537 0.01529909
v 0.02672234 0.03049958 0.01641519
v 0.03149463 0.03047322 0.00145193
v 0.03509872 0.03076428 0.00145193
v 0.03329913 0.03093140 0.00989879
v 0.03310136 0.03049480 0.01349899
v 0.03272670 0.03032825 0.01529909
v 0.03565887 0.02812537 0.00734291
v 0.03593771 0.02812537 0.00603933
v 0.03247980 0.03010785 0.01634635
v 0.03382366 0.02910007 0.01349899
v 0.03418234 0.02910007 0.01257038
v 0.03451892 0.02910007 0.01166960
v 0.03506433 0.02812537 0.00989879
v 0.03549304 0.02812537 0.00810015
v 0.03306820 0.02910007 0.01529909
v 0.03251542 0.02934121 0.01641519
v 0.03383594 0.02812537 0.01349899
v 0.02784632 0.03082429 0.01641519
v 0.03266037 0.03080746 0.00145193
v 0.03454718 0.03084587 0.00145193
v 0.03329913 0.03099000 0.00810015
v 0.03149832 0.03099000 0.01349899
v 0.03149832 0.03082316 0.01529909
v 0.03151920 0.03058258 0.01641519
v 0.03194545 0.03041068 0.01641519
v 0.03238276 0.03014318 0.01641519
v 0.03244909 0.03003886 0.01641519
v 0.03434326 0.02812537 0.01216759
v 0.03400054 0.02812537 0.01307277
v 0.03418849 0.02812537 0.01257917
v 0.03451892 0.02812537 0.01167985
v 0.02858458 0.03097233 0.01641519
v 0.03329913 0.03099000 0.00145193
v 0.02969995 0.03099000 0.01529909
v 0.02969995 0.03098524 0.01641519
v 0.03038417 0.03092186 0.01641519
f 1 2 3
f 1 3 7
f 1 7 15
f 1 15 29
f 1 29 39
f 1 39 38
f 1 38 45
f 1 45 44
f 1 44 62
f 1 62 59
f 1 59 61
f 1 61 60
f 1 60 48
f 1 48 31
f 1 31 16
f 1 16 8
f 1 8 4
f 1 4 9
f 1 9 18
f 1 18 33
f 1 33 50
f 1 50 64
f 1 64 51
f 1 51 34
f 1 34 23
f 1 23 11
f 1 11 5
f 1 5 2
f 2 5 6
f 2 6 7
f 2 7 3
f 4 8 9
f 5 10 6
f 5 11 10
f 6 10 12
f 6 12 13
f 6 13 14
f 6 14 7
f 7 14 15
f 8 16 30
f 8 30 47
f 8 47 58
f 8 58 57
f 8 57 56
f 8 56 55
f 8 55 67
f 8 67 66
f 8 66 63
f 8 63 49
f 8 49 32
f 8 32 17
f 8 17 18
f 8 18 9
f 10 11 19
f 10 19 20
f 10 20 21
f 10 21 22
f 10 22 12
f 11 23 19
f 12 22 13
f 13 24 14
f 13 22 25
f 13 25 26
f 13 26 27
f 13 27 28
f 13 28 24
f 14 24 15
f 15 24 29
f 16 31 30
f 17 32 33
f 17 33 18
f 19 23 34
f 19 34 35
f 19 35 21
f 19 21 20
f 21 35 22
f 22 35 36
f 22 36 37
f 22 37 25
f 24 28 38
f 24 38 39
f 24 39 29
f 25 37 40
f 25 40 41
f 25 41 42
f 25 42 43
f 25 43 26
f 26 44 45
f 26 45 27
f 26 43 44
f 27 45 38
f 27 38 28
f 30 31 46
f 30 46 40
f 30 40 47
f 31 48 46
f 32 49 33
f 33 49 50
f 34 51 52
f 34 52 35
f 35 52 53
f 35 53 54
f 35 54 36
f 36 54 37
f 37 54 55
f 37 55 56
f 37 56 57
f 37 57 40
f 40 57 58
f 40 58 47
f 40 46 41
f 41 48 42
f 41 46 48
f 42 59 43
f 42 48 60
f 42 60 61
f 42 61 59
f 43 59 62
f 43 62 44
f 49 63 64
f 49 64 50
f 51 64 52
f 52 64 65
f 52 65 53
f 53 65 66
f 53 66 67
f 53 67 54
f 54 67 55
f 63 66 65
f 63 65 64

