# https://github.com/mikedh/trimesh
v -0.00514189 0.00924066 0.00145193
v -0.00514189 0.00924066 0.01641519
v -0.00514189 0.01690627 0.00145193
v 0.01710768 0.00924066 0.00145193
v -0.00514189 0.01690627 0.01641519
v 0.01306765 0.00924066 0.01641519
v 0.01709896 0.01690627 0.00145193
v 0.01710768 0.01690627 0.01201233
v 0.01710768 0.00924066 0.01272417
v 0.01312863 0.01690627 0.01641519
v 0.01709896 0.00924066 0.01281645
v 0.01710768 0.00924141 0.01281645
v 0.01709896 0.01690627 0.01288236
v 0.01710768 0.01649957 0.01282816
f 1 2 5
f 1 5 3
f 1 3 7
f 1 7 4
f 1 4 9
f 1 9 11
f 1 11 6
f 1 6 2
f 2 6 10
f 2 10 5
f 3 5 10
f 3 10 13
f 3 13 8
f 3 8 7
f 4 7 8
f 4 8 14
f 4 14 12
f 4 12 9
f 6 11 12
f 6 12 13
f 6 13 10
f 8 13 14
f 9 12 11
f 12 14 13

