# https://github.com/mikedh/trimesh
v 0.00253223 0.02800639 0.03635226
v 0.00253223 0.02893278 0.03635127
v 0.00160527 0.02800639 0.03639747
v 0.00253223 0.02800639 0.02787707
v 0.00253223 0.02910013 0.03635029
v 0.00089915 0.02910013 0.03642106
v 0.00089915 0.02800639 0.03642794
v -0.00477607 0.02800639 0.02638787
v 0.00253223 0.03038312 0.03125751
v 0.00253223 0.03012962 0.03619006
v -0.00090069 0.02910013 0.03642106
v -0.00090069 0.02800639 0.03642893
v 0.00089915 0.03028177 0.03620481
v -0.00514189 0.02800639 0.02638787
v -0.00514189 0.03023154 0.03040822
v 0.00253223 0.03043072 0.03134008
v 0.00253223 0.03023942 0.03616942
v -0.00269979 0.02910013 0.03634242
v -0.00090069 0.03028177 0.03620481
v -0.00269979 0.03023505 0.03616647
v -0.00269979 0.02800639 0.03634439
v 0.00253223 0.03068831 0.03520218
v 0.00253223 0.03073445 0.03509995
v 0.00089915 0.03077680 0.03509995
v -0.00514189 0.02800639 0.03607112
v -0.00514189 0.03072657 0.03149932
v 0.00253223 0.03045029 0.03140791
v -0.00379351 0.02800639 0.03623528
v -0.00450038 0.03009924 0.03606621
v -0.00514189 0.03003558 0.03602296
v -0.00450038 0.02910013 0.03614878
v -0.00450038 0.02800639 0.03615959
v -0.00090069 0.03077680 0.03509995
v -0.00269979 0.03072979 0.03509995
v -0.00450038 0.03059427 0.03509995
v -0.00514189 0.03051834 0.03514320
v 0.00253223 0.03097014 0.03346723
v -0.00513063 0.02800639 0.03607309
v -0.00514189 0.02910013 0.03606130
v -0.00514189 0.03099000 0.03329914
v 0.00253223 0.03099000 0.03329914
f 1 2 3
f 1 3 7
f 1 7 12
f 1 12 21
f 1 21 28
f 1 28 32
f 1 32 38
f 1 38 25
f 1 25 14
f 1 14 8
f 1 8 4
f 1 4 9
f 1 9 16
f 1 16 27
f 1 27 41
f 1 41 37
f 1 37 23
f 1 23 22
f 1 22 17
f 1 17 10
f 1 10 5
f 1 5 2
f 2 5 3
f 3 6 7
f 3 5 6
f 4 8 9
f 5 10 6
f 6 11 12
f 6 12 7
f 6 10 13
f 6 13 19
f 6 19 11
f 8 14 15
f 8 15 16
f 8 16 9
f 10 17 13
f 11 18 12
f 11 19 20
f 11 20 18
f 12 18 21
f 13 17 22
f 13 22 23
f 13 23 24
f 13 24 33
f 13 33 19
f 14 25 39
f 14 39 30
f 14 30 36
f 14 36 40
f 14 40 26
f 14 26 15
f 15 26 16
f 16 26 27
f 18 28 21
f 18 20 29
f 18 29 30
f 18 30 31
f 18 31 32
f 18 32 28
f 19 33 34
f 19 34 20
f 20 34 35
f 20 35 36
f 20 36 29
f 23 37 24
f 24 37 33
f 25 38 39
f 26 40 41
f 26 41 27
f 29 36 30
f 30 39 31
f 31 39 32
f 32 39 38
f 33 37 40
f 33 40 34
f 34 40 35
f 35 40 36
f 37 41 40

