# https://github.com/mikedh/trimesh
v 0.01422336 0.01936189 -0.01485572
v 0.01830786 0.02001068 -0.02250101
v 0.01830786 0.02043182 -0.01486304
v 0.01455401 0.01945522 -0.01485572
v 0.01422336 0.02770167 -0.01485572
v 0.01422336 0.02000954 -0.02609858
v 0.01529966 0.02001864 -0.02609858
v 0.01709922 0.02005962 -0.02609858
v 0.01830786 0.02002775 -0.02489085
v 0.01830786 0.02001068 -0.02429980
v 0.01830786 0.02623563 -0.01485572
v 0.01713800 0.02055703 -0.01485572
v 0.01830786 0.03071114 -0.02609858
v 0.01709922 0.03096155 -0.02789920
v 0.01422336 0.03096496 -0.02969981
v 0.01830786 0.02725321 -0.01485572
v 0.01422336 0.02010970 -0.02717456
v 0.01830786 0.02014612 -0.02609858
v 0.01422336 0.02023263 -0.02789920
v 0.01830786 0.03097976 -0.02789920
v 0.01529966 0.03099000 -0.02969981
v 0.01422336 0.03091829 -0.03149860
v 0.01529966 0.02032369 -0.02789920
v 0.01830786 0.02032255 -0.02670244
v 0.01422336 0.02052857 -0.02873363
v 0.01709922 0.03098887 -0.02969981
v 0.01830786 0.03074643 -0.02980411
v 0.01529966 0.03081358 -0.03149860
v 0.01422336 0.03042430 -0.03295885
v 0.01422336 0.02072434 -0.02919659
v 0.01529966 0.02081085 -0.02904654
v 0.01704964 0.02060597 -0.02798703
v 0.01830786 0.02065833 -0.02763935
v 0.01830786 0.03035032 -0.03106674
v 0.01700206 0.03045276 -0.03153885
v 0.01529966 0.03031845 -0.03272828
v 0.01422336 0.02901860 -0.03352612
v 0.01422336 0.02113297 -0.02973458
v 0.01641634 0.02093605 -0.02887270
v 0.01830786 0.02089394 -0.02801448
v 0.01830786 0.02905502 -0.03148396
v 0.01633757 0.03009536 -0.03246844
v 0.01422336 0.02729987 -0.03354808
v 0.01529966 0.02909941 -0.03306499
v 0.01422336 0.02200371 -0.03071357
v 0.01761618 0.02113979 -0.02864396
v 0.01422336 0.02284941 -0.03162852
v 0.01830786 0.02131736 -0.02849940
v 0.01830786 0.02797370 -0.03149677
v 0.01731952 0.02909941 -0.03205305
v 0.01641954 0.02909941 -0.03251053
v 0.01529966 0.02729987 -0.03307780
v 0.01636756 0.02580652 -0.03248674
v 0.01422336 0.02550489 -0.03339254
v 0.01644233 0.02729987 -0.03252333
v 0.01422336 0.02328876 -0.03204756
v 0.01755181 0.02300876 -0.03042811
v 0.01830786 0.02264908 -0.02973275
v 0.01830786 0.02729987 -0.03150408
v 0.01734231 0.02729987 -0.03205671
v 0.01830786 0.02634604 -0.03144370
v 0.01830786 0.02553562 -0.03137599
v 0.01702046 0.02532391 -0.03207318
v 0.01619684 0.02460797 -0.03239707
v 0.01547797 0.02532391 -0.03282527
v 0.01422336 0.02491188 -0.03318576
v 0.01422336 0.02411398 -0.03281612
v 0.01499700 0.02428016 -0.03265692
v 0.01830786 0.02414016 -0.03091669
v 0.01830786 0.02333771 -0.03028355
v 0.01830786 0.02434390 -0.03102831
f 1 2 3
f 1 3 4
f 1 4 12
f 1 12 11
f 1 11 16
f 1 16 5
f 1 5 15
f 1 15 22
f 1 22 29
f 1 29 37
f 1 37 43
f 1 43 54
f 1 54 66
f 1 66 67
f 1 67 56
f 1 56 47
f 1 47 45
f 1 45 38
f 1 38 30
f 1 30 25
f 1 25 19
f 1 19 17
f 1 17 6
f 1 6 7
f 1 7 8
f 1 8 9
f 1 9 10
f 1 10 2
f 2 10 9
f 2 9 18
f 2 18 24
f 2 24 33
f 2 33 40
f 2 40 48
f 2 48 58
f 2 58 70
f 2 70 69
f 2 69 71
f 2 71 62
f 2 62 61
f 2 61 59
f 2 59 49
f 2 49 41
f 2 41 34
f 2 34 27
f 2 27 20
f 2 20 13
f 2 13 16
f 2 16 11
f 2 11 3
f 3 11 12
f 3 12 4
f 5 13 14
f 5 14 15
f 5 16 13
f 6 17 7
f 7 17 8
f 8 18 9
f 8 17 19
f 8 19 18
f 13 20 14
f 14 20 21
f 14 21 15
f 15 21 22
f 18 19 23
f 18 23 24
f 19 25 23
f 20 26 21
f 20 27 26
f 21 26 22
f 22 28 29
f 22 26 28
f 23 25 30
f 23 30 31
f 23 31 32
f 23 32 33
f 23 33 24
f 26 27 28
f 27 34 28
f 28 35 36
f 28 36 29
f 28 34 35
f 29 36 37
f 30 38 31
f 31 39 33
f 31 33 32
f 31 38 39
f 33 39 40
f 34 41 42
f 34 42 36
f 34 36 35
f 36 42 37
f 37 42 44
f 37 44 43
f 38 45 39
f 39 46 40
f 39 45 47
f 39 47 46
f 40 46 48
f 41 49 50
f 41 50 42
f 42 50 51
f 42 51 44
f 43 44 52
f 43 52 53
f 43 53 54
f 44 51 55
f 44 55 52
f 46 47 56
f 46 56 57
f 46 57 48
f 48 57 58
f 49 59 50
f 50 60 55
f 50 55 51
f 50 59 60
f 52 55 53
f 53 55 60
f 53 60 61
f 53 61 62
f 53 62 63
f 53 63 64
f 53 64 65
f 53 65 54
f 54 65 64
f 54 64 66
f 56 67 68
f 56 68 57
f 57 68 64
f 57 64 69
f 57 69 70
f 57 70 58
f 59 61 60
f 62 71 64
f 62 64 63
f 64 68 66
f 64 71 69
f 66 68 67

