# https://github.com/mikedh/trimesh
v -0.01418804 0.01972683 -0.02150251
v -0.01418804 0.01981098 -0.01937585
v -0.01418804 0.01998239 -0.02481498
v -0.01119964 0.01458750 -0.01875536
v -0.01128950 0.01473866 -0.01875536
v -0.01418804 0.01992006 -0.01875536
v -0.01418804 0.02807941 -0.02481498
v -0.00918104 0.01725690 -0.02481498
v -0.00969847 0.01306035 -0.01875536
v -0.00974805 0.01310087 -0.01875536
v -0.01418804 0.02757295 -0.01875536
v 0.00163853 0.02798902 -0.01875536
v 0.00163853 0.02798902 -0.02481498
v -0.01418804 0.02798902 -0.02249969
v -0.01350019 0.02798435 -0.02070049
v -0.01170003 0.02798902 -0.01875536
v -0.00862333 0.01699977 -0.02481498
v -0.00917794 0.01368212 -0.01995660
v -0.00809970 0.01234664 -0.01875536
v -0.01350019 0.02790487 -0.01875536
v -0.01418804 0.02788150 -0.02070049
v 0.00163853 0.01230768 -0.01875536
v 0.00163853 0.01648241 -0.02481498
v -0.00803309 0.01682057 -0.02481498
v -0.00629954 0.01216120 -0.01875536
v -0.00726004 0.01558327 -0.02342391
v 0.00163853 0.01304477 -0.01982729
v 0.00163853 0.01591830 -0.02399754
v -0.00450093 0.01647774 -0.02481498
v -0.00629954 0.01652137 -0.02481498
f 1 2 6
f 1 6 11
f 1 11 21
f 1 21 14
f 1 14 7
f 1 7 3
f 1 3 4
f 1 4 5
f 1 5 2
f 2 5 6
f 3 7 13
f 3 13 23
f 3 23 29
f 3 29 30
f 3 30 24
f 3 24 17
f 3 17 8
f 3 8 9
f 3 9 10
f 3 10 4
f 4 10 9
f 4 9 19
f 4 19 25
f 4 25 22
f 4 22 12
f 4 12 16
f 4 16 20
f 4 20 11
f 4 11 6
f 4 6 5
f 7 12 13
f 7 14 15
f 7 15 16
f 7 16 12
f 8 17 18
f 8 18 9
f 9 18 19
f 11 20 21
f 12 22 27
f 12 27 28
f 12 28 23
f 12 23 13
f 14 21 20
f 14 20 15
f 15 20 16
f 17 24 19
f 17 19 18
f 19 24 26
f 19 26 25
f 22 25 27
f 23 28 25
f 23 25 29
f 24 30 26
f 25 26 30
f 25 30 29
f 25 28 27

