# https://github.com/mikedh/trimesh
v 0.00163853 0.01286752 -0.01956760
v 0.00163853 0.01304520 -0.01982745
v 0.00450017 0.01279223 -0.01956760
v 0.00163853 0.02798891 -0.01956760
v 0.00163853 0.01670433 -0.02513956
v 0.00571234 0.01276362 -0.01956760
v 0.01169925 0.02798891 -0.01956760
v 0.01422336 0.02813950 -0.02536366
v 0.00163853 0.02798891 -0.02536366
v 0.00163853 0.01685943 -0.02536366
v 0.00629994 0.01275759 -0.01956760
v 0.01236692 0.02798741 -0.01956760
v 0.01422336 0.02009844 -0.02536366
v 0.01422336 0.02798590 -0.02142397
v 0.00312787 0.01686244 -0.02536366
v 0.00741479 0.01288860 -0.01956760
v 0.00450017 0.01687148 -0.02536366
v 0.00490916 0.01687901 -0.02536366
v 0.00629994 0.01691666 -0.02536366
v 0.00726204 0.01558401 -0.02342389
v 0.01349902 0.02793621 -0.01956760
v 0.01422336 0.01998099 -0.02429988
v 0.01421474 0.02000659 -0.02536366
v 0.01416669 0.02783532 -0.01956760
v 0.01422336 0.02782930 -0.01962434
v 0.00809848 0.01299401 -0.01956760
v 0.00658574 0.01696334 -0.02536366
v 0.00809478 0.01723288 -0.02536366
v 0.01422336 0.01987257 -0.02249967
v 0.01106976 0.01511721 -0.01956760
v 0.01030723 0.01425889 -0.01956760
v 0.00977752 0.01381468 -0.01956760
v 0.00934267 0.01348340 -0.01956760
v 0.00917883 0.01368216 -0.01995680
v 0.00900514 0.01739701 -0.02520537
v 0.00887456 0.01747080 -0.02536366
v 0.01422336 0.02780822 -0.01956760
v 0.00826109 0.01728257 -0.02536366
v 0.01422336 0.01982890 -0.02077379
v 0.01126809 0.01541988 -0.01956760
v 0.01422336 0.01997948 -0.01956760
f 1 2 3
f 1 3 6
f 1 6 11
f 1 11 16
f 1 16 26
f 1 26 33
f 1 33 32
f 1 32 31
f 1 31 30
f 1 30 40
f 1 40 41
f 1 41 37
f 1 37 24
f 1 24 21
f 1 21 12
f 1 12 7
f 1 7 4
f 1 4 9
f 1 9 10
f 1 10 5
f 1 5 2
f 2 5 3
f 3 5 6
f 4 7 8
f 4 8 9
f 5 10 6
f 6 10 11
f 7 12 8
f 8 13 23
f 8 23 36
f 8 36 38
f 8 38 28
f 8 28 27
f 8 27 19
f 8 19 18
f 8 18 17
f 8 17 15
f 8 15 10
f 8 10 9
f 8 12 14
f 8 14 25
f 8 25 37
f 8 37 41
f 8 41 39
f 8 39 29
f 8 29 22
f 8 22 13
f 10 15 11
f 11 15 17
f 11 17 18
f 11 18 19
f 11 19 20
f 11 20 16
f 12 21 14
f 13 22 23
f 14 21 24
f 14 24 25
f 16 20 26
f 19 27 20
f 20 27 28
f 20 28 26
f 22 29 23
f 23 29 30
f 23 30 31
f 23 31 32
f 23 32 33
f 23 33 34
f 23 34 35
f 23 35 36
f 24 37 25
f 26 34 33
f 26 28 38
f 26 38 36
f 26 36 35
f 26 35 34
f 29 39 30
f 30 39 40
f 39 41 40

