# https://github.com/mikedh/trimesh
v -0.00514189 0.01690627 0.00145193
v -0.00514189 0.01690627 0.01641519
v -0.00514189 0.02798891 0.00145193
v 0.01709896 0.01690627 0.00145193
v -0.00514189 0.02798891 0.01641519
v 0.01312863 0.01690627 0.01641519
v 0.01710768 0.02798891 0.00145193
v 0.01710768 0.02216822 0.00145193
v 0.01710768 0.01690627 0.01201233
v 0.01169774 0.02798891 0.01641519
v 0.01709896 0.01690627 0.01288236
v 0.01710768 0.02057553 0.01488019
v 0.01710768 0.02190024 0.01545728
v 0.01506262 0.02046595 0.01641519
v 0.01710768 0.02798891 0.01169157
v 0.01238378 0.02797155 0.01641519
v 0.01710768 0.02369907 0.01556274
v 0.01575519 0.02190024 0.01641519
v 0.01552215 0.02137188 0.01641519
v 0.01710768 0.02786849 0.01349167
v 0.01349887 0.02789344 0.01641519
v 0.01585755 0.02369907 0.01641519
v 0.01710768 0.02370883 0.01556274
v 0.01710768 0.02707648 0.01496368
v 0.01426114 0.02762763 0.01641519
v 0.01584013 0.02549898 0.01641519
v 0.01710768 0.02549898 0.01555688
v 0.01513884 0.02715243 0.01641519
f 1 2 5
f 1 5 3
f 1 3 7
f 1 7 8
f 1 8 4
f 1 4 9
f 1 9 11
f 1 11 6
f 1 6 2
f 2 6 14
f 2 14 19
f 2 19 18
f 2 18 22
f 2 22 26
f 2 26 28
f 2 28 25
f 2 25 21
f 2 21 16
f 2 16 10
f 2 10 5
f 3 5 10
f 3 10 15
f 3 15 7
f 4 8 9
f 6 11 12
f 6 12 13
f 6 13 14
f 7 15 20
f 7 20 24
f 7 24 27
f 7 27 23
f 7 23 17
f 7 17 13
f 7 13 12
f 7 12 9
f 7 9 8
f 9 12 11
f 10 16 15
f 13 17 18
f 13 18 19
f 13 19 14
f 15 16 20
f 16 21 20
f 17 22 18
f 17 23 22
f 20 21 25
f 20 25 24
f 22 23 27
f 22 27 26
f 24 25 28
f 24 28 27
f 26 27 28

