# https://github.com/mikedh/trimesh
v 0.03325337 0.02729909 -0.01485389
v 0.03324313 0.02552980 -0.01485389
v 0.03305000 0.02549933 -0.01530047
v 0.03305877 0.02729909 -0.01530047
v 0.03324313 0.02909993 -0.01485389
v 0.03320216 0.02505429 -0.01485389
v 0.03280273 0.02353200 -0.01547812
v 0.03247207 0.02401948 -0.01634520
v 0.03251304 0.02549933 -0.01643158
v 0.03251889 0.02729909 -0.01644462
v 0.03304707 0.02909993 -0.01530047
v 0.03251450 0.02909993 -0.01643810
v 0.03247354 0.03010318 -0.01635498
v 0.03299879 0.03001504 -0.01485389
v 0.03307341 0.02358532 -0.01485389
v 0.03239599 0.02281928 -0.01619525
v 0.03207850 0.02353200 -0.01700855
v 0.03205363 0.02549933 -0.01733126
v 0.03206094 0.02729909 -0.01734430
v 0.03205655 0.02909993 -0.01733778
v 0.03096801 0.03032080 -0.01857972
v 0.03271934 0.03032080 -0.01530047
v 0.03285687 0.03033822 -0.01485389
v 0.03115675 0.02909993 -0.01888124
v 0.02899137 0.03020873 -0.02184430
v 0.03267983 0.02218817 -0.01485389
v 0.03264765 0.02223931 -0.01499569
v 0.03060224 0.02099776 -0.01800601
v 0.03082902 0.02190090 -0.01838740
v 0.03053932 0.02336334 -0.01971083
v 0.03228919 0.02135793 -0.01485389
v 0.03219262 0.02174421 -0.01547812
v 0.03100166 0.02385844 -0.01902630
v 0.03060224 0.02456354 -0.01980700
v 0.03116260 0.02549933 -0.01890080
v 0.03105434 0.02740464 -0.01907845
v 0.02986630 0.03058849 -0.01906704
v 0.03154008 0.03045247 -0.01701344
v 0.02937763 0.03040350 -0.02070015
v 0.03149912 0.03081591 -0.01530047
v 0.03149912 0.03085834 -0.01485389
v 0.03060809 0.02687472 -0.01981514
v 0.03059639 0.02807492 -0.01979722
v 0.03058175 0.02909993 -0.01978255
v 0.02909086 0.02909993 -0.02196980
v 0.02835200 0.02909993 -0.02287111
v 0.02745220 0.02909993 -0.02393540
v 0.02666944 0.02909993 -0.02483507
v 0.02729711 0.03026967 -0.02375285
v 0.02789844 0.03048512 -0.02246691
v 0.02997311 0.02909993 -0.02070015
v 0.03081878 0.02084433 -0.01710145
v 0.02962928 0.02073879 -0.01872478
v 0.02898259 0.02086936 -0.02004984
v 0.02850270 0.02143519 -0.02124941
v 0.02927960 0.02198142 -0.02066918
v 0.03024232 0.02190090 -0.01928707
v 0.02999652 0.02385844 -0.02052413
v 0.02887432 0.02263539 -0.02169110
v 0.02899137 0.02370066 -0.02184267
v 0.03135573 0.02056251 -0.01485389
v 0.03060809 0.02549933 -0.01981514
v 0.02908208 0.02549933 -0.02196328
v 0.02998189 0.02549933 -0.02071482
v 0.02789844 0.03089860 -0.02070015
v 0.02969805 0.03098239 -0.01710145
v 0.02969805 0.03099000 -0.01530047
v 0.02969805 0.03097912 -0.01485389
v 0.03011357 0.02740464 -0.02052902
v 0.02909379 0.02729909 -0.02197469
v 0.02835932 0.02729909 -0.02287600
v 0.02745951 0.02729909 -0.02394681
v 0.02667529 0.02729909 -0.02484648
v 0.02577110 0.02909993 -0.02575431
v 0.02557944 0.03029904 -0.02556688
v 0.02614565 0.03053952 -0.02433145
v 0.02969805 0.02036991 -0.01710145
v 0.02789844 0.02019037 -0.01890080
v 0.02790137 0.02062453 -0.02066918
v 0.02730296 0.02082149 -0.02191276
v 0.02669285 0.02139710 -0.02311232
v 0.02780627 0.02201624 -0.02240171
v 0.02710983 0.02259730 -0.02351164
v 0.02730003 0.02370066 -0.02373493
v 0.02819984 0.02370066 -0.02274398
v 0.02744927 0.02549933 -0.02392562
v 0.02834907 0.02549933 -0.02286459
v 0.02971561 0.01999233 -0.01485389
v 0.02609883 0.03094430 -0.02250113
v 0.02789844 0.03099000 -0.01890080
v 0.02430069 0.03096715 -0.02429885
v 0.01890041 0.03099000 -0.02789919
v 0.01830786 0.03098021 -0.02789919
v 0.02782529 0.03054932 -0.01485389
v 0.01890041 0.03084528 -0.02609984
v 0.01830786 0.03071144 -0.02609820
v 0.02664603 0.02549933 -0.02482692
v 0.02577696 0.02729909 -0.02575594
v 0.02483180 0.02729909 -0.02665561
v 0.02482155 0.02909993 -0.02665398
v 0.02374325 0.03027075 -0.02730918
v 0.02432556 0.03054060 -0.02613895
v 0.02609883 0.02013923 -0.02070015
v 0.02609591 0.02059951 -0.02250765
v 0.02549458 0.02083345 -0.02364855
v 0.02478059 0.02151244 -0.02484974
v 0.02525756 0.02271264 -0.02524742
v 0.02550043 0.02370066 -0.02548864
v 0.02639877 0.02370066 -0.02463460
v 0.02574623 0.02549933 -0.02572823
v 0.02835054 0.01990093 -0.01485389
v 0.02430069 0.02001518 -0.02070015
v 0.02430069 0.03099000 -0.02250113
v 0.02249962 0.03094539 -0.02609984
v 0.02070002 0.03089099 -0.02789919
v 0.01830786 0.03074627 -0.02980448
v 0.01830786 0.02725339 -0.01485389
v 0.02480253 0.02549933 -0.02662791
v 0.02393199 0.02729909 -0.02748031
v 0.02392175 0.02909993 -0.02747054
v 0.02246597 0.03047968 -0.02790571
v 0.02184416 0.03019893 -0.02897815
v 0.02249962 0.02002063 -0.02250113
v 0.02430069 0.02014794 -0.02250113
v 0.02422900 0.02064956 -0.02426952
v 0.02358085 0.02089874 -0.02532892
v 0.02331896 0.02289762 -0.02694735
v 0.02371399 0.02409783 -0.02726517
v 0.02789844 0.01987591 -0.01485389
v 0.02070002 0.03039588 -0.02937257
v 0.01907159 0.03059283 -0.02987130
v 0.01830786 0.03035019 -0.03106598
v 0.01830786 0.02623599 -0.01485389
v 0.02390273 0.02549933 -0.02743957
v 0.02287710 0.02909993 -0.02837184
v 0.02288588 0.02729909 -0.02837999
v 0.02197730 0.02909993 -0.02907757
v 0.01978705 0.02956783 -0.03058518
v 0.01858585 0.03032842 -0.03096493
v 0.01890041 0.02001083 -0.02429885
v 0.02070002 0.02005327 -0.02429885
v 0.02249962 0.02023281 -0.02429885
v 0.02249962 0.02071811 -0.02566141
v 0.02020403 0.02085195 -0.02718857
v 0.02140377 0.02112181 -0.02688542
v 0.02263130 0.02179318 -0.02661813
v 0.02211922 0.02232201 -0.02733526
v 0.02115358 0.02319794 -0.02853483
v 0.02176954 0.02439815 -0.02892599
v 0.02281858 0.02549933 -0.02834087
v 0.02430069 0.01987373 -0.01485389
v 0.01830786 0.02905532 -0.03148322
v 0.01830786 0.02043193 -0.01486367
v 0.01900868 0.02034815 -0.01485389
v 0.02198608 0.02729909 -0.02908734
v 0.02071026 0.02729909 -0.02998702
v 0.01980607 0.02836871 -0.03060310
v 0.02052298 0.02902050 -0.03009296
v 0.01907159 0.02902050 -0.03104479
v 0.01830786 0.02001083 -0.02429885
v 0.01830786 0.02002716 -0.02489049
v 0.01830786 0.02014685 -0.02609984
v 0.01890041 0.02018820 -0.02609984
v 0.02076293 0.02054945 -0.02621066
v 0.01890041 0.02068329 -0.02747543
v 0.01830786 0.02089330 -0.02801491
v 0.01830786 0.02131658 -0.02849897
v 0.01890041 0.02146783 -0.02837510
v 0.01830786 0.02264953 -0.02973276
v 0.01830786 0.02333832 -0.03028365
v 0.01848782 0.02420882 -0.03088344
v 0.02061223 0.02375942 -0.02924870
v 0.01968756 0.02515331 -0.03052976
v 0.02191877 0.02549933 -0.02903845
v 0.02249962 0.01987373 -0.01485389
v 0.01830786 0.02729909 -0.03150441
v 0.02070002 0.02002607 -0.01485389
v 0.01830786 0.02001083 -0.02250113
v 0.01980899 0.02635242 -0.03060473
v 0.01981046 0.02729909 -0.03060636
v 0.01890041 0.02729909 -0.03116377
v 0.01830786 0.02032203 -0.02670288
v 0.01830786 0.02065826 -0.02763841
v 0.01830786 0.02414026 -0.03091766
v 0.01830786 0.02434483 -0.03102849
v 0.01830786 0.02553524 -0.03137728
v 0.01901307 0.02565058 -0.03099590
v 0.02052591 0.02565058 -0.03002940
v 0.01830786 0.02634589 -0.03144410
f 1 2 3
f 1 3 4
f 1 4 5
f 1 5 14
f 1 14 23
f 1 23 41
f 1 41 68
f 1 68 94
f 1 94 117
f 1 117 133
f 1 133 154
f 1 154 177
f 1 177 175
f 1 175 151
f 1 151 129
f 1 129 111
f 1 111 88
f 1 88 61
f 1 61 31
f 1 31 26
f 1 26 15
f 1 15 6
f 1 6 2
f 2 6 3
f 3 7 8
f 3 8 9
f 3 9 10
f 3 10 4
f 3 6 7
f 4 11 5
f 4 10 12
f 4 12 11
f 5 11 13
f 5 13 14
f 6 15 7
f 7 15 16
f 7 16 8
f 8 16 17
f 8 17 18
f 8 18 9
f 9 18 19
f 9 19 10
f 10 19 20
f 10 20 12
f 11 12 13
f 12 20 13
f 13 21 22
f 13 22 23
f 13 23 14
f 13 20 24
f 13 24 25
f 13 25 21
f 15 26 27
f 15 27 16
f 16 28 29
f 16 29 30
f 16 30 17
f 16 27 31
f 16 31 32
f 16 32 28
f 17 30 33
f 17 33 18
f 18 33 34
f 18 34 35
f 18 35 19
f 19 35 36
f 19 36 20
f 20 36 24
f 21 37 38
f 21 38 22
f 21 25 39
f 21 39 37
f 22 40 23
f 22 38 40
f 23 40 41
f 24 36 42
f 24 42 43
f 24 43 44
f 24 44 25
f 25 45 46
f 25 46 47
f 25 47 48
f 25 48 49
f 25 49 50
f 25 50 39
f 25 44 51
f 25 51 45
f 26 31 27
f 28 52 53
f 28 53 54
f 28 54 55
f 28 55 56
f 28 56 57
f 28 57 29
f 28 32 31
f 28 31 52
f 29 57 30
f 30 58 34
f 30 34 33
f 30 57 59
f 30 59 60
f 30 60 58
f 31 61 52
f 34 62 35
f 34 58 63
f 34 63 64
f 34 64 62
f 35 62 42
f 35 42 36
f 37 40 38
f 37 39 65
f 37 65 40
f 39 50 65
f 40 65 66
f 40 66 41
f 41 66 67
f 41 67 68
f 42 62 69
f 42 69 51
f 42 51 43
f 43 51 44
f 45 51 69
f 45 69 70
f 45 70 71
f 45 71 46
f 46 71 72
f 46 72 47
f 47 72 48
f 48 72 73
f 48 73 74
f 48 74 75
f 48 75 49
f 49 75 76
f 49 76 50
f 50 76 65
f 52 77 53
f 52 61 77
f 53 78 79
f 53 79 54
f 53 77 78
f 54 79 80
f 54 80 55
f 55 80 81
f 55 81 82
f 55 82 59
f 55 59 56
f 56 59 57
f 58 60 63
f 59 82 83
f 59 83 84
f 59 84 85
f 59 85 60
f 60 85 86
f 60 86 87
f 60 87 63
f 61 88 77
f 62 64 69
f 63 70 64
f 63 87 70
f 64 70 69
f 65 76 89
f 65 89 66
f 66 90 67
f 66 89 91
f 66 91 90
f 67 90 113
f 67 113 92
f 67 92 93
f 67 93 68
f 68 93 95
f 68 95 96
f 68 96 94
f 70 87 71
f 71 87 72
f 72 87 86
f 72 86 73
f 73 86 97
f 73 97 98
f 73 98 74
f 74 98 99
f 74 99 100
f 74 100 75
f 75 100 101
f 75 101 102
f 75 102 76
f 76 91 89
f 76 102 91
f 77 88 78
f 78 88 103
f 78 103 79
f 79 103 104
f 79 104 80
f 80 104 105
f 80 105 81
f 81 105 106
f 81 106 107
f 81 107 83
f 81 83 82
f 83 107 108
f 83 108 109
f 83 109 84
f 84 109 110
f 84 110 97
f 84 97 85
f 85 97 86
f 88 111 112
f 88 112 103
f 90 91 113
f 91 102 114
f 91 114 92
f 91 92 113
f 92 114 115
f 92 115 116
f 92 116 93
f 93 116 132
f 93 132 152
f 93 152 176
f 93 176 189
f 93 189 186
f 93 186 185
f 93 185 184
f 93 184 170
f 93 170 169
f 93 169 167
f 93 167 166
f 93 166 183
f 93 183 182
f 93 182 162
f 93 162 161
f 93 161 160
f 93 160 178
f 93 178 153
f 93 153 133
f 93 133 117
f 93 117 96
f 93 96 95
f 94 96 117
f 97 110 98
f 98 110 118
f 98 118 99
f 99 118 119
f 99 119 100
f 100 119 120
f 100 120 101
f 101 121 102
f 101 120 122
f 101 122 121
f 102 121 115
f 102 115 114
f 103 112 123
f 103 123 124
f 103 124 104
f 104 125 105
f 104 124 125
f 105 125 126
f 105 126 106
f 106 126 127
f 106 127 107
f 107 127 128
f 107 128 108
f 108 128 118
f 108 118 109
f 109 118 110
f 111 129 112
f 112 129 123
f 115 121 130
f 115 130 131
f 115 131 116
f 116 131 132
f 118 128 134
f 118 134 119
f 119 135 120
f 119 134 136
f 119 136 135
f 120 135 122
f 121 122 130
f 122 137 138
f 122 138 139
f 122 139 130
f 122 135 137
f 123 129 140
f 123 140 141
f 123 141 124
f 124 141 142
f 124 142 125
f 125 142 143
f 125 143 126
f 126 143 144
f 126 144 145
f 126 145 146
f 126 146 127
f 127 146 147
f 127 147 148
f 127 148 149
f 127 149 128
f 128 149 150
f 128 150 134
f 129 151 140
f 130 139 131
f 131 139 132
f 132 139 152
f 133 153 154
f 134 150 136
f 135 136 155
f 135 155 137
f 136 150 155
f 137 155 156
f 137 156 157
f 137 157 158
f 137 158 138
f 138 157 159
f 138 159 152
f 138 152 139
f 138 158 157
f 140 160 161
f 140 161 141
f 140 151 175
f 140 175 160
f 141 161 162
f 141 162 163
f 141 163 142
f 142 163 164
f 142 164 143
f 143 164 144
f 144 164 165
f 144 165 166
f 144 166 167
f 144 167 168
f 144 168 145
f 145 147 146
f 145 168 169
f 145 169 170
f 145 170 171
f 145 171 147
f 147 171 148
f 148 171 172
f 148 172 149
f 149 172 171
f 149 171 173
f 149 173 174
f 149 174 150
f 150 174 155
f 152 159 176
f 153 177 154
f 153 178 177
f 155 174 179
f 155 179 156
f 156 179 180
f 156 180 157
f 157 180 181
f 157 181 159
f 159 181 176
f 160 175 178
f 162 182 163
f 163 182 183
f 163 183 165
f 163 165 164
f 165 183 166
f 167 169 168
f 170 184 171
f 171 184 185
f 171 185 173
f 173 185 186
f 173 186 187
f 173 187 179
f 173 179 188
f 173 188 174
f 174 188 179
f 175 177 178
f 176 181 179
f 176 179 189
f 179 187 189
f 179 181 180
f 186 189 187

