# https://github.com/mikedh/trimesh
v -0.01027920 -0.00167447 0.01899199
v -0.01677609 -0.00167447 0.01898898
v -0.01027920 -0.00187909 0.01899199
v -0.01027920 -0.00167447 -0.00340647
v -0.01677609 -0.00167447 -0.01162185
v -0.01677609 -0.14908994 0.01898898
v -0.01027920 -0.14908994 0.01898898
v -0.01677609 -0.07351138 -0.01170298
v -0.01677609 -0.07042743 -0.01169998
v -0.01677609 -0.00331145 -0.01163387
v -0.01027920 -0.14729219 -0.00332534
v -0.01677609 -0.14549445 -0.01170599
v -0.01677609 -0.07709226 -0.01170599
v -0.01677609 -0.15049307 0.01849318
v -0.01027920 -0.15049307 0.01849318
v -0.01027920 -0.14908994 -0.00332234
v -0.01677545 -0.14729219 -0.01169998
v -0.01677609 -0.14735065 -0.01169998
v -0.01677609 -0.15099000 0.01709891
v -0.01027920 -0.15099000 0.01709891
v -0.01677609 -0.14908994 -0.01164288
v -0.01027920 -0.15024460 -0.00295274
v -0.01677609 -0.15099000 -0.00597566
v -0.01027920 -0.15099000 0.00052392
v -0.01027920 -0.15034691 -0.00283254
v -0.01598807 -0.15021536 -0.00942828
v -0.01677609 -0.15046383 -0.00986399
v -0.01677609 -0.15087307 -0.00777559
v -0.01027920 -0.15093154 -0.00089739
v -0.01027920 -0.15087307 -0.00127601
v -0.01677609 -0.15050768 -0.00971975
f 1 2 6
f 1 6 3
f 1 3 7
f 1 7 15
f 1 15 20
f 1 20 24
f 1 24 29
f 1 29 30
f 1 30 25
f 1 25 22
f 1 22 16
f 1 16 11
f 1 11 4
f 1 4 5
f 1 5 2
f 2 5 10
f 2 10 9
f 2 9 8
f 2 8 13
f 2 13 12
f 2 12 18
f 2 18 21
f 2 21 27
f 2 27 31
f 2 31 28
f 2 28 23
f 2 23 19
f 2 19 14
f 2 14 6
f 3 6 7
f 4 8 9
f 4 9 10
f 4 10 5
f 4 11 12
f 4 12 13
f 4 13 8
f 6 14 15
f 6 15 7
f 11 16 12
f 12 16 17
f 12 17 18
f 14 19 20
f 14 20 15
f 16 21 18
f 16 18 17
f 16 22 21
f 19 23 24
f 19 24 20
f 21 22 25
f 21 25 26
f 21 26 27
f 23 28 29
f 23 29 24
f 25 27 26
f 25 30 27
f 27 30 31
f 28 31 30
f 28 30 29

