# https://github.com/mikedh/trimesh
v 0.00163853 0.03099000 -0.03329917
v 0.00163853 0.03046581 -0.03146808
v 0.00163853 0.03075703 -0.03509951
v 0.00089802 0.03078545 -0.03509951
v -0.00809970 0.03099000 -0.03329917
v -0.01418804 0.03099000 -0.03081216
v -0.01418804 0.03096444 -0.02970075
v -0.01350019 0.03094880 -0.02970075
v -0.01418804 0.03079112 -0.02888883
v 0.00163853 0.02798979 -0.02481671
v -0.01418804 0.03050275 -0.02800290
v 0.00163853 0.03026267 -0.03619042
v 0.00089802 0.03029108 -0.03621434
v -0.00090060 0.03078545 -0.03509951
v -0.00989987 0.03091898 -0.03329917
v -0.01350019 0.03099000 -0.03149996
v -0.00270076 0.03071725 -0.03509951
v -0.01418804 0.03092182 -0.03149996
v 0.00163853 0.01648184 -0.02481671
v -0.01418804 0.03010358 -0.02736520
v -0.01418804 0.02807928 -0.02481671
v 0.00163853 0.02909924 -0.03639312
v 0.00089802 0.02909924 -0.03643867
v -0.00090060 0.03029108 -0.03621434
v -0.00450093 0.03061072 -0.03509951
v -0.00809970 0.03049422 -0.03481369
v -0.00989987 0.03042463 -0.03461783
v -0.01350019 0.03049422 -0.03311241
v -0.01418804 0.03061639 -0.03249636
v -0.00270076 0.03022290 -0.03615512
v 0.00089802 0.02072647 -0.03099778
v 0.00089802 0.02286583 -0.03410540
v 0.00163853 0.01822487 -0.02734698
v -0.00450093 0.01647758 -0.02481671
v -0.01418804 0.01998209 -0.02481671
v 0.00163853 0.02836055 -0.03640223
v 0.00089802 0.02729939 -0.03644892
v -0.00090060 0.02909924 -0.03643867
v -0.00450093 0.03011636 -0.03607655
v -0.01137005 0.03023569 -0.03439691
v -0.00549551 0.03002971 -0.03601848
v -0.01418804 0.03042746 -0.03296552
v -0.00090060 0.02134583 -0.03189738
v -0.00090060 0.02224647 -0.03320579
v 0.00089802 0.02371959 -0.03509951
v 0.00163853 0.02287720 -0.03409059
v 0.00163853 0.02262007 -0.03372050
v 0.00163853 0.02135436 -0.03188599
v -0.00090060 0.02286583 -0.03410540
v -0.00629954 0.01652162 -0.02481671
v -0.00918104 0.01725746 -0.02481671
v -0.01418804 0.01998352 -0.02498866
v 0.00163853 0.02729939 -0.03640792
v 0.00089802 0.02549954 -0.03625875
v -0.00090060 0.02729939 -0.03644778
v -0.00270076 0.02729939 -0.03634871
v -0.00270076 0.02909924 -0.03632707
v -0.00989987 0.02909924 -0.03505852
v -0.01256913 0.02945438 -0.03418169
v -0.01418804 0.02955098 -0.03339482
v -0.00450093 0.02909924 -0.03616651
v -0.00557142 0.02909924 -0.03603328
v -0.00809970 0.02909924 -0.03547985
v 0.00089802 0.02455203 -0.03603328
v 0.00163853 0.02381334 -0.03516898
v 0.00163853 0.02338007 -0.03467590
v -0.00090060 0.02371959 -0.03509951
v -0.00270076 0.02289282 -0.03406895
v -0.00803309 0.01681994 -0.02481671
v -0.01418804 0.02072363 -0.02920085
v -0.01350019 0.02066965 -0.02929423
v -0.01047152 0.02104183 -0.03054000
v -0.00927090 0.02096796 -0.03064477
v -0.00809970 0.02090546 -0.03073018
v -0.00629954 0.01928318 -0.02868500
v -0.00450093 0.02294822 -0.03399380
v -0.00862333 0.01700034 -0.02481671
v -0.01418804 0.02000909 -0.02610007
v -0.01418804 0.02023211 -0.02790041
v 0.00163853 0.02545125 -0.03621206
v 0.00163853 0.02487734 -0.03609022
v -0.00090060 0.02455345 -0.03603328
v -0.00090060 0.02549954 -0.03625761
v -0.00263260 0.02538590 -0.03614829
v -0.00450093 0.02594844 -0.03609022
v -0.00552030 0.02628654 -0.03602075
v -0.00450093 0.02729939 -0.03618018
v -0.00809970 0.02729939 -0.03553793
v -0.00989987 0.02729939 -0.03508243
v -0.01170003 0.02729939 -0.03452103
v -0.01186115 0.02895292 -0.03444360
v -0.01260321 0.02825401 -0.03420105
v -0.01332204 0.02895292 -0.03391295
v -0.01418804 0.02901685 -0.03354172
v -0.00559001 0.02729939 -0.03603442
v -0.00648854 0.02729939 -0.03586588
v 0.00163853 0.02457334 -0.03601734
v 0.00163853 0.02429207 -0.03570418
v -0.00263260 0.02394403 -0.03526121
v -0.00198658 0.02458328 -0.03601050
v -0.01418804 0.02144527 -0.03010159
v -0.01350019 0.02134867 -0.03019383
v -0.01170003 0.02114696 -0.03040905
v -0.00989987 0.02260729 -0.03264895
v -0.00809970 0.02317551 -0.03373758
v -0.00809970 0.02247234 -0.03283798
v -0.00629954 0.02304198 -0.03388334
v -0.00629954 0.02237716 -0.03298374
v -0.00629954 0.02147652 -0.03173796
v -0.00629954 0.02082875 -0.03083721
v -0.00629954 0.02001193 -0.02970075
v -0.00450093 0.02384601 -0.03499133
v -0.00318721 0.02471113 -0.03596951
v -0.00450093 0.02504923 -0.03589094
v -0.00619265 0.02561177 -0.03574518
v -0.00809970 0.02549954 -0.03534093
v -0.00989987 0.02549954 -0.03489796
v -0.01263110 0.02631921 -0.03421244
v -0.01262490 0.02729939 -0.03421016
v -0.01352498 0.02729939 -0.03385259
v -0.01418804 0.02796990 -0.03355880
v -0.00629954 0.02393977 -0.03484558
v -0.01418804 0.02234590 -0.03111507
v -0.01235999 0.02285873 -0.03233352
v -0.01116091 0.02271951 -0.03249750
v -0.00989987 0.02338575 -0.03354855
v -0.00809970 0.02407473 -0.03466907
v -0.00989987 0.02428355 -0.03445613
v -0.01110514 0.02447674 -0.03429101
v -0.01230577 0.02512026 -0.03409742
v -0.01170313 0.02563166 -0.03438553
v -0.01333908 0.02563166 -0.03379110
v -0.01418804 0.02551091 -0.03340735
v -0.01418804 0.02635330 -0.03348251
v -0.01418804 0.02729939 -0.03356336
v -0.01418804 0.02327495 -0.03206591
v -0.01350019 0.02305334 -0.03213765
v -0.01350019 0.02395256 -0.03296438
v -0.01418804 0.02410314 -0.03282204
f 1 2 10
f 1 10 19
f 1 19 33
f 1 33 48
f 1 48 47
f 1 47 46
f 1 46 66
f 1 66 65
f 1 65 98
f 1 98 97
f 1 97 81
f 1 81 80
f 1 80 53
f 1 53 36
f 1 36 22
f 1 22 12
f 1 12 3
f 1 3 4
f 1 4 14
f 1 14 5
f 1 5 16
f 1 16 6
f 1 6 7
f 1 7 8
f 1 8 9
f 1 9 2
f 2 9 11
f 2 11 10
f 3 12 13
f 3 13 4
f 4 13 24
f 4 24 14
f 5 15 16
f 5 14 17
f 5 17 15
f 6 16 18
f 6 18 29
f 6 29 42
f 6 42 60
f 6 60 94
f 6 94 121
f 6 121 135
f 6 135 134
f 6 134 133
f 6 133 139
f 6 139 136
f 6 136 123
f 6 123 101
f 6 101 70
f 6 70 79
f 6 79 78
f 6 78 52
f 6 52 35
f 6 35 21
f 6 21 20
f 6 20 11
f 6 11 9
f 6 9 7
f 7 9 8
f 10 11 20
f 10 20 21
f 10 21 35
f 10 35 51
f 10 51 77
f 10 77 69
f 10 69 50
f 10 50 34
f 10 34 19
f 12 22 23
f 12 23 13
f 13 23 38
f 13 38 24
f 14 24 17
f 15 17 25
f 15 25 26
f 15 26 27
f 15 27 28
f 15 28 29
f 15 29 18
f 15 18 16
f 17 24 30
f 17 30 25
f 19 31 32
f 19 32 33
f 19 34 31
f 22 36 23
f 23 36 37
f 23 37 38
f 24 38 30
f 25 30 26
f 26 30 39
f 26 39 27
f 27 40 28
f 27 39 41
f 27 41 40
f 28 40 42
f 28 42 29
f 30 38 39
f 31 34 43
f 31 43 44
f 31 44 32
f 32 45 46
f 32 46 47
f 32 47 48
f 32 48 33
f 32 44 49
f 32 49 67
f 32 67 45
f 34 49 44
f 34 44 43
f 34 50 49
f 35 52 51
f 36 53 37
f 37 53 54
f 37 54 83
f 37 83 55
f 37 55 38
f 38 55 56
f 38 56 57
f 38 57 39
f 39 57 41
f 40 58 59
f 40 59 60
f 40 60 42
f 40 41 58
f 41 57 61
f 41 61 62
f 41 62 63
f 41 63 58
f 45 64 65
f 45 65 66
f 45 66 46
f 45 67 64
f 49 50 68
f 49 68 67
f 50 69 70
f 50 70 71
f 50 71 72
f 50 72 73
f 50 73 74
f 50 74 75
f 50 75 76
f 50 76 68
f 51 52 78
f 51 78 79
f 51 79 77
f 53 80 54
f 54 80 81
f 54 81 64
f 54 64 82
f 54 82 83
f 55 83 56
f 56 83 84
f 56 84 85
f 56 85 86
f 56 86 87
f 56 87 61
f 56 61 57
f 58 63 88
f 58 88 89
f 58 89 90
f 58 90 91
f 58 91 59
f 59 91 92
f 59 92 93
f 59 93 94
f 59 94 60
f 61 87 62
f 62 87 95
f 62 95 96
f 62 96 88
f 62 88 63
f 64 81 97
f 64 97 98
f 64 98 65
f 64 67 82
f 67 68 99
f 67 99 100
f 67 100 82
f 68 76 99
f 69 77 70
f 70 101 102
f 70 102 103
f 70 103 71
f 70 77 79
f 71 103 72
f 72 104 105
f 72 105 106
f 72 106 73
f 72 103 104
f 73 106 107
f 73 107 108
f 73 108 74
f 74 108 76
f 74 76 109
f 74 109 110
f 74 110 111
f 74 111 75
f 75 111 76
f 76 112 99
f 76 111 110
f 76 110 109
f 76 108 107
f 76 107 112
f 82 100 83
f 83 100 84
f 84 100 113
f 84 113 85
f 85 113 114
f 85 114 86
f 86 95 87
f 86 114 115
f 86 115 116
f 86 116 88
f 86 88 96
f 86 96 95
f 88 116 117
f 88 117 89
f 89 117 118
f 89 118 90
f 90 118 119
f 90 119 91
f 91 119 92
f 92 119 93
f 93 119 120
f 93 120 121
f 93 121 94
f 99 112 100
f 100 112 122
f 100 122 113
f 101 123 124
f 101 124 102
f 102 124 125
f 102 125 103
f 103 125 104
f 104 125 105
f 105 125 126
f 105 126 127
f 105 127 122
f 105 122 107
f 105 107 106
f 107 122 112
f 113 122 127
f 113 127 128
f 113 128 114
f 114 128 129
f 114 129 116
f 114 116 115
f 116 129 117
f 117 129 130
f 117 130 131
f 117 131 118
f 118 131 130
f 118 130 132
f 118 132 133
f 118 133 134
f 118 134 135
f 118 135 120
f 118 120 119
f 120 135 121
f 123 136 137
f 123 137 124
f 124 137 129
f 124 129 128
f 124 128 126
f 124 126 125
f 126 128 127
f 129 137 138
f 129 138 139
f 129 139 130
f 130 139 133
f 130 133 132
f 136 139 138
f 136 138 137

