# https://github.com/mikedh/trimesh
v 0.01710944 0.00924066 0.00145193
v 0.01710944 0.00924066 0.01272386
v 0.01710944 0.01872528 0.00145193
v 0.03302281 0.00924066 0.00145193
v 0.01710944 0.00924160 0.01281587
v 0.02610564 0.00924066 0.01265396
v 0.01710944 0.01872528 0.01330859
v 0.02302409 0.01882188 0.00145193
v 0.03303338 0.00928286 0.00145193
v 0.03301224 0.00924066 0.00270178
v 0.02789924 0.01882188 0.01333072
v 0.02682449 0.01882188 0.01334703
v 0.02610211 0.01882188 0.01335169
v 0.02302409 0.01882188 0.01335169
v 0.02709053 0.00924066 0.01262019
v 0.03510712 0.01882188 0.00145193
v 0.03302633 0.00930068 0.00270178
v 0.03487631 0.01774708 0.00145193
v 0.03296114 0.00924066 0.00450608
v 0.02711520 0.00924066 0.01261902
v 0.02944089 0.01882188 0.01305583
v 0.03508598 0.01882188 0.00217994
v 0.03457327 0.01649973 0.00270178
v 0.03341394 0.01110139 0.00270178
v 0.03286952 0.00924066 0.00630106
v 0.03495736 0.01829855 0.00270178
v 0.03506836 0.01882188 0.00270178
v 0.02797500 0.00924066 0.01244197
v 0.02800848 0.00924066 0.01243382
v 0.02963646 0.00924066 0.01179550
v 0.02969813 0.00924066 0.01176871
v 0.03149878 0.01882188 0.01197255
v 0.03323776 0.01110139 0.00630106
v 0.03286424 0.00924066 0.00635697
v 0.03497674 0.01882188 0.00397958
v 0.03493446 0.01882188 0.00450142
v 0.03082926 0.00924066 0.01105700
v 0.03189872 0.01882188 0.01172910
v 0.03479703 0.01882188 0.00577922
v 0.03473889 0.01882188 0.00630106
v 0.03425260 0.01710371 0.00742394
v 0.03258938 0.00924066 0.00808556
v 0.03086273 0.00924066 0.01103487
v 0.03270038 0.01882188 0.01117931
v 0.03449222 0.01882188 0.00764759
v 0.03441294 0.01882188 0.00806459
v 0.03434246 0.01843548 0.00805411
v 0.03255238 0.00924066 0.00822533
v 0.03179301 0.00924066 0.00982579
v 0.03193396 0.01110139 0.01016475
v 0.03210486 0.01290020 0.01043150
v 0.03363418 0.01882188 0.00982812
v 0.03427022 0.01882188 0.00859458
v 0.03409404 0.01792716 0.00862370
v 0.03237443 0.00924066 0.00887996
v 0.03182825 0.00924066 0.00977454
v 0.03185292 0.00933445 0.00976755
v 0.03254886 0.01110139 0.00926552
v 0.03271624 0.01290020 0.00953109
v 0.03393547 0.01882188 0.00933773
v 0.03418037 0.01882188 0.00892189
v 0.03244315 0.00995813 0.00908147
f 1 2 5
f 1 5 7
f 1 7 3
f 1 3 8
f 1 8 16
f 1 16 18
f 1 18 9
f 1 9 4
f 1 4 10
f 1 10 19
f 1 19 25
f 1 25 34
f 1 34 42
f 1 42 48
f 1 48 55
f 1 55 56
f 1 56 49
f 1 49 43
f 1 43 37
f 1 37 31
f 1 31 30
f 1 30 29
f 1 29 28
f 1 28 20
f 1 20 15
f 1 15 6
f 1 6 2
f 2 6 5
f 3 7 14
f 3 14 8
f 4 9 10
f 5 6 11
f 5 11 12
f 5 12 13
f 5 13 14
f 5 14 7
f 6 15 11
f 8 14 13
f 8 13 12
f 8 12 11
f 8 11 21
f 8 21 32
f 8 32 38
f 8 38 44
f 8 44 52
f 8 52 60
f 8 60 61
f 8 61 53
f 8 53 46
f 8 46 45
f 8 45 40
f 8 40 39
f 8 39 36
f 8 36 35
f 8 35 27
f 8 27 22
f 8 22 16
f 9 17 10
f 9 18 17
f 10 17 19
f 11 15 20
f 11 20 21
f 16 22 23
f 16 23 18
f 17 18 24
f 17 24 19
f 18 23 24
f 19 24 23
f 19 23 26
f 19 26 27
f 19 27 25
f 20 28 21
f 21 28 29
f 21 29 30
f 21 30 31
f 21 31 32
f 22 27 26
f 22 26 23
f 25 33 34
f 25 27 35
f 25 35 36
f 25 36 33
f 31 37 38
f 31 38 32
f 33 36 39
f 33 39 40
f 33 40 41
f 33 41 34
f 34 41 42
f 37 43 38
f 38 43 44
f 40 45 41
f 41 45 46
f 41 46 47
f 41 47 42
f 42 47 48
f 43 49 50
f 43 50 51
f 43 51 44
f 44 51 52
f 46 53 54
f 46 54 47
f 47 54 48
f 48 54 55
f 49 56 57
f 49 57 50
f 50 57 58
f 50 58 51
f 51 58 59
f 51 59 52
f 52 59 58
f 52 58 60
f 53 61 54
f 54 61 55
f 55 61 62
f 55 62 56
f 56 62 57
f 57 62 58
f 58 62 61
f 58 61 60

