# https://github.com/mikedh/trimesh
v 0.00767010 0.00239114 0.02057214
v 0.00629889 0.00239114 0.02077259
v 0.00767010 -0.00167447 0.01899721
v 0.00767010 0.00239114 -0.00571497
v 0.00449912 0.00239114 0.02082726
v 0.00270011 0.00239114 0.02086110
v 0.00089959 0.00239114 0.02087411
v 0.00629889 -0.00167447 0.01899981
v 0.00767010 -0.00167447 -0.00186744
v 0.00000421 0.00239114 -0.00429102
v 0.00000421 0.00239114 0.02087411
v 0.00000421 -0.00167447 0.01899981
v 0.00072997 -0.00167447 -0.00021180
v 0.00000421 -0.00167407 -0.00021180
v 0.00000421 -0.00167447 0.00947210
f 1 2 3
f 1 3 9
f 1 9 4
f 1 4 10
f 1 10 11
f 1 11 7
f 1 7 6
f 1 6 5
f 1 5 2
f 2 5 3
f 3 5 6
f 3 6 7
f 3 7 8
f 3 8 12
f 3 12 15
f 3 15 13
f 3 13 9
f 4 9 10
f 7 11 12
f 7 12 8
f 9 13 14
f 9 14 10
f 10 14 15
f 10 15 12
f 10 12 11
f 13 15 14

