# https://github.com/mikedh/trimesh
v 0.01422336 0.01936270 -0.01485389
v 0.01422336 0.01996932 -0.01871580
v 0.01830786 0.02043142 -0.01486220
v 0.01455401 0.01945496 -0.01485389
v 0.01422336 0.02770261 -0.01485389
v 0.01430532 0.02002320 -0.01871580
v 0.01422336 0.02756546 -0.01871580
v 0.01713800 0.02055715 -0.01485389
v 0.01519970 0.02061920 -0.01871580
v 0.01830786 0.02060695 -0.01511775
v 0.01830786 0.02623548 -0.01485389
v 0.01830786 0.02725357 -0.01485389
v 0.01422336 0.02768955 -0.01533738
v 0.01503018 0.02718826 -0.01871580
v 0.01570227 0.02190019 -0.01871580
v 0.01830786 0.02111151 -0.01533814
v 0.01830786 0.02709927 -0.01513892
v 0.01524688 0.02707070 -0.01871580
v 0.01583341 0.02369962 -0.01871580
v 0.01830786 0.02190019 -0.01563640
v 0.01830786 0.02707641 -0.01518088
v 0.01533284 0.02683882 -0.01871580
v 0.01830786 0.02369962 -0.01569915
v 0.01830786 0.02236637 -0.01566438
v 0.01579263 0.02549986 -0.01871580
v 0.01830786 0.02549986 -0.01570142
v 0.01577664 0.02555946 -0.01871580
f 1 2 3
f 1 3 4
f 1 4 8
f 1 8 11
f 1 11 12
f 1 12 5
f 1 5 13
f 1 13 7
f 1 7 2
f 2 6 3
f 2 7 14
f 2 14 18
f 2 18 22
f 2 22 27
f 2 27 25
f 2 25 19
f 2 19 15
f 2 15 9
f 2 9 6
f 3 8 4
f 3 6 9
f 3 9 10
f 3 10 16
f 3 16 20
f 3 20 24
f 3 24 23
f 3 23 26
f 3 26 21
f 3 21 17
f 3 17 12
f 3 12 11
f 3 11 8
f 5 12 13
f 7 13 12
f 7 12 14
f 9 15 10
f 10 15 16
f 12 17 18
f 12 18 14
f 15 19 20
f 15 20 16
f 17 21 18
f 18 21 22
f 19 23 24
f 19 24 20
f 19 25 26
f 19 26 23
f 21 26 27
f 21 27 22
f 25 27 26

