# https://github.com/mikedh/trimesh
v 0.03302932 0.00924066 0.00089811 0.79607843 0.97254902 0.47058824
v 0.03301309 0.00924066 0.00275753 0.79607843 0.97254902 0.47058824
v 0.03152922 0.00239114 0.00449884 0.79607843 0.97254902 0.47058824
v 0.03153102 0.00239114 0.00420771 0.79607843 0.97254902 0.47058824
v 0.03153643 0.00239114 0.00240871 0.79607843 0.97254902 0.47058824
v 0.03153643 0.00239114 0.00089811 0.79607843 0.97254902 0.47058824
v 0.03152741 0.00239114 -0.00089814 0.79607843 0.97254902 0.47058824
v 0.03150758 0.00239114 -0.00269987 0.79607843 0.97254902 0.47058824
v 0.03300769 0.00924066 -0.00089814 0.79607843 0.97254902 0.47058824
v 0.03296081 0.00924066 0.00450434 0.79607843 0.97254902 0.47058824
v 0.03239827 0.00660571 0.00534478 0.79607843 0.97254902 0.47058824
v 0.03225583 0.00584674 0.00464716 0.79607843 0.97254902 0.47058824
v 0.03185015 0.00390037 0.00449884 0.79607843 0.97254902 0.47058824
v 0.03149316 0.00239114 0.00600670 0.79607843 0.97254902 0.47058824
v 0.03148054 0.00239114 -0.00449887 0.79607843 0.97254902 0.47058824
v 0.03143005 0.00239114 -0.00629786 0.79607843 0.97254902 0.47058824
v 0.03294638 0.00924066 -0.00269713 0.79607843 0.97254902 0.47058824
v 0.03295900 0.00924066 0.00456201 0.79607843 0.97254902 0.47058824
v 0.03287066 0.00924066 0.00629783 0.79607843 0.97254902 0.47058824
v 0.03216207 0.00570058 0.00629783 0.79607843 0.97254902 0.47058824
v 0.03179606 0.00390037 0.00629783 0.79607843 0.97254902 0.47058824
v 0.03148414 0.00239114 0.00629783 0.79607843 0.97254902 0.47058824
v 0.03242892 0.00823764 -0.00731958 0.79607843 0.97254902 0.47058824
v 0.03271560 0.00924066 -0.00629786 0.79607843 0.97254902 0.47058824
v 0.03284902 0.00924066 -0.00449887 0.79607843 0.97254902 0.47058824
v 0.03285263 0.00924066 -0.00444119 0.79607843 0.97254902 0.47058824
v 0.03115599 0.00239114 -0.00809960 0.79607843 0.97254902 0.47058824
v 0.03286345 0.00924066 0.00635551 0.79607843 0.97254902 0.47058824
v 0.03248301 0.00798353 0.00754202 0.79607843 0.97254902 0.47058824
v 0.03125877 0.00239114 0.00780844 0.79607843 0.97254902 0.47058824
v 0.03251907 0.00924066 -0.00768487 0.79607843 0.97254902 0.47058824
v 0.03075933 0.00239114 -0.00933280 0.79607843 0.97254902 0.47058824
v 0.03228468 0.00924066 -0.00858574 0.79607843 0.97254902 0.47058824
v 0.03258939 0.00924066 0.00808584 0.79607843 0.97254902 0.47058824
v 0.03232795 0.00875591 0.00874227 0.79607843 0.97254902 0.47058824
v 0.03121009 0.00239114 0.00809957 0.79607843 0.97254902 0.47058824
v 0.03027973 0.00239114 -0.01023367 0.79607843 0.97254902 0.47058824
v 0.03155807 0.00924066 -0.00990408 0.79607843 0.97254902 0.47058824
v 0.03255333 0.00924066 0.00822591 0.79607843 0.97254902 0.47058824
v 0.03237483 0.00924066 0.00887959 0.79607843 0.97254902 0.47058824
v 0.03088194 0.00239114 0.00915150 0.79607843 0.97254902 0.47058824
v 0.02940167 0.00239114 -0.01159596 0.79607843 0.97254902 0.47058824
v 0.03077376 0.00924066 -0.01096151 0.79607843 0.97254902 0.47058824
v 0.03183032 0.00924066 0.00977497 0.79607843 0.97254902 0.47058824
v 0.02961081 0.00239114 0.01144213 0.79607843 0.97254902 0.47058824
v 0.03040053 0.00239114 0.01014026 0.79607843 0.97254902 0.47058824
v 0.03078818 0.00239114 0.00938496 0.79607843 0.97254902 0.47058824
v 0.02809989 0.00239114 -0.01242267 0.79607843 0.97254902 0.47058824
v 0.02974244 0.00924066 -0.01163441 0.79607843 0.97254902 0.47058824
v 0.03179426 0.00924066 0.00982441 0.79607843 0.97254902 0.47058824
v 0.03086391 0.00924066 0.01103564 0.79607843 0.97254902 0.47058824
v 0.02943232 0.00239114 0.01160967 0.79607843 0.97254902 0.47058824
v 0.02789796 0.00239114 -0.01254901 0.79607843 0.97254902 0.47058824
v 0.02970277 0.00924066 -0.01165913 0.79607843 0.97254902 0.47058824
v 0.03083145 0.00924066 0.01105761 0.79607843 0.97254902 0.47058824
v 0.02789796 0.00239114 0.01258744 0.79607843 0.97254902 0.47058824
v 0.02718757 0.00239114 -0.01286212 0.79607843 0.97254902 0.47058824
v 0.02797548 0.00924066 -0.01240070 0.79607843 0.97254902 0.47058824
v 0.02969916 0.00924066 0.01176897 0.79607843 0.97254902 0.47058824
v 0.02800794 0.00924066 0.01243363 0.79607843 0.97254902 0.47058824
v 0.02609134 0.00239114 0.01319443 0.79607843 0.97254902 0.47058824
v 0.02963786 0.00924066 0.01179643 0.79607843 0.97254902 0.47058824
v 0.02599939 0.00239114 -0.01319995 0.79607843 0.97254902 0.47058824
v 0.02710463 0.00924066 -0.01260944 0.79607843 0.97254902 0.47058824
v 0.02797548 0.00924066 0.01244187 0.79607843 0.97254902 0.47058824
v 0.01460977 0.00239114 0.01458693 0.79607843 0.97254902 0.47058824
v 0.02711365 0.00924066 0.01262040 0.79607843 0.97254902 0.47058824
v 0.02429915 0.00239114 -0.01331256 0.79607843 0.97254902 0.47058824
v 0.01460977 0.00924066 -0.01347186 0.79607843 0.97254902 0.47058824
v 0.02708119 0.00924066 -0.01261493 0.79607843 0.97254902 0.47058824
v 0.01460977 0.00924066 0.01394699 0.79607843 0.97254902 0.47058824
v 0.01460977 0.00239114 -0.01015951 0.79607843 0.97254902 0.47058824
v 0.02249974 0.00239114 -0.01331805 0.79607843 0.97254902 0.47058824
v 0.02045333 0.00239114 -0.01331256 0.79607843 0.97254902 0.47058824
v 0.01460977 0.00818668 -0.01327685 0.79607843 0.97254902 0.47058824
v 0.01460977 0.00308440 -0.01069234 0.79607843 0.97254902 0.47058824
v 0.01548603 0.00239114 -0.01092031 0.79607843 0.97254902 0.47058824
v 0.01925613 0.00239114 -0.01295276 0.79607843 0.97254902 0.47058824
v 0.01914074 0.00239114 -0.01291156 0.79607843 0.97254902 0.47058824
v 0.01460977 0.00675389 -0.01276599 0.79607843 0.97254902 0.47058824
v 0.01460977 0.00444881 -0.01167561 0.79607843 0.97254902 0.47058824
v 0.01574386 0.00239114 -0.01109059 0.79607843 0.97254902 0.47058824
v 0.01823202 0.00239114 -0.01248035 0.79607843 0.97254902 0.47058824
v 0.01460977 0.00600363 -0.01246112 0.79607843 0.97254902 0.47058824
v 0.01677699 0.00239114 -0.01176625 0.79607843 0.97254902 0.47058824
f 1 2 3
f 1 3 4
f 1 4 5
f 1 5 6
f 1 6 7
f 1 7 8
f 1 8 9
f 1 9 17
f 1 17 26
f 1 26 25
f 1 25 24
f 1 24 31
f 1 31 33
f 1 33 38
f 1 38 43
f 1 43 49
f 1 49 54
f 1 54 58
f 1 58 64
f 1 64 70
f 1 70 69
f 1 69 71
f 1 71 67
f 1 67 65
f 1 65 60
f 1 60 62
f 1 62 59
f 1 59 55
f 1 55 51
f 1 51 50
f 1 50 44
f 1 44 40
f 1 40 39
f 1 39 34
f 1 34 28
f 1 28 19
f 1 19 18
f 1 18 10
f 1 10 2
f 2 10 11
f 2 11 12
f 2 12 13
f 2 13 3
f 3 13 14
f 3 14 22
f 3 22 30
f 3 30 36
f 3 36 41
f 3 41 47
f 3 47 46
f 3 46 45
f 3 45 52
f 3 52 56
f 3 56 61
f 3 61 66
f 3 66 72
f 3 72 77
f 3 77 82
f 3 82 85
f 3 85 83
f 3 83 79
f 3 79 78
f 3 78 74
f 3 74 73
f 3 73 68
f 3 68 63
f 3 63 57
f 3 57 53
f 3 53 48
f 3 48 42
f 3 42 37
f 3 37 32
f 3 32 27
f 3 27 16
f 3 16 15
f 3 15 8
f 3 8 7
f 3 7 6
f 3 6 5
f 3 5 4
f 8 15 9
f 9 15 16
f 9 16 17
f 10 18 11
f 11 14 13
f 11 13 12
f 11 18 19
f 11 19 20
f 11 20 21
f 11 21 22
f 11 22 14
f 16 23 24
f 16 24 25
f 16 25 26
f 16 26 17
f 16 27 23
f 19 28 29
f 19 29 20
f 20 29 21
f 21 29 22
f 22 29 30
f 23 31 24
f 23 27 31
f 27 32 33
f 27 33 31
f 28 34 29
f 29 34 35
f 29 35 36
f 29 36 30
f 32 37 33
f 33 37 38
f 34 39 35
f 35 39 40
f 35 40 41
f 35 41 36
f 37 42 38
f 38 42 43
f 40 44 45
f 40 45 46
f 40 46 47
f 40 47 41
f 42 48 49
f 42 49 43
f 44 50 45
f 45 51 52
f 45 50 51
f 48 53 49
f 49 53 54
f 51 55 52
f 52 55 56
f 53 57 54
f 54 57 58
f 55 59 56
f 56 60 61
f 56 59 62
f 56 62 60
f 57 63 58
f 58 63 64
f 60 65 61
f 61 65 67
f 61 67 66
f 63 68 69
f 63 69 70
f 63 70 64
f 66 67 71
f 66 71 69
f 66 69 75
f 66 75 80
f 66 80 84
f 66 84 81
f 66 81 76
f 66 76 72
f 68 73 69
f 69 73 74
f 69 74 75
f 72 76 77
f 74 78 75
f 75 78 79
f 75 79 80
f 76 81 77
f 77 81 82
f 79 83 84
f 79 84 80
f 81 84 85
f 81 85 82
f 83 85 84

