# https://github.com/mikedh/trimesh
v 0.01422336 0.01982866 -0.02077455
v 0.01422336 0.01987345 -0.02250082
v 0.01830786 0.02001111 -0.02430114
v 0.01830786 0.02001111 -0.02250082
v 0.01422336 0.01994446 -0.01894665
v 0.01830786 0.02002750 -0.02489205
v 0.01422336 0.02001002 -0.02610000
v 0.01529966 0.02001875 -0.02610000
v 0.01830786 0.02033887 -0.02124060
v 0.01422336 0.01996960 -0.01871580
v 0.01709922 0.02006028 -0.02610000
v 0.01830786 0.02014658 -0.02610000
v 0.01422336 0.02010944 -0.02717583
v 0.01830786 0.02052460 -0.02062646
v 0.01430532 0.02002313 -0.01871580
v 0.01422336 0.02756490 -0.01871580
v 0.01422336 0.02023180 -0.02789886
v 0.01529966 0.02032358 -0.02789886
v 0.01830786 0.02032248 -0.02670253
v 0.01830786 0.02190010 -0.02001523
v 0.01519970 0.02061965 -0.01871580
v 0.01503018 0.02718798 -0.01871580
v 0.01830786 0.02721092 -0.02060178
v 0.01830786 0.03023179 -0.02490657
v 0.01830786 0.03071141 -0.02610000
v 0.01422336 0.03050492 -0.02799324
v 0.01422336 0.02052788 -0.02873369
v 0.01529966 0.02081084 -0.02904729
v 0.01704964 0.02060545 -0.02798598
v 0.01830786 0.02065789 -0.02763898
v 0.01830786 0.02370060 -0.01989472
v 0.01570227 0.02190010 -0.01871580
v 0.01524688 0.02707108 -0.01871580
v 0.01830786 0.02556556 -0.01994844
v 0.01830786 0.03098017 -0.02789886
v 0.01709922 0.03096159 -0.02789886
v 0.01422336 0.03096488 -0.02969918
v 0.01422336 0.02072453 -0.02919538
v 0.01422336 0.02113205 -0.02973403
v 0.01641634 0.02093649 -0.02887307
v 0.01830786 0.02089388 -0.02801501
v 0.01830786 0.02384482 -0.01989617
v 0.01583341 0.02370060 -0.01871580
v 0.01533284 0.02683837 -0.01871580
v 0.01830786 0.02549892 -0.01992521
v 0.01529966 0.03099000 -0.02969918
v 0.01830786 0.03074637 -0.02980517
v 0.01709922 0.03098891 -0.02969918
v 0.01422336 0.03091899 -0.03149950
v 0.01422336 0.02200390 -0.03071403
v 0.01761618 0.02114079 -0.02864512
v 0.01422336 0.02284952 -0.03162726
v 0.01830786 0.02131669 -0.02849994
v 0.01579263 0.02549892 -0.01871580
v 0.01577664 0.02555901 -0.01871580
v 0.01830786 0.03034978 -0.03106684
v 0.01529966 0.03081410 -0.03149950
v 0.01422336 0.03042407 -0.03295862
v 0.01755181 0.02300794 -0.03042802
v 0.01422336 0.02328872 -0.03204685
v 0.01830786 0.02264958 -0.02973403
v 0.01830786 0.02905512 -0.03148353
v 0.01633757 0.03009522 -0.03246934
v 0.01529966 0.03031918 -0.03272778
v 0.01700206 0.03045248 -0.03153870
v 0.01422336 0.02901907 -0.03352630
v 0.01830786 0.02333788 -0.03028428
v 0.01422336 0.02411358 -0.03281634
v 0.01499700 0.02428074 -0.03265663
v 0.01619684 0.02460741 -0.03239820
v 0.01830786 0.02413980 -0.03091730
v 0.01830786 0.02797351 -0.03149659
v 0.01731952 0.02909992 -0.03205266
v 0.01641954 0.02909992 -0.03251145
v 0.01529966 0.02909992 -0.03306606
v 0.01422336 0.02729942 -0.03354663
v 0.01422336 0.02491113 -0.03318656
v 0.01422336 0.02550438 -0.03339273
v 0.01547797 0.02532520 -0.03282505
v 0.01636756 0.02580701 -0.03248677
v 0.01702046 0.02532520 -0.03207298
v 0.01830786 0.02553497 -0.03137754
v 0.01830786 0.02434411 -0.03102764
v 0.01830786 0.02729942 -0.03150385
v 0.01734231 0.02729942 -0.03205701
v 0.01644233 0.02729942 -0.03252451
v 0.01529966 0.02729942 -0.03307767
v 0.01830786 0.02634564 -0.03144432
f 1 2 3
f 1 3 4
f 1 4 5
f 1 5 10
f 1 10 16
f 1 16 26
f 1 26 37
f 1 37 49
f 1 49 58
f 1 58 66
f 1 66 76
f 1 76 78
f 1 78 77
f 1 77 68
f 1 68 60
f 1 60 52
f 1 52 50
f 1 50 39
f 1 39 38
f 1 38 27
f 1 27 17
f 1 17 13
f 1 13 7
f 1 7 2
f 2 6 3
f 2 7 8
f 2 8 6
f 3 6 12
f 3 12 19
f 3 19 30
f 3 30 41
f 3 41 53
f 3 53 61
f 3 61 67
f 3 67 71
f 3 71 83
f 3 83 82
f 3 82 88
f 3 88 84
f 3 84 72
f 3 72 62
f 3 62 56
f 3 56 47
f 3 47 35
f 3 35 25
f 3 25 24
f 3 24 23
f 3 23 34
f 3 34 45
f 3 45 42
f 3 42 31
f 3 31 20
f 3 20 14
f 3 14 9
f 3 9 4
f 4 9 10
f 4 10 5
f 6 8 11
f 6 11 12
f 7 13 8
f 8 13 11
f 9 14 10
f 10 14 15
f 10 15 21
f 10 21 32
f 10 32 43
f 10 43 54
f 10 54 55
f 10 55 44
f 10 44 33
f 10 33 22
f 10 22 16
f 11 13 17
f 11 17 12
f 12 17 18
f 12 18 19
f 14 20 21
f 14 21 15
f 16 22 23
f 16 23 24
f 16 24 25
f 16 25 26
f 17 27 18
f 18 27 28
f 18 28 29
f 18 29 30
f 18 30 19
f 20 31 32
f 20 32 21
f 22 33 23
f 23 33 34
f 25 35 36
f 25 36 37
f 25 37 26
f 27 38 28
f 28 38 39
f 28 39 40
f 28 40 30
f 28 30 29
f 30 40 41
f 31 42 43
f 31 43 32
f 33 44 45
f 33 45 34
f 35 46 36
f 35 47 48
f 35 48 46
f 36 46 37
f 37 46 49
f 39 50 40
f 40 51 41
f 40 50 52
f 40 52 51
f 41 51 53
f 42 45 54
f 42 54 43
f 44 55 45
f 45 55 54
f 46 48 49
f 47 56 57
f 47 57 48
f 48 57 49
f 49 57 58
f 51 59 53
f 51 52 60
f 51 60 59
f 53 59 61
f 56 62 63
f 56 63 64
f 56 64 65
f 56 65 57
f 57 65 64
f 57 64 58
f 58 64 66
f 59 67 61
f 59 60 68
f 59 68 69
f 59 69 70
f 59 70 71
f 59 71 67
f 62 72 73
f 62 73 63
f 63 73 74
f 63 74 75
f 63 75 66
f 63 66 64
f 66 75 76
f 68 77 69
f 69 77 70
f 70 77 78
f 70 78 79
f 70 79 80
f 70 80 81
f 70 81 82
f 70 82 83
f 70 83 71
f 72 84 73
f 73 85 86
f 73 86 74
f 73 84 85
f 74 86 75
f 75 87 76
f 75 86 87
f 76 87 80
f 76 80 78
f 78 80 79
f 80 86 85
f 80 85 88
f 80 88 82
f 80 82 81
f 80 87 86
f 84 88 85

