# https://github.com/mikedh/trimesh
v 0.01422336 0.02729987 -0.03354808 0.74901961 0.32156863 0.36862745
v 0.01422336 0.02901860 -0.03352612 0.74901961 0.32156863 0.36862745
v 0.01530012 0.02909941 -0.03306499 0.74901961 0.32156863 0.36862745
v 0.01530012 0.02729987 -0.03307780 0.74901961 0.32156863 0.36862745
v 0.01636943 0.02580652 -0.03248674 0.74901961 0.32156863 0.36862745
v 0.01422336 0.02550489 -0.03339254 0.74901961 0.32156863 0.36862745
v 0.01422336 0.03042430 -0.03295885 0.74901961 0.32156863 0.36862745
v 0.01530012 0.03031845 -0.03272828 0.74901961 0.32156863 0.36862745
v 0.01633776 0.03009536 -0.03246844 0.74901961 0.32156863 0.36862745
v 0.01642159 0.02909941 -0.03251053 0.74901961 0.32156863 0.36862745
v 0.01644395 0.02729987 -0.03252333 0.74901961 0.32156863 0.36862745
v 0.01734373 0.02729987 -0.03205671 0.74901961 0.32156863 0.36862745
v 0.01901290 0.02565058 -0.03099721 0.74901961 0.32156863 0.36862745
v 0.01702145 0.02532391 -0.03207318 0.74901961 0.32156863 0.36862745
v 0.01619804 0.02460797 -0.03239707 0.74901961 0.32156863 0.36862745
v 0.01547896 0.02532391 -0.03282527 0.74901961 0.32156863 0.36862745
v 0.01422336 0.02491188 -0.03318576 0.74901961 0.32156863 0.36862745
v 0.01422336 0.03091829 -0.03149860 0.74901961 0.32156863 0.36862745
v 0.01530012 0.03081358 -0.03149860 0.74901961 0.32156863 0.36862745
v 0.01700282 0.03045276 -0.03153885 0.74901961 0.32156863 0.36862745
v 0.01858629 0.03032755 -0.03096610 0.74901961 0.32156863 0.36862745
v 0.01978600 0.02956836 -0.03058548 0.74901961 0.32156863 0.36862745
v 0.01732137 0.02909941 -0.03205305 0.74901961 0.32156863 0.36862745
v 0.01890112 0.02729987 -0.03116373 0.74901961 0.32156863 0.36862745
v 0.01980836 0.02635173 -0.03060378 0.74901961 0.32156863 0.36862745
v 0.01968727 0.02515318 -0.03053058 0.74901961 0.32156863 0.36862745
v 0.01499833 0.02428016 -0.03265692 0.74901961 0.32156863 0.36862745
v 0.01848756 0.02420845 -0.03088375 0.74901961 0.32156863 0.36862745
v 0.01755238 0.02300876 -0.03042811 0.74901961 0.32156863 0.36862745
v 0.01422336 0.02411398 -0.03281612 0.74901961 0.32156863 0.36862745
v 0.01422336 0.03096496 -0.02969981 0.74901961 0.32156863 0.36862745
v 0.01530012 0.03099000 -0.02969981 0.74901961 0.32156863 0.36862745
v 0.01709969 0.03098887 -0.02969981 0.74901961 0.32156863 0.36862745
v 0.02070069 0.03089098 -0.02789920 0.74901961 0.32156863 0.36862745
v 0.01907251 0.03059276 -0.02987182 0.74901961 0.32156863 0.36862745
v 0.02070069 0.03039585 -0.02937226 0.74901961 0.32156863 0.36862745
v 0.02184452 0.03019893 -0.02897883 0.74901961 0.32156863 0.36862745
v 0.02052371 0.02902087 -0.03009324 0.74901961 0.32156863 0.36862745
v 0.01980650 0.02836867 -0.03060195 0.74901961 0.32156863 0.36862745
v 0.01907251 0.02902087 -0.03104478 0.74901961 0.32156863 0.36862745
v 0.02197678 0.02909941 -0.02907765 0.74901961 0.32156863 0.36862745
v 0.01981022 0.02729987 -0.03060561 0.74901961 0.32156863 0.36862745
v 0.02052558 0.02565058 -0.03002919 0.74901961 0.32156863 0.36862745
v 0.02071001 0.02729987 -0.02998710 0.74901961 0.32156863 0.36862745
v 0.02198610 0.02729987 -0.02908680 0.74901961 0.32156863 0.36862745
v 0.02191903 0.02549920 -0.02903922 0.74901961 0.32156863 0.36862745
v 0.02177000 0.02439854 -0.02892577 0.74901961 0.32156863 0.36862745
v 0.01422336 0.02328876 -0.03204756 0.74901961 0.32156863 0.36862745
v 0.02061313 0.02375885 -0.02924966 0.74901961 0.32156863 0.36862745
v 0.02115338 0.02319771 -0.02853417 0.74901961 0.32156863 0.36862745
v 0.02212023 0.02232241 -0.02733559 0.74901961 0.32156863 0.36862745
v 0.02140301 0.02112273 -0.02688544 0.74901961 0.32156863 0.36862745
v 0.01890112 0.02146874 -0.02837497 0.74901961 0.32156863 0.36862745
v 0.01761758 0.02113979 -0.02864396 0.74901961 0.32156863 0.36862745
v 0.01422336 0.02770167 -0.01485572 0.74901961 0.32156863 0.36862745
v 0.02969854 0.03097976 -0.01485572 0.74901961 0.32156863 0.36862745
v 0.01890112 0.03099000 -0.02789920 0.74901961 0.32156863 0.36862745
v 0.02969854 0.03099000 -0.01530038 0.74901961 0.32156863 0.36862745
v 0.02429797 0.03096724 -0.02429980 0.74901961 0.32156863 0.36862745
v 0.02250026 0.03094562 -0.02609858 0.74901961 0.32156863 0.36862745
v 0.02432405 0.03054040 -0.02613884 0.74901961 0.32156863 0.36862745
v 0.02246673 0.03048008 -0.02790469 0.74901961 0.32156863 0.36862745
v 0.02374096 0.03027065 -0.02730997 0.74901961 0.32156863 0.36862745
v 0.02391980 0.02909941 -0.02747100 0.74901961 0.32156863 0.36862745
v 0.02287843 0.02909941 -0.02837131 0.74901961 0.32156863 0.36862745
v 0.02288588 0.02729987 -0.02838046 0.74901961 0.32156863 0.36862745
v 0.02281882 0.02549920 -0.02834020 0.74901961 0.32156863 0.36862745
v 0.02371488 0.02409805 -0.02726422 0.74901961 0.32156863 0.36862745
v 0.02331994 0.02289722 -0.02694765 0.74901961 0.32156863 0.36862745
v 0.01422336 0.02284941 -0.03162852 0.74901961 0.32156863 0.36862745
v 0.02263253 0.02179314 -0.02661827 0.74901961 0.32156863 0.36862745
v 0.02358075 0.02089849 -0.02532820 0.74901961 0.32156863 0.36862745
v 0.02020329 0.02085183 -0.02718920 0.74901961 0.32156863 0.36862745
v 0.01641786 0.02093605 -0.02887270 0.74901961 0.32156863 0.36862745
v 0.01422336 0.01936189 -0.01485572 0.74901961 0.32156863 0.36862745
v 0.03149811 0.03085796 -0.01485572 0.74901961 0.32156863 0.36862745
v 0.02789897 0.03099000 -0.01890161 0.74901961 0.32156863 0.36862745
v 0.02969854 0.03098317 -0.01710100 0.74901961 0.32156863 0.36862745
v 0.02609940 0.03094447 -0.02250101 0.74901961 0.32156863 0.36862745
v 0.02614597 0.03053926 -0.02433091 0.74901961 0.32156863 0.36862745
v 0.02557778 0.03029910 -0.02556608 0.74901961 0.32156863 0.36862745
v 0.02481958 0.02909941 -0.02665487 0.74901961 0.32156863 0.36862745
v 0.02392911 0.02729987 -0.02748015 0.74901961 0.32156863 0.36862745
v 0.02390117 0.02549920 -0.02743989 0.74901961 0.32156863 0.36862745
v 0.02480095 0.02549920 -0.02662742 0.74901961 0.32156863 0.36862745
v 0.02549954 0.02370081 -0.02548740 0.74901961 0.32156863 0.36862745
v 0.02525550 0.02271282 -0.02524768 0.74901961 0.32156863 0.36862745
v 0.02477860 0.02151314 -0.02484876 0.74901961 0.32156863 0.36862745
v 0.01422336 0.02200371 -0.03071357 0.74901961 0.32156863 0.36862745
v 0.02549209 0.02083362 -0.02365018 0.74901961 0.32156863 0.36862745
v 0.02422718 0.02064922 -0.02426869 0.74901961 0.32156863 0.36862745
v 0.02250026 0.02071865 -0.02566124 0.74901961 0.32156863 0.36862745
v 0.01890112 0.02068337 -0.02747466 0.74901961 0.32156863 0.36862745
v 0.02076217 0.02054905 -0.02621021 0.74901961 0.32156863 0.36862745
v 0.01530012 0.02081085 -0.02904654 0.74901961 0.32156863 0.36862745
v 0.01422336 0.02113297 -0.02973458 0.74901961 0.32156863 0.36862745
v 0.01422336 0.02000954 -0.02609858 0.74901961 0.32156863 0.36862745
v 0.01530012 0.02001864 -0.02609858 0.74901961 0.32156863 0.36862745
v 0.01709969 0.02005962 -0.02609858 0.74901961 0.32156863 0.36862745
v 0.02070069 0.02005279 -0.02429980 0.74901961 0.32156863 0.36862745
v 0.02250026 0.02001978 -0.02250101 0.74901961 0.32156863 0.36862745
v 0.02789897 0.01987637 -0.01485572 0.74901961 0.32156863 0.36862745
v 0.03285803 0.03033780 -0.01485572 0.74901961 0.32156863 0.36862745
v 0.03149811 0.03081585 -0.01530038 0.74901961 0.32156863 0.36862745
v 0.02789897 0.03089895 -0.02070040 0.74901961 0.32156863 0.36862745
v 0.02789711 0.03048463 -0.02246807 0.74901961 0.32156863 0.36862745
v 0.02729725 0.03026951 -0.02375449 0.74901961 0.32156863 0.36862745
v 0.02576966 0.02909941 -0.02575456 0.74901961 0.32156863 0.36862745
v 0.02666945 0.02909941 -0.02483413 0.74901961 0.32156863 0.36862745
v 0.02482889 0.02729987 -0.02665487 0.74901961 0.32156863 0.36862745
v 0.02577525 0.02729987 -0.02575456 0.74901961 0.32156863 0.36862745
v 0.02574544 0.02549920 -0.02572711 0.74901961 0.32156863 0.36862745
v 0.02639933 0.02370081 -0.02463467 0.74901961 0.32156863 0.36862745
v 0.02710909 0.02259786 -0.02351294 0.74901961 0.32156863 0.36862745
v 0.02597458 0.02205493 -0.02418268 0.74901961 0.32156863 0.36862745
v 0.02669366 0.02139703 -0.02311220 0.74901961 0.32156863 0.36862745
v 0.02609567 0.02059914 -0.02250833 0.74901961 0.32156863 0.36862745
v 0.02730284 0.02082223 -0.02191178 0.74901961 0.32156863 0.36862745
v 0.02429797 0.02014726 -0.02250101 0.74901961 0.32156863 0.36862745
v 0.02250026 0.02023377 -0.02429980 0.74901961 0.32156863 0.36862745
v 0.01890112 0.02018824 -0.02609858 0.74901961 0.32156863 0.36862745
v 0.01530012 0.02032369 -0.02789920 0.74901961 0.32156863 0.36862745
v 0.01705125 0.02060597 -0.02798703 0.74901961 0.32156863 0.36862745
v 0.01422336 0.02072434 -0.02919659 0.74901961 0.32156863 0.36862745
v 0.01422336 0.02010970 -0.02717456 0.74901961 0.32156863 0.36862745
v 0.01422336 0.02023263 -0.02789920 0.74901961 0.32156863 0.36862745
v 0.02609940 0.02013929 -0.02070040 0.74901961 0.32156863 0.36862745
v 0.02429797 0.02001523 -0.02070040 0.74901961 0.32156863 0.36862745
v 0.02834979 0.01990141 -0.01485572 0.74901961 0.32156863 0.36862745
v 0.03299775 0.03001455 -0.01485572 0.74901961 0.32156863 0.36862745
v 0.03247241 0.03010219 -0.01635623 0.74901961 0.32156863 0.36862745
v 0.03271831 0.03032073 -0.01530038 0.74901961 0.32156863 0.36862745
v 0.03154095 0.03045162 -0.01701316 0.74901961 0.32156863 0.36862745
v 0.02986620 0.03058821 -0.01906813 0.74901961 0.32156863 0.36862745
v 0.02937812 0.03040381 -0.02070040 0.74901961 0.32156863 0.36862745
v 0.02899063 0.03020804 -0.02184408 0.74901961 0.32156863 0.36862745
v 0.02667504 0.02729987 -0.02484693 0.74901961 0.32156863 0.36862745
v 0.02745187 0.02909941 -0.02393748 0.74901961 0.32156863 0.36862745
v 0.02745932 0.02729987 -0.02394846 0.74901961 0.32156863 0.36862745
v 0.02664523 0.02549920 -0.02482681 0.74901961 0.32156863 0.36862745
v 0.02729911 0.02370081 -0.02373619 0.74901961 0.32156863 0.36862745
v 0.02887513 0.02263543 -0.02169037 0.74901961 0.32156863 0.36862745
v 0.02780582 0.02201623 -0.02240220 0.74901961 0.32156863 0.36862745
v 0.02850255 0.02143573 -0.02124936 0.74901961 0.32156863 0.36862745
v 0.02790083 0.02062532 -0.02066929 0.74901961 0.32156863 0.36862745
v 0.02898318 0.02086890 -0.02004895 0.74901961 0.32156863 0.36862745
v 0.01422336 0.02052857 -0.02873363 0.74901961 0.32156863 0.36862745
v 0.02789897 0.02019052 -0.01890161 0.74901961 0.32156863 0.36862745
v 0.02971530 0.01999246 -0.01485572 0.74901961 0.32156863 0.36862745
v 0.03324365 0.02909941 -0.01485572 0.74901961 0.32156863 0.36862745
v 0.03096718 0.03032073 -0.01857955 0.74901961 0.32156863 0.36862745
v 0.03304618 0.02909941 -0.01530038 0.74901961 0.32156863 0.36862745
v 0.03251339 0.02909941 -0.01643858 0.74901961 0.32156863 0.36862745
v 0.03205698 0.02909941 -0.01733888 0.74901961 0.32156863 0.36862745
v 0.03115533 0.02909941 -0.01888148 0.74901961 0.32156863 0.36862745
v 0.03058155 0.02909941 -0.01978179 0.74901961 0.32156863 0.36862745
v 0.02997238 0.02909941 -0.02070040 0.74901961 0.32156863 0.36862745
v 0.02908937 0.02909941 -0.02197034 0.74901961 0.32156863 0.36862745
v 0.02835165 0.02909941 -0.02287065 0.74901961 0.32156863 0.36862745
v 0.02744814 0.02549920 -0.02392833 0.74901961 0.32156863 0.36862745
v 0.02835910 0.02729987 -0.02287614 0.74901961 0.32156863 0.36862745
v 0.02834979 0.02549920 -0.02286333 0.74901961 0.32156863 0.36862745
v 0.02820076 0.02370081 -0.02274439 0.74901961 0.32156863 0.36862745
v 0.02927938 0.02198095 -0.02066929 0.74901961 0.32156863 0.36862745
v 0.02899063 0.02370081 -0.02184408 0.74901961 0.32156863 0.36862745
v 0.03053871 0.02336389 -0.01971042 0.74901961 0.32156863 0.36862745
v 0.03024251 0.02190013 -0.01928772 0.74901961 0.32156863 0.36862745
v 0.03060205 0.02099752 -0.01800679 0.74901961 0.32156863 0.36862745
v 0.02962961 0.02073914 -0.01872411 0.74901961 0.32156863 0.36862745
v 0.02969854 0.02037035 -0.01710100 0.74901961 0.32156863 0.36862745
v 0.03135466 0.02056157 -0.01485572 0.74901961 0.32156863 0.36862745
v 0.03325483 0.02729987 -0.01485572 0.74901961 0.32156863 0.36862745
v 0.03305922 0.02729987 -0.01530038 0.74901961 0.32156863 0.36862745
v 0.03251712 0.02729987 -0.01644589 0.74901961 0.32156863 0.36862745
v 0.03206070 0.02729987 -0.01734437 0.74901961 0.32156863 0.36862745
v 0.03105287 0.02740459 -0.01907911 0.74901961 0.32156863 0.36862745
v 0.03060764 0.02687532 -0.01981473 0.74901961 0.32156863 0.36862745
v 0.03059646 0.02807501 -0.01979643 0.74901961 0.32156863 0.36862745
v 0.03011396 0.02740459 -0.02052839 0.74901961 0.32156863 0.36862745
v 0.02909309 0.02729987 -0.02197583 0.74901961 0.32156863 0.36862745
v 0.02908191 0.02549920 -0.02196485 0.74901961 0.32156863 0.36862745
v 0.02999660 0.02385788 -0.02052473 0.74901961 0.32156863 0.36862745
v 0.03060205 0.02456358 -0.01980558 0.74901961 0.32156863 0.36862745
v 0.03100257 0.02385788 -0.01902604 0.74901961 0.32156863 0.36862745
v 0.03207747 0.02353235 -0.01700767 0.74901961 0.32156863 0.36862745
v 0.03239603 0.02281982 -0.01619520 0.74901961 0.32156863 0.36862745
v 0.03082932 0.02190013 -0.01838741 0.74901961 0.32156863 0.36862745
v 0.03219297 0.02174419 -0.01547788 0.74901961 0.32156863 0.36862745
v 0.03228798 0.02135834 -0.01485572 0.74901961 0.32156863 0.36862745
v 0.03081815 0.02084386 -0.01710100 0.74901961 0.32156863 0.36862745
v 0.03324179 0.02552993 -0.01485572 0.74901961 0.32156863 0.36862745
v 0.03304991 0.02549920 -0.01530038 0.74901961 0.32156863 0.36862745
v 0.03251339 0.02549920 -0.01643126 0.74901961 0.32156863 0.36862745
v 0.03205325 0.02549920 -0.01733156 0.74901961 0.32156863 0.36862745
v 0.03116278 0.02549920 -0.01890161 0.74901961 0.32156863 0.36862745
v 0.03060764 0.02549920 -0.01981473 0.74901961 0.32156863 0.36862745
v 0.02998170 0.02549920 -0.02071504 0.74901961 0.32156863 0.36862745
v 0.03247241 0.02401951 -0.01634525 0.74901961 0.32156863 0.36862745
v 0.03264752 0.02223932 -0.01499479 0.74901961 0.32156863 0.36862745
v 0.03280401 0.02353235 -0.01547788 0.74901961 0.32156863 0.36862745
v 0.03307413 0.02358470 -0.01485572 0.74901961 0.32156863 0.36862745
v 0.03267919 0.02218810 -0.01485572 0.74901961 0.32156863 0.36862745
v 0.03320080 0.02505416 -0.01485572 0.74901961 0.32156863 0.36862745
f 1 2 3
f 1 3 4
f 1 4 5
f 1 5 6
f 1 6 17
f 1 17 30
f 1 30 48
f 1 48 70
f 1 70 89
f 1 89 96
f 1 96 124
f 1 124 147
f 1 147 126
f 1 126 125
f 1 125 97
f 1 97 75
f 1 75 55
f 1 55 31
f 1 31 18
f 1 18 7
f 1 7 2
f 2 7 8
f 2 8 9
f 2 9 3
f 3 9 10
f 3 10 11
f 3 11 4
f 4 11 5
f 5 11 12
f 5 12 13
f 5 13 14
f 5 14 15
f 5 15 16
f 5 16 6
f 6 16 15
f 6 15 17
f 7 18 19
f 7 19 8
f 8 19 20
f 8 20 21
f 8 21 9
f 9 21 22
f 9 22 23
f 9 23 10
f 10 23 11
f 11 23 12
f 12 23 24
f 12 24 25
f 12 25 13
f 13 25 26
f 13 26 14
f 14 26 15
f 15 27 17
f 15 26 28
f 15 28 29
f 15 29 27
f 17 27 30
f 18 31 32
f 18 32 33
f 18 33 19
f 19 33 34
f 19 34 35
f 19 35 21
f 19 21 20
f 21 35 36
f 21 36 37
f 21 37 22
f 22 38 39
f 22 39 40
f 22 40 23
f 22 37 41
f 22 41 38
f 23 40 24
f 24 40 39
f 24 39 42
f 24 42 25
f 25 43 26
f 25 42 44
f 25 44 45
f 25 45 46
f 25 46 43
f 26 43 46
f 26 46 47
f 26 47 28
f 27 48 30
f 27 29 48
f 28 47 49
f 28 49 50
f 28 50 51
f 28 51 52
f 28 52 29
f 29 53 54
f 29 54 48
f 29 52 53
f 31 55 56
f 31 56 32
f 32 57 33
f 32 56 58
f 32 58 77
f 32 77 57
f 33 57 59
f 33 59 60
f 33 60 34
f 34 60 61
f 34 61 62
f 34 62 36
f 34 36 35
f 36 62 37
f 37 62 63
f 37 63 64
f 37 64 65
f 37 65 41
f 38 41 44
f 38 44 39
f 39 44 42
f 41 45 44
f 41 65 45
f 45 65 66
f 45 66 67
f 45 67 46
f 46 67 47
f 47 67 68
f 47 68 69
f 47 69 49
f 48 54 70
f 49 69 50
f 50 69 51
f 51 69 71
f 51 71 52
f 52 71 72
f 52 72 73
f 52 73 53
f 53 73 54
f 54 73 74
f 54 74 70
f 55 75 102
f 55 102 129
f 55 129 149
f 55 149 171
f 55 171 189
f 55 189 202
f 55 202 201
f 55 201 203
f 55 203 191
f 55 191 172
f 55 172 150
f 55 150 130
f 55 130 103
f 55 103 76
f 55 76 56
f 56 76 58
f 57 77 59
f 58 76 78
f 58 78 77
f 59 77 78
f 59 78 79
f 59 79 80
f 59 80 61
f 59 61 60
f 61 81 63
f 61 63 62
f 61 80 81
f 63 81 82
f 63 82 64
f 64 83 65
f 64 82 83
f 65 83 66
f 66 83 84
f 66 84 67
f 67 84 68
f 68 84 85
f 68 85 86
f 68 86 87
f 68 87 69
f 69 87 88
f 69 88 72
f 69 72 71
f 70 74 89
f 72 88 90
f 72 90 91
f 72 91 92
f 72 92 73
f 73 93 74
f 73 92 94
f 73 94 93
f 74 93 95
f 74 95 96
f 74 96 89
f 75 97 98
f 75 98 99
f 75 99 100
f 75 100 101
f 75 101 102
f 76 103 104
f 76 104 78
f 78 105 79
f 78 104 105
f 79 105 80
f 80 105 106
f 80 106 107
f 80 107 81
f 81 108 82
f 81 107 109
f 81 109 108
f 82 108 110
f 82 110 83
f 83 110 85
f 83 85 84
f 85 110 111
f 85 111 112
f 85 112 113
f 85 113 86
f 86 113 114
f 86 114 87
f 87 114 115
f 87 115 88
f 88 115 116
f 88 116 90
f 90 117 91
f 90 116 118
f 90 118 117
f 91 119 120
f 91 120 92
f 91 117 119
f 92 120 94
f 93 94 121
f 93 121 122
f 93 122 123
f 93 123 95
f 94 120 121
f 95 122 124
f 95 124 96
f 95 123 122
f 97 125 98
f 98 125 99
f 99 125 126
f 99 126 121
f 99 121 100
f 100 120 119
f 100 119 101
f 100 121 120
f 101 119 127
f 101 127 128
f 101 128 102
f 102 128 129
f 103 130 131
f 103 131 132
f 103 132 104
f 104 132 133
f 104 133 134
f 104 134 105
f 105 134 135
f 105 135 106
f 106 135 136
f 106 136 107
f 107 136 109
f 108 111 110
f 108 109 137
f 108 137 111
f 109 136 138
f 109 138 139
f 109 139 137
f 111 137 140
f 111 140 112
f 112 140 141
f 112 141 113
f 113 141 114
f 114 116 115
f 114 141 142
f 114 142 143
f 114 143 116
f 116 143 144
f 116 144 118
f 117 127 119
f 117 118 145
f 117 145 127
f 118 144 146
f 118 146 145
f 121 126 122
f 122 126 147
f 122 147 124
f 127 145 148
f 127 148 149
f 127 149 128
f 128 149 129
f 130 150 131
f 131 151 132
f 131 150 152
f 131 152 153
f 131 153 154
f 131 154 155
f 131 155 136
f 131 136 151
f 132 151 133
f 133 151 134
f 134 151 135
f 135 151 136
f 136 155 156
f 136 156 157
f 136 157 158
f 136 158 159
f 136 159 138
f 137 139 160
f 137 160 140
f 138 159 139
f 139 159 161
f 139 161 162
f 139 162 160
f 140 160 163
f 140 163 141
f 141 163 142
f 142 164 144
f 142 144 143
f 142 163 165
f 142 165 166
f 142 166 167
f 142 167 164
f 144 164 167
f 144 167 168
f 144 168 146
f 145 146 169
f 145 169 148
f 146 168 169
f 148 169 170
f 148 170 149
f 149 170 171
f 150 172 173
f 150 173 152
f 152 173 153
f 153 173 174
f 153 174 154
f 154 175 176
f 154 176 155
f 154 174 175
f 155 176 177
f 155 177 178
f 155 178 156
f 156 178 157
f 157 178 177
f 157 177 179
f 157 179 158
f 158 180 161
f 158 161 159
f 158 179 180
f 160 162 165
f 160 165 163
f 161 180 162
f 162 180 181
f 162 181 165
f 165 181 182
f 165 182 166
f 166 183 184
f 166 184 185
f 166 185 186
f 166 186 187
f 166 187 167
f 166 182 183
f 167 187 168
f 168 187 186
f 168 186 188
f 168 188 189
f 168 189 190
f 168 190 169
f 169 190 170
f 170 190 171
f 171 190 189
f 172 191 192
f 172 192 173
f 173 192 174
f 174 192 193
f 174 193 175
f 175 194 195
f 175 195 176
f 175 193 194
f 176 195 177
f 177 196 179
f 177 195 196
f 179 196 197
f 179 197 180
f 180 197 181
f 181 197 183
f 181 183 182
f 183 196 195
f 183 195 194
f 183 194 184
f 183 197 196
f 184 194 185
f 185 198 186
f 185 194 198
f 186 199 189
f 186 189 188
f 186 198 200
f 186 200 201
f 186 201 199
f 189 199 202
f 191 203 192
f 192 200 198
f 192 198 193
f 192 203 201
f 192 201 200
f 193 198 194
f 199 201 202

