# https://github.com/mikedh/trimesh
v -0.02969990 0.03099000 -0.01530011
v -0.02969990 0.03097912 -0.01485389
v -0.02790009 0.03096171 -0.01709979
v -0.02790009 0.03097695 -0.01806420
v -0.02873502 0.03098674 -0.01806420
v -0.03014650 0.03098892 -0.01485389
v -0.02810023 0.03063963 -0.01485389
v -0.02693521 0.03089969 -0.01806420
v -0.02978205 0.03078870 -0.01806420
v -0.02969990 0.03098239 -0.01709979
v -0.03149972 0.03085726 -0.01485389
v -0.02782540 0.03054932 -0.01485389
v -0.02609877 0.03065595 -0.01806420
v -0.03068420 0.03052102 -0.01806420
v -0.03149972 0.03081591 -0.01530011
v -0.03191346 0.03072124 -0.01485389
v -0.01799735 0.02718592 -0.01485389
v -0.02537735 0.03040132 -0.01806420
v -0.03115619 0.03036325 -0.01806420
v -0.03154155 0.03045138 -0.01701211
v -0.03272001 0.03032080 -0.01530011
v -0.03285743 0.03033822 -0.01485389
v -0.01799735 0.02042105 -0.01485389
v -0.01799735 0.02706514 -0.01511094
v -0.02499498 0.03018262 -0.01806420
v -0.03163265 0.02909993 -0.01806420
v -0.03247357 0.03010210 -0.01635409
v -0.03324428 0.02909993 -0.01485389
v -0.01799735 0.02059951 -0.01505846
v -0.02015415 0.02005000 -0.01485389
v -0.02250063 0.02001083 -0.01806420
v -0.02062165 0.02053422 -0.01806420
v -0.01799735 0.02623925 -0.01541418
v -0.01999283 0.02549933 -0.01806420
v -0.02023928 0.02619899 -0.01806420
v -0.02060821 0.02719027 -0.01806420
v -0.03163714 0.02838612 -0.01806420
v -0.03205685 0.02909993 -0.01733642
v -0.03251389 0.02909993 -0.01643673
v -0.03304712 0.02909993 -0.01530011
v -0.03325324 0.02775066 -0.01485389
v -0.01799735 0.02190090 -0.01559959
v -0.02000478 0.02190090 -0.01806420
v -0.02194052 0.01987482 -0.01485389
v -0.02250063 0.01987373 -0.01485389
v -0.02430194 0.02001083 -0.01806420
v -0.01799735 0.02549933 -0.01564233
v -0.01996147 0.02370066 -0.01806420
v -0.01799735 0.02473438 -0.01565961
v -0.03164162 0.02733826 -0.01806420
v -0.03206133 0.02729909 -0.01734270
v -0.03251837 0.02729909 -0.01644302
v -0.03305907 0.02729909 -0.01530011
v -0.03325473 0.02729909 -0.01485389
v -0.01799735 0.02370066 -0.01566590
v -0.01997043 0.02331982 -0.01806420
v -0.02554016 0.01987373 -0.01485389
v -0.02733848 0.01987482 -0.01485389
v -0.02790009 0.01987591 -0.01485389
v -0.02610027 0.02001627 -0.01806420
v -0.03164460 0.02646558 -0.01806420
v -0.03163564 0.02549933 -0.01806420
v -0.03205236 0.02549933 -0.01732887
v -0.03251389 0.02549933 -0.01642919
v -0.03305011 0.02549933 -0.01530011
v -0.03324726 0.02594872 -0.01485389
v -0.02971633 0.01998363 -0.01485389
v -0.02790009 0.02003259 -0.01709979
v -0.02790009 0.02011747 -0.01806420
v -0.03159681 0.02478987 -0.01806420
v -0.03207776 0.02353200 -0.01700583
v -0.03247207 0.02402057 -0.01634340
v -0.03307400 0.02358532 -0.01485389
v -0.03324278 0.02553089 -0.01485389
v -0.03280366 0.02353200 -0.01547672
v -0.03088286 0.02036338 -0.01485389
v -0.02969990 0.02036447 -0.01709979
v -0.02965958 0.02058754 -0.01806420
v -0.03151316 0.02370392 -0.01806420
v -0.03239739 0.02282037 -0.01619445
v -0.03274242 0.02239382 -0.01485389
v -0.03134887 0.02055489 -0.01485389
v -0.03082311 0.02083780 -0.01709979
v -0.03051393 0.02097709 -0.01806420
v -0.03111586 0.02227848 -0.01806420
v -0.03099338 0.02190090 -0.01806420
v -0.03149674 0.02190090 -0.01709979
v -0.03218978 0.02175509 -0.01547672
v -0.03264832 0.02225890 -0.01499436
v -0.03267969 0.02220666 -0.01485389
v -0.03174169 0.02081169 -0.01485389
v -0.03060056 0.02099993 -0.01800041
v -0.03063790 0.02115010 -0.01806420
v -0.03227790 0.02138295 -0.01485389
v -0.03258708 0.02201189 -0.01485389
f 1 2 3
f 1 3 4
f 1 4 5
f 1 5 6
f 1 6 2
f 2 6 11
f 2 11 16
f 2 16 22
f 2 22 28
f 2 28 41
f 2 41 54
f 2 54 66
f 2 66 74
f 2 74 73
f 2 73 81
f 2 81 90
f 2 90 95
f 2 95 94
f 2 94 91
f 2 91 82
f 2 82 76
f 2 76 67
f 2 67 59
f 2 59 58
f 2 58 57
f 2 57 45
f 2 45 44
f 2 44 30
f 2 30 23
f 2 23 17
f 2 17 12
f 2 12 7
f 2 7 3
f 3 8 4
f 3 7 8
f 4 8 13
f 4 13 18
f 4 18 25
f 4 25 36
f 4 36 35
f 4 35 34
f 4 34 48
f 4 48 56
f 4 56 43
f 4 43 32
f 4 32 31
f 4 31 46
f 4 46 60
f 4 60 69
f 4 69 78
f 4 78 84
f 4 84 93
f 4 93 86
f 4 86 85
f 4 85 79
f 4 79 70
f 4 70 62
f 4 62 61
f 4 61 50
f 4 50 37
f 4 37 26
f 4 26 19
f 4 19 14
f 4 14 9
f 4 9 5
f 5 9 10
f 5 10 6
f 6 10 11
f 7 12 13
f 7 13 8
f 9 14 15
f 9 15 10
f 10 15 11
f 11 15 16
f 12 17 13
f 13 17 18
f 14 19 20
f 14 20 15
f 15 20 21
f 15 21 16
f 16 21 22
f 17 23 29
f 17 29 42
f 17 42 55
f 17 55 49
f 17 49 47
f 17 47 33
f 17 33 24
f 17 24 25
f 17 25 18
f 19 26 27
f 19 27 21
f 19 21 20
f 21 27 22
f 22 27 28
f 23 30 31
f 23 31 32
f 23 32 29
f 24 33 34
f 24 34 35
f 24 35 36
f 24 36 25
f 26 37 38
f 26 38 27
f 27 38 39
f 27 39 40
f 27 40 28
f 28 40 41
f 29 32 43
f 29 43 42
f 30 44 31
f 31 44 45
f 31 45 57
f 31 57 46
f 33 47 34
f 34 47 49
f 34 49 48
f 37 50 51
f 37 51 38
f 38 51 52
f 38 52 39
f 39 52 53
f 39 53 40
f 40 53 41
f 41 53 54
f 42 43 55
f 43 56 55
f 46 57 58
f 46 58 59
f 46 59 60
f 48 49 55
f 48 55 56
f 50 61 51
f 51 61 62
f 51 62 63
f 51 63 64
f 51 64 52
f 52 64 65
f 52 65 53
f 53 65 54
f 54 65 66
f 59 67 68
f 59 68 60
f 60 68 69
f 62 70 63
f 63 70 71
f 63 71 72
f 63 72 64
f 64 72 65
f 65 73 74
f 65 74 66
f 65 72 75
f 65 75 73
f 67 76 77
f 67 77 69
f 67 69 68
f 69 77 78
f 70 79 71
f 71 80 72
f 71 79 80
f 72 80 75
f 73 75 80
f 73 80 81
f 76 82 77
f 77 82 83
f 77 83 78
f 78 83 84
f 79 85 80
f 80 85 86
f 80 86 87
f 80 87 88
f 80 88 89
f 80 89 81
f 81 89 90
f 82 91 83
f 83 92 84
f 83 91 92
f 84 92 93
f 86 93 92
f 86 92 87
f 87 92 88
f 88 94 89
f 88 92 94
f 89 95 90
f 89 94 95
f 91 94 92

