# https://github.com/mikedh/trimesh
v -0.00090117 -0.00167447 0.01900158
v 0.00003250 -0.00167447 0.01899938
v -0.00107579 -0.00167447 0.01900158
v 0.00003250 -0.14908994 0.01898841
v 0.00003250 -0.00167447 -0.00021312
v -0.00647490 -0.00167447 0.01899938
v -0.01027920 -0.14908994 0.01898841
v 0.00003250 -0.15049307 0.01849489
v -0.01027920 -0.00167447 -0.00340680
v 0.00003250 -0.14730680 0.00000183
v -0.01027920 -0.14729219 -0.00332784
v -0.00827460 -0.00167447 0.01899719
v -0.01027920 -0.15049307 0.01849489
v -0.01027920 -0.00202525 0.01899061
v 0.00003250 -0.15099000 0.01709985
v -0.01027920 -0.00167447 0.01899061
v 0.00003250 -0.14910456 0.00000841
v 0.00002846 -0.14908994 0.00000403
v -0.01027920 -0.14908994 -0.00332345
v -0.01027920 -0.15099000 0.01709985
v 0.00003250 -0.15099000 0.00270198
v 0.00003250 -0.14920687 0.00006325
v -0.00122417 -0.15006920 -0.00005081
v -0.01027920 -0.15024460 -0.00295276
v -0.01027920 -0.15099000 0.00052168
v -0.00809998 -0.15099000 0.00090115
v -0.01027920 -0.15093154 -0.00089968
v -0.00989968 -0.15091692 -0.00089968
v -0.01027920 -0.15087307 -0.00127695
v 0.00003250 -0.15069769 0.00165131
v 0.00003250 -0.15043460 0.00072348
v -0.01027920 -0.15034691 -0.00283431
f 1 2 5
f 1 5 9
f 1 9 16
f 1 16 12
f 1 12 6
f 1 6 3
f 1 3 7
f 1 7 4
f 1 4 2
f 2 4 8
f 2 8 15
f 2 15 21
f 2 21 30
f 2 30 31
f 2 31 22
f 2 22 17
f 2 17 10
f 2 10 5
f 3 6 7
f 4 7 13
f 4 13 8
f 5 10 11
f 5 11 9
f 6 12 7
f 7 12 14
f 7 14 16
f 7 16 9
f 7 9 11
f 7 11 19
f 7 19 24
f 7 24 32
f 7 32 29
f 7 29 27
f 7 27 25
f 7 25 20
f 7 20 13
f 8 13 20
f 8 20 15
f 10 17 18
f 10 18 11
f 11 18 19
f 12 16 14
f 15 20 25
f 15 25 26
f 15 26 21
f 17 22 23
f 17 23 24
f 17 24 19
f 17 19 18
f 21 26 27
f 21 27 28
f 21 28 29
f 21 29 30
f 22 31 23
f 23 31 24
f 24 31 32
f 25 27 26
f 27 29 28
f 29 32 31
f 29 31 30

