# https://github.com/mikedh/trimesh
v 0.03167149 0.02734004 -0.01801539
v 0.03166103 0.02909946 -0.01801539
v 0.03166495 0.02550000 -0.01801539
v 0.03116395 0.02550000 -0.01890005
v 0.03105407 0.02740452 -0.01907830
v 0.03115610 0.02909946 -0.01888156
v 0.03146220 0.02976690 -0.01801539
v 0.03154068 0.02369544 -0.01801539
v 0.03100174 0.02385881 -0.01902680
v 0.03060277 0.02456387 -0.01980583
v 0.03060800 0.02550000 -0.01981507
v 0.03060800 0.02687465 -0.01981375
v 0.03096773 0.03032042 -0.01857920
v 0.03059623 0.02807519 -0.01979659
v 0.03058184 0.02909946 -0.01978206
v 0.02899118 0.03020863 -0.02184450
v 0.03117441 0.03036771 -0.01801539
v 0.03102005 0.02190055 -0.01801539
v 0.03082907 0.02190055 -0.01838642
v 0.03053998 0.02336333 -0.01970944
v 0.02999711 0.02385881 -0.02052412
v 0.02908144 0.02550000 -0.02196333
v 0.02998141 0.02550000 -0.02071557
v 0.03011354 0.02740452 -0.02052940
v 0.02997357 0.02909946 -0.02070105
v 0.02937707 0.03040425 -0.02070105
v 0.02986630 0.03058804 -0.01906774
v 0.02909059 0.02909946 -0.02196993
v 0.02835151 0.02909946 -0.02287043
v 0.02745153 0.02909946 -0.02393598
v 0.02667059 0.02909946 -0.02483516
v 0.02729718 0.03026991 -0.02375377
v 0.02789760 0.03048486 -0.02246640
v 0.02977735 0.03079870 -0.01801539
v 0.03060800 0.02102138 -0.01801539
v 0.03024304 0.02190055 -0.01928692
v 0.02887476 0.02263570 -0.02169001
v 0.02899118 0.02370082 -0.02184318
v 0.02909452 0.02729919 -0.02197522
v 0.02834890 0.02550000 -0.02286383
v 0.02789891 0.03089865 -0.02070105
v 0.02835936 0.02729919 -0.02287572
v 0.02745938 0.02729919 -0.02394787
v 0.02667452 0.02729919 -0.02484705
v 0.02577061 0.02909946 -0.02575415
v 0.02557701 0.03029892 -0.02556665
v 0.02614604 0.03053967 -0.02433210
v 0.02789891 0.03098893 -0.01890005
v 0.02789891 0.03097603 -0.01801539
v 0.03059884 0.02100418 -0.01801539
v 0.02850325 0.02143517 -0.02124901
v 0.02927896 0.02198116 -0.02066936
v 0.02780603 0.02201662 -0.02240170
v 0.02710881 0.02259808 -0.02351346
v 0.02729979 0.02370082 -0.02373661
v 0.02819977 0.02370082 -0.02274368
v 0.02744892 0.02550000 -0.02392806
v 0.02609895 0.03094487 -0.02250073
v 0.02664574 0.02550000 -0.02482592
v 0.02577454 0.02729919 -0.02575547
v 0.02483139 0.02729919 -0.02665597
v 0.02482224 0.02909946 -0.02665465
v 0.02374305 0.03027098 -0.02730956
v 0.02432646 0.03054074 -0.02613970
v 0.02430030 0.03096636 -0.02430041
v 0.02609895 0.03098893 -0.02070105
v 0.02070039 0.03098893 -0.02609877
v 0.01830916 0.03098034 -0.02789977
v 0.02609895 0.03084491 -0.01890005
v 0.02609764 0.03064392 -0.01801539
v 0.01890043 0.03084491 -0.02609877
v 0.03058838 0.02099450 -0.01801539
v 0.02898333 0.02086876 -0.02004878
v 0.02730241 0.02082146 -0.02191184
v 0.02669283 0.02139755 -0.02311206
v 0.02597468 0.02205532 -0.02418157
v 0.02525522 0.02271309 -0.02524844
v 0.02549853 0.02370082 -0.02548875
v 0.02639851 0.02370082 -0.02463578
v 0.02574576 0.02550000 -0.02572774
v 0.02393141 0.02729919 -0.02748121
v 0.02480261 0.02550000 -0.02662824
v 0.02392226 0.02909946 -0.02747064
v 0.02184367 0.03019897 -0.02897852
v 0.02246633 0.03047948 -0.02790505
v 0.02250034 0.03094594 -0.02609877
v 0.02070039 0.03089113 -0.02789977
v 0.02430030 0.03098893 -0.02250073
v 0.01890043 0.03098893 -0.02789977
v 0.01830916 0.03074603 -0.02980508
v 0.01830916 0.03071056 -0.02609877
v 0.02501060 0.03017209 -0.01801539
v 0.01830916 0.03023121 -0.02490514
v 0.03014755 0.02078492 -0.01801539
v 0.02962954 0.02073871 -0.01872444
v 0.02790152 0.02062478 -0.02066936
v 0.02609503 0.02059899 -0.02250733
v 0.02549330 0.02083436 -0.02365078
v 0.02478038 0.02151255 -0.02484969
v 0.02331922 0.02289795 -0.02694777
v 0.02371427 0.02409741 -0.02726467
v 0.02390264 0.02550000 -0.02744027
v 0.02288493 0.02729919 -0.02838039
v 0.02287708 0.02909946 -0.02837114
v 0.02197710 0.02909946 -0.02907755
v 0.01978602 0.02956807 -0.03058542
v 0.01858648 0.03032794 -0.03096570
v 0.02070039 0.03039672 -0.02937331
v 0.01907179 0.03059234 -0.02987110
v 0.01830916 0.03034944 -0.03106604
v 0.02060228 0.02719064 -0.01801539
v 0.01830916 0.02721106 -0.02060202
v 0.02965962 0.02057749 -0.01801539
v 0.02789891 0.02019057 -0.01890005
v 0.02609895 0.02013898 -0.02070105
v 0.02430030 0.02014758 -0.02250073
v 0.02422836 0.02064950 -0.02427004
v 0.02358084 0.02089885 -0.02532898
v 0.02211968 0.02232187 -0.02733464
v 0.02115299 0.02319782 -0.02853487
v 0.02176911 0.02439835 -0.02892570
v 0.02263115 0.02179307 -0.02661768
v 0.02281821 0.02550000 -0.02834078
v 0.02198495 0.02729919 -0.02908811
v 0.02071085 0.02729919 -0.02998729
v 0.02052379 0.02902100 -0.03009292
v 0.01980564 0.02836861 -0.03060259
v 0.01907179 0.02902100 -0.03104492
v 0.01830916 0.02905539 -0.03148328
v 0.01998223 0.02550000 -0.01801539
v 0.01830916 0.02556557 -0.01994843
v 0.02878319 0.02027870 -0.01801539
v 0.02789891 0.02011211 -0.01801539
v 0.02698323 0.02002613 -0.01801539
v 0.02609895 0.02002075 -0.01890005
v 0.02430030 0.02001538 -0.02070105
v 0.02250034 0.02002075 -0.02250073
v 0.02070039 0.02005300 -0.02430041
v 0.02250034 0.02023356 -0.02430041
v 0.02250034 0.02071829 -0.02566172
v 0.02020330 0.02085156 -0.02718940
v 0.02140284 0.02112240 -0.02688571
v 0.01848707 0.02420811 -0.03088383
v 0.02061143 0.02375885 -0.02924920
v 0.02191823 0.02550000 -0.02903926
v 0.01968660 0.02515285 -0.03052997
v 0.01980826 0.02635231 -0.03060523
v 0.01981087 0.02729919 -0.03060655
v 0.01890043 0.02729919 -0.03116375
v 0.01830916 0.02797416 -0.03149649
v 0.01996784 0.02430054 -0.01801539
v 0.01830916 0.02550000 -0.01992598
v 0.01830916 0.02370082 -0.01989429
v 0.02609895 0.02001538 -0.01801539
v 0.02518327 0.02001001 -0.01801539
v 0.02430030 0.02001001 -0.01890005
v 0.02250034 0.02001001 -0.02070105
v 0.02070039 0.02001001 -0.02250073
v 0.01890043 0.02001108 -0.02430041
v 0.01830916 0.02002720 -0.02489062
v 0.01830916 0.02014650 -0.02609877
v 0.01890043 0.02018842 -0.02609877
v 0.02076187 0.02054954 -0.02621100
v 0.01890043 0.02068282 -0.02747592
v 0.01830916 0.02089348 -0.02801464
v 0.01830916 0.02131694 -0.02849922
v 0.01890043 0.02146848 -0.02837642
v 0.01830916 0.02264967 -0.02973378
v 0.01830916 0.02333861 -0.03028438
v 0.01830916 0.02414040 -0.03091816
v 0.01830916 0.02434461 -0.03102775
v 0.02052510 0.02565048 -0.03002954
v 0.01830916 0.02553547 -0.03137765
v 0.01901293 0.02565048 -0.03099738
v 0.01830916 0.02634586 -0.03144367
v 0.01830916 0.02729919 -0.03150309
v 0.01996130 0.02370082 -0.01801539
v 0.01830916 0.02190055 -0.02001577
v 0.02000970 0.02190055 -0.01801539
v 0.02430030 0.02001001 -0.01801539
v 0.01830916 0.02001108 -0.02250073
v 0.01830916 0.02001108 -0.02430041
v 0.01830916 0.02032169 -0.02670350
v 0.01830916 0.02065810 -0.02763965
v 0.01830916 0.02052482 -0.02062579
v 0.02025824 0.02133306 -0.01801539
v 0.02250034 0.02001108 -0.01801539
v 0.02154281 0.02025935 -0.01801539
v 0.01830916 0.02033889 -0.02123976
v 0.02062321 0.02053665 -0.01801539
f 1 2 7
f 1 7 17
f 1 17 34
f 1 34 49
f 1 49 70
f 1 70 92
f 1 92 111
f 1 111 130
f 1 130 151
f 1 151 177
f 1 177 179
f 1 179 186
f 1 186 190
f 1 190 188
f 1 188 187
f 1 187 180
f 1 180 155
f 1 155 154
f 1 154 134
f 1 134 133
f 1 133 132
f 1 132 113
f 1 113 94
f 1 94 72
f 1 72 50
f 1 50 35
f 1 35 18
f 1 18 8
f 1 8 3
f 1 3 4
f 1 4 5
f 1 5 2
f 2 5 6
f 2 6 7
f 3 8 9
f 3 9 10
f 3 10 4
f 4 10 11
f 4 11 12
f 4 12 5
f 5 12 6
f 6 13 7
f 6 12 14
f 6 14 15
f 6 15 16
f 6 16 13
f 7 13 17
f 8 18 19
f 8 19 20
f 8 20 9
f 9 20 10
f 10 20 21
f 10 21 22
f 10 22 23
f 10 23 11
f 11 23 24
f 11 24 12
f 12 24 25
f 12 25 14
f 13 16 26
f 13 26 27
f 13 27 17
f 14 25 15
f 15 25 16
f 16 28 29
f 16 29 30
f 16 30 31
f 16 31 32
f 16 32 33
f 16 33 26
f 16 25 28
f 17 27 34
f 18 35 19
f 19 35 36
f 19 36 20
f 20 36 37
f 20 37 38
f 20 38 21
f 21 38 22
f 22 39 23
f 22 38 40
f 22 40 39
f 23 39 24
f 24 39 28
f 24 28 25
f 26 33 41
f 26 41 27
f 27 41 34
f 28 39 42
f 28 42 29
f 29 42 43
f 29 43 30
f 30 43 31
f 31 44 45
f 31 45 46
f 31 46 32
f 31 43 44
f 32 46 47
f 32 47 33
f 33 47 41
f 34 48 49
f 34 41 48
f 35 50 36
f 36 51 52
f 36 52 37
f 36 50 51
f 37 52 51
f 37 51 53
f 37 53 54
f 37 54 55
f 37 55 56
f 37 56 38
f 38 56 57
f 38 57 40
f 39 40 42
f 40 57 43
f 40 43 42
f 41 47 58
f 41 58 48
f 43 57 44
f 44 57 59
f 44 59 60
f 44 60 45
f 45 60 61
f 45 61 62
f 45 62 46
f 46 62 63
f 46 63 64
f 46 64 47
f 47 64 65
f 47 65 58
f 48 58 65
f 48 65 66
f 48 66 88
f 48 88 89
f 48 89 67
f 48 67 68
f 48 68 49
f 49 69 70
f 49 68 71
f 49 71 69
f 50 72 73
f 50 73 51
f 51 74 75
f 51 75 53
f 51 73 74
f 53 75 54
f 54 75 76
f 54 76 77
f 54 77 78
f 54 78 79
f 54 79 55
f 55 79 80
f 55 80 59
f 55 59 56
f 56 59 57
f 59 80 60
f 60 80 82
f 60 82 61
f 61 81 62
f 61 82 81
f 62 81 83
f 62 83 63
f 63 83 84
f 63 84 85
f 63 85 64
f 64 86 65
f 64 85 87
f 64 87 86
f 65 88 66
f 65 86 89
f 65 89 88
f 67 89 68
f 68 89 90
f 68 90 110
f 68 110 129
f 68 129 150
f 68 150 176
f 68 176 175
f 68 175 173
f 68 173 171
f 68 171 170
f 68 170 169
f 68 169 168
f 68 168 166
f 68 166 165
f 68 165 184
f 68 184 183
f 68 183 161
f 68 161 160
f 68 160 182
f 68 182 181
f 68 181 189
f 68 189 185
f 68 185 178
f 68 178 153
f 68 153 152
f 68 152 131
f 68 131 112
f 68 112 93
f 68 93 91
f 68 91 71
f 69 71 70
f 70 71 91
f 70 91 93
f 70 93 92
f 72 94 95
f 72 95 73
f 73 96 74
f 73 95 96
f 74 96 97
f 74 97 98
f 74 98 75
f 75 98 99
f 75 99 76
f 76 99 77
f 77 99 100
f 77 100 101
f 77 101 78
f 78 82 79
f 78 101 82
f 79 82 80
f 81 82 102
f 81 102 103
f 81 103 104
f 81 104 83
f 82 101 102
f 83 104 84
f 84 104 105
f 84 105 106
f 84 106 107
f 84 107 108
f 84 108 85
f 85 108 87
f 86 87 89
f 87 108 109
f 87 109 90
f 87 90 89
f 90 109 110
f 92 93 111
f 93 112 111
f 94 113 95
f 95 113 114
f 95 114 96
f 96 115 97
f 96 114 115
f 97 116 117
f 97 117 98
f 97 115 116
f 98 117 118
f 98 118 99
f 99 118 100
f 100 119 120
f 100 120 121
f 100 121 101
f 100 118 122
f 100 122 119
f 101 121 123
f 101 123 102
f 102 123 103
f 103 123 124
f 103 124 104
f 104 124 105
f 105 124 125
f 105 125 126
f 105 126 106
f 106 126 127
f 106 127 128
f 106 128 129
f 106 129 107
f 107 129 110
f 107 110 109
f 107 109 108
f 111 112 130
f 112 131 130
f 113 132 114
f 114 132 133
f 114 133 115
f 115 133 134
f 115 134 135
f 115 135 136
f 115 136 137
f 115 137 116
f 116 137 138
f 116 138 139
f 116 139 117
f 117 139 140
f 117 140 118
f 118 140 141
f 118 141 142
f 118 142 122
f 119 122 142
f 119 142 143
f 119 143 120
f 120 143 144
f 120 144 121
f 121 145 123
f 121 144 143
f 121 143 146
f 121 146 145
f 123 145 124
f 124 147 125
f 124 145 147
f 125 147 148
f 125 148 127
f 125 127 126
f 127 148 149
f 127 149 128
f 128 149 150
f 128 150 129
f 130 131 152
f 130 152 153
f 130 153 151
f 134 154 135
f 135 154 136
f 136 154 155
f 136 155 156
f 136 156 157
f 136 157 158
f 136 158 159
f 136 159 137
f 137 159 138
f 138 159 160
f 138 160 161
f 138 161 162
f 138 162 139
f 139 162 163
f 139 163 140
f 140 163 141
f 141 164 165
f 141 165 166
f 141 166 167
f 141 167 142
f 141 163 164
f 142 167 168
f 142 168 169
f 142 169 143
f 143 169 170
f 143 170 171
f 143 171 146
f 145 146 172
f 145 172 147
f 146 171 173
f 146 173 174
f 146 174 147
f 146 147 172
f 147 174 175
f 147 175 176
f 147 176 149
f 147 149 148
f 149 176 150
f 151 153 177
f 153 178 179
f 153 179 177
f 155 180 158
f 155 158 157
f 155 157 156
f 158 181 182
f 158 182 159
f 158 180 181
f 159 182 160
f 161 183 162
f 162 183 164
f 162 164 163
f 164 183 184
f 164 184 165
f 166 168 167
f 173 175 174
f 178 185 179
f 179 185 186
f 180 187 181
f 181 187 188
f 181 188 189
f 185 189 190
f 185 190 186
f 188 190 189

