# https://github.com/mikedh/trimesh
v 0.01169815 0.02798816 -0.01485389
v 0.01349750 0.02795146 -0.01485389
v 0.01236560 0.02798633 -0.01956760
v 0.01169815 0.02798816 -0.01956760
v -0.01214395 0.02798816 -0.01485389
v 0.01422336 0.02770005 -0.01485389
v 0.01416495 0.02783217 -0.01956760
v 0.01349750 0.02793495 -0.01956760
v 0.00163624 0.02798816 -0.01956760
v -0.01169898 0.02798816 -0.01875460
v -0.01394608 0.02794045 -0.01485389
v 0.01422336 0.02780648 -0.01956760
v 0.01422336 0.01935947 -0.01485389
v 0.00163624 0.01286868 -0.01956760
v -0.01418804 0.02757159 -0.01875460
v -0.01349833 0.02790375 -0.01875460
v -0.01418804 0.02785970 -0.01485389
v 0.01422336 0.01997606 -0.01956760
v 0.01365046 0.01377156 -0.01485389
v -0.00629815 0.01216216 -0.01875460
v -0.00809750 0.01234751 -0.01875460
v -0.00969661 0.01306320 -0.01875460
v -0.00974667 0.01310357 -0.01875460
v -0.01119839 0.01459002 -0.01875460
v -0.01128738 0.01473866 -0.01875460
v -0.01418804 0.01991735 -0.01875460
v 0.00449796 0.01279344 -0.01956760
v -0.01418804 0.01928240 -0.01485389
v 0.01340294 0.01244477 -0.01485389
v 0.01294685 0.01127580 -0.01485389
v 0.01241010 0.01037843 -0.01485389
v 0.01126708 0.01542132 -0.01956760
v -0.00800016 0.00924067 -0.01497801
v -0.00989963 0.00924067 -0.01490649
v 0.00571051 0.01276408 -0.01956760
v 0.00629731 0.01276041 -0.01956760
v -0.00904862 0.01197498 -0.01803158
v -0.01004981 0.00924067 -0.01485389
v -0.01169898 0.00986460 -0.01485389
v -0.01286425 0.01110147 -0.01485389
v -0.01309230 0.01163365 -0.01485389
v -0.01350111 0.01290171 -0.01485389
v -0.01369022 0.01461938 -0.01485389
v 0.01156188 0.00978386 -0.01485389
v 0.00934258 0.01348528 -0.01956760
v 0.00977643 0.01381743 -0.01956760
v 0.01030483 0.01426153 -0.01956760
v 0.01106963 0.01511853 -0.01956760
v 0.00868903 0.00924067 -0.01500984
v 0.00741252 0.01288887 -0.01956760
v 0.00989880 0.00924067 -0.01489680
v -0.01126235 0.00966091 -0.01485389
v 0.01013519 0.00924067 -0.01485389
v 0.01041608 0.00929388 -0.01485389
v 0.00809666 0.01299530 -0.01956760
f 1 2 3
f 1 3 4
f 1 4 9
f 1 9 10
f 1 10 5
f 1 5 11
f 1 11 17
f 1 17 28
f 1 28 43
f 1 43 42
f 1 42 41
f 1 41 40
f 1 40 39
f 1 39 52
f 1 52 38
f 1 38 53
f 1 53 54
f 1 54 44
f 1 44 31
f 1 31 30
f 1 30 29
f 1 29 19
f 1 19 13
f 1 13 6
f 1 6 2
f 2 6 7
f 2 7 8
f 2 8 3
f 3 8 7
f 3 7 12
f 3 12 18
f 3 18 32
f 3 32 48
f 3 48 47
f 3 47 46
f 3 46 45
f 3 45 55
f 3 55 50
f 3 50 36
f 3 36 35
f 3 35 27
f 3 27 14
f 3 14 9
f 3 9 4
f 5 10 11
f 6 12 7
f 6 13 18
f 6 18 12
f 9 14 26
f 9 26 15
f 9 15 16
f 9 16 10
f 10 16 11
f 11 16 17
f 13 19 18
f 14 20 21
f 14 21 22
f 14 22 23
f 14 23 24
f 14 24 25
f 14 25 26
f 14 27 20
f 15 26 28
f 15 28 17
f 15 17 16
f 18 19 29
f 18 29 30
f 18 30 31
f 18 31 32
f 20 33 34
f 20 34 21
f 20 27 35
f 20 35 36
f 20 36 33
f 21 37 22
f 21 34 38
f 21 38 37
f 22 37 39
f 22 39 23
f 23 39 24
f 24 39 40
f 24 40 25
f 25 40 26
f 26 41 42
f 26 42 43
f 26 43 28
f 26 40 41
f 31 44 45
f 31 45 46
f 31 46 47
f 31 47 48
f 31 48 32
f 33 36 49
f 33 49 51
f 33 51 53
f 33 53 38
f 33 38 34
f 36 50 51
f 36 51 49
f 37 38 52
f 37 52 39
f 44 54 45
f 45 54 55
f 50 55 51
f 51 55 53
f 53 55 54

