# https://github.com/mikedh/trimesh
v -0.01307550 0.01830661 0.01709482
v -0.01487969 0.02057984 0.01709482
v -0.01307550 0.02709287 0.01709482
v -0.01307550 0.01840841 0.02265022
v -0.01702871 0.02001370 0.02616980
v -0.01702871 0.02001246 0.02609852
v -0.01702871 0.02000998 0.02437271
v -0.01702871 0.02000998 0.02430143
v -0.01702871 0.02001122 0.02250102
v -0.01702871 0.02058232 0.02062103
v -0.01546252 0.02189461 0.01709482
v -0.01350081 0.02786137 0.01709482
v -0.01307550 0.02789117 0.01709979
v -0.01307550 0.01845931 0.02425666
v -0.01702871 0.02019248 0.02789892
v -0.01702871 0.02157181 0.01991645
v -0.01556391 0.02368985 0.01709482
v -0.01702871 0.02190082 0.01984019
v -0.01496212 0.02706803 0.01709482
v -0.01702871 0.03043877 0.02615654
v -0.01702871 0.03094655 0.02789395
v -0.01307550 0.03089813 0.02969933
v -0.01307550 0.01862195 0.02489659
v -0.01702871 0.02021235 0.02797519
v -0.01556430 0.02370103 0.01709482
v -0.01702871 0.02370103 0.01968436
v -0.01496677 0.02705686 0.01709482
v -0.01702871 0.02707921 0.02049007
v -0.01702871 0.02713383 0.02053151
v -0.01702871 0.03098008 0.02969933
v -0.01530036 0.03098877 0.02969933
v -0.01350081 0.03094903 0.02969933
v -0.01307550 0.03098628 0.03149974
v -0.01307550 0.02008944 0.02971425
v -0.01702871 0.02068661 0.02929814
v -0.01553837 0.02549999 0.01709482
v -0.01702871 0.02438758 0.01969430
v -0.01702871 0.02549999 0.01972083
v -0.01702871 0.03050084 0.03140027
v -0.01530036 0.03083358 0.03149974
v -0.01350081 0.03098628 0.03149974
v -0.01307550 0.03043753 0.03332336
v -0.01307550 0.02067047 0.03103886
v -0.01532281 0.02056742 0.02980378
v -0.01473805 0.02088898 0.03073051
v -0.01702871 0.02071889 0.02934953
v -0.01702871 0.03046360 0.03152792
v -0.01702329 0.03046360 0.03153124
v -0.01530036 0.03033945 0.03272985
v -0.01332356 0.03039407 0.03332833
v -0.01307550 0.03025875 0.03363006
v -0.01307550 0.02085421 0.03125107
v -0.01593775 0.02114100 0.03047354
v -0.01307550 0.02172204 0.03201201
v -0.01702871 0.02168603 0.03029450
v -0.01702871 0.02944183 0.03218443
v -0.01637235 0.03012715 0.03249278
v -0.01307550 0.02953867 0.03400804
v -0.01678180 0.02234156 0.03089132
v -0.01308711 0.02250916 0.03259225
v -0.01428681 0.02287665 0.03235352
v -0.01307550 0.02250668 0.03259391
v -0.01702871 0.02206966 0.03056804
v -0.01702871 0.02909916 0.03221593
v -0.01645633 0.02909916 0.03253589
v -0.01530036 0.02909916 0.03306308
v -0.01352171 0.02909916 0.03382568
v -0.01307550 0.02909916 0.03401468
v -0.01702871 0.02331615 0.03133230
v -0.01530036 0.02326277 0.03213303
v -0.01626051 0.02454153 0.03242978
v -0.01702871 0.02377303 0.03159755
v -0.01307550 0.02252034 0.03260220
v -0.01307550 0.02361536 0.03324710
v -0.01361227 0.02356570 0.03301998
v -0.01530036 0.02416287 0.03264199
v -0.01702871 0.02794828 0.03221758
v -0.01702871 0.02729896 0.03221593
v -0.01645208 0.02729896 0.03253091
v -0.01530036 0.02729896 0.03306474
v -0.01353758 0.02729896 0.03383231
v -0.01307550 0.02820775 0.03402296
v -0.01307550 0.02426344 0.03353722
v -0.01307550 0.02545902 0.03392847
v -0.01333634 0.02561173 0.03383894
v -0.01530036 0.02549999 0.03297355
v -0.01637003 0.02549999 0.03248615
v -0.01702871 0.02549999 0.03212972
v -0.01702871 0.02603012 0.03215624
v -0.01307550 0.02586003 0.03397489
v -0.01307550 0.02729896 0.03402960
f 1 2 11
f 1 11 17
f 1 17 25
f 1 25 36
f 1 36 27
f 1 27 19
f 1 19 12
f 1 12 3
f 1 3 13
f 1 13 22
f 1 22 33
f 1 33 42
f 1 42 51
f 1 51 58
f 1 58 68
f 1 68 82
f 1 82 91
f 1 91 90
f 1 90 84
f 1 84 83
f 1 83 74
f 1 74 73
f 1 73 62
f 1 62 54
f 1 54 52
f 1 52 43
f 1 43 34
f 1 34 23
f 1 23 14
f 1 14 4
f 1 4 5
f 1 5 6
f 1 6 7
f 1 7 8
f 1 8 9
f 1 9 10
f 1 10 2
f 2 10 11
f 3 12 13
f 4 14 5
f 5 15 24
f 5 24 35
f 5 35 46
f 5 46 55
f 5 55 63
f 5 63 69
f 5 69 72
f 5 72 88
f 5 88 89
f 5 89 78
f 5 78 77
f 5 77 64
f 5 64 56
f 5 56 47
f 5 47 39
f 5 39 30
f 5 30 21
f 5 21 20
f 5 20 29
f 5 29 28
f 5 28 38
f 5 38 37
f 5 37 26
f 5 26 18
f 5 18 16
f 5 16 10
f 5 10 9
f 5 9 8
f 5 8 7
f 5 7 6
f 5 14 15
f 10 16 11
f 11 16 18
f 11 18 17
f 12 19 20
f 12 20 13
f 13 20 21
f 13 21 22
f 14 23 15
f 15 23 24
f 17 18 26
f 17 26 25
f 19 27 28
f 19 28 29
f 19 29 20
f 21 30 31
f 21 31 32
f 21 32 22
f 22 32 33
f 23 34 24
f 24 34 35
f 25 26 37
f 25 37 38
f 25 38 36
f 27 36 28
f 28 36 38
f 30 39 40
f 30 40 41
f 30 41 31
f 31 41 33
f 31 33 32
f 33 41 42
f 34 43 44
f 34 44 35
f 35 44 43
f 35 43 45
f 35 45 46
f 39 47 40
f 40 47 48
f 40 48 49
f 40 49 42
f 40 42 41
f 42 49 50
f 42 50 51
f 43 52 45
f 45 53 46
f 45 52 54
f 45 54 53
f 46 53 55
f 47 56 57
f 47 57 48
f 48 57 49
f 49 51 50
f 49 57 51
f 51 57 58
f 53 59 55
f 53 54 60
f 53 60 61
f 53 61 59
f 54 62 60
f 55 59 63
f 56 64 57
f 57 64 65
f 57 65 66
f 57 66 58
f 58 66 67
f 58 67 68
f 59 69 63
f 59 61 70
f 59 70 71
f 59 71 72
f 59 72 69
f 60 62 73
f 60 73 74
f 60 74 75
f 60 75 61
f 61 75 76
f 61 76 70
f 64 77 65
f 65 77 78
f 65 78 79
f 65 79 80
f 65 80 66
f 66 80 81
f 66 81 67
f 67 81 82
f 67 82 68
f 70 76 71
f 71 76 83
f 71 83 84
f 71 84 85
f 71 85 86
f 71 86 87
f 71 87 88
f 71 88 72
f 74 83 75
f 75 83 76
f 78 89 79
f 79 89 87
f 79 87 80
f 80 87 86
f 80 86 90
f 80 90 81
f 81 90 91
f 81 91 82
f 84 90 85
f 85 90 86
f 87 89 88

