# https://github.com/mikedh/trimesh
v 0.01073810 -0.00167447 0.01899119
v 0.01265697 -0.00167447 0.01898881
v 0.01073810 -0.00167447 -0.00371985
v 0.01073810 -0.14908994 0.01898881
v 0.01265697 -0.14908994 0.01898881
v 0.01265697 -0.00167447 -0.00533424
v 0.01078318 -0.00167447 -0.00375795
v 0.01265697 -0.14549445 -0.00530329
v 0.01073810 -0.14729219 -0.00363175
v 0.01073810 -0.15049307 0.01849354
v 0.01265697 -0.14974766 0.01875784
v 0.01265697 -0.14729219 -0.00530091
v 0.01073810 -0.14908994 -0.00362937
v 0.01073810 -0.15099000 0.01709821
v 0.01265697 -0.15049307 0.01849354
v 0.01265697 -0.14908994 -0.00528662
v 0.01073810 -0.14999613 -0.00360556
v 0.01265697 -0.15099000 0.01709821
v 0.01073810 -0.15099000 0.00090189
v 0.01076552 -0.15002535 -0.00362461
v 0.01265697 -0.15044922 -0.00437942
v 0.01169932 -0.15025921 -0.00401987
v 0.01073810 -0.15003998 -0.00358651
v 0.01265697 -0.15099000 -0.00089823
v 0.01169932 -0.15099000 -0.00089823
v 0.01073810 -0.15094615 -0.00089823
v 0.01265697 -0.15087307 -0.00269835
v 0.01169932 -0.15075615 -0.00269835
v 0.01073810 -0.15052229 -0.00266978
f 1 2 6
f 1 6 7
f 1 7 3
f 1 3 9
f 1 9 13
f 1 13 17
f 1 17 23
f 1 23 29
f 1 29 26
f 1 26 19
f 1 19 14
f 1 14 10
f 1 10 4
f 1 4 5
f 1 5 2
f 2 5 11
f 2 11 15
f 2 15 18
f 2 18 24
f 2 24 27
f 2 27 21
f 2 21 16
f 2 16 12
f 2 12 8
f 2 8 6
f 3 7 8
f 3 8 9
f 4 10 11
f 4 11 5
f 6 8 7
f 8 12 13
f 8 13 9
f 10 14 18
f 10 18 15
f 10 15 11
f 12 16 13
f 13 16 17
f 14 19 25
f 14 25 24
f 14 24 18
f 16 20 17
f 16 21 22
f 16 22 20
f 17 20 23
f 19 26 25
f 20 22 23
f 21 27 28
f 21 28 29
f 21 29 22
f 22 29 23
f 24 25 27
f 25 26 27
f 26 29 28
f 26 28 27

