# https://github.com/mikedh/trimesh
v -0.02515062 0.01785840 0.00145052
v -0.03489164 0.01785840 0.00145052
v -0.02515062 0.00924150 0.00145052
v -0.02515062 0.01785840 -0.01292133
v -0.03490214 0.01785840 0.00109453
v -0.03424211 0.01485788 0.00145052
v -0.03302424 0.00924150 0.00145052
v -0.02515062 0.00924150 -0.01266102
v -0.02610103 0.01785840 -0.01292133
v -0.03490787 0.01785840 0.00089895
v -0.03342829 0.01110069 0.00145052
v -0.03302902 0.00925922 0.00145052
v -0.03302806 0.00924150 0.00089895
v -0.02604181 0.00924150 -0.01265399
v -0.02745931 0.01785840 -0.01289600
v -0.03488399 0.01785840 -0.00090070
v -0.03300227 0.00924150 -0.00090070
v -0.02610485 0.00924150 -0.01265258
v -0.02791876 0.01785840 -0.01287912
v -0.02708965 0.00924150 -0.01261881
v -0.03486393 0.01785840 -0.00134252
v -0.03293732 0.00924150 -0.00269753
v -0.03300036 0.00924150 -0.00095417
v -0.02881281 0.01785840 -0.01272997
v -0.02794932 0.00924150 -0.01241057
v -0.02897806 0.01785840 -0.01269198
v -0.03479803 0.01785840 -0.00270035
v -0.03293350 0.00924150 -0.00276929
v -0.02798467 0.00924150 -0.01240072
v -0.02988645 0.01785840 -0.01240634
v -0.03283511 0.00924150 -0.00450140
v -0.03476364 0.01785840 -0.00310981
v -0.03271285 0.00924150 -0.00629964
v -0.03283034 0.00924150 -0.00458301
v -0.02963905 0.00924150 -0.01169155
v -0.02970114 0.01110069 -0.01186321
v -0.02970114 0.01290084 -0.01204050
v -0.03153319 0.01785840 -0.01157617
v -0.03464137 0.01785840 -0.00448030
v -0.03270712 0.00924150 -0.00635593
v -0.02970591 0.00924150 -0.01165778
v -0.02970114 0.00930055 -0.01166763
v -0.03094193 0.01110069 -0.01109776
v -0.03231358 0.01785840 -0.01103726
v -0.03456305 0.01785840 -0.00515428
v -0.03442359 0.01785840 -0.00629964
v -0.03436915 0.01785840 -0.00673724
v -0.03420676 0.01736745 -0.00722550
v -0.03251990 0.00924150 -0.00768420
v -0.03075089 0.00924150 -0.01097816
v -0.03078050 0.00930055 -0.01096691
v -0.03250175 0.01785840 -0.01090077
v -0.03425548 0.01785840 -0.00741545
v -0.03238713 0.01026642 -0.00895338
v -0.03228492 0.00924150 -0.00858332
v -0.03077477 0.00924150 -0.01096128
v -0.03243871 0.01718187 -0.01083746
v -0.03296120 0.01785840 -0.01027040
v -0.03418480 0.01785840 -0.00767998
v -0.03225340 0.00924150 -0.00865086
v -0.03400904 0.01785840 -0.00833709
v -0.03376260 0.01785840 -0.00887459
v -0.03249602 0.01146679 -0.00917148
v -0.03155707 0.00924150 -0.00990457
v -0.03218845 0.01469929 -0.01054619
v -0.03231931 0.01598234 -0.01070801
v -0.03152937 0.00924150 -0.00994396
v -0.03319713 0.01785840 -0.00993130
v -0.03262784 0.01290084 -0.00939239
v -0.03201078 0.01290084 -0.01029292
v -0.03279786 0.01469929 -0.00964566
f 1 2 6
f 1 6 11
f 1 11 12
f 1 12 7
f 1 7 3
f 1 3 8
f 1 8 4
f 1 4 9
f 1 9 15
f 1 15 19
f 1 19 24
f 1 24 26
f 1 26 30
f 1 30 38
f 1 38 44
f 1 44 52
f 1 52 58
f 1 58 68
f 1 68 62
f 1 62 61
f 1 61 59
f 1 59 53
f 1 53 47
f 1 47 46
f 1 46 45
f 1 45 39
f 1 39 32
f 1 32 27
f 1 27 21
f 1 21 16
f 1 16 10
f 1 10 5
f 1 5 2
f 2 5 6
f 3 7 13
f 3 13 17
f 3 17 23
f 3 23 22
f 3 22 28
f 3 28 31
f 3 31 34
f 3 34 33
f 3 33 40
f 3 40 49
f 3 49 55
f 3 55 60
f 3 60 64
f 3 64 67
f 3 67 56
f 3 56 50
f 3 50 41
f 3 41 35
f 3 35 29
f 3 29 25
f 3 25 20
f 3 20 18
f 3 18 14
f 3 14 8
f 4 8 9
f 5 10 6
f 6 10 11
f 7 12 13
f 8 14 9
f 9 14 15
f 10 13 12
f 10 12 11
f 10 16 13
f 13 16 17
f 14 18 15
f 15 18 20
f 15 20 19
f 16 21 22
f 16 22 23
f 16 23 17
f 19 20 24
f 20 25 26
f 20 26 24
f 21 27 22
f 22 27 28
f 25 29 26
f 26 29 30
f 27 31 28
f 27 32 33
f 27 33 34
f 27 34 31
f 29 35 36
f 29 36 37
f 29 37 30
f 30 37 38
f 32 39 33
f 33 39 40
f 35 41 42
f 35 42 36
f 36 42 38
f 36 38 37
f 38 42 41
f 38 41 43
f 38 43 44
f 39 45 40
f 40 46 47
f 40 47 48
f 40 48 49
f 40 45 46
f 41 50 51
f 41 51 43
f 43 51 44
f 44 51 52
f 47 53 48
f 48 53 49
f 49 53 54
f 49 54 55
f 50 56 51
f 51 56 57
f 51 57 52
f 52 57 58
f 53 59 54
f 54 60 55
f 54 59 61
f 54 61 62
f 54 62 63
f 54 63 64
f 54 64 60
f 56 65 66
f 56 66 57
f 56 67 65
f 57 66 58
f 58 66 68
f 62 69 63
f 62 68 69
f 63 69 64
f 64 69 70
f 64 70 67
f 65 70 69
f 65 69 71
f 65 71 68
f 65 68 66
f 65 67 70
f 68 71 69

