# https://github.com/mikedh/trimesh
v -0.02551476 0.02811191 0.01357217
v -0.02809841 0.03041698 0.01357217
v -0.03380526 0.02811191 0.01357217
v -0.02890987 0.02811191 0.00145193
v -0.03023954 0.02955152 0.00145193
v -0.03064474 0.02997016 0.00145193
v -0.02816665 0.03045952 0.01357217
v -0.03379246 0.02910019 0.01357217
v -0.03383618 0.02811191 0.01349979
v -0.03640704 0.02811191 0.00145193
v -0.03106166 0.03022372 0.00145193
v -0.02970106 0.03094944 0.01349979
v -0.02970106 0.03095113 0.01357217
v -0.03149458 0.03047305 0.00145193
v -0.03377860 0.02915006 0.01357217
v -0.03382339 0.02910019 0.01349979
v -0.03418273 0.02910019 0.01256838
v -0.03419019 0.02811191 0.01257905
v -0.03637718 0.02811191 0.00201552
v -0.03640277 0.02910019 0.00145193
v -0.03329983 0.03098972 0.00145193
v -0.03149991 0.03098972 0.00989991
v -0.03149991 0.03098972 0.01349979
v -0.03149991 0.03098297 0.01357217
v -0.03308657 0.03048797 0.01357217
v -0.03441305 0.03025160 0.01136881
v -0.03451968 0.02910019 0.01166900
v -0.03451968 0.02811191 0.01167849
v -0.03633986 0.02811191 0.00270014
v -0.03633240 0.02910019 0.00270014
v -0.03635052 0.02944587 0.00145193
v -0.03509975 0.03076379 0.00145193
v -0.03329983 0.03098972 0.00809996
v -0.03329983 0.03093112 0.00989991
v -0.03310257 0.03049474 0.01349979
v -0.03462418 0.03043614 0.00989991
v -0.03601677 0.03002735 0.00549201
v -0.03505817 0.02910019 0.00989991
v -0.03506456 0.02811191 0.00989991
v -0.03482145 0.02811191 0.01069724
v -0.03625669 0.02811191 0.00351290
v -0.03614793 0.02910019 0.00450008
v -0.03607009 0.03010736 0.00450008
v -0.03616072 0.03022766 0.00270014
v -0.03619591 0.03026879 0.00145193
v -0.03509975 0.03072265 0.00270014
v -0.03481505 0.03049474 0.00809996
v -0.03602637 0.02910019 0.00554659
v -0.03583230 0.02910019 0.00644715
v -0.03546976 0.02910019 0.00809996
v -0.03530875 0.02811191 0.00891154
v -0.03615219 0.02811191 0.00450008
v -0.03609781 0.02811191 0.00497231
v -0.03602637 0.02811191 0.00554896
v -0.03584936 0.02811191 0.00644952
v -0.03549428 0.02811191 0.00809996
f 1 2 7
f 1 7 13
f 1 13 24
f 1 24 25
f 1 25 15
f 1 15 8
f 1 8 3
f 1 3 9
f 1 9 18
f 1 18 28
f 1 28 40
f 1 40 39
f 1 39 51
f 1 51 56
f 1 56 55
f 1 55 54
f 1 54 53
f 1 53 52
f 1 52 41
f 1 41 29
f 1 29 19
f 1 19 10
f 1 10 4
f 1 4 5
f 1 5 6
f 1 6 2
f 2 6 7
f 3 8 16
f 3 16 9
f 4 10 20
f 4 20 31
f 4 31 45
f 4 45 32
f 4 32 21
f 4 21 14
f 4 14 11
f 4 11 6
f 4 6 5
f 6 11 7
f 7 12 13
f 7 11 14
f 7 14 12
f 8 15 16
f 9 16 17
f 9 17 18
f 10 19 20
f 12 14 21
f 12 21 13
f 13 22 23
f 13 23 24
f 13 21 22
f 15 25 26
f 15 26 16
f 16 26 17
f 17 26 27
f 17 27 18
f 18 27 28
f 19 29 20
f 20 29 30
f 20 30 31
f 21 32 33
f 21 33 23
f 21 23 22
f 23 33 34
f 23 34 24
f 24 34 35
f 24 35 25
f 25 35 26
f 26 36 37
f 26 37 38
f 26 38 27
f 26 35 36
f 27 38 39
f 27 39 40
f 27 40 28
f 29 41 30
f 30 41 42
f 30 42 37
f 30 37 43
f 30 43 44
f 30 44 31
f 31 44 45
f 32 45 46
f 32 46 34
f 32 34 33
f 34 46 47
f 34 47 36
f 34 36 35
f 36 47 44
f 36 44 43
f 36 43 37
f 37 42 48
f 37 48 49
f 37 49 50
f 37 50 38
f 38 51 39
f 38 50 51
f 41 52 42
f 42 52 53
f 42 53 48
f 44 47 46
f 44 46 45
f 48 53 54
f 48 54 55
f 48 55 56
f 48 56 49
f 49 56 50
f 50 56 51

