# https://github.com/mikedh/trimesh
v 0.03643788 0.02811191 0.00089968
v 0.03642418 0.02811191 -0.00090073
v 0.03643331 0.02910019 0.00089968
v 0.03640933 0.02811191 0.00145033
v 0.03641504 0.02910019 -0.00090073
v 0.03639221 0.02811191 -0.00171315
v 0.03619925 0.03027640 -0.00090073
v 0.03621066 0.03028738 0.00089968
v 0.03619468 0.03026936 0.00145033
v 0.03640248 0.02910019 0.00145033
v 0.03640705 0.02854830 0.00145033
v 0.02890900 0.02811191 0.00145033
v 0.03634197 0.02910019 -0.00270114
v 0.03616956 0.03024231 -0.00270114
v 0.03634425 0.02811191 -0.00270114
v 0.03509857 0.03073730 -0.00270114
v 0.03509857 0.03077139 -0.00090073
v 0.03509857 0.03078238 0.00089968
v 0.03509857 0.03076434 0.00145033
v 0.03586927 0.03042092 0.00145033
v 0.02924011 0.02848237 0.00145033
v 0.02477462 0.02811191 -0.01485389
v 0.03616499 0.02910019 -0.00450155
v 0.03600400 0.03000820 -0.00543048
v 0.03608050 0.03011835 -0.00450155
v 0.03482226 0.03049474 -0.00809917
v 0.03616728 0.02811191 -0.00450155
v 0.03329913 0.03091676 -0.00989958
v 0.03329913 0.03098972 -0.00809917
v 0.03454710 0.03084604 0.00145033
v 0.03064336 0.02996960 0.00145033
v 0.02704562 0.02996622 -0.01445486
v 0.02642677 0.02949771 -0.01485389
v 0.03324889 0.02811191 -0.01485389
v 0.03602227 0.02811191 -0.00553263
v 0.03601428 0.02910019 -0.00548954
v 0.03585329 0.02811191 -0.00643283
v 0.03549477 0.02910019 -0.00809917
v 0.03505290 0.02910019 -0.00989958
v 0.03420342 0.03000763 -0.01261136
v 0.03434614 0.03018005 -0.01169998
v 0.03461560 0.03042177 -0.00989958
v 0.03329913 0.03067504 -0.01169998
v 0.03149855 0.03085844 -0.01485389
v 0.03149855 0.03098634 -0.01349879
v 0.03149855 0.03098972 -0.01169998
v 0.03329913 0.03098972 0.00145033
v 0.03149398 0.03047305 0.00145033
v 0.02782659 0.03054995 -0.01485389
v 0.02744524 0.03031105 -0.01485389
v 0.03324433 0.02910019 -0.01485389
v 0.03383234 0.02910019 -0.01351954
v 0.03383691 0.02811191 -0.01351635
v 0.03569915 0.02811191 -0.00720216
v 0.03551875 0.02811191 -0.00809917
v 0.03532008 0.02811191 -0.00891159
v 0.03506432 0.02811191 -0.00989958
v 0.03450028 0.02910019 -0.01169998
v 0.03420684 0.02910019 -0.01261934
v 0.03299770 0.03001523 -0.01485389
v 0.03285726 0.03033866 -0.01485389
v 0.03333110 0.03039783 -0.01332642
v 0.02970025 0.03097986 -0.01485389
v 0.03149855 0.03098972 -0.00989958
v 0.03265973 0.03080745 0.00145033
v 0.02970025 0.03094916 -0.01349879
v 0.03420570 0.02811191 -0.01261615
v 0.03481541 0.02811191 -0.01071040
v 0.03450485 0.02811191 -0.01169998
v 0.03437240 0.02811191 -0.01211337
f 1 2 3
f 1 3 4
f 1 4 12
f 1 12 22
f 1 22 34
f 1 34 53
f 1 53 67
f 1 67 70
f 1 70 69
f 1 69 68
f 1 68 57
f 1 57 56
f 1 56 55
f 1 55 54
f 1 54 37
f 1 37 35
f 1 35 27
f 1 27 15
f 1 15 6
f 1 6 2
f 2 5 3
f 2 6 5
f 3 5 7
f 3 7 8
f 3 8 9
f 3 9 10
f 3 10 11
f 3 11 4
f 4 11 10
f 4 10 9
f 4 9 20
f 4 20 19
f 4 19 30
f 4 30 47
f 4 47 65
f 4 65 48
f 4 48 31
f 4 31 21
f 4 21 12
f 5 6 13
f 5 13 14
f 5 14 7
f 6 15 13
f 7 14 16
f 7 16 17
f 7 17 8
f 8 17 18
f 8 18 19
f 8 19 20
f 8 20 9
f 12 21 22
f 13 15 27
f 13 27 23
f 13 23 24
f 13 24 25
f 13 25 14
f 14 25 26
f 14 26 16
f 16 26 28
f 16 28 29
f 16 29 17
f 17 29 18
f 18 30 19
f 18 29 30
f 21 31 22
f 22 31 32
f 22 32 33
f 22 33 50
f 22 50 49
f 22 49 63
f 22 63 44
f 22 44 61
f 22 61 60
f 22 60 51
f 22 51 34
f 23 27 35
f 23 35 36
f 23 36 24
f 24 36 37
f 24 37 38
f 24 38 39
f 24 39 40
f 24 40 41
f 24 41 42
f 24 42 25
f 25 42 26
f 26 42 28
f 28 42 43
f 28 43 44
f 28 44 45
f 28 45 29
f 29 45 46
f 29 46 64
f 29 64 47
f 29 47 30
f 31 48 49
f 31 49 50
f 31 50 32
f 32 50 33
f 34 51 52
f 34 52 53
f 35 37 36
f 37 54 38
f 38 54 55
f 38 55 56
f 38 56 39
f 39 56 57
f 39 57 58
f 39 58 40
f 40 58 59
f 40 59 52
f 40 52 51
f 40 51 60
f 40 60 61
f 40 61 41
f 41 61 42
f 42 61 62
f 42 62 43
f 43 62 61
f 43 61 44
f 44 63 45
f 45 63 46
f 46 63 64
f 47 64 63
f 47 63 66
f 47 66 49
f 47 49 65
f 48 65 49
f 49 66 63
f 52 59 53
f 53 59 67
f 57 68 58
f 58 68 69
f 58 69 59
f 59 69 70
f 59 70 67

