# https://github.com/mikedh/trimesh
v 0.03500794 0.01829338 0.00089866
v 0.03499320 0.01829338 0.00145051
v 0.03487531 0.01774747 0.00145051
v 0.03370126 0.01234863 0.00145051
v 0.03330950 0.01054872 0.00145051
v 0.03302458 0.00924067 0.00145051
v 0.03304178 0.00930004 0.00089866
v 0.03499320 0.01829338 -0.00090122
v 0.02246306 0.01829338 0.00145051
v 0.02246306 0.00924067 0.00145051
v 0.03302827 0.00924067 0.00095809
v 0.03302827 0.00924067 0.00089866
v 0.03300862 0.00924067 -0.00084179
v 0.03302090 0.00930004 -0.00090122
v 0.03294967 0.00924067 -0.00264168
v 0.03294721 0.00924067 -0.00269828
v 0.03490355 0.01829338 -0.00270111
v 0.02246306 0.01829338 -0.01300234
v 0.02246306 0.00924067 -0.01102133
v 0.03300739 0.00924067 -0.00090122
v 0.03285020 0.00924067 -0.00450099
v 0.03474882 0.01829338 -0.00450099
v 0.03271511 0.00924067 -0.00629946
v 0.02610064 0.01829338 -0.01300234
v 0.02249990 0.00924067 -0.01266698
v 0.02246306 0.00924244 -0.01266698
v 0.03272739 0.00930004 -0.00629946
v 0.03451793 0.01829338 -0.00629946
v 0.03251984 0.00924067 -0.00768475
v 0.02789979 0.01829338 -0.01296696
v 0.02610310 0.00924067 -0.01265000
v 0.02430027 0.00924067 -0.01266698
v 0.03420232 0.01737880 -0.00721639
v 0.03429565 0.01829338 -0.00757721
v 0.03228528 0.00924067 -0.00858469
v 0.02911314 0.01829338 -0.01276603
v 0.02708188 0.00924067 -0.01261604
v 0.02614731 0.00924067 -0.01264859
v 0.03238598 0.01026602 -0.00895401
v 0.03405740 0.01829338 -0.00847715
v 0.03155702 0.00924067 -0.00990348
v 0.03001332 0.01829338 -0.01242077
v 0.02797716 0.00924067 -0.01240237
v 0.03249528 0.01146596 -0.00917192
v 0.03330090 0.01829338 -0.00989923
v 0.03077473 0.00924067 -0.01096332
v 0.03218826 0.01469976 -0.01054589
v 0.03201019 0.01290075 -0.01029260
v 0.03157176 0.00930004 -0.00989923
v 0.03149930 0.01829338 -0.01166233
v 0.02969893 0.01110083 -0.01186609
v 0.02969893 0.01290075 -0.01204155
v 0.02969893 0.00930004 -0.01167082
v 0.02970384 0.00924067 -0.01166091
v 0.03262668 0.01290075 -0.00939266
v 0.03279739 0.01469976 -0.00964595
v 0.03231844 0.01597681 -0.01071003
v 0.03243879 0.01717674 -0.01083880
v 0.03254318 0.01829338 -0.01094209
v 0.03094175 0.01110083 -0.01110057
f 1 2 3
f 1 3 4
f 1 4 5
f 1 5 6
f 1 6 7
f 1 7 8
f 1 8 17
f 1 17 22
f 1 22 28
f 1 28 34
f 1 34 40
f 1 40 45
f 1 45 59
f 1 59 50
f 1 50 42
f 1 42 36
f 1 36 30
f 1 30 24
f 1 24 18
f 1 18 9
f 1 9 2
f 2 9 10
f 2 10 6
f 2 6 5
f 2 5 4
f 2 4 3
f 6 10 19
f 6 19 25
f 6 25 32
f 6 32 31
f 6 31 38
f 6 38 37
f 6 37 43
f 6 43 54
f 6 54 46
f 6 46 41
f 6 41 35
f 6 35 29
f 6 29 23
f 6 23 21
f 6 21 16
f 6 16 15
f 6 15 20
f 6 20 13
f 6 13 12
f 6 12 11
f 6 11 7
f 7 11 12
f 7 12 13
f 7 13 8
f 8 13 14
f 8 14 15
f 8 15 16
f 8 16 17
f 9 18 26
f 9 26 19
f 9 19 10
f 13 20 14
f 14 20 15
f 16 21 17
f 17 21 23
f 17 23 22
f 18 24 32
f 18 32 25
f 18 25 26
f 19 26 25
f 22 23 27
f 22 27 28
f 23 29 27
f 24 30 31
f 24 31 32
f 27 29 28
f 28 29 33
f 28 33 34
f 29 34 33
f 29 35 34
f 30 36 37
f 30 37 38
f 30 38 31
f 34 35 39
f 34 39 40
f 35 41 39
f 36 42 43
f 36 43 37
f 39 44 40
f 39 41 44
f 40 44 45
f 41 46 47
f 41 47 48
f 41 48 49
f 41 49 44
f 42 50 51
f 42 51 52
f 42 52 43
f 43 52 51
f 43 51 53
f 43 53 54
f 44 55 45
f 44 49 55
f 45 55 56
f 45 56 57
f 45 57 58
f 45 58 59
f 46 59 58
f 46 58 57
f 46 57 47
f 46 54 60
f 46 60 59
f 47 57 56
f 47 56 55
f 47 55 48
f 48 55 49
f 50 60 54
f 50 54 53
f 50 53 51
f 50 59 60

