# https://github.com/mikedh/trimesh
v -0.03330030 0.03099000 0.00145033
v -0.02970089 0.03094742 -0.01349879
v -0.02970089 0.03097936 -0.01485389
v -0.03014750 0.03098787 -0.01485389
v -0.03149949 0.03099000 -0.00989958
v -0.03330030 0.03099000 -0.00809917
v -0.03510001 0.03078136 0.00089968
v -0.03510001 0.03076220 0.00145033
v -0.03149507 0.03047267 0.00145033
v -0.02810238 0.03063872 -0.01485389
v -0.03149949 0.03099000 -0.01169998
v -0.03149949 0.03085801 -0.01485389
v -0.03149949 0.03098574 -0.01349879
v -0.03330030 0.03091549 -0.00989958
v -0.03510001 0.03073665 -0.00270114
v -0.03510001 0.03077072 -0.00090073
v -0.03621101 0.03028532 0.00089968
v -0.03619553 0.03026829 0.00145033
v -0.02782712 0.03054931 -0.01485389
v -0.02515077 0.02798818 0.00145033
v -0.03191404 0.03071963 -0.01485389
v -0.03330030 0.03067278 -0.01169998
v -0.03461581 0.03042157 -0.00989958
v -0.03482254 0.03049396 -0.00809917
v -0.03617010 0.03024060 -0.00270114
v -0.03619995 0.03027467 -0.00090073
v -0.03643431 0.02909950 0.00089968
v -0.03635030 0.02944439 0.00145033
v -0.02693058 0.03007455 -0.01485389
v -0.02515077 0.02817553 -0.01485389
v -0.02515077 0.00924279 0.00145033
v -0.03285812 0.03033641 -0.01485389
v -0.03333126 0.03039602 -0.01332642
v -0.03434608 0.03017887 -0.01169998
v -0.03600429 0.03000643 -0.00542888
v -0.03608056 0.03011713 -0.00450155
v -0.03634256 0.02909950 -0.00270114
v -0.03641441 0.02909950 -0.00090073
v -0.03640226 0.02909950 0.00145033
v -0.03643210 0.02729840 -0.00090073
v -0.03644205 0.02729840 0.00089968
v -0.03641331 0.02729840 0.00145033
v -0.02515077 0.01987476 -0.01485389
v -0.03302504 0.00924279 0.00145033
v -0.02515077 0.00924279 -0.01266084
v -0.03324392 0.02909950 -0.01485389
v -0.03420458 0.03000643 -0.01260976
v -0.03505247 0.02909950 -0.00989958
v -0.03549466 0.02909950 -0.00809917
v -0.03586831 0.02729840 -0.00646316
v -0.03601423 0.02909950 -0.00548634
v -0.03616458 0.02909950 -0.00450155
v -0.03634698 0.02729840 -0.00270114
v -0.03641110 0.02549944 -0.00090073
v -0.03640889 0.02549944 0.00089968
v -0.03638236 0.02549944 0.00145033
v -0.02734071 0.01987476 -0.01485389
v -0.03304052 0.00930027 0.00089968
v -0.03302725 0.00924279 0.00089968
v -0.03538301 0.02010043 0.00145033
v -0.03579314 0.02189939 0.00089968
v -0.03540070 0.02010043 0.00089968
v -0.02610479 0.00924279 -0.01265286
v -0.02790118 0.01987689 -0.01485389
v -0.03383314 0.02909950 -0.01351795
v -0.03325277 0.02774974 -0.01485389
v -0.03420789 0.02909950 -0.01261774
v -0.03449974 0.02909950 -0.01169998
v -0.03507458 0.02729840 -0.00989958
v -0.03553999 0.02729840 -0.00809917
v -0.03585726 0.02549944 -0.00641847
v -0.03602197 0.02549944 -0.00551827
v -0.03602860 0.02729840 -0.00556455
v -0.03616900 0.02729840 -0.00450155
v -0.03632266 0.02549944 -0.00270114
v -0.03614800 0.02394318 -0.00270114
v -0.03619332 0.02373880 -0.00090073
v -0.03619000 0.02373241 0.00089968
v -0.03617674 0.02378351 0.00145033
v -0.03302725 0.00924279 0.00084062
v -0.03577324 0.02189939 0.00145033
v -0.02706545 0.00924279 -0.01261934
v -0.02971747 0.01998546 -0.01485389
v -0.03325387 0.02729840 -0.01485389
v -0.03383977 0.02729840 -0.01351156
v -0.03420458 0.02729840 -0.01261296
v -0.03450858 0.02729840 -0.01169998
v -0.03505247 0.02549944 -0.00989958
v -0.03551235 0.02549944 -0.00809917
v -0.03600429 0.02457974 -0.00542569
v -0.03614357 0.02549944 -0.00450155
v -0.03605735 0.02434555 -0.00450155
v -0.03270666 0.00924279 -0.00635782
v -0.03271219 0.00924279 -0.00630036
v -0.03283048 0.00924279 -0.00458295
v -0.03283601 0.00924279 -0.00450155
v -0.03294987 0.00930027 -0.00270114
v -0.03300072 0.00924279 -0.00095340
v -0.03301509 0.00930027 -0.00090073
v -0.03611815 0.02350887 0.00145033
v -0.03300183 0.00924279 -0.00090073
v -0.02708977 0.00924279 -0.01261774
v -0.03088374 0.02036229 -0.01485389
v -0.03324724 0.02594865 -0.01485389
v -0.03324282 0.02553138 -0.01485389
v -0.03390168 0.02563995 -0.01332163
v -0.03420126 0.02633612 -0.01260338
v -0.03443783 0.02563995 -0.01185800
v -0.03418800 0.02513539 -0.01256348
v -0.03439251 0.02369835 -0.01139672
v -0.03483801 0.02369835 -0.00989958
v -0.03530010 0.02369835 -0.00809917
v -0.03572571 0.02386654 -0.00613596
v -0.03251984 0.00924279 -0.00768418
v -0.03293329 0.00924279 -0.00276977
v -0.03293660 0.00924279 -0.00269795
v -0.02794982 0.00924279 -0.01241025
v -0.03174159 0.02081150 -0.01485389
v -0.03134915 0.02055389 -0.01485389
v -0.03307368 0.02358339 -0.01485389
v -0.03366069 0.02369835 -0.01349879
v -0.03410951 0.02369835 -0.01229693
v -0.03238718 0.01026681 -0.00895309
v -0.03228548 0.00924279 -0.00858439
v -0.02798520 0.00924279 -0.01240067
v -0.03227774 0.02138206 -0.01485389
v -0.03274315 0.02239330 -0.01485389
v -0.03225342 0.00924279 -0.00865142
v -0.02963898 0.00924279 -0.01169041
v -0.03258838 0.02201010 -0.01485389
v -0.02970642 0.00924279 -0.01165848
v -0.03075109 0.00924279 -0.01097854
v -0.03077541 0.00924279 -0.01096099
v -0.03268013 0.02220596 -0.01485389
v -0.03155698 0.00924279 -0.00990436
v -0.03152934 0.00924279 -0.00994427
f 1 2 3
f 1 3 4
f 1 4 5
f 1 5 11
f 1 11 6
f 1 6 7
f 1 7 8
f 1 8 18
f 1 18 28
f 1 28 39
f 1 39 42
f 1 42 56
f 1 56 79
f 1 79 100
f 1 100 81
f 1 81 60
f 1 60 44
f 1 44 31
f 1 31 20
f 1 20 9
f 1 9 10
f 1 10 2
f 2 10 3
f 3 10 19
f 3 19 29
f 3 29 30
f 3 30 43
f 3 43 57
f 3 57 64
f 3 64 83
f 3 83 103
f 3 103 119
f 3 119 118
f 3 118 126
f 3 126 130
f 3 130 134
f 3 134 127
f 3 127 120
f 3 120 105
f 3 105 104
f 3 104 84
f 3 84 66
f 3 66 46
f 3 46 32
f 3 32 21
f 3 21 12
f 3 12 4
f 4 11 5
f 4 12 13
f 4 13 11
f 6 11 13
f 6 13 14
f 6 14 15
f 6 15 16
f 6 16 7
f 7 16 17
f 7 17 8
f 8 17 18
f 9 19 10
f 9 20 19
f 12 21 14
f 12 14 13
f 14 21 22
f 14 22 23
f 14 23 24
f 14 24 15
f 15 24 25
f 15 25 26
f 15 26 16
f 16 26 17
f 17 26 27
f 17 27 18
f 18 27 28
f 19 20 29
f 20 30 29
f 20 31 45
f 20 45 43
f 20 43 30
f 21 32 33
f 21 33 22
f 22 33 23
f 23 33 32
f 23 32 34
f 23 34 35
f 23 35 36
f 23 36 24
f 24 36 25
f 25 36 37
f 25 37 38
f 25 38 26
f 26 38 27
f 27 39 28
f 27 38 40
f 27 40 41
f 27 41 42
f 27 42 39
f 31 44 59
f 31 59 80
f 31 80 101
f 31 101 98
f 31 98 116
f 31 116 115
f 31 115 96
f 31 96 95
f 31 95 94
f 31 94 93
f 31 93 114
f 31 114 124
f 31 124 128
f 31 128 135
f 31 135 136
f 31 136 133
f 31 133 132
f 31 132 131
f 31 131 129
f 31 129 125
f 31 125 117
f 31 117 102
f 31 102 82
f 31 82 63
f 31 63 45
f 32 46 47
f 32 47 34
f 34 47 35
f 35 47 48
f 35 48 49
f 35 49 50
f 35 50 51
f 35 51 52
f 35 52 37
f 35 37 36
f 37 52 74
f 37 74 53
f 37 53 40
f 37 40 38
f 40 53 54
f 40 54 41
f 41 54 55
f 41 55 56
f 41 56 42
f 43 45 57
f 44 58 59
f 44 60 61
f 44 61 62
f 44 62 58
f 45 63 64
f 45 64 57
f 46 65 47
f 46 66 65
f 47 65 67
f 47 67 68
f 47 68 48
f 48 68 69
f 48 69 70
f 48 70 49
f 49 70 50
f 50 70 71
f 50 71 72
f 50 72 73
f 50 73 51
f 51 73 52
f 52 73 74
f 53 74 75
f 53 75 54
f 54 75 76
f 54 76 77
f 54 77 55
f 55 77 78
f 55 78 79
f 55 79 56
f 58 80 59
f 58 62 77
f 58 77 80
f 60 81 61
f 61 81 78
f 61 78 77
f 61 77 62
f 63 82 83
f 63 83 64
f 65 66 84
f 65 84 85
f 65 85 67
f 67 85 86
f 67 86 87
f 67 87 68
f 68 87 69
f 69 87 88
f 69 88 70
f 70 88 89
f 70 89 71
f 71 89 90
f 71 90 72
f 72 90 91
f 72 91 74
f 72 74 73
f 74 91 75
f 75 91 90
f 75 90 92
f 75 92 76
f 76 92 93
f 76 93 94
f 76 94 95
f 76 95 96
f 76 96 97
f 76 97 77
f 77 97 98
f 77 98 99
f 77 99 80
f 78 100 79
f 78 81 100
f 80 99 101
f 82 102 83
f 83 102 103
f 84 104 85
f 85 104 105
f 85 105 106
f 85 106 107
f 85 107 86
f 86 107 87
f 87 107 108
f 87 108 88
f 88 108 109
f 88 109 110
f 88 110 111
f 88 111 112
f 88 112 89
f 89 112 90
f 90 112 113
f 90 113 114
f 90 114 93
f 90 93 92
f 96 115 97
f 97 115 116
f 97 116 98
f 98 101 99
f 102 117 118
f 102 118 119
f 102 119 103
f 105 120 109
f 105 109 106
f 106 109 107
f 107 109 108
f 109 120 121
f 109 121 122
f 109 122 110
f 110 122 123
f 110 123 111
f 111 123 124
f 111 124 114
f 111 114 112
f 112 114 113
f 117 125 118
f 118 125 126
f 120 127 123
f 120 123 121
f 121 123 122
f 123 128 124
f 123 127 128
f 125 129 126
f 126 129 131
f 126 131 132
f 126 132 133
f 126 133 130
f 127 134 135
f 127 135 128
f 130 133 134
f 133 136 134
f 134 136 135

