# https://github.com/mikedh/trimesh
v -0.01418804 0.01972627 -0.02150230
v -0.01418804 0.01981006 -0.01937640
v -0.01799549 0.02001073 -0.02250101
v -0.01799549 0.02001073 -0.02430130
v -0.01710019 0.02005814 -0.02610014
v -0.01530064 0.02001844 -0.02610014
v -0.01418804 0.02000962 -0.02610014
v -0.01418804 0.01991811 -0.01864927
v -0.01799549 0.02053996 -0.02062186
v -0.01799549 0.02011988 -0.02610014
v -0.01418804 0.02023124 -0.02789898
v -0.01496928 0.02042970 -0.01864927
v -0.01418804 0.02756436 -0.01864927
v -0.01518621 0.02061934 -0.01864927
v -0.01799549 0.02134923 -0.02024516
v -0.01799549 0.02064029 -0.02773107
v -0.01530064 0.02032496 -0.02789898
v -0.01418804 0.02072408 -0.02919992
v -0.01799549 0.03064049 -0.02610014
v -0.01799549 0.03040565 -0.02543288
v -0.01799549 0.03016860 -0.02501967
v -0.01799549 0.02718508 -0.02060872
v -0.01430918 0.02750813 -0.01864927
v -0.01418804 0.03079154 -0.02888746
v -0.01530884 0.02089608 -0.01864927
v -0.01799549 0.02190051 -0.02000278
v -0.01799549 0.02122905 -0.02857208
v -0.01763021 0.02113534 -0.02864947
v -0.01643039 0.02093357 -0.02888162
v -0.01530064 0.02081229 -0.02904953
v -0.01705844 0.02060280 -0.02798950
v -0.01418804 0.02144626 -0.03009934
v -0.01799549 0.03090401 -0.02700394
v -0.01799549 0.02549926 -0.01999402
v -0.01523653 0.02707372 -0.01864927
v -0.01418804 0.03096465 -0.02969927
v -0.01568567 0.02190051 -0.01864927
v -0.01799549 0.02271861 -0.01998234
v -0.01569089 0.02199974 -0.01864927
v -0.01799549 0.02214528 -0.02941894
v -0.01763431 0.02300528 -0.03043224
v -0.01643449 0.02269435 -0.03070820
v -0.01530064 0.02250361 -0.03091845
v -0.01418804 0.02234595 -0.03111557
v -0.01710019 0.03096134 -0.02789898
v -0.01799549 0.03097567 -0.02789898
v -0.01799549 0.02433276 -0.01997066
v -0.01573935 0.02549926 -0.01864927
v -0.01530064 0.03098890 -0.02969927
v -0.01418804 0.03098890 -0.03081187
v -0.01799549 0.02370099 -0.01995898
v -0.01575686 0.02370099 -0.01864927
v -0.01799549 0.02317287 -0.03035924
v -0.01799549 0.02351576 -0.03062352
v -0.01619482 0.02461611 -0.03239607
v -0.01499500 0.02428093 -0.03265451
v -0.01418804 0.02410453 -0.03282096
v -0.01418804 0.02327430 -0.03206609
v -0.01799549 0.03098890 -0.02880424
v -0.01418804 0.03092276 -0.03149957
v -0.01710019 0.03098890 -0.02969927
v -0.01799549 0.02401301 -0.03098854
v -0.01799549 0.02548714 -0.03154337
v -0.01702117 0.02532947 -0.03207047
v -0.01636852 0.02581460 -0.03248660
v -0.01547732 0.02532947 -0.03282388
v -0.01418804 0.02551139 -0.03340792
v -0.01799549 0.03080919 -0.02977666
v -0.01418804 0.03061624 -0.03249682
v -0.01530064 0.03081360 -0.03149957
v -0.01799549 0.02729975 -0.03168208
v -0.01734321 0.02729975 -0.03205733
v -0.01644306 0.02729975 -0.03252456
v -0.01530064 0.02729975 -0.03307793
v -0.01418804 0.02729975 -0.03356415
v -0.01418804 0.02635375 -0.03348238
v -0.01799549 0.03051921 -0.03073886
v -0.01418804 0.03042771 -0.03296551
v -0.01530064 0.03031855 -0.03272751
v -0.01700290 0.03045196 -0.03153899
v -0.01799549 0.03037478 -0.03117981
v -0.01732047 0.02909912 -0.03205295
v -0.01799549 0.02906604 -0.03166310
v -0.01642033 0.02909912 -0.03251142
v -0.01530064 0.02909912 -0.03306625
v -0.01418804 0.02797120 -0.03355977
v -0.01418804 0.02955006 -0.03339478
v -0.01633795 0.03009472 -0.03246907
v -0.01799549 0.02975514 -0.03147329
v -0.01418804 0.02901643 -0.03354224
f 1 2 3
f 1 3 4
f 1 4 5
f 1 5 6
f 1 6 7
f 1 7 11
f 1 11 18
f 1 18 32
f 1 32 44
f 1 44 58
f 1 58 57
f 1 57 67
f 1 67 76
f 1 76 75
f 1 75 86
f 1 86 90
f 1 90 87
f 1 87 78
f 1 78 69
f 1 69 60
f 1 60 50
f 1 50 36
f 1 36 24
f 1 24 13
f 1 13 8
f 1 8 2
f 2 8 3
f 3 8 9
f 3 9 15
f 3 15 26
f 3 26 38
f 3 38 51
f 3 51 47
f 3 47 34
f 3 34 22
f 3 22 21
f 3 21 20
f 3 20 19
f 3 19 33
f 3 33 46
f 3 46 59
f 3 59 68
f 3 68 77
f 3 77 81
f 3 81 89
f 3 89 83
f 3 83 71
f 3 71 63
f 3 63 62
f 3 62 54
f 3 54 53
f 3 53 40
f 3 40 27
f 3 27 16
f 3 16 10
f 3 10 4
f 4 10 5
f 5 11 6
f 5 10 11
f 6 11 7
f 8 12 9
f 8 13 23
f 8 23 35
f 8 35 48
f 8 48 52
f 8 52 39
f 8 39 37
f 8 37 25
f 8 25 14
f 8 14 12
f 9 12 14
f 9 14 15
f 10 16 17
f 10 17 11
f 11 17 18
f 13 19 20
f 13 20 21
f 13 21 22
f 13 22 23
f 13 24 19
f 14 25 26
f 14 26 15
f 16 27 28
f 16 28 29
f 16 29 30
f 16 30 31
f 16 31 17
f 17 31 18
f 18 30 32
f 18 31 30
f 19 24 33
f 22 34 35
f 22 35 23
f 24 36 33
f 25 37 26
f 26 37 39
f 26 39 38
f 27 40 41
f 27 41 42
f 27 42 28
f 28 42 29
f 29 32 30
f 29 42 43
f 29 43 44
f 29 44 32
f 33 36 45
f 33 45 46
f 34 47 48
f 34 48 35
f 36 49 45
f 36 50 49
f 38 39 51
f 39 52 51
f 40 53 41
f 41 53 54
f 41 54 55
f 41 55 56
f 41 56 42
f 42 56 57
f 42 57 58
f 42 58 43
f 43 58 44
f 45 49 46
f 46 49 59
f 47 51 48
f 48 51 52
f 49 50 61
f 49 61 59
f 50 60 61
f 54 62 55
f 55 62 63
f 55 63 64
f 55 64 65
f 55 65 66
f 55 66 67
f 55 67 56
f 56 67 57
f 59 61 68
f 60 69 70
f 60 70 61
f 61 70 68
f 63 71 72
f 63 72 65
f 63 65 64
f 65 72 73
f 65 73 74
f 65 74 75
f 65 75 76
f 65 76 67
f 65 67 66
f 68 70 77
f 69 78 70
f 70 78 79
f 70 79 80
f 70 80 81
f 70 81 77
f 71 82 72
f 71 83 82
f 72 82 73
f 73 84 85
f 73 85 74
f 73 82 84
f 74 85 75
f 75 85 86
f 78 87 79
f 79 87 88
f 79 88 81
f 79 81 80
f 81 88 89
f 82 83 88
f 82 88 84
f 83 89 88
f 84 88 85
f 85 90 86
f 85 88 90
f 87 90 88

