# https://github.com/mikedh/trimesh
v -0.02969960 0.03098884 0.01530012
v -0.02969960 0.03098189 0.01709972
v -0.02790033 0.03097031 0.01763856
v -0.02790033 0.03096104 0.01709972
v -0.02969960 0.03095061 0.01357335
v -0.03149887 0.03098305 0.01357335
v -0.02969960 0.03091121 0.01763856
v -0.03149887 0.03082199 0.01530012
v -0.02609777 0.03055896 0.01763856
v -0.01702909 0.02782206 0.01357335
v -0.03308618 0.03048712 0.01357335
v -0.03153009 0.03045352 0.01700819
v -0.03131155 0.03038631 0.01763856
v -0.03272633 0.03032722 0.01530012
v -0.02538791 0.03023452 0.01763856
v -0.01702909 0.02707237 0.01496902
v -0.01702909 0.01916178 0.01357335
v -0.03377796 0.02914995 0.01357335
v -0.03247985 0.03010706 0.01634677
v -0.03180943 0.02932261 0.01763856
v -0.02058328 0.02717318 0.01763856
v -0.01702909 0.02549998 0.01555562
v -0.01702909 0.02056383 0.01490295
v -0.02062271 0.02055688 0.01763856
v -0.02193725 0.02015828 0.01763856
v -0.02250086 0.02001112 0.01763856
v -0.02070159 0.01915367 0.01357335
v -0.03379274 0.02909897 0.01357335
v -0.03306810 0.02909897 0.01530012
v -0.03252750 0.02909897 0.01643512
v -0.03203619 0.02909897 0.01733531
v -0.03186530 0.02909897 0.01763856
v -0.01996216 0.02549998 0.01763856
v -0.01702909 0.02370049 0.01559621
v -0.01702909 0.02065885 0.01495230
v -0.02009525 0.02169590 0.01763856
v -0.01702909 0.02190100 0.01550547
v -0.02250086 0.01915251 0.01357335
v -0.02556045 0.02001112 0.01763856
v -0.03381575 0.02729948 0.01357335
v -0.03308289 0.02729948 0.01530012
v -0.03253243 0.02729948 0.01645223
v -0.03204934 0.02729948 0.01735203
v -0.03188338 0.02763319 0.01763856
v -0.01996051 0.02370049 0.01763856
v -0.02000488 0.02190100 0.01763856
v -0.02430178 0.01915251 0.01357335
v -0.02609941 0.02001460 0.01763856
v -0.02609941 0.01915367 0.01357335
v -0.03380589 0.02549998 0.01357335
v -0.03306975 0.02549998 0.01530012
v -0.03252257 0.02549998 0.01643830
v -0.03204769 0.02549998 0.01733850
v -0.03187845 0.02584529 0.01763856
v -0.03188502 0.02729948 0.01763856
v -0.02736137 0.02003777 0.01763856
v -0.02790033 0.01917916 0.01357335
v -0.03369415 0.02370049 0.01357335
v -0.03296623 0.02370049 0.01530012
v -0.03246999 0.02370049 0.01633881
v -0.03199347 0.02370049 0.01723861
v -0.03178643 0.02410025 0.01763856
v -0.03187352 0.02550462 0.01763856
v -0.02790033 0.02009571 0.01763856
v -0.02980312 0.01959862 0.01357335
v -0.03316012 0.02190795 0.01357335
v -0.03241741 0.02275266 0.01623614
v -0.03176014 0.02370049 0.01763856
v -0.02941697 0.02043637 0.01763856
v -0.02974890 0.02054645 0.01763856
v -0.02986885 0.02050010 0.01726408
v -0.03150052 0.02022085 0.01357335
v -0.03256036 0.02085351 0.01357335
v -0.03240262 0.02099720 0.01440828
v -0.03259323 0.02205163 0.01512502
v -0.03210685 0.02155338 0.01560815
v -0.03150380 0.02188709 0.01710489
v -0.03126390 0.02202035 0.01763856
v -0.03067236 0.02095548 0.01763856
v -0.03090733 0.02078399 0.01677379
v -0.03093691 0.02135524 0.01763856
f 1 2 3
f 1 3 4
f 1 4 5
f 1 5 6
f 1 6 2
f 2 7 3
f 2 6 8
f 2 8 7
f 3 9 4
f 3 7 13
f 3 13 20
f 3 20 32
f 3 32 44
f 3 44 55
f 3 55 54
f 3 54 63
f 3 63 62
f 3 62 68
f 3 68 78
f 3 78 81
f 3 81 79
f 3 79 70
f 3 70 69
f 3 69 64
f 3 64 56
f 3 56 48
f 3 48 39
f 3 39 26
f 3 26 25
f 3 25 24
f 3 24 36
f 3 36 46
f 3 46 45
f 3 45 33
f 3 33 21
f 3 21 15
f 3 15 9
f 4 9 10
f 4 10 5
f 5 10 17
f 5 17 27
f 5 27 38
f 5 38 47
f 5 47 49
f 5 49 57
f 5 57 65
f 5 65 72
f 5 72 73
f 5 73 66
f 5 66 58
f 5 58 50
f 5 50 40
f 5 40 28
f 5 28 18
f 5 18 11
f 5 11 6
f 6 11 8
f 7 8 12
f 7 12 13
f 8 11 14
f 8 14 12
f 9 15 10
f 10 16 22
f 10 22 34
f 10 34 37
f 10 37 35
f 10 35 23
f 10 23 17
f 10 15 16
f 11 18 14
f 12 14 13
f 13 14 19
f 13 19 20
f 14 18 19
f 15 21 16
f 16 21 22
f 17 23 24
f 17 24 25
f 17 25 26
f 17 26 27
f 18 28 19
f 19 28 29
f 19 29 30
f 19 30 31
f 19 31 32
f 19 32 20
f 21 33 22
f 22 33 34
f 23 35 24
f 24 35 37
f 24 37 36
f 26 38 27
f 26 39 47
f 26 47 38
f 28 40 29
f 29 40 41
f 29 41 30
f 30 41 42
f 30 42 43
f 30 43 31
f 31 43 32
f 32 43 44
f 33 45 34
f 34 45 46
f 34 46 37
f 36 37 46
f 39 48 49
f 39 49 47
f 40 50 41
f 41 50 51
f 41 51 42
f 42 51 52
f 42 52 53
f 42 53 43
f 43 53 54
f 43 54 55
f 43 55 44
f 48 56 57
f 48 57 49
f 50 58 59
f 50 59 51
f 51 59 60
f 51 60 52
f 52 60 53
f 53 61 62
f 53 62 63
f 53 63 54
f 53 60 61
f 56 64 57
f 57 64 65
f 58 66 67
f 58 67 59
f 59 67 60
f 60 67 61
f 61 68 62
f 61 67 68
f 64 69 65
f 65 69 70
f 65 70 71
f 65 71 72
f 66 73 74
f 66 74 75
f 66 75 67
f 67 75 74
f 67 74 76
f 67 76 77
f 67 77 78
f 67 78 68
f 70 79 80
f 70 80 71
f 71 80 72
f 72 80 74
f 72 74 73
f 74 80 79
f 74 79 81
f 74 81 76
f 76 81 77
f 77 81 78

