# https://github.com/mikedh/trimesh
v -0.01799719 0.02729919 -0.03168345
v -0.01799719 0.02906614 -0.03166345
v -0.01799719 0.02548818 -0.03154347
v -0.01901127 0.02565262 -0.03099555
v -0.01980889 0.02635553 -0.03060494
v -0.01890171 0.02729919 -0.03116353
v -0.01799719 0.02975508 -0.03147281
v -0.01907272 0.02901348 -0.03104354
v -0.01978752 0.02955624 -0.03058495
v -0.01799719 0.02401250 -0.03098889
v -0.01848486 0.02420596 -0.03088224
v -0.01968464 0.02515608 -0.03052896
v -0.02052636 0.02565262 -0.03002770
v -0.02191853 0.02550000 -0.02903852
v -0.02198534 0.02729919 -0.02908784
v -0.02071073 0.02729919 -0.02998771
v -0.01981023 0.02729919 -0.03060628
v -0.01980622 0.02835678 -0.03060228
v -0.01799719 0.03037416 -0.03117952
v -0.01858773 0.03032794 -0.03096622
v -0.02052369 0.02901348 -0.03009302
v -0.02197732 0.02909946 -0.02907718
v -0.02184505 0.03019789 -0.02897853
v -0.01799719 0.02351595 -0.03062361
v -0.01997590 0.02268084 -0.02889454
v -0.02117568 0.02317954 -0.02857192
v -0.02177023 0.02438008 -0.02892520
v -0.02281904 0.02550000 -0.02833996
v -0.02288584 0.02729919 -0.02837995
v -0.02287783 0.02909946 -0.02837062
v -0.01799719 0.03051925 -0.03073826
v -0.02070138 0.03039565 -0.02937313
v -0.01907272 0.03059234 -0.02987039
v -0.02392263 0.02909946 -0.02747076
v -0.02374359 0.03027098 -0.02730945
v -0.02246766 0.03047948 -0.02790536
v -0.01799719 0.02317310 -0.03035965
v -0.02140415 0.02111596 -0.02688152
v -0.02212696 0.02231542 -0.02737211
v -0.02332674 0.02289902 -0.02694817
v -0.02371420 0.02409956 -0.02726412
v -0.02390259 0.02550000 -0.02744010
v -0.02393198 0.02729919 -0.02748009
v -0.01799719 0.03080836 -0.02977707
v -0.02070138 0.03089113 -0.02789869
v -0.02482180 0.02909946 -0.02665488
v -0.02557801 0.03029892 -0.02556572
v -0.02432612 0.03053967 -0.02613896
v -0.01799719 0.02214560 -0.02941979
v -0.01890171 0.02146204 -0.02838262
v -0.02020303 0.02084618 -0.02719347
v -0.02356991 0.02090637 -0.02532042
v -0.02422190 0.02199943 -0.02564970
v -0.02529075 0.02266472 -0.02528176
v -0.02552724 0.02370082 -0.02551373
v -0.02480175 0.02550000 -0.02662822
v -0.02483115 0.02729919 -0.02665488
v -0.01799719 0.03098893 -0.02880389
v -0.02250106 0.03094594 -0.02609897
v -0.02577040 0.02909946 -0.02575369
v -0.02667091 0.02909946 -0.02483650
v -0.02729885 0.03026991 -0.02375400
v -0.02614717 0.03053967 -0.02433257
v -0.02430073 0.03096636 -0.02430058
v -0.01799719 0.02122881 -0.02857326
v -0.02076284 0.02054525 -0.02620829
v -0.02250106 0.02072366 -0.02565237
v -0.01890171 0.02067745 -0.02748276
v -0.02422190 0.02065487 -0.02426992
v -0.02549383 0.02083436 -0.02365001
v -0.02476969 0.02146526 -0.02484983
v -0.02669362 0.02139862 -0.02311010
v -0.02711047 0.02259808 -0.02351270
v -0.02642774 0.02370082 -0.02463519
v -0.02574769 0.02550000 -0.02572836
v -0.02577575 0.02729919 -0.02575502
v -0.01890171 0.03098893 -0.02789869
v -0.01799719 0.03097496 -0.02789869
v -0.02250106 0.03098893 -0.02430058
v -0.02667625 0.02729919 -0.02484716
v -0.02746052 0.02729919 -0.02394730
v -0.02745250 0.02909946 -0.02393663
v -0.02899164 0.03020863 -0.02184362
v -0.02789875 0.03048486 -0.02246619
v -0.02610041 0.03094487 -0.02250086
v -0.02790008 0.03089865 -0.02070113
v -0.02873512 0.03098678 -0.01806420
v -0.02790008 0.03098893 -0.01890007
v -0.02610041 0.03098893 -0.02070113
v -0.01799719 0.02064090 -0.02773205
v -0.01890171 0.02018305 -0.02609897
v -0.02250106 0.02024000 -0.02430058
v -0.02430073 0.02014865 -0.02250086
v -0.02609640 0.02060006 -0.02250619
v -0.02730153 0.02082254 -0.02191028
v -0.02850265 0.02143624 -0.02125038
v -0.02780656 0.02201662 -0.02240087
v -0.02887674 0.02263570 -0.02169031
v -0.02730153 0.02370082 -0.02373533
v -0.02664819 0.02550000 -0.02482717
v -0.02790008 0.03097603 -0.01806420
v -0.01799719 0.03090402 -0.02700416
v -0.02744983 0.02550000 -0.02392730
v -0.02835034 0.02550000 -0.02286347
v -0.02836102 0.02729919 -0.02287546
v -0.02835301 0.02909946 -0.02287013
v -0.02909051 0.02909946 -0.02197027
v -0.02997231 0.02909946 -0.02070113
v -0.03058156 0.02909946 -0.01978127
v -0.03115740 0.02909946 -0.01888141
v -0.03096902 0.03032042 -0.01857879
v -0.02937777 0.03040317 -0.02070113
v -0.02986677 0.03058804 -0.01906672
v -0.03068443 0.03052140 -0.01806420
v -0.02978126 0.03078902 -0.01806420
v -0.01799719 0.02012071 -0.02609897
v -0.02070138 0.02005300 -0.02430058
v -0.02610041 0.02014005 -0.02070113
v -0.02250106 0.02002075 -0.02250086
v -0.02790142 0.02062478 -0.02067047
v -0.02898630 0.02086768 -0.02005057
v -0.03063767 0.02115035 -0.01806420
v -0.03024621 0.02190055 -0.01928402
v -0.02928291 0.02198223 -0.02067047
v -0.02820070 0.02370082 -0.02274349
v -0.03054148 0.02336763 -0.01971062
v -0.02899298 0.02370082 -0.02184362
v -0.02693545 0.03089972 -0.01806420
v -0.01799719 0.03063962 -0.02609764
v -0.02908250 0.02550000 -0.02196360
v -0.02909452 0.02729919 -0.02197427
v -0.03011394 0.02739378 -0.02052916
v -0.03060828 0.02685638 -0.01981327
v -0.03059759 0.02805692 -0.01979594
v -0.03105453 0.02739378 -0.01907871
v -0.03163838 0.02838688 -0.01806420
v -0.03163304 0.02909946 -0.01806420
v -0.03115606 0.03036341 -0.01806420
v -0.01799719 0.02001108 -0.02430058
v -0.01890171 0.02001108 -0.02430058
v -0.02430073 0.02001538 -0.02070113
v -0.02610041 0.02002075 -0.01890007
v -0.02790008 0.02011748 -0.01806420
v -0.02790008 0.02019057 -0.01890007
v -0.02965968 0.02058824 -0.01806420
v -0.02963162 0.02073978 -0.01872144
v -0.03051476 0.02097731 -0.01806420
v -0.03099307 0.02190055 -0.01806420
v -0.03082606 0.02190055 -0.01838282
v -0.03060294 0.02456709 -0.01980527
v -0.02999904 0.02386095 -0.02052383
v -0.03111598 0.02227780 -0.01806420
v -0.03151279 0.02370404 -0.01806420
v -0.03100108 0.02386095 -0.01902672
v -0.02609907 0.03065575 -0.01806420
v -0.01799719 0.03040640 -0.02543107
v -0.02998300 0.02550000 -0.02071446
v -0.03060828 0.02550000 -0.01981460
v -0.03116141 0.02550000 -0.01890007
v -0.03164506 0.02646516 -0.01806420
v -0.03164239 0.02733896 -0.01806420
v -0.01799719 0.02001108 -0.02250086
v -0.02070138 0.02001001 -0.02250086
v -0.02430073 0.02001001 -0.01890007
v -0.02610041 0.02001645 -0.01806420
v -0.02250106 0.02001001 -0.02070113
v -0.03159697 0.02478957 -0.01806420
v -0.03163571 0.02550000 -0.01806420
v -0.02537493 0.03040210 -0.01806420
v -0.01799719 0.03016887 -0.02501780
v -0.01799719 0.02053987 -0.02062114
v -0.02250106 0.02001108 -0.01806420
v -0.02430073 0.02001001 -0.01806420
v -0.02499415 0.03018284 -0.01806420
v -0.01799719 0.02718527 -0.02060915
v -0.01799719 0.02134918 -0.02024520
v -0.02062255 0.02053450 -0.01806420
v -0.02060786 0.02718957 -0.01806420
v -0.01799719 0.02550000 -0.01999324
v -0.01799719 0.02190055 -0.02000257
v -0.02000529 0.02190055 -0.01806420
v -0.02023911 0.02619969 -0.01806420
v -0.01799719 0.02433279 -0.01997058
v -0.01999327 0.02550000 -0.01806420
v -0.01799719 0.02271846 -0.01998258
v -0.01996120 0.02370082 -0.01806420
v -0.01799719 0.02370082 -0.01995858
v -0.01998258 0.02495509 -0.01806420
f 1 2 7
f 1 7 19
f 1 19 31
f 1 31 44
f 1 44 58
f 1 58 78
f 1 78 102
f 1 102 129
f 1 129 156
f 1 156 170
f 1 170 175
f 1 175 179
f 1 179 183
f 1 183 187
f 1 187 185
f 1 185 180
f 1 180 176
f 1 176 171
f 1 171 162
f 1 162 139
f 1 139 116
f 1 116 90
f 1 90 65
f 1 65 49
f 1 49 37
f 1 37 24
f 1 24 10
f 1 10 3
f 1 3 4
f 1 4 5
f 1 5 6
f 1 6 2
f 2 6 8
f 2 8 9
f 2 9 7
f 3 10 11
f 3 11 12
f 3 12 4
f 4 12 5
f 5 12 13
f 5 13 14
f 5 14 15
f 5 15 16
f 5 16 17
f 5 17 6
f 6 17 18
f 6 18 8
f 7 9 20
f 7 20 19
f 8 18 9
f 9 18 21
f 9 21 22
f 9 22 23
f 9 23 20
f 10 24 11
f 11 24 25
f 11 25 26
f 11 26 27
f 11 27 12
f 12 27 14
f 12 14 13
f 14 27 28
f 14 28 15
f 15 22 16
f 15 28 29
f 15 29 30
f 15 30 22
f 16 22 21
f 16 21 18
f 16 18 17
f 19 20 31
f 20 23 32
f 20 32 33
f 20 33 31
f 22 30 23
f 23 30 34
f 23 34 35
f 23 35 36
f 23 36 32
f 24 37 25
f 25 38 39
f 25 39 26
f 25 37 38
f 26 39 40
f 26 40 27
f 27 40 41
f 27 41 28
f 28 41 42
f 28 42 29
f 29 42 43
f 29 43 30
f 30 43 34
f 31 33 44
f 32 36 45
f 32 45 33
f 33 45 44
f 34 43 46
f 34 46 35
f 35 46 47
f 35 47 48
f 35 48 36
f 36 48 45
f 37 49 50
f 37 50 38
f 38 50 51
f 38 51 52
f 38 52 39
f 39 52 40
f 40 52 53
f 40 53 54
f 40 54 41
f 41 54 55
f 41 55 56
f 41 56 42
f 42 56 43
f 43 56 57
f 43 57 46
f 44 45 58
f 45 48 59
f 45 59 58
f 46 57 60
f 46 60 47
f 47 60 61
f 47 61 62
f 47 62 63
f 47 63 48
f 48 63 64
f 48 64 59
f 49 65 50
f 50 65 51
f 51 66 67
f 51 67 52
f 51 65 68
f 51 68 66
f 52 67 69
f 52 69 70
f 52 70 71
f 52 71 53
f 53 71 54
f 54 71 72
f 54 72 73
f 54 73 55
f 55 73 74
f 55 74 75
f 55 75 56
f 56 75 57
f 57 75 76
f 57 76 60
f 58 77 78
f 58 59 64
f 58 64 79
f 58 79 89
f 58 89 88
f 58 88 77
f 60 76 80
f 60 80 61
f 61 80 81
f 61 81 82
f 61 82 83
f 61 83 62
f 62 83 84
f 62 84 63
f 63 85 64
f 63 84 86
f 63 86 85
f 64 85 87
f 64 87 88
f 64 88 89
f 64 89 79
f 65 90 68
f 66 68 91
f 66 91 92
f 66 92 67
f 67 92 69
f 68 90 91
f 69 92 93
f 69 93 94
f 69 94 70
f 70 94 95
f 70 95 72
f 70 72 71
f 72 95 96
f 72 96 97
f 72 97 73
f 73 97 98
f 73 98 99
f 73 99 74
f 74 100 75
f 74 99 100
f 75 100 76
f 76 100 80
f 77 88 101
f 77 101 78
f 78 101 102
f 80 100 103
f 80 103 81
f 81 103 104
f 81 104 105
f 81 105 106
f 81 106 82
f 82 106 83
f 83 106 107
f 83 107 108
f 83 108 109
f 83 109 110
f 83 110 111
f 83 111 112
f 83 112 84
f 84 112 86
f 85 86 87
f 86 112 113
f 86 113 114
f 86 114 115
f 86 115 87
f 87 101 88
f 87 115 114
f 87 114 138
f 87 138 137
f 87 137 136
f 87 136 161
f 87 161 160
f 87 160 168
f 87 168 167
f 87 167 153
f 87 153 152
f 87 152 148
f 87 148 122
f 87 122 147
f 87 147 145
f 87 145 143
f 87 143 165
f 87 165 173
f 87 173 172
f 87 172 177
f 87 177 181
f 87 181 186
f 87 186 188
f 87 188 184
f 87 184 182
f 87 182 178
f 87 178 174
f 87 174 169
f 87 169 155
f 87 155 128
f 87 128 101
f 90 116 91
f 91 116 117
f 91 117 92
f 92 117 93
f 93 118 94
f 93 117 119
f 93 119 118
f 94 118 120
f 94 120 95
f 95 120 121
f 95 121 96
f 96 121 122
f 96 122 123
f 96 123 124
f 96 124 98
f 96 98 97
f 98 125 99
f 98 124 123
f 98 123 126
f 98 126 127
f 98 127 125
f 99 125 100
f 100 125 103
f 101 128 102
f 102 128 129
f 103 125 127
f 103 127 104
f 104 127 130
f 104 130 131
f 104 131 105
f 105 131 107
f 105 107 106
f 107 131 132
f 107 132 108
f 108 132 133
f 108 133 134
f 108 134 109
f 109 134 110
f 110 134 133
f 110 133 135
f 110 135 136
f 110 136 137
f 110 137 111
f 111 137 138
f 111 138 114
f 111 114 113
f 111 113 112
f 116 139 140
f 116 140 117
f 117 140 119
f 118 119 141
f 118 141 142
f 118 142 143
f 118 143 144
f 118 144 120
f 119 140 141
f 120 144 145
f 120 145 146
f 120 146 121
f 121 146 147
f 121 147 122
f 122 148 149
f 122 149 123
f 123 149 126
f 126 150 151
f 126 151 127
f 126 149 152
f 126 152 153
f 126 153 154
f 126 154 150
f 127 151 130
f 128 155 129
f 129 155 156
f 130 151 150
f 130 150 157
f 130 157 131
f 131 157 132
f 132 157 158
f 132 158 133
f 133 158 135
f 135 159 160
f 135 160 161
f 135 161 136
f 135 158 159
f 139 162 163
f 139 163 140
f 140 163 141
f 141 164 165
f 141 165 142
f 141 163 166
f 141 166 164
f 142 165 143
f 143 145 144
f 145 147 146
f 148 152 149
f 150 158 157
f 150 154 167
f 150 167 168
f 150 168 159
f 150 159 158
f 153 167 154
f 155 169 156
f 156 169 170
f 159 168 160
f 162 171 172
f 162 172 173
f 162 173 163
f 163 173 164
f 163 164 166
f 164 173 165
f 169 174 170
f 170 174 175
f 171 176 177
f 171 177 172
f 174 178 175
f 175 178 179
f 176 180 177
f 177 180 181
f 178 182 179
f 179 182 184
f 179 184 183
f 180 185 181
f 181 185 187
f 181 187 186
f 183 184 187
f 184 188 187
f 186 187 188

