# https://github.com/mikedh/trimesh
v -0.02514967 0.02817562 -0.01485389
v -0.02514967 0.01987411 -0.01485389
v -0.02514967 0.02804076 -0.01267890
v -0.02514501 0.02804076 -0.01267507
v 0.02246306 0.02798934 -0.01267507
v 0.02246306 0.02798934 -0.01485389
v -0.02514967 0.01652448 -0.01267507
v -0.01377780 0.01650162 -0.01485389
v -0.02514967 0.02709565 -0.01267507
v 0.02246306 0.01652448 -0.01267507
v 0.02246306 0.01987868 -0.01485389
v -0.01884853 0.01650162 -0.01267528
v -0.01072044 0.01650162 -0.01267507
v 0.01377569 0.01650162 -0.01485389
v 0.01885109 0.01650162 -0.01267507
f 1 2 7
f 1 7 9
f 1 9 3
f 1 3 4
f 1 4 5
f 1 5 6
f 1 6 11
f 1 11 14
f 1 14 8
f 1 8 2
f 2 8 7
f 3 9 4
f 4 9 7
f 4 7 13
f 4 13 15
f 4 15 10
f 4 10 5
f 5 10 11
f 5 11 6
f 7 12 13
f 7 8 12
f 8 14 15
f 8 15 13
f 8 13 12
f 10 15 14
f 10 14 11

