# https://github.com/mikedh/trimesh
v 0.00074312 0.00924066 0.02565185
v -0.00090173 0.00924066 0.02565583
v 0.00074312 0.00917563 0.02560810
v 0.00074312 0.00924066 -0.01426554
v 0.00074312 0.00749945 0.02443874
v -0.00270189 0.00924066 0.02560014
v -0.00585180 0.00239114 0.02079144
v -0.00403765 0.00239114 0.02083519
v -0.00270189 0.00239114 0.02085906
v -0.00090173 0.00239114 0.02087497
v 0.00074312 0.00239114 0.02087497
v 0.00074312 0.00889805 -0.01376836
v -0.01512444 0.00239114 -0.01049892
v -0.00799988 0.00924066 -0.01497749
v -0.00310728 0.00924066 0.02558025
v -0.00630067 0.00239114 0.02077553
v 0.00074312 0.00239114 -0.00132699
v 0.00074312 0.00672975 -0.01061029
v -0.01512444 0.00382862 -0.01144157
v 0.00074312 0.00251316 -0.00446517
v 0.00074312 0.00239717 -0.00429414
v -0.00077126 0.00239114 -0.00429414
v -0.01512444 0.00239114 0.01408551
v -0.00989945 0.00924066 -0.01490590
v -0.00450051 0.00924066 0.02550866
v -0.00506743 0.00924066 0.02546889
v -0.00630067 0.00924066 0.02537343
v -0.00734443 0.00653867 0.02344040
v -0.00754790 0.00239114 0.02059257
v -0.01512444 0.00553832 -0.01228478
v -0.01224635 0.00239114 0.01789986
v -0.01129734 0.00924066 0.02251764
v -0.01131598 0.00924066 0.02248185
v -0.01214383 0.00924066 0.02070394
v -0.01512444 0.00924066 0.01360822
v -0.01169962 0.00924066 -0.01444054
v -0.01512444 0.00643810 -0.01264673
v -0.00809929 0.00924066 0.02501148
v -0.00807599 0.00239114 0.02050507
v -0.01128491 0.00239114 0.01880273
v -0.01055335 0.00872038 0.02317392
v -0.01121812 0.00924066 0.02262105
v -0.01512444 0.00924066 -0.01327914
v -0.01342523 0.00924066 -0.01387177
v -0.01512444 0.00749945 -0.01293310
v -0.00976743 0.00924066 0.02414441
v -0.00935428 0.00801437 0.02364723
v -0.00910266 0.00469956 0.02166250
v -0.00904519 0.00239114 0.02012721
v -0.00995537 0.00239114 0.01966981
v -0.00984509 0.00924066 0.02408475
v -0.01000662 0.00924066 0.02395747
v -0.00958260 0.00239114 0.01989255
v -0.00942728 0.00254267 0.02007153
f 1 2 3
f 1 3 5
f 1 5 11
f 1 11 17
f 1 17 21
f 1 21 20
f 1 20 18
f 1 18 12
f 1 12 4
f 1 4 14
f 1 14 24
f 1 24 36
f 1 36 44
f 1 44 43
f 1 43 35
f 1 35 34
f 1 34 33
f 1 33 32
f 1 32 42
f 1 42 52
f 1 52 51
f 1 51 46
f 1 46 38
f 1 38 27
f 1 27 26
f 1 26 25
f 1 25 15
f 1 15 6
f 1 6 2
f 2 5 3
f 2 6 7
f 2 7 8
f 2 8 9
f 2 9 10
f 2 10 11
f 2 11 5
f 4 12 13
f 4 13 14
f 6 15 16
f 6 16 7
f 7 16 29
f 7 29 39
f 7 39 49
f 7 49 53
f 7 53 50
f 7 50 40
f 7 40 31
f 7 31 23
f 7 23 13
f 7 13 22
f 7 22 17
f 7 17 11
f 7 11 10
f 7 10 9
f 7 9 8
f 12 18 13
f 13 19 14
f 13 18 20
f 13 20 21
f 13 21 22
f 13 23 35
f 13 35 43
f 13 43 45
f 13 45 37
f 13 37 30
f 13 30 19
f 14 19 24
f 15 25 16
f 16 25 26
f 16 26 27
f 16 27 28
f 16 28 29
f 17 22 21
f 19 30 24
f 23 31 32
f 23 32 33
f 23 33 34
f 23 34 35
f 24 30 37
f 24 37 36
f 27 38 28
f 28 38 39
f 28 39 29
f 31 40 41
f 31 41 42
f 31 42 32
f 36 37 45
f 36 45 44
f 38 46 47
f 38 47 48
f 38 48 39
f 39 48 49
f 40 50 47
f 40 47 46
f 40 46 51
f 40 51 52
f 40 52 41
f 41 52 42
f 43 44 45
f 47 50 53
f 47 53 48
f 48 53 54
f 48 54 49
f 49 54 53

