# https://github.com/mikedh/trimesh
v -0.00514052 0.00924251 0.01641715
v -0.01280651 0.00924066 0.01709507
v -0.01307550 0.01830683 0.01709507
v -0.00514052 0.02798814 0.01641715
v 0.01306589 0.00924251 0.01641715
v -0.01253489 0.00924066 0.01921898
v -0.01307550 0.02066944 0.03103762
v -0.01307550 0.02008756 0.02971312
v -0.01307550 0.01862456 0.02489710
v -0.01307550 0.01846016 0.02425836
v -0.01307550 0.01841028 0.02265172
v -0.00514052 0.00924066 0.01709507
v -0.01307550 0.02709039 0.01709507
v -0.01307550 0.02789208 0.01709899
v -0.01169894 0.02798814 0.01709507
v -0.01307550 0.02811190 0.02569259
v 0.01169724 0.02798814 0.01641715
v 0.01386492 0.01943919 0.01641715
v 0.01386492 0.01959620 0.02431714
v 0.01386492 0.01964977 0.02631565
v 0.01386492 0.01977353 0.02776947
v 0.01386492 0.02029076 0.02971900
v 0.01386492 0.02077473 0.03089068
v 0.01252529 0.00924251 0.01928168
v -0.00514052 0.00924066 0.02546531
v -0.01252698 0.00924066 0.01927188
v -0.01307550 0.02085046 0.03124923
v -0.01217098 0.00924066 0.02063165
v -0.01307550 0.02798444 0.02027701
v -0.01307550 0.02811190 0.03402168
v -0.00637467 0.02811190 0.02799283
v 0.01386492 0.02800291 0.02404872
v 0.01349837 0.02798260 0.02070219
v 0.01238288 0.02796966 0.01641715
v -0.00514052 0.02811190 0.02846699
v 0.01386492 0.02776463 0.01641715
v 0.01386492 0.02188860 0.03182919
v 0.00976426 0.00924251 0.02415060
v 0.01000424 0.00924251 0.02396055
v 0.01071889 0.00924251 0.02335512
v 0.01129377 0.00924251 0.02252044
v 0.01214291 0.00924251 0.02070807
v -0.00629820 0.00924066 0.02537910
v 0.00834288 0.00924251 0.02493041
v 0.00809763 0.00924251 0.02501466
v 0.00629650 0.00924251 0.02537518
v 0.00449801 0.00924251 0.02552017
v 0.00269952 0.00924251 0.02561422
v 0.00089840 0.00924251 0.02565536
v -0.00089746 0.00924251 0.02565732
v -0.00121654 0.00924251 0.02564948
v -0.00269858 0.00924251 0.02560638
v -0.00310469 0.00924251 0.02558679
v -0.00449971 0.00924251 0.02551233
v -0.00269858 0.02130119 0.03398837
v -0.01214197 0.00924066 0.02070611
v -0.01131393 0.00924066 0.02248713
v -0.01129547 0.00924066 0.02252044
v -0.01121635 0.00924066 0.02262429
v -0.01093946 0.00992229 0.02358827
v -0.01000593 0.00924066 0.02396055
v -0.01307550 0.02172051 0.03200945
v -0.01307550 0.02729728 0.03402755
v -0.01286980 0.02811190 0.03410985
v 0.01386492 0.02800291 0.03368663
v 0.01386492 0.02798814 0.02250281
v 0.01349837 0.02789208 0.01641715
v -0.00514052 0.02811190 0.03606721
v 0.01386492 0.02792903 0.02070219
v 0.01386492 0.02274017 0.03243854
v 0.01308962 0.02250558 0.03259137
v 0.00909181 0.01010886 0.02526350
v -0.00449971 0.02141571 0.03390999
v -0.00449971 0.02231716 0.03452914
v -0.00514052 0.02238181 0.03448212
v -0.00629820 0.02160413 0.03378852
v -0.00736358 0.01193207 0.02704648
v -0.00809932 0.00924066 0.02501662
v -0.00269858 0.02220079 0.03460947
v 0.01169724 0.02214722 0.03283041
v 0.01071889 0.02102411 0.03237585
v 0.00878327 0.02286763 0.03415099
v 0.00736452 0.01193022 0.02704648
v 0.00629650 0.02160413 0.03378852
v 0.00449801 0.02231716 0.03452718
v 0.00449801 0.02141571 0.03390999
v 0.00383083 0.01916025 0.03242287
v 0.00269952 0.02009680 0.03314978
v 0.00269952 0.01910484 0.03246205
v 0.00269952 0.01601074 0.03031463
v 0.00089840 0.02213983 0.03465650
v 0.00089840 0.02124023 0.03402951
v -0.00089746 0.01904573 0.03250516
v -0.00192855 0.01379038 0.02880595
v -0.00269858 0.01910299 0.03246401
v -0.00269858 0.02009680 0.03315370
v -0.00089746 0.02213613 0.03465846
v -0.00976596 0.00924066 0.02415060
v -0.01307550 0.02250373 0.03259333
v -0.00909614 0.01010701 0.02526545
v -0.01307550 0.02586014 0.03397465
v -0.01262456 0.02628685 0.03420781
v -0.01263510 0.02729728 0.03421369
v -0.01262719 0.02811190 0.03420977
v 0.01386492 0.02763347 0.03368859
v 0.01353001 0.02800291 0.03382966
v 0.01353529 0.02729912 0.03383162
v -0.00449971 0.02800291 0.03615734
v -0.00379297 0.02800291 0.03623375
v -0.00269858 0.02800291 0.03634152
v -0.00089746 0.02800291 0.03642577
v 0.00089840 0.02800291 0.03642577
v 0.00160513 0.02800291 0.03639442
v 0.00269952 0.02800291 0.03634152
v 0.00449801 0.02800291 0.03615734
v 0.00488566 0.02800291 0.03610444
v 0.00551593 0.02800291 0.03601627
v 0.00641517 0.02800291 0.03585756
v 0.00809763 0.02800291 0.03551468
v 0.00880437 0.02800291 0.03533834
v 0.00989612 0.02800291 0.03505620
v 0.01060285 0.02800291 0.03484655
v 0.01169724 0.02800291 0.03451347
v 0.01263077 0.02800291 0.03420977
v -0.00551498 0.02811190 0.03601823
v 0.01386492 0.02330727 0.03277359
v 0.01361176 0.02356219 0.03301850
v 0.01178427 0.02373029 0.03379244
v -0.00383516 0.02454307 0.03602607
v -0.00446279 0.02384481 0.03551272
v -0.00269858 0.02356773 0.03550880
v -0.00629820 0.02250373 0.03439787
v -0.00758246 0.02267737 0.03427835
v -0.00878233 0.02286948 0.03415295
v -0.01072058 0.02102411 0.03237585
v -0.01169894 0.02214722 0.03283041
v -0.00089746 0.02347722 0.03555779
v 0.00989612 0.02311701 0.03400208
v 0.00814773 0.02356034 0.03469764
v 0.00758340 0.02267922 0.03427639
v 0.00989612 0.02401845 0.03453306
v 0.00629650 0.02250373 0.03439591
v 0.00446109 0.02384481 0.03551272
v 0.00383610 0.02454307 0.03602607
v 0.00269952 0.02356773 0.03550684
v 0.00269952 0.02220633 0.03460752
v 0.00089840 0.02347722 0.03555583
v -0.01307550 0.02251851 0.03260312
v -0.01307550 0.02545744 0.03392763
v -0.01243996 0.02508615 0.03414707
v -0.01178333 0.02560891 0.03440375
v -0.00989781 0.02549993 0.03496803
v -0.00989781 0.02729728 0.03506404
v -0.01169894 0.02729728 0.03451543
v -0.01169894 0.02811190 0.03451347
v -0.01221317 0.02811190 0.03434693
v 0.01386492 0.02729912 0.03368859
v 0.01263605 0.02729912 0.03421369
v 0.01262550 0.02628130 0.03420781
v -0.00514052 0.02729728 0.03607701
v -0.00449971 0.02729912 0.03616322
v -0.00269858 0.02729912 0.03634348
v -0.00089746 0.02729912 0.03643165
v 0.00089840 0.02729912 0.03642969
v 0.00269952 0.02729912 0.03634348
v 0.00449801 0.02729912 0.03616322
v 0.00553439 0.02729912 0.03602019
v 0.00643363 0.02729912 0.03586344
v 0.00809763 0.02729912 0.03552840
v 0.00989612 0.02729912 0.03506404
v 0.01169724 0.02729912 0.03451543
v -0.00601076 0.02811190 0.03593006
v -0.00643796 0.02729728 0.03586540
v -0.00553872 0.02729728 0.03602215
v 0.01386492 0.02365086 0.03296168
v 0.01124103 0.02435280 0.03433125
v -0.00446279 0.02557751 0.03608289
v -0.00503767 0.02502889 0.03594769
v -0.00989781 0.02401845 0.03453306
v -0.00814943 0.02356034 0.03469764
v -0.00629820 0.02369888 0.03513653
v -0.00514052 0.02378940 0.03537557
v -0.00269858 0.02446733 0.03606721
v -0.00089746 0.02549808 0.03633760
v -0.00269858 0.02549808 0.03623767
v -0.00089746 0.02437681 0.03612011
v -0.00989781 0.02311886 0.03400208
v -0.01178333 0.02373029 0.03379440
v 0.00089840 0.02437681 0.03612011
v 0.00629650 0.02369703 0.03513849
v 0.00809763 0.02549808 0.03542847
v 0.00503598 0.02502889 0.03594769
v 0.00446109 0.02557751 0.03608289
v 0.00269952 0.02549808 0.03623767
v 0.00089840 0.02549808 0.03633760
v 0.00269952 0.02446733 0.03606721
v -0.01307550 0.02361391 0.03324774
v -0.01307550 0.02426229 0.03353772
v -0.01124009 0.02435280 0.03433125
v -0.00809932 0.02549993 0.03542847
v -0.00809932 0.02729728 0.03552840
v -0.00989781 0.02811190 0.03505620
v 0.01386492 0.02606333 0.03362785
v 0.01333223 0.02560891 0.03383554
v 0.01386492 0.02557936 0.03360238
v 0.00989612 0.02549808 0.03496803
v 0.01178427 0.02560891 0.03440375
v 0.01244090 0.02508061 0.03414707
v -0.00549389 0.02622958 0.03601627
v 0.00549219 0.02622958 0.03601431
v -0.00641687 0.02811190 0.03585756
v -0.00732930 0.02811190 0.03567339
v -0.00514052 0.02507876 0.03593594
v 0.00617520 0.02557751 0.03581446
v -0.00617689 0.02557566 0.03581446
v -0.00809932 0.02811190 0.03551468
f 1 2 3
f 1 3 13
f 1 13 4
f 1 4 17
f 1 17 34
f 1 34 67
f 1 67 36
f 1 36 18
f 1 18 5
f 1 5 12
f 1 12 2
f 2 6 7
f 2 7 8
f 2 8 9
f 2 9 10
f 2 10 11
f 2 11 3
f 2 12 25
f 2 25 43
f 2 43 78
f 2 78 98
f 2 98 61
f 2 61 59
f 2 59 58
f 2 58 57
f 2 57 56
f 2 56 28
f 2 28 26
f 2 26 6
f 3 11 10
f 3 10 9
f 3 9 8
f 3 8 7
f 3 7 27
f 3 27 62
f 3 62 99
f 3 99 148
f 3 148 197
f 3 197 198
f 3 198 149
f 3 149 101
f 3 101 63
f 3 63 30
f 3 30 16
f 3 16 29
f 3 29 14
f 3 14 13
f 4 13 14
f 4 14 15
f 4 15 16
f 4 16 17
f 5 18 19
f 5 19 20
f 5 20 21
f 5 21 22
f 5 22 23
f 5 23 24
f 5 24 25
f 5 25 12
f 6 26 7
f 7 26 28
f 7 28 27
f 14 29 15
f 15 29 16
f 16 30 64
f 16 64 104
f 16 104 156
f 16 156 155
f 16 155 202
f 16 202 216
f 16 216 212
f 16 212 211
f 16 211 172
f 16 172 125
f 16 125 68
f 16 68 35
f 16 35 31
f 16 31 17
f 17 32 33
f 17 33 34
f 17 31 35
f 17 35 32
f 18 36 69
f 18 69 66
f 18 66 32
f 18 32 65
f 18 65 105
f 18 105 157
f 18 157 203
f 18 203 205
f 18 205 175
f 18 175 126
f 18 126 70
f 18 70 37
f 18 37 23
f 18 23 22
f 18 22 21
f 18 21 20
f 18 20 19
f 23 37 38
f 23 38 39
f 23 39 40
f 23 40 41
f 23 41 42
f 23 42 24
f 24 42 25
f 25 42 41
f 25 41 40
f 25 40 39
f 25 39 38
f 25 38 44
f 25 44 45
f 25 45 46
f 25 46 47
f 25 47 48
f 25 48 49
f 25 49 50
f 25 50 51
f 25 51 52
f 25 52 53
f 25 53 54
f 25 54 55
f 25 55 43
f 27 28 56
f 27 56 57
f 27 57 58
f 27 58 59
f 27 59 60
f 27 60 61
f 27 61 62
f 30 63 64
f 32 66 33
f 32 35 68
f 32 68 65
f 33 66 67
f 33 67 34
f 36 67 69
f 37 70 71
f 37 71 72
f 37 72 38
f 38 72 44
f 43 73 74
f 43 74 75
f 43 75 76
f 43 76 77
f 43 77 78
f 43 55 79
f 43 79 73
f 44 72 71
f 44 71 80
f 44 80 45
f 45 80 81
f 45 81 82
f 45 82 83
f 45 83 46
f 46 83 84
f 46 84 85
f 46 85 86
f 46 86 87
f 46 87 47
f 47 87 88
f 47 88 89
f 47 89 90
f 47 90 48
f 48 90 91
f 48 91 92
f 48 92 49
f 49 92 93
f 49 93 50
f 50 93 51
f 51 93 94
f 51 94 52
f 52 95 53
f 52 94 95
f 53 95 54
f 54 95 96
f 54 96 55
f 55 97 79
f 55 96 97
f 59 61 60
f 61 98 62
f 62 98 100
f 62 100 99
f 63 101 102
f 63 102 103
f 63 103 64
f 64 103 104
f 65 68 106
f 65 106 107
f 65 107 105
f 66 69 67
f 68 108 109
f 68 109 110
f 68 110 111
f 68 111 112
f 68 112 113
f 68 113 114
f 68 114 115
f 68 115 116
f 68 116 117
f 68 117 118
f 68 118 119
f 68 119 120
f 68 120 121
f 68 121 122
f 68 122 123
f 68 123 124
f 68 124 106
f 68 125 108
f 70 126 71
f 71 126 127
f 71 127 128
f 71 128 80
f 73 79 74
f 74 129 130
f 74 130 75
f 74 79 131
f 74 131 129
f 75 132 76
f 75 130 132
f 76 132 77
f 77 133 134
f 77 134 78
f 77 132 133
f 78 134 135
f 78 135 136
f 78 136 99
f 78 99 100
f 78 100 98
f 79 97 137
f 79 137 131
f 80 128 138
f 80 138 81
f 81 138 82
f 82 139 140
f 82 140 83
f 82 138 141
f 82 141 139
f 83 140 84
f 84 140 142
f 84 142 85
f 85 143 144
f 85 144 145
f 85 145 146
f 85 146 86
f 85 142 143
f 86 146 87
f 87 146 88
f 88 146 91
f 88 91 89
f 89 91 90
f 91 146 147
f 91 147 97
f 91 97 93
f 91 93 92
f 93 97 94
f 94 97 95
f 95 97 96
f 97 147 137
f 99 136 148
f 101 149 150
f 101 150 102
f 102 150 151
f 102 151 152
f 102 152 153
f 102 153 154
f 102 154 103
f 103 154 155
f 103 155 156
f 103 156 104
f 105 107 157
f 106 124 158
f 106 158 107
f 107 158 159
f 107 159 157
f 108 160 161
f 108 161 109
f 108 125 160
f 109 161 162
f 109 162 110
f 110 162 163
f 110 163 111
f 111 163 112
f 112 164 113
f 112 163 164
f 113 164 165
f 113 165 114
f 114 165 166
f 114 166 115
f 115 166 116
f 116 166 167
f 116 167 117
f 117 167 168
f 117 168 118
f 118 168 169
f 118 169 119
f 119 169 120
f 120 170 121
f 120 169 170
f 121 170 122
f 122 170 123
f 123 170 171
f 123 171 158
f 123 158 124
f 125 172 173
f 125 173 174
f 125 174 160
f 126 175 127
f 127 175 176
f 127 176 128
f 128 176 138
f 129 177 178
f 129 178 179
f 129 179 180
f 129 180 181
f 129 181 182
f 129 182 130
f 129 131 183
f 129 183 184
f 129 184 185
f 129 185 177
f 130 182 132
f 131 137 186
f 131 186 183
f 132 182 181
f 132 181 133
f 133 180 134
f 133 181 180
f 134 180 179
f 134 179 187
f 134 187 135
f 135 187 136
f 136 187 188
f 136 188 148
f 137 147 189
f 137 189 186
f 138 176 141
f 139 141 144
f 139 144 190
f 139 190 140
f 140 190 142
f 141 191 192
f 141 192 144
f 141 176 191
f 142 190 143
f 143 190 144
f 144 192 193
f 144 193 194
f 144 194 195
f 144 195 196
f 144 196 145
f 145 196 189
f 145 189 147
f 145 147 146
f 148 188 197
f 149 198 150
f 150 198 199
f 150 199 152
f 150 152 151
f 152 200 201
f 152 201 153
f 152 199 200
f 153 201 202
f 153 202 155
f 153 155 154
f 157 159 203
f 158 171 159
f 159 204 205
f 159 205 203
f 159 171 170
f 159 170 206
f 159 206 207
f 159 207 208
f 159 208 204
f 160 174 209
f 160 209 161
f 161 209 162
f 162 209 177
f 162 177 185
f 162 185 184
f 162 184 163
f 163 184 195
f 163 195 164
f 164 195 165
f 165 194 193
f 165 193 210
f 165 210 166
f 165 195 194
f 166 210 167
f 167 210 168
f 168 210 169
f 169 210 191
f 169 191 206
f 169 206 170
f 172 211 173
f 173 201 209
f 173 209 174
f 173 211 212
f 173 212 201
f 175 205 208
f 175 208 176
f 176 208 206
f 176 206 191
f 177 209 178
f 178 209 213
f 178 213 200
f 178 200 179
f 179 200 199
f 179 199 187
f 183 186 184
f 184 186 189
f 184 189 195
f 187 199 188
f 188 199 197
f 189 196 195
f 191 210 214
f 191 214 192
f 192 214 210
f 192 210 193
f 197 199 198
f 200 213 215
f 200 215 209
f 200 209 201
f 201 212 216
f 201 216 202
f 204 208 205
f 206 208 207
f 209 215 213

