# https://github.com/mikedh/trimesh
v -0.02610148 0.01785840 -0.01292260
v -0.02515077 0.01785840 -0.01292260
v -0.02745900 0.01785840 -0.01289547
v -0.02790118 0.01987647 -0.01485389
v -0.02734071 0.01987519 -0.01485389
v -0.02610148 0.01987390 -0.01485389
v -0.02515077 0.01987390 -0.01485389
v -0.02515077 0.01785840 0.00145033
v -0.02791887 0.01785840 -0.01287951
v -0.02971747 0.01998444 -0.01485389
v -0.02515077 0.02817627 -0.01485389
v -0.02515077 0.02798989 0.00145033
v -0.03489218 0.01785840 0.00145033
v -0.02881320 0.01785840 -0.01272947
v -0.02897791 0.01785840 -0.01269276
v -0.02988661 0.01785840 -0.01240706
v -0.03088374 0.02036364 -0.01485389
v -0.02693058 0.03007480 -0.01485389
v -0.03149507 0.03047327 0.00145033
v -0.02782712 0.03054911 -0.01485389
v -0.03538301 0.02010013 0.00145033
v -0.03540070 0.02010013 0.00089968
v -0.03490766 0.01785840 0.00089968
v -0.03153266 0.01785840 -0.01157549
v -0.03134915 0.02055516 -0.01485389
v -0.03330030 0.03099000 0.00145033
v -0.02810238 0.03063910 -0.01485389
v -0.03577324 0.02190097 0.00145033
v -0.03579314 0.02190097 0.00089968
v -0.03619332 0.02374166 -0.00090073
v -0.03538522 0.02010013 -0.00090073
v -0.03488444 0.01785840 -0.00090073
v -0.03231312 0.01785840 -0.01103600
v -0.03174159 0.02081224 -0.01485389
v -0.03250215 0.01785840 -0.01090033
v -0.03330030 0.03099000 -0.00809917
v -0.03510001 0.03078177 0.00089968
v -0.03510001 0.03076378 0.00145033
v -0.02970089 0.03094887 -0.01349879
v -0.02970089 0.03097973 -0.01485389
v -0.03014750 0.03098872 -0.01485389
v -0.03149949 0.03099000 -0.00989958
v -0.03611815 0.02351029 0.00145033
v -0.03619000 0.02373395 0.00089968
v -0.03614800 0.02394475 -0.00270114
v -0.03479822 0.01785840 -0.00270114
v -0.03640889 0.02549879 0.00089968
v -0.03641110 0.02549879 -0.00090073
v -0.03486344 0.01785840 -0.00134285
v -0.03227774 0.02138296 -0.01485389
v -0.03296092 0.01785840 -0.01026987
v -0.03149949 0.03099000 -0.01169998
v -0.03149949 0.03098615 -0.01349879
v -0.03330030 0.03091674 -0.00989958
v -0.03510001 0.03073678 -0.00270114
v -0.03510001 0.03077020 -0.00090073
v -0.03621101 0.03028689 0.00089968
v -0.03619553 0.03026761 0.00145033
v -0.03149949 0.03085761 -0.01485389
v -0.03617674 0.02378665 0.00145033
v -0.03464124 0.01785840 -0.00448080
v -0.03476395 0.01785840 -0.00310974
v -0.03632266 0.02549879 -0.00270114
v -0.03605735 0.02434837 -0.00450155
v -0.03644205 0.02729963 0.00089968
v -0.03638236 0.02549879 0.00145033
v -0.03643210 0.02729963 -0.00090073
v -0.03634698 0.02729963 -0.00270114
v -0.03258838 0.02201280 -0.01485389
v -0.03319639 0.01785840 -0.00993150
v -0.03191404 0.03072135 -0.01485389
v -0.03330030 0.03067379 -0.01169998
v -0.03461581 0.03042057 -0.00989958
v -0.03482254 0.03049384 -0.00809917
v -0.03617010 0.03024062 -0.00270114
v -0.03619995 0.03027532 -0.00090073
v -0.03643431 0.02909919 0.00089968
v -0.03635030 0.02944496 0.00145033
v -0.03600429 0.02457973 -0.00542569
v -0.03456275 0.01785840 -0.00515435
v -0.03616900 0.02729963 -0.00450155
v -0.03614357 0.02549879 -0.00450155
v -0.03641331 0.02729963 0.00145033
v -0.03641441 0.02909919 -0.00090073
v -0.03634256 0.02909919 -0.00270114
v -0.03268013 0.02220690 -0.01485389
v -0.03376239 0.01785840 -0.00887488
v -0.03285812 0.03033831 -0.01485389
v -0.03333126 0.03039744 -0.01332642
v -0.03434608 0.03017891 -0.01169998
v -0.03600429 0.03000667 -0.00542888
v -0.03608056 0.03011722 -0.00450155
v -0.03640226 0.02909919 0.00145033
v -0.03602197 0.02549879 -0.00551827
v -0.03585726 0.02549879 -0.00641847
v -0.03551235 0.02549879 -0.00809917
v -0.03530010 0.02370053 -0.00809917
v -0.03572571 0.02386891 -0.00613596
v -0.03425543 0.01785840 -0.00741444
v -0.03436819 0.01785840 -0.00673769
v -0.03442346 0.01785840 -0.00630036
v -0.03602860 0.02729963 -0.00556455
v -0.03616458 0.02909919 -0.00450155
v -0.03274315 0.02239456 -0.01485389
v -0.03400891 0.01785840 -0.00833699
v -0.03324392 0.02909919 -0.01485389
v -0.03420458 0.03000667 -0.01260976
v -0.03586831 0.02729963 -0.00646316
v -0.03601423 0.02909919 -0.00548634
v -0.03505247 0.02909919 -0.00989958
v -0.03549466 0.02909919 -0.00809917
v -0.03553999 0.02729963 -0.00809917
v -0.03505247 0.02549879 -0.00989958
v -0.03483801 0.02370053 -0.00989958
v -0.03418468 0.01785840 -0.00767939
v -0.03366069 0.02370053 -0.01349879
v -0.03307368 0.02358612 -0.01485389
v -0.03426648 0.02262208 -0.01103121
v -0.03410951 0.02370053 -0.01229693
v -0.03325277 0.02775081 -0.01485389
v -0.03383314 0.02909919 -0.01351795
v -0.03420789 0.02909919 -0.01261774
v -0.03449974 0.02909919 -0.01169998
v -0.03507458 0.02729963 -0.00989958
v -0.03450858 0.02729963 -0.01169998
v -0.03443783 0.02564147 -0.01185800
v -0.03418800 0.02513503 -0.01256348
v -0.03439251 0.02370053 -0.01139672
v -0.03324282 0.02553093 -0.01485389
v -0.03325387 0.02729963 -0.01485389
v -0.03383977 0.02729963 -0.01351156
v -0.03420458 0.02729963 -0.01261296
v -0.03420126 0.02633559 -0.01260338
v -0.03390168 0.02564147 -0.01332163
v -0.03324724 0.02594868 -0.01485389
f 1 2 8
f 1 8 13
f 1 13 23
f 1 23 32
f 1 32 49
f 1 49 46
f 1 46 62
f 1 62 61
f 1 61 80
f 1 80 101
f 1 101 100
f 1 100 99
f 1 99 115
f 1 115 105
f 1 105 87
f 1 87 70
f 1 70 51
f 1 51 35
f 1 35 33
f 1 33 24
f 1 24 16
f 1 16 15
f 1 15 14
f 1 14 9
f 1 9 3
f 1 3 4
f 1 4 5
f 1 5 6
f 1 6 7
f 1 7 2
f 2 7 11
f 2 11 12
f 2 12 8
f 3 9 4
f 4 9 10
f 4 10 17
f 4 17 25
f 4 25 34
f 4 34 50
f 4 50 69
f 4 69 86
f 4 86 104
f 4 104 117
f 4 117 129
f 4 129 135
f 4 135 130
f 4 130 120
f 4 120 106
f 4 106 88
f 4 88 71
f 4 71 59
f 4 59 41
f 4 41 40
f 4 40 27
f 4 27 20
f 4 20 18
f 4 18 11
f 4 11 7
f 4 7 6
f 4 6 5
f 8 12 19
f 8 19 26
f 8 26 38
f 8 38 58
f 8 58 78
f 8 78 93
f 8 93 83
f 8 83 66
f 8 66 60
f 8 60 43
f 8 43 28
f 8 28 21
f 8 21 13
f 9 14 10
f 10 14 15
f 10 15 16
f 10 16 17
f 11 18 12
f 12 18 20
f 12 20 19
f 13 21 22
f 13 22 23
f 16 24 25
f 16 25 17
f 19 20 27
f 19 27 26
f 21 28 29
f 21 29 22
f 22 29 30
f 22 30 23
f 23 30 31
f 23 31 32
f 24 33 25
f 25 33 35
f 25 35 34
f 26 36 37
f 26 37 38
f 26 27 39
f 26 39 40
f 26 40 41
f 26 41 42
f 26 42 52
f 26 52 36
f 27 40 39
f 28 43 44
f 28 44 29
f 29 44 30
f 30 45 46
f 30 46 31
f 30 44 47
f 30 47 48
f 30 48 45
f 31 46 49
f 31 49 32
f 34 35 50
f 35 51 50
f 36 52 53
f 36 53 54
f 36 54 55
f 36 55 56
f 36 56 37
f 37 56 57
f 37 57 38
f 38 57 58
f 41 59 53
f 41 53 52
f 41 52 42
f 43 60 44
f 44 60 47
f 45 61 62
f 45 62 46
f 45 48 63
f 45 63 64
f 45 64 61
f 47 65 48
f 47 60 66
f 47 66 65
f 48 65 67
f 48 67 68
f 48 68 63
f 50 51 70
f 50 70 69
f 53 59 54
f 54 59 71
f 54 71 72
f 54 72 73
f 54 73 74
f 54 74 55
f 55 75 76
f 55 76 56
f 55 74 75
f 56 76 57
f 57 76 77
f 57 77 78
f 57 78 58
f 61 64 79
f 61 79 80
f 63 68 81
f 63 81 82
f 63 82 79
f 63 79 64
f 65 77 67
f 65 66 83
f 65 83 77
f 67 84 85
f 67 85 68
f 67 77 84
f 68 85 103
f 68 103 81
f 69 70 87
f 69 87 86
f 71 88 89
f 71 89 72
f 72 89 73
f 73 89 88
f 73 88 90
f 73 90 91
f 73 91 92
f 73 92 74
f 74 92 75
f 75 92 85
f 75 85 84
f 75 84 76
f 76 84 77
f 77 83 93
f 77 93 78
f 79 82 94
f 79 94 95
f 79 95 96
f 79 96 97
f 79 97 98
f 79 98 99
f 79 99 100
f 79 100 101
f 79 101 80
f 81 102 94
f 81 94 82
f 81 103 102
f 85 92 91
f 85 91 103
f 86 87 105
f 86 105 104
f 88 106 107
f 88 107 90
f 90 107 91
f 91 108 109
f 91 109 103
f 91 107 110
f 91 110 111
f 91 111 108
f 94 102 108
f 94 108 95
f 95 108 112
f 95 112 96
f 96 112 113
f 96 113 97
f 97 113 114
f 97 114 99
f 97 99 98
f 99 114 115
f 102 103 109
f 102 109 108
f 104 105 116
f 104 116 117
f 105 114 118
f 105 118 119
f 105 119 116
f 105 115 114
f 106 120 121
f 106 121 107
f 107 121 122
f 107 122 123
f 107 123 110
f 108 111 112
f 110 124 112
f 110 112 111
f 110 123 124
f 112 124 113
f 113 124 125
f 113 125 126
f 113 126 127
f 113 127 128
f 113 128 114
f 114 128 118
f 116 119 127
f 116 127 117
f 117 127 129
f 118 128 119
f 119 128 127
f 120 130 121
f 121 130 131
f 121 131 122
f 122 132 125
f 122 125 123
f 122 131 132
f 123 125 124
f 125 132 133
f 125 133 126
f 126 133 127
f 127 133 134
f 127 134 129
f 129 134 131
f 129 131 135
f 130 135 131
f 131 134 133
f 131 133 132

