# https://github.com/mikedh/trimesh
v 0.03153689 0.00239114 0.00090043 0.71764706 0.85882353 0.56078431
v 0.03152763 0.00239114 -0.00089857 0.71764706 0.85882353 0.56078431
v 0.03153381 0.00239114 0.00269943 0.71764706 0.85882353 0.56078431
v 0.03098747 -0.00167447 0.01349731 0.71764706 0.85882353 0.56078431
v 0.03099055 -0.00167447 0.00647303 0.71764706 0.85882353 0.56078431
v 0.03099055 -0.00167447 -0.00629946 0.71764706 0.85882353 0.56078431
v 0.03098747 -0.00167447 -0.01349935 0.71764706 0.85882353 0.56078431
v 0.03150603 0.00239114 -0.00269756 0.71764706 0.85882353 0.56078431
v 0.03153072 0.00239114 0.00420575 0.71764706 0.85882353 0.56078431
v 0.03098747 -0.00149976 0.01349731 0.71764706 0.85882353 0.56078431
v 0.03097204 -0.00167447 0.01367292 0.71764706 0.85882353 0.56078431
v 0.03152763 0.00239114 0.00449843 0.71764706 0.85882353 0.56078431
v 0.03149368 0.00239114 0.00600865 0.71764706 0.85882353 0.56078431
v 0.03148442 0.00239114 0.00629742 0.71764706 0.85882353 0.56078431
v 0.03082079 -0.00167447 -0.01529835 0.71764706 0.85882353 0.56078431
v 0.03098747 -0.00149976 -0.01349935 0.71764706 0.85882353 0.56078431
v 0.03142886 0.00239114 -0.00629946 0.71764706 0.85882353 0.56078431
v 0.03147825 0.00239114 -0.00449656 0.71764706 0.85882353 0.56078431
v 0.03082079 -0.00149976 0.01529631 0.71764706 0.85882353 0.56078431
v 0.03082079 -0.00167447 0.01529631 0.71764706 0.85882353 0.56078431
v 0.03125601 0.00239114 0.00780764 0.71764706 0.85882353 0.56078431
v 0.03061707 -0.00054624 0.01622898 0.71764706 0.85882353 0.56078431
v 0.03070967 -0.00032298 0.01529631 0.71764706 0.85882353 0.56078431
v 0.03062633 -0.00167447 -0.01624663 0.71764706 0.85882353 0.56078431
v 0.03082079 -0.00149976 -0.01529835 0.71764706 0.85882353 0.56078431
v 0.03115723 0.00239114 -0.00809846 0.71764706 0.85882353 0.56078431
v 0.03070967 -0.00032298 -0.01529835 0.71764706 0.85882353 0.56078431
v 0.03080227 -0.00167447 0.01538997 0.71764706 0.85882353 0.56078431
v 0.03062633 -0.00149976 0.01624459 0.71764706 0.85882353 0.56078431
v 0.03120971 0.00239114 0.00809642 0.71764706 0.85882353 0.56078431
v 0.02958921 -0.00012241 0.01693531 0.71764706 0.85882353 0.56078431
v 0.02891940 -0.00038705 0.01809042 0.71764706 0.85882353 0.56078431
v 0.02987935 -0.00149976 0.01714604 0.71764706 0.85882353 0.56078431
v 0.03088252 0.00239114 0.00915006 0.71764706 0.85882353 0.56078431
v 0.03078683 0.00239114 0.00938421 0.71764706 0.85882353 0.56078431
v 0.03039791 0.00239114 0.01013737 0.71764706 0.85882353 0.56078431
v 0.02961081 0.00239114 0.01144076 0.71764706 0.85882353 0.56078431
v 0.03062633 -0.00149976 -0.01624663 0.71764706 0.85882353 0.56078431
v 0.02987935 -0.00167447 -0.01714418 0.71764706 0.85882353 0.56078431
v 0.03061707 -0.00054624 -0.01623102 0.71764706 0.85882353 0.56078431
v 0.03075905 0.00239114 -0.00933161 0.71764706 0.85882353 0.56078431
v 0.03062633 -0.00167447 0.01624459 0.71764706 0.85882353 0.56078431
v 0.03055225 -0.00167447 0.01633434 0.71764706 0.85882353 0.56078431
v 0.02789771 0.00071690 0.01709921 0.71764706 0.85882353 0.56078431
v 0.02898113 -0.00149976 0.01813724 0.71764706 0.85882353 0.56078431
v 0.02789771 -0.00007704 0.01829334 0.71764706 0.85882353 0.56078431
v 0.02789771 -0.00149976 0.01859382 0.71764706 0.85882353 0.56078431
v 0.02979293 -0.00167447 0.01724360 0.71764706 0.85882353 0.56078431
v 0.02987935 -0.00167447 0.01714604 0.71764706 0.85882353 0.56078431
v 0.02943178 0.00239114 0.01160856 0.71764706 0.85882353 0.56078431
v 0.02987935 -0.00149976 -0.01714418 0.71764706 0.85882353 0.56078431
v 0.02906756 -0.00167447 -0.01804172 0.71764706 0.85882353 0.56078431
v 0.02891940 -0.00038705 -0.01809245 0.71764706 0.85882353 0.56078431
v 0.02958921 -0.00012241 -0.01693735 0.71764706 0.85882353 0.56078431
v 0.03028062 0.00239114 -0.01023306 0.71764706 0.85882353 0.56078431
v 0.00934990 0.00239114 0.02003770 0.71764706 0.85882353 0.56078431
v 0.00808746 0.00239114 0.02051379 0.71764706 0.85882353 0.56078431
v 0.02789771 0.00239114 0.01258806 0.71764706 0.85882353 0.56078431
v 0.02898113 -0.00167447 0.01813724 0.71764706 0.85882353 0.56078431
v 0.02609818 -0.00149976 0.01894894 0.71764706 0.85882353 0.56078431
v 0.02789771 -0.00167447 0.01859382 0.71764706 0.85882353 0.56078431
v 0.02898113 -0.00149976 -0.01813538 0.71764706 0.85882353 0.56078431
v 0.02898113 -0.00167447 -0.01813538 0.71764706 0.85882353 0.56078431
v 0.02789771 -0.00149976 -0.01859196 0.71764706 0.85882353 0.56078431
v 0.02789771 -0.00007704 -0.01829538 0.71764706 0.85882353 0.56078431
v 0.02789771 0.00071690 -0.01709735 0.71764706 0.85882353 0.56078431
v 0.02940092 0.00239114 -0.01159499 0.71764706 0.85882353 0.56078431
v 0.00630027 0.00239114 0.02077135 0.71764706 0.85882353 0.56078431
v 0.02609818 -0.00167447 0.01894894 0.71764706 0.85882353 0.56078431
v 0.02800266 -0.00167447 -0.01854903 0.71764706 0.85882353 0.56078431
v 0.02789771 -0.00167447 -0.01859196 0.71764706 0.85882353 0.56078431
v 0.02609818 -0.00149976 -0.01894708 0.71764706 0.85882353 0.56078431
v 0.02609818 0.00013428 -0.01847489 0.71764706 0.85882353 0.56078431
v 0.02609818 0.00092902 -0.01709735 0.71764706 0.85882353 0.56078431
v 0.02718778 0.00239114 -0.01286326 0.71764706 0.85882353 0.56078431
v 0.02789771 0.00239114 -0.01254717 0.71764706 0.85882353 0.56078431
v 0.02809834 0.00239114 -0.01242230 0.71764706 0.85882353 0.56078431
v 0.00450074 0.00239114 0.02082599 0.71764706 0.85882353 0.56078431
v 0.02592224 -0.00167447 0.01895284 0.71764706 0.85882353 0.56078431
v 0.02609818 -0.00167447 -0.01894708 0.71764706 0.85882353 0.56078431
v 0.02447151 -0.00167447 -0.01898610 0.71764706 0.85882353 0.56078431
v 0.02429865 -0.00149976 -0.01899000 0.71764706 0.85882353 0.56078431
v 0.02429865 0.00014264 -0.01849440 0.71764706 0.85882353 0.56078431
v 0.02429865 0.00093737 -0.01709735 0.71764706 0.85882353 0.56078431
v 0.02429865 0.00239114 -0.01331204 0.71764706 0.85882353 0.56078431
v 0.02599941 0.00239114 -0.01319887 0.71764706 0.85882353 0.56078431
v 0.00270122 0.00239114 0.02086111 0.71764706 0.85882353 0.56078431
v 0.02429865 -0.00167447 0.01898796 0.71764706 0.85882353 0.56078431
v 0.02429865 -0.00167447 -0.01899000 0.71764706 0.85882353 0.56078431
v 0.02249912 -0.00149976 -0.01893927 0.71764706 0.85882353 0.56078431
v 0.02249912 0.00013309 -0.01846708 0.71764706 0.85882353 0.56078431
v 0.02249912 0.00092782 -0.01709735 0.71764706 0.85882353 0.56078431
v 0.02044957 0.00239114 -0.01331204 0.71764706 0.85882353 0.56078431
v 0.02220589 0.00239114 -0.01331594 0.71764706 0.85882353 0.56078431
v 0.02249912 0.00239114 -0.01331594 0.71764706 0.85882353 0.56078431
v 0.00090169 0.00239114 0.02087281 0.71764706 0.85882353 0.56078431
v 0.00000346 0.00239114 0.02087672 0.71764706 0.85882353 0.56078431
v 0.00630027 -0.00167447 0.01899967 0.71764706 0.85882353 0.56078431
v 0.02249912 -0.00167447 -0.01893927 0.71764706 0.85882353 0.56078431
v 0.02087245 -0.00167447 -0.01859196 0.71764706 0.85882353 0.56078431
v 0.02069651 -0.00149976 -0.01855293 0.71764706 0.85882353 0.56078431
v 0.02069651 -0.00010609 -0.01827587 0.71764706 0.85882353 0.56078431
v 0.02069651 0.00068506 -0.01709735 0.71764706 0.85882353 0.56078431
v 0.01925194 0.00239114 -0.01295302 0.71764706 0.85882353 0.56078431
v 0.00000346 -0.00167447 0.01899967 0.71764706 0.85882353 0.56078431
v 0.00000346 0.00239114 -0.00428973 0.71764706 0.85882353 0.56078431
v 0.02069651 -0.00167447 -0.01855293 0.71764706 0.85882353 0.56078431
v 0.01976124 -0.00167447 -0.01815099 0.71764706 0.85882353 0.56078431
v 0.01966247 -0.00149976 -0.01810806 0.71764706 0.85882353 0.56078431
v 0.01970568 -0.00042366 -0.01806904 0.71764706 0.85882353 0.56078431
v 0.01913774 0.00239114 -0.01291400 0.71764706 0.85882353 0.56078431
v 0.00000346 -0.00167447 0.00947396 0.71764706 0.85882353 0.56078431
v 0.01966247 -0.00167447 -0.01810806 0.71764706 0.85882353 0.56078431
v 0.00000346 -0.00167407 -0.00021175 0.71764706 0.85882353 0.56078431
v 0.00073192 -0.00167447 -0.00021175 0.71764706 0.85882353 0.56078431
f 1 2 8
f 1 8 18
f 1 18 17
f 1 17 26
f 1 26 41
f 1 41 55
f 1 55 67
f 1 67 77
f 1 77 76
f 1 76 75
f 1 75 86
f 1 86 85
f 1 85 95
f 1 95 94
f 1 94 93
f 1 93 104
f 1 104 111
f 1 111 106
f 1 106 97
f 1 97 96
f 1 96 87
f 1 87 78
f 1 78 68
f 1 68 57
f 1 57 56
f 1 56 58
f 1 58 50
f 1 50 37
f 1 37 36
f 1 36 35
f 1 35 34
f 1 34 30
f 1 30 21
f 1 21 14
f 1 14 13
f 1 13 12
f 1 12 9
f 1 9 3
f 1 3 4
f 1 4 5
f 1 5 6
f 1 6 7
f 1 7 2
f 2 7 8
f 3 9 4
f 4 10 11
f 4 11 20
f 4 20 28
f 4 28 42
f 4 42 43
f 4 43 49
f 4 49 48
f 4 48 59
f 4 59 61
f 4 61 69
f 4 69 79
f 4 79 88
f 4 88 98
f 4 98 105
f 4 105 112
f 4 112 115
f 4 115 113
f 4 113 108
f 4 108 107
f 4 107 100
f 4 100 99
f 4 99 89
f 4 89 81
f 4 81 80
f 4 80 71
f 4 71 70
f 4 70 63
f 4 63 52
f 4 52 39
f 4 39 24
f 4 24 15
f 4 15 7
f 4 7 6
f 4 6 5
f 4 9 12
f 4 12 13
f 4 13 14
f 4 14 10
f 7 15 25
f 7 25 16
f 7 16 17
f 7 17 18
f 7 18 8
f 10 19 11
f 10 14 19
f 11 19 20
f 14 21 22
f 14 22 23
f 14 23 19
f 15 24 38
f 15 38 25
f 16 25 17
f 17 25 27
f 17 27 26
f 19 28 20
f 19 23 22
f 19 22 29
f 19 29 28
f 21 30 22
f 22 31 32
f 22 32 33
f 22 33 29
f 22 30 34
f 22 34 35
f 22 35 36
f 22 36 37
f 22 37 31
f 24 39 51
f 24 51 38
f 25 38 40
f 25 40 27
f 26 27 40
f 26 40 41
f 28 29 42
f 29 43 42
f 29 33 43
f 31 37 44
f 31 44 32
f 32 45 33
f 32 44 46
f 32 46 47
f 32 47 45
f 33 45 48
f 33 48 49
f 33 49 43
f 37 50 44
f 38 51 40
f 39 52 51
f 40 51 53
f 40 53 54
f 40 54 55
f 40 55 41
f 44 56 57
f 44 57 46
f 44 50 58
f 44 58 56
f 45 59 48
f 45 47 61
f 45 61 59
f 46 60 47
f 46 57 60
f 47 60 69
f 47 69 61
f 51 52 62
f 51 62 53
f 52 63 62
f 53 62 64
f 53 64 65
f 53 65 66
f 53 66 54
f 54 66 67
f 54 67 55
f 57 68 60
f 60 68 69
f 62 63 70
f 62 70 64
f 64 70 71
f 64 71 80
f 64 80 72
f 64 72 65
f 65 72 73
f 65 73 66
f 66 73 74
f 66 74 75
f 66 75 76
f 66 76 77
f 66 77 67
f 68 78 69
f 69 78 79
f 72 80 81
f 72 81 82
f 72 82 73
f 73 82 83
f 73 83 74
f 74 83 84
f 74 84 85
f 74 85 86
f 74 86 75
f 78 87 88
f 78 88 79
f 81 89 82
f 82 89 99
f 82 99 90
f 82 90 91
f 82 91 83
f 83 91 92
f 83 92 84
f 84 92 93
f 84 93 94
f 84 94 95
f 84 95 85
f 87 96 88
f 88 96 97
f 88 97 98
f 90 99 100
f 90 100 101
f 90 101 102
f 90 102 91
f 91 102 103
f 91 103 92
f 92 103 93
f 93 103 104
f 97 105 98
f 97 106 114
f 97 114 112
f 97 112 105
f 100 107 101
f 101 108 109
f 101 109 110
f 101 110 102
f 101 107 108
f 102 110 106
f 102 106 103
f 103 111 104
f 103 106 111
f 106 110 109
f 106 109 113
f 106 113 114
f 108 113 109
f 112 114 115
f 113 115 114

