# https://github.com/mikedh/trimesh
v 0.00940746 -0.00167447 0.01899349
v 0.02429806 -0.00167447 0.01898977
v 0.00940746 -0.00167447 -0.00285743
v 0.00940746 -0.14908994 0.01898977
v 0.02429806 -0.14908994 0.01898977
v 0.02609811 -0.00167447 0.01894887
v 0.01806547 -0.00167447 -0.01598583
v 0.01806547 -0.12389221 -0.01599698
v 0.01806547 -0.14729219 -0.01599698
v 0.00940746 -0.14729219 -0.00277935
v 0.00940746 -0.15049307 0.01849155
v 0.02429806 -0.15049307 0.01849155
v 0.02609811 -0.15047844 0.01847296
v 0.02609811 -0.14908994 0.01894887
v 0.02789817 -0.00167447 0.01859194
v 0.01813942 -0.00167447 -0.01609365
v 0.01882817 -0.00167447 -0.01709752
v 0.01882817 -0.14729219 -0.01709752
v 0.01808026 -0.14908994 -0.01599698
v 0.00940746 -0.14908994 -0.00277191
v 0.00940746 -0.14856377 -0.00277563
v 0.00940746 -0.15099000 0.01709729
v 0.02429806 -0.15099000 0.01709729
v 0.02609811 -0.15097539 0.01709729
v 0.02789817 -0.15081461 0.01709729
v 0.02789817 -0.15031767 0.01829449
v 0.02789817 -0.14908994 0.01859194
v 0.02887426 -0.00167447 0.01818295
v 0.01966482 -0.00167447 -0.01810883
v 0.01966482 -0.14908994 -0.01810883
v 0.01884296 -0.14908994 -0.01709752
v 0.01970918 -0.15008381 -0.01807165
v 0.00940746 -0.15030306 -0.00237408
v 0.00940746 -0.15099000 0.00089779
v 0.02789817 -0.15099000 0.01529776
v 0.02969822 -0.15063922 0.01529776
v 0.02959047 -0.15027382 0.01693741
v 0.02891862 -0.15011305 0.01809000
v 0.02897989 -0.14908994 0.01813834
v 0.02897989 -0.00167447 0.01813834
v 0.02069795 -0.00167447 -0.01855499
v 0.02069795 -0.14908994 -0.01855499
v 0.02069795 -0.15030306 -0.01827614
v 0.02069795 -0.15080000 -0.01709752
v 0.01932889 -0.15031767 -0.01709752
v 0.00940746 -0.15081461 -0.00092777
v 0.02069795 -0.15099000 -0.01529799
v 0.00989973 -0.15091692 -0.00089802
v 0.02969822 -0.15075615 0.01349822
v 0.02789817 -0.15099000 -0.01529799
v 0.03079474 -0.15025921 0.01349822
v 0.03071023 -0.15015690 0.01529776
v 0.03061726 -0.15002535 0.01623098
v 0.02987992 -0.14908994 0.01714562
v 0.02979330 -0.00167447 0.01724229
v 0.02249800 -0.00167447 -0.01894167
v 0.02249800 -0.14908994 -0.01894167
v 0.02249800 -0.15047844 -0.01846948
v 0.02249800 -0.15097539 -0.01709752
v 0.02429806 -0.15099000 -0.01709752
v 0.02969822 -0.15075615 -0.01349846
v 0.02609811 -0.15097539 -0.01709752
v 0.02789817 -0.15081461 -0.01709752
v 0.02969822 -0.15063922 -0.01529799
v 0.03079474 -0.15025921 -0.01349846
v 0.03098911 -0.14908994 0.01349822
v 0.03082009 -0.14908994 0.01529776
v 0.03062572 -0.14908994 0.01624585
v 0.02987992 -0.00167447 0.01714562
v 0.02429806 -0.00167447 -0.01899000
v 0.02429806 -0.14908994 -0.01899000
v 0.02429806 -0.15049307 -0.01849178
v 0.02609811 -0.15047844 -0.01847319
v 0.02789817 -0.15031767 -0.01829473
v 0.02891862 -0.15011305 -0.01809024
v 0.02959047 -0.15027382 -0.01693764
v 0.03061726 -0.15002535 -0.01623122
v 0.03071023 -0.15015690 -0.01529799
v 0.03098911 -0.14908994 -0.01349846
v 0.03098911 -0.00167447 0.01349822
v 0.03082009 -0.00167447 0.01529776
v 0.03080107 -0.00167447 0.01539071
v 0.03062572 -0.00167447 0.01624585
v 0.02609811 -0.00167447 -0.01894910
v 0.02609811 -0.14908994 -0.01894910
v 0.02789817 -0.14908994 -0.01859217
v 0.02897989 -0.14908994 -0.01813857
v 0.02987992 -0.14908994 -0.01714585
v 0.03062572 -0.14908994 -0.01624609
v 0.03082009 -0.14908994 -0.01529799
v 0.03083699 -0.00167447 -0.01512324
v 0.03098911 -0.00167447 -0.01349846
v 0.02789817 -0.00167447 -0.01859217
v 0.02897989 -0.00167447 -0.01813857
v 0.02987992 -0.00167447 -0.01714585
v 0.02995175 -0.00167447 -0.01706034
v 0.03062572 -0.00167447 -0.01624609
v 0.03082009 -0.00167447 -0.01529799
f 1 2 6
f 1 6 15
f 1 15 28
f 1 28 40
f 1 40 55
f 1 55 69
f 1 69 83
f 1 83 82
f 1 82 81
f 1 81 80
f 1 80 92
f 1 92 91
f 1 91 98
f 1 98 97
f 1 97 96
f 1 96 95
f 1 95 94
f 1 94 93
f 1 93 84
f 1 84 70
f 1 70 56
f 1 56 41
f 1 41 29
f 1 29 17
f 1 17 16
f 1 16 7
f 1 7 3
f 1 3 10
f 1 10 21
f 1 21 20
f 1 20 33
f 1 33 46
f 1 46 34
f 1 34 22
f 1 22 11
f 1 11 4
f 1 4 5
f 1 5 2
f 2 5 14
f 2 14 6
f 3 7 8
f 3 8 9
f 3 9 10
f 4 11 12
f 4 12 5
f 5 12 13
f 5 13 14
f 6 14 27
f 6 27 15
f 7 16 8
f 8 16 17
f 8 17 18
f 8 18 9
f 9 18 31
f 9 31 19
f 9 19 20
f 9 20 21
f 9 21 10
f 11 22 23
f 11 23 12
f 12 23 24
f 12 24 13
f 13 24 25
f 13 25 26
f 13 26 14
f 14 26 27
f 15 27 28
f 17 29 30
f 17 30 18
f 18 30 31
f 19 31 32
f 19 32 33
f 19 33 20
f 22 34 47
f 22 47 60
f 22 60 50
f 22 50 35
f 22 35 23
f 23 35 24
f 24 35 25
f 25 35 36
f 25 36 37
f 25 37 38
f 25 38 26
f 26 38 27
f 27 38 39
f 27 39 28
f 28 39 40
f 29 41 42
f 29 42 30
f 30 42 32
f 30 32 31
f 32 42 43
f 32 43 44
f 32 44 45
f 32 45 33
f 33 45 46
f 34 46 48
f 34 48 47
f 35 49 36
f 35 50 61
f 35 61 49
f 36 49 51
f 36 51 52
f 36 52 53
f 36 53 37
f 37 53 38
f 38 53 39
f 39 53 54
f 39 54 55
f 39 55 40
f 41 56 57
f 41 57 42
f 42 57 43
f 43 57 58
f 43 58 44
f 44 59 47
f 44 47 48
f 44 48 46
f 44 46 45
f 44 58 59
f 47 59 60
f 49 61 65
f 49 65 51
f 50 60 62
f 50 62 63
f 50 63 64
f 50 64 61
f 51 65 79
f 51 79 66
f 51 66 52
f 52 66 67
f 52 67 53
f 53 67 68
f 53 68 54
f 54 68 83
f 54 83 69
f 54 69 55
f 56 70 71
f 56 71 57
f 57 71 58
f 58 72 59
f 58 71 72
f 59 72 60
f 60 72 62
f 61 64 65
f 62 72 73
f 62 73 63
f 63 73 74
f 63 74 75
f 63 75 76
f 63 76 64
f 64 76 77
f 64 77 78
f 64 78 65
f 65 78 79
f 66 79 92
f 66 92 80
f 66 80 81
f 66 81 67
f 67 81 82
f 67 82 68
f 68 82 83
f 70 84 85
f 70 85 71
f 71 85 73
f 71 73 72
f 73 85 74
f 74 85 86
f 74 86 75
f 75 86 87
f 75 87 77
f 75 77 76
f 77 87 88
f 77 88 89
f 77 89 90
f 77 90 78
f 78 90 79
f 79 90 91
f 79 91 92
f 84 93 86
f 84 86 85
f 86 93 94
f 86 94 87
f 87 94 95
f 87 95 88
f 88 95 96
f 88 96 89
f 89 96 97
f 89 97 98
f 89 98 90
f 90 98 91

