# https://github.com/mikedh/trimesh
v -0.00514267 0.02811191 0.03607073
v -0.00514267 0.02910019 0.03606159
v -0.00549136 0.02910019 0.03601384
v -0.00551698 0.02811191 0.03601892
v -0.00514267 0.02811191 0.02847085
v -0.00514267 0.03003552 0.03602298
v -0.00543234 0.03000679 0.03600368
v -0.00639142 0.02910019 0.03585229
v -0.00601089 0.02811191 0.03593255
v -0.00637667 0.02811191 0.02799535
v -0.00514267 0.03023160 0.03040841
v -0.00514267 0.03051812 0.03514412
v -0.00810069 0.03049474 0.03483118
v -0.00990004 0.03042740 0.03461375
v -0.01170016 0.03018230 0.03434958
v -0.01260489 0.03000312 0.03420124
v -0.00990004 0.02910019 0.03504556
v -0.00810069 0.02910019 0.03549668
v -0.00732954 0.02811191 0.03567550
v -0.00641705 0.02811191 0.03585940
v -0.01307550 0.02811191 0.02569100
v -0.01307550 0.03040346 0.02827780
v -0.00514267 0.03072659 0.03149963
v -0.00514267 0.03098972 0.03329901
v -0.00810069 0.03098972 0.03329901
v -0.00990004 0.03092267 0.03329901
v -0.01170016 0.03067729 0.03329901
v -0.01307550 0.03043811 0.03332339
v -0.01307550 0.03025978 0.03362922
v -0.01307550 0.02953997 0.03400921
v -0.01262119 0.02910019 0.03420835
v -0.01170016 0.02910019 0.03451011
v -0.00990004 0.02811191 0.03505674
v -0.00810069 0.02811191 0.03551497
v -0.01307550 0.02811191 0.03402344
v -0.01307550 0.03089844 0.02970024
v -0.00630056 0.03083901 0.03149963
v -0.00810069 0.03095677 0.03149963
v -0.00990004 0.03098972 0.03149963
v -0.01170016 0.03098972 0.03149963
v -0.01307550 0.03098719 0.03149963
v -0.01307550 0.02910019 0.03401531
v -0.01262974 0.02811191 0.03421140
v -0.01221426 0.02811191 0.03434755
v -0.01170016 0.02811191 0.03451316
f 1 2 3
f 1 3 4
f 1 4 9
f 1 9 20
f 1 20 19
f 1 19 34
f 1 34 33
f 1 33 45
f 1 45 44
f 1 44 43
f 1 43 35
f 1 35 21
f 1 21 10
f 1 10 5
f 1 5 11
f 1 11 23
f 1 23 24
f 1 24 12
f 1 12 6
f 1 6 2
f 2 6 7
f 2 7 3
f 3 7 8
f 3 8 9
f 3 9 4
f 5 10 11
f 6 12 13
f 6 13 14
f 6 14 7
f 7 14 15
f 7 15 16
f 7 16 17
f 7 17 18
f 7 18 8
f 8 19 20
f 8 20 9
f 8 18 19
f 10 21 11
f 11 21 22
f 11 22 23
f 12 24 25
f 12 25 26
f 12 26 13
f 13 26 14
f 14 26 27
f 14 27 28
f 14 28 15
f 15 28 29
f 15 29 16
f 16 29 30
f 16 30 31
f 16 31 32
f 16 32 17
f 17 32 33
f 17 33 34
f 17 34 18
f 18 34 19
f 21 35 42
f 21 42 30
f 21 30 29
f 21 29 28
f 21 28 41
f 21 41 36
f 21 36 22
f 22 36 23
f 23 37 24
f 23 36 37
f 24 37 38
f 24 38 39
f 24 39 40
f 24 40 25
f 25 40 41
f 25 41 26
f 26 41 27
f 27 41 28
f 30 42 31
f 31 42 35
f 31 35 43
f 31 43 44
f 31 44 32
f 32 44 45
f 32 45 33
f 36 41 40
f 36 40 39
f 36 39 38
f 36 38 37

