# https://github.com/mikedh/trimesh
v -0.00089997 0.02729840 0.03643360 0.24705882 0.33333333 0.74901961
v -0.00269906 0.02729840 0.03634542 0.24705882 0.33333333 0.74901961
v -0.00089997 0.02549944 0.03633955 0.24705882 0.33333333 0.74901961
v 0.00090099 0.02549944 0.03633955 0.24705882 0.33333333 0.74901961
v 0.00090099 0.02729840 0.03643164 0.24705882 0.33333333 0.74901961
v 0.00090099 0.02909950 0.03641989 0.24705882 0.33333333 0.74901961
v -0.00089997 0.02909950 0.03641989 0.24705882 0.33333333 0.74901961
v -0.00269906 0.02909950 0.03634150 0.24705882 0.33333333 0.74901961
v -0.00450002 0.02729840 0.03616515 0.24705882 0.33333333 0.74901961
v -0.00514189 0.02660863 0.03606913 0.24705882 0.33333333 0.74901961
v -0.00514189 0.02600613 0.03603974 0.24705882 0.33333333 0.74901961
v -0.00446281 0.02557821 0.03608481 0.24705882 0.33333333 0.74901961
v -0.00269906 0.02549944 0.03623961 0.24705882 0.33333333 0.74901961
v -0.00383769 0.02454354 0.03602798 0.24705882 0.33333333 0.74901961
v -0.00269906 0.02446903 0.03606913 0.24705882 0.33333333 0.74901961
v -0.00089997 0.02437748 0.03612204 0.24705882 0.33333333 0.74901961
v 0.00090099 0.02437748 0.03612204 0.24705882 0.33333333 0.74901961
v 0.00270009 0.02446903 0.03606913 0.24705882 0.33333333 0.74901961
v 0.00383872 0.02454354 0.03602798 0.24705882 0.33333333 0.74901961
v 0.00270009 0.02549944 0.03623961 0.24705882 0.33333333 0.74901961
v 0.00270009 0.02729840 0.03634542 0.24705882 0.33333333 0.74901961
v 0.00270009 0.02909950 0.03634150 0.24705882 0.33333333 0.74901961
v 0.00270009 0.03023422 0.03616515 0.24705882 0.33333333 0.74901961
v 0.00090099 0.03028106 0.03620434 0.24705882 0.33333333 0.74901961
v -0.00089997 0.03028106 0.03620434 0.24705882 0.33333333 0.74901961
v -0.00269906 0.03023422 0.03616515 0.24705882 0.33333333 0.74901961
v -0.00450002 0.03009798 0.03606521 0.24705882 0.33333333 0.74901961
v -0.00514189 0.03003411 0.03602210 0.24705882 0.33333333 0.74901961
v -0.00450002 0.02909950 0.03614751 0.24705882 0.33333333 0.74901961
v -0.00514189 0.02729840 0.03607697 0.24705882 0.33333333 0.74901961
v -0.00514189 0.02909950 0.03606129 0.24705882 0.33333333 0.74901961
v -0.00514189 0.02798605 0.03607109 0.24705882 0.33333333 0.74901961
v -0.00514189 0.02508004 0.03593785 0.24705882 0.33333333 0.74901961
v -0.00503771 0.02502894 0.03594960 0.24705882 0.33333333 0.74901961
v -0.00514189 0.02379203 0.03537546 0.24705882 0.33333333 0.74901961
v -0.00446281 0.02384525 0.03551459 0.24705882 0.33333333 0.74901961
v -0.00450002 0.02231666 0.03453091 0.24705882 0.33333333 0.74901961
v -0.00269906 0.02356849 0.03551067 0.24705882 0.33333333 0.74901961
v -0.00514189 0.02492037 0.03588298 0.24705882 0.33333333 0.74901961
v -0.00089997 0.02347694 0.03555966 0.24705882 0.33333333 0.74901961
v 0.00090099 0.02347694 0.03555770 0.24705882 0.33333333 0.74901961
v 0.00270009 0.02356849 0.03550871 0.24705882 0.33333333 0.74901961
v 0.00449919 0.02231666 0.03452895 0.24705882 0.33333333 0.74901961
v 0.00446198 0.02384525 0.03551459 0.24705882 0.33333333 0.74901961
v 0.00629829 0.02369835 0.03514032 0.24705882 0.33333333 0.74901961
v 0.00814948 0.02355997 0.03469943 0.24705882 0.33333333 0.74901961
v 0.00989835 0.02401769 0.03453483 0.24705882 0.33333333 0.74901961
v 0.00503688 0.02503107 0.03594960 0.24705882 0.33333333 0.74901961
v 0.00446198 0.02557821 0.03608481 0.24705882 0.33333333 0.74901961
v 0.00549270 0.02622967 0.03601623 0.24705882 0.33333333 0.74901961
v 0.00449919 0.02729840 0.03616515 0.24705882 0.33333333 0.74901961
v 0.00449919 0.02909950 0.03614751 0.24705882 0.33333333 0.74901961
v 0.00542944 0.03000643 0.03600251 0.24705882 0.33333333 0.74901961
v 0.00449919 0.03009798 0.03606521 0.24705882 0.33333333 0.74901961
v 0.00809925 0.03049396 0.03483072 0.24705882 0.33333333 0.74901961
v 0.00270009 0.03072814 0.03509917 0.24705882 0.33333333 0.74901961
v 0.00090099 0.03077498 0.03509917 0.24705882 0.33333333 0.74901961
v -0.00089997 0.03077498 0.03509917 0.24705882 0.33333333 0.74901961
v -0.00269906 0.03072814 0.03509917 0.24705882 0.33333333 0.74901961
v -0.00450002 0.03059401 0.03509917 0.24705882 0.33333333 0.74901961
v -0.00514189 0.03051738 0.03514228 0.24705882 0.33333333 0.74901961
v -0.00514189 0.02335133 0.03510113 0.24705882 0.33333333 0.74901961
v -0.00514189 0.02238479 0.03448388 0.24705882 0.33333333 0.74901961
v -0.00514189 0.02206332 0.03426638 0.24705882 0.33333333 0.74901961
v -0.00514189 0.01926375 0.03235585 0.24705882 0.33333333 0.74901961
v -0.00503026 0.01925311 0.03236369 0.24705882 0.33333333 0.74901961
v -0.00450002 0.02141612 0.03391171 0.24705882 0.33333333 0.74901961
v -0.00269906 0.02220170 0.03461125 0.24705882 0.33333333 0.74901961
v -0.00089997 0.02213783 0.03466024 0.24705882 0.33333333 0.74901961
v 0.00090099 0.02213996 0.03465828 0.24705882 0.33333333 0.74901961
v 0.00270009 0.02220596 0.03460929 0.24705882 0.33333333 0.74901961
v 0.00383127 0.01916369 0.03242443 0.24705882 0.33333333 0.74901961
v 0.00449919 0.02141825 0.03391171 0.24705882 0.33333333 0.74901961
v 0.00629829 0.00924279 0.02537409 0.24705882 0.33333333 0.74901961
v 0.00629829 0.02160346 0.03379021 0.24705882 0.33333333 0.74901961
v 0.00629829 0.02250401 0.03439766 0.24705882 0.33333333 0.74901961
v 0.00758389 0.02267858 0.03427814 0.24705882 0.33333333 0.74901961
v 0.00878391 0.02286806 0.03415273 0.24705882 0.33333333 0.74901961
v 0.01124163 0.02435407 0.03433300 0.24705882 0.33333333 0.74901961
v 0.00809925 0.02549944 0.03543033 0.24705882 0.33333333 0.74901961
v 0.00989835 0.02311715 0.03400380 0.24705882 0.33333333 0.74901961
v 0.00617550 0.02557821 0.03581636 0.24705882 0.33333333 0.74901961
v 0.00809925 0.02729840 0.03553027 0.24705882 0.33333333 0.74901961
v 0.00643597 0.02729840 0.03586534 0.24705882 0.33333333 0.74901961
v 0.00553549 0.02729840 0.03602210 0.24705882 0.33333333 0.74901961
v 0.00548898 0.02909950 0.03601231 0.24705882 0.33333333 0.74901961
v 0.01260351 0.03000217 0.03420171 0.24705882 0.33333333 0.74901961
v 0.01169931 0.03018100 0.03434868 0.24705882 0.33333333 0.74901961
v 0.00989835 0.03042583 0.03461321 0.24705882 0.33333333 0.74901961
v 0.00638946 0.02909950 0.03585163 0.24705882 0.33333333 0.74901961
v 0.00809925 0.02909950 0.03549695 0.24705882 0.33333333 0.74901961
v 0.00989835 0.02909950 0.03504627 0.24705882 0.33333333 0.74901961
v 0.00989835 0.03092188 0.03329838 0.24705882 0.33333333 0.74901961
v 0.00809925 0.03099000 0.03329838 0.24705882 0.33333333 0.74901961
v -0.00514189 0.03099000 0.03329838 0.24705882 0.33333333 0.74901961
v -0.00514189 0.00940459 0.02557592 0.24705882 0.33333333 0.74901961
v -0.00269906 0.02130116 0.03399008 0.24705882 0.33333333 0.74901961
v -0.00089997 0.02123729 0.03403320 0.24705882 0.33333333 0.74901961
v -0.00269906 0.01910621 0.03246558 0.24705882 0.33333333 0.74901961
v -0.00192882 0.01378810 0.02880717 0.24705882 0.33333333 0.74901961
v 0.00270009 0.02130541 0.03398617 0.24705882 0.33333333 0.74901961
v -0.00089997 0.01904873 0.03250673 0.24705882 0.33333333 0.74901961
v 0.00090099 0.02124154 0.03403123 0.24705882 0.33333333 0.74901961
v 0.00195776 0.01379023 0.02880717 0.24705882 0.33333333 0.74901961
v 0.00270009 0.00942588 0.02574052 0.24705882 0.33333333 0.74901961
v 0.00270009 0.01600859 0.03031599 0.24705882 0.33333333 0.74901961
v 0.00270009 0.01820779 0.03184050 0.24705882 0.33333333 0.74901961
v 0.00449919 0.00924279 0.02551910 0.24705882 0.33333333 0.74901961
v 0.00809925 0.00924279 0.02501354 0.24705882 0.33333333 0.74901961
v 0.00736622 0.01192952 0.02704752 0.24705882 0.33333333 0.74901961
v 0.01072069 0.02102439 0.03237740 0.24705882 0.33333333 0.74901961
v 0.01178489 0.02373241 0.03379413 0.24705882 0.33333333 0.74901961
v 0.01361376 0.02356210 0.03302013 0.24705882 0.33333333 0.74901961
v 0.01386492 0.02365151 0.03296330 0.24705882 0.33333333 0.74901961
v 0.01244165 0.02508217 0.03414881 0.24705882 0.33333333 0.74901961
v 0.00989835 0.02549944 0.03496984 0.24705882 0.33333333 0.74901961
v 0.01169931 0.02214848 0.03283201 0.24705882 0.33333333 0.74901961
v 0.00989835 0.02729840 0.03506586 0.24705882 0.33333333 0.74901961
v 0.01386492 0.03037900 0.03316317 0.24705882 0.33333333 0.74901961
v 0.01169931 0.02909950 0.03451132 0.24705882 0.33333333 0.74901961
v 0.01262025 0.02909950 0.03420759 0.24705882 0.33333333 0.74901961
v 0.01352073 0.02909950 0.03382745 0.24705882 0.33333333 0.74901961
v 0.01386492 0.02909950 0.03367852 0.24705882 0.33333333 0.74901961
v 0.01386492 0.02933793 0.03361386 0.24705882 0.33333333 0.74901961
v 0.01169931 0.03067704 0.03329838 0.24705882 0.33333333 0.74901961
v 0.01386492 0.03095380 0.03149954 0.24705882 0.33333333 0.74901961
v 0.01349841 0.03098574 0.03149954 0.24705882 0.33333333 0.74901961
v 0.01169931 0.03099000 0.03149954 0.24705882 0.33333333 0.74901961
v 0.00989835 0.03099000 0.03149954 0.24705882 0.33333333 0.74901961
v 0.01386492 0.03095594 0.02969875 0.24705882 0.33333333 0.74901961
v 0.01349841 0.03094742 0.02969875 0.24705882 0.33333333 0.74901961
v -0.00514189 0.03072601 0.03149954 0.24705882 0.33333333 0.74901961
v -0.00514189 0.00924279 0.02546423 0.24705882 0.33333333 0.74901961
v -0.00506561 0.00924279 0.02547011 0.24705882 0.33333333 0.74901961
v -0.00450002 0.00949401 0.02568566 0.24705882 0.33333333 0.74901961
v -0.00450002 0.00924279 0.02551126 0.24705882 0.33333333 0.74901961
v -0.00310651 0.00924279 0.02558572 0.24705882 0.33333333 0.74901961
v -0.00269906 0.00924279 0.02560532 0.24705882 0.33333333 0.74901961
v -0.00089997 0.00939395 0.02576404 0.24705882 0.33333333 0.74901961
v 0.00090099 0.01596388 0.03034734 0.24705882 0.33333333 0.74901961
v 0.00090099 0.00939608 0.02576208 0.24705882 0.33333333 0.74901961
v 0.00270009 0.00924279 0.02561315 0.24705882 0.33333333 0.74901961
v 0.00834484 0.00924279 0.02492928 0.24705882 0.33333333 0.74901961
v 0.01309096 0.02250827 0.03259295 0.24705882 0.33333333 0.74901961
v 0.01386492 0.02330662 0.03277519 0.24705882 0.33333333 0.74901961
v 0.01386492 0.02557821 0.03360406 0.24705882 0.33333333 0.74901961
v 0.01333468 0.02560802 0.03383724 0.24705882 0.33333333 0.74901961
v 0.01262584 0.02628076 0.03420955 0.24705882 0.33333333 0.74901961
v 0.01178489 0.02560802 0.03440550 0.24705882 0.33333333 0.74901961
v 0.01169931 0.02729840 0.03451719 0.24705882 0.33333333 0.74901961
v 0.01386492 0.03051524 0.03282613 0.24705882 0.33333333 0.74901961
v 0.01263700 0.02729840 0.03421543 0.24705882 0.33333333 0.74901961
v 0.01353748 0.02729840 0.03383333 0.24705882 0.33333333 0.74901961
v 0.01386492 0.02763265 0.03369028 0.24705882 0.33333333 0.74901961
v 0.01386492 0.03098574 0.03113311 0.24705882 0.33333333 0.74901961
v 0.01386492 0.03086439 0.02926765 0.24705882 0.33333333 0.74901961
v -0.00514189 0.02798818 0.01641714 0.24705882 0.33333333 0.74901961
v -0.00514189 0.00924279 0.01641714 0.24705882 0.33333333 0.74901961
v -0.00121811 0.00924279 0.02564843 0.24705882 0.33333333 0.74901961
v -0.00089997 0.00924279 0.02565626 0.24705882 0.33333333 0.74901961
v 0.00090099 0.00924279 0.02565430 0.24705882 0.33333333 0.74901961
v 0.00976625 0.00924279 0.02414939 0.24705882 0.33333333 0.74901961
v 0.00909275 0.01010714 0.02526240 0.24705882 0.33333333 0.74901961
v 0.01386492 0.02188874 0.03183070 0.24705882 0.33333333 0.74901961
v 0.01386492 0.02274245 0.03244011 0.24705882 0.33333333 0.74901961
v 0.01386492 0.02606361 0.03362953 0.24705882 0.33333333 0.74901961
v 0.01386492 0.02729840 0.03369028 0.24705882 0.33333333 0.74901961
v 0.01386492 0.02776464 0.01641714 0.24705882 0.33333333 0.74901961
v 0.01349841 0.02789238 0.01641714 0.24705882 0.33333333 0.74901961
v 0.01238397 0.02797115 0.01641714 0.24705882 0.33333333 0.74901961
v 0.01169931 0.02798818 0.01641714 0.24705882 0.33333333 0.74901961
v 0.01306677 0.00924279 0.01641714 0.24705882 0.33333333 0.74901961
v 0.01000626 0.00924279 0.02395932 0.24705882 0.33333333 0.74901961
v 0.01386492 0.02077743 0.03089209 0.24705882 0.33333333 0.74901961
v 0.01386492 0.01944258 0.01641714 0.24705882 0.33333333 0.74901961
v 0.01252723 0.00924279 0.01928000 0.24705882 0.33333333 0.74901961
v 0.01306863 0.00926408 0.01641714 0.24705882 0.33333333 0.74901961
v 0.01386492 0.01977682 0.02777058 0.24705882 0.33333333 0.74901961
v 0.01386492 0.02029203 0.02972030 0.24705882 0.33333333 0.74901961
v 0.01072069 0.00924279 0.02335383 0.24705882 0.33333333 0.74901961
v 0.01129558 0.00924279 0.02251908 0.24705882 0.33333333 0.74901961
v 0.01214397 0.00924279 0.02070652 0.24705882 0.33333333 0.74901961
v 0.01386492 0.01960013 0.02431595 0.24705882 0.33333333 0.74901961
v 0.01386492 0.01965122 0.02631466 0.24705882 0.33333333 0.74901961
f 1 2 3
f 1 3 4
f 1 4 5
f 1 5 6
f 1 6 7
f 1 7 8
f 1 8 2
f 2 9 10
f 2 10 11
f 2 11 12
f 2 12 13
f 2 13 3
f 2 8 9
f 3 13 14
f 3 14 15
f 3 15 16
f 3 16 17
f 3 17 4
f 4 17 18
f 4 18 19
f 4 19 20
f 4 20 21
f 4 21 5
f 5 21 22
f 5 22 6
f 6 22 23
f 6 23 24
f 6 24 25
f 6 25 7
f 7 25 26
f 7 26 8
f 8 26 27
f 8 27 28
f 8 28 29
f 8 29 9
f 9 30 10
f 9 29 31
f 9 31 32
f 9 32 30
f 10 30 32
f 10 32 31
f 10 31 28
f 10 28 61
f 10 61 95
f 10 95 132
f 10 132 157
f 10 157 158
f 10 158 133
f 10 133 96
f 10 96 65
f 10 65 64
f 10 64 63
f 10 63 62
f 10 62 35
f 10 35 39
f 10 39 33
f 10 33 11
f 11 33 34
f 11 34 12
f 12 34 14
f 12 14 13
f 14 35 36
f 14 36 37
f 14 37 38
f 14 38 15
f 14 34 39
f 14 39 35
f 15 38 16
f 16 38 40
f 16 40 17
f 17 40 41
f 17 41 42
f 17 42 18
f 18 42 19
f 19 42 43
f 19 43 44
f 19 44 45
f 19 45 46
f 19 46 47
f 19 47 48
f 19 48 49
f 19 49 20
f 20 49 21
f 21 49 50
f 21 50 51
f 21 51 22
f 22 52 53
f 22 53 54
f 22 54 23
f 22 51 52
f 23 54 55
f 23 55 56
f 23 56 24
f 24 56 57
f 24 57 58
f 24 58 25
f 25 58 59
f 25 59 26
f 26 59 60
f 26 60 61
f 26 61 27
f 27 61 28
f 28 31 29
f 33 39 34
f 35 62 36
f 36 62 63
f 36 63 37
f 37 63 64
f 37 64 65
f 37 65 66
f 37 66 67
f 37 67 68
f 37 68 38
f 38 68 40
f 40 68 69
f 40 69 41
f 41 69 70
f 41 70 71
f 41 71 42
f 42 71 43
f 43 71 72
f 43 72 73
f 43 73 74
f 43 74 75
f 43 75 76
f 43 76 44
f 44 76 45
f 45 76 77
f 45 77 46
f 46 77 78
f 46 78 47
f 47 79 80
f 47 80 48
f 47 78 81
f 47 81 79
f 48 80 82
f 48 82 50
f 48 50 49
f 50 83 84
f 50 84 85
f 50 85 51
f 50 82 80
f 50 80 83
f 51 85 86
f 51 86 52
f 52 86 53
f 53 87 88
f 53 88 89
f 53 89 54
f 53 86 90
f 53 90 91
f 53 91 92
f 53 92 87
f 54 89 55
f 55 93 56
f 55 89 93
f 56 93 94
f 56 94 57
f 57 94 95
f 57 95 58
f 58 95 59
f 59 95 60
f 60 95 61
f 65 96 66
f 66 96 67
f 67 96 68
f 68 96 97
f 68 97 69
f 69 98 70
f 69 97 99
f 69 99 100
f 69 100 98
f 70 101 71
f 70 98 102
f 70 102 103
f 70 103 104
f 70 104 105
f 70 105 106
f 70 106 107
f 70 107 101
f 71 101 108
f 71 108 72
f 72 108 74
f 72 74 73
f 74 108 142
f 74 142 161
f 74 161 160
f 74 160 159
f 74 159 138
f 74 138 137
f 74 137 136
f 74 136 134
f 74 134 133
f 74 133 158
f 74 158 172
f 74 172 176
f 74 176 182
f 74 182 181
f 74 181 180
f 74 180 173
f 74 173 162
f 74 162 143
f 74 143 109
f 74 109 110
f 74 110 75
f 75 77 76
f 75 110 77
f 77 110 78
f 78 110 111
f 78 111 81
f 79 81 112
f 79 112 113
f 79 113 114
f 79 114 115
f 79 115 116
f 79 116 80
f 80 116 83
f 81 111 117
f 81 117 112
f 83 116 118
f 83 118 92
f 83 92 91
f 83 91 90
f 83 90 84
f 84 90 86
f 84 86 85
f 87 119 88
f 87 92 120
f 87 120 121
f 87 121 122
f 87 122 123
f 87 123 124
f 87 124 119
f 88 119 89
f 89 119 125
f 89 125 93
f 92 118 120
f 93 126 127
f 93 127 94
f 93 125 126
f 94 127 128
f 94 128 129
f 94 129 95
f 95 129 130
f 95 130 131
f 95 131 132
f 96 133 97
f 97 133 134
f 97 134 135
f 97 135 136
f 97 136 99
f 98 100 102
f 99 136 137
f 99 137 100
f 100 137 138
f 100 138 139
f 100 139 102
f 101 107 108
f 102 140 103
f 102 139 141
f 102 141 140
f 103 140 104
f 104 141 142
f 104 142 105
f 104 140 141
f 105 142 108
f 105 108 106
f 106 108 107
f 109 143 117
f 109 117 111
f 109 111 110
f 112 117 144
f 112 144 113
f 113 144 145
f 113 145 114
f 114 146 115
f 114 145 165
f 114 165 164
f 114 164 174
f 114 174 179
f 114 179 178
f 114 178 184
f 114 184 183
f 114 183 175
f 114 175 168
f 114 168 156
f 114 156 130
f 114 130 155
f 114 155 126
f 114 126 151
f 114 151 119
f 114 119 124
f 114 124 123
f 114 123 154
f 114 154 167
f 114 167 166
f 114 166 146
f 115 146 147
f 115 147 148
f 115 148 149
f 115 149 116
f 116 149 148
f 116 148 118
f 117 143 144
f 118 148 150
f 118 150 120
f 119 151 125
f 120 150 152
f 120 152 121
f 121 152 122
f 122 152 153
f 122 153 154
f 122 154 123
f 125 151 126
f 126 155 127
f 127 155 128
f 128 155 129
f 129 155 130
f 130 156 157
f 130 157 131
f 131 157 132
f 134 136 135
f 138 159 139
f 139 159 160
f 139 160 161
f 139 161 141
f 141 161 142
f 143 162 163
f 143 163 144
f 144 163 164
f 144 164 165
f 144 165 145
f 146 166 148
f 146 148 147
f 148 166 167
f 148 167 153
f 148 153 152
f 148 152 150
f 153 167 154
f 156 168 169
f 156 169 170
f 156 170 171
f 156 171 157
f 157 171 170
f 157 170 169
f 157 169 168
f 157 168 175
f 157 175 177
f 157 177 172
f 157 172 158
f 162 173 174
f 162 174 164
f 162 164 163
f 172 177 178
f 172 178 179
f 172 179 174
f 172 174 176
f 173 180 174
f 174 180 181
f 174 181 182
f 174 182 176
f 175 183 177
f 177 183 184
f 177 184 178

