# https://github.com/mikedh/trimesh
v 0.00003250 -0.00167447 0.01899962
v -0.00090052 -0.00167447 0.01900157
v 0.00003250 -0.00245759 0.01899570
v 0.00003250 -0.00167447 -0.00021200
v -0.00107514 -0.00167447 0.01900157
v 0.00003250 -0.00339018 0.01898982
v 0.00003250 -0.00339018 0.00000148
v -0.00524531 -0.00339018 -0.00088967
v -0.00524531 -0.00167447 -0.00100718
v -0.00524531 -0.00167447 0.01899962
v -0.00524531 -0.00339018 0.01898982
f 1 2 3
f 1 3 6
f 1 6 7
f 1 7 4
f 1 4 9
f 1 9 10
f 1 10 5
f 1 5 2
f 2 5 11
f 2 11 6
f 2 6 3
f 4 7 8
f 4 8 9
f 5 10 11
f 6 11 8
f 6 8 7
f 8 11 10
f 8 10 9

