# https://github.com/mikedh/trimesh
v -0.01799549 0.02042067 -0.01485426
v -0.01799549 0.02058607 -0.01504329
v -0.01518621 0.02061881 -0.01864781
v -0.01496928 0.02042991 -0.01864781
v -0.01418804 0.01991776 -0.01864781
v -0.01418804 0.01928472 -0.01485426
v -0.01799549 0.02718601 -0.01485426
v -0.01799549 0.02059951 -0.01505851
v -0.01530884 0.02089672 -0.01864781
v -0.01418804 0.02756466 -0.01864781
v -0.01418804 0.02786103 -0.01485426
v -0.01430918 0.02750841 -0.01864781
v -0.01523653 0.02707351 -0.01864781
v -0.01799549 0.02716250 -0.01490439
v -0.01799549 0.02190001 -0.01559960
v -0.01568567 0.02190001 -0.01864781
v -0.01799549 0.02706511 -0.01511088
v -0.01573935 0.02549930 -0.01864781
v -0.01569089 0.02199993 -0.01864781
v -0.01799549 0.02369923 -0.01566608
v -0.01575686 0.02369923 -0.01864781
v -0.01799549 0.02623896 -0.01541429
v -0.01799549 0.02473276 -0.01565976
v -0.01799549 0.02549930 -0.01564231
f 1 2 3
f 1 3 4
f 1 4 5
f 1 5 6
f 1 6 11
f 1 11 7
f 1 7 14
f 1 14 17
f 1 17 22
f 1 22 24
f 1 24 23
f 1 23 20
f 1 20 15
f 1 15 8
f 1 8 2
f 2 8 3
f 3 8 9
f 3 9 16
f 3 16 19
f 3 19 21
f 3 21 18
f 3 18 13
f 3 13 12
f 3 12 10
f 3 10 5
f 3 5 4
f 5 10 11
f 5 11 6
f 7 11 10
f 7 10 12
f 7 12 13
f 7 13 14
f 8 15 16
f 8 16 9
f 13 17 14
f 13 18 17
f 15 19 16
f 15 20 21
f 15 21 19
f 17 18 22
f 18 21 23
f 18 23 24
f 18 24 22
f 20 23 21

