# https://github.com/mikedh/trimesh
v -0.00524531 -0.00167447 0.01900095
v -0.00524531 -0.00167447 -0.00100503
v -0.00827471 -0.00167447 0.01899657
v -0.01027871 -0.14908994 0.01898999
v -0.00524531 -0.14908994 0.01898999
v -0.01027871 -0.00167447 -0.00340680
v -0.00524531 -0.14729219 -0.00088878
v -0.01027871 -0.14729219 -0.00332784
v -0.01007471 -0.00167447 0.01899218
v -0.01027871 -0.15049307 0.01849428
v -0.00524531 -0.14967457 0.01878381
v -0.01027871 -0.00167447 0.01898999
v -0.00524531 -0.14834453 -0.00088659
v -0.01027871 -0.14908994 -0.00332345
v -0.01027871 -0.15099000 0.01709928
v -0.00524531 -0.15049307 0.01849428
v -0.00524531 -0.14908994 -0.00087562
v -0.00524531 -0.14983534 -0.00068699
v -0.01027871 -0.15024460 -0.00295277
v -0.00524531 -0.15099000 0.01709928
v -0.01027871 -0.15099000 0.00052157
v -0.00524531 -0.15040537 -0.00043255
v -0.01027871 -0.15034691 -0.00283433
v -0.00524531 -0.15099000 0.00270181
v -0.01027871 -0.15093154 -0.00089975
v -0.00810028 -0.15099000 0.00090103
v -0.00524531 -0.15069769 0.00028249
v -0.01027871 -0.15087307 -0.00127701
v -0.00524531 -0.15097539 0.00195606
v -0.00990028 -0.15091692 -0.00089975
v -0.00630077 -0.15096077 0.00090103
v -0.00524531 -0.15090231 0.00090103
f 1 2 6
f 1 6 12
f 1 12 9
f 1 9 3
f 1 3 4
f 1 4 5
f 1 5 11
f 1 11 16
f 1 16 20
f 1 20 24
f 1 24 29
f 1 29 32
f 1 32 27
f 1 27 22
f 1 22 18
f 1 18 17
f 1 17 13
f 1 13 7
f 1 7 2
f 2 7 8
f 2 8 6
f 3 9 4
f 4 10 11
f 4 11 5
f 4 9 12
f 4 12 6
f 4 6 8
f 4 8 14
f 4 14 19
f 4 19 23
f 4 23 28
f 4 28 25
f 4 25 21
f 4 21 15
f 4 15 10
f 7 13 8
f 8 13 14
f 10 15 20
f 10 20 16
f 10 16 11
f 13 17 14
f 14 17 18
f 14 18 19
f 15 21 26
f 15 26 24
f 15 24 20
f 18 22 19
f 19 22 23
f 21 25 26
f 22 27 23
f 23 27 28
f 24 26 29
f 25 28 30
f 25 30 31
f 25 31 26
f 26 31 29
f 27 32 28
f 28 32 30
f 29 31 32
f 30 32 31

