# https://github.com/mikedh/trimesh
v 0.00003250 -0.00339018 0.01899000
v 0.00003250 -0.00339018 0.00000164
v -0.00524531 -0.00339018 0.01899000
v 0.00003250 -0.14909733 0.01899000
v -0.00524531 -0.00690103 -0.00089163
v -0.00524531 -0.00339018 -0.00088968
v 0.00003250 -0.14730579 0.00000164
v -0.00524531 -0.14909733 0.01899000
v -0.00524531 -0.14967525 0.01878371
v 0.00003250 -0.15048433 0.01849374
v -0.00524531 -0.14729134 -0.00088968
v 0.00003250 -0.14909733 0.00000748
v 0.00002888 -0.14909733 0.00000554
v -0.00524531 -0.15048433 0.01849374
v 0.00003250 -0.15072994 0.01782232
v -0.00524531 -0.14834603 -0.00088579
v 0.00003250 -0.15044099 0.00072366
v -0.00122341 -0.15007979 -0.00005090
v -0.00524531 -0.14909733 -0.00087606
v -0.00524531 -0.15099000 0.01709837
v 0.00003250 -0.15099000 0.01709837
v 0.00003250 -0.15099000 0.00270092
v -0.00450034 -0.15084553 0.00090075
v -0.00524531 -0.15090331 0.00090075
v -0.00524531 -0.15068660 0.00028383
v -0.00524531 -0.15039764 -0.00043234
v -0.00524531 -0.14983418 -0.00068728
v -0.00524531 -0.15099000 0.00270092
v -0.00524531 -0.15097555 0.00195556
f 1 2 6
f 1 6 3
f 1 3 8
f 1 8 4
f 1 4 10
f 1 10 15
f 1 15 21
f 1 21 22
f 1 22 17
f 1 17 12
f 1 12 7
f 1 7 2
f 2 5 6
f 2 7 5
f 3 6 5
f 3 5 11
f 3 11 16
f 3 16 19
f 3 19 27
f 3 27 26
f 3 26 25
f 3 25 24
f 3 24 29
f 3 29 28
f 3 28 20
f 3 20 14
f 3 14 9
f 3 9 8
f 4 8 9
f 4 9 10
f 5 7 11
f 7 12 13
f 7 13 11
f 9 14 10
f 10 14 15
f 11 13 16
f 12 17 13
f 13 17 18
f 13 18 19
f 13 19 16
f 14 20 15
f 15 20 21
f 17 22 23
f 17 23 24
f 17 24 25
f 17 25 26
f 17 26 18
f 18 27 19
f 18 26 27
f 20 28 22
f 20 22 21
f 22 29 24
f 22 24 23
f 22 28 29

