# https://github.com/mikedh/trimesh
v 0.01386492 0.02800639 0.03368819
v 0.01386492 0.02910013 0.03367976
v 0.01353102 0.02800639 0.03383154
v 0.01386492 0.02800639 0.02404612
v 0.01386492 0.02933961 0.03361471
v 0.01260364 0.03000315 0.03420137
v 0.01352104 0.02910013 0.03382672
v 0.01262139 0.02910013 0.03420860
v 0.01263137 0.02800639 0.03421221
v 0.01170177 0.02800639 0.02461472
v 0.01386492 0.03048008 0.02808895
v 0.01386492 0.03037991 0.03316417
v 0.01169845 0.03018277 0.03434955
v 0.00543196 0.03000695 0.03600354
v 0.00989915 0.02910013 0.03504584
v 0.01169845 0.02910013 0.03451097
v 0.01169845 0.02800639 0.03451459
v 0.00450014 0.02800639 0.02682527
v 0.00253223 0.03038312 0.03125720
v 0.01386492 0.03086588 0.02926951
v 0.00253223 0.03043072 0.03133911
v 0.01386492 0.03051571 0.03282686
v 0.01169845 0.03067750 0.03329909
v 0.00989915 0.03042751 0.03461337
v 0.00450014 0.03009924 0.03606618
v 0.00269974 0.02910013 0.03634205
v 0.00450014 0.02910013 0.03614810
v 0.00549076 0.02910013 0.03601318
v 0.00639041 0.02910013 0.03585175
v 0.00809985 0.02910013 0.03549638
v 0.00809985 0.02800639 0.03551806
v 0.00880537 0.02800639 0.03534098
v 0.00989915 0.02800639 0.03505909
v 0.01060578 0.02800639 0.03484827
v 0.00269974 0.02800639 0.02778538
v 0.00253223 0.02800639 0.02787813
v 0.01349885 0.03094912 0.02970078
v 0.01386492 0.03095758 0.02970078
v 0.00630055 0.03083872 0.03149933
v 0.00253223 0.03099000 0.03329909
v 0.01386492 0.03095554 0.03149933
v 0.00989915 0.03092254 0.03329909
v 0.00809985 0.03049497 0.03483141
v 0.00269974 0.03023505 0.03616617
v 0.00253223 0.02910013 0.03634928
v 0.00253223 0.02899850 0.03635048
v 0.00269974 0.02800639 0.03634446
v 0.00450014 0.02800639 0.03615894
v 0.00641925 0.02800639 0.03586019
v 0.00488840 0.02800639 0.03610593
v 0.00551849 0.02800639 0.03601920
v 0.00253223 0.02800639 0.03635168
v 0.00989915 0.03099000 0.03149933
v 0.01386492 0.03098709 0.03113432
v 0.00253223 0.03097014 0.03346653
v 0.00809985 0.03099000 0.03329909
v 0.01349885 0.03098650 0.03149933
v 0.00269974 0.03073008 0.03509884
v 0.00253223 0.03023942 0.03616978
v 0.00253223 0.03012962 0.03618906
v 0.00253223 0.03068831 0.03520244
v 0.01169845 0.03099000 0.03149933
v 0.00253223 0.03073445 0.03509884
f 1 2 3
f 1 3 9
f 1 9 17
f 1 17 34
f 1 34 33
f 1 33 32
f 1 32 31
f 1 31 49
f 1 49 51
f 1 51 50
f 1 50 48
f 1 48 47
f 1 47 52
f 1 52 36
f 1 36 35
f 1 35 18
f 1 18 10
f 1 10 4
f 1 4 11
f 1 11 20
f 1 20 38
f 1 38 54
f 1 54 41
f 1 41 22
f 1 22 12
f 1 12 5
f 1 5 2
f 2 5 6
f 2 6 7
f 2 7 3
f 3 7 8
f 3 8 9
f 4 10 11
f 5 12 6
f 6 12 13
f 6 13 14
f 6 14 15
f 6 15 16
f 6 16 8
f 6 8 7
f 8 16 9
f 9 16 17
f 10 18 19
f 10 19 11
f 11 19 21
f 11 21 20
f 12 22 23
f 12 23 24
f 12 24 13
f 13 24 14
f 14 25 26
f 14 26 27
f 14 27 28
f 14 28 29
f 14 29 30
f 14 30 15
f 14 24 25
f 15 30 31
f 15 31 32
f 15 32 33
f 15 33 16
f 16 33 34
f 16 34 17
f 18 35 19
f 19 35 36
f 19 36 52
f 19 52 46
f 19 46 45
f 19 45 60
f 19 60 59
f 19 59 61
f 19 61 63
f 19 63 55
f 19 55 40
f 19 40 21
f 20 37 38
f 20 21 39
f 20 39 37
f 21 40 39
f 22 41 23
f 23 41 42
f 23 42 24
f 24 43 25
f 24 42 43
f 25 44 26
f 25 43 44
f 26 44 45
f 26 45 46
f 26 46 47
f 26 47 48
f 26 48 27
f 27 48 28
f 28 49 29
f 28 48 50
f 28 50 51
f 28 51 49
f 29 49 31
f 29 31 30
f 37 39 40
f 37 40 38
f 38 40 53
f 38 53 54
f 40 55 56
f 40 56 62
f 40 62 53
f 41 57 42
f 41 54 57
f 42 57 56
f 42 56 58
f 42 58 43
f 43 58 44
f 44 59 60
f 44 60 45
f 44 58 61
f 44 61 59
f 46 52 47
f 53 62 54
f 54 62 57
f 55 63 56
f 56 57 62
f 56 63 58
f 58 63 61

