# https://github.com/mikedh/trimesh
v 0.03644290 0.02729985 0.00089968
v 0.03643880 0.02811190 0.00089968
v 0.03642237 0.02811190 0.00120294
v 0.03641280 0.02729985 0.00145033
v 0.03640459 0.02674727 0.00145033
v 0.03638132 0.02549989 0.00145033
v 0.03640869 0.02549989 0.00089968
v 0.03641006 0.02549989 -0.00090073
v 0.03643196 0.02729985 -0.00090073
v 0.03642374 0.02811190 -0.00090073
v 0.03640869 0.02811190 0.00145033
v 0.03632795 0.02501361 0.00145033
v 0.03618837 0.02373548 0.00089968
v 0.03619248 0.02373836 -0.00090073
v 0.03614732 0.02394017 -0.00270114
v 0.03632248 0.02549989 -0.00270114
v 0.03634574 0.02729985 -0.00270114
v 0.03634438 0.02811190 -0.00270114
v 0.03639090 0.02811190 -0.00171315
v 0.02890971 0.02811190 0.00145033
v 0.03617469 0.02379025 0.00145033
v 0.03565195 0.02134834 0.00145033
v 0.03526606 0.01954837 0.00145033
v 0.03540153 0.02010095 0.00089968
v 0.03501016 0.01830002 0.00089968
v 0.03499374 0.01830002 -0.00090073
v 0.03490479 0.01830002 -0.00270114
v 0.03475016 0.01830002 -0.00450155
v 0.03605700 0.02434380 -0.00450155
v 0.03600364 0.02457636 -0.00543048
v 0.03614322 0.02549989 -0.00450155
v 0.03616922 0.02729985 -0.00450155
v 0.03626501 0.02811190 -0.00351196
v 0.02246306 0.02798985 0.00145033
v 0.02477570 0.02811190 -0.01485389
v 0.03499374 0.01830002 0.00145033
v 0.03500879 0.01829522 0.00089968
v 0.03499237 0.01829522 -0.00090073
v 0.03490342 0.01829522 -0.00270114
v 0.03451889 0.01829522 -0.00630036
v 0.03452026 0.01830002 -0.00630036
v 0.03474879 0.01829522 -0.00449995
v 0.03602143 0.02549989 -0.00552305
v 0.03429584 0.01829522 -0.00757724
v 0.03572722 0.02386617 -0.00613915
v 0.03530026 0.02369992 -0.00809917
v 0.03551237 0.02549989 -0.00809917
v 0.03585721 0.02549989 -0.00642326
v 0.03616785 0.02811190 -0.00450155
v 0.03602827 0.02729985 -0.00556775
v 0.02246306 0.01829522 0.00145033
v 0.02246306 0.02798985 -0.01485389
v 0.03324899 0.02811190 -0.01485389
v 0.03499237 0.01829522 0.00145033
v 0.03586816 0.02729985 -0.00646795
v 0.03405773 0.01829522 -0.00847745
v 0.03483774 0.02369992 -0.00989958
v 0.03505121 0.02549989 -0.00989958
v 0.03553974 0.02729985 -0.00809917
v 0.03602143 0.02811190 -0.00553263
v 0.02246306 0.01829522 -0.01300241
v 0.02246306 0.01987896 -0.01485389
v 0.03383605 0.02811190 -0.01351635
v 0.03325447 0.02729985 -0.01485389
v 0.03569985 0.02811190 -0.00720216
v 0.03585311 0.02811190 -0.00643283
v 0.03330099 0.01829522 -0.00989958
v 0.03228836 0.02135794 -0.01485389
v 0.03267973 0.02218729 -0.01485389
v 0.03366089 0.02369992 -0.01349879
v 0.03410973 0.02369992 -0.01229852
v 0.03426573 0.02261014 -0.01103281
v 0.03439163 0.02369992 -0.01139832
v 0.03507448 0.02729985 -0.00989958
v 0.03418774 0.02512221 -0.01256507
v 0.03443816 0.02563347 -0.01185800
v 0.03450932 0.02729985 -0.01169998
v 0.03506490 0.02811190 -0.00989958
v 0.03531942 0.02811190 -0.00891159
v 0.03551921 0.02811190 -0.00809917
v 0.02250000 0.01987415 -0.01485389
v 0.02610033 0.01829522 -0.01300241
v 0.03384015 0.02729985 -0.01351316
v 0.03420552 0.02811190 -0.01261615
v 0.03324215 0.02552967 -0.01485389
v 0.03254289 0.01829522 -0.01094183
v 0.03135509 0.02056223 -0.01485389
v 0.03307384 0.02358364 -0.01485389
v 0.03450521 0.02811190 -0.01169998
v 0.03481584 0.02811190 -0.01071040
v 0.03420005 0.02632250 -0.01260338
v 0.03320110 0.02505301 -0.01485389
v 0.03390173 0.02563347 -0.01332163
v 0.03420416 0.02729985 -0.01261296
v 0.03437247 0.02811190 -0.01211337
v 0.02610033 0.01987415 -0.01485389
v 0.02789982 0.01829522 -0.01296729
v 0.02789982 0.01987608 -0.01485389
v 0.03149878 0.01829522 -0.01166327
v 0.02971572 0.01999236 -0.01485389
v 0.03001267 0.01829522 -0.01241983
v 0.02911498 0.01829522 -0.01276459
v 0.02835140 0.01990106 -0.01485389
f 1 2 3
f 1 3 4
f 1 4 5
f 1 5 6
f 1 6 7
f 1 7 8
f 1 8 9
f 1 9 2
f 2 9 10
f 2 10 19
f 2 19 18
f 2 18 33
f 2 33 49
f 2 49 60
f 2 60 66
f 2 66 65
f 2 65 80
f 2 80 79
f 2 79 78
f 2 78 90
f 2 90 89
f 2 89 95
f 2 95 84
f 2 84 63
f 2 63 53
f 2 53 35
f 2 35 20
f 2 20 11
f 2 11 3
f 3 11 4
f 4 11 20
f 4 20 34
f 4 34 51
f 4 51 54
f 4 54 36
f 4 36 23
f 4 23 22
f 4 22 21
f 4 21 12
f 4 12 6
f 4 6 5
f 6 12 7
f 7 12 13
f 7 13 14
f 7 14 8
f 8 14 15
f 8 15 16
f 8 16 17
f 8 17 9
f 9 17 18
f 9 18 19
f 9 19 10
f 12 21 13
f 13 21 22
f 13 22 23
f 13 23 24
f 13 24 14
f 14 24 25
f 14 25 26
f 14 26 27
f 14 27 15
f 15 27 28
f 15 28 29
f 15 29 16
f 16 29 30
f 16 30 31
f 16 31 32
f 16 32 17
f 17 32 33
f 17 33 18
f 20 35 34
f 23 36 25
f 23 25 24
f 25 36 54
f 25 54 37
f 25 37 38
f 25 38 26
f 26 38 39
f 26 39 27
f 27 39 28
f 28 40 41
f 28 41 30
f 28 30 29
f 28 39 42
f 28 42 40
f 30 43 31
f 30 41 44
f 30 44 45
f 30 45 46
f 30 46 47
f 30 47 48
f 30 48 43
f 31 43 32
f 32 49 33
f 32 43 50
f 32 50 49
f 34 35 52
f 34 52 62
f 34 62 61
f 34 61 51
f 35 53 64
f 35 64 85
f 35 85 92
f 35 92 88
f 35 88 69
f 35 69 68
f 35 68 87
f 35 87 100
f 35 100 103
f 35 103 98
f 35 98 96
f 35 96 81
f 35 81 62
f 35 62 52
f 37 54 51
f 37 51 61
f 37 61 82
f 37 82 97
f 37 97 102
f 37 102 101
f 37 101 99
f 37 99 86
f 37 86 67
f 37 67 56
f 37 56 44
f 37 44 40
f 37 40 42
f 37 42 39
f 37 39 38
f 40 44 41
f 43 48 55
f 43 55 50
f 44 56 57
f 44 57 46
f 44 46 45
f 46 57 58
f 46 58 47
f 47 58 59
f 47 59 48
f 48 59 55
f 49 50 60
f 50 55 60
f 53 63 64
f 55 65 66
f 55 66 60
f 55 59 65
f 56 67 68
f 56 68 69
f 56 69 70
f 56 70 71
f 56 71 72
f 56 72 57
f 57 72 73
f 57 73 58
f 58 74 59
f 58 73 75
f 58 75 76
f 58 76 77
f 58 77 74
f 59 74 78
f 59 78 79
f 59 79 80
f 59 80 65
f 61 62 81
f 61 81 96
f 61 96 82
f 63 83 64
f 63 84 83
f 64 83 85
f 67 86 68
f 68 86 87
f 69 88 70
f 70 88 75
f 70 75 71
f 71 75 73
f 71 73 72
f 74 77 89
f 74 89 90
f 74 90 78
f 75 91 76
f 75 88 92
f 75 92 85
f 75 85 93
f 75 93 91
f 76 91 77
f 77 91 94
f 77 94 84
f 77 84 95
f 77 95 89
f 82 96 98
f 82 98 97
f 83 93 85
f 83 84 94
f 83 94 91
f 83 91 93
f 86 99 87
f 87 99 101
f 87 101 100
f 97 98 103
f 97 103 100
f 97 100 102
f 100 101 102

