# https://github.com/mikedh/trimesh
v -0.02514967 0.02817676 -0.01485389
v -0.02514967 0.01987275 -0.01485389
v -0.02514967 0.02798954 0.00145033
v 0.02246306 0.02798954 0.00145033
v 0.02246306 0.02798954 -0.01485389
v -0.02514967 0.00924066 -0.01266084
v -0.01169917 0.00986346 -0.01485389
v -0.02514967 0.00924066 0.00145033
v 0.02246306 0.00924066 0.00145033
v 0.02246306 0.01987646 -0.01485389
v -0.01126107 0.00965957 -0.01485389
v -0.01004931 0.00924066 -0.01485389
v 0.02246306 0.00924066 -0.01102164
v 0.02246306 0.00924251 -0.01266722
v 0.01241014 0.01037690 -0.01485389
v 0.01013576 0.00924066 -0.01485389
v 0.02075728 0.00924066 -0.01266722
v 0.01055522 0.00924066 -0.01477728
v 0.01041540 0.00929256 -0.01485389
v 0.01156191 0.00978191 -0.01485389
f 1 2 6
f 1 6 8
f 1 8 3
f 1 3 4
f 1 4 5
f 1 5 10
f 1 10 15
f 1 15 20
f 1 20 19
f 1 19 16
f 1 16 12
f 1 12 11
f 1 11 7
f 1 7 2
f 2 7 6
f 3 8 9
f 3 9 4
f 4 9 13
f 4 13 14
f 4 14 10
f 4 10 5
f 6 7 11
f 6 11 12
f 6 12 16
f 6 16 18
f 6 18 17
f 6 17 13
f 6 13 9
f 6 9 8
f 10 14 15
f 13 17 14
f 14 17 18
f 14 18 16
f 14 16 19
f 14 19 20
f 14 20 15

