# https://github.com/mikedh/trimesh
v 0.01488648 -0.04433605 0.01899000
v 0.01488648 -0.04433605 -0.00714574
v 0.01265716 -0.04433605 0.01899000
v 0.01488648 -0.10530482 0.01899000
v 0.01427437 -0.04433605 -0.00714574
v 0.01488648 -0.10530482 -0.00714574
v 0.01265716 -0.04433605 0.00322823
v 0.01265716 -0.10530482 0.01899000
v 0.01265716 -0.04465832 -0.00529864
v 0.01266152 -0.04433605 -0.00530119
v 0.01426914 -0.07350151 -0.00714574
v 0.01426892 -0.10530482 -0.00714574
v 0.01265716 -0.10530482 0.00940911
v 0.01426892 -0.07509496 -0.00714574
v 0.01265716 -0.06626237 -0.00530119
v 0.01266392 -0.10530482 -0.00530887
v 0.01265716 -0.10409929 -0.00530119
f 1 2 5
f 1 5 10
f 1 10 7
f 1 7 3
f 1 3 8
f 1 8 4
f 1 4 6
f 1 6 2
f 2 6 12
f 2 12 14
f 2 14 11
f 2 11 5
f 3 7 9
f 3 9 15
f 3 15 17
f 3 17 13
f 3 13 8
f 4 8 13
f 4 13 16
f 4 16 12
f 4 12 6
f 5 9 10
f 5 11 9
f 7 10 9
f 9 11 14
f 9 14 15
f 12 16 17
f 12 17 15
f 12 15 14
f 13 17 16

