# https://github.com/mikedh/trimesh
v 0.02969805 0.03099000 -0.01530014
v 0.02969805 0.03098239 -0.01709999
v 0.02789844 0.03097586 -0.01801508
v 0.02789844 0.03096171 -0.01709999
v 0.02969805 0.03097912 -0.01485389
v 0.03149912 0.03085834 -0.01485389
v 0.02977705 0.03079958 -0.01801508
v 0.03149912 0.03081591 -0.01530014
v 0.02609737 0.03064398 -0.01801508
v 0.02782529 0.03054932 -0.01485389
v 0.03285687 0.03033822 -0.01485389
v 0.03117431 0.03036759 -0.01801508
v 0.03271934 0.03032080 -0.01530014
v 0.03154008 0.03045247 -0.01701272
v 0.02501176 0.03017282 -0.01801508
v 0.01830786 0.02725339 -0.01485389
v 0.03299879 0.03001504 -0.01485389
v 0.03247354 0.03010318 -0.01635480
v 0.03146254 0.02976695 -0.01801508
v 0.02060199 0.02719027 -0.01801508
v 0.01830786 0.02709887 -0.01513891
v 0.01830786 0.02623599 -0.01485389
v 0.03324313 0.02909993 -0.01485389
v 0.03304707 0.02909993 -0.01530014
v 0.03251450 0.02909993 -0.01643774
v 0.03205655 0.02909993 -0.01733766
v 0.03166152 0.02909993 -0.01801508
v 0.01998310 0.02549933 -0.01801508
v 0.01830786 0.02707602 -0.01518099
v 0.01830786 0.02043193 -0.01486224
v 0.01900868 0.02034815 -0.01485389
v 0.03325337 0.02729909 -0.01485389
v 0.03305877 0.02729909 -0.01530014
v 0.03251889 0.02729909 -0.01644392
v 0.03206094 0.02729909 -0.01734385
v 0.03167030 0.02734043 -0.01801508
v 0.01996115 0.02370066 -0.01801508
v 0.01830786 0.02549933 -0.01570121
v 0.02070002 0.02002607 -0.01485389
v 0.01830786 0.02060712 -0.01511786
v 0.02062394 0.02053639 -0.01801508
v 0.02154276 0.02025892 -0.01801508
v 0.02249962 0.02001083 -0.01801508
v 0.03324313 0.02552980 -0.01485389
v 0.03305000 0.02549933 -0.01530014
v 0.03251304 0.02549933 -0.01643124
v 0.03205363 0.02549933 -0.01733085
v 0.03166591 0.02549933 -0.01801508
v 0.01998895 0.02268435 -0.01801508
v 0.01830786 0.02236662 -0.01566438
v 0.01830786 0.02370066 -0.01569904
v 0.02249962 0.01987373 -0.01485389
v 0.01830786 0.02111201 -0.01533789
v 0.02001090 0.02190090 -0.01801508
v 0.02025816 0.02133399 -0.01801508
v 0.02518440 0.02001083 -0.01801508
v 0.03320216 0.02505429 -0.01485389
v 0.03280273 0.02353200 -0.01547684
v 0.03247207 0.02401948 -0.01634520
v 0.03207850 0.02353200 -0.01700684
v 0.03154155 0.02369522 -0.01801508
v 0.01830786 0.02190090 -0.01563622
v 0.02430069 0.01987373 -0.01485389
v 0.02609883 0.02001627 -0.01801508
v 0.02789844 0.01987591 -0.01485389
v 0.03307341 0.02358532 -0.01485389
v 0.03239599 0.02281928 -0.01619450
v 0.03102068 0.02190090 -0.01801508
v 0.02698401 0.02002607 -0.01801508
v 0.02835054 0.01990093 -0.01485389
v 0.03267983 0.02218817 -0.01485389
v 0.03264765 0.02223931 -0.01499470
v 0.03228919 0.02135793 -0.01485389
v 0.03219262 0.02174421 -0.01547684
v 0.03060224 0.02099776 -0.01800518
v 0.03060809 0.02102170 -0.01801508
v 0.02789844 0.02011203 -0.01801508
v 0.02971561 0.01999233 -0.01485389
v 0.03135573 0.02056251 -0.01485389
v 0.03081878 0.02084433 -0.01709999
v 0.03059931 0.02100429 -0.01801508
v 0.03014868 0.02078449 -0.01801508
v 0.03058907 0.02099449 -0.01801508
v 0.02878361 0.02027851 -0.01801508
v 0.02969805 0.02036991 -0.01709999
v 0.02966001 0.02057774 -0.01801508
f 1 2 3
f 1 3 4
f 1 4 5
f 1 5 6
f 1 6 2
f 2 7 3
f 2 6 8
f 2 8 7
f 3 7 12
f 3 12 19
f 3 19 27
f 3 27 36
f 3 36 48
f 3 48 61
f 3 61 68
f 3 68 76
f 3 76 81
f 3 81 83
f 3 83 82
f 3 82 86
f 3 86 84
f 3 84 77
f 3 77 69
f 3 69 64
f 3 64 56
f 3 56 43
f 3 43 42
f 3 42 41
f 3 41 55
f 3 55 54
f 3 54 49
f 3 49 37
f 3 37 28
f 3 28 20
f 3 20 15
f 3 15 9
f 3 9 4
f 4 10 5
f 4 9 10
f 5 10 16
f 5 16 22
f 5 22 31
f 5 31 39
f 5 39 52
f 5 52 63
f 5 63 65
f 5 65 70
f 5 70 78
f 5 78 79
f 5 79 73
f 5 73 71
f 5 71 66
f 5 66 57
f 5 57 44
f 5 44 32
f 5 32 23
f 5 23 17
f 5 17 11
f 5 11 6
f 6 11 8
f 7 8 12
f 8 11 13
f 8 13 14
f 8 14 12
f 9 15 16
f 9 16 10
f 11 17 18
f 11 18 13
f 12 14 13
f 12 13 18
f 12 18 19
f 15 20 16
f 16 20 21
f 16 21 29
f 16 29 38
f 16 38 51
f 16 51 50
f 16 50 62
f 16 62 53
f 16 53 40
f 16 40 30
f 16 30 22
f 17 23 18
f 18 23 24
f 18 24 25
f 18 25 26
f 18 26 27
f 18 27 19
f 20 28 29
f 20 29 21
f 22 30 31
f 23 32 33
f 23 33 24
f 24 33 25
f 25 33 34
f 25 34 35
f 25 35 26
f 26 35 36
f 26 36 27
f 28 37 38
f 28 38 29
f 30 39 31
f 30 40 41
f 30 41 42
f 30 42 43
f 30 43 39
f 32 44 45
f 32 45 33
f 33 45 34
f 34 46 35
f 34 45 46
f 35 47 48
f 35 48 36
f 35 46 47
f 37 49 50
f 37 50 51
f 37 51 38
f 39 43 52
f 40 53 54
f 40 54 55
f 40 55 41
f 43 56 63
f 43 63 52
f 44 57 45
f 45 57 58
f 45 58 59
f 45 59 46
f 46 59 47
f 47 60 61
f 47 61 48
f 47 59 60
f 49 54 50
f 50 54 62
f 53 62 54
f 56 64 65
f 56 65 63
f 57 66 58
f 58 66 67
f 58 67 59
f 59 67 60
f 60 67 61
f 61 67 68
f 64 69 65
f 65 69 70
f 66 71 72
f 66 72 67
f 67 72 73
f 67 73 74
f 67 74 75
f 67 75 68
f 68 75 76
f 69 77 78
f 69 78 70
f 71 73 72
f 73 79 80
f 73 80 75
f 73 75 74
f 75 81 76
f 75 80 82
f 75 82 83
f 75 83 81
f 77 84 78
f 78 85 79
f 78 84 85
f 79 85 80
f 80 85 82
f 82 85 86
f 84 86 85

