# https://github.com/mikedh/trimesh
v 0.01710768 0.01872652 0.00145193
v 0.01710768 0.01872652 0.01330858
v 0.01710768 0.02798923 0.00145193
v 0.02302448 0.01872652 0.00145193
v 0.02250102 0.02000705 0.01641519
v 0.02181504 0.02009353 0.01641519
v 0.02011805 0.02060225 0.01641519
v 0.01710768 0.02057557 0.01488019
v 0.02302448 0.01872652 0.01328808
v 0.02610100 0.02000705 0.01641519
v 0.01710768 0.02798923 0.01169010
v 0.02386164 0.02812447 0.01641519
v 0.02892050 0.02812447 0.00145193
v 0.03510754 0.01882219 0.00145193
v 0.01979679 0.02108705 0.01641519
v 0.01710768 0.02190026 0.01545728
v 0.03508676 0.01882219 0.00217841
v 0.03506786 0.01882219 0.00270131
v 0.03497526 0.01882219 0.00397852
v 0.03493369 0.01882219 0.00450141
v 0.03479762 0.01882219 0.00578008
v 0.03473715 0.01882219 0.00630005
v 0.03449148 0.01882219 0.00764903
v 0.03441212 0.01882219 0.00806646
v 0.03418157 0.01882219 0.00892477
v 0.03393590 0.01882219 0.00933635
v 0.03363543 0.01882219 0.00982702
v 0.03270000 0.01882219 0.01117892
v 0.03189875 0.01882219 0.01172818
v 0.03149812 0.01882219 0.01197279
v 0.02944207 0.01882219 0.01305666
v 0.02790004 0.01882219 0.01333055
v 0.02790004 0.02002637 0.01641519
v 0.01710768 0.02786780 0.01349167
v 0.03254315 0.02812447 0.01641519
v 0.02250102 0.02801867 0.01641519
v 0.03640769 0.02812447 0.00145193
v 0.03526439 0.01954893 0.00145193
v 0.01953979 0.02190026 0.01641519
v 0.01930168 0.02319091 0.01641519
v 0.01710768 0.02369963 0.01556127
v 0.03565179 0.02134830 0.00145193
v 0.03617336 0.02378978 0.00145193
v 0.03614502 0.02391489 0.00270131
v 0.03605620 0.02432610 0.00450141
v 0.03600139 0.02458368 0.00542123
v 0.03498849 0.02010089 0.00630005
v 0.03533431 0.02190118 0.00630005
v 0.03533809 0.02369871 0.00810015
v 0.03499416 0.02190118 0.00810015
v 0.03489778 0.02369871 0.00989879
v 0.03431196 0.02250649 0.01114377
v 0.03241654 0.02275303 0.01623649
v 0.03222945 0.02257640 0.01641519
v 0.03177781 0.02173099 0.01641519
v 0.03127702 0.02102633 0.01641519
v 0.03103513 0.02076507 0.01641519
v 0.02979546 0.02033179 0.01641519
v 0.01710768 0.02707575 0.01496221
v 0.03254882 0.02735909 0.01641519
v 0.03307606 0.02812447 0.01529909
v 0.02062639 0.02735541 0.01641519
v 0.03638501 0.02812447 0.00187522
v 0.03641336 0.02729929 0.00145193
v 0.01926010 0.02369963 0.01641519
v 0.01710768 0.02370883 0.01556127
v 0.03632643 0.02501328 0.00145193
v 0.03638124 0.02549900 0.00145193
v 0.03631887 0.02549900 0.00270131
v 0.03601462 0.02549900 0.00549007
v 0.03585588 0.02549900 0.00639086
v 0.03550628 0.02549900 0.00810015
v 0.03574061 0.02386889 0.00613307
v 0.03613557 0.02549900 0.00450141
v 0.03505463 0.02549900 0.00989879
v 0.03442912 0.02369871 0.01148358
v 0.03412487 0.02369871 0.01238436
v 0.03372236 0.02369871 0.01349899
v 0.03296457 0.02369871 0.01529909
v 0.03246945 0.02369871 0.01633756
v 0.03242977 0.02369871 0.01641519
v 0.01710768 0.02549900 0.01555688
v 0.01960782 0.02660567 0.01641519
v 0.03254882 0.02729929 0.01641519
v 0.03308173 0.02729929 0.01529909
v 0.03384519 0.02729929 0.01349899
v 0.03383385 0.02812447 0.01349899
v 0.03633966 0.02812447 0.00270131
v 0.03634533 0.02729929 0.00270131
v 0.03640391 0.02674734 0.00145193
v 0.01929979 0.02549900 0.01641519
v 0.03615635 0.02729929 0.00450141
v 0.03602596 0.02729929 0.00555452
v 0.03586155 0.02729929 0.00645530
v 0.03551195 0.02729929 0.00810015
v 0.03506975 0.02729929 0.00989879
v 0.03451794 0.02729929 0.01168864
v 0.03450471 0.02549900 0.01167106
v 0.03418912 0.02549900 0.01257184
v 0.03383574 0.02549900 0.01349899
v 0.03306850 0.02549900 0.01529909
v 0.03253181 0.02549900 0.01641519
v 0.03250725 0.02505928 0.01641519
v 0.01954545 0.02645664 0.01641519
v 0.03253370 0.02553764 0.01641519
v 0.03419290 0.02729929 0.01258796
v 0.03418912 0.02812447 0.01257917
v 0.03400015 0.02812447 0.01307277
v 0.03615069 0.02812447 0.00450141
v 0.03602596 0.02812447 0.00555159
v 0.03593714 0.02812447 0.00603933
v 0.03549305 0.02812447 0.00810015
v 0.03506408 0.02812447 0.00989879
v 0.03565935 0.02812447 0.00734291
v 0.03451794 0.02812447 0.01167838
v 0.03434219 0.02812447 0.01216612
f 1 2 8
f 1 8 16
f 1 16 41
f 1 41 66
f 1 66 82
f 1 82 59
f 1 59 34
f 1 34 11
f 1 11 3
f 1 3 13
f 1 13 37
f 1 37 64
f 1 64 90
f 1 90 68
f 1 68 67
f 1 67 43
f 1 43 42
f 1 42 38
f 1 38 14
f 1 14 4
f 1 4 9
f 1 9 2
f 2 5 6
f 2 6 7
f 2 7 8
f 2 9 10
f 2 10 5
f 3 11 12
f 3 12 13
f 4 14 9
f 5 10 33
f 5 33 58
f 5 58 57
f 5 57 56
f 5 56 55
f 5 55 54
f 5 54 81
f 5 81 103
f 5 103 102
f 5 102 105
f 5 105 84
f 5 84 60
f 5 60 35
f 5 35 12
f 5 12 36
f 5 36 62
f 5 62 83
f 5 83 104
f 5 104 91
f 5 91 65
f 5 65 40
f 5 40 39
f 5 39 15
f 5 15 7
f 5 7 6
f 7 15 16
f 7 16 8
f 9 14 17
f 9 17 18
f 9 18 19
f 9 19 20
f 9 20 21
f 9 21 22
f 9 22 23
f 9 23 24
f 9 24 25
f 9 25 26
f 9 26 27
f 9 27 28
f 9 28 29
f 9 29 30
f 9 30 31
f 9 31 32
f 9 32 33
f 9 33 10
f 11 34 12
f 12 35 61
f 12 61 87
f 12 87 108
f 12 108 107
f 12 107 116
f 12 116 115
f 12 115 113
f 12 113 112
f 12 112 114
f 12 114 111
f 12 111 110
f 12 110 109
f 12 109 88
f 12 88 63
f 12 63 37
f 12 37 13
f 12 34 36
f 14 38 17
f 15 39 16
f 16 39 40
f 16 40 41
f 17 38 42
f 17 42 43
f 17 43 18
f 18 43 44
f 18 44 19
f 19 44 20
f 20 44 45
f 20 45 21
f 21 45 46
f 21 46 22
f 22 46 47
f 22 47 23
f 23 47 48
f 23 48 49
f 23 49 24
f 24 49 50
f 24 50 51
f 24 51 25
f 25 51 52
f 25 52 53
f 25 53 54
f 25 54 55
f 25 55 56
f 25 56 26
f 26 56 27
f 27 56 57
f 27 57 28
f 28 57 58
f 28 58 29
f 29 58 30
f 30 58 31
f 31 58 33
f 31 33 32
f 34 59 36
f 35 60 61
f 36 59 62
f 37 63 64
f 40 65 41
f 41 65 66
f 43 67 44
f 44 67 68
f 44 68 69
f 44 69 45
f 45 69 46
f 46 70 71
f 46 71 72
f 46 72 49
f 46 49 73
f 46 73 48
f 46 48 47
f 46 69 74
f 46 74 70
f 48 73 49
f 49 72 51
f 49 51 50
f 51 72 75
f 51 75 76
f 51 76 52
f 52 76 77
f 52 77 78
f 52 78 53
f 53 79 80
f 53 80 81
f 53 81 54
f 53 78 79
f 59 82 83
f 59 83 62
f 60 84 85
f 60 85 61
f 61 85 86
f 61 86 87
f 63 88 89
f 63 89 64
f 64 89 69
f 64 69 90
f 65 91 82
f 65 82 66
f 68 90 69
f 69 89 74
f 70 74 92
f 70 92 93
f 70 93 71
f 71 93 94
f 71 94 72
f 72 95 96
f 72 96 75
f 72 94 95
f 74 89 92
f 75 96 97
f 75 97 98
f 75 98 76
f 76 98 77
f 77 98 99
f 77 99 78
f 78 99 100
f 78 100 79
f 79 101 80
f 79 100 101
f 80 102 103
f 80 103 81
f 80 101 102
f 82 91 104
f 82 104 83
f 84 105 101
f 84 101 85
f 85 101 100
f 85 100 86
f 86 100 106
f 86 106 107
f 86 107 108
f 86 108 87
f 88 109 92
f 88 92 89
f 92 109 110
f 92 110 93
f 93 110 111
f 93 111 94
f 94 111 95
f 95 112 113
f 95 113 96
f 95 111 114
f 95 114 112
f 96 113 115
f 96 115 97
f 97 115 116
f 97 116 106
f 97 106 99
f 97 99 98
f 99 106 100
f 101 105 102
f 106 116 107

