# https://github.com/mikedh/trimesh
v 0.01884842 0.01650091 -0.01267507
v 0.01884842 0.01649949 -0.01267507
v 0.01377391 0.01650091 -0.01485389
v -0.01072030 0.01650091 -0.01267507
v 0.01881889 0.00937926 -0.01267507
v 0.01377391 0.01649949 -0.01485389
v -0.01377977 0.01650091 -0.01485389
v -0.01884690 0.01650091 -0.01267528
v -0.01884690 0.01649949 -0.01267507
v 0.01880782 0.00924422 -0.01267507
v 0.01364843 0.01376882 -0.01485389
v 0.01376283 0.01576813 -0.01485389
v -0.01377977 0.01649949 -0.01485389
v -0.01882107 0.01110068 -0.01267507
v -0.01884690 0.01644832 -0.01267507
v 0.01717291 0.00924067 -0.01267507
v 0.01715814 0.00924067 -0.01279558
v 0.01055574 0.00924067 -0.01477795
v 0.01041550 0.00929113 -0.01485389
v 0.01156326 0.00978154 -0.01485389
v 0.01241209 0.01037643 -0.01485389
v 0.01294722 0.01127339 -0.01485389
v 0.01340485 0.01244328 -0.01485389
v -0.01369120 0.01461602 -0.01485389
v -0.01881000 0.00929753 -0.01267507
v -0.01878416 0.00924067 -0.01267507
v 0.01013502 0.00924067 -0.01485389
v -0.01349929 0.01289958 -0.01485389
v -0.01309333 0.01163090 -0.01485389
v -0.01286451 0.01109855 -0.01485389
v -0.01169830 0.00986186 -0.01485389
v -0.01126281 0.00965858 -0.01485389
v -0.01004862 0.00924067 -0.01485389
f 1 2 6
f 1 6 3
f 1 3 7
f 1 7 8
f 1 8 4
f 1 4 9
f 1 9 15
f 1 15 14
f 1 14 25
f 1 25 26
f 1 26 16
f 1 16 10
f 1 10 5
f 1 5 2
f 2 5 6
f 3 6 12
f 3 12 11
f 3 11 23
f 3 23 22
f 3 22 21
f 3 21 20
f 3 20 19
f 3 19 27
f 3 27 33
f 3 33 32
f 3 32 31
f 3 31 30
f 3 30 29
f 3 29 28
f 3 28 24
f 3 24 13
f 3 13 7
f 4 8 9
f 5 10 11
f 5 11 12
f 5 12 6
f 7 13 8
f 8 14 15
f 8 15 9
f 8 13 14
f 10 16 17
f 10 17 18
f 10 18 19
f 10 19 20
f 10 20 21
f 10 21 22
f 10 22 23
f 10 23 11
f 13 24 25
f 13 25 14
f 16 26 33
f 16 33 27
f 16 27 18
f 16 18 17
f 18 27 19
f 24 28 25
f 25 28 29
f 25 29 30
f 25 30 26
f 26 30 31
f 26 31 32
f 26 32 33

