# https://github.com/mikedh/trimesh
v -0.01799735 0.02718592 -0.01485389
v -0.02782540 0.03054932 -0.01485389
v -0.01799735 0.02042105 -0.01485389
v -0.01799735 0.03063963 -0.02609721
v -0.02810023 0.03063963 -0.01485389
v -0.02015415 0.02005000 -0.01485389
v -0.01799735 0.02001083 -0.02250099
v -0.01799735 0.03090404 -0.02700326
v -0.02969990 0.03097912 -0.01485389
v -0.02194052 0.01987482 -0.01485389
v -0.01799735 0.02001083 -0.02429992
v -0.01799735 0.03097586 -0.02789943
v -0.02969990 0.03099000 -0.01530033
v -0.03014650 0.03098892 -0.01485389
v -0.02250063 0.01987373 -0.01485389
v -0.01890099 0.02001192 -0.02429992
v -0.01799735 0.02012073 -0.02609885
v -0.02554016 0.01987373 -0.01485389
v -0.02733848 0.01987482 -0.01485389
v -0.01799735 0.03098892 -0.02880384
v -0.02790009 0.03099000 -0.01890148
v -0.01890099 0.03099000 -0.02789943
v -0.03149972 0.03085726 -0.01485389
v -0.02969990 0.03098239 -0.01710090
v -0.02250063 0.02002063 -0.02250099
v -0.02070081 0.02005327 -0.02429992
v -0.02790009 0.01987591 -0.01485389
v -0.01890099 0.02018276 -0.02609885
v -0.01799735 0.02064086 -0.02773140
v -0.01799735 0.03080829 -0.02977744
v -0.02070081 0.03089099 -0.02789943
v -0.02250063 0.03094539 -0.02609885
v -0.02430194 0.03096715 -0.02429992
v -0.02430194 0.03099000 -0.02250099
v -0.03149972 0.03081591 -0.01530033
v -0.03191346 0.03072124 -0.01485389
v -0.02610027 0.03094430 -0.02250099
v -0.02790009 0.03089860 -0.02070041
v -0.02430194 0.02014794 -0.02250099
v -0.02430194 0.02001518 -0.02070041
v -0.02610027 0.02014032 -0.02070041
v -0.02250063 0.02023934 -0.02429992
v -0.02971633 0.01998363 -0.01485389
v -0.02076205 0.02054510 -0.02620923
v -0.01890099 0.02067676 -0.02748265
v -0.01799735 0.02122953 -0.02857321
v -0.01799735 0.03051993 -0.03073786
v -0.01907276 0.03059283 -0.02987134
v -0.02246777 0.03047968 -0.02790437
v -0.02432733 0.03053952 -0.02614004
v -0.02070081 0.03039588 -0.02937218
v -0.02614657 0.03053952 -0.02433122
v -0.03272001 0.03032080 -0.01530033
v -0.02986719 0.03058849 -0.01906787
v -0.03154155 0.03045138 -0.01701359
v -0.03285743 0.03033822 -0.01485389
v -0.02789859 0.03048512 -0.02246640
v -0.02937728 0.03040350 -0.02070041
v -0.02609579 0.02059951 -0.02250758
v -0.02422278 0.02065500 -0.02426862
v -0.02790158 0.02062453 -0.02067076
v -0.02790009 0.02019037 -0.01890148
v -0.02250063 0.02072464 -0.02565077
v -0.03088286 0.02036338 -0.01485389
v -0.02969990 0.02036447 -0.01710090
v -0.02020343 0.02084542 -0.02719436
v -0.01890099 0.02146130 -0.02838211
v -0.01799735 0.02214464 -0.02941996
v -0.01799735 0.03037413 -0.03117935
v -0.01858733 0.03032842 -0.03096519
v -0.02374333 0.03027075 -0.02730967
v -0.02184493 0.03019785 -0.02897846
v -0.02557899 0.03029904 -0.02556675
v -0.02729816 0.03026967 -0.02375299
v -0.03096799 0.03032080 -0.01857860
v -0.03247357 0.03010210 -0.01635464
v -0.03324428 0.02909993 -0.01485389
v -0.02899193 0.03020873 -0.02184369
v -0.02549535 0.02083454 -0.02364756
v -0.02730264 0.02082257 -0.02191123
v -0.02357007 0.02090636 -0.02531965
v -0.02963269 0.02073987 -0.01872192
v -0.02898744 0.02086827 -0.02005135
v -0.03134887 0.02055489 -0.01485389
v -0.03082311 0.02083780 -0.01710090
v -0.02140431 0.02111528 -0.02688136
v -0.01799735 0.02317292 -0.03035896
v -0.01799735 0.02975498 -0.03147258
v -0.01978671 0.02955694 -0.03058465
v -0.02392256 0.02909993 -0.02747111
v -0.02482322 0.02909993 -0.02665402
v -0.02197786 0.02909993 -0.02907730
v -0.02287852 0.02909993 -0.02837058
v -0.02577018 0.02909993 -0.02575455
v -0.02667083 0.02909993 -0.02483532
v -0.03115619 0.02909993 -0.01888171
v -0.03205685 0.02909993 -0.01733813
v -0.03251389 0.02909993 -0.01643701
v -0.03304712 0.02909993 -0.01530033
v -0.03325324 0.02775066 -0.01485389
v -0.02745200 0.02909993 -0.02393421
v -0.02835265 0.02909993 -0.02287000
v -0.02909051 0.02909993 -0.02197054
v -0.02997324 0.02909993 -0.02070041
v -0.03058264 0.02909993 -0.01978118
v -0.02669324 0.02139819 -0.02311052
v -0.02476945 0.02146457 -0.02484850
v -0.02850202 0.02143628 -0.02125064
v -0.02422278 0.02199884 -0.02564912
v -0.02332661 0.02289871 -0.02694725
v -0.02212723 0.02231548 -0.02737227
v -0.03060056 0.02099993 -0.01800202
v -0.03174169 0.02081169 -0.01485389
v -0.01997640 0.02268109 -0.02889445
v -0.01799735 0.02351568 -0.03062419
v -0.01799735 0.02906620 -0.03166368
v -0.01907276 0.02901397 -0.03104427
v -0.01980613 0.02835674 -0.03060277
v -0.02052456 0.02901397 -0.03009373
v -0.02393152 0.02729909 -0.02748100
v -0.02483218 0.02729909 -0.02665566
v -0.02071127 0.02729909 -0.02998665
v -0.02198533 0.02729909 -0.02908719
v -0.02288599 0.02729909 -0.02838046
v -0.02577615 0.02729909 -0.02575455
v -0.02667531 0.02729909 -0.02484685
v -0.02746096 0.02729909 -0.02394574
v -0.03059757 0.02805642 -0.01979601
v -0.03060803 0.02685622 -0.01981413
v -0.03105462 0.02739375 -0.01907775
v -0.03206133 0.02729909 -0.01734307
v -0.03251837 0.02729909 -0.01644360
v -0.03305907 0.02729909 -0.01530033
v -0.03325473 0.02729909 -0.01485389
v -0.02836012 0.02729909 -0.02287495
v -0.02909499 0.02729909 -0.02197548
v -0.03011364 0.02739375 -0.02052909
v -0.02780599 0.02201733 -0.02240050
v -0.02710996 0.02259839 -0.02351083
v -0.02529222 0.02266476 -0.02528176
v -0.02928318 0.02198142 -0.02067076
v -0.02887692 0.02263647 -0.02169049
v -0.02371345 0.02409891 -0.02726355
v -0.02177025 0.02437965 -0.02892574
v -0.02117579 0.02317945 -0.02857156
v -0.03227790 0.02138295 -0.01485389
v -0.03218978 0.02175509 -0.01547660
v -0.03149674 0.02190090 -0.01710090
v -0.03082610 0.02190090 -0.01838421
v -0.03024508 0.02190090 -0.01928367
v -0.01848577 0.02420555 -0.03088118
v -0.01799735 0.02401295 -0.03098826
v -0.01799735 0.02729909 -0.03168345
v -0.01890099 0.02729909 -0.03116288
v -0.01981061 0.02729909 -0.03060606
v -0.02390165 0.02549933 -0.02743981
v -0.02480231 0.02549933 -0.02662766
v -0.02574777 0.02549933 -0.02572819
v -0.01980912 0.02635568 -0.03060442
v -0.02191812 0.02549933 -0.02903777
v -0.02281877 0.02549933 -0.02833928
v -0.02664693 0.02549933 -0.02482543
v -0.02745051 0.02549933 -0.02392597
v -0.02834967 0.02549933 -0.02286341
v -0.03060803 0.02549933 -0.01981413
v -0.03116216 0.02549933 -0.01890148
v -0.03205236 0.02549933 -0.01732989
v -0.03251389 0.02549933 -0.01643042
v -0.03305011 0.02549933 -0.01530033
v -0.03324726 0.02594872 -0.01485389
v -0.02908304 0.02549933 -0.02196395
v -0.02998220 0.02549933 -0.02071359
v -0.02730114 0.02370066 -0.02373323
v -0.02642737 0.02370066 -0.02463434
v -0.02552821 0.02370066 -0.02551404
v -0.02899193 0.02370066 -0.02184369
v -0.02820180 0.02370066 -0.02274316
v -0.03054082 0.02336770 -0.01971034
v -0.01968515 0.02515657 -0.03052864
v -0.03258708 0.02201189 -0.01485389
v -0.03264832 0.02225890 -0.01499556
v -0.03239739 0.02282037 -0.01619485
v -0.01799735 0.02548736 -0.03154342
v -0.01901152 0.02565276 -0.03099485
v -0.02052606 0.02565276 -0.03002784
v -0.03060355 0.02456680 -0.01980589
v -0.03207776 0.02353200 -0.01700700
v -0.03247207 0.02402057 -0.01634476
v -0.03100085 0.02386062 -0.01902668
v -0.03280366 0.02353200 -0.01547660
v -0.03307400 0.02358532 -0.01485389
v -0.03324278 0.02553089 -0.01485389
v -0.02999863 0.02386062 -0.02052415
v -0.03267969 0.02220666 -0.01485389
v -0.03274242 0.02239382 -0.01485389
f 1 2 5
f 1 5 9
f 1 9 14
f 1 14 23
f 1 23 36
f 1 36 56
f 1 56 77
f 1 77 100
f 1 100 134
f 1 134 170
f 1 170 192
f 1 192 191
f 1 191 195
f 1 195 194
f 1 194 180
f 1 180 146
f 1 146 113
f 1 113 84
f 1 84 64
f 1 64 43
f 1 43 27
f 1 27 19
f 1 19 18
f 1 18 15
f 1 15 10
f 1 10 6
f 1 6 3
f 1 3 7
f 1 7 11
f 1 11 17
f 1 17 29
f 1 29 46
f 1 46 68
f 1 68 87
f 1 87 115
f 1 115 152
f 1 152 183
f 1 183 153
f 1 153 116
f 1 116 88
f 1 88 69
f 1 69 47
f 1 47 30
f 1 30 20
f 1 20 12
f 1 12 8
f 1 8 4
f 1 4 2
f 2 4 5
f 3 6 7
f 4 8 5
f 5 8 9
f 6 10 7
f 7 10 11
f 8 12 9
f 9 13 14
f 9 12 13
f 10 15 11
f 11 16 17
f 11 15 18
f 11 18 19
f 11 19 16
f 12 20 13
f 13 21 14
f 13 20 22
f 13 22 34
f 13 34 21
f 14 21 24
f 14 24 23
f 16 25 26
f 16 26 17
f 16 19 27
f 16 27 25
f 17 28 29
f 17 26 28
f 20 30 31
f 20 31 32
f 20 32 33
f 20 33 22
f 21 34 33
f 21 33 24
f 22 33 34
f 23 24 35
f 23 35 36
f 24 33 37
f 24 37 38
f 24 38 35
f 25 39 26
f 25 27 40
f 25 40 41
f 25 41 39
f 26 39 42
f 26 42 28
f 27 43 40
f 28 44 45
f 28 45 29
f 28 42 44
f 29 45 46
f 30 47 48
f 30 48 31
f 31 49 50
f 31 50 32
f 31 48 51
f 31 51 49
f 32 50 33
f 33 50 52
f 33 52 37
f 35 53 36
f 35 38 54
f 35 54 55
f 35 55 53
f 36 53 56
f 37 52 38
f 38 52 57
f 38 57 58
f 38 58 54
f 39 59 60
f 39 60 42
f 39 41 59
f 40 43 41
f 41 61 59
f 41 43 62
f 41 62 61
f 42 60 63
f 42 63 44
f 43 64 65
f 43 65 62
f 44 63 66
f 44 66 45
f 45 66 46
f 46 67 68
f 46 66 67
f 47 69 70
f 47 70 48
f 48 70 51
f 49 71 50
f 49 51 72
f 49 72 71
f 50 73 52
f 50 71 73
f 51 70 72
f 52 74 57
f 52 73 74
f 53 55 75
f 53 75 76
f 53 76 56
f 54 75 55
f 54 58 75
f 56 76 77
f 57 78 58
f 57 74 78
f 58 78 75
f 59 79 60
f 59 61 80
f 59 80 79
f 60 79 81
f 60 81 63
f 61 62 65
f 61 65 82
f 61 82 83
f 61 83 80
f 63 81 66
f 64 84 65
f 65 85 82
f 65 84 85
f 66 81 86
f 66 86 67
f 67 87 68
f 67 86 87
f 69 88 70
f 70 89 72
f 70 88 89
f 71 90 91
f 71 91 73
f 71 72 90
f 72 89 92
f 72 92 93
f 72 93 90
f 73 91 94
f 73 94 95
f 73 95 74
f 74 95 78
f 75 78 76
f 76 96 97
f 76 97 98
f 76 98 99
f 76 99 77
f 76 78 96
f 77 99 100
f 78 95 101
f 78 101 102
f 78 102 103
f 78 103 104
f 78 104 105
f 78 105 96
f 79 80 106
f 79 106 107
f 79 107 81
f 80 83 108
f 80 108 106
f 81 109 110
f 81 110 111
f 81 111 86
f 81 107 109
f 82 85 112
f 82 112 83
f 83 112 108
f 84 113 85
f 85 113 112
f 86 111 114
f 86 114 87
f 87 114 115
f 88 116 89
f 89 116 117
f 89 117 118
f 89 118 119
f 89 119 92
f 90 93 120
f 90 120 91
f 91 120 121
f 91 121 94
f 92 119 122
f 92 122 123
f 92 123 124
f 92 124 93
f 93 124 120
f 94 125 126
f 94 126 95
f 94 121 125
f 95 126 127
f 95 127 101
f 96 105 128
f 96 128 129
f 96 129 130
f 96 130 97
f 97 131 132
f 97 132 98
f 97 130 131
f 98 132 133
f 98 133 99
f 99 133 100
f 100 133 134
f 101 127 102
f 102 127 135
f 102 135 103
f 103 136 137
f 103 137 104
f 103 135 136
f 104 137 129
f 104 129 128
f 104 128 105
f 106 108 138
f 106 138 139
f 106 139 140
f 106 140 107
f 107 140 109
f 108 141 142
f 108 142 138
f 108 112 141
f 109 140 110
f 110 140 143
f 110 143 144
f 110 144 145
f 110 145 111
f 111 145 114
f 112 113 146
f 112 146 147
f 112 147 148
f 112 148 149
f 112 149 150
f 112 150 141
f 114 145 151
f 114 151 115
f 115 151 152
f 116 153 154
f 116 154 117
f 117 154 118
f 118 155 122
f 118 122 119
f 118 154 155
f 120 156 157
f 120 157 121
f 120 124 156
f 121 157 158
f 121 158 125
f 122 155 159
f 122 159 123
f 123 159 160
f 123 160 161
f 123 161 124
f 124 161 156
f 125 158 162
f 125 162 126
f 126 162 163
f 126 163 127
f 127 163 164
f 127 164 135
f 129 165 166
f 129 166 130
f 129 137 165
f 130 166 131
f 131 167 168
f 131 168 132
f 131 166 167
f 132 168 169
f 132 169 133
f 133 169 134
f 134 169 170
f 135 164 136
f 136 171 172
f 136 172 137
f 136 164 171
f 137 172 165
f 138 142 139
f 139 142 173
f 139 173 174
f 139 174 175
f 139 175 140
f 140 175 143
f 141 150 142
f 142 176 177
f 142 177 173
f 142 150 178
f 142 178 176
f 143 175 157
f 143 157 156
f 143 156 161
f 143 161 144
f 144 160 179
f 144 179 151
f 144 151 145
f 144 161 160
f 146 180 181
f 146 181 147
f 147 181 182
f 147 182 148
f 148 182 149
f 149 178 150
f 149 182 178
f 151 179 183
f 151 183 152
f 153 183 184
f 153 184 159
f 153 159 154
f 154 159 155
f 157 175 158
f 158 175 174
f 158 174 162
f 159 184 179
f 159 179 185
f 159 185 160
f 160 185 179
f 162 174 173
f 162 173 177
f 162 177 163
f 163 177 176
f 163 176 164
f 164 176 171
f 165 186 166
f 165 172 186
f 166 186 167
f 167 187 188
f 167 188 168
f 167 186 189
f 167 189 187
f 168 188 169
f 169 188 190
f 169 190 191
f 169 191 192
f 169 192 170
f 171 176 193
f 171 193 186
f 171 186 172
f 176 178 193
f 178 182 187
f 178 187 189
f 178 189 186
f 178 186 193
f 179 184 183
f 180 194 181
f 181 194 195
f 181 195 182
f 182 188 187
f 182 195 191
f 182 191 190
f 182 190 188

