# https://github.com/mikedh/trimesh
v 0.01386532 0.01944113 0.01641519
v 0.01386532 0.02776591 0.01641519
v 0.01506479 0.02046534 0.01641519
v 0.01793053 0.02054334 0.02062442
v 0.01793053 0.02001089 0.02250158
v 0.01793053 0.02001089 0.02430095
v 0.01793053 0.02003802 0.02609863
v 0.01386532 0.01959940 0.02431617
v 0.01426329 0.02762799 0.01641519
v 0.01386532 0.03086566 0.02926781
v 0.01793053 0.03090748 0.02706765
v 0.01793053 0.03062486 0.02609863
v 0.01793053 0.03041008 0.02548475
v 0.01552444 0.02137197 0.01641519
v 0.01793053 0.02142058 0.02022193
v 0.01575685 0.02190103 0.01641519
v 0.01793053 0.02036924 0.02793520
v 0.01709918 0.02019742 0.02789969
v 0.01386532 0.01977688 0.02776947
v 0.01386532 0.01965140 0.02631340
v 0.01513961 0.02715319 0.01641519
v 0.01386532 0.03095722 0.02969905
v 0.01709918 0.03096174 0.02789969
v 0.01793053 0.03097418 0.02789969
v 0.01793053 0.03015572 0.02504336
v 0.01793053 0.02190103 0.02001223
v 0.01585913 0.02370074 0.01641519
v 0.01793053 0.02081352 0.02906319
v 0.01709918 0.02069030 0.02927627
v 0.01532227 0.02056708 0.02980390
v 0.01386532 0.02029350 0.02971935
v 0.01584161 0.02549931 0.01641519
v 0.01793053 0.02719841 0.02057876
v 0.01529959 0.03099000 0.02969905
v 0.01386532 0.03098661 0.03113314
v 0.01793053 0.03098435 0.02886871
v 0.01793053 0.02289811 0.01998348
v 0.01793053 0.02549931 0.01995135
v 0.01793053 0.02452033 0.01995642
v 0.01793053 0.02370074 0.01996150
v 0.01793053 0.02181851 0.02991045
v 0.01593713 0.02114136 0.03047360
v 0.01473726 0.02088926 0.03073065
v 0.01386532 0.02077847 0.03089130
v 0.01386532 0.03095496 0.03149842
v 0.01709918 0.03097983 0.02969905
v 0.01793053 0.03081365 0.02977346
v 0.01793053 0.02274662 0.03056661
v 0.01726792 0.02180494 0.03025544
v 0.01678041 0.02234079 0.03089300
v 0.01532227 0.02180494 0.03118895
v 0.01386532 0.02274323 0.03244038
v 0.01386532 0.02189086 0.03183158
v 0.01529959 0.03083400 0.03149842
v 0.01386532 0.03051521 0.03282596
v 0.01793053 0.03051746 0.03079998
v 0.01793053 0.02279862 0.03060212
v 0.01625948 0.02454181 0.03243024
v 0.01529959 0.02325986 0.03213767
v 0.01429194 0.02287210 0.03235583
v 0.01386532 0.02330847 0.03277523
v 0.01386532 0.03037955 0.03316419
v 0.01529959 0.03033885 0.03272957
v 0.01702277 0.03046433 0.03153056
v 0.01793053 0.03037842 0.03119571
v 0.01793053 0.02286871 0.03064271
v 0.01636892 0.02549931 0.03248605
v 0.01529959 0.02549931 0.03297309
v 0.01386532 0.02557958 0.03360558
v 0.01529959 0.02416084 0.03263994
v 0.01793053 0.02387709 0.03115005
v 0.01793053 0.02549931 0.03161680
v 0.01726872 0.02549931 0.03199731
v 0.01386532 0.02365213 0.03296295
v 0.01386532 0.02933839 0.03361403
v 0.01637131 0.03012746 0.03249281
v 0.01793053 0.02966396 0.03153056
v 0.01645090 0.02729902 0.03253171
v 0.01529959 0.02729902 0.03306611
v 0.01386532 0.02729902 0.03369183
v 0.01793053 0.02729902 0.03170136
v 0.01735110 0.02729902 0.03203959
v 0.01386532 0.02909986 0.03367999
v 0.01529959 0.02909986 0.03306441
v 0.01645567 0.02909986 0.03253678
v 0.01735587 0.02909986 0.03203113
v 0.01793053 0.02909986 0.03169629
v 0.01386532 0.02763364 0.03369013
f 1 2 9
f 1 9 21
f 1 21 32
f 1 32 27
f 1 27 16
f 1 16 14
f 1 14 3
f 1 3 4
f 1 4 5
f 1 5 6
f 1 6 7
f 1 7 8
f 1 8 20
f 1 20 19
f 1 19 31
f 1 31 44
f 1 44 53
f 1 53 52
f 1 52 61
f 1 61 74
f 1 74 69
f 1 69 80
f 1 80 88
f 1 88 83
f 1 83 75
f 1 75 62
f 1 62 55
f 1 55 45
f 1 45 35
f 1 35 22
f 1 22 10
f 1 10 2
f 2 10 11
f 2 11 12
f 2 12 13
f 2 13 9
f 3 14 4
f 4 15 26
f 4 26 37
f 4 37 40
f 4 40 39
f 4 39 38
f 4 38 33
f 4 33 25
f 4 25 13
f 4 13 12
f 4 12 11
f 4 11 24
f 4 24 36
f 4 36 47
f 4 47 56
f 4 56 65
f 4 65 77
f 4 77 87
f 4 87 81
f 4 81 72
f 4 72 71
f 4 71 66
f 4 66 57
f 4 57 48
f 4 48 41
f 4 41 28
f 4 28 17
f 4 17 7
f 4 7 6
f 4 6 5
f 4 14 16
f 4 16 15
f 7 17 18
f 7 18 19
f 7 19 20
f 7 20 8
f 9 13 21
f 10 22 11
f 11 22 23
f 11 23 24
f 13 25 21
f 15 16 26
f 16 27 26
f 17 28 29
f 17 29 18
f 18 29 30
f 18 30 31
f 18 31 19
f 21 25 33
f 21 33 32
f 22 34 23
f 22 35 34
f 23 34 24
f 24 34 36
f 26 27 37
f 27 32 38
f 27 38 39
f 27 39 40
f 27 40 37
f 28 41 42
f 28 42 43
f 28 43 29
f 29 43 44
f 29 44 30
f 30 44 31
f 32 33 38
f 34 35 36
f 35 45 46
f 35 46 36
f 36 46 47
f 41 48 49
f 41 49 42
f 42 49 50
f 42 50 51
f 42 51 52
f 42 52 53
f 42 53 43
f 43 53 44
f 45 54 46
f 45 55 54
f 46 54 47
f 47 54 56
f 48 57 50
f 48 50 49
f 50 58 59
f 50 59 60
f 50 60 51
f 50 57 58
f 51 60 52
f 52 60 61
f 54 55 62
f 54 62 63
f 54 63 64
f 54 64 56
f 56 64 65
f 57 66 58
f 58 67 68
f 58 68 69
f 58 69 70
f 58 70 59
f 58 66 71
f 58 71 72
f 58 72 73
f 58 73 67
f 59 70 60
f 60 70 61
f 61 70 74
f 62 75 76
f 62 76 63
f 63 76 65
f 63 65 64
f 65 76 77
f 67 78 79
f 67 79 68
f 67 73 78
f 68 79 69
f 69 74 70
f 69 79 80
f 72 81 82
f 72 82 73
f 73 82 78
f 75 83 76
f 76 83 84
f 76 84 85
f 76 85 86
f 76 86 87
f 76 87 77
f 78 82 85
f 78 85 79
f 79 85 84
f 79 84 80
f 80 84 88
f 81 87 82
f 82 87 86
f 82 86 85
f 83 88 84

