# https://github.com/mikedh/trimesh
v 0.02429930 -0.00167447 0.01899000
v 0.02609800 -0.00167447 0.01894911
v 0.01488648 -0.00167447 0.01899000
v 0.02429930 -0.14908994 0.01899000
v 0.02789828 -0.00167447 0.01859221
v 0.02609800 -0.14908994 0.01894911
v 0.01488648 -0.00167447 -0.00805997
v 0.01488648 -0.14908994 0.01899000
v 0.02429930 -0.15049307 0.01849183
v 0.02609800 -0.15047844 0.01847324
v 0.02897970 -0.00167447 0.01813865
v 0.02789828 -0.14908994 0.01859221
v 0.02789828 -0.15031767 0.01829479
v 0.01806455 -0.00167447 -0.01598610
v 0.01806455 -0.12568996 -0.01599725
v 0.01806455 -0.14729219 -0.01599725
v 0.01488648 -0.14729219 -0.00804510
v 0.01488648 -0.15049307 0.01849183
v 0.02429930 -0.15099000 0.01709769
v 0.02609800 -0.15097539 0.01709769
v 0.02789828 -0.15081461 0.01709769
v 0.02979314 -0.00167447 0.01724268
v 0.02897970 -0.14908994 0.01813865
v 0.02891980 -0.15011305 0.01809032
v 0.01813864 -0.00167447 -0.01609391
v 0.01882911 -0.00167447 -0.01709769
v 0.01882911 -0.14729219 -0.01709769
v 0.01807873 -0.14908994 -0.01599725
v 0.01488648 -0.14908994 -0.00802279
v 0.01488648 -0.15099000 0.01709769
v 0.02789828 -0.15099000 0.01529833
v 0.02969855 -0.15063922 0.01529833
v 0.02959136 -0.15027382 0.01693783
v 0.02987984 -0.00167447 0.01714602
v 0.02987984 -0.14908994 0.01714602
v 0.03061603 -0.15002535 0.01623147
v 0.01966304 -0.00167447 -0.01810891
v 0.01966304 -0.14908994 -0.01810891
v 0.01884330 -0.14908994 -0.01709769
v 0.01970876 -0.15008381 -0.01807173
v 0.01786276 -0.15017151 -0.01486336
v 0.01488648 -0.15018613 -0.00759526
v 0.01488648 -0.15099000 -0.00269905
v 0.02969855 -0.15075615 0.01349896
v 0.02789828 -0.15099000 -0.01529833
v 0.03079417 -0.15025921 0.01349896
v 0.03070904 -0.15015690 0.01529833
v 0.03062549 -0.00167447 0.01624634
v 0.03062549 -0.14908994 0.01624634
v 0.03082097 -0.14908994 0.01529833
v 0.02070033 -0.00167447 -0.01855503
v 0.02070033 -0.14908994 -0.01855503
v 0.02070033 -0.15030306 -0.01827620
v 0.02070033 -0.15080000 -0.01709769
v 0.01932884 -0.15031767 -0.01709769
v 0.01875817 -0.15049307 -0.01539870
v 0.01488648 -0.15059538 -0.00629778
v 0.01530108 -0.15099000 -0.00449841
v 0.01488648 -0.15090231 -0.00452816
v 0.02969855 -0.15075615 -0.01349896
v 0.02429930 -0.15099000 -0.01709769
v 0.02609800 -0.15097539 -0.01709769
v 0.02789828 -0.15081461 -0.01709769
v 0.02969855 -0.15063922 -0.01529833
v 0.03079417 -0.15025921 -0.01349896
v 0.03098964 -0.14908994 0.01349896
v 0.03080205 -0.00167447 0.01539127
v 0.03082097 -0.00167447 0.01529833
v 0.02250060 -0.00167447 -0.01894167
v 0.02250060 -0.14908994 -0.01894167
v 0.02250060 -0.15047844 -0.01846952
v 0.02250060 -0.15097539 -0.01709769
v 0.02070033 -0.15099000 -0.01529833
v 0.01890005 -0.15085846 -0.01349896
v 0.01530108 -0.15075615 -0.00629778
v 0.02429930 -0.15049307 -0.01849183
v 0.02609800 -0.15047844 -0.01847324
v 0.02789828 -0.15031767 -0.01829479
v 0.02891980 -0.15011305 -0.01809032
v 0.02959136 -0.15027382 -0.01693783
v 0.03061603 -0.15002535 -0.01623147
v 0.03070904 -0.15015690 -0.01529833
v 0.03098964 -0.14908994 -0.01349896
v 0.03099122 -0.00167447 0.00107441
v 0.03098964 -0.00167447 0.01349896
v 0.02429930 -0.00167447 -0.01899000
v 0.02429930 -0.14908994 -0.01899000
v 0.02609800 -0.14908994 -0.01894911
v 0.02789828 -0.14908994 -0.01859221
v 0.02897970 -0.14908994 -0.01813865
v 0.02987984 -0.14908994 -0.01714602
v 0.03062549 -0.14908994 -0.01624634
v 0.03082097 -0.14908994 -0.01529833
v 0.03098964 -0.00167447 -0.01349896
v 0.03099122 -0.00167447 0.00089968
v 0.02609800 -0.00167447 -0.01894911
v 0.02789828 -0.00167447 -0.01859221
v 0.02897970 -0.00167447 -0.01813865
v 0.02906798 -0.00167447 -0.01804199
v 0.02987984 -0.00167447 -0.01714602
v 0.02995236 -0.00167447 -0.01706051
v 0.03062549 -0.00167447 -0.01624634
v 0.03082097 -0.00167447 -0.01529833
f 1 2 5
f 1 5 11
f 1 11 22
f 1 22 34
f 1 34 48
f 1 48 67
f 1 67 68
f 1 68 85
f 1 85 84
f 1 84 95
f 1 95 94
f 1 94 103
f 1 103 102
f 1 102 101
f 1 101 100
f 1 100 99
f 1 99 98
f 1 98 97
f 1 97 96
f 1 96 86
f 1 86 69
f 1 69 51
f 1 51 37
f 1 37 26
f 1 26 25
f 1 25 14
f 1 14 7
f 1 7 3
f 1 3 8
f 1 8 4
f 1 4 6
f 1 6 2
f 2 6 12
f 2 12 5
f 3 7 17
f 3 17 29
f 3 29 42
f 3 42 57
f 3 57 59
f 3 59 43
f 3 43 30
f 3 30 18
f 3 18 8
f 4 8 18
f 4 18 9
f 4 9 10
f 4 10 6
f 5 12 23
f 5 23 11
f 6 10 13
f 6 13 12
f 7 14 15
f 7 15 16
f 7 16 17
f 9 18 30
f 9 30 19
f 9 19 20
f 9 20 10
f 10 20 21
f 10 21 13
f 11 23 22
f 12 13 24
f 12 24 23
f 13 21 24
f 14 25 15
f 15 25 26
f 15 26 27
f 15 27 16
f 16 27 39
f 16 39 28
f 16 28 29
f 16 29 17
f 19 30 43
f 19 43 58
f 19 58 73
f 19 73 61
f 19 61 45
f 19 45 31
f 19 31 20
f 20 31 21
f 21 31 32
f 21 32 33
f 21 33 24
f 22 23 35
f 22 35 34
f 23 24 36
f 23 36 35
f 24 33 36
f 26 37 38
f 26 38 27
f 27 38 39
f 28 39 40
f 28 40 41
f 28 41 42
f 28 42 29
f 31 44 32
f 31 45 60
f 31 60 44
f 32 44 46
f 32 46 47
f 32 47 36
f 32 36 33
f 34 35 49
f 34 49 48
f 35 36 49
f 36 47 50
f 36 50 49
f 37 51 52
f 37 52 38
f 38 52 40
f 38 40 39
f 40 53 54
f 40 54 55
f 40 55 41
f 40 52 53
f 41 55 56
f 41 56 57
f 41 57 42
f 43 59 58
f 44 60 65
f 44 65 46
f 45 61 62
f 45 62 63
f 45 63 64
f 45 64 60
f 46 65 83
f 46 83 66
f 46 66 47
f 47 66 50
f 48 49 67
f 49 50 67
f 50 66 85
f 50 85 68
f 50 68 67
f 51 69 70
f 51 70 52
f 52 70 53
f 53 70 71
f 53 71 54
f 54 72 73
f 54 73 74
f 54 74 56
f 54 56 55
f 54 71 72
f 56 74 59
f 56 59 75
f 56 75 57
f 57 75 59
f 58 59 74
f 58 74 73
f 60 64 65
f 61 73 72
f 61 72 76
f 61 76 62
f 62 76 77
f 62 77 63
f 63 77 78
f 63 78 79
f 63 79 80
f 63 80 64
f 64 80 81
f 64 81 82
f 64 82 65
f 65 82 83
f 66 83 95
f 66 95 84
f 66 84 85
f 69 86 87
f 69 87 70
f 70 87 71
f 71 76 72
f 71 87 76
f 76 87 77
f 77 87 88
f 77 88 78
f 78 88 89
f 78 89 79
f 79 81 80
f 79 89 90
f 79 90 81
f 81 90 91
f 81 91 92
f 81 92 93
f 81 93 82
f 82 93 83
f 83 93 103
f 83 103 94
f 83 94 95
f 86 96 88
f 86 88 87
f 88 96 97
f 88 97 89
f 89 97 98
f 89 98 90
f 90 98 99
f 90 99 91
f 91 99 100
f 91 100 101
f 91 101 92
f 92 101 102
f 92 102 103
f 92 103 93

