# https://github.com/mikedh/trimesh
v -0.04044000 0.02978489 0.02621143
v -0.04044000 0.03317464 0.02621143
v -0.04041465 0.02978157 0.02621143
v -0.04044000 0.02978157 0.02678299
v -0.04044000 0.03317464 0.04939885
v 0.01135118 0.03317464 0.02621143
v 0.01135118 0.02978157 0.02621143
v -0.04044000 0.02978157 0.04939885
v -0.04027778 0.02978157 0.04990401
v -0.04021694 0.03317464 0.05009137
v 0.01135118 0.03317464 0.05044000
v 0.01135118 0.02978157 0.05044000
v -0.04021694 0.02978157 0.05009137
v -0.03961872 0.03317464 0.05040205
v -0.03879745 0.03317464 0.05044000
v -0.03879745 0.02978157 0.05044000
v -0.03959845 0.02978157 0.05041154
v -0.03959845 0.03317464 0.05041154
f 1 2 6
f 1 6 7
f 1 7 3
f 1 3 4
f 1 4 8
f 1 8 5
f 1 5 2
f 2 5 10
f 2 10 14
f 2 14 18
f 2 18 15
f 2 15 11
f 2 11 6
f 3 7 12
f 3 12 16
f 3 16 17
f 3 17 13
f 3 13 9
f 3 9 8
f 3 8 4
f 5 8 9
f 5 9 10
f 6 11 12
f 6 12 7
f 9 13 10
f 10 13 14
f 11 15 16
f 11 16 12
f 13 17 14
f 14 17 18
f 15 18 17
f 15 17 16

