# https://github.com/mikedh/trimesh
v -0.01682469 -0.01581807 0.00220280
v -0.01682469 -0.01581360 0.00150485
v -0.01240061 -0.01488774 0.00140290
v -0.01682469 -0.01581807 0.02379742
v -0.01682469 -0.01581169 0.00140290
v -0.01177094 -0.01461802 0.00140290
v -0.01240061 -0.01488774 0.02379742
v -0.01240061 -0.01485267 0.00060300
v -0.01178738 -0.01460208 0.00060300
v -0.01682469 -0.01574410 0.02459732
v -0.01682469 -0.01554005 0.00067620
v -0.01147572 -0.01399950 0.00140290
v -0.01177094 -0.01461802 0.02379742
v -0.01181865 -0.01457211 0.02459732
v -0.01240061 -0.01479528 0.02459732
v -0.01186953 -0.01452428 0.00006451
v -0.01240061 -0.01460845 -0.00002698
v -0.01151282 -0.01399950 0.00060300
v -0.01682469 -0.01548777 0.02537892
v -0.01682469 -0.01476276 -0.00010279
v -0.01320041 -0.01463013 -0.00005312
v -0.01141000 -0.01319926 0.00140290
v -0.01147572 -0.01399950 0.02379742
v -0.01157060 -0.01399950 0.02459732
v -0.01191087 -0.01448475 0.02507569
v -0.01240061 -0.01399950 -0.00032237
v -0.01177518 -0.01399950 -0.00003221
v -0.01320041 -0.01399950 -0.00037203
v -0.01145134 -0.01319926 0.00060300
v -0.01240061 -0.01455106 0.02513320
v -0.01682469 -0.01446498 0.02605073
v -0.01682469 -0.01399886 -0.00038772
v -0.01141000 -0.01160068 0.00140290
v -0.01141000 -0.01319926 0.02379742
v -0.01150487 -0.01319926 0.02459732
v -0.01183296 -0.01399950 0.02514104
v -0.01240061 -0.01399950 0.02533187
v -0.01320041 -0.01319926 -0.00043739
v -0.01240061 -0.01319926 -0.00038510
v -0.01174603 -0.01319926 -0.00006358
v -0.01145134 -0.01160068 0.00060300
v -0.01682469 -0.01399886 0.02617882
v -0.01682469 -0.01319989 -0.00043739
v -0.01558975 -0.01320946 -0.00043739
v -0.01158385 -0.01080107 0.00060300
v -0.01154304 -0.01080107 0.00140290
v -0.01141000 -0.01160068 0.02379742
v -0.01150487 -0.01160068 0.02459732
v -0.01179957 -0.01319926 0.02516980
v -0.01240061 -0.01319926 0.02538938
v -0.01682469 -0.01380757 0.02622064
v -0.01320041 -0.01160068 -0.00043739
v -0.01240061 -0.01160068 -0.00038510
v -0.01174603 -0.01160068 -0.00006358
v -0.01181282 -0.01080107 0.00000439
v -0.01682469 -0.01160068 -0.00043739
v -0.01191988 -0.01033750 0.00011679
v -0.01185840 -0.01028904 0.00060300
v -0.01183773 -0.01027246 0.00140290
v -0.01154304 -0.01080107 0.02379742
v -0.01164374 -0.01080107 0.02459732
v -0.01187271 -0.01080107 0.02510706
v -0.01179957 -0.01160068 0.02516980
v -0.01240061 -0.01160068 0.02538938
v -0.01682469 -0.01319989 0.02626247
v -0.01682469 -0.01117601 -0.00039817
v -0.01682469 -0.01080043 -0.00033805
v -0.01320041 -0.01080107 -0.00030146
v -0.01240061 -0.01080107 -0.00024656
v -0.01240061 -0.01013537 0.00060300
v -0.01240061 -0.01028458 0.00004883
v -0.01240061 -0.01010221 0.00140290
v -0.01183773 -0.01027246 0.02379742
v -0.01189179 -0.01031518 0.02459732
v -0.01196387 -0.01037257 0.02502864
v -0.01240061 -0.01080107 0.02526390
v -0.01682469 -0.01074815 0.02614745
v -0.01682469 -0.01160068 0.02626247
v -0.01682469 -0.01034324 -0.00019166
v -0.01682469 -0.01007415 -0.00004789
v -0.01320041 -0.01026290 0.00002007
v -0.01682469 -0.00930388 0.00136108
v -0.01682469 -0.00970687 0.00055857
v -0.01240061 -0.01010221 0.02379742
v -0.01240061 -0.01018893 0.02459732
v -0.01682469 -0.00944288 0.02435944
v -0.01682469 -0.00953407 0.02468620
v -0.01682469 -0.00993897 0.02546518
v -0.01682469 -0.00940590 0.02379742
f 1 2 3
f 1 3 7
f 1 7 4
f 1 4 10
f 1 10 19
f 1 19 31
f 1 31 42
f 1 42 51
f 1 51 65
f 1 65 78
f 1 78 77
f 1 77 88
f 1 88 87
f 1 87 86
f 1 86 89
f 1 89 82
f 1 82 83
f 1 83 80
f 1 80 79
f 1 79 67
f 1 67 66
f 1 66 56
f 1 56 43
f 1 43 32
f 1 32 20
f 1 20 11
f 1 11 5
f 1 5 2
f 2 5 3
f 3 6 13
f 3 13 7
f 3 5 8
f 3 8 9
f 3 9 6
f 4 7 10
f 5 11 8
f 6 9 12
f 6 12 23
f 6 23 13
f 7 13 14
f 7 14 15
f 7 15 10
f 8 16 9
f 8 11 17
f 8 17 16
f 9 16 18
f 9 18 12
f 10 15 19
f 11 20 21
f 11 21 17
f 12 18 22
f 12 22 34
f 12 34 23
f 13 23 14
f 14 23 24
f 14 24 25
f 14 25 15
f 15 25 19
f 16 17 26
f 16 26 27
f 16 27 18
f 17 21 28
f 17 28 26
f 18 27 29
f 18 29 22
f 19 25 30
f 19 30 31
f 20 32 28
f 20 28 21
f 22 29 41
f 22 41 33
f 22 33 47
f 22 47 34
f 23 34 35
f 23 35 24
f 24 35 36
f 24 36 25
f 25 36 37
f 25 37 31
f 25 31 30
f 26 28 38
f 26 38 39
f 26 39 27
f 27 39 40
f 27 40 29
f 28 32 38
f 29 40 54
f 29 54 41
f 31 37 42
f 32 43 44
f 32 44 38
f 33 41 45
f 33 45 46
f 33 46 60
f 33 60 47
f 34 47 48
f 34 48 35
f 35 48 63
f 35 63 49
f 35 49 36
f 36 49 50
f 36 50 37
f 37 50 51
f 37 51 42
f 38 44 43
f 38 43 56
f 38 56 52
f 38 52 53
f 38 53 39
f 39 53 54
f 39 54 40
f 41 54 55
f 41 55 45
f 45 55 57
f 45 57 58
f 45 58 46
f 46 58 59
f 46 59 73
f 46 73 60
f 47 60 48
f 48 60 61
f 48 61 62
f 48 62 63
f 49 63 64
f 49 64 50
f 50 64 78
f 50 78 65
f 50 65 51
f 52 56 66
f 52 66 67
f 52 67 68
f 52 68 53
f 53 68 69
f 53 69 55
f 53 55 54
f 55 69 57
f 57 70 58
f 57 69 71
f 57 71 70
f 58 70 72
f 58 72 59
f 59 72 84
f 59 84 73
f 60 73 74
f 60 74 61
f 61 74 75
f 61 75 62
f 62 76 64
f 62 64 63
f 62 75 76
f 64 77 78
f 64 76 77
f 67 79 68
f 68 79 80
f 68 80 81
f 68 81 71
f 68 71 69
f 70 71 82
f 70 82 72
f 71 81 80
f 71 80 83
f 71 83 82
f 72 82 84
f 73 84 74
f 74 84 85
f 74 85 75
f 75 85 86
f 75 86 87
f 75 87 88
f 75 88 77
f 75 77 76
f 82 89 84
f 84 89 86
f 84 86 85

