# https://github.com/mikedh/trimesh
v 0.03468368 0.01726464 0.02136571
v 0.03468368 0.01726464 -0.00044000
v 0.03312810 0.01726464 0.02136571
v 0.03468368 -0.04044000 0.02136571
v 0.03155905 0.01726464 -0.00044000
v 0.03468368 -0.03879630 -0.00044000
v 0.03155905 0.01726464 0.02136358
v 0.03155905 0.01643432 0.02136571
v 0.03155905 -0.04044000 0.02136571
v 0.03468368 -0.04044000 0.00060162
v 0.03155905 -0.03879630 -0.00044000
v 0.03468368 -0.03947976 -0.00041652
v 0.03155905 -0.03955319 -0.00041439
v 0.03155905 -0.04044000 0.00060162
v 0.03468368 -0.04021971 -0.00009208
v 0.03468368 -0.03959838 -0.00041225
v 0.03155905 -0.03959838 -0.00041225
v 0.03155905 -0.04021971 -0.00009208
v 0.03468368 -0.04012934 -0.00013904
f 1 2 5
f 1 5 7
f 1 7 3
f 1 3 8
f 1 8 9
f 1 9 4
f 1 4 10
f 1 10 15
f 1 15 19
f 1 19 16
f 1 16 12
f 1 12 6
f 1 6 2
f 2 6 11
f 2 11 5
f 3 7 8
f 4 9 14
f 4 14 10
f 5 11 13
f 5 13 17
f 5 17 18
f 5 18 14
f 5 14 9
f 5 9 8
f 5 8 7
f 6 12 13
f 6 13 11
f 10 14 18
f 10 18 15
f 12 16 13
f 13 16 17
f 15 18 19
f 16 19 17
f 17 19 18

