# https://github.com/mikedh/trimesh
v 0.03880016 0.01726464 0.05044000
v 0.03959991 0.01726464 0.05041012
v 0.03813746 0.01726464 0.05044000
v 0.03880016 -0.03879630 0.05044000
v 0.03964995 0.01726464 0.05038522
v 0.03959991 -0.03879630 0.05041012
v 0.03813746 0.01726464 -0.00044000
v 0.03813746 -0.03879630 0.05044000
v 0.03880016 -0.03959838 0.05041012
v 0.03959991 -0.03959838 0.05039517
v 0.04021978 0.01726464 0.05009137
v 0.04021978 -0.03959838 0.05009137
v 0.03880016 0.01726464 -0.00044000
v 0.03813746 -0.03879630 -0.00044000
v 0.03813746 -0.03959838 0.05041012
v 0.03959991 -0.04021971 0.05009137
v 0.04014652 -0.04014628 0.04999176
v 0.04023758 0.01726464 0.05003659
v 0.04043978 -0.03959838 0.04939909
v 0.03953521 0.01726464 -0.00041510
v 0.03880016 -0.03879630 -0.00044000
v 0.03813746 -0.03893186 -0.00043502
v 0.03813746 -0.04021971 0.05009137
v 0.03959991 -0.04044000 0.04939909
v 0.04021978 -0.04021971 0.04939909
v 0.04043978 0.01726464 0.04939909
v 0.04043978 -0.03959838 0.00060091
v 0.03959991 0.01726464 -0.00041012
v 0.03959991 -0.03879630 -0.00041012
v 0.03959991 -0.03959838 -0.00039517
v 0.03880016 -0.03959838 -0.00041012
v 0.03813746 -0.03959838 -0.00041012
v 0.03813746 -0.04044000 0.04939909
v 0.03959991 -0.04044000 0.00060091
v 0.04021978 -0.04021971 0.00060091
v 0.04043978 0.01726464 0.00060091
v 0.04014652 -0.04014628 0.00000824
v 0.04021978 -0.03959838 -0.00009137
v 0.04021978 0.01726464 -0.00009137
v 0.03959991 -0.04021971 -0.00009137
v 0.03813746 -0.03970570 -0.00035533
v 0.03813746 -0.04044000 0.00060091
v 0.03813746 -0.04021971 -0.00009137
f 1 2 5
f 1 5 11
f 1 11 18
f 1 18 26
f 1 26 36
f 1 36 39
f 1 39 28
f 1 28 20
f 1 20 13
f 1 13 7
f 1 7 3
f 1 3 8
f 1 8 4
f 1 4 6
f 1 6 2
f 2 6 5
f 3 7 14
f 3 14 22
f 3 22 32
f 3 32 41
f 3 41 43
f 3 43 42
f 3 42 33
f 3 33 23
f 3 23 15
f 3 15 8
f 4 8 15
f 4 15 9
f 4 9 10
f 4 10 6
f 5 6 12
f 5 12 11
f 6 10 12
f 7 13 21
f 7 21 14
f 9 15 23
f 9 23 16
f 9 16 10
f 10 16 17
f 10 17 12
f 11 12 18
f 12 17 19
f 12 19 18
f 13 20 21
f 14 21 22
f 16 23 33
f 16 33 24
f 16 24 17
f 17 24 25
f 17 25 19
f 18 19 26
f 19 25 35
f 19 35 27
f 19 27 36
f 19 36 26
f 20 28 29
f 20 29 21
f 21 29 30
f 21 30 31
f 21 31 22
f 22 31 32
f 24 33 42
f 24 42 34
f 24 34 35
f 24 35 25
f 27 35 37
f 27 37 38
f 27 38 39
f 27 39 36
f 28 39 38
f 28 38 29
f 29 38 30
f 30 38 37
f 30 37 40
f 30 40 31
f 31 40 41
f 31 41 32
f 34 40 37
f 34 37 35
f 34 42 43
f 34 43 40
f 40 43 41

