# https://github.com/mikedh/trimesh
v 0.03468331 0.01726464 0.05044000
v 0.02777262 0.01726464 0.05044000
v 0.03468331 -0.03879630 0.05044000
v 0.03468331 0.01726464 0.02136571
v 0.02777262 0.01726464 0.02136571
v 0.02777262 -0.03879630 0.05044000
v 0.03468331 -0.03959838 0.05040869
v 0.03468331 -0.04044000 0.02136571
v 0.02777262 -0.04044000 0.02136571
v 0.02777262 -0.03959838 0.05040869
v 0.03468331 -0.03968876 0.05036601
v 0.03468331 -0.04044000 0.04939838
v 0.02777262 -0.04044000 0.04939838
v 0.02777262 -0.04021971 0.05009279
v 0.03468331 -0.04021971 0.05009279
f 1 2 6
f 1 6 3
f 1 3 7
f 1 7 11
f 1 11 15
f 1 15 12
f 1 12 8
f 1 8 4
f 1 4 5
f 1 5 2
f 2 5 9
f 2 9 13
f 2 13 14
f 2 14 10
f 2 10 6
f 3 6 10
f 3 10 7
f 4 8 9
f 4 9 5
f 7 10 11
f 8 12 13
f 8 13 9
f 10 14 11
f 11 14 15
f 12 15 14
f 12 14 13

