# https://github.com/mikedh/trimesh
v -0.03879745 -0.03879849 -0.00044000
v -0.03959845 -0.03959791 -0.00039020
v -0.03959845 -0.03879849 -0.00041012
v -0.03922836 -0.03436184 -0.00042506
v -0.03951733 -0.02767629 -0.00041510
v -0.03879745 -0.02590818 -0.00044000
v 0.01135118 -0.03879849 -0.00044000
v 0.01135118 -0.03935040 -0.00042008
v -0.03879745 -0.03959791 -0.00041012
v -0.03959845 -0.04021810 -0.00009137
v -0.04014090 -0.04014413 0.00000824
v -0.04021187 -0.03959791 -0.00009137
v -0.03965928 -0.03232062 -0.00038023
v -0.03959845 -0.02590818 -0.00041012
v -0.01728200 -0.02590818 -0.00044000
v 0.01135118 -0.02760090 -0.00044000
v 0.01135118 -0.03959791 -0.00041012
v 0.01135118 -0.04002607 -0.00019098
v -0.03959845 -0.04043858 0.00060091
v 0.01135118 -0.04021810 -0.00009137
v -0.04021187 -0.04021810 0.00060091
v -0.04044000 -0.03959791 0.00060091
v -0.04033861 -0.03436184 0.00029212
v -0.04021187 -0.02590818 -0.00009137
v -0.04015610 -0.02767629 -0.00012125
v -0.03966942 -0.02590818 -0.00037525
v -0.01648607 -0.02590818 -0.00040514
v 0.01135118 -0.02594801 0.00060091
v 0.01135118 -0.02619267 -0.00004157
v 0.01135118 -0.02680006 -0.00036031
v -0.03959845 -0.04043858 0.04939909
v 0.01135118 -0.04043858 0.00060091
v -0.04021187 -0.04021810 0.04939909
v -0.04044000 -0.03959791 0.04939909
v -0.04044000 -0.02590818 0.00060091
v -0.01566986 -0.02590818 -0.00026070
v 0.01135118 -0.02591102 0.00140276
v -0.03959845 -0.04021810 0.05009137
v -0.04014090 -0.04014413 0.04999176
v 0.01135118 -0.04043858 0.04939909
v 0.01135118 -0.04028638 0.04987721
v -0.04044000 -0.02590818 0.04939909
v -0.04021187 -0.03959791 0.05009137
v -0.04036396 -0.02972890 0.04963317
v -0.04041465 -0.02590818 0.04947878
v -0.01492463 -0.02590818 -0.00004655
v 0.01135118 -0.02591102 0.04859724
v -0.01357104 -0.02590818 0.00060091
v -0.01343416 -0.02590818 0.00083001
v -0.01309450 -0.02590818 0.00140276
v -0.01308436 -0.02590818 0.00208508
v -0.03959845 -0.03959791 0.05039020
v 0.01135118 -0.04021810 0.05009137
v -0.03879745 -0.03959791 0.05041012
v -0.04021187 -0.02590818 0.05009137
v -0.03959845 -0.03879849 0.05041012
v 0.01135118 -0.02592240 0.04884626
v -0.01308436 -0.02590818 0.04779042
v -0.01309450 -0.02590818 0.04859724
v -0.01357104 -0.02590818 0.04939909
v -0.01488407 -0.02590818 0.05002164
v -0.01559889 -0.02590818 0.05022584
v -0.01638468 -0.02590818 0.05037525
v -0.01719582 -0.02590818 0.05043502
v -0.03879745 -0.03879849 0.05044000
v 0.01135118 -0.03959791 0.05041012
v -0.03959845 -0.02590818 0.05041012
v -0.03935510 -0.03695498 0.05042008
v -0.03950212 -0.02590818 0.05041510
v 0.01135118 -0.02594801 0.04939909
v -0.01799682 -0.02590818 0.05044000
v 0.01135118 -0.02680006 0.05036031
v 0.01135118 -0.02638186 0.05014117
v 0.01135118 -0.02619267 0.05004157
v -0.03879745 -0.02590818 0.05044000
v 0.01135118 -0.03879849 0.05044000
v 0.01135118 -0.02760090 0.05044000
v 0.01135118 -0.02704899 0.05038522
f 1 2 3
f 1 3 4
f 1 4 5
f 1 5 6
f 1 6 15
f 1 15 16
f 1 16 7
f 1 7 8
f 1 8 9
f 1 9 2
f 2 9 10
f 2 10 11
f 2 11 12
f 2 12 3
f 3 13 26
f 3 26 14
f 3 14 5
f 3 5 4
f 3 12 13
f 5 14 6
f 6 14 26
f 6 26 24
f 6 24 35
f 6 35 42
f 6 42 45
f 6 45 55
f 6 55 67
f 6 67 69
f 6 69 75
f 6 75 71
f 6 71 64
f 6 64 63
f 6 63 62
f 6 62 61
f 6 61 60
f 6 60 59
f 6 59 58
f 6 58 51
f 6 51 50
f 6 50 49
f 6 49 48
f 6 48 46
f 6 46 36
f 6 36 27
f 6 27 15
f 7 16 30
f 7 30 29
f 7 29 28
f 7 28 37
f 7 37 47
f 7 47 57
f 7 57 70
f 7 70 74
f 7 74 73
f 7 73 72
f 7 72 78
f 7 78 77
f 7 77 76
f 7 76 66
f 7 66 53
f 7 53 41
f 7 41 40
f 7 40 32
f 7 32 20
f 7 20 18
f 7 18 17
f 7 17 8
f 8 17 9
f 9 17 18
f 9 18 10
f 10 19 11
f 10 18 20
f 10 20 32
f 10 32 19
f 11 21 22
f 11 22 12
f 11 19 21
f 12 23 24
f 12 24 25
f 12 25 13
f 12 22 23
f 13 25 26
f 15 27 28
f 15 28 29
f 15 29 30
f 15 30 16
f 19 31 33
f 19 33 21
f 19 32 40
f 19 40 31
f 21 33 34
f 21 34 22
f 22 34 42
f 22 42 35
f 22 35 23
f 23 35 24
f 24 26 25
f 27 36 37
f 27 37 28
f 31 38 39
f 31 39 33
f 31 40 41
f 31 41 38
f 33 39 34
f 34 39 43
f 34 43 44
f 34 44 45
f 34 45 42
f 36 46 37
f 37 46 48
f 37 48 49
f 37 49 50
f 37 50 51
f 37 51 58
f 37 58 47
f 38 52 39
f 38 41 53
f 38 53 66
f 38 66 54
f 38 54 52
f 39 52 43
f 43 55 44
f 43 52 56
f 43 56 67
f 43 67 55
f 44 55 45
f 47 58 59
f 47 59 60
f 47 60 61
f 47 61 62
f 47 62 63
f 47 63 64
f 47 64 57
f 52 54 65
f 52 65 56
f 54 66 76
f 54 76 65
f 56 65 68
f 56 68 69
f 56 69 67
f 57 64 70
f 64 71 72
f 64 72 73
f 64 73 74
f 64 74 70
f 65 75 69
f 65 69 68
f 65 76 77
f 65 77 71
f 65 71 75
f 71 77 78
f 71 78 72

