# https://github.com/mikedh/trimesh
v -0.01559954 0.01005544 0.00140184
v -0.01559954 0.01008892 0.00060126
v -0.01320007 0.01009274 0.00060126
v -0.01320007 0.01006023 0.00140184
v -0.01559954 0.01005544 0.02379776
v -0.01320007 0.01026249 0.00001856
v -0.01559954 0.01026105 0.00001856
v -0.01240038 0.01013482 0.00060126
v -0.01240038 0.01010183 0.00140184
v -0.01240038 0.01028401 0.00004643
v -0.01320007 0.01006023 0.02379776
v -0.01320007 0.01014773 0.02459834
v -0.01559954 0.01014438 0.02459834
v -0.01320007 0.01080042 -0.00030319
v -0.01559954 0.01079994 -0.00030319
v -0.01191934 0.01033708 0.00011483
v -0.01185824 0.01028879 0.00060126
v -0.01183732 0.01027205 0.00140184
v -0.01240038 0.01010183 0.02379776
v -0.01240038 0.01080042 -0.00024745
v -0.01240038 0.01018981 0.02459834
v -0.01240038 0.01033899 0.02506703
v -0.01320007 0.01031796 0.02508983
v -0.01559954 0.01031700 0.02508983
v -0.01320007 0.01160038 -0.00044000
v -0.01240038 0.01160038 -0.00038680
v -0.01559954 0.01159991 -0.00043746
v -0.01479985 0.01160038 -0.00044000
v -0.01158347 0.01080042 0.00060126
v -0.01181230 0.01080042 0.00000336
v -0.01154246 0.01080042 0.00140184
v -0.01183732 0.01027205 0.02379776
v -0.01189391 0.01031604 0.02459834
v -0.01196732 0.01037342 0.02502903
v -0.01240038 0.01080042 0.02526211
v -0.01320007 0.01080042 0.02531024
v -0.01559954 0.01080042 0.02531024
v -0.01320007 0.01319984 -0.00044000
v -0.01240038 0.01319984 -0.00038680
v -0.01174587 0.01160038 -0.00006505
v -0.01559954 0.01239987 -0.00044000
v -0.01145101 0.01160038 0.00060126
v -0.01141000 0.01160038 0.00140184
v -0.01154246 0.01080042 0.02379776
v -0.01164622 0.01080042 0.02459834
v -0.01187505 0.01080042 0.02510757
v -0.01240038 0.01160038 0.02539132
v -0.01320007 0.01160038 0.02543945
v -0.01559954 0.01160038 0.02543945
v -0.01320007 0.01399980 -0.00037413
v -0.01240038 0.01399980 -0.00032346
v -0.01479985 0.01319984 -0.00044000
v -0.01177417 0.01399980 -0.00003464
v -0.01174587 0.01319984 -0.00006505
v -0.01559954 0.01319936 -0.00044000
v -0.01145101 0.01319984 0.00060126
v -0.01141000 0.01319984 0.00140184
v -0.01141000 0.01160038 0.02379776
v -0.01150432 0.01160038 0.02459834
v -0.01179959 0.01160038 0.02517090
v -0.01240038 0.01319984 0.02539132
v -0.01320007 0.01319984 0.02543945
v -0.01559954 0.01319984 0.02543945
v -0.01479985 0.01399980 -0.00037413
v -0.01320007 0.01463050 -0.00005491
v -0.01240038 0.01460802 -0.00002958
v -0.01186808 0.01452387 0.00006416
v -0.01151170 0.01399980 0.00060126
v -0.01559954 0.01399932 -0.00037413
v -0.01147562 0.01399980 0.00140184
v -0.01141000 0.01319984 0.02379776
v -0.01150432 0.01319984 0.02459834
v -0.01179959 0.01319984 0.02517090
v -0.01182994 0.01399980 0.02514303
v -0.01240038 0.01399980 0.02533305
v -0.01320007 0.01399980 0.02537611
v -0.01559954 0.01399980 0.02537865
v -0.01479985 0.01463050 -0.00005491
v -0.01320007 0.01490066 0.00060126
v -0.01240038 0.01485236 0.00060126
v -0.01178647 0.01460181 0.00060126
v -0.01559954 0.01463002 -0.00005491
v -0.01177047 0.01461806 0.00140184
v -0.01147562 0.01399980 0.02379776
v -0.01156789 0.01399980 0.02459834
v -0.01190704 0.01448609 0.02507716
v -0.01240038 0.01455208 0.02513797
v -0.01320007 0.01457503 0.02515824
v -0.01559954 0.01457551 0.02515824
v -0.01559954 0.01490066 0.00060126
v -0.01320007 0.01493987 0.00140184
v -0.01240038 0.01488823 0.00140184
v -0.01177047 0.01461806 0.02379776
v -0.01181558 0.01457360 0.02459834
v -0.01240038 0.01479642 0.02459834
v -0.01320007 0.01484519 0.02459834
v -0.01559954 0.01484567 0.02459834
v -0.01559954 0.01493987 0.00140184
v -0.01559954 0.01494035 0.00219988
v -0.01320007 0.01493987 0.02379776
v -0.01240038 0.01488823 0.02379776
v -0.01559954 0.01494035 0.02379776
f 1 2 3
f 1 3 4
f 1 4 11
f 1 11 5
f 1 5 13
f 1 13 24
f 1 24 37
f 1 37 49
f 1 49 63
f 1 63 77
f 1 77 89
f 1 89 97
f 1 97 102
f 1 102 99
f 1 99 98
f 1 98 90
f 1 90 82
f 1 82 69
f 1 69 55
f 1 55 41
f 1 41 27
f 1 27 15
f 1 15 7
f 1 7 2
f 2 6 3
f 2 7 6
f 3 8 9
f 3 9 4
f 3 6 10
f 3 10 8
f 4 9 19
f 4 19 11
f 5 11 12
f 5 12 13
f 6 7 14
f 6 14 10
f 7 15 14
f 8 10 16
f 8 16 17
f 8 17 9
f 9 17 18
f 9 18 32
f 9 32 19
f 10 14 20
f 10 20 16
f 11 19 12
f 12 21 22
f 12 22 23
f 12 23 13
f 12 19 21
f 13 23 24
f 14 15 25
f 14 25 26
f 14 26 20
f 15 27 28
f 15 28 25
f 16 29 17
f 16 20 30
f 16 30 29
f 17 29 31
f 17 31 18
f 18 31 44
f 18 44 32
f 19 32 33
f 19 33 21
f 20 26 30
f 21 33 34
f 21 34 22
f 22 34 35
f 22 35 36
f 22 36 23
f 23 36 24
f 24 36 37
f 25 28 41
f 25 41 55
f 25 55 52
f 25 52 38
f 25 38 39
f 25 39 26
f 26 39 54
f 26 54 40
f 26 40 30
f 27 41 28
f 29 30 42
f 29 42 43
f 29 43 31
f 30 40 42
f 31 43 58
f 31 58 44
f 32 44 33
f 33 45 34
f 33 44 45
f 34 45 46
f 34 46 35
f 35 46 47
f 35 47 48
f 35 48 36
f 36 48 49
f 36 49 37
f 38 50 51
f 38 51 39
f 38 52 64
f 38 64 50
f 39 51 53
f 39 53 54
f 40 54 56
f 40 56 42
f 42 56 57
f 42 57 43
f 43 57 71
f 43 71 58
f 44 58 59
f 44 59 45
f 45 59 46
f 46 60 47
f 46 59 60
f 47 61 62
f 47 62 48
f 47 60 73
f 47 73 61
f 48 62 63
f 48 63 49
f 50 64 78
f 50 78 65
f 50 65 66
f 50 66 51
f 51 66 67
f 51 67 53
f 52 55 69
f 52 69 64
f 53 67 68
f 53 68 56
f 53 56 54
f 56 68 57
f 57 68 70
f 57 70 84
f 57 84 71
f 58 71 72
f 58 72 59
f 59 72 73
f 59 73 60
f 61 73 74
f 61 74 75
f 61 75 62
f 62 75 76
f 62 76 77
f 62 77 63
f 64 69 82
f 64 82 78
f 65 78 90
f 65 90 79
f 65 79 66
f 66 79 80
f 66 80 67
f 67 80 81
f 67 81 68
f 68 81 70
f 70 81 83
f 70 83 93
f 70 93 84
f 71 84 85
f 71 85 72
f 72 85 74
f 72 74 73
f 74 85 86
f 74 86 75
f 75 86 87
f 75 87 76
f 76 87 88
f 76 88 77
f 77 88 89
f 78 82 90
f 79 90 98
f 79 98 91
f 79 91 80
f 80 91 92
f 80 92 81
f 81 92 83
f 83 92 101
f 83 101 93
f 84 93 94
f 84 94 85
f 85 94 86
f 86 94 95
f 86 95 87
f 87 95 96
f 87 96 88
f 88 96 97
f 88 97 89
f 91 98 99
f 91 99 102
f 91 102 100
f 91 100 101
f 91 101 92
f 93 101 94
f 94 101 95
f 95 101 100
f 95 100 96
f 96 100 102
f 96 102 97

