# https://github.com/mikedh/trimesh
v 0.01684059 -0.00314340 0.00220036
v 0.01219256 -0.00237478 0.00140144
v 0.01684059 -0.00314217 0.00140144
v 0.01684059 -0.00314340 0.02299841
v 0.01171250 -0.00197478 0.00140144
v 0.01173270 -0.00195878 0.00060252
v 0.01239724 -0.00236124 0.00058157
v 0.01219256 -0.00237478 0.02379995
v 0.01684059 -0.00314094 0.00139358
v 0.01684059 -0.00313971 0.02379995
v 0.01141744 -0.00119939 0.00140144
v 0.01171250 -0.00197478 0.02379995
v 0.01145785 -0.00119939 0.00060252
v 0.01183530 -0.00182832 0.00002887
v 0.01684059 -0.00300432 0.00059990
v 0.01240043 -0.00196370 -0.00008638
v 0.01320053 -0.00238463 0.00035106
v 0.01684059 -0.00313602 0.02458577
v 0.01684059 -0.00313540 0.02459886
v 0.01266146 -0.00241294 0.02428191
v 0.01239724 -0.00230463 0.02456743
v 0.01175875 -0.00191632 0.02459886
v 0.01141053 -0.00039939 0.00140144
v 0.01141744 -0.00119939 0.02379995
v 0.01145094 -0.00039939 0.00060252
v 0.01174918 -0.00119939 -0.00006280
v 0.01240043 -0.00119939 -0.00037975
v 0.01684059 -0.00295817 0.00053442
v 0.01684059 -0.00249171 -0.00005233
v 0.01684059 -0.00261294 0.00007602
v 0.01320053 -0.00119939 -0.00043214
v 0.01320053 -0.00198463 -0.00011257
v 0.01684059 -0.00285232 0.02543707
v 0.01684059 -0.00284555 0.02545279
v 0.01240043 -0.00189355 0.02518823
v 0.01187039 -0.00177232 0.02510965
v 0.01151101 -0.00119939 0.02459886
v 0.01141053 0.00039939 0.00140144
v 0.01141053 -0.00039939 0.02379995
v 0.01145094 0.00039939 0.00060252
v 0.01174599 -0.00039939 -0.00006542
v 0.01240043 -0.00039939 -0.00038499
v 0.01320053 -0.00039939 -0.00044000
v 0.01684059 -0.00164062 -0.00035094
v 0.01684059 -0.00119939 -0.00043476
v 0.01684059 -0.00200370 0.02615479
v 0.01240043 -0.00119939 0.02538468
v 0.01180234 -0.00119939 0.02516989
v 0.01150463 -0.00039939 0.02459886
v 0.01141744 0.00119939 0.00140144
v 0.01141053 0.00039939 0.02379995
v 0.01145785 0.00119939 0.00060252
v 0.01174918 0.00119939 -0.00006280
v 0.01174599 0.00039939 -0.00006542
v 0.01240043 0.00039939 -0.00038499
v 0.01684059 -0.00039939 -0.00044000
v 0.01684059 -0.00084062 -0.00043738
v 0.01320053 0.00039939 -0.00044000
v 0.01684059 -0.00119939 0.02631457
v 0.01240043 -0.00039939 0.02539254
v 0.01179968 -0.00039939 0.02517251
v 0.01150463 0.00039939 0.02459886
v 0.01171250 0.00197478 0.00140144
v 0.01173270 0.00195878 0.00060252
v 0.01141744 0.00119939 0.02379995
v 0.01183530 0.00182832 0.00002887
v 0.01240043 0.00119939 -0.00037975
v 0.01684059 0.00039939 -0.00044000
v 0.01320053 0.00119939 -0.00043214
v 0.01684059 0.00119939 -0.00043476
v 0.01684059 -0.00039939 0.02631981
v 0.01240043 0.00039939 0.02539254
v 0.01179968 0.00039939 0.02517251
v 0.01180287 0.00119939 0.02516727
v 0.01151154 0.00119939 0.02459886
v 0.01219256 0.00237478 0.00140144
v 0.01171250 0.00197478 0.02379995
v 0.01239724 0.00236124 0.00058157
v 0.01175928 0.00192186 0.02459886
v 0.01240043 0.00196370 -0.00008638
v 0.01320053 0.00198463 -0.00011257
v 0.01684059 0.00203078 -0.00019378
v 0.01684059 0.00039939 0.02631981
v 0.01240043 0.00119939 0.02538468
v 0.01684059 0.00119939 0.02631457
v 0.01187092 0.00177909 0.02510965
v 0.01684059 0.00314340 0.00220036
v 0.01684059 0.00314217 0.00140144
v 0.01219256 0.00237478 0.02379995
v 0.01684059 0.00300432 0.00059990
v 0.01320053 0.00238463 0.00035106
v 0.01239724 0.00230894 0.02456743
v 0.01684059 0.00261294 0.00007602
v 0.01684059 0.00189540 0.02615217
v 0.01684059 0.00195816 0.02613383
v 0.01240043 0.00189847 0.02518823
v 0.01684059 0.00314340 0.02299841
v 0.01266146 0.00241294 0.02428191
v 0.01684059 0.00313540 0.02459886
v 0.01684059 0.00313971 0.02379995
v 0.01684059 0.00284555 0.02545279
v 0.01684059 0.00239447 0.02587451
f 1 2 3
f 1 3 9
f 1 9 15
f 1 15 28
f 1 28 30
f 1 30 29
f 1 29 44
f 1 44 45
f 1 45 57
f 1 57 56
f 1 56 68
f 1 68 70
f 1 70 82
f 1 82 93
f 1 93 90
f 1 90 88
f 1 88 87
f 1 87 97
f 1 97 100
f 1 100 99
f 1 99 101
f 1 101 102
f 1 102 95
f 1 95 94
f 1 94 85
f 1 85 83
f 1 83 71
f 1 71 59
f 1 59 46
f 1 46 34
f 1 34 33
f 1 33 19
f 1 19 18
f 1 18 10
f 1 10 4
f 1 4 8
f 1 8 2
f 2 5 6
f 2 6 7
f 2 7 3
f 2 8 12
f 2 12 5
f 3 7 9
f 4 10 8
f 5 11 6
f 5 12 24
f 5 24 11
f 6 11 13
f 6 13 14
f 6 14 7
f 7 15 9
f 7 14 16
f 7 16 17
f 7 17 15
f 8 10 18
f 8 18 19
f 8 19 20
f 8 20 21
f 8 21 22
f 8 22 12
f 11 23 25
f 11 25 13
f 11 24 39
f 11 39 23
f 12 22 24
f 13 25 26
f 13 26 14
f 14 26 27
f 14 27 16
f 15 17 28
f 16 29 30
f 16 30 28
f 16 28 17
f 16 27 31
f 16 31 32
f 16 32 29
f 19 21 20
f 19 33 21
f 21 33 34
f 21 34 35
f 21 35 36
f 21 36 22
f 22 36 37
f 22 37 24
f 23 38 40
f 23 40 25
f 23 39 51
f 23 51 38
f 24 37 39
f 25 40 54
f 25 54 41
f 25 41 26
f 26 41 42
f 26 42 27
f 27 42 43
f 27 43 31
f 29 32 31
f 29 31 44
f 31 43 45
f 31 45 44
f 34 46 35
f 35 46 36
f 36 46 47
f 36 47 48
f 36 48 37
f 37 48 49
f 37 49 39
f 38 50 52
f 38 52 40
f 38 51 65
f 38 65 50
f 39 49 62
f 39 62 51
f 40 52 53
f 40 53 54
f 41 54 55
f 41 55 42
f 42 55 58
f 42 58 43
f 43 56 57
f 43 57 45
f 43 58 68
f 43 68 56
f 46 59 47
f 47 59 60
f 47 60 48
f 48 61 49
f 48 60 61
f 49 61 73
f 49 73 62
f 50 63 64
f 50 64 52
f 50 65 77
f 50 77 63
f 51 62 75
f 51 75 65
f 52 64 66
f 52 66 53
f 53 66 67
f 53 67 55
f 53 55 54
f 55 67 58
f 58 69 70
f 58 70 68
f 58 67 69
f 59 71 60
f 60 72 73
f 60 73 61
f 60 71 83
f 60 83 72
f 62 73 74
f 62 74 75
f 63 76 64
f 63 77 89
f 63 89 76
f 64 76 78
f 64 78 66
f 65 75 79
f 65 79 77
f 66 80 67
f 66 78 80
f 67 80 69
f 69 80 81
f 69 81 82
f 69 82 70
f 72 84 74
f 72 74 73
f 72 83 85
f 72 85 84
f 74 86 75
f 74 84 86
f 75 86 79
f 76 87 88
f 76 88 78
f 76 89 97
f 76 97 87
f 77 79 89
f 78 90 91
f 78 91 80
f 78 88 90
f 79 86 92
f 79 92 89
f 80 91 90
f 80 90 93
f 80 93 81
f 81 93 82
f 84 85 94
f 84 94 86
f 86 94 95
f 86 95 96
f 86 96 92
f 89 92 98
f 89 98 99
f 89 99 100
f 89 100 97
f 92 99 98
f 92 96 101
f 92 101 99
f 95 102 96
f 96 102 101

