# https://github.com/mikedh/trimesh
v -0.01376525 0.02584856 0.04859724
v -0.01408122 0.02584856 0.04939909
v -0.01659332 0.02399425 0.04974772
v -0.01647581 0.02399425 0.04935925
v -0.01645231 0.02399425 0.04893591
v -0.01643664 0.02399425 0.04859724
v -0.01376525 0.02584856 0.00140276
v -0.01493252 0.02584856 0.04999176
v -0.01684662 0.02399425 0.05005153
v -0.01668211 0.02399425 0.04992203
v -0.01643664 0.02399425 0.00140276
v -0.01645492 0.02399425 0.00103919
v -0.01647581 0.02399425 0.00064075
v -0.01668211 0.02399425 0.00007797
v -0.01408122 0.02584856 0.00060091
v -0.01500564 0.02584856 0.05003659
v -0.01717043 0.02399425 0.05021588
v -0.01493252 0.02584856 0.00000824
v -0.01717043 0.02399425 -0.00021588
v -0.01573159 0.02584856 0.05025074
v -0.01760652 0.02399425 0.05037525
v -0.01560102 0.02584856 -0.00019596
v -0.01800083 0.02399425 -0.00043502
v -0.01720176 0.02440015 -0.00032047
v -0.01655154 0.02584856 0.05041012
v -0.01800083 0.02399425 0.05043502
v -0.01638964 0.02584856 -0.00036031
v -0.01880251 0.02399425 -0.00044000
v -0.01800083 0.02440015 -0.00044000
v -0.01720176 0.02584856 -0.00043502
v -0.01720176 0.02519996 -0.00041510
v -0.01720176 0.02584856 0.05043502
v -0.01735322 0.02584856 0.05044000
v -0.01800083 0.02440015 0.05044000
v -0.01840820 0.02399425 0.05044000
v -0.03879747 0.02399425 -0.00044000
v -0.01800083 0.02584856 -0.00044000
v -0.03879747 0.02584856 0.05044000
v -0.03879747 0.02399425 0.05044000
v -0.03879747 0.02584856 -0.00044000
v -0.03959915 0.02399425 -0.00041012
v -0.03959915 0.02584856 0.05041012
v -0.03920484 0.02399425 0.05042506
v -0.03959915 0.02584856 -0.00041012
v -0.04021804 0.02399425 -0.00009137
v -0.03971666 0.02584856 0.05035035
v -0.03959915 0.02399425 0.05041012
v -0.04021804 0.02584856 -0.00009137
v -0.04044000 0.02399425 0.00060091
v -0.03991251 0.02399425 0.05025074
v -0.04021804 0.02584856 0.05009137
v -0.04044000 0.02584856 0.00060091
v -0.04044000 0.02399425 0.04939909
v -0.04021804 0.02399425 0.05009137
v -0.04025982 0.02584856 0.04996188
v -0.04044000 0.02584856 0.04939909
f 1 2 3
f 1 3 4
f 1 4 5
f 1 5 6
f 1 6 11
f 1 11 7
f 1 7 15
f 1 15 18
f 1 18 22
f 1 22 27
f 1 27 30
f 1 30 37
f 1 37 40
f 1 40 44
f 1 44 48
f 1 48 52
f 1 52 56
f 1 56 55
f 1 55 51
f 1 51 46
f 1 46 42
f 1 42 38
f 1 38 33
f 1 33 32
f 1 32 25
f 1 25 20
f 1 20 16
f 1 16 8
f 1 8 2
f 2 8 9
f 2 9 10
f 2 10 3
f 3 10 9
f 3 9 17
f 3 17 21
f 3 21 26
f 3 26 35
f 3 35 39
f 3 39 43
f 3 43 47
f 3 47 50
f 3 50 54
f 3 54 53
f 3 53 49
f 3 49 45
f 3 45 41
f 3 41 36
f 3 36 28
f 3 28 23
f 3 23 19
f 3 19 14
f 3 14 13
f 3 13 12
f 3 12 11
f 3 11 6
f 3 6 5
f 3 5 4
f 7 11 12
f 7 12 13
f 7 13 14
f 7 14 15
f 8 16 9
f 9 16 17
f 14 18 15
f 14 19 18
f 16 20 21
f 16 21 17
f 18 19 22
f 19 23 24
f 19 24 22
f 20 25 21
f 21 25 26
f 22 24 23
f 22 23 27
f 23 28 29
f 23 29 30
f 23 30 31
f 23 31 27
f 25 32 26
f 26 32 33
f 26 33 34
f 26 34 35
f 27 31 30
f 28 36 40
f 28 40 37
f 28 37 29
f 29 37 30
f 33 38 39
f 33 39 35
f 33 35 34
f 36 41 44
f 36 44 40
f 38 42 43
f 38 43 39
f 41 45 48
f 41 48 44
f 42 46 50
f 42 50 47
f 42 47 43
f 45 49 52
f 45 52 48
f 46 51 50
f 49 53 56
f 49 56 52
f 50 51 54
f 51 55 54
f 53 54 55
f 53 55 56

