# https://github.com/mikedh/trimesh
v -0.03879745 0.02978157 -0.00044000
v -0.03938045 0.02978157 -0.00041913
v -0.03957310 0.03317464 -0.00041391
v -0.03879745 0.03317464 -0.00044000
v 0.01135118 0.02978157 -0.00044000
v -0.03959845 0.02978157 -0.00041130
v -0.03959845 0.03317464 -0.00041130
v 0.01135118 0.03317464 -0.00044000
v 0.01135118 0.02978157 0.02621143
v -0.04021694 0.02978157 -0.00009303
v -0.04021694 0.03317464 -0.00009303
v 0.01135118 0.03317464 0.02621143
v -0.04041465 0.02978157 0.02621143
v -0.04044000 0.02978157 0.00060091
v -0.04044000 0.03317464 0.00060091
v -0.04044000 0.03317464 0.02621143
v -0.04044000 0.02978489 0.02621143
v -0.04044000 0.02978157 0.02619838
f 1 2 3
f 1 3 4
f 1 4 8
f 1 8 5
f 1 5 9
f 1 9 13
f 1 13 18
f 1 18 14
f 1 14 10
f 1 10 6
f 1 6 2
f 2 6 3
f 3 6 7
f 3 7 11
f 3 11 15
f 3 15 16
f 3 16 12
f 3 12 8
f 3 8 4
f 5 8 12
f 5 12 9
f 6 10 11
f 6 11 7
f 9 12 16
f 9 16 17
f 9 17 13
f 10 14 15
f 10 15 11
f 13 17 18
f 14 18 17
f 14 17 16
f 14 16 15

