# https://github.com/mikedh/trimesh
v 0.04044000 0.03959697 0.04939909
v 0.04021225 0.04021799 0.04939909
v 0.04013824 0.04014511 0.04999176
v 0.04021225 0.03959697 0.05009137
v 0.04021510 0.02582522 0.05009137
v 0.04044000 0.02492785 0.04939909
v 0.04044000 0.03959697 0.00060091
v 0.03959165 0.04043967 0.04939909
v 0.04021225 0.04021799 0.00060091
v 0.03959165 0.04021799 0.05009137
v 0.03959165 0.03959697 0.05039020
v 0.03959165 0.03879830 0.05041012
v 0.04000729 0.02492785 0.05020094
v 0.04021510 0.02492785 0.05009137
v 0.04044000 0.02492785 0.00060091
v 0.04021510 0.02582522 -0.00009137
v 0.04021225 0.03959697 -0.00009137
v 0.04013824 0.04014511 0.00000824
v 0.01135688 0.04043967 0.04939909
v 0.03959165 0.04043967 0.00060091
v 0.01135688 0.04021799 0.05009137
v 0.01135688 0.04002515 0.05019098
v 0.03879454 0.03959697 0.05041012
v 0.03879454 0.03879830 0.05044000
v 0.03959734 0.02582522 0.05041012
v 0.03947778 0.03708404 0.05041510
v 0.03959734 0.02492785 0.05041012
v 0.04021510 0.02492785 -0.00009137
v 0.03959734 0.02582522 -0.00041012
v 0.03992473 0.03516784 -0.00024078
v 0.03959165 0.03879830 -0.00041012
v 0.03959165 0.03959697 -0.00039020
v 0.03959165 0.04021799 -0.00009137
v 0.01135688 0.04043967 0.00060091
v 0.01135688 0.04028783 0.00012279
v 0.01135688 0.03959697 0.05041012
v 0.01135688 0.03934947 0.05042008
v 0.03879739 0.02582522 0.05044000
v 0.01135688 0.03879830 0.05044000
v 0.03879739 0.02492785 0.05044000
v 0.03959734 0.02492785 -0.00041012
v 0.03907068 0.02492785 -0.00043004
v 0.03879454 0.03879830 -0.00044000
v 0.03879454 0.03959697 -0.00041012
v 0.01135688 0.04021799 -0.00009137
v 0.01135688 0.03708404 0.05044000
v 0.01800136 0.02492785 0.05044000
v 0.03879739 0.02492785 -0.00044000
v 0.03879739 0.02582522 -0.00044000
v 0.01135688 0.03879830 -0.00044000
v 0.01135688 0.03959697 -0.00041012
v 0.01135973 0.02591329 0.04859724
v 0.01135973 0.02594973 0.04939909
v 0.01135973 0.02619419 0.05004157
v 0.01135973 0.02680306 0.05036031
v 0.01135973 0.02760173 0.05044000
v 0.01135688 0.03708404 -0.00044000
v 0.01720140 0.02492785 0.05038522
v 0.01800136 0.02492785 -0.00044000
v 0.01576945 0.02492785 0.04859724
v 0.01582354 0.02492785 0.04925466
v 0.01135973 0.02591329 0.00140276
v 0.01588902 0.02492785 0.04954850
v 0.01612530 0.02492785 0.04980251
v 0.01640429 0.02492785 0.05010133
v 0.01135973 0.02760173 -0.00044000
v 0.01135973 0.02705056 -0.00038522
v 0.01135973 0.02680306 -0.00036031
v 0.01135973 0.02638247 -0.00014117
v 0.01135973 0.02619419 -0.00004157
v 0.01135973 0.02594973 0.00060091
v 0.01747470 0.02492785 -0.00042506
v 0.01576945 0.02492785 0.00140276
v 0.01580931 0.02492785 0.00061585
v 0.01720140 0.02492785 -0.00038522
v 0.01658649 0.02492785 -0.00019098
v 0.01640429 0.02492785 -0.00010133
v 0.01595734 0.02492785 0.00029710
f 1 2 3
f 1 3 4
f 1 4 5
f 1 5 14
f 1 14 6
f 1 6 15
f 1 15 7
f 1 7 9
f 1 9 2
f 2 8 3
f 2 9 20
f 2 20 8
f 3 10 11
f 3 11 4
f 3 8 10
f 4 11 12
f 4 12 13
f 4 13 5
f 5 13 14
f 6 14 13
f 6 13 27
f 6 27 40
f 6 40 47
f 6 47 58
f 6 58 65
f 6 65 64
f 6 64 63
f 6 63 61
f 6 61 60
f 6 60 73
f 6 73 74
f 6 74 78
f 6 78 77
f 6 77 76
f 6 76 75
f 6 75 72
f 6 72 59
f 6 59 48
f 6 48 42
f 6 42 41
f 6 41 28
f 6 28 15
f 7 15 28
f 7 28 16
f 7 16 17
f 7 17 18
f 7 18 9
f 8 19 21
f 8 21 10
f 8 20 34
f 8 34 19
f 9 18 20
f 10 21 22
f 10 22 23
f 10 23 11
f 11 23 24
f 11 24 12
f 12 25 13
f 12 24 26
f 12 26 25
f 13 25 27
f 16 28 41
f 16 41 29
f 16 29 30
f 16 30 17
f 17 30 31
f 17 31 32
f 17 32 18
f 18 32 33
f 18 33 20
f 19 34 35
f 19 35 45
f 19 45 51
f 19 51 50
f 19 50 57
f 19 57 46
f 19 46 39
f 19 39 37
f 19 37 36
f 19 36 22
f 19 22 21
f 20 33 35
f 20 35 34
f 22 36 23
f 23 36 37
f 23 37 24
f 24 38 26
f 24 37 39
f 24 39 46
f 24 46 56
f 24 56 47
f 24 47 40
f 24 40 38
f 25 26 27
f 26 38 40
f 26 40 27
f 29 41 42
f 29 42 31
f 29 31 30
f 31 42 43
f 31 43 32
f 32 43 44
f 32 44 33
f 33 45 35
f 33 44 51
f 33 51 45
f 42 48 49
f 42 49 43
f 43 49 48
f 43 48 59
f 43 59 66
f 43 66 57
f 43 57 50
f 43 50 51
f 43 51 44
f 46 52 53
f 46 53 54
f 46 54 55
f 46 55 56
f 46 57 62
f 46 62 52
f 47 56 55
f 47 55 58
f 52 60 61
f 52 61 53
f 52 62 73
f 52 73 60
f 53 61 63
f 53 63 64
f 53 64 65
f 53 65 54
f 54 65 58
f 54 58 55
f 57 66 67
f 57 67 68
f 57 68 69
f 57 69 70
f 57 70 71
f 57 71 62
f 59 72 66
f 62 71 74
f 62 74 73
f 66 72 67
f 67 72 68
f 68 72 75
f 68 75 69
f 69 75 70
f 70 75 76
f 70 76 77
f 70 77 71
f 71 77 78
f 71 78 74

