# https://github.com/mikedh/trimesh
v -0.03879446 -0.02590757 -0.00044000
v -0.01729848 -0.02590757 -0.00044000
v -0.03959643 -0.02590757 -0.00041012
v -0.03879677 -0.02149108 -0.00044000
v -0.01682701 -0.01319889 -0.00044000
v -0.01682701 -0.02590757 -0.00042008
v -0.03959643 0.00584393 -0.00041012
v -0.03966577 -0.02590757 -0.00037525
v -0.03879677 0.00584393 -0.00044000
v -0.01682701 -0.01159826 -0.00044000
v -0.01682701 -0.02590757 0.05039020
v -0.04021582 0.00584393 -0.00009137
v -0.04021351 -0.02590757 -0.00009137
v -0.04021582 -0.02149108 -0.00009137
v -0.01880304 0.00584393 -0.00044000
v -0.01800338 0.00584393 -0.00040514
v -0.01786702 0.00584393 -0.00034537
v -0.01729848 0.00584393 -0.00008639
v -0.01695412 0.00584393 0.00060091
v -0.01682701 -0.01117246 -0.00039517
v -0.01682701 -0.02517097 0.05029557
v -0.01691252 0.00584393 0.04859724
v -0.01695412 0.00584393 0.04939909
v -0.01702114 0.00584393 0.04953356
v -0.01729848 0.00584393 0.05008639
v -0.01743715 0.00584393 0.05015113
v -0.01800338 0.00584393 0.05040514
v -0.01720372 -0.02590757 0.05043502
v -0.04023431 -0.02433492 -0.00003659
v -0.04043769 0.00584393 0.00060091
v -0.04043769 -0.02590757 0.00060091
v -0.01691252 0.00584393 0.00140276
v -0.01682701 -0.01079639 -0.00034039
v -0.01682701 -0.02439708 0.05013121
v -0.01682701 -0.02375372 0.04993200
v -0.01682701 -0.02328441 0.04954352
v -0.01682701 -0.00993858 0.02546816
v -0.01682701 -0.00953454 0.02469121
v -0.01682701 -0.00944441 0.02436749
v -0.01682701 -0.00940711 0.02380968
v -0.01682701 -0.00930455 0.00135793
v -0.01815823 0.00584393 0.05041510
v -0.01880304 0.00584393 0.05044000
v -0.01800338 -0.02439708 0.05044000
v -0.01800338 -0.02590757 0.05044000
v -0.04043769 0.00584393 0.04939909
v -0.04043769 -0.02590757 0.04939909
v -0.01682701 -0.00970548 0.00055609
v -0.01682701 -0.01006912 -0.00005153
v -0.01682701 -0.01033952 -0.00019098
v -0.03879677 0.00584393 0.05044000
v -0.03879446 -0.02590757 0.05044000
v -0.04025973 0.00584393 0.04995690
v -0.04021351 -0.02590757 0.05009137
v -0.04021582 -0.02149108 0.05009137
v -0.03959643 0.00584393 0.05041012
v -0.03953403 -0.02433492 0.05041510
v -0.03879677 -0.02149108 0.05044000
v -0.03950167 -0.02590757 0.05041510
v -0.04021582 0.00584393 0.05009137
v -0.03959643 -0.02590757 0.05041012
v -0.04016960 -0.02433492 0.05011627
v -0.03971661 0.00584393 0.05035035
v -0.03982292 -0.02149108 0.05029557
f 1 2 6
f 1 6 11
f 1 11 28
f 1 28 45
f 1 45 52
f 1 52 59
f 1 59 61
f 1 61 54
f 1 54 47
f 1 47 31
f 1 31 13
f 1 13 8
f 1 8 3
f 1 3 4
f 1 4 9
f 1 9 15
f 1 15 10
f 1 10 5
f 1 5 2
f 2 5 6
f 3 7 9
f 3 9 4
f 3 8 7
f 5 10 20
f 5 20 33
f 5 33 50
f 5 50 49
f 5 49 48
f 5 48 41
f 5 41 40
f 5 40 39
f 5 39 38
f 5 38 37
f 5 37 36
f 5 36 35
f 5 35 34
f 5 34 21
f 5 21 11
f 5 11 6
f 7 8 12
f 7 12 30
f 7 30 46
f 7 46 53
f 7 53 60
f 7 60 63
f 7 63 56
f 7 56 51
f 7 51 43
f 7 43 42
f 7 42 27
f 7 27 26
f 7 26 25
f 7 25 24
f 7 24 23
f 7 23 22
f 7 22 32
f 7 32 19
f 7 19 18
f 7 18 17
f 7 17 16
f 7 16 15
f 7 15 9
f 8 13 14
f 8 14 12
f 10 15 16
f 10 16 17
f 10 17 18
f 10 18 19
f 10 19 20
f 11 21 22
f 11 22 23
f 11 23 24
f 11 24 25
f 11 25 26
f 11 26 27
f 11 27 28
f 12 14 29
f 12 29 30
f 13 31 29
f 13 29 14
f 19 32 33
f 19 33 20
f 21 34 22
f 22 34 35
f 22 35 36
f 22 36 37
f 22 37 38
f 22 38 39
f 22 39 40
f 22 40 41
f 22 41 32
f 27 42 28
f 28 42 43
f 28 43 44
f 28 44 45
f 29 31 30
f 30 31 47
f 30 47 46
f 32 41 48
f 32 48 49
f 32 49 50
f 32 50 33
f 43 51 58
f 43 58 52
f 43 52 45
f 43 45 44
f 46 47 53
f 47 54 55
f 47 55 53
f 51 56 57
f 51 57 58
f 52 58 57
f 52 57 59
f 53 55 60
f 54 61 62
f 54 62 55
f 55 62 60
f 56 63 61
f 56 61 57
f 57 61 59
f 60 62 63
f 61 63 64
f 61 64 62
f 62 64 63

