# https://github.com/mikedh/trimesh
v 0.04044000 0.02492655 0.04939909
v 0.04021540 0.02492655 0.05009137
v 0.04021781 0.02200130 0.05009137
v 0.04023713 0.01726539 0.05003659
v 0.04044000 0.01726539 0.04939909
v 0.04044000 0.02492655 0.00060091
v 0.04000528 0.02492655 0.05020094
v 0.04021781 0.01726539 0.05009137
v 0.04044000 0.01726539 0.00060091
v 0.04021781 0.02199905 -0.00009137
v 0.04021540 0.02492655 -0.00009137
v 0.03959471 0.02492655 0.05041012
v 0.03959713 0.02200130 0.05041012
v 0.03964784 0.01726539 0.05038522
v 0.04021781 0.01726539 -0.00009137
v 0.04000528 0.02307089 -0.00020094
v 0.03959471 0.02492655 -0.00041012
v 0.03879772 0.02492655 0.05044000
v 0.03906821 0.02307089 0.05043004
v 0.03959713 0.01726539 0.05041012
v 0.03959713 0.01726539 -0.00041012
v 0.03959713 0.02199905 -0.00041012
v 0.03953433 0.01726539 -0.00041510
v 0.03906821 0.02492655 -0.00043004
v 0.01800600 0.02492655 0.05044000
v 0.03879772 0.01726539 0.05044000
v 0.03879772 0.01726539 -0.00044000
v 0.03879772 0.02492655 -0.00044000
v 0.01800600 0.02439925 0.05044000
v 0.01720418 0.02492655 0.05038522
v 0.01880299 0.01726539 0.05044000
v 0.01880299 0.01726539 -0.00044000
v 0.01800600 0.02492655 -0.00044000
v 0.01806638 0.01726539 0.05041012
v 0.01640961 0.02492655 0.05010133
v 0.01800359 0.01726539 0.05040514
v 0.01800600 0.02439925 -0.00044000
v 0.01800359 0.01726539 -0.00040514
v 0.01747468 0.02492655 -0.00042506
v 0.01612946 0.02492655 0.04980251
v 0.01729837 0.01726539 0.05008639
v 0.01794562 0.01726539 -0.00038023
v 0.01659074 0.02492655 -0.00019098
v 0.01720418 0.02492655 -0.00038522
v 0.01589278 0.02492655 0.04954850
v 0.01695301 0.01726539 0.04939909
v 0.01729837 0.01726539 -0.00008639
v 0.01640961 0.02492655 -0.00010133
v 0.01582757 0.02492655 0.04925466
v 0.01577202 0.02492655 0.04859724
v 0.01691678 0.01726539 0.04866199
v 0.01726939 0.01726539 -0.00003160
v 0.01596040 0.02492655 0.00029710
v 0.01576960 0.02492655 0.04779042
v 0.01691437 0.01726539 0.04859724
v 0.01695301 0.01726539 0.00060091
v 0.01581308 0.02492655 0.00061585
v 0.01576960 0.02492655 0.00220958
v 0.01691437 0.01726539 0.00140276
v 0.01577202 0.02492655 0.00140276
f 1 2 3
f 1 3 4
f 1 4 5
f 1 5 9
f 1 9 6
f 1 6 11
f 1 11 17
f 1 17 24
f 1 24 28
f 1 28 33
f 1 33 39
f 1 39 44
f 1 44 43
f 1 43 48
f 1 48 53
f 1 53 57
f 1 57 60
f 1 60 58
f 1 58 54
f 1 54 50
f 1 50 49
f 1 49 45
f 1 45 40
f 1 40 35
f 1 35 30
f 1 30 25
f 1 25 18
f 1 18 12
f 1 12 7
f 1 7 2
f 2 7 3
f 3 7 14
f 3 14 8
f 3 8 4
f 4 8 14
f 4 14 20
f 4 20 26
f 4 26 31
f 4 31 34
f 4 34 36
f 4 36 41
f 4 41 46
f 4 46 51
f 4 51 55
f 4 55 59
f 4 59 56
f 4 56 52
f 4 52 47
f 4 47 42
f 4 42 38
f 4 38 32
f 4 32 27
f 4 27 23
f 4 23 21
f 4 21 15
f 4 15 9
f 4 9 5
f 6 9 15
f 6 15 10
f 6 10 11
f 7 12 13
f 7 13 14
f 10 15 16
f 10 16 11
f 11 16 17
f 12 18 19
f 12 19 13
f 13 19 20
f 13 20 14
f 15 21 16
f 16 21 22
f 16 22 17
f 17 22 23
f 17 23 24
f 18 25 29
f 18 29 31
f 18 31 26
f 18 26 19
f 19 26 20
f 21 23 22
f 23 27 28
f 23 28 24
f 25 30 29
f 27 32 37
f 27 37 33
f 27 33 28
f 29 30 34
f 29 34 31
f 30 35 36
f 30 36 34
f 32 38 39
f 32 39 37
f 33 37 39
f 35 40 41
f 35 41 36
f 38 42 43
f 38 43 44
f 38 44 39
f 40 45 41
f 41 45 46
f 42 47 43
f 43 47 48
f 45 49 46
f 46 49 50
f 46 50 51
f 47 52 53
f 47 53 48
f 50 54 55
f 50 55 51
f 52 56 53
f 53 56 57
f 54 58 59
f 54 59 55
f 56 59 60
f 56 60 57
f 58 60 59

