# https://github.com/mikedh/trimesh
v 0.02777234 0.01726464 0.05044000
v 0.02777234 0.01726464 -0.00044000
v 0.02486833 0.01726464 0.05044000
v 0.02777234 -0.03879630 0.05044000
v 0.02486833 0.01726464 -0.00044000
v 0.02777234 -0.03879630 -0.00044000
v 0.01691068 0.01725899 0.04859724
v 0.01691389 0.01725899 0.04866199
v 0.01695241 0.01725899 0.04939909
v 0.01729695 0.01725899 0.05008639
v 0.01800102 0.01725899 0.05040514
v 0.01806629 0.01725899 0.05041012
v 0.01880138 0.01725899 0.05044000
v 0.02486833 -0.03879630 0.05044000
v 0.02777234 -0.03959838 0.05041012
v 0.01880138 0.01725899 -0.00044000
v 0.01800102 0.01725899 -0.00040514
v 0.01794430 0.01725899 -0.00038023
v 0.01729695 0.01725899 -0.00008639
v 0.01695241 0.01725899 0.00060091
v 0.01691068 0.01725899 0.00140276
v 0.02777234 -0.03959838 -0.00041012
v 0.01684113 -0.03923123 -0.00042506
v 0.02486833 -0.03879630 -0.00044000
v 0.01684113 0.00313220 0.02380968
v 0.01684113 0.00312655 0.02460157
v 0.01684113 0.00283848 0.02544824
v 0.01684113 0.00238660 0.02587157
v 0.01684113 -0.02317267 0.04949372
v 0.01684113 -0.02326304 0.04956842
v 0.01684113 -0.02374316 0.04994196
v 0.01684113 -0.02399734 0.05005153
v 0.01684113 -0.02470340 0.05024576
v 0.01684113 -0.02555632 0.05041012
v 0.01684113 -0.02635275 0.05044000
v 0.01684113 -0.03879065 0.05044000
v 0.02486833 -0.03959838 0.05041012
v 0.02486833 -0.03985256 0.05028063
v 0.02777234 -0.04008415 0.05016109
v 0.01684113 0.00039270 -0.00044000
v 0.01684113 0.00118913 -0.00043502
v 0.01684113 0.00202510 -0.00019098
v 0.01684113 0.00260689 0.00007797
v 0.01684113 0.00299664 0.00060091
v 0.01684113 0.00313220 0.00140276
v 0.02486833 -0.03959838 -0.00041012
v 0.02777234 -0.04021971 -0.00009137
v 0.01684113 -0.03879065 -0.00044000
v 0.01684113 -0.03959273 -0.00041012
v 0.01684113 -0.03959273 0.05041012
v 0.02486833 -0.04021971 0.05009137
v 0.02777234 -0.04021971 0.05009137
v 0.02486833 -0.04021971 -0.00009137
v 0.02777234 -0.04044000 0.00060091
v 0.01684113 -0.03993164 -0.00023580
v 0.01684113 -0.04020842 0.05009137
v 0.01684113 -0.04043435 0.04939909
v 0.02486833 -0.04044000 0.04939909
v 0.02777234 -0.04044000 0.04939909
v 0.02486833 -0.04044000 0.00060091
v 0.01684113 -0.04043435 0.00060091
v 0.01684113 -0.04020842 -0.00009137
f 1 2 5
f 1 5 3
f 1 3 13
f 1 13 35
f 1 35 36
f 1 36 14
f 1 14 4
f 1 4 15
f 1 15 39
f 1 39 52
f 1 52 59
f 1 59 54
f 1 54 47
f 1 47 22
f 1 22 6
f 1 6 2
f 2 6 24
f 2 24 48
f 2 48 40
f 2 40 16
f 2 16 5
f 3 5 21
f 3 21 7
f 3 7 8
f 3 8 9
f 3 9 10
f 3 10 11
f 3 11 12
f 3 12 13
f 4 14 37
f 4 37 15
f 5 16 17
f 5 17 18
f 5 18 19
f 5 19 20
f 5 20 21
f 6 22 23
f 6 23 24
f 7 21 45
f 7 45 25
f 7 25 26
f 7 26 27
f 7 27 28
f 7 28 29
f 7 29 30
f 7 30 31
f 7 31 32
f 7 32 33
f 7 33 34
f 7 34 8
f 8 34 9
f 9 34 35
f 9 35 10
f 10 35 11
f 11 35 12
f 12 35 13
f 14 36 50
f 14 50 37
f 15 37 38
f 15 38 39
f 16 40 17
f 17 40 41
f 17 41 18
f 18 41 19
f 19 41 20
f 20 41 21
f 21 41 42
f 21 42 43
f 21 43 44
f 21 44 45
f 22 46 23
f 22 47 53
f 22 53 46
f 23 48 24
f 23 46 49
f 23 49 55
f 23 55 62
f 23 62 61
f 23 61 57
f 23 57 56
f 23 56 50
f 23 50 36
f 23 36 35
f 23 35 34
f 23 34 33
f 23 33 32
f 23 32 31
f 23 31 30
f 23 30 29
f 23 29 28
f 23 28 27
f 23 27 26
f 23 26 25
f 23 25 45
f 23 45 44
f 23 44 43
f 23 43 42
f 23 42 41
f 23 41 40
f 23 40 48
f 37 50 38
f 38 51 52
f 38 52 39
f 38 50 51
f 46 53 49
f 47 54 60
f 47 60 53
f 49 53 55
f 50 56 51
f 51 56 57
f 51 57 58
f 51 58 59
f 51 59 52
f 53 60 61
f 53 61 62
f 53 62 55
f 54 59 58
f 54 58 60
f 57 61 60
f 57 60 58

