# https://github.com/mikedh/trimesh
v -0.01308131 -0.02590772 0.04779587
v -0.01682469 -0.02298600 0.04779090
v -0.01682469 -0.02298714 0.04859164
v -0.01308717 -0.02590772 0.04859662
v -0.01308131 -0.02590772 0.00208874
v -0.01682469 -0.02298600 0.00220811
v -0.01682469 -0.02308067 0.04911884
v -0.01682469 -0.02328604 0.04954160
v -0.01356902 -0.02590772 0.04939736
v -0.01308717 -0.02590772 0.00140737
v -0.01682469 -0.02298714 0.00140737
v -0.01682469 -0.02375483 0.04992954
v -0.01488741 -0.02590772 0.05001906
v -0.01342868 -0.02590772 0.00083540
v -0.01682469 -0.02307323 0.00067625
v -0.01682469 -0.02299515 0.00118356
v -0.01682469 -0.02440009 0.05012848
v -0.01558948 -0.02590772 0.05021800
v -0.01356902 -0.02590772 0.00060662
v -0.01682469 -0.02329948 0.00043752
v -0.01682469 -0.02517321 0.05029261
v -0.01639305 -0.02590772 0.05037218
v -0.01492552 -0.02590772 -0.00004492
v -0.01682469 -0.02375483 0.00006947
v -0.01682469 -0.02590772 0.05039208
v -0.01567852 -0.02590772 -0.00025381
v -0.01682469 -0.02472130 -0.00023889
v -0.01682469 -0.02402455 -0.00003994
v -0.01682469 -0.02590772 -0.00041794
v -0.01649161 -0.02590772 -0.00040302
v -0.01682469 -0.02557479 -0.00041296
f 1 2 3
f 1 3 4
f 1 4 9
f 1 9 13
f 1 13 18
f 1 18 22
f 1 22 25
f 1 25 29
f 1 29 30
f 1 30 26
f 1 26 23
f 1 23 19
f 1 19 14
f 1 14 10
f 1 10 5
f 1 5 6
f 1 6 2
f 2 6 11
f 2 11 16
f 2 16 15
f 2 15 20
f 2 20 24
f 2 24 28
f 2 28 27
f 2 27 31
f 2 31 29
f 2 29 25
f 2 25 21
f 2 21 17
f 2 17 12
f 2 12 8
f 2 8 7
f 2 7 3
f 3 7 4
f 4 7 8
f 4 8 9
f 5 10 11
f 5 11 6
f 8 12 9
f 9 12 13
f 10 14 15
f 10 15 16
f 10 16 11
f 12 17 13
f 13 17 18
f 14 19 15
f 15 19 20
f 17 21 22
f 17 22 18
f 19 23 24
f 19 24 20
f 21 25 22
f 23 26 27
f 23 27 28
f 23 28 24
f 26 30 31
f 26 31 27
f 29 31 30

