# https://github.com/mikedh/trimesh
v -0.03879745 0.03317535 -0.00044000
v -0.03879745 0.03879932 -0.00044000
v 0.01135118 0.03317535 -0.00044000
v -0.03959845 0.03317535 -0.00041012
v -0.03879745 0.03959939 -0.00041012
v 0.01135118 0.03879932 -0.00044000
v -0.03959845 0.03879932 -0.00041012
v -0.03959845 0.03959939 -0.00039020
v 0.01135118 0.03317535 0.05044000
v -0.04021187 0.03317535 -0.00009137
v 0.01135118 0.03959939 -0.00041012
v -0.03959845 0.04021954 -0.00009137
v -0.04021187 0.03959939 -0.00009137
v -0.04014090 0.04014628 0.00000824
v 0.01135118 0.03879932 0.05044000
v -0.03879745 0.03317535 0.05044000
v -0.04044000 0.03317535 0.00060091
v -0.04024229 0.03568935 -0.00001168
v 0.01135118 0.04021954 -0.00009137
v -0.03959845 0.04044000 0.00060091
v 0.01135118 0.04028781 0.00012279
v -0.04044000 0.03959939 0.00060091
v -0.04021187 0.04021954 0.00060091
v 0.01135118 0.03935119 0.05042008
v -0.03879745 0.03879932 0.05044000
v -0.03950212 0.03568935 0.05041510
v -0.03959845 0.03317535 0.05041012
v -0.04044000 0.03317535 0.04938415
v -0.03959845 0.04044000 0.04939909
v 0.01135118 0.04044000 0.00060091
v -0.04044000 0.03959939 0.04939909
v -0.04021187 0.04021954 0.04939909
v 0.01135118 0.03959939 0.05041012
v -0.03879745 0.03959939 0.05041012
v -0.03959845 0.03959939 0.05039020
v -0.03959845 0.03879932 0.05041012
v -0.04021187 0.03317535 0.05009137
v -0.04044000 0.03568935 0.04939909
v -0.03959845 0.04021954 0.05009137
v 0.01135118 0.04044000 0.04939909
v -0.04014090 0.04014628 0.04999176
v -0.04021187 0.03959939 0.05009137
v 0.01135118 0.04002681 0.05019098
v 0.01135118 0.04021954 0.05009137
f 1 2 6
f 1 6 3
f 1 3 9
f 1 9 16
f 1 16 27
f 1 27 37
f 1 37 28
f 1 28 17
f 1 17 10
f 1 10 4
f 1 4 7
f 1 7 2
f 2 5 11
f 2 11 6
f 2 7 8
f 2 8 5
f 3 6 11
f 3 11 19
f 3 19 21
f 3 21 30
f 3 30 40
f 3 40 44
f 3 44 43
f 3 43 33
f 3 33 24
f 3 24 15
f 3 15 9
f 4 10 13
f 4 13 7
f 5 8 12
f 5 12 19
f 5 19 11
f 7 13 8
f 8 13 14
f 8 14 12
f 9 15 25
f 9 25 16
f 10 17 18
f 10 18 13
f 12 20 21
f 12 21 19
f 12 14 20
f 13 18 22
f 13 22 14
f 14 22 23
f 14 23 20
f 15 24 25
f 16 25 26
f 16 26 27
f 17 22 18
f 17 28 38
f 17 38 31
f 17 31 22
f 20 23 32
f 20 32 29
f 20 29 40
f 20 40 30
f 20 30 21
f 22 31 32
f 22 32 23
f 24 33 34
f 24 34 25
f 25 34 35
f 25 35 36
f 25 36 26
f 26 36 27
f 27 36 42
f 27 42 37
f 28 37 38
f 29 39 44
f 29 44 40
f 29 32 41
f 29 41 39
f 31 38 37
f 31 37 42
f 31 42 41
f 31 41 32
f 33 43 34
f 34 43 39
f 34 39 35
f 35 39 41
f 35 41 42
f 35 42 36
f 39 43 44

