# https://github.com/mikedh/trimesh
v -0.01559954 0.01320094 0.02543828
v -0.01559954 0.01160138 0.02543828
v -0.01559954 0.01400072 0.02537851
v -0.01693202 0.02225066 0.04937917
v -0.01559954 0.01080160 0.02530879
v -0.01695147 0.00584393 0.04939909
v -0.01559954 0.01457406 0.02515439
v -0.01689311 0.02225066 0.04859724
v -0.01728945 0.02225066 0.05009137
v -0.01559954 0.01031660 0.02508965
v -0.01691013 0.00584393 0.04859724
v -0.01729675 0.00584393 0.05008639
v -0.01559954 0.01484547 0.02460157
v -0.01559954 0.01494022 0.02379972
v -0.01689311 0.02225066 0.00140276
v -0.01777332 0.02225066 0.05031051
v -0.01743534 0.00584393 0.05015113
v -0.01559954 0.01014476 0.02460157
v -0.01691013 0.00584393 0.00140276
v -0.01559954 0.01005643 0.02380470
v -0.01559954 0.01494022 0.00140276
v -0.01559954 0.01490007 0.00060091
v -0.01690284 0.02225066 0.00119358
v -0.01800189 0.00584393 0.05040514
v -0.01800189 0.02225066 0.05041012
v -0.01695147 0.00584393 0.00060091
v -0.01559954 0.01009015 0.00060091
v -0.01559954 0.01005643 0.00140276
v -0.01559954 0.01463027 -0.00005153
v -0.01693202 0.02225066 0.00062083
v -0.01815751 0.00584393 0.05041510
v -0.01880186 0.02225066 0.05044000
v -0.01880186 0.00584393 0.05044000
v -0.01559954 0.01026199 0.00001820
v -0.01729675 0.00584393 -0.00008639
v -0.01559954 0.01400072 -0.00037027
v -0.01705116 0.02225066 0.00038177
v -0.03879872 0.02225066 0.05044000
v -0.03879872 0.00584393 0.05044000
v -0.01559954 0.01080000 -0.00030055
v -0.01786329 0.00584393 -0.00034537
v -0.01559954 0.01320094 -0.00044000
v -0.01800189 0.02225066 -0.00041012
v -0.01728945 0.02225066 -0.00009137
v -0.03934825 0.02225066 0.05042008
v -0.03959869 0.00584393 0.05041012
v -0.01800189 0.00584393 -0.00040514
v -0.01560197 0.01160138 -0.00044000
v -0.01559954 0.01159978 -0.00043502
v -0.01559954 0.01239956 -0.00044000
v -0.01880186 0.02225066 -0.00044000
v -0.03959869 0.02225066 0.05041012
v -0.03972027 0.00584393 0.05035035
v -0.01880186 0.00584393 -0.00044000
v -0.03879872 0.02225066 -0.00044000
v -0.04021873 0.02225066 0.05009137
v -0.04021873 0.00584393 0.05009137
v -0.03879872 0.00584393 -0.00044000
v -0.03959869 0.02225066 -0.00041012
v -0.04026250 0.00584393 0.04995690
v -0.04043757 0.02225066 0.04939909
v -0.03959869 0.00584393 -0.00041012
v -0.03979322 0.02225066 -0.00031051
v -0.04043757 0.00584393 0.04939909
v -0.04043757 0.02225066 0.00060091
v -0.04021873 0.00584393 -0.00009137
v -0.04021873 0.02225066 -0.00009137
v -0.04043757 0.00584393 0.00060091
v -0.04039623 0.00584393 0.00046644
f 1 2 5
f 1 5 10
f 1 10 18
f 1 18 20
f 1 20 28
f 1 28 27
f 1 27 34
f 1 34 40
f 1 40 49
f 1 49 50
f 1 50 42
f 1 42 36
f 1 36 29
f 1 29 22
f 1 22 21
f 1 21 14
f 1 14 13
f 1 13 7
f 1 7 3
f 1 3 4
f 1 4 2
f 2 4 6
f 2 6 5
f 3 7 8
f 3 8 4
f 4 8 15
f 4 15 23
f 4 23 30
f 4 30 37
f 4 37 44
f 4 44 43
f 4 43 51
f 4 51 55
f 4 55 59
f 4 59 63
f 4 63 67
f 4 67 65
f 4 65 61
f 4 61 56
f 4 56 52
f 4 52 45
f 4 45 38
f 4 38 32
f 4 32 25
f 4 25 16
f 4 16 9
f 4 9 6
f 5 6 11
f 5 11 10
f 6 9 12
f 6 12 17
f 6 17 24
f 6 24 31
f 6 31 33
f 6 33 39
f 6 39 46
f 6 46 53
f 6 53 57
f 6 57 60
f 6 60 64
f 6 64 68
f 6 68 69
f 6 69 66
f 6 66 62
f 6 62 58
f 6 58 54
f 6 54 47
f 6 47 41
f 6 41 35
f 6 35 26
f 6 26 19
f 6 19 11
f 7 13 8
f 8 13 14
f 8 14 21
f 8 21 15
f 9 16 17
f 9 17 12
f 10 11 18
f 11 19 28
f 11 28 20
f 11 20 18
f 15 21 22
f 15 22 23
f 16 24 17
f 16 25 24
f 19 26 27
f 19 27 28
f 22 29 30
f 22 30 23
f 24 25 31
f 25 32 33
f 25 33 31
f 26 34 27
f 26 35 34
f 29 36 30
f 30 36 37
f 32 38 39
f 32 39 33
f 34 35 40
f 35 41 40
f 36 42 43
f 36 43 44
f 36 44 37
f 38 45 39
f 39 45 46
f 40 41 47
f 40 47 48
f 40 48 49
f 42 50 48
f 42 48 54
f 42 54 58
f 42 58 55
f 42 55 51
f 42 51 43
f 45 52 46
f 46 52 53
f 47 54 48
f 48 50 49
f 52 56 53
f 53 56 57
f 55 58 62
f 55 62 59
f 56 60 57
f 56 61 60
f 59 62 63
f 60 61 64
f 61 65 68
f 61 68 64
f 62 66 63
f 63 66 67
f 65 67 69
f 65 69 68
f 66 69 67

