# https://github.com/mikedh/trimesh
v -0.01643686 0.02399425 0.04859724
v -0.01645331 0.02399425 0.04893591
v -0.01693031 0.02225066 0.04937917
v -0.01689272 0.02225066 0.04859724
v -0.01643686 0.02399425 0.00140276
v -0.01647680 0.02399425 0.04935925
v -0.01659194 0.02399425 0.04974772
v -0.01728983 0.02225066 0.05009137
v -0.01689272 0.02225066 0.00140276
v -0.01690212 0.02225066 0.00119358
v -0.01693031 0.02225066 0.00062083
v -0.01645566 0.02399425 0.00103919
v -0.01668123 0.02399425 0.04992203
v -0.01716999 0.02399425 0.05021588
v -0.01777154 0.02225066 0.05031051
v -0.01684572 0.02399425 0.05005153
v -0.01668123 0.02399425 0.00007797
v -0.01647680 0.02399425 0.00064075
v -0.01728983 0.02225066 -0.00009137
v -0.01760705 0.02399425 0.05037525
v -0.01800182 0.02225066 0.05041012
v -0.01716999 0.02399425 -0.00021588
v -0.01800182 0.02225066 -0.00041012
v -0.01800182 0.02399425 0.05043502
v -0.01800182 0.02360000 0.05043004
v -0.01880075 0.02225066 0.05044000
v -0.01800182 0.02360000 -0.00043004
v -0.01800182 0.02399425 -0.00043502
v -0.01880075 0.02225066 -0.00044000
v -0.01840598 0.02399425 0.05044000
v -0.03879985 0.02225066 0.05044000
v -0.01880075 0.02399425 -0.00044000
v -0.03879985 0.02225066 -0.00044000
v -0.03879985 0.02399425 0.05044000
v -0.03934735 0.02225066 0.05042008
v -0.03879985 0.02399425 -0.00044000
v -0.03959877 0.02225066 -0.00041012
v -0.03920401 0.02399425 0.05042506
v -0.03959877 0.02399425 0.05041012
v -0.03959877 0.02225066 0.05041012
v -0.03959877 0.02399425 -0.00041012
v -0.03979381 0.02225066 -0.00031051
v -0.03991365 0.02399425 0.05025074
v -0.04021912 0.02225066 0.05009137
v -0.04021912 0.02399425 -0.00009137
v -0.04021912 0.02225066 -0.00009137
v -0.04021912 0.02399425 0.05009137
v -0.04044000 0.02225066 0.04939909
v -0.04044000 0.02399425 0.00060091
v -0.04044000 0.02225066 0.00060091
v -0.04044000 0.02399425 0.04939909
f 1 2 3
f 1 3 4
f 1 4 9
f 1 9 5
f 1 5 12
f 1 12 18
f 1 18 17
f 1 17 22
f 1 22 28
f 1 28 32
f 1 32 36
f 1 36 41
f 1 41 45
f 1 45 49
f 1 49 51
f 1 51 47
f 1 47 43
f 1 43 39
f 1 39 38
f 1 38 34
f 1 34 30
f 1 30 24
f 1 24 20
f 1 20 14
f 1 14 16
f 1 16 13
f 1 13 7
f 1 7 6
f 1 6 2
f 2 6 3
f 3 6 7
f 3 7 8
f 3 8 15
f 3 15 21
f 3 21 26
f 3 26 31
f 3 31 35
f 3 35 40
f 3 40 44
f 3 44 48
f 3 48 50
f 3 50 46
f 3 46 42
f 3 42 37
f 3 37 33
f 3 33 29
f 3 29 23
f 3 23 19
f 3 19 11
f 3 11 10
f 3 10 9
f 3 9 4
f 5 9 10
f 5 10 11
f 5 11 12
f 7 13 8
f 8 14 15
f 8 13 16
f 8 16 14
f 11 17 18
f 11 18 12
f 11 19 17
f 14 20 21
f 14 21 15
f 17 19 22
f 19 23 22
f 20 24 25
f 20 25 21
f 21 25 26
f 22 23 27
f 22 27 28
f 23 29 27
f 24 30 26
f 24 26 25
f 26 30 34
f 26 34 31
f 27 29 28
f 28 29 32
f 29 33 36
f 29 36 32
f 31 34 35
f 33 37 41
f 33 41 36
f 34 38 35
f 35 38 39
f 35 39 40
f 37 42 41
f 39 43 40
f 40 43 44
f 41 42 45
f 42 46 45
f 43 47 44
f 44 47 51
f 44 51 48
f 45 46 50
f 45 50 49
f 48 51 49
f 48 49 50

