# https://github.com/mikedh/trimesh
v 0.01135172 -0.04043828 0.00060091
v 0.01135172 -0.04037122 0.00038675
v 0.01684113 -0.04043828 0.00060091
v 0.01135172 -0.04043828 0.04939909
v 0.01135172 -0.04021990 -0.00009137
v 0.01684113 -0.04021990 -0.00009137
v 0.01684113 -0.04043828 0.04939909
v 0.01135172 -0.04021990 0.05009137
v 0.01684113 -0.03994134 -0.00023580
v 0.01135172 -0.03959915 -0.00041012
v 0.01684113 -0.04021990 0.05009137
v 0.01135172 -0.03959915 0.05041012
v 0.01684113 -0.03959915 -0.00041012
v 0.01135172 -0.03934982 -0.00042008
v 0.01684113 -0.03923977 -0.00042506
v 0.01684113 -0.03959915 0.05041012
v 0.01135172 -0.03879956 0.05044000
v 0.01135172 -0.03879956 -0.00044000
v 0.01684113 -0.03879956 -0.00044000
v 0.01684113 -0.03879956 0.05044000
v 0.01135172 -0.02760022 0.05044000
v 0.01135172 -0.02760022 -0.00044000
v 0.01684113 -0.02680064 -0.00044000
v 0.01684113 -0.02636044 0.05044000
v 0.01684113 -0.02555913 0.05041012
v 0.01135172 -0.02704997 0.05038522
v 0.01135172 -0.02680064 -0.00036031
v 0.01684113 -0.02600105 -0.00042506
v 0.01639993 -0.02680064 -0.00044000
v 0.01684113 -0.02470796 0.05024576
v 0.01135172 -0.02680064 0.05036031
v 0.01684113 -0.02517567 -0.00030055
v 0.01135172 -0.02619192 -0.00004157
v 0.01684113 -0.02374502 0.00005804
v 0.01684113 -0.02440016 -0.00014117
v 0.01684113 -0.02400123 0.05005153
v 0.01684113 -0.02374502 0.04994196
v 0.01135172 -0.02638107 0.05014117
v 0.01135172 -0.02594775 0.00060091
v 0.01684113 -0.02301594 0.00081507
v 0.01684113 -0.02317585 0.00050628
v 0.01684113 -0.02326527 0.04956842
v 0.01135172 -0.02619192 0.05004157
v 0.01135172 -0.02593571 0.00084993
v 0.01684113 -0.02287493 0.00140276
v 0.01684113 -0.02317585 0.04949372
v 0.01684113 -0.02301078 0.04932936
v 0.01135172 -0.02602341 0.04959831
v 0.01135172 -0.02591164 0.00140276
v 0.01684113 -0.02287322 0.00220461
v 0.01684113 -0.02287837 0.04870183
v 0.01135172 -0.02594775 0.04939909
v 0.01135172 -0.02591164 0.04859724
v 0.01684113 -0.02287322 0.04779539
v 0.01684113 -0.02287493 0.04859724
v 0.01135172 -0.02592195 0.04884626
f 1 2 3
f 1 3 7
f 1 7 4
f 1 4 8
f 1 8 12
f 1 12 17
f 1 17 21
f 1 21 26
f 1 26 31
f 1 31 38
f 1 38 43
f 1 43 48
f 1 48 52
f 1 52 56
f 1 56 53
f 1 53 49
f 1 49 44
f 1 44 39
f 1 39 33
f 1 33 27
f 1 27 22
f 1 22 18
f 1 18 14
f 1 14 10
f 1 10 5
f 1 5 2
f 2 5 6
f 2 6 3
f 3 6 9
f 3 9 13
f 3 13 15
f 3 15 19
f 3 19 23
f 3 23 28
f 3 28 32
f 3 32 35
f 3 35 34
f 3 34 41
f 3 41 40
f 3 40 45
f 3 45 50
f 3 50 54
f 3 54 55
f 3 55 51
f 3 51 47
f 3 47 46
f 3 46 42
f 3 42 37
f 3 37 36
f 3 36 30
f 3 30 25
f 3 25 24
f 3 24 20
f 3 20 16
f 3 16 11
f 3 11 7
f 4 7 11
f 4 11 8
f 5 9 6
f 5 10 9
f 8 11 16
f 8 16 12
f 9 10 13
f 10 14 15
f 10 15 13
f 12 16 20
f 12 20 17
f 14 18 15
f 15 18 19
f 17 20 24
f 17 24 21
f 18 22 29
f 18 29 23
f 18 23 19
f 21 24 25
f 21 25 26
f 22 27 28
f 22 28 29
f 23 29 28
f 25 30 31
f 25 31 26
f 27 32 28
f 27 33 34
f 27 34 35
f 27 35 32
f 30 36 31
f 31 36 37
f 31 37 38
f 33 39 40
f 33 40 41
f 33 41 34
f 37 42 43
f 37 43 38
f 39 44 45
f 39 45 40
f 42 46 43
f 43 46 47
f 43 47 48
f 44 49 45
f 45 49 50
f 47 51 52
f 47 52 48
f 49 53 54
f 49 54 50
f 51 55 53
f 51 53 56
f 51 56 52
f 53 55 54

