# https://github.com/mikedh/trimesh
v -0.03879745 0.02584913 -0.00044000
v -0.03959845 0.02584913 -0.00041012
v -0.03938045 0.02978119 -0.00042008
v -0.03879745 0.02978119 -0.00044000
v -0.01799682 0.02584913 -0.00044000
v -0.03959845 0.02978119 -0.00041012
v -0.04021694 0.02584913 -0.00009137
v 0.01135118 0.02978119 -0.00044000
v -0.01719582 0.02584913 -0.00043502
v 0.01135118 0.02760035 -0.00044000
v 0.01135118 0.02704907 -0.00038522
v 0.01135118 0.02680038 -0.00036031
v -0.04021694 0.02978119 -0.00009137
v -0.04044000 0.02584913 0.00060091
v -0.04037917 0.02978119 0.00041165
v 0.01135118 0.02978119 0.05044000
v -0.01638468 0.02584913 -0.00036031
v 0.01135118 0.02638115 -0.00014117
v 0.01135118 0.02619214 -0.00004157
v 0.01135118 0.02594691 0.00060091
v -0.04044000 0.02978119 0.00060091
v -0.04044000 0.02584913 0.04939909
v 0.01135118 0.02760035 0.05044000
v -0.03879745 0.02978119 0.05044000
v -0.01559889 0.02584913 -0.00019596
v 0.01135118 0.02592150 0.00115374
v 0.01135118 0.02591034 0.00140276
v -0.04044000 0.02978119 0.04939909
v -0.04021694 0.02584913 0.05009137
v -0.01734791 0.02584913 0.05044000
v 0.01135118 0.02680038 0.05036031
v -0.03959845 0.02978119 0.05041012
v -0.03879745 0.02584913 0.05044000
v -0.01492970 0.02584913 0.00000824
v 0.01135118 0.02591034 0.04859724
v -0.01376369 0.02584913 0.00163684
v -0.01376876 0.02584913 0.00140276
v -0.01408307 0.02584913 0.00060091
v -0.04021694 0.02978119 0.05009137
v -0.03971505 0.02584913 0.05035035
v -0.03976574 0.02978119 0.05032545
v -0.01719582 0.02584913 0.05043502
v 0.01135118 0.02619214 0.05004157
v -0.03959845 0.02584913 0.05041012
v 0.01135118 0.02594691 0.04939909
v -0.01654691 0.02584913 0.05041012
v -0.01572563 0.02584913 0.05025074
v -0.01500067 0.02584913 0.05003659
v -0.01492970 0.02584913 0.04999176
v -0.01408307 0.02584913 0.04939909
v -0.01376876 0.02584913 0.04859724
v -0.01376369 0.02584913 0.04803446
f 1 2 3
f 1 3 4
f 1 4 8
f 1 8 10
f 1 10 5
f 1 5 9
f 1 9 17
f 1 17 25
f 1 25 34
f 1 34 38
f 1 38 37
f 1 37 36
f 1 36 52
f 1 52 51
f 1 51 50
f 1 50 49
f 1 49 48
f 1 48 47
f 1 47 46
f 1 46 42
f 1 42 30
f 1 30 33
f 1 33 44
f 1 44 40
f 1 40 29
f 1 29 22
f 1 22 14
f 1 14 7
f 1 7 2
f 2 6 3
f 2 7 13
f 2 13 6
f 3 6 13
f 3 13 15
f 3 15 21
f 3 21 28
f 3 28 39
f 3 39 41
f 3 41 32
f 3 32 24
f 3 24 16
f 3 16 8
f 3 8 4
f 5 10 11
f 5 11 12
f 5 12 9
f 7 14 15
f 7 15 13
f 8 16 23
f 8 23 31
f 8 31 43
f 8 43 45
f 8 45 35
f 8 35 27
f 8 27 26
f 8 26 20
f 8 20 19
f 8 19 18
f 8 18 12
f 8 12 11
f 8 11 10
f 9 12 18
f 9 18 19
f 9 19 20
f 9 20 17
f 14 21 15
f 14 22 28
f 14 28 21
f 16 24 33
f 16 33 30
f 16 30 23
f 17 20 26
f 17 26 27
f 17 27 25
f 22 29 39
f 22 39 28
f 23 30 31
f 24 32 44
f 24 44 33
f 25 27 34
f 27 35 52
f 27 52 36
f 27 36 37
f 27 37 38
f 27 38 34
f 29 40 41
f 29 41 39
f 30 42 43
f 30 43 31
f 32 41 44
f 35 45 46
f 35 46 47
f 35 47 48
f 35 48 49
f 35 49 50
f 35 50 51
f 35 51 52
f 40 44 41
f 42 46 43
f 43 46 45

