# https://github.com/mikedh/trimesh
v 0.03058998 0.01726464 0.02136571
v 0.02777262 0.01726464 0.02136571
v 0.03155838 0.01643432 0.02136571
v 0.03155838 0.01726464 0.02136358
v 0.02777262 0.01726464 -0.00044000
v 0.02777262 -0.04044000 0.02136571
v 0.03155838 -0.04044000 0.02136571
v 0.03155838 0.01726464 -0.00044000
v 0.02777262 -0.03879630 -0.00044000
v 0.02777262 -0.04044000 0.00060162
v 0.03155838 -0.04044000 0.00060162
v 0.03155838 -0.03879630 -0.00044000
v 0.03155838 -0.03955319 -0.00041439
v 0.02777262 -0.03959838 -0.00041225
v 0.02777262 -0.04021971 -0.00009208
v 0.03155838 -0.04021971 -0.00009208
v 0.03155838 -0.03959838 -0.00041225
f 1 2 6
f 1 6 7
f 1 7 3
f 1 3 4
f 1 4 8
f 1 8 5
f 1 5 2
f 2 5 9
f 2 9 14
f 2 14 15
f 2 15 10
f 2 10 6
f 3 7 11
f 3 11 16
f 3 16 17
f 3 17 13
f 3 13 12
f 3 12 8
f 3 8 4
f 5 8 12
f 5 12 9
f 6 10 11
f 6 11 7
f 9 12 13
f 9 13 14
f 10 15 16
f 10 16 11
f 13 17 14
f 14 17 16
f 14 16 15

