# https://github.com/mikedh/trimesh
v 0.03813724 0.01726464 0.05044000
v 0.03813724 0.01726464 -0.00044000
v 0.03468399 0.01726464 0.05044000
v 0.03813724 -0.03879630 0.05044000
v 0.03468399 0.01726464 -0.00044000
v 0.03813724 -0.03879630 -0.00044000
v 0.03468399 -0.03879630 0.05044000
v 0.03813724 -0.03959838 0.05041012
v 0.03468399 -0.03879630 -0.00044000
v 0.03813724 -0.03893186 -0.00043502
v 0.03468399 -0.03947976 -0.00041510
v 0.03468399 -0.03959838 0.05041012
v 0.03468399 -0.03968876 0.05036529
v 0.03813724 -0.04021971 0.05009137
v 0.03813724 -0.03959838 -0.00041012
v 0.03468399 -0.03959838 -0.00041012
v 0.03468399 -0.04021971 0.05009137
v 0.03813724 -0.04044000 0.04939909
v 0.03813724 -0.03970570 -0.00035533
v 0.03468399 -0.04021971 -0.00009137
v 0.03468399 -0.04044000 0.04939909
v 0.03813724 -0.04044000 0.00060091
v 0.03813724 -0.04021971 -0.00009137
v 0.03468399 -0.04044000 0.00060091
f 1 2 5
f 1 5 3
f 1 3 7
f 1 7 4
f 1 4 8
f 1 8 14
f 1 14 18
f 1 18 22
f 1 22 23
f 1 23 19
f 1 19 15
f 1 15 10
f 1 10 6
f 1 6 2
f 2 6 9
f 2 9 5
f 3 5 9
f 3 9 11
f 3 11 16
f 3 16 20
f 3 20 24
f 3 24 21
f 3 21 17
f 3 17 13
f 3 13 12
f 3 12 7
f 4 7 12
f 4 12 8
f 6 10 11
f 6 11 9
f 8 12 13
f 8 13 14
f 10 15 11
f 11 15 16
f 13 17 14
f 14 17 21
f 14 21 18
f 15 19 16
f 16 19 20
f 18 21 24
f 18 24 22
f 19 23 20
f 20 23 22
f 20 22 24

