# https://github.com/mikedh/trimesh
v -0.02174002 0.02006147 0.02028033
v -0.02174002 0.02001072 0.02145556
v -0.02174002 0.02874092 0.02028033
v -0.01302568 0.01834464 0.02028033
v -0.02174002 0.02002062 0.02249633
v -0.01303417 0.01834464 0.02069633
v -0.01303417 0.01834464 0.02075802
v -0.01302356 0.01834464 0.02249633
v -0.01302144 0.01834464 0.02255802
v -0.02174002 0.02895011 0.02046856
v -0.00005289 0.02798958 0.02028033
v -0.00005289 0.01834464 0.02028033
v -0.02174002 0.02003548 0.02325557
v -0.01293652 0.01834464 0.02416822
v -0.02174002 0.02987970 0.02152515
v -0.00005289 0.03099000 0.03329480
v -0.02174002 0.02997006 0.02163271
v -0.02174002 0.03046889 0.02260073
v -0.00005289 0.01834464 0.03152959
v -0.02174002 0.02015678 0.02429634
v -0.01291105 0.01834464 0.02429476
v -0.01237609 0.01834464 0.02605997
v -0.01229329 0.01834464 0.02627983
v -0.01141655 0.01834464 0.02803238
v -0.00810065 0.03099000 0.03329480
v -0.00005289 0.03077833 0.03509480
v -0.02174002 0.03083528 0.02423782
v -0.02069982 0.03099000 0.02609635
v -0.00005289 0.01878778 0.03187599
v -0.00090203 0.01834464 0.03154382
v -0.02174002 0.02035730 0.02521216
v -0.00992843 0.01834464 0.02965682
v -0.00990083 0.03092316 0.03329480
v -0.00270009 0.03073254 0.03509480
v -0.00090203 0.03077833 0.03509480
v -0.01889963 0.03099000 0.02789636
v -0.01349908 0.03098629 0.03149479
v -0.00005289 0.03051716 0.03568163
v -0.02174002 0.03096772 0.02609635
v -0.00005289 0.02076949 0.03341975
v -0.00090203 0.02021991 0.03300059
v -0.00262155 0.01834464 0.03149004
v -0.02174002 0.02061229 0.02597772
v -0.00990932 0.01834464 0.02967580
v -0.01169889 0.03067932 0.03329480
v -0.00990083 0.03042804 0.03461079
v -0.00810065 0.03049488 0.03482907
v -0.01529926 0.03083528 0.03149479
v -0.00270009 0.03023742 0.03616405
v -0.00090203 0.03028322 0.03620201
v -0.01709945 0.03098010 0.02969478
v -0.00005289 0.03028322 0.03620201
v -0.02174002 0.03064713 0.02789952
v -0.02069982 0.03088726 0.02789636
v -0.00005289 0.02180801 0.03422644
v -0.00090203 0.02138097 0.03390060
v -0.00090203 0.02228084 0.03459656
v -0.00270009 0.01935964 0.03227142
v -0.00270009 0.01834464 0.03148688
v -0.02037502 0.02076702 0.02735699
v -0.02174002 0.02096506 0.02675593
v -0.00989234 0.01834464 0.02968846
v -0.01529926 0.03034139 0.03272696
v -0.01169889 0.03018419 0.03434665
v -0.00544283 0.03000843 0.03600114
v -0.00450028 0.03010250 0.03606440
v -0.01907795 0.03058648 0.02987352
v -0.01702303 0.03046518 0.03152642
v -0.00270009 0.02909988 0.03634595
v -0.00090203 0.02909988 0.03642346
v -0.00005289 0.02965689 0.03631906
v -0.02174002 0.03020771 0.02900673
v -0.02069982 0.03039215 0.02937844
v -0.00005289 0.02228456 0.03459498
v -0.00005289 0.02286014 0.03501888
v -0.00090203 0.02350874 0.03549656
v -0.00270009 0.02233036 0.03455227
v -0.00270009 0.02143048 0.03386580
v -0.00270009 0.02025952 0.03296580
v -0.00423917 0.01834464 0.03136509
v -0.01819272 0.02091555 0.02889601
v -0.02157444 0.02101829 0.02697737
v -0.02174002 0.02112722 0.02693150
v -0.00810065 0.01834464 0.03070551
v -0.01859606 0.03031664 0.03094909
v -0.01637343 0.03012850 0.03248970
v -0.01260748 0.03000471 0.03419796
v -0.00990083 0.02909988 0.03504419
v -0.00810065 0.02909988 0.03549656
v -0.00641085 0.02909988 0.03585087
v -0.00551076 0.02909988 0.03601221
v -0.00450028 0.02909988 0.03614982
v -0.00450028 0.02729889 0.03616880
v -0.00270009 0.02729889 0.03635386
v -0.00090203 0.02729889 0.03643769
v -0.00005289 0.02909988 0.03642187
v -0.02174002 0.02911969 0.02922817
v -0.01979548 0.02991931 0.03059162
v -0.00005289 0.02350998 0.03549498
v -0.00270009 0.02358301 0.03545228
v -0.00090203 0.02440862 0.03610711
v -0.00450028 0.02243557 0.03447318
v -0.00450028 0.02153569 0.03378513
v -0.00454698 0.01834464 0.03133820
v -0.01457749 0.02094031 0.03066122
v -0.01577691 0.02121386 0.03040340
v -0.01722257 0.02184885 0.03015190
v -0.01939214 0.02128442 0.02855594
v -0.02174002 0.02207166 0.02758476
v -0.02012028 0.02248508 0.02900673
v -0.00630046 0.01834464 0.03113415
v -0.00810065 0.02075835 0.03257985
v -0.00982441 0.02179811 0.03293891
v -0.01037423 0.02113093 0.03226509
v -0.01169889 0.02137973 0.03206263
v -0.01736693 0.02909988 0.03203416
v -0.01646684 0.02909988 0.03253715
v -0.01529926 0.02909988 0.03306545
v -0.01351819 0.02909988 0.03382309
v -0.01261809 0.02909988 0.03420271
v -0.01169889 0.02909988 0.03450640
v -0.00990083 0.02729889 0.03506475
v -0.00810065 0.02729889 0.03553294
v -0.00647242 0.02729889 0.03586827
v -0.00557232 0.02729889 0.03602486
v -0.00552562 0.02619477 0.03601695
v -0.00444721 0.02555606 0.03608022
v -0.00270009 0.02549912 0.03623839
v -0.00090203 0.02549912 0.03632855
v -0.00005289 0.02549912 0.03632539
v -0.00005289 0.02729889 0.03643294
v -0.00005289 0.02814678 0.03642820
v -0.02174002 0.02761576 0.02924873
v -0.02052787 0.02923109 0.03009654
v -0.01981459 0.02871864 0.03060428
v -0.01907795 0.02923109 0.03103134
v -0.00005289 0.02393454 0.03578286
v -0.00270009 0.02448289 0.03606282
v -0.00381035 0.02455840 0.03601853
v -0.00444721 0.02385533 0.03546651
v -0.00005289 0.02441110 0.03610553
v -0.00630046 0.02260144 0.03434506
v -0.00630046 0.02170156 0.03366808
v -0.00630046 0.02050708 0.03276808
v -0.00630046 0.01841520 0.03118793
v -0.01298959 0.02257544 0.03255297
v -0.01522496 0.02184885 0.03110568
v -0.01670672 0.02241453 0.03086526
v -0.01883595 0.02189094 0.02931359
v -0.02174002 0.02267199 0.02799601
v -0.01790614 0.02287994 0.03054417
v -0.01903125 0.02356816 0.03030217
v -0.02071043 0.02372412 0.02933415
v -0.02131969 0.02313988 0.02860339
v -0.00741921 0.02273636 0.03424225
v -0.00805182 0.02204195 0.03357160
v -0.00861863 0.02291831 0.03410939
v -0.00990083 0.02316587 0.03394330
v -0.01169889 0.02227961 0.03277757
v -0.01736481 0.02729889 0.03204365
v -0.01889963 0.02729889 0.03115788
v -0.01646471 0.02729889 0.03253557
v -0.01529926 0.02729889 0.03307177
v -0.01352668 0.02729889 0.03382942
v -0.01262658 0.02729889 0.03420587
v -0.01169889 0.02729889 0.03451273
v -0.01262022 0.02631360 0.03420271
v -0.00990083 0.02549912 0.03496352
v -0.00810065 0.02549912 0.03542222
v -0.00500977 0.02499410 0.03594419
v -0.00619644 0.02555606 0.03581449
v -0.02174002 0.02729889 0.02925190
v -0.02072317 0.02729889 0.02998266
v -0.01982308 0.02729889 0.03061060
v -0.00990083 0.02406575 0.03452538
v -0.00630046 0.02370060 0.03508689
v -0.01177956 0.02374269 0.03374717
v -0.01355427 0.02359539 0.03299110
v -0.01418901 0.02292450 0.03231096
v -0.01529926 0.02329955 0.03208477
v -0.01625880 0.02454231 0.03242643
v -0.02174002 0.02329832 0.02837562
v -0.01851964 0.02407937 0.03089689
v -0.02174002 0.02431579 0.02894663
v -0.00805182 0.02359168 0.03466932
v -0.01123187 0.02437025 0.03432925
v -0.01981459 0.02628018 0.03060586
v -0.01727352 0.02549912 0.03199620
v -0.01637343 0.02549912 0.03248812
v -0.01529926 0.02549912 0.03297687
v -0.01333137 0.02562785 0.03383100
v -0.01243340 0.02511293 0.03413786
v -0.01177956 0.02562785 0.03440201
v -0.02174002 0.02578258 0.02918863
v -0.01529926 0.02419943 0.03263838
v -0.01972118 0.02508075 0.03054575
v -0.02174002 0.02438263 0.02896719
v -0.02174002 0.02551398 0.02917598
v -0.02052787 0.02560805 0.03004118
v -0.01903125 0.02560805 0.03100287
f 1 2 5
f 1 5 13
f 1 13 20
f 1 20 31
f 1 31 43
f 1 43 61
f 1 61 83
f 1 83 109
f 1 109 150
f 1 150 182
f 1 182 184
f 1 184 197
f 1 197 198
f 1 198 194
f 1 194 172
f 1 172 133
f 1 133 97
f 1 97 72
f 1 72 53
f 1 53 39
f 1 39 27
f 1 27 18
f 1 18 17
f 1 17 15
f 1 15 10
f 1 10 3
f 1 3 11
f 1 11 12
f 1 12 4
f 1 4 2
f 2 4 6
f 2 6 7
f 2 7 8
f 2 8 9
f 2 9 5
f 3 10 11
f 4 12 19
f 4 19 30
f 4 30 42
f 4 42 59
f 4 59 80
f 4 80 104
f 4 104 111
f 4 111 84
f 4 84 62
f 4 62 44
f 4 44 32
f 4 32 24
f 4 24 23
f 4 23 22
f 4 22 21
f 4 21 14
f 4 14 9
f 4 9 8
f 4 8 7
f 4 7 6
f 5 9 14
f 5 14 13
f 10 15 11
f 11 16 26
f 11 26 38
f 11 38 52
f 11 52 71
f 11 71 96
f 11 96 132
f 11 132 131
f 11 131 130
f 11 130 141
f 11 141 137
f 11 137 99
f 11 99 75
f 11 75 74
f 11 74 55
f 11 55 40
f 11 40 29
f 11 29 19
f 11 19 12
f 11 15 17
f 11 17 18
f 11 18 16
f 13 14 21
f 13 21 22
f 13 22 23
f 13 23 24
f 13 24 20
f 16 25 35
f 16 35 26
f 16 18 27
f 16 27 28
f 16 28 36
f 16 36 25
f 19 29 30
f 20 24 31
f 24 32 31
f 25 33 34
f 25 34 35
f 25 36 37
f 25 37 33
f 26 35 38
f 27 39 28
f 28 39 36
f 29 40 30
f 30 41 42
f 30 40 41
f 31 32 44
f 31 44 43
f 33 45 46
f 33 46 47
f 33 47 34
f 33 37 48
f 33 48 45
f 34 49 50
f 34 50 35
f 34 47 49
f 35 50 38
f 36 39 51
f 36 51 37
f 37 51 48
f 38 50 52
f 39 53 54
f 39 54 51
f 40 55 41
f 41 55 56
f 41 56 42
f 42 56 57
f 42 57 58
f 42 58 59
f 43 60 61
f 43 44 60
f 44 62 60
f 45 48 63
f 45 63 46
f 46 63 64
f 46 64 65
f 46 65 66
f 46 66 47
f 47 66 49
f 48 51 54
f 48 54 67
f 48 67 68
f 48 68 63
f 49 66 69
f 49 69 70
f 49 70 50
f 50 70 52
f 52 70 71
f 53 72 73
f 53 73 54
f 54 73 67
f 55 74 57
f 55 57 56
f 57 74 75
f 57 75 76
f 57 76 77
f 57 77 78
f 57 78 79
f 57 79 58
f 58 79 80
f 58 80 59
f 60 81 82
f 60 82 61
f 60 62 81
f 61 82 83
f 62 84 81
f 63 68 85
f 63 85 86
f 63 86 87
f 63 87 64
f 64 87 65
f 65 87 88
f 65 88 89
f 65 89 90
f 65 90 91
f 65 91 92
f 65 92 69
f 65 69 66
f 67 73 85
f 67 85 68
f 69 92 93
f 69 93 94
f 69 94 95
f 69 95 70
f 70 95 96
f 70 96 71
f 72 97 98
f 72 98 85
f 72 85 73
f 75 99 76
f 76 100 77
f 76 99 101
f 76 101 138
f 76 138 100
f 77 102 78
f 77 100 102
f 78 102 103
f 78 103 104
f 78 104 80
f 78 80 79
f 81 105 106
f 81 106 107
f 81 107 108
f 81 108 82
f 81 84 105
f 82 109 83
f 82 108 110
f 82 110 109
f 84 111 112
f 84 112 113
f 84 113 114
f 84 114 115
f 84 115 105
f 85 98 86
f 86 116 117
f 86 117 118
f 86 118 87
f 86 98 116
f 87 118 119
f 87 119 120
f 87 120 121
f 87 121 88
f 88 121 122
f 88 122 123
f 88 123 89
f 89 123 90
f 90 123 124
f 90 124 91
f 91 125 92
f 91 124 125
f 92 125 93
f 93 125 126
f 93 126 94
f 94 126 127
f 94 127 128
f 94 128 129
f 94 129 95
f 95 129 130
f 95 130 131
f 95 131 132
f 95 132 96
f 97 133 134
f 97 134 98
f 98 134 135
f 98 135 136
f 98 136 116
f 99 137 101
f 100 138 139
f 100 139 140
f 100 140 102
f 101 137 141
f 101 141 129
f 101 129 138
f 102 140 142
f 102 142 143
f 102 143 144
f 102 144 145
f 102 145 111
f 102 111 103
f 103 111 104
f 105 146 106
f 105 115 146
f 106 146 147
f 106 147 148
f 106 148 107
f 107 148 108
f 108 148 149
f 108 149 110
f 109 110 150
f 110 149 151
f 110 151 152
f 110 152 153
f 110 153 154
f 110 154 150
f 111 145 155
f 111 155 156
f 111 156 112
f 112 156 157
f 112 157 113
f 113 157 158
f 113 158 159
f 113 159 114
f 114 159 115
f 115 159 146
f 116 160 117
f 116 136 161
f 116 161 160
f 117 160 162
f 117 162 163
f 117 163 118
f 118 163 164
f 118 164 119
f 119 164 120
f 120 164 165
f 120 165 166
f 120 166 121
f 121 166 122
f 122 166 167
f 122 167 168
f 122 168 123
f 123 168 169
f 123 169 126
f 123 126 124
f 124 126 125
f 126 170 127
f 126 169 171
f 126 171 170
f 127 139 128
f 127 170 139
f 128 139 138
f 128 138 129
f 129 141 130
f 133 172 173
f 133 173 134
f 134 173 135
f 135 174 161
f 135 161 136
f 135 173 174
f 139 170 175
f 139 175 176
f 139 176 140
f 140 176 142
f 142 176 155
f 142 155 143
f 143 155 144
f 144 155 145
f 146 177 178
f 146 178 179
f 146 179 147
f 146 159 177
f 147 179 148
f 148 179 180
f 148 180 181
f 148 181 151
f 148 151 149
f 150 154 182
f 151 183 152
f 151 181 183
f 152 183 153
f 153 183 184
f 153 184 154
f 154 184 182
f 155 185 157
f 155 157 156
f 155 176 185
f 157 175 158
f 157 185 175
f 158 175 186
f 158 186 177
f 158 177 159
f 160 161 187
f 160 187 188
f 160 188 189
f 160 189 162
f 161 174 187
f 162 189 163
f 163 189 190
f 163 190 167
f 163 167 164
f 164 167 165
f 165 167 166
f 167 190 191
f 167 191 192
f 167 192 193
f 167 193 168
f 168 186 169
f 168 193 192
f 168 192 186
f 169 170 171
f 169 186 175
f 169 175 170
f 172 194 187
f 172 187 173
f 173 187 174
f 175 185 176
f 177 186 178
f 178 186 195
f 178 195 180
f 178 180 179
f 180 195 181
f 181 195 186
f 181 186 192
f 181 192 190
f 181 190 189
f 181 189 188
f 181 188 196
f 181 196 183
f 183 196 184
f 184 196 197
f 187 194 198
f 187 198 199
f 187 199 196
f 187 196 200
f 187 200 188
f 188 200 196
f 190 192 191
f 196 199 198
f 196 198 197

