# https://github.com/mikedh/trimesh
v -0.02174002 0.01834464 0.00179612
v -0.02174002 0.01834464 0.01303297
v -0.02174002 0.02798967 0.00179612
v -0.00005289 0.01834464 0.00179612
v -0.02174002 0.02006155 0.02027875
v -0.01302568 0.01834464 0.02027875
v -0.02174002 0.02874178 0.02027875
v -0.00005289 0.02798967 0.00179612
v -0.00005289 0.01834464 0.02027875
v -0.00005289 0.02798967 0.02027875
f 1 2 5
f 1 5 7
f 1 7 3
f 1 3 8
f 1 8 4
f 1 4 9
f 1 9 6
f 1 6 2
f 2 6 5
f 3 7 8
f 4 8 10
f 4 10 9
f 5 6 9
f 5 9 10
f 5 10 7
f 7 10 8

