# https://github.com/mikedh/trimesh
v 0.03374406 0.01834464 0.00089309
v 0.03368980 0.01834464 0.00261615
v 0.02880497 0.00658479 0.00376755
v 0.02798209 0.00457832 0.00269399
v 0.03146712 0.01289929 0.00089309
v 0.03372055 0.01834464 -0.00090244
v 0.03368618 0.01834464 0.00269399
v 0.03366810 0.01829883 0.00269399
v 0.02791336 0.00457832 0.00564896
v 0.02795496 0.00457832 0.00446804
v 0.02796762 0.00457832 0.00380512
v 0.02798209 0.00457832 0.00200422
v 0.02798028 0.00457832 0.00089309
v 0.02880678 0.00658344 -0.00026099
v 0.03248532 0.01539491 -0.00090244
v 0.02789709 0.00457832 -0.00270333
v 0.02780666 0.00457832 -0.00450423
v 0.03371693 0.01834464 -0.00097222
v 0.03356863 0.01834464 0.00441973
v 0.03354512 0.01829883 0.00449488
v 0.02788262 0.00457832 0.00629310
v 0.02795496 0.00457832 -0.00089439
v 0.03360119 0.01829883 -0.00270333
v 0.02769091 0.00457832 -0.00630244
v 0.03361927 0.01834464 -0.00270333
v 0.03356321 0.01834464 0.00449488
v 0.03336969 0.01834464 0.00623137
v 0.03239309 0.01561590 0.00531347
v 0.02977253 0.00930005 0.00629310
v 0.02874529 0.00673302 0.00629310
v 0.03065328 0.01186170 0.00740423
v 0.02770357 0.00457832 0.00738544
v 0.03361385 0.01834464 -0.00276238
v 0.02740698 0.00457832 -0.00802014
v 0.03317618 0.01834464 -0.00630513
v 0.03341852 0.01829883 -0.00450423
v 0.03336246 0.01834464 0.00629310
v 0.03334437 0.01829883 0.00629310
v 0.03072382 0.01168787 0.00629310
v 0.03255766 0.01699442 0.00777461
v 0.03239309 0.01741485 0.00897431
v 0.03048509 0.01227674 0.00860393
v 0.02895146 0.00801317 0.00809399
v 0.02758240 0.00457832 0.00808326
v 0.03343661 0.01834464 -0.00450423
v 0.03277650 0.01834464 -0.00809797
v 0.03248171 0.01719386 -0.00749141
v 0.02707421 0.00457832 -0.00910980
v 0.03295192 0.01834464 0.00823355
v 0.03256671 0.01834464 0.00925612
v 0.03072020 0.01347738 0.00919976
v 0.02881944 0.00834735 0.00903067
v 0.02722431 0.00457832 0.00910314
v 0.02707240 0.00459045 -0.00913127
v 0.03230085 0.01762507 -0.00869111
v 0.03271139 0.01834464 -0.00827779
v 0.02705974 0.00457832 -0.00914201
v 0.03210915 0.01834464 0.00991904
v 0.03095350 0.01469959 0.00954330
v 0.03031509 0.01469959 0.01044240
v 0.02861688 0.01063006 0.01058197
v 0.02899848 0.00930005 0.00931248
v 0.02695123 0.00670607 0.01074300
v 0.02738166 0.00570081 0.00957282
v 0.02715921 0.00457832 0.00925344
v 0.03062435 0.01373610 -0.00904807
v 0.02645931 0.00457832 -0.00999012
v 0.03185234 0.01834464 -0.00996865
v 0.03196989 0.01834464 -0.00978078
v 0.03203319 0.01834464 0.01002103
v 0.03052850 0.01576143 0.01071884
v 0.02835645 0.00930005 0.01021159
v 0.02886103 0.01182936 0.01085036
v 0.02719176 0.00790536 0.01095771
v 0.02562558 0.00457832 0.01112411
v 0.02596558 0.00457832 0.01082620
v 0.02674144 0.00570081 0.01047193
v 0.02656601 0.00457832 0.01009081
v 0.02681378 0.00457832 0.00974191
v 0.02553515 0.00457832 -0.01107442
v 0.02663292 0.00570081 -0.01033366
v 0.03043445 0.01597973 -0.01062084
v 0.03068041 0.01717904 -0.01087849
v 0.03091914 0.01834464 -0.01108247
v 0.03076360 0.01696074 0.01093892
v 0.03102403 0.01834464 0.01115364
v 0.02745580 0.00930005 0.01115364
v 0.02488046 0.00457832 0.01157501
v 0.02958625 0.01834464 0.01206348
v 0.02686261 0.00694053 -0.01065036
v 0.02430173 0.00457832 -0.01180980
v 0.02954646 0.01834464 -0.01195473
v 0.02430173 0.00457832 0.01188902
v 0.02853369 0.01834464 0.01256805
v 0.02254023 0.00457832 -0.01246468
v 0.02430173 0.00570081 -0.01202183
v 0.02789890 0.01834464 -0.01266328
v 0.02430173 0.00570081 0.01209837
v 0.02325098 0.00457832 0.01229698
v 0.02273012 0.00457832 0.01245801
v 0.02776687 0.01834464 0.01278545
v 0.02172820 0.00457832 -0.01262302
v 0.02622601 0.01834464 -0.01304708
v 0.02772889 0.01834464 0.01279618
v 0.02216948 0.00457832 0.01258147
v 0.01526994 0.00457832 -0.01350871
v 0.01526994 0.01834464 -0.01370464
v 0.02616090 0.01834464 0.01301358
v 0.01526994 0.00457832 0.01351278
v 0.01526994 0.01834464 -0.00576566
v 0.01530069 0.01834464 0.01369529
v 0.01526994 0.01834195 0.01371408
f 1 2 3
f 1 3 4
f 1 4 5
f 1 5 6
f 1 6 18
f 1 18 25
f 1 25 33
f 1 33 45
f 1 45 35
f 1 35 46
f 1 46 56
f 1 56 69
f 1 69 68
f 1 68 84
f 1 84 92
f 1 92 97
f 1 97 103
f 1 103 107
f 1 107 110
f 1 110 111
f 1 111 108
f 1 108 104
f 1 104 101
f 1 101 94
f 1 94 89
f 1 89 86
f 1 86 70
f 1 70 58
f 1 58 50
f 1 50 49
f 1 49 37
f 1 37 27
f 1 27 26
f 1 26 19
f 1 19 7
f 1 7 2
f 2 7 8
f 2 8 9
f 2 9 10
f 2 10 3
f 3 11 4
f 3 10 11
f 4 11 10
f 4 10 9
f 4 9 21
f 4 21 32
f 4 32 44
f 4 44 53
f 4 53 65
f 4 65 79
f 4 79 78
f 4 78 76
f 4 76 75
f 4 75 88
f 4 88 93
f 4 93 99
f 4 99 100
f 4 100 105
f 4 105 109
f 4 109 106
f 4 106 102
f 4 102 95
f 4 95 91
f 4 91 80
f 4 80 67
f 4 67 57
f 4 57 48
f 4 48 34
f 4 34 24
f 4 24 17
f 4 17 16
f 4 16 22
f 4 22 13
f 4 13 12
f 4 12 5
f 5 12 13
f 5 13 14
f 5 14 6
f 6 14 15
f 6 15 16
f 6 16 17
f 6 17 18
f 7 19 8
f 8 19 20
f 8 20 21
f 8 21 9
f 13 22 14
f 14 22 15
f 15 22 16
f 17 23 18
f 17 24 23
f 18 23 25
f 19 26 20
f 20 26 27
f 20 27 28
f 20 28 29
f 20 29 30
f 20 30 21
f 21 30 31
f 21 31 32
f 23 33 25
f 23 24 33
f 24 34 35
f 24 35 36
f 24 36 33
f 27 37 38
f 27 38 39
f 27 39 28
f 28 39 29
f 29 39 31
f 29 31 30
f 31 40 41
f 31 41 42
f 31 42 43
f 31 43 44
f 31 44 32
f 31 39 38
f 31 38 37
f 31 37 40
f 33 36 45
f 34 46 47
f 34 47 35
f 34 48 46
f 35 47 46
f 35 45 36
f 37 49 40
f 40 49 41
f 41 50 51
f 41 51 52
f 41 52 42
f 41 49 50
f 42 52 43
f 43 52 44
f 44 52 53
f 46 48 54
f 46 54 55
f 46 55 56
f 48 57 54
f 50 58 51
f 51 58 59
f 51 59 60
f 51 60 61
f 51 61 62
f 51 62 52
f 52 62 63
f 52 63 64
f 52 64 65
f 52 65 53
f 54 66 55
f 54 57 67
f 54 67 68
f 54 68 69
f 54 69 66
f 55 66 69
f 55 69 56
f 58 70 71
f 58 71 60
f 58 60 59
f 60 71 61
f 61 71 63
f 61 63 72
f 61 72 62
f 62 72 63
f 63 71 73
f 63 73 74
f 63 74 75
f 63 75 76
f 63 76 77
f 63 77 78
f 63 78 64
f 64 79 65
f 64 78 79
f 67 80 81
f 67 81 82
f 67 82 68
f 68 82 83
f 68 83 84
f 70 85 71
f 70 86 85
f 71 85 73
f 73 85 74
f 74 86 87
f 74 87 75
f 74 85 86
f 75 87 89
f 75 89 88
f 76 78 77
f 80 84 83
f 80 83 90
f 80 90 81
f 80 91 92
f 80 92 84
f 81 90 82
f 82 90 83
f 86 89 87
f 88 89 93
f 89 94 93
f 91 95 96
f 91 96 92
f 92 96 97
f 93 94 98
f 93 98 99
f 94 100 99
f 94 99 98
f 94 101 100
f 95 102 103
f 95 103 97
f 95 97 96
f 100 101 104
f 100 104 105
f 102 106 103
f 103 106 107
f 104 108 105
f 105 108 109
f 106 109 112
f 106 112 110
f 106 110 107
f 108 111 112
f 108 112 109
f 110 112 111

