# https://github.com/mikedh/trimesh
v -0.00005289 0.02729889 -0.03643440
v -0.00005289 0.02909988 -0.03643246
v 0.00090303 0.02729889 -0.03643246
v 0.00090303 0.02549912 -0.03632523
v -0.00005289 0.02645223 -0.03638371
v -0.00005289 0.03028817 -0.03621605
v 0.00090303 0.03028817 -0.03621605
v 0.00090303 0.02909988 -0.03643051
v 0.00270015 0.02729889 -0.03633108
v 0.00270015 0.02549912 -0.03623360
v 0.00378671 0.02456335 -0.03602499
v 0.00270015 0.02449032 -0.03606788
v 0.00090303 0.02441605 -0.03611077
v -0.00005289 0.02549912 -0.03632523
v -0.00005289 0.03055058 -0.03562727
v 0.00090303 0.03078329 -0.03510283
v 0.00270015 0.03071522 -0.03510283
v 0.00270015 0.03022009 -0.03615756
v 0.00450046 0.03011241 -0.03607763
v 0.00270015 0.02909988 -0.03631743
v 0.00450046 0.02909988 -0.03615756
v 0.00450046 0.02729889 -0.03616341
v 0.00549780 0.02623438 -0.03602109
v 0.00443355 0.02558082 -0.03607958
v 0.00498479 0.02503371 -0.03595090
v 0.00990139 0.02407318 -0.03452964
v 0.00630077 0.02370060 -0.03508528
v 0.00443355 0.02385780 -0.03547130
v 0.00270015 0.02359044 -0.03545765
v 0.00090303 0.02351617 -0.03550055
v -0.00005289 0.02441853 -0.03611077
v -0.00005289 0.03078329 -0.03510283
v 0.00810108 0.03099000 -0.03330334
v 0.00450046 0.03060752 -0.03510283
v 0.00990139 0.03091821 -0.03330334
v 0.00810108 0.03049488 -0.03481624
v 0.00548824 0.03002824 -0.03602109
v 0.00990139 0.03042309 -0.03461932
v 0.00554241 0.02909988 -0.03603084
v 0.00554878 0.02729889 -0.03603084
v 0.00645053 0.02729889 -0.03586122
v 0.00810108 0.02729889 -0.03553174
v 0.00810108 0.02549912 -0.03542256
v 0.00617969 0.02558082 -0.03581638
v 0.01122692 0.02437520 -0.03433468
v 0.00990139 0.02317330 -0.03394866
v 0.00860453 0.02292327 -0.03411438
v 0.00804372 0.02359415 -0.03467391
v 0.00630077 0.02260762 -0.03435028
v 0.00740644 0.02274007 -0.03424890
v 0.00450046 0.02244052 -0.03447700
v 0.00270015 0.02233655 -0.03455694
v 0.00090303 0.02228580 -0.03459983
v -0.00005289 0.02293935 -0.03507553
v -0.00005289 0.02351741 -0.03549860
v -0.00005289 0.03099000 -0.03330334
v 0.01350200 0.03099000 -0.03150386
v 0.01530231 0.03081300 -0.03150386
v 0.01350200 0.03049488 -0.03311423
v 0.01136712 0.03023494 -0.03439902
v 0.00990139 0.02909988 -0.03505994
v 0.00810108 0.02909988 -0.03547910
v 0.00990139 0.02729889 -0.03507943
v 0.00990139 0.02549912 -0.03496635
v 0.01242500 0.02510798 -0.03414362
v 0.01625185 0.02454726 -0.03243187
v 0.01530231 0.02420686 -0.03264243
v 0.01355298 0.02359786 -0.03299531
v 0.01177498 0.02374516 -0.03374980
v 0.01170169 0.02228580 -0.03278085
v 0.00981854 0.02180058 -0.03294267
v 0.00810108 0.02076330 -0.03258394
v 0.00804372 0.02204443 -0.03357434
v 0.00630077 0.02170775 -0.03367377
v 0.00630077 0.01834464 -0.03113344
v 0.00630077 0.01842139 -0.03119193
v 0.00630077 0.02051327 -0.03277305
v 0.00450046 0.02154064 -0.03378879
v 0.00270015 0.02143667 -0.03387068
v 0.00270015 0.02026571 -0.03296996
v 0.00090303 0.02138591 -0.03390577
v -0.00005289 0.02229075 -0.03459983
v -0.00005289 0.02798958 -0.01651923
v 0.02789810 0.03096153 -0.01710606
v 0.02969841 0.03098506 -0.01651923
v 0.02789810 0.03099000 -0.01890554
v 0.01889974 0.03099000 -0.02790295
v 0.01709943 0.03098752 -0.02970438
v 0.02069686 0.03088974 -0.02790295
v 0.01906862 0.03059267 -0.02987400
v 0.01858110 0.03032778 -0.03096772
v 0.01700065 0.03045032 -0.03154286
v 0.01530231 0.03031787 -0.03273016
v 0.01633470 0.03009383 -0.03247086
v 0.01350200 0.02909988 -0.03383948
v 0.01257476 0.02909988 -0.03418846
v 0.01167302 0.02909988 -0.03450430
v 0.01188013 0.02744123 -0.03445361
v 0.01262575 0.02630865 -0.03421381
v 0.01177498 0.02562414 -0.03440877
v 0.01333631 0.02562414 -0.03383754
v 0.01636338 0.02549912 -0.03249231
v 0.01726512 0.02549912 -0.03200101
v 0.01971546 0.02516616 -0.03055051
v 0.01851419 0.02408432 -0.03090338
v 0.01789922 0.02288489 -0.03055051
v 0.01670113 0.02241824 -0.03087219
v 0.01530231 0.02330698 -0.03208874
v 0.01530231 0.02549912 -0.03297971
v 0.01418389 0.02292822 -0.03231685
v 0.01298581 0.02257915 -0.03255860
v 0.01170169 0.02138468 -0.03206730
v 0.01036341 0.02113464 -0.03227006
v 0.00810108 0.01834464 -0.03070453
v 0.00652381 0.01834464 -0.03108080
v 0.00453232 0.01834464 -0.03134010
v 0.00422643 0.01834464 -0.03136544
v 0.00270015 0.01936583 -0.03227591
v 0.00262368 0.01834464 -0.03149021
v 0.00090303 0.01932498 -0.03230710
v -0.00005289 0.02186742 -0.03427230
v -0.00005289 0.01834464 -0.01651923
v 0.02785349 0.03084394 -0.01651923
v 0.03152739 0.03055677 -0.01651923
v 0.02969841 0.03098258 -0.01710606
v 0.02429748 0.03096649 -0.02430593
v 0.02249717 0.03099000 -0.02430593
v 0.02249717 0.03094420 -0.02610542
v 0.02246212 0.03047880 -0.02790880
v 0.02069686 0.03039462 -0.02937490
v 0.02432297 0.03053945 -0.02614441
v 0.02184078 0.03019657 -0.02898108
v 0.01641436 0.02909988 -0.03251376
v 0.01530231 0.02909988 -0.03306549
v 0.01978237 0.02909988 -0.03058950
v 0.01888062 0.02909988 -0.03115293
v 0.01731611 0.02909988 -0.03205365
v 0.01530231 0.02729889 -0.03307524
v 0.01333631 0.02744123 -0.03391942
v 0.01262575 0.02693621 -0.03421381
v 0.01259707 0.02813687 -0.03420211
v 0.01643985 0.02729889 -0.03252935
v 0.01733841 0.02729889 -0.03205170
v 0.01980149 0.02636682 -0.03060705
v 0.01902720 0.02566004 -0.03100281
v 0.02052161 0.02566004 -0.03004166
v 0.02191725 0.02549912 -0.02904152
v 0.02177705 0.02434550 -0.02893624
v 0.02070961 0.02372783 -0.02933786
v 0.01902720 0.02357063 -0.03030486
v 0.02011375 0.02248880 -0.02901227
v 0.01883283 0.02189341 -0.02931641
v 0.01577390 0.02121881 -0.03041014
v 0.01522584 0.02185133 -0.03111004
v 0.01938726 0.02128937 -0.02856192
v 0.01722052 0.02185133 -0.03015474
v 0.01457263 0.02094155 -0.03066748
v 0.00989501 0.01834464 -0.02968878
v 0.01818599 0.02091803 -0.02890309
v 0.00270015 0.01834464 -0.03148632
v 0.00090303 0.01834464 -0.03154286
v 0.00082337 0.01834464 -0.03154286
v -0.00005289 0.02084376 -0.03347686
v -0.00005289 0.01834464 -0.03152726
v 0.01329170 0.01834464 -0.01651923
v 0.03224433 0.03018667 -0.01651923
v 0.03154014 0.03045156 -0.01701637
v 0.02986410 0.03058771 -0.01907125
v 0.02789810 0.03089841 -0.02070502
v 0.02609779 0.03094420 -0.02250450
v 0.02614558 0.03053820 -0.02433713
v 0.02373986 0.03026960 -0.02731222
v 0.02557522 0.03029807 -0.02557123
v 0.02391830 0.02909988 -0.02747014
v 0.02286361 0.02909988 -0.02837085
v 0.02196504 0.02909988 -0.02907271
v 0.02069686 0.02909988 -0.02995783
v 0.01979193 0.02784723 -0.03059925
v 0.01980149 0.02664656 -0.03060705
v 0.01907499 0.02726794 -0.03104376
v 0.02052161 0.02726794 -0.03010210
v 0.02196823 0.02729889 -0.02907856
v 0.02286998 0.02729889 -0.02837475
v 0.02281900 0.02549912 -0.02833381
v 0.02131502 0.02314607 -0.02860870
v 0.02389600 0.02549912 -0.02743309
v 0.02370162 0.02408432 -0.02726348
v 0.02334156 0.02288365 -0.02696129
v 0.02214030 0.02222143 -0.02740775
v 0.02156993 0.02102076 -0.02698079
v 0.00990457 0.01834464 -0.02968099
v 0.02037185 0.02076825 -0.02736096
v 0.02249717 0.02071874 -0.02573109
v 0.02421463 0.02067295 -0.02425914
v -0.00005289 0.01887318 -0.03194057
v 0.01302723 0.01834464 -0.02250450
v 0.02789810 0.02007509 -0.01651923
v 0.03247694 0.02909988 -0.01651923
v 0.03204996 0.02909988 -0.01734196
v 0.03115140 0.02909988 -0.01888409
v 0.03096659 0.03032035 -0.01858190
v 0.02937339 0.03040329 -0.02070502
v 0.02789810 0.03048374 -0.02247136
v 0.02729587 0.03026837 -0.02375809
v 0.02576959 0.02909988 -0.02576229
v 0.02481686 0.02909988 -0.02665910
v 0.02666815 0.02909988 -0.02484012
v 0.02393104 0.02729889 -0.02747404
v 0.02483279 0.02729889 -0.02667080
v 0.02479456 0.02549912 -0.02664156
v 0.02549556 0.02370060 -0.02549519
v 0.02525021 0.02271531 -0.02525539
v 0.02421463 0.02202957 -0.02564531
v 0.02264374 0.02173250 -0.02667860
v 0.02355824 0.02090565 -0.02532947
v 0.00991732 0.01834464 -0.02966734
v 0.02429748 0.02017783 -0.02250450
v 0.02541909 0.02085614 -0.02362747
v 0.02604999 0.02065190 -0.02244406
v 0.01302404 0.01834464 -0.02256689
v 0.01293801 0.01834464 -0.02417531
v 0.01291252 0.01834464 -0.02430009
v 0.01237721 0.01834464 -0.02606837
v 0.02789810 0.02010232 -0.01710606
v 0.02848439 0.02016421 -0.01651923
v 0.03249924 0.02729889 -0.01651923
v 0.03204359 0.02729889 -0.01735756
v 0.03103987 0.02736202 -0.01908295
v 0.03060653 0.02680377 -0.01981600
v 0.03059378 0.02800443 -0.01980041
v 0.03057785 0.02909988 -0.01978286
v 0.02898784 0.03020771 -0.02184749
v 0.02576959 0.02729889 -0.02577398
v 0.02667134 0.02729889 -0.02484597
v 0.02745519 0.02909988 -0.02393941
v 0.02747431 0.02729889 -0.02394721
v 0.02574091 0.02549912 -0.02574279
v 0.02639731 0.02370060 -0.02458278
v 0.02703777 0.02273017 -0.02345006
v 0.02593528 0.02212241 -0.02413827
v 0.02475951 0.02151588 -0.02482648
v 0.01141810 0.01834464 -0.02803552
v 0.02609779 0.02020753 -0.02070502
v 0.02662036 0.02152950 -0.02300165
v 0.02715885 0.02087966 -0.02180265
v 0.02781525 0.02074969 -0.02053345
v 0.01229436 0.01834464 -0.02628478
v 0.02789810 0.02035978 -0.01890554
v 0.02971752 0.02053431 -0.01651923
v 0.03246419 0.02568851 -0.01651923
v 0.03201491 0.02549912 -0.01732051
v 0.03060653 0.02624057 -0.01981600
v 0.03010308 0.02736202 -0.02053151
v 0.02908662 0.02909988 -0.02197226
v 0.02996606 0.02909988 -0.02070502
v 0.02835375 0.02909988 -0.02287298
v 0.02663947 0.02549912 -0.02482063
v 0.02745200 0.02549912 -0.02391991
v 0.02837287 0.02729889 -0.02287688
v 0.02724170 0.02370060 -0.02368206
v 0.02822948 0.02363252 -0.02244796
v 0.02872656 0.02298763 -0.02150631
v 0.02743607 0.02203824 -0.02244406
v 0.02880940 0.02099229 -0.01981990
v 0.02906431 0.02082395 -0.01890554
v 0.02972708 0.02063581 -0.01702222
v 0.03007440 0.02067666 -0.01651923
v 0.03245782 0.02549912 -0.01651923
v 0.03236860 0.02465495 -0.01651923
v 0.03057466 0.02504114 -0.01976921
v 0.03101757 0.02558453 -0.01906346
v 0.03006803 0.02558453 -0.02053151
v 0.02905476 0.02549912 -0.02194497
v 0.02908343 0.02729889 -0.02197811
v 0.02835056 0.02549912 -0.02284568
v 0.02895279 0.02418706 -0.02181044
v 0.02944987 0.02363252 -0.02082590
v 0.03039941 0.02370060 -0.01947287
v 0.03070849 0.02257544 -0.01819978
v 0.02907387 0.02190084 -0.02019227
v 0.02841429 0.02190084 -0.02109299
v 0.03034524 0.02137602 -0.01756811
v 0.03063520 0.02098611 -0.01651923
v 0.03045995 0.02086233 -0.01651923
v 0.03227301 0.02425019 -0.01651923
v 0.03092835 0.02370060 -0.01857411
v 0.03183966 0.02378725 -0.01699298
v 0.03199579 0.02356692 -0.01651923
v 0.03121512 0.02195035 -0.01651923
v 0.03096977 0.02194540 -0.01702222
v 0.03074354 0.02116435 -0.01651923
f 1 2 8
f 1 8 3
f 1 3 4
f 1 4 5
f 1 5 14
f 1 14 31
f 1 31 55
f 1 55 54
f 1 54 82
f 1 82 121
f 1 121 163
f 1 163 195
f 1 195 164
f 1 164 122
f 1 122 83
f 1 83 56
f 1 56 32
f 1 32 15
f 1 15 6
f 1 6 2
f 2 6 7
f 2 7 8
f 3 8 9
f 3 9 10
f 3 10 4
f 4 10 11
f 4 11 12
f 4 12 13
f 4 13 14
f 4 14 5
f 6 15 7
f 7 16 17
f 7 17 18
f 7 18 8
f 7 15 16
f 8 18 19
f 8 19 20
f 8 20 9
f 9 20 21
f 9 21 22
f 9 22 23
f 9 23 10
f 10 23 24
f 10 24 11
f 11 24 25
f 11 25 26
f 11 26 27
f 11 27 28
f 11 28 29
f 11 29 12
f 12 29 30
f 12 30 13
f 13 30 31
f 13 31 14
f 15 32 16
f 16 32 56
f 16 56 33
f 16 33 17
f 17 34 18
f 17 33 35
f 17 35 36
f 17 36 34
f 18 34 36
f 18 36 19
f 19 37 20
f 19 36 38
f 19 38 37
f 20 37 21
f 21 37 39
f 21 39 22
f 22 39 40
f 22 40 23
f 23 25 24
f 23 40 41
f 23 41 42
f 23 42 43
f 23 43 44
f 23 44 25
f 25 44 43
f 25 43 26
f 26 45 46
f 26 46 47
f 26 47 48
f 26 48 27
f 26 43 45
f 27 49 28
f 27 48 50
f 27 50 49
f 28 51 29
f 28 49 51
f 29 51 52
f 29 52 30
f 30 52 53
f 30 53 54
f 30 54 55
f 30 55 31
f 33 57 35
f 33 56 86
f 33 86 127
f 33 127 87
f 33 87 57
f 35 38 36
f 35 57 58
f 35 58 59
f 35 59 38
f 37 38 60
f 37 60 61
f 37 61 62
f 37 62 42
f 37 42 39
f 38 59 60
f 39 42 41
f 39 41 40
f 42 62 61
f 42 61 63
f 42 63 43
f 43 63 64
f 43 64 45
f 45 64 65
f 45 65 66
f 45 66 67
f 45 67 68
f 45 68 69
f 45 69 46
f 46 69 70
f 46 70 71
f 46 71 47
f 47 71 72
f 47 72 73
f 47 73 50
f 47 50 48
f 49 50 74
f 49 74 51
f 50 73 72
f 50 72 75
f 50 75 76
f 50 76 77
f 50 77 74
f 51 78 79
f 51 79 52
f 51 74 77
f 51 77 76
f 51 76 75
f 51 75 78
f 52 79 53
f 53 79 80
f 53 80 118
f 53 118 81
f 53 81 82
f 53 82 54
f 56 83 84
f 56 84 85
f 56 85 86
f 57 87 88
f 57 88 58
f 58 88 89
f 58 89 90
f 58 90 91
f 58 91 92
f 58 92 93
f 58 93 59
f 59 93 60
f 60 93 94
f 60 94 95
f 60 95 96
f 60 96 97
f 60 97 61
f 61 97 63
f 63 97 98
f 63 98 99
f 63 99 64
f 64 99 100
f 64 100 65
f 65 100 99
f 65 99 101
f 65 101 66
f 66 102 103
f 66 103 104
f 66 104 105
f 66 105 106
f 66 106 107
f 66 107 108
f 66 108 67
f 66 101 109
f 66 109 102
f 67 108 68
f 68 110 111
f 68 111 69
f 68 108 110
f 69 111 70
f 70 112 113
f 70 113 71
f 70 111 112
f 71 114 72
f 71 113 114
f 72 115 75
f 72 114 115
f 75 116 78
f 75 115 114
f 75 114 158
f 75 158 191
f 75 191 216
f 75 216 242
f 75 242 247
f 75 247 223
f 75 223 222
f 75 222 221
f 75 221 220
f 75 220 196
f 75 196 165
f 75 165 122
f 75 122 164
f 75 164 162
f 75 162 161
f 75 161 119
f 75 119 160
f 75 160 117
f 75 117 116
f 78 116 79
f 79 116 80
f 80 116 117
f 80 117 118
f 81 118 119
f 81 119 120
f 81 120 121
f 81 121 82
f 83 122 165
f 83 165 197
f 83 197 225
f 83 225 249
f 83 249 267
f 83 267 284
f 83 284 283
f 83 283 291
f 83 291 289
f 83 289 288
f 83 288 285
f 83 285 269
f 83 269 268
f 83 268 250
f 83 250 226
f 83 226 198
f 83 198 166
f 83 166 124
f 83 124 85
f 83 85 123
f 83 123 84
f 84 123 85
f 85 124 125
f 85 125 86
f 86 125 126
f 86 126 127
f 87 127 126
f 87 126 88
f 88 126 128
f 88 128 89
f 89 129 130
f 89 130 90
f 89 128 131
f 89 131 129
f 90 130 91
f 91 94 93
f 91 93 92
f 91 130 132
f 91 132 94
f 94 133 134
f 94 134 95
f 94 132 135
f 94 135 136
f 94 136 137
f 94 137 133
f 95 138 139
f 95 139 140
f 95 140 141
f 95 141 96
f 95 134 138
f 96 141 97
f 97 141 140
f 97 140 98
f 98 140 99
f 99 140 139
f 99 139 138
f 99 138 109
f 99 109 101
f 102 109 138
f 102 138 142
f 102 142 143
f 102 143 103
f 103 143 144
f 103 144 145
f 103 145 104
f 104 145 144
f 104 144 146
f 104 146 147
f 104 147 148
f 104 148 105
f 105 148 149
f 105 149 150
f 105 150 106
f 106 150 151
f 106 151 152
f 106 152 107
f 107 153 154
f 107 154 110
f 107 110 108
f 107 152 155
f 107 155 156
f 107 156 153
f 110 154 111
f 111 154 153
f 111 153 157
f 111 157 112
f 112 114 113
f 112 157 114
f 114 157 159
f 114 159 158
f 117 160 118
f 118 160 119
f 119 161 120
f 120 161 162
f 120 162 163
f 120 163 121
f 124 166 167
f 124 167 168
f 124 168 169
f 124 169 125
f 125 169 170
f 125 170 126
f 126 170 171
f 126 171 131
f 126 131 128
f 129 132 130
f 129 131 172
f 129 172 132
f 131 171 173
f 131 173 172
f 132 172 174
f 132 174 175
f 132 175 176
f 132 176 177
f 132 177 135
f 133 142 134
f 133 137 142
f 134 142 138
f 135 177 178
f 135 178 136
f 136 143 137
f 136 178 179
f 136 179 180
f 136 180 143
f 137 143 142
f 143 180 144
f 144 180 179
f 144 179 181
f 144 181 182
f 144 182 147
f 144 147 146
f 147 182 183
f 147 183 184
f 147 184 148
f 148 185 149
f 148 184 186
f 148 186 187
f 148 187 188
f 148 188 185
f 149 185 151
f 149 151 150
f 151 185 189
f 151 189 190
f 151 190 155
f 151 155 152
f 153 156 159
f 153 159 157
f 155 190 159
f 155 159 156
f 158 159 192
f 158 192 193
f 158 193 194
f 158 194 191
f 159 190 192
f 162 164 195
f 162 195 163
f 165 196 197
f 166 198 199
f 166 199 200
f 166 200 201
f 166 201 167
f 167 201 168
f 168 202 169
f 168 201 202
f 169 202 203
f 169 203 171
f 169 171 170
f 171 203 204
f 171 204 173
f 172 173 205
f 172 205 206
f 172 206 174
f 173 204 207
f 173 207 205
f 174 208 175
f 174 206 209
f 174 209 208
f 175 208 183
f 175 183 176
f 176 182 181
f 176 181 177
f 176 183 182
f 177 181 178
f 178 181 179
f 183 208 186
f 183 186 184
f 185 188 189
f 186 208 210
f 186 210 187
f 187 210 211
f 187 211 212
f 187 212 188
f 188 212 213
f 188 213 214
f 188 214 189
f 189 214 190
f 190 214 215
f 190 215 192
f 191 194 217
f 191 217 216
f 192 215 193
f 193 215 194
f 194 215 218
f 194 218 219
f 194 219 217
f 196 220 197
f 197 220 221
f 197 221 222
f 197 222 223
f 197 223 224
f 197 224 225
f 198 226 199
f 199 226 227
f 199 227 228
f 199 228 200
f 200 228 229
f 200 229 230
f 200 230 231
f 200 231 232
f 200 232 201
f 201 232 202
f 202 232 203
f 203 232 204
f 204 232 207
f 205 207 233
f 205 233 209
f 205 209 206
f 207 234 233
f 207 232 235
f 207 235 236
f 207 236 234
f 208 209 210
f 209 233 237
f 209 237 210
f 210 237 211
f 211 237 238
f 211 238 212
f 212 238 239
f 212 239 240
f 212 240 241
f 212 241 213
f 213 241 214
f 214 241 215
f 215 241 218
f 216 217 243
f 216 243 242
f 217 219 243
f 218 241 244
f 218 244 245
f 218 245 219
f 219 245 246
f 219 246 243
f 223 247 224
f 224 243 248
f 224 248 225
f 224 247 242
f 224 242 243
f 225 248 249
f 226 250 227
f 227 251 252
f 227 252 228
f 227 250 251
f 228 252 229
f 229 252 253
f 229 253 254
f 229 254 255
f 229 255 230
f 230 255 231
f 231 255 232
f 232 255 254
f 232 254 256
f 232 256 235
f 233 234 257
f 233 257 237
f 234 236 258
f 234 258 257
f 235 256 236
f 236 256 259
f 236 259 258
f 237 257 238
f 238 257 260
f 238 260 239
f 239 260 261
f 239 261 262
f 239 262 263
f 239 263 244
f 239 244 240
f 240 244 241
f 243 246 248
f 244 263 245
f 245 263 264
f 245 264 246
f 246 264 265
f 246 265 248
f 248 265 266
f 248 266 249
f 249 266 267
f 250 268 251
f 251 268 269
f 251 269 270
f 251 270 271
f 251 271 252
f 252 271 270
f 252 270 272
f 252 272 273
f 252 273 274
f 252 274 253
f 253 274 254
f 254 274 259
f 254 259 256
f 257 258 260
f 258 259 275
f 258 275 276
f 258 276 260
f 259 274 275
f 260 276 261
f 261 276 262
f 262 276 277
f 262 277 278
f 262 278 279
f 262 279 280
f 262 280 281
f 262 281 263
f 263 281 264
f 264 281 280
f 264 280 279
f 264 279 282
f 264 282 283
f 264 283 284
f 264 284 265
f 265 284 266
f 266 284 267
f 269 285 270
f 270 278 276
f 270 276 273
f 270 273 272
f 270 285 286
f 270 286 278
f 273 276 275
f 273 275 274
f 276 278 277
f 278 286 279
f 279 286 287
f 279 287 288
f 279 288 289
f 279 289 290
f 279 290 282
f 282 290 283
f 283 290 291
f 285 288 287
f 285 287 286
f 289 291 290

