# https://github.com/mikedh/trimesh
v 0.03642691 0.02729889 0.00089580
v 0.03637983 0.02549912 0.00089580
v 0.03637460 0.02549912 -0.00010361
v 0.03641645 0.02729889 -0.00010361
v 0.03642342 0.02909988 0.00089580
v 0.03632753 0.02729889 0.00269564
v 0.03629091 0.02549912 0.00269564
v 0.03616712 0.02417592 0.00089580
v 0.03616538 0.02418582 -0.00010361
v 0.03612702 0.02427494 0.00269564
v 0.03641296 0.02909988 -0.00010361
v 0.03629963 0.02975220 -0.00010361
v 0.03621071 0.03028693 0.00089580
v 0.03616015 0.03022752 0.00269564
v 0.03632404 0.02909988 0.00269564
v 0.03614794 0.02729889 0.00449769
v 0.03609738 0.02543600 0.00462814
v 0.03606251 0.02444328 0.00411517
v 0.03598928 0.02479481 0.00531580
v 0.03580272 0.02327603 0.00089580
v 0.03579574 0.02328594 -0.00010361
v 0.03576087 0.02337506 0.00269564
v 0.03356401 0.01834464 0.00449769
v 0.03620374 0.03028074 -0.00010361
v 0.03509833 0.03077587 -0.00010361
v 0.03509833 0.03078206 0.00089580
v 0.03509833 0.03072264 0.00269564
v 0.03606948 0.03010745 0.00449769
v 0.03481587 0.03049488 0.00809736
v 0.03462408 0.03043671 0.00989720
v 0.03601543 0.03002699 0.00549047
v 0.03614271 0.02909988 0.00449769
v 0.03602589 0.02909988 0.00554354
v 0.03602764 0.02729889 0.00555460
v 0.03601892 0.02599424 0.00550374
v 0.03546099 0.02370060 0.00629753
v 0.03476706 0.02190084 0.00629753
v 0.03430676 0.02073112 0.00629753
v 0.03336350 0.01834464 0.00629753
v 0.03586374 0.02543600 0.00618034
v 0.03547145 0.02549912 0.00809736
v 0.03510007 0.02370060 0.00809736
v 0.03368606 0.01834464 0.00269564
v 0.03368954 0.01834464 0.00261825
v 0.03523258 0.02190084 0.00089580
v 0.03554293 0.02267323 -0.00010361
v 0.03356924 0.01834464 0.00442251
v 0.03329899 0.03099000 -0.00010361
v 0.03329899 0.03099000 0.00809736
v 0.03329899 0.03093059 0.00989720
v 0.03441311 0.03025228 0.01136537
v 0.03310197 0.03049488 0.01349466
v 0.03272711 0.03032778 0.01529450
v 0.03505823 0.02909988 0.00989720
v 0.03546970 0.02909988 0.00809736
v 0.03583062 0.02909988 0.00644346
v 0.03550981 0.02729889 0.00809736
v 0.03585851 0.02729889 0.00645451
v 0.03422656 0.02093288 0.00729916
v 0.03295202 0.01834464 0.00823666
v 0.03506869 0.02729889 0.00989720
v 0.03502510 0.02549912 0.00989720
v 0.03437824 0.02408061 0.01133663
v 0.03458398 0.02356816 0.01000997
v 0.03417076 0.02287994 0.01068435
v 0.03432071 0.02251355 0.00948372
v 0.03444276 0.02190827 0.00797796
v 0.03374359 0.01834464 0.00089580
v 0.03415158 0.01931508 0.00089580
v 0.03452819 0.02021496 0.00089580
v 0.03452296 0.02022857 -0.00010361
v 0.01861486 0.02798958 -0.00010361
v 0.02223620 0.03059391 0.02248501
v 0.02431102 0.03099000 0.02248501
v 0.03149965 0.03099000 0.01349466
v 0.03149965 0.03082290 0.01529450
v 0.03418122 0.02909988 0.01256379
v 0.03451947 0.02909988 0.01166387
v 0.03248127 0.03010745 0.01634256
v 0.03382205 0.02909988 0.01349466
v 0.03153104 0.03045528 0.01700368
v 0.03087372 0.03025351 0.01889418
v 0.03256670 0.01834464 0.00925819
v 0.03254404 0.02248384 0.01469971
v 0.03451773 0.02729889 0.01167272
v 0.03449157 0.02549912 0.01163955
v 0.03417948 0.02549912 0.01253947
v 0.03381159 0.02549912 0.01349466
v 0.03346811 0.02370060 0.01349466
v 0.03402605 0.02356816 0.01184076
v 0.03372964 0.01834464 -0.00010361
v 0.03396328 0.01889670 -0.00010361
v 0.03431373 0.01972850 -0.00010361
v 0.01861486 0.02814182 0.02248501
v 0.01872121 0.02825199 0.02248501
v 0.02124761 0.03020771 0.02248501
v 0.02203744 0.03052831 0.02248501
v 0.01861486 0.01834464 -0.00010361
v 0.02611210 0.03095410 0.02248501
v 0.02610164 0.03099000 0.02069401
v 0.02789923 0.03099000 0.01889418
v 0.02969857 0.03098258 0.01709434
v 0.02969857 0.03074864 0.01889418
v 0.03419168 0.02729889 0.01257263
v 0.03384123 0.02729889 0.01349466
v 0.03252660 0.02909988 0.01643101
v 0.03306710 0.02909988 0.01529450
v 0.03061219 0.03001834 0.01981399
v 0.02962186 0.03032283 0.02052597
v 0.02897151 0.03018915 0.02182831
v 0.03210989 0.01834464 0.00992152
v 0.03220579 0.02128442 0.01393688
v 0.03073424 0.02088461 0.01645091
v 0.02877798 0.02102200 0.01976756
v 0.03272711 0.02377115 0.01529671
v 0.03225286 0.02321786 0.01590034
v 0.03074295 0.02251726 0.01821979
v 0.03103936 0.02191074 0.01706781
v 0.03191810 0.02189094 0.01529671
v 0.03307930 0.02729889 0.01529450
v 0.03304094 0.02549912 0.01529450
v 0.03246209 0.02441853 0.01631603
v 0.01861486 0.02001444 0.02248501
v 0.01861486 0.01834464 0.01301043
v 0.02657588 0.03083033 0.02248501
v 0.02789923 0.03088355 0.02069401
v 0.02790969 0.03048126 0.02245405
v 0.03252834 0.02729889 0.01644206
v 0.03203666 0.02909988 0.01733093
v 0.03205235 0.02729889 0.01734198
v 0.02996708 0.02909988 0.02072055
v 0.02908484 0.02729889 0.02196761
v 0.03061568 0.02909988 0.01982063
v 0.03115443 0.02909988 0.01889418
v 0.02859491 0.02949227 0.02248501
v 0.02866291 0.02909988 0.02248501
v 0.02906566 0.02909988 0.02195434
v 0.02789749 0.03047632 0.02248501
v 0.03203318 0.01834464 0.01002323
v 0.03036635 0.02131784 0.01765154
v 0.02914064 0.02222267 0.02026064
v 0.02869254 0.02303467 0.02145905
v 0.02840312 0.02173374 0.02079351
v 0.02742150 0.02190084 0.02207595
v 0.02706930 0.02094897 0.02167353
v 0.03188323 0.02377115 0.01698821
v 0.03096438 0.02370060 0.01858904
v 0.03038902 0.02370060 0.01948896
v 0.03250916 0.02549912 0.01640890
v 0.03203666 0.02549912 0.01730882
v 0.03057906 0.02514140 0.01976314
v 0.02070014 0.02001072 0.02248501
v 0.02070014 0.01834464 0.01303254
v 0.02788180 0.03048126 0.02248501
v 0.03116141 0.02729889 0.01889418
v 0.02868208 0.02729889 0.02248501
v 0.02906043 0.02549912 0.02192781
v 0.03007692 0.02564519 0.02051712
v 0.02998451 0.02729889 0.02070728
v 0.03060870 0.02729889 0.01980736
v 0.03102541 0.01834464 0.01115532
v 0.02944227 0.02366099 0.02079351
v 0.02895233 0.02423533 0.02178851
v 0.02803523 0.02350750 0.02248501
v 0.02704315 0.02190084 0.02248501
v 0.02589416 0.02078682 0.02248501
v 0.02596913 0.02076578 0.02236118
v 0.03103064 0.02564519 0.01905559
v 0.03060173 0.02634207 0.01979852
v 0.02250122 0.02004786 0.02248501
v 0.02436333 0.01834464 0.01303254
v 0.02610164 0.01834464 0.01301707
v 0.02616266 0.01834464 0.01301264
v 0.02861234 0.02549912 0.02248501
v 0.02958698 0.01834464 0.01206408
v 0.02443307 0.02032636 0.02248501
v 0.02430056 0.02028675 0.02248501
v 0.02808753 0.02362634 0.02248501
v 0.02772837 0.01834464 0.01279817
v 0.02853214 0.01834464 0.01256821
f 1 2 3
f 1 3 4
f 1 4 11
f 1 11 5
f 1 5 15
f 1 15 6
f 1 6 7
f 1 7 2
f 2 8 9
f 2 9 3
f 2 7 10
f 2 10 8
f 3 9 21
f 3 21 46
f 3 46 71
f 3 71 93
f 3 93 92
f 3 92 91
f 3 91 98
f 3 98 72
f 3 72 48
f 3 48 25
f 3 25 24
f 3 24 12
f 3 12 11
f 3 11 4
f 5 11 12
f 5 12 13
f 5 13 14
f 5 14 15
f 6 15 16
f 6 16 17
f 6 17 7
f 7 18 10
f 7 17 19
f 7 19 18
f 8 20 9
f 8 10 20
f 9 20 21
f 10 22 20
f 10 18 23
f 10 23 22
f 12 24 13
f 13 24 25
f 13 25 26
f 13 26 27
f 13 27 14
f 14 28 15
f 14 27 29
f 14 29 30
f 14 30 28
f 15 28 31
f 15 31 32
f 15 32 16
f 16 32 33
f 16 33 34
f 16 34 35
f 16 35 17
f 17 35 19
f 18 19 36
f 18 36 37
f 18 37 38
f 18 38 39
f 18 39 23
f 19 35 40
f 19 40 41
f 19 41 42
f 19 42 36
f 20 43 44
f 20 44 45
f 20 45 46
f 20 46 21
f 20 22 43
f 22 23 47
f 22 47 43
f 23 39 60
f 23 60 83
f 23 83 111
f 23 111 139
f 23 139 161
f 23 161 175
f 23 175 180
f 23 180 179
f 23 179 173
f 23 173 172
f 23 172 171
f 23 171 153
f 23 153 124
f 23 124 98
f 23 98 91
f 23 91 68
f 23 68 44
f 23 44 43
f 23 43 47
f 25 48 26
f 26 48 49
f 26 49 50
f 26 50 27
f 27 50 29
f 28 30 31
f 29 50 30
f 30 51 31
f 30 50 52
f 30 52 53
f 30 53 51
f 31 51 54
f 31 54 55
f 31 55 56
f 31 56 33
f 31 33 32
f 33 56 57
f 33 57 58
f 33 58 34
f 34 58 35
f 35 58 41
f 35 41 40
f 36 42 59
f 36 59 37
f 37 59 38
f 38 59 39
f 39 59 60
f 41 58 57
f 41 57 61
f 41 61 62
f 41 62 63
f 41 63 42
f 42 63 64
f 42 64 65
f 42 65 66
f 42 66 67
f 42 67 59
f 44 68 69
f 44 69 70
f 44 70 45
f 45 70 71
f 45 71 46
f 48 72 73
f 48 73 74
f 48 74 100
f 48 100 101
f 48 101 75
f 48 75 49
f 49 75 50
f 50 75 76
f 50 76 52
f 51 77 78
f 51 78 54
f 51 53 79
f 51 79 80
f 51 80 77
f 52 76 53
f 53 76 81
f 53 81 82
f 53 82 79
f 54 78 61
f 54 61 57
f 54 57 55
f 55 57 56
f 59 67 66
f 59 66 65
f 59 65 60
f 60 65 84
f 60 84 83
f 61 78 85
f 61 85 86
f 61 86 62
f 62 86 63
f 63 65 64
f 63 86 87
f 63 87 88
f 63 88 89
f 63 89 90
f 63 90 65
f 65 90 84
f 68 91 92
f 68 92 93
f 68 93 69
f 69 93 70
f 70 93 71
f 72 94 95
f 72 95 96
f 72 96 97
f 72 97 73
f 72 98 124
f 72 124 123
f 72 123 94
f 73 97 96
f 73 96 95
f 73 95 94
f 73 94 123
f 73 123 152
f 73 152 170
f 73 170 177
f 73 177 176
f 73 176 166
f 73 166 165
f 73 165 164
f 73 164 178
f 73 178 174
f 73 174 156
f 73 156 136
f 73 136 135
f 73 135 138
f 73 138 154
f 73 154 125
f 73 125 99
f 73 99 74
f 74 99 100
f 75 101 102
f 75 102 76
f 76 102 103
f 76 103 81
f 77 104 78
f 77 80 105
f 77 105 104
f 78 104 85
f 79 106 107
f 79 107 80
f 79 82 108
f 79 108 106
f 80 107 105
f 81 103 82
f 82 103 109
f 82 109 110
f 82 110 108
f 83 84 112
f 83 112 113
f 83 113 114
f 83 114 111
f 84 89 115
f 84 115 116
f 84 116 117
f 84 117 118
f 84 118 119
f 84 119 112
f 84 90 89
f 85 104 87
f 85 87 86
f 87 104 105
f 87 105 88
f 88 105 120
f 88 120 121
f 88 121 122
f 88 122 89
f 89 122 115
f 99 125 126
f 99 126 102
f 99 102 101
f 99 101 100
f 102 126 103
f 103 126 127
f 103 127 109
f 105 107 120
f 106 128 120
f 106 120 107
f 106 108 129
f 106 129 130
f 106 130 128
f 108 131 132
f 108 132 133
f 108 133 134
f 108 134 129
f 108 110 135
f 108 135 136
f 108 136 137
f 108 137 131
f 109 127 110
f 110 127 138
f 110 138 135
f 111 114 139
f 112 119 113
f 113 119 118
f 113 118 140
f 113 140 114
f 114 140 117
f 114 117 141
f 114 141 142
f 114 142 143
f 114 143 144
f 114 144 145
f 114 145 139
f 115 122 116
f 116 122 146
f 116 146 117
f 117 140 118
f 117 146 147
f 117 147 148
f 117 148 142
f 117 142 141
f 120 128 149
f 120 149 121
f 121 149 122
f 122 149 150
f 122 150 151
f 122 151 147
f 122 147 146
f 123 124 153
f 123 153 152
f 125 154 127
f 125 127 126
f 127 154 138
f 128 130 150
f 128 150 149
f 129 134 130
f 130 134 155
f 130 155 150
f 131 137 132
f 132 137 136
f 132 136 156
f 132 156 157
f 132 157 158
f 132 158 159
f 132 159 133
f 133 159 160
f 133 160 155
f 133 155 134
f 139 145 161
f 142 148 162
f 142 162 163
f 142 163 164
f 142 164 165
f 142 165 144
f 142 144 143
f 144 165 145
f 145 165 166
f 145 166 167
f 145 167 161
f 147 151 148
f 148 151 163
f 148 163 162
f 150 155 168
f 150 168 151
f 151 168 169
f 151 169 158
f 151 158 157
f 151 157 163
f 152 153 171
f 152 171 172
f 152 172 173
f 152 173 170
f 155 160 169
f 155 169 168
f 156 174 157
f 157 174 163
f 158 169 159
f 159 169 160
f 161 167 176
f 161 176 177
f 161 177 175
f 163 174 178
f 163 178 164
f 166 176 167
f 170 173 179
f 170 179 180
f 170 180 175
f 170 175 177

