# https://github.com/mikedh/trimesh
v 0.01861486 0.02814189 0.02248501
v -0.00005289 0.02798941 0.02248501
v 0.01861486 0.02001428 0.02248501
v 0.01861486 0.02798941 -0.00010361
v -0.00005289 0.02798941 -0.00010361
v -0.00005289 0.01834464 0.02248501
v 0.01302148 0.01835231 0.02248501
v 0.01861486 0.01834464 0.01301043
v 0.01861486 0.01834464 -0.00010361
v -0.00005289 0.01834464 -0.00010361
v 0.01296666 0.01834464 0.02248501
v 0.01301600 0.01834464 0.02243194
f 1 2 6
f 1 6 11
f 1 11 7
f 1 7 3
f 1 3 8
f 1 8 9
f 1 9 4
f 1 4 5
f 1 5 2
f 2 5 10
f 2 10 6
f 3 7 8
f 4 9 10
f 4 10 5
f 6 10 9
f 6 9 8
f 6 8 12
f 6 12 11
f 7 11 12
f 7 12 8

