# https://github.com/mikedh/trimesh
v -0.02047496 0.02814118 -0.02078414
v -0.02047496 0.02814118 -0.03013632
v -0.02047496 0.02892421 -0.02170310
v -0.02893361 0.02814118 0.00179612
v -0.02116084 0.02814118 -0.02965495
v -0.02197171 0.02910017 -0.02907670
v -0.02047496 0.02890107 -0.03012694
v -0.02047496 0.02937568 -0.02224073
v -0.03051004 0.02986508 0.00179612
v -0.03638297 0.02814118 0.00179612
v -0.02047496 0.02941277 -0.02229074
v -0.02047496 0.03052905 -0.02407553
v -0.02047496 0.03058314 -0.02417243
v -0.02197327 0.02814118 -0.02908294
v -0.02239511 0.02814118 -0.02875474
v -0.02287163 0.02910017 -0.02837028
v -0.02184203 0.03019749 -0.02897980
v -0.02047496 0.02897915 -0.03012381
v -0.02052183 0.02894708 -0.03009256
v -0.03062409 0.02998249 0.00179612
v -0.03638297 0.02910017 0.00179612
v -0.03643297 0.02814118 0.00089278
v -0.02047496 0.03060490 -0.02423494
v -0.02287319 0.02814118 -0.02837653
v -0.02393404 0.02814118 -0.02747632
v -0.02392310 0.02910017 -0.02747320
v -0.02070150 0.03039548 -0.02937364
v -0.02047496 0.03016040 -0.02967371
v -0.02374187 0.03027055 -0.02731066
v -0.02246541 0.03047885 -0.02790767
v -0.03074127 0.03005359 0.00179612
v -0.03629704 0.02966431 0.00179612
v -0.03643297 0.02910017 0.00089278
v -0.03643453 0.02814118 -0.00006369
v -0.02047496 0.03097188 -0.02610413
v -0.03144433 0.03045933 0.00179612
v -0.02483396 0.02814118 -0.02666363
v -0.02482458 0.02910017 -0.02666051
v -0.02070150 0.03089045 -0.02790142
v -0.02047496 0.03084918 -0.02817648
v -0.02047496 0.03042308 -0.02944240
v -0.02557765 0.03029899 -0.02556963
v -0.02432463 0.03053965 -0.02614163
v -0.03618611 0.03025772 0.00179612
v -0.03621111 0.03028728 0.00089278
v -0.03620017 0.03027585 -0.00090451
v -0.03641578 0.02910017 -0.00090451
v -0.03642515 0.02814118 -0.00090451
v -0.02047496 0.03099000 -0.02632918
v -0.03329886 0.03099000 0.00179612
v -0.02527767 0.02814118 -0.02624478
v -0.02577294 0.02910017 -0.02576030
v -0.02047496 0.03090300 -0.02790142
v -0.02250135 0.03094538 -0.02610413
v -0.02667287 0.02910017 -0.02483821
v -0.02729781 0.03026915 -0.02375358
v -0.02614635 0.03053881 -0.02433497
v -0.02430119 0.03096658 -0.02430371
v -0.03509871 0.03075269 0.00179612
v -0.03509871 0.03078225 0.00089278
v -0.03509871 0.03077110 -0.00090451
v -0.03509871 0.03073680 -0.00270493
v -0.03616893 0.03024183 -0.00270493
v -0.03634079 0.02910017 -0.00270493
v -0.03634235 0.02814118 -0.00270493
v -0.02070150 0.03099000 -0.02610413
v -0.03329886 0.03099000 -0.00810619
v -0.02577451 0.02814118 -0.02576342
v -0.02619478 0.02814118 -0.02533520
v -0.02667443 0.02814118 -0.02484446
v -0.02746030 0.02814118 -0.02394425
v -0.02745405 0.02910017 -0.02394112
v -0.02898985 0.03020781 -0.02184376
v -0.02789932 0.03048443 -0.02246891
v -0.02790089 0.03089854 -0.02070287
v -0.02610104 0.03094427 -0.02250329
v -0.02969917 0.03098275 -0.01710203
v -0.02790089 0.03099000 -0.01890245
v -0.03329886 0.03091638 -0.00990661
v -0.03482216 0.03049475 -0.00810619
v -0.03607987 0.03011773 -0.00450535
v -0.03600331 0.03000759 -0.00543369
v -0.03616268 0.02910017 -0.00450535
v -0.03616424 0.02814118 -0.00450535
v -0.03149901 0.03099000 -0.01170703
v -0.03149901 0.03098610 -0.01350745
v -0.02788057 0.02814118 -0.02344726
v -0.02835397 0.02910017 -0.02286900
v -0.02908672 0.02910017 -0.02196879
v -0.02996321 0.02910017 -0.02070287
v -0.03057565 0.02910017 -0.01977453
v -0.03115373 0.02910017 -0.01887432
v -0.03247237 0.03010212 -0.01635498
v -0.03096781 0.03032046 -0.01858050
v -0.02937576 0.03040329 -0.02070287
v -0.02986634 0.03058817 -0.01906812
v -0.03149901 0.03081516 -0.01530161
v -0.03461594 0.03042141 -0.00990661
v -0.03329886 0.03067406 -0.01170703
v -0.03434564 0.03017908 -0.01170703
v -0.03420347 0.03000647 -0.01261661
v -0.03505027 0.02910017 -0.00990661
v -0.03549242 0.02910017 -0.00810619
v -0.03593613 0.02814118 -0.00601508
v -0.03601425 0.02910017 -0.00549308
v -0.03609237 0.02814118 -0.00507423
v -0.02836022 0.02814118 -0.02287212
v -0.02908672 0.02814118 -0.02197192
v -0.02996946 0.02814118 -0.02070287
v -0.02870238 0.02814118 -0.02245015
v -0.03058190 0.02814118 -0.01978078
v -0.03115529 0.02814118 -0.01888057
v -0.03205522 0.02910017 -0.01734584
v -0.03085220 0.02814118 -0.01935881
v -0.03251768 0.02910017 -0.01644563
v -0.03305201 0.02910017 -0.01530161
v -0.03271922 0.03032018 -0.01530161
v -0.03153963 0.03045152 -0.01701451
v -0.03333011 0.03039687 -0.01333240
v -0.03383475 0.02910017 -0.01352307
v -0.03420503 0.02910017 -0.01262287
v -0.03449875 0.02910017 -0.01170703
v -0.03506277 0.02814118 -0.00990661
v -0.03551273 0.02814118 -0.00810619
v -0.03585177 0.02814118 -0.00643393
v -0.03602206 0.02814118 -0.00553372
v -0.03157713 0.02814118 -0.01816478
v -0.03205678 0.02814118 -0.01734896
v -0.03252080 0.02814118 -0.01644876
v -0.03306294 0.02814118 -0.01530161
v -0.03342853 0.02814118 -0.01447017
v -0.03387850 0.02814118 -0.01341993
v -0.03447063 0.02814118 -0.01179767
v -0.03405036 0.02814118 -0.01300108
v -0.03420347 0.02814118 -0.01261661
v -0.03425971 0.02814118 -0.01244470
f 1 2 7
f 1 7 18
f 1 18 28
f 1 28 41
f 1 41 40
f 1 40 53
f 1 53 49
f 1 49 35
f 1 35 23
f 1 23 13
f 1 13 12
f 1 12 11
f 1 11 8
f 1 8 3
f 1 3 4
f 1 4 10
f 1 10 22
f 1 22 34
f 1 34 48
f 1 48 65
f 1 65 84
f 1 84 106
f 1 106 126
f 1 126 104
f 1 104 125
f 1 125 124
f 1 124 123
f 1 123 133
f 1 133 136
f 1 136 135
f 1 135 134
f 1 134 132
f 1 132 131
f 1 131 130
f 1 130 129
f 1 129 128
f 1 128 127
f 1 127 112
f 1 112 114
f 1 114 111
f 1 111 109
f 1 109 108
f 1 108 110
f 1 110 107
f 1 107 87
f 1 87 71
f 1 71 70
f 1 70 69
f 1 69 68
f 1 68 51
f 1 51 37
f 1 37 25
f 1 25 24
f 1 24 15
f 1 15 14
f 1 14 5
f 1 5 2
f 2 5 6
f 2 6 7
f 3 8 4
f 4 9 20
f 4 20 31
f 4 31 36
f 4 36 50
f 4 50 59
f 4 59 44
f 4 44 32
f 4 32 21
f 4 21 10
f 4 8 11
f 4 11 12
f 4 12 13
f 4 13 9
f 5 14 6
f 6 14 15
f 6 15 16
f 6 16 17
f 6 17 18
f 6 18 19
f 6 19 7
f 7 19 18
f 9 13 20
f 10 21 33
f 10 33 22
f 13 23 20
f 15 24 16
f 16 24 25
f 16 25 26
f 16 26 17
f 17 27 28
f 17 28 18
f 17 26 29
f 17 29 30
f 17 30 27
f 20 23 31
f 21 32 33
f 22 33 34
f 23 35 36
f 23 36 31
f 25 37 38
f 25 38 26
f 26 38 29
f 27 30 39
f 27 39 40
f 27 40 41
f 27 41 28
f 29 38 42
f 29 42 43
f 29 43 30
f 30 43 39
f 32 44 45
f 32 45 33
f 33 45 46
f 33 46 47
f 33 47 34
f 34 47 48
f 35 49 50
f 35 50 36
f 37 51 38
f 38 51 52
f 38 52 42
f 39 53 40
f 39 43 54
f 39 54 53
f 42 52 55
f 42 55 56
f 42 56 57
f 42 57 43
f 43 57 58
f 43 58 54
f 44 59 45
f 45 59 60
f 45 60 61
f 45 61 46
f 46 61 62
f 46 62 63
f 46 63 47
f 47 63 64
f 47 64 48
f 48 64 65
f 49 53 54
f 49 54 58
f 49 58 66
f 49 66 78
f 49 78 85
f 49 85 67
f 49 67 50
f 50 67 60
f 50 60 59
f 51 68 52
f 52 68 69
f 52 69 70
f 52 70 55
f 55 70 71
f 55 71 72
f 55 72 73
f 55 73 56
f 56 74 57
f 56 73 74
f 57 74 75
f 57 75 76
f 57 76 58
f 58 76 77
f 58 77 78
f 58 78 66
f 60 67 61
f 61 67 62
f 62 67 79
f 62 79 80
f 62 80 63
f 63 81 64
f 63 80 81
f 64 81 82
f 64 82 83
f 64 83 84
f 64 84 65
f 67 85 86
f 67 86 79
f 71 87 72
f 72 87 88
f 72 88 73
f 73 89 90
f 73 90 91
f 73 91 92
f 73 92 93
f 73 93 94
f 73 94 95
f 73 95 74
f 73 88 89
f 74 95 75
f 75 95 96
f 75 96 97
f 75 97 77
f 75 77 76
f 77 97 86
f 77 86 78
f 78 86 85
f 79 98 80
f 79 86 97
f 79 97 99
f 79 99 98
f 80 98 81
f 81 98 82
f 82 98 100
f 82 100 101
f 82 101 102
f 82 102 103
f 82 103 104
f 82 104 105
f 82 105 83
f 83 105 106
f 83 106 84
f 87 107 88
f 88 107 89
f 89 108 109
f 89 109 90
f 89 107 110
f 89 110 108
f 90 109 111
f 90 111 91
f 91 111 92
f 92 112 113
f 92 113 93
f 92 111 114
f 92 114 112
f 93 115 116
f 93 116 101
f 93 101 117
f 93 117 94
f 93 113 115
f 94 117 118
f 94 118 96
f 94 96 95
f 96 118 97
f 97 118 117
f 97 117 119
f 97 119 99
f 98 99 119
f 98 119 117
f 98 117 100
f 100 117 101
f 101 120 121
f 101 121 122
f 101 122 102
f 101 116 120
f 102 123 124
f 102 124 103
f 102 122 123
f 103 124 125
f 103 125 104
f 104 126 105
f 105 126 106
f 112 127 113
f 113 127 128
f 113 128 129
f 113 129 115
f 115 129 130
f 115 130 116
f 116 130 120
f 120 131 132
f 120 132 121
f 120 130 131
f 121 133 122
f 121 132 134
f 121 134 135
f 121 135 136
f 121 136 133
f 122 133 123

