# https://github.com/mikedh/trimesh
v 0.01526813 0.01834195 0.01370974
v 0.01431959 0.01834464 0.01426554
v 0.01289098 0.01834464 0.02412790
v 0.01526813 0.00457832 0.01351212
v 0.01526813 0.01834464 -0.00576180
v 0.01264517 0.01834464 0.02508511
v 0.01226633 0.01834464 0.02608555
v 0.01133803 0.01834464 0.02790734
v 0.01075097 0.01834464 0.02875339
v 0.01112403 0.00457832 0.01847727
v 0.01526813 0.00457832 -0.01350594
v 0.01526813 0.01834464 -0.01370356
v 0.00979664 0.01834464 0.02958092
v 0.01007715 0.00457832 0.01929244
v 0.01173133 0.00457832 -0.01784736
v 0.01076254 0.01564959 -0.02696248
v 0.01059191 0.01766415 -0.02859283
v 0.01141322 0.01834464 -0.02803085
v 0.01229236 0.01834464 -0.02628317
v 0.01237333 0.01834464 -0.02606703
v 0.01291123 0.01834464 -0.02429464
v 0.00847793 0.01834464 0.03037139
v 0.00931369 0.01709548 0.02902512
v 0.00922982 0.00457832 0.01982971
v 0.01116162 0.00457832 -0.01852667
v 0.01075097 0.00457832 -0.01895896
v 0.00991521 0.01834464 -0.02966738
v 0.00809909 0.01834464 0.03051960
v 0.00911993 0.00457832 0.01987912
v 0.00917488 0.00463492 0.01989764
v 0.00983423 0.00457832 -0.01964445
v 0.00939177 0.01700251 -0.02909305
v 0.00990075 0.01834464 -0.02967973
v 0.00629742 0.01834464 0.03097659
v 0.00702329 0.01563477 0.02876574
v 0.00810487 0.00457832 0.02020025
v 0.00928188 0.00457832 -0.01999645
v 0.00900715 0.01379136 -0.02700571
v 0.00809909 0.01834464 -0.03070487
v 0.00604583 0.01834464 0.03101365
v 0.00629742 0.00457832 0.02050285
v 0.00922404 0.00457832 -0.02002116
v 0.00901871 0.00658344 -0.02161445
v 0.00735586 0.01552966 -0.02885221
v 0.00809909 0.00457832 -0.02042257
v 0.00652010 0.01834464 -0.03108158
v 0.00436274 0.01834464 0.03125449
v 0.00449866 0.00457832 0.02063254
v 0.00363976 0.01739329 0.03059989
v 0.00269989 0.01834464 0.03141506
v 0.00735297 0.00834062 -0.02344859
v 0.00629742 0.01751996 -0.03051343
v 0.00629742 0.01834464 -0.03113098
v 0.00753805 0.00457832 -0.02052138
v 0.00269989 0.00457832 0.02072517
v 0.00089823 0.01834464 0.03151386
v 0.00515801 0.01742967 -0.03058136
v 0.00629742 0.00457832 -0.02070664
v 0.00582315 0.01834464 -0.03118656
v 0.00089823 0.00457832 0.02078692
v -0.00089765 0.01834464 0.03154475
v 0.00000173 0.01020020 0.02519010
v 0.00453336 0.01813713 -0.03118039
v 0.00552528 0.00457832 -0.02074370
v 0.00269989 0.01829883 -0.03145211
v 0.00395787 0.01735556 -0.03063694
v 0.00452757 0.01834464 -0.03133478
v -0.00089765 0.00457832 0.02081163
v -0.00186066 0.01019885 0.02519627
v -0.00089765 0.01636243 0.03000086
v -0.00261834 0.01834464 0.03148917
v -0.00269931 0.01829883 0.03145211
v -0.00551314 0.00457832 0.02074370
v -0.00449808 0.00457832 0.02077457
v -0.00366810 0.00457832 0.02079310
v -0.00089765 0.01315128 0.02749976
v -0.00089765 0.01110035 0.02590029
v -0.00089765 0.00724508 0.02289279
v 0.00422392 0.01834464 -0.03136565
v 0.00449866 0.00457832 -0.02077457
v 0.00089823 0.01834464 -0.03154475
v 0.00261891 0.01834464 -0.03148917
v 0.00269989 0.01834464 -0.03148299
v -0.00269931 0.00457832 0.02081163
v -0.00269931 0.01834464 0.03148299
v -0.00454435 0.01834464 0.03133477
v -0.00398911 0.01735152 0.03063076
v -0.00629974 0.00457832 0.02070664
v 0.00367735 0.00457832 -0.02079310
v 0.00089823 0.01521165 -0.02910540
v -0.00089765 0.01834464 -0.03151387
v 0.00269989 0.00457832 -0.02081163
v -0.00629974 0.01834464 0.03113098
v -0.00518925 0.01742563 0.03057518
v -0.00629974 0.00527634 0.02123774
v -0.00455303 0.01813443 0.03117421
v -0.00736397 0.00833657 0.02344242
v -0.00752591 0.00457832 0.02052138
v 0.00089823 0.01225652 -0.02680192
v -0.00089765 0.00457832 -0.02078693
v -0.00269931 0.01834464 -0.03141506
v -0.00269931 0.00457832 -0.02072517
v -0.00449808 0.00457832 -0.02063254
v 0.00089823 0.00457832 -0.02081163
v 0.00089823 0.00609698 -0.02199733
v -0.00629974 0.01751457 0.03050725
v -0.00809851 0.01834464 0.03070487
v -0.00736686 0.01552562 0.02884603
v -0.00809851 0.00457832 0.02042257
v -0.00361316 0.01739733 -0.03060606
v -0.00276583 0.01834464 -0.03140888
v -0.00629974 0.00457832 -0.02050285
v -0.00984523 0.01834464 0.02971060
v -0.00939409 0.01699846 0.02908687
v -0.00901236 0.01378731 0.02699954
v -0.00802043 0.01643789 0.02930919
v -0.00809851 0.01358653 0.02715392
v -0.00902103 0.00657940 0.02160827
v -0.00922057 0.00457832 0.02002116
v -0.00435059 0.01834464 -0.03125449
v -0.00810430 0.00457832 -0.02020025
v -0.00629974 0.01834464 -0.03097660
v -0.00527022 0.01834464 -0.03112481
v -0.00988861 0.01834464 0.02968590
v -0.00990307 0.01833251 0.02966738
v -0.01075329 0.00457832 0.01895278
v -0.00983944 0.00457832 0.01963827
v -0.00928709 0.00457832 0.01999028
v -0.00911357 0.00457832 -0.01988529
v -0.00809851 0.01834464 -0.03051961
v -0.00700248 0.01563881 -0.02877192
v -0.00737264 0.01834464 -0.03070487
v -0.00990596 0.01834464 0.02967355
v -0.01059423 0.01766010 0.02858665
v -0.01116683 0.00457832 0.01852667
v -0.01076485 0.01564555 0.02695631
v -0.00922925 0.00457832 -0.01983589
v -0.00847157 0.01834464 -0.03037757
v -0.00992620 0.01834464 0.02965502
v -0.01141843 0.01834464 0.02803086
v -0.01173654 0.00457832 0.01784736
v -0.01007080 0.00457832 -0.01929244
v -0.00931022 0.01709953 -0.02903130
v -0.00979028 0.01834464 -0.02958092
v -0.01229468 0.01834464 0.02627700
v -0.01427564 0.00457832 0.01414820
v -0.01252892 0.00457832 0.01673576
v -0.01112056 0.00457832 -0.01847727
v -0.00989439 0.01834464 -0.02949446
v -0.01237565 0.01834464 0.02605467
v -0.01291065 0.01834464 0.02428847
v -0.01293668 0.01834464 0.02416496
v -0.01427564 0.01834464 0.01430259
v -0.01427564 0.00457832 -0.01414820
v -0.01205465 0.00457832 -0.01728539
v -0.01074750 0.01834464 -0.02875957
v -0.01427564 0.01834464 0.01427789
v -0.01427564 0.00466052 -0.01415438
v -0.01289041 0.01834464 -0.02413408
v -0.01264460 0.01834464 -0.02508511
v -0.01226287 0.01834464 -0.02609173
v -0.01133167 0.01834464 -0.02791352
v -0.01131143 0.01834464 -0.02794440
v -0.01269376 0.00457832 -0.01638375
v -0.01370304 0.01834464 -0.01525363
v -0.01427564 0.01834330 -0.01428406
f 1 2 3
f 1 3 4
f 1 4 11
f 1 11 12
f 1 12 5
f 1 5 2
f 2 5 12
f 2 12 21
f 2 21 20
f 2 20 19
f 2 19 18
f 2 18 27
f 2 27 33
f 2 33 39
f 2 39 46
f 2 46 53
f 2 53 59
f 2 59 67
f 2 67 79
f 2 79 83
f 2 83 82
f 2 82 81
f 2 81 91
f 2 91 101
f 2 101 111
f 2 111 120
f 2 120 123
f 2 123 122
f 2 122 132
f 2 132 130
f 2 130 138
f 2 138 144
f 2 144 149
f 2 149 156
f 2 156 163
f 2 163 162
f 2 162 161
f 2 161 160
f 2 160 159
f 2 159 165
f 2 165 157
f 2 157 153
f 2 153 152
f 2 152 151
f 2 151 150
f 2 150 145
f 2 145 140
f 2 140 139
f 2 139 133
f 2 133 124
f 2 124 113
f 2 113 107
f 2 107 93
f 2 93 86
f 2 86 85
f 2 85 71
f 2 71 61
f 2 61 56
f 2 56 50
f 2 50 47
f 2 47 40
f 2 40 34
f 2 34 28
f 2 28 22
f 2 22 13
f 2 13 9
f 2 9 8
f 2 8 7
f 2 7 6
f 2 6 3
f 3 6 4
f 4 6 7
f 4 7 8
f 4 8 9
f 4 9 10
f 4 10 14
f 4 14 24
f 4 24 29
f 4 29 36
f 4 36 41
f 4 41 48
f 4 48 55
f 4 55 60
f 4 60 68
f 4 68 84
f 4 84 75
f 4 75 74
f 4 74 73
f 4 73 88
f 4 88 98
f 4 98 109
f 4 109 119
f 4 119 128
f 4 128 127
f 4 127 126
f 4 126 135
f 4 135 141
f 4 141 147
f 4 147 146
f 4 146 154
f 4 154 164
f 4 164 155
f 4 155 148
f 4 148 142
f 4 142 137
f 4 137 129
f 4 129 121
f 4 121 112
f 4 112 103
f 4 103 102
f 4 102 100
f 4 100 104
f 4 104 92
f 4 92 89
f 4 89 80
f 4 80 64
f 4 64 58
f 4 58 54
f 4 54 45
f 4 45 42
f 4 42 37
f 4 37 31
f 4 31 26
f 4 26 25
f 4 25 15
f 4 15 11
f 9 13 10
f 10 13 14
f 11 15 16
f 11 16 17
f 11 17 18
f 11 18 19
f 11 19 20
f 11 20 21
f 11 21 12
f 13 22 23
f 13 23 14
f 14 23 24
f 15 25 16
f 16 25 26
f 16 26 17
f 17 27 18
f 17 26 27
f 22 28 29
f 22 29 30
f 22 30 24
f 22 24 23
f 24 30 29
f 26 31 32
f 26 32 33
f 26 33 27
f 28 34 35
f 28 35 36
f 28 36 29
f 31 37 38
f 31 38 32
f 32 38 39
f 32 39 33
f 34 40 41
f 34 41 36
f 34 36 35
f 37 42 43
f 37 43 38
f 38 44 39
f 38 43 45
f 38 45 44
f 39 44 46
f 40 47 41
f 41 47 49
f 41 49 50
f 41 50 48
f 42 45 43
f 44 51 52
f 44 52 53
f 44 53 46
f 44 45 51
f 45 54 51
f 47 50 49
f 48 50 56
f 48 56 55
f 51 57 52
f 51 54 58
f 51 58 57
f 52 57 53
f 53 57 59
f 55 56 60
f 56 61 62
f 56 62 60
f 57 63 59
f 57 58 63
f 58 64 65
f 58 65 66
f 58 66 63
f 59 63 67
f 60 62 68
f 61 69 70
f 61 70 62
f 61 71 72
f 61 72 73
f 61 73 74
f 61 74 75
f 61 75 69
f 62 70 76
f 62 76 77
f 62 77 78
f 62 78 68
f 63 66 79
f 63 79 67
f 64 80 81
f 64 81 65
f 65 81 82
f 65 82 83
f 65 83 79
f 65 79 66
f 68 78 84
f 69 77 76
f 69 76 70
f 69 75 84
f 69 84 77
f 71 85 72
f 72 85 86
f 72 86 87
f 72 87 88
f 72 88 73
f 77 84 78
f 80 89 81
f 81 90 91
f 81 89 92
f 81 92 90
f 86 93 94
f 86 94 95
f 86 95 96
f 86 96 87
f 87 96 95
f 87 95 88
f 88 95 97
f 88 97 98
f 90 99 100
f 90 100 91
f 90 92 99
f 91 100 102
f 91 102 103
f 91 103 101
f 92 104 105
f 92 105 99
f 93 106 94
f 93 107 108
f 93 108 106
f 94 106 97
f 94 97 95
f 97 106 108
f 97 108 109
f 97 109 98
f 99 105 100
f 100 105 104
f 101 110 111
f 101 103 112
f 101 112 110
f 107 113 114
f 107 114 115
f 107 115 116
f 107 116 108
f 108 116 115
f 108 115 117
f 108 117 109
f 109 118 119
f 109 117 115
f 109 115 118
f 110 120 111
f 110 112 120
f 112 121 122
f 112 122 123
f 112 123 120
f 113 124 114
f 114 124 125
f 114 125 126
f 114 126 127
f 114 127 115
f 115 127 128
f 115 128 119
f 115 119 118
f 121 129 130
f 121 130 131
f 121 131 122
f 122 131 132
f 124 133 125
f 125 133 134
f 125 134 126
f 126 134 136
f 126 136 135
f 129 137 138
f 129 138 130
f 130 132 131
f 133 139 134
f 134 140 136
f 134 139 140
f 135 136 141
f 136 140 141
f 137 142 143
f 137 143 138
f 138 143 144
f 140 145 146
f 140 146 147
f 140 147 141
f 142 148 144
f 142 144 143
f 144 148 149
f 145 150 146
f 146 150 151
f 146 151 152
f 146 152 153
f 146 153 157
f 146 157 166
f 146 166 158
f 146 158 154
f 148 155 156
f 148 156 149
f 154 158 159
f 154 159 160
f 154 160 161
f 154 161 162
f 154 162 163
f 154 163 156
f 154 156 164
f 155 164 156
f 157 165 166
f 158 166 159
f 159 166 165

