# https://github.com/mikedh/trimesh
v -0.03336191 0.02730306 -0.01462065
v -0.03336191 0.02814118 -0.01462065
v -0.03332985 0.02549930 -0.01462065
v -0.03381063 0.02549930 -0.01350381
v -0.03391391 0.02730978 -0.01333025
v -0.03387830 0.02814118 -0.01341703
v -0.02520292 0.02814118 -0.01462065
v -0.03313754 0.02442912 -0.01462065
v -0.03346518 0.02369936 -0.01350381
v -0.03418101 0.02549930 -0.01254927
v -0.03419525 0.02671715 -0.01259105
v -0.03420238 0.02791678 -0.01261355
v -0.03404924 0.02814118 -0.01299922
v -0.02893162 0.02814118 0.00179451
v -0.00005645 0.02798966 0.00179451
v -0.00005645 0.02798966 -0.01462065
v -0.03300577 0.02374443 -0.01462065
v -0.03402431 0.02356895 -0.01184702
v -0.03437688 0.02408198 -0.01134244
v -0.03260691 0.02257357 -0.01462065
v -0.03448728 0.02549930 -0.01164937
v -0.03444811 0.02730978 -0.01187595
v -0.03420238 0.02814118 -0.01261515
v -0.03638190 0.02814118 0.00179451
v -0.00005645 0.01834464 0.00179451
v -0.00005645 0.01834464 -0.01462065
v -0.03417032 0.02288331 -0.01068840
v -0.03457988 0.02356895 -0.01001508
v -0.03509627 0.02369936 -0.00810440
v -0.03547377 0.02549930 -0.00810440
v -0.03502504 0.02549930 -0.00990420
v -0.03255349 0.02244699 -0.01462065
v -0.03507134 0.02729922 -0.00990420
v -0.03446948 0.02814118 -0.01179560
v -0.03425936 0.02814118 -0.01244160
v -0.03638546 0.02814118 0.00173666
v -0.03638903 0.02729922 0.00179451
v -0.03366818 0.01834464 0.00179451
v -0.01408092 0.01834464 -0.01462065
v -0.03294879 0.01834464 -0.00824099
v -0.03431990 0.02251603 -0.00948800
v -0.03444099 0.02190998 -0.00798388
v -0.03422374 0.02093378 -0.00730253
v -0.03545952 0.02369936 -0.00630460
v -0.03598660 0.02477242 -0.00532114
v -0.03586551 0.02542258 -0.00620497
v -0.03602221 0.02597205 -0.00553808
v -0.03553075 0.02729922 -0.00810440
v -0.03250363 0.02235110 -0.01462065
v -0.03256417 0.01834464 -0.00925981
v -0.03506065 0.02814118 -0.00990420
v -0.03643176 0.02814118 0.00089461
v -0.03643176 0.02729922 0.00089461
v -0.03633561 0.02549930 0.00179451
v -0.03389610 0.01887685 0.00179451
v -0.03371448 0.01834464 0.00096371
v -0.02616092 0.01834464 -0.01301368
v -0.02789884 0.01982620 -0.01462065
v -0.03336191 0.01834464 -0.00630460
v -0.03430565 0.02073240 -0.00630460
v -0.03476507 0.02190039 -0.00630460
v -0.03606138 0.02444254 -0.00412073
v -0.03629643 0.02549930 -0.00270500
v -0.03610412 0.02542258 -0.00463496
v -0.03616466 0.02729922 -0.00450480
v -0.03602933 0.02729922 -0.00557182
v -0.03586551 0.02729922 -0.00647012
v -0.03551294 0.02814118 -0.00810440
v -0.03220448 0.02128667 -0.01394411
v -0.03205846 0.02158778 -0.01462065
v -0.03160617 0.02100475 -0.01462065
v -0.03210476 0.01834464 -0.00992831
v -0.03643176 0.02814118 -0.00006475
v -0.03643532 0.02729922 -0.00090519
v -0.03638546 0.02549930 -0.00090519
v -0.03637478 0.02549930 0.00089461
v -0.03614329 0.02424308 0.00179451
v -0.03449797 0.02029608 0.00179451
v -0.03371804 0.01834464 0.00089461
v -0.02770297 0.01834464 -0.01280156
v -0.02890669 0.01994991 -0.01462065
v -0.03336903 0.01834464 -0.00624193
v -0.03612549 0.02427569 -0.00270500
v -0.03356134 0.01834464 -0.00450480
v -0.03356846 0.01834464 -0.00443248
v -0.03634273 0.02729922 -0.00270500
v -0.03624657 0.02814118 -0.00366435
v -0.03616110 0.02814118 -0.00450480
v -0.03608987 0.02814118 -0.00507366
v -0.03634273 0.02814118 -0.00270500
v -0.03602221 0.02814118 -0.00553486
v -0.03593318 0.02814118 -0.00601374
v -0.03585127 0.02814118 -0.00643316
v -0.03202641 0.01834464 -0.01002633
v -0.03120375 0.02068158 -0.01462065
v -0.03642464 0.02814118 -0.00090519
v -0.03616466 0.02417500 -0.00090519
v -0.03616466 0.02419226 0.00089461
v -0.03595811 0.02379238 0.00179451
v -0.03482205 0.02106995 0.00179451
v -0.03451933 0.02023951 0.00089461
v -0.03374297 0.01834464 -0.00082806
v -0.02851495 0.01834464 -0.01257016
v -0.02965457 0.02004580 -0.01462065
v -0.03575867 0.02337524 -0.00270500
v -0.03580141 0.02327551 -0.00090519
v -0.03368599 0.01834464 -0.00270500
v -0.03101856 0.01834464 -0.01115764
v -0.03049860 0.02036513 -0.01462065
v -0.03523160 0.02190039 -0.00090519
v -0.03579072 0.02329182 0.00089461
v -0.03548089 0.02264837 0.00179451
v -0.03452646 0.02021458 -0.00090519
v -0.03374297 0.01834464 -0.00090519
v -0.02958334 0.01834464 -0.01206557
v -0.03368955 0.01834464 -0.00262625
f 1 2 7
f 1 7 16
f 1 16 26
f 1 26 39
f 1 39 58
f 1 58 81
f 1 81 104
f 1 104 109
f 1 109 95
f 1 95 71
f 1 71 70
f 1 70 49
f 1 49 32
f 1 32 20
f 1 20 17
f 1 17 8
f 1 8 3
f 1 3 4
f 1 4 5
f 1 5 6
f 1 6 2
f 2 6 13
f 2 13 23
f 2 23 35
f 2 35 34
f 2 34 51
f 2 51 68
f 2 68 93
f 2 93 92
f 2 92 91
f 2 91 89
f 2 89 88
f 2 88 87
f 2 87 90
f 2 90 96
f 2 96 73
f 2 73 52
f 2 52 36
f 2 36 24
f 2 24 14
f 2 14 7
f 3 8 4
f 4 8 9
f 4 9 10
f 4 10 11
f 4 11 5
f 5 11 12
f 5 12 13
f 5 13 6
f 7 14 15
f 7 15 16
f 8 17 9
f 9 18 19
f 9 19 10
f 9 17 20
f 9 20 18
f 10 19 21
f 10 21 11
f 11 21 22
f 11 22 12
f 12 23 13
f 12 22 23
f 14 24 37
f 14 37 54
f 14 54 77
f 14 77 99
f 14 99 112
f 14 112 100
f 14 100 78
f 14 78 55
f 14 55 38
f 14 38 25
f 14 25 15
f 15 25 26
f 15 26 16
f 18 27 19
f 18 20 27
f 19 27 28
f 19 28 29
f 19 29 30
f 19 30 31
f 19 31 21
f 20 32 27
f 21 31 33
f 21 33 22
f 22 33 34
f 22 34 35
f 22 35 23
f 24 36 37
f 25 38 56
f 25 56 79
f 25 79 102
f 25 102 114
f 25 114 116
f 25 116 107
f 25 107 85
f 25 85 84
f 25 84 82
f 25 82 59
f 25 59 40
f 25 40 50
f 25 50 72
f 25 72 94
f 25 94 108
f 25 108 115
f 25 115 103
f 25 103 80
f 25 80 57
f 25 57 39
f 25 39 26
f 27 40 41
f 27 41 29
f 27 29 28
f 27 32 40
f 29 41 42
f 29 42 43
f 29 43 44
f 29 44 45
f 29 45 30
f 30 46 47
f 30 47 48
f 30 48 31
f 30 45 46
f 31 48 33
f 32 49 50
f 32 50 40
f 33 48 51
f 33 51 34
f 36 52 37
f 37 52 53
f 37 53 54
f 38 55 56
f 39 57 58
f 40 59 43
f 40 43 41
f 41 43 42
f 43 60 61
f 43 61 44
f 43 59 60
f 44 61 62
f 44 62 45
f 45 62 63
f 45 63 64
f 45 64 47
f 45 47 46
f 47 64 65
f 47 65 66
f 47 66 67
f 47 67 48
f 48 67 68
f 48 68 51
f 49 69 50
f 49 70 69
f 50 69 70
f 50 70 71
f 50 71 72
f 52 73 74
f 52 74 53
f 53 74 75
f 53 75 76
f 53 76 54
f 54 76 77
f 55 78 56
f 56 78 79
f 57 80 58
f 58 80 81
f 59 82 62
f 59 62 60
f 60 62 61
f 62 83 63
f 62 82 84
f 62 84 85
f 62 85 83
f 63 83 75
f 63 75 74
f 63 74 86
f 63 86 64
f 64 86 65
f 65 87 88
f 65 88 89
f 65 89 66
f 65 86 90
f 65 90 87
f 66 91 67
f 66 89 91
f 67 92 93
f 67 93 68
f 67 91 92
f 71 94 72
f 71 95 94
f 73 96 74
f 74 96 90
f 74 90 86
f 75 83 97
f 75 97 98
f 75 98 76
f 76 98 77
f 77 98 99
f 78 100 101
f 78 101 79
f 79 101 102
f 80 103 104
f 80 104 81
f 83 85 105
f 83 105 106
f 83 106 97
f 85 107 105
f 94 95 108
f 95 109 108
f 97 106 98
f 98 106 110
f 98 110 111
f 98 111 99
f 99 111 101
f 99 101 112
f 100 112 101
f 101 113 102
f 101 111 110
f 101 110 113
f 102 113 114
f 103 115 104
f 104 115 109
f 105 107 106
f 106 107 116
f 106 116 110
f 108 109 115
f 110 116 113
f 113 116 114

