# https://github.com/mikedh/trimesh
v 0.00089843 0.00457832 -0.02081528
v 0.00269528 0.00457832 -0.02081121
v 0.01889986 -0.00284198 -0.01698880
v 0.00764212 -0.00284198 -0.01699695
v -0.00449762 -0.00284198 -0.01699695
v -0.01889987 -0.00284198 -0.01698880
v -0.02069673 -0.00284198 -0.01698472
v -0.00089843 0.00457832 -0.02078676
v 0.00367588 0.00457832 -0.02079491
v 0.02069672 -0.00284198 -0.01698472
v -0.02249906 -0.00284198 -0.01674837
v -0.00629996 0.00457832 -0.02050558
v -0.00449762 0.00457832 -0.02063191
v -0.00269529 0.00457832 -0.02072563
v 0.00449762 0.00457832 -0.02077453
v 0.02203889 -0.00284198 -0.01680950
v 0.00552205 0.00457832 -0.02074193
v 0.00629995 0.00457832 -0.02070933
v -0.02249906 -0.00149957 -0.01674837
v -0.00810229 0.00457832 -0.02019995
v -0.02364949 -0.00284198 -0.01636124
v 0.02249906 -0.00284198 -0.01674837
v 0.00753803 0.00457832 -0.02051780
v -0.02364949 -0.00149957 -0.01636124
v -0.02356184 -0.00034893 -0.01630826
v -0.00911029 0.00457832 -0.01988617
v -0.02454792 -0.00284198 -0.01555438
v 0.00809681 0.00457832 -0.02042408
v 0.02249906 -0.00149957 -0.01674837
v 0.02364948 -0.00284198 -0.01636124
v -0.02454792 -0.00149957 -0.01555438
v -0.02530391 -0.00034820 -0.01456821
v -0.02595582 0.00457832 -0.01083138
v -0.02562165 0.00457832 -0.01112886
v -0.02487661 0.00457832 -0.01157304
v -0.02429592 0.00457832 -0.01188682
v -0.00923081 0.00457832 -0.01983319
v -0.02535869 -0.00284198 -0.01465379
v 0.00921985 0.00457832 -0.02002472
v 0.02356183 -0.00034893 -0.01630826
v 0.02364948 -0.00149957 -0.01636124
v 0.02454791 -0.00284198 -0.01555438
v -0.02535869 -0.00149957 -0.01465379
v -0.02715555 0.00457832 -0.00925840
v -0.02655842 0.00457832 -0.01009379
v -0.02574765 -0.00284198 -0.01350054
v -0.02757737 0.00457832 -0.00808886
v 0.00928011 0.00457832 -0.01999620
v 0.02429591 0.00457832 -0.01180939
v 0.02553399 0.00457832 -0.01107181
v 0.02530391 -0.00034820 -0.01456821
v 0.02454791 -0.00149957 -0.01555438
v 0.02535869 -0.00284198 -0.01465379
v -0.02721581 0.00457832 -0.00911170
v -0.02580791 -0.00284198 -0.01304414
v -0.02787868 0.00457832 -0.00630398
v -0.02769790 0.00457832 -0.00739610
v 0.02645981 0.00457832 -0.00998784
v 0.02535869 -0.00149957 -0.01465379
v 0.02705694 0.00457832 -0.00914023
v 0.02707337 0.00457832 -0.00910763
v 0.02564903 -0.00284198 -0.01379395
v -0.02598321 -0.00284198 -0.01170344
v -0.02791154 0.00457832 -0.00565605
v 0.02574764 -0.00149957 -0.01350054
v 0.02740206 0.00457832 -0.00801958
v 0.02574764 -0.00284198 -0.01350054
v -0.02598869 -0.00284198 -0.00990226
v -0.02798276 0.00457832 -0.00201294
v -0.02797729 0.00457832 -0.00270162
v -0.02796633 0.00457832 -0.00381412
v -0.02795537 0.00457832 -0.00447428
v 0.02768693 0.00457832 -0.00630398
v 0.02598321 -0.00284198 -0.01170344
v -0.02598869 -0.00284198 0.01035081
v -0.02797729 0.00457832 -0.00090045
v -0.02598321 -0.00284198 0.01169150
v 0.02780745 0.00457832 -0.00450280
v 0.02789511 0.00457832 -0.00270162
v 0.02795537 0.00457832 -0.00089230
v 0.02797180 0.00457832 0.00028132
v 0.02797728 0.00457832 0.00089258
v 0.02798276 0.00457832 0.00200100
v 0.02598868 -0.00284198 -0.00990226
v -0.02797181 0.00457832 -0.00028919
v -0.02574765 -0.00284198 0.01349268
v -0.02768694 0.00457832 0.00629204
v -0.02780746 0.00457832 0.00449494
v -0.02789511 0.00457832 0.00269376
v -0.02795537 0.00457832 0.00088443
v 0.02797728 0.00457832 0.00269376
v 0.02598321 -0.00284198 0.01169150
v 0.02598868 -0.00284198 0.00989440
v -0.02740755 0.00457832 0.00801172
v -0.02535869 -0.00284198 0.01465000
v -0.02574765 -0.00149957 0.01349268
v 0.02796632 0.00457832 0.00380218
v 0.02580790 -0.00284198 0.01303627
v 0.02795537 0.00457832 0.00446641
v 0.02791154 0.00457832 0.00564818
v 0.02787867 0.00457832 0.00629204
v -0.02707338 0.00457832 0.00911199
v -0.02515600 -0.00284198 0.01487820
v -0.02535869 -0.00149957 0.01465000
v 0.02574764 -0.00284198 0.01349268
v 0.02770337 0.00457832 0.00738416
v -0.02706242 0.00457832 0.00913236
v -0.02530391 -0.00034457 0.01456442
v -0.02455339 -0.00284198 0.01555059
v -0.02455339 -0.00149957 0.01555059
v 0.02758285 0.00457832 0.00808100
v 0.02535869 -0.00284198 0.01465000
v -0.02646529 0.00457832 0.00998405
v -0.02356732 -0.00034385 0.01630040
v -0.02553947 0.00457832 0.01106802
v -0.02365497 -0.00284198 0.01635745
v -0.02365497 -0.00149957 0.01635745
v 0.02722128 0.00457832 0.00910384
v 0.02535869 -0.00149957 0.01465000
v 0.02455339 -0.00284198 0.01555059
v -0.02429592 0.00457832 0.01180968
v -0.02249906 -0.00149957 0.01674866
v -0.00809682 0.00457832 0.02042437
v -0.00921985 0.00457832 0.02002093
v -0.00928559 0.00457832 0.01999241
v -0.02249906 -0.00284198 0.01674866
v 0.02715555 0.00457832 0.00925054
v 0.02530391 -0.00034457 0.01456442
v 0.02455339 -0.00149957 0.01555059
v 0.02365496 -0.00284198 0.01635745
v -0.00752708 0.00457832 0.02052217
v -0.02069673 -0.00284198 0.01698501
v -0.00629996 0.00457832 0.02070962
v 0.02656390 0.00457832 0.01009000
v 0.02356731 -0.00034385 0.01630040
v 0.02596129 0.00457832 0.01082759
v 0.02365496 -0.00149957 0.01635745
v 0.02249906 -0.00284198 0.01674866
v -0.01889987 -0.00284198 0.01698909
v -0.00269529 0.00457832 0.02081150
v -0.00366493 0.00457832 0.02079520
v -0.00449762 0.00457832 0.02077482
v -0.00551109 0.00457832 0.02074222
v 0.02249906 -0.00149957 0.01674866
v 0.02562164 0.00457832 0.01112507
v 0.02487661 0.00457832 0.01157332
v 0.02429591 0.00457832 0.01188711
v 0.00923080 0.00457832 0.01983348
v 0.00912124 0.00457832 0.01987831
v 0.00891854 0.00457832 0.01994351
v 0.00810229 0.00457832 0.02020024
v 0.00629995 0.00457832 0.02050587
v 0.02069672 -0.00284198 0.01698501
v -0.00764212 -0.00284198 0.01699724
v -0.00089843 0.00457832 0.02081557
v 0.00449762 0.00457832 0.02063219
v 0.01889986 -0.00284198 0.01698909
v 0.00269528 0.00457832 0.02072592
v 0.00089843 0.00457832 0.02078705
v 0.00089843 -0.00284198 0.01699724
f 1 2 10
f 1 10 3
f 1 3 4
f 1 4 5
f 1 5 6
f 1 6 7
f 1 7 8
f 1 8 14
f 1 14 13
f 1 13 12
f 1 12 20
f 1 20 26
f 1 26 37
f 1 37 36
f 1 36 35
f 1 35 34
f 1 34 33
f 1 33 45
f 1 45 44
f 1 44 54
f 1 54 47
f 1 47 57
f 1 57 56
f 1 56 64
f 1 64 72
f 1 72 71
f 1 71 70
f 1 70 69
f 1 69 76
f 1 76 85
f 1 85 90
f 1 90 89
f 1 89 88
f 1 88 87
f 1 87 94
f 1 94 102
f 1 102 107
f 1 107 113
f 1 113 115
f 1 115 121
f 1 121 125
f 1 125 124
f 1 124 123
f 1 123 131
f 1 131 133
f 1 133 143
f 1 143 142
f 1 142 141
f 1 141 140
f 1 140 155
f 1 155 159
f 1 159 158
f 1 158 156
f 1 156 152
f 1 152 151
f 1 151 150
f 1 150 149
f 1 149 148
f 1 148 147
f 1 147 146
f 1 146 145
f 1 145 136
f 1 136 134
f 1 134 127
f 1 127 118
f 1 118 111
f 1 111 106
f 1 106 101
f 1 101 100
f 1 100 99
f 1 99 97
f 1 97 91
f 1 91 83
f 1 83 82
f 1 82 81
f 1 81 80
f 1 80 79
f 1 79 78
f 1 78 73
f 1 73 66
f 1 66 61
f 1 61 60
f 1 60 58
f 1 58 50
f 1 50 49
f 1 49 48
f 1 48 39
f 1 39 28
f 1 28 23
f 1 23 18
f 1 18 17
f 1 17 15
f 1 15 9
f 1 9 2
f 2 9 10
f 3 10 16
f 3 16 22
f 3 22 30
f 3 30 42
f 3 42 53
f 3 53 62
f 3 62 67
f 3 67 74
f 3 74 84
f 3 84 93
f 3 93 92
f 3 92 98
f 3 98 105
f 3 105 112
f 3 112 120
f 3 120 130
f 3 130 138
f 3 138 153
f 3 153 157
f 3 157 160
f 3 160 154
f 3 154 139
f 3 139 132
f 3 132 126
f 3 126 116
f 3 116 109
f 3 109 103
f 3 103 95
f 3 95 86
f 3 86 77
f 3 77 75
f 3 75 68
f 3 68 63
f 3 63 55
f 3 55 46
f 3 46 38
f 3 38 27
f 3 27 21
f 3 21 11
f 3 11 7
f 3 7 6
f 3 6 5
f 3 5 4
f 7 11 12
f 7 12 13
f 7 13 14
f 7 14 8
f 9 15 10
f 10 15 17
f 10 17 18
f 10 18 16
f 11 19 20
f 11 20 12
f 11 21 24
f 11 24 19
f 16 18 22
f 18 23 22
f 19 24 25
f 19 25 20
f 20 25 26
f 21 27 31
f 21 31 24
f 22 23 28
f 22 28 29
f 22 29 41
f 22 41 30
f 24 31 25
f 25 31 32
f 25 32 33
f 25 33 34
f 25 34 35
f 25 35 36
f 25 36 37
f 25 37 26
f 27 38 43
f 27 43 31
f 28 39 40
f 28 40 29
f 29 40 41
f 30 41 52
f 30 52 42
f 31 43 32
f 32 43 44
f 32 44 45
f 32 45 33
f 38 46 47
f 38 47 43
f 39 48 40
f 40 49 50
f 40 50 51
f 40 51 52
f 40 52 41
f 40 48 49
f 42 52 59
f 42 59 53
f 43 47 54
f 43 54 44
f 46 55 56
f 46 56 57
f 46 57 47
f 50 58 51
f 51 59 52
f 51 58 60
f 51 60 61
f 51 61 59
f 53 59 62
f 55 63 56
f 56 63 64
f 59 61 65
f 59 65 62
f 61 66 65
f 62 65 67
f 63 68 69
f 63 69 70
f 63 70 71
f 63 71 72
f 63 72 64
f 65 66 67
f 66 73 67
f 67 73 74
f 68 75 69
f 69 75 77
f 69 77 76
f 73 78 74
f 74 78 79
f 74 79 80
f 74 80 81
f 74 81 82
f 74 82 83
f 74 83 84
f 76 77 85
f 77 86 87
f 77 87 88
f 77 88 89
f 77 89 90
f 77 90 85
f 83 91 92
f 83 92 93
f 83 93 84
f 86 94 87
f 86 95 104
f 86 104 96
f 86 96 94
f 91 97 92
f 92 97 99
f 92 99 100
f 92 100 101
f 92 101 98
f 94 96 102
f 95 103 104
f 96 104 102
f 98 101 105
f 101 106 105
f 102 104 108
f 102 108 107
f 103 109 110
f 103 110 104
f 104 110 108
f 105 106 111
f 105 111 112
f 107 108 113
f 108 110 114
f 108 114 115
f 108 115 113
f 109 116 117
f 109 117 110
f 110 117 114
f 111 118 119
f 111 119 112
f 112 119 129
f 112 129 120
f 114 121 115
f 114 117 122
f 114 122 123
f 114 123 124
f 114 124 125
f 114 125 121
f 116 126 122
f 116 122 117
f 118 127 128
f 118 128 119
f 119 128 129
f 120 129 137
f 120 137 130
f 122 126 123
f 123 126 131
f 126 132 133
f 126 133 131
f 127 134 128
f 128 135 129
f 128 134 136
f 128 136 135
f 129 135 137
f 130 137 144
f 130 144 138
f 132 139 155
f 132 155 140
f 132 140 141
f 132 141 142
f 132 142 143
f 132 143 133
f 135 144 137
f 135 136 145
f 135 145 146
f 135 146 147
f 135 147 148
f 135 148 149
f 135 149 150
f 135 150 151
f 135 151 144
f 138 144 151
f 138 151 152
f 138 152 153
f 139 154 155
f 152 156 153
f 153 156 158
f 153 158 159
f 153 159 155
f 153 155 157
f 154 160 155
f 155 160 157

