# https://github.com/mikedh/trimesh
v -0.02599164 -0.00284271 -0.00404682
v -0.02599164 -0.00284271 -0.00270234
v -0.02598656 -0.00284271 -0.00990395
v -0.02598656 -0.14549393 -0.00990395
v -0.02598656 -0.00284271 0.01034974
v -0.02598656 -0.14549393 0.00989382
v -0.02598147 -0.00284271 -0.01170435
v -0.02598147 -0.14549393 -0.01170435
v -0.02596111 -0.14729212 -0.00990395
v -0.02598147 -0.00284271 0.01169422
v -0.02598147 -0.14549393 0.01169422
v -0.02596111 -0.14729212 0.00989382
v -0.02580846 -0.00284271 -0.01304550
v -0.02574740 -0.14549393 -0.01350143
v -0.02595603 -0.14729212 -0.01170435
v -0.02556931 -0.14903230 -0.00990395
v -0.02592549 -0.00284271 0.01215015
v -0.02595603 -0.14729212 0.01169422
v -0.02574740 -0.14549393 0.01349463
v -0.02556931 -0.14903230 0.00989382
v -0.02574740 -0.00284271 -0.01350143
v -0.02535559 -0.14549393 -0.01465289
v -0.02534033 -0.14729212 -0.01463292
v -0.02571687 -0.14729212 -0.01350143
v -0.02545736 -0.00284271 -0.01436003
v -0.02544718 -0.14875677 -0.01350143
v -0.02556422 -0.14901780 -0.01170435
v -0.02514188 -0.14993139 -0.01170435
v -0.02514697 -0.14993139 -0.00990395
v -0.02574740 -0.00284271 0.01349463
v -0.02572196 -0.14729212 0.01349463
v -0.02556422 -0.14903230 0.01169422
v -0.02544718 -0.14875677 0.01349463
v -0.02534542 -0.14729212 0.01462612
v -0.02536068 -0.14549393 0.01464941
v -0.02565072 -0.00284271 0.01378748
v -0.02514697 -0.14993139 0.00989382
v -0.02454653 -0.14549393 -0.01555475
v -0.02535559 -0.00284271 -0.01465289
v -0.02475516 -0.00284271 -0.01532513
v -0.02452618 -0.14729212 -0.01553146
v -0.02528435 -0.14839424 -0.01453974
v -0.02495870 -0.14965586 -0.01350143
v -0.02405804 -0.15036644 -0.01350143
v -0.02424123 -0.15043895 -0.01170435
v -0.02424632 -0.15043895 -0.00990395
v -0.02528435 -0.14839424 0.01453626
v -0.02514188 -0.14993139 0.01169422
v -0.02496378 -0.14965586 0.01349463
v -0.02453127 -0.14729212 0.01552798
v -0.02455162 -0.14549393 0.01554795
v -0.02536068 -0.00284271 0.01464941
v -0.02424632 -0.15043895 0.00989382
v -0.02364588 -0.14549393 -0.01636011
v -0.02362553 -0.14729212 -0.01634680
v -0.02454653 -0.00284271 -0.01555475
v -0.02387486 -0.00284271 -0.01615711
v -0.02353394 -0.14839424 -0.01629022
v -0.02423105 -0.14898880 -0.01523527
v -0.02372221 -0.15020693 -0.01472943
v -0.02249590 -0.15084499 -0.01350143
v -0.02249590 -0.15093199 -0.01170435
v -0.02353903 -0.14839424 0.01628342
v -0.02372730 -0.15020693 0.01472262
v -0.02423105 -0.14900330 0.01522847
v -0.02424123 -0.15043895 0.01169422
v -0.02406313 -0.15036644 0.01349463
v -0.02363062 -0.14729212 0.01634332
v -0.02365606 -0.14549393 0.01635663
v -0.02432773 -0.00284271 0.01575428
v -0.02455162 -0.00284271 0.01554795
v -0.02249590 -0.15093199 0.01169422
v -0.02249590 -0.14549393 -0.01674947
v -0.02364588 -0.00284271 -0.01636011
v -0.02279103 -0.00284271 -0.01664964
v -0.02249590 -0.14729212 -0.01672285
v -0.02249590 -0.14875677 -0.01644996
v -0.02249590 -0.14965586 -0.01596409
v -0.02249590 -0.15036644 -0.01506555
v -0.02069969 -0.15043895 -0.01524193
v -0.02069969 -0.15093199 -0.01350143
v -0.02069969 -0.15099000 -0.01170435
v -0.02249590 -0.14729212 0.01672270
v -0.02249590 -0.14965586 0.01596061
v -0.02249590 -0.14875677 0.01644316
v -0.02249590 -0.15084499 0.01349463
v -0.02249590 -0.15036644 0.01506207
v -0.02249590 -0.14549393 0.01674933
v -0.02365606 -0.00284271 0.01635663
v -0.02069969 -0.15093199 0.01349463
v -0.02069969 -0.15099000 0.01169422
v -0.02069969 -0.14549393 -0.01698243
v -0.02069969 -0.14729212 -0.01695913
v -0.02249590 -0.00284271 -0.01674947
v -0.02069969 -0.14901780 -0.01656644
v -0.02069969 -0.14991689 -0.01614379
v -0.01889839 -0.15043895 -0.01524858
v -0.01889839 -0.14993139 -0.01615045
v 0.02069969 -0.15093199 -0.01350143
v 0.02069969 -0.15099000 -0.01170435
v -0.02069969 -0.14729212 0.01695899
v -0.02069969 -0.14993139 0.01614032
v -0.02069969 -0.14903230 0.01656296
v -0.02069969 -0.15043895 0.01524178
v -0.02069969 -0.14549393 0.01698228
v -0.02203794 -0.00284271 0.01680923
v -0.02249590 -0.00284271 0.01674933
v 0.02069969 -0.15093199 0.01349463
v -0.01889839 -0.15043895 0.01524844
v 0.02069969 -0.15099000 0.01169422
v -0.01889839 -0.14549393 -0.01698908
v -0.02069969 -0.00284271 -0.01698243
v -0.01889839 -0.14729212 -0.01696246
v -0.01889839 -0.14903230 -0.01656977
v 0.01889839 -0.15043895 -0.01524858
v 0.01889839 -0.14993139 -0.01615045
v 0.02069969 -0.15043895 -0.01524193
v 0.02249590 -0.15084499 -0.01350143
v 0.02249590 -0.15093199 -0.01170435
v -0.01889839 -0.14729212 0.01696231
v -0.01889839 -0.14549393 0.01698894
v -0.01889839 -0.14993139 0.01614697
v -0.01889839 -0.14903230 0.01656629
v -0.02024173 -0.00284271 0.01698561
v -0.02069969 -0.00284271 0.01698228
v 0.02249590 -0.15093199 0.01169422
v 0.02249590 -0.15084499 0.01349463
v 0.02069969 -0.15043895 0.01524178
v 0.01889839 -0.15043895 0.01524844
v 0.01889839 -0.14549393 -0.01698908
v -0.01889839 -0.00284271 -0.01698908
v -0.00629946 -0.00284271 -0.01699574
v 0.01889839 -0.14729212 -0.01696246
v 0.01889839 -0.14903230 -0.01656977
v 0.02069969 -0.14901780 -0.01656644
v 0.02069969 -0.14991689 -0.01614379
v 0.02249590 -0.15036644 -0.01506555
v 0.02372221 -0.15020693 -0.01472943
v 0.02405804 -0.15036644 -0.01350143
v 0.02424123 -0.15043895 -0.01170435
v 0.02424632 -0.15043895 -0.00990395
v 0.01889839 -0.14729212 0.01696231
v 0.01889839 -0.14549393 0.01698894
v -0.00763772 -0.00284271 0.01699559
v -0.01889839 -0.00284271 0.01698894
v 0.01889839 -0.14993139 0.01614697
v 0.01889839 -0.14903230 0.01656629
v 0.02424632 -0.15043895 0.00989382
v 0.02424123 -0.15043895 0.01169422
v 0.02406313 -0.15036644 0.01349463
v 0.02372730 -0.15020693 0.01472262
v 0.02249590 -0.15036644 0.01506207
v 0.02069969 -0.14993139 0.01614032
v 0.02069969 -0.14549393 -0.01698243
v 0.02069969 -0.14729212 -0.01695913
v 0.00763772 -0.00284271 -0.01699574
v 0.01889839 -0.00284271 -0.01698908
v 0.02024173 -0.00284271 -0.01698576
v 0.02249590 -0.14875677 -0.01644996
v 0.02249590 -0.14965586 -0.01596409
v 0.02353394 -0.14839424 -0.01629022
v 0.02423105 -0.14898880 -0.01523527
v 0.02528435 -0.14839424 -0.01453974
v 0.02495870 -0.14965586 -0.01350143
v 0.02514188 -0.14993139 -0.01170435
v 0.02514697 -0.14993139 -0.00990395
v 0.02069969 -0.14729212 0.01695899
v 0.02069969 -0.14549393 0.01698228
v 0.01889839 -0.00284271 0.01698894
v 0.00629946 -0.00284271 0.01699559
v 0.02069969 -0.14903230 0.01656296
v 0.02514697 -0.14993139 0.00989382
v 0.02514188 -0.14993139 0.01169422
v 0.02496378 -0.14965586 0.01349463
v 0.02528435 -0.14839424 0.01453626
v 0.02423105 -0.14900330 0.01522847
v 0.02353903 -0.14839424 0.01628342
v 0.02249590 -0.14965586 0.01596061
v 0.02249590 -0.14875677 0.01644316
v 0.02249590 -0.14549393 -0.01674947
v 0.02069969 -0.00284271 -0.01698243
v 0.02203794 -0.00284271 -0.01680938
v 0.02249590 -0.14729212 -0.01672285
v 0.02362553 -0.14729212 -0.01634680
v 0.02452618 -0.14729212 -0.01553146
v 0.02534033 -0.14729212 -0.01463292
v 0.02571687 -0.14729212 -0.01350143
v 0.02544718 -0.14875677 -0.01350143
v 0.02556422 -0.14901780 -0.01170435
v 0.02556931 -0.14903230 -0.00990395
v 0.02249590 -0.14729212 0.01672270
v 0.02249590 -0.14549393 0.01674933
v 0.02069969 -0.00284271 0.01698228
v 0.02556931 -0.14903230 0.00989382
v 0.02556422 -0.14903230 0.01169422
v 0.02544718 -0.14875677 0.01349463
v 0.02572196 -0.14729212 0.01349463
v 0.02534542 -0.14729212 0.01462612
v 0.02453127 -0.14729212 0.01552798
v 0.02363062 -0.14729212 0.01634332
v 0.02364588 -0.14549393 -0.01636011
v 0.02249590 -0.00284271 -0.01674947
v 0.02335584 -0.00284271 -0.01645995
v 0.02454653 -0.14549393 -0.01555475
v 0.02535559 -0.14549393 -0.01465289
v 0.02574740 -0.14549393 -0.01350143
v 0.02595603 -0.14729212 -0.01170435
v 0.02596111 -0.14729212 -0.00990395
v 0.02365606 -0.14549393 0.01635663
v 0.02279103 -0.00284271 0.01664949
v 0.02249590 -0.00284271 0.01674933
v 0.02596111 -0.14729212 0.00989382
v 0.02595603 -0.14729212 0.01169422
v 0.02574740 -0.14549393 0.01349463
v 0.02536068 -0.14549393 0.01464941
v 0.02455162 -0.14549393 0.01554795
v 0.02364588 -0.00284271 -0.01636011
v 0.02454653 -0.00284271 -0.01555475
v 0.02515206 -0.00284271 -0.01488251
v 0.02535559 -0.00284271 -0.01465289
v 0.02598147 -0.14549393 -0.01170435
v 0.02574740 -0.00284271 -0.01350143
v 0.02598656 -0.14549393 -0.00990395
v 0.02388504 -0.00284271 0.01615030
v 0.02365606 -0.00284271 0.01635663
v 0.02598656 -0.14549393 0.00989382
v 0.02598147 -0.14549393 0.01169422
v 0.02580846 -0.00284271 0.01303537
v 0.02574740 -0.00284271 0.01349463
v 0.02536068 -0.00284271 0.01464941
v 0.02476025 -0.00284271 0.01532165
v 0.02455162 -0.00284271 0.01554795
v 0.02598147 -0.00284271 -0.01170435
v 0.02598656 -0.00284271 -0.01035988
v 0.02599164 -0.00284271 0.00269221
v 0.02599164 -0.00284271 0.00403669
v 0.02598656 -0.00284271 0.01123497
v 0.02598147 -0.00284271 0.01169422
f 1 2 5
f 1 5 10
f 1 10 17
f 1 17 30
f 1 30 36
f 1 36 52
f 1 52 71
f 1 71 70
f 1 70 89
f 1 89 107
f 1 107 106
f 1 106 125
f 1 125 124
f 1 124 145
f 1 145 144
f 1 144 170
f 1 170 169
f 1 169 193
f 1 193 211
f 1 211 210
f 1 210 225
f 1 225 224
f 1 224 232
f 1 232 231
f 1 231 230
f 1 230 229
f 1 229 228
f 1 228 238
f 1 238 237
f 1 237 236
f 1 236 235
f 1 235 234
f 1 234 233
f 1 233 222
f 1 222 220
f 1 220 219
f 1 219 218
f 1 218 217
f 1 217 203
f 1 203 202
f 1 202 182
f 1 182 181
f 1 181 158
f 1 158 157
f 1 157 156
f 1 156 132
f 1 132 131
f 1 131 112
f 1 112 94
f 1 94 75
f 1 75 74
f 1 74 57
f 1 57 56
f 1 56 40
f 1 40 39
f 1 39 25
f 1 25 21
f 1 21 13
f 1 13 7
f 1 7 3
f 1 3 4
f 1 4 6
f 1 6 2
f 2 6 5
f 3 7 8
f 3 8 4
f 4 8 15
f 4 15 9
f 4 9 12
f 4 12 6
f 5 6 11
f 5 11 10
f 6 12 18
f 6 18 11
f 7 13 8
f 8 14 15
f 8 13 14
f 9 15 16
f 9 16 20
f 9 20 12
f 10 11 17
f 11 18 31
f 11 31 19
f 11 19 17
f 12 20 32
f 12 32 18
f 13 21 14
f 14 22 23
f 14 23 24
f 14 24 15
f 14 21 25
f 14 25 22
f 15 24 26
f 15 26 27
f 15 27 16
f 16 27 28
f 16 28 29
f 16 29 37
f 16 37 20
f 17 19 30
f 18 32 33
f 18 33 31
f 19 31 34
f 19 34 35
f 19 35 36
f 19 36 30
f 20 37 48
f 20 48 32
f 22 38 23
f 22 25 39
f 22 39 40
f 22 40 38
f 23 38 41
f 23 41 42
f 23 42 24
f 24 42 26
f 26 43 28
f 26 28 27
f 26 42 43
f 28 44 45
f 28 45 46
f 28 46 29
f 28 43 44
f 29 46 53
f 29 53 37
f 31 33 47
f 31 47 34
f 32 48 33
f 33 48 49
f 33 49 47
f 34 50 51
f 34 51 35
f 34 47 50
f 35 51 71
f 35 71 52
f 35 52 36
f 37 53 66
f 37 66 48
f 38 54 55
f 38 55 41
f 38 40 56
f 38 56 57
f 38 57 54
f 41 55 58
f 41 58 42
f 42 58 59
f 42 59 60
f 42 60 43
f 43 60 44
f 44 60 61
f 44 61 45
f 45 61 62
f 45 62 46
f 46 62 72
f 46 72 53
f 47 63 50
f 47 49 64
f 47 64 65
f 47 65 63
f 48 66 67
f 48 67 49
f 49 67 64
f 50 63 68
f 50 68 51
f 51 68 69
f 51 69 70
f 51 70 71
f 53 72 66
f 54 73 55
f 54 57 74
f 54 74 75
f 54 75 73
f 55 73 76
f 55 76 58
f 58 76 77
f 58 77 78
f 58 78 60
f 58 60 59
f 60 79 61
f 60 78 79
f 61 79 80
f 61 80 81
f 61 81 62
f 62 81 82
f 62 82 91
f 62 91 72
f 63 83 68
f 63 65 64
f 63 64 84
f 63 84 85
f 63 85 83
f 64 67 86
f 64 86 87
f 64 87 84
f 66 72 86
f 66 86 67
f 68 83 88
f 68 88 69
f 69 88 107
f 69 107 89
f 69 89 70
f 72 90 86
f 72 91 90
f 73 92 93
f 73 93 76
f 73 75 94
f 73 94 112
f 73 112 92
f 76 93 77
f 77 95 96
f 77 96 78
f 77 93 95
f 78 96 79
f 79 96 80
f 80 97 81
f 80 96 98
f 80 98 97
f 81 97 115
f 81 115 99
f 81 99 100
f 81 100 82
f 82 100 110
f 82 110 91
f 83 85 101
f 83 101 88
f 84 87 102
f 84 102 85
f 85 102 103
f 85 103 101
f 86 104 87
f 86 90 104
f 87 104 102
f 88 101 105
f 88 105 106
f 88 106 107
f 90 108 129
f 90 129 109
f 90 109 104
f 90 91 110
f 90 110 108
f 92 111 93
f 92 112 131
f 92 131 111
f 93 111 113
f 93 113 114
f 93 114 95
f 95 114 98
f 95 98 96
f 97 98 116
f 97 116 115
f 98 114 134
f 98 134 116
f 99 115 117
f 99 117 118
f 99 118 119
f 99 119 100
f 100 119 126
f 100 126 110
f 101 120 121
f 101 121 105
f 101 103 123
f 101 123 120
f 102 104 109
f 102 109 122
f 102 122 103
f 103 122 123
f 105 121 124
f 105 124 125
f 105 125 106
f 108 110 126
f 108 126 127
f 108 127 128
f 108 128 129
f 109 129 146
f 109 146 122
f 111 130 133
f 111 133 113
f 111 131 132
f 111 132 156
f 111 156 130
f 113 133 134
f 113 134 114
f 115 116 117
f 116 134 135
f 116 135 136
f 116 136 117
f 117 137 118
f 117 136 137
f 118 137 138
f 118 138 139
f 118 139 140
f 118 140 119
f 119 140 141
f 119 141 148
f 119 148 126
f 120 142 143
f 120 143 121
f 120 123 147
f 120 147 142
f 121 143 170
f 121 170 144
f 121 144 145
f 121 145 124
f 122 146 147
f 122 147 123
f 126 148 149
f 126 149 127
f 127 149 150
f 127 150 151
f 127 151 152
f 127 152 128
f 128 152 153
f 128 153 146
f 128 146 129
f 130 154 155
f 130 155 133
f 130 156 157
f 130 157 158
f 130 158 154
f 133 155 134
f 134 155 135
f 135 159 136
f 135 155 159
f 136 159 160
f 136 160 137
f 137 160 138
f 138 160 161
f 138 161 162
f 138 162 163
f 138 163 164
f 138 164 139
f 139 164 165
f 139 165 140
f 140 165 166
f 140 166 141
f 141 166 172
f 141 172 148
f 142 147 171
f 142 171 167
f 142 167 143
f 143 167 168
f 143 168 193
f 143 193 169
f 143 169 170
f 146 153 171
f 146 171 147
f 148 172 173
f 148 173 149
f 149 173 150
f 150 173 174
f 150 174 151
f 151 174 175
f 151 175 176
f 151 176 177
f 151 177 178
f 151 178 152
f 152 178 153
f 153 178 179
f 153 179 171
f 154 180 155
f 154 158 181
f 154 181 182
f 154 182 180
f 155 183 159
f 155 180 183
f 159 183 161
f 159 161 160
f 161 183 184
f 161 184 185
f 161 185 163
f 161 163 162
f 163 185 186
f 163 186 187
f 163 187 188
f 163 188 164
f 164 188 165
f 165 188 189
f 165 189 190
f 165 190 166
f 166 190 194
f 166 194 172
f 167 171 179
f 167 179 191
f 167 191 192
f 167 192 168
f 168 192 211
f 168 211 193
f 172 194 195
f 172 195 173
f 173 195 196
f 173 196 174
f 174 196 175
f 175 177 176
f 175 196 197
f 175 197 198
f 175 198 199
f 175 199 177
f 177 199 200
f 177 200 191
f 177 191 179
f 177 179 178
f 180 201 184
f 180 184 183
f 180 182 202
f 180 202 203
f 180 203 201
f 184 201 204
f 184 204 185
f 185 204 186
f 186 204 205
f 186 205 206
f 186 206 187
f 187 207 188
f 187 206 207
f 188 207 189
f 189 207 190
f 190 207 208
f 190 208 212
f 190 212 194
f 191 200 192
f 192 200 209
f 192 209 210
f 192 210 211
f 194 212 213
f 194 213 195
f 195 213 196
f 196 213 197
f 197 213 227
f 197 227 214
f 197 214 198
f 198 214 215
f 198 215 216
f 198 216 199
f 199 216 200
f 200 216 209
f 201 203 217
f 201 217 218
f 201 218 204
f 204 218 219
f 204 219 205
f 205 219 220
f 205 220 222
f 205 222 206
f 206 221 207
f 206 222 233
f 206 233 221
f 207 221 223
f 207 223 208
f 208 223 226
f 208 226 212
f 209 216 224
f 209 224 225
f 209 225 210
f 212 226 227
f 212 227 213
f 214 227 228
f 214 228 229
f 214 229 230
f 214 230 215
f 215 230 231
f 215 231 216
f 216 231 232
f 216 232 224
f 221 233 234
f 221 234 223
f 223 234 235
f 223 235 236
f 223 236 226
f 226 236 237
f 226 237 227
f 227 237 238
f 227 238 228

