# https://github.com/mikedh/trimesh
v -0.00090041 0.02814118 -0.03643550
v -0.00270140 0.02814118 -0.03633593
v -0.00090041 0.02910017 -0.03643397
v -0.00005289 0.02910017 -0.03643243
v -0.00045067 0.02814118 -0.03643397
v -0.00354293 0.02814118 -0.03626087
v -0.00270140 0.02910017 -0.03632520
v -0.00090041 0.03028867 -0.03621644
v -0.00005289 0.03028867 -0.03621644
v -0.00450039 0.03011326 -0.03607858
v -0.00270140 0.03022063 -0.03615670
v -0.00005289 0.02814118 -0.03643243
v -0.00450039 0.02814118 -0.03616742
v -0.00450039 0.02910017 -0.03616283
v -0.00548783 0.03002850 -0.03602190
v -0.00090041 0.03078364 -0.03510432
v -0.00005289 0.03055052 -0.03562821
v -0.00270140 0.03071560 -0.03510432
v -0.00990135 0.03042392 -0.03462026
v -0.00810036 0.03049475 -0.03481634
v -0.00450039 0.03060825 -0.03510432
v -0.00005289 0.02814118 -0.02894477
v -0.00499011 0.02814118 -0.03610768
v -0.00554980 0.02910017 -0.03603262
v -0.00810036 0.02814118 -0.03550873
v -0.00810036 0.02910017 -0.03547962
v -0.00990135 0.02910017 -0.03505684
v -0.01136452 0.03023541 -0.03439967
v -0.00005289 0.03078364 -0.03510432
v -0.00810036 0.03099000 -0.03330440
v -0.00990135 0.03091889 -0.03330440
v -0.01349932 0.03049475 -0.03311445
v -0.02047340 0.02814118 -0.02078769
v -0.00005289 0.02854998 -0.02933233
v -0.00554980 0.02814118 -0.03603109
v -0.00644929 0.02814118 -0.03585186
v -0.00894189 0.02814118 -0.03531112
v -0.00990135 0.02814118 -0.03506756
v -0.01166635 0.02910017 -0.03450537
v -0.01256585 0.02910017 -0.03418675
v -0.01349932 0.02910017 -0.03383902
v -0.01633373 0.03009375 -0.03247261
v -0.01529831 0.03031795 -0.03273149
v -0.00005289 0.03099000 -0.03330440
v -0.01349932 0.03099000 -0.03150448
v -0.01529831 0.03081292 -0.03150448
v -0.02047340 0.02892421 -0.02170526
v -0.02047340 0.02814118 -0.03013501
v -0.00005289 0.02905221 -0.02980873
v -0.00005289 0.02947579 -0.03021620
v -0.00005289 0.02995181 -0.03067422
v -0.01072488 0.02814118 -0.03481021
v -0.01167435 0.02814118 -0.03451150
v -0.01209611 0.02814118 -0.03436291
v -0.01257584 0.02814118 -0.03419287
v -0.01301160 0.02814118 -0.03403050
v -0.01349932 0.02814118 -0.03384514
v -0.01434085 0.02814118 -0.03348210
v -0.01529831 0.02910017 -0.03306237
v -0.01640969 0.02910017 -0.03251090
v -0.01730918 0.02910017 -0.03205289
v -0.01978379 0.02944512 -0.03058844
v -0.01858246 0.03032799 -0.03096834
v -0.01699935 0.03045097 -0.03154278
v -0.00005289 0.03072788 -0.03238836
v -0.02047340 0.03099000 -0.02633144
v -0.02047340 0.03097188 -0.02610472
v -0.02047340 0.03060490 -0.02423740
v -0.01709930 0.03098833 -0.02970303
v -0.01889828 0.03099000 -0.02790465
v -0.01907019 0.03059263 -0.02987460
v -0.02047340 0.03084918 -0.02817884
v -0.02047340 0.02937568 -0.02224447
v -0.02047340 0.02890107 -0.03012735
v -0.01979978 0.02824519 -0.03060529
v -0.01979978 0.02814118 -0.03060529
v -0.00005289 0.03049475 -0.03157495
v -0.02047340 0.03052905 -0.02407809
v -0.02047340 0.02941277 -0.02229349
v -0.01529831 0.02814118 -0.03306544
v -0.01641768 0.02814118 -0.03251397
v -0.01683744 0.02814118 -0.03230104
v -0.01731717 0.02814118 -0.03205595
v -0.01907019 0.02894708 -0.03104340
v -0.02047340 0.02897915 -0.03012582
v -0.02047340 0.03016040 -0.02967546
v -0.02047340 0.03042308 -0.02944415
v -0.02047340 0.03090300 -0.02790465
v -0.02047340 0.03058314 -0.02417460
v -0.01971183 0.02814118 -0.03065890
v -0.01821467 0.02814118 -0.03153971
v -0.01907219 0.02814118 -0.03104493
f 1 2 3
f 1 3 4
f 1 4 5
f 1 5 12
f 1 12 22
f 1 22 33
f 1 33 48
f 1 48 76
f 1 76 90
f 1 90 92
f 1 92 91
f 1 91 83
f 1 83 82
f 1 82 81
f 1 81 80
f 1 80 58
f 1 58 57
f 1 57 56
f 1 56 55
f 1 55 54
f 1 54 53
f 1 53 52
f 1 52 38
f 1 38 37
f 1 37 25
f 1 25 36
f 1 36 35
f 1 35 23
f 1 23 13
f 1 13 6
f 1 6 2
f 2 6 7
f 2 7 3
f 3 8 9
f 3 9 4
f 3 7 10
f 3 10 11
f 3 11 8
f 4 9 17
f 4 17 29
f 4 29 44
f 4 44 65
f 4 65 77
f 4 77 51
f 4 51 50
f 4 50 49
f 4 49 34
f 4 34 22
f 4 22 12
f 4 12 5
f 6 13 14
f 6 14 7
f 7 14 15
f 7 15 10
f 8 16 17
f 8 17 9
f 8 11 18
f 8 18 16
f 10 15 19
f 10 19 20
f 10 20 11
f 11 21 18
f 11 20 21
f 13 23 14
f 14 23 24
f 14 24 15
f 15 24 25
f 15 25 26
f 15 26 27
f 15 27 28
f 15 28 19
f 16 29 17
f 16 18 30
f 16 30 44
f 16 44 29
f 18 21 20
f 18 20 31
f 18 31 30
f 19 28 32
f 19 32 31
f 19 31 20
f 22 34 33
f 23 35 24
f 24 35 36
f 24 36 25
f 25 37 27
f 25 27 26
f 27 37 38
f 27 38 39
f 27 39 28
f 28 39 40
f 28 40 41
f 28 41 42
f 28 42 43
f 28 43 32
f 30 31 45
f 30 45 70
f 30 70 66
f 30 66 44
f 31 32 46
f 31 46 45
f 32 43 46
f 33 47 73
f 33 73 79
f 33 79 78
f 33 78 89
f 33 89 68
f 33 68 67
f 33 67 66
f 33 66 88
f 33 88 72
f 33 72 87
f 33 87 86
f 33 86 85
f 33 85 74
f 33 74 48
f 33 34 49
f 33 49 50
f 33 50 51
f 33 51 47
f 38 52 39
f 39 52 53
f 39 53 54
f 39 54 40
f 40 54 55
f 40 55 41
f 41 55 56
f 41 56 57
f 41 57 58
f 41 58 59
f 41 59 42
f 42 59 60
f 42 60 61
f 42 61 62
f 42 62 63
f 42 63 43
f 43 63 64
f 43 64 46
f 44 66 67
f 44 67 68
f 44 68 65
f 45 46 69
f 45 69 70
f 46 64 63
f 46 63 71
f 46 71 72
f 46 72 69
f 47 51 73
f 48 74 75
f 48 75 76
f 51 77 78
f 51 78 79
f 51 79 73
f 58 80 59
f 59 80 81
f 59 81 60
f 60 81 82
f 60 82 61
f 61 82 83
f 61 83 84
f 61 84 62
f 62 84 75
f 62 75 85
f 62 85 86
f 62 86 63
f 63 86 87
f 63 87 71
f 65 68 77
f 66 70 88
f 68 89 77
f 69 72 88
f 69 88 70
f 71 87 72
f 74 85 75
f 75 84 90
f 75 90 76
f 77 89 78
f 83 91 84
f 84 92 90
f 84 91 92

