# https://github.com/mikedh/trimesh
v -0.02174002 0.02729889 0.02925305
v -0.02174002 0.02911969 0.02922617
v -0.02195655 0.02909988 0.02907297
v -0.02197806 0.02729889 0.02908104
v -0.02193074 0.02549912 0.02904072
v -0.02174002 0.02578258 0.02918854
v -0.02174002 0.03020771 0.02900578
v -0.02183036 0.03019286 0.02897622
v -0.02285711 0.02909988 0.02836344
v -0.02287718 0.02729889 0.02837150
v -0.02178304 0.02434054 0.02893053
v -0.02174002 0.02438263 0.02896816
v -0.02174002 0.02551398 0.02917510
v -0.02282986 0.02549912 0.02833119
v -0.02174002 0.03064713 0.02789579
v -0.02245845 0.03048126 0.02789848
v -0.02376483 0.03027826 0.02730182
v -0.02395412 0.02909988 0.02746308
v -0.02395698 0.02729889 0.02747114
v -0.02174002 0.02329832 0.02837688
v -0.02174002 0.02431579 0.02894666
v -0.02390679 0.02549912 0.02743083
v -0.02370747 0.02407813 0.02725882
v -0.02334754 0.02287870 0.02695511
v -0.02174002 0.03096772 0.02609507
v -0.02250004 0.03095163 0.02609507
v -0.02433843 0.03054068 0.02613807
v -0.02556306 0.03029189 0.02556829
v -0.02485467 0.02909988 0.02666485
v -0.02485754 0.02729889 0.02667291
v -0.02480591 0.02549912 0.02663797
v -0.02174002 0.02267199 0.02799254
v -0.02550284 0.02370060 0.02548766
v -0.02525619 0.02271036 0.02524846
v -0.02421941 0.02202710 0.02563817
v -0.02264918 0.02173126 0.02667560
v -0.02214871 0.02221772 0.02740126
v -0.02174002 0.03083528 0.02423522
v -0.02250004 0.03099000 0.02429435
v -0.02430114 0.03096153 0.02429435
v -0.02613810 0.03054316 0.02432660
v -0.02665147 0.02909988 0.02483188
v -0.02575235 0.02909988 0.02576449
v -0.02731972 0.03028199 0.02374876
v -0.02576382 0.02729889 0.02577255
v -0.02574375 0.02549912 0.02573761
v -0.02174002 0.02207166 0.02758402
v -0.02640339 0.02370060 0.02457655
v -0.02704439 0.02272522 0.02343968
v -0.02594021 0.02211745 0.02413040
v -0.02476433 0.02151094 0.02481844
v -0.02174002 0.02112722 0.02692824
v -0.02356407 0.02090441 0.02532103
v -0.02174002 0.02798958 0.00179612
v -0.03329950 0.03099000 0.00179612
v -0.02430114 0.03099000 0.02249363
v -0.02610081 0.03095410 0.02249363
v -0.02790049 0.03099000 0.01889488
v -0.02790049 0.03088355 0.02069291
v -0.02791196 0.03048126 0.02245332
v -0.02666294 0.02729889 0.02483457
v -0.02748032 0.02909988 0.02393152
v -0.02897312 0.03018915 0.02182710
v -0.02664430 0.02549912 0.02481038
v -0.02724801 0.02370060 0.02367619
v -0.02662423 0.02152455 0.02299353
v -0.02823748 0.02363005 0.02243988
v -0.02873221 0.02298144 0.02149920
v -0.02744304 0.02203576 0.02243450
v -0.02542397 0.02085490 0.02361975
v -0.02174002 0.02096506 0.02675354
v -0.02250004 0.02071627 0.02572417
v -0.02421941 0.02067047 0.02424866
v -0.02174002 0.01834464 0.00179612
v -0.03509917 0.03075235 0.00179612
v -0.03329950 0.03099000 0.00809594
v -0.02969872 0.03098258 0.01709416
v -0.03149983 0.03099000 0.01349810
v -0.02969872 0.03074864 0.01889488
v -0.02962272 0.03032283 0.02052628
v -0.02748319 0.02729889 0.02393421
v -0.02838088 0.02909988 0.02284840
v -0.02838231 0.02729889 0.02285646
v -0.03087317 0.03025351 0.01889488
v -0.03061218 0.03001834 0.01981405
v -0.02745594 0.02549912 0.02391002
v -0.02895734 0.02418211 0.02180291
v -0.02716197 0.02087842 0.02179216
v -0.02945494 0.02363005 0.02081654
v -0.03040282 0.02370060 0.01946735
v -0.03071113 0.02257297 0.01819072
v -0.02907637 0.02190084 0.02018495
v -0.02842103 0.02190084 0.02108531
v -0.02881251 0.02098982 0.01981137
v -0.02605493 0.02065066 0.02243450
v -0.02174002 0.02061229 0.02597413
v -0.02250004 0.02023848 0.02429435
v -0.03092479 0.01834464 0.01108191
v -0.03367090 0.01834464 0.00179612
v -0.02174002 0.01834464 0.01303583
v -0.03618614 0.03025722 0.00179612
v -0.03509917 0.03072264 0.00269648
v -0.03329950 0.03093059 0.00989666
v -0.03149983 0.03082290 0.01529613
v -0.03153138 0.03045528 0.01700278
v -0.02835650 0.02549912 0.02283227
v -0.02906203 0.02909988 0.02194804
v -0.02906776 0.02729889 0.02195610
v -0.02905342 0.02549912 0.02193191
v -0.03272733 0.03032778 0.01529613
v -0.03248068 0.03010745 0.01634162
v -0.03252657 0.02909988 0.01642763
v -0.03203328 0.02909988 0.01732799
v -0.03115567 0.02909988 0.01889488
v -0.03062222 0.02909988 0.01982749
v -0.02996114 0.02909988 0.02072785
v -0.03057920 0.02495326 0.01976030
v -0.03185689 0.01834464 0.00996654
v -0.03093196 0.02370060 0.01856699
v -0.03034689 0.02137230 0.01755912
v -0.03184399 0.02378477 0.01698397
v -0.03222973 0.02324014 0.01581485
v -0.03097211 0.02194416 0.01701353
v -0.03067958 0.02092917 0.01636044
v -0.03197591 0.01834464 0.00977303
v -0.02174002 0.02035730 0.02521083
v -0.02174002 0.02015678 0.02429435
v -0.02955102 0.01834464 0.01195808
v -0.03390608 0.01889918 0.00179612
v -0.03362071 0.01834464 0.00269648
v -0.03447681 0.02035359 0.00269648
v -0.02430114 0.01834464 0.01303583
v -0.03629656 0.02966432 0.00179612
v -0.03616033 0.03022752 0.00269648
v -0.03509917 0.03060257 0.00449719
v -0.03481524 0.03049488 0.00809594
v -0.03462452 0.03043671 0.00989666
v -0.03310304 0.03049488 0.01349810
v -0.02996832 0.02729889 0.02072785
v -0.03061218 0.02615268 0.01981405
v -0.03006869 0.02553131 0.02052628
v -0.03441372 0.03025228 0.01136949
v -0.03382291 0.02909988 0.01349810
v -0.03306576 0.02909988 0.01529613
v -0.03253518 0.02729889 0.01644375
v -0.03203758 0.02729889 0.01734411
v -0.03115997 0.02729889 0.01889488
v -0.03062222 0.02729889 0.01982749
v -0.03102087 0.02553131 0.01905345
v -0.03201750 0.02549912 0.01730917
v -0.03245917 0.02444081 0.01630937
v -0.03269005 0.02378477 0.01524775
v -0.03249502 0.02260144 0.01461616
v -0.03182965 0.02196149 0.01524775
v -0.03271156 0.01834464 0.00827602
v -0.02926565 0.01834464 0.01208440
v -0.02782162 0.01834464 0.01269181
v -0.02772267 0.01834464 0.01273212
v -0.02610081 0.01834464 0.01300895
v -0.03449832 0.02029665 0.00179612
v -0.03361498 0.01834464 0.00275560
v -0.03343716 0.01834464 0.00449719
v -0.03605995 0.02444700 0.00412092
v -0.03512785 0.02190084 0.00269648
v -0.03638260 0.02909988 0.00179612
v -0.03633384 0.02909988 0.00269648
v -0.03606999 0.03010745 0.00449719
v -0.03601693 0.03002699 0.00549162
v -0.03506188 0.02909988 0.00989666
v -0.03451840 0.02909988 0.01167051
v -0.03418428 0.02909988 0.01257087
v -0.03419718 0.02801557 0.01258968
v -0.03420579 0.02681490 0.01261118
v -0.03390895 0.02736944 0.01332609
v -0.03307436 0.02729889 0.01529613
v -0.03251367 0.02549912 0.01640881
v -0.03302847 0.02549912 0.01529613
v -0.03417137 0.02508941 0.01251711
v -0.03339844 0.02370060 0.01349810
v -0.03398208 0.02362015 0.01182908
v -0.03272160 0.02221277 0.01349810
v -0.03274741 0.01834464 0.00817926
v -0.03482384 0.02107028 0.00179612
v -0.03343143 0.01834464 0.00454288
v -0.03612161 0.02429474 0.00269648
v -0.03575164 0.02339487 0.00269648
v -0.03571722 0.02378849 0.00463158
v -0.03541752 0.02370060 0.00629791
v -0.03598968 0.02486785 0.00531961
v -0.03629369 0.02549912 0.00269648
v -0.03638834 0.02729889 0.00179612
v -0.03634532 0.02729889 0.00269648
v -0.03615029 0.02909988 0.00449719
v -0.03602697 0.02909988 0.00555075
v -0.03553224 0.02729889 0.00809594
v -0.03583624 0.02909988 0.00645111
v -0.03548061 0.02909988 0.00809594
v -0.03506905 0.02729889 0.00989666
v -0.03445243 0.02736944 0.01187208
v -0.03420579 0.02628884 0.01261118
v -0.03387453 0.02561300 0.01332609
v -0.03442806 0.02561300 0.01182908
v -0.03501170 0.02549912 0.00989666
v -0.03437213 0.02416601 0.01131842
v -0.03413122 0.02296659 0.01054707
v -0.03277895 0.01834464 0.00809057
v -0.03548205 0.02264847 0.00179612
v -0.03317761 0.01834464 0.00629791
v -0.03633528 0.02549912 0.00179612
v -0.03614312 0.02424400 0.00179612
v -0.03595813 0.02379344 0.00179612
v -0.03417711 0.02105171 0.00705851
v -0.03505471 0.02370060 0.00809594
v -0.03547918 0.02549912 0.00809594
v -0.03587353 0.02548056 0.00616084
v -0.03600976 0.02606728 0.00546743
v -0.03610010 0.02548056 0.00463158
v -0.03615889 0.02729889 0.00449719
v -0.03587496 0.02729889 0.00643229
v -0.03602123 0.02729889 0.00553194
v -0.03455998 0.02362015 0.00992623
v -0.03429469 0.02259277 0.00934838
v -0.03444383 0.02223257 0.00809594
f 1 2 3
f 1 3 4
f 1 4 5
f 1 5 6
f 1 6 13
f 1 13 12
f 1 12 21
f 1 21 20
f 1 20 32
f 1 32 47
f 1 47 52
f 1 52 71
f 1 71 96
f 1 96 126
f 1 126 127
f 1 127 100
f 1 100 74
f 1 74 54
f 1 54 38
f 1 38 25
f 1 25 15
f 1 15 7
f 1 7 2
f 2 7 8
f 2 8 3
f 3 8 9
f 3 9 4
f 4 9 10
f 4 10 14
f 4 14 5
f 5 11 12
f 5 12 13
f 5 13 6
f 5 14 11
f 7 15 16
f 7 16 8
f 8 16 17
f 8 17 18
f 8 18 9
f 9 18 10
f 10 18 19
f 10 19 14
f 11 20 21
f 11 21 12
f 11 14 22
f 11 22 23
f 11 23 24
f 11 24 20
f 14 19 22
f 15 25 26
f 15 26 27
f 15 27 16
f 16 27 17
f 17 27 28
f 17 28 29
f 17 29 18
f 18 29 30
f 18 30 19
f 19 30 31
f 19 31 22
f 20 24 32
f 22 31 23
f 23 31 33
f 23 33 34
f 23 34 24
f 24 34 35
f 24 35 36
f 24 36 37
f 24 37 32
f 25 38 39
f 25 39 40
f 25 40 26
f 26 40 27
f 27 40 41
f 27 41 28
f 28 42 43
f 28 43 29
f 28 41 44
f 28 44 42
f 29 43 45
f 29 45 30
f 30 45 46
f 30 46 31
f 31 46 33
f 32 37 47
f 33 46 48
f 33 48 34
f 34 48 49
f 34 49 50
f 34 50 51
f 34 51 35
f 35 51 36
f 36 52 37
f 36 51 53
f 36 53 52
f 37 52 47
f 38 54 55
f 38 55 39
f 39 56 40
f 39 55 76
f 39 76 78
f 39 78 58
f 39 58 56
f 40 57 41
f 40 56 58
f 40 58 57
f 41 57 59
f 41 59 60
f 41 60 44
f 42 61 45
f 42 45 43
f 42 44 62
f 42 62 61
f 44 60 63
f 44 63 62
f 45 61 64
f 45 64 46
f 46 64 48
f 48 64 65
f 48 65 49
f 49 66 50
f 49 65 67
f 49 67 68
f 49 68 69
f 49 69 66
f 50 66 51
f 51 66 70
f 51 70 53
f 52 53 71
f 53 72 71
f 53 70 73
f 53 73 72
f 54 74 99
f 54 99 129
f 54 129 160
f 54 160 183
f 54 183 207
f 54 207 211
f 54 211 210
f 54 210 209
f 54 209 191
f 54 191 165
f 54 165 133
f 54 133 101
f 54 101 75
f 54 75 55
f 55 75 76
f 57 58 77
f 57 77 59
f 58 78 77
f 59 77 79
f 59 79 60
f 60 79 80
f 60 80 63
f 61 62 81
f 61 81 64
f 62 63 82
f 62 82 83
f 62 83 81
f 63 80 84
f 63 84 85
f 63 85 82
f 64 81 86
f 64 86 65
f 65 86 87
f 65 87 67
f 66 69 88
f 66 88 70
f 67 87 68
f 68 89 90
f 68 90 91
f 68 91 92
f 68 92 93
f 68 93 69
f 68 87 89
f 69 93 94
f 69 94 88
f 70 88 95
f 70 95 73
f 71 72 96
f 72 73 97
f 72 97 96
f 73 95 98
f 73 98 97
f 74 100 132
f 74 132 159
f 74 159 158
f 74 158 157
f 74 157 156
f 74 156 128
f 74 128 98
f 74 98 118
f 74 118 125
f 74 125 155
f 74 155 182
f 74 182 206
f 74 206 208
f 74 208 184
f 74 184 162
f 74 162 161
f 74 161 130
f 74 130 99
f 75 101 102
f 75 102 103
f 75 103 76
f 76 103 78
f 77 78 104
f 77 104 79
f 78 103 104
f 79 104 105
f 79 105 84
f 79 84 80
f 81 83 106
f 81 106 86
f 82 85 107
f 82 107 108
f 82 108 83
f 83 108 109
f 83 109 106
f 84 105 110
f 84 110 111
f 84 111 85
f 85 111 112
f 85 112 113
f 85 113 114
f 85 114 115
f 85 115 116
f 85 116 107
f 86 106 87
f 87 106 109
f 87 109 117
f 87 117 90
f 87 90 89
f 88 94 118
f 88 118 98
f 88 98 95
f 90 117 119
f 90 119 91
f 91 120 94
f 91 94 92
f 91 119 121
f 91 121 122
f 91 122 123
f 91 123 120
f 92 94 93
f 94 120 124
f 94 124 125
f 94 125 118
f 96 97 126
f 97 127 126
f 97 98 128
f 97 128 127
f 99 130 131
f 99 131 129
f 100 127 132
f 101 133 134
f 101 134 102
f 102 134 135
f 102 135 136
f 102 136 103
f 103 136 137
f 103 137 138
f 103 138 104
f 104 138 110
f 104 110 105
f 107 116 108
f 108 116 115
f 108 115 139
f 108 139 109
f 109 139 140
f 109 140 141
f 109 141 117
f 110 138 142
f 110 142 111
f 111 142 143
f 111 143 144
f 111 144 112
f 112 144 145
f 112 145 113
f 113 146 114
f 113 145 146
f 114 146 147
f 114 147 115
f 115 147 148
f 115 148 139
f 117 149 150
f 117 150 151
f 117 151 119
f 117 141 140
f 117 140 149
f 119 151 121
f 120 123 124
f 121 151 122
f 122 151 152
f 122 152 153
f 122 153 123
f 123 153 154
f 123 154 124
f 124 154 155
f 124 155 125
f 127 128 156
f 127 156 157
f 127 157 158
f 127 158 159
f 127 159 132
f 129 131 160
f 130 161 131
f 131 161 162
f 131 162 163
f 131 163 164
f 131 164 183
f 131 183 160
f 133 165 166
f 133 166 134
f 134 166 167
f 134 167 137
f 134 137 136
f 134 136 135
f 137 142 138
f 137 167 168
f 137 168 142
f 139 148 140
f 140 148 147
f 140 147 150
f 140 150 149
f 142 169 170
f 142 170 171
f 142 171 143
f 142 168 169
f 143 171 172
f 143 172 173
f 143 173 174
f 143 174 144
f 144 175 145
f 144 174 175
f 145 175 176
f 145 176 150
f 145 150 146
f 146 150 147
f 150 176 151
f 151 176 177
f 151 177 178
f 151 178 179
f 151 179 152
f 152 179 153
f 153 179 180
f 153 180 181
f 153 181 155
f 153 155 154
f 155 181 182
f 162 184 163
f 163 185 186
f 163 186 164
f 163 184 187
f 163 187 188
f 163 188 189
f 163 189 190
f 163 190 185
f 164 186 183
f 165 191 192
f 165 192 166
f 166 192 193
f 166 193 168
f 166 168 167
f 168 193 194
f 168 194 195
f 168 195 196
f 168 196 197
f 168 197 169
f 169 197 195
f 169 195 198
f 169 198 170
f 170 199 173
f 170 173 172
f 170 172 171
f 170 198 199
f 173 200 174
f 173 199 200
f 174 200 175
f 175 177 176
f 175 200 177
f 177 200 201
f 177 201 178
f 178 201 200
f 178 200 202
f 178 202 203
f 178 203 204
f 178 204 179
f 179 204 180
f 180 204 205
f 180 205 181
f 181 205 206
f 181 206 182
f 183 186 207
f 184 208 187
f 185 190 209
f 185 209 210
f 185 210 211
f 185 211 186
f 186 211 207
f 187 208 188
f 188 208 212
f 188 212 213
f 188 213 189
f 189 213 214
f 189 214 215
f 189 215 216
f 189 216 217
f 189 217 190
f 190 192 191
f 190 191 209
f 190 217 192
f 192 217 218
f 192 218 193
f 193 218 194
f 194 219 195
f 194 218 220
f 194 220 219
f 195 197 196
f 195 219 214
f 195 214 198
f 198 214 203
f 198 203 202
f 198 202 200
f 198 200 199
f 203 214 204
f 204 214 213
f 204 213 221
f 204 221 205
f 205 221 222
f 205 222 206
f 206 222 223
f 206 223 212
f 206 212 208
f 212 223 213
f 213 223 222
f 213 222 221
f 214 219 215
f 215 219 216
f 216 220 218
f 216 218 217
f 216 219 220

