# https://github.com/mikedh/trimesh
v -0.00005289 0.01834464 -0.01651728
v -0.00005289 0.01834464 -0.00010522
v -0.00005289 0.02798958 -0.01651728
v 0.01329145 0.01834464 -0.01651728
v -0.00005289 0.02798958 -0.00010522
v 0.03372921 0.01834464 -0.00010522
v 0.02785313 0.03084394 -0.01651728
v 0.02789954 0.02007509 -0.01651728
v 0.02789954 0.01834464 -0.01266289
v 0.03329725 0.03099000 -0.00010522
v 0.02969878 0.03099000 -0.01530425
v 0.03371850 0.01834464 -0.00090534
v 0.03413975 0.01933983 -0.00090534
v 0.03395412 0.01887690 -0.00010522
v 0.02969878 0.03098506 -0.01651728
v 0.02848501 0.02016421 -0.01651728
v 0.02954527 0.01834464 -0.01195596
v 0.03509649 0.03077587 -0.00010522
v 0.03329725 0.03099000 -0.00810479
v 0.03149802 0.03098506 -0.01350318
v 0.03371493 0.01834464 -0.00097443
v 0.03447532 0.02035359 -0.00270480
v 0.03451816 0.02023971 -0.00090534
v 0.03452173 0.02022857 -0.00010522
v 0.03149802 0.03081423 -0.01530425
v 0.03152657 0.03055677 -0.01651728
v 0.02971663 0.02053431 -0.01651728
v 0.03091969 0.01834464 -0.01108354
v 0.03620316 0.03028074 -0.00010522
v 0.03509649 0.03077091 -0.00090534
v 0.03509649 0.03073626 -0.00270480
v 0.03329725 0.03091574 -0.00990425
v 0.03361854 0.01834464 -0.00270480
v 0.03605680 0.02444700 -0.00412509
v 0.03512505 0.02190084 -0.00270480
v 0.03343648 0.01834464 -0.00450587
v 0.03574979 0.02339610 -0.00270480
v 0.03521073 0.02190084 -0.00090534
v 0.03554273 0.02267323 -0.00010522
v 0.03490728 0.02115073 -0.00010522
v 0.03329725 0.03067313 -0.01170372
v 0.03332938 0.03039586 -0.01332966
v 0.03271893 0.03032035 -0.01530425
v 0.03224413 0.03018667 -0.01651728
v 0.03007362 0.02067666 -0.01651728
v 0.03185144 0.01834464 -0.00997013
v 0.03045917 0.02086233 -0.01651728
v 0.03629955 0.02975220 -0.00010522
v 0.03619959 0.03027580 -0.00090534
v 0.03616746 0.03024113 -0.00270480
v 0.03482161 0.03049488 -0.00810479
v 0.03461455 0.03042061 -0.00990425
v 0.03571409 0.02378849 -0.00463762
v 0.03541421 0.02370060 -0.00630533
v 0.03598897 0.02492355 -0.00532527
v 0.03628884 0.02549912 -0.00270480
v 0.03612106 0.02429598 -0.00270480
v 0.03317588 0.01834464 -0.00630694
v 0.03616389 0.02419325 -0.00090534
v 0.03579619 0.02328594 -0.00010522
v 0.03434324 0.03017800 -0.01170372
v 0.03420401 0.03000595 -0.01261469
v 0.03247260 0.03010126 -0.01635661
v 0.03247617 0.02909988 -0.01651728
v 0.03196924 0.01834464 -0.00978054
v 0.03067693 0.02093041 -0.01636625
v 0.03063767 0.02098611 -0.01651728
v 0.03641022 0.02909988 -0.00010522
v 0.03640308 0.02909988 -0.00090534
v 0.03633882 0.02909988 -0.00270480
v 0.03607822 0.03011735 -0.00450587
v 0.03600325 0.03000719 -0.00543291
v 0.03505365 0.02370060 -0.00810479
v 0.03417545 0.02105295 -0.00706368
v 0.03587116 0.02551398 -0.00615591
v 0.03600682 0.02612297 -0.00545541
v 0.03609606 0.02551398 -0.00463762
v 0.03547133 0.02549912 -0.00810479
v 0.03633882 0.02729889 -0.00270480
v 0.03636738 0.02549912 -0.00090534
v 0.03616032 0.02729889 -0.00450587
v 0.03277605 0.01834464 -0.00809837
v 0.03637452 0.02549912 -0.00010522
v 0.03616389 0.02418582 -0.00010522
v 0.03421115 0.02909988 -0.01263397
v 0.03383274 0.02909988 -0.01353370
v 0.03305093 0.02909988 -0.01530425
v 0.03504294 0.02909988 -0.00990425
v 0.03450032 0.02909988 -0.01170372
v 0.03251544 0.02909988 -0.01644176
v 0.03249759 0.02742267 -0.01651728
v 0.03270822 0.01834464 -0.00827992
v 0.03074476 0.02116435 -0.01651728
v 0.03182645 0.02196273 -0.01525444
v 0.03641379 0.02829903 -0.00010522
v 0.03640665 0.02729889 -0.00090534
v 0.03641736 0.02729889 -0.00010522
v 0.03616389 0.02909988 -0.00450587
v 0.03601039 0.02909988 -0.00547147
v 0.03586759 0.02729889 -0.00638888
v 0.03552488 0.02729889 -0.00810479
v 0.03548561 0.02909988 -0.00810479
v 0.03444320 0.02223505 -0.00810479
v 0.03429326 0.02259401 -0.00935156
v 0.03455743 0.02362139 -0.00993157
v 0.03436823 0.02416849 -0.01132133
v 0.03601039 0.02729889 -0.00548915
v 0.03500724 0.02549912 -0.00990425
v 0.03271893 0.02221648 -0.01350318
v 0.03412904 0.02296906 -0.01055174
v 0.03421115 0.02729889 -0.01263879
v 0.03383631 0.02729889 -0.01353852
v 0.03451459 0.02729889 -0.01170372
v 0.03306521 0.02729889 -0.01530425
v 0.03252972 0.02729889 -0.01645622
v 0.03505722 0.02729889 -0.00990425
v 0.03249759 0.02729889 -0.01651728
v 0.03249402 0.02260391 -0.01461981
v 0.03121242 0.02195035 -0.01651728
v 0.03397911 0.02362139 -0.01183386
v 0.03339364 0.02370060 -0.01350318
v 0.03416831 0.02507332 -0.01252151
v 0.03442535 0.02560310 -0.01183386
v 0.03420401 0.02627275 -0.01262112
v 0.03302594 0.02549912 -0.01530425
v 0.03251187 0.02549912 -0.01641766
v 0.03245832 0.02549912 -0.01651728
v 0.03268680 0.02378725 -0.01525444
v 0.03222628 0.02324385 -0.01581999
v 0.03199780 0.02356692 -0.01651728
v 0.03245832 0.02444452 -0.01631644
v 0.03387201 0.02560310 -0.01333448
v 0.03236908 0.02465495 -0.01651728
v 0.03227269 0.02425019 -0.01651728
f 1 2 5
f 1 5 3
f 1 3 7
f 1 7 15
f 1 15 26
f 1 26 44
f 1 44 64
f 1 64 91
f 1 91 117
f 1 117 127
f 1 127 133
f 1 133 134
f 1 134 130
f 1 130 119
f 1 119 93
f 1 93 67
f 1 67 47
f 1 47 45
f 1 45 27
f 1 27 16
f 1 16 8
f 1 8 4
f 1 4 9
f 1 9 17
f 1 17 28
f 1 28 46
f 1 46 65
f 1 65 92
f 1 92 82
f 1 82 58
f 1 58 36
f 1 36 33
f 1 33 21
f 1 21 12
f 1 12 6
f 1 6 2
f 2 6 14
f 2 14 24
f 2 24 40
f 2 40 39
f 2 39 60
f 2 60 84
f 2 84 83
f 2 83 97
f 2 97 95
f 2 95 68
f 2 68 48
f 2 48 29
f 2 29 18
f 2 18 10
f 2 10 5
f 3 5 7
f 4 8 9
f 5 10 11
f 5 11 7
f 6 12 13
f 6 13 14
f 7 11 15
f 8 16 9
f 9 16 17
f 10 18 19
f 10 19 11
f 11 20 15
f 11 19 20
f 12 21 13
f 13 21 22
f 13 22 23
f 13 23 14
f 14 23 24
f 15 20 25
f 15 25 26
f 16 27 28
f 16 28 17
f 18 29 30
f 18 30 19
f 19 30 31
f 19 31 32
f 19 32 20
f 20 32 25
f 21 33 22
f 22 34 35
f 22 35 23
f 22 33 36
f 22 36 34
f 23 35 37
f 23 37 38
f 23 38 39
f 23 39 40
f 23 40 24
f 25 32 41
f 25 41 42
f 25 42 43
f 25 43 26
f 26 43 44
f 27 45 28
f 28 45 47
f 28 47 46
f 29 48 49
f 29 49 30
f 30 49 31
f 31 49 50
f 31 50 51
f 31 51 32
f 32 51 52
f 32 52 41
f 34 53 54
f 34 54 55
f 34 55 56
f 34 56 57
f 34 57 37
f 34 37 35
f 34 36 53
f 36 58 53
f 37 57 59
f 37 59 38
f 38 59 39
f 39 59 60
f 41 52 42
f 42 52 43
f 43 52 61
f 43 61 62
f 43 62 63
f 43 63 44
f 44 63 64
f 46 47 66
f 46 66 65
f 47 67 66
f 48 68 69
f 48 69 49
f 49 69 50
f 50 69 70
f 50 70 71
f 50 71 51
f 51 71 52
f 52 71 72
f 52 72 61
f 53 58 54
f 54 73 55
f 54 58 74
f 54 74 73
f 55 75 76
f 55 76 77
f 55 77 56
f 55 73 78
f 55 78 75
f 56 79 80
f 56 80 57
f 56 77 81
f 56 81 79
f 57 80 59
f 58 82 74
f 59 80 83
f 59 83 84
f 59 84 60
f 61 72 62
f 62 85 86
f 62 86 87
f 62 87 63
f 62 72 88
f 62 88 89
f 62 89 85
f 63 87 90
f 63 90 64
f 64 90 91
f 65 66 92
f 66 93 94
f 66 94 92
f 66 67 93
f 68 95 69
f 69 96 70
f 69 95 97
f 69 97 96
f 70 96 79
f 70 79 98
f 70 98 72
f 70 72 71
f 72 98 99
f 72 99 100
f 72 100 101
f 72 101 102
f 72 102 88
f 73 74 103
f 73 103 104
f 73 104 105
f 73 105 106
f 73 106 78
f 74 82 103
f 75 100 76
f 75 78 101
f 75 101 100
f 76 107 81
f 76 81 77
f 76 100 107
f 78 106 108
f 78 108 101
f 79 81 98
f 79 96 80
f 80 96 97
f 80 97 83
f 81 107 98
f 82 92 109
f 82 109 110
f 82 110 104
f 82 104 103
f 85 111 112
f 85 112 86
f 85 89 113
f 85 113 111
f 86 112 114
f 86 114 87
f 87 114 115
f 87 115 90
f 88 102 101
f 88 101 116
f 88 116 113
f 88 113 89
f 90 115 91
f 91 115 117
f 92 118 109
f 92 94 118
f 93 119 94
f 94 119 118
f 98 107 100
f 98 100 99
f 101 108 116
f 104 110 105
f 105 110 106
f 106 110 120
f 106 120 121
f 106 121 122
f 106 122 108
f 108 122 123
f 108 123 113
f 108 113 116
f 109 118 120
f 109 120 110
f 111 124 112
f 111 113 124
f 112 124 125
f 112 125 114
f 113 123 124
f 114 125 126
f 114 126 115
f 115 126 117
f 117 126 127
f 118 128 121
f 118 121 120
f 118 119 129
f 118 129 128
f 119 130 129
f 121 128 131
f 121 131 122
f 122 131 125
f 122 125 132
f 122 132 124
f 122 124 123
f 124 132 125
f 125 131 126
f 126 131 127
f 127 131 133
f 128 129 131
f 129 130 131
f 130 134 131
f 131 134 133

