# https://github.com/mikedh/trimesh
v -0.01427754 0.01834464 0.01430388
v -0.02609838 0.01834464 0.01300805
v -0.01427754 0.00457832 0.01414715
v -0.01427754 0.01834464 -0.01427983
v -0.02772201 0.01834464 0.01273098
v -0.02256909 0.00457832 0.01246229
v -0.01427754 0.00457832 -0.01415388
v -0.01427754 0.01834330 -0.01428263
v -0.02616127 0.01834464 -0.01301479
v -0.02926560 0.01834464 0.01208166
v -0.02429943 0.00570081 0.01202289
v -0.02429943 0.00457832 0.01181019
v -0.02259958 0.00457832 -0.01248862
v -0.02770486 0.01834464 -0.01279929
v -0.02955145 0.01834464 0.01195572
v -0.02554002 0.00457832 0.01106851
v -0.02321130 0.00457832 -0.01230391
v -0.02851477 0.01834464 -0.01256979
v -0.02776584 0.01834464 -0.01278249
v -0.03092353 0.01834464 0.01107691
v -0.03068341 0.01717230 0.01087260
v -0.02686637 0.00693110 0.01064590
v -0.02663769 0.00570081 0.01032964
v -0.02646427 0.00457832 0.00998540
v -0.02429943 0.00457832 -0.01188969
v -0.02429943 0.00570081 -0.01209960
v -0.02958384 0.01834464 -0.01206601
v -0.03185539 0.01834464 0.00996301
v -0.03043758 0.01597165 0.01061512
v -0.02706646 0.00457832 0.00913177
v -0.02487875 0.00457832 -0.01157623
v -0.03102072 0.01834464 -0.01115642
v -0.02562006 0.00457832 -0.01112843
v -0.02745140 0.00930005 -0.01115921
v -0.03197545 0.01834464 0.00976989
v -0.03062434 0.01373341 0.00903942
v -0.02707408 0.00458641 0.00912338
v -0.02707408 0.00457832 0.00911218
v -0.02718842 0.00791345 -0.01096330
v -0.03075964 0.01696882 -0.01094371
v -0.03202691 0.01834464 -0.01002572
v -0.02595927 0.00457832 -0.01083176
v -0.02694831 0.00671415 -0.01074780
v -0.03271104 0.01834464 0.00827535
v -0.03230323 0.01762237 0.00868397
v -0.03277774 0.01834464 0.00808784
v -0.02740948 0.00457832 0.00801227
v -0.02885778 0.01183744 -0.01085695
v -0.03052524 0.01576952 -0.01072541
v -0.03210504 0.01834464 -0.00992776
v -0.02656146 0.00457832 -0.01009569
v -0.02673678 0.00570081 -0.01047632
v -0.02835088 0.00930005 -0.01021603
v -0.02861386 0.01063815 -0.01058827
v -0.02680919 0.00457832 -0.00974864
v -0.02737899 0.00570081 -0.00957792
v -0.02881777 0.00835139 -0.00903496
v -0.02899499 0.00930005 -0.00931483
v -0.03274725 0.01834464 0.00817460
v -0.03248236 0.01719251 0.00748611
v -0.03316840 0.01834464 0.00633861
v -0.03315887 0.01829883 0.00629383
v -0.02769152 0.00457832 0.00629383
v -0.03030990 0.01469959 -0.01044553
v -0.03256430 0.01834464 -0.00925886
v -0.03071962 0.01348008 -0.00920568
v -0.02715603 0.00457832 -0.00925606
v -0.03239089 0.01741754 -0.00897898
v -0.02721891 0.00457832 -0.00911332
v -0.02757908 0.00457832 -0.00808898
v -0.02894926 0.00801856 -0.00810297
v -0.03048522 0.01228078 -0.00861235
v -0.03317602 0.01834464 0.00629663
v -0.03343138 0.01834464 0.00453901
v -0.03343710 0.01834464 0.00449423
v -0.03361433 0.01834464 0.00275341
v -0.03362004 0.01834464 0.00269463
v -0.02780776 0.00457832 0.00449423
v -0.03294925 0.01834464 -0.00824011
v -0.03065292 0.01186170 -0.00741168
v -0.03255668 0.01699577 -0.00777832
v -0.02770104 0.00457832 -0.00739489
v -0.03371723 0.01834464 0.00096500
v -0.03372104 0.01834464 0.00089503
v -0.03370199 0.01829883 0.00089503
v -0.02789733 0.00457832 0.00269463
v -0.03336087 0.01834464 -0.00630337
v -0.02788208 0.00457832 -0.00630337
v -0.02874535 0.00673436 -0.00630337
v -0.02910552 0.00763451 -0.00630337
v -0.02977060 0.00930005 -0.00630337
v -0.03036516 0.01079042 -0.00630337
v -0.03072343 0.01168921 -0.00630337
v -0.03334372 0.01829883 -0.00630337
v -0.03374391 0.01834464 -0.00090177
v -0.02795640 0.00457832 0.00088664
v -0.03372485 0.01829883 -0.00090177
v -0.03212219 0.01446512 -0.00090177
v -0.02880633 0.00658209 0.00025412
v -0.03336849 0.01834464 -0.00623900
v -0.02791257 0.00457832 -0.00565686
v -0.03368674 0.01834464 -0.00270417
v -0.03354572 0.01829883 -0.00450377
v -0.03239279 0.01561725 -0.00531541
v -0.02795450 0.00457832 -0.00447578
v -0.02880443 0.00658613 -0.00377329
v -0.02798118 0.00457832 -0.00090177
v -0.02796784 0.00457832 -0.00381248
v -0.02798118 0.00457832 -0.00270417
v -0.03146664 0.01289929 -0.00090177
v -0.03084539 0.01141567 -0.00090177
v -0.03356287 0.01834464 -0.00450377
v -0.03356859 0.01834464 -0.00443100
f 1 2 3
f 1 3 7
f 1 7 8
f 1 8 4
f 1 4 9
f 1 9 14
f 1 14 19
f 1 19 18
f 1 18 27
f 1 27 32
f 1 32 41
f 1 41 50
f 1 50 65
f 1 65 79
f 1 79 87
f 1 87 100
f 1 100 112
f 1 112 113
f 1 113 102
f 1 102 95
f 1 95 84
f 1 84 83
f 1 83 77
f 1 77 76
f 1 76 75
f 1 75 74
f 1 74 73
f 1 73 61
f 1 61 46
f 1 46 59
f 1 59 44
f 1 44 35
f 1 35 28
f 1 28 20
f 1 20 15
f 1 15 10
f 1 10 5
f 1 5 2
f 2 5 3
f 3 5 6
f 3 6 12
f 3 12 16
f 3 16 24
f 3 24 30
f 3 30 38
f 3 38 47
f 3 47 63
f 3 63 78
f 3 78 86
f 3 86 96
f 3 96 107
f 3 107 109
f 3 109 108
f 3 108 105
f 3 105 101
f 3 101 88
f 3 88 82
f 3 82 70
f 3 70 69
f 3 69 67
f 3 67 55
f 3 55 51
f 3 51 42
f 3 42 33
f 3 33 31
f 3 31 25
f 3 25 17
f 3 17 13
f 3 13 7
f 4 8 9
f 5 10 11
f 5 11 6
f 6 11 12
f 7 13 14
f 7 14 9
f 7 9 8
f 10 15 11
f 11 15 12
f 12 15 16
f 13 17 18
f 13 18 19
f 13 19 14
f 15 20 16
f 16 20 21
f 16 21 22
f 16 22 23
f 16 23 24
f 17 25 26
f 17 26 18
f 18 26 25
f 18 25 27
f 20 28 21
f 21 28 29
f 21 29 22
f 22 29 23
f 23 29 24
f 24 29 28
f 24 28 30
f 25 31 27
f 27 31 33
f 27 33 34
f 27 34 32
f 28 35 30
f 30 35 36
f 30 36 37
f 30 37 38
f 32 34 39
f 32 39 40
f 32 40 41
f 33 42 43
f 33 43 39
f 33 39 34
f 35 44 45
f 35 45 36
f 36 45 37
f 37 45 46
f 37 46 47
f 37 47 38
f 39 43 48
f 39 48 40
f 40 48 49
f 40 49 41
f 41 49 50
f 42 51 52
f 42 52 43
f 43 53 54
f 43 54 49
f 43 49 48
f 43 52 51
f 43 51 55
f 43 55 56
f 43 56 57
f 43 57 58
f 43 58 53
f 44 59 45
f 45 59 46
f 46 60 47
f 46 61 60
f 47 60 61
f 47 61 62
f 47 62 63
f 49 54 64
f 49 64 50
f 50 64 66
f 50 66 65
f 53 58 54
f 54 58 66
f 54 66 64
f 55 67 56
f 56 67 57
f 57 68 66
f 57 66 58
f 57 67 69
f 57 69 70
f 57 70 71
f 57 71 72
f 57 72 68
f 61 73 62
f 62 73 74
f 62 74 63
f 63 74 75
f 63 75 76
f 63 76 77
f 63 77 78
f 65 66 68
f 65 68 79
f 68 72 80
f 68 80 81
f 68 81 79
f 70 82 80
f 70 80 71
f 71 80 72
f 77 83 78
f 78 83 84
f 78 84 85
f 78 85 86
f 79 81 87
f 80 82 88
f 80 88 89
f 80 89 90
f 80 90 91
f 80 91 92
f 80 92 93
f 80 93 94
f 80 94 81
f 81 94 87
f 84 95 97
f 84 97 85
f 85 96 86
f 85 97 98
f 85 98 99
f 85 99 96
f 87 94 100
f 88 101 102
f 88 102 103
f 88 103 89
f 89 103 90
f 90 103 91
f 91 103 104
f 91 104 92
f 92 104 93
f 93 104 94
f 94 104 103
f 94 103 100
f 95 102 105
f 95 105 106
f 95 106 97
f 96 99 107
f 97 106 108
f 97 108 109
f 97 109 98
f 98 109 110
f 98 110 99
f 99 110 111
f 99 111 107
f 100 103 112
f 101 105 102
f 102 113 103
f 103 113 112
f 105 108 106
f 107 111 109
f 109 111 110

