# https://github.com/mikedh/trimesh
v -0.00005289 0.01834464 0.02248501
v -0.00005289 0.01834464 0.03152974
v -0.00005289 0.02798958 0.02248501
v 0.01297053 0.01834464 0.02248501
v 0.00090066 0.01834464 0.03151336
v -0.00005289 0.01878778 0.03187657
v -0.00005289 0.03099000 0.03329527
v 0.02430905 0.03099000 0.02248501
v 0.01302397 0.01835207 0.02248501
v 0.01301835 0.01834464 0.02249593
v 0.00270088 0.01834464 0.03141504
v 0.00270088 0.02029789 0.03294571
v 0.00270088 0.02144657 0.03384554
v 0.00090066 0.02228827 0.03459381
v -0.00005289 0.02076949 0.03341953
v -0.00005289 0.03077833 0.03509493
v 0.00810151 0.03099000 0.03329527
v 0.01889998 0.03099000 0.02789628
v 0.02429780 0.03096153 0.02429559
v 0.02610927 0.03095410 0.02248501
v 0.02429780 0.02028675 0.02248501
v 0.01289458 0.01834464 0.02412901
v 0.00276838 0.01834464 0.03140958
v 0.00436607 0.01834464 0.03125529
v 0.00450109 0.02156664 0.03375406
v 0.00270088 0.02234768 0.03454739
v 0.00090066 0.02351246 0.03549364
v -0.00005289 0.02286014 0.03501847
v -0.00005289 0.02228456 0.03459518
v -0.00005289 0.02180801 0.03422651
v -0.00005289 0.03051716 0.03568071
v 0.00090066 0.03077833 0.03509493
v 0.00270088 0.03073254 0.03509493
v 0.00990173 0.03092316 0.03329527
v 0.01350215 0.03098629 0.03149424
v 0.01709977 0.03098010 0.02969458
v 0.02249759 0.03095163 0.02609662
v 0.02433718 0.03054068 0.02614031
v 0.02613458 0.03054316 0.02432836
v 0.02657339 0.03083033 0.02248501
v 0.02443000 0.02032636 0.02248501
v 0.02429780 0.02028799 0.02249593
v 0.01133908 0.01834464 0.02791130
v 0.01226732 0.01834464 0.02609116
v 0.01264705 0.01834464 0.02508619
v 0.00450109 0.01951313 0.03215102
v 0.00450109 0.02041301 0.03285423
v 0.00604815 0.01834464 0.03101633
v 0.00450109 0.02246775 0.03445317
v 0.00630130 0.01834464 0.03097947
v 0.00630130 0.02263733 0.03432209
v 0.00270088 0.02358301 0.03544722
v 0.00090066 0.02441234 0.03610536
v -0.00005289 0.02350998 0.03549501
v 0.00270088 0.02448289 0.03606304
v -0.00005289 0.03028322 0.03620231
v 0.00090066 0.03028322 0.03620231
v 0.00270088 0.03023742 0.03616408
v 0.00810151 0.03049488 0.03482867
v 0.00990173 0.03042804 0.03461020
v 0.01170194 0.03067932 0.03329527
v 0.01529955 0.03083528 0.03149424
v 0.02069738 0.03088726 0.02789628
v 0.02556077 0.03029189 0.02557092
v 0.02245540 0.03048126 0.02790038
v 0.02376337 0.03027826 0.02730368
v 0.02731597 0.03028199 0.02375078
v 0.02789542 0.03047632 0.02248501
v 0.02788135 0.03048126 0.02248501
v 0.02589268 0.02078682 0.02248501
v 0.02412903 0.02079301 0.02416178
v 0.02249759 0.02034245 0.02429559
v 0.01075402 0.01834464 0.02875788
v 0.00444483 0.02385162 0.03544722
v 0.00380632 0.02455221 0.03602207
v 0.00735611 0.02275245 0.03423333
v 0.00810151 0.01834464 0.03052204
v 0.00810151 0.02082767 0.03253062
v 0.00630130 0.02370060 0.03506216
v 0.00090066 0.02549912 0.03632384
v -0.00005289 0.02549912 0.03632657
v -0.00005289 0.02492107 0.03620914
v -0.00005289 0.02441110 0.03610536
v -0.00005289 0.02393454 0.03578312
v 0.00270088 0.02549912 0.03623781
v -0.00005289 0.02965689 0.03631974
v -0.00005289 0.02909988 0.03642215
v 0.00090066 0.02909988 0.03641942
v 0.00270088 0.02909988 0.03633749
v 0.00450109 0.03010250 0.03606440
v 0.01170194 0.03018419 0.03434666
v 0.01529955 0.03034139 0.03272724
v 0.00544339 0.03000843 0.03600022
v 0.01702382 0.03046518 0.03152701
v 0.01907719 0.03058648 0.02987345
v 0.02069738 0.03039215 0.02938053
v 0.02484631 0.02909988 0.02666191
v 0.02574923 0.02909988 0.02576208
v 0.02664933 0.02909988 0.02483494
v 0.02182814 0.03019286 0.02897635
v 0.02394620 0.02909988 0.02746070
v 0.02748193 0.02909988 0.02393511
v 0.02859300 0.02949227 0.02248501
v 0.02527948 0.02094650 0.02347223
v 0.02704031 0.02190084 0.02248501
v 0.02341457 0.02098982 0.02521044
v 0.02249759 0.02080044 0.02556409
v 0.00989610 0.01834464 0.02949932
v 0.00990173 0.02408680 0.03452144
v 0.01120969 0.02436777 0.03433711
v 0.00810151 0.02549912 0.03541991
v 0.00500740 0.02507828 0.03593605
v 0.00444483 0.02560682 0.03607805
v 0.00801432 0.02205185 0.03351784
v 0.00975827 0.02182286 0.03289792
v 0.00855438 0.02294926 0.03408450
v 0.00801432 0.02361024 0.03466072
v 0.00847843 0.01834464 0.03037594
v 0.01445008 0.02098116 0.03061626
v 0.01170194 0.02145771 0.03198990
v 0.01026177 0.02117178 0.03222749
v 0.00906350 0.02098239 0.03241046
v 0.00090066 0.02729889 0.03643034
v -0.00005289 0.02729889 0.03643444
v 0.00270088 0.02729889 0.03634295
v -0.00005289 0.02814678 0.03642898
v 0.00450109 0.02729889 0.03615452
v 0.00450109 0.02909988 0.03614087
v 0.01261048 0.03000471 0.03419783
v 0.01637405 0.03012850 0.03248965
v 0.01859619 0.03031664 0.03094806
v 0.00549121 0.02909988 0.03600705
v 0.00642507 0.02729889 0.03588143
v 0.00639131 0.02909988 0.03585549
v 0.00810151 0.02909988 0.03550183
v 0.02394901 0.02729889 0.02746753
v 0.02484912 0.02729889 0.02666601
v 0.02576329 0.02729889 0.02576482
v 0.02666339 0.02729889 0.02484587
v 0.02194909 0.02909988 0.02907193
v 0.02284919 0.02909988 0.02836054
v 0.01979727 0.02987103 0.03059304
v 0.02286045 0.02729889 0.02836736
v 0.02748193 0.02729889 0.02394604
v 0.02838204 0.02729889 0.02287006
v 0.02838204 0.02909988 0.02285641
v 0.02866332 0.02909988 0.02248501
v 0.02568453 0.02190084 0.02387094
v 0.02472817 0.02190084 0.02477213
v 0.02658463 0.02190084 0.02297793
v 0.02787854 0.02325376 0.02248501
v 0.02696437 0.02286261 0.02336026
v 0.02382806 0.02190084 0.02556546
v 0.02324299 0.02298763 0.02687493
v 0.02204191 0.02232541 0.02734328
v 0.02142590 0.02112474 0.02687356
v 0.02022482 0.02082024 0.02725452
v 0.00980046 0.01834464 0.02957988
v 0.00990173 0.02318692 0.03391109
v 0.00990173 0.02549912 0.03496248
v 0.01170194 0.02235883 0.03273680
v 0.01176664 0.02374145 0.03370354
v 0.01412660 0.02294554 0.03228893
v 0.01351622 0.02360776 0.03296210
v 0.01529955 0.02424028 0.03262756
v 0.01622779 0.02457573 0.03240909
v 0.01240796 0.02518967 0.03412137
v 0.00810151 0.02729889 0.03554007
v 0.00549121 0.02627770 0.03600842
v 0.00617472 0.02560682 0.03582135
v 0.01806457 0.02096878 0.02883162
v 0.01564834 0.02130917 0.03032132
v 0.01514766 0.02190579 0.03103272
v 0.01292552 0.02263981 0.03251696
v 0.00552496 0.02729889 0.03601251
v 0.01262174 0.02909988 0.03420329
v 0.01352184 0.02909988 0.03382643
v 0.01529955 0.02909988 0.03306724
v 0.00990173 0.02909988 0.03504578
v 0.01170194 0.02909988 0.03450915
v 0.01646125 0.02909988 0.03253471
v 0.01736136 0.02909988 0.03203359
v 0.02389557 0.02549912 0.02742111
v 0.02479568 0.02549912 0.02661549
v 0.02572110 0.02549912 0.02571566
v 0.02662120 0.02549912 0.02480217
v 0.02052298 0.02920262 0.03009466
v 0.02196034 0.02729889 0.02908149
v 0.01980852 0.02867160 0.03059987
v 0.01907719 0.02920262 0.03102999
v 0.02280419 0.02549912 0.02832094
v 0.02743411 0.02549912 0.02390234
v 0.02833422 0.02549912 0.02283046
v 0.02861269 0.02549912 0.02248501
v 0.02868301 0.02729889 0.02248501
v 0.02515290 0.02287004 0.02515446
v 0.02803324 0.02350750 0.02248501
v 0.02797699 0.02354835 0.02257513
v 0.02726253 0.02406328 0.02370299
v 0.02551576 0.02407070 0.02550948
v 0.02369304 0.02418706 0.02724769
v 0.02176063 0.02438882 0.02892173
v 0.02122338 0.02318939 0.02854214
v 0.02002230 0.02259896 0.02893949
v 0.01926283 0.02139953 0.02845475
v 0.01176664 0.02567366 0.03441084
v 0.00990173 0.02729889 0.03507172
v 0.01662158 0.02250860 0.03081015
v 0.01529955 0.02334040 0.03202677
v 0.01724884 0.02549912 0.03200219
v 0.01634874 0.02549912 0.03246917
v 0.01529955 0.02549912 0.03296893
v 0.01332213 0.02567366 0.03383053
v 0.01782266 0.02293193 0.03050292
v 0.01849212 0.02413135 0.03089481
v 0.01969038 0.02519462 0.03052750
v 0.01260486 0.02639034 0.03419647
v 0.01875652 0.02196026 0.02920848
v 0.01170194 0.02729889 0.03452008
v 0.01261892 0.02729889 0.03420193
v 0.01351903 0.02729889 0.03384418
v 0.01529955 0.02729889 0.03307680
v 0.01645563 0.02729889 0.03252652
v 0.01735573 0.02729889 0.03204998
v 0.01889998 0.02729889 0.03115424
v 0.02070582 0.02729889 0.02997996
v 0.01980008 0.02639529 0.03059578
v 0.02190408 0.02549912 0.02903507
v 0.01980571 0.02729889 0.03059987
v 0.02808669 0.02362634 0.02248501
v 0.02065237 0.02375383 0.02927675
v 0.01901530 0.02359910 0.03022574
v 0.01901530 0.02567613 0.03100131
v 0.02052017 0.02567613 0.03002502
f 1 2 6
f 1 6 15
f 1 15 30
f 1 30 29
f 1 29 28
f 1 28 54
f 1 54 84
f 1 84 83
f 1 83 82
f 1 82 81
f 1 81 124
f 1 124 126
f 1 126 87
f 1 87 86
f 1 86 56
f 1 56 31
f 1 31 16
f 1 16 7
f 1 7 3
f 1 3 8
f 1 8 20
f 1 20 40
f 1 40 69
f 1 69 68
f 1 68 103
f 1 103 147
f 1 147 195
f 1 195 194
f 1 194 230
f 1 230 197
f 1 197 151
f 1 151 105
f 1 105 70
f 1 70 41
f 1 41 21
f 1 21 9
f 1 9 4
f 1 4 10
f 1 10 22
f 1 22 45
f 1 45 44
f 1 44 43
f 1 43 73
f 1 73 108
f 1 108 158
f 1 158 118
f 1 118 77
f 1 77 50
f 1 50 48
f 1 48 24
f 1 24 23
f 1 23 11
f 1 11 5
f 1 5 2
f 2 5 6
f 3 7 8
f 4 9 10
f 5 11 12
f 5 12 13
f 5 13 14
f 5 14 6
f 6 14 15
f 7 16 32
f 7 32 17
f 7 17 18
f 7 18 8
f 8 18 19
f 8 19 20
f 9 21 10
f 10 21 22
f 11 23 12
f 12 23 13
f 13 23 24
f 13 24 25
f 13 25 26
f 13 26 14
f 14 26 27
f 14 27 28
f 14 28 29
f 14 29 30
f 14 30 15
f 16 31 32
f 17 32 33
f 17 33 34
f 17 34 35
f 17 35 18
f 18 35 36
f 18 36 37
f 18 37 19
f 19 37 38
f 19 38 39
f 19 39 20
f 20 39 40
f 21 41 42
f 21 42 43
f 21 43 44
f 21 44 45
f 21 45 22
f 24 46 47
f 24 47 25
f 24 48 46
f 25 49 26
f 25 47 48
f 25 48 50
f 25 50 51
f 25 51 49
f 26 49 52
f 26 52 27
f 27 53 54
f 27 54 28
f 27 52 55
f 27 55 53
f 31 56 57
f 31 57 32
f 32 57 33
f 33 57 58
f 33 58 59
f 33 59 34
f 34 59 60
f 34 60 61
f 34 61 62
f 34 62 35
f 35 62 36
f 36 62 63
f 36 63 37
f 37 63 38
f 38 64 39
f 38 63 65
f 38 65 66
f 38 66 64
f 39 64 67
f 39 67 68
f 39 68 69
f 39 69 40
f 41 70 42
f 42 70 71
f 42 71 72
f 42 72 73
f 42 73 43
f 46 48 47
f 49 74 75
f 49 75 52
f 49 51 74
f 50 76 51
f 50 77 78
f 50 78 76
f 51 76 79
f 51 79 74
f 52 75 55
f 53 80 81
f 53 81 82
f 53 82 83
f 53 83 84
f 53 84 54
f 53 55 80
f 55 75 85
f 55 85 80
f 56 86 57
f 57 86 87
f 57 87 88
f 57 88 58
f 58 88 89
f 58 89 90
f 58 90 59
f 59 90 60
f 60 91 92
f 60 92 61
f 60 90 93
f 60 93 91
f 61 92 62
f 62 92 94
f 62 94 95
f 62 95 63
f 63 96 65
f 63 95 96
f 64 97 98
f 64 98 99
f 64 99 67
f 64 66 97
f 65 96 100
f 65 100 66
f 66 100 101
f 66 101 97
f 67 99 102
f 67 102 103
f 67 103 68
f 70 104 71
f 70 105 104
f 71 104 106
f 71 106 107
f 71 107 108
f 71 108 72
f 72 108 73
f 74 79 75
f 75 79 109
f 75 109 110
f 75 110 111
f 75 111 112
f 75 112 113
f 75 113 85
f 76 78 114
f 76 114 115
f 76 115 116
f 76 116 117
f 76 117 79
f 77 118 119
f 77 119 120
f 77 120 121
f 77 121 122
f 77 122 78
f 78 122 114
f 79 117 109
f 80 123 124
f 80 124 81
f 80 85 123
f 85 113 125
f 85 125 123
f 87 126 88
f 88 126 124
f 88 124 123
f 88 123 89
f 89 125 127
f 89 127 128
f 89 128 93
f 89 93 90
f 89 123 125
f 91 93 129
f 91 129 92
f 92 129 130
f 92 130 131
f 92 131 94
f 93 128 132
f 93 132 133
f 93 133 134
f 93 134 135
f 93 135 129
f 94 131 95
f 95 131 96
f 96 131 100
f 97 136 137
f 97 137 138
f 97 138 98
f 97 101 136
f 98 138 139
f 98 139 99
f 99 139 102
f 100 140 141
f 100 141 101
f 100 131 142
f 100 142 140
f 101 141 143
f 101 143 136
f 102 139 144
f 102 144 145
f 102 145 146
f 102 146 103
f 103 146 147
f 104 148 149
f 104 149 106
f 104 105 150
f 104 150 148
f 105 151 152
f 105 152 150
f 106 153 154
f 106 154 155
f 106 155 156
f 106 156 157
f 106 157 107
f 106 149 153
f 107 157 158
f 107 158 108
f 109 117 116
f 109 116 159
f 109 159 110
f 110 160 111
f 110 159 161
f 110 161 162
f 110 162 163
f 110 163 164
f 110 164 165
f 110 165 166
f 110 166 167
f 110 167 160
f 111 160 168
f 111 168 169
f 111 169 170
f 111 170 112
f 112 170 169
f 112 169 113
f 113 169 125
f 114 122 115
f 115 121 161
f 115 161 159
f 115 159 116
f 115 122 121
f 118 158 171
f 118 171 119
f 119 171 172
f 119 172 173
f 119 173 163
f 119 163 174
f 119 174 161
f 119 161 120
f 120 161 121
f 125 169 127
f 127 169 175
f 127 175 132
f 127 132 128
f 129 176 177
f 129 177 178
f 129 178 130
f 129 135 179
f 129 179 180
f 129 180 176
f 130 178 181
f 130 181 182
f 130 182 142
f 130 142 131
f 132 175 133
f 133 175 169
f 133 169 168
f 133 168 134
f 134 168 135
f 135 168 179
f 136 143 183
f 136 183 137
f 137 183 184
f 137 184 185
f 137 185 138
f 138 185 186
f 138 186 139
f 139 186 144
f 140 142 187
f 140 187 188
f 140 188 141
f 141 188 143
f 142 189 187
f 142 182 190
f 142 190 189
f 143 188 228
f 143 228 191
f 143 191 183
f 144 186 192
f 144 192 193
f 144 193 145
f 145 193 194
f 145 194 195
f 145 195 146
f 146 195 147
f 148 196 149
f 148 150 152
f 148 152 196
f 149 196 153
f 151 197 152
f 152 197 198
f 152 198 199
f 152 199 200
f 152 200 196
f 153 196 154
f 154 196 201
f 154 201 202
f 154 202 203
f 154 203 155
f 155 203 204
f 155 204 156
f 156 204 205
f 156 205 171
f 156 171 157
f 157 171 158
f 160 167 206
f 160 206 207
f 160 207 168
f 161 174 162
f 162 174 163
f 163 173 208
f 163 208 209
f 163 209 165
f 163 165 164
f 165 209 166
f 166 210 211
f 166 211 212
f 166 212 213
f 166 213 167
f 166 209 208
f 166 208 214
f 166 214 215
f 166 215 216
f 166 216 210
f 167 213 217
f 167 217 206
f 168 207 179
f 171 205 218
f 171 218 214
f 171 214 208
f 171 208 172
f 172 208 173
f 176 219 220
f 176 220 221
f 176 221 177
f 176 180 219
f 177 221 178
f 178 222 181
f 178 221 222
f 179 207 180
f 180 207 219
f 181 222 223
f 181 223 224
f 181 224 182
f 182 224 225
f 182 225 190
f 183 191 202
f 183 202 201
f 183 201 184
f 184 200 185
f 184 201 200
f 185 200 186
f 186 199 192
f 186 200 199
f 187 189 226
f 187 226 188
f 188 226 227
f 188 227 228
f 189 190 225
f 189 225 229
f 189 229 226
f 191 228 202
f 192 199 193
f 193 199 194
f 194 199 230
f 196 200 201
f 197 230 198
f 198 230 199
f 202 228 216
f 202 216 215
f 202 215 231
f 202 231 203
f 203 231 204
f 204 231 232
f 204 232 214
f 204 214 218
f 204 218 205
f 206 217 207
f 207 217 219
f 210 233 227
f 210 227 224
f 210 224 223
f 210 223 211
f 210 216 233
f 211 223 212
f 212 217 213
f 212 223 222
f 212 222 217
f 214 232 215
f 215 232 231
f 216 228 234
f 216 234 227
f 216 227 233
f 217 222 221
f 217 221 220
f 217 220 219
f 224 227 225
f 225 227 229
f 226 229 227
f 227 234 228

