# https://github.com/mikedh/trimesh
v -0.00090070 0.02729922 -0.03643600
v -0.00270065 0.02549930 -0.03624167
v -0.00270065 0.02729922 -0.03634417
v -0.00090070 0.02814118 -0.03643386
v -0.00005289 0.02814118 -0.03643386
v -0.00005289 0.02729922 -0.03643386
v -0.00005289 0.02549930 -0.03632495
v -0.00090070 0.02549930 -0.03632282
v -0.00270065 0.02448857 -0.03606657
v -0.00378650 0.02455666 -0.03602813
v -0.00443214 0.02560766 -0.03608579
v -0.00354194 0.02814118 -0.03626089
v -0.00270065 0.02814118 -0.03633563
v -0.00450061 0.02729922 -0.03617120
v -0.00005289 0.02814118 -0.02894284
v -0.00005289 0.02441665 -0.03610928
v -0.00090070 0.02441857 -0.03610928
v -0.00270065 0.02358909 -0.03545157
v -0.00090070 0.02351909 -0.03549642
v -0.00450061 0.02247288 -0.03445861
v -0.00443214 0.02385376 -0.03544944
v -0.00630057 0.02369936 -0.03506079
v -0.00800597 0.02361114 -0.03466361
v -0.00990049 0.02409253 -0.03452480
v -0.01120154 0.02437062 -0.03434329
v -0.00810053 0.02549930 -0.03541954
v -0.00498647 0.02507928 -0.03594058
v -0.00548863 0.02627891 -0.03601745
v -0.00450061 0.02814118 -0.03616693
v -0.00555059 0.02729922 -0.03603027
v -0.00499299 0.02814118 -0.03610714
v -0.00005289 0.02798966 -0.01462278
v -0.02520340 0.02814118 -0.01462278
v -0.00005289 0.02399376 -0.03582313
v -0.00005289 0.02351717 -0.03549855
v -0.00270065 0.02235301 -0.03455043
v -0.00090070 0.02229356 -0.03459741
v -0.00005289 0.02293892 -0.03507574
v -0.00450061 0.02157243 -0.03375819
v -0.00630057 0.02264261 -0.03432621
v -0.00734402 0.02275577 -0.03423866
v -0.00854400 0.02295331 -0.03408918
v -0.00990049 0.02319400 -0.03391621
v -0.01170045 0.02236356 -0.03274174
v -0.01176240 0.02374252 -0.03370694
v -0.01411996 0.02294948 -0.03229330
v -0.01351345 0.02360922 -0.03296382
v -0.01530036 0.02424596 -0.03263069
v -0.01622643 0.02457967 -0.03241502
v -0.01350040 0.02549930 -0.03373897
v -0.01244391 0.02549930 -0.03414256
v -0.01154393 0.02549930 -0.03446715
v -0.00990049 0.02549930 -0.03496256
v -0.00990049 0.02729922 -0.03507788
v -0.00810053 0.02729922 -0.03553272
v -0.00617340 0.02560766 -0.03582313
v -0.00645057 0.02729922 -0.03587225
v -0.00555059 0.02814118 -0.03603027
v -0.00005289 0.01834464 -0.01462278
v -0.03336190 0.02814118 -0.01462278
v -0.00270065 0.02145257 -0.03385001
v -0.00090070 0.02024239 -0.03299585
v -0.00005289 0.02229068 -0.03459954
v -0.00005289 0.02186683 -0.03427069
v -0.00005289 0.02084364 -0.03347632
v -0.00005289 0.01887302 -0.03194096
v -0.00450061 0.02041883 -0.03285918
v -0.00630057 0.01853068 -0.03112309
v -0.00810053 0.02083309 -0.03253460
v -0.00800597 0.02205382 -0.03352116
v -0.00975375 0.02182560 -0.03289976
v -0.00630057 0.01834464 -0.03097789
v -0.01025265 0.02117544 -0.03223351
v -0.01170045 0.02146407 -0.03199434
v -0.01444603 0.02098365 -0.03062127
v -0.01291998 0.02264357 -0.03252392
v -0.01514711 0.02190807 -0.03103554
v -0.01662099 0.02251316 -0.03081560
v -0.01530036 0.02334647 -0.03203064
v -0.01633403 0.02549930 -0.03247054
v -0.01530036 0.02549930 -0.03296382
v -0.01781770 0.02293605 -0.03050810
v -0.01848616 0.02413472 -0.03090101
v -0.01881224 0.02549930 -0.03110388
v -0.01723075 0.02549930 -0.03200502
v -0.01350040 0.02729922 -0.03385001
v -0.01258738 0.02729922 -0.03419808
v -0.01168740 0.02729922 -0.03451626
v -0.00990049 0.02814118 -0.03506720
v -0.00894181 0.02814118 -0.03531063
v -0.01072873 0.02814118 -0.03480881
v -0.00810053 0.02814118 -0.03550709
v -0.00645057 0.02814118 -0.03585089
v -0.01408083 0.01834464 -0.01462278
v -0.00005289 0.01834464 -0.03152669
v -0.03306191 0.02814118 -0.01530611
v -0.03307169 0.02729922 -0.01530611
v -0.03336516 0.02730306 -0.01462278
v -0.00270065 0.02030376 -0.03295101
v -0.00435388 0.01834464 -0.03125549
v -0.00090070 0.01834464 -0.03151387
v -0.00527342 0.01834464 -0.03112523
v -0.00603645 0.01834464 -0.03101632
v -0.00810053 0.01834464 -0.03052091
v -0.00905268 0.02098556 -0.03241502
v -0.00847226 0.01834464 -0.03037784
v -0.01805900 0.02097118 -0.02883607
v -0.01564601 0.02131256 -0.03032659
v -0.01642860 0.02729922 -0.03251752
v -0.01530036 0.02729922 -0.03306845
v -0.01732532 0.02729922 -0.03205627
v -0.01875354 0.02196176 -0.02921190
v -0.02001873 0.02260329 -0.02894498
v -0.01901115 0.02360059 -0.03022836
v -0.02064807 0.02375499 -0.02927810
v -0.02175674 0.02439268 -0.02892576
v -0.01971222 0.02549930 -0.03054867
v -0.01979374 0.02684277 -0.03059992
v -0.01907636 0.02738553 -0.03104622
v -0.01350040 0.02814118 -0.03384361
v -0.01301455 0.02814118 -0.03402939
v -0.01434169 0.02814118 -0.03348272
v -0.01257760 0.02814118 -0.03419168
v -0.01209826 0.02814118 -0.03436251
v -0.01167762 0.02814118 -0.03450986
v -0.02789681 0.01982620 -0.01462278
v -0.01289390 0.01834464 -0.02413817
v -0.03252062 0.02814118 -0.01645069
v -0.03252062 0.02729922 -0.01645496
v -0.03250432 0.02549930 -0.01641653
v -0.03303582 0.02549930 -0.01530611
v -0.03334234 0.02612644 -0.01462278
v -0.00270065 0.01834464 -0.03141565
v -0.00276913 0.01834464 -0.03140924
v -0.00979288 0.01834464 -0.02958346
v -0.02022090 0.02082254 -0.02725800
v -0.02142087 0.02112845 -0.02687576
v -0.01925897 0.02140270 -0.02845810
v -0.01641882 0.02814118 -0.03251325
v -0.01530036 0.02814118 -0.03306632
v -0.01731553 0.02814118 -0.03205627
v -0.01907310 0.02814118 -0.03104622
v -0.01821551 0.02814118 -0.03153950
v -0.02204042 0.02232904 -0.02734769
v -0.02121870 0.02319305 -0.02854779
v -0.02190347 0.02549930 -0.02903894
v -0.02069698 0.02549930 -0.02988456
v -0.02324040 0.02299167 -0.02688004
v -0.02369039 0.02419034 -0.02725160
v -0.02389256 0.02549930 -0.02742883
v -0.02280345 0.02549930 -0.02832784
v -0.01980026 0.02804337 -0.03060419
v -0.02197195 0.02729922 -0.02908805
v -0.02051763 0.02738553 -0.03011091
v -0.01980026 0.02814118 -0.03060419
v -0.02890766 0.01994991 -0.01462278
v -0.01264608 0.01834464 -0.02509270
v -0.03227280 0.02814118 -0.01693116
v -0.03205759 0.02729922 -0.01735397
v -0.03203150 0.02549930 -0.01731553
v -0.03245866 0.02442145 -0.01632470
v -0.03332930 0.02549930 -0.01462278
v -0.00989723 0.01834464 -0.02949805
v -0.02249694 0.02080240 -0.02556676
v -0.02341322 0.02099132 -0.02521655
v -0.02287193 0.02729922 -0.02837909
v -0.02382082 0.02190039 -0.02556889
v -0.02514796 0.02287467 -0.02516103
v -0.02551317 0.02407431 -0.02551551
v -0.02479254 0.02549930 -0.02661952
v -0.02484145 0.02729922 -0.02667076
v -0.02394147 0.02729922 -0.02747795
v -0.02239259 0.02814118 -0.02875492
v -0.02197195 0.02814118 -0.02908378
v -0.02115675 0.02814118 -0.02965607
v -0.02965438 0.02004580 -0.01462278
v -0.01226456 0.01834464 -0.02609634
v -0.03205432 0.02814118 -0.01735184
v -0.03115761 0.02729922 -0.01888720
v -0.03113152 0.02549930 -0.01887225
v -0.03096196 0.02369936 -0.01859678
v -0.03188150 0.02377224 -0.01699736
v -0.03224997 0.02322181 -0.01590830
v -0.03272279 0.02377224 -0.01530611
v -0.03300648 0.02374443 -0.01462278
v -0.03313691 0.02442912 -0.01462278
v -0.01075156 0.01834464 -0.02876133
v -0.02249694 0.02034499 -0.02430473
v -0.02412733 0.02079569 -0.02417020
v -0.02527839 0.02094817 -0.02347833
v -0.02472080 0.02190039 -0.02477666
v -0.02287193 0.02814118 -0.02837482
v -0.02567947 0.02190039 -0.02387551
v -0.02696096 0.02286796 -0.02336515
v -0.02726096 0.02406664 -0.02370895
v -0.02662184 0.02549930 -0.02480869
v -0.02572186 0.02549930 -0.02572051
v -0.02577404 0.02729922 -0.02576962
v -0.02577077 0.02814118 -0.02576535
v -0.02527513 0.02814118 -0.02624368
v -0.02483167 0.02814118 -0.02666436
v -0.02393169 0.02814118 -0.02747581
v -0.03049567 0.02036513 -0.01462278
v -0.02973590 0.02059911 -0.01707850
v -0.02806311 0.02049650 -0.01906657
v -0.02609685 0.02029225 -0.02070656
v -0.01133524 0.01834464 -0.02791571
v -0.03157499 0.02814118 -0.01816756
v -0.03115435 0.02814118 -0.01888293
v -0.03058697 0.02729922 -0.01978834
v -0.03057719 0.02549930 -0.01977339
v -0.03038480 0.02369936 -0.01949579
v -0.03074022 0.02252083 -0.01822735
v -0.03254345 0.02248631 -0.01470820
v -0.03260866 0.02257357 -0.01462278
v -0.02429689 0.02029033 -0.02250458
v -0.02596642 0.02076885 -0.02237218
v -0.02706531 0.02095104 -0.02168245
v -0.02657945 0.02190039 -0.02298291
v -0.02741421 0.02190039 -0.02208390
v -0.02839897 0.02173545 -0.02080266
v -0.02868919 0.02304057 -0.02146891
v -0.02742726 0.02549930 -0.02390754
v -0.02895005 0.02423925 -0.02179562
v -0.02667401 0.02729922 -0.02485353
v -0.02619142 0.02814118 -0.02533827
v -0.03120326 0.02068158 -0.01462278
v -0.03100435 0.02072090 -0.01530611
v -0.03073370 0.02088583 -0.01645923
v -0.02916200 0.02077076 -0.01857543
v -0.02747943 0.02075350 -0.02070656
v -0.03085109 0.02814118 -0.01936126
v -0.03058044 0.02814118 -0.01978193
v -0.02996741 0.02814118 -0.02070656
v -0.02997394 0.02729922 -0.02070656
v -0.02993481 0.02549930 -0.02070656
v -0.02943917 0.02366388 -0.02080266
v -0.02913591 0.02222547 -0.02026881
v -0.02877397 0.02102584 -0.01977553
v -0.03036197 0.02132119 -0.01765933
v -0.03103696 0.02191286 -0.01707850
v -0.03250432 0.02235110 -0.01462278
v -0.03255323 0.02244699 -0.01462278
v -0.03191411 0.02189176 -0.01530611
v -0.03206085 0.02158778 -0.01462278
v -0.02746313 0.02729922 -0.02395452
v -0.02832724 0.02549930 -0.02283343
v -0.02905439 0.02549930 -0.02193229
v -0.02667075 0.02814118 -0.02484926
v -0.03160760 0.02100475 -0.01462278
v -0.02908700 0.02814118 -0.02197500
v -0.02908700 0.02729922 -0.02197500
v -0.02745987 0.02814118 -0.02394812
v -0.02836311 0.02729922 -0.02287614
v -0.02835984 0.02814118 -0.02287401
v -0.02870223 0.02814118 -0.02245333
f 1 2 3
f 1 3 4
f 1 4 5
f 1 5 6
f 1 6 7
f 1 7 8
f 1 8 2
f 2 9 10
f 2 10 11
f 2 11 3
f 2 8 9
f 3 12 13
f 3 13 4
f 3 11 14
f 3 14 12
f 4 13 12
f 4 12 29
f 4 29 31
f 4 31 58
f 4 58 93
f 4 93 92
f 4 92 90
f 4 90 89
f 4 89 91
f 4 91 125
f 4 125 124
f 4 124 123
f 4 123 121
f 4 121 120
f 4 120 122
f 4 122 140
f 4 140 139
f 4 139 141
f 4 141 143
f 4 143 142
f 4 142 155
f 4 155 175
f 4 175 174
f 4 174 173
f 4 173 192
f 4 192 202
f 4 202 201
f 4 201 200
f 4 200 199
f 4 199 226
f 4 226 249
f 4 249 253
f 4 253 255
f 4 255 256
f 4 256 251
f 4 251 234
f 4 234 233
f 4 233 232
f 4 232 209
f 4 209 208
f 4 208 178
f 4 178 158
f 4 158 128
f 4 128 96
f 4 96 60
f 4 60 33
f 4 33 15
f 4 15 5
f 5 15 32
f 5 32 59
f 5 59 95
f 5 95 66
f 5 66 65
f 5 65 64
f 5 64 63
f 5 63 38
f 5 38 35
f 5 35 34
f 5 34 16
f 5 16 7
f 5 7 6
f 7 16 17
f 7 17 8
f 8 17 9
f 9 18 10
f 9 17 19
f 9 19 18
f 10 18 20
f 10 20 21
f 10 21 22
f 10 22 23
f 10 23 24
f 10 24 25
f 10 25 26
f 10 26 27
f 10 27 11
f 11 27 28
f 11 28 14
f 12 14 29
f 14 28 30
f 14 30 31
f 14 31 29
f 15 33 32
f 16 34 17
f 17 34 35
f 17 35 19
f 18 36 20
f 18 19 36
f 19 37 36
f 19 35 38
f 19 38 37
f 20 39 40
f 20 40 21
f 20 36 61
f 20 61 39
f 21 40 22
f 22 40 41
f 22 41 23
f 23 41 42
f 23 42 24
f 24 42 43
f 24 43 25
f 25 44 45
f 25 45 46
f 25 46 47
f 25 47 48
f 25 48 49
f 25 49 50
f 25 50 51
f 25 51 52
f 25 52 53
f 25 53 26
f 25 43 44
f 26 53 54
f 26 54 55
f 26 55 28
f 26 28 56
f 26 56 27
f 27 56 28
f 28 55 57
f 28 57 30
f 30 58 31
f 30 57 58
f 32 33 60
f 32 60 98
f 32 98 132
f 32 132 162
f 32 162 186
f 32 186 185
f 32 185 215
f 32 215 243
f 32 243 242
f 32 242 245
f 32 245 250
f 32 250 227
f 32 227 203
f 32 203 176
f 32 176 156
f 32 156 126
f 32 126 94
f 32 94 59
f 36 37 61
f 37 62 61
f 37 38 63
f 37 63 64
f 37 64 65
f 37 65 66
f 37 66 62
f 39 61 67
f 39 67 68
f 39 68 40
f 40 68 41
f 41 69 70
f 41 70 71
f 41 71 42
f 41 68 72
f 41 72 69
f 42 71 43
f 43 71 44
f 44 71 73
f 44 73 74
f 44 74 75
f 44 75 76
f 44 76 45
f 45 76 46
f 46 76 75
f 46 75 77
f 46 77 78
f 46 78 79
f 46 79 48
f 46 48 47
f 48 79 49
f 49 80 81
f 49 81 50
f 49 79 78
f 49 78 82
f 49 82 83
f 49 83 84
f 49 84 85
f 49 85 80
f 50 86 51
f 50 81 86
f 51 86 87
f 51 87 52
f 52 88 54
f 52 54 53
f 52 87 88
f 54 89 90
f 54 90 55
f 54 88 91
f 54 91 89
f 55 90 92
f 55 92 93
f 55 93 57
f 57 93 58
f 59 94 127
f 59 127 157
f 59 157 177
f 59 177 207
f 59 207 187
f 59 187 163
f 59 163 135
f 59 135 106
f 59 106 104
f 59 104 72
f 59 72 103
f 59 103 102
f 59 102 100
f 59 100 134
f 59 134 133
f 59 133 101
f 59 101 95
f 60 96 97
f 60 97 98
f 61 99 100
f 61 100 67
f 61 62 101
f 61 101 99
f 62 66 101
f 66 95 101
f 67 102 103
f 67 103 72
f 67 72 68
f 67 100 102
f 69 104 105
f 69 105 70
f 69 72 104
f 70 105 71
f 71 105 73
f 73 105 104
f 73 104 74
f 74 104 75
f 75 104 106
f 75 106 107
f 75 107 108
f 75 108 77
f 77 108 78
f 78 108 107
f 78 107 82
f 80 109 110
f 80 110 81
f 80 85 111
f 80 111 109
f 81 110 86
f 82 107 112
f 82 112 113
f 82 113 114
f 82 114 83
f 83 114 115
f 83 115 116
f 83 116 117
f 83 117 84
f 84 111 85
f 84 117 118
f 84 118 119
f 84 119 111
f 86 120 121
f 86 121 87
f 86 110 122
f 86 122 120
f 87 123 124
f 87 124 88
f 87 121 123
f 88 125 91
f 88 124 125
f 94 126 127
f 96 128 97
f 97 128 129
f 97 129 130
f 97 130 131
f 97 131 132
f 97 132 98
f 99 133 134
f 99 134 100
f 99 101 133
f 106 135 107
f 107 136 137
f 107 137 138
f 107 138 112
f 107 135 136
f 109 139 140
f 109 140 110
f 109 111 141
f 109 141 139
f 110 140 122
f 111 119 142
f 111 142 143
f 111 143 141
f 112 138 113
f 113 138 137
f 113 137 144
f 113 144 145
f 113 145 115
f 113 115 114
f 115 145 116
f 116 146 147
f 116 147 117
f 116 145 148
f 116 148 149
f 116 149 150
f 116 150 151
f 116 151 146
f 117 147 118
f 118 152 119
f 118 147 146
f 118 146 153
f 118 153 154
f 118 154 152
f 119 152 155
f 119 155 142
f 126 156 157
f 126 157 127
f 128 158 159
f 128 159 129
f 129 159 130
f 130 159 160
f 130 160 161
f 130 161 131
f 131 162 132
f 131 161 162
f 135 163 164
f 135 164 136
f 136 164 165
f 136 165 137
f 137 165 144
f 144 165 148
f 144 148 145
f 146 151 166
f 146 166 153
f 148 165 167
f 148 167 168
f 148 168 149
f 149 168 169
f 149 169 170
f 149 170 150
f 150 170 171
f 150 171 172
f 150 172 166
f 150 166 151
f 152 154 155
f 153 166 173
f 153 173 174
f 153 174 154
f 154 174 175
f 154 175 155
f 156 176 157
f 157 176 177
f 158 178 159
f 159 178 179
f 159 179 180
f 159 180 160
f 160 180 161
f 161 180 181
f 161 181 182
f 161 182 183
f 161 183 184
f 161 184 185
f 161 185 186
f 161 186 162
f 163 187 188
f 163 188 189
f 163 189 164
f 164 189 165
f 165 189 190
f 165 190 191
f 165 191 167
f 166 192 173
f 166 172 192
f 167 191 168
f 168 193 194
f 168 194 169
f 168 191 193
f 169 194 195
f 169 195 196
f 169 196 197
f 169 197 170
f 170 197 198
f 170 198 171
f 171 198 199
f 171 199 200
f 171 200 201
f 171 201 202
f 171 202 172
f 172 202 192
f 176 203 204
f 176 204 205
f 176 205 206
f 176 206 187
f 176 187 207
f 176 207 177
f 178 208 179
f 179 208 209
f 179 209 210
f 179 210 211
f 179 211 180
f 180 211 181
f 181 211 212
f 181 212 213
f 181 213 182
f 182 213 183
f 183 214 184
f 183 213 214
f 184 214 185
f 185 214 215
f 187 206 216
f 187 216 188
f 188 216 189
f 189 216 217
f 189 217 190
f 190 217 218
f 190 218 219
f 190 219 193
f 190 193 191
f 193 219 194
f 194 219 218
f 194 218 220
f 194 220 221
f 194 221 222
f 194 222 195
f 195 223 196
f 195 222 224
f 195 224 223
f 196 223 225
f 196 225 198
f 196 198 197
f 198 225 226
f 198 226 199
f 203 227 228
f 203 228 204
f 204 228 229
f 204 229 230
f 204 230 205
f 205 230 231
f 205 231 206
f 206 231 217
f 206 217 216
f 209 232 210
f 210 232 233
f 210 233 234
f 210 234 235
f 210 235 211
f 211 235 236
f 211 236 224
f 211 224 212
f 212 237 222
f 212 222 213
f 212 224 237
f 213 222 238
f 213 238 239
f 213 239 240
f 213 240 241
f 213 241 214
f 214 242 243
f 214 243 215
f 214 241 244
f 214 244 245
f 214 245 242
f 217 231 218
f 218 231 239
f 218 239 220
f 220 239 221
f 221 239 222
f 222 239 238
f 222 237 224
f 223 246 225
f 223 224 247
f 223 247 246
f 224 236 248
f 224 248 247
f 225 249 226
f 225 246 249
f 227 250 228
f 228 250 229
f 229 240 239
f 229 239 230
f 229 250 245
f 229 245 244
f 229 244 241
f 229 241 240
f 230 239 231
f 234 251 235
f 235 251 252
f 235 252 236
f 236 252 248
f 246 253 249
f 246 247 254
f 246 254 255
f 246 255 253
f 247 248 254
f 248 252 254
f 251 256 254
f 251 254 252
f 254 256 255

