# https://github.com/mikedh/trimesh
v -0.01294710 -0.00152583 0.01699562
v -0.01294710 -0.00152583 -0.01230267
v -0.01892627 -0.00152583 0.01698896
v -0.01890073 -0.14728851 0.01698896
v -0.01294710 -0.14728851 0.01698896
v -0.01294710 -0.00154046 -0.01230267
v -0.01430234 -0.00152583 -0.01631468
v -0.02069921 -0.00152583 0.01698231
v -0.02069921 -0.14728851 0.01698231
v -0.01890073 -0.14908805 0.01692576
v -0.01294710 -0.14854673 0.01694572
v -0.01294710 -0.14731777 -0.01229935
v -0.01430234 -0.14728851 -0.01631468
v -0.01530121 -0.00152583 -0.01671056
v -0.02249896 -0.00152583 0.01674944
v -0.02249896 -0.14728851 0.01674944
v -0.02249896 -0.14908805 0.01668956
v -0.02069921 -0.14908805 0.01691910
v -0.01890073 -0.15036090 0.01652988
v -0.01294710 -0.14908805 0.01692576
v -0.01294710 -0.14908805 -0.01225610
v -0.01432917 -0.14908805 -0.01628474
v -0.01530121 -0.14728851 -0.01671056
v -0.01710097 -0.00152583 -0.01699000
v -0.02365239 -0.00152583 0.01635689
v -0.02365239 -0.14728851 0.01635689
v -0.02361024 -0.14908805 0.01633028
v -0.02351061 -0.15008291 0.01626707
v -0.02249896 -0.15022922 0.01641344
v -0.02069921 -0.15034626 0.01652655
v -0.02069921 -0.15084369 0.01529900
v -0.01294710 -0.15069740 0.01567492
v -0.01294710 -0.15036090 0.01652988
v -0.01294710 -0.15044868 -0.01172383
v -0.01437004 -0.15003903 -0.01623484
v -0.01530121 -0.14908805 -0.01664735
v -0.01710097 -0.14728851 -0.01699000
v -0.01890073 -0.00152583 -0.01699000
v -0.02366516 -0.00152583 0.01634691
v -0.02455291 -0.14728851 0.01555183
v -0.02450948 -0.14908805 0.01550858
v -0.02526949 -0.15008291 0.01451057
v -0.02418631 -0.15028775 0.01518589
v -0.02249896 -0.15072666 0.01529900
v -0.01294710 -0.15094611 0.01405148
v -0.01294710 -0.15084369 0.01529900
v -0.02249896 -0.15099000 0.01349925
v -0.01294710 -0.15062425 -0.01112169
v -0.01530121 -0.15019996 -0.01639119
v -0.01294710 -0.15096075 -0.00989747
v -0.01530121 -0.15055110 -0.01529671
v -0.01710097 -0.14908805 -0.01692347
v -0.01890073 -0.14728851 -0.01699000
v -0.02069921 -0.00152583 -0.01698335
v -0.02455291 -0.00152583 0.01555183
v -0.02535890 -0.14728851 0.01465029
v -0.02533208 -0.14908805 0.01460704
v -0.02541638 -0.15022922 0.01349925
v -0.02430000 -0.15072666 0.01349925
v -0.02569101 -0.14908805 0.01349925
v -0.01294710 -0.15099000 0.01349925
v -0.02249896 -0.15099000 -0.01349696
v -0.02430000 -0.15084369 0.01169950
v -0.01710097 -0.15084369 -0.01529671
v -0.01710097 -0.15036090 -0.01653092
v -0.01294710 -0.15099000 -0.00809772
v -0.01710097 -0.15099000 -0.01349696
v -0.01890073 -0.14908805 -0.01692347
v -0.02069921 -0.14908805 -0.01692014
v -0.02069921 -0.14728851 -0.01698335
v -0.02249896 -0.00152583 -0.01674715
v -0.02535890 -0.00152583 0.01465029
v -0.02574976 -0.14728851 0.01349925
v -0.02536529 -0.00152583 0.01463366
v -0.02592093 -0.14908805 0.01169950
v -0.02552879 -0.15034626 0.01169950
v -0.02598479 -0.14728851 0.01169950
v -0.02430000 -0.15084369 -0.01169721
v -0.02430000 -0.15072666 -0.01349696
v -0.02249896 -0.15072666 -0.01529671
v -0.02069921 -0.15084369 -0.01529671
v -0.02553006 -0.15036090 0.00989976
v -0.01890073 -0.15036090 -0.01653092
v -0.02249896 -0.14908805 -0.01669060
v -0.02069921 -0.15034626 -0.01652759
v -0.02249896 -0.15022922 -0.01641448
v -0.02249896 -0.14728851 -0.01674715
v -0.02363578 -0.00152583 -0.01636458
v -0.02574976 -0.00152583 0.01349925
v -0.02598607 -0.00152583 0.01169950
v -0.02592604 -0.14908805 0.00989976
v -0.02598990 -0.14728851 0.00989976
v -0.02599246 -0.00152583 0.00989976
v -0.02553006 -0.15036090 -0.00989747
v -0.02552879 -0.15034626 -0.01169721
v -0.02541638 -0.15022922 -0.01349696
v -0.02526949 -0.15008291 -0.01450828
v -0.02418631 -0.15028775 -0.01518693
v -0.02351061 -0.15008291 -0.01626811
v -0.02361024 -0.14908805 -0.01633131
v -0.02365239 -0.14728851 -0.01635793
v -0.02365239 -0.00152583 -0.01635793
v -0.02592604 -0.14908805 -0.00989747
v -0.02598990 -0.14728851 -0.00989747
v -0.02599501 -0.00152583 0.00629693
v -0.02599629 -0.00152583 -0.00089873
v -0.02592093 -0.14908805 -0.01169721
v -0.02569101 -0.14908805 -0.01349696
v -0.02533208 -0.14908805 -0.01460808
v -0.02450948 -0.14908805 -0.01550962
v -0.02455291 -0.14728851 -0.01555286
v -0.02455291 -0.00152583 -0.01555286
v -0.02598479 -0.14728851 -0.01169721
v -0.02599629 -0.00152583 -0.00092534
v -0.02599501 -0.00152583 -0.00632458
v -0.02599373 -0.00152583 -0.00992408
v -0.02574976 -0.14728851 -0.01349696
v -0.02535890 -0.14728851 -0.01465133
v -0.02534741 -0.00152583 -0.01466463
v -0.02598607 -0.00152583 -0.01169721
v -0.02574976 -0.00152583 -0.01349696
v -0.02535890 -0.00152583 -0.01465133
f 1 2 7
f 1 7 14
f 1 14 24
f 1 24 38
f 1 38 54
f 1 54 71
f 1 71 88
f 1 88 102
f 1 102 112
f 1 112 119
f 1 119 122
f 1 122 121
f 1 121 120
f 1 120 116
f 1 116 115
f 1 115 114
f 1 114 106
f 1 106 105
f 1 105 93
f 1 93 90
f 1 90 89
f 1 89 74
f 1 74 72
f 1 72 55
f 1 55 39
f 1 39 25
f 1 25 15
f 1 15 8
f 1 8 3
f 1 3 4
f 1 4 5
f 1 5 11
f 1 11 20
f 1 20 33
f 1 33 32
f 1 32 46
f 1 46 45
f 1 45 61
f 1 61 66
f 1 66 50
f 1 50 48
f 1 48 34
f 1 34 21
f 1 21 12
f 1 12 6
f 1 6 2
f 2 6 13
f 2 13 7
f 3 8 9
f 3 9 4
f 4 9 18
f 4 18 10
f 4 10 11
f 4 11 5
f 6 12 13
f 7 13 23
f 7 23 14
f 8 15 16
f 8 16 9
f 9 16 17
f 9 17 18
f 10 18 19
f 10 19 33
f 10 33 20
f 10 20 11
f 12 21 13
f 13 21 22
f 13 22 23
f 14 23 37
f 14 37 24
f 15 25 26
f 15 26 16
f 16 26 27
f 16 27 17
f 17 27 28
f 17 28 29
f 17 29 18
f 18 29 30
f 18 30 19
f 19 31 32
f 19 32 33
f 19 30 31
f 21 34 35
f 21 35 22
f 22 35 36
f 22 36 23
f 23 36 37
f 24 37 53
f 24 53 38
f 25 39 26
f 26 40 27
f 26 39 40
f 27 41 28
f 27 40 41
f 28 42 43
f 28 43 44
f 28 44 29
f 28 41 42
f 29 44 30
f 30 44 31
f 31 45 46
f 31 46 32
f 31 44 47
f 31 47 45
f 34 48 35
f 35 49 36
f 35 48 50
f 35 50 51
f 35 51 49
f 36 49 52
f 36 52 37
f 37 52 68
f 37 68 53
f 38 53 70
f 38 70 54
f 39 55 40
f 40 56 57
f 40 57 41
f 40 55 72
f 40 72 56
f 41 57 42
f 42 58 59
f 42 59 43
f 42 57 60
f 42 60 58
f 43 59 44
f 44 59 47
f 45 47 61
f 47 62 67
f 47 67 66
f 47 66 61
f 47 59 63
f 47 63 78
f 47 78 62
f 49 51 64
f 49 64 65
f 49 65 52
f 50 64 51
f 50 66 67
f 50 67 64
f 52 65 83
f 52 83 68
f 53 68 69
f 53 69 70
f 54 70 87
f 54 87 71
f 56 73 57
f 56 72 74
f 56 74 73
f 57 73 60
f 58 60 75
f 58 75 76
f 58 76 59
f 59 76 63
f 60 73 77
f 60 77 75
f 62 78 79
f 62 79 80
f 62 80 81
f 62 81 64
f 62 64 67
f 63 76 82
f 63 82 94
f 63 94 78
f 64 81 83
f 64 83 65
f 68 83 69
f 69 84 70
f 69 83 85
f 69 85 86
f 69 86 84
f 70 84 87
f 71 87 88
f 73 74 89
f 73 89 90
f 73 90 77
f 75 91 82
f 75 82 76
f 75 77 92
f 75 92 91
f 77 90 93
f 77 93 92
f 78 94 95
f 78 95 79
f 79 95 96
f 79 96 97
f 79 97 98
f 79 98 80
f 80 98 99
f 80 99 86
f 80 86 85
f 80 85 81
f 81 85 83
f 82 91 103
f 82 103 94
f 84 86 99
f 84 99 100
f 84 100 87
f 87 100 101
f 87 101 88
f 88 101 102
f 91 92 104
f 91 104 103
f 92 93 105
f 92 105 106
f 92 106 114
f 92 114 104
f 94 103 107
f 94 107 95
f 95 107 96
f 96 107 108
f 96 108 97
f 97 99 98
f 97 108 109
f 97 109 110
f 97 110 99
f 99 110 100
f 100 110 111
f 100 111 101
f 101 111 112
f 101 112 102
f 103 104 113
f 103 113 107
f 104 114 115
f 104 115 116
f 104 116 113
f 107 113 108
f 108 113 117
f 108 117 109
f 109 117 118
f 109 118 111
f 109 111 110
f 111 118 119
f 111 119 112
f 113 116 120
f 113 120 117
f 117 120 121
f 117 121 122
f 117 122 118
f 118 122 119

