# https://github.com/mikedh/trimesh
v -0.00450021 -0.00152583 0.01701553
v -0.00272657 -0.00152583 0.01667567
v -0.00452622 -0.00152583 0.01701553
v -0.00450021 -0.14728851 0.01698888
v -0.00270057 -0.14728851 0.01665901
v -0.00270057 -0.00152583 0.01666900
v -0.00632456 -0.00152583 0.01701220
v -0.01294710 -0.14728851 0.01698888
v -0.01294710 -0.14854673 0.01694556
v -0.00450021 -0.14908805 0.01692557
v -0.00270057 -0.14908805 0.01659570
v -0.00177214 -0.14908805 0.01623251
v -0.00174743 -0.14728851 0.01626250
v -0.00176174 -0.00152583 0.01626916
v -0.01172479 -0.00152583 0.01699887
v -0.01294710 -0.00152583 0.01699554
v -0.01294710 -0.14908805 0.01692557
v -0.01294710 -0.14996588 0.01665234
v -0.00450021 -0.15036090 0.01652906
v -0.00270057 -0.15017070 0.01636579
v -0.00179815 -0.14999513 0.01620252
v 0.00033698 -0.14908805 0.01225407
v 0.00033698 -0.14736167 0.01229739
v -0.00174743 -0.00331073 0.01626250
v -0.00174873 -0.00152583 0.01626250
v -0.01294710 -0.00152583 -0.01230293
v -0.01294710 -0.15036090 0.01652906
v -0.01294710 -0.15069740 0.01567606
v -0.00450021 -0.15084369 0.01529954
v -0.00270057 -0.15049257 0.01529954
v 0.00033698 -0.15043405 0.01172428
v 0.00033698 -0.14924899 0.01219410
v 0.00033698 -0.15096075 0.00989833
v 0.00033698 -0.00511027 0.01229739
v 0.00033698 -0.00152583 0.01228073
v -0.01080677 -0.00152583 -0.01620806
v -0.01294710 -0.00154046 -0.01230293
v -0.01294710 -0.15084369 0.01529954
v -0.01294710 -0.15094611 0.01405003
v -0.00450021 -0.15099000 0.01349692
v 0.00033698 -0.15099000 0.00809904
v 0.00033698 -0.00152583 -0.01702108
v -0.00989914 -0.00152583 -0.01661457
v -0.01080677 -0.14728851 -0.01620806
v -0.01294710 -0.14731777 -0.01229960
v -0.01294710 -0.15099000 0.01349692
v 0.00033698 -0.15099000 -0.01349913
v -0.00087492 -0.00152583 -0.01702441
v 0.00033698 -0.14728851 -0.01698776
v -0.00809950 -0.00152583 -0.01701774
v -0.00989914 -0.14728851 -0.01660124
v -0.01080417 -0.14828338 -0.01620473
v -0.01294710 -0.14908805 -0.01225628
v -0.01294710 -0.15099000 -0.00809792
v 0.00033698 -0.15094611 -0.01406224
v -0.00809950 -0.15099000 -0.01349913
v -0.00090092 -0.00152583 -0.01702441
v 0.00033698 -0.14853210 -0.01694444
v -0.00809950 -0.14728851 -0.01698776
v -0.00630116 -0.00152583 -0.01702108
v -0.00809950 -0.14908805 -0.01692445
v -0.01004088 -0.14897101 -0.01649129
v -0.01073655 -0.14948307 -0.01592484
v -0.01294710 -0.15044868 -0.01172316
v -0.01294710 -0.15096075 -0.00989721
v 0.00033698 -0.15084369 -0.01529842
v -0.00809950 -0.15084369 -0.01529842
v 0.00033698 -0.14908805 -0.01692445
v 0.00033698 -0.14996588 -0.01665455
v -0.00809950 -0.15036090 -0.01653127
v -0.00953635 -0.15022922 -0.01641798
v -0.01294710 -0.15062425 -0.01112340
v 0.00033698 -0.15069740 -0.01568494
v 0.00033698 -0.15036090 -0.01653127
f 1 2 6
f 1 6 14
f 1 14 25
f 1 25 35
f 1 35 42
f 1 42 48
f 1 48 57
f 1 57 60
f 1 60 50
f 1 50 43
f 1 43 36
f 1 36 26
f 1 26 16
f 1 16 15
f 1 15 7
f 1 7 3
f 1 3 8
f 1 8 4
f 1 4 5
f 1 5 2
f 2 5 6
f 3 7 8
f 4 8 9
f 4 9 10
f 4 10 11
f 4 11 5
f 5 11 12
f 5 12 13
f 5 13 6
f 6 13 14
f 7 15 8
f 8 15 16
f 8 16 26
f 8 26 37
f 8 37 45
f 8 45 53
f 8 53 64
f 8 64 72
f 8 72 65
f 8 65 54
f 8 54 46
f 8 46 39
f 8 39 38
f 8 38 28
f 8 28 27
f 8 27 18
f 8 18 17
f 8 17 9
f 9 17 10
f 10 17 18
f 10 18 19
f 10 19 20
f 10 20 11
f 11 20 21
f 11 21 12
f 12 21 22
f 12 22 13
f 13 22 23
f 13 23 34
f 13 34 24
f 13 24 14
f 14 24 25
f 18 27 19
f 19 27 28
f 19 28 29
f 19 29 20
f 20 29 30
f 20 30 21
f 21 31 32
f 21 32 22
f 21 30 33
f 21 33 31
f 22 32 31
f 22 31 33
f 22 33 41
f 22 41 47
f 22 47 55
f 22 55 66
f 22 66 73
f 22 73 74
f 22 74 69
f 22 69 68
f 22 68 58
f 22 58 49
f 22 49 42
f 22 42 35
f 22 35 34
f 22 34 23
f 24 34 25
f 25 34 35
f 26 36 44
f 26 44 37
f 28 38 29
f 29 38 39
f 29 39 40
f 29 40 33
f 29 33 30
f 33 40 41
f 36 43 44
f 37 44 45
f 39 46 40
f 40 46 54
f 40 54 56
f 40 56 47
f 40 47 41
f 42 49 48
f 43 50 51
f 43 51 44
f 44 51 52
f 44 52 45
f 45 52 53
f 47 56 55
f 48 49 59
f 48 59 57
f 49 58 59
f 50 60 59
f 50 59 51
f 51 59 61
f 51 61 62
f 51 62 52
f 52 62 63
f 52 63 53
f 53 63 64
f 54 65 56
f 55 56 67
f 55 67 66
f 56 65 67
f 57 59 60
f 58 68 61
f 58 61 59
f 61 68 69
f 61 69 70
f 61 70 71
f 61 71 62
f 62 71 63
f 63 71 64
f 64 71 72
f 65 72 71
f 65 71 67
f 66 67 73
f 67 71 70
f 67 70 73
f 69 74 70
f 70 74 73

