# https://github.com/mikedh/trimesh
v -0.01438469 0.01909024 0.01433114
v -0.02969982 0.01909024 0.01351167
v -0.01438469 0.01089147 0.01413469
v -0.01438469 0.01909024 -0.01433924
v -0.03016001 0.01909024 0.01343308
v -0.02883914 0.01177347 0.01262203
v -0.02776858 0.01089147 0.01263887
v -0.01438469 0.01089147 -0.01411473
v -0.02969982 0.01909024 -0.01351696
v -0.03120746 0.01909024 0.01309912
v -0.03173503 0.01909024 0.01245645
v -0.02915299 0.01089147 0.01172959
v -0.02884877 0.01089147 0.01211687
v -0.02810746 0.01089147 0.01257713
v -0.02861193 0.01089147 -0.01256559
v -0.03123056 0.01909024 -0.01311565
v -0.03202578 0.01909024 0.01203830
v -0.03240317 0.01909024 0.01133108
v -0.03251677 0.01909024 0.01111218
v -0.03062404 0.01373006 0.01087924
v -0.02978262 0.01089147 0.00991383
v -0.02896814 0.01089147 -0.01208288
v -0.03205851 0.01909024 -0.01209130
v -0.03043150 0.01575568 -0.01257681
v -0.03287683 0.01909024 0.00980438
v -0.03327540 0.01909024 0.00803073
v -0.03357578 0.01909024 0.00629917
v -0.03008106 0.01089147 0.00797460
v -0.02918572 0.01089147 -0.01177137
v -0.03254373 0.01909024 -0.01117922
v -0.03381068 0.01909024 0.00449744
v -0.03030634 0.01094845 0.00629917
v -0.03028324 0.01089147 0.00629917
v -0.03064137 0.01368271 -0.01093506
v -0.03082814 0.01470034 -0.01133357
v -0.02980765 0.01089147 -0.01005103
v -0.03262267 0.01909024 -0.01090699
v -0.03397435 0.01909024 0.00269853
v -0.03045075 0.01089147 0.00449744
v -0.03028901 0.01089147 0.00623743
v -0.03291149 0.01909024 -0.00982652
v -0.03228572 0.01770987 -0.01028397
v -0.02984231 0.01089147 -0.00989949
v -0.03399745 0.01909024 0.00217654
v -0.03056435 0.01089147 0.00269853
v -0.03047578 0.01089147 0.00411577
v -0.03308671 0.01909024 -0.00903792
v -0.03007336 0.01089147 -0.00835034
v -0.03359118 0.01909024 -0.00629885
v -0.03343907 0.01909024 -0.00721094
v -0.03329658 0.01909024 -0.00803322
v -0.03405136 0.01909024 0.00089961
v -0.03058554 0.01089147 0.00204463
v -0.03011572 0.01089147 -0.00801919
v -0.03382994 0.01909024 -0.00449994
v -0.03373751 0.01909024 -0.00520154
v -0.03405329 0.01909024 0.00049268
v -0.03296733 0.01649964 0.00089961
v -0.03084162 0.01142195 0.00089961
v -0.03061827 0.01089147 0.00089961
v -0.03031404 0.01089147 -0.00631288
v -0.03243013 0.01552615 -0.00390498
v -0.03394547 0.01909024 -0.00320618
v -0.03062212 0.01089147 0.00015311
v -0.03405522 0.01909024 -0.00089930
v -0.03249752 0.01536645 -0.00089930
v -0.03146547 0.01290024 -0.00089930
v -0.03047771 0.01089147 -0.00449994
v -0.03398783 0.01909024 -0.00269822
v -0.03062404 0.01089147 -0.00089930
v -0.03366050 0.01829974 -0.00269822
v -0.03058168 0.01089147 -0.00269822
f 1 2 3
f 1 3 8
f 1 8 4
f 1 4 9
f 1 9 16
f 1 16 23
f 1 23 30
f 1 30 37
f 1 37 41
f 1 41 47
f 1 47 51
f 1 51 50
f 1 50 49
f 1 49 56
f 1 56 55
f 1 55 63
f 1 63 69
f 1 69 65
f 1 65 57
f 1 57 52
f 1 52 44
f 1 44 38
f 1 38 31
f 1 31 27
f 1 27 26
f 1 26 25
f 1 25 19
f 1 19 18
f 1 18 17
f 1 17 11
f 1 11 10
f 1 10 5
f 1 5 2
f 2 5 6
f 2 6 7
f 2 7 3
f 3 7 14
f 3 14 13
f 3 13 12
f 3 12 21
f 3 21 28
f 3 28 33
f 3 33 40
f 3 40 39
f 3 39 46
f 3 46 45
f 3 45 53
f 3 53 60
f 3 60 64
f 3 64 70
f 3 70 72
f 3 72 68
f 3 68 61
f 3 61 54
f 3 54 48
f 3 48 43
f 3 43 36
f 3 36 29
f 3 29 22
f 3 22 15
f 3 15 8
f 4 8 9
f 5 10 6
f 6 11 12
f 6 12 13
f 6 13 14
f 6 14 7
f 6 10 11
f 8 15 9
f 9 15 16
f 11 17 12
f 12 17 18
f 12 18 19
f 12 19 20
f 12 20 21
f 15 22 23
f 15 23 24
f 15 24 16
f 16 24 23
f 19 25 20
f 20 25 21
f 21 25 26
f 21 26 27
f 21 27 28
f 22 29 23
f 23 29 30
f 27 31 28
f 28 31 32
f 28 32 33
f 29 34 35
f 29 35 30
f 29 36 34
f 30 35 34
f 30 34 37
f 31 38 39
f 31 39 40
f 31 40 33
f 31 33 32
f 34 36 41
f 34 41 42
f 34 42 37
f 36 43 41
f 37 42 41
f 38 44 45
f 38 45 46
f 38 46 39
f 41 43 47
f 43 48 49
f 43 49 50
f 43 50 51
f 43 51 47
f 44 52 45
f 45 52 53
f 48 54 55
f 48 55 56
f 48 56 49
f 52 57 58
f 52 58 53
f 53 58 59
f 53 59 60
f 54 61 55
f 55 61 62
f 55 62 63
f 57 64 59
f 57 59 58
f 57 65 66
f 57 66 67
f 57 67 64
f 59 64 60
f 61 68 62
f 62 68 69
f 62 69 63
f 64 67 70
f 65 69 71
f 65 71 72
f 65 72 66
f 66 72 67
f 67 72 70
f 68 72 71
f 68 71 69

