# https://github.com/mikedh/trimesh
v 0.03643419 0.02729811 0.00089085
v 0.03636636 0.02549848 0.00089085
v 0.03638064 0.02549848 -0.00089975
v 0.03642705 0.02729811 -0.00089975
v 0.03643062 0.02815136 0.00089085
v 0.03638064 0.02810346 0.00188959
v 0.03638778 0.02729899 0.00179685
v 0.03634137 0.02729899 0.00270285
v 0.03636279 0.02639785 0.00179685
v 0.03633067 0.02549848 0.00179685
v 0.03615217 0.02419998 0.00089085
v 0.03616645 0.02418313 -0.00089975
v 0.03624142 0.02489358 0.00179685
v 0.03613789 0.02424610 0.00179685
v 0.03612361 0.02429311 -0.00269748
v 0.03629497 0.02549848 -0.00269748
v 0.03634137 0.02729811 -0.00269748
v 0.03634137 0.02815136 -0.00269748
v 0.03638421 0.02815136 -0.00175581
v 0.03641991 0.02815136 -0.00089975
v 0.03638421 0.02815136 0.00179685
v 0.03633781 0.02810346 0.00270285
v 0.03615217 0.02729899 0.00449345
v 0.03609862 0.02556944 0.00457906
v 0.03629140 0.02549848 0.00270285
v 0.03611647 0.02429134 0.00270285
v 0.03579161 0.02330327 0.00089085
v 0.03579518 0.02328553 -0.00089975
v 0.03595582 0.02379731 0.00179685
v 0.03410662 0.01942728 -0.00269748
v 0.03382102 0.01909024 -0.00450235
v 0.03440292 0.02050671 -0.00450235
v 0.03497410 0.02190189 -0.00450235
v 0.03605221 0.02446341 -0.00406005
v 0.03598081 0.02488560 -0.00525854
v 0.03609148 0.02549050 -0.00459509
v 0.03601651 0.02608476 -0.00550822
v 0.03615931 0.02729811 -0.00450235
v 0.03625570 0.02815136 -0.00355355
v 0.00090295 0.02810346 0.03643177
v 0.00270575 0.02810346 0.03635330
v 0.00450498 0.02810346 0.03616068
v 0.00554382 0.02810346 0.03601801
v 0.00643987 0.02810346 0.03586819
v 0.00810344 0.02810346 0.03552577
v 0.00890667 0.02810346 0.03531889
v 0.00990267 0.02810346 0.03506207
v 0.01070947 0.02810346 0.03481951
v 0.01179829 0.02810346 0.03447709
v 0.01222668 0.02810346 0.03433442
v 0.01261223 0.02810346 0.03419887
v 0.01341546 0.02810346 0.03386358
v 0.01530394 0.02810346 0.03306458
v 0.01582157 0.02810346 0.03282917
v 0.01646059 0.02810346 0.03252955
v 0.01736020 0.02810346 0.03203731
v 0.01897380 0.02810346 0.03109564
v 0.01944859 0.02810346 0.03081742
v 0.01981272 0.02810346 0.03060340
v 0.02063380 0.02810346 0.03002556
v 0.02195824 0.02810346 0.02907676
v 0.02286142 0.02810346 0.02837050
v 0.02335050 0.02810346 0.02796387
v 0.02394310 0.02810346 0.02746450
v 0.02434650 0.02810346 0.02710781
v 0.02484629 0.02810346 0.02666551
v 0.02575661 0.02810346 0.02576664
v 0.02665623 0.02810346 0.02483211
v 0.02702750 0.02810346 0.02443261
v 0.02747731 0.02810346 0.02393324
v 0.02837692 0.02810346 0.02286316
v 0.02906948 0.02810346 0.02196429
v 0.02947288 0.02810346 0.02141498
v 0.03026183 0.02810346 0.02032350
v 0.03061525 0.02810346 0.01982413
v 0.03115788 0.02810346 0.01889673
v 0.03203964 0.02810346 0.01734868
v 0.03226098 0.02810346 0.01694205
v 0.03252515 0.02810346 0.01644268
v 0.03276790 0.02810346 0.01593617
v 0.03306777 0.02810346 0.01530126
v 0.03387100 0.02810346 0.01339652
v 0.03421014 0.02810346 0.01254759
v 0.03447431 0.02810346 0.01179140
v 0.03505978 0.02810346 0.00990092
v 0.03550245 0.02810346 0.00809606
v 0.03566309 0.02810346 0.00736127
v 0.03593797 0.02810346 0.00603437
v 0.03602008 0.02810346 0.00553500
v 0.03614860 0.02810346 0.00449345
v 0.02894097 0.02815136 0.00179685
v 0.03601651 0.02729899 0.00552787
v 0.03600580 0.02621691 0.00546366
v 0.03597010 0.02501686 0.00523538
v 0.03605935 0.02443768 0.00403689
v 0.03574877 0.02339374 0.00270285
v 0.03520971 0.02190189 0.00089085
v 0.03403879 0.01909024 -0.00089975
v 0.03396382 0.01909024 -0.00269748
v 0.03360326 0.01909024 -0.00630008
v 0.03392455 0.01988406 -0.00630008
v 0.03572735 0.02379731 -0.00459509
v 0.03545247 0.02369885 -0.00630008
v 0.03509191 0.02369885 -0.00809782
v 0.03548103 0.02549848 -0.00809782
v 0.03587015 0.02549050 -0.00618594
v 0.03602008 0.02729811 -0.00554389
v 0.03587372 0.02729811 -0.00644276
v 0.03615931 0.02815136 -0.00450235
v -0.00003593 0.02810346 0.03643177
v 0.00090295 0.02729899 0.03644604
v 0.00270575 0.02729899 0.03636043
v 0.00450498 0.02729899 0.03616782
v 0.00557952 0.02729899 0.03602514
v 0.00647914 0.02729899 0.03588246
v 0.00810344 0.02729899 0.03554717
v 0.00990267 0.02729899 0.03507634
v 0.01188040 0.02721474 0.03444855
v 0.01261223 0.02775933 0.03419887
v 0.01332978 0.02721474 0.03390638
v 0.01530394 0.02729899 0.03306458
v 0.01645702 0.02729899 0.03252955
v 0.01735663 0.02729899 0.03203731
v 0.01889526 0.02729899 0.03115271
v 0.02071234 0.02729899 0.02997562
v 0.01981629 0.02729899 0.03060340
v 0.02196895 0.02729899 0.02907676
v 0.02286856 0.02729899 0.02837050
v 0.02394310 0.02729899 0.02747164
v 0.02484272 0.02729899 0.02666551
v 0.02576375 0.02729899 0.02576664
v 0.02666337 0.02729899 0.02483924
v 0.02747374 0.02729899 0.02393324
v 0.02837692 0.02729899 0.02287029
v 0.02907662 0.02729899 0.02197143
v 0.02997267 0.02729899 0.02072300
v 0.03061525 0.02729899 0.01982413
v 0.03116502 0.02729899 0.01889673
v 0.03204678 0.02729899 0.01735581
v 0.03252872 0.02729899 0.01645695
v 0.03307134 0.02729899 0.01530126
v 0.03390670 0.02738858 0.01332518
v 0.03420300 0.02684931 0.01261893
v 0.03419586 0.02804847 0.01259039
v 0.03420300 0.02620361 0.01261893
v 0.03444575 0.02738858 0.01186987
v 0.03506335 0.02729899 0.00990092
v 0.03552744 0.02729899 0.00809606
v 0.03587015 0.02729899 0.00642673
v -0.00003593 0.02815136 -0.02894297
v 0.03586301 0.02556944 0.00615565
v 0.03548460 0.02549848 0.00809606
v 0.03507763 0.02369974 0.00809606
v 0.03543105 0.02369974 0.00629832
v 0.03495268 0.02190100 0.00449345
v 0.03401737 0.01963927 0.00449345
v 0.03378889 0.01909024 0.00449345
v 0.03459926 0.02172095 0.00647667
v 0.03353900 0.01909024 0.00637680
v 0.03409948 0.01943704 0.00270285
v 0.03484201 0.02111871 0.00179685
v 0.03399595 0.01909024 0.00179685
v 0.03403165 0.01909024 0.00089085
v 0.03330696 0.01909024 -0.00804075
v 0.03421014 0.02097147 -0.00725602
v 0.03473849 0.02190189 -0.00630008
v 0.03442791 0.02189213 -0.00795514
v 0.03408520 0.02128722 -0.00845451
v 0.03432081 0.02248639 -0.00945325
v 0.03458141 0.02358443 -0.00998829
v 0.03437436 0.02410508 -0.01130806
v 0.03501694 0.02549848 -0.00989555
v 0.03553101 0.02729811 -0.00809782
v 0.03601651 0.02815136 -0.00551536
v 0.03569165 0.02815136 -0.00722749
v 0.03585230 0.02815136 -0.00641423
v -0.00003593 0.02729899 0.03643890
v -0.00003593 0.02636326 0.03641750
v -0.00003593 0.02549848 0.03639610
v 0.00090295 0.02549848 0.03639610
v 0.00270575 0.02549848 0.03631050
v 0.00450498 0.02549848 0.03613928
v 0.00551526 0.02549848 0.03601087
v 0.00641131 0.02549848 0.03584680
v 0.00810344 0.02549848 0.03548296
v 0.00990267 0.02549848 0.03501926
v 0.01162694 0.02549848 0.03448422
v 0.01259795 0.02655928 0.03419174
v 0.01350471 0.02549848 0.03377084
v 0.01530394 0.02549848 0.03300038
v 0.01639276 0.02549848 0.03249388
v 0.01729237 0.02549848 0.03200164
v 0.01980915 0.02626126 0.03060340
v 0.02192968 0.02549848 0.02904109
v 0.02282929 0.02549848 0.02833483
v 0.02388955 0.02549848 0.02743597
v 0.02479274 0.02549848 0.02662984
v 0.02573519 0.02549848 0.02573097
v 0.02663481 0.02549848 0.02480357
v 0.02743804 0.02549848 0.02389757
v 0.02833765 0.02549848 0.02284176
v 0.02906591 0.02549848 0.02194289
v 0.03060811 0.02615217 0.01981700
v 0.03103293 0.02553129 0.01906081
v 0.03203607 0.02549848 0.01732014
v 0.03251087 0.02549848 0.01642128
v 0.03301779 0.02549848 0.01530126
v 0.03418158 0.02500356 0.01254759
v 0.03442077 0.02556145 0.01184847
v 0.03387457 0.02556145 0.01332518
v 0.03500980 0.02549848 0.00990092
v -0.00003593 0.02815136 -0.03643353
v 0.03436365 0.02413346 0.01134910
v 0.03429939 0.02254138 0.00940155
v 0.03283930 0.01909024 0.00990092
v 0.03297495 0.01909024 0.00928741
v 0.03419586 0.02100074 0.00719719
v 0.03456356 0.02360040 0.00995800
v 0.03414588 0.02293518 0.01060718
v 0.03369251 0.01909024 0.00523538
v 0.03390313 0.01909024 0.00325216
v 0.03335694 0.01909024 0.00741121
v 0.03395311 0.01909024 0.00270285
v 0.03292141 0.01909024 -0.00983848
v 0.03394954 0.02189213 -0.00998829
v 0.03415659 0.02290680 -0.01065174
v 0.03345689 0.02190189 -0.01169329
v 0.03279289 0.02183714 -0.01356949
v 0.03344975 0.02369885 -0.01349815
v 0.03417444 0.02549848 -0.01252795
v 0.03449216 0.02549848 -0.01163621
v 0.03506335 0.02729811 -0.00989555
v 0.03505621 0.02815136 -0.00989555
v 0.03530253 0.02815136 -0.00894675
v 0.03550959 0.02815136 -0.00809782
v -0.00003593 0.02490777 0.03628196
v 0.00090295 0.02436229 0.03616782
v 0.00270575 0.02441640 0.03612502
v 0.00450498 0.02452727 0.03604654
v 0.00540817 0.02459822 0.03599660
v 0.01130565 0.02435076 0.03437008
v 0.01252655 0.02549848 0.03416320
v 0.01629280 0.02452727 0.03244394
v 0.01974133 0.02506121 0.03056060
v 0.01904520 0.02559604 0.03100290
v 0.02052671 0.02559604 0.03004696
v 0.02178688 0.02438890 0.02893408
v 0.02369678 0.02416362 0.02726475
v 0.02553171 0.02406694 0.02552409
v 0.02726668 0.02401017 0.02370496
v 0.02896239 0.02420264 0.02180735
v 0.03057598 0.02495211 0.01976706
v 0.03007619 0.02553129 0.02053038
v 0.03245732 0.02441108 0.01632140
v 0.03344261 0.02369974 0.01349639
v 0.00090295 0.02815136 -0.03643353
v -0.00003593 0.02729811 -0.03643353
v 0.03401023 0.02360040 0.01184847
v 0.03257513 0.01909024 0.01090680
v 0.03321414 0.01909024 0.00818166
v 0.03341405 0.02190100 0.01169866
v 0.03251444 0.01909024 0.01112082
v 0.03254657 0.01909024 -0.01118678
v 0.03254657 0.02066636 -0.01302018
v 0.03230738 0.02119498 -0.01421154
v 0.03253943 0.02239503 -0.01470378
v 0.03271792 0.02376094 -0.01530302
v 0.03246446 0.02440309 -0.01632316
v 0.03379246 0.02549848 -0.01349815
v 0.03419586 0.02640850 -0.01259215
v 0.03444933 0.02712515 -0.01187877
v 0.03479918 0.02815136 -0.01075162
v -0.00003593 0.02436229 0.03616782
v -0.00003593 0.02389487 0.03574692
v -0.00003593 0.02346381 0.03535456
v 0.00090295 0.02346381 0.03534742
v 0.00270575 0.02351792 0.03529748
v 0.00811415 0.01909024 0.03090302
v 0.00946715 0.01909024 0.03073181
v 0.00810344 0.02292100 0.03409900
v 0.00810344 0.02381859 0.03480525
v 0.00990267 0.02407580 0.03457696
v 0.00990267 0.02317732 0.03389211
v 0.01064878 0.01925345 0.03055347
v 0.01170548 0.02241188 0.03270789
v 0.01182328 0.02373078 0.03369950
v 0.01347972 0.02362080 0.03297898
v 0.01530394 0.02422304 0.03265795
v 0.01530394 0.02332456 0.03199450
v 0.01657839 0.02253783 0.03079602
v 0.01777431 0.02296002 0.03047499
v 0.01854184 0.02415829 0.03090302
v 0.02120142 0.02319063 0.02852031
v 0.02325768 0.02296534 0.02688666
v 0.02064094 0.02375296 0.02930504
v 0.02514973 0.02286867 0.02515313
v 0.02698823 0.02281190 0.02339106
v 0.02798780 0.02350816 0.02259920
v 0.02870535 0.02300437 0.02148632
v 0.02917301 0.02190100 0.02028070
v 0.02946574 0.02364120 0.02080860
v 0.03040463 0.02369974 0.01950311
v 0.03096867 0.02369974 0.01860424
v 0.03189328 0.02376626 0.01699199
v 0.03111861 0.02183093 0.01720600
v 0.03226098 0.02321280 0.01589337
v 0.03270364 0.02376626 0.01529413
v 0.03252515 0.02243760 0.01469488
v 0.03276790 0.02186286 0.01353920
v 0.00185254 0.02815136 -0.03638359
v 0.00270218 0.02729811 -0.03634079
v 0.00090295 0.02729811 -0.03643353
v -0.00003593 0.02549848 -0.03636933
v 0.03252872 0.02070272 0.01296849
v 0.03228596 0.02123845 0.01416698
v 0.03085443 0.02073554 0.01667810
v 0.03202179 0.01909024 0.01204108
v 0.03238949 0.01909024 -0.01148640
v 0.03085800 0.02073643 -0.01670126
v 0.03052957 0.02115330 -0.01789975
v 0.03205749 0.02183714 -0.01530302
v 0.03226098 0.02320659 -0.01590940
v 0.03251444 0.02549848 -0.01643017
v 0.03303207 0.02549848 -0.01529589
v 0.03111861 0.02181319 -0.01722203
v 0.03189328 0.02376094 -0.01699375
v 0.03096510 0.02369885 -0.01859173
v 0.03057598 0.02501598 -0.01976169
v 0.03203964 0.02549848 -0.01732904
v 0.03391027 0.02712515 -0.01333408
v 0.03420300 0.02760854 -0.01262069
v 0.03447788 0.02815136 -0.01178603
v 0.03420300 0.02815136 -0.01262782
v 0.03432438 0.02815136 -0.01226399
v -0.00003593 0.01930932 0.03134532
v -0.00003593 0.01909024 0.03113131
v 0.01052384 0.01909024 0.03046073
v 0.01437219 0.02101671 0.03058200
v 0.01317271 0.02073111 0.03081742
v 0.01170548 0.02038785 0.03108850
v 0.01286212 0.02267354 0.03249388
v 0.01406161 0.02296977 0.03225846
v 0.01530394 0.02216620 0.03109564
v 0.01530394 0.02126594 0.03038939
v 0.01714958 0.02192317 0.03001842
v 0.01803848 0.02097857 0.02881280
v 0.01923440 0.02141140 0.02849178
v 0.02000193 0.02261145 0.02893408
v 0.01904520 0.02361548 0.03022531
v 0.02144417 0.02114709 0.02688666
v 0.02205462 0.02234714 0.02731469
v 0.02259011 0.02180875 0.02655136
v 0.02349329 0.02092180 0.02526727
v 0.02387884 0.02190100 0.02562396
v 0.02478203 0.02190100 0.02484637
v 0.02578874 0.02190100 0.02394037
v 0.02668479 0.02190100 0.02311998
v 0.02754513 0.02190100 0.02221398
v 0.02844832 0.02190100 0.02117957
v 0.02893026 0.02085794 0.01995967
v 0.03012260 0.02183093 0.01886819
v 0.03074734 0.02238350 0.01824041
v 0.03050815 0.02118346 0.01787659
v 0.03204321 0.02186286 0.01529413
v 0.00270218 0.02815136 -0.03632652
v 0.00450141 0.02815136 -0.03616244
v 0.00450141 0.02729811 -0.03616958
v 0.00270218 0.02549848 -0.03629085
v 0.00090295 0.02549848 -0.03636933
v -0.00003593 0.02435254 -0.03615531
v 0.03120072 0.01909024 0.01309690
v 0.03205749 0.01909024 -0.01209278
v 0.02889099 0.02089519 -0.01991150
v 0.02911946 0.02190189 -0.02021825
v 0.02895525 0.02425143 -0.02180197
v 0.03037964 0.02369885 -0.01949060
v 0.03074377 0.02235334 -0.01822077
v 0.03253229 0.02729811 -0.01646584
v 0.03307491 0.02729811 -0.01529589
v 0.02906234 0.02549848 -0.02194465
v 0.03007976 0.02556855 -0.02051788
v 0.03060454 0.02621603 -0.01980449
v 0.03103650 0.02556855 -0.01905543
v 0.03206106 0.02729811 -0.01735757
v 0.03386743 0.02815136 -0.01343395
v -0.00003593 0.01909024 -0.03210327
v 0.01168763 0.01909024 0.02993995
v 0.01710317 0.02077013 0.02906962
v 0.02024468 0.02074175 0.02729329
v 0.02249729 0.02069386 0.02561683
v 0.02417158 0.02065749 0.02421859
v 0.02539248 0.02083754 0.02356941
v 0.02722027 0.02079408 0.02182875
v 0.02785214 0.02059363 0.02060886
v 0.00557952 0.02815136 -0.03602690
v 0.00559023 0.02729811 -0.03602690
v 0.00551526 0.02603863 -0.03601263
v 0.00461565 0.02546212 -0.03609111
v 0.00527965 0.02483859 -0.03597696
v 0.00408730 0.02451219 -0.03604830
v 0.00270218 0.02441108 -0.03611251
v 0.00090295 0.02435254 -0.03615531
v -0.00003593 0.02345405 -0.03549186
v 0.02603507 0.02058032 0.02245653
v 0.01248728 0.01909024 0.02951192
v 0.03175405 0.01909024 -0.01250655
v 0.02781288 0.02064862 -0.02058922
v 0.02715958 0.02085085 -0.02175917
v 0.02747731 0.02190189 -0.02211586
v 0.02728096 0.02410508 -0.02372098
v 0.03122927 0.01909024 -0.01311292
v 0.02834836 0.02549848 -0.02284352
v 0.02745232 0.02549848 -0.02392073
v 0.03252515 0.02815136 -0.01645157
v 0.03230738 0.02815136 -0.01687961
v 0.03306063 0.02815136 -0.01529589
v 0.02909090 0.02729811 -0.02198032
v 0.03011189 0.02738148 -0.02051788
v 0.03060454 0.02683601 -0.01980449
v 0.03104721 0.02738148 -0.01906970
v 0.03191827 0.02731053 -0.01760013
v 0.03109719 0.02815136 -0.01898410
v 0.03191113 0.02815136 -0.01760013
v 0.03205749 0.02815136 -0.01735044
v -0.00003593 0.02138834 -0.03389387
v 0.00090295 0.01909024 -0.03210327
v 0.00605789 0.02815136 -0.03594130
v 0.00648985 0.02729811 -0.03585569
v 0.00618998 0.02546212 -0.03585569
v 0.00810344 0.02549848 -0.03544906
v 0.01135206 0.02432948 -0.03436471
v 0.00990624 0.02403589 -0.03456446
v 0.00630421 0.02369885 -0.03512803
v 0.00461565 0.02382657 -0.03547759
v 0.00450141 0.02244825 -0.03446458
v 0.00270218 0.02351436 -0.03545619
v 0.00090295 0.02345405 -0.03549186
v -0.00003593 0.02228860 -0.03459299
v 0.02599580 0.02063975 -0.02241548
v 0.02533180 0.02087923 -0.02352123
v 0.02570306 0.02190189 -0.02388506
v 0.02553885 0.02409798 -0.02554012
v 0.02664552 0.02549848 -0.02481960
v 0.02429295 0.02016789 -0.02249396
v 0.01195894 0.01909024 -0.02997025
v 0.02836264 0.02729811 -0.02287205
v 0.02668122 0.02729811 -0.02484813
v 0.02746660 0.02729811 -0.02394927
v 0.02835907 0.02815136 -0.02287205
v 0.02908733 0.02815136 -0.02197319
v 0.02965495 0.02815136 -0.02116706
v 0.03059383 0.02815136 -0.01979022
v 0.00090295 0.02138922 -0.03389387
v 0.00270218 0.01909024 -0.03203194
v 0.00810344 0.02815136 -0.03549899
v 0.00810344 0.02729811 -0.03552040
v 0.00990624 0.02549848 -0.03500676
v 0.01255154 0.02499558 -0.03417923
v 0.01632493 0.02451307 -0.03245284
v 0.01530394 0.02422836 -0.03268112
v 0.01185898 0.02371659 -0.03374406
v 0.01049885 0.02110895 -0.03231016
v 0.00990624 0.02313830 -0.03394381
v 0.00862465 0.02292188 -0.03410789
v 0.00805704 0.02359330 -0.03470000
v 0.00742516 0.02273385 -0.03424344
v 0.00630421 0.02260879 -0.03433618
v 0.00270218 0.02233826 -0.03455732
v 0.00630421 0.01909024 -0.03166097
v 0.00518326 0.01909024 -0.03180365
v 0.00449427 0.01909024 -0.03188213
v 0.02412517 0.02072046 -0.02419182
v 0.02341476 0.02098477 -0.02521196
v 0.02371820 0.02420974 -0.02727365
v 0.02511760 0.02290148 -0.02512635
v 0.02574233 0.02549848 -0.02574700
v 0.02481773 0.02549848 -0.02664587
v 0.01163408 0.01909024 -0.03020566
v 0.02249372 0.02075949 -0.02550445
v 0.02667765 0.02815136 -0.02484100
v 0.02709176 0.02815136 -0.02437016
v 0.02578160 0.02729811 -0.02576840
v 0.02745589 0.02815136 -0.02394213
v 0.00990624 0.02815136 -0.03505669
v 0.00990624 0.02729811 -0.03507096
v 0.01185898 0.02555613 -0.03442892
v 0.01262294 0.02619651 -0.03420063
v 0.01333692 0.02555613 -0.03387960
v 0.01530394 0.02549848 -0.03303067
v 0.01642846 0.02549848 -0.03250990
v 0.01732807 0.02549848 -0.03202480
v 0.01976275 0.02495833 -0.03057662
v 0.01855612 0.02420708 -0.03091905
v 0.01764579 0.02301058 -0.03040541
v 0.01094509 0.01909024 -0.03067650
v 0.00990267 0.02178569 -0.03295934
v 0.00990267 0.01909024 -0.03098326
v 0.00990267 0.02022200 -0.03181792
v 0.00929936 0.02090051 -0.03246710
v 0.00950642 0.01909024 -0.03106886
v 0.00810344 0.01909024 -0.03136849
v 0.00727166 0.01909024 -0.03150403
v 0.02005548 0.02085085 -0.02714524
v 0.02125854 0.02125352 -0.02679568
v 0.01905591 0.02364386 -0.03014859
v 0.02057668 0.02375384 -0.02927113
v 0.02180116 0.02439245 -0.02895011
v 0.02391811 0.02549848 -0.02744486
v 0.02393596 0.02729811 -0.02748053
v 0.02483915 0.02729811 -0.02666727
v 0.02577803 0.02815136 -0.02576127
v 0.01179472 0.02815136 -0.03447172
v 0.01188040 0.02743825 -0.03445031
v 0.01262294 0.02693091 -0.03420063
v 0.01333692 0.02743825 -0.03392241
v 0.01530394 0.02729811 -0.03308061
v 0.01645702 0.02729811 -0.03252417
v 0.01735663 0.02729811 -0.03206047
v 0.01981272 0.02615837 -0.03060516
v 0.01905591 0.02553485 -0.03101893
v 0.02052671 0.02553485 -0.03007012
v 0.02194396 0.02549848 -0.02905712
v 0.02284714 0.02549848 -0.02834373
v 0.02288284 0.02729811 -0.02837940
v 0.02392882 0.02815136 -0.02747339
v 0.02440719 0.02815136 -0.02704536
v 0.02483201 0.02815136 -0.02666013
v 0.01258367 0.02815136 -0.03420063
v 0.01341189 0.02815136 -0.03388674
v 0.01530394 0.02815136 -0.03307348
v 0.01643560 0.02815136 -0.03251704
v 0.01733878 0.02815136 -0.03205334
v 0.01898451 0.02815136 -0.03110453
v 0.01889526 0.02729811 -0.03116874
v 0.01980915 0.02729811 -0.03060516
v 0.02070877 0.02729811 -0.02998452
v 0.02198680 0.02729811 -0.02908565
v 0.02287570 0.02815136 -0.02837226
v 0.01943789 0.02815136 -0.03082631
v 0.01980202 0.02815136 -0.03059803
v 0.02061595 0.02815136 -0.03003445
v 0.02197609 0.02815136 -0.02907851
f 1 2 3
f 1 3 4
f 1 4 5
f 1 5 6
f 1 6 7
f 1 7 8
f 1 8 9
f 1 9 10
f 1 10 2
f 2 11 12
f 2 12 3
f 2 10 13
f 2 13 14
f 2 14 11
f 3 12 15
f 3 15 16
f 3 16 17
f 3 17 4
f 4 17 18
f 4 18 19
f 4 19 20
f 4 20 5
f 5 20 19
f 5 19 18
f 5 18 39
f 5 39 109
f 5 109 174
f 5 174 176
f 5 176 175
f 5 175 235
f 5 235 234
f 5 234 233
f 5 233 272
f 5 272 332
f 5 332 334
f 5 334 333
f 5 333 385
f 5 385 416
f 5 416 414
f 5 414 415
f 5 415 424
f 5 424 423
f 5 423 422
f 5 422 452
f 5 452 451
f 5 451 450
f 5 450 449
f 5 449 483
f 5 483 481
f 5 481 480
f 5 480 511
f 5 511 527
f 5 527 526
f 5 526 525
f 5 525 538
f 5 538 542
f 5 542 541
f 5 541 540
f 5 540 539
f 5 539 533
f 5 533 532
f 5 532 531
f 5 531 530
f 5 530 529
f 5 529 528
f 5 528 512
f 5 512 484
f 5 484 455
f 5 455 427
f 5 427 395
f 5 395 366
f 5 366 365
f 5 365 310
f 5 310 256
f 5 256 212
f 5 212 150
f 5 150 91
f 5 91 21
f 5 21 6
f 6 21 22
f 6 22 8
f 6 8 7
f 8 22 90
f 8 90 23
f 8 23 24
f 8 24 25
f 8 25 9
f 9 25 10
f 10 25 26
f 10 26 13
f 11 27 12
f 11 14 27
f 12 28 15
f 12 27 28
f 13 26 14
f 14 29 27
f 14 26 29
f 15 28 30
f 15 30 31
f 15 31 32
f 15 32 33
f 15 33 34
f 15 34 16
f 16 34 35
f 16 35 36
f 16 36 37
f 16 37 38
f 16 38 17
f 17 38 39
f 17 39 18
f 21 40 41
f 21 41 42
f 21 42 43
f 21 43 44
f 21 44 45
f 21 45 46
f 21 46 47
f 21 47 48
f 21 48 49
f 21 49 50
f 21 50 51
f 21 51 52
f 21 52 53
f 21 53 54
f 21 54 55
f 21 55 56
f 21 56 57
f 21 57 58
f 21 58 59
f 21 59 60
f 21 60 61
f 21 61 62
f 21 62 63
f 21 63 64
f 21 64 65
f 21 65 66
f 21 66 67
f 21 67 68
f 21 68 69
f 21 69 70
f 21 70 71
f 21 71 72
f 21 72 73
f 21 73 74
f 21 74 75
f 21 75 76
f 21 76 77
f 21 77 78
f 21 78 79
f 21 79 80
f 21 80 81
f 21 81 82
f 21 82 83
f 21 83 84
f 21 84 85
f 21 85 86
f 21 86 87
f 21 87 88
f 21 88 89
f 21 89 90
f 21 90 22
f 21 91 110
f 21 110 40
f 23 90 89
f 23 89 92
f 23 92 93
f 23 93 24
f 24 93 94
f 24 94 95
f 24 95 25
f 25 95 26
f 26 95 96
f 26 96 29
f 27 97 28
f 27 29 96
f 27 96 97
f 28 97 98
f 28 98 30
f 30 98 99
f 30 99 31
f 31 100 32
f 31 99 98
f 31 98 163
f 31 163 162
f 31 162 223
f 31 223 221
f 31 221 157
f 31 157 220
f 31 220 159
f 31 159 222
f 31 222 260
f 31 260 216
f 31 216 215
f 31 215 259
f 31 259 262
f 31 262 317
f 31 317 371
f 31 371 405
f 31 405 387
f 31 387 337
f 31 337 279
f 31 279 278
f 31 278 336
f 31 336 386
f 31 386 426
f 31 426 454
f 31 454 471
f 31 471 470
f 31 470 469
f 31 469 502
f 31 502 501
f 31 501 500
f 31 500 497
f 31 497 495
f 31 495 478
f 31 478 445
f 31 445 411
f 31 411 406
f 31 406 372
f 31 372 318
f 31 318 263
f 31 263 224
f 31 224 164
f 31 164 100
f 32 100 33
f 33 100 101
f 33 101 102
f 33 102 34
f 34 102 103
f 34 103 35
f 35 103 104
f 35 104 105
f 35 105 106
f 35 106 37
f 35 37 36
f 37 107 38
f 37 106 108
f 37 108 107
f 38 107 109
f 38 109 39
f 40 110 111
f 40 111 41
f 41 111 112
f 41 112 113
f 41 113 42
f 42 113 114
f 42 114 43
f 43 114 115
f 43 115 44
f 44 115 45
f 45 116 46
f 45 115 116
f 46 116 47
f 47 116 117
f 47 117 48
f 48 117 49
f 49 117 118
f 49 118 50
f 50 119 51
f 50 118 119
f 51 119 120
f 51 120 52
f 52 120 53
f 53 120 121
f 53 121 54
f 54 121 122
f 54 122 55
f 55 122 123
f 55 123 56
f 56 123 124
f 56 124 57
f 57 124 58
f 58 124 59
f 59 125 60
f 59 124 126
f 59 126 125
f 60 125 127
f 60 127 61
f 61 127 62
f 62 128 63
f 62 127 128
f 63 128 129
f 63 129 64
f 64 129 65
f 65 129 66
f 66 129 130
f 66 130 131
f 66 131 67
f 67 131 132
f 67 132 68
f 68 132 69
f 69 132 70
f 70 132 133
f 70 133 134
f 70 134 71
f 71 134 135
f 71 135 72
f 72 135 73
f 73 135 74
f 74 136 137
f 74 137 75
f 74 135 136
f 75 137 138
f 75 138 76
f 76 138 139
f 76 139 77
f 77 139 78
f 78 139 140
f 78 140 79
f 79 140 80
f 80 140 81
f 81 140 141
f 81 141 142
f 81 142 82
f 82 142 143
f 82 143 144
f 82 144 83
f 83 144 143
f 83 143 84
f 84 143 145
f 84 145 146
f 84 146 147
f 84 147 85
f 85 147 148
f 85 148 86
f 86 148 87
f 87 148 88
f 88 148 149
f 88 149 89
f 89 149 92
f 91 150 110
f 92 149 93
f 93 149 151
f 93 151 94
f 94 151 152
f 94 152 153
f 94 153 154
f 94 154 95
f 95 155 156
f 95 156 157
f 95 157 96
f 95 154 158
f 95 158 159
f 95 159 155
f 96 157 160
f 96 160 161
f 96 161 97
f 97 161 162
f 97 162 163
f 97 163 98
f 100 164 165
f 100 165 101
f 101 166 102
f 101 165 166
f 102 166 103
f 103 166 165
f 103 165 167
f 103 167 104
f 104 167 168
f 104 168 169
f 104 169 170
f 104 170 171
f 104 171 105
f 105 172 173
f 105 173 108
f 105 108 106
f 105 171 172
f 107 174 109
f 107 108 174
f 108 173 175
f 108 175 176
f 108 176 174
f 110 177 111
f 110 150 212
f 110 212 257
f 110 257 313
f 110 313 370
f 110 370 403
f 110 403 438
f 110 438 425
f 110 425 386
f 110 386 336
f 110 336 335
f 110 335 275
f 110 275 274
f 110 274 273
f 110 273 236
f 110 236 179
f 110 179 178
f 110 178 177
f 111 177 178
f 111 178 179
f 111 179 180
f 111 180 181
f 111 181 112
f 112 181 182
f 112 182 113
f 113 182 183
f 113 183 114
f 114 183 115
f 115 184 116
f 115 183 184
f 116 185 186
f 116 186 117
f 116 184 185
f 117 186 187
f 117 187 118
f 118 187 188
f 118 188 119
f 119 188 120
f 120 188 189
f 120 189 121
f 121 189 190
f 121 190 122
f 122 191 192
f 122 192 123
f 122 190 191
f 123 192 193
f 123 193 124
f 124 193 126
f 125 126 193
f 125 193 127
f 127 193 194
f 127 194 195
f 127 195 128
f 128 195 129
f 129 196 197
f 129 197 130
f 129 195 196
f 130 197 198
f 130 198 131
f 131 198 199
f 131 199 132
f 132 199 133
f 133 199 200
f 133 200 201
f 133 201 134
f 134 201 202
f 134 202 135
f 135 202 203
f 135 203 136
f 136 203 137
f 137 203 138
f 138 203 204
f 138 204 205
f 138 205 139
f 139 205 140
f 140 205 206
f 140 206 141
f 141 206 207
f 141 207 145
f 141 145 142
f 142 145 143
f 145 208 209
f 145 209 147
f 145 147 146
f 145 207 210
f 145 210 208
f 147 209 211
f 147 211 152
f 147 152 148
f 148 152 149
f 149 152 151
f 152 211 213
f 152 213 153
f 153 214 215
f 153 215 216
f 153 216 217
f 153 217 154
f 153 213 218
f 153 218 219
f 153 219 214
f 154 217 158
f 155 220 156
f 155 159 220
f 156 220 157
f 157 221 160
f 158 217 159
f 159 217 222
f 160 221 223
f 160 223 162
f 160 162 161
f 164 224 168
f 164 168 167
f 164 167 165
f 168 224 169
f 169 224 225
f 169 225 226
f 169 226 170
f 170 226 171
f 171 226 227
f 171 227 228
f 171 228 229
f 171 229 230
f 171 230 231
f 171 231 172
f 172 232 173
f 172 231 232
f 173 232 233
f 173 233 234
f 173 234 235
f 173 235 175
f 179 236 180
f 180 236 237
f 180 237 238
f 180 238 181
f 181 238 239
f 181 239 240
f 181 240 182
f 182 240 183
f 183 240 184
f 184 240 185
f 185 240 186
f 186 241 187
f 186 240 241
f 187 241 242
f 187 242 188
f 188 242 189
f 189 243 190
f 189 242 243
f 190 243 191
f 191 243 192
f 192 244 245
f 192 245 193
f 192 243 244
f 193 244 246
f 193 246 194
f 193 245 244
f 194 247 195
f 194 246 244
f 194 244 247
f 195 247 248
f 195 248 196
f 196 248 197
f 197 248 249
f 197 249 198
f 198 249 199
f 199 250 200
f 199 249 250
f 200 250 251
f 200 251 201
f 201 251 202
f 202 251 252
f 202 252 253
f 202 253 203
f 203 252 204
f 203 253 252
f 204 252 205
f 205 252 254
f 205 254 206
f 206 254 207
f 207 254 208
f 207 208 210
f 208 213 211
f 208 211 209
f 208 254 255
f 208 255 213
f 212 256 312
f 212 312 257
f 213 255 258
f 213 258 219
f 213 219 218
f 214 219 215
f 215 219 259
f 216 260 217
f 217 260 222
f 219 258 261
f 219 261 262
f 219 262 259
f 224 263 226
f 224 226 225
f 226 263 227
f 227 263 264
f 227 264 228
f 228 265 266
f 228 266 229
f 228 264 265
f 229 266 267
f 229 267 268
f 229 268 269
f 229 269 230
f 230 270 231
f 230 269 270
f 231 270 271
f 231 271 232
f 232 271 272
f 232 272 233
f 236 273 237
f 237 273 274
f 237 274 275
f 237 275 276
f 237 276 238
f 238 276 277
f 238 277 278
f 238 278 239
f 239 278 240
f 240 278 279
f 240 279 280
f 240 280 281
f 240 281 282
f 240 282 241
f 241 282 283
f 241 283 284
f 241 284 285
f 241 285 286
f 241 286 287
f 241 287 288
f 241 288 243
f 241 243 242
f 243 288 289
f 243 289 290
f 243 290 291
f 243 291 292
f 243 292 244
f 244 292 247
f 247 293 294
f 247 294 248
f 247 292 295
f 247 295 293
f 248 294 296
f 248 296 249
f 249 296 297
f 249 297 250
f 250 297 298
f 250 298 251
f 251 298 299
f 251 299 300
f 251 300 301
f 251 301 302
f 251 302 252
f 252 302 303
f 252 303 254
f 254 303 304
f 254 304 305
f 254 305 306
f 254 306 307
f 254 307 255
f 255 307 308
f 255 308 309
f 255 309 258
f 256 310 311
f 256 311 312
f 257 312 369
f 257 369 313
f 258 314 261
f 258 309 314
f 261 314 262
f 262 314 315
f 262 315 316
f 262 316 317
f 263 318 319
f 263 319 320
f 263 320 265
f 263 265 264
f 265 321 266
f 265 320 321
f 266 321 322
f 266 322 267
f 267 322 268
f 268 323 324
f 268 324 269
f 268 322 325
f 268 325 326
f 268 326 327
f 268 327 328
f 268 328 329
f 268 329 323
f 269 330 270
f 269 324 330
f 270 331 271
f 270 330 331
f 271 332 272
f 271 331 333
f 271 333 334
f 271 334 332
f 275 335 276
f 276 335 278
f 276 278 277
f 278 335 336
f 279 337 283
f 279 283 280
f 280 283 281
f 281 283 282
f 283 337 284
f 284 337 338
f 284 338 339
f 284 339 340
f 284 340 285
f 285 341 286
f 285 340 341
f 286 341 287
f 287 341 342
f 287 342 288
f 288 342 289
f 289 343 290
f 289 342 343
f 290 343 344
f 290 344 345
f 290 345 291
f 291 345 346
f 291 346 347
f 291 347 348
f 291 348 349
f 291 349 292
f 292 349 295
f 293 295 348
f 293 348 350
f 293 350 351
f 293 351 294
f 294 352 353
f 294 353 354
f 294 354 355
f 294 355 296
f 294 351 352
f 295 349 348
f 296 355 356
f 296 356 357
f 296 357 297
f 297 357 358
f 297 358 359
f 297 359 299
f 297 299 298
f 299 359 300
f 300 359 360
f 300 360 361
f 300 361 302
f 300 302 301
f 302 361 362
f 302 362 303
f 303 362 304
f 304 362 305
f 305 362 363
f 305 363 364
f 305 364 306
f 306 364 308
f 306 308 307
f 308 364 315
f 308 315 309
f 309 315 314
f 310 365 311
f 311 365 366
f 311 366 367
f 311 367 368
f 311 368 312
f 312 368 369
f 313 369 402
f 313 402 370
f 315 364 363
f 315 363 316
f 316 363 360
f 316 360 317
f 317 360 371
f 318 372 319
f 319 372 373
f 319 373 320
f 320 373 374
f 320 374 375
f 320 375 376
f 320 376 377
f 320 377 326
f 320 326 325
f 320 325 321
f 321 325 322
f 323 378 379
f 323 379 324
f 323 329 378
f 324 379 330
f 326 377 327
f 327 377 376
f 327 376 328
f 328 376 375
f 328 375 380
f 328 380 381
f 328 381 382
f 328 382 383
f 328 383 329
f 329 383 384
f 329 384 378
f 330 379 385
f 330 385 333
f 330 333 331
f 337 387 338
f 338 387 388
f 338 388 344
f 338 344 342
f 338 342 341
f 338 341 339
f 339 341 340
f 342 344 343
f 344 388 346
f 344 346 345
f 346 388 389
f 346 389 347
f 347 389 350
f 347 350 348
f 350 353 352
f 350 352 351
f 350 389 353
f 353 355 354
f 353 389 390
f 353 390 391
f 353 391 392
f 353 392 355
f 355 392 356
f 356 392 357
f 357 392 393
f 357 393 358
f 358 393 360
f 358 360 359
f 360 393 394
f 360 394 371
f 360 363 361
f 361 363 362
f 366 395 367
f 367 395 396
f 367 396 397
f 367 397 398
f 367 398 368
f 368 398 399
f 368 399 400
f 368 400 401
f 368 401 369
f 369 401 402
f 370 402 437
f 370 437 403
f 371 394 393
f 371 393 404
f 371 404 405
f 372 406 373
f 373 407 408
f 373 408 409
f 373 409 410
f 373 410 375
f 373 375 374
f 373 406 411
f 373 411 407
f 375 412 380
f 375 410 413
f 375 413 412
f 378 414 379
f 378 384 415
f 378 415 414
f 379 416 385
f 379 414 416
f 380 412 417
f 380 417 381
f 381 417 382
f 382 417 418
f 382 418 419
f 382 419 420
f 382 420 421
f 382 421 384
f 382 384 383
f 384 421 422
f 384 422 423
f 384 423 424
f 384 424 415
f 386 425 426
f 387 405 388
f 388 405 389
f 389 405 390
f 390 405 391
f 391 404 392
f 391 405 404
f 392 404 393
f 395 427 396
f 396 427 428
f 396 428 397
f 397 428 429
f 397 429 399
f 397 399 398
f 399 429 430
f 399 430 431
f 399 431 432
f 399 432 400
f 400 433 434
f 400 434 435
f 400 435 436
f 400 436 401
f 400 432 433
f 401 436 402
f 402 436 437
f 403 437 438
f 407 439 408
f 407 411 439
f 408 439 440
f 408 440 441
f 408 441 442
f 408 442 409
f 409 442 410
f 410 442 443
f 410 443 413
f 411 444 439
f 411 445 444
f 412 413 448
f 412 448 446
f 412 446 417
f 413 443 447
f 413 447 448
f 417 446 449
f 417 449 450
f 417 450 451
f 417 451 418
f 418 451 452
f 418 452 419
f 419 452 422
f 419 422 420
f 420 422 421
f 425 438 453
f 425 453 426
f 426 453 454
f 427 455 456
f 427 456 428
f 428 456 429
f 429 456 430
f 430 457 431
f 430 456 457
f 431 458 459
f 431 459 460
f 431 460 461
f 431 461 462
f 431 462 463
f 431 463 432
f 431 457 458
f 432 463 464
f 432 464 465
f 432 465 433
f 433 465 466
f 433 466 467
f 433 467 434
f 434 467 435
f 435 468 436
f 435 467 469
f 435 469 470
f 435 470 471
f 435 471 468
f 436 468 437
f 437 468 453
f 437 453 438
f 439 444 445
f 439 445 472
f 439 472 440
f 440 472 473
f 440 473 474
f 440 474 475
f 440 475 441
f 441 475 442
f 442 476 443
f 442 475 474
f 442 474 477
f 442 477 476
f 443 476 447
f 445 478 479
f 445 479 472
f 446 448 449
f 447 480 481
f 447 481 448
f 447 476 482
f 447 482 511
f 447 511 480
f 448 483 449
f 448 481 483
f 453 468 454
f 454 468 471
f 455 484 456
f 456 484 485
f 456 485 457
f 457 485 486
f 457 486 458
f 458 486 487
f 458 487 488
f 458 488 489
f 458 489 459
f 459 489 490
f 459 490 491
f 459 491 492
f 459 492 493
f 459 493 494
f 459 494 495
f 459 495 460
f 460 495 461
f 461 495 462
f 462 496 463
f 462 495 497
f 462 497 498
f 462 498 496
f 463 496 499
f 463 499 464
f 464 466 465
f 464 499 466
f 466 499 497
f 466 497 500
f 466 500 501
f 466 501 467
f 467 501 502
f 467 502 469
f 472 479 473
f 473 479 495
f 473 495 503
f 473 503 504
f 473 504 505
f 473 505 506
f 473 506 507
f 473 507 474
f 474 507 508
f 474 508 477
f 476 477 482
f 477 508 509
f 477 509 510
f 477 510 482
f 478 495 479
f 482 510 511
f 484 512 485
f 485 512 513
f 485 513 487
f 485 487 486
f 487 514 515
f 487 515 516
f 487 516 488
f 487 513 514
f 488 516 489
f 489 516 490
f 490 517 518
f 490 518 491
f 490 516 517
f 491 518 519
f 491 519 520
f 491 520 492
f 492 520 519
f 492 519 521
f 492 521 522
f 492 522 507
f 492 507 493
f 493 507 506
f 493 506 505
f 493 505 494
f 494 505 503
f 494 503 495
f 496 498 499
f 497 499 498
f 503 505 504
f 507 522 523
f 507 523 508
f 508 523 524
f 508 524 509
f 509 525 526
f 509 526 510
f 509 524 538
f 509 538 525
f 510 526 527
f 510 527 511
f 512 528 513
f 513 528 514
f 514 528 529
f 514 529 515
f 515 529 516
f 516 530 517
f 516 529 530
f 517 530 531
f 517 531 532
f 517 532 518
f 518 532 533
f 518 533 534
f 518 534 519
f 519 535 536
f 519 536 537
f 519 537 522
f 519 522 521
f 519 534 535
f 522 524 523
f 522 537 524
f 524 537 538
f 533 539 534
f 534 539 535
f 535 539 540
f 535 540 536
f 536 541 542
f 536 542 537
f 536 540 541
f 537 542 538

