# https://github.com/mikedh/trimesh
v -0.00003593 0.02815225 -0.03643235
v -0.00003593 0.02910002 -0.03643235
v 0.00090267 0.02815225 -0.03643235
v -0.00003593 0.02815225 -0.02895137
v -0.00003593 0.03029085 -0.03621463
v 0.00090267 0.02910002 -0.03643235
v 0.00185022 0.02815225 -0.03638592
v -0.00003593 0.02855752 -0.02933559
v 0.02128387 0.02815225 -0.02007921
v 0.02297635 0.02972724 -0.02007921
v 0.02367658 0.03017557 -0.02007921
v 0.02429934 0.03052473 -0.02007921
v -0.00003593 0.03054834 -0.03563510
v 0.00090267 0.03029085 -0.03621463
v 0.00270242 0.03022334 -0.03615540
v 0.00450216 0.03011640 -0.03607695
v 0.00270242 0.02910002 -0.03632509
v 0.00270242 0.02815225 -0.03633470
v -0.00003593 0.02904974 -0.02980305
v 0.03040476 0.02815225 -0.02007921
v 0.02609908 0.03094029 -0.02007921
v -0.00003593 0.03049473 -0.03157364
v -0.00003593 0.02994946 -0.03067393
v -0.00003593 0.02948168 -0.03022088
v -0.00003593 0.03078584 -0.03509881
v 0.00090267 0.03078584 -0.03509881
v 0.00270242 0.03071834 -0.03509881
v 0.00450216 0.03061139 -0.03509881
v 0.00810165 0.03049473 -0.03481385
v 0.00549738 0.03003085 -0.03601772
v 0.00990139 0.03042501 -0.03461694
v 0.00450216 0.02910002 -0.03616660
v 0.00450216 0.02815225 -0.03616981
v 0.03005017 0.02815225 -0.02060590
v 0.02997270 0.02910002 -0.02070036
v 0.03039880 0.02845085 -0.02007921
v 0.02789883 0.03093029 -0.02007921
v 0.02609908 0.03098972 -0.02070036
v -0.00003593 0.03098972 -0.03329940
v -0.00003593 0.03073251 -0.03240130
v -0.00003593 0.03089195 -0.03416388
v 0.00810165 0.03098972 -0.03329940
v 0.00990139 0.03092001 -0.03329940
v 0.00557188 0.02910002 -0.03603373
v 0.01137039 0.03023668 -0.03439761
v 0.00990139 0.02910002 -0.03505558
v 0.00810165 0.02910002 -0.03547662
v 0.01350088 0.03049473 -0.03311210
v 0.00558082 0.02815225 -0.03603373
v 0.02965388 0.02815225 -0.02117582
v 0.02909071 0.02910002 -0.02197307
v 0.03038390 0.02910002 -0.02007921
v 0.02898940 0.03020890 -0.02184500
v 0.02789883 0.03089917 -0.02070036
v 0.02609908 0.03094501 -0.02250136
v 0.02956150 0.03047417 -0.02007921
v 0.02429934 0.03096723 -0.02430077
v 0.02429934 0.03098972 -0.02250136
v 0.01350088 0.03098972 -0.03149999
v 0.01529764 0.03081417 -0.03149999
v 0.00810165 0.02815225 -0.03550223
v 0.00605459 0.02815225 -0.03594408
v 0.01529764 0.03031917 -0.03272788
v 0.01633756 0.03009584 -0.03246854
v 0.01350088 0.02910002 -0.03384210
v 0.01257717 0.02910002 -0.03418469
v 0.01167730 0.02910002 -0.03450327
v 0.00990139 0.02815225 -0.03506839
v 0.02909369 0.02815225 -0.02197787
v 0.02836366 0.02815225 -0.02287757
v 0.02835472 0.02910002 -0.02287277
v 0.03019022 0.02952418 -0.02007921
v 0.02937676 0.03040418 -0.02070036
v 0.02745485 0.02910002 -0.02393897
v 0.02667417 0.02910002 -0.02483867
v 0.02729692 0.03027001 -0.02375486
v 0.02789883 0.03048529 -0.02246774
v 0.02614676 0.03053974 -0.02433279
v 0.02432318 0.03054056 -0.02614180
v 0.02249959 0.03094584 -0.02610018
v 0.01709738 0.03098890 -0.02969899
v 0.01889713 0.03098972 -0.02790118
v 0.02069985 0.03098972 -0.02610018
v 0.02069985 0.03089139 -0.02790118
v 0.01906995 0.03059307 -0.02987028
v 0.01858426 0.03032862 -0.03096530
v 0.01700203 0.03045251 -0.03153842
v 0.01978508 0.02951668 -0.03058588
v 0.01732086 0.02910002 -0.03205550
v 0.01642099 0.02910002 -0.03251176
v 0.01529764 0.02910002 -0.03306887
v 0.01444843 0.02815225 -0.03344508
v 0.01340553 0.02815225 -0.03389013
v 0.01259803 0.02815225 -0.03419750
v 0.01258015 0.02815225 -0.03420390
v 0.01179351 0.02815225 -0.03447766
v 0.02746379 0.02815225 -0.02394697
v 0.02709430 0.02815225 -0.02437281
v 0.02668013 0.02815225 -0.02484668
v 0.02625403 0.02815225 -0.02528372
v 0.02577429 0.02910002 -0.02576079
v 0.02557763 0.03029973 -0.02556868
v 0.02374213 0.03027112 -0.02731045
v 0.02246384 0.03048001 -0.02790598
v 0.02069985 0.03039640 -0.02937240
v 0.02184108 0.03019862 -0.02897858
v 0.02197517 0.02910002 -0.02907624
v 0.02052107 0.02899002 -0.03009281
v 0.01980296 0.02831669 -0.03060189
v 0.01906995 0.02899002 -0.03104534
v 0.01643589 0.02815225 -0.03251976
v 0.01898652 0.02815225 -0.03110938
v 0.01815220 0.02815225 -0.03159125
v 0.01733576 0.02815225 -0.03206031
v 0.01590550 0.02815225 -0.03278391
v 0.01529764 0.02815225 -0.03307848
v 0.02578025 0.02815225 -0.02576879
v 0.02483271 0.02815225 -0.02666849
v 0.02482377 0.02910002 -0.02666049
v 0.02392390 0.02910002 -0.02747374
v 0.02287504 0.02910002 -0.02837185
v 0.02198113 0.02815225 -0.02908264
v 0.02061642 0.02815225 -0.03004158
v 0.01980296 0.02815225 -0.03060349
v 0.01943944 0.02815225 -0.03082922
v 0.02440661 0.02815225 -0.02705431
v 0.02393284 0.02815225 -0.02748015
v 0.02343820 0.02815225 -0.02790598
v 0.02288100 0.02815225 -0.02837825
f 1 2 6
f 1 6 3
f 1 3 7
f 1 7 18
f 1 18 33
f 1 33 49
f 1 49 62
f 1 62 61
f 1 61 68
f 1 68 96
f 1 96 95
f 1 95 94
f 1 94 93
f 1 93 92
f 1 92 116
f 1 116 115
f 1 115 111
f 1 111 114
f 1 114 113
f 1 113 112
f 1 112 125
f 1 125 124
f 1 124 123
f 1 123 122
f 1 122 129
f 1 129 128
f 1 128 127
f 1 127 126
f 1 126 118
f 1 118 117
f 1 117 100
f 1 100 99
f 1 99 98
f 1 98 97
f 1 97 70
f 1 70 69
f 1 69 50
f 1 50 34
f 1 34 20
f 1 20 9
f 1 9 4
f 1 4 8
f 1 8 19
f 1 19 24
f 1 24 23
f 1 23 22
f 1 22 40
f 1 40 39
f 1 39 41
f 1 41 25
f 1 25 13
f 1 13 5
f 1 5 2
f 2 5 14
f 2 14 6
f 3 6 7
f 4 9 10
f 4 10 11
f 4 11 12
f 4 12 8
f 5 13 14
f 6 14 15
f 6 15 16
f 6 16 17
f 6 17 7
f 7 17 18
f 8 12 19
f 9 20 36
f 9 36 52
f 9 52 72
f 9 72 56
f 9 56 37
f 9 37 21
f 9 21 12
f 9 12 11
f 9 11 10
f 12 21 22
f 12 22 23
f 12 23 24
f 12 24 19
f 13 25 26
f 13 26 14
f 14 26 27
f 14 27 15
f 15 27 28
f 15 28 29
f 15 29 16
f 16 30 17
f 16 29 31
f 16 31 30
f 17 30 32
f 17 32 18
f 18 32 33
f 20 34 35
f 20 35 36
f 21 37 38
f 21 38 39
f 21 39 40
f 21 40 22
f 25 41 26
f 26 41 42
f 26 42 27
f 27 42 43
f 27 43 28
f 28 43 29
f 29 43 31
f 30 44 32
f 30 31 45
f 30 45 46
f 30 46 47
f 30 47 44
f 31 43 48
f 31 48 45
f 32 44 33
f 33 44 49
f 34 50 51
f 34 51 35
f 35 52 36
f 35 51 53
f 35 53 52
f 37 54 55
f 37 55 38
f 37 56 54
f 38 55 57
f 38 57 58
f 38 58 83
f 38 83 82
f 38 82 59
f 38 59 42
f 38 42 39
f 39 42 41
f 42 59 43
f 43 59 60
f 43 60 48
f 44 47 61
f 44 61 62
f 44 62 49
f 45 48 63
f 45 63 64
f 45 64 65
f 45 65 66
f 45 66 67
f 45 67 46
f 46 68 61
f 46 61 47
f 46 67 68
f 48 60 63
f 50 69 51
f 51 69 70
f 51 70 71
f 51 71 53
f 52 53 72
f 53 73 72
f 53 71 74
f 53 74 75
f 53 75 76
f 53 76 77
f 53 77 73
f 54 56 73
f 54 73 77
f 54 77 78
f 54 78 55
f 55 78 57
f 56 72 73
f 57 78 79
f 57 79 80
f 57 80 81
f 57 81 82
f 57 82 83
f 57 83 58
f 59 82 81
f 59 81 60
f 60 81 84
f 60 84 85
f 60 85 86
f 60 86 87
f 60 87 63
f 63 87 86
f 63 86 64
f 64 86 88
f 64 88 89
f 64 89 90
f 64 90 91
f 64 91 65
f 65 91 92
f 65 92 93
f 65 93 94
f 65 94 66
f 66 94 95
f 66 95 67
f 67 95 96
f 67 96 68
f 70 97 71
f 71 97 74
f 74 97 98
f 74 98 75
f 75 98 99
f 75 99 100
f 75 100 101
f 75 101 102
f 75 102 76
f 76 102 78
f 76 78 77
f 78 102 79
f 79 102 103
f 79 103 104
f 79 104 84
f 79 84 80
f 80 84 81
f 84 105 85
f 84 104 105
f 85 105 86
f 86 105 106
f 86 106 88
f 88 106 107
f 88 107 108
f 88 108 109
f 88 109 110
f 88 110 89
f 89 111 90
f 89 110 112
f 89 112 113
f 89 113 114
f 89 114 111
f 90 111 115
f 90 115 91
f 91 116 92
f 91 115 116
f 100 117 101
f 101 117 118
f 101 118 119
f 101 119 102
f 102 119 103
f 103 119 120
f 103 120 106
f 103 106 104
f 104 106 105
f 106 120 121
f 106 121 107
f 107 122 123
f 107 123 108
f 107 121 129
f 107 129 122
f 108 123 109
f 109 124 125
f 109 125 110
f 109 123 124
f 110 125 112
f 118 126 119
f 119 126 120
f 120 127 128
f 120 128 121
f 120 126 127
f 121 128 129

