# https://github.com/mikedh/trimesh
v 0.02103099 0.02810493 0.02021560
v 0.02103099 0.02964236 0.02197501
v 0.02103099 0.02810493 0.02974783
v -0.00003593 0.02810493 0.02890624
v -0.00003593 0.02859519 0.02937150
v -0.00003593 0.02904987 0.02980341
v -0.00003593 0.02951781 0.03025597
v -0.00003593 0.02994962 0.03067359
v 0.02103099 0.03030687 0.02285630
v 0.02063506 0.02810493 0.03003048
v 0.02103099 0.02914871 0.02973513
v 0.02052577 0.02917554 0.03009717
v -0.00003593 0.02810493 0.03643453
v -0.00003593 0.03049494 0.03157393
v 0.02103099 0.03033736 0.02290870
v 0.01981020 0.02862569 0.03060689
v 0.01981226 0.02810493 0.03060848
v 0.02103099 0.02956949 0.02966368
v 0.01979370 0.02982536 0.03059419
v -0.00003593 0.02816424 0.03643453
v 0.00090028 0.02810493 0.03643611
v -0.00003593 0.03075222 0.03247110
v 0.02103099 0.03059379 0.02367249
v 0.01907607 0.02917554 0.03103246
v 0.01897503 0.02810493 0.03110391
v 0.01945139 0.02810493 0.03082285
v 0.02103099 0.03033284 0.02926193
v 0.01859353 0.03031675 0.03095147
v 0.01637053 0.03012725 0.03249174
v 0.01735830 0.02910013 0.03203601
v -0.00003593 0.02910013 0.03642341
v 0.00170658 0.02810493 0.03640118
v 0.00270054 0.02910013 0.03634561
v 0.00090028 0.02910013 0.03642341
v -0.00003593 0.03098972 0.03329999
v 0.02103099 0.03069206 0.02418538
v 0.01735418 0.02810493 0.03204078
v 0.02103099 0.03040796 0.02910155
v 0.02069899 0.03039130 0.02937944
v 0.01702217 0.03046444 0.03153106
v 0.01529822 0.03033934 0.03272993
v 0.01907607 0.03058616 0.02987646
v 0.01645920 0.02910013 0.03253779
v 0.01260298 0.03000327 0.03420193
v 0.01529822 0.02910013 0.03306657
v -0.00003593 0.02966721 0.03631861
v 0.00270054 0.02810493 0.03635513
v 0.00450080 0.03009930 0.03606613
v 0.00270054 0.03023484 0.03616617
v 0.00450080 0.02810493 0.03616141
v 0.00450080 0.02910013 0.03614712
v 0.00543289 0.03000694 0.03600420
v 0.00090028 0.03028173 0.03620428
v -0.00003593 0.03077679 0.03509909
v 0.00810131 0.03098972 0.03329999
v 0.02103099 0.03098972 0.02577012
v 0.01645508 0.02810493 0.03253621
v 0.02103099 0.03080983 0.02790109
v 0.02069899 0.03088636 0.02790109
v 0.01529822 0.03083440 0.03149930
v 0.01169976 0.03067767 0.03329999
v 0.00990157 0.03042745 0.03461319
v 0.01169976 0.03018260 0.03434960
v 0.01581788 0.02810493 0.03283315
v 0.01260917 0.02910013 0.03420351
v 0.01351033 0.02910013 0.03382718
v 0.00810131 0.02910013 0.03550242
v 0.00990157 0.02910013 0.03504669
v 0.01169976 0.02910013 0.03450680
v 0.01222149 0.02810493 0.03433690
v 0.01529822 0.02810493 0.03306974
v -0.00003593 0.03028173 0.03620428
v 0.00810131 0.03049494 0.03483074
v 0.00270054 0.03072990 0.03509909
v 0.00554012 0.02810493 0.03602008
v 0.00549475 0.02910013 0.03601214
v 0.00643922 0.02810493 0.03587241
v 0.00639385 0.02910013 0.03585812
v 0.00090028 0.03077679 0.03509909
v -0.00003593 0.03051951 0.03567392
v 0.00990157 0.03092251 0.03329999
v 0.01349796 0.03098633 0.03149930
v 0.01889873 0.03098972 0.02790109
v 0.02103099 0.03098266 0.02610040
v 0.02103099 0.03089823 0.02756922
v 0.01709847 0.03098012 0.02969861
v 0.01260917 0.02810493 0.03420351
v 0.01341135 0.02810493 0.03387005
v 0.00810131 0.02810493 0.03552783
v 0.00890555 0.02810493 0.03532458
v 0.00990157 0.02810493 0.03506575
v 0.01070374 0.02810493 0.03482439
v 0.01179256 0.02810493 0.03447981
f 1 2 9
f 1 9 15
f 1 15 23
f 1 23 36
f 1 36 56
f 1 56 84
f 1 84 85
f 1 85 58
f 1 58 38
f 1 38 27
f 1 27 18
f 1 18 11
f 1 11 3
f 1 3 10
f 1 10 17
f 1 17 26
f 1 26 25
f 1 25 37
f 1 37 57
f 1 57 64
f 1 64 71
f 1 71 88
f 1 88 87
f 1 87 70
f 1 70 93
f 1 93 92
f 1 92 91
f 1 91 90
f 1 90 89
f 1 89 77
f 1 77 75
f 1 75 50
f 1 50 47
f 1 47 32
f 1 32 21
f 1 21 13
f 1 13 4
f 1 4 5
f 1 5 6
f 1 6 7
f 1 7 8
f 1 8 2
f 2 8 9
f 3 11 12
f 3 12 10
f 4 13 20
f 4 20 31
f 4 31 46
f 4 46 72
f 4 72 80
f 4 80 54
f 4 54 35
f 4 35 22
f 4 22 14
f 4 14 8
f 4 8 7
f 4 7 6
f 4 6 5
f 8 14 9
f 9 14 15
f 10 12 16
f 10 16 17
f 11 18 19
f 11 19 12
f 12 19 16
f 13 21 20
f 14 22 23
f 14 23 15
f 16 19 24
f 16 24 25
f 16 25 26
f 16 26 17
f 18 27 19
f 19 27 28
f 19 28 29
f 19 29 30
f 19 30 24
f 20 21 31
f 21 32 33
f 21 33 34
f 21 34 31
f 22 35 23
f 23 35 36
f 24 30 25
f 25 30 37
f 27 38 39
f 27 39 28
f 28 40 41
f 28 41 29
f 28 39 42
f 28 42 40
f 29 43 30
f 29 41 44
f 29 44 45
f 29 45 43
f 30 43 37
f 31 34 46
f 32 47 33
f 33 48 49
f 33 49 34
f 33 47 50
f 33 50 51
f 33 51 52
f 33 52 48
f 34 53 46
f 34 49 53
f 35 54 79
f 35 79 55
f 35 55 83
f 35 83 56
f 35 56 36
f 37 43 57
f 38 58 59
f 38 59 39
f 39 59 42
f 40 42 60
f 40 60 41
f 41 60 61
f 41 61 62
f 41 62 63
f 41 63 44
f 42 59 60
f 43 45 64
f 43 64 57
f 44 65 66
f 44 66 45
f 44 63 52
f 44 52 67
f 44 67 68
f 44 68 69
f 44 69 70
f 44 70 65
f 45 66 71
f 45 71 64
f 46 53 72
f 48 52 62
f 48 62 73
f 48 73 49
f 49 74 53
f 49 73 74
f 50 75 76
f 50 76 51
f 51 76 52
f 52 63 62
f 52 76 77
f 52 77 78
f 52 78 67
f 53 79 80
f 53 80 72
f 53 74 79
f 54 80 79
f 55 79 74
f 55 74 81
f 55 81 82
f 55 82 83
f 56 83 84
f 58 85 59
f 59 85 86
f 59 86 60
f 60 86 82
f 60 82 81
f 60 81 61
f 61 81 62
f 62 81 73
f 65 70 87
f 65 87 88
f 65 88 66
f 66 88 71
f 67 89 90
f 67 90 68
f 67 78 89
f 68 90 91
f 68 91 69
f 69 91 92
f 69 92 93
f 69 93 70
f 73 81 74
f 75 77 76
f 77 89 78
f 82 86 83
f 83 86 84
f 84 86 85

