# https://github.com/mikedh/trimesh
v 0.01230699 -0.00152583 0.01699660
v 0.01890039 -0.00152583 0.01698995
v 0.01230699 -0.00152583 -0.01230254
v 0.01230699 -0.14728851 0.01698995
v 0.01890039 -0.14728851 0.01698995
v 0.02069883 -0.00152583 0.01698329
v 0.01430243 -0.00152583 -0.01631466
v 0.01230699 -0.00173065 -0.01230254
v 0.01230699 -0.14848821 0.01694670
v 0.01890039 -0.14908805 0.01692341
v 0.02069883 -0.14908805 0.01692008
v 0.02069883 -0.14728851 0.01698329
v 0.02249996 -0.00152583 0.01674709
v 0.01431717 -0.00152583 -0.01632131
v 0.01430243 -0.14728851 -0.01631466
v 0.01230699 -0.14728851 -0.01229921
v 0.01230699 -0.14908805 0.01692341
v 0.01230699 -0.14993661 0.01666392
v 0.01890039 -0.15036090 0.01653085
v 0.02069883 -0.15034626 0.01652752
v 0.02249996 -0.15022922 0.01641441
v 0.02249996 -0.14908805 0.01669053
v 0.02249996 -0.14728851 0.01674709
v 0.02363638 -0.00152583 0.01636451
v 0.01530082 -0.00152583 -0.01671055
v 0.01530082 -0.14728851 -0.01671055
v 0.01432923 -0.14908805 -0.01628472
v 0.01230699 -0.14908805 -0.01225596
v 0.01230699 -0.14746408 -0.01229589
v 0.01230699 -0.15036090 0.01653085
v 0.01230699 -0.15068276 0.01571245
v 0.02069883 -0.15084369 0.01529993
v 0.02249996 -0.15072666 0.01529993
v 0.02351041 -0.15008291 0.01626803
v 0.02360958 -0.14908805 0.01633124
v 0.02365246 -0.14728851 0.01635785
v 0.02365246 -0.00152583 0.01635785
v 0.01710060 -0.00152583 -0.01699000
v 0.01710060 -0.14728851 -0.01699000
v 0.01530082 -0.14908805 -0.01664734
v 0.01437078 -0.15003903 -0.01623482
v 0.01230699 -0.14930751 -0.01216947
v 0.01230699 -0.15084369 0.01529993
v 0.02249996 -0.15099000 0.01349680
v 0.02429974 -0.15072666 0.01349680
v 0.02418583 -0.15028775 0.01518682
v 0.02526999 -0.15008291 0.01451148
v 0.02451014 -0.14908805 0.01550952
v 0.02455302 -0.14728851 0.01555277
v 0.02455302 -0.00152583 0.01555277
v 0.01890039 -0.00152583 -0.01699000
v 0.01890039 -0.14728851 -0.01699000
v 0.01710060 -0.14908805 -0.01692347
v 0.01530082 -0.15019996 -0.01639118
v 0.01530082 -0.15055110 -0.01529999
v 0.01230699 -0.15096075 -0.00989726
v 0.01230699 -0.15043405 -0.01172368
v 0.01230699 -0.15099000 0.01349680
v 0.02429974 -0.15084369 0.01169701
v 0.02249996 -0.15099000 -0.01349686
v 0.02552863 -0.15034626 0.01169701
v 0.02541606 -0.15022922 0.01349680
v 0.02569079 -0.14908805 0.01349680
v 0.02533163 -0.14908805 0.01460796
v 0.02535978 -0.14728851 0.01465120
v 0.02535978 -0.00152583 0.01465120
v 0.02069883 -0.00152583 -0.01698335
v 0.02069883 -0.14728851 -0.01698335
v 0.02069883 -0.14908805 -0.01692014
v 0.01890039 -0.14908805 -0.01692347
v 0.01710060 -0.15036090 -0.01653090
v 0.01710060 -0.15084369 -0.01529999
v 0.01710060 -0.15099000 -0.01349686
v 0.01230699 -0.15099000 -0.00809746
v 0.02429974 -0.15084369 -0.01169706
v 0.02552997 -0.15036090 0.00989721
v 0.02069883 -0.15084369 -0.01529999
v 0.02249996 -0.15072666 -0.01529999
v 0.02429974 -0.15072666 -0.01349686
v 0.02592129 -0.14908805 0.01169701
v 0.02598427 -0.14728851 0.01169701
v 0.02574975 -0.14728851 0.01349680
v 0.02574439 -0.00152583 0.01351344
v 0.02072563 -0.00152583 -0.01698002
v 0.02249996 -0.14728851 -0.01674715
v 0.02249996 -0.14908805 -0.01669059
v 0.02249996 -0.15022922 -0.01641446
v 0.02069883 -0.15034626 -0.01652758
v 0.01890039 -0.15036090 -0.01653090
v 0.02552863 -0.15034626 -0.01169706
v 0.02552997 -0.15036090 -0.00989726
v 0.02592531 -0.14908805 0.00989721
v 0.02351041 -0.15008291 -0.01626809
v 0.02418583 -0.15028775 -0.01518688
v 0.02526999 -0.15008291 -0.01451154
v 0.02541606 -0.15022922 -0.01349686
v 0.02598963 -0.14728851 0.00989721
v 0.02599231 -0.00152583 0.00992382
v 0.02598561 -0.00152583 0.01169701
v 0.02598293 -0.00152583 0.01172362
v 0.02574975 -0.00152583 0.01349680
v 0.02249996 -0.00152583 -0.01674715
v 0.02365246 -0.14728851 -0.01635791
v 0.02360958 -0.14908805 -0.01633129
v 0.02251604 -0.00152583 -0.01674382
v 0.02592129 -0.14908805 -0.01169706
v 0.02592531 -0.14908805 -0.00989726
v 0.02451014 -0.14908805 -0.01550957
v 0.02533163 -0.14908805 -0.01460801
v 0.02569079 -0.14908805 -0.01349686
v 0.02598963 -0.14728851 -0.00989726
v 0.02599633 -0.00152583 0.00092482
v 0.02599499 -0.00152583 0.00632422
v 0.02455302 -0.14728851 -0.01555282
v 0.02365246 -0.00152583 -0.01635791
v 0.02366586 -0.00152583 -0.01634793
v 0.02598427 -0.14728851 -0.01169706
v 0.02535978 -0.14728851 -0.01465126
v 0.02574975 -0.14728851 -0.01349686
v 0.02599365 -0.00152583 -0.00989726
v 0.02599499 -0.00152583 -0.00629766
v 0.02599633 -0.00152583 0.00089821
v 0.02455302 -0.00152583 -0.01555282
v 0.02598561 -0.00152583 -0.01169706
v 0.02535978 -0.00152583 -0.01465126
v 0.02574975 -0.00152583 -0.01349686
f 1 2 6
f 1 6 13
f 1 13 24
f 1 24 37
f 1 37 50
f 1 50 66
f 1 66 83
f 1 83 101
f 1 101 100
f 1 100 99
f 1 99 98
f 1 98 113
f 1 113 112
f 1 112 122
f 1 122 121
f 1 121 120
f 1 120 124
f 1 124 126
f 1 126 125
f 1 125 123
f 1 123 116
f 1 116 115
f 1 115 105
f 1 105 102
f 1 102 84
f 1 84 67
f 1 67 51
f 1 51 38
f 1 38 25
f 1 25 14
f 1 14 7
f 1 7 3
f 1 3 8
f 1 8 16
f 1 16 29
f 1 29 28
f 1 28 42
f 1 42 57
f 1 57 56
f 1 56 74
f 1 74 58
f 1 58 43
f 1 43 31
f 1 31 30
f 1 30 18
f 1 18 17
f 1 17 9
f 1 9 4
f 1 4 5
f 1 5 2
f 2 5 12
f 2 12 6
f 3 7 15
f 3 15 8
f 4 9 5
f 5 9 10
f 5 10 11
f 5 11 12
f 6 12 23
f 6 23 13
f 7 14 15
f 8 15 16
f 9 17 10
f 10 17 18
f 10 18 19
f 10 19 11
f 11 19 20
f 11 20 21
f 11 21 22
f 11 22 12
f 12 22 23
f 13 23 24
f 14 25 26
f 14 26 15
f 15 26 27
f 15 27 28
f 15 28 29
f 15 29 16
f 18 30 19
f 19 30 31
f 19 31 32
f 19 32 20
f 20 32 33
f 20 33 21
f 21 34 22
f 21 33 34
f 22 34 35
f 22 35 23
f 23 35 36
f 23 36 24
f 24 36 37
f 25 38 39
f 25 39 26
f 26 39 40
f 26 40 27
f 27 40 41
f 27 41 28
f 28 41 42
f 31 43 32
f 32 43 58
f 32 58 44
f 32 44 33
f 33 44 45
f 33 45 46
f 33 46 34
f 34 46 47
f 34 47 48
f 34 48 35
f 35 48 49
f 35 49 36
f 36 49 50
f 36 50 37
f 38 51 52
f 38 52 39
f 39 52 70
f 39 70 53
f 39 53 40
f 40 53 54
f 40 54 41
f 41 54 55
f 41 55 56
f 41 56 57
f 41 57 42
f 44 59 45
f 44 58 74
f 44 74 73
f 44 73 60
f 44 60 75
f 44 75 59
f 45 59 61
f 45 61 62
f 45 62 47
f 45 47 46
f 47 62 63
f 47 63 64
f 47 64 48
f 48 64 49
f 49 64 65
f 49 65 66
f 49 66 50
f 51 67 68
f 51 68 52
f 52 68 69
f 52 69 70
f 53 70 89
f 53 89 71
f 53 71 54
f 54 71 72
f 54 72 55
f 55 72 56
f 56 72 73
f 56 73 74
f 59 75 91
f 59 91 76
f 59 76 61
f 60 77 78
f 60 78 79
f 60 79 75
f 60 73 72
f 60 72 77
f 61 80 62
f 61 76 80
f 62 80 63
f 63 80 81
f 63 81 82
f 63 82 64
f 64 82 65
f 65 82 83
f 65 83 66
f 67 84 68
f 68 85 86
f 68 86 69
f 68 84 85
f 69 86 87
f 69 87 88
f 69 88 89
f 69 89 70
f 71 89 77
f 71 77 72
f 75 79 90
f 75 90 91
f 76 91 107
f 76 107 92
f 76 92 80
f 77 89 88
f 77 88 78
f 78 88 87
f 78 87 93
f 78 93 94
f 78 94 79
f 79 94 95
f 79 95 96
f 79 96 90
f 80 92 97
f 80 97 81
f 81 97 98
f 81 98 99
f 81 99 100
f 81 100 82
f 82 100 101
f 82 101 83
f 84 102 85
f 85 103 104
f 85 104 86
f 85 102 105
f 85 105 103
f 86 104 93
f 86 93 87
f 90 96 106
f 90 106 91
f 91 106 107
f 92 107 111
f 92 111 97
f 93 104 108
f 93 108 95
f 93 95 94
f 95 108 109
f 95 109 110
f 95 110 96
f 96 110 106
f 97 111 122
f 97 122 112
f 97 112 113
f 97 113 98
f 103 114 104
f 103 105 115
f 103 115 116
f 103 116 114
f 104 114 108
f 106 110 117
f 106 117 111
f 106 111 107
f 108 114 109
f 109 114 118
f 109 118 119
f 109 119 110
f 110 119 117
f 111 117 120
f 111 120 121
f 111 121 122
f 114 116 123
f 114 123 125
f 114 125 118
f 117 119 124
f 117 124 120
f 118 125 126
f 118 126 119
f 119 126 124

