# https://github.com/mikedh/trimesh
v 0.03643262 0.02910002 0.00089912
v 0.03618500 0.03025751 0.00180079
v 0.03638369 0.02910002 0.00180079
v 0.03638962 0.02819947 0.00180079
v 0.03641038 0.02815225 0.00137244
v 0.03643262 0.02815225 0.00089912
v 0.03642224 0.02815225 -0.00090208
v 0.03641334 0.02910002 -0.00090208
v 0.03619983 0.03027612 -0.00090208
v 0.03621021 0.03028723 0.00089912
v 0.03565418 0.03050529 0.00180079
v 0.03638962 0.02815225 0.00180079
v 0.03638665 0.02815225 -0.00175235
v 0.03634069 0.02910002 -0.00270114
v 0.03617017 0.03024196 -0.00270114
v 0.03509964 0.03073695 -0.00270114
v 0.03509964 0.03077111 -0.00090208
v 0.03509964 0.03078223 0.00089912
v 0.03509964 0.03075251 0.00180079
v 0.02894182 0.02815225 0.00180079
v 0.03634069 0.02815225 -0.00270114
v 0.03616276 0.02910002 -0.00450020
v 0.03600411 0.03000779 -0.00542972
v 0.03608121 0.03011807 -0.00450020
v 0.03482236 0.03049473 -0.00810047
v 0.03329959 0.03091667 -0.00989953
v 0.03329959 0.03098972 -0.00810047
v 0.03329959 0.03098972 0.00180079
v 0.03419813 0.03088612 0.00180079
v 0.02945040 0.02872252 0.00180079
v 0.02128645 0.02815225 -0.02007921
v 0.03625617 0.02815225 -0.00355356
v 0.03616128 0.02815225 -0.00450020
v 0.03601893 0.02815225 -0.00551539
v 0.03601300 0.02910002 -0.00548540
v 0.03585435 0.02815225 -0.00641706
v 0.03569125 0.02815225 -0.00722878
v 0.03548959 0.02910002 -0.00810047
v 0.03504922 0.02910002 -0.00989953
v 0.03420406 0.03000723 -0.01261097
v 0.03434641 0.03017973 -0.01169859
v 0.03461626 0.03042168 -0.00989953
v 0.03329959 0.03067500 -0.01169859
v 0.03149955 0.03081612 -0.01529885
v 0.03149955 0.03098640 -0.01349979
v 0.02790094 0.03098972 -0.01889911
v 0.03225574 0.03069224 0.00180079
v 0.02610090 0.03094029 -0.02007921
v 0.02430234 0.03052473 -0.02007921
v 0.03062325 0.02998251 0.00180079
v 0.02297825 0.02972724 -0.02007921
v 0.03040380 0.02815225 -0.02007921
v 0.03551184 0.02815225 -0.00810047
v 0.03530425 0.02815225 -0.00895288
v 0.03505812 0.02815225 -0.00989953
v 0.03480012 0.02815225 -0.01075194
v 0.03450357 0.02910002 -0.01169859
v 0.03420999 0.02910002 -0.01262596
v 0.03383634 0.02910002 -0.01352549
v 0.03305494 0.02910002 -0.01529885
v 0.03247371 0.03010307 -0.01635258
v 0.03271984 0.03032112 -0.01529885
v 0.03333073 0.03039751 -0.01332631
v 0.03154106 0.03045223 -0.01701224
v 0.02986705 0.03058834 -0.01906617
v 0.02969950 0.03098306 -0.01709791
v 0.02790094 0.03093029 -0.02007921
v 0.03144469 0.03045945 0.00180079
v 0.02367959 0.03017557 -0.02007921
v 0.03040084 0.02837085 -0.02007921
v 0.03052836 0.02815225 -0.01989288
v 0.03447837 0.02815225 -0.01178426
v 0.03407358 0.02815225 -0.01295150
v 0.03432565 0.02815225 -0.01226615
v 0.03420851 0.02815225 -0.01262382
v 0.03387341 0.02815225 -0.01343339
v 0.03306532 0.02815225 -0.01529885
v 0.03252560 0.02815225 -0.01645325
v 0.03251819 0.02910002 -0.01644254
v 0.03205706 0.02910002 -0.01734207
v 0.03115704 0.02910002 -0.01887984
v 0.03058173 0.02910002 -0.01977937
v 0.03096873 0.03032085 -0.01857785
v 0.02956309 0.03047417 -0.02007921
v 0.03039935 0.02845085 -0.02007921
v 0.03059508 0.02815225 -0.01979222
v 0.03230764 0.02815225 -0.01687945
v 0.03206002 0.02815225 -0.01735492
v 0.03163448 0.02815225 -0.01808097
v 0.03110069 0.02815225 -0.01898692
v 0.03038305 0.02910002 -0.02007921
v 0.03019029 0.02952418 -0.02007921
f 1 2 3
f 1 3 4
f 1 4 5
f 1 5 6
f 1 6 7
f 1 7 8
f 1 8 9
f 1 9 10
f 1 10 2
f 2 10 11
f 2 11 19
f 2 19 29
f 2 29 28
f 2 28 47
f 2 47 68
f 2 68 50
f 2 50 30
f 2 30 20
f 2 20 12
f 2 12 4
f 2 4 3
f 4 12 5
f 5 12 20
f 5 20 31
f 5 31 52
f 5 52 71
f 5 71 86
f 5 86 90
f 5 90 89
f 5 89 88
f 5 88 87
f 5 87 78
f 5 78 77
f 5 77 76
f 5 76 73
f 5 73 75
f 5 75 74
f 5 74 72
f 5 72 56
f 5 56 55
f 5 55 54
f 5 54 53
f 5 53 37
f 5 37 36
f 5 36 34
f 5 34 33
f 5 33 32
f 5 32 21
f 5 21 13
f 5 13 7
f 5 7 6
f 7 13 14
f 7 14 8
f 8 14 15
f 8 15 9
f 9 15 16
f 9 16 17
f 9 17 10
f 10 17 18
f 10 18 19
f 10 19 11
f 13 21 14
f 14 21 22
f 14 22 23
f 14 23 24
f 14 24 15
f 15 24 25
f 15 25 16
f 16 25 26
f 16 26 27
f 16 27 17
f 17 27 18
f 18 28 29
f 18 29 19
f 18 27 28
f 20 30 31
f 21 32 22
f 22 32 33
f 22 33 34
f 22 34 35
f 22 35 23
f 23 35 36
f 23 36 37
f 23 37 38
f 23 38 39
f 23 39 40
f 23 40 41
f 23 41 42
f 23 42 24
f 24 42 25
f 25 42 26
f 26 42 43
f 26 43 44
f 26 44 45
f 26 45 27
f 27 45 46
f 27 46 28
f 28 46 48
f 28 48 49
f 28 49 47
f 30 50 31
f 31 50 51
f 31 51 69
f 31 69 49
f 31 49 48
f 31 48 67
f 31 67 84
f 31 84 92
f 31 92 91
f 31 91 85
f 31 85 70
f 31 70 52
f 34 36 35
f 37 53 38
f 38 53 54
f 38 54 39
f 39 54 55
f 39 55 56
f 39 56 57
f 39 57 40
f 40 58 59
f 40 59 60
f 40 60 61
f 40 61 62
f 40 62 41
f 40 57 58
f 41 62 42
f 42 62 63
f 42 63 43
f 43 63 44
f 44 62 64
f 44 64 65
f 44 65 66
f 44 66 45
f 44 63 62
f 45 66 46
f 46 66 67
f 46 67 48
f 47 49 68
f 49 69 68
f 50 68 69
f 50 69 51
f 52 70 71
f 56 72 57
f 57 72 58
f 58 73 76
f 58 76 59
f 58 72 74
f 58 74 75
f 58 75 73
f 59 76 77
f 59 77 60
f 60 77 78
f 60 78 79
f 60 79 61
f 61 79 80
f 61 80 81
f 61 81 82
f 61 82 83
f 61 83 62
f 62 83 64
f 64 83 65
f 65 83 84
f 65 84 67
f 65 67 66
f 70 85 86
f 70 86 71
f 78 87 79
f 79 87 80
f 80 87 88
f 80 88 81
f 81 89 90
f 81 90 86
f 81 86 82
f 81 88 89
f 82 86 85
f 82 85 91
f 82 91 83
f 83 91 92
f 83 92 84

