# https://github.com/mikedh/trimesh
v -0.01599295 -0.00149908 0.01699000
v -0.01890058 -0.00149908 0.01699000
v -0.01599295 -0.00152461 0.01699000
v -0.01599295 0.00010656 0.01659419
v -0.01890058 0.00010048 0.01659419
v -0.02070102 0.00009805 0.01659086
v -0.02070102 -0.00149908 0.01698335
v -0.01890058 -0.00152461 0.01699000
v -0.01599295 -0.00152461 -0.01681704
v -0.01599295 0.01089026 0.01326138
v -0.02250003 -0.00006239 0.01647445
v -0.02776957 0.01089026 0.01263939
v -0.02250003 -0.00149908 0.01674719
v -0.02072680 -0.00152461 0.01698002
v -0.02070102 -0.00152461 0.01698335
v -0.01710014 -0.00152461 -0.01699000
v -0.01599295 -0.00149908 -0.01681704
v -0.01599295 0.01089026 -0.01324142
v -0.02356854 -0.00034681 0.01630481
v -0.02810760 0.01089026 0.01257619
v -0.02250003 -0.00152461 0.01674719
v -0.02251721 -0.00152461 0.01674387
v -0.01890058 -0.00152461 -0.01699000
v -0.01710014 -0.00149908 -0.01699000
v -0.01599295 -0.00003444 -0.01650771
v -0.01710014 0.00010048 -0.01659419
v -0.01890058 0.00010048 -0.01659419
v -0.02070102 0.00009805 -0.01659086
v -0.02782829 0.01089026 -0.01263939
v -0.02365305 -0.00149908 0.01635803
v -0.02842701 0.01057302 0.01249636
v -0.02884954 0.01089026 0.01211718
v -0.02365305 -0.00152461 0.01635803
v -0.01890058 -0.00149908 -0.01699000
v -0.02070102 -0.00152461 -0.01698335
v -0.02070102 -0.00149908 -0.01698335
v -0.02250003 -0.00006239 -0.01647445
v -0.02861178 0.01089026 -0.01256621
v -0.02366594 -0.00152461 0.01634805
v -0.02455256 -0.00152461 0.01555310
v -0.02915320 0.01089026 0.01173135
v -0.02535896 -0.00152461 0.01465171
v -0.02250003 -0.00152461 -0.01674719
v -0.02250003 -0.00149908 -0.01674719
v -0.02356854 -0.00034681 -0.01630481
v -0.02896843 0.01089026 -0.01208060
v -0.02365305 -0.00149908 -0.01635803
v -0.02365305 -0.00152461 -0.01635803
v -0.02455256 -0.00152461 -0.01555310
v -0.02534750 -0.00152461 -0.01466502
v -0.02535896 -0.00152461 -0.01465171
v -0.02978342 0.01089026 0.00991194
v -0.02536469 -0.00152461 0.01463508
v -0.02363586 -0.00152461 -0.01636468
v -0.02918614 0.01089026 -0.01177126
v -0.02574998 -0.00152461 -0.01349754
v -0.02980777 0.01089026 -0.01005164
v -0.03008278 0.01089026 0.00797279
v -0.02574998 -0.00152461 0.01349754
v -0.02598345 -0.00152461 -0.01172470
v -0.03007275 0.01089026 -0.00835198
v -0.02984215 0.01089026 -0.00989864
v -0.02598632 -0.00152461 0.01169809
v -0.03028330 0.01089026 0.00629974
v -0.02598632 -0.00152461 -0.01169809
v -0.03031338 0.01089026 -0.00631304
v -0.03011572 0.01089026 -0.00801936
v -0.03045089 0.01089026 0.00449696
v -0.03047667 0.01089026 0.00411445
v -0.03056404 0.01089026 0.00269751
v -0.03058553 0.01089026 0.00204226
v -0.03061990 0.01089026 0.00089806
v -0.02599348 -0.00152461 0.00989864
v -0.02599348 -0.00152461 -0.00992525
v -0.03062563 0.01089026 -0.00089806
v -0.03058266 0.01089026 -0.00269751
v -0.03047810 0.01089026 -0.00449696
v -0.03032484 0.01089026 -0.00619330
v -0.03031482 0.01089026 -0.00629974
v -0.02599491 -0.00152461 0.00629974
v -0.02599491 -0.00152461 -0.00632302
f 1 2 8
f 1 8 3
f 1 3 9
f 1 9 17
f 1 17 25
f 1 25 18
f 1 18 10
f 1 10 4
f 1 4 2
f 2 4 5
f 2 5 6
f 2 6 7
f 2 7 15
f 2 15 8
f 3 8 15
f 3 15 14
f 3 14 21
f 3 21 22
f 3 22 33
f 3 33 39
f 3 39 40
f 3 40 42
f 3 42 53
f 3 53 59
f 3 59 63
f 3 63 73
f 3 73 80
f 3 80 81
f 3 81 74
f 3 74 65
f 3 65 60
f 3 60 56
f 3 56 51
f 3 51 50
f 3 50 49
f 3 49 48
f 3 48 54
f 3 54 43
f 3 43 35
f 3 35 23
f 3 23 16
f 3 16 9
f 4 10 5
f 5 10 6
f 6 11 7
f 6 10 12
f 6 12 11
f 7 11 13
f 7 13 14
f 7 14 15
f 9 16 24
f 9 24 17
f 10 18 29
f 10 29 38
f 10 38 46
f 10 46 55
f 10 55 57
f 10 57 62
f 10 62 61
f 10 61 67
f 10 67 66
f 10 66 79
f 10 79 78
f 10 78 77
f 10 77 76
f 10 76 75
f 10 75 72
f 10 72 71
f 10 71 70
f 10 70 69
f 10 69 68
f 10 68 64
f 10 64 58
f 10 58 52
f 10 52 41
f 10 41 32
f 10 32 20
f 10 20 12
f 11 19 13
f 11 12 20
f 11 20 19
f 13 21 14
f 13 19 22
f 13 22 21
f 16 23 34
f 16 34 24
f 17 24 25
f 18 25 26
f 18 26 27
f 18 27 28
f 18 28 29
f 19 30 22
f 19 20 31
f 19 31 30
f 20 32 31
f 22 30 33
f 23 35 36
f 23 36 34
f 24 34 27
f 24 27 26
f 24 26 25
f 27 34 28
f 28 34 36
f 28 36 37
f 28 37 29
f 29 37 38
f 30 39 33
f 30 31 39
f 31 32 40
f 31 40 39
f 32 41 42
f 32 42 40
f 35 43 44
f 35 44 36
f 36 44 37
f 37 44 45
f 37 45 38
f 38 45 47
f 38 47 48
f 38 48 49
f 38 49 50
f 38 50 51
f 38 51 46
f 41 52 42
f 42 52 53
f 43 54 44
f 44 54 47
f 44 47 45
f 46 51 55
f 47 54 48
f 51 56 57
f 51 57 55
f 52 58 59
f 52 59 53
f 56 60 61
f 56 61 62
f 56 62 57
f 58 63 59
f 58 64 63
f 60 65 79
f 60 79 66
f 60 66 67
f 60 67 61
f 63 64 68
f 63 68 69
f 63 69 70
f 63 70 71
f 63 71 72
f 63 72 73
f 65 74 75
f 65 75 76
f 65 76 77
f 65 77 78
f 65 78 79
f 72 75 73
f 73 75 80
f 74 81 75
f 75 81 80

