# https://github.com/mikedh/trimesh
v -0.00091202 0.00210887 -0.01888973
v -0.00089941 0.00209997 -0.01888603
v -0.00271097 0.00210887 -0.01887865
v 0.00090375 0.00210887 -0.01888973
v -0.00629626 -0.00152547 -0.01702249
v -0.00809942 -0.00152547 -0.01701511
v 0.00092897 -0.00152547 -0.01702249
v -0.00451412 0.00210887 -0.01886020
v 0.00270270 0.00210887 -0.01887496
v 0.02069642 -0.00152547 -0.01698190
v 0.01892269 -0.00152547 -0.01698928
v 0.00809956 -0.00152547 -0.01701511
v 0.00632582 -0.00152547 -0.01701880
v -0.00809942 0.00210887 -0.01879009
v -0.00631308 0.00210887 -0.01883437
v -0.01599295 -0.00152547 -0.01681584
v 0.00450165 0.00210887 -0.01885282
v 0.00809956 0.00210887 -0.01878640
v 0.02249958 -0.00152547 -0.01674941
v 0.00629640 0.00210887 -0.01882699
v -0.00977228 0.00210887 -0.01840262
v -0.01599295 -0.00152547 0.01698999
v -0.01599295 -0.00149986 -0.01681584
v 0.00977241 0.00210887 -0.01840262
v 0.02249958 -0.00006284 -0.01647265
v 0.02249958 -0.00149986 -0.01674941
v 0.02365124 -0.00152547 -0.01635825
v -0.01599295 -0.00003545 -0.01650586
v -0.00979750 0.00210887 -0.01838786
v -0.00989837 0.00210887 0.01856201
v -0.00998664 0.00210887 0.01854356
v -0.01599295 -0.00149986 0.01698999
v -0.00632569 -0.00152547 0.01701213
v -0.00449731 0.00209997 0.01879818
v -0.00449731 0.00210887 0.01880187
v -0.00629626 0.00210887 0.01874283
v -0.00793129 0.00210887 0.01866903
v 0.02429012 0.00210887 -0.01327325
v 0.02542078 0.00210887 -0.01285257
v 0.02356718 -0.00034676 -0.01630659
v 0.02365124 -0.00149986 -0.01635825
v 0.02366385 -0.00152547 -0.01634718
v -0.01599295 0.00210887 -0.01372715
v -0.01058349 0.00210887 -0.01790075
v -0.01169732 0.00210887 0.01810074
v -0.01599295 -0.00050935 0.01674644
v -0.00449731 -0.00152547 0.01701213
v 0.00450165 -0.00152547 0.01700844
v 0.01889747 -0.00152547 0.01698999
v 0.02069642 -0.00152547 0.01698261
v 0.00451426 0.00210887 0.01865796
v 0.02547541 0.00210887 -0.01278615
v 0.02542918 0.00209997 -0.01285257
v 0.02530309 -0.00034676 -0.01456851
v 0.02455072 -0.00149986 -0.01555010
v 0.02456333 -0.00152547 -0.01553903
v -0.01599295 0.00210887 0.01394189
v -0.01302972 0.00210887 0.01714867
v -0.01599295 0.00010651 0.01659145
v 0.02249958 -0.00152547 0.01674644
v 0.00989851 0.00210887 0.01841810
v 0.00809956 0.00210887 0.01852142
v 0.00626277 0.00210887 0.01861737
v 0.02630344 0.00210887 -0.01153887
v 0.02535773 -0.00149986 -0.01464970
v 0.02535773 -0.00152547 -0.01464970
v -0.01599295 0.00072985 0.01580913
v -0.01312640 0.00210887 0.01706380
v 0.02365124 -0.00152547 0.01635897
v 0.02249958 -0.00149986 0.01674644
v 0.01169746 0.00210887 0.01800110
v 0.02249958 -0.00006284 0.01647337
v 0.02672796 0.00210887 -0.00989673
v 0.02574862 -0.00152547 -0.01349836
v 0.02574862 -0.00149986 -0.01349836
v 0.02365124 -0.00149986 0.01635897
v 0.02455072 -0.00152547 0.01555082
v 0.02356718 -0.00034676 0.01630362
v 0.02429853 0.00210887 0.01326659
v 0.02541657 0.00210887 0.01284222
v 0.02674057 0.00210887 -0.00968270
v 0.02598400 -0.00152547 -0.01169755
v 0.02575282 -0.00152547 -0.01347253
v 0.02455072 -0.00149986 0.01555082
v 0.02534512 -0.00152547 0.01466517
v 0.02530309 -0.00034676 0.01456554
v 0.02613111 0.00210887 0.01169826
v 0.02681202 0.00210887 -0.00809961
v 0.02599240 -0.00152547 -0.00989673
v 0.02683303 0.00210887 -0.00762726
v 0.02687086 0.00210887 -0.00629880
v 0.02688768 0.00210887 -0.00566408
v 0.02691289 0.00210887 -0.00449798
v 0.02693391 0.00210887 -0.00269717
v 0.02693811 0.00210887 -0.00192223
v 0.02535773 -0.00149986 0.01465041
v 0.02535773 -0.00152547 0.01465041
v 0.02613531 0.00210887 0.01168719
v 0.02694232 0.00210887 -0.00089636
v 0.02694652 0.00210887 0.00089707
v 0.02599240 -0.00152547 0.00992328
v 0.02574442 -0.00152547 0.01351383
v 0.02574862 -0.00149986 0.01349907
v 0.02669013 0.00210887 0.01004874
v 0.02692971 0.00210887 0.00269789
v 0.02598400 -0.00152547 0.01169826
v 0.02574862 -0.00152547 0.01349907
v 0.02669853 0.00210887 0.00992328
v 0.02690029 0.00210887 0.00449870
v 0.02684565 0.00210887 0.00629951
v 0.02677839 0.00210887 0.00809663
v 0.02676999 0.00210887 0.00829590
f 1 2 3
f 1 3 8
f 1 8 15
f 1 15 14
f 1 14 21
f 1 21 29
f 1 29 44
f 1 44 43
f 1 43 57
f 1 57 68
f 1 68 58
f 1 58 45
f 1 45 31
f 1 31 30
f 1 30 37
f 1 37 36
f 1 36 35
f 1 35 51
f 1 51 63
f 1 63 62
f 1 62 61
f 1 61 71
f 1 71 79
f 1 79 80
f 1 80 87
f 1 87 98
f 1 98 104
f 1 104 108
f 1 108 112
f 1 112 111
f 1 111 110
f 1 110 109
f 1 109 105
f 1 105 100
f 1 100 99
f 1 99 95
f 1 95 94
f 1 94 93
f 1 93 92
f 1 92 91
f 1 91 90
f 1 90 88
f 1 88 81
f 1 81 73
f 1 73 64
f 1 64 52
f 1 52 39
f 1 39 38
f 1 38 24
f 1 24 18
f 1 18 20
f 1 20 17
f 1 17 9
f 1 9 4
f 1 4 2
f 2 5 6
f 2 6 3
f 2 4 7
f 2 7 5
f 3 6 8
f 4 9 10
f 4 10 11
f 4 11 12
f 4 12 13
f 4 13 7
f 5 7 13
f 5 13 12
f 5 12 11
f 5 11 10
f 5 10 19
f 5 19 27
f 5 27 42
f 5 42 56
f 5 56 66
f 5 66 74
f 5 74 83
f 5 83 82
f 5 82 89
f 5 89 101
f 5 101 106
f 5 106 107
f 5 107 102
f 5 102 97
f 5 97 85
f 5 85 77
f 5 77 69
f 5 69 60
f 5 60 50
f 5 50 49
f 5 49 48
f 5 48 47
f 5 47 33
f 5 33 22
f 5 22 16
f 5 16 6
f 6 14 15
f 6 15 8
f 6 16 14
f 9 17 10
f 10 18 19
f 10 17 20
f 10 20 18
f 14 16 21
f 16 22 32
f 16 32 46
f 16 46 59
f 16 59 67
f 16 67 57
f 16 57 43
f 16 43 28
f 16 28 23
f 16 23 21
f 18 24 25
f 18 25 26
f 18 26 19
f 19 26 41
f 19 41 27
f 21 23 28
f 21 28 29
f 22 30 31
f 22 31 32
f 22 33 34
f 22 34 35
f 22 35 36
f 22 36 37
f 22 37 30
f 24 38 25
f 25 38 39
f 25 39 40
f 25 40 26
f 26 40 41
f 27 41 42
f 28 43 44
f 28 44 29
f 31 45 32
f 32 45 46
f 33 47 34
f 34 47 48
f 34 48 49
f 34 49 50
f 34 50 35
f 35 50 51
f 39 52 53
f 39 53 40
f 40 53 54
f 40 54 55
f 40 55 41
f 41 55 56
f 41 56 42
f 45 58 59
f 45 59 46
f 50 60 61
f 50 61 62
f 50 62 63
f 50 63 51
f 52 54 53
f 52 64 54
f 54 65 55
f 54 64 65
f 55 65 56
f 56 65 66
f 57 67 68
f 58 68 59
f 59 68 67
f 60 69 76
f 60 76 70
f 60 70 61
f 61 70 72
f 61 72 71
f 64 73 74
f 64 74 75
f 64 75 65
f 65 75 74
f 65 74 66
f 69 77 84
f 69 84 76
f 70 76 78
f 70 78 72
f 71 72 79
f 72 78 80
f 72 80 79
f 73 81 82
f 73 82 83
f 73 83 74
f 76 84 78
f 77 85 84
f 78 84 86
f 78 86 80
f 80 86 87
f 81 88 82
f 82 88 90
f 82 90 91
f 82 91 92
f 82 92 93
f 82 93 94
f 82 94 95
f 82 95 89
f 84 85 96
f 84 96 86
f 85 97 96
f 86 96 98
f 86 98 87
f 89 95 99
f 89 99 100
f 89 100 101
f 96 102 103
f 96 103 98
f 96 97 102
f 98 103 104
f 100 105 106
f 100 106 101
f 102 107 103
f 103 107 104
f 104 107 106
f 104 106 108
f 105 109 106
f 106 109 110
f 106 110 111
f 106 111 112
f 106 112 108

