# https://github.com/mikedh/trimesh
v 0.00450071 -0.00152583 0.01700859
v 0.00989926 -0.00152583 0.01700193
v 0.00270002 -0.00152583 0.01666547
v 0.00270002 -0.14728851 0.01665881
v 0.00450071 -0.14728851 0.01698860
v 0.01230565 -0.14728851 0.01698860
v 0.01230565 -0.00152583 0.01699527
v 0.00174871 -0.00152583 0.01626238
v 0.00174754 -0.00331073 0.01626238
v 0.00174754 -0.14728851 0.01626238
v 0.00177214 -0.14908805 0.01623240
v 0.00270002 -0.14908805 0.01659551
v 0.00450071 -0.14908805 0.01692531
v 0.01230565 -0.14908805 0.01692531
v 0.01230565 -0.00152583 -0.01230356
v 0.00033698 -0.00152583 0.01228147
v 0.00033698 -0.00511027 0.01229813
v 0.00033698 -0.14736167 0.01229813
v 0.00033698 -0.14908805 0.01225482
v 0.00179792 -0.14999513 0.01620242
v 0.00270002 -0.15017070 0.01636565
v 0.00450071 -0.15036090 0.01652889
v 0.01230565 -0.14993661 0.01666214
v 0.01230565 -0.00173065 -0.01230356
v 0.01080722 -0.00152583 -0.01620785
v 0.00033698 -0.00152583 -0.01702402
v 0.00033698 -0.14924899 0.01219486
v 0.00270002 -0.15049257 0.01529963
v 0.00033698 -0.15043405 0.01172514
v 0.00033698 -0.15096075 0.00989959
v 0.00450071 -0.15084369 0.01529963
v 0.01230565 -0.15036090 0.01652889
v 0.01230565 -0.15068276 0.01571272
v 0.01230565 -0.14728851 -0.01230023
v 0.01080722 -0.14728851 -0.01620785
v 0.00989926 -0.00152583 -0.01661427
v 0.00632483 -0.00152583 -0.01702069
v 0.00809974 -0.14728851 -0.01698738
v 0.00033698 -0.14728851 -0.01698738
v 0.00033698 -0.15099000 0.00809735
v 0.00450071 -0.15099000 0.01349740
v 0.01230565 -0.15084369 0.01529963
v 0.01230565 -0.14746408 -0.01229690
v 0.01080488 -0.14828338 -0.01620452
v 0.00989926 -0.14728851 -0.01660095
v 0.00809974 -0.00152583 -0.01701736
v 0.00809974 -0.14908805 -0.01692408
v 0.00033698 -0.14853210 -0.01694407
v 0.00033698 -0.15099000 -0.01349950
v 0.01230565 -0.15099000 0.01349740
v 0.01230565 -0.14908805 -0.01225692
v 0.01073576 -0.14948307 -0.01592469
v 0.01004102 -0.14897101 -0.01649101
v 0.00953608 -0.15022922 -0.01641772
v 0.00809974 -0.15036090 -0.01653099
v 0.00033698 -0.14996588 -0.01665425
v 0.00033698 -0.14908805 -0.01692408
v 0.00809974 -0.15099000 -0.01349950
v 0.00033698 -0.15094611 -0.01406249
v 0.01230565 -0.15099000 -0.00809946
v 0.01230565 -0.14930751 -0.01217031
v 0.01230565 -0.15043405 -0.01172391
v 0.01004102 -0.15036090 -0.01531506
v 0.00809974 -0.15084369 -0.01529841
v 0.00033698 -0.15036090 -0.01653099
v 0.00033698 -0.15069740 -0.01568484
v 0.01230565 -0.15096075 -0.00989836
v 0.00033698 -0.15084369 -0.01529841
f 1 2 7
f 1 7 15
f 1 15 25
f 1 25 36
f 1 36 46
f 1 46 37
f 1 37 26
f 1 26 16
f 1 16 8
f 1 8 3
f 1 3 4
f 1 4 5
f 1 5 6
f 1 6 2
f 2 6 7
f 3 8 9
f 3 9 10
f 3 10 4
f 4 10 11
f 4 11 12
f 4 12 13
f 4 13 5
f 5 13 14
f 5 14 6
f 6 14 23
f 6 23 32
f 6 32 33
f 6 33 42
f 6 42 50
f 6 50 60
f 6 60 67
f 6 67 62
f 6 62 61
f 6 61 51
f 6 51 43
f 6 43 34
f 6 34 24
f 6 24 15
f 6 15 7
f 8 16 17
f 8 17 9
f 9 17 18
f 9 18 10
f 10 18 19
f 10 19 11
f 11 19 20
f 11 20 12
f 12 20 21
f 12 21 13
f 13 21 22
f 13 22 23
f 13 23 14
f 15 24 35
f 15 35 25
f 16 26 39
f 16 39 48
f 16 48 57
f 16 57 56
f 16 56 65
f 16 65 66
f 16 66 68
f 16 68 59
f 16 59 49
f 16 49 40
f 16 40 30
f 16 30 29
f 16 29 27
f 16 27 19
f 16 19 18
f 16 18 17
f 19 27 20
f 20 28 21
f 20 27 29
f 20 29 30
f 20 30 28
f 21 28 31
f 21 31 22
f 22 32 23
f 22 31 33
f 22 33 32
f 24 34 35
f 25 35 36
f 26 37 38
f 26 38 39
f 28 30 31
f 30 40 41
f 30 41 31
f 31 42 33
f 31 41 50
f 31 50 42
f 34 43 44
f 34 44 35
f 35 44 45
f 35 45 36
f 36 45 46
f 37 46 38
f 38 46 45
f 38 45 47
f 38 47 48
f 38 48 39
f 40 49 58
f 40 58 60
f 40 60 50
f 40 50 41
f 43 51 44
f 44 51 52
f 44 52 53
f 44 53 45
f 45 53 47
f 47 53 54
f 47 54 55
f 47 55 56
f 47 56 57
f 47 57 48
f 49 59 58
f 51 61 52
f 52 61 62
f 52 62 54
f 52 54 53
f 54 62 63
f 54 63 64
f 54 64 55
f 55 65 56
f 55 64 66
f 55 66 65
f 58 59 64
f 58 64 67
f 58 67 60
f 59 68 64
f 62 67 63
f 63 67 64
f 64 68 66

