# https://github.com/mikedh/trimesh
v -0.02148109 0.02815613 -0.01994118
v -0.02148402 0.02815225 -0.01993337
v -0.02149133 0.02815225 -0.01994118
v -0.02228014 0.02900363 -0.01994118
v -0.02895210 0.02815225 0.00001104
v -0.03049460 0.02815225 -0.01994118
v -0.02325335 0.02986835 -0.01994118
v -0.03067315 0.02994946 0.00001104
v -0.02980385 0.02904974 0.00001104
v -0.02934870 0.02857058 0.00001104
v -0.03643044 0.02815225 0.00001104
v -0.03059412 0.02815225 -0.01979275
v -0.03047558 0.02910002 -0.01994118
v -0.02339970 0.02999557 -0.01994118
v -0.03157318 0.03049473 0.00001104
v -0.03643044 0.02821113 0.00001104
v -0.03643044 0.02815225 -0.00004950
v -0.03065705 0.02815225 -0.01969510
v -0.03058095 0.02910002 -0.01977908
v -0.02960481 0.03048973 -0.01994118
v -0.03096877 0.03032085 -0.01857796
v -0.02434803 0.03050445 -0.01994118
v -0.03329861 0.03098972 0.00001104
v -0.02486609 0.03068640 -0.01994118
v -0.03642312 0.02910002 0.00001104
v -0.03641434 0.02910002 -0.00090102
v -0.03642166 0.02815225 -0.00090102
v -0.03110048 0.02815225 -0.01898810
v -0.03115755 0.02910002 -0.01887873
v -0.03247321 0.03010307 -0.01635346
v -0.02881454 0.03075473 -0.01994118
v -0.02986677 0.03058834 -0.01906622
v -0.03271908 0.03032112 -0.01529882
v -0.03154098 0.03045223 -0.01701163
v -0.03329861 0.03098972 -0.00810187
v -0.03421035 0.03088473 0.00001104
v -0.02610127 0.03092917 -0.01994118
v -0.02685934 0.03098972 -0.01994118
v -0.03620506 0.03028167 0.00001104
v -0.03619921 0.03027612 -0.00090102
v -0.03616994 0.03024196 -0.00270172
v -0.03634117 0.02910002 -0.00270172
v -0.03634117 0.02815225 -0.00270172
v -0.03206052 0.02815225 -0.01735341
v -0.03205759 0.02910002 -0.01734169
v -0.03251858 0.02910002 -0.01644330
v -0.03305421 0.02910002 -0.01529882
v -0.03420450 0.03000723 -0.01261144
v -0.02790133 0.03093751 -0.01994118
v -0.03149854 0.03081612 -0.01529882
v -0.02969994 0.03098306 -0.01709952
v -0.03434646 0.03017973 -0.01169937
v -0.03461574 0.03042168 -0.00990062
v -0.03333081 0.03039751 -0.01332625
v -0.03329861 0.03091667 -0.00990062
v -0.03509868 0.03073695 -0.00270172
v -0.03509868 0.03077111 -0.00090102
v -0.03509868 0.03077667 0.00001104
v -0.02790133 0.03098972 -0.01889826
v -0.03149854 0.03098640 -0.01349811
v -0.03566212 0.03052612 0.00001104
v -0.03482208 0.03049473 -0.00810187
v -0.03608067 0.03011807 -0.00450047
v -0.03600457 0.03000779 -0.00543012
v -0.03616262 0.02910002 -0.00450047
v -0.03616116 0.02815225 -0.00450047
v -0.03252590 0.02815225 -0.01645501
v -0.03278054 0.02815225 -0.01591207
v -0.03306592 0.02815225 -0.01529882
v -0.03383570 0.02910002 -0.01352546
v -0.03421035 0.02910002 -0.01262511
v -0.03450305 0.02910002 -0.01169937
v -0.03504892 0.02910002 -0.00990062
v -0.03329861 0.03067500 -0.01169937
v -0.03585530 0.02815225 -0.00641640
v -0.03594018 0.02815225 -0.00599064
v -0.03601335 0.02910002 -0.00548480
v -0.03548943 0.02910002 -0.00810187
v -0.03608945 0.02815225 -0.00504928
v -0.03343471 0.02815225 -0.01445901
v -0.03387229 0.02815225 -0.01343366
v -0.03420889 0.02815225 -0.01262315
v -0.03447817 0.02815225 -0.01178530
v -0.03505770 0.02815225 -0.00990062
v -0.03551284 0.02815225 -0.00810187
v -0.03601774 0.02815225 -0.00551605
f 1 2 3
f 1 3 6
f 1 6 13
f 1 13 20
f 1 20 31
f 1 31 49
f 1 49 38
f 1 38 37
f 1 37 24
f 1 24 22
f 1 22 14
f 1 14 7
f 1 7 4
f 1 4 5
f 1 5 2
f 2 5 11
f 2 11 17
f 2 17 27
f 2 27 43
f 2 43 66
f 2 66 79
f 2 79 86
f 2 86 76
f 2 76 75
f 2 75 85
f 2 85 84
f 2 84 83
f 2 83 82
f 2 82 81
f 2 81 80
f 2 80 69
f 2 69 68
f 2 68 67
f 2 67 44
f 2 44 28
f 2 28 18
f 2 18 12
f 2 12 6
f 2 6 3
f 4 7 8
f 4 8 9
f 4 9 10
f 4 10 5
f 5 10 9
f 5 9 8
f 5 8 15
f 5 15 23
f 5 23 36
f 5 36 58
f 5 58 61
f 5 61 39
f 5 39 25
f 5 25 16
f 5 16 11
f 6 12 13
f 7 14 8
f 8 14 15
f 11 16 17
f 12 18 19
f 12 19 13
f 13 19 21
f 13 21 20
f 14 22 15
f 15 22 24
f 15 24 23
f 16 25 17
f 17 25 26
f 17 26 27
f 18 28 29
f 18 29 19
f 19 29 30
f 19 30 21
f 20 21 32
f 20 32 31
f 21 30 33
f 21 33 34
f 21 34 32
f 23 35 36
f 23 24 37
f 23 37 38
f 23 38 59
f 23 59 35
f 25 39 40
f 25 40 26
f 26 40 41
f 26 41 42
f 26 42 27
f 27 42 43
f 28 44 29
f 29 44 45
f 29 45 30
f 30 45 46
f 30 46 47
f 30 47 48
f 30 48 33
f 31 32 50
f 31 50 51
f 31 51 49
f 32 34 50
f 33 50 34
f 33 48 52
f 33 52 53
f 33 53 54
f 33 54 50
f 35 55 56
f 35 56 57
f 35 57 58
f 35 58 36
f 35 59 60
f 35 60 55
f 38 49 59
f 39 61 40
f 40 61 57
f 40 57 56
f 40 56 41
f 41 56 62
f 41 62 63
f 41 63 42
f 42 63 64
f 42 64 65
f 42 65 43
f 43 65 66
f 44 67 45
f 45 67 46
f 46 67 68
f 46 68 47
f 47 68 69
f 47 69 70
f 47 70 48
f 48 70 71
f 48 71 72
f 48 72 73
f 48 73 64
f 48 64 52
f 49 51 59
f 50 54 74
f 50 74 55
f 50 55 60
f 50 60 51
f 51 60 59
f 52 64 53
f 53 62 55
f 53 55 74
f 53 74 54
f 53 64 63
f 53 63 62
f 55 62 56
f 57 61 58
f 64 75 76
f 64 76 77
f 64 77 65
f 64 73 78
f 64 78 75
f 65 77 79
f 65 79 66
f 69 80 70
f 70 80 81
f 70 81 71
f 71 81 82
f 71 82 83
f 71 83 72
f 72 83 84
f 72 84 73
f 73 84 85
f 73 85 78
f 75 78 85
f 76 86 77
f 77 86 79

