# https://github.com/mikedh/trimesh
v -0.00090057 0.02815225 -0.03643395
v -0.00270141 0.02815225 -0.03633547
v -0.00090057 0.02910002 -0.03643234
v -0.00003593 0.02815225 -0.03643395
v -0.00355413 0.02815225 -0.03625960
v -0.00450225 0.02910002 -0.03616596
v -0.00270141 0.02910002 -0.03632417
v -0.00090057 0.03029085 -0.03621439
v -0.00003593 0.02971918 -0.03631933
v -0.00003593 0.02910002 -0.03643234
v -0.00450225 0.03011640 -0.03607717
v -0.00270141 0.03022334 -0.03615466
v -0.00003593 0.02815225 -0.02895118
v -0.00450225 0.02815225 -0.03616919
v -0.00557262 0.02910002 -0.03603358
v -0.00549510 0.03003085 -0.03601905
v -0.00270141 0.03071834 -0.03509884
v -0.00090057 0.03078584 -0.03509884
v -0.00003593 0.03054834 -0.03563482
v -0.00003593 0.03029085 -0.03621439
v -0.00990179 0.03042501 -0.03461775
v -0.00810095 0.03049473 -0.03481470
v -0.00450225 0.03061139 -0.03509884
v -0.02147903 0.02815613 -0.01994280
v -0.02149096 0.02815225 -0.01994280
v -0.00003593 0.02855752 -0.02933541
v -0.02434428 0.03050445 -0.01994280
v -0.02339913 0.02999557 -0.01994280
v -0.02325304 0.02986835 -0.01994280
v -0.02227808 0.02900363 -0.01994280
v -0.00500911 0.02815225 -0.03610623
v -0.00557858 0.02815225 -0.03603358
v -0.00647900 0.02815225 -0.03584469
v -0.00810095 0.02815225 -0.03550244
v -0.00810095 0.02910002 -0.03547661
v -0.00990179 0.02910002 -0.03505686
v -0.01137168 0.03023668 -0.03439657
v -0.00990179 0.03092001 -0.03329878
v -0.00810095 0.03098972 -0.03329878
v -0.00003593 0.03089195 -0.03416248
v -0.00003593 0.03078584 -0.03509884
v -0.01350048 0.03049473 -0.03311312
v -0.03049516 0.02815225 -0.01994280
v -0.00003593 0.02904974 -0.02980359
v -0.02486306 0.03068640 -0.01994280
v -0.00003593 0.02994946 -0.03067375
v -0.00895366 0.02815225 -0.03530387
v -0.00990179 0.02815225 -0.03506817
v -0.01167579 0.02910002 -0.03450312
v -0.01257621 0.02910002 -0.03418508
v -0.01350048 0.02910002 -0.03384283
v -0.01633591 0.03009584 -0.03246897
v -0.01529834 0.03031917 -0.03272889
v -0.01529834 0.03081417 -0.03149871
v -0.01350048 0.03098972 -0.03149871
v -0.00003593 0.03098972 -0.03329878
v -0.03047428 0.02910002 -0.01994280
v -0.02997339 0.02910002 -0.02070157
v -0.03005091 0.02815225 -0.02060632
v -0.02609741 0.03092917 -0.01994280
v -0.00003593 0.03021140 -0.03110480
v -0.00003593 0.03049473 -0.03157298
v -0.01179207 0.02815225 -0.03447729
v -0.01261795 0.02815225 -0.03419154
v -0.01340507 0.02815225 -0.03389126
v -0.01529834 0.02815225 -0.03307922
v -0.01529834 0.02910002 -0.03306953
v -0.01642237 0.02910002 -0.03251256
v -0.01731981 0.02910002 -0.03205568
v -0.01978553 0.02951668 -0.03058496
v -0.01858398 0.03032862 -0.03096596
v -0.01700079 0.03045251 -0.03153907
v -0.01906996 0.03059307 -0.02987139
v -0.02069787 0.03089139 -0.02790020
v -0.01709918 0.03098890 -0.02969865
v -0.01889704 0.03098972 -0.02790020
v -0.00003593 0.03073251 -0.03240117
v -0.02685770 0.03098972 -0.01994280
v -0.02960368 0.03048973 -0.01994280
v -0.02937708 0.03040418 -0.02070157
v -0.02898949 0.03020890 -0.02184457
v -0.02909086 0.02910002 -0.02197211
v -0.02909384 0.02815225 -0.02197856
v -0.01643728 0.02815225 -0.03252063
v -0.01686364 0.02815225 -0.03230430
v -0.01733770 0.02815225 -0.03206053
v -0.01898648 0.02815225 -0.03110964
v -0.01906996 0.02899002 -0.03104507
v -0.01980044 0.02831669 -0.03060111
v -0.01980342 0.02815225 -0.03060272
v -0.02052196 0.02899002 -0.03009257
v -0.02197397 0.02910002 -0.02907549
v -0.02184278 0.03019862 -0.02897863
v -0.02069787 0.03039640 -0.02937254
v -0.02246592 0.03048001 -0.02790666
v -0.02432340 0.03054056 -0.02614050
v -0.02249871 0.03094584 -0.02610014
v -0.02429955 0.03096723 -0.02430008
v -0.02429955 0.03098972 -0.02250002
v -0.02609741 0.03094501 -0.02250002
v -0.02789825 0.03093751 -0.01994280
v -0.02881358 0.03075473 -0.01994280
v -0.02789825 0.03089917 -0.02070157
v -0.02789825 0.03048529 -0.02246773
v -0.02729598 0.03027001 -0.02375441
v -0.02667284 0.02910002 -0.02483929
v -0.02745400 0.02910002 -0.02394007
v -0.02835442 0.02910002 -0.02287295
v -0.02871221 0.02815225 -0.02245158
v -0.02061737 0.02815225 -0.03004090
v -0.02131207 0.02815225 -0.02955658
v -0.02198291 0.02815225 -0.02908356
v -0.02287439 0.02910002 -0.02837161
v -0.02392388 0.02910002 -0.02747400
v -0.02374201 0.03027112 -0.02731095
v -0.02557564 0.03029973 -0.02556739
v -0.02614511 0.03053974 -0.02433237
v -0.02667881 0.02815225 -0.02484736
v -0.02746294 0.02815225 -0.02394652
v -0.02577541 0.02910002 -0.02576112
v -0.02788930 0.02815225 -0.02344283
v -0.02836337 0.02815225 -0.02287779
v -0.02288035 0.02815225 -0.02837807
v -0.02337826 0.02815225 -0.02795348
v -0.02393283 0.02815225 -0.02748046
v -0.02483325 0.02815225 -0.02666841
v -0.02482430 0.02910002 -0.02666034
v -0.02620474 0.02815225 -0.02533330
v -0.02528345 0.02815225 -0.02624221
v -0.02577839 0.02815225 -0.02576919
f 1 2 3
f 1 3 10
f 1 10 4
f 1 4 13
f 1 13 25
f 1 25 43
f 1 43 59
f 1 59 83
f 1 83 109
f 1 109 122
f 1 122 121
f 1 121 119
f 1 119 118
f 1 118 128
f 1 128 130
f 1 130 129
f 1 129 126
f 1 126 125
f 1 125 124
f 1 124 123
f 1 123 112
f 1 112 111
f 1 111 110
f 1 110 90
f 1 90 87
f 1 87 86
f 1 86 85
f 1 85 84
f 1 84 66
f 1 66 65
f 1 65 64
f 1 64 63
f 1 63 48
f 1 48 47
f 1 47 34
f 1 34 33
f 1 33 32
f 1 32 31
f 1 31 14
f 1 14 5
f 1 5 2
f 2 5 6
f 2 6 7
f 2 7 3
f 3 8 9
f 3 9 10
f 3 7 11
f 3 11 12
f 3 12 8
f 4 10 9
f 4 9 20
f 4 20 19
f 4 19 41
f 4 41 40
f 4 40 56
f 4 56 77
f 4 77 62
f 4 62 61
f 4 61 46
f 4 46 44
f 4 44 26
f 4 26 13
f 5 14 6
f 6 14 15
f 6 15 16
f 6 16 7
f 7 16 11
f 8 12 17
f 8 17 18
f 8 18 19
f 8 19 20
f 8 20 9
f 11 16 21
f 11 21 22
f 11 22 12
f 12 22 23
f 12 23 17
f 13 24 25
f 13 26 27
f 13 27 28
f 13 28 29
f 13 29 30
f 13 30 24
f 14 31 15
f 15 31 32
f 15 32 33
f 15 33 34
f 15 34 35
f 15 35 16
f 16 35 36
f 16 36 37
f 16 37 21
f 17 23 38
f 17 38 39
f 17 39 18
f 18 40 41
f 18 41 19
f 18 39 40
f 21 37 42
f 21 42 38
f 21 38 22
f 22 38 23
f 24 30 29
f 24 29 28
f 24 28 27
f 24 27 45
f 24 45 60
f 24 60 78
f 24 78 101
f 24 101 102
f 24 102 79
f 24 79 57
f 24 57 43
f 24 43 25
f 26 44 27
f 27 44 46
f 27 46 45
f 34 47 35
f 35 47 36
f 36 47 48
f 36 48 49
f 36 49 37
f 37 49 50
f 37 50 51
f 37 51 52
f 37 52 53
f 37 53 42
f 38 42 54
f 38 54 55
f 38 55 39
f 39 55 76
f 39 76 99
f 39 99 78
f 39 78 56
f 39 56 40
f 42 53 54
f 43 57 58
f 43 58 59
f 45 46 61
f 45 61 62
f 45 62 60
f 48 63 49
f 49 63 64
f 49 64 50
f 50 64 51
f 51 64 65
f 51 65 66
f 51 66 67
f 51 67 52
f 52 68 69
f 52 69 70
f 52 70 71
f 52 71 53
f 52 67 68
f 53 71 72
f 53 72 54
f 54 72 71
f 54 71 73
f 54 73 74
f 54 74 75
f 54 75 55
f 55 75 76
f 56 78 60
f 56 60 77
f 57 79 80
f 57 80 81
f 57 81 58
f 58 81 82
f 58 82 59
f 59 82 83
f 60 62 77
f 66 84 67
f 67 84 68
f 68 84 85
f 68 85 69
f 69 85 86
f 69 86 87
f 69 87 88
f 69 88 70
f 70 88 89
f 70 89 90
f 70 90 91
f 70 91 92
f 70 92 93
f 70 93 71
f 71 93 94
f 71 94 73
f 73 94 74
f 74 94 95
f 74 95 96
f 74 96 97
f 74 97 75
f 75 97 98
f 75 98 76
f 76 98 99
f 78 99 98
f 78 98 100
f 78 100 101
f 79 102 80
f 80 102 103
f 80 103 104
f 80 104 81
f 81 104 105
f 81 105 106
f 81 106 107
f 81 107 108
f 81 108 82
f 82 108 109
f 82 109 83
f 87 90 88
f 88 90 89
f 90 110 91
f 91 110 111
f 91 111 92
f 92 111 112
f 92 112 113
f 92 113 93
f 93 95 94
f 93 113 114
f 93 114 115
f 93 115 95
f 95 115 96
f 96 116 117
f 96 117 98
f 96 98 97
f 96 115 116
f 98 117 100
f 100 117 103
f 100 103 101
f 101 103 102
f 103 117 104
f 104 117 105
f 105 117 116
f 105 116 106
f 106 118 119
f 106 119 107
f 106 116 120
f 106 120 118
f 107 119 121
f 107 121 108
f 108 121 122
f 108 122 109
f 112 123 113
f 113 123 124
f 113 124 125
f 113 125 114
f 114 125 126
f 114 126 127
f 114 127 115
f 115 127 120
f 115 120 116
f 118 120 128
f 120 127 126
f 120 126 129
f 120 129 130
f 120 130 128

