# https://github.com/mikedh/trimesh
v 0.01397575 0.00210973 0.01551303
v 0.01397575 0.01089147 0.01462339
v 0.01263513 0.01089147 0.02223536
v 0.01232418 0.01089147 0.02300006
v 0.01257940 0.00855139 0.02144568
v 0.01303116 0.00210973 0.01712739
v 0.01397575 0.00210973 -0.01401523
v 0.01397575 0.01089147 -0.01458000
v 0.01203670 0.01089147 0.02325996
v 0.01150574 0.01089147 0.02372477
v 0.01260873 0.00296082 0.01801704
v 0.01199563 0.00210973 0.01787210
v 0.00979843 0.00210973 -0.01838849
v 0.01089850 0.00274074 -0.01817857
v 0.01086036 0.00468020 -0.01988289
v 0.01125932 0.01089147 -0.02412620
v 0.01134733 0.01089147 -0.02399626
v 0.01220391 0.01089147 -0.02247686
v 0.01232125 0.01089147 -0.02222196
v 0.01241806 0.01089147 -0.02197206
v 0.01397575 0.00567917 -0.01448504
v 0.01397575 0.00983405 -0.01458000
v 0.00989231 0.01089147 0.02438451
v 0.01106571 0.01006187 0.02349486
v 0.01169935 0.00210973 0.01800205
v 0.00977203 0.00210973 -0.01839848
v 0.00978377 0.00212434 -0.01840848
v 0.01069609 0.00665835 -0.02154223
v 0.01101584 0.00986070 -0.02364140
v 0.00989817 0.01089147 -0.02492589
v 0.01397575 0.00809747 -0.01457500
v 0.01397575 0.00749999 -0.01457000
v 0.01397575 0.00625258 -0.01454501
v 0.00809993 0.01089147 0.02472937
v 0.00989817 0.00210973 0.01841688
v 0.00871304 0.00210973 -0.01864339
v 0.00949628 0.00640646 -0.02173716
v 0.00879224 0.00842502 -0.02338150
v 0.00809993 0.01089147 -0.02527075
v -0.00449948 0.01089147 0.02532913
v 0.00629876 0.00862876 0.02324496
v 0.00629876 0.00749999 0.02245028
v 0.00809993 0.00210973 0.01852184
v 0.00809993 0.00210973 -0.01878333
v 0.00719641 0.01089147 -0.02536072
v -0.00629772 0.01089147 0.02528415
v -0.00449948 0.00832787 0.02344988
v 0.00626063 0.00210973 0.01861680
v 0.00628409 0.00210973 -0.01882831
v 0.00134407 0.01089147 -0.02571557
v 0.00269935 0.01089147 -0.02568059
v 0.00321565 0.01089147 -0.02565560
v 0.00449759 0.01089147 -0.02558563
v 0.00516643 0.01089147 -0.02553565
v 0.00629876 0.01089147 -0.02544568
v -0.00571688 0.00835452 0.02342989
v -0.00753272 0.01089147 0.02510922
v -0.00989713 0.00210973 0.01856182
v -0.00449948 0.00742777 0.02278015
v 0.00450932 0.00210973 0.01865678
v 0.00449759 0.00210973 -0.01885330
v 0.00089818 0.01089147 -0.02572557
v -0.00449948 0.00531896 0.02121077
v -0.00793168 0.00210973 0.01866678
v -0.00629772 0.00210973 0.01874175
v -0.00809889 0.01089147 0.02502425
v -0.00998513 0.00210973 0.01854183
v -0.00989713 0.01088115 0.02470438
v -0.01060997 0.00663428 0.02157562
v -0.00449948 0.00210973 0.01880173
v -0.00449948 0.00411883 0.02031113
v 0.00269935 0.00210973 -0.01887329
v 0.00269935 0.00314738 -0.01968297
v 0.00269935 0.00404747 -0.02038269
v 0.00089818 0.00403716 -0.02039269
v -0.00090006 0.01089147 -0.02573057
v -0.00987366 0.01089147 0.02471438
v -0.01169830 0.00210973 0.01810201
v -0.01124361 0.00456071 0.01995627
v -0.00989713 0.01089147 0.02470938
v -0.00994700 0.01089147 0.02468939
v -0.01129054 0.00989165 0.02361481
v 0.00089818 0.00210973 -0.01888829
v 0.00089818 0.00313792 -0.01969297
v -0.00269830 0.01089147 -0.02568059
v -0.00090006 0.00929932 -0.02449106
v -0.00271297 0.00210973 -0.01887829
v -0.00451414 0.00210973 -0.01885830
v -0.00631238 0.00210973 -0.01883331
v -0.00811062 0.00210973 -0.01878833
v -0.01261942 0.00291612 0.01803703
v -0.01303305 0.00210973 0.01714739
v -0.01159856 0.01089147 0.02400466
v -0.01261649 0.00833818 0.02163560
v -0.00090006 0.00210973 -0.01889329
v -0.00090006 0.00313620 -0.01969297
v -0.00449948 0.01089147 -0.02559062
v -0.00091766 0.00210973 -0.01889329
v -0.00977099 0.00210973 -0.01840348
v -0.00949524 0.00640302 -0.02174215
v -0.00880586 0.00842416 -0.02338150
v -0.00629772 0.01089147 -0.02546068
v -0.01312692 0.00210973 0.01706242
v -0.01212953 0.01089147 0.02354484
v -0.01249035 0.01057510 0.02302005
v -0.01599295 0.00210973 0.01393866
v -0.00979739 0.00210973 -0.01838849
v -0.01085932 0.00468192 -0.01988289
v -0.01069504 0.00666093 -0.02154223
v -0.00989713 0.00439565 -0.02009281
v -0.00989713 0.01089147 -0.02493089
v -0.00873546 0.01089147 -0.02515580
v -0.00809889 0.01089147 -0.02527575
v -0.01257248 0.01089147 0.02270518
v -0.01599295 0.01089147 0.01326393
v -0.01599295 0.00210973 -0.01372534
v -0.01058650 0.00210973 -0.01790368
v -0.01101479 0.00985984 -0.02364140
v -0.01005260 0.01089147 -0.02487591
v -0.01599295 0.01089147 -0.01324053
v -0.01241701 0.01089147 -0.02196706
v -0.01220286 0.01089147 -0.02247686
v -0.01126121 0.01089147 -0.02412620
f 1 2 3
f 1 3 4
f 1 4 5
f 1 5 6
f 1 6 12
f 1 12 25
f 1 25 35
f 1 35 43
f 1 43 48
f 1 48 60
f 1 60 70
f 1 70 65
f 1 65 64
f 1 64 58
f 1 58 67
f 1 67 78
f 1 78 92
f 1 92 103
f 1 103 106
f 1 106 116
f 1 116 117
f 1 117 107
f 1 107 99
f 1 99 90
f 1 90 89
f 1 89 88
f 1 88 87
f 1 87 98
f 1 98 95
f 1 95 83
f 1 83 72
f 1 72 61
f 1 61 49
f 1 49 44
f 1 44 36
f 1 36 26
f 1 26 13
f 1 13 7
f 1 7 21
f 1 21 33
f 1 33 32
f 1 32 31
f 1 31 22
f 1 22 8
f 1 8 2
f 2 8 20
f 2 20 19
f 2 19 18
f 2 18 17
f 2 17 16
f 2 16 30
f 2 30 39
f 2 39 45
f 2 45 55
f 2 55 54
f 2 54 53
f 2 53 52
f 2 52 51
f 2 51 50
f 2 50 62
f 2 62 76
f 2 76 85
f 2 85 97
f 2 97 102
f 2 102 113
f 2 113 112
f 2 112 111
f 2 111 119
f 2 119 123
f 2 123 122
f 2 122 121
f 2 121 120
f 2 120 115
f 2 115 114
f 2 114 104
f 2 104 93
f 2 93 81
f 2 81 80
f 2 80 77
f 2 77 66
f 2 66 57
f 2 57 46
f 2 46 40
f 2 40 34
f 2 34 23
f 2 23 10
f 2 10 9
f 2 9 4
f 2 4 3
f 4 9 5
f 5 9 10
f 5 10 11
f 5 11 6
f 6 11 12
f 7 13 14
f 7 14 15
f 7 15 16
f 7 16 17
f 7 17 18
f 7 18 19
f 7 19 20
f 7 20 21
f 8 22 20
f 10 23 24
f 10 24 11
f 11 24 12
f 12 24 25
f 13 26 27
f 13 27 15
f 13 15 14
f 15 28 29
f 15 29 16
f 15 27 28
f 16 29 30
f 20 22 31
f 20 31 32
f 20 32 33
f 20 33 21
f 23 34 35
f 23 35 25
f 23 25 24
f 26 36 27
f 27 36 37
f 27 37 28
f 28 37 30
f 28 30 29
f 30 38 39
f 30 37 38
f 34 40 41
f 34 41 42
f 34 42 35
f 35 42 43
f 36 44 37
f 37 44 38
f 38 45 39
f 38 44 45
f 40 42 41
f 40 46 47
f 40 47 48
f 40 48 42
f 42 48 43
f 44 49 50
f 44 50 51
f 44 51 52
f 44 52 53
f 44 53 54
f 44 54 55
f 44 55 45
f 46 56 47
f 46 57 58
f 46 58 56
f 47 56 59
f 47 59 60
f 47 60 48
f 49 61 62
f 49 62 50
f 56 63 59
f 56 58 64
f 56 64 65
f 56 65 63
f 57 66 58
f 58 66 68
f 58 68 69
f 58 69 67
f 59 63 60
f 60 63 71
f 60 71 70
f 61 72 73
f 61 73 74
f 61 74 62
f 62 74 73
f 62 73 75
f 62 75 76
f 63 65 71
f 65 70 71
f 66 77 68
f 67 69 79
f 67 79 78
f 68 77 80
f 68 80 81
f 68 81 82
f 68 82 69
f 69 82 79
f 72 83 84
f 72 84 73
f 73 84 75
f 75 84 76
f 76 84 86
f 76 86 87
f 76 87 88
f 76 88 89
f 76 89 90
f 76 90 85
f 78 91 92
f 78 79 82
f 78 82 91
f 81 93 82
f 82 93 94
f 82 94 91
f 83 95 84
f 84 95 96
f 84 96 86
f 85 90 97
f 86 96 87
f 87 96 98
f 90 99 100
f 90 100 101
f 90 101 102
f 90 102 97
f 91 94 92
f 92 94 103
f 93 104 94
f 94 104 105
f 94 105 106
f 94 106 103
f 95 98 96
f 99 107 108
f 99 108 109
f 99 109 110
f 99 110 100
f 100 110 109
f 100 109 111
f 100 111 101
f 101 111 112
f 101 112 113
f 101 113 102
f 104 114 105
f 105 114 115
f 105 115 106
f 106 115 120
f 106 120 116
f 107 117 108
f 108 117 116
f 108 116 109
f 109 116 118
f 109 118 119
f 109 119 111
f 116 120 121
f 116 121 122
f 116 122 123
f 116 123 118
f 118 123 119

