# https://github.com/mikedh/trimesh
v 0.03061920 0.01089147 -0.00089868
v 0.02716051 0.00261437 0.00089864
v 0.02995451 0.00929932 -0.00089868
v 0.02715399 0.00262812 -0.00269894
v 0.02692428 0.00210973 -0.00376849
v 0.02691287 0.00210973 -0.00449921
v 0.02713933 0.00265563 -0.00449921
v 0.02688844 0.00210973 -0.00566304
v 0.03057522 0.01089147 -0.00269894
v 0.03060943 0.01089147 0.00089864
v 0.02994636 0.00929932 0.00089864
v 0.02694546 0.00210973 0.00089864
v 0.02716051 0.00261437 -0.00089868
v 0.02769976 0.00390046 -0.00089868
v 0.02693243 0.00210973 0.00269890
v 0.02693405 0.00210973 -0.00269894
v 0.02687215 0.00210973 -0.00629947
v 0.02683305 0.00210973 -0.00762536
v 0.02681513 0.00210973 -0.00809973
v 0.02673204 0.00210973 -0.00990000
v 0.03050353 0.01089147 -0.00404840
v 0.03058662 0.01089147 0.00155864
v 0.02684608 0.00210973 0.00629943
v 0.02689984 0.00210973 0.00449916
v 0.02694546 0.00210973 -0.00089868
v 0.02630683 0.00210973 -0.01154115
v 0.02700248 0.00299263 -0.01081044
v 0.03047747 0.01089147 -0.00449921
v 0.03054589 0.01089147 0.00269890
v 0.02678091 0.00210973 0.00809969
v 0.02715399 0.00390046 -0.01123178
v 0.02547596 0.00210973 -0.01278749
v 0.02679884 0.00500087 -0.01256651
v 0.02881084 0.00836484 -0.01084285
v 0.02985839 0.01089147 -0.00990000
v 0.03013046 0.01089147 -0.00802902
v 0.03032922 0.01089061 -0.00629947
v 0.03032759 0.01089147 -0.00630242
v 0.03043022 0.01089147 0.00449916
v 0.02670108 0.00210973 0.00992647
v 0.02897701 0.00929932 -0.01123767
v 0.02542383 0.00210973 -0.01285526
v 0.02849967 0.01049945 -0.01253999
v 0.02897050 0.01089147 -0.01208624
v 0.02919206 0.01089147 -0.01177392
v 0.03041230 0.01089147 0.00469068
v 0.02668968 0.00210973 0.01005022
v 0.02428993 0.00210973 -0.01327365
v 0.02810705 0.01089147 -0.01260481
v 0.03024124 0.01089147 0.00644380
v 0.02698456 0.00304851 0.01054522
v 0.02613740 0.00210973 0.01168843
v 0.02248972 0.00210973 -0.01343865
v 0.01397575 0.00625258 -0.01454356
v 0.01397575 0.00749999 -0.01456713
v 0.01397575 0.00809747 -0.01457302
v 0.01397575 0.00929932 -0.01457891
v 0.01397575 0.01089147 -0.01458481
v 0.03021192 0.01089147 0.00671487
v 0.03003760 0.01089147 0.00809969
v 0.03001153 0.01089147 0.00830299
v 0.02976879 0.01089147 0.00991174
v 0.02878478 0.00844221 0.01068665
v 0.02717191 0.00424864 0.01130540
v 0.02613251 0.00210973 0.01170022
v 0.01397575 0.00210973 -0.01401909
v 0.01397575 0.00567917 -0.01448463
v 0.01397575 0.01089147 0.01462307
v 0.02972317 0.01089147 0.01009736
v 0.02899005 0.00964234 0.01129066
v 0.02735438 0.00572387 0.01182397
v 0.02541731 0.00210973 0.01284343
v 0.01397575 0.00210973 0.01551583
v 0.02776329 0.01089147 0.01263718
v 0.02914645 0.01089147 0.01172379
v 0.02703832 0.00634027 0.01262245
v 0.02429971 0.00210973 0.01326771
v 0.02852900 0.01089147 0.01252522
f 1 2 3
f 1 3 4
f 1 4 5
f 1 5 6
f 1 6 7
f 1 7 8
f 1 8 9
f 1 9 21
f 1 21 28
f 1 28 38
f 1 38 36
f 1 36 35
f 1 35 45
f 1 45 44
f 1 44 49
f 1 49 58
f 1 58 68
f 1 68 74
f 1 74 78
f 1 78 75
f 1 75 69
f 1 69 62
f 1 62 61
f 1 61 60
f 1 60 59
f 1 59 50
f 1 50 46
f 1 46 39
f 1 39 29
f 1 29 22
f 1 22 10
f 1 10 11
f 1 11 2
f 2 12 25
f 2 25 13
f 2 13 14
f 2 14 3
f 2 11 15
f 2 15 12
f 3 14 4
f 4 16 5
f 4 14 13
f 4 13 16
f 5 16 25
f 5 25 12
f 5 12 15
f 5 15 24
f 5 24 23
f 5 23 30
f 5 30 40
f 5 40 47
f 5 47 52
f 5 52 65
f 5 65 72
f 5 72 77
f 5 77 73
f 5 73 66
f 5 66 53
f 5 53 48
f 5 48 42
f 5 42 32
f 5 32 26
f 5 26 20
f 5 20 19
f 5 19 18
f 5 18 17
f 5 17 8
f 5 8 6
f 6 8 7
f 8 17 9
f 9 17 18
f 9 18 19
f 9 19 20
f 9 20 21
f 10 22 23
f 10 23 24
f 10 24 15
f 10 15 11
f 13 25 16
f 20 26 27
f 20 27 28
f 20 28 21
f 22 29 23
f 23 29 30
f 26 31 27
f 26 32 33
f 26 33 31
f 27 31 34
f 27 34 35
f 27 35 36
f 27 36 37
f 27 37 28
f 28 37 38
f 29 39 40
f 29 40 30
f 31 41 34
f 31 33 41
f 32 42 33
f 33 42 43
f 33 43 44
f 33 44 45
f 33 45 41
f 34 41 35
f 35 41 45
f 36 38 37
f 39 46 47
f 39 47 40
f 42 48 43
f 43 49 44
f 43 48 49
f 46 50 51
f 46 51 47
f 47 51 52
f 48 53 54
f 48 54 55
f 48 55 56
f 48 56 57
f 48 57 58
f 48 58 49
f 50 59 51
f 51 60 61
f 51 61 62
f 51 62 63
f 51 63 64
f 51 64 52
f 51 59 60
f 52 64 65
f 53 66 67
f 53 67 54
f 54 67 66
f 54 66 73
f 54 73 68
f 54 68 58
f 54 58 57
f 54 57 56
f 54 56 55
f 62 69 63
f 63 70 64
f 63 69 70
f 64 70 71
f 64 71 72
f 64 72 65
f 68 73 74
f 69 75 70
f 70 75 71
f 71 76 72
f 71 75 76
f 72 76 78
f 72 78 77
f 73 77 78
f 73 78 74
f 75 78 76

