# https://github.com/mikedh/trimesh
v -0.00003593 0.02729870 0.03644576
v -0.00090171 0.02729870 0.03643862
v -0.00090171 0.02549906 0.03638869
v -0.00003593 0.02549906 0.03638869
v -0.00003593 0.02809194 0.03642436
v -0.00090171 0.02809194 0.03642436
v -0.00270096 0.02809194 0.03635302
v -0.00270096 0.02729870 0.03636015
v -0.00270096 0.02549906 0.03631735
v -0.00270096 0.02441345 0.03612473
v -0.00090171 0.02436336 0.03616040
v -0.00003593 0.02490850 0.03627454
v -0.02080389 0.03098768 0.02609430
v -0.02080389 0.03086187 0.02789921
v -0.00003593 0.02815135 -0.02893752
v -0.02080389 0.03037266 0.02934028
v -0.00370925 0.02809194 0.03624601
v -0.00450021 0.02809194 0.03616040
v -0.00450021 0.02729870 0.03616040
v -0.00468191 0.02531968 0.03610332
v -0.00540161 0.02460099 0.03598918
v -0.00420093 0.02450081 0.03606766
v -0.00630302 0.01909141 0.03158036
v -0.00534817 0.01909141 0.03162316
v -0.00003593 0.02436336 0.03616040
v -0.00450021 0.01909141 0.03165170
v -0.02249981 0.03099000 0.02429653
v -0.02429906 0.03096089 0.02429653
v -0.02249981 0.03095040 0.02609430
v -0.00003593 0.02815135 -0.03642823
v -0.03329887 0.03099000 0.00000520
v -0.02433469 0.03053922 0.02613710
v -0.02245706 0.03047982 0.02789921
v -0.02182643 0.03019094 0.02897644
v -0.01530282 0.02809194 0.03306423
v -0.01299052 0.02809194 0.03404873
v -0.01261642 0.02809194 0.03419854
v -0.01235633 0.02809194 0.03429129
v -0.01179340 0.02809194 0.03446964
v -0.00990151 0.02809194 0.03505463
v -0.00810227 0.02809194 0.03551834
v -0.00642772 0.02809194 0.03586790
v -0.00552988 0.02809194 0.03601058
v -0.00556194 0.02729870 0.03601772
v -0.00552631 0.02580075 0.03601058
v -0.00619613 0.02531968 0.03586790
v -0.00810227 0.02549906 0.03545413
v -0.00990151 0.02549906 0.03499755
v -0.01129816 0.02434473 0.03435549
v -0.00990151 0.02406634 0.03455524
v -0.00800963 0.02360740 0.03469079
v -0.00734694 0.02275709 0.03423421
v -0.00630302 0.02263944 0.03432696
v -0.00810227 0.01909141 0.03124506
v -0.03405063 0.01909024 0.00000520
v -0.00003593 0.02389511 0.03574663
v -0.00003593 0.01909024 0.00000520
v -0.00359168 0.01909141 0.03156609
v -0.00003593 0.02346413 0.03534712
v -0.02789756 0.03099000 0.01889608
v -0.02609831 0.03095389 0.02249162
v -0.02613394 0.03054155 0.02432506
v -0.00003593 0.02729753 -0.03643537
v -0.00090171 0.02815135 -0.03642823
v -0.00270096 0.02815135 -0.03632122
v -0.00355605 0.02815135 -0.03624988
v -0.00450377 0.02815135 -0.03615001
v -0.00557976 0.02815135 -0.03602160
v -0.00810227 0.02815135 -0.03549368
v -0.00895379 0.02815135 -0.03529393
v -0.00990151 0.02815135 -0.03505850
v -0.01179340 0.02815135 -0.03445925
v -0.01259861 0.02815135 -0.03418815
v -0.01340738 0.02815135 -0.03388139
v -0.01530282 0.02815135 -0.03306811
v -0.01643938 0.02815135 -0.03251166
v -0.01686692 0.02815135 -0.03229764
v -0.01734435 0.02815135 -0.03204795
v -0.01898326 0.02815135 -0.03110626
v -0.01979916 0.02815135 -0.03059261
v -0.02061150 0.02815135 -0.03003615
v -0.02197964 0.02815135 -0.02907306
v -0.02288104 0.02815135 -0.02836679
v -0.03420740 0.03088400 0.00000520
v -0.03509812 0.03078150 0.00089695
v -0.03329887 0.03099000 0.00809517
v -0.02556032 0.03029112 0.02556638
v -0.02376107 0.03027714 0.02729995
v -0.02284898 0.02909951 0.02835578
v -0.02195113 0.02909951 0.02906918
v -0.02080389 0.02916590 0.02988960
v -0.01645719 0.02809194 0.03252205
v -0.02394990 0.02909951 0.02745690
v -0.01530282 0.02729870 0.03307137
v -0.01332899 0.02717523 0.03391318
v -0.01261642 0.02769357 0.03419854
v -0.01259861 0.02649265 0.03419854
v -0.01187891 0.02717523 0.03444110
v -0.00990151 0.02729870 0.03506889
v -0.00810227 0.02729870 0.03553260
v -0.00645978 0.02729870 0.03586790
v -0.01162238 0.02549906 0.03448390
v -0.01252022 0.02549906 0.03415574
v -0.01350001 0.02549906 0.03377763
v -0.01628617 0.02453226 0.03243644
v -0.01530282 0.02419563 0.03266473
v -0.01352495 0.02359925 0.03299289
v -0.01414133 0.02293181 0.03229376
v -0.01181834 0.02372738 0.03372770
v -0.01170076 0.02234707 0.03274320
v -0.00990151 0.02316943 0.03392032
v -0.00854406 0.02294578 0.03408440
v -0.00914619 0.02095045 0.03243644
v -0.00971625 0.01909141 0.03086696
v -0.03405419 0.01909141 0.00000520
v -0.03405063 0.01909024 -0.00090082
v -0.01041813 0.01909141 0.03068147
v -0.01093831 0.01909141 0.03051739
v -0.01159744 0.01909141 0.03021063
v -0.01191097 0.01909141 0.03002514
v -0.01296914 0.01909141 0.02921186
v -0.03120746 0.01909141 0.01309612
v -0.03173477 0.01909141 0.01245406
v -0.03202336 0.01909141 0.01203315
v -0.03240103 0.01909141 0.01133402
v -0.03251504 0.01909141 0.01111286
v -0.03287489 0.01909141 0.00980020
v -0.03327393 0.01909141 0.00803097
v -0.03357677 0.01909141 0.00629026
v -0.03380836 0.01909141 0.00449249
v -0.03397581 0.01909141 0.00269472
v -0.03405063 0.01909141 0.00089695
v -0.00003593 0.01909024 -0.03209789
v -0.00003593 0.01909141 0.03112378
v -0.00003593 0.01931039 0.03134494
v -0.02969681 0.03098185 0.01709117
v -0.03149606 0.03099000 0.01349562
v -0.02789756 0.03088284 0.02069385
v -0.02790825 0.03047982 0.02245595
v -0.02731681 0.03028179 0.02374721
v -0.00090171 0.02729753 -0.03643537
v -0.00003593 0.02549790 -0.03635689
v -0.00270096 0.02729753 -0.03633549
v -0.00450377 0.02729753 -0.03616428
v -0.00558688 0.02729753 -0.03602160
v -0.00648829 0.02729753 -0.03585751
v -0.00810227 0.02729753 -0.03550795
v -0.00990151 0.02729753 -0.03506564
v -0.01187891 0.02743732 -0.03444498
v -0.01262355 0.02693062 -0.03419529
v -0.01530282 0.02729753 -0.03308238
v -0.01262355 0.02619562 -0.03419529
v -0.01333256 0.02743732 -0.03390993
v -0.01645719 0.02729753 -0.03251166
v -0.01735503 0.02729753 -0.03204795
v -0.01772913 0.02729753 -0.03184106
v -0.01889776 0.02729753 -0.03116333
v -0.01980985 0.02615835 -0.03060687
v -0.02070769 0.02729753 -0.02997908
v -0.02198676 0.02729753 -0.02908020
v -0.02288460 0.02729753 -0.02838106
v -0.02394278 0.02729753 -0.02747504
v -0.02393209 0.02815135 -0.02746077
v -0.03509812 0.03077567 0.00000520
v -0.03620973 0.03028646 0.00089695
v -0.03509812 0.03072209 0.00269472
v -0.03329887 0.03093060 0.00990008
v -0.03566105 0.03052524 0.00000520
v -0.02574915 0.02909951 0.02576613
v -0.02484775 0.02909951 0.02665789
v -0.02285967 0.02809310 0.02836292
v -0.02196895 0.02729870 0.02908345
v -0.02135970 0.02809310 0.02951149
v -0.02080389 0.02881995 0.02989673
v -0.01980985 0.02809194 0.03060300
v -0.01822081 0.02809194 0.03153756
v -0.01695956 0.02809194 0.03225809
v -0.01645719 0.02729870 0.03252205
v -0.02445227 0.02809310 0.02702172
v -0.02394990 0.02809310 0.02746403
v -0.01639306 0.02549906 0.03249351
v -0.01530282 0.02549906 0.03300716
v -0.01853434 0.02411410 0.03091690
v -0.01783958 0.02291666 0.03051026
v -0.01663890 0.02249384 0.03080989
v -0.01530282 0.02329873 0.03202980
v -0.01729090 0.02549906 0.03201553
v -0.01973503 0.02518340 0.03054593
v -0.01572324 0.02129408 0.03038898
v -0.01452255 0.02094230 0.03064580
v -0.01352495 0.02198015 0.03181578
v -0.01294064 0.02263361 0.03252205
v -0.01170076 0.02144667 0.03205834
v -0.01086349 0.01917061 0.03061727
v -0.03488078 0.02107043 0.00000520
v -0.03522638 0.02190211 -0.00090082
v -0.03452449 0.02022128 0.00089695
v -0.03398650 0.01909024 -0.00269146
v -0.01816024 0.02090503 0.02888370
v -0.02033359 0.02070585 0.02734989
v -0.02249981 0.02064760 0.02570906
v -0.02422068 0.02059635 0.02424659
v -0.02606981 0.02054160 0.02248449
v -0.02724912 0.02076991 0.02187096
v -0.02894504 0.02084213 0.01998045
v -0.03085474 0.02073846 0.01666313
v -0.03229058 0.02124050 0.01416622
v -0.03253285 0.02070118 0.01297484
v -0.03342001 0.02190211 0.01169785
v -0.03413970 0.02295044 0.01060635
v -0.03431072 0.02251480 0.00940070
v -0.03324186 0.02010130 0.00990008
v -0.03407201 0.02131388 0.00841620
v -0.03441761 0.02190910 0.00793109
v -0.03420027 0.02099239 0.00721769
v -0.03427509 0.02081300 0.00629026
v -0.03496985 0.02190211 0.00449249
v -0.03576081 0.02339074 0.00269472
v -0.03514443 0.02190211 0.00269472
v -0.03411120 0.01941523 0.00269472
v -0.00048485 0.01909024 -0.03210502
v -0.00003593 0.02289686 -0.03505850
v -0.02969681 0.03074656 0.01889608
v -0.03149606 0.03082227 0.01529340
v -0.02961842 0.03032023 0.02052263
v -0.02896642 0.03018744 0.02182816
v -0.02747714 0.02909951 0.02392556
v -0.02664699 0.02909951 0.02483158
v -0.00090171 0.02549790 -0.03635689
v -0.00270096 0.02549790 -0.03628555
v -0.00003593 0.02494810 -0.03626415
v -0.00461066 0.02546179 -0.03608580
v -0.00551562 0.02603837 -0.03600019
v -0.00618901 0.02546179 -0.03585038
v -0.00810227 0.02549790 -0.03544374
v -0.00990151 0.02549790 -0.03500143
v -0.01185040 0.02555497 -0.03443071
v -0.01530282 0.02549790 -0.03302531
v -0.01642869 0.02549790 -0.03250452
v -0.01333256 0.02555497 -0.03387426
v -0.01255229 0.02499586 -0.03416675
v -0.01732653 0.02549790 -0.03201941
v -0.01772913 0.02595101 -0.03180539
v -0.01905096 0.02553400 -0.03102065
v -0.01975641 0.02495858 -0.03056407
v -0.02052599 0.02553400 -0.03006469
v -0.02194401 0.02549790 -0.02905166
v -0.02284185 0.02549790 -0.02833826
v -0.02391784 0.02549790 -0.02744651
v -0.02481924 0.02549790 -0.02664036
v -0.02484062 0.02729753 -0.02666890
v -0.02483350 0.02815135 -0.02666176
v -0.02435963 0.02815135 -0.02708267
v -0.02577765 0.02815135 -0.02576288
v -0.02620520 0.02815135 -0.02532770
v -0.02667906 0.02815135 -0.02483546
v -0.02745933 0.02815135 -0.02393657
v -0.02788687 0.02815135 -0.02343719
v -0.02836073 0.02815135 -0.02286646
v -0.02870989 0.02815135 -0.02244556
v -0.02909112 0.02815135 -0.02196758
v -0.03004597 0.02815135 -0.02059785
v -0.03065522 0.02815135 -0.01968469
v -0.03109702 0.02815135 -0.01897129
v -0.03205543 0.02815135 -0.01735187
v -0.03252216 0.02815135 -0.01645298
v -0.03615985 0.03022704 0.00269472
v -0.03620260 0.03028063 0.00000520
v -0.03643063 0.02909951 0.00089695
v -0.03481309 0.03049379 0.00809517
v -0.03462426 0.03043555 0.00990008
v -0.03309935 0.03049379 0.01349562
v -0.02575628 0.02729870 0.02577327
v -0.02535723 0.02809310 0.02616564
v -0.02485131 0.02809310 0.02666502
v -0.02286323 0.02729870 0.02836292
v -0.02070769 0.02729870 0.02998234
v -0.02193332 0.02549906 0.02905492
v -0.01889776 0.02729870 0.03115232
v -0.01980985 0.02729870 0.03060300
v -0.01735503 0.02729870 0.03204407
v -0.02485131 0.02729870 0.02667215
v -0.02394990 0.02729870 0.02746403
v -0.02179437 0.02435521 0.02894791
v -0.02065425 0.02373437 0.02929747
v -0.01904027 0.02358993 0.03024630
v -0.01935737 0.02138377 0.02854127
v -0.01718402 0.02189745 0.03011075
v -0.01904027 0.02567029 0.03100964
v -0.01979916 0.02638432 0.03059586
v -0.02051530 0.02567029 0.03005368
v -0.01350001 0.02070235 0.03083842
v -0.03522638 0.02190211 0.00000520
v -0.03580000 0.02328008 -0.00090082
v -0.03522282 0.02190211 0.00089695
v -0.03515156 0.02190211 -0.00269146
v -0.03382617 0.01909024 -0.00449637
v -0.02153072 0.02106926 0.02694325
v -0.02356868 0.02086076 0.02533096
v -0.02545343 0.02079786 0.02362593
v -0.02583110 0.02190211 0.02401116
v -0.02672894 0.02190211 0.02313368
v -0.02756621 0.02190211 0.02223480
v -0.02846406 0.02190211 0.02119323
v -0.02918732 0.02190211 0.02028721
v -0.03013504 0.02184969 0.01885327
v -0.03050202 0.02121487 0.01786164
v -0.03204474 0.02186483 0.01528626
v -0.03252572 0.02244025 0.01467987
v -0.03277156 0.02186483 0.01354556
v -0.03401144 0.02360973 0.01184053
v -0.03436060 0.02414788 0.01134828
v -0.03456725 0.02360973 0.00996428
v -0.03508030 0.02369942 0.00810231
v -0.03542946 0.02369942 0.00629026
v -0.03471333 0.02190211 0.00629026
v -0.03571805 0.02378329 0.00457810
v -0.03606009 0.02443908 0.00403592
v -0.03612066 0.02428882 0.00269472
v -0.03579644 0.02330338 0.00089695
v -0.00090171 0.01909024 -0.03210502
v -0.00090171 0.02345481 -0.03547941
v -0.00003593 0.02345481 -0.03547941
v -0.00090171 0.02138726 -0.03388139
v -0.03152812 0.03045418 0.01700556
v -0.03087255 0.03025267 0.01889608
v -0.03272525 0.03032722 0.01529340
v -0.02837855 0.02909951 0.02285545
v -0.03060890 0.03001622 0.01981636
v -0.02748070 0.02809310 0.02393269
v -0.02665056 0.02809310 0.02483158
v -0.00090171 0.02435288 -0.03615001
v -0.00270096 0.02441112 -0.03610720
v -0.00408335 0.02451246 -0.03603586
v -0.00528048 0.02483861 -0.03597166
v -0.00003593 0.02435288 -0.03615001
v -0.01135160 0.02432958 -0.03436650
v -0.01632893 0.02451363 -0.03245459
v -0.01855928 0.02420262 -0.03091364
v -0.02180149 0.02439015 -0.02893752
v -0.02371832 0.02421077 -0.02726102
v -0.02554250 0.02409546 -0.02553459
v -0.02574915 0.02549790 -0.02573434
v -0.02578122 0.02729753 -0.02577001
v -0.02747002 0.02729753 -0.02393657
v -0.02667906 0.02729753 -0.02483546
v -0.02836786 0.02729753 -0.02286646
v -0.02909112 0.02729753 -0.02196758
v -0.03011010 0.02738140 -0.02051224
v -0.03060534 0.02683511 -0.01979884
v -0.03059109 0.02803603 -0.01978457
v -0.03105070 0.02738140 -0.01907117
v -0.03205899 0.02729753 -0.01736614
v -0.03252929 0.02729753 -0.01645298
v -0.03306372 0.02815135 -0.01529014
v -0.03633087 0.02909951 0.00269472
v -0.03606721 0.03010707 0.00449963
v -0.03633799 0.02815135 -0.00269146
v -0.03641994 0.02909951 0.00000520
v -0.03343069 0.02815135 -0.01446259
v -0.03386893 0.02815135 -0.01342816
v -0.03406488 0.02815135 -0.01296445
v -0.03420384 0.02815135 -0.01261488
v -0.03447461 0.02815135 -0.01178734
v -0.03505536 0.02815135 -0.00989682
v -0.03550784 0.02815135 -0.00809905
v -0.03584988 0.02815135 -0.00641542
v -0.03593539 0.02815135 -0.00598738
v -0.03601377 0.02815135 -0.00551653
v -0.03608503 0.02815135 -0.00504569
v -0.03615629 0.02815135 -0.00449637
v -0.03643063 0.02821075 0.00000520
v -0.03643419 0.02729870 0.00089695
v -0.03634156 0.02729870 0.00269472
v -0.03633799 0.02809310 0.00269472
v -0.03441048 0.03025151 0.01136969
v -0.03601377 0.03002670 0.00549126
v -0.02665412 0.02729870 0.02482444
v -0.02662562 0.02549906 0.02478877
v -0.02572777 0.02549906 0.02573046
v -0.02283116 0.02549906 0.02832725
v -0.02480499 0.02549906 0.02664362
v -0.02390715 0.02549906 0.02742836
v -0.02370763 0.02415836 0.02725714
v -0.02327652 0.02295860 0.02689331
v -0.02122787 0.02315895 0.02854840
v -0.02077895 0.02182640 0.02795628
v -0.03616341 0.02417699 -0.00090082
v -0.03576081 0.02338725 -0.00269146
v -0.03580000 0.02329174 0.00000520
v -0.03440336 0.02049967 -0.00449637
v -0.03373354 0.01909024 -0.00519550
v -0.02397484 0.02190211 0.02566626
v -0.02487625 0.02190211 0.02491005
v -0.02519691 0.02280368 0.02519541
v -0.02552469 0.02400227 0.02553785
v -0.02698547 0.02282814 0.02338337
v -0.02727762 0.02402557 0.02370440
v -0.02895930 0.02421776 0.02179962
v -0.03041295 0.02369942 0.01948820
v -0.02946522 0.02364933 0.02080799
v -0.03073360 0.02241463 0.01822548
v -0.03110414 0.02184969 0.01719104
v -0.03225851 0.02322534 0.01588552
v -0.03270031 0.02377397 0.01528626
v -0.03344138 0.02369942 0.01350276
v -0.03500548 0.02549906 0.00990008
v -0.03548291 0.02549906 0.00810231
v -0.03418246 0.02500634 0.01253967
v -0.03597458 0.02501916 0.00522730
v -0.03609928 0.02557012 0.00457810
v -0.03629168 0.02549906 0.00269472
v -0.03636293 0.02549906 0.00089695
v -0.03614916 0.02420146 0.00089695
v -0.03615985 0.02418865 0.00000520
v -0.03597814 0.02373320 0.00000520
v -0.00221997 0.01909024 -0.03204795
v -0.00270096 0.02234125 -0.03454485
v -0.00270096 0.02351538 -0.03544374
v -0.03247584 0.03010707 0.01634210
v -0.02906262 0.02909951 0.02194944
v -0.02907331 0.02809194 0.02196370
v -0.02838211 0.02809310 0.02286259
v -0.03252572 0.02909951 0.01642770
v -0.03203405 0.02909951 0.01732659
v -0.03115046 0.02909951 0.01889608
v -0.03061603 0.02909951 0.01982350
v -0.02996402 0.02909951 0.02072238
v -0.02838211 0.02729870 0.02286972
v -0.02748070 0.02729870 0.02392556
v -0.00461066 0.02382755 -0.03547228
v -0.00630302 0.02369942 -0.03512984
v -0.00990151 0.02403838 -0.03455199
v -0.00990151 0.02314031 -0.03393846
v -0.01050364 0.02111003 -0.03231191
v -0.01185040 0.02371689 -0.03373871
v -0.01530282 0.02423057 -0.03267574
v -0.01095256 0.01909024 -0.03067108
v -0.01764719 0.02300635 -0.03040712
v -0.01905096 0.02364234 -0.03015030
v -0.02057943 0.02375300 -0.02927281
v -0.02341547 0.02098423 -0.02520642
v -0.02533942 0.02087707 -0.02352280
v -0.02511852 0.02289919 -0.02512795
v -0.02661137 0.02190211 -0.02302341
v -0.02748070 0.02190211 -0.02212453
v -0.02693559 0.02289570 -0.02332304
v -0.02727762 0.02409313 -0.02372255
v -0.02665056 0.02549790 -0.02480692
v -0.02744864 0.02549790 -0.02390803
v -0.02834648 0.02549790 -0.02283793
v -0.02906262 0.02549790 -0.02193904
v -0.03060534 0.02620494 -0.01979884
v -0.03103645 0.02556313 -0.01905690
v -0.03203761 0.02549790 -0.01733047
v -0.03251504 0.02549790 -0.01642445
v -0.03307084 0.02729753 -0.01529014
v -0.03625605 0.02809310 0.00349373
v -0.03614560 0.02909951 0.00449963
v -0.03642350 0.02729753 -0.00090082
v -0.03641638 0.02815135 -0.00090082
v -0.03633799 0.02729753 -0.00269146
v -0.03390455 0.02712514 -0.01332828
v -0.03420384 0.02760738 -0.01261488
v -0.03505892 0.02729753 -0.00989682
v -0.03444611 0.02712514 -0.01187294
v -0.03552922 0.02729753 -0.00809905
v -0.03587126 0.02729753 -0.00644396
v -0.03601734 0.02729753 -0.00554507
v -0.03615629 0.02729753 -0.00449637
v -0.03643063 0.02809310 0.00000520
v -0.03638075 0.02549790 -0.00090082
v -0.03637362 0.02549906 0.00000520
v -0.03615629 0.02729870 0.00449249
v -0.03505536 0.02909951 0.00990008
v -0.03451380 0.02909951 0.01166932
v -0.03418246 0.02909951 0.01256820
v -0.03381905 0.02909951 0.01349562
v -0.03602446 0.02909951 0.00554833
v -0.03583563 0.02909951 0.00644721
v -0.03550784 0.02809194 0.00810231
v -0.03547578 0.02909951 0.00809517
v -0.02744864 0.02549906 0.02388989
v -0.03612066 0.02428532 -0.00269146
v -0.03497341 0.02190211 -0.00449637
v -0.03358390 0.01909024 -0.00629414
v -0.02834648 0.02549906 0.02284119
v -0.02906262 0.02549906 0.02194230
v -0.03057684 0.02498072 0.01975216
v -0.03095450 0.02369942 0.01858931
v -0.03188085 0.02377397 0.01698416
v -0.03245090 0.02442510 0.01630643
v -0.03441761 0.02556313 0.01184053
v -0.03506605 0.02729870 0.00990008
v -0.03552922 0.02729870 0.00810231
v -0.03587126 0.02729870 0.00643295
v -0.03586413 0.02557012 0.00615472
v -0.03301740 0.02549906 0.01528626
v -0.03387249 0.02556313 0.01332441
v -0.03420384 0.02620611 0.01261101
v -0.03600665 0.02621775 0.00545558
v -0.00270096 0.01909024 -0.03201941
v -0.00450377 0.02245307 -0.03445925
v -0.00450377 0.01948046 -0.03217636
v -0.03306372 0.02909951 0.01529340
v -0.02908043 0.02729870 0.02196370
v -0.03252929 0.02809310 0.01644197
v -0.03204474 0.02729870 0.01735513
v -0.03204118 0.02809310 0.01734086
v -0.03165282 0.02809310 0.01803286
v -0.03116115 0.02809194 0.01889608
v -0.03061603 0.02809310 0.01982350
v -0.02997828 0.02729870 0.02072238
v -0.03116471 0.02729870 0.01889608
v -0.00630302 0.02260799 -0.03433797
v -0.00805595 0.02359342 -0.03469467
v -0.00742176 0.02273495 -0.03423096
v -0.00862245 0.02292249 -0.03410254
v -0.00990151 0.02178679 -0.03296110
v -0.00930295 0.02089687 -0.03246885
v -0.00990151 0.01909024 -0.03097071
v -0.01239552 0.01909024 -0.02966519
v -0.02249625 0.02075826 -0.02550605
v -0.02006638 0.02085145 -0.02713974
v -0.02126706 0.02124865 -0.02679017
v -0.02412805 0.02071866 -0.02418626
v -0.02570996 0.02190211 -0.02387950
v -0.02600211 0.02063712 -0.02240276
v -0.02716005 0.02084912 -0.02176069
v -0.02889160 0.02089454 -0.01991298
v -0.02837855 0.02190211 -0.02111863
v -0.02867427 0.02304363 -0.02145393
v -0.02895573 0.02424106 -0.02180350
v -0.03057684 0.02500634 -0.01975603
v -0.03007803 0.02556313 -0.02051224
v -0.03246159 0.02439249 -0.01632457
v -0.03302809 0.02549790 -0.01529014
v -0.03609928 0.02809194 0.00496334
v -0.03629168 0.02549790 -0.00269146
v -0.03419671 0.02640762 -0.01260061
v -0.03501261 0.02549790 -0.00989682
v -0.03448887 0.02549790 -0.01163039
v -0.03547222 0.02549790 -0.00809905
v -0.03586770 0.02549557 -0.00618000
v -0.03601377 0.02609428 -0.00550940
v -0.03602090 0.02729870 0.00552693
v -0.03506249 0.02809310 0.00990008
v -0.03532258 0.02809194 0.00889418
v -0.03444967 0.02738839 0.01186907
v -0.03420384 0.02684908 0.01261101
v -0.03419671 0.02804884 0.01259674
v -0.03482377 0.02809194 0.01067769
v -0.03387249 0.02809310 0.01339575
v -0.03356252 0.02809310 0.01413769
v -0.03604227 0.02446587 -0.00404693
v -0.03572162 0.02379843 -0.00458911
v -0.03472401 0.02190211 -0.00629414
v -0.03420384 0.02098423 -0.00723583
v -0.03343426 0.01909024 -0.00721443
v -0.03060890 0.02618048 0.01980923
v -0.03007803 0.02554682 0.02052263
v -0.03103288 0.02554682 0.01905302
v -0.03203049 0.02549906 0.01731232
v -0.03250791 0.02549906 0.01640630
v -0.03307084 0.02729870 0.01528626
v -0.03356252 0.02809194 0.01413769
v -0.03390455 0.02738839 0.01332441
v -0.00449308 0.01909024 -0.03186960
v -0.00630302 0.01909024 -0.03166984
v -0.00630302 0.02170759 -0.03366023
v -0.03307084 0.02809194 0.01528626
v -0.03253285 0.02729870 0.01644911
v -0.03061246 0.02729870 0.01982350
v -0.00810227 0.01909024 -0.03137735
v -0.00810227 0.01982757 -0.03192667
v -0.02429550 0.02016537 -0.02248836
v -0.03122884 0.01909024 -0.01311426
v -0.02781205 0.02064877 -0.02058358
v -0.02912675 0.02190211 -0.02021975
v -0.03205543 0.01909024 -0.01209410
v -0.03085830 0.02073729 -0.01670267
v -0.03052696 0.02115663 -0.01789406
v -0.03039513 0.02369942 -0.01949208
v -0.03096875 0.02369942 -0.01859319
v -0.03189510 0.02375417 -0.01699517
v -0.03112552 0.02181475 -0.01720919
v -0.03226920 0.02319389 -0.01591080
v -0.03270743 0.02375417 -0.01530441
v -0.03343426 0.02369942 -0.01349237
v -0.03416821 0.02549790 -0.01252927
v -0.03378342 0.02549790 -0.01349237
v -0.03608503 0.02549557 -0.00458911
v -0.03597814 0.02489569 -0.00523831
v -0.03437485 0.02411060 -0.01129509
v -0.03508030 0.02369942 -0.00809905
v -0.03544371 0.02369942 -0.00629414
v -0.03441761 0.02190560 -0.00794210
v -0.03377629 0.02027253 -0.00794210
v -0.03329174 0.01909024 -0.00803484
v -0.03253641 0.01909024 -0.01117381
v -0.03230126 0.02120672 -0.01420577
v -0.03205899 0.02184620 -0.01530441
v -0.03074073 0.02235639 -0.01821509
v -0.03252572 0.02240647 -0.01470515
v -0.03278225 0.02184620 -0.01356371
v -0.03345207 0.02190211 -0.01170173
v -0.03415396 0.02291317 -0.01063876
v -0.03456725 0.02358876 -0.00998243
v -0.03430716 0.02250548 -0.00944024
v -0.03290695 0.01909024 -0.00982548
v -0.03308153 0.01909024 -0.00904074
v -0.03254354 0.02066740 -0.01300725
v -0.03261836 0.01909024 -0.01090272
v -0.03327749 0.02010247 -0.00989682
v -0.03394018 0.02190560 -0.00998243
f 1 2 3
f 1 3 4
f 1 4 12
f 1 12 25
f 1 25 56
f 1 56 59
f 1 59 135
f 1 135 134
f 1 134 57
f 1 57 133
f 1 133 222
f 1 222 323
f 1 323 336
f 1 336 231
f 1 231 142
f 1 142 63
f 1 63 30
f 1 30 15
f 1 15 5
f 1 5 6
f 1 6 2
f 2 6 7
f 2 7 8
f 2 8 9
f 2 9 3
f 3 9 10
f 3 10 11
f 3 11 12
f 3 12 4
f 5 13 14
f 5 14 6
f 5 15 13
f 6 14 16
f 6 16 7
f 7 16 17
f 7 17 8
f 8 17 18
f 8 18 19
f 8 19 20
f 8 20 9
f 9 20 21
f 9 21 22
f 9 22 10
f 10 22 23
f 10 23 24
f 10 24 11
f 11 25 12
f 11 24 26
f 11 26 25
f 13 27 28
f 13 28 29
f 13 29 14
f 13 15 30
f 13 30 31
f 13 31 27
f 14 29 32
f 14 32 33
f 14 33 16
f 16 33 34
f 16 34 35
f 16 35 36
f 16 36 37
f 16 37 38
f 16 38 39
f 16 39 40
f 16 40 41
f 16 41 42
f 16 42 43
f 16 43 18
f 16 18 17
f 18 43 44
f 18 44 19
f 19 44 45
f 19 45 20
f 20 45 21
f 21 46 47
f 21 47 48
f 21 48 49
f 21 49 50
f 21 50 51
f 21 51 52
f 21 52 53
f 21 53 23
f 21 23 22
f 21 45 46
f 23 54 55
f 23 55 24
f 23 53 52
f 23 52 54
f 24 55 26
f 25 26 56
f 26 55 57
f 26 57 58
f 26 58 59
f 26 59 56
f 27 60 28
f 27 31 86
f 27 86 137
f 27 137 60
f 28 60 61
f 28 61 62
f 28 62 32
f 28 32 29
f 30 63 141
f 30 141 64
f 30 64 31
f 31 64 65
f 31 65 66
f 31 66 67
f 31 67 68
f 31 68 69
f 31 69 70
f 31 70 71
f 31 71 72
f 31 72 73
f 31 73 74
f 31 74 75
f 31 75 76
f 31 76 77
f 31 77 78
f 31 78 79
f 31 79 80
f 31 80 81
f 31 81 82
f 31 82 83
f 31 83 84
f 31 84 85
f 31 85 86
f 32 62 87
f 32 87 88
f 32 88 33
f 33 88 34
f 34 89 90
f 34 90 91
f 34 91 92
f 34 92 35
f 34 88 93
f 34 93 89
f 35 92 94
f 35 94 95
f 35 95 36
f 36 95 96
f 36 96 37
f 37 96 38
f 38 97 98
f 38 98 99
f 38 99 39
f 38 96 97
f 39 99 40
f 40 99 100
f 40 100 41
f 41 100 42
f 42 100 101
f 42 101 44
f 42 44 43
f 44 101 45
f 45 101 46
f 46 101 100
f 46 100 47
f 47 100 48
f 48 102 49
f 48 100 99
f 48 99 102
f 49 102 103
f 49 103 104
f 49 104 105
f 49 105 106
f 49 106 107
f 49 107 108
f 49 108 109
f 49 109 110
f 49 110 111
f 49 111 50
f 50 111 51
f 51 111 112
f 51 112 52
f 52 112 113
f 52 113 54
f 54 113 114
f 54 114 55
f 55 115 116
f 55 116 198
f 55 198 297
f 55 297 392
f 55 392 486
f 55 486 559
f 55 559 599
f 55 599 611
f 55 611 610
f 55 610 613
f 55 613 600
f 55 600 580
f 55 580 577
f 55 577 522
f 55 522 438
f 55 438 521
f 55 521 574
f 55 574 569
f 55 569 568
f 55 568 502
f 55 502 417
f 55 417 321
f 55 321 221
f 55 221 133
f 55 133 57
f 55 114 117
f 55 117 118
f 55 118 119
f 55 119 120
f 55 120 121
f 55 121 122
f 55 122 123
f 55 123 124
f 55 124 125
f 55 125 126
f 55 126 127
f 55 127 128
f 55 128 129
f 55 129 130
f 55 130 131
f 55 131 132
f 55 132 115
f 57 134 58
f 58 134 135
f 58 135 59
f 60 136 61
f 60 137 136
f 61 136 138
f 61 138 62
f 62 138 139
f 62 139 140
f 62 140 87
f 63 142 229
f 63 229 141
f 64 141 143
f 64 143 65
f 65 143 66
f 66 143 144
f 66 144 67
f 67 144 68
f 68 144 145
f 68 145 146
f 68 146 69
f 69 146 147
f 69 147 70
f 70 147 148
f 70 148 71
f 71 148 149
f 71 149 72
f 72 149 73
f 73 150 74
f 73 149 150
f 74 151 75
f 74 150 152
f 74 152 153
f 74 153 151
f 75 151 76
f 76 154 77
f 76 151 154
f 77 154 155
f 77 155 78
f 78 155 156
f 78 156 79
f 79 157 158
f 79 158 80
f 79 156 157
f 80 158 81
f 81 158 159
f 81 159 160
f 81 160 82
f 82 161 83
f 82 160 161
f 83 162 163
f 83 163 164
f 83 164 84
f 83 161 162
f 84 164 85
f 85 165 166
f 85 166 167
f 85 167 86
f 85 164 168
f 85 168 165
f 86 167 137
f 87 169 170
f 87 170 88
f 87 140 169
f 88 170 93
f 89 171 172
f 89 172 90
f 89 93 171
f 90 172 173
f 90 173 174
f 90 174 91
f 91 174 175
f 91 175 176
f 91 176 177
f 91 177 92
f 92 178 94
f 92 177 178
f 93 170 179
f 93 179 180
f 93 180 171
f 94 178 181
f 94 181 182
f 94 182 95
f 95 182 104
f 95 104 97
f 95 97 96
f 97 102 99
f 97 99 98
f 97 104 103
f 97 103 102
f 104 182 105
f 105 183 184
f 105 184 185
f 105 185 186
f 105 186 106
f 105 182 181
f 105 181 187
f 105 187 188
f 105 188 183
f 106 186 108
f 106 108 107
f 108 186 189
f 108 189 190
f 108 190 191
f 108 191 192
f 108 192 109
f 109 192 110
f 110 192 193
f 110 193 194
f 110 194 111
f 111 113 112
f 111 194 117
f 111 117 113
f 113 117 114
f 115 195 196
f 115 196 116
f 115 132 197
f 115 197 195
f 116 196 198
f 117 194 118
f 118 194 190
f 118 190 119
f 119 190 199
f 119 199 200
f 119 200 120
f 120 200 201
f 120 201 121
f 121 201 202
f 121 202 203
f 121 203 122
f 122 203 204
f 122 204 205
f 122 205 123
f 123 205 124
f 124 205 206
f 124 206 125
f 125 206 126
f 126 206 207
f 126 207 208
f 126 208 209
f 126 209 210
f 126 210 211
f 126 211 212
f 126 212 127
f 127 212 211
f 127 211 213
f 127 213 128
f 128 213 214
f 128 214 215
f 128 215 129
f 129 215 216
f 129 216 217
f 129 217 130
f 130 217 218
f 130 218 219
f 130 219 220
f 130 220 131
f 131 220 197
f 131 197 132
f 133 221 222
f 136 223 138
f 136 137 224
f 136 224 223
f 137 167 224
f 138 223 139
f 139 223 225
f 139 225 226
f 139 226 140
f 140 226 227
f 140 227 228
f 140 228 169
f 141 229 230
f 141 230 143
f 142 231 229
f 143 230 144
f 144 232 233
f 144 233 145
f 144 230 232
f 145 233 146
f 146 234 235
f 146 235 147
f 146 233 234
f 147 235 236
f 147 236 148
f 148 236 237
f 148 237 152
f 148 152 149
f 149 152 150
f 151 238 239
f 151 239 154
f 151 153 152
f 151 152 240
f 151 240 238
f 152 237 241
f 152 241 240
f 154 239 155
f 155 242 156
f 155 239 242
f 156 242 243
f 156 243 158
f 156 158 157
f 158 244 245
f 158 245 246
f 158 246 247
f 158 247 160
f 158 160 159
f 158 243 244
f 160 247 161
f 161 247 248
f 161 248 249
f 161 249 162
f 162 249 250
f 162 250 251
f 162 251 252
f 162 252 253
f 162 253 163
f 163 253 164
f 164 253 252
f 164 252 254
f 164 254 255
f 164 255 256
f 164 256 257
f 164 257 258
f 164 258 259
f 164 259 260
f 164 260 261
f 164 261 262
f 164 262 263
f 164 263 264
f 164 264 265
f 164 265 266
f 164 266 168
f 165 267 166
f 165 168 268
f 165 268 269
f 165 269 267
f 166 267 270
f 166 270 167
f 167 270 271
f 167 271 272
f 167 272 224
f 168 266 268
f 169 228 273
f 169 273 274
f 169 274 170
f 170 274 275
f 170 275 179
f 171 180 276
f 171 276 172
f 172 277 173
f 172 276 278
f 172 278 277
f 173 277 174
f 174 277 175
f 175 279 176
f 175 277 280
f 175 280 279
f 176 279 281
f 176 281 177
f 177 281 178
f 178 281 187
f 178 187 181
f 179 275 282
f 179 282 180
f 180 282 283
f 180 283 276
f 183 188 284
f 183 284 285
f 183 285 286
f 183 286 287
f 183 287 184
f 184 287 199
f 184 199 288
f 184 288 185
f 185 288 189
f 185 189 186
f 187 281 279
f 187 279 289
f 187 289 188
f 188 290 291
f 188 291 278
f 188 278 284
f 188 289 290
f 189 288 199
f 189 199 190
f 190 194 292
f 190 292 191
f 191 193 192
f 191 292 194
f 191 194 193
f 195 293 294
f 195 294 196
f 195 197 293
f 196 294 198
f 197 295 293
f 197 220 219
f 197 219 295
f 198 294 296
f 198 296 297
f 199 287 298
f 199 298 200
f 200 298 299
f 200 299 201
f 201 299 202
f 202 300 203
f 202 299 300
f 203 300 204
f 204 300 301
f 204 301 302
f 204 302 303
f 204 303 205
f 205 303 304
f 205 304 305
f 205 305 306
f 205 306 307
f 205 307 206
f 206 307 207
f 207 308 309
f 207 309 310
f 207 310 208
f 207 307 308
f 208 310 311
f 208 311 209
f 209 312 210
f 209 311 312
f 210 312 313
f 210 313 211
f 211 314 213
f 211 313 314
f 213 314 214
f 214 314 215
f 215 314 315
f 215 315 316
f 215 316 216
f 216 316 317
f 216 317 318
f 216 318 217
f 217 318 218
f 218 319 320
f 218 320 295
f 218 295 219
f 218 318 319
f 221 321 222
f 222 322 323
f 222 321 324
f 222 324 322
f 223 224 325
f 223 325 326
f 223 326 225
f 224 272 327
f 224 327 325
f 225 326 226
f 226 328 227
f 226 326 329
f 226 329 328
f 227 328 423
f 227 423 330
f 227 330 228
f 228 331 273
f 228 330 331
f 229 231 332
f 229 332 333
f 229 333 230
f 230 333 334
f 230 334 335
f 230 335 232
f 231 336 332
f 232 335 233
f 233 335 234
f 234 335 235
f 235 335 337
f 235 337 236
f 236 337 241
f 236 241 237
f 238 240 241
f 238 241 338
f 238 338 239
f 239 338 242
f 241 337 338
f 242 338 245
f 242 245 244
f 242 244 243
f 245 339 340
f 245 340 247
f 245 247 246
f 245 338 339
f 247 340 248
f 248 340 249
f 249 340 341
f 249 341 250
f 250 341 342
f 250 342 343
f 250 343 344
f 250 344 251
f 251 344 254
f 251 254 252
f 254 344 255
f 255 344 256
f 256 345 257
f 256 344 346
f 256 346 345
f 257 345 258
f 258 347 259
f 258 345 347
f 259 347 260
f 260 347 348
f 260 348 261
f 261 348 349
f 261 349 262
f 262 349 350
f 262 350 351
f 262 351 263
f 263 351 350
f 263 350 352
f 263 352 264
f 264 352 265
f 265 352 353
f 265 353 266
f 266 354 457
f 266 457 355
f 266 355 268
f 266 353 354
f 267 269 356
f 267 356 357
f 267 357 271
f 267 271 270
f 268 358 359
f 268 359 269
f 268 355 360
f 268 360 361
f 268 361 362
f 268 362 363
f 268 363 364
f 268 364 365
f 268 365 366
f 268 366 367
f 268 367 368
f 268 368 369
f 268 369 370
f 268 370 371
f 268 371 358
f 269 359 372
f 269 372 373
f 269 373 374
f 269 374 375
f 269 375 356
f 271 376 327
f 271 327 272
f 271 357 377
f 271 377 376
f 273 282 274
f 273 331 378
f 273 378 379
f 273 379 380
f 273 380 282
f 274 282 275
f 276 381 278
f 276 283 381
f 277 290 280
f 277 278 290
f 278 381 284
f 278 291 290
f 279 280 290
f 279 290 289
f 282 380 382
f 282 382 283
f 283 382 383
f 283 383 381
f 284 381 383
f 284 383 384
f 284 384 385
f 284 385 299
f 284 299 298
f 284 298 386
f 284 386 285
f 285 386 286
f 286 386 387
f 286 387 287
f 287 387 298
f 293 295 294
f 294 388 389
f 294 389 296
f 294 295 390
f 294 390 388
f 295 320 390
f 296 389 297
f 297 391 392
f 297 389 391
f 298 387 386
f 299 385 393
f 299 393 394
f 299 394 300
f 300 394 301
f 301 394 395
f 301 395 302
f 302 395 396
f 302 396 397
f 302 397 303
f 303 397 398
f 303 398 304
f 304 398 399
f 304 399 305
f 305 400 306
f 305 399 401
f 305 401 400
f 306 402 307
f 306 400 402
f 307 402 403
f 307 403 308
f 308 404 309
f 308 403 404
f 309 404 405
f 309 405 406
f 309 406 310
f 310 406 311
f 311 406 312
f 312 407 408
f 312 408 314
f 312 314 313
f 312 406 409
f 312 409 407
f 314 408 410
f 314 410 318
f 314 318 315
f 315 318 317
f 315 317 316
f 318 410 411
f 318 411 412
f 318 412 319
f 319 412 413
f 319 413 414
f 319 414 320
f 320 414 415
f 320 415 416
f 320 416 390
f 321 417 418
f 321 418 324
f 322 324 418
f 322 418 419
f 322 419 332
f 322 332 336
f 322 336 323
f 325 327 326
f 326 327 420
f 326 420 329
f 327 376 420
f 328 329 421
f 328 421 422
f 328 422 423
f 329 420 424
f 329 424 425
f 329 425 426
f 329 426 427
f 329 427 428
f 329 428 421
f 330 423 429
f 330 429 430
f 330 430 378
f 330 378 331
f 332 419 333
f 333 419 334
f 334 419 431
f 334 431 432
f 334 432 335
f 335 432 433
f 335 433 337
f 337 434 435
f 337 435 436
f 337 436 338
f 337 433 434
f 338 436 437
f 338 437 438
f 338 438 439
f 338 439 339
f 339 439 440
f 339 440 441
f 339 441 340
f 340 441 442
f 340 442 341
f 341 442 443
f 341 443 444
f 341 444 342
f 342 444 445
f 342 445 446
f 342 446 447
f 342 447 448
f 342 448 449
f 342 449 343
f 343 449 344
f 344 449 346
f 345 450 451
f 345 451 347
f 345 346 450
f 346 449 450
f 347 451 348
f 348 452 453
f 348 453 349
f 348 451 452
f 349 453 350
f 350 453 352
f 352 453 353
f 353 453 454
f 353 454 455
f 353 455 456
f 353 456 354
f 354 456 457
f 355 457 360
f 356 375 458
f 356 458 459
f 356 459 377
f 356 377 357
f 358 460 461
f 358 461 359
f 358 371 470
f 358 470 462
f 358 462 460
f 359 461 372
f 360 463 361
f 360 457 463
f 361 463 362
f 362 463 464
f 362 464 363
f 363 464 364
f 364 465 365
f 364 464 466
f 364 466 465
f 365 465 467
f 365 467 366
f 366 467 468
f 366 468 367
f 367 468 368
f 368 468 369
f 369 468 469
f 369 469 370
f 370 470 371
f 370 469 470
f 372 471 373
f 372 461 460
f 372 460 471
f 373 471 460
f 373 460 472
f 373 472 473
f 373 473 413
f 373 413 412
f 373 412 374
f 374 412 474
f 374 474 458
f 374 458 375
f 376 475 476
f 376 476 477
f 376 477 478
f 376 478 420
f 376 377 475
f 377 459 479
f 377 479 480
f 377 480 481
f 377 481 482
f 377 482 475
f 378 430 379
f 379 396 380
f 379 430 483
f 379 483 398
f 379 398 396
f 380 396 382
f 382 384 383
f 382 396 384
f 384 396 395
f 384 395 385
f 385 395 393
f 388 472 484
f 388 484 389
f 388 390 416
f 388 416 415
f 388 415 472
f 389 484 485
f 389 485 391
f 391 485 486
f 391 486 392
f 393 395 394
f 396 398 397
f 398 483 399
f 399 487 488
f 399 488 489
f 399 489 400
f 399 400 401
f 399 483 487
f 400 489 490
f 400 490 402
f 402 490 491
f 402 491 403
f 403 491 404
f 404 492 405
f 404 491 492
f 405 492 406
f 406 492 409
f 407 409 493
f 407 493 494
f 407 494 408
f 408 494 495
f 408 495 496
f 408 496 497
f 408 497 410
f 409 492 498
f 409 498 499
f 409 499 500
f 409 500 493
f 410 497 501
f 410 501 411
f 411 474 412
f 411 501 474
f 413 473 415
f 413 415 414
f 415 473 472
f 417 502 418
f 418 503 419
f 418 502 504
f 418 504 503
f 419 503 431
f 420 478 505
f 420 505 424
f 421 428 422
f 422 428 427
f 422 427 506
f 422 506 423
f 423 506 429
f 424 505 507
f 424 507 508
f 424 508 509
f 424 509 425
f 425 509 510
f 425 510 426
f 426 510 511
f 426 511 427
f 427 512 513
f 427 513 506
f 427 511 514
f 427 514 512
f 429 506 488
f 429 488 487
f 429 487 430
f 430 487 483
f 431 503 515
f 431 515 432
f 432 516 433
f 432 515 517
f 432 517 516
f 433 516 518
f 433 518 434
f 434 518 519
f 434 519 435
f 435 519 520
f 435 520 521
f 435 521 438
f 435 438 436
f 436 438 437
f 438 522 523
f 438 523 524
f 438 524 439
f 439 524 440
f 440 524 525
f 440 525 441
f 441 525 442
f 442 523 526
f 442 526 443
f 442 525 524
f 442 524 523
f 443 445 527
f 443 527 444
f 443 526 528
f 443 528 529
f 443 529 445
f 444 527 445
f 445 529 446
f 446 529 530
f 446 530 531
f 446 531 448
f 446 448 447
f 448 531 532
f 448 532 533
f 448 533 450
f 448 450 449
f 450 533 451
f 451 533 452
f 452 533 534
f 452 534 535
f 452 535 453
f 453 535 534
f 453 534 454
f 454 534 455
f 455 534 536
f 455 536 456
f 456 536 537
f 456 537 457
f 457 537 463
f 458 474 459
f 459 474 538
f 459 538 479
f 460 462 472
f 462 470 539
f 462 539 472
f 463 540 464
f 463 537 540
f 464 540 466
f 465 541 467
f 465 466 542
f 465 542 541
f 466 540 542
f 467 543 468
f 467 541 543
f 468 543 544
f 468 544 545
f 468 545 469
f 469 545 470
f 470 545 539
f 472 539 484
f 474 501 546
f 474 546 538
f 475 547 476
f 475 482 481
f 475 481 548
f 475 548 547
f 476 549 550
f 476 550 551
f 476 551 477
f 476 547 552
f 476 552 549
f 477 551 478
f 478 551 553
f 478 553 554
f 478 554 505
f 479 496 495
f 479 495 480
f 479 538 546
f 479 546 496
f 480 495 481
f 481 495 548
f 484 539 555
f 484 555 556
f 484 556 485
f 485 556 557
f 485 557 486
f 486 557 558
f 486 558 559
f 488 506 513
f 488 513 560
f 488 560 561
f 488 561 489
f 489 561 560
f 489 560 562
f 489 562 563
f 489 563 492
f 489 492 490
f 490 492 491
f 492 564 498
f 492 563 564
f 493 500 494
f 494 552 547
f 494 547 548
f 494 548 495
f 494 500 549
f 494 549 552
f 496 546 501
f 496 501 497
f 498 564 565
f 498 565 500
f 498 500 499
f 500 550 549
f 500 565 566
f 500 566 567
f 500 567 550
f 502 568 504
f 503 504 569
f 503 569 570
f 503 570 515
f 504 568 569
f 505 554 571
f 505 571 572
f 505 572 507
f 507 572 508
f 508 514 511
f 508 511 510
f 508 510 509
f 508 572 563
f 508 563 514
f 512 573 513
f 512 514 573
f 513 573 560
f 514 563 562
f 514 562 560
f 514 560 573
f 515 570 574
f 515 574 517
f 516 517 518
f 517 574 575
f 517 575 520
f 517 520 518
f 518 520 519
f 520 575 574
f 520 574 521
f 522 576 528
f 522 528 526
f 522 526 523
f 522 577 576
f 528 578 529
f 528 576 577
f 528 577 578
f 529 578 530
f 530 579 532
f 530 532 531
f 530 578 577
f 530 577 580
f 530 580 581
f 530 581 582
f 530 582 579
f 532 579 533
f 533 579 582
f 533 582 583
f 533 583 534
f 534 583 584
f 534 584 536
f 536 584 585
f 536 585 586
f 536 586 587
f 536 587 588
f 536 588 589
f 536 589 590
f 536 590 591
f 536 591 537
f 537 591 540
f 539 545 592
f 539 592 593
f 539 593 555
f 540 590 542
f 540 591 590
f 541 542 594
f 541 594 543
f 542 590 594
f 543 595 593
f 543 593 544
f 543 594 595
f 544 593 545
f 545 593 592
f 550 567 553
f 550 553 551
f 553 567 554
f 554 566 565
f 554 565 571
f 554 567 566
f 555 593 596
f 555 596 556
f 556 596 557
f 557 596 558
f 558 595 597
f 558 597 598
f 558 598 599
f 558 599 559
f 558 596 595
f 563 572 564
f 564 572 565
f 565 572 571
f 569 574 570
f 580 600 581
f 581 600 601
f 581 601 582
f 582 601 602
f 582 602 586
f 582 586 585
f 582 585 603
f 582 603 584
f 582 584 583
f 584 603 585
f 586 602 587
f 587 602 604
f 587 604 588
f 588 604 589
f 589 604 605
f 589 605 594
f 589 594 590
f 593 595 596
f 594 605 606
f 594 606 607
f 594 607 608
f 594 608 595
f 595 608 609
f 595 609 610
f 595 610 611
f 595 611 597
f 597 611 598
f 598 611 599
f 600 606 612
f 600 612 601
f 600 613 606
f 601 612 605
f 601 605 604
f 601 604 602
f 605 612 606
f 606 613 607
f 607 613 614
f 607 614 615
f 607 615 609
f 607 609 608
f 609 615 614
f 609 614 610
f 610 614 613

