# https://github.com/mikedh/trimesh
v 0.03639017 0.02810493 0.00180079
v 0.02887596 0.02810493 0.00180079
v 0.03638415 0.02910013 0.00180079
v 0.03634056 0.02810493 0.00270081
v 0.02103099 0.02810493 0.02021159
v 0.02103099 0.02964236 0.02197333
v 0.02103099 0.03030687 0.02285421
v 0.02103099 0.03033736 0.02290618
v 0.02945027 0.02872256 0.00180079
v 0.03618570 0.03025744 0.00180079
v 0.03616014 0.03022778 0.00270081
v 0.03633304 0.02910013 0.00270081
v 0.03614811 0.02910013 0.00450086
v 0.03615262 0.02810493 0.00450086
v 0.02103099 0.02810493 0.02974800
v 0.02103099 0.03059379 0.02366942
v 0.03062296 0.02998266 0.00180079
v 0.03565499 0.03050511 0.00180079
v 0.03606993 0.03010776 0.00450086
v 0.03509871 0.03072284 0.00270081
v 0.03509871 0.03060282 0.00450086
v 0.03481456 0.03049494 0.00810095
v 0.03462362 0.03043620 0.00990099
v 0.03601581 0.03002784 0.00549389
v 0.03602633 0.02910013 0.00555134
v 0.03602333 0.02810493 0.00554040
v 0.02196313 0.02810493 0.02907777
v 0.02195260 0.02910013 0.02907503
v 0.02103099 0.02914871 0.02973432
v 0.02103099 0.03069206 0.02418372
v 0.03144384 0.03045937 0.00180079
v 0.03509871 0.03075250 0.00180079
v 0.03329909 0.03093126 0.00990099
v 0.03310214 0.03049494 0.01350108
v 0.03441314 0.03025180 0.01137003
v 0.03505962 0.02910013 0.00990099
v 0.03547908 0.02910013 0.00810095
v 0.03550915 0.02810493 0.00810095
v 0.03566851 0.02810493 0.00736506
v 0.03594214 0.02810493 0.00603828
v 0.02286369 0.02810493 0.02837197
v 0.02182782 0.03019192 0.02897928
v 0.02103099 0.02956949 0.02966319
v 0.02285316 0.02910013 0.02836650
v 0.02103099 0.03098972 0.02576765
v 0.03225570 0.03069235 0.00180079
v 0.03419815 0.03088608 0.00180079
v 0.03329909 0.03098972 0.00810095
v 0.03149947 0.03098972 0.01350108
v 0.03149947 0.03082311 0.01530113
v 0.03272628 0.03032804 0.01530113
v 0.03247971 0.03010748 0.01634614
v 0.03382229 0.02910013 0.01350108
v 0.03418311 0.02910013 0.01257371
v 0.03451688 0.02910013 0.01167368
v 0.03506263 0.02810493 0.00990099
v 0.02335381 0.02810493 0.02796984
v 0.02395068 0.02910013 0.02746648
v 0.02376275 0.03027834 0.02730508
v 0.02245776 0.03048027 0.02790145
v 0.02103099 0.03040796 0.02910239
v 0.02103099 0.03033284 0.02926105
v 0.02103099 0.03098266 0.02609867
v 0.02430098 0.03096120 0.02429862
v 0.02250136 0.03098972 0.02429862
v 0.03329909 0.03098972 0.00180079
v 0.02790022 0.03098972 0.01889848
v 0.02969985 0.03098210 0.01709844
v 0.02969985 0.03074770 0.01889848
v 0.03153104 0.03045428 0.01700816
v 0.03087253 0.03025264 0.01889848
v 0.03252632 0.02910013 0.01643368
v 0.03306606 0.02910013 0.01530113
v 0.03061093 0.03001711 0.01981492
v 0.03387340 0.02810493 0.01340260
v 0.03419664 0.02810493 0.01259285
v 0.03421318 0.02810493 0.01254635
v 0.03447779 0.02810493 0.01179131
v 0.02394918 0.02810493 0.02747195
v 0.02435210 0.02810493 0.02711358
v 0.02485124 0.02910013 0.02666494
v 0.02556087 0.03029161 0.02557069
v 0.02433857 0.03053985 0.02614243
v 0.02103099 0.03080983 0.02789871
v 0.02103099 0.03089823 0.02756770
v 0.02250136 0.03095132 0.02609867
v 0.02613668 0.03054211 0.02433145
v 0.02610060 0.03095414 0.02249857
v 0.02790022 0.03088382 0.02069853
v 0.02791075 0.03048027 0.02245754
v 0.02962167 0.03032126 0.02052892
v 0.02897068 0.03018825 0.02183108
v 0.03226171 0.02810493 0.01694251
v 0.03253083 0.02810493 0.01644462
v 0.03203469 0.02910013 0.01733370
v 0.03204221 0.02810493 0.01734465
v 0.03277138 0.02810493 0.01593853
v 0.03307056 0.02810493 0.01530113
v 0.02838133 0.02910013 0.02285694
v 0.02906389 0.02910013 0.02195692
v 0.02996295 0.02910013 0.02072862
v 0.03061995 0.02910013 0.01982860
v 0.03115518 0.02910013 0.01889848
v 0.02484974 0.02810493 0.02666768
v 0.02576082 0.02810493 0.02576765
v 0.02575180 0.02910013 0.02576492
v 0.02665086 0.02910013 0.02483480
v 0.02731839 0.03028201 0.02375149
v 0.02748076 0.02910013 0.02393478
v 0.03116270 0.02810493 0.01889848
v 0.02838133 0.02810493 0.02286515
v 0.02907141 0.02810493 0.02196513
v 0.02947433 0.02810493 0.02141526
v 0.03061995 0.02810493 0.01982860
v 0.03026514 0.02810493 0.02032648
v 0.02616375 0.02810493 0.02535184
v 0.02666139 0.02810493 0.02483754
v 0.02748076 0.02810493 0.02393752
v 0.02703123 0.02810493 0.02443540
f 1 2 9
f 1 9 17
f 1 17 31
f 1 31 46
f 1 46 66
f 1 66 47
f 1 47 32
f 1 32 18
f 1 18 10
f 1 10 3
f 1 3 4
f 1 4 14
f 1 14 26
f 1 26 40
f 1 40 39
f 1 39 38
f 1 38 56
f 1 56 78
f 1 78 77
f 1 77 76
f 1 76 75
f 1 75 98
f 1 98 97
f 1 97 94
f 1 94 93
f 1 93 96
f 1 96 110
f 1 110 114
f 1 114 115
f 1 115 113
f 1 113 112
f 1 112 111
f 1 111 118
f 1 118 119
f 1 119 117
f 1 117 116
f 1 116 105
f 1 105 104
f 1 104 80
f 1 80 79
f 1 79 57
f 1 57 41
f 1 41 27
f 1 27 15
f 1 15 5
f 1 5 2
f 2 5 6
f 2 6 7
f 2 7 8
f 2 8 9
f 3 10 11
f 3 11 12
f 3 12 4
f 4 12 13
f 4 13 14
f 5 15 29
f 5 29 43
f 5 43 62
f 5 62 61
f 5 61 84
f 5 84 85
f 5 85 63
f 5 63 45
f 5 45 30
f 5 30 16
f 5 16 8
f 5 8 7
f 5 7 6
f 8 16 17
f 8 17 9
f 10 18 11
f 11 19 12
f 11 18 20
f 11 20 21
f 11 21 22
f 11 22 23
f 11 23 19
f 12 19 24
f 12 24 13
f 13 24 25
f 13 25 14
f 14 25 26
f 15 27 28
f 15 28 29
f 16 30 31
f 16 31 17
f 18 32 20
f 19 23 24
f 20 32 33
f 20 33 22
f 20 22 21
f 22 33 23
f 23 33 34
f 23 34 35
f 23 35 24
f 24 35 36
f 24 36 37
f 24 37 38
f 24 38 39
f 24 39 25
f 25 40 26
f 25 39 40
f 27 41 28
f 28 42 43
f 28 43 29
f 28 41 44
f 28 44 42
f 30 45 31
f 31 45 46
f 32 47 48
f 32 48 33
f 33 48 49
f 33 49 50
f 33 50 34
f 34 50 51
f 34 51 35
f 35 51 52
f 35 52 53
f 35 53 54
f 35 54 55
f 35 55 36
f 36 55 56
f 36 56 38
f 36 38 37
f 41 57 58
f 41 58 44
f 42 44 58
f 42 58 59
f 42 59 60
f 42 60 61
f 42 61 62
f 42 62 43
f 45 63 64
f 45 64 65
f 45 65 67
f 45 67 49
f 45 49 48
f 45 48 66
f 45 66 46
f 47 66 48
f 49 67 68
f 49 68 50
f 50 68 69
f 50 69 70
f 50 70 51
f 51 70 71
f 51 71 52
f 52 72 73
f 52 73 53
f 52 71 74
f 52 74 72
f 53 75 76
f 53 76 54
f 53 73 75
f 54 76 55
f 55 76 77
f 55 77 78
f 55 78 56
f 57 79 58
f 58 79 80
f 58 80 81
f 58 81 59
f 59 81 82
f 59 82 83
f 59 83 60
f 60 83 84
f 60 84 61
f 63 85 86
f 63 86 64
f 64 86 83
f 64 83 87
f 64 87 88
f 64 88 67
f 64 67 65
f 67 88 68
f 68 88 89
f 68 89 69
f 69 89 90
f 69 90 91
f 69 91 71
f 69 71 70
f 71 91 92
f 71 92 74
f 72 93 94
f 72 94 73
f 72 74 95
f 72 95 96
f 72 96 93
f 73 94 97
f 73 97 98
f 73 98 75
f 74 92 99
f 74 99 100
f 74 100 101
f 74 101 102
f 74 102 103
f 74 103 95
f 80 104 81
f 81 104 105
f 81 105 106
f 81 106 82
f 82 106 107
f 82 107 108
f 82 108 87
f 82 87 83
f 83 86 85
f 83 85 84
f 87 108 90
f 87 90 89
f 87 89 88
f 90 108 92
f 90 92 91
f 92 108 109
f 92 109 99
f 95 103 96
f 96 103 110
f 99 109 111
f 99 111 112
f 99 112 100
f 100 113 101
f 100 112 113
f 101 113 102
f 102 114 110
f 102 110 103
f 102 113 115
f 102 115 114
f 105 116 106
f 106 116 117
f 106 117 107
f 107 117 109
f 107 109 108
f 109 118 111
f 109 117 119
f 109 119 118

