# https://github.com/mikedh/trimesh
v -0.02080483 0.02809350 0.02037984
v -0.02080483 0.02809350 0.02990997
v -0.02080483 0.02825966 0.02052602
v -0.00003593 0.02809350 0.02881125
v -0.02063203 0.02809350 0.03003257
v -0.02052632 0.02918178 0.03009702
v -0.02080483 0.02897138 0.02990054
v -0.02080483 0.02953396 0.02208215
v -0.00003593 0.02994936 0.03067389
v -0.00003593 0.02809350 0.03643472
v -0.02017664 0.02809350 0.03035480
v -0.01981071 0.02863651 0.03060787
v -0.01979444 0.02983622 0.03059530
v -0.02080483 0.02916590 0.02989740
v -0.02080483 0.03025702 0.02298597
v -0.00003593 0.03023320 0.03114073
v -0.00090198 0.02809350 0.03643629
v -0.00003593 0.02816411 0.03643472
v -0.01981071 0.02809350 0.03060630
v -0.01897312 0.02809350 0.03110458
v -0.01907680 0.02918178 0.03103384
v -0.02080483 0.03037271 0.02934253
v -0.01735690 0.02910012 0.03203511
v -0.01637091 0.03012743 0.03249252
v -0.01859295 0.03031684 0.03095211
v -0.02080483 0.03045720 0.02348739
v -0.00003593 0.03049492 0.03157299
v -0.00270117 0.02809350 0.03635613
v -0.00003593 0.02910012 0.03642372
v -0.00090198 0.02910012 0.03642372
v -0.00270117 0.02910012 0.03634513
v -0.01821889 0.02809350 0.03154469
v -0.02069912 0.03039142 0.02938026
v -0.02080483 0.03086212 0.02790115
v -0.01735284 0.02809350 0.03204454
v -0.01645629 0.02910012 0.03253653
v -0.01529953 0.02910012 0.03306625
v -0.01260380 0.03000324 0.03420112
v -0.01529953 0.03033952 0.03272987
v -0.01702146 0.03046458 0.03153055
v -0.01907680 0.03058593 0.02987696
v -0.02080483 0.03064605 0.02416800
v -0.00003593 0.03099000 0.03329888
v -0.00370749 0.02809350 0.03624767
v -0.00003593 0.03028196 0.03620523
v -0.00090198 0.03028196 0.03620523
v -0.00270117 0.03023490 0.03616594
v -0.00450035 0.03009908 0.03606534
v -0.00543349 0.03000692 0.03600403
v -0.00450035 0.02910012 0.03614550
v -0.02069912 0.03088622 0.02790115
v -0.02080483 0.03098773 0.02610138
v -0.01695641 0.02809350 0.03226460
v -0.01645223 0.02809350 0.03253339
v -0.01529953 0.02809350 0.03307096
v -0.01351254 0.02910012 0.03382859
v -0.01261397 0.02910012 0.03420584
v -0.01169913 0.02910012 0.03450763
v -0.00990197 0.02910012 0.03504521
v -0.00810076 0.02910012 0.03549947
v -0.01169913 0.03018244 0.03434888
v -0.01529953 0.03083433 0.03149911
v -0.00990197 0.03042743 0.03461295
v -0.01169913 0.03067753 0.03329888
v -0.02069912 0.03099000 0.02610138
v -0.00810076 0.03099000 0.03329888
v -0.00003593 0.03087913 0.03423570
v -0.00450035 0.02809350 0.03615965
v -0.00003593 0.03051959 0.03567395
v -0.00090198 0.03077677 0.03509865
v -0.00270117 0.03072998 0.03509865
v -0.00810076 0.03049492 0.03483143
v -0.00638899 0.02910012 0.03585628
v -0.00548838 0.02910012 0.03601189
v -0.01709872 0.03098008 0.02969934
v -0.01889993 0.03099000 0.02790115
v -0.01341699 0.02809350 0.03387260
v -0.01298803 0.02809350 0.03405337
v -0.01261397 0.02809350 0.03420426
v -0.01179264 0.02809350 0.03447934
v -0.00990197 0.02809350 0.03505935
v -0.00810076 0.02809350 0.03551833
v -0.00642762 0.02809350 0.03586728
v -0.01349831 0.03098631 0.03149911
v -0.00990197 0.03092252 0.03329888
v -0.00003593 0.03077677 0.03509865
v -0.00552904 0.02809350 0.03601975
v -0.00603118 0.02809350 0.03593645
f 1 2 7
f 1 7 14
f 1 14 22
f 1 22 34
f 1 34 52
f 1 52 42
f 1 42 26
f 1 26 15
f 1 15 8
f 1 8 3
f 1 3 4
f 1 4 10
f 1 10 17
f 1 17 28
f 1 28 44
f 1 44 68
f 1 68 87
f 1 87 88
f 1 88 83
f 1 83 82
f 1 82 81
f 1 81 80
f 1 80 79
f 1 79 78
f 1 78 77
f 1 77 55
f 1 55 54
f 1 54 53
f 1 53 35
f 1 35 32
f 1 32 20
f 1 20 19
f 1 19 11
f 1 11 5
f 1 5 2
f 2 5 6
f 2 6 7
f 3 8 9
f 3 9 4
f 4 9 16
f 4 16 27
f 4 27 43
f 4 43 67
f 4 67 86
f 4 86 69
f 4 69 45
f 4 45 29
f 4 29 18
f 4 18 10
f 5 11 6
f 6 11 12
f 6 12 13
f 6 13 14
f 6 14 7
f 8 15 9
f 9 15 16
f 10 18 17
f 11 19 12
f 12 19 20
f 12 20 21
f 12 21 13
f 13 22 14
f 13 21 23
f 13 23 24
f 13 24 25
f 13 25 22
f 15 26 27
f 15 27 16
f 17 18 29
f 17 29 30
f 17 30 31
f 17 31 28
f 20 32 21
f 21 32 23
f 22 25 33
f 22 33 34
f 23 32 35
f 23 35 36
f 23 36 24
f 24 36 37
f 24 37 38
f 24 38 39
f 24 39 25
f 25 39 40
f 25 40 41
f 25 41 33
f 26 42 43
f 26 43 27
f 28 31 44
f 29 45 46
f 29 46 30
f 30 46 47
f 30 47 31
f 31 47 48
f 31 48 49
f 31 49 50
f 31 50 44
f 33 41 51
f 33 51 34
f 34 51 52
f 35 53 36
f 36 53 54
f 36 54 55
f 36 55 37
f 37 55 56
f 37 56 38
f 38 56 57
f 38 57 58
f 38 58 59
f 38 59 60
f 38 60 49
f 38 49 61
f 38 61 39
f 39 62 40
f 39 61 63
f 39 63 64
f 39 64 62
f 40 62 41
f 41 62 51
f 42 52 65
f 42 65 43
f 43 66 67
f 43 65 76
f 43 76 66
f 44 50 68
f 45 69 46
f 46 69 70
f 46 70 71
f 46 71 47
f 47 71 72
f 47 72 48
f 48 72 63
f 48 63 49
f 49 60 73
f 49 73 74
f 49 74 50
f 49 63 61
f 50 74 68
f 51 62 75
f 51 75 76
f 51 76 52
f 52 76 65
f 55 77 56
f 56 77 78
f 56 78 57
f 57 78 79
f 57 79 80
f 57 80 58
f 58 80 81
f 58 81 59
f 59 81 82
f 59 82 60
f 60 82 83
f 60 83 73
f 62 84 75
f 62 64 85
f 62 85 84
f 63 85 64
f 63 72 85
f 66 85 71
f 66 71 70
f 66 70 67
f 66 76 84
f 66 84 85
f 67 70 86
f 68 74 87
f 69 86 70
f 71 85 72
f 73 83 88
f 73 88 74
f 74 88 87
f 75 84 76

