# https://github.com/mikedh/trimesh
v 0.03404196 0.01909024 -0.00089867
v 0.03371303 0.01829974 -0.00089867
v 0.03057491 0.01089147 -0.00269885
v 0.03364160 0.01829974 -0.00269885
v 0.03396721 0.01909024 -0.00269885
v 0.03403532 0.01909024 0.00089886
v 0.03084072 0.01142275 -0.00089867
v 0.03059152 0.01089147 -0.00202877
v 0.03050348 0.01089147 -0.00404700
v 0.03047856 0.01089147 -0.00449904
v 0.03242389 0.01553980 -0.00388480
v 0.03350039 0.01829974 -0.00449904
v 0.03382267 0.01909024 -0.00449904
v 0.03395558 0.01909024 0.00269905
v 0.03054501 0.01089147 0.00269905
v 0.03058654 0.01089147 0.00155831
v 0.03060980 0.01089147 0.00089886
v 0.03061811 0.01089147 -0.00089867
v 0.03061478 0.01089147 -0.00017008
v 0.03032905 0.01089147 -0.00630189
v 0.03012969 0.01089147 -0.00803028
v 0.03360671 0.01909024 -0.00629923
v 0.03390740 0.01909024 0.00324681
v 0.03043038 0.01089147 0.00449923
v 0.02985891 0.01089147 -0.00989960
v 0.03331267 0.01909024 -0.00804091
v 0.03379277 0.01909024 0.00449923
v 0.03041211 0.01089147 0.00469068
v 0.02919108 0.01089147 -0.01177424
v 0.03064801 0.01366666 -0.01095259
v 0.03292061 0.01909024 -0.00983578
v 0.03369642 0.01909024 0.00523579
v 0.03003833 0.01089147 0.00809960
v 0.03021110 0.01089147 0.00671423
v 0.03024100 0.01089147 0.00644301
v 0.03066960 0.01182483 0.00598299
v 0.02897013 0.01089147 -0.01208535
v 0.03206008 0.01909024 -0.01209599
v 0.03239067 0.01909024 -0.01148706
v 0.03083573 0.01470034 -0.01134879
v 0.03254683 0.01909024 -0.01118393
v 0.03250862 0.01890325 -0.01108820
v 0.03228933 0.01770345 -0.01031175
v 0.03354192 0.01909024 0.00637387
v 0.03001175 0.01089147 0.00830169
v 0.03175607 0.01909024 -0.01251080
v 0.02810794 0.01089147 -0.01260387
v 0.02884222 0.01169963 -0.01262248
v 0.03336251 0.01909024 0.00741357
v 0.02976920 0.01089147 0.00991043
v 0.03122945 0.01909024 -0.01311441
v 0.02782885 0.01089147 -0.01263844
v 0.02969943 0.01909024 -0.01351593
v 0.03016790 0.01909024 -0.01343615
v 0.03321964 0.01909024 0.00818469
v 0.03284253 0.01909024 0.00989979
v 0.03061811 0.01374852 0.01085705
v 0.02972435 0.01089147 0.01009922
v 0.03298042 0.01909024 0.00928821
v 0.02609948 0.01089147 -0.01266769
v 0.01707220 0.01089548 -0.01282723
v 0.02789862 0.01909024 -0.01352922
v 0.03258005 0.01909024 0.01090758
v 0.03249201 0.01895221 0.01104585
v 0.03252025 0.01909024 0.01112030
v 0.02914623 0.01089147 0.01172391
v 0.01710044 0.01089147 -0.01281659
v 0.01707220 0.01909024 -0.01357974
v 0.01707220 0.01089147 -0.00938640
v 0.03202353 0.01909024 0.01204034
v 0.02917945 0.01114829 0.01181432
v 0.02883890 0.01178069 0.01262001
v 0.02852824 0.01089147 0.01252429
v 0.01707220 0.01909024 0.01358525
v 0.01707220 0.01089147 0.01284337
v 0.03120453 0.01909024 0.01309864
v 0.02969943 0.01909024 0.01351346
v 0.02776406 0.01089147 0.01263863
v 0.02789862 0.01909024 0.01352941
v 0.02760790 0.01089147 0.01264395
f 1 2 3
f 1 3 4
f 1 4 5
f 1 5 13
f 1 13 22
f 1 22 26
f 1 26 31
f 1 31 41
f 1 41 39
f 1 39 38
f 1 38 46
f 1 46 51
f 1 51 54
f 1 54 53
f 1 53 62
f 1 62 68
f 1 68 74
f 1 74 79
f 1 79 77
f 1 77 76
f 1 76 70
f 1 70 65
f 1 65 63
f 1 63 56
f 1 56 59
f 1 59 55
f 1 55 49
f 1 49 44
f 1 44 32
f 1 32 27
f 1 27 23
f 1 23 14
f 1 14 6
f 1 6 2
f 2 7 8
f 2 8 3
f 2 6 7
f 3 9 4
f 3 8 18
f 3 18 19
f 3 19 17
f 3 17 16
f 3 16 15
f 3 15 24
f 3 24 28
f 3 28 35
f 3 35 34
f 3 34 33
f 3 33 45
f 3 45 50
f 3 50 58
f 3 58 66
f 3 66 73
f 3 73 78
f 3 78 80
f 3 80 75
f 3 75 69
f 3 69 67
f 3 67 60
f 3 60 52
f 3 52 47
f 3 47 37
f 3 37 29
f 3 29 25
f 3 25 21
f 3 21 20
f 3 20 10
f 3 10 9
f 4 9 10
f 4 10 5
f 5 10 11
f 5 11 12
f 5 12 13
f 6 14 15
f 6 15 16
f 6 16 17
f 6 17 7
f 7 18 8
f 7 17 19
f 7 19 18
f 10 20 12
f 10 12 11
f 12 20 13
f 13 20 21
f 13 21 22
f 14 23 24
f 14 24 15
f 21 25 22
f 22 25 26
f 23 27 24
f 24 27 28
f 25 29 30
f 25 30 31
f 25 31 26
f 27 32 33
f 27 33 34
f 27 34 35
f 27 35 36
f 27 36 28
f 28 36 35
f 29 37 38
f 29 38 39
f 29 39 40
f 29 40 30
f 30 40 41
f 30 41 42
f 30 42 43
f 30 43 31
f 31 43 42
f 31 42 41
f 32 44 45
f 32 45 33
f 37 46 38
f 37 47 48
f 37 48 46
f 39 41 40
f 44 49 50
f 44 50 45
f 46 48 51
f 47 52 48
f 48 52 53
f 48 53 54
f 48 54 51
f 49 55 50
f 50 56 57
f 50 57 58
f 50 55 59
f 50 59 56
f 52 60 61
f 52 61 53
f 53 61 62
f 56 63 57
f 57 63 64
f 57 64 65
f 57 65 66
f 57 66 58
f 60 67 61
f 61 68 62
f 61 67 69
f 61 69 75
f 61 75 74
f 61 74 68
f 63 65 64
f 65 70 66
f 66 70 71
f 66 71 72
f 66 72 73
f 70 72 71
f 70 76 72
f 72 76 77
f 72 77 78
f 72 78 73
f 74 75 79
f 75 80 77
f 75 77 79
f 77 80 78

