# https://github.com/mikedh/trimesh
v 0.01707219 0.01909024 0.01358153
v 0.01343568 0.01909024 0.02784552
v 0.01707219 0.01089147 0.01283868
v 0.01707219 0.01909024 -0.01357935
v 0.01287835 0.01909024 0.02910649
v 0.01707219 0.01089147 -0.00938442
v 0.01260739 0.01377420 0.02521745
v 0.01261970 0.01188823 0.02345708
v 0.01232410 0.01089147 0.02300138
v 0.01707219 0.01089548 -0.01282401
v 0.01343260 0.01909024 -0.02784333
v 0.01248114 0.01909024 0.02951225
v 0.01241648 0.01089147 -0.02197543
v 0.01150812 0.01089147 0.02371926
v 0.01203774 0.01089147 0.02325732
v 0.01232102 0.01089147 -0.02221889
v 0.01220401 0.01089147 -0.02247483
v 0.01313392 0.01909024 -0.02862364
v 0.01168055 0.01909024 0.02993674
v 0.00989155 0.01089147 0.02438096
v 0.01101545 0.01728372 0.02888801
v 0.01048275 0.01209288 0.02513005
v 0.01134492 0.01089147 -0.02399174
v 0.01286296 0.01909024 -0.02909806
v 0.01051970 0.01909024 0.03046110
v 0.00824111 0.01089147 0.02469933
v 0.00946354 0.01909024 0.03073577
v 0.00944199 0.01905172 0.03071080
v 0.01126178 0.01089147 -0.02412284
v 0.01194844 0.01909024 -0.02997201
v 0.01091692 0.01185291 -0.02530266
v 0.00809947 0.01089147 0.02472429
v 0.00810871 0.01909024 0.03091056
v 0.00731428 0.01377420 0.02701527
v 0.00989771 0.01089147 -0.02492187
v 0.01162821 0.01909024 -0.03020298
v 0.01063363 0.01386008 -0.02695066
v 0.01094155 0.01909024 -0.03068365
v -0.00449745 0.01089147 0.02532357
v -0.00449745 0.01909024 0.03165965
v 0.00944815 0.01089147 -0.02500926
v 0.00943275 0.01366024 -0.02710048
v 0.00989771 0.01162178 -0.02547120
v 0.00989771 0.01888078 -0.03083346
v 0.00989771 0.01909024 -0.03098328
v -0.00629877 0.01089147 0.02528612
v -0.00589848 0.01550047 0.02887552
v -0.00534423 0.01909024 0.03162844
v 0.00809947 0.01089147 -0.02526520
v 0.00809947 0.01139868 -0.02564599
v 0.00864140 0.01567382 -0.02874224
v 0.00809947 0.01909024 -0.03137031
v 0.00950357 0.01909024 -0.03107067
v -0.00809701 0.01089147 0.02502393
v -0.00629877 0.01909024 0.03157850
v 0.00719419 0.01089147 -0.02535884
v 0.00449067 0.01909024 -0.03188219
v 0.00517425 0.01909024 -0.03180104
v 0.00629815 0.01909024 -0.03166371
v 0.00726501 0.01909024 -0.03150765
v 0.00809947 0.01862557 -0.03102698
v -0.00987370 0.01089147 0.02471805
v -0.00740112 0.01909024 0.03137874
v 0.00629815 0.01089147 -0.02544623
v 0.00385944 0.01736558 -0.03062122
v 0.00269859 0.01909024 -0.03203825
v -0.00989833 0.01089147 0.02471181
v -0.00809701 0.01909024 0.03124765
v -0.00971358 0.01909024 0.03086686
v -0.01092986 0.01193558 0.02524242
v 0.00516809 0.01089147 -0.02553363
v 0.00449991 0.01119322 -0.02582078
v 0.00090035 0.01909024 -0.03210692
v 0.00269859 0.01525570 -0.02906685
v -0.01159804 0.01089147 0.02400641
v -0.00989217 0.01909024 0.03082316
v -0.01041563 0.01909024 0.03067959
v -0.01093601 0.01909024 0.03051728
v -0.01159496 0.01909024 0.03021140
v -0.01190596 0.01909024 0.03003662
v 0.00449991 0.01089147 -0.02558357
v 0.00269859 0.01089147 -0.02568345
v -0.00089789 0.01909024 -0.03211316
v 0.00090035 0.01727570 -0.03069613
v -0.01212766 0.01089147 0.02354447
v -0.01296519 0.01909024 0.02921886
v 0.00134375 0.01089147 -0.02571466
v 0.00090035 0.01226382 -0.02679460
v -0.00269921 0.01829974 -0.03142025
v -0.00269921 0.01909024 -0.03203201
v -0.00089789 0.01110495 -0.02589569
v -0.00269921 0.01089147 -0.02568345
v -0.01262032 0.01177667 0.02348205
v -0.01257414 0.01089147 0.02270798
v -0.01262032 0.01371401 0.02524866
v -0.01317458 0.01909024 0.02878813
v 0.00090035 0.01089147 -0.02572090
v -0.00046989 0.01089147 -0.02572714
v -0.00449745 0.01089147 -0.02558981
v -0.00449129 0.01909024 -0.03188844
v -0.00629877 0.01089147 -0.02545872
v -0.00089789 0.01089147 -0.02572714
v -0.01347326 0.01909024 0.02785800
v -0.01438469 0.01089147 0.01413087
v -0.00629877 0.01909024 -0.03167619
v -0.00504862 0.01743540 -0.03057128
v -0.00809701 0.01089147 -0.02527769
v -0.01438469 0.01909024 0.01433062
v -0.01438469 0.01089147 -0.01410995
v -0.00809701 0.01861996 -0.03103322
v -0.00809701 0.01909024 -0.03138280
v -0.00989833 0.01089147 -0.02492811
v -0.00943030 0.01366024 -0.02710048
v -0.00865434 0.01567221 -0.02874224
v -0.01438469 0.01909024 -0.01433468
v -0.01438469 0.01110013 -0.01411620
v -0.01343939 0.01909024 -0.02784957
v -0.01257722 0.01089147 -0.02141986
v -0.00989833 0.01909024 -0.03098952
v -0.01005229 0.01089147 -0.02487817
v -0.01063118 0.01386088 -0.02695066
v -0.00989833 0.01162018 -0.02547120
v -0.01287282 0.01909024 -0.02911055
v -0.01231857 0.01112902 -0.02246234
v -0.01241710 0.01089147 -0.02196919
v -0.01094525 0.01908864 -0.03067740
v -0.01094833 0.01909024 -0.03067740
v -0.01125933 0.01089147 -0.02412284
v -0.01091754 0.01185211 -0.02530266
v -0.01239247 0.01909024 -0.02967237
v -0.01220156 0.01089147 -0.02247483
v -0.01115156 0.01707104 -0.02903564
f 1 2 3
f 1 3 6
f 1 6 10
f 1 10 4
f 1 4 11
f 1 11 18
f 1 18 24
f 1 24 30
f 1 30 36
f 1 36 38
f 1 38 45
f 1 45 53
f 1 53 52
f 1 52 60
f 1 60 59
f 1 59 58
f 1 58 57
f 1 57 66
f 1 66 73
f 1 73 83
f 1 83 90
f 1 90 100
f 1 100 105
f 1 105 111
f 1 111 119
f 1 119 127
f 1 127 130
f 1 130 123
f 1 123 117
f 1 117 115
f 1 115 108
f 1 108 103
f 1 103 96
f 1 96 86
f 1 86 80
f 1 80 79
f 1 79 78
f 1 78 77
f 1 77 76
f 1 76 69
f 1 69 68
f 1 68 63
f 1 63 55
f 1 55 48
f 1 48 40
f 1 40 33
f 1 33 27
f 1 27 25
f 1 25 19
f 1 19 12
f 1 12 5
f 1 5 2
f 2 5 3
f 3 5 7
f 3 7 8
f 3 8 9
f 3 9 15
f 3 15 14
f 3 14 20
f 3 20 26
f 3 26 32
f 3 32 39
f 3 39 46
f 3 46 54
f 3 54 62
f 3 62 67
f 3 67 75
f 3 75 85
f 3 85 94
f 3 94 104
f 3 104 109
f 3 109 118
f 3 118 125
f 3 125 131
f 3 131 128
f 3 128 120
f 3 120 112
f 3 112 107
f 3 107 101
f 3 101 99
f 3 99 92
f 3 92 102
f 3 102 98
f 3 98 97
f 3 97 87
f 3 87 82
f 3 82 81
f 3 81 71
f 3 71 64
f 3 64 56
f 3 56 49
f 3 49 41
f 3 41 35
f 3 35 29
f 3 29 23
f 3 23 17
f 3 17 16
f 3 16 13
f 3 13 6
f 4 10 11
f 5 12 7
f 6 13 10
f 7 12 14
f 7 14 15
f 7 15 9
f 7 9 8
f 10 13 16
f 10 16 17
f 10 17 18
f 10 18 11
f 12 19 14
f 14 19 21
f 14 21 22
f 14 22 20
f 17 23 18
f 18 23 24
f 19 25 21
f 20 22 25
f 20 25 27
f 20 27 28
f 20 28 26
f 21 25 22
f 23 29 24
f 24 29 31
f 24 31 30
f 26 28 32
f 27 33 28
f 28 33 34
f 28 34 32
f 29 35 31
f 30 31 36
f 31 37 38
f 31 38 36
f 31 35 37
f 32 34 39
f 33 40 34
f 34 40 39
f 35 41 42
f 35 42 43
f 35 43 37
f 37 43 42
f 37 42 44
f 37 44 38
f 38 44 45
f 39 40 47
f 39 47 46
f 40 48 47
f 41 49 42
f 42 49 50
f 42 50 51
f 42 51 52
f 42 52 44
f 44 52 53
f 44 53 45
f 46 47 55
f 46 55 54
f 47 48 55
f 49 56 57
f 49 57 58
f 49 58 59
f 49 59 50
f 50 59 51
f 51 59 60
f 51 60 61
f 51 61 52
f 52 61 60
f 54 55 62
f 55 63 62
f 56 64 57
f 57 64 65
f 57 65 66
f 62 63 68
f 62 68 69
f 62 69 70
f 62 70 67
f 64 71 72
f 64 72 65
f 65 72 66
f 66 72 74
f 66 74 73
f 67 70 75
f 69 76 70
f 70 76 77
f 70 77 78
f 70 78 79
f 70 79 80
f 70 80 75
f 71 81 72
f 72 81 82
f 72 82 74
f 73 74 82
f 73 82 84
f 73 84 83
f 75 80 86
f 75 86 85
f 82 87 88
f 82 88 84
f 83 89 90
f 83 84 88
f 83 88 91
f 83 91 92
f 83 92 89
f 85 93 94
f 85 86 95
f 85 95 93
f 86 96 95
f 87 97 88
f 88 97 98
f 88 98 91
f 89 92 99
f 89 99 90
f 90 99 101
f 90 101 100
f 91 98 102
f 91 102 92
f 93 95 96
f 93 96 103
f 93 103 94
f 94 103 104
f 100 101 106
f 100 106 107
f 100 107 105
f 101 107 106
f 103 108 104
f 104 108 115
f 104 115 116
f 104 116 109
f 105 110 111
f 105 107 110
f 107 112 113
f 107 113 114
f 107 114 110
f 109 116 117
f 109 117 118
f 110 114 111
f 111 114 113
f 111 113 119
f 112 120 121
f 112 121 122
f 112 122 113
f 113 122 121
f 113 121 119
f 115 117 116
f 117 123 124
f 117 124 125
f 117 125 118
f 119 126 127
f 119 121 126
f 120 128 129
f 120 129 121
f 121 129 127
f 121 127 126
f 123 130 128
f 123 128 131
f 123 131 124
f 124 131 125
f 127 129 132
f 127 132 130
f 128 130 129
f 129 130 132

