# https://github.com/mikedh/trimesh
v 0.03959682 0.04043397 0.02697585
v 0.01377127 0.04043397 0.02697585
v 0.03961770 0.04043097 0.02697585
v 0.03959682 0.04043397 0.00060269
v 0.01377127 0.04043397 0.00060269
v 0.01377127 0.01850600 0.02697585
v 0.04021811 0.04021403 0.02697585
v 0.03963597 0.04042494 0.01494853
v 0.03963597 0.04042494 0.01494585
v 0.04021811 0.04021403 0.00060269
v 0.04014241 0.04014173 0.00000696
v 0.03959682 0.04021403 -0.00008964
v 0.01377127 0.04027730 0.00010625
v 0.01377127 0.01850299 0.02619765
v 0.01751993 0.00965708 0.02697585
v 0.04044000 0.03959639 0.02697585
v 0.04044000 0.03959639 0.00060269
v 0.04021811 0.03959639 -0.00008964
v 0.03959682 0.03959639 -0.00039824
v 0.03879801 0.03959639 -0.00041166
v 0.01377127 0.03977415 -0.00032042
v 0.01377127 0.04021403 -0.00008964
v 0.01377127 0.01848190 0.00140237
v 0.04044000 0.00965708 0.02697585
v 0.01751993 0.00965708 0.00060269
v 0.04044000 0.00965708 0.00060269
v 0.04021811 0.00965708 -0.00008964
v 0.03986569 0.00965708 -0.00027480
v 0.03959682 0.03879495 -0.00041166
v 0.03879801 0.03879495 -0.00043849
v 0.01377127 0.03959639 -0.00041166
v 0.01377127 0.01848190 0.00126820
v 0.01753298 0.00965708 0.00028605
v 0.01377127 0.01848491 0.00060269
v 0.03959682 0.00965708 -0.00041166
v 0.03914259 0.00965708 -0.00042776
v 0.01377127 0.03879495 -0.00043849
v 0.03879801 0.00965708 -0.00043849
v 0.01755908 0.00965708 0.00011699
v 0.01377127 0.01851504 0.00053561
v 0.01377127 0.02143154 -0.00043849
v 0.01880167 0.00965708 -0.00043849
v 0.01377127 0.01890672 -0.00005207
v 0.01377127 0.01902121 -0.00011111
v 0.01771049 0.00965708 -0.00001182
v 0.01377127 0.02063312 -0.00043581
v 0.01400099 0.02040414 -0.00043849
v 0.01834484 0.00965708 -0.00034457
v 0.01800026 0.01080500 -0.00038482
v 0.01377127 0.01983168 -0.00036604
v 0.01797676 0.00965708 -0.00018893
v 0.01800026 0.01000357 -0.00027480
f 1 2 6
f 1 6 15
f 1 15 24
f 1 24 16
f 1 16 7
f 1 7 3
f 1 3 4
f 1 4 5
f 1 5 2
f 2 5 13
f 2 13 22
f 2 22 21
f 2 21 31
f 2 31 37
f 2 37 41
f 2 41 46
f 2 46 50
f 2 50 44
f 2 44 43
f 2 43 40
f 2 40 34
f 2 34 32
f 2 32 23
f 2 23 14
f 2 14 6
f 3 7 8
f 3 8 9
f 3 9 4
f 4 9 10
f 4 10 11
f 4 11 12
f 4 12 13
f 4 13 5
f 6 14 15
f 7 10 9
f 7 9 8
f 7 16 17
f 7 17 10
f 10 17 11
f 11 17 18
f 11 18 19
f 11 19 12
f 12 19 20
f 12 20 21
f 12 21 22
f 12 22 13
f 14 23 15
f 15 23 32
f 15 32 25
f 15 25 33
f 15 33 39
f 15 39 45
f 15 45 51
f 15 51 48
f 15 48 42
f 15 42 38
f 15 38 36
f 15 36 35
f 15 35 28
f 15 28 27
f 15 27 26
f 15 26 24
f 16 24 26
f 16 26 17
f 17 26 27
f 17 27 18
f 18 27 28
f 18 28 29
f 18 29 19
f 19 29 30
f 19 30 20
f 20 30 37
f 20 37 31
f 20 31 21
f 25 32 34
f 25 34 33
f 28 35 29
f 29 35 36
f 29 36 30
f 30 36 38
f 30 38 42
f 30 42 47
f 30 47 41
f 30 41 37
f 33 34 39
f 34 40 39
f 39 40 43
f 39 43 44
f 39 44 45
f 41 47 46
f 42 48 49
f 42 49 50
f 42 50 46
f 42 46 47
f 44 50 45
f 45 50 51
f 48 51 52
f 48 52 50
f 48 50 49
f 50 52 51

