# https://github.com/mikedh/trimesh
v 0.04044000 -0.00000642 0.04939909
v 0.04021842 -0.00000642 0.05009137
v 0.04044000 -0.01736849 0.04939909
v 0.04044000 -0.00000642 0.00060091
v 0.03990260 -0.00000642 0.05025572
v 0.04021842 -0.01736849 0.05009137
v 0.04044000 -0.01736849 0.00060091
v 0.04021842 -0.00000642 -0.00009137
v 0.03959952 -0.00000642 0.05041012
v 0.03959952 -0.01736849 0.05041012
v 0.04021842 -0.01736849 -0.00009137
v 0.03991279 -0.00000642 -0.00025074
v 0.03879978 -0.00000642 0.05044000
v 0.03879978 -0.01736849 0.05044000
v 0.03972941 -0.01736849 -0.00034537
v 0.03959952 -0.00000642 -0.00041012
v 0.02040082 -0.00000642 0.05044000
v 0.01623406 -0.01736849 0.05044000
v 0.03959952 -0.01736849 -0.00041012
v 0.03920475 -0.00000642 -0.00042506
v 0.01999586 -0.00000642 0.05042506
v 0.01960109 -0.00040070 0.05041510
v 0.01560242 -0.01736849 0.05042506
v 0.01640215 -0.01639977 0.05044000
v 0.03879978 -0.01736849 -0.00044000
v 0.03879978 -0.00000642 -0.00044000
v 0.01960109 -0.00000642 0.05041012
v 0.01560242 -0.01719854 0.05042008
v 0.01543178 -0.01736849 0.05039517
v 0.01640215 -0.01736849 -0.00044000
v 0.02040082 -0.00000642 -0.00044000
v 0.01928272 -0.00000642 0.05025074
v 0.01479504 -0.01736849 0.05011129
v 0.01640215 -0.01639977 -0.00044000
v 0.01560242 -0.01736849 -0.00042506
v 0.01960109 -0.00040070 -0.00041510
v 0.01960109 -0.00000642 -0.00041012
v 0.01897709 -0.00000642 0.05009137
v 0.01470590 -0.01736849 0.05006149
v 0.01479504 -0.01736849 -0.00011129
v 0.01560242 -0.01719854 -0.00042008
v 0.01929546 -0.00000642 -0.00025572
v 0.01885993 -0.00000642 0.04973776
v 0.01446140 -0.01736849 0.04965807
v 0.01462950 -0.01736849 0.04998678
v 0.01462950 -0.01736849 0.00001322
v 0.01897709 -0.00000642 -0.00009137
v 0.01875041 -0.00000642 0.04939909
v 0.01444612 -0.01736849 0.04939909
v 0.01444612 -0.01736849 0.00060091
v 0.01875041 -0.00000642 0.00060091
v 0.01886503 -0.00000642 0.00024730
v 0.01874787 -0.00000642 0.04859724
v 0.01442065 -0.01736849 0.02539843
v 0.01442065 -0.01736849 0.02460157
v 0.01874787 -0.00000642 0.00099436
v 0.01873004 -0.00000642 0.02579189
v 0.01873004 -0.00000642 0.02419815
f 1 2 6
f 1 6 3
f 1 3 7
f 1 7 4
f 1 4 8
f 1 8 12
f 1 12 16
f 1 16 20
f 1 20 26
f 1 26 31
f 1 31 37
f 1 37 42
f 1 42 47
f 1 47 52
f 1 52 51
f 1 51 56
f 1 56 58
f 1 58 57
f 1 57 53
f 1 53 48
f 1 48 43
f 1 43 38
f 1 38 32
f 1 32 27
f 1 27 21
f 1 21 17
f 1 17 13
f 1 13 9
f 1 9 5
f 1 5 2
f 2 5 6
f 3 6 10
f 3 10 14
f 3 14 18
f 3 18 23
f 3 23 29
f 3 29 33
f 3 33 39
f 3 39 45
f 3 45 44
f 3 44 49
f 3 49 54
f 3 54 55
f 3 55 50
f 3 50 46
f 3 46 40
f 3 40 35
f 3 35 30
f 3 30 25
f 3 25 19
f 3 19 15
f 3 15 11
f 3 11 7
f 4 7 11
f 4 11 8
f 5 9 10
f 5 10 6
f 8 11 12
f 9 13 14
f 9 14 10
f 11 15 12
f 12 15 16
f 13 17 24
f 13 24 18
f 13 18 14
f 15 19 16
f 16 19 20
f 17 21 22
f 17 22 23
f 17 23 24
f 18 24 23
f 19 25 20
f 20 25 26
f 21 27 22
f 22 27 23
f 23 27 28
f 23 28 29
f 25 30 34
f 25 34 31
f 25 31 26
f 27 29 28
f 27 32 33
f 27 33 29
f 30 35 34
f 31 34 35
f 31 35 36
f 31 36 37
f 32 38 33
f 33 38 39
f 35 40 41
f 35 41 37
f 35 37 36
f 37 41 40
f 37 40 42
f 38 43 44
f 38 44 45
f 38 45 39
f 40 46 47
f 40 47 42
f 43 48 44
f 44 48 49
f 46 50 51
f 46 51 52
f 46 52 47
f 48 53 49
f 49 53 54
f 50 55 56
f 50 56 51
f 53 57 54
f 54 57 58
f 54 58 55
f 55 58 56

