# https://github.com/mikedh/trimesh
v 0.01596295 0.01428235 0.03339990
v 0.01751818 0.00965708 0.02697782
v 0.01596295 0.01428235 0.03503698
v 0.01596295 0.01428537 0.02697782
v 0.02484898 0.00965708 0.02697782
v 0.01751818 0.00965708 0.03503698
v 0.01596295 0.04043699 0.03503698
v 0.01596295 0.04043699 0.02697782
v 0.02484898 0.00965708 0.03503698
v 0.02484898 0.04043699 0.02697782
v 0.02199947 0.04043699 0.03503698
v 0.02484898 0.02054380 0.03503698
v 0.02484898 0.04043699 0.03179990
v 0.02279970 0.04037070 0.03503698
v 0.02484898 0.04042795 0.03259990
v 0.02484898 0.04043398 0.03215099
v 0.02484898 0.03879781 0.03403580
v 0.02391219 0.03879781 0.03503698
v 0.02337639 0.04015074 0.03503698
v 0.02484898 0.04019593 0.03334546
v 0.02484898 0.04032550 0.03294467
v 0.02484898 0.03909611 0.03399004
v 0.02372518 0.03959932 0.03503698
v 0.02484898 0.03964452 0.03380463
v 0.02484898 0.03941250 0.03390167
f 1 2 6
f 1 6 3
f 1 3 7
f 1 7 8
f 1 8 4
f 1 4 2
f 2 5 9
f 2 9 6
f 2 4 8
f 2 8 10
f 2 10 5
f 3 6 9
f 3 9 12
f 3 12 18
f 3 18 23
f 3 23 19
f 3 19 14
f 3 14 11
f 3 11 7
f 5 10 13
f 5 13 16
f 5 16 15
f 5 15 21
f 5 21 20
f 5 20 24
f 5 24 25
f 5 25 22
f 5 22 17
f 5 17 12
f 5 12 9
f 7 11 13
f 7 13 10
f 7 10 8
f 11 14 15
f 11 15 16
f 11 16 13
f 12 17 18
f 14 19 20
f 14 20 21
f 14 21 15
f 17 22 18
f 18 22 23
f 19 23 24
f 19 24 20
f 22 25 23
f 23 25 24

