# https://github.com/mikedh/trimesh
v -0.01350907 0.01888588 0.00140276
v -0.01350907 0.01889010 0.00060091
v 0.00000649 0.02723030 0.00063577
v 0.00000649 0.02722819 0.00140276
v 0.00000649 0.02722608 0.04897077
v -0.01350907 0.01888588 0.04859724
v -0.01350907 0.01905045 0.00005306
v 0.00000649 0.02753412 -0.00005651
v 0.00000649 0.02723030 0.04936423
v -0.01350907 0.01889010 0.04939909
v -0.01350907 0.01963699 -0.00017106
v 0.00000649 0.02840126 -0.00044000
v 0.00000649 0.02737166 0.04969792
v -0.01350907 0.01903990 0.04992702
v -0.01350907 0.02040075 -0.00036031
v -0.01319950 0.02200001 -0.00044000
v 0.00000649 0.03879855 -0.00044000
v -0.01319950 0.02120038 -0.00043004
v -0.01350907 0.02120038 -0.00043502
v 0.00000649 0.02753412 0.05005651
v -0.01350907 0.01905045 0.04994694
v -0.01350907 0.02200001 -0.00044000
v -0.01350907 0.03879855 -0.00044000
v 0.00000649 0.03959818 -0.00041012
v -0.01350907 0.01932473 0.05008141
v 0.00000649 0.02840126 0.05044000
v -0.01350907 0.03959818 -0.00041012
v 0.00000649 0.03990410 -0.00025572
v -0.01350907 0.02009271 0.05034039
v -0.01350907 0.02169197 0.05044000
v -0.01350907 0.02089234 0.05043502
v 0.00000649 0.03879855 0.05044000
v -0.01350907 0.04021847 -0.00009137
v 0.00000649 0.04021847 -0.00009137
v -0.01350907 0.03879855 0.05044000
v 0.00000649 0.03920575 0.05042506
v -0.01350907 0.04030497 0.00017757
v 0.00000649 0.04044000 0.00060091
v -0.01350907 0.03959818 0.05041012
v 0.00000649 0.03959818 0.05041012
v -0.01350907 0.04044000 0.00060091
v 0.00000649 0.04044000 0.04939909
v -0.01350907 0.03998006 0.05021588
v 0.00000649 0.04021847 0.05009137
v -0.01350907 0.04044000 0.04939909
v -0.01350907 0.04021847 0.05009137
f 1 2 3
f 1 3 4
f 1 4 5
f 1 5 6
f 1 6 10
f 1 10 14
f 1 14 21
f 1 21 25
f 1 25 29
f 1 29 31
f 1 31 30
f 1 30 35
f 1 35 39
f 1 39 43
f 1 43 46
f 1 46 45
f 1 45 41
f 1 41 37
f 1 37 33
f 1 33 27
f 1 27 23
f 1 23 22
f 1 22 19
f 1 19 15
f 1 15 11
f 1 11 7
f 1 7 2
f 2 7 3
f 3 7 8
f 3 8 12
f 3 12 17
f 3 17 24
f 3 24 28
f 3 28 34
f 3 34 38
f 3 38 42
f 3 42 44
f 3 44 40
f 3 40 36
f 3 36 32
f 3 32 26
f 3 26 20
f 3 20 13
f 3 13 9
f 3 9 5
f 3 5 4
f 5 9 10
f 5 10 6
f 7 11 12
f 7 12 8
f 9 13 14
f 9 14 10
f 11 15 12
f 12 16 22
f 12 22 23
f 12 23 17
f 12 15 18
f 12 18 19
f 12 19 16
f 13 20 14
f 14 20 21
f 15 19 18
f 16 19 22
f 17 23 27
f 17 27 24
f 20 25 21
f 20 26 25
f 24 27 28
f 25 26 29
f 26 30 31
f 26 31 29
f 26 32 35
f 26 35 30
f 27 33 28
f 28 33 34
f 32 36 35
f 33 37 34
f 34 37 38
f 35 36 39
f 36 40 39
f 37 41 38
f 38 41 45
f 38 45 42
f 39 40 43
f 40 44 43
f 42 45 46
f 42 46 44
f 43 44 46

