# https://github.com/mikedh/trimesh
v -0.01667405 -0.04044000 0.00060091
v -0.01667405 -0.04021784 -0.00009137
v -0.01203316 -0.04044000 0.00060091
v -0.01667405 -0.04044000 0.04939909
v -0.01667405 -0.04000664 -0.00020094
v -0.01203316 -0.03988322 -0.00026568
v -0.01203316 -0.04021784 -0.00009137
v -0.01203316 -0.04044000 0.04939909
v -0.01203316 -0.04033852 0.04971784
v -0.01667405 -0.04029463 0.04985231
v -0.01667405 -0.03959797 -0.00041012
v -0.01203316 -0.03959797 -0.00041012
v -0.01203316 -0.04021784 0.05009137
v -0.01667405 -0.04021784 0.05009137
v -0.01667405 -0.03879982 -0.00044000
v -0.01203316 -0.03879982 -0.00044000
v -0.01203316 -0.03959797 0.05041012
v -0.01667405 -0.03981191 0.05030055
v -0.01667405 -0.01612806 -0.00044000
v -0.01203316 -0.02316876 -0.00044000
v -0.01203316 -0.03923044 0.05042506
v -0.01667405 -0.03959797 0.05041012
v -0.01667405 -0.01532717 -0.00042506
v -0.01639964 -0.01640234 -0.00044000
v -0.01203316 -0.02236787 -0.00042008
v -0.01203316 -0.03879982 0.05044000
v -0.01667405 -0.03879982 0.05044000
v -0.01667405 -0.03907136 0.05043004
v -0.01667405 -0.01452628 -0.00035035
v -0.01639964 -0.01560145 -0.00042008
v -0.01667405 -0.01320152 -0.00009635
v -0.01667405 -0.01307810 -0.00006647
v -0.01203316 -0.02147372 -0.00016109
v -0.01203316 -0.02360212 0.05044000
v -0.01667405 -0.01640234 0.05044000
v -0.01667405 -0.01279833 0.00001820
v -0.01203316 -0.02128173 -0.00006647
v -0.01240025 -0.02280123 0.05044000
v -0.01203316 -0.02280123 0.05043004
v -0.01667405 -0.01560145 0.05042506
v -0.01639964 -0.01640234 0.05044000
v -0.01667405 -0.01264748 0.00013773
v -0.01203316 -0.02091969 0.00054612
v -0.01203316 -0.02198662 0.05030553
v -0.01240025 -0.02200034 0.05042506
v -0.01639964 -0.01560145 0.05042008
v -0.01667405 -0.01480056 0.05035035
v -0.01667405 -0.01244452 0.00060091
v -0.01203316 -0.02089774 0.00060091
v -0.01203316 -0.02128173 0.05006647
v -0.01667405 -0.01279833 0.04998180
v -0.01667405 -0.01320152 0.05009635
v -0.01639964 -0.01480056 0.05030553
v -0.01667405 -0.01244177 0.00140276
v -0.01667405 -0.01243903 0.00300147
v -0.01667405 -0.01242257 0.02380470
v -0.01203316 -0.02089774 0.04939909
v -0.01667405 -0.01244452 0.04939909
v -0.01667405 -0.01242257 0.02620028
v -0.01667405 -0.01243903 0.04700351
v -0.01667405 -0.01244177 0.04860222
f 1 2 7
f 1 7 3
f 1 3 8
f 1 8 4
f 1 4 10
f 1 10 14
f 1 14 18
f 1 18 22
f 1 22 28
f 1 28 27
f 1 27 35
f 1 35 40
f 1 40 47
f 1 47 52
f 1 52 51
f 1 51 58
f 1 58 61
f 1 61 60
f 1 60 59
f 1 59 56
f 1 56 55
f 1 55 54
f 1 54 48
f 1 48 42
f 1 42 36
f 1 36 32
f 1 32 31
f 1 31 29
f 1 29 23
f 1 23 19
f 1 19 15
f 1 15 11
f 1 11 5
f 1 5 2
f 2 5 6
f 2 6 7
f 3 7 6
f 3 6 12
f 3 12 16
f 3 16 20
f 3 20 25
f 3 25 33
f 3 33 37
f 3 37 43
f 3 43 49
f 3 49 57
f 3 57 50
f 3 50 44
f 3 44 39
f 3 39 34
f 3 34 26
f 3 26 21
f 3 21 17
f 3 17 13
f 3 13 9
f 3 9 8
f 4 8 9
f 4 9 10
f 5 11 6
f 6 11 12
f 9 13 14
f 9 14 10
f 11 15 16
f 11 16 12
f 13 17 18
f 13 18 14
f 15 19 24
f 15 24 20
f 15 20 16
f 17 21 22
f 17 22 18
f 19 23 24
f 20 24 23
f 20 23 25
f 21 26 27
f 21 27 28
f 21 28 22
f 23 29 30
f 23 30 25
f 25 30 29
f 25 29 31
f 25 31 32
f 25 32 33
f 26 34 38
f 26 38 41
f 26 41 35
f 26 35 27
f 32 36 33
f 33 36 37
f 34 39 38
f 35 41 40
f 36 42 37
f 37 42 43
f 38 39 41
f 39 44 45
f 39 45 41
f 40 46 47
f 40 41 46
f 41 45 46
f 42 48 43
f 43 48 49
f 44 50 51
f 44 51 52
f 44 52 45
f 45 52 53
f 45 53 46
f 46 53 47
f 47 53 52
f 48 54 49
f 49 54 55
f 49 55 56
f 49 56 59
f 49 59 57
f 50 58 51
f 50 57 58
f 57 59 60
f 57 60 61
f 57 61 58

