# https://github.com/mikedh/trimesh
v -0.00352609 -0.04044000 0.00060091
v -0.00352609 -0.04021978 -0.00009137
v 0.00571035 -0.04044000 0.00060091
v -0.00352609 -0.04044000 0.04939909
v 0.00571035 -0.04021978 -0.00009137
v -0.00352609 -0.03965717 -0.00038023
v 0.00571035 -0.04044000 0.04939909
v -0.00352609 -0.04021978 0.05009137
v 0.00571035 -0.03959892 -0.00041012
v -0.00352609 -0.03959892 -0.00041012
v 0.00571035 -0.04021978 0.05009137
v 0.00571035 -0.03982339 0.05029557
v -0.00352609 -0.03959892 0.05041012
v 0.00571035 -0.03879903 -0.00044000
v -0.00352609 -0.03879903 -0.00044000
v 0.00571035 -0.03959892 0.05041012
v -0.00352609 -0.03952504 0.05041510
v 0.00571035 -0.02760066 -0.00044000
v -0.00352609 -0.02840055 -0.00044000
v 0.00571035 -0.03908886 0.05043004
v -0.00352609 -0.03879903 0.05044000
v 0.00571035 -0.03879903 0.05044000
v 0.00519953 -0.02760066 -0.00044000
v 0.00571035 -0.02680078 -0.00037027
v -0.00352609 -0.02767454 -0.00041510
v -0.00352609 -0.02840055 0.05044000
v 0.00571035 -0.02760066 0.05044000
v -0.00352609 -0.02760066 -0.00040514
v -0.00352609 -0.02701389 -0.00011627
v 0.00571035 -0.02611882 -0.00001168
v 0.00519953 -0.02760066 0.05044000
v 0.00571035 -0.02709061 0.05042008
v -0.00352609 -0.02760066 0.05040514
v -0.00352609 -0.02696274 -0.00008639
v -0.00352609 -0.02673826 0.00054612
v 0.00571035 -0.02592844 0.00060091
v 0.00571035 -0.02680078 0.05037027
v 0.00571035 -0.02633477 0.05014615
v -0.00352609 -0.02696274 0.05008639
v -0.00352609 -0.02672548 0.00060091
v 0.00571035 -0.02592701 0.00088479
v 0.00571035 -0.02611882 0.05001168
v 0.00571035 -0.02597106 0.04960329
v -0.00352609 -0.02672548 0.04939909
v 0.00571035 -0.02592559 0.00140276
v 0.00571035 -0.02592844 0.04939909
v 0.00571035 -0.02592559 0.04859724
f 1 2 5
f 1 5 3
f 1 3 7
f 1 7 4
f 1 4 8
f 1 8 13
f 1 13 17
f 1 17 21
f 1 21 26
f 1 26 33
f 1 33 39
f 1 39 44
f 1 44 40
f 1 40 35
f 1 35 34
f 1 34 29
f 1 29 28
f 1 28 25
f 1 25 19
f 1 19 15
f 1 15 10
f 1 10 6
f 1 6 2
f 2 6 5
f 3 5 9
f 3 9 14
f 3 14 18
f 3 18 24
f 3 24 30
f 3 30 36
f 3 36 41
f 3 41 45
f 3 45 47
f 3 47 46
f 3 46 43
f 3 43 42
f 3 42 38
f 3 38 37
f 3 37 32
f 3 32 27
f 3 27 22
f 3 22 20
f 3 20 16
f 3 16 12
f 3 12 11
f 3 11 7
f 4 7 11
f 4 11 8
f 5 6 9
f 6 10 9
f 8 11 12
f 8 12 13
f 9 10 15
f 9 15 14
f 12 16 13
f 13 16 17
f 14 15 19
f 14 19 23
f 14 23 18
f 16 20 17
f 17 20 22
f 17 22 21
f 18 23 24
f 19 25 23
f 21 22 27
f 21 27 31
f 21 31 26
f 23 25 24
f 24 25 28
f 24 28 29
f 24 29 30
f 26 31 32
f 26 32 33
f 27 32 31
f 29 34 30
f 30 34 35
f 30 35 36
f 32 37 33
f 33 37 38
f 33 38 39
f 35 40 36
f 36 40 41
f 38 42 39
f 39 42 43
f 39 43 44
f 40 45 41
f 40 44 47
f 40 47 45
f 43 46 44
f 44 46 47

