# https://github.com/mikedh/trimesh
v -0.03959790 -0.04044000 0.00060091
v -0.04021901 -0.04021836 0.00060091
v -0.04014457 -0.04014316 0.00000824
v -0.03959790 -0.04021836 -0.00009137
v -0.02543096 -0.04044000 0.00060091
v -0.03959790 -0.04044000 0.04939909
v -0.04044000 -0.03959697 0.00060091
v -0.04021901 -0.04021836 0.04939909
v -0.04021901 -0.03959697 -0.00009137
v -0.03959790 -0.03959697 -0.00039020
v -0.03908844 -0.04021836 -0.00009137
v -0.03908844 -0.03959697 -0.00040514
v -0.03879766 -0.03959302 -0.00041012
v -0.02543096 -0.03959697 -0.00041012
v -0.01667490 -0.04021045 -0.00009137
v -0.01667490 -0.04043604 0.00060091
v -0.02543096 -0.04044000 0.04939909
v -0.03959790 -0.04021836 0.05009137
v -0.04014457 -0.04014316 0.04999176
v -0.04044000 -0.00001038 0.00060091
v -0.04044000 -0.03959697 0.04939909
v -0.04021901 -0.00774801 -0.00009137
v -0.03990263 -0.00001038 -0.00025572
v -0.03959790 -0.03879749 -0.00041012
v -0.03908844 -0.03879353 -0.00043004
v -0.03879766 -0.03879353 -0.00044000
v -0.01667490 -0.03959697 -0.00041012
v -0.03100003 -0.03938721 -0.00042008
v -0.02609394 -0.03950199 -0.00041510
v -0.01667490 -0.04043604 0.04939909
v -0.01667490 -0.04021045 0.05009137
v -0.03908844 -0.04021836 0.05009137
v -0.03908844 -0.03981862 0.05029557
v -0.03908844 -0.03959697 0.05040514
v -0.03959790 -0.03959697 0.05039020
v -0.02543096 -0.03959697 0.05041012
v -0.04021901 -0.03959697 0.05009137
v -0.04021668 -0.00001038 -0.00009137
v -0.04044000 -0.00001038 0.04939909
v -0.03959790 -0.00001038 -0.00041012
v -0.03908844 -0.00774801 -0.00043004
v -0.02543096 -0.03879749 -0.00044000
v -0.03879766 -0.00001038 -0.00044000
v -0.02543096 -0.03936742 -0.00042008
v -0.01667490 -0.03879749 -0.00044000
v -0.01667490 -0.03959697 0.05041012
v -0.03879766 -0.03959302 0.05041012
v -0.03908844 -0.03908641 0.05042506
v -0.03959790 -0.03879749 0.05041012
v -0.01667490 -0.03907058 0.05043004
v -0.03991427 -0.00001038 0.05025074
v -0.04021901 -0.00774801 0.05009137
v -0.04021668 -0.00001038 0.05009137
v -0.02040390 -0.00001038 -0.00044000
v -0.01667490 -0.02723259 -0.00044000
v -0.03879766 -0.03879353 0.05044000
v -0.03908844 -0.03879353 0.05043004
v -0.03959790 -0.00001038 0.05041012
v -0.03970723 -0.00774801 0.05035533
v -0.01667490 -0.03879749 0.05044000
v -0.02543096 -0.03879749 0.05044000
v -0.03970723 -0.00774405 0.05035533
v -0.01667723 -0.01613077 -0.00044000
v -0.01999681 -0.00001038 -0.00042506
v -0.01667723 -0.01533128 -0.00042506
v -0.01667723 -0.01453180 -0.00035035
v -0.01667723 -0.01320987 -0.00009635
v -0.01667723 -0.01308321 -0.00006647
v -0.01667723 -0.01280221 0.00002816
v -0.01667723 -0.01265181 0.00013773
v -0.01667723 -0.01244996 0.00060091
v -0.01667723 -0.01242621 0.02460157
v -0.01667490 -0.02723259 0.05044000
v -0.03879766 -0.00001038 0.05044000
v -0.03908844 -0.00774801 0.05043004
v -0.03920475 -0.00001038 0.05042506
v -0.01960134 -0.00001038 -0.00041012
v -0.01928497 -0.00001038 -0.00025074
v -0.01897558 -0.00001038 -0.00009137
v -0.01885926 -0.00001038 0.00025726
v -0.01874528 -0.00001038 0.00060091
v -0.01874295 -0.00001038 0.00100930
v -0.01874063 -0.00001038 0.00260802
v -0.01667723 -0.01242621 0.02539843
v -0.01667723 -0.01244996 0.04939909
v -0.01667723 -0.01280221 0.04997184
v -0.01667723 -0.01320987 0.05009635
v -0.01667723 -0.01480885 0.05035035
v -0.01667723 -0.01560834 0.05042506
v -0.01667723 -0.01640782 0.05044000
v -0.02040390 -0.00001038 0.05044000
v -0.01874063 -0.00001038 0.04699853
v -0.01874295 -0.00001038 0.04859724
v -0.01874528 -0.00001038 0.04939909
v -0.01897558 -0.00001038 0.05009137
v -0.01929195 -0.00001038 0.05025572
v -0.01960134 -0.00001038 0.05041012
f 1 2 3
f 1 3 4
f 1 4 11
f 1 11 5
f 1 5 17
f 1 17 6
f 1 6 8
f 1 8 2
f 2 7 3
f 2 8 21
f 2 21 7
f 3 9 10
f 3 10 4
f 3 7 9
f 4 10 12
f 4 12 13
f 4 13 14
f 4 14 27
f 4 27 11
f 5 11 15
f 5 15 16
f 5 16 30
f 5 30 17
f 6 17 32
f 6 32 18
f 6 18 19
f 6 19 8
f 7 20 22
f 7 22 9
f 7 21 39
f 7 39 20
f 8 19 21
f 9 22 23
f 9 23 24
f 9 24 10
f 10 24 25
f 10 25 26
f 10 26 12
f 11 27 15
f 12 26 13
f 13 28 29
f 13 29 14
f 13 26 28
f 14 29 27
f 15 27 45
f 15 45 55
f 15 55 73
f 15 73 60
f 15 60 50
f 15 50 46
f 15 46 31
f 15 31 30
f 15 30 16
f 17 30 31
f 17 31 32
f 18 33 34
f 18 34 35
f 18 35 19
f 18 32 46
f 18 46 36
f 18 36 33
f 19 37 21
f 19 35 37
f 20 38 22
f 20 39 53
f 20 53 51
f 20 51 58
f 20 58 76
f 20 76 74
f 20 74 91
f 20 91 97
f 20 97 96
f 20 96 95
f 20 95 94
f 20 94 93
f 20 93 92
f 20 92 83
f 20 83 82
f 20 82 81
f 20 81 80
f 20 80 79
f 20 79 78
f 20 78 77
f 20 77 64
f 20 64 54
f 20 54 43
f 20 43 40
f 20 40 23
f 20 23 38
f 21 37 52
f 21 52 39
f 22 38 23
f 23 40 24
f 24 40 41
f 24 41 25
f 25 41 43
f 25 43 26
f 26 42 28
f 26 43 54
f 26 54 63
f 26 63 55
f 26 55 45
f 26 45 42
f 27 29 44
f 27 44 45
f 28 44 29
f 28 42 45
f 28 45 44
f 31 46 32
f 33 36 47
f 33 47 34
f 34 47 48
f 34 48 35
f 35 48 49
f 35 49 37
f 36 46 50
f 36 50 47
f 37 51 52
f 37 49 51
f 39 52 53
f 40 43 41
f 47 50 56
f 47 56 48
f 48 56 57
f 48 57 49
f 49 58 62
f 49 62 59
f 49 59 51
f 49 57 75
f 49 75 58
f 50 60 61
f 50 61 56
f 51 53 52
f 51 59 62
f 51 62 58
f 54 64 63
f 55 63 65
f 55 65 66
f 55 66 67
f 55 67 68
f 55 68 69
f 55 69 70
f 55 70 71
f 55 71 72
f 55 72 84
f 55 84 73
f 56 61 60
f 56 60 73
f 56 73 90
f 56 90 91
f 56 91 74
f 56 74 75
f 56 75 57
f 58 75 76
f 63 64 77
f 63 77 65
f 65 77 66
f 66 78 79
f 66 79 67
f 66 77 78
f 67 79 68
f 68 79 69
f 69 79 80
f 69 80 81
f 69 81 70
f 70 81 71
f 71 81 82
f 71 82 83
f 71 83 72
f 72 83 92
f 72 92 84
f 73 84 85
f 73 85 86
f 73 86 87
f 73 87 88
f 73 88 89
f 73 89 90
f 74 76 75
f 84 92 85
f 85 92 93
f 85 93 94
f 85 94 86
f 86 94 95
f 86 95 87
f 87 95 88
f 88 95 96
f 88 96 97
f 88 97 89
f 89 97 90
f 90 97 91

