# https://github.com/mikedh/trimesh
v -0.01742252 0.00998482 0.04940905
v -0.01751265 0.00998482 0.04996188
v -0.01874295 -0.00000642 0.04939909
v -0.01874070 -0.00000642 0.04859724
v -0.01873845 -0.00000642 0.04619668
v -0.01742252 0.00998482 0.00060091
v -0.01751941 0.00998482 0.04996686
v -0.01897279 -0.00000642 0.05009137
v -0.01873845 -0.00000642 0.00340987
v -0.01874070 -0.00000642 0.00100930
v -0.01874295 -0.00000642 0.00060091
v -0.01751265 0.00998482 0.00003812
v -0.01799936 0.00998482 0.05028063
v -0.01929050 -0.00000642 0.05025572
v -0.01897279 -0.00000642 -0.00009137
v -0.01799936 0.00998482 -0.00028063
v -0.01801739 0.00998482 0.05028561
v -0.01960146 -0.00000642 0.05041012
v -0.01928374 -0.00000642 -0.00025074
v -0.01960146 -0.00000642 -0.00041012
v -0.01880154 0.00839948 -0.00043004
v -0.01880154 0.00919949 -0.00044000
v -0.01880154 0.00998482 -0.00044000
v -0.01880154 0.00839948 0.05043004
v -0.01880154 0.00998482 0.05044000
v -0.01880154 0.00919949 0.05044000
v -0.01960146 0.00040043 0.05041510
v -0.02040138 -0.00000642 0.05044000
v -0.01999579 -0.00000642 -0.00042506
v -0.01960146 0.00040043 -0.00041510
v -0.01960146 0.00440044 -0.00044000
v -0.03879960 0.00998482 -0.00044000
v -0.03879960 0.00998482 0.05044000
v -0.01960146 0.00440044 0.05044000
v -0.03879960 -0.00000642 0.05044000
v -0.02040138 -0.00000642 -0.00044000
v -0.03959952 0.00998482 -0.00041012
v -0.03879960 -0.00000642 -0.00044000
v -0.03959952 0.00998482 0.05041012
v -0.03920519 -0.00000642 0.05042506
v -0.03959952 -0.00000642 -0.00041012
v -0.03990372 -0.00000642 -0.00025572
v -0.04021918 0.00998482 -0.00009137
v -0.03961079 0.00998482 0.05040514
v -0.03959952 -0.00000642 0.05041012
v -0.04021918 -0.00000642 -0.00009137
v -0.04044000 0.00998482 0.00060091
v -0.04021918 0.00998482 0.05009137
v -0.03991273 -0.00000642 0.05025074
v -0.04044000 -0.00000642 0.00060091
v -0.04044000 0.00998482 0.04939909
v -0.04021918 -0.00000642 0.05009137
v -0.04044000 -0.00000642 0.04939909
f 1 2 3
f 1 3 4
f 1 4 5
f 1 5 9
f 1 9 6
f 1 6 12
f 1 12 16
f 1 16 23
f 1 23 32
f 1 32 37
f 1 37 43
f 1 43 47
f 1 47 51
f 1 51 48
f 1 48 44
f 1 44 39
f 1 39 33
f 1 33 25
f 1 25 17
f 1 17 13
f 1 13 7
f 1 7 2
f 2 7 8
f 2 8 3
f 3 8 14
f 3 14 18
f 3 18 28
f 3 28 35
f 3 35 40
f 3 40 45
f 3 45 49
f 3 49 52
f 3 52 53
f 3 53 50
f 3 50 46
f 3 46 42
f 3 42 41
f 3 41 38
f 3 38 36
f 3 36 29
f 3 29 20
f 3 20 19
f 3 19 15
f 3 15 11
f 3 11 10
f 3 10 9
f 3 9 5
f 3 5 4
f 6 9 10
f 6 10 11
f 6 11 12
f 7 13 8
f 8 13 14
f 11 15 12
f 12 15 16
f 13 17 18
f 13 18 14
f 15 19 16
f 16 19 20
f 16 20 21
f 16 21 22
f 16 22 23
f 17 24 18
f 17 25 26
f 17 26 24
f 18 24 26
f 18 26 27
f 18 27 28
f 20 29 30
f 20 30 22
f 20 22 21
f 22 30 31
f 22 31 36
f 22 36 38
f 22 38 32
f 22 32 23
f 25 33 35
f 25 35 28
f 25 28 34
f 25 34 26
f 26 34 27
f 27 34 28
f 29 36 30
f 30 36 31
f 32 38 41
f 32 41 37
f 33 39 40
f 33 40 35
f 37 41 42
f 37 42 43
f 39 44 45
f 39 45 40
f 42 46 43
f 43 46 50
f 43 50 47
f 44 48 49
f 44 49 45
f 47 50 53
f 47 53 51
f 48 52 49
f 48 51 53
f 48 53 52

