# https://github.com/mikedh/trimesh
v 0.04044000 0.00965613 0.04939909
v 0.04021785 0.00965613 0.05009137
v 0.04044000 -0.00000547 0.04939909
v 0.04044000 0.00965613 0.00060091
v 0.04021785 -0.00000547 0.05009137
v 0.03959851 0.00965613 0.05041012
v 0.03990369 -0.00000547 0.05025572
v 0.04044000 -0.00000547 0.00060091
v 0.04021785 0.00965613 -0.00009137
v 0.03959851 -0.00000547 0.05041012
v 0.03879965 0.00965613 0.05044000
v 0.04021785 -0.00000547 -0.00009137
v 0.03991491 -0.00000547 -0.00025074
v 0.03986554 0.00965613 -0.00027565
v 0.03879965 -0.00000547 0.05044000
v 0.01880131 0.00965613 0.05044000
v 0.03959851 -0.00000547 -0.00041012
v 0.03959851 0.00965613 -0.00041012
v 0.02040126 -0.00000547 0.05044000
v 0.01797777 0.00965613 0.05019098
v 0.01880131 0.00919926 0.05044000
v 0.03920581 -0.00000547 -0.00042506
v 0.03879965 0.00965613 -0.00044000
v 0.01960016 0.00440061 0.05044000
v 0.01960016 0.00360037 0.05043502
v 0.01999510 -0.00000547 0.05042506
v 0.01755814 0.00965613 0.04988219
v 0.01897634 -0.00000547 0.05009137
v 0.01928152 -0.00000547 0.05025074
v 0.01960016 -0.00000547 0.05041012
v 0.01880131 0.00839996 0.05042506
v 0.03879965 -0.00000547 -0.00044000
v 0.01880131 0.00965613 -0.00044000
v 0.01751775 0.00965613 0.04939909
v 0.01874969 -0.00000547 0.04939909
v 0.02040126 -0.00000547 -0.00044000
v 0.01834353 0.00965613 -0.00034537
v 0.01880131 0.00919926 -0.00044000
v 0.01872950 -0.00000547 0.02539843
v 0.01874745 -0.00000547 0.04859724
v 0.01751551 0.00965613 0.00089475
v 0.01960016 0.00440061 -0.00044000
v 0.01960016 -0.00000547 -0.00041012
v 0.01960016 0.00360037 -0.00043502
v 0.01880131 0.00839996 -0.00042506
v 0.01797777 0.00965613 -0.00019098
v 0.01872950 -0.00000547 0.02419815
v 0.01751775 0.00965613 0.00060091
v 0.01874969 -0.00000547 0.00060091
v 0.01874745 -0.00000547 0.00099436
v 0.01929498 -0.00000547 -0.00025572
v 0.01770625 0.00965613 -0.00001168
v 0.01897634 -0.00000547 -0.00009137
v 0.01753346 0.00965613 0.00028714
v 0.01755814 0.00965613 0.00011781
f 1 2 5
f 1 5 3
f 1 3 8
f 1 8 4
f 1 4 9
f 1 9 14
f 1 14 18
f 1 18 23
f 1 23 33
f 1 33 37
f 1 37 46
f 1 46 52
f 1 52 55
f 1 55 54
f 1 54 48
f 1 48 41
f 1 41 34
f 1 34 27
f 1 27 20
f 1 20 16
f 1 16 11
f 1 11 6
f 1 6 2
f 2 6 7
f 2 7 5
f 3 5 7
f 3 7 10
f 3 10 15
f 3 15 19
f 3 19 26
f 3 26 30
f 3 30 29
f 3 29 28
f 3 28 35
f 3 35 40
f 3 40 39
f 3 39 47
f 3 47 50
f 3 50 49
f 3 49 53
f 3 53 51
f 3 51 43
f 3 43 36
f 3 36 32
f 3 32 22
f 3 22 17
f 3 17 13
f 3 13 12
f 3 12 8
f 4 8 12
f 4 12 9
f 6 10 7
f 6 11 15
f 6 15 10
f 9 12 13
f 9 13 14
f 11 16 21
f 11 21 24
f 11 24 19
f 11 19 15
f 13 17 14
f 14 17 18
f 16 20 21
f 17 22 18
f 18 22 23
f 19 24 25
f 19 25 26
f 20 27 28
f 20 28 29
f 20 29 30
f 20 30 31
f 20 31 21
f 21 31 30
f 21 30 25
f 21 25 24
f 22 32 23
f 23 32 36
f 23 36 42
f 23 42 38
f 23 38 33
f 25 30 26
f 27 34 35
f 27 35 28
f 33 38 37
f 34 39 40
f 34 40 35
f 34 41 39
f 36 43 44
f 36 44 42
f 37 45 43
f 37 43 46
f 37 38 45
f 38 42 44
f 38 44 43
f 38 43 45
f 39 41 47
f 41 48 49
f 41 49 50
f 41 50 47
f 43 51 46
f 46 51 53
f 46 53 52
f 48 54 49
f 49 54 55
f 49 55 53
f 52 53 55

