# https://github.com/mikedh/trimesh
v 0.00753635 0.02490453 0.00122844
v 0.00000649 0.02722816 0.00140276
v 0.00000649 0.02722968 0.00063577
v 0.00753635 0.02490605 0.00060091
v 0.00753635 0.02490605 0.04939909
v 0.00000649 0.02722512 0.04897077
v 0.00000649 0.02753382 -0.00005651
v 0.00753635 0.02491822 0.00050130
v 0.00753635 0.02521475 0.05009635
v 0.00000649 0.02737111 0.04969792
v 0.00000649 0.02722968 0.04936423
v 0.00753635 0.02526950 -0.00012623
v 0.00753635 0.02521475 -0.00009635
v 0.00000649 0.02840062 -0.00044000
v 0.00753635 0.02600096 0.05041012
v 0.00000649 0.02840062 0.05044000
v 0.00000649 0.02753382 0.05005651
v 0.00753635 0.02600096 -0.00041012
v 0.00679928 0.02680084 -0.00044000
v 0.00753635 0.02606483 -0.00042008
v 0.00000649 0.03879917 -0.00044000
v 0.00753635 0.02680084 0.05044000
v 0.00679928 0.02680084 0.05044000
v 0.00000649 0.03879917 0.05044000
v 0.00753635 0.02680084 -0.00044000
v 0.00000649 0.03959906 -0.00041012
v 0.00753635 0.03879917 -0.00044000
v 0.00753635 0.03879917 0.05044000
v 0.00753635 0.03953519 0.05041510
v 0.00000649 0.03920519 0.05042506
v 0.00000649 0.03990472 -0.00025572
v 0.00753635 0.03964924 -0.00038522
v 0.00753635 0.03959906 -0.00041012
v 0.00753635 0.03959906 0.05041012
v 0.00000649 0.03959906 0.05041012
v 0.00000649 0.04021950 -0.00009137
v 0.00753635 0.04021950 -0.00009137
v 0.00753635 0.04021950 0.05009137
v 0.00000649 0.04021950 0.05009137
v 0.00000649 0.04043848 0.00060091
v 0.00753635 0.04043848 0.00060091
v 0.00753635 0.04042175 0.04945388
v 0.00000649 0.04043848 0.04939909
v 0.00753635 0.04043848 0.04939909
f 1 2 3
f 1 3 4
f 1 4 8
f 1 8 13
f 1 13 12
f 1 12 18
f 1 18 20
f 1 20 25
f 1 25 27
f 1 27 33
f 1 33 32
f 1 32 37
f 1 37 41
f 1 41 44
f 1 44 42
f 1 42 38
f 1 38 34
f 1 34 29
f 1 29 28
f 1 28 22
f 1 22 15
f 1 15 9
f 1 9 5
f 1 5 6
f 1 6 2
f 2 6 11
f 2 11 10
f 2 10 17
f 2 17 16
f 2 16 24
f 2 24 30
f 2 30 35
f 2 35 39
f 2 39 43
f 2 43 40
f 2 40 36
f 2 36 31
f 2 31 26
f 2 26 21
f 2 21 14
f 2 14 7
f 2 7 3
f 3 7 8
f 3 8 4
f 5 9 10
f 5 10 11
f 5 11 6
f 7 12 13
f 7 13 8
f 7 14 12
f 9 15 16
f 9 16 17
f 9 17 10
f 12 14 18
f 14 19 20
f 14 20 18
f 14 21 27
f 14 27 25
f 14 25 19
f 15 22 23
f 15 23 16
f 16 23 22
f 16 22 28
f 16 28 24
f 19 25 20
f 21 26 33
f 21 33 27
f 24 29 30
f 24 28 29
f 26 31 32
f 26 32 33
f 29 34 35
f 29 35 30
f 31 36 37
f 31 37 32
f 34 38 39
f 34 39 35
f 36 40 41
f 36 41 37
f 38 42 39
f 39 42 43
f 40 43 44
f 40 44 41
f 42 44 43

