# https://github.com/mikedh/trimesh
v 0.02485051 0.00965708 0.03499581
v 0.03999132 0.00965708 0.03499581
v 0.02485051 0.00965708 0.05043849
v 0.02485051 0.02054079 0.03499581
v 0.04044000 0.00966009 0.03499581
v 0.04044000 0.00965708 0.03500034
v 0.03879940 0.00965708 0.05043849
v 0.02485051 0.03879781 0.05043849
v 0.02485051 0.03879781 0.03595729
v 0.02612636 0.03879781 0.03499581
v 0.04044000 0.03959932 0.03499581
v 0.04044000 0.00965708 0.04939991
v 0.03959910 0.00965708 0.05041279
v 0.03879940 0.03879781 0.05043849
v 0.02485051 0.03924677 0.05042488
v 0.02485051 0.03941551 0.03609032
v 0.02626219 0.03954508 0.03499581
v 0.02626066 0.03953905 0.03499581
v 0.04021871 0.04021703 0.03499581
v 0.04044000 0.03959932 0.04939991
v 0.04034538 0.00965708 0.04969621
v 0.03995316 0.00965708 0.05022986
v 0.03959910 0.03879781 0.05041279
v 0.03959910 0.03959932 0.05039918
v 0.03879940 0.03959932 0.05041279
v 0.02485051 0.03959932 0.05041279
v 0.02485051 0.03974998 0.03632465
v 0.02643159 0.03994282 0.03499581
v 0.04021871 0.04021703 0.04939991
v 0.03959910 0.04043699 0.03499581
v 0.04014545 0.04014471 0.04999554
v 0.04021871 0.03959932 0.05009229
v 0.04021871 0.00965708 0.05009229
v 0.03959910 0.04021703 0.05009229
v 0.02485051 0.04021703 0.05009229
v 0.02485051 0.03991570 0.03644408
v 0.02485051 0.04019292 0.03667840
v 0.02682838 0.04021703 0.03499581
v 0.03959910 0.04043699 0.04939991
v 0.02760061 0.04043699 0.03499581
v 0.02485051 0.04034057 0.04970377
v 0.02485051 0.04042494 0.03740102
v 0.02683601 0.04022004 0.03499581
v 0.02485051 0.04043699 0.04939991
v 0.02485051 0.04043097 0.03775175
v 0.02485051 0.04043699 0.03820075
f 1 2 6
f 1 6 12
f 1 12 21
f 1 21 33
f 1 33 22
f 1 22 13
f 1 13 7
f 1 7 3
f 1 3 8
f 1 8 15
f 1 15 26
f 1 26 35
f 1 35 41
f 1 41 44
f 1 44 46
f 1 46 45
f 1 45 42
f 1 42 37
f 1 37 36
f 1 36 27
f 1 27 16
f 1 16 9
f 1 9 4
f 1 4 10
f 1 10 18
f 1 18 17
f 1 17 28
f 1 28 38
f 1 38 43
f 1 43 40
f 1 40 30
f 1 30 19
f 1 19 11
f 1 11 5
f 1 5 2
f 2 5 6
f 3 7 14
f 3 14 8
f 4 9 10
f 5 11 20
f 5 20 12
f 5 12 6
f 7 13 23
f 7 23 14
f 8 14 15
f 9 16 17
f 9 17 18
f 9 18 10
f 11 19 29
f 11 29 20
f 12 20 21
f 13 22 23
f 14 23 24
f 14 24 25
f 14 25 15
f 15 25 26
f 16 27 28
f 16 28 17
f 19 30 39
f 19 39 29
f 20 29 31
f 20 31 32
f 20 32 21
f 21 32 33
f 22 33 32
f 22 32 23
f 23 32 24
f 24 32 31
f 24 31 34
f 24 34 25
f 25 34 35
f 25 35 26
f 27 36 28
f 28 36 37
f 28 37 38
f 29 39 31
f 30 40 46
f 30 46 44
f 30 44 39
f 31 39 34
f 34 41 35
f 34 39 41
f 37 42 43
f 37 43 38
f 39 44 41
f 40 43 42
f 40 42 45
f 40 45 46

