# https://github.com/mikedh/trimesh
v -0.01203270 -0.04043809 0.00060091
v -0.01203270 -0.04021999 -0.00009137
v -0.00352609 -0.04043809 0.00060091
v -0.01203270 -0.04043809 0.04939909
v -0.01203270 -0.03988328 -0.00026568
v -0.00352609 -0.04021999 -0.00009137
v -0.00352609 -0.04043809 0.04939909
v -0.00352609 -0.04041896 0.04946384
v -0.01203270 -0.04033861 0.04971784
v -0.01203270 -0.03959821 -0.00041012
v -0.00352609 -0.03959821 -0.00041012
v -0.00352609 -0.04021999 0.05009137
v -0.01203270 -0.04021999 0.05009137
v -0.01203270 -0.03879852 -0.00044000
v -0.00352609 -0.03879852 -0.00044000
v -0.00352609 -0.04016260 0.05012125
v -0.01203270 -0.03959821 0.05041012
v -0.01203270 -0.02316804 -0.00044000
v -0.00352609 -0.02840052 -0.00044000
v -0.00352609 -0.03959821 0.05041012
v -0.00352609 -0.03952551 0.05041510
v -0.01203270 -0.03923089 0.05042506
v -0.01203270 -0.02236835 -0.00042008
v -0.00440040 -0.02760082 -0.00043502
v -0.00352609 -0.02767544 -0.00041510
v -0.00352609 -0.03879852 0.05044000
v -0.01203270 -0.03879852 0.05044000
v -0.01203270 -0.02147299 -0.00016109
v -0.00352609 -0.02760082 -0.00040514
v -0.00352609 -0.02840052 0.05044000
v -0.01203270 -0.02360042 0.05044000
v -0.01203270 -0.02128167 -0.00006647
v -0.00352609 -0.02701349 -0.00011627
v -0.01159971 -0.02360042 0.05044000
v -0.00352609 -0.02760082 0.05040514
v -0.00360020 -0.02760082 0.05041012
v -0.00440040 -0.02760082 0.05043502
v -0.01203270 -0.02280072 0.05043004
v -0.01203270 -0.02092009 0.00054612
v -0.01180122 -0.02138116 0.00000824
v -0.00352609 -0.02696374 -0.00008639
v -0.00352609 -0.02696374 0.05008639
v -0.01203270 -0.02128167 0.05006647
v -0.01203270 -0.02198572 0.05030553
v -0.01159971 -0.02280072 0.05042008
v -0.01203270 -0.02089713 0.00060091
v -0.00352609 -0.02673799 0.00054612
v -0.00352609 -0.02672460 0.04939909
v -0.01203270 -0.02089713 0.04939909
v -0.01180122 -0.02138116 0.04999176
v -0.00352609 -0.02672460 0.00060091
v -0.01203270 -0.02089522 0.00140276
v -0.01203270 -0.02089522 0.04859724
f 1 2 6
f 1 6 3
f 1 3 7
f 1 7 4
f 1 4 9
f 1 9 13
f 1 13 17
f 1 17 22
f 1 22 27
f 1 27 31
f 1 31 38
f 1 38 44
f 1 44 43
f 1 43 49
f 1 49 53
f 1 53 52
f 1 52 46
f 1 46 39
f 1 39 32
f 1 32 28
f 1 28 23
f 1 23 18
f 1 18 14
f 1 14 10
f 1 10 5
f 1 5 2
f 2 5 6
f 3 6 11
f 3 11 15
f 3 15 19
f 3 19 25
f 3 25 29
f 3 29 33
f 3 33 41
f 3 41 47
f 3 47 51
f 3 51 48
f 3 48 42
f 3 42 35
f 3 35 30
f 3 30 26
f 3 26 21
f 3 21 20
f 3 20 16
f 3 16 12
f 3 12 8
f 3 8 7
f 4 7 8
f 4 8 9
f 5 10 11
f 5 11 6
f 8 12 9
f 9 12 13
f 10 14 15
f 10 15 11
f 12 16 13
f 13 16 17
f 14 18 19
f 14 19 15
f 16 20 17
f 17 20 21
f 17 21 22
f 18 23 24
f 18 24 19
f 19 24 25
f 21 26 27
f 21 27 22
f 23 25 24
f 23 28 29
f 23 29 25
f 26 30 34
f 26 34 31
f 26 31 27
f 28 32 33
f 28 33 29
f 30 35 36
f 30 36 37
f 30 37 34
f 31 34 38
f 32 39 40
f 32 40 41
f 32 41 33
f 34 37 38
f 35 42 43
f 35 43 44
f 35 44 45
f 35 45 36
f 36 45 37
f 37 45 38
f 38 45 44
f 39 41 40
f 39 46 41
f 41 46 47
f 42 48 49
f 42 49 50
f 42 50 43
f 43 50 49
f 46 51 47
f 46 52 51
f 48 53 49
f 48 51 52
f 48 52 53

