# https://github.com/mikedh/trimesh
v 0.02485051 0.00965708 0.02697782
v 0.04044000 0.00965708 0.02697782
v 0.02485051 0.00965708 0.03499581
v 0.02485051 0.04043699 0.02697782
v 0.04044000 0.00965708 0.03454290
v 0.04044000 0.03959932 0.02697782
v 0.03999132 0.00965708 0.03499581
v 0.02485051 0.02054079 0.03499581
v 0.02485051 0.04043699 0.03179960
v 0.03959910 0.04043699 0.02697782
v 0.04044000 0.00966009 0.03499581
v 0.04021871 0.04021703 0.02697782
v 0.04044000 0.03959932 0.03499581
v 0.02612636 0.03879781 0.03499581
v 0.02485051 0.03879781 0.03403506
v 0.02485051 0.04043398 0.03215046
v 0.02760061 0.04043699 0.03499581
v 0.03961741 0.04043097 0.02697782
v 0.03959910 0.04043699 0.03499581
v 0.04021871 0.04021703 0.03499581
v 0.02626066 0.03953905 0.03499581
v 0.02485051 0.03909611 0.03399032
v 0.02485051 0.04042795 0.03259943
v 0.02485051 0.04032550 0.03294480
v 0.02485051 0.04019593 0.03334590
v 0.02683601 0.04022004 0.03499581
v 0.02626219 0.03954508 0.03499581
v 0.02485051 0.03941250 0.03390162
v 0.02485051 0.03964452 0.03380429
v 0.02643159 0.03994282 0.03499581
v 0.02682838 0.04021703 0.03499581
f 1 2 5
f 1 5 7
f 1 7 3
f 1 3 8
f 1 8 15
f 1 15 22
f 1 22 28
f 1 28 29
f 1 29 25
f 1 25 24
f 1 24 23
f 1 23 16
f 1 16 9
f 1 9 4
f 1 4 10
f 1 10 18
f 1 18 12
f 1 12 6
f 1 6 2
f 2 6 13
f 2 13 11
f 2 11 5
f 3 7 11
f 3 11 13
f 3 13 20
f 3 20 19
f 3 19 17
f 3 17 26
f 3 26 31
f 3 31 30
f 3 30 27
f 3 27 21
f 3 21 14
f 3 14 8
f 4 9 17
f 4 17 19
f 4 19 10
f 5 11 7
f 6 12 20
f 6 20 13
f 8 14 15
f 9 16 17
f 10 19 18
f 12 18 20
f 14 21 15
f 15 21 22
f 16 23 17
f 17 23 24
f 17 24 25
f 17 25 26
f 18 19 20
f 21 27 22
f 22 27 28
f 25 29 30
f 25 30 31
f 25 31 26
f 27 30 28
f 28 30 29

