# https://github.com/mikedh/trimesh
v 0.02484898 0.03879781 0.05044000
v 0.02484898 0.03924677 0.05042492
v 0.01596295 0.03879781 0.05044000
v 0.02484898 0.00965708 0.05044000
v 0.02484898 0.03959932 0.05041286
v 0.01596295 0.03959932 0.05041286
v 0.01596295 0.01800065 0.05044000
v 0.01880028 0.00965708 0.05044000
v 0.02484898 0.00965708 0.03503848
v 0.01596295 0.03987955 0.05026812
v 0.02484898 0.04021703 0.05009322
v 0.01596295 0.01720215 0.05042944
v 0.01640046 0.01640064 0.05044000
v 0.01800005 0.01080210 0.05038572
v 0.01800005 0.01000059 0.05027565
v 0.01797657 0.00965708 0.05019273
v 0.01640046 0.01560214 0.05042040
v 0.02484898 0.02054380 0.03503848
v 0.01751818 0.00965708 0.03503848
v 0.01596295 0.04021703 0.05009322
v 0.01596295 0.04031948 0.04977810
v 0.02484898 0.04043699 0.04939966
v 0.01596295 0.01640064 0.05035255
v 0.01640046 0.01480062 0.05031033
v 0.01751557 0.01000059 0.04995451
v 0.01755819 0.00965708 0.04988364
v 0.01596295 0.01563830 0.05022289
v 0.01596295 0.01480062 0.05004799
v 0.02391219 0.03879781 0.03503848
v 0.02484898 0.03879781 0.03595820
v 0.01751731 0.00965708 0.03980142
v 0.01596295 0.01426427 0.04779995
v 0.01596295 0.01427934 0.03660050
v 0.01596295 0.01428235 0.03503848
v 0.01596295 0.04043699 0.04939966
v 0.02484898 0.04043699 0.03820020
v 0.01751644 0.00965708 0.04939966
v 0.01596295 0.01435166 0.04987309
v 0.01596904 0.01432454 0.04986706
v 0.02372518 0.03959932 0.03503848
v 0.02484898 0.03941551 0.03609088
v 0.01751644 0.00965708 0.04539964
v 0.01596295 0.01426427 0.04939966
v 0.01596295 0.04043699 0.03503848
v 0.02484898 0.04043097 0.03775241
v 0.02199947 0.04043699 0.03503848
v 0.01596295 0.01430947 0.04969367
v 0.02337639 0.04015074 0.03503848
v 0.02484898 0.03974998 0.03632458
v 0.02484898 0.04042494 0.03740111
v 0.02279970 0.04037070 0.03503848
v 0.02484898 0.04019292 0.03667890
v 0.02484898 0.03991570 0.03644369
f 1 2 3
f 1 3 7
f 1 7 13
f 1 13 8
f 1 8 4
f 1 4 9
f 1 9 18
f 1 18 30
f 1 30 41
f 1 41 49
f 1 49 53
f 1 53 52
f 1 52 50
f 1 50 45
f 1 45 36
f 1 36 22
f 1 22 11
f 1 11 5
f 1 5 2
f 2 5 6
f 2 6 3
f 3 6 10
f 3 10 20
f 3 20 21
f 3 21 35
f 3 35 44
f 3 44 34
f 3 34 33
f 3 33 32
f 3 32 43
f 3 43 47
f 3 47 38
f 3 38 28
f 3 28 27
f 3 27 23
f 3 23 12
f 3 12 7
f 4 8 16
f 4 16 26
f 4 26 37
f 4 37 42
f 4 42 31
f 4 31 19
f 4 19 9
f 5 10 6
f 5 11 10
f 7 12 13
f 8 14 15
f 8 15 16
f 8 13 17
f 8 17 14
f 9 19 34
f 9 34 44
f 9 44 46
f 9 46 51
f 9 51 48
f 9 48 40
f 9 40 29
f 9 29 18
f 10 11 20
f 11 21 20
f 11 22 21
f 12 23 17
f 12 17 13
f 14 17 24
f 14 24 15
f 15 24 16
f 16 25 26
f 16 24 27
f 16 27 28
f 16 28 25
f 17 23 24
f 18 29 30
f 19 31 32
f 19 32 33
f 19 33 34
f 21 22 35
f 22 36 46
f 22 46 44
f 22 44 35
f 23 27 24
f 25 28 26
f 26 28 38
f 26 38 39
f 26 39 37
f 29 40 41
f 29 41 30
f 31 42 32
f 32 42 37
f 32 37 43
f 36 45 46
f 37 39 47
f 37 47 43
f 38 47 39
f 40 48 41
f 41 48 49
f 45 50 46
f 46 50 51
f 48 51 52
f 48 52 53
f 48 53 49
f 50 52 51

