# https://github.com/mikedh/trimesh
v -0.03879768 0.00998537 -0.00044000
v -0.03879768 0.03879743 -0.00044000
v -0.01880247 0.00998537 -0.00044000
v -0.03959643 0.00998537 -0.00041012
v -0.03948571 0.02269368 -0.00041510
v -0.01350907 0.03879743 -0.00044000
v -0.03959907 0.03879743 -0.00041012
v -0.03959907 0.03959636 -0.00039020
v -0.03879768 0.03959636 -0.00041012
v -0.01400203 0.02040422 -0.00044000
v -0.01350907 0.02120314 -0.00043502
v -0.01800108 0.01080218 -0.00039020
v -0.01800108 0.01000028 -0.00028561
v -0.01800108 0.00998537 -0.00028063
v -0.03960961 0.01561661 -0.00040514
v -0.03959907 0.01561661 -0.00041012
v -0.04021856 0.00998537 -0.00009137
v -0.01350907 0.02200505 -0.00044000
v -0.01350907 0.03959636 -0.00041012
v -0.03985214 0.02473572 -0.00028063
v -0.04021593 0.03959636 -0.00009137
v -0.04014475 0.04014189 0.00000824
v -0.03959907 0.04021642 -0.00009137
v -0.01350907 0.02040422 -0.00036031
v -0.01350907 0.01963808 -0.00017106
v -0.01751339 0.00998537 0.00003812
v -0.04044000 0.00998537 0.00060091
v -0.04022384 0.01561661 -0.00007643
v -0.04021856 0.01561661 -0.00009137
v -0.01350907 0.04021642 -0.00009137
v -0.04023702 0.02686718 -0.00003659
v -0.04044000 0.03959636 0.00060091
v -0.04021593 0.04021642 0.00060091
v -0.03959907 0.04044000 0.00060091
v -0.01350907 0.01905379 0.00005306
v -0.01742376 0.00998537 0.00060091
v -0.04044000 0.00998537 0.04939909
v -0.01350907 0.04044000 0.00060091
v -0.04044000 0.03959636 0.04939909
v -0.04021593 0.04021642 0.04939909
v -0.03959907 0.04044000 0.04939909
v -0.01350907 0.01889281 0.00060091
v -0.01350907 0.01888983 0.00122346
v -0.01742376 0.00998537 0.04939909
v -0.04022384 0.00998537 0.05007643
v -0.01350907 0.04044000 0.04939909
v -0.04033983 0.03435862 0.04971286
v -0.04021593 0.03959636 0.05009137
v -0.04014475 0.04014189 0.04999176
v -0.03959907 0.04021642 0.05009137
v -0.01350907 0.01888983 0.04859724
v -0.01350907 0.01889281 0.04939909
v -0.01350907 0.01904187 0.04992702
v -0.01751339 0.00998537 0.04996188
v -0.04021856 0.00998537 0.05009137
v -0.04021856 0.01561661 0.05009137
v -0.01350907 0.04021642 0.05009137
v -0.04017111 0.02686718 0.05011627
v -0.04009467 0.03815650 0.05015611
v -0.03959907 0.03879743 0.05041012
v -0.03959907 0.03959636 0.05039020
v -0.01350907 0.03997794 0.05021588
v -0.03879768 0.03959636 0.05041012
v -0.01350907 0.01905379 0.04994694
v -0.01350907 0.01932507 0.05008141
v -0.01350907 0.02009120 0.05034039
v -0.01800108 0.01000028 0.05028561
v -0.01800108 0.00998537 0.05028063
v -0.03996286 0.02473572 0.05022584
v -0.03960961 0.00998537 0.05040514
v -0.03982578 0.02411267 0.05029557
v -0.03959907 0.01561661 0.05041012
v -0.03953580 0.02686718 0.05041510
v -0.03923792 0.03435862 0.05042506
v -0.03879768 0.03879743 0.05044000
v -0.01350907 0.03959636 0.05041012
v -0.01350907 0.02089311 0.05043502
v -0.01800108 0.01080218 0.05039020
v -0.01880247 0.00998537 0.05044000
v -0.01801689 0.00998537 0.05028561
v -0.03959643 0.00998537 0.05041012
v -0.03879768 0.00998537 0.05044000
v -0.01350907 0.03879743 0.05044000
v -0.01350907 0.02169502 0.05044000
v -0.01400203 0.02040422 0.05044000
f 1 2 6
f 1 6 18
f 1 18 10
f 1 10 3
f 1 3 14
f 1 14 26
f 1 26 36
f 1 36 44
f 1 44 54
f 1 54 68
f 1 68 80
f 1 80 79
f 1 79 82
f 1 82 81
f 1 81 70
f 1 70 55
f 1 55 45
f 1 45 37
f 1 37 27
f 1 27 17
f 1 17 4
f 1 4 5
f 1 5 2
f 2 5 7
f 2 7 8
f 2 8 9
f 2 9 19
f 2 19 6
f 3 10 11
f 3 11 12
f 3 12 13
f 3 13 14
f 4 15 16
f 4 16 5
f 4 17 15
f 5 16 7
f 6 19 30
f 6 30 38
f 6 38 46
f 6 46 57
f 6 57 62
f 6 62 76
f 6 76 83
f 6 83 84
f 6 84 77
f 6 77 66
f 6 66 65
f 6 65 64
f 6 64 53
f 6 53 52
f 6 52 51
f 6 51 43
f 6 43 42
f 6 42 35
f 6 35 25
f 6 25 24
f 6 24 11
f 6 11 18
f 7 16 15
f 7 15 20
f 7 20 21
f 7 21 8
f 8 21 22
f 8 22 23
f 8 23 9
f 9 23 30
f 9 30 19
f 10 18 11
f 11 24 12
f 12 24 13
f 13 24 25
f 13 25 26
f 13 26 14
f 15 17 20
f 17 27 28
f 17 28 29
f 17 29 20
f 20 29 21
f 21 29 31
f 21 31 32
f 21 32 22
f 22 32 33
f 22 33 34
f 22 34 23
f 23 34 38
f 23 38 30
f 25 35 26
f 26 35 36
f 27 37 39
f 27 39 32
f 27 32 31
f 27 31 28
f 28 31 29
f 32 39 40
f 32 40 33
f 33 40 41
f 33 41 34
f 34 41 46
f 34 46 38
f 35 42 36
f 36 42 43
f 36 43 51
f 36 51 44
f 37 45 39
f 39 45 47
f 39 47 48
f 39 48 49
f 39 49 40
f 40 49 41
f 41 49 50
f 41 50 57
f 41 57 46
f 44 51 52
f 44 52 53
f 44 53 54
f 45 55 56
f 45 56 47
f 47 56 48
f 48 56 58
f 48 58 59
f 48 59 60
f 48 60 61
f 48 61 49
f 49 61 50
f 50 62 57
f 50 61 63
f 50 63 62
f 53 64 54
f 54 64 65
f 54 65 66
f 54 66 67
f 54 67 68
f 55 69 56
f 55 70 69
f 56 69 58
f 58 69 59
f 59 69 60
f 60 69 71
f 60 71 70
f 60 70 72
f 60 72 73
f 60 73 74
f 60 74 75
f 60 75 61
f 61 75 63
f 62 63 76
f 63 75 83
f 63 83 76
f 66 77 78
f 66 78 67
f 67 78 79
f 67 79 80
f 67 80 68
f 69 70 71
f 70 81 72
f 72 81 73
f 73 81 82
f 73 82 75
f 73 75 74
f 75 82 79
f 75 79 85
f 75 85 84
f 75 84 83
f 77 84 85
f 77 85 79
f 77 79 78

