# https://github.com/mikedh/trimesh
v 0.01377066 0.01848127 0.00060091
v 0.00753635 0.02490659 0.00060091
v 0.00753635 0.02491949 0.00050130
v 0.00789948 0.02473247 0.00008295
v 0.01377066 0.01851137 0.00053616
v 0.01377066 0.01848127 0.04939909
v 0.00753635 0.02490659 0.04939909
v 0.00753635 0.02521614 -0.00009635
v 0.01350456 0.01905523 0.00005804
v 0.01377066 0.01890260 -0.00005153
v 0.01377066 0.01890260 0.05005153
v 0.01350456 0.01905523 0.04994196
v 0.00789948 0.02473247 0.04991705
v 0.00753635 0.02521614 0.05009635
v 0.00753635 0.02526989 -0.00012623
v 0.01377066 0.01901869 -0.00011129
v 0.01377066 0.01961844 0.05028561
v 0.00753635 0.02600077 0.05041012
v 0.00753635 0.02600077 -0.00041012
v 0.01377066 0.01982911 -0.00036529
v 0.01377066 0.02040092 0.05040015
v 0.00760043 0.02600077 0.05042008
v 0.00753635 0.02680044 0.05044000
v 0.00753635 0.02606526 -0.00042008
v 0.00760043 0.02600077 -0.00042008
v 0.01377066 0.02062878 -0.00043502
v 0.01377066 0.02120059 0.05043502
v 0.01319941 0.02120059 0.05043004
v 0.00840054 0.02600077 0.05044000
v 0.00753635 0.03879982 0.05044000
v 0.00753635 0.02680044 -0.00044000
v 0.00840054 0.02600077 -0.00044000
v 0.01377066 0.02143060 -0.00044000
v 0.01377066 0.02200026 0.05044000
v 0.01319941 0.02200026 0.05044000
v 0.00753635 0.03953500 0.05041510
v 0.01377066 0.03879982 0.05044000
v 0.00753635 0.03879982 -0.00044000
v 0.01377066 0.03879982 -0.00044000
v 0.01377066 0.03936947 0.05042008
v 0.01377066 0.03959949 0.05041012
v 0.00753635 0.03959949 0.05041012
v 0.00753635 0.03959949 -0.00041012
v 0.01377066 0.03959949 -0.00041012
v 0.01377066 0.04021859 0.05009137
v 0.00753635 0.04021859 0.05009137
v 0.00753635 0.03964893 -0.00038522
v 0.01377066 0.03977576 -0.00032047
v 0.01377066 0.04044000 0.04939909
v 0.00753635 0.04044000 0.04939909
v 0.00753635 0.04021859 -0.00009137
v 0.01377066 0.04021859 -0.00009137
v 0.01377066 0.04044000 0.00060091
v 0.00753635 0.04044000 0.00060091
f 1 2 3
f 1 3 4
f 1 4 5
f 1 5 10
f 1 10 16
f 1 16 20
f 1 20 26
f 1 26 33
f 1 33 39
f 1 39 44
f 1 44 48
f 1 48 52
f 1 52 53
f 1 53 49
f 1 49 45
f 1 45 41
f 1 41 40
f 1 40 37
f 1 37 34
f 1 34 27
f 1 27 21
f 1 21 17
f 1 17 11
f 1 11 6
f 1 6 7
f 1 7 2
f 2 7 14
f 2 14 18
f 2 18 23
f 2 23 30
f 2 30 36
f 2 36 42
f 2 42 46
f 2 46 50
f 2 50 54
f 2 54 51
f 2 51 47
f 2 47 43
f 2 43 38
f 2 38 31
f 2 31 24
f 2 24 19
f 2 19 15
f 2 15 8
f 2 8 3
f 3 8 4
f 4 9 5
f 4 8 9
f 5 9 10
f 6 11 12
f 6 12 13
f 6 13 7
f 7 13 14
f 8 15 10
f 8 10 9
f 10 15 16
f 11 17 18
f 11 18 14
f 11 14 12
f 12 14 13
f 15 19 16
f 16 19 20
f 17 21 22
f 17 22 18
f 18 22 23
f 19 24 25
f 19 25 20
f 20 25 26
f 21 27 28
f 21 28 22
f 22 28 29
f 22 29 23
f 23 29 35
f 23 35 34
f 23 34 37
f 23 37 30
f 24 31 25
f 25 31 26
f 26 31 32
f 26 32 33
f 27 34 35
f 27 35 28
f 28 35 29
f 30 37 36
f 31 38 39
f 31 39 33
f 31 33 32
f 36 40 41
f 36 41 42
f 36 37 40
f 38 43 44
f 38 44 39
f 41 45 46
f 41 46 42
f 43 47 44
f 44 47 48
f 45 49 50
f 45 50 46
f 47 51 48
f 48 51 52
f 49 53 54
f 49 54 50
f 51 54 53
f 51 53 52

