# https://github.com/mikedh/trimesh
v 0.04044000 -0.02087334 0.04939909
v 0.04044000 -0.03959676 0.04939909
v 0.04044000 -0.02087334 0.00060091
v 0.04043660 -0.01736849 0.04939909
v 0.04039241 -0.01736849 0.04954352
v 0.04021564 -0.02288095 0.05009137
v 0.04014424 -0.04014326 0.04999176
v 0.04021564 -0.04021779 0.04939909
v 0.04044000 -0.03959676 0.00060091
v 0.04021564 -0.03959676 0.05009137
v 0.04023943 -0.02288095 -0.00002164
v 0.04025983 -0.01736849 0.00005306
v 0.04043660 -0.01736849 0.00060091
v 0.04021223 -0.01736849 0.05009137
v 0.03985188 -0.02087334 0.05028063
v 0.04008305 -0.03657292 0.05016109
v 0.03959692 -0.04043684 0.04939909
v 0.03959692 -0.03959676 0.05039020
v 0.03959692 -0.04021779 0.05009137
v 0.04021564 -0.04021779 0.00060091
v 0.04014424 -0.04014326 0.00000824
v 0.04021564 -0.03959676 -0.00009137
v 0.04026663 -0.03657292 0.00006302
v 0.04008305 -0.03657517 0.05016109
v 0.03959692 -0.03879733 0.05041012
v 0.04021564 -0.02288095 -0.00009137
v 0.04021223 -0.01736849 -0.00009137
v 0.03959352 -0.01736849 0.05041012
v 0.03959692 -0.02288095 0.05041012
v 0.00571035 -0.04043684 0.04939909
v 0.03959692 -0.04043684 0.00060091
v 0.03879803 -0.03879733 0.05044000
v 0.03879803 -0.03959676 0.05041012
v 0.00571035 -0.04021779 0.05009137
v 0.03959692 -0.04021779 -0.00009137
v 0.03959692 -0.03959676 -0.00039020
v 0.03959692 -0.03879733 -0.00041012
v 0.03989268 -0.03118014 -0.00026070
v 0.03951533 -0.02288095 0.05041510
v 0.03950853 -0.02849278 0.05041510
v 0.03965811 -0.02288095 -0.00038023
v 0.03972270 -0.01736849 -0.00034537
v 0.03879463 -0.01736849 0.05044000
v 0.00571035 -0.04043684 0.00060091
v 0.03879803 -0.02547798 0.05044000
v 0.00571035 -0.03879733 0.05044000
v 0.00571035 -0.03908638 0.05043004
v 0.03937935 -0.02622095 0.05042008
v 0.00571035 -0.03959676 0.05041012
v 0.00571035 -0.04021779 -0.00009137
v 0.03879803 -0.03959676 -0.00041012
v 0.03879803 -0.03879733 -0.00044000
v 0.03959692 -0.02288095 -0.00041012
v 0.03906999 -0.02547798 -0.00043004
v 0.03959352 -0.01736849 -0.00041012
v 0.01623871 -0.01736849 0.05044000
v 0.00571035 -0.02760302 0.05044000
v 0.00571035 -0.03959676 -0.00041012
v 0.00571035 -0.03879733 -0.00044000
v 0.03879803 -0.02547798 -0.00044000
v 0.03879463 -0.01736849 -0.00044000
v 0.01560640 -0.01736849 0.05042506
v 0.00571035 -0.02709265 0.05042008
v 0.00571035 -0.02760302 -0.00044000
v 0.01640529 -0.01736849 -0.00044000
v 0.01543642 -0.01736849 0.05039020
v 0.00571035 -0.02680133 0.05037027
v 0.01560640 -0.01800081 -0.00044000
v 0.00571035 -0.02680133 -0.00037027
v 0.00600271 -0.02680133 -0.00041510
v 0.01560640 -0.01736849 -0.00042506
v 0.01479731 -0.01736849 0.05011129
v 0.00571035 -0.02633838 0.05014117
v 0.00571035 -0.02612159 -0.00001168
v 0.01479731 -0.01736849 -0.00011129
v 0.01470892 -0.01736849 0.05005651
v 0.00571035 -0.02622095 0.05007643
v 0.00571035 -0.02593189 0.00060091
v 0.01437237 -0.01755141 0.00014271
v 0.01463073 -0.01736849 0.00001322
v 0.00571035 -0.02612159 0.05001168
v 0.01463073 -0.01736849 0.04998678
v 0.00571035 -0.02592738 0.00140276
v 0.01444716 -0.01736849 0.00108899
v 0.01445056 -0.01736849 0.00060091
v 0.01437237 -0.01755141 0.04985729
v 0.01446416 -0.01736849 0.04965807
v 0.00571035 -0.02597480 0.04960329
v 0.00571035 -0.02592738 0.04859724
v 0.01442336 -0.01736849 0.02433262
v 0.01445056 -0.01736849 0.04939909
v 0.00571035 -0.02593189 0.04939909
v 0.01444716 -0.01736849 0.04859724
v 0.01442336 -0.01736849 0.02592636
f 1 2 9
f 1 9 3
f 1 3 13
f 1 13 4
f 1 4 5
f 1 5 6
f 1 6 10
f 1 10 2
f 2 7 8
f 2 8 20
f 2 20 9
f 2 10 7
f 3 9 11
f 3 11 12
f 3 12 13
f 4 13 12
f 4 12 27
f 4 27 42
f 4 42 55
f 4 55 61
f 4 61 65
f 4 65 71
f 4 71 75
f 4 75 80
f 4 80 85
f 4 85 84
f 4 84 90
f 4 90 94
f 4 94 93
f 4 93 91
f 4 91 87
f 4 87 82
f 4 82 76
f 4 76 72
f 4 72 66
f 4 66 62
f 4 62 56
f 4 56 43
f 4 43 28
f 4 28 14
f 4 14 5
f 5 14 6
f 6 14 15
f 6 15 16
f 6 16 24
f 6 24 10
f 7 17 8
f 7 10 18
f 7 18 19
f 7 19 17
f 8 17 31
f 8 31 20
f 9 20 21
f 9 21 22
f 9 22 23
f 9 23 11
f 10 24 25
f 10 25 18
f 11 22 26
f 11 26 27
f 11 27 12
f 11 23 22
f 14 28 15
f 15 28 29
f 15 29 25
f 15 25 24
f 15 24 16
f 17 19 34
f 17 34 30
f 17 30 44
f 17 44 31
f 18 25 32
f 18 32 33
f 18 33 19
f 19 33 49
f 19 49 34
f 20 31 21
f 21 35 36
f 21 36 22
f 21 31 35
f 22 36 37
f 22 37 38
f 22 38 26
f 25 29 39
f 25 39 40
f 25 40 32
f 26 38 41
f 26 41 42
f 26 42 27
f 28 43 39
f 28 39 29
f 30 34 49
f 30 49 47
f 30 47 46
f 30 46 57
f 30 57 63
f 30 63 67
f 30 67 73
f 30 73 77
f 30 77 81
f 30 81 88
f 30 88 92
f 30 92 89
f 30 89 83
f 30 83 78
f 30 78 74
f 30 74 69
f 30 69 64
f 30 64 59
f 30 59 58
f 30 58 50
f 30 50 44
f 31 44 50
f 31 50 35
f 32 45 43
f 32 43 56
f 32 56 57
f 32 57 46
f 32 46 47
f 32 47 33
f 32 40 48
f 32 48 45
f 33 47 49
f 35 50 58
f 35 58 51
f 35 51 36
f 36 51 52
f 36 52 37
f 37 53 41
f 37 41 38
f 37 52 54
f 37 54 53
f 39 43 48
f 39 48 40
f 41 53 55
f 41 55 42
f 43 45 48
f 51 58 59
f 51 59 52
f 52 59 64
f 52 64 68
f 52 68 65
f 52 65 61
f 52 61 60
f 52 60 54
f 53 54 55
f 54 60 61
f 54 61 55
f 56 62 57
f 57 62 63
f 62 66 67
f 62 67 63
f 64 69 70
f 64 70 71
f 64 71 68
f 65 68 71
f 66 72 67
f 67 72 73
f 69 74 75
f 69 75 71
f 69 71 70
f 72 76 77
f 72 77 73
f 74 78 79
f 74 79 80
f 74 80 75
f 76 81 77
f 76 82 81
f 78 83 84
f 78 84 85
f 78 85 79
f 79 85 80
f 81 82 86
f 81 86 87
f 81 87 88
f 82 87 86
f 83 89 94
f 83 94 90
f 83 90 84
f 87 91 92
f 87 92 88
f 89 92 91
f 89 91 93
f 89 93 94

