# https://github.com/mikedh/trimesh
v 0.01596295 0.03879744 0.05044000
v 0.01596295 0.03959950 0.05041244
v 0.01377127 0.03879744 0.05044000
v 0.01596295 0.01800019 0.05044000
v 0.01596295 0.04021963 0.05009320
v 0.01377127 0.03959950 0.05041244
v 0.01377127 0.02200025 0.05044000
v 0.01559996 0.01800019 0.05044000
v 0.01596295 0.01720068 0.05042851
v 0.01377127 0.04021963 0.05009320
v 0.01596295 0.04031957 0.04977855
v 0.01377127 0.02120075 0.05043770
v 0.01400017 0.02040125 0.05044000
v 0.01480017 0.01880225 0.05043081
v 0.01559996 0.01720068 0.05041933
v 0.01596295 0.01640118 0.05035273
v 0.01377127 0.04037594 0.04959712
v 0.01596295 0.04043744 0.04939960
v 0.01377127 0.04043744 0.04939960
v 0.01377127 0.02040125 0.05040325
v 0.01400017 0.01960175 0.05038718
v 0.01559996 0.01640118 0.05027923
v 0.01596295 0.01563756 0.05022182
v 0.01596295 0.04043744 0.02697703
v 0.01377127 0.04043744 0.02697703
v 0.01377127 0.01961969 0.05028612
v 0.01596295 0.01480218 0.05004726
v 0.01596295 0.01429737 0.02697703
v 0.01377127 0.01850244 0.02697703
v 0.01377127 0.01890218 0.05005415
v 0.01586812 0.01480218 0.04998985
v 0.01596295 0.01435118 0.04987272
v 0.01596295 0.01428712 0.02697933
v 0.01595844 0.01429737 0.02697703
v 0.01596295 0.01426150 0.04939960
v 0.01377127 0.01847937 0.04846485
v 0.01377127 0.01848194 0.04939960
v 0.01437196 0.01755175 0.04985664
v 0.01596295 0.01431018 0.04969357
v 0.01377127 0.01847937 0.04859806
f 1 2 6
f 1 6 3
f 1 3 7
f 1 7 13
f 1 13 8
f 1 8 4
f 1 4 9
f 1 9 16
f 1 16 23
f 1 23 27
f 1 27 32
f 1 32 39
f 1 39 35
f 1 35 33
f 1 33 28
f 1 28 24
f 1 24 18
f 1 18 11
f 1 11 5
f 1 5 2
f 2 5 10
f 2 10 6
f 3 6 10
f 3 10 17
f 3 17 19
f 3 19 25
f 3 25 29
f 3 29 36
f 3 36 40
f 3 40 37
f 3 37 30
f 3 30 26
f 3 26 20
f 3 20 12
f 3 12 7
f 4 8 9
f 5 11 10
f 7 12 13
f 8 14 15
f 8 15 9
f 8 13 14
f 9 15 16
f 10 11 17
f 11 18 19
f 11 19 17
f 12 20 13
f 13 20 21
f 13 21 14
f 14 21 15
f 15 22 23
f 15 23 16
f 15 21 22
f 18 24 25
f 18 25 19
f 20 26 21
f 21 26 27
f 21 27 22
f 22 27 23
f 24 28 34
f 24 34 29
f 24 29 25
f 26 30 27
f 27 30 31
f 27 31 32
f 28 33 34
f 29 34 33
f 29 33 35
f 29 35 36
f 30 37 38
f 30 38 32
f 30 32 31
f 32 38 37
f 32 37 39
f 35 39 37
f 35 37 40
f 35 40 36

