# Blender 5.2.0 LTS
# www.blender.org
mtllib arch_hole_no_threads.mtl
o 06_arch_peghole_(1mm)
v 0.019866 -0.034359 0.000000
v 0.019866 -0.034359 0.050000
v 0.021234 -0.034160 0.025000
v 0.021234 -0.034160 0.050000
v 0.022469 -0.033580 0.025000
v 0.022469 -0.033580 0.050000
v 0.023448 -0.032678 0.025000
v 0.023448 -0.032678 0.050000
v 0.024078 -0.031540 0.025000
v 0.024078 -0.031540 0.050000
v 0.024294 -0.030280 0.050000
v 0.024294 -0.030280 0.000000
v 0.024078 -0.031540 0.000000
v 0.023448 -0.032678 0.000000
v 0.022469 -0.033580 0.000000
v 0.021234 -0.034160 0.000000
v 0.024294 0.030356 0.050000
v 0.024294 0.030356 -0.000000
v 0.024078 0.031616 0.025000
v 0.024078 0.031616 0.050000
v 0.023448 0.032754 0.025000
v 0.023448 0.032754 0.050000
v 0.022469 0.033656 0.025000
v 0.022469 0.033656 0.050000
v 0.021234 0.034235 0.025000
v 0.021234 0.034235 0.050000
v 0.019866 0.034435 0.050000
v 0.019866 0.034435 -0.000000
v 0.021234 0.034235 -0.000000
v 0.022469 0.033656 -0.000000
v 0.023448 0.032754 -0.000000
v 0.024078 0.031616 -0.000000
v -0.017233 0.034435 0.050000
v -0.017233 0.034435 -0.000000
v -0.018988 0.019835 -0.000000
v -0.018988 0.019835 0.016667
v -0.017748 0.019528 -0.000000
v -0.018988 0.019835 0.033333
v -0.017748 0.019528 0.050000
v -0.018988 0.019835 0.050000
v -0.020080 0.020456 0.050000
v -0.020080 0.020456 0.033333
v -0.020933 0.021339 0.050000
v -0.020933 0.021339 0.033333
v -0.021476 0.022410 0.050000
v -0.021476 0.022410 0.033333
v -0.021661 0.023580 0.050000
v -0.021476 0.022410 0.016667
v -0.021661 0.023580 -0.000000
v -0.021476 0.022410 -0.000000
v -0.020933 0.021339 -0.000000
v -0.020933 0.021339 0.016667
v -0.020080 0.020456 -0.000000
v -0.020080 0.020456 0.016667
v -0.021661 0.030356 -0.000000
v -0.021661 0.030356 0.050000
v -0.018601 0.034235 0.025000
v -0.018601 0.034235 0.050000
v -0.019836 0.033656 0.025000
v -0.019836 0.033656 0.050000
v -0.020815 0.032754 0.025000
v -0.020815 0.032754 0.050000
v -0.021445 0.031616 0.025000
v -0.021445 0.031616 0.050000
v -0.021445 0.031616 -0.000000
v -0.020815 0.032754 -0.000000
v -0.019836 0.033656 -0.000000
v -0.018601 0.034235 -0.000000
v -0.017233 -0.034359 0.050000
v -0.017233 -0.034359 0.000000
v -0.018601 -0.034160 0.025000
v -0.018601 -0.034160 0.000000
v -0.019836 -0.033580 0.025000
v -0.019836 -0.033580 0.000000
v -0.020815 -0.032678 0.025000
v -0.020815 -0.032678 0.000000
v -0.021445 -0.031540 0.025000
v -0.021445 -0.031540 0.000000
v -0.021661 -0.030280 0.000000
v -0.021661 -0.030280 0.050000
v -0.021445 -0.031540 0.050000
v -0.020815 -0.032678 0.050000
v -0.019836 -0.033580 0.050000
v -0.018601 -0.034160 0.050000
v -0.021661 -0.023504 0.000000
v -0.021661 -0.023504 0.050000
v -0.018988 -0.019759 0.050000
v -0.018988 -0.019759 0.033333
v -0.017748 -0.019453 0.050000
v -0.018988 -0.019759 0.016667
v -0.017748 -0.019453 0.000000
v -0.018988 -0.019759 0.000000
v -0.020080 -0.020380 0.000000
v -0.020080 -0.020380 0.016667
v -0.020933 -0.021263 0.000000
v -0.020933 -0.021263 0.016667
v -0.021476 -0.022335 0.000000
v -0.021476 -0.022335 0.016667
v -0.021476 -0.022335 0.033333
v -0.021476 -0.022335 0.050000
v -0.020933 -0.021263 0.050000
v -0.020933 -0.021263 0.033333
v -0.020080 -0.020380 0.050000
v -0.020080 -0.020380 0.033333
v -0.014708 0.018993 -0.000000
v -0.014708 0.018993 0.050000
v -0.011785 0.018056 -0.000000
v -0.011785 0.018056 0.050000
v -0.009039 0.016739 -0.000000
v -0.009039 0.016739 0.050000
v -0.006531 0.015069 -0.000000
v -0.006531 0.015069 0.050000
v -0.004311 0.013082 -0.000000
v -0.004311 0.013082 0.050000
v -0.002427 0.010820 -0.000000
v -0.002427 0.010820 0.050000
v -0.000918 0.008331 -0.000000
v -0.000918 0.008331 0.050000
v 0.000182 0.005665 -0.000000
v 0.000182 0.005665 0.050000
v 0.000852 0.002881 -0.000000
v 0.000852 0.002881 0.050000
v 0.001077 0.000038 -0.000000
v 0.001077 0.000038 0.050000
v 0.000852 -0.002805 0.000000
v 0.000852 -0.002805 0.050000
v 0.000182 -0.005589 0.000000
v 0.000182 -0.005589 0.050000
v -0.000918 -0.008255 0.000000
v -0.000918 -0.008255 0.050000
v -0.002427 -0.010744 0.000000
v -0.002427 -0.010744 0.050000
v -0.004311 -0.013007 0.000000
v -0.004311 -0.013007 0.050000
v -0.006531 -0.014993 0.000000
v -0.006531 -0.014993 0.050000
v -0.009039 -0.016664 0.000000
v -0.009039 -0.016664 0.050000
v -0.011785 -0.017980 0.000000
v -0.011785 -0.017980 0.050000
v -0.014708 -0.018917 0.000000
v -0.014708 -0.018917 0.050000
v -0.039492 -0.022923 0.035313
v -0.039390 -0.023484 0.033546
v -0.039339 -0.024282 0.033027
v -0.039288 -0.025226 0.032912
v -0.039237 -0.026125 0.033226
v -0.039186 -0.026792 0.033905
v -0.038550 -0.025919 0.033112
v -0.038499 -0.026658 0.033711
v -0.038040 -0.023001 0.034356
v -0.037327 -0.023089 0.034129
v -0.036920 -0.026233 0.036700
v -0.036869 -0.025356 0.037070
v -0.036640 -0.023004 0.034348
v -0.036589 -0.023496 0.033534
v -0.035952 -0.022943 0.034576
v -0.035850 -0.024080 0.033112
v -0.035698 -0.026668 0.033725
v -0.035265 -0.022909 0.034809
v -0.034934 -0.027093 0.034834
v -0.033864 -0.022910 0.034800
v -0.033813 -0.023212 0.033898
v -0.033457 -0.026721 0.036204
v -0.033151 -0.022947 0.034559
v -0.032820 -0.027098 0.035086
v -0.032438 -0.023012 0.034324
v -0.031649 -0.024104 0.033101
v -0.031420 -0.027098 0.035095
v -0.031063 -0.022911 0.034783
v -0.031013 -0.023221 0.033884
v -0.030936 -0.024330 0.033010
v -0.030351 -0.022950 0.034543
v -0.030300 -0.023363 0.033685
v -0.030198 -0.025042 0.032900
v -0.030147 -0.025965 0.033135
v -0.029612 -0.023226 0.033877
v -0.029561 -0.023904 0.033209
v -0.029408 -0.026538 0.033571
v -0.029055 -0.026643 0.035155
v -0.028925 -0.023111 0.034082
v -0.028721 -0.026369 0.033407
v -0.028670 -0.026931 0.034175
v -0.028371 -0.026647 0.034908
v -0.028237 -0.023020 0.034300
v -0.028186 -0.023533 0.033498
v -0.027395 -0.023757 0.036085
v -0.027550 -0.022954 0.034526
v -0.027422 -0.024582 0.032942
v -0.027295 -0.026699 0.033766
v -0.039339 -0.025725 0.016971
v -0.038932 -0.025335 0.012927
v -0.038181 -0.023366 0.015229
v -0.037497 -0.023415 0.015460
v -0.037660 -0.023249 0.013840
v -0.037507 -0.025789 0.013054
v -0.037304 -0.026683 0.016256
v -0.036616 -0.026817 0.016053
v -0.036133 -0.025319 0.012924
v -0.035904 -0.026688 0.016250
v -0.035573 -0.023123 0.014058
v -0.035370 -0.026387 0.013424
v -0.035268 -0.027096 0.015135
v -0.035217 -0.026821 0.016046
v -0.034530 -0.026930 0.015828
v -0.034174 -0.023120 0.014065
v -0.033461 -0.023236 0.013860
v -0.031349 -0.023370 0.013676
v -0.031069 -0.027097 0.015111
v -0.030558 -0.023893 0.016224
v -0.030382 -0.027096 0.014867
v -0.027089 -0.024269 0.016479
v -0.026991 -0.023395 0.015384
v -0.025373 0.039670 0.037067
v -0.026961 0.039084 0.035751
v -0.023420 0.038855 0.036383
v -0.024516 0.038626 0.032957
v -0.027033 0.038397 0.035526
v -0.023686 0.037743 0.034002
v -0.023414 0.037455 0.036377
v -0.023578 0.036767 0.036546
v -0.023356 0.036425 0.035145
v -0.026028 0.036207 0.036831
v -0.023358 0.034326 0.035162
v -0.023824 0.034229 0.033842
v -0.023951 0.033992 0.036819
v -0.023401 0.033643 0.035405
v -0.023380 0.033594 0.034688
v -0.025599 0.033399 0.033463
v -0.026195 0.033350 0.033862
v -0.023747 0.033279 0.036685
v -0.023479 0.032959 0.035639
v -0.027098 0.032820 0.035086
v -0.023560 0.032566 0.036528
v -0.023591 0.032276 0.035858
v -0.025807 0.031983 0.033561
v -0.023735 0.031593 0.036059
v -0.023405 0.031544 0.035422
v -0.024374 0.031216 0.037004
v -0.023906 0.030909 0.036236
v -0.023553 0.031165 0.036522
v -0.023486 0.030861 0.035655
v -0.023982 0.030714 0.033701
v -0.024629 0.030665 0.033392
v -0.025998 0.030568 0.033686
v -0.026818 0.030783 0.033949
v -0.024602 0.030529 0.037062
v -0.025791 0.029884 0.033552
v -0.026928 0.030070 0.034167
v -0.026171 0.029152 0.033837
v -0.026822 0.029383 0.033956
v -0.027011 0.029357 0.034396
v -0.025545 0.029179 0.037028
v -0.025984 0.028469 0.033676
v -0.026694 0.028695 0.033759
v -0.026931 0.028670 0.034175
v -0.026552 0.028543 0.036414
v -0.025776 0.027786 0.033544
v -0.026826 0.027982 0.033964
v -0.025983 0.027804 0.036856
v -0.026934 0.027270 0.034183
v -0.022900 0.039823 0.014958
v -0.023684 0.039925 0.016637
v -0.024158 0.038296 0.013076
v -0.025319 0.036133 0.012924
v -0.022913 0.032112 0.014763
v -0.023105 0.028575 0.014094
v -0.023360 0.028550 0.013689
v -0.024011 0.028262 0.013679
v -0.023699 0.028524 0.013352
v -0.024106 0.028499 0.013100
v -0.025510 0.028423 0.012963
v -0.023938 0.028041 0.016812
v -0.025735 0.027710 0.013033
v -0.027095 0.027583 0.014851
v -0.023394 0.027303 0.016353
v -0.026205 0.026699 0.013873
v 0.039517 0.023048 0.035775
v 0.039441 0.022998 0.034364
v 0.039288 0.025226 0.032912
v 0.039237 0.026125 0.033226
v 0.037837 0.026132 0.033231
v 0.037108 0.023353 0.034898
v 0.034934 0.027093 0.034834
v 0.034221 0.027099 0.035078
v 0.034043 0.024861 0.037095
v 0.033643 0.023401 0.035405
v 0.033406 0.026013 0.036840
v 0.033304 0.024161 0.036925
v 0.032922 0.026349 0.033391
v 0.032227 0.023360 0.035180
v 0.031929 0.024611 0.037064
v 0.031267 0.025323 0.037075
v 0.038907 0.025796 0.013057
v 0.038881 0.026215 0.013287
v 0.038500 0.023353 0.016303
v 0.038194 0.026009 0.013158
v 0.037507 0.025789 0.013054
v 0.037151 0.024104 0.016899
v 0.034275 0.023111 0.015918
v 0.030484 0.026175 0.013260
v 0.027099 0.024099 0.013103
v -0.039339 0.024282 0.033027
v -0.039288 0.025226 0.032912
v -0.039237 0.026125 0.033226
v -0.035519 0.026226 0.036705
v -0.035494 0.025808 0.036938
v -0.035469 0.025348 0.037071
v -0.033712 0.024781 0.032911
v -0.033057 0.024517 0.036578
v -0.032374 0.024758 0.036632
v -0.032311 0.024790 0.032911
v -0.027005 0.026547 0.034427
v -0.039925 0.023684 0.016637
v -0.039899 0.023348 0.016296
v -0.039365 0.026153 0.016755
v -0.039237 0.023883 0.016778
v -0.038678 0.026348 0.016610
v -0.038525 0.023690 0.016642
v -0.038296 0.024158 0.013076
v -0.038245 0.025093 0.012902
v -0.037838 0.023890 0.016782
v -0.037456 0.026566 0.013601
v -0.037151 0.024104 0.016899
v -0.036764 0.023350 0.014978
v -0.036177 0.024118 0.016395
v -0.036438 0.023896 0.016787
v -0.032708 0.024533 0.016582
v -0.030611 0.023906 0.013208
v -0.030535 0.025287 0.012920
v -0.028143 0.025786 0.016947
v -0.027507 0.026716 0.016210
v -0.027456 0.026006 0.016843
v 0.023591 0.039568 0.036557
v 0.026323 0.038524 0.033369
v 0.025702 0.037862 0.033021
v 0.023089 0.037327 0.034129
v 0.023004 0.036640 0.034348
v 0.023496 0.036589 0.033534
v 0.025252 0.035087 0.032915
v 0.025456 0.034521 0.036586
v 0.022910 0.033864 0.034800
v 0.022947 0.033151 0.034559
v 0.026538 0.029408 0.033571
v 0.026544 0.028008 0.033577
v 0.025297 0.027066 0.037079
v 0.026950 0.039517 0.014220
v 0.026809 0.039416 0.016067
v 0.026520 0.039390 0.016449
v 0.023010 0.039161 0.015670
v 0.022910 0.039136 0.015201
v 0.023035 0.039085 0.014259
v 0.026846 0.038830 0.013999
v 0.022900 0.038423 0.014966
v 0.022962 0.038398 0.014491
v 0.026718 0.038143 0.013792
v 0.026566 0.037456 0.013601
v 0.025944 0.037008 0.016353
v 0.023929 0.036861 0.016255
v 0.026713 0.036744 0.013785
v 0.023364 0.036080 0.015214
v 0.023029 0.036286 0.014274
v 0.026561 0.036057 0.013595
v 0.023123 0.035573 0.014058
v 0.026526 0.034272 0.015627
v 0.023230 0.033588 0.016130
v 0.026405 0.030754 0.015865
v 0.029250 -0.024856 0.033356
v 0.028517 -0.023372 0.034730
v 0.027005 -0.026547 0.034427
v 0.039467 -0.027094 0.015160
v 0.038830 -0.026846 0.013999
v 0.037456 -0.026566 0.013601
v 0.035777 -0.024565 0.017054
v 0.033028 -0.025531 0.017032
v 0.032291 -0.024822 0.017092
v 0.031858 -0.026544 0.013577
v 0.031654 -0.025985 0.016855
v 0.030178 -0.024597 0.017061
v 0.029746 -0.026689 0.013752
v 0.028804 -0.025082 0.017098
v 0.028143 -0.025786 0.016947
v 0.028092 -0.024846 0.017094
v 0.027456 -0.026006 0.016843
v 0.027379 -0.024613 0.017064
v 0.025373 -0.039670 0.037067
v 0.024423 -0.039619 0.037019
v 0.024282 -0.039339 0.033027
v 0.023774 -0.038881 0.036705
v 0.023148 -0.038830 0.035989
v 0.022901 -0.038779 0.035070
v 0.022922 -0.038091 0.035305
v 0.023039 -0.035316 0.035752
v 0.022919 -0.033890 0.035279
v 0.023132 -0.033228 0.035959
v 0.023717 -0.027473 0.033338
v 0.025662 -0.038906 0.016511
v 0.026423 -0.036876 0.015835
v 0.026514 -0.035489 0.015656
v 0.025444 -0.035390 0.016589
v 0.025232 -0.034994 0.013366
v 0.025726 -0.033311 0.016482
v 0.023901 -0.030191 0.013769
v 0.023899 -0.029211 0.013212
v 0.024148 -0.028753 0.016919
v 0.024279 -0.028309 0.016484
v -0.025573 -0.039619 0.012980
v -0.026406 -0.039568 0.013440
v -0.026950 -0.039517 0.014220
v -0.027094 -0.039467 0.015160
v -0.026809 -0.039416 0.016067
v -0.026153 -0.039365 0.016755
v -0.024781 -0.039288 0.017089
v -0.024337 -0.035064 0.016993
v -0.025098 -0.026784 0.013353
v -0.023395 -0.026991 0.015384
v -0.023376 -0.039055 0.035293
v -0.026805 -0.034985 0.033927
v -0.025017 -0.034399 0.032900
v -0.023897 -0.032128 0.036227
v -0.025533 -0.027371 0.032969
v -0.025524 -0.025524 0.033435
v -0.025919 -0.025131 0.036645
v -0.025874 -0.024483 0.036567
v -0.026035 -0.024355 0.033002
v -0.026631 -0.026220 0.033291
v -0.023287 -0.026650 0.034968
v -0.024535 -0.025372 0.036607
v -0.024474 -0.024474 0.036564
v -0.024835 -0.024351 0.033358
v -0.024677 -0.023662 0.033382
v -0.025233 -0.026189 0.033269
v -0.023430 -0.026570 0.035508
v -0.023662 -0.024677 0.033382
v -0.023662 -0.024677 0.033382
v -0.026459 -0.026911 0.035770
v -0.026695 -0.023242 0.034432
v -0.026547 -0.027005 0.034427
v -0.025757 -0.026037 0.013534
v -0.026597 -0.023529 0.013879
v -0.023699 -0.025710 0.013387
v -0.023715 -0.025694 0.013410
v -0.025019 -0.023776 0.013294
v -0.025057 -0.023806 0.013351
v -0.025397 -0.026301 0.016601
v -0.025396 -0.026276 0.016621
v -0.023568 -0.026363 0.015930
v -0.023522 -0.025873 0.016400
v -0.022614 -0.023406 0.015426
v -0.022577 -0.023354 0.014882
v -0.022290 -0.023002 0.014354
v -0.022540 -0.023483 0.014350
v -0.021167 -0.023372 0.014730
v -0.023031 -0.022903 0.015114
v -0.024374 -0.025492 0.016575
v -0.023803 -0.026350 0.016136
v -0.026583 -0.026583 0.015464
v -0.026515 -0.026032 0.016287
v -0.025796 -0.025796 0.016445
v -0.025644 -0.023765 0.013481
v -0.025360 -0.026304 0.016610
v -0.023024 -0.026131 0.016201
v -0.023113 -0.026650 0.015031
v -0.022046 -0.023374 0.014721
v -0.025942 -0.024058 0.036355
v -0.026385 -0.024520 0.033421
v -0.025324 -0.024583 0.032925
v -0.023355 -0.038524 0.035127
v -0.023552 -0.037060 0.034209
v -0.023712 -0.035790 0.036032
v -0.023881 -0.035107 0.036212
v -0.023207 -0.026236 0.036093
v -0.024353 -0.020885 0.033482
v -0.024674 -0.020682 0.033383
v -0.025028 -0.020838 0.033350
v -0.023350 -0.020000 0.035000
v -0.023539 -0.020000 0.034233
v -0.024063 -0.020000 0.033642
v -0.025048 -0.020137 0.033351
v -0.025716 -0.020090 0.033513
v -0.022947 -0.023351 0.035045
v -0.022619 -0.029135 0.014233
v -0.024308 -0.025692 0.016498
v -0.023512 -0.021712 0.016481
v -0.023488 -0.021010 0.016458
v -0.023418 -0.023105 0.016381
v -0.026410 -0.023468 0.013444
v -0.025998 -0.023495 0.013152
v -0.025026 -0.023549 0.012900
v -0.024049 -0.023602 0.013128
v -0.026263 -0.023737 0.016062
v -0.026301 -0.025397 0.016601
v -0.026304 -0.025360 0.016610
v -0.026879 0.026649 0.035047
v -0.023980 0.031436 0.036297
v -0.024068 0.030743 0.036361
v -0.026199 0.028269 0.033867
v -0.026122 0.027577 0.033790
v -0.024569 0.022089 0.033407
v -0.026640 0.021873 0.035179
v -0.023558 0.021366 0.036527
v -0.023065 0.021320 0.035817
v -0.024367 0.021404 0.033476
v -0.024917 0.023804 0.036648
v -0.026039 0.023886 0.036282
v -0.024351 0.024835 0.033358
v -0.023662 0.024677 0.033382
v -0.026265 0.025247 0.033369
v -0.026318 0.025224 0.033365
v -0.025015 0.026152 0.036756
v -0.023242 0.026695 0.034432
v -0.025452 0.024021 0.036587
v -0.024677 0.023662 0.033382
v -0.024677 0.023662 0.033382
v -0.024727 0.025759 0.033373
v -0.026644 0.022755 0.035146
v -0.026204 0.025796 0.033555
v -0.025038 0.025038 0.033350
v -0.025003 0.025040 0.033350
v -0.025556 0.025056 0.033351
v -0.026419 0.024035 0.016433
v -0.024981 0.023811 0.013350
v -0.026276 0.025396 0.016621
v -0.027097 0.026869 0.015116
v -0.027012 0.026843 0.015601
v -0.025232 0.034994 0.013366
v -0.023612 0.034548 0.015892
v -0.024257 0.028062 0.013527
v -0.023388 0.021909 0.015352
v -0.022902 0.021630 0.015088
v -0.023361 0.021872 0.014806
v -0.023554 0.021241 0.015794
v -0.025863 0.020721 0.016406
v -0.024480 0.025439 0.013409
v -0.025880 0.025432 0.013408
v -0.026304 0.025360 0.016610
v -0.025569 0.025129 0.016645
v -0.025043 0.025043 0.016649
v -0.024962 0.025038 0.016650
v -0.023718 0.026215 0.013883
v -0.023401 0.022093 0.015406
v -0.023406 0.021394 0.015426
v -0.025040 0.025003 0.033350
v -0.021273 0.022900 0.034969
v -0.020581 0.022903 0.035110
v -0.030001 0.023631 0.035921
v -0.027230 0.023919 0.036246
v -0.022001 0.027042 0.014511
v -0.023244 0.025810 0.016938
v -0.022540 0.023483 0.014350
v -0.025360 0.026304 0.016610
v -0.025692 0.024308 0.016498
v -0.026486 0.023026 0.014283
v -0.023765 0.020000 0.016094
v -0.023398 0.020000 0.015395
v -0.023398 0.020000 0.014605
v -0.024415 0.020000 0.016543
v 0.026272 0.023652 0.036610
v 0.026686 0.025258 0.032916
v 0.022965 0.023409 0.035438
v 0.022594 0.026644 0.034858
v 0.021187 0.026650 0.034965
v 0.023366 0.022919 0.034769
v 0.023840 0.026083 0.033201
v 0.024677 0.023662 0.033382
v 0.025900 0.026154 0.036383
v 0.026523 0.023887 0.033782
v 0.026489 0.026834 0.034290
v 0.024351 0.024835 0.033358
v 0.023173 0.023371 0.034136
v 0.025495 0.023844 0.036574
v 0.025038 0.025038 0.033350
v 0.026072 0.023381 0.033745
v 0.025926 0.024764 0.013367
v 0.024496 0.025207 0.013363
v 0.024035 0.026419 0.016433
v 0.023699 0.025710 0.013387
v 0.024997 0.024145 0.013082
v 0.025019 0.023776 0.013294
v 0.025396 0.026276 0.016621
v 0.023191 0.023654 0.013981
v 0.024981 0.023811 0.013350
v 0.024345 0.025070 0.016649
v 0.023503 0.023503 0.013941
v 0.026515 0.026032 0.016287
v 0.026179 0.023821 0.013846
v 0.026385 0.024520 0.033421
v 0.024204 0.025796 0.033555
v 0.022947 0.023351 0.035045
v 0.023604 0.021181 0.033431
v 0.024085 0.022125 0.033627
v 0.023968 0.020935 0.036288
v 0.026602 0.020000 0.035395
v 0.023351 0.023289 0.015064
v 0.023407 0.023255 0.014569
v 0.024753 0.023127 0.013369
v 0.025171 0.023098 0.013359
v 0.023362 0.023362 0.014799
v 0.026304 0.025360 0.016610
v 0.026301 0.025397 0.016602
v 0.026248 0.038955 0.016080
v -0.025040 0.024997 0.016650
v 0.026493 -0.026931 0.035778
v 0.023402 -0.022957 0.035474
v 0.023404 -0.022959 0.035466
v 0.023409 -0.022965 0.035438
v 0.024340 -0.026152 0.036706
v 0.024246 -0.023735 0.036513
v 0.023849 -0.026562 0.033723
v 0.023484 -0.024007 0.033587
v 0.023497 -0.024020 0.033605
v 0.022919 -0.023366 0.034769
v 0.021801 -0.026200 0.036132
v 0.020826 -0.023355 0.034874
v 0.022965 -0.023409 0.035438
v 0.023759 -0.024270 0.036480
v 0.023730 -0.024242 0.036520
v 0.023726 -0.026692 0.036049
v 0.039288 -0.025226 0.032912
v 0.039899 -0.026653 0.033704
v 0.038040 -0.023001 0.034356
v 0.037989 -0.023490 0.033540
v 0.037506 -0.024185 0.036935
v 0.037276 -0.023670 0.033375
v 0.036844 -0.024878 0.037096
v 0.036054 -0.023409 0.036370
v 0.035876 -0.023677 0.033369
v 0.035214 -0.023208 0.033906
v 0.035163 -0.023875 0.033227
v 0.034730 -0.024627 0.037067
v 0.034679 -0.023754 0.036690
v 0.034476 -0.023683 0.033364
v 0.033788 -0.023508 0.033522
v 0.033737 -0.024314 0.033015
v 0.033279 -0.023747 0.036685
v 0.033177 -0.022900 0.035036
v 0.032489 -0.022918 0.035271
v 0.032438 -0.023012 0.034324
v 0.031853 -0.023392 0.036351
v 0.031802 -0.022961 0.035502
v 0.031649 -0.024104 0.033101
v 0.031063 -0.022911 0.034783
v 0.030401 -0.022959 0.035494
v 0.029765 -0.023547 0.036516
v 0.029663 -0.022912 0.034775
v 0.029026 -0.023120 0.035936
v 0.028925 -0.023111 0.034082
v 0.028314 -0.023024 0.035712
v 0.027651 -0.023376 0.036331
v 0.027550 -0.022954 0.034526
v 0.024685 -0.024685 0.033041
v 0.024887 -0.023776 0.036692
v 0.024894 -0.023782 0.036682
v 0.024677 -0.023662 0.033382
v 0.024677 -0.023661 0.033382
v 0.024677 -0.023663 0.033381
v 0.026619 -0.025132 0.036645
v 0.026236 -0.023207 0.036093
v 0.025247 -0.026265 0.033369
v 0.025227 -0.026273 0.033330
v 0.026246 -0.025203 0.033363
v 0.026459 -0.026911 0.035770
v 0.025844 -0.026380 0.033582
v 0.026403 -0.025867 0.033550
v 0.026419 -0.025883 0.033527
v 0.023663 -0.024677 0.033381
v 0.026039 -0.023886 0.036282
v 0.026911 -0.026459 0.035770
v 0.026692 -0.023726 0.036049
v 0.024677 -0.023662 0.033382
v 0.025040 -0.025003 0.033350
v 0.026879 -0.026649 0.035047
v 0.022947 -0.023351 0.035045
v 0.026265 -0.025247 0.033369
v 0.025873 -0.023522 0.016400
v 0.025885 -0.023510 0.016417
v 0.025500 -0.024419 0.013322
v 0.025070 -0.024345 0.016649
v 0.025040 -0.024997 0.016650
v 0.025707 -0.024209 0.016491
v 0.026393 -0.024061 0.016396
v 0.026443 -0.024011 0.016467
v 0.030412 -0.023537 0.014238
v 0.029776 -0.023358 0.015167
v 0.026784 -0.025098 0.013353
v 0.026718 -0.026223 0.013846
v 0.026727 -0.026232 0.013833
v 0.025660 -0.023749 0.013458
v 0.025378 -0.026353 0.016606
v 0.025360 -0.026304 0.016610
v 0.024677 -0.026339 0.016618
v 0.024480 -0.025439 0.013409
v 0.025954 -0.024363 0.013478
v 0.026272 -0.025356 0.016632
v 0.026276 -0.025396 0.016621
v 0.025562 -0.025779 0.016551
v 0.025397 -0.026301 0.016602
v 0.023190 -0.023674 0.013959
v 0.023522 -0.025873 0.016400
v 0.023491 -0.025904 0.016445
v 0.023509 -0.025886 0.016419
v 0.026090 -0.023910 0.013761
v 0.024581 -0.025419 0.013404
v 0.026301 -0.025397 0.016602
v 0.025414 -0.039012 0.033403
v 0.025172 -0.038329 0.033359
v 0.026219 -0.037548 0.033888
v 0.026650 -0.036767 0.034978
v 0.025822 -0.034082 0.033569
v 0.023535 -0.032862 0.034240
v 0.026012 -0.032667 0.033697
v 0.026619 -0.029787 0.034681
v 0.023837 -0.022847 0.033830
v 0.026225 -0.022667 0.033895
v 0.026560 -0.022802 0.034463
v 0.026432 -0.022007 0.035820
v 0.026422 -0.021306 0.035838
v 0.025902 -0.023174 0.036382
v 0.025324 -0.024583 0.032925
v 0.024997 -0.025040 0.016650
v 0.026247 -0.027236 0.016080
v 0.023779 -0.022503 0.013890
v 0.025989 -0.022131 0.016320
v 0.023832 -0.021797 0.013835
v 0.024802 -0.021723 0.013362
v 0.023887 -0.021092 0.013782
v 0.026548 -0.020795 0.015572
v 0.024082 -0.020556 0.013629
v -0.040000 0.040000 -0.000000
v -0.040000 0.040000 0.050000
v 0.040000 0.040000 0.050000
v 0.040000 0.040000 -0.000000
v 0.040000 -0.040000 0.050000
v 0.040000 -0.040000 0.000000
v -0.040000 -0.040000 0.000000
v -0.040000 -0.040000 0.050000
vn -0.1443 0.9895 -0.0000
vn -0.4250 0.9052 -0.0000
vn -0.6775 0.7355 -0.0000
vn -0.8750 0.4841 -0.0000
vn -0.9855 0.1694 -0.0000
vn -1.0000 -0.0000 -0.0000
vn -0.9855 -0.1694 -0.0000
vn -0.8750 -0.4841 -0.0000
vn -0.6775 -0.7355 -0.0000
vn -0.4250 -0.9052 -0.0000
vn -0.1443 -0.9895 -0.0000
vn -0.0000 -1.0000 -0.0000
vn 0.2400 0.9708 -0.0000
vn 0.2395 0.9709 -0.0000
vn 0.4944 0.8693 -0.0000
vn 0.4939 0.8695 -0.0000
vn 0.7196 0.6944 -0.0000
vn 0.8919 0.4522 -0.0000
vn 0.9876 0.1570 -0.0000
vn 0.9877 0.1566 -0.0000
vn 0.8921 0.4518 -0.0000
vn 0.7193 0.6947 -0.0000
vn 1.0000 -0.0000 -0.0000
vn 0.1443 -0.9895 -0.0000
vn 0.4250 -0.9052 -0.0000
vn 0.6775 -0.7355 -0.0000
vn 0.8750 -0.4841 -0.0000
vn 0.9855 -0.1694 -0.0000
vn 0.1443 0.9895 -0.0000
vn 0.4250 0.9052 -0.0000
vn 0.6775 0.7355 -0.0000
vn 0.8750 0.4841 -0.0000
vn 0.9855 0.1694 -0.0000
vn 0.2400 -0.9708 -0.0000
vn 0.4943 -0.8693 -0.0000
vn 0.4944 -0.8693 -0.0000
vn 0.4939 -0.8695 -0.0000
vn 0.7196 -0.6944 -0.0000
vn 0.8922 -0.4516 -0.0000
vn 0.8919 -0.4522 -0.0000
vn 0.9876 -0.1570 -0.0000
vn 0.9877 -0.1566 -0.0000
vn 0.7193 -0.6947 -0.0000
vn 0.4942 -0.8693 -0.0000
vn -0.0000 1.0000 -0.0000
vn 0.1736 0.9848 -0.0000
vn 0.1739 0.9848 -0.0000
vn 0.3052 0.9523 -0.0000
vn 0.4324 0.9017 -0.0000
vn 0.5538 0.8326 -0.0000
vn 0.6669 0.7452 -0.0000
vn 0.7685 0.6399 -0.0000
vn 0.8551 0.5184 -0.0000
vn 0.9244 0.3814 -0.0000
vn 0.9722 0.2341 -0.0000
vn 0.9969 0.0789 -0.0000
vn 0.9969 -0.0789 -0.0000
vn 0.9722 -0.2341 -0.0000
vn 0.9244 -0.3814 -0.0000
vn 0.9242 -0.3818 -0.0000
vn 0.8551 -0.5184 -0.0000
vn 0.7685 -0.6399 -0.0000
vn 0.6669 -0.7452 -0.0000
vn 0.5538 -0.8326 -0.0000
vn 0.4324 -0.9017 -0.0000
vn 0.3052 -0.9523 -0.0000
vn 0.1736 -0.9848 -0.0000
vn 0.1739 -0.9848 -0.0000
vn -0.3866 0.8635 0.3238
vn -0.3867 0.8635 0.3237
vn -0.3871 0.8637 0.3227
vn -0.3027 0.8636 0.4032
vn -0.3033 0.8634 0.4032
vn 0.8741 -0.4544 0.1714
vn 0.8736 -0.4555 0.1712
vn -0.1748 0.1965 0.9648
vn -0.4827 -0.8750 0.0362
vn -0.4830 -0.8749 0.0354
vn -0.9975 -0.0554 -0.0447
vn 0.9745 0.2025 0.0964
vn 0.9745 0.2028 0.0963
vn -0.8690 -0.2757 0.4110
vn 0.8655 -0.3542 0.3542
vn 0.0696 0.8643 0.4981
vn -0.0000 -0.0000 1.0000
vn -0.0000 -0.0000 -1.0000
s 1
usemtl Material.002
f 1//1 2//1 3//1
f 3//1 2//1 4//1
f 3//2 4//2 5//2
f 5//2 4//2 6//2
f 5//3 6//3 7//3
f 7//3 6//3 8//3
f 7//4 8//4 9//4
f 9//4 8//4 10//4
f 9//5 10//5 11//5
f 11//5 12//5 9//5
f 9//5 12//5 13//5
f 9//4 13//4 7//4
f 7//4 13//4 14//4
f 7//3 14//3 5//3
f 5//3 14//3 15//3
f 5//2 15//2 3//2
f 3//2 15//2 16//2
f 3//1 16//1 1//1
f 11//6 17//6 12//6
f 12//6 17//6 18//6
f 18//7 17//7 19//7
f 19//7 17//7 20//7
f 19//8 20//8 21//8
f 21//8 20//8 22//8
f 21//9 22//9 23//9
f 23//9 22//9 24//9
f 23//10 24//10 25//10
f 25//10 24//10 26//10
f 25//11 26//11 27//11
f 27//11 28//11 25//11
f 25//11 28//11 29//11
f 25//10 29//10 23//10
f 23//10 29//10 30//10
f 23//9 30//9 21//9
f 21//9 30//9 31//9
f 21//8 31//8 19//8
f 19//8 31//8 32//8
f 19//7 32//7 18//7
f 27//12 33//12 28//12
f 28//12 33//12 34//12
f 35//13 36//13 37//13
f 37//13 36//13 38//14
f 37//13 38//14 39//13
f 39//13 38//14 40//13
f 40//15 38//16 41//16
f 41//16 38//16 42//15
f 41//17 42//17 43//17
f 43//17 42//17 44//17
f 43//18 44//18 45//18
f 45//18 44//18 46//18
f 45//19 46//20 47//20
f 47//20 46//20 48//20
f 47//20 48//20 49//19
f 49//19 48//20 50//19
f 50//21 48//18 51//21
f 51//21 48//18 52//18
f 51//22 52//17 53//17
f 53//17 52//17 54//17
f 53//16 54//16 35//16
f 35//16 54//16 36//15
f 42//15 38//16 36//15
f 42//15 36//15 54//16
f 44//17 42//17 54//17
f 44//17 54//17 52//17
f 46//18 44//18 52//18
f 46//18 52//18 48//18
f 49//23 55//23 47//23
f 47//23 55//23 56//23
f 34//24 33//24 57//24
f 57//24 33//24 58//24
f 57//25 58//25 59//25
f 59//25 58//25 60//25
f 59//26 60//26 61//26
f 61//26 60//26 62//26
f 61//27 62//27 63//27
f 63//27 62//27 64//27
f 63//28 64//28 56//28
f 56//28 55//28 63//28
f 63//28 55//28 65//28
f 63//27 65//27 61//27
f 61//27 65//27 66//27
f 61//26 66//26 59//26
f 59//26 66//26 67//26
f 59//25 67//25 57//25
f 57//25 67//25 68//25
f 57//24 68//24 34//24
f 69//29 70//29 71//29
f 71//29 70//29 72//29
f 71//30 72//30 73//30
f 73//30 72//30 74//30
f 73//31 74//31 75//31
f 75//31 74//31 76//31
f 75//32 76//32 77//32
f 77//32 76//32 78//32
f 77//33 78//33 79//33
f 79//33 80//33 77//33
f 77//33 80//33 81//33
f 77//32 81//32 75//32
f 75//32 81//32 82//32
f 75//31 82//31 73//31
f 73//31 82//31 83//31
f 73//30 83//30 71//30
f 71//30 83//30 84//30
f 71//29 84//29 69//29
f 79//23 85//23 80//23
f 80//23 85//23 86//23
f 87//34 88//34 89//34
f 89//34 88//34 90//34
f 89//34 90//34 91//34
f 91//34 90//34 92//34
f 92//35 90//36 93//37
f 93//37 90//36 94//37
f 93//38 94//38 95//38
f 95//38 94//38 96//38
f 95//39 96//40 97//39
f 97//39 96//40 98//40
f 97//41 98//42 85//42
f 85//42 98//42 99//42
f 85//42 99//42 86//42
f 86//42 99//42 100//41
f 100//40 99//40 101//40
f 101//40 99//40 102//40
f 101//38 102//38 103//43
f 103//43 102//38 104//38
f 103//44 104//37 87//37
f 87//37 104//37 88//37
f 94//37 90//36 88//37
f 94//37 88//37 104//37
f 96//38 94//38 104//38
f 96//38 104//38 102//38
f 98//40 96//40 102//40
f 98//40 102//40 99//40
f 1//45 70//45 2//45
f 2//45 70//45 69//45
f 37//46 39//47 105//47
f 105//47 39//47 106//46
f 105//48 106//48 107//48
f 107//48 106//48 108//48
f 107//49 108//49 109//49
f 109//49 108//49 110//49
f 109//50 110//50 111//50
f 111//50 110//50 112//50
f 111//51 112//51 113//51
f 113//51 112//51 114//51
f 113//52 114//52 115//52
f 115//52 114//52 116//52
f 115//53 116//53 117//53
f 117//53 116//53 118//53
f 117//54 118//54 119//54
f 119//54 118//54 120//54
f 119//55 120//55 121//55
f 121//55 120//55 122//55
f 121//56 122//56 123//56
f 123//56 122//56 124//56
f 123//57 124//57 125//57
f 125//57 124//57 126//57
f 125//58 126//58 127//58
f 127//58 126//58 128//58
f 127//59 128//60 129//60
f 129//60 128//60 130//59
f 129//61 130//61 131//61
f 131//61 130//61 132//61
f 131//62 132//62 133//62
f 133//62 132//62 134//62
f 133//63 134//63 135//63
f 135//63 134//63 136//63
f 135//64 136//64 137//64
f 137//64 136//64 138//64
f 137//65 138//65 139//65
f 139//65 138//65 140//65
f 139//66 140//66 141//66
f 141//66 140//66 142//66
f 141//67 142//68 91//68
f 91//68 142//68 89//67
f 733//12 736//12 735//12 734//12
f 269//69 268//70 270//71
f 269//72 270//73 271//73
f 451//74 450//74 452//75
f 473//76 474//76 475//76
f 530//77 529//77 531//78
f 731//45 732//45 729//45 730//45
f 732//23 731//23 733//23 734//23
f 736//6 730//6 729//6 735//6
f 541//79 531//79 529//79
f 595//80 598//81 594//81
f 556//45 554//45 555//45
s 0
f 654//82 655//82 656//82
f 655//83 670//83 656//83
s 1
f 489//84 444//84 443//84
f 58//85 33//85 730//85
f 730//85 33//85 27//85
f 730//85 27//85 731//85
f 731//85 27//85 26//85
f 731//85 26//85 24//85
f 24//85 22//85 731//85
f 731//85 22//85 20//85
f 731//85 20//85 17//85
f 17//85 11//85 731//85
f 731//85 11//85 733//85
f 733//85 11//85 10//85
f 733//85 10//85 8//85
f 8//85 6//85 733//85
f 733//85 6//85 4//85
f 733//85 4//85 2//85
f 2//85 69//85 733//85
f 733//85 69//85 736//85
f 736//85 69//85 84//85
f 736//85 84//85 83//85
f 83//85 82//85 736//85
f 736//85 82//85 81//85
f 736//85 81//85 80//85
f 80//85 86//85 736//85
f 736//85 86//85 100//85
f 736//85 100//85 101//85
f 103//85 41//85 101//85
f 101//85 41//85 43//85
f 101//85 43//85 730//85
f 730//85 43//85 45//85
f 730//85 45//85 47//85
f 103//85 87//85 41//85
f 41//85 87//85 40//85
f 40//85 87//85 89//85
f 40//85 89//85 39//85
f 39//85 89//85 106//85
f 106//85 89//85 108//85
f 108//85 89//85 110//85
f 110//85 89//85 112//85
f 112//85 89//85 114//85
f 114//85 89//85 116//85
f 116//85 89//85 118//85
f 118//85 89//85 120//85
f 120//85 89//85 122//85
f 122//85 89//85 124//85
f 124//85 89//85 126//85
f 126//85 89//85 128//85
f 128//85 89//85 130//85
f 130//85 89//85 132//85
f 132//85 89//85 134//85
f 134//85 89//85 136//85
f 136//85 89//85 138//85
f 138//85 89//85 140//85
f 140//85 89//85 142//85
f 47//85 56//85 730//85
f 730//85 56//85 64//85
f 730//85 64//85 62//85
f 62//85 60//85 730//85
f 730//85 60//85 58//85
f 730//85 736//85 101//85
f 732//86 34//86 729//86
f 729//86 34//86 68//86
f 729//86 68//86 67//86
f 734//86 12//86 732//86
f 732//86 12//86 18//86
f 732//86 18//86 32//86
f 735//86 1//86 734//86
f 734//86 1//86 16//86
f 734//86 16//86 15//86
f 729//86 95//86 735//86
f 735//86 95//86 97//86
f 735//86 97//86 85//86
f 65//86 55//86 729//86
f 729//86 55//86 49//86
f 729//86 49//86 50//86
f 50//86 51//86 729//86
f 729//86 51//86 95//86
f 51//86 53//86 95//86
f 95//86 53//86 93//86
f 93//86 53//86 92//86
f 92//86 53//86 35//86
f 92//86 35//86 91//86
f 91//86 35//86 37//86
f 91//86 37//86 105//86
f 105//86 107//86 91//86
f 91//86 107//86 109//86
f 91//86 109//86 111//86
f 111//86 113//86 91//86
f 91//86 113//86 115//86
f 91//86 115//86 117//86
f 117//86 119//86 91//86
f 91//86 119//86 121//86
f 91//86 121//86 123//86
f 123//86 125//86 91//86
f 91//86 125//86 127//86
f 91//86 127//86 129//86
f 129//86 131//86 91//86
f 91//86 131//86 133//86
f 91//86 133//86 135//86
f 135//86 137//86 91//86
f 91//86 137//86 139//86
f 91//86 139//86 141//86
f 85//86 79//86 735//86
f 735//86 79//86 78//86
f 735//86 78//86 76//86
f 76//86 74//86 735//86
f 735//86 74//86 72//86
f 735//86 72//86 70//86
f 70//86 1//86 735//86
f 15//86 14//86 734//86
f 734//86 14//86 13//86
f 734//86 13//86 12//86
f 32//86 31//86 732//86
f 732//86 31//86 30//86
f 732//86 30//86 29//86
f 29//86 28//86 732//86
f 732//86 28//86 34//86
f 67//86 66//86 729//86
f 729//86 66//86 65//86
l 227 228
l 234 235
l 267 268
l 477 478
l 578 579
l 689 690
l 689 697
l 314 315
l 530 542
l 579 582
l 237 238
l 350 351
l 259 497
l 508 509
l 237 495
l 532 542
l 269 528
l 596 597
l 686 687
l 240 241
l 240 242
l 348 349
l 449 450
l 240 496
l 604 605
l 675 676
l 692 703
l 250 251
l 306 307
l 241 495
l 501 502
l 581 584
l 538 602
l 254 255
l 307 308
l 326 327
l 479 480
l 254 497
l 616 617
l 652 653
l 659 660
l 699 701
l 229 230
l 251 252
l 294 295
l 354 355
l 441 442
l 451 464
l 476 477
l 487 488
l 258 498
l 664 665
l 444 460
l 243 244
l 255 256
l 518 519
l 524 525
l 518 543
l 554 557
l 610 611
