# Blender 5.0.1
# www.blender.org
mtllib rectangle_hole_chamfer.mtl
o rectangle_hole_rotated_180
v 0.016019 -0.022643 0.025000
v 0.015493 -0.023675 0.025000
v 0.014675 -0.024493 0.025000
v 0.013643 -0.025019 0.025000
v 0.013643 0.025019 0.025000
v 0.014675 0.024493 0.025000
v 0.015493 0.023675 0.025000
v 0.016019 0.022643 0.025000
v -0.012500 -0.025200 0.025000
v 0.012500 -0.025200 0.025000
v -0.016200 0.021500 0.025000
v -0.016019 0.022643 0.025000
v -0.015493 0.023675 0.025000
v -0.014675 0.024493 0.025000
v -0.013643 0.025019 0.025000
v -0.016200 -0.021500 0.025000
v 0.012500 0.025200 0.025000
v -0.012500 0.025200 0.025000
v 0.016200 -0.021500 0.025000
v 0.016200 0.021500 0.025000
v -0.013643 -0.025019 0.025000
v -0.014675 -0.024493 0.025000
v -0.015493 -0.023675 0.025000
v -0.016019 -0.022643 0.025000
v 0.040000 0.040000 0.025000
v -0.040000 0.040000 0.025000
v -0.040000 -0.040000 0.025000
v 0.040000 -0.040000 0.025000
v -0.040000 0.040000 0.050000
v 0.040000 0.040000 0.050000
v 0.040000 -0.040000 0.050000
v -0.040000 -0.040000 0.050000
v 0.013644 -0.025816 0.050000
v 0.012500 -0.025200 0.049020
v 0.013072 -0.025508 0.049869
v 0.012653 -0.025282 0.049510
v -0.012500 -0.025200 0.049020
v -0.013242 -0.025830 0.050000
v -0.012599 -0.025284 0.049510
v -0.012871 -0.025515 0.049869
v 0.017103 -0.022202 0.050000
v 0.016200 -0.021500 0.049020
v 0.016652 -0.021851 0.049869
v 0.016321 -0.021594 0.049510
v 0.014697 -0.025618 0.050000
v 0.013643 -0.025019 0.049020
v 0.014170 -0.025319 0.049869
v 0.013784 -0.025099 0.049510
v 0.015660 -0.025096 0.050000
v 0.014675 -0.024493 0.049020
v 0.015168 -0.024795 0.049869
v 0.014807 -0.024574 0.049510
v 0.015493 -0.023675 0.049020
v 0.016431 -0.024300 0.050000
v 0.015619 -0.023759 0.049510
v 0.015962 -0.023987 0.049869
v 0.016019 -0.022643 0.049020
v 0.016931 -0.023303 0.050000
v 0.016141 -0.022731 0.049510
v 0.016475 -0.022973 0.049869
v 0.016200 0.021500 0.049020
v 0.017099 0.022199 0.050000
v 0.016320 0.021594 0.049510
v 0.016650 0.021850 0.049869
v 0.013242 0.025830 0.050000
v 0.012500 0.025200 0.049020
v 0.012871 0.025515 0.049869
v 0.012599 0.025284 0.049510
v 0.016920 0.023295 0.050000
v 0.016019 0.022643 0.049020
v 0.016470 0.022969 0.049869
v 0.016140 0.022730 0.049510
v 0.015493 0.023675 0.049020
v 0.016414 0.024289 0.050000
v 0.015616 0.023757 0.049510
v 0.015954 0.023982 0.049869
v 0.014675 0.024493 0.049020
v 0.015635 0.025081 0.050000
v 0.014804 0.024572 0.049510
v 0.015155 0.024787 0.049869
v 0.013643 0.025019 0.049020
v 0.014658 0.025596 0.050000
v 0.013779 0.025096 0.049510
v 0.014150 0.025307 0.049869
v -0.012500 0.025200 0.049020
v -0.013644 0.025816 0.050000
v -0.012653 0.025282 0.049510
v -0.013072 0.025508 0.049869
v -0.017103 0.022202 0.050000
v -0.016200 0.021500 0.049020
v -0.016652 0.021851 0.049869
v -0.016321 0.021594 0.049510
v -0.013643 0.025019 0.049020
v -0.014697 0.025618 0.050000
v -0.013784 0.025099 0.049510
v -0.014170 0.025319 0.049869
v -0.015660 0.025096 0.050000
v -0.014675 0.024493 0.049020
v -0.015168 0.024795 0.049869
v -0.014807 0.024574 0.049510
v -0.016431 0.024300 0.050000
v -0.015493 0.023675 0.049020
v -0.015962 0.023987 0.049869
v -0.015619 0.023759 0.049510
v -0.016019 0.022643 0.049020
v -0.016931 0.023303 0.050000
v -0.016141 0.022731 0.049510
v -0.016475 0.022973 0.049869
v -0.017099 -0.022199 0.050000
v -0.016200 -0.021500 0.049020
v -0.016650 -0.021850 0.049869
v -0.016320 -0.021594 0.049510
v -0.016019 -0.022643 0.049020
v -0.016920 -0.023295 0.050000
v -0.016140 -0.022730 0.049510
v -0.016470 -0.022969 0.049869
v -0.016414 -0.024289 0.050000
v -0.015493 -0.023675 0.049020
v -0.015954 -0.023982 0.049869
v -0.015616 -0.023757 0.049510
v -0.015635 -0.025081 0.050000
v -0.014675 -0.024493 0.049020
v -0.015155 -0.024787 0.049869
v -0.014804 -0.024572 0.049510
v -0.014658 -0.025596 0.050000
v -0.013643 -0.025019 0.049020
v -0.014150 -0.025307 0.049869
v -0.013779 -0.025096 0.049510
v -0.040000 0.040000 0.000000
v 0.040000 0.040000 0.000000
v 0.040000 -0.040000 0.000000
v -0.040000 -0.040000 0.000000
v 0.013644 -0.025816 0.000000
v 0.012500 -0.025200 0.000980
v 0.013072 -0.025508 0.000131
v 0.012653 -0.025282 0.000490
v -0.012500 -0.025200 0.000980
v -0.013242 -0.025830 0.000000
v -0.012599 -0.025284 0.000490
v -0.012871 -0.025515 0.000131
v 0.017103 -0.022202 0.000000
v 0.016200 -0.021500 0.000980
v 0.016652 -0.021851 0.000131
v 0.016321 -0.021594 0.000490
v 0.014697 -0.025618 0.000000
v 0.013643 -0.025019 0.000980
v 0.014170 -0.025319 0.000131
v 0.013784 -0.025099 0.000490
v 0.015660 -0.025096 0.000000
v 0.014675 -0.024493 0.000980
v 0.015168 -0.024795 0.000131
v 0.014807 -0.024574 0.000490
v 0.015493 -0.023675 0.000980
v 0.016431 -0.024300 0.000000
v 0.015619 -0.023759 0.000490
v 0.015962 -0.023987 0.000131
v 0.016019 -0.022643 0.000980
v 0.016931 -0.023303 0.000000
v 0.016141 -0.022731 0.000490
v 0.016475 -0.022973 0.000131
v 0.016200 0.021500 0.000980
v 0.017099 0.022199 0.000000
v 0.016320 0.021594 0.000490
v 0.016650 0.021850 0.000131
v 0.013242 0.025830 0.000000
v 0.012500 0.025200 0.000980
v 0.012871 0.025515 0.000131
v 0.012599 0.025284 0.000490
v 0.016920 0.023295 0.000000
v 0.016019 0.022643 0.000980
v 0.016470 0.022969 0.000131
v 0.016140 0.022730 0.000490
v 0.015493 0.023675 0.000980
v 0.016414 0.024289 0.000000
v 0.015616 0.023757 0.000490
v 0.015954 0.023982 0.000131
v 0.014675 0.024493 0.000980
v 0.015635 0.025081 0.000000
v 0.014804 0.024572 0.000490
v 0.015155 0.024787 0.000131
v 0.013643 0.025019 0.000980
v 0.014658 0.025596 0.000000
v 0.013779 0.025096 0.000490
v 0.014150 0.025307 0.000131
v -0.012500 0.025200 0.000980
v -0.013644 0.025816 0.000000
v -0.012653 0.025282 0.000490
v -0.013072 0.025508 0.000131
v -0.017103 0.022202 0.000000
v -0.016200 0.021500 0.000980
v -0.016652 0.021851 0.000131
v -0.016321 0.021594 0.000490
v -0.013643 0.025019 0.000980
v -0.014697 0.025618 0.000000
v -0.013784 0.025099 0.000490
v -0.014170 0.025319 0.000131
v -0.015660 0.025096 0.000000
v -0.014675 0.024493 0.000980
v -0.015168 0.024795 0.000131
v -0.014807 0.024574 0.000490
v -0.016431 0.024300 0.000000
v -0.015493 0.023675 0.000980
v -0.015962 0.023987 0.000131
v -0.015619 0.023759 0.000490
v -0.016019 0.022643 0.000980
v -0.016931 0.023303 0.000000
v -0.016141 0.022731 0.000490
v -0.016475 0.022973 0.000131
v -0.017099 -0.022199 0.000000
v -0.016200 -0.021500 0.000980
v -0.016650 -0.021850 0.000131
v -0.016320 -0.021594 0.000490
v -0.016019 -0.022643 0.000980
v -0.016920 -0.023295 0.000000
v -0.016140 -0.022730 0.000490
v -0.016470 -0.022969 0.000131
v -0.016414 -0.024289 0.000000
v -0.015493 -0.023675 0.000980
v -0.015954 -0.023982 0.000131
v -0.015616 -0.023757 0.000490
v -0.015635 -0.025081 0.000000
v -0.014675 -0.024493 0.000980
v -0.015155 -0.024787 0.000131
v -0.014804 -0.024572 0.000490
v -0.014658 -0.025596 0.000000
v -0.013643 -0.025019 0.000980
v -0.014150 -0.025307 0.000131
v -0.013779 -0.025096 0.000490
vn -0.0000 -1.0000 -0.0000
vn -1.0000 -0.0000 -0.0000
vn -0.0000 1.0000 -0.0000
vn -0.1564 0.9877 -0.0000
vn 1.0000 -0.0000 -0.0000
vn 0.1564 -0.9877 -0.0000
vn -0.9877 -0.1564 -0.0000
vn 0.9877 0.1564 -0.0000
vn 0.2246 0.0800 0.9712
vn 0.1873 0.1343 0.9731
vn 0.3574 0.2582 0.8976
vn 0.4316 0.1429 0.8907
vn 0.6741 0.4899 0.5528
vn 0.8042 0.2559 0.5365
vn 0.7737 0.5633 0.2901
vn 0.9163 0.2886 0.2778
vn 0.1496 0.1890 0.9705
vn 0.2742 0.3691 0.8880
vn 0.4942 0.6891 0.5300
vn 0.5570 0.7844 0.2729
vn -0.0637 0.9808 0.1845
vn 0.0683 0.9811 0.1812
vn 0.0656 0.9212 0.3836
vn -0.0644 0.9193 0.3883
vn 0.0507 0.6072 0.7929
vn -0.0539 0.5956 0.8015
vn 0.0407 0.3455 0.9375
vn -0.0457 0.3239 0.9450
vn 0.1024 -0.2445 0.9642
vn 0.1469 -0.1830 0.9721
vn 0.2706 -0.3602 0.8928
vn 0.1660 -0.4776 0.8627
vn 0.4921 -0.6831 0.5397
vn 0.2625 -0.8404 0.4741
vn 0.5561 -0.7825 0.2799
vn 0.2817 -0.9304 0.2345
vn -0.1024 0.2445 0.9642
vn -0.1660 0.4776 0.8627
vn -0.2625 0.8404 0.4741
vn -0.2817 0.9304 0.2345
vn 0.1847 -0.1309 0.9740
vn 0.3535 -0.2535 0.9004
vn 0.6715 -0.4864 0.5590
vn 0.7727 -0.5620 0.2950
vn -0.9655 0.0678 0.2514
vn -0.9157 0.2878 0.2806
vn -0.8023 0.2542 0.5401
vn -0.8669 0.0634 0.4944
vn -0.4289 0.1405 0.8924
vn -0.4963 0.0417 0.8671
vn -0.2227 0.0781 0.9717
vn -0.2594 0.0271 0.9654
vn 0.1041 0.2563 0.9610
vn 0.1667 0.4950 0.8528
vn 0.2621 0.8493 0.4583
vn 0.2820 0.9326 0.2252
vn -0.2602 -0.0281 0.9651
vn -0.2246 -0.0800 0.9712
vn -0.4316 -0.1429 0.8907
vn -0.4972 -0.0425 0.8666
vn -0.8042 -0.2559 0.5365
vn -0.8675 -0.0639 0.4934
vn -0.9163 -0.2886 0.2778
vn -0.9657 -0.0680 0.2505
vn -0.1469 0.1830 0.9721
vn -0.2706 0.3602 0.8928
vn -0.4921 0.6831 0.5397
vn -0.5561 0.7825 0.2799
vn -0.1847 0.1309 0.9740
vn -0.3535 0.2535 0.9004
vn -0.6715 0.4864 0.5590
vn -0.7727 0.5620 0.2950
vn -0.0683 -0.9811 0.1812
vn -0.2820 -0.9326 0.2252
vn -0.2621 -0.8493 0.4583
vn -0.0656 -0.9212 0.3836
vn -0.1667 -0.4950 0.8528
vn -0.0507 -0.6072 0.7929
vn -0.1041 -0.2563 0.9610
vn -0.0407 -0.3455 0.9375
vn -0.1496 -0.1890 0.9705
vn -0.2742 -0.3691 0.8880
vn -0.4942 -0.6891 0.5300
vn -0.5570 -0.7844 0.2729
vn -0.1873 -0.1342 0.9731
vn -0.3574 -0.2582 0.8976
vn -0.6741 -0.4899 0.5528
vn -0.7737 -0.5633 0.2901
vn 0.0457 -0.3239 0.9450
vn 0.0539 -0.5956 0.8015
vn 0.0644 -0.9193 0.3883
vn 0.0637 -0.9808 0.1845
vn 0.9655 -0.0678 0.2514
vn 0.9157 -0.2878 0.2806
vn 0.8023 -0.2542 0.5401
vn 0.8669 -0.0634 0.4944
vn 0.4289 -0.1405 0.8924
vn 0.4963 -0.0417 0.8671
vn 0.2227 -0.0781 0.9717
vn 0.2594 -0.0271 0.9654
vn 0.2602 0.0281 0.9651
vn 0.4972 0.0425 0.8666
vn 0.8675 0.0639 0.4934
vn 0.9657 0.0680 0.2505
vn -0.0000 -0.0000 1.0000
vn 0.1564 0.9877 -0.0000
vn -0.9877 0.1564 -0.0000
vn -0.4541 0.8909 -0.0000
vn -0.7071 0.7071 -0.0000
vn -0.8909 0.4541 -0.0000
vn -0.1564 -0.9877 -0.0000
vn -0.8909 -0.4541 -0.0000
vn -0.7071 -0.7071 -0.0000
vn -0.4541 -0.8909 -0.0000
vn 0.9877 -0.1564 -0.0000
vn 0.4541 -0.8909 -0.0000
vn 0.7071 -0.7071 -0.0000
vn 0.8909 -0.4541 -0.0000
vn 0.8909 0.4541 -0.0000
vn 0.7071 0.7071 -0.0000
vn 0.4541 0.8909 -0.0000
vn 0.2246 0.0800 -0.9712
vn 0.4316 0.1429 -0.8907
vn 0.3574 0.2582 -0.8976
vn 0.1873 0.1342 -0.9731
vn 0.8042 0.2559 -0.5365
vn 0.6741 0.4899 -0.5528
vn 0.9163 0.2886 -0.2778
vn 0.7737 0.5633 -0.2901
vn 0.2742 0.3691 -0.8880
vn 0.1496 0.1890 -0.9705
vn 0.4942 0.6891 -0.5300
vn 0.5570 0.7844 -0.2729
vn -0.0637 0.9808 -0.1845
vn -0.0644 0.9193 -0.3883
vn 0.0656 0.9212 -0.3836
vn 0.0683 0.9811 -0.1812
vn -0.0539 0.5956 -0.8015
vn 0.0507 0.6072 -0.7929
vn -0.0457 0.3239 -0.9450
vn 0.0407 0.3455 -0.9375
vn 0.1024 -0.2445 -0.9642
vn 0.1660 -0.4776 -0.8627
vn 0.2706 -0.3602 -0.8928
vn 0.1469 -0.1830 -0.9721
vn 0.2625 -0.8404 -0.4741
vn 0.4921 -0.6831 -0.5397
vn 0.2817 -0.9304 -0.2345
vn 0.5561 -0.7825 -0.2799
vn -0.1660 0.4776 -0.8627
vn -0.1024 0.2445 -0.9642
vn -0.2625 0.8404 -0.4741
vn -0.2817 0.9304 -0.2345
vn 0.3535 -0.2535 -0.9004
vn 0.1847 -0.1309 -0.9740
vn 0.6715 -0.4864 -0.5590
vn 0.7727 -0.5620 -0.2950
vn -0.9655 0.0678 -0.2514
vn -0.8669 0.0634 -0.4944
vn -0.8023 0.2542 -0.5401
vn -0.9157 0.2878 -0.2806
vn -0.4963 0.0417 -0.8671
vn -0.4289 0.1405 -0.8924
vn -0.2594 0.0271 -0.9654
vn -0.2227 0.0781 -0.9717
vn 0.1667 0.4950 -0.8528
vn 0.1041 0.2563 -0.9610
vn 0.2621 0.8493 -0.4583
vn 0.2820 0.9326 -0.2252
vn -0.2602 -0.0281 -0.9651
vn -0.4972 -0.0425 -0.8666
vn -0.4316 -0.1429 -0.8907
vn -0.2246 -0.0800 -0.9712
vn -0.8675 -0.0639 -0.4934
vn -0.8042 -0.2559 -0.5365
vn -0.9657 -0.0680 -0.2505
vn -0.9163 -0.2886 -0.2778
vn -0.2706 0.3602 -0.8928
vn -0.1469 0.1830 -0.9721
vn -0.4921 0.6831 -0.5397
vn -0.5561 0.7825 -0.2799
vn -0.1847 0.1309 -0.9740
vn -0.3535 0.2535 -0.9004
vn -0.6715 0.4864 -0.5590
vn -0.7727 0.5620 -0.2950
vn -0.0683 -0.9811 -0.1812
vn -0.0656 -0.9212 -0.3836
vn -0.2621 -0.8493 -0.4583
vn -0.2820 -0.9326 -0.2252
vn -0.0507 -0.6072 -0.7929
vn -0.1667 -0.4950 -0.8528
vn -0.0407 -0.3455 -0.9375
vn -0.1041 -0.2563 -0.9610
vn -0.1496 -0.1890 -0.9705
vn -0.2742 -0.3691 -0.8880
vn -0.4942 -0.6891 -0.5300
vn -0.5570 -0.7844 -0.2729
vn -0.1873 -0.1343 -0.9731
vn -0.3574 -0.2582 -0.8976
vn -0.6741 -0.4899 -0.5528
vn -0.7737 -0.5633 -0.2901
vn 0.0457 -0.3239 -0.9450
vn 0.0539 -0.5956 -0.8015
vn 0.0644 -0.9193 -0.3883
vn 0.0637 -0.9808 -0.1845
vn 0.9655 -0.0678 -0.2514
vn 0.8669 -0.0634 -0.4944
vn 0.8023 -0.2542 -0.5401
vn 0.9157 -0.2878 -0.2806
vn 0.4963 -0.0417 -0.8671
vn 0.4289 -0.1405 -0.8924
vn 0.2594 -0.0271 -0.9654
vn 0.2227 -0.0781 -0.9717
vn 0.4972 0.0425 -0.8666
vn 0.2602 0.0281 -0.9651
vn 0.8675 0.0639 -0.4934
vn 0.9657 0.0680 -0.2505
vn -0.0000 -0.0000 -1.0000
s 1
usemtl Material.001
f 18//1 17//1 66//1 85//1
f 20//2 19//2 42//2 61//2
f 31//1 32//1 27//1 28//1
f 26//3 29//3 30//3 25//3
f 4//4 10//4 34//4
f 16//5 11//5 90//5 110//5
f 15//6 18//6 85//6
f 8//7 20//7 61//7
f 29//2 26//2 27//2 32//2
f 24//8 16//8 110//8
f 10//3 9//3 37//3 34//3
f 25//5 30//5 31//5 28//5
f 114//9 117//10 119//11 116//12
f 116//12 119//11 120//13 115//14
f 115//14 120//13 118//15 113//16
f 117//10 121//17 123//18 119//11
f 119//11 123//18 124//19 120//13
f 120//13 124//19 122//20 118//15
f 34//21 37//22 39//23 36//24
f 36//24 39//23 40//25 35//26
f 35//26 40//25 38//27 33//28
f 94//29 97//30 99//31 96//32
f 96//32 99//31 100//33 95//34
f 95//34 100//33 98//35 93//36
f 33//28 45//37 47//38 35//26
f 35//26 47//38 48//39 36//24
f 36//24 48//39 46//40 34//21
f 97//30 101//41 103//42 99//31
f 99//31 103//42 104//43 100//33
f 100//33 104//43 102//44 98//35
f 42//45 57//46 59//47 44//48
f 44//48 59//47 60//49 43//50
f 43//50 60//49 58//51 41//52
f 121//17 125//53 127//54 123//18
f 123//18 127//54 128//55 124//19
f 124//19 128//55 126//56 122//20
f 62//57 69//58 71//59 64//60
f 64//60 71//59 72//61 63//62
f 63//62 72//61 70//63 61//64
f 45//37 49//65 51//66 47//38
f 47//38 51//66 52//67 48//39
f 48//39 52//67 50//68 46//40
f 54//69 58//51 60//49 56//70
f 56//70 60//49 59//47 55//71
f 55//71 59//47 57//46 53//72
f 66//73 81//74 83//75 68//76
f 68//76 83//75 84//77 67//78
f 67//78 84//77 82//79 65//80
f 41//52 62//57 64//60 43//50
f 43//50 64//60 63//62 44//48
f 44//48 63//62 61//64 42//45
f 78//81 82//79 84//77 80//82
f 80//82 84//77 83//75 79//83
f 79//83 83//75 81//74 77//84
f 74//85 78//81 80//82 76//86
f 76//86 80//82 79//83 75//87
f 75//87 79//83 77//84 73//88
f 86//89 94//29 96//32 88//90
f 88//90 96//32 95//34 87//91
f 87//91 95//34 93//36 85//92
f 65//80 86//89 88//90 67//78
f 67//78 88//90 87//91 68//76
f 68//76 87//91 85//92 66//73
f 90//93 105//94 107//95 92//96
f 92//96 107//95 108//97 91//98
f 91//98 108//97 106//99 89//100
f 69//58 74//85 76//86 71//59
f 71//59 76//86 75//87 72//61
f 72//61 75//87 73//88 70//63
f 89//100 109//101 111//102 91//98
f 91//98 111//102 112//103 92//96
f 92//96 112//103 110//104 90//93
f 109//101 114//9 116//12 111//102
f 111//102 116//12 115//14 112//103
f 112//103 115//14 113//16 110//104
f 49//65 54//69 56//70 51//66
f 51//66 56//70 55//71 52//67
f 52//67 55//71 53//72 50//68
f 101//41 106//99 108//97 103//42
f 103//42 108//97 107//95 104//43
f 104//43 107//95 105//94 102//44
f 37//22 126//56 128//55 39//23
f 39//23 128//55 127//54 40//25
f 40//25 127//54 125//53 38//27
f 33//105 38//105 31//105
f 4//4 34//4 46//4
f 31//105 45//105 33//105
f 37//106 9//106 21//106
f 21//106 126//106 37//106
f 32//105 38//105 125//105
f 31//105 38//105 32//105
f 1//107 57//107 42//107
f 42//107 19//107 1//107
f 31//105 41//105 58//105
f 41//105 31//105 30//105 62//105
f 46//108 50//108 3//108 4//108
f 31//105 49//105 45//105
f 50//109 53//109 2//109 3//109
f 54//105 49//105 31//105
f 53//110 57//110 1//110 2//110
f 31//105 58//105 54//105
f 8//7 61//7 70//7
f 30//105 69//105 62//105
f 5//111 81//111 66//111
f 66//111 17//111 5//111
f 30//105 65//105 82//105
f 29//105 86//105 65//105
f 29//105 65//105 30//105
f 70//112 73//112 7//112 8//112
f 30//105 74//105 69//105
f 73//113 77//113 6//113 7//113
f 78//105 74//105 30//105
f 77//114 81//114 5//114 6//114
f 30//105 82//105 78//105
f 15//6 85//6 93//6
f 94//105 86//105 29//105
f 12//115 105//115 90//115
f 90//115 11//115 12//115
f 29//105 89//105 106//105
f 109//105 89//105 29//105 32//105
f 93//116 98//116 14//116 15//116
f 29//105 97//105 94//105
f 98//117 102//117 13//117 14//117
f 29//105 101//105 97//105
f 102//118 105//118 12//118 13//118
f 106//105 101//105 29//105
f 24//8 110//8 113//8
f 32//105 114//105 109//105
f 113//119 118//119 23//119 24//119
f 32//105 117//105 114//105
f 118//120 122//120 22//120 23//120
f 121//105 117//105 32//105
f 122//121 126//121 21//121 22//121
f 32//105 125//105 121//105
f 18//1 185//1 166//1 17//1
f 20//2 161//2 142//2 19//2
f 131//1 28//1 27//1 132//1
f 26//3 25//3 130//3 129//3
f 4//4 134//4 10//4
f 16//5 210//5 190//5 11//5
f 15//6 185//6 18//6
f 8//7 161//7 20//7
f 129//2 132//2 27//2 26//2
f 24//8 210//8 16//8
f 10//3 134//3 137//3 9//3
f 25//5 28//5 131//5 130//5
f 214//122 216//123 219//124 217//125
f 216//123 215//126 220//127 219//124
f 215//126 213//128 218//129 220//127
f 217//125 219//124 223//130 221//131
f 219//124 220//127 224//132 223//130
f 220//127 218//129 222//133 224//132
f 134//134 136//135 139//136 137//137
f 136//135 135//138 140//139 139//136
f 135//138 133//140 138//141 140//139
f 194//142 196//143 199//144 197//145
f 196//143 195//146 200//147 199//144
f 195//146 193//148 198//149 200//147
f 133//140 135//138 147//150 145//151
f 135//138 136//135 148//152 147//150
f 136//135 134//134 146//153 148//152
f 197//145 199//144 203//154 201//155
f 199//144 200//147 204//156 203//154
f 200//147 198//149 202//157 204//156
f 142//158 144//159 159//160 157//161
f 144//159 143//162 160//163 159//160
f 143//162 141//164 158//165 160//163
f 221//131 223//130 227//166 225//167
f 223//130 224//132 228//168 227//166
f 224//132 222//133 226//169 228//168
f 162//170 164//171 171//172 169//173
f 164//171 163//174 172//175 171//172
f 163//174 161//176 170//177 172//175
f 145//151 147//150 151//178 149//179
f 147//150 148//152 152//180 151//178
f 148//152 146//153 150//181 152//180
f 154//182 156//183 160//163 158//165
f 156//183 155//184 159//160 160//163
f 155//184 153//185 157//161 159//160
f 166//186 168//187 183//188 181//189
f 168//187 167//190 184//191 183//188
f 167//190 165//192 182//193 184//191
f 141//164 143//162 164//171 162//170
f 143//162 144//159 163//174 164//171
f 144//159 142//158 161//176 163//174
f 178//194 180//195 184//191 182//193
f 180//195 179//196 183//188 184//191
f 179//196 177//197 181//189 183//188
f 174//198 176//199 180//195 178//194
f 176//199 175//200 179//196 180//195
f 175//200 173//201 177//197 179//196
f 186//202 188//203 196//143 194//142
f 188//203 187//204 195//146 196//143
f 187//204 185//205 193//148 195//146
f 165//192 167//190 188//203 186//202
f 167//190 168//187 187//204 188//203
f 168//187 166//186 185//205 187//204
f 190//206 192//207 207//208 205//209
f 192//207 191//210 208//211 207//208
f 191//210 189//212 206//213 208//211
f 169//173 171//172 176//199 174//198
f 171//172 172//175 175//200 176//199
f 172//175 170//177 173//201 175//200
f 189//212 191//210 211//214 209//215
f 191//210 192//207 212//216 211//214
f 192//207 190//206 210//217 212//216
f 209//215 211//214 216//123 214//122
f 211//214 212//216 215//126 216//123
f 212//216 210//217 213//128 215//126
f 149//179 151//178 156//183 154//182
f 151//178 152//180 155//184 156//183
f 152//180 150//181 153//185 155//184
f 201//155 203//154 208//211 206//213
f 203//154 204//156 207//208 208//211
f 204//156 202//157 205//209 207//208
f 137//137 139//136 228//168 226//169
f 139//136 140//139 227//166 228//168
f 140//139 138//141 225//167 227//166
f 133//218 131//218 138//218
f 4//4 146//4 134//4
f 131//218 133//218 145//218
f 137//106 21//106 9//106
f 21//106 137//106 226//106
f 132//218 225//218 138//218
f 131//218 132//218 138//218
f 1//107 142//107 157//107
f 142//107 1//107 19//107
f 131//218 158//218 141//218
f 141//218 162//218 130//218 131//218
f 146//108 4//108 3//108 150//108
f 131//218 145//218 149//218
f 150//109 3//109 2//109 153//109
f 154//218 131//218 149//218
f 153//110 2//110 1//110 157//110
f 131//218 154//218 158//218
f 8//7 170//7 161//7
f 130//218 162//218 169//218
f 5//111 166//111 181//111
f 166//111 5//111 17//111
f 130//218 182//218 165//218
f 129//218 165//218 186//218
f 129//218 130//218 165//218
f 170//112 8//112 7//112 173//112
f 130//218 169//218 174//218
f 173//113 7//113 6//113 177//113
f 178//218 130//218 174//218
f 177//114 6//114 5//114 181//114
f 130//218 178//218 182//218
f 15//6 193//6 185//6
f 194//218 129//218 186//218
f 12//115 190//115 205//115
f 190//115 12//115 11//115
f 129//218 206//218 189//218
f 209//218 132//218 129//218 189//218
f 193//116 15//116 14//116 198//116
f 129//218 194//218 197//218
f 198//117 14//117 13//117 202//117
f 129//218 197//218 201//218
f 202//118 13//118 12//118 205//118
f 206//218 129//218 201//218
f 24//8 213//8 210//8
f 132//218 209//218 214//218
f 213//119 24//119 23//119 218//119
f 132//218 214//218 217//218
f 218//120 23//120 22//120 222//120
f 221//218 132//218 217//218
f 222//121 22//121 21//121 226//121
f 132//218 221//218 225//218
