ply
format ascii 1.0
comment VTK generated PLY File
obj_info vtkPolyData points and polygons: vtk4.0
element vertex 360
property float x
property float y
property float z
property float nx
property float ny
property float nz
property float u
property float v
element face 144
property list uchar int vertex_indices
end_header
-0.016018999740481377 -0.022642999887466431 0.05000000074505806 0.89099997282028198 0.45399999618530273 -0 -1 -1 
-0.01549299992620945 -0.023675000295042992 0.05000000074505806 0.89099997282028198 0.45399999618530273 -0 -1 -1 
-0.01549299992620945 -0.023675000295042992 0.02500000037252903 0.89099997282028198 0.45399999618530273 -0 -1 -1 
-0.016018999740481377 -0.022642999887466431 0.02500000037252903 0.89099997282028198 0.45399999618530273 -0 -1 -1 
0.016200000420212746 -0.021500000730156898 0.05000000074505806 -0.98769998550415039 0.15639999508857727 -0 -1 -1 
0.016200000420212746 -0.021500000730156898 0 -0.98769998550415039 0.15639999508857727 -0 -1 -1 
0.016018999740481377 -0.022642999887466431 0.02500000037252903 -0.98769998550415039 0.15639999508857727 -0 -1 -1 
0.016018999740481377 -0.022642999887466431 0.02500000037252903 -0.98769998550415039 0.15639999508857727 -0 -1 -1 
0.016200000420212746 -0.021500000730156898 0 -0.98769998550415039 0.15639999508857727 -0 -1 -1 
0.016018999740481377 -0.022642999887466431 0 -0.98769998550415039 0.15639999508857727 -0 -1 -1 
-0.01549299992620945 -0.023675000295042992 0.05000000074505806 0.70709997415542603 0.70709997415542603 -0 -1 -1 
-0.014674999751150608 -0.024492999538779259 0.05000000074505806 0.70709997415542603 0.70709997415542603 -0 -1 -1 
-0.014674999751150608 -0.024492999538779259 0.02500000037252903 0.70709997415542603 0.70709997415542603 -0 -1 -1 
-0.01549299992620945 -0.023675000295042992 0.02500000037252903 0.70709997415542603 0.70709997415542603 -0 -1 -1 
-0.012500000186264515 -0.025200000032782555 -0 -0 1 -0 -1 -1 
-0.012500000186264515 -0.025200000032782555 0.05000000074505806 -0 1 -0 -1 -1 
0.012500000186264515 -0.025200000032782555 0.05000000074505806 -0 1 -0 -1 -1 
0.012500000186264515 -0.025200000032782555 0 -0 1 -0 -1 -1 
-0.013643000274896622 0.025018999353051186 0.05000000074505806 0.45399999618530273 -0.89099997282028198 -0 -1 -1 
-0.014674999751150608 0.024492999538779259 0.05000000074505806 0.45399999618530273 -0.89099997282028198 -0 -1 -1 
-0.014674999751150608 0.024492999538779259 0.02500000037252903 0.45399999618530273 -0.89099997282028198 -0 -1 -1 
-0.013643000274896622 0.025018999353051186 0.02500000037252903 0.45399999618530273 -0.89099997282028198 -0 -1 -1 
0.013643000274896622 -0.025018999353051186 0.02500000037252903 -0.15639999508857727 0.98769998550415039 -0 -1 -1 
0.013643000274896622 -0.025018999353051186 0 -0.15639999508857727 0.98769998550415039 -0 -1 -1 
0.012500000186264515 -0.025200000032782555 0 -0.15639999508857727 0.98769998550415039 -0 -1 -1 
0.012500000186264515 -0.025200000032782555 0 -0.15639999508857727 0.98769998550415039 -0 -1 -1 
0.012500000186264515 -0.025200000032782555 0.05000000074505806 -0.15639999508857727 0.98769998550415039 -0 -1 -1 
0.013643000274896622 -0.025018999353051186 0.02500000037252903 -0.15639999508857727 0.98769998550415039 -0 -1 -1 
0.013643000274896622 -0.025018999353051186 0.02500000037252903 -0.15639999508857727 0.98769998550415039 -0 -1 -1 
0.012500000186264515 -0.025200000032782555 0.05000000074505806 -0.15639999508857727 0.98769998550415039 -0 -1 -1 
0.013643000274896622 -0.025018999353051186 0.05000000074505806 -0.15639999508857727 0.98769998550415039 -0 -1 -1 
-0.01549299992620945 -0.023675000295042992 -0 0.89099997282028198 0.45399999618530273 -0 -1 -1 
-0.016018999740481377 -0.022642999887466431 -0 0.89099997282028198 0.45399999618530273 -0 -1 -1 
-0.016018999740481377 -0.022642999887466431 0.02500000037252903 0.89099997282028198 0.45399999618530273 -0 -1 -1 
-0.01549299992620945 -0.023675000295042992 0.02500000037252903 0.89099997282028198 0.45399999618530273 -0 -1 -1 
-0.014674999751150608 0.024492999538779259 0.05000000074505806 0.70709997415542603 -0.70709997415542603 -0 -1 -1 
-0.01549299992620945 0.023675000295042992 0.05000000074505806 0.70709997415542603 -0.70709997415542603 -0 -1 -1 
-0.01549299992620945 0.023675000295042992 0.02500000037252903 0.70709997415542603 -0.70709997415542603 -0 -1 -1 
-0.014674999751150608 0.024492999538779259 0.02500000037252903 0.70709997415542603 -0.70709997415542603 -0 -1 -1 
-0.013643000274896622 -0.025018999353051186 -0 0.45399999618530273 0.89099997282028198 -0 -1 -1 
-0.014674999751150608 -0.024492999538779259 -0 0.45399999618530273 0.89099997282028198 -0 -1 -1 
-0.014674999751150608 -0.024492999538779259 0.02500000037252903 0.45399999618530273 0.89099997282028198 -0 -1 -1 
-0.013643000274896622 -0.025018999353051186 0.02500000037252903 0.45399999618530273 0.89099997282028198 -0 -1 -1 
0.016018999740481377 -0.022642999887466431 0.02500000037252903 -0.98769998550415039 0.15639999508857727 -0 -1 -1 
0.016018999740481377 -0.022642999887466431 0.05000000074505806 -0.98769998550415039 0.15639999508857727 -0 -1 -1 
0.016200000420212746 -0.021500000730156898 0.05000000074505806 -0.98769998550415039 0.15639999508857727 -0 -1 -1 
-0.014674999751150608 -0.024492999538779259 0.05000000074505806 0.45399999618530273 0.89099997282028198 -0 -1 -1 
-0.013643000274896622 -0.025018999353051186 0.05000000074505806 0.45399999618530273 0.89099997282028198 -0 -1 -1 
-0.013643000274896622 -0.025018999353051186 0.02500000037252903 0.45399999618530273 0.89099997282028198 -0 -1 -1 
-0.014674999751150608 -0.024492999538779259 0.02500000037252903 0.45399999618530273 0.89099997282028198 -0 -1 -1 
0.012500000186264515 0.025200000032782555 0.05000000074505806 -0.15639999508857727 -0.98769998550415039 -0 -1 -1 
0.012500000186264515 0.025200000032782555 0 -0.15639999508857727 -0.98769998550415039 -0 -1 -1 
0.013643000274896622 0.025018999353051186 0.02500000037252903 -0.15639999508857727 -0.98769998550415039 -0 -1 -1 
0.013643000274896622 0.025018999353051186 0.02500000037252903 -0.15639999508857727 -0.98769998550415039 -0 -1 -1 
0.012500000186264515 0.025200000032782555 0 -0.15639999508857727 -0.98769998550415039 -0 -1 -1 
0.013643000274896622 0.025018999353051186 0 -0.15639999508857727 -0.98769998550415039 -0 -1 -1 
0.016018999740481377 -0.022642999887466431 0 -0.89099997282028198 0.45399999618530273 -0 -1 -1 
0.01549299992620945 -0.023675000295042992 0 -0.89099997282028198 0.45399999618530273 -0 -1 -1 
0.01549299992620945 -0.023675000295042992 0.02500000037252903 -0.89099997282028198 0.45399999618530273 -0 -1 -1 
0.016018999740481377 -0.022642999887466431 0.02500000037252903 -0.89099997282028198 0.45399999618530273 -0 -1 -1 
0.01549299992620945 -0.023675000295042992 0 -0.70709997415542603 0.70709997415542603 -0 -1 -1 
0.014674999751150608 -0.024492999538779259 0 -0.70709997415542603 0.70709997415542603 -0 -1 -1 
0.014674999751150608 -0.024492999538779259 0.02500000037252903 -0.70709997415542603 0.70709997415542603 -0 -1 -1 
0.01549299992620945 -0.023675000295042992 0.02500000037252903 -0.70709997415542603 0.70709997415542603 -0 -1 -1 
0.014674999751150608 -0.024492999538779259 0 -0.45399999618530273 0.89099997282028198 -0 -1 -1 
0.013643000274896622 -0.025018999353051186 0 -0.45399999618530273 0.89099997282028198 -0 -1 -1 
0.013643000274896622 -0.025018999353051186 0.02500000037252903 -0.45399999618530273 0.89099997282028198 -0 -1 -1 
0.014674999751150608 -0.024492999538779259 0.02500000037252903 -0.45399999618530273 0.89099997282028198 -0 -1 -1 
0.016018999740481377 0.022642999887466431 0.02500000037252903 -0.98769998550415039 -0.15639999508857727 -0 -1 -1 
0.016018999740481377 0.022642999887466431 0 -0.98769998550415039 -0.15639999508857727 -0 -1 -1 
0.016200000420212746 0.021500000730156898 0 -0.98769998550415039 -0.15639999508857727 -0 -1 -1 
0.016200000420212746 0.021500000730156898 0 -0.98769998550415039 -0.15639999508857727 -0 -1 -1 
0.016200000420212746 0.021500000730156898 0.05000000074505806 -0.98769998550415039 -0.15639999508857727 -0 -1 -1 
0.016018999740481377 0.022642999887466431 0.02500000037252903 -0.98769998550415039 -0.15639999508857727 -0 -1 -1 
0.016018999740481377 0.022642999887466431 0.02500000037252903 -0.98769998550415039 -0.15639999508857727 -0 -1 -1 
0.016200000420212746 0.021500000730156898 0.05000000074505806 -0.98769998550415039 -0.15639999508857727 -0 -1 -1 
0.016018999740481377 0.022642999887466431 0.05000000074505806 -0.98769998550415039 -0.15639999508857727 -0 -1 -1 
0.013643000274896622 -0.025018999353051186 0.05000000074505806 -0.45399999618530273 0.89099997282028198 -0 -1 -1 
0.014674999751150608 -0.024492999538779259 0.05000000074505806 -0.45399999618530273 0.89099997282028198 -0 -1 -1 
0.014674999751150608 -0.024492999538779259 0.02500000037252903 -0.45399999618530273 0.89099997282028198 -0 -1 -1 
0.013643000274896622 -0.025018999353051186 0.02500000037252903 -0.45399999618530273 0.89099997282028198 -0 -1 -1 
-0.016018999740481377 0.022642999887466431 -0 0.89099997282028198 -0.45399999618530273 -0 -1 -1 
-0.01549299992620945 0.023675000295042992 -0 0.89099997282028198 -0.45399999618530273 -0 -1 -1 
-0.01549299992620945 0.023675000295042992 0.02500000037252903 0.89099997282028198 -0.45399999618530273 -0 -1 -1 
-0.016018999740481377 0.022642999887466431 0.02500000037252903 0.89099997282028198 -0.45399999618530273 -0 -1 -1 
0.01549299992620945 -0.023675000295042992 0.05000000074505806 -0.89099997282028198 0.45399999618530273 -0 -1 -1 
0.016018999740481377 -0.022642999887466431 0.05000000074505806 -0.89099997282028198 0.45399999618530273 -0 -1 -1 
0.016018999740481377 -0.022642999887466431 0.02500000037252903 -0.89099997282028198 0.45399999618530273 -0 -1 -1 
0.01549299992620945 -0.023675000295042992 0.02500000037252903 -0.89099997282028198 0.45399999618530273 -0 -1 -1 
0.013643000274896622 0.025018999353051186 0.02500000037252903 -0.15639999508857727 -0.98769998550415039 -0 -1 -1 
0.013643000274896622 0.025018999353051186 0.05000000074505806 -0.15639999508857727 -0.98769998550415039 -0 -1 -1 
0.012500000186264515 0.025200000032782555 0.05000000074505806 -0.15639999508857727 -0.98769998550415039 -0 -1 -1 
0.016200000420212746 -0.021500000730156898 0 -1 -0 -0 -1 -1 
0.016200000420212746 -0.021500000730156898 0.05000000074505806 -1 -0 -0 -1 -1 
0.016200000420212746 0.021500000730156898 0.05000000074505806 -1 -0 -0 -1 -1 
0.016200000420212746 0.021500000730156898 0 -1 -0 -0 -1 -1 
-0.016200000420212746 0.021500000730156898 0.05000000074505806 0.98769998550415039 -0.15639999508857727 -0 -1 -1 
-0.016200000420212746 0.021500000730156898 -0 0.98769998550415039 -0.15639999508857727 -0 -1 -1 
-0.016018999740481377 0.022642999887466431 0.02500000037252903 0.98769998550415039 -0.15639999508857727 -0 -1 -1 
-0.016018999740481377 0.022642999887466431 0.02500000037252903 0.98769998550415039 -0.15639999508857727 -0 -1 -1 
-0.016200000420212746 0.021500000730156898 -0 0.98769998550415039 -0.15639999508857727 -0 -1 -1 
-0.016018999740481377 0.022642999887466431 -0 0.98769998550415039 -0.15639999508857727 -0 -1 -1 
0.014674999751150608 0.024492999538779259 0.05000000074505806 -0.45399999618530273 -0.89099997282028198 -0 -1 -1 
0.013643000274896622 0.025018999353051186 0.05000000074505806 -0.45399999618530273 -0.89099997282028198 -0 -1 -1 
0.013643000274896622 0.025018999353051186 0.02500000037252903 -0.45399999618530273 -0.89099997282028198 -0 -1 -1 
0.014674999751150608 0.024492999538779259 0.02500000037252903 -0.45399999618530273 -0.89099997282028198 -0 -1 -1 
0.014674999751150608 0.024492999538779259 0 -0.70709997415542603 -0.70709997415542603 -0 -1 -1 
0.01549299992620945 0.023675000295042992 0 -0.70709997415542603 -0.70709997415542603 -0 -1 -1 
0.01549299992620945 0.023675000295042992 0.02500000037252903 -0.70709997415542603 -0.70709997415542603 -0 -1 -1 
0.014674999751150608 0.024492999538779259 0.02500000037252903 -0.70709997415542603 -0.70709997415542603 -0 -1 -1 
0.01549299992620945 0.023675000295042992 0.05000000074505806 -0.70709997415542603 -0.70709997415542603 -0 -1 -1 
0.014674999751150608 0.024492999538779259 0.05000000074505806 -0.70709997415542603 -0.70709997415542603 -0 -1 -1 
0.014674999751150608 0.024492999538779259 0.02500000037252903 -0.70709997415542603 -0.70709997415542603 -0 -1 -1 
0.01549299992620945 0.023675000295042992 0.02500000037252903 -0.70709997415542603 -0.70709997415542603 -0 -1 -1 
-0.013643000274896622 0.025018999353051186 0.02500000037252903 0.15639999508857727 -0.98769998550415039 -0 -1 -1 
-0.013643000274896622 0.025018999353051186 -0 0.15639999508857727 -0.98769998550415039 -0 -1 -1 
-0.012500000186264515 0.025200000032782555 -0 0.15639999508857727 -0.98769998550415039 -0 -1 -1 
-0.012500000186264515 0.025200000032782555 -0 0.15639999508857727 -0.98769998550415039 -0 -1 -1 
-0.012500000186264515 0.025200000032782555 0.05000000074505806 0.15639999508857727 -0.98769998550415039 -0 -1 -1 
-0.013643000274896622 0.025018999353051186 0.02500000037252903 0.15639999508857727 -0.98769998550415039 -0 -1 -1 
-0.013643000274896622 0.025018999353051186 0.02500000037252903 0.15639999508857727 -0.98769998550415039 -0 -1 -1 
-0.012500000186264515 0.025200000032782555 0.05000000074505806 0.15639999508857727 -0.98769998550415039 -0 -1 -1 
-0.013643000274896622 0.025018999353051186 0.05000000074505806 0.15639999508857727 -0.98769998550415039 -0 -1 -1 
0.013643000274896622 0.025018999353051186 0 -0.45399999618530273 -0.89099997282028198 -0 -1 -1 
0.014674999751150608 0.024492999538779259 0 -0.45399999618530273 -0.89099997282028198 -0 -1 -1 
0.014674999751150608 0.024492999538779259 0.02500000037252903 -0.45399999618530273 -0.89099997282028198 -0 -1 -1 
0.013643000274896622 0.025018999353051186 0.02500000037252903 -0.45399999618530273 -0.89099997282028198 -0 -1 -1 
0.012500000186264515 0.025200000032782555 0 -0 -1 -0 -1 -1 
0.012500000186264515 0.025200000032782555 0.05000000074505806 -0 -1 -0 -1 -1 
-0.012500000186264515 0.025200000032782555 0.05000000074505806 -0 -1 -0 -1 -1 
-0.012500000186264515 0.025200000032782555 -0 -0 -1 -0 -1 -1 
-0.016018999740481377 0.022642999887466431 0.02500000037252903 0.98769998550415039 -0.15639999508857727 -0 -1 -1 
-0.016018999740481377 0.022642999887466431 0.05000000074505806 0.98769998550415039 -0.15639999508857727 -0 -1 -1 
-0.016200000420212746 0.021500000730156898 0.05000000074505806 0.98769998550415039 -0.15639999508857727 -0 -1 -1 
0.016018999740481377 0.022642999887466431 0.05000000074505806 -0.89099997282028198 -0.45399999618530273 -0 -1 -1 
0.01549299992620945 0.023675000295042992 0.05000000074505806 -0.89099997282028198 -0.45399999618530273 -0 -1 -1 
0.01549299992620945 0.023675000295042992 0.02500000037252903 -0.89099997282028198 -0.45399999618530273 -0 -1 -1 
0.016018999740481377 0.022642999887466431 0.02500000037252903 -0.89099997282028198 -0.45399999618530273 -0 -1 -1 
-0.012500000186264515 -0.025200000032782555 0.05000000074505806 0.15639999508857727 0.98769998550415039 -0 -1 -1 
-0.012500000186264515 -0.025200000032782555 -0 0.15639999508857727 0.98769998550415039 -0 -1 -1 
-0.013643000274896622 -0.025018999353051186 0.02500000037252903 0.15639999508857727 0.98769998550415039 -0 -1 -1 
-0.013643000274896622 -0.025018999353051186 0.02500000037252903 0.15639999508857727 0.98769998550415039 -0 -1 -1 
-0.012500000186264515 -0.025200000032782555 -0 0.15639999508857727 0.98769998550415039 -0 -1 -1 
-0.013643000274896622 -0.025018999353051186 -0 0.15639999508857727 0.98769998550415039 -0 -1 -1 
0.01549299992620945 0.023675000295042992 0 -0.89099997282028198 -0.45399999618530273 -0 -1 -1 
0.016018999740481377 0.022642999887466431 0 -0.89099997282028198 -0.45399999618530273 -0 -1 -1 
0.016018999740481377 0.022642999887466431 0.02500000037252903 -0.89099997282028198 -0.45399999618530273 -0 -1 -1 
0.01549299992620945 0.023675000295042992 0.02500000037252903 -0.89099997282028198 -0.45399999618530273 -0 -1 -1 
-0.016200000420212746 0.021500000730156898 -0 1 -0 -0 -1 -1 
-0.016200000420212746 0.021500000730156898 0.05000000074505806 1 -0 -0 -1 -1 
-0.016200000420212746 -0.021500000730156898 0.05000000074505806 1 -0 -0 -1 -1 
-0.016200000420212746 -0.021500000730156898 -0 1 -0 -0 -1 -1 
-0.01549299992620945 0.023675000295042992 -0 0.70709997415542603 -0.70709997415542603 -0 -1 -1 
-0.014674999751150608 0.024492999538779259 -0 0.70709997415542603 -0.70709997415542603 -0 -1 -1 
-0.014674999751150608 0.024492999538779259 0.02500000037252903 0.70709997415542603 -0.70709997415542603 -0 -1 -1 
-0.01549299992620945 0.023675000295042992 0.02500000037252903 0.70709997415542603 -0.70709997415542603 -0 -1 -1 
-0.016018999740481377 -0.022642999887466431 0.02500000037252903 0.98769998550415039 0.15639999508857727 -0 -1 -1 
-0.016018999740481377 -0.022642999887466431 -0 0.98769998550415039 0.15639999508857727 -0 -1 -1 
-0.016200000420212746 -0.021500000730156898 -0 0.98769998550415039 0.15639999508857727 -0 -1 -1 
-0.016200000420212746 -0.021500000730156898 -0 0.98769998550415039 0.15639999508857727 -0 -1 -1 
-0.016200000420212746 -0.021500000730156898 0.05000000074505806 0.98769998550415039 0.15639999508857727 -0 -1 -1 
-0.016018999740481377 -0.022642999887466431 0.02500000037252903 0.98769998550415039 0.15639999508857727 -0 -1 -1 
-0.016018999740481377 -0.022642999887466431 0.02500000037252903 0.98769998550415039 0.15639999508857727 -0 -1 -1 
-0.016200000420212746 -0.021500000730156898 0.05000000074505806 0.98769998550415039 0.15639999508857727 -0 -1 -1 
-0.016018999740481377 -0.022642999887466431 0.05000000074505806 0.98769998550415039 0.15639999508857727 -0 -1 -1 
0.014674999751150608 -0.024492999538779259 0.05000000074505806 -0.70709997415542603 0.70709997415542603 -0 -1 -1 
0.01549299992620945 -0.023675000295042992 0.05000000074505806 -0.70709997415542603 0.70709997415542603 -0 -1 -1 
0.01549299992620945 -0.023675000295042992 0.02500000037252903 -0.70709997415542603 0.70709997415542603 -0 -1 -1 
0.014674999751150608 -0.024492999538779259 0.02500000037252903 -0.70709997415542603 0.70709997415542603 -0 -1 -1 
-0.01549299992620945 0.023675000295042992 0.05000000074505806 0.89099997282028198 -0.45399999618530273 -0 -1 -1 
-0.016018999740481377 0.022642999887466431 0.05000000074505806 0.89099997282028198 -0.45399999618530273 -0 -1 -1 
-0.016018999740481377 0.022642999887466431 0.02500000037252903 0.89099997282028198 -0.45399999618530273 -0 -1 -1 
-0.01549299992620945 0.023675000295042992 0.02500000037252903 0.89099997282028198 -0.45399999618530273 -0 -1 -1 
-0.014674999751150608 0.024492999538779259 -0 0.45399999618530273 -0.89099997282028198 -0 -1 -1 
-0.013643000274896622 0.025018999353051186 -0 0.45399999618530273 -0.89099997282028198 -0 -1 -1 
-0.013643000274896622 0.025018999353051186 0.02500000037252903 0.45399999618530273 -0.89099997282028198 -0 -1 -1 
-0.014674999751150608 0.024492999538779259 0.02500000037252903 0.45399999618530273 -0.89099997282028198 -0 -1 -1 
-0.013643000274896622 -0.025018999353051186 0.02500000037252903 0.15639999508857727 0.98769998550415039 -0 -1 -1 
-0.013643000274896622 -0.025018999353051186 0.05000000074505806 0.15639999508857727 0.98769998550415039 -0 -1 -1 
-0.012500000186264515 -0.025200000032782555 0.05000000074505806 0.15639999508857727 0.98769998550415039 -0 -1 -1 
0.039999999105930328 -0.039999999105930328 0.05000000074505806 -0 -1 -0 -1 -1 
-0.039999999105930328 -0.039999999105930328 0.05000000074505806 -0 -1 -0 -1 -1 
-0.039999999105930328 -0.039999999105930328 -0 -0 -1 -0 -1 -1 
0.039999999105930328 -0.039999999105930328 0 -0 -1 -0 -1 -1 
-0.039999999105930328 0.039999999105930328 -0 -0 1 -0 -1 -1 
-0.039999999105930328 0.039999999105930328 0.05000000074505806 -0 1 -0 -1 -1 
0.039999999105930328 0.039999999105930328 0.05000000074505806 -0 1 -0 -1 -1 
0.039999999105930328 0.039999999105930328 0 -0 1 -0 -1 -1 
0.016200000420212746 -0.021500000730156898 0 -0 -0 -1 -1 -1 
0.016200000420212746 0.021500000730156898 0 -0 -0 -1 -1 -1 
0.039999999105930328 0.039999999105930328 0 -0 -0 -1 -1 -1 
0.039999999105930328 -0.039999999105930328 0 -0 -0 -1 -1 -1 
-0.039999999105930328 0.039999999105930328 0.05000000074505806 -1 -0 -0 -1 -1 
-0.039999999105930328 0.039999999105930328 -0 -1 -0 -0 -1 -1 
-0.039999999105930328 -0.039999999105930328 -0 -1 -0 -0 -1 -1 
-0.039999999105930328 -0.039999999105930328 0.05000000074505806 -1 -0 -0 -1 -1 
-0.013643000274896622 0.025018999353051186 0.05000000074505806 -0 -0 1 -1 -1 
-0.012500000186264515 0.025200000032782555 0.05000000074505806 -0 -0 1 -1 -1 
-0.039999999105930328 0.039999999105930328 0.05000000074505806 -0 -0 1 -1 -1 
-0.039999999105930328 0.039999999105930328 0.05000000074505806 -0 -0 1 -1 -1 
-0.012500000186264515 0.025200000032782555 0.05000000074505806 -0 -0 1 -1 -1 
0.012500000186264515 0.025200000032782555 0.05000000074505806 -0 -0 1 -1 -1 
-0.039999999105930328 0.039999999105930328 0.05000000074505806 -0 -0 1 -1 -1 
0.012500000186264515 0.025200000032782555 0.05000000074505806 -0 -0 1 -1 -1 
0.039999999105930328 0.039999999105930328 0.05000000074505806 -0 -0 1 -1 -1 
0.039999999105930328 0.039999999105930328 0.05000000074505806 -0 -0 1 -1 -1 
0.012500000186264515 0.025200000032782555 0.05000000074505806 -0 -0 1 -1 -1 
0.013643000274896622 0.025018999353051186 0.05000000074505806 -0 -0 1 -1 -1 
0.039999999105930328 0.039999999105930328 0.05000000074505806 -0 -0 1 -1 -1 
0.013643000274896622 0.025018999353051186 0.05000000074505806 -0 -0 1 -1 -1 
0.014674999751150608 0.024492999538779259 0.05000000074505806 -0 -0 1 -1 -1 
0.014674999751150608 0.024492999538779259 0.05000000074505806 -0 -0 1 -1 -1 
0.01549299992620945 0.023675000295042992 0.05000000074505806 -0 -0 1 -1 -1 
0.039999999105930328 0.039999999105930328 0.05000000074505806 -0 -0 1 -1 -1 
0.039999999105930328 0.039999999105930328 0.05000000074505806 -0 -0 1 -1 -1 
0.01549299992620945 0.023675000295042992 0.05000000074505806 -0 -0 1 -1 -1 
0.016018999740481377 0.022642999887466431 0.05000000074505806 -0 -0 1 -1 -1 
0.039999999105930328 0.039999999105930328 0.05000000074505806 -0 -0 1 -1 -1 
0.016018999740481377 0.022642999887466431 0.05000000074505806 -0 -0 1 -1 -1 
0.016200000420212746 0.021500000730156898 0.05000000074505806 -0 -0 1 -1 -1 
-0.016200000420212746 -0.021500000730156898 -0 -0 -0 -1 -1 -1 
-0.039999999105930328 -0.039999999105930328 -0 -0 -0 -1 -1 -1 
-0.039999999105930328 0.039999999105930328 -0 -0 -0 -1 -1 -1 
-0.016200000420212746 0.021500000730156898 -0 -0 -0 -1 -1 -1 
0.039999999105930328 -0.039999999105930328 0.05000000074505806 -0 -0 1 -1 -1 
0.016200000420212746 -0.021500000730156898 0.05000000074505806 -0 -0 1 -1 -1 
0.016018999740481377 -0.022642999887466431 0.05000000074505806 -0 -0 1 -1 -1 
0.039999999105930328 -0.039999999105930328 0.05000000074505806 -0 -0 1 -1 -1 
0.016018999740481377 -0.022642999887466431 0.05000000074505806 -0 -0 1 -1 -1 
0.01549299992620945 -0.023675000295042992 0.05000000074505806 -0 -0 1 -1 -1 
0.01549299992620945 -0.023675000295042992 0.05000000074505806 -0 -0 1 -1 -1 
0.014674999751150608 -0.024492999538779259 0.05000000074505806 -0 -0 1 -1 -1 
0.039999999105930328 -0.039999999105930328 0.05000000074505806 -0 -0 1 -1 -1 
0.039999999105930328 -0.039999999105930328 0.05000000074505806 -0 -0 1 -1 -1 
0.014674999751150608 -0.024492999538779259 0.05000000074505806 -0 -0 1 -1 -1 
0.013643000274896622 -0.025018999353051186 0.05000000074505806 -0 -0 1 -1 -1 
0.039999999105930328 -0.039999999105930328 0.05000000074505806 -0 -0 1 -1 -1 
0.013643000274896622 -0.025018999353051186 0.05000000074505806 -0 -0 1 -1 -1 
0.012500000186264515 -0.025200000032782555 0.05000000074505806 -0 -0 1 -1 -1 
0.012500000186264515 -0.025200000032782555 0.05000000074505806 -0 -0 1 -1 -1 
-0.012500000186264515 -0.025200000032782555 0.05000000074505806 -0 -0 1 -1 -1 
0.039999999105930328 -0.039999999105930328 0.05000000074505806 -0 -0 1 -1 -1 
0.039999999105930328 -0.039999999105930328 0.05000000074505806 -0 -0 1 -1 -1 
-0.012500000186264515 -0.025200000032782555 0.05000000074505806 -0 -0 1 -1 -1 
-0.039999999105930328 -0.039999999105930328 0.05000000074505806 -0 -0 1 -1 -1 
-0.039999999105930328 -0.039999999105930328 0.05000000074505806 -0 -0 1 -1 -1 
-0.012500000186264515 -0.025200000032782555 0.05000000074505806 -0 -0 1 -1 -1 
-0.013643000274896622 -0.025018999353051186 0.05000000074505806 -0 -0 1 -1 -1 
-0.039999999105930328 -0.039999999105930328 0.05000000074505806 -0 -0 1 -1 -1 
-0.013643000274896622 -0.025018999353051186 0.05000000074505806 -0 -0 1 -1 -1 
-0.014674999751150608 -0.024492999538779259 0.05000000074505806 -0 -0 1 -1 -1 
-0.014674999751150608 -0.024492999538779259 0.05000000074505806 -0 -0 1 -1 -1 
-0.01549299992620945 -0.023675000295042992 0.05000000074505806 -0 -0 1 -1 -1 
-0.039999999105930328 -0.039999999105930328 0.05000000074505806 -0 -0 1 -1 -1 
-0.039999999105930328 -0.039999999105930328 0.05000000074505806 -0 -0 1 -1 -1 
-0.01549299992620945 -0.023675000295042992 0.05000000074505806 -0 -0 1 -1 -1 
-0.016018999740481377 -0.022642999887466431 0.05000000074505806 -0 -0 1 -1 -1 
-0.039999999105930328 -0.039999999105930328 0.05000000074505806 -0 -0 1 -1 -1 
-0.016018999740481377 -0.022642999887466431 0.05000000074505806 -0 -0 1 -1 -1 
-0.016200000420212746 -0.021500000730156898 0.05000000074505806 -0 -0 1 -1 -1 
0.016200000420212746 -0.021500000730156898 0.05000000074505806 -0 -0 1 -1 -1 
0.039999999105930328 -0.039999999105930328 0.05000000074505806 -0 -0 1 -1 -1 
0.039999999105930328 0.039999999105930328 0.05000000074505806 -0 -0 1 -1 -1 
0.016200000420212746 0.021500000730156898 0.05000000074505806 -0 -0 1 -1 -1 
-0.039999999105930328 0.039999999105930328 0.05000000074505806 -0 -0 1 -1 -1 
-0.016200000420212746 0.021500000730156898 0.05000000074505806 -0 -0 1 -1 -1 
-0.016018999740481377 0.022642999887466431 0.05000000074505806 -0 -0 1 -1 -1 
-0.016018999740481377 0.022642999887466431 0.05000000074505806 -0 -0 1 -1 -1 
-0.01549299992620945 0.023675000295042992 0.05000000074505806 -0 -0 1 -1 -1 
-0.039999999105930328 0.039999999105930328 0.05000000074505806 -0 -0 1 -1 -1 
-0.039999999105930328 0.039999999105930328 0.05000000074505806 -0 -0 1 -1 -1 
-0.01549299992620945 0.023675000295042992 0.05000000074505806 -0 -0 1 -1 -1 
-0.014674999751150608 0.024492999538779259 0.05000000074505806 -0 -0 1 -1 -1 
-0.039999999105930328 0.039999999105930328 0.05000000074505806 -0 -0 1 -1 -1 
-0.014674999751150608 0.024492999538779259 0.05000000074505806 -0 -0 1 -1 -1 
-0.013643000274896622 0.025018999353051186 0.05000000074505806 -0 -0 1 -1 -1 
0.013643000274896622 0.025018999353051186 0 -0 -0 -1 -1 -1 
0.012500000186264515 0.025200000032782555 0 -0 -0 -1 -1 -1 
0.039999999105930328 0.039999999105930328 0 -0 -0 -1 -1 -1 
0.039999999105930328 0.039999999105930328 0 -0 -0 -1 -1 -1 
0.012500000186264515 0.025200000032782555 0 -0 -0 -1 -1 -1 
-0.012500000186264515 0.025200000032782555 -0 -0 -0 -1 -1 -1 
0.039999999105930328 0.039999999105930328 0 -0 -0 -1 -1 -1 
-0.012500000186264515 0.025200000032782555 -0 -0 -0 -1 -1 -1 
-0.039999999105930328 0.039999999105930328 -0 -0 -0 -1 -1 -1 
-0.039999999105930328 0.039999999105930328 -0 -0 -0 -1 -1 -1 
-0.012500000186264515 0.025200000032782555 -0 -0 -0 -1 -1 -1 
-0.013643000274896622 0.025018999353051186 -0 -0 -0 -1 -1 -1 
-0.039999999105930328 0.039999999105930328 -0 -0 -0 -1 -1 -1 
-0.013643000274896622 0.025018999353051186 -0 -0 -0 -1 -1 -1 
-0.014674999751150608 0.024492999538779259 -0 -0 -0 -1 -1 -1 
-0.014674999751150608 0.024492999538779259 -0 -0 -0 -1 -1 -1 
-0.01549299992620945 0.023675000295042992 -0 -0 -0 -1 -1 -1 
-0.039999999105930328 0.039999999105930328 -0 -0 -0 -1 -1 -1 
-0.039999999105930328 0.039999999105930328 -0 -0 -0 -1 -1 -1 
-0.01549299992620945 0.023675000295042992 -0 -0 -0 -1 -1 -1 
-0.016018999740481377 0.022642999887466431 -0 -0 -0 -1 -1 -1 
-0.039999999105930328 0.039999999105930328 -0 -0 -0 -1 -1 -1 
-0.016018999740481377 0.022642999887466431 -0 -0 -0 -1 -1 -1 
-0.016200000420212746 0.021500000730156898 -0 -0 -0 -1 -1 -1 
-0.039999999105930328 -0.039999999105930328 -0 -0 -0 -1 -1 -1 
-0.016200000420212746 -0.021500000730156898 -0 -0 -0 -1 -1 -1 
-0.016018999740481377 -0.022642999887466431 -0 -0 -0 -1 -1 -1 
-0.039999999105930328 -0.039999999105930328 -0 -0 -0 -1 -1 -1 
-0.016018999740481377 -0.022642999887466431 -0 -0 -0 -1 -1 -1 
-0.01549299992620945 -0.023675000295042992 -0 -0 -0 -1 -1 -1 
-0.01549299992620945 -0.023675000295042992 -0 -0 -0 -1 -1 -1 
-0.014674999751150608 -0.024492999538779259 -0 -0 -0 -1 -1 -1 
-0.039999999105930328 -0.039999999105930328 -0 -0 -0 -1 -1 -1 
-0.039999999105930328 -0.039999999105930328 -0 -0 -0 -1 -1 -1 
-0.014674999751150608 -0.024492999538779259 -0 -0 -0 -1 -1 -1 
-0.013643000274896622 -0.025018999353051186 -0 -0 -0 -1 -1 -1 
-0.039999999105930328 -0.039999999105930328 -0 -0 -0 -1 -1 -1 
-0.013643000274896622 -0.025018999353051186 -0 -0 -0 -1 -1 -1 
-0.012500000186264515 -0.025200000032782555 -0 -0 -0 -1 -1 -1 
-0.012500000186264515 -0.025200000032782555 -0 -0 -0 -1 -1 -1 
0.012500000186264515 -0.025200000032782555 0 -0 -0 -1 -1 -1 
-0.039999999105930328 -0.039999999105930328 -0 -0 -0 -1 -1 -1 
-0.039999999105930328 -0.039999999105930328 -0 -0 -0 -1 -1 -1 
0.012500000186264515 -0.025200000032782555 0 -0 -0 -1 -1 -1 
0.039999999105930328 -0.039999999105930328 0 -0 -0 -1 -1 -1 
0.039999999105930328 -0.039999999105930328 0 -0 -0 -1 -1 -1 
0.012500000186264515 -0.025200000032782555 0 -0 -0 -1 -1 -1 
0.013643000274896622 -0.025018999353051186 0 -0 -0 -1 -1 -1 
0.039999999105930328 -0.039999999105930328 0 -0 -0 -1 -1 -1 
0.013643000274896622 -0.025018999353051186 0 -0 -0 -1 -1 -1 
0.014674999751150608 -0.024492999538779259 0 -0 -0 -1 -1 -1 
0.014674999751150608 -0.024492999538779259 0 -0 -0 -1 -1 -1 
0.01549299992620945 -0.023675000295042992 0 -0 -0 -1 -1 -1 
0.039999999105930328 -0.039999999105930328 0 -0 -0 -1 -1 -1 
0.039999999105930328 -0.039999999105930328 0 -0 -0 -1 -1 -1 
0.01549299992620945 -0.023675000295042992 0 -0 -0 -1 -1 -1 
0.016018999740481377 -0.022642999887466431 0 -0 -0 -1 -1 -1 
0.039999999105930328 -0.039999999105930328 0 -0 -0 -1 -1 -1 
0.016018999740481377 -0.022642999887466431 0 -0 -0 -1 -1 -1 
0.016200000420212746 -0.021500000730156898 0 -0 -0 -1 -1 -1 
-0.016200000420212746 -0.021500000730156898 0.05000000074505806 -0 -0 1 -1 -1 
-0.016200000420212746 0.021500000730156898 0.05000000074505806 -0 -0 1 -1 -1 
-0.039999999105930328 0.039999999105930328 0.05000000074505806 -0 -0 1 -1 -1 
-0.039999999105930328 -0.039999999105930328 0.05000000074505806 -0 -0 1 -1 -1 
0.039999999105930328 0.039999999105930328 0 -0 -0 -1 -1 -1 
0.016200000420212746 0.021500000730156898 0 -0 -0 -1 -1 -1 
0.016018999740481377 0.022642999887466431 0 -0 -0 -1 -1 -1 
0.016018999740481377 0.022642999887466431 0 -0 -0 -1 -1 -1 
0.01549299992620945 0.023675000295042992 0 -0 -0 -1 -1 -1 
0.039999999105930328 0.039999999105930328 0 -0 -0 -1 -1 -1 
0.039999999105930328 0.039999999105930328 0 -0 -0 -1 -1 -1 
0.01549299992620945 0.023675000295042992 0 -0 -0 -1 -1 -1 
0.014674999751150608 0.024492999538779259 0 -0 -0 -1 -1 -1 
0.039999999105930328 0.039999999105930328 0 -0 -0 -1 -1 -1 
0.014674999751150608 0.024492999538779259 0 -0 -0 -1 -1 -1 
0.013643000274896622 0.025018999353051186 0 -0 -0 -1 -1 -1 
-0.014674999751150608 -0.024492999538779259 -0 0.70709997415542603 0.70709997415542603 -0 -1 -1 
-0.01549299992620945 -0.023675000295042992 -0 0.70709997415542603 0.70709997415542603 -0 -1 -1 
-0.01549299992620945 -0.023675000295042992 0.02500000037252903 0.70709997415542603 0.70709997415542603 -0 -1 -1 
-0.014674999751150608 -0.024492999538779259 0.02500000037252903 0.70709997415542603 0.70709997415542603 -0 -1 -1 
0.039999999105930328 0.039999999105930328 0 1 -0 -0 -1 -1 
0.039999999105930328 0.039999999105930328 0.05000000074505806 1 -0 -0 -1 -1 
0.039999999105930328 -0.039999999105930328 0.05000000074505806 1 -0 -0 -1 -1 
0.039999999105930328 -0.039999999105930328 0 1 -0 -0 -1 -1 
3 0 1 3 
3 1 2 3 
3 4 5 6 
3 7 8 9 
3 10 11 13 
3 11 12 13 
3 14 15 17 
3 15 16 17 
3 18 19 21 
3 19 20 21 
3 22 23 24 
3 25 26 27 
3 28 29 30 
3 31 32 34 
3 32 33 34 
3 35 36 38 
3 36 37 38 
3 39 40 42 
3 40 41 42 
3 43 44 45 
3 46 47 49 
3 47 48 49 
3 50 51 52 
3 53 54 55 
3 56 57 59 
3 57 58 59 
3 60 61 63 
3 61 62 63 
3 64 65 67 
3 65 66 67 
3 68 69 70 
3 71 72 73 
3 74 75 76 
3 77 78 80 
3 78 79 80 
3 81 82 84 
3 82 83 84 
3 85 86 88 
3 86 87 88 
3 89 90 91 
3 92 93 95 
3 93 94 95 
3 96 97 98 
3 99 100 101 
3 102 103 105 
3 103 104 105 
3 106 107 109 
3 107 108 109 
3 110 111 113 
3 111 112 113 
3 114 115 116 
3 117 118 119 
3 120 121 122 
3 123 124 126 
3 124 125 126 
3 127 128 130 
3 128 129 130 
3 131 132 133 
3 134 135 137 
3 135 136 137 
3 138 139 140 
3 141 142 143 
3 144 145 147 
3 145 146 147 
3 148 149 151 
3 149 150 151 
3 152 153 155 
3 153 154 155 
3 156 157 158 
3 159 160 161 
3 162 163 164 
3 165 166 168 
3 166 167 168 
3 169 170 172 
3 170 171 172 
3 173 174 176 
3 174 175 176 
3 177 178 179 
3 180 181 183 
3 181 182 183 
3 184 185 187 
3 185 186 187 
3 188 189 191 
3 189 190 191 
3 192 193 195 
3 193 194 195 
3 196 197 198 
3 199 200 201 
3 202 203 204 
3 205 206 207 
3 208 209 210 
3 211 212 213 
3 214 215 216 
3 217 218 219 
3 220 221 223 
3 221 222 223 
3 224 225 226 
3 227 228 229 
3 230 231 232 
3 233 234 235 
3 236 237 238 
3 239 240 241 
3 242 243 244 
3 245 246 247 
3 248 249 250 
3 251 252 253 
3 254 255 256 
3 257 258 259 
3 260 261 263 
3 261 262 263 
3 264 265 266 
3 267 268 269 
3 270 271 272 
3 273 274 275 
3 276 277 278 
3 279 280 281 
3 282 283 284 
3 285 286 287 
3 288 289 290 
3 291 292 293 
3 294 295 296 
3 297 298 299 
3 300 301 302 
3 303 304 305 
3 306 307 308 
3 309 310 311 
3 312 313 314 
3 315 316 317 
3 318 319 320 
3 321 322 323 
3 324 325 326 
3 327 328 329 
3 330 331 332 
3 333 334 335 
3 336 337 339 
3 337 338 339 
3 340 341 342 
3 343 344 345 
3 346 347 348 
3 349 350 351 
3 352 353 355 
3 353 354 355 
3 356 357 359 
3 357 358 359 
