# https://github.com/mikedh/trimesh
v -0.00163228 -0.00465350 0.03105714
v -0.00163228 -0.00365022 0.03105714
v -0.00109774 -0.00465350 0.03105714
v -0.00163228 -0.00465350 0.05042583
v -0.00120689 -0.00365022 0.03105714
v -0.00163228 -0.00365022 0.05043721
v -0.00109774 -0.00365022 0.03106094
v -0.00109774 -0.00465350 0.05033097
v -0.00145359 -0.00465350 0.05042013
v -0.00122709 -0.00365022 0.05043341
v -0.00163228 -0.00403232 0.05043721
v -0.00109774 -0.00365022 0.05038599
v -0.00109774 -0.00439998 0.05035753
v -0.00120003 -0.00465350 0.05038409
v -0.00120003 -0.00439998 0.05041065
v -0.00120003 -0.00365022 0.05043152
v -0.00109774 -0.00428574 0.05036702
f 1 2 5
f 1 5 3
f 1 3 8
f 1 8 14
f 1 14 9
f 1 9 4
f 1 4 11
f 1 11 6
f 1 6 2
f 2 6 10
f 2 10 16
f 2 16 12
f 2 12 7
f 2 7 5
f 3 5 7
f 3 7 12
f 3 12 17
f 3 17 13
f 3 13 8
f 4 9 10
f 4 10 11
f 6 11 10
f 8 13 15
f 8 15 14
f 9 15 10
f 9 14 15
f 10 15 16
f 12 16 15
f 12 15 17
f 13 17 15

