# https://github.com/mikedh/trimesh
v 0.01944156 -0.02906220 -0.00037289
v 0.01875361 -0.02906220 -0.00015710
v 0.01944156 -0.02840000 -0.00036154
v 0.01944156 -0.02906220 0.02863429
v 0.01874495 -0.02906220 -0.00015426
v 0.01944156 -0.02823546 -0.00035018
v 0.01944156 -0.02823546 0.02863429
v 0.01873904 -0.02906220 0.02863429
v 0.01873904 -0.02906220 -0.00014006
v 0.01889644 -0.02823546 -0.00010883
v 0.01873904 -0.02823546 0.02863429
v 0.01873904 -0.02823546 0.00027165
f 1 2 3
f 1 3 6
f 1 6 7
f 1 7 4
f 1 4 8
f 1 8 9
f 1 9 5
f 1 5 2
f 2 5 3
f 3 5 6
f 4 7 11
f 4 11 8
f 5 9 10
f 5 10 6
f 6 10 12
f 6 12 11
f 6 11 7
f 8 11 12
f 8 12 9
f 9 12 10

