# https://github.com/mikedh/trimesh
v 0.02875112 0.02432326 0.01579038
v 0.02875112 0.02555688 0.01418100
v 0.02839993 0.02555688 0.01418577
v 0.02759976 0.02555688 0.01418259
v 0.02774979 0.02431325 0.01579038
v 0.02875112 -0.00000642 0.01579038
v 0.02875112 0.02555688 -0.00044000
v 0.02728070 0.02555688 0.01417624
v 0.02759976 0.02431075 0.01579038
v 0.02589746 -0.00000642 0.01579038
v 0.02875112 -0.00000642 -0.00044000
v 0.02589746 0.02555688 -0.00044000
v 0.02679345 0.02555688 0.01416035
v 0.02698595 0.02429073 0.01579038
v 0.02589746 -0.00000642 -0.00044000
v 0.02589746 0.02376525 0.01579038
v 0.02589746 0.02555688 0.01401419
v 0.02639449 0.02555688 0.01410316
v 0.02680016 0.02426320 0.01579038
v 0.02635649 0.02416061 0.01579038
f 1 2 3
f 1 3 4
f 1 4 5
f 1 5 9
f 1 9 14
f 1 14 19
f 1 19 20
f 1 20 16
f 1 16 10
f 1 10 6
f 1 6 11
f 1 11 7
f 1 7 2
f 2 7 12
f 2 12 17
f 2 17 18
f 2 18 13
f 2 13 8
f 2 8 4
f 2 4 3
f 4 8 5
f 5 8 9
f 6 10 15
f 6 15 11
f 7 11 15
f 7 15 12
f 8 13 9
f 9 13 14
f 10 16 17
f 10 17 12
f 10 12 15
f 13 18 14
f 14 18 17
f 14 17 19
f 16 20 17
f 17 20 19

