# https://github.com/mikedh/trimesh
v -0.01876000 -0.02371985 0.02620526
v -0.01876213 -0.02371985 0.04939411
v -0.01876000 -0.02579927 0.02620526
v -0.01876000 -0.02371985 0.01226008
v -0.01879396 -0.02371985 0.04949870
v -0.01876213 -0.02579927 0.04939411
v -0.01876000 -0.02579927 0.01226008
v -0.01876213 -0.02371985 0.00060589
v -0.01892553 -0.02579927 0.04991207
v -0.01898071 -0.02371985 0.05008639
v -0.01898071 -0.02579927 0.05008639
v -0.01876213 -0.02579927 0.00060589
v -0.01898071 -0.02371985 -0.00008639
v -0.01907408 -0.02371985 0.05013619
v -0.01944546 -0.02579927 0.05032545
v -0.01898071 -0.02579927 -0.00008639
v -0.01960250 -0.02371985 -0.00040513
v -0.01960250 -0.02371985 0.05040513
v -0.01960250 -0.02579927 0.05040513
v -0.01960250 -0.02579927 -0.00040513
v -0.02040256 -0.02371985 -0.00043502
v -0.01972134 -0.02371985 0.05041011
v -0.02040043 -0.02579927 0.05043502
v -0.02040256 -0.02579927 -0.00043502
v -0.03350902 -0.02371985 -0.00044000
v -0.02040043 -0.02371985 0.05043502
v -0.02702158 -0.02579927 0.05044000
v -0.03350902 -0.02579927 -0.00044000
v -0.03879745 -0.02371985 -0.00044000
v -0.02702158 -0.02371985 0.05044000
v -0.03879745 -0.02579927 0.05044000
v -0.03879745 -0.02579927 -0.00044000
v -0.03959750 -0.02371985 -0.00041011
v -0.03879745 -0.02371985 0.05044000
v -0.03959750 -0.02579927 0.05041011
v -0.03959750 -0.02579927 -0.00041011
v -0.04021505 -0.02371985 -0.00009137
v -0.03959750 -0.02371985 0.05041011
v -0.04021930 -0.02579927 0.05009137
v -0.04021505 -0.02579927 -0.00009137
v -0.04027447 -0.02579927 0.00008793
v -0.04044000 -0.02371985 0.00060589
v -0.04021930 -0.02371985 0.05009137
v -0.04044000 -0.02579927 0.04939411
v -0.04044000 -0.02579927 0.00060589
v -0.04044000 -0.02371985 0.04939411
f 1 2 6
f 1 6 3
f 1 3 7
f 1 7 4
f 1 4 8
f 1 8 13
f 1 13 17
f 1 17 21
f 1 21 25
f 1 25 29
f 1 29 33
f 1 33 37
f 1 37 42
f 1 42 46
f 1 46 43
f 1 43 38
f 1 38 34
f 1 34 30
f 1 30 26
f 1 26 22
f 1 22 18
f 1 18 14
f 1 14 10
f 1 10 5
f 1 5 2
f 2 5 6
f 3 6 9
f 3 9 11
f 3 11 15
f 3 15 19
f 3 19 23
f 3 23 27
f 3 27 31
f 3 31 35
f 3 35 39
f 3 39 44
f 3 44 45
f 3 45 41
f 3 41 40
f 3 40 36
f 3 36 32
f 3 32 28
f 3 28 24
f 3 24 20
f 3 20 16
f 3 16 12
f 3 12 7
f 4 7 12
f 4 12 8
f 5 9 6
f 5 10 11
f 5 11 9
f 8 12 16
f 8 16 13
f 10 14 11
f 11 14 15
f 13 16 20
f 13 20 17
f 14 18 15
f 15 18 19
f 17 20 24
f 17 24 21
f 18 22 19
f 19 22 23
f 21 24 28
f 21 28 25
f 22 26 23
f 23 26 30
f 23 30 27
f 25 28 32
f 25 32 29
f 27 30 34
f 27 34 31
f 29 32 36
f 29 36 33
f 31 34 38
f 31 38 35
f 33 36 40
f 33 40 37
f 35 38 43
f 35 43 39
f 37 40 41
f 37 41 42
f 39 43 46
f 39 46 44
f 41 45 42
f 42 45 44
f 42 44 46

