# https://github.com/mikedh/trimesh
v 0.01876000 0.00235792 0.02030698
v 0.01876000 0.00235792 0.02234683
v 0.01876000 0.01362583 0.01909173
v 0.01876425 0.00235792 0.01909173
v 0.04043576 0.00235792 0.02234683
v 0.01876000 0.01362583 0.02234683
v 0.01876000 0.02486511 0.01909173
v 0.03011357 0.00235792 0.01909173
v 0.04043576 0.00235792 0.02030698
v 0.04044000 0.00236012 0.02030698
v 0.04043576 0.01362583 0.02234683
v 0.01876000 0.02486511 0.02234651
v 0.04043576 0.02486511 0.01909173
v 0.04044000 0.00236012 0.01909173
v 0.04044000 0.01362583 0.02030698
v 0.04043576 0.02486511 0.02234651
v 0.04044000 0.01362583 0.01909173
f 1 2 6
f 1 6 12
f 1 12 7
f 1 7 3
f 1 3 4
f 1 4 8
f 1 8 9
f 1 9 5
f 1 5 2
f 2 5 11
f 2 11 6
f 3 7 13
f 3 13 17
f 3 17 14
f 3 14 8
f 3 8 4
f 5 9 14
f 5 14 10
f 5 10 15
f 5 15 11
f 6 11 16
f 6 16 12
f 7 12 16
f 7 16 13
f 8 14 9
f 10 14 17
f 10 17 15
f 11 15 16
f 13 16 15
f 13 15 17

