# https://github.com/mikedh/trimesh
v -0.01318032 0.01094762 -0.00044000
v -0.01318032 0.01559917 -0.00044000
v -0.00903213 0.01094762 -0.00044000
v -0.01318032 0.01094762 0.02378857
v -0.01159957 0.01559917 -0.00044000
v -0.01318032 0.01569695 -0.00043763
v -0.01317991 0.01639958 -0.00043526
v -0.00903213 0.01399966 -0.00044000
v -0.00903213 0.01094762 0.02378857
v -0.01318032 0.01569695 0.02378857
v -0.01000055 0.01479941 -0.00044000
v -0.01080087 0.01559917 -0.00043051
v -0.01317991 0.01724078 -0.00008900
v -0.01317991 0.01720775 -0.00010560
v -0.01317991 0.01756198 0.00060352
v -0.01317991 0.01755485 0.00047308
v -0.01239949 0.01639958 -0.00041154
v -0.00903213 0.01463104 -0.00043051
v -0.00903213 0.01569695 0.02378857
v -0.01317991 0.01756198 0.02378857
v -0.00920023 0.01479877 -0.00042814
v -0.01000055 0.01559917 -0.00033802
v -0.00981417 0.01541202 -0.00035936
v -0.01239949 0.01705687 -0.00009137
v -0.01305891 0.01752830 0.02378857
v -0.01305322 0.01752636 0.00060352
v -0.01239949 0.01731395 0.00060352
v -0.01112043 0.01683151 0.00013393
v -0.01159957 0.01691764 0.00001535
v -0.01159957 0.01639958 -0.00030482
v -0.00903213 0.01479877 -0.00039494
v -0.00903213 0.01569695 0.00026200
v -0.00903253 0.01584007 0.02378857
v -0.00981417 0.01560500 -0.00028110
v -0.00903213 0.01542821 -0.00013880
v -0.01000014 0.01617292 -0.00001548
v -0.01239949 0.01731395 0.02378857
v -0.01159957 0.01703550 0.00060352
v -0.01159185 0.01703290 0.02378857
v -0.00951207 0.01604600 0.00011259
v -0.01108186 0.01684835 0.00060352
v -0.01068190 0.01667674 0.00060352
v -0.01000014 0.01634583 0.00060352
v -0.01083295 0.01643066 -0.00008663
v -0.00903253 0.01583295 0.00057269
v -0.00903253 0.01584007 0.00060352
v -0.00903213 0.01555514 -0.00006528
v -0.00906786 0.01586079 0.02378857
v -0.00922784 0.01562313 -0.00010086
v -0.01108186 0.01684835 0.02378857
v -0.00906786 0.01586079 0.00060352
v -0.01068758 0.01667933 0.02378857
v -0.01068190 0.01667674 0.02378857
v -0.01067215 0.01667220 0.02378857
v -0.01000014 0.01634583 0.02378857
f 1 2 5
f 1 5 11
f 1 11 8
f 1 8 3
f 1 3 9
f 1 9 4
f 1 4 10
f 1 10 6
f 1 6 2
f 2 6 7
f 2 7 5
f 3 8 18
f 3 18 31
f 3 31 35
f 3 35 47
f 3 47 32
f 3 32 19
f 3 19 9
f 4 9 19
f 4 19 33
f 4 33 48
f 4 48 55
f 4 55 54
f 4 54 53
f 4 53 52
f 4 52 50
f 4 50 39
f 4 39 37
f 4 37 25
f 4 25 20
f 4 20 10
f 5 7 12
f 5 12 11
f 6 13 14
f 6 14 7
f 6 10 20
f 6 20 15
f 6 15 16
f 6 16 13
f 7 17 12
f 7 14 17
f 8 11 18
f 11 12 18
f 12 21 18
f 12 17 22
f 12 22 23
f 12 23 21
f 13 24 14
f 13 16 24
f 14 24 17
f 15 20 25
f 15 25 26
f 15 26 16
f 16 26 27
f 16 27 28
f 16 28 29
f 16 29 24
f 17 24 30
f 17 30 22
f 18 21 31
f 19 32 46
f 19 46 33
f 21 23 31
f 22 34 35
f 22 35 31
f 22 31 23
f 22 30 36
f 22 36 34
f 24 29 30
f 25 37 27
f 25 27 26
f 27 38 28
f 27 37 39
f 27 39 38
f 28 40 36
f 28 36 29
f 28 38 41
f 28 41 42
f 28 42 43
f 28 43 40
f 29 36 44
f 29 44 30
f 30 44 36
f 32 45 46
f 32 47 45
f 33 46 51
f 33 51 48
f 34 49 35
f 34 36 49
f 35 49 47
f 36 40 47
f 36 47 49
f 38 39 41
f 39 50 41
f 40 43 51
f 40 51 46
f 40 46 45
f 40 45 47
f 41 50 52
f 41 52 42
f 42 52 53
f 42 53 54
f 42 54 43
f 43 54 55
f 43 55 48
f 43 48 51

