# https://github.com/mikedh/trimesh
v -0.01840898 0.01999497 0.03261328
v -0.03525345 0.01999497 0.03261328
v -0.01871401 0.02118720 0.03261328
v -0.01871896 0.02120317 0.04939476
v -0.01841063 0.01999497 0.04827971
v -0.03525345 0.02120329 0.03261328
v -0.03525345 0.01999497 0.04827971
v -0.01871731 0.02119986 0.03261328
v -0.01871896 0.02120317 0.04859555
v -0.01872226 0.02120329 0.03979736
v -0.01895969 0.02120317 0.05009449
v -0.01871896 0.02119986 0.04939825
v -0.01841557 0.01999497 0.04939825
v -0.03525345 0.02120329 0.03987589
v -0.02008089 0.02120329 0.03261328
v -0.03525180 0.01999497 0.05044000
v -0.03525345 0.02120317 0.04827971
v -0.01872226 0.02120329 0.03339852
v -0.01880140 0.02120329 0.03987589
v -0.01895969 0.02119986 0.05009798
v -0.01960273 0.02120317 0.05041906
v -0.01879316 0.01999497 0.05014161
v -0.03525180 0.02120317 0.05003342
v -0.03479672 0.02120317 0.05044000
v -0.02040241 0.01999497 0.05044000
v -0.03525180 0.02119986 0.05044000
v -0.02040241 0.02120317 0.05044000
v -0.01960273 0.02040011 0.05043128
v -0.01960273 0.01999497 0.05043476
f 1 2 6
f 1 6 15
f 1 15 8
f 1 8 3
f 1 3 4
f 1 4 5
f 1 5 13
f 1 13 22
f 1 22 29
f 1 29 25
f 1 25 16
f 1 16 7
f 1 7 2
f 2 7 17
f 2 17 14
f 2 14 6
f 3 8 4
f 4 8 9
f 4 9 18
f 4 18 10
f 4 10 11
f 4 11 20
f 4 20 12
f 4 12 13
f 4 13 5
f 6 14 19
f 6 19 10
f 6 10 18
f 6 18 15
f 7 16 26
f 7 26 17
f 8 15 18
f 8 18 9
f 10 19 11
f 11 19 21
f 11 21 20
f 12 20 13
f 13 20 22
f 14 17 23
f 14 23 24
f 14 24 27
f 14 27 19
f 16 25 27
f 16 27 24
f 16 24 26
f 17 26 23
f 19 27 21
f 20 21 22
f 21 27 28
f 21 28 22
f 22 28 29
f 23 26 24
f 25 29 27
f 27 29 28

