# https://github.com/mikedh/trimesh
v -0.03525345 0.01999485 0.01346256
v -0.03525345 0.01999485 0.02527053
v -0.03525345 0.02120329 0.01346256
v -0.01841062 0.01999485 0.01346256
v -0.03525345 0.02120329 0.02527053
v -0.01841062 0.01999485 0.02527053
v -0.02435136 0.02120329 0.01346256
v -0.01871730 0.02119998 0.01346256
v -0.01871730 0.02120329 0.01419774
v -0.03262686 0.02120329 0.02527053
v -0.01871730 0.02120329 0.01979598
v -0.01871730 0.02119998 0.02527053
v -0.01872225 0.02120329 0.02459546
f 1 2 5
f 1 5 3
f 1 3 7
f 1 7 8
f 1 8 4
f 1 4 6
f 1 6 2
f 2 6 12
f 2 12 10
f 2 10 5
f 3 5 10
f 3 10 13
f 3 13 11
f 3 11 9
f 3 9 7
f 4 8 9
f 4 9 11
f 4 11 6
f 6 11 12
f 7 9 8
f 10 12 13
f 11 13 12

