# https://github.com/mikedh/trimesh
v -0.03232320 -0.01560356 -0.00006719
v -0.03232320 -0.01560356 0.00068747
v -0.03232320 -0.01560012 -0.00044000
v -0.03159892 -0.01560356 -0.00044000
v -0.02473472 -0.01560356 0.00068747
v -0.03232320 0.01957274 0.00068747
v -0.03232320 0.01957274 -0.00044000
v -0.02520043 -0.01560356 -0.00044000
v -0.02473472 -0.01560356 -0.00003971
v -0.01773053 -0.01560012 0.00068747
v -0.01813195 0.01957274 0.00068747
v -0.01960051 0.01957274 -0.00044000
v -0.01773053 -0.01560012 -0.00044000
v -0.01773053 0.01905281 0.00068747
v -0.01773053 0.01905281 0.00059984
v -0.01813338 0.01957274 0.00059984
v -0.01957336 0.01957274 -0.00043923
v -0.01773196 0.01719000 -0.00044000
v -0.01773053 -0.00423393 -0.00044000
v -0.01773053 0.01904592 0.00058439
v -0.01827195 0.01957274 0.00014581
v -0.01873480 0.01957274 -0.00019632
v -0.01773196 0.01772371 -0.00042775
v -0.01773053 0.01849156 -0.00019422
v -0.01773053 0.01872225 -0.00008893
v -0.01823195 0.01945222 0.00001392
v -0.01850195 0.01957274 -0.00008551
v -0.01863909 0.01957274 -0.00016586
v -0.01773196 0.01801639 -0.00034387
v -0.01773053 0.01860518 -0.00015791
f 1 2 6
f 1 6 7
f 1 7 3
f 1 3 4
f 1 4 8
f 1 8 9
f 1 9 5
f 1 5 2
f 2 5 10
f 2 10 14
f 2 14 11
f 2 11 6
f 3 7 12
f 3 12 18
f 3 18 19
f 3 19 13
f 3 13 8
f 3 8 4
f 5 9 13
f 5 13 10
f 6 11 16
f 6 16 21
f 6 21 27
f 6 27 28
f 6 28 22
f 6 22 17
f 6 17 12
f 6 12 7
f 8 13 9
f 10 13 19
f 10 19 24
f 10 24 30
f 10 30 25
f 10 25 20
f 10 20 15
f 10 15 14
f 11 14 15
f 11 15 16
f 12 17 18
f 15 20 21
f 15 21 16
f 17 22 23
f 17 23 18
f 18 23 24
f 18 24 19
f 20 25 21
f 21 26 27
f 21 25 26
f 22 28 29
f 22 29 23
f 23 29 24
f 24 29 28
f 24 28 30
f 25 30 26
f 26 30 27
f 27 30 28

