# https://github.com/mikedh/trimesh
v -0.01566037 -0.01787202 -0.00000448
v -0.01566037 -0.01784249 -0.00009545
v -0.01565241 -0.01787202 -0.00000448
v -0.01566037 -0.00199794 -0.00000448
v -0.01559997 -0.01783472 -0.00009396
v -0.01480007 -0.01775546 -0.00004813
v -0.01566037 -0.01719907 -0.00041544
v -0.01559997 -0.01719907 -0.00041391
v -0.01480007 -0.01719907 -0.00036808
v -0.01479524 -0.01776478 -0.00000448
v -0.01479499 -0.00199794 -0.00000448
v -0.01566037 -0.00199794 -0.00043996
v -0.01479499 -0.01720218 -0.00036544
v -0.01479499 -0.01775546 -0.00004400
v -0.01566037 -0.01639868 -0.00043996
v -0.01479499 -0.01639868 -0.00043996
v -0.01479499 -0.01746639 -0.00000448
v -0.01479499 -0.00199794 -0.00043996
f 1 2 3
f 1 3 10
f 1 10 17
f 1 17 11
f 1 11 4
f 1 4 12
f 1 12 15
f 1 15 7
f 1 7 2
f 2 5 6
f 2 6 3
f 2 7 8
f 2 8 9
f 2 9 5
f 3 6 10
f 4 11 18
f 4 18 12
f 5 9 6
f 6 13 14
f 6 14 10
f 6 9 13
f 7 15 16
f 7 16 8
f 8 16 9
f 9 16 13
f 10 14 17
f 11 17 14
f 11 14 13
f 11 13 16
f 11 16 18
f 12 18 16
f 12 16 15

