# https://github.com/mikedh/trimesh
v -0.04043936 0.00450199 0.03143215
v -0.04043936 0.00450199 0.03667562
v -0.04043936 0.00629718 0.03143215
v -0.03386407 0.00450199 0.03143215
v -0.04038014 0.00450199 0.03667818
v -0.04043936 0.00520004 0.03667818
v -0.04043936 0.00629718 0.03667818
v -0.03386407 0.00629718 0.03143215
v -0.03386407 0.00450199 0.03667818
v -0.03386407 0.00629718 0.03667818
f 1 2 6
f 1 6 7
f 1 7 3
f 1 3 8
f 1 8 4
f 1 4 9
f 1 9 5
f 1 5 2
f 2 5 6
f 3 7 10
f 3 10 8
f 4 8 10
f 4 10 9
f 5 9 10
f 5 10 7
f 5 7 6

