# https://github.com/mikedh/trimesh
v -0.00808456 -0.01335144 0.02378857
v -0.00903205 -0.01335144 0.02378857
v -0.00808456 -0.01526800 0.02378857
v -0.00808456 0.01382589 0.02323361
v -0.00903205 -0.01584006 0.02378857
v -0.00903205 0.01382589 0.02323361
v -0.00840017 -0.01546837 0.02378857
v -0.00808456 -0.01526800 0.00060352
v -0.00808456 0.01382589 -0.00042814
v -0.00903205 -0.01584006 0.00060352
v -0.00903205 0.01382589 -0.00043763
v -0.00840017 -0.01546837 0.00060352
v -0.00808456 -0.01523315 0.00015528
v -0.00822600 0.01382589 -0.00043763
v -0.00808456 0.01368360 -0.00043763
v -0.00903205 -0.01555258 -0.00006528
v -0.00840017 -0.01533188 0.00004381
v -0.00903205 0.00424601 -0.00044000
v -0.00808456 -0.01478595 -0.00016252
v -0.00808456 0.00424601 -0.00044000
v -0.00903205 -0.01479757 -0.00039494
v -0.00840017 -0.01479757 -0.00027636
v -0.00903205 -0.01399901 -0.00044000
v -0.00808456 -0.01399901 -0.00041391
v -0.00808456 0.00372332 -0.00044000
v -0.00840017 -0.01399901 -0.00044000
v -0.00808456 -0.01319463 -0.00043526
f 1 2 5
f 1 5 7
f 1 7 3
f 1 3 8
f 1 8 13
f 1 13 19
f 1 19 24
f 1 24 27
f 1 27 25
f 1 25 20
f 1 20 15
f 1 15 9
f 1 9 4
f 1 4 6
f 1 6 2
f 2 6 11
f 2 11 18
f 2 18 23
f 2 23 21
f 2 21 16
f 2 16 10
f 2 10 5
f 3 7 12
f 3 12 8
f 4 9 14
f 4 14 11
f 4 11 6
f 5 10 12
f 5 12 7
f 8 12 13
f 9 15 14
f 10 16 17
f 10 17 13
f 10 13 12
f 11 14 20
f 11 20 18
f 13 17 19
f 14 15 20
f 16 21 22
f 16 22 17
f 17 22 19
f 18 20 25
f 18 25 26
f 18 26 23
f 19 22 24
f 21 23 26
f 21 26 24
f 21 24 22
f 24 26 27
f 25 27 26

