# https://github.com/mikedh/trimesh
v -0.01812481 0.01957258 0.00135994
v -0.01773053 0.01906105 0.00135994
v -0.01773053 0.01905415 0.00068747
v -0.01813195 0.01957258 0.00068747
v -0.03232462 0.01957258 0.00135994
v -0.01773053 0.01793302 0.00135994
v -0.01773053 0.01793302 0.00068747
v -0.03232462 0.01957258 0.00068747
v -0.03232462 0.01793302 0.00135994
v -0.03232462 0.01793302 0.00068747
f 1 2 3
f 1 3 4
f 1 4 8
f 1 8 5
f 1 5 9
f 1 9 6
f 1 6 2
f 2 6 7
f 2 7 3
f 3 7 10
f 3 10 8
f 3 8 4
f 5 8 10
f 5 10 9
f 6 9 10
f 6 10 7

