# https://github.com/mikedh/trimesh
v -0.00423239 -0.00923297 0.05043945
v -0.00307240 0.00759897 0.05043829
v -0.00360016 0.00839513 0.05043829
v -0.00423239 0.00862031 0.05043829
v -0.00423239 -0.00983210 0.05043945
v -0.00307240 -0.00787186 0.05043829
v -0.00307240 0.00839513 0.05041288
v -0.00360016 0.00862031 0.05043714
v -0.00423239 0.00862031 0.03863898
v -0.00423239 -0.01063228 0.05038631
v -0.00363355 -0.00923297 0.05043714
v -0.00360016 -0.00919678 0.05043598
v -0.00307240 -0.00867003 0.05041173
v -0.00307240 0.00862031 0.05034704
v -0.00307240 0.00862031 0.03863898
v -0.00423239 -0.01191900 0.03863898
v -0.00423239 -0.01144653 0.05012295
v -0.00360016 -0.00999897 0.05034358
v -0.00360016 -0.00923297 0.05043252
v -0.00307240 -0.00952851 0.05022460
v -0.00307240 -0.01042118 0.03863898
v -0.00414428 -0.01181848 0.03863898
v -0.00423239 -0.01191900 0.04939986
v -0.00423239 -0.01152896 0.05008252
v -0.00361265 -0.01075894 0.05007559
v -0.00307240 -0.01009547 0.05003054
v -0.00307240 -0.00999897 0.05006520
v -0.00307240 -0.01042118 0.04939986
v -0.00310113 -0.01046340 0.03863898
v -0.00383123 -0.01141839 0.03863898
v -0.00414428 -0.01181848 0.04939986
v -0.00423239 -0.01188482 0.04950613
v -0.00388744 -0.01134601 0.04995777
v -0.00314984 -0.01046541 0.04988847
v -0.00307240 -0.01023420 0.04995546
v -0.00307240 -0.01036488 0.04978335
v -0.00312463 -0.01049758 0.04939986
v -0.00312463 -0.01049758 0.03863898
v -0.00383123 -0.01141839 0.04939986
f 1 2 3
f 1 3 4
f 1 4 9
f 1 9 16
f 1 16 23
f 1 23 32
f 1 32 24
f 1 24 17
f 1 17 10
f 1 10 5
f 1 5 6
f 1 6 2
f 2 6 13
f 2 13 20
f 2 20 27
f 2 27 26
f 2 26 35
f 2 35 36
f 2 36 28
f 2 28 21
f 2 21 15
f 2 15 14
f 2 14 7
f 2 7 8
f 2 8 3
f 3 8 4
f 4 8 14
f 4 14 15
f 4 15 9
f 5 10 11
f 5 11 6
f 6 11 12
f 6 12 13
f 7 14 8
f 9 15 21
f 9 21 29
f 9 29 38
f 9 38 30
f 9 30 22
f 9 22 16
f 10 17 18
f 10 18 13
f 10 13 19
f 10 19 12
f 10 12 11
f 12 19 13
f 13 18 20
f 16 22 31
f 16 31 23
f 17 24 25
f 17 25 18
f 18 25 26
f 18 26 27
f 18 27 20
f 21 28 29
f 22 30 39
f 22 39 31
f 23 31 32
f 24 32 33
f 24 33 25
f 25 33 34
f 25 34 26
f 26 34 35
f 28 36 34
f 28 34 37
f 28 37 29
f 29 37 38
f 30 38 37
f 30 37 39
f 31 39 34
f 31 34 33
f 31 33 32
f 34 36 35
f 34 39 37

