# https://github.com/mikedh/trimesh
v -0.04044000 -0.01998843 0.01039921
v -0.02906526 -0.01998843 0.01039921
v -0.04044000 -0.01998843 0.01178135
v -0.04044000 0.00450182 0.01039921
v -0.01840853 -0.01998603 0.01039921
v -0.01840853 -0.01998843 0.01100010
v -0.01946664 -0.01998843 0.01178135
v -0.04044000 0.00449942 0.01178135
v -0.04044000 0.00450182 0.01110171
v -0.01773053 0.00450182 0.01039921
v -0.01773053 -0.01906069 0.01039921
v -0.01840853 -0.01998603 0.01178135
v -0.01773053 -0.01906069 0.01178135
v -0.04040666 0.00450182 0.01178135
v -0.01773053 0.00450182 0.01178135
f 1 2 6
f 1 6 7
f 1 7 3
f 1 3 8
f 1 8 9
f 1 9 4
f 1 4 10
f 1 10 11
f 1 11 5
f 1 5 2
f 2 5 6
f 3 7 12
f 3 12 13
f 3 13 15
f 3 15 14
f 3 14 8
f 4 9 14
f 4 14 15
f 4 15 10
f 5 11 6
f 6 12 7
f 6 11 13
f 6 13 12
f 8 14 9
f 10 15 13
f 10 13 11

