# https://github.com/mikedh/trimesh
v -0.02362403 0.02313922 0.04935871
v -0.02362403 0.02042091 0.04935871
v -0.02362403 0.02313922 0.00064129
v -0.02440253 0.02313922 0.04941338
v -0.02362403 0.02042091 0.00141167
v -0.02520243 0.02042091 0.04946805
v -0.02362403 0.02042437 0.00064129
v -0.02394169 0.02313922 0.00061644
v -0.02520243 0.02313922 0.04946805
v -0.02440253 0.02042091 0.00058662
v -0.02678742 0.02201422 0.04957242
v -0.03237683 0.02042091 0.04994021
v -0.02474159 0.02313922 0.00056177
v -0.03479792 0.02313922 0.05009926
v -0.02520243 0.02042091 0.00053195
v -0.03479792 0.02042091 0.05009926
v -0.03479792 0.02042091 -0.00009926
v -0.03479792 0.02313922 -0.00009926
v -0.03799752 0.02313922 0.05030801
v -0.03798270 0.02201422 0.05030801
v -0.03797776 0.02042091 0.05030801
v -0.03721901 0.02042091 -0.00025830
v -0.03753667 0.02313922 -0.00027818
v -0.03879741 0.02313922 0.05035771
v -0.03878260 0.02201422 0.05035771
v -0.03877766 0.02042091 0.05035771
v -0.03881881 0.02042091 -0.00036268
v -0.03799752 0.02313922 -0.00030801
v -0.03959731 0.02313922 0.05038753
v -0.03959731 0.02042091 0.05038753
v -0.03959731 0.02042091 -0.00038753
v -0.03959731 0.02313922 -0.00038753
v -0.03913646 0.02313922 -0.00037262
v -0.03879741 0.02313922 -0.00035771
v -0.04021781 0.02313922 0.05008932
v -0.04020135 0.02042091 0.05009926
v -0.04021781 0.02042091 -0.00008932
v -0.04021781 0.02313922 -0.00008932
v -0.04043836 0.02313922 0.04939847
v -0.04021781 0.02042091 0.05008932
v -0.04022274 0.02042091 -0.00007441
v -0.04043836 0.02313922 0.00060153
v -0.04043836 0.02042091 0.04939847
v -0.04043836 0.02042091 0.00060153
f 1 2 5
f 1 5 7
f 1 7 3
f 1 3 8
f 1 8 13
f 1 13 18
f 1 18 23
f 1 23 28
f 1 28 34
f 1 34 33
f 1 33 32
f 1 32 38
f 1 38 42
f 1 42 39
f 1 39 35
f 1 35 29
f 1 29 24
f 1 24 19
f 1 19 14
f 1 14 9
f 1 9 4
f 1 4 2
f 2 4 6
f 2 6 12
f 2 12 16
f 2 16 21
f 2 21 26
f 2 26 30
f 2 30 36
f 2 36 40
f 2 40 43
f 2 43 44
f 2 44 41
f 2 41 37
f 2 37 31
f 2 31 27
f 2 27 22
f 2 22 17
f 2 17 15
f 2 15 10
f 2 10 5
f 3 7 8
f 4 9 6
f 5 10 7
f 6 9 11
f 6 11 12
f 7 10 8
f 8 10 15
f 8 15 13
f 9 14 11
f 11 14 12
f 12 14 16
f 13 15 17
f 13 17 18
f 14 19 20
f 14 20 21
f 14 21 16
f 17 22 18
f 18 22 23
f 19 24 25
f 19 25 20
f 20 25 26
f 20 26 21
f 22 27 23
f 23 27 28
f 24 29 25
f 25 29 26
f 26 29 30
f 27 31 32
f 27 32 33
f 27 33 34
f 27 34 28
f 29 35 36
f 29 36 30
f 31 37 38
f 31 38 32
f 35 39 43
f 35 43 40
f 35 40 36
f 37 41 38
f 38 41 42
f 39 42 44
f 39 44 43
f 41 44 42

