# https://github.com/mikedh/trimesh
v -0.00463869 -0.00357422 0.02378857
v -0.00463869 0.00202277 0.02378857
v -0.00423250 -0.00357422 0.02378857
v -0.00463869 -0.00357422 0.03950143
v -0.00463869 0.00621835 0.02379011
v -0.00458617 0.00621835 0.02378857
v -0.00423250 0.00621835 0.02378857
v -0.00423250 -0.00357422 0.03950143
v -0.00463869 0.00621835 0.03950143
v -0.00423250 0.00621835 0.03950143
f 1 2 6
f 1 6 7
f 1 7 3
f 1 3 8
f 1 8 4
f 1 4 9
f 1 9 5
f 1 5 2
f 2 5 6
f 3 7 10
f 3 10 8
f 4 8 10
f 4 10 9
f 5 9 10
f 5 10 7
f 5 7 6

