# https://github.com/mikedh/trimesh
v 0.01977241 -0.02801344 0.05043080
v 0.01977241 -0.02745905 0.05042226
v 0.01974095 -0.02745905 0.05042226
v 0.01959995 -0.02745905 0.05041800
v 0.01959995 -0.02801344 0.05042439
v 0.01977241 -0.02801344 0.02863429
v 0.01977241 -0.02745905 0.02863429
v 0.01922811 -0.02801344 0.05026011
v 0.01907152 -0.02745905 0.05015343
v 0.01873914 -0.02801344 0.02863429
v 0.01873914 -0.02745905 0.02863429
v 0.01891808 -0.02801344 0.05010436
v 0.01896218 -0.02745905 0.05009796
v 0.01873914 -0.02801344 0.04970325
v 0.01873914 -0.02745905 0.04944722
v 0.01875057 -0.02801344 0.04973739
v 0.01876291 -0.02745905 0.04952190
f 1 2 3
f 1 3 4
f 1 4 5
f 1 5 8
f 1 8 12
f 1 12 16
f 1 16 14
f 1 14 10
f 1 10 6
f 1 6 7
f 1 7 2
f 2 7 11
f 2 11 15
f 2 15 17
f 2 17 13
f 2 13 9
f 2 9 4
f 2 4 3
f 4 8 5
f 4 9 8
f 6 10 11
f 6 11 7
f 8 9 12
f 9 13 12
f 10 14 15
f 10 15 11
f 12 13 16
f 13 17 16
f 14 16 17
f 14 17 15

