# https://github.com/mikedh/trimesh
v 0.01876152 -0.00615692 0.03727516
v 0.01876152 -0.00615692 0.04238571
v 0.01876152 -0.00615453 0.03417858
v 0.03424372 -0.00615692 0.03417540
v 0.03424372 -0.00615692 0.05044000
v 0.01898433 -0.00615453 0.05009134
v 0.01893976 -0.00615453 0.04995442
v 0.01876152 -0.00615453 0.04939719
v 0.01876152 0.00814441 0.03417699
v 0.03424372 0.01816676 0.03417540
v 0.04044000 -0.00615692 0.03417540
v 0.03879969 -0.00615692 0.05044000
v 0.03424372 0.01816676 0.05044000
v 0.02040183 -0.00615453 0.05043841
v 0.02024693 -0.00615453 0.05043363
v 0.01960395 -0.00615453 0.05041134
v 0.01901616 -0.00195415 0.05010885
v 0.01898433 0.01816676 0.05009134
v 0.01876152 0.01816676 0.04939719
v 0.01876152 0.01816915 0.03417699
v 0.04044000 0.01816676 0.03417540
v 0.04044000 -0.00615692 0.04939878
v 0.03959756 -0.00615692 0.05041293
v 0.03879969 0.01816676 0.05044000
v 0.01876152 0.01816915 0.04238571
v 0.02040183 0.01816676 0.05043841
v 0.01960395 0.01816676 0.05041134
v 0.03424372 0.01816915 0.03417699
v 0.04044000 0.01816676 0.04939878
v 0.04021931 -0.00615692 0.05009293
v 0.03959756 0.01816676 0.05041293
v 0.03424372 0.01816915 0.04238571
v 0.04021931 0.01816676 0.05009293
f 1 2 8
f 1 8 19
f 1 19 25
f 1 25 20
f 1 20 9
f 1 9 3
f 1 3 4
f 1 4 11
f 1 11 22
f 1 22 30
f 1 30 23
f 1 23 12
f 1 12 5
f 1 5 2
f 2 5 6
f 2 6 7
f 2 7 8
f 3 9 4
f 4 9 20
f 4 20 10
f 4 10 21
f 4 21 11
f 5 12 24
f 5 24 13
f 5 13 26
f 5 26 14
f 5 14 15
f 5 15 16
f 5 16 6
f 6 16 17
f 6 17 18
f 6 18 7
f 7 18 19
f 7 19 8
f 10 20 28
f 10 28 21
f 11 21 29
f 11 29 22
f 12 23 31
f 12 31 24
f 13 24 32
f 13 32 25
f 13 25 26
f 14 26 15
f 15 26 27
f 15 27 16
f 16 27 17
f 17 27 18
f 18 27 25
f 18 25 19
f 20 25 32
f 20 32 28
f 21 28 32
f 21 32 29
f 22 29 33
f 22 33 30
f 23 30 33
f 23 33 31
f 24 31 32
f 25 27 26
f 29 32 33
f 31 33 32

