# https://github.com/mikedh/trimesh
v -0.01679660 0.01758402 0.04916728
v -0.01679660 0.01758402 0.04488986
v -0.01773053 0.01758402 0.04916728
v -0.01679660 -0.01838707 0.04916728
v -0.01773053 0.01758402 0.04488986
v -0.01679660 -0.01812518 0.04488986
v -0.01773053 -0.01905433 0.04916728
v -0.01679660 -0.01839424 0.04861293
v -0.01773053 -0.01905791 0.04488986
v -0.01679660 -0.01839424 0.04540067
v -0.01679907 -0.01839424 0.04488986
v -0.01773053 -0.01905791 0.04859995
f 1 2 5
f 1 5 3
f 1 3 7
f 1 7 4
f 1 4 8
f 1 8 10
f 1 10 6
f 1 6 2
f 2 6 11
f 2 11 9
f 2 9 5
f 3 5 9
f 3 9 12
f 3 12 7
f 4 7 8
f 6 10 11
f 7 12 8
f 8 12 9
f 8 9 10
f 9 11 10

