# https://github.com/mikedh/trimesh
v -0.03618919 0.01957274 0.01098204
v -0.03618919 0.01999485 0.01098204
v -0.03578399 0.01965054 0.01098204
v -0.03578399 0.01957274 0.01098353
v -0.03618919 0.01957274 0.02620398
v -0.03578399 0.01999485 0.01098204
v -0.03618919 0.01999485 0.02620845
v -0.03578399 0.01957274 0.02620398
v -0.03618919 0.01957299 0.02621143
v -0.03578399 0.01999485 0.02620845
v -0.03618919 0.01982726 0.02621143
v -0.03578399 0.01957299 0.02621143
v -0.03578399 0.01981131 0.02621143
f 1 2 6
f 1 6 3
f 1 3 4
f 1 4 8
f 1 8 5
f 1 5 9
f 1 9 11
f 1 11 7
f 1 7 2
f 2 7 10
f 2 10 6
f 3 6 10
f 3 10 13
f 3 13 12
f 3 12 8
f 3 8 4
f 5 8 12
f 5 12 9
f 7 11 10
f 9 12 13
f 9 13 11
f 10 11 13

