# https://github.com/mikedh/trimesh
v 0.02810982 -0.03735784 0.05043884
v 0.01874087 -0.03735784 0.05043884
v 0.02810982 -0.03879986 0.05043884
v 0.02810982 -0.03735784 0.02863429
v 0.01874087 -0.03879986 0.05043884
v 0.01874087 -0.03735784 0.02863429
v 0.02810982 -0.03959995 0.05041109
v 0.02810982 -0.03984000 0.02863429
v 0.01874087 -0.03959995 0.05041109
v 0.01874087 -0.03984000 0.02863429
v 0.01874087 -0.03964684 0.05038761
v 0.02810982 -0.03982469 0.05029583
v 0.02810982 -0.03984000 0.05028730
v 0.01874087 -0.03984000 0.05028730
f 1 2 5
f 1 5 3
f 1 3 7
f 1 7 12
f 1 12 13
f 1 13 8
f 1 8 4
f 1 4 6
f 1 6 2
f 2 6 10
f 2 10 14
f 2 14 11
f 2 11 9
f 2 9 5
f 3 5 9
f 3 9 7
f 4 8 10
f 4 10 6
f 7 9 11
f 7 11 12
f 8 13 14
f 8 14 10
f 11 14 12
f 12 14 13

