# https://github.com/mikedh/trimesh
v -0.00482743 0.01256120 0.03043434
v -0.00674580 0.01256120 0.03043434
v -0.00465849 0.01238723 0.03043434
v -0.00482743 0.01256120 0.02378987
v -0.00674580 0.01256120 0.02378987
v -0.00674580 0.00185447 0.03043434
v -0.00463869 0.01236627 0.03043434
v -0.00463869 0.01236627 0.02379182
v -0.00483692 0.01256120 0.02378857
v -0.00662038 0.01256120 0.02378922
v -0.00674580 0.00185447 0.02378922
v -0.00463869 0.00185447 0.03043434
v -0.00463869 0.01233588 0.02378857
v -0.00627920 0.01256120 0.02378857
v -0.00466282 0.00185447 0.02378857
v -0.00463869 0.00185447 0.02378857
f 1 2 6
f 1 6 12
f 1 12 7
f 1 7 3
f 1 3 4
f 1 4 9
f 1 9 14
f 1 14 10
f 1 10 5
f 1 5 2
f 2 5 11
f 2 11 6
f 3 7 8
f 3 8 4
f 4 8 9
f 5 10 11
f 6 11 15
f 6 15 16
f 6 16 12
f 7 12 16
f 7 16 13
f 7 13 8
f 8 13 9
f 9 13 16
f 9 16 15
f 9 15 14
f 10 14 11
f 11 14 15

