# https://github.com/mikedh/trimesh
v -0.03879966 0.01999485 -0.00044000
v -0.03919464 0.01999485 -0.00042683
v -0.03879966 0.02119998 -0.00044000
v -0.03525395 0.01999485 -0.00044000
v -0.03959977 0.02119998 -0.00041319
v -0.03959977 0.01999485 -0.00041319
v -0.03880321 0.02120329 -0.00043976
v -0.03800309 0.02120329 -0.00044000
v -0.03525395 0.02119998 -0.00044000
v -0.03525395 0.01999485 0.00196174
v -0.03990591 0.01999485 -0.00025519
v -0.04021966 0.02119998 -0.00009320
v -0.03960231 0.02120329 -0.00041178
v -0.03560375 0.02120329 -0.00044000
v -0.03525395 0.02120329 -0.00003747
v -0.04044000 0.01999485 0.00196174
v -0.03525395 0.02120329 0.00196174
v -0.04021966 0.01999485 -0.00009320
v -0.04022068 0.02120329 -0.00009038
v -0.04044000 0.02119998 0.00196174
v -0.04044000 0.01999485 0.00060017
v -0.04022017 0.02120329 0.00196174
v -0.04044000 0.02120329 0.00060017
v -0.04044000 0.02120329 0.00139981
f 1 2 3
f 1 3 8
f 1 8 14
f 1 14 9
f 1 9 4
f 1 4 10
f 1 10 16
f 1 16 21
f 1 21 18
f 1 18 11
f 1 11 6
f 1 6 2
f 2 5 3
f 2 6 5
f 3 5 7
f 3 7 8
f 4 9 15
f 4 15 17
f 4 17 10
f 5 6 11
f 5 11 12
f 5 12 13
f 5 13 7
f 7 13 19
f 7 19 23
f 7 23 24
f 7 24 22
f 7 22 17
f 7 17 15
f 7 15 14
f 7 14 8
f 9 14 15
f 10 17 22
f 10 22 20
f 10 20 16
f 11 18 12
f 12 18 19
f 12 19 13
f 16 20 24
f 16 24 23
f 16 23 21
f 18 21 19
f 19 21 23
f 20 22 24

