# https://github.com/mikedh/trimesh
v -0.01838580 -0.02097508 0.04779927
v -0.01839351 -0.02097508 0.04823162
v -0.01844439 -0.02199997 0.04779927
v -0.01838580 -0.02097508 0.00220073
v -0.01840507 -0.02097508 0.04829887
v -0.01847985 -0.02199997 0.04859672
v -0.01849219 -0.02236801 0.04859672
v -0.01847291 -0.02236801 0.04816437
v -0.01846598 -0.02236801 0.04779927
v -0.01844439 -0.02199997 0.00220073
v -0.01839043 -0.02097508 0.00195093
v -0.01846058 -0.02097508 0.04849103
v -0.01865562 -0.02236801 0.04889936
v -0.01846598 -0.02236801 0.00220073
v -0.01849219 -0.02236801 0.00140328
v -0.01840507 -0.02097508 0.00170113
v -0.01853459 -0.02097508 0.04860632
v -0.01885915 -0.02236801 0.04920681
v -0.01847985 -0.02199997 0.00140328
v -0.01885915 -0.02236801 0.00079319
v -0.01849604 -0.02120526 0.00144171
v -0.01853459 -0.02097508 0.00139368
v -0.01883448 -0.02097508 0.04899064
v -0.01885760 -0.02199997 0.04916838
v -0.01919912 -0.02236801 0.04930289
v -0.01960077 -0.02236801 0.00062986
v -0.01885760 -0.02199997 0.00083162
v -0.01891388 -0.02120008 0.00090848
v -0.01894703 -0.02097508 0.00092770
v -0.01894703 -0.02097508 0.04907230
v -0.01891388 -0.02120008 0.04909152
v -0.01960077 -0.02236801 0.04937014
v -0.02626074 -0.02236801 0.00046653
v -0.02622451 -0.02097508 0.00046653
v -0.01982511 -0.02097508 0.00084603
v -0.01960077 -0.02097508 0.00086045
v -0.01910738 -0.02097508 0.00090848
v -0.01944042 -0.02097508 0.04912514
v -0.02599940 -0.02097508 0.04951906
v -0.02626074 -0.02097508 0.04953347
v -0.02626074 -0.02236801 0.04953347
v -0.01960077 -0.02097508 0.04913955
v -0.02626074 -0.02097508 0.00046653
f 1 2 3
f 1 3 10
f 1 10 4
f 1 4 11
f 1 11 16
f 1 16 22
f 1 22 29
f 1 29 37
f 1 37 36
f 1 36 35
f 1 35 34
f 1 34 43
f 1 43 40
f 1 40 39
f 1 39 42
f 1 42 38
f 1 38 30
f 1 30 23
f 1 23 17
f 1 17 12
f 1 12 5
f 1 5 2
f 2 5 6
f 2 6 7
f 2 7 8
f 2 8 3
f 3 8 9
f 3 9 14
f 3 14 10
f 4 10 11
f 5 12 6
f 6 13 7
f 6 12 13
f 7 13 18
f 7 18 25
f 7 25 32
f 7 32 41
f 7 41 33
f 7 33 26
f 7 26 20
f 7 20 15
f 7 15 14
f 7 14 9
f 7 9 8
f 10 14 11
f 11 14 15
f 11 15 16
f 12 17 13
f 13 17 18
f 15 19 16
f 15 20 19
f 16 19 21
f 16 21 22
f 17 23 24
f 17 24 18
f 18 24 25
f 19 22 21
f 19 20 22
f 20 26 27
f 20 27 22
f 22 28 29
f 22 27 28
f 23 30 31
f 23 31 24
f 24 31 25
f 25 31 30
f 25 30 32
f 26 33 34
f 26 34 35
f 26 35 36
f 26 36 37
f 26 37 29
f 26 29 28
f 26 28 27
f 30 38 32
f 32 39 40
f 32 40 41
f 32 38 42
f 32 42 39
f 33 43 34
f 33 41 40
f 33 40 43

