# https://github.com/mikedh/trimesh
v -0.00574587 -0.01345957 0.00140348
v -0.00574587 -0.01345957 0.02378857
v -0.00574587 -0.01345757 0.00060190
v -0.00574507 -0.01345757 0.00060427
v -0.00493359 -0.01266873 0.00060427
v -0.00493359 -0.01266873 0.02378857
v -0.00574587 0.00689109 0.02378857
v -0.00574587 -0.01311693 -0.00007637
v -0.00542213 -0.01297152 0.00001850
v -0.00462984 -0.01217869 0.00001613
v -0.00454471 -0.01226833 0.00060427
v -0.00455017 -0.01227430 0.02378857
v -0.00574587 0.00689109 -0.00043921
v -0.00438510 0.00689109 0.02378857
v -0.00574587 -0.01240777 -0.00033249
v -0.00517327 -0.01242769 -0.00014751
v -0.00438497 -0.01208904 0.00060427
v -0.00438497 -0.01162291 -0.00012854
v -0.00453898 -0.01226235 0.02378857
v -0.00438510 0.00689109 -0.00043921
v -0.00574587 0.00543093 -0.00043921
v -0.00438497 -0.01084203 0.02378857
v -0.00574587 -0.01159900 -0.00042973
v -0.00519991 -0.01159900 -0.00041787
v -0.00439909 -0.01084203 -0.00038229
v -0.00438497 -0.01160697 -0.00013565
v -0.00438497 -0.01208904 0.02378857
v -0.00438497 -0.01084203 -0.00037281
v -0.00438510 0.00543093 -0.00043921
v -0.00574587 -0.01084203 -0.00043684
v -0.00519991 -0.01084203 -0.00043684
v -0.00440016 -0.01079621 -0.00039415
v -0.00438510 -0.00999740 -0.00043447
v -0.00438510 -0.01084203 -0.00037518
v -0.00438497 -0.01135000 -0.00021629
v -0.00438510 -0.01079621 -0.00038704
f 1 2 7
f 1 7 13
f 1 13 21
f 1 21 30
f 1 30 23
f 1 23 15
f 1 15 8
f 1 8 3
f 1 3 4
f 1 4 5
f 1 5 6
f 1 6 2
f 2 6 12
f 2 12 19
f 2 19 27
f 2 27 22
f 2 22 14
f 2 14 7
f 3 8 9
f 3 9 4
f 4 9 5
f 5 9 10
f 5 10 11
f 5 11 12
f 5 12 6
f 7 14 20
f 7 20 13
f 8 15 16
f 8 16 9
f 9 16 10
f 10 17 11
f 10 16 18
f 10 18 17
f 11 17 19
f 11 19 12
f 13 20 29
f 13 29 21
f 14 22 28
f 14 28 20
f 15 23 24
f 15 24 16
f 16 24 25
f 16 25 26
f 16 26 18
f 17 27 19
f 17 18 26
f 17 26 35
f 17 35 28
f 17 28 22
f 17 22 27
f 20 28 29
f 21 29 31
f 21 31 30
f 23 30 31
f 23 31 24
f 24 32 25
f 24 31 33
f 24 33 32
f 25 34 35
f 25 35 26
f 25 32 36
f 25 36 34
f 28 35 34
f 28 34 36
f 28 36 33
f 28 33 29
f 29 33 31
f 32 33 36

