# https://github.com/mikedh/trimesh
v -0.03704000 0.02120341 0.05000145
v -0.03994112 0.02120341 0.05000145
v -0.03704000 0.02049368 0.05000145
v -0.03704000 0.02120341 0.00196198
v -0.04044000 0.02120341 0.04939955
v -0.04024897 0.02119993 0.05000145
v -0.04024897 0.02049368 0.05000145
v -0.03704000 0.02049368 0.00196198
v -0.04022001 0.02120341 0.00196198
v -0.04044000 0.02049368 0.04939955
v -0.04044000 0.02120341 0.00220180
v -0.04044000 0.02049368 0.00196198
v -0.04044000 0.02119993 0.00196198
f 1 2 6
f 1 6 7
f 1 7 3
f 1 3 8
f 1 8 4
f 1 4 9
f 1 9 11
f 1 11 5
f 1 5 2
f 2 5 6
f 3 7 10
f 3 10 12
f 3 12 8
f 4 8 12
f 4 12 13
f 4 13 9
f 5 10 7
f 5 7 6
f 5 11 13
f 5 13 12
f 5 12 10
f 9 13 11

