# https://github.com/mikedh/trimesh
v -0.00081127 0.03076021 0.00060115
v -0.00135264 0.03076096 0.00060115
v -0.00135264 0.03080272 0.00046834
v -0.00135264 0.03098093 -0.00009137
v -0.00081127 0.03087356 0.00024540
v 0.00441930 0.03076021 0.00060115
v -0.00081127 0.03076021 0.02378857
v -0.00135264 0.03076096 0.02378857
v -0.00135264 0.03109949 -0.00015303
v 0.00441930 0.03098093 -0.00009137
v 0.00441930 0.03076021 0.02378857
v -0.00135264 0.03779929 0.02378857
v -0.00135264 0.03160058 -0.00041154
v 0.00441930 0.03158566 -0.00040442
v 0.00441930 0.03837793 0.02378857
v -0.00084009 0.03837718 0.02378857
v -0.00135264 0.03837718 0.02378620
v -0.00135264 0.03240068 -0.00044000
v -0.00081127 0.03160058 -0.00041154
v 0.00441930 0.03160132 -0.00041154
v -0.00081127 0.03837793 0.02378620
v 0.00441930 0.03837793 -0.00044000
v -0.00135264 0.03837718 -0.00044000
v 0.00441930 0.03240068 -0.00044000
v -0.00081127 0.03837793 -0.00044000
f 1 2 3
f 1 3 4
f 1 4 5
f 1 5 6
f 1 6 11
f 1 11 7
f 1 7 8
f 1 8 2
f 2 8 12
f 2 12 17
f 2 17 23
f 2 23 18
f 2 18 13
f 2 13 9
f 2 9 4
f 2 4 3
f 4 9 10
f 4 10 5
f 5 10 6
f 6 10 14
f 6 14 20
f 6 20 24
f 6 24 22
f 6 22 15
f 6 15 11
f 7 11 15
f 7 15 16
f 7 16 12
f 7 12 8
f 9 13 14
f 9 14 10
f 12 16 17
f 13 18 24
f 13 24 19
f 13 19 14
f 14 19 20
f 15 21 16
f 15 22 25
f 15 25 21
f 16 21 17
f 17 21 25
f 17 25 23
f 18 23 25
f 18 25 22
f 18 22 24
f 19 24 20

