# https://github.com/mikedh/trimesh
v -0.00482738 0.01256120 0.04939846
v -0.00493368 0.01267035 0.04939846
v -0.00542235 0.01297258 0.04998495
v -0.00523436 0.01256120 0.05011006
v -0.00482738 0.01256120 0.02379118
v -0.00492805 0.01266460 0.02378857
v -0.00533352 0.01305885 0.04939846
v -0.00493368 0.01267035 0.02378857
v -0.00493932 0.01267591 0.02378857
v -0.00550855 0.01322885 0.04939846
v -0.00598051 0.01322885 0.05014395
v -0.00597807 0.01322356 0.05014656
v -0.00599553 0.01256120 0.05036551
v -0.00483696 0.01256120 0.02378857
v -0.00533352 0.01305885 0.02378857
v -0.00550855 0.01322885 0.02378857
v -0.00672028 0.01322885 0.05037594
v -0.00674582 0.01320153 0.05039679
v -0.00674582 0.01256120 0.05041764
v -0.00627931 0.01256120 0.02378857
v -0.00645754 0.01322885 0.02378857
v -0.00674582 0.01322885 0.05038376
v -0.00674582 0.01256120 0.02379118
v -0.00674582 0.01322885 0.02379118
f 1 2 3
f 1 3 4
f 1 4 13
f 1 13 19
f 1 19 23
f 1 23 20
f 1 20 14
f 1 14 5
f 1 5 6
f 1 6 2
f 2 7 3
f 2 6 8
f 2 8 9
f 2 9 7
f 3 7 10
f 3 10 11
f 3 11 12
f 3 12 4
f 4 12 13
f 5 14 6
f 6 14 20
f 6 20 21
f 6 21 16
f 6 16 15
f 6 15 9
f 6 9 8
f 7 9 15
f 7 15 16
f 7 16 10
f 10 16 21
f 10 21 24
f 10 24 22
f 10 22 17
f 10 17 11
f 11 17 12
f 12 17 18
f 12 18 13
f 13 18 19
f 17 22 18
f 18 22 24
f 18 24 23
f 18 23 19
f 20 23 21
f 21 23 24

