# https://github.com/mikedh/trimesh
v -0.03960092 0.04043899 0.00860099
v -0.03929461 0.04044000 0.00859985
v -0.03960002 0.04044000 0.00859985
v -0.04021992 0.04021981 0.00860099
v -0.03929461 0.04018647 0.00860099
v -0.03929461 0.04044000 0.00694395
v -0.03960002 0.04044000 0.00694395
v -0.04021992 0.04021981 0.00694395
v -0.04023539 0.04017637 0.00694395
v -0.04044000 0.03959962 0.00860099
v -0.03929461 0.03012111 0.00860099
v -0.03929461 0.03012111 0.00694395
v -0.04044000 0.03959962 0.00694395
v -0.04044000 0.03012212 0.00860099
v -0.04032418 0.03012111 0.00860099
v -0.04044000 0.03012111 0.00694395
v -0.04044000 0.03012111 0.00859985
f 1 2 3
f 1 3 4
f 1 4 10
f 1 10 14
f 1 14 15
f 1 15 11
f 1 11 5
f 1 5 2
f 2 5 11
f 2 11 12
f 2 12 6
f 2 6 7
f 2 7 3
f 3 7 8
f 3 8 4
f 4 8 9
f 4 9 10
f 6 12 16
f 6 16 13
f 6 13 9
f 6 9 8
f 6 8 7
f 9 13 10
f 10 13 16
f 10 16 17
f 10 17 14
f 11 15 17
f 11 17 16
f 11 16 12
f 14 17 15

