# https://github.com/mikedh/trimesh
v -0.01841259 -0.01769522 0.05043810
v -0.01841259 -0.01800008 0.05043119
v -0.01841259 -0.01769522 0.04905596
v -0.01849668 -0.01769522 0.05044000
v -0.01960063 -0.01998843 0.05043648
v -0.01841259 -0.01841270 0.05042076
v -0.01841259 -0.01998820 0.04905596
v -0.04044000 -0.01769522 0.04905596
v -0.01960063 -0.01959983 0.05044000
v -0.03879916 -0.01769522 0.05044000
v -0.01910687 -0.01998843 0.05028298
v -0.01998874 -0.01998843 0.05044000
v -0.01878991 -0.01998843 0.05014385
v -0.01841259 -0.01931629 0.05016159
v -0.01841259 -0.01998820 0.04927367
v -0.01841474 -0.01998843 0.04940779
v -0.01880070 -0.01998843 0.04905596
v -0.04044000 -0.01998843 0.04905596
v -0.04044000 -0.01769522 0.04940007
v -0.03959909 -0.01769522 0.05041331
v -0.03879916 -0.01998843 0.05044000
v -0.01841259 -0.01953338 0.05005280
v -0.01841259 -0.01998641 0.04940468
v -0.04044000 -0.01998843 0.04940007
v -0.04035591 -0.01769522 0.04966439
v -0.03990096 -0.01998843 0.05025792
v -0.03959909 -0.01998843 0.05041331
v -0.03998289 -0.01769522 0.05021524
v -0.04021791 -0.01998843 0.05009331
v -0.04021791 -0.01769522 0.05009331
f 1 2 6
f 1 6 14
f 1 14 22
f 1 22 23
f 1 23 15
f 1 15 7
f 1 7 3
f 1 3 8
f 1 8 19
f 1 19 25
f 1 25 30
f 1 30 28
f 1 28 20
f 1 20 10
f 1 10 4
f 1 4 5
f 1 5 2
f 2 5 6
f 3 7 17
f 3 17 18
f 3 18 8
f 4 9 5
f 4 10 21
f 4 21 12
f 4 12 9
f 5 11 6
f 5 9 12
f 5 12 21
f 5 21 27
f 5 27 26
f 5 26 29
f 5 29 24
f 5 24 18
f 5 18 17
f 5 17 16
f 5 16 13
f 5 13 11
f 6 11 13
f 6 13 14
f 7 15 16
f 7 16 17
f 8 18 24
f 8 24 19
f 10 20 27
f 10 27 21
f 13 16 22
f 13 22 14
f 15 23 16
f 16 23 22
f 19 24 25
f 20 26 27
f 20 28 26
f 24 29 25
f 25 29 30
f 26 28 30
f 26 30 29

