# https://github.com/mikedh/trimesh
v -0.04043741 -0.03891343 0.02621143
v -0.04043741 -0.03283439 0.02621143
v -0.04041150 -0.03891641 0.02621143
v -0.04043741 -0.03891641 0.02688497
v -0.04043741 -0.03283439 0.04939885
v -0.01396721 -0.03283439 0.02621143
v -0.01396721 -0.03891641 0.02621143
v -0.04043741 -0.03891641 0.04939885
v -0.04021458 -0.03283439 0.05009137
v -0.01396721 -0.03283439 0.05044000
v -0.01396721 -0.03891641 0.05043526
v -0.04021458 -0.03891641 0.05009137
v -0.04018867 -0.03476866 0.05010560
v -0.03959273 -0.03283439 0.05041154
v -0.03879468 -0.03283439 0.05044000
v -0.01396721 -0.03879912 0.05044000
v -0.03879468 -0.03891641 0.05043526
v -0.03968342 -0.03891641 0.05036648
v -0.03959273 -0.03879912 0.05041154
v -0.03956164 -0.03476866 0.05041391
v -0.03879468 -0.03879912 0.05044000
v -0.03959273 -0.03891641 0.05040917
f 1 2 6
f 1 6 7
f 1 7 3
f 1 3 4
f 1 4 8
f 1 8 5
f 1 5 2
f 2 5 9
f 2 9 14
f 2 14 15
f 2 15 10
f 2 10 6
f 3 7 11
f 3 11 17
f 3 17 22
f 3 22 18
f 3 18 12
f 3 12 8
f 3 8 4
f 5 8 12
f 5 12 9
f 6 10 16
f 6 16 11
f 6 11 7
f 9 12 13
f 9 13 14
f 10 15 21
f 10 21 16
f 11 16 21
f 11 21 17
f 12 18 13
f 13 18 14
f 14 19 20
f 14 20 15
f 14 18 19
f 15 20 21
f 17 21 22
f 18 22 19
f 19 22 21
f 19 21 20

