# https://github.com/mikedh/trimesh
v -0.01777813 0.02971680 0.00958391
v -0.01778257 0.02971680 0.04830071
v -0.01842137 0.02882394 0.04779975
v -0.01841915 0.02882394 0.00621080
v -0.01777813 0.02971680 0.00140161
v -0.04043778 0.02971680 0.04830071
v -0.01842137 0.02882542 0.04830071
v -0.01886498 0.02882394 0.04830071
v -0.01841915 0.02882394 0.00460297
v -0.01842137 0.02882394 0.00140161
v -0.01842581 0.02882394 0.00076230
v -0.01842802 0.02882394 0.00060485
v -0.01779588 0.02971680 0.00067165
v -0.04043778 0.02882394 0.04830071
v -0.04043778 0.02971680 0.00060485
v -0.01825058 0.02936284 0.00002756
v -0.01779810 0.02971680 0.00060485
v -0.01879844 0.02882394 -0.00013465
v -0.04043778 0.02882394 0.00060485
v -0.04021598 0.02971680 -0.00009171
v -0.01810419 0.02971680 -0.00006309
v -0.01960581 0.02882394 -0.00043046
v -0.01878070 0.02971680 -0.00032550
v -0.04021598 0.02882394 -0.00009171
v -0.03959714 0.02971680 -0.00041137
v -0.02040209 0.02882394 -0.00044000
v -0.01960581 0.02920010 -0.00044000
v -0.01960581 0.02971680 -0.00044000
v -0.03959714 0.02882394 -0.00041137
v -0.03879642 0.02971680 -0.00044000
v -0.03879642 0.02882394 -0.00044000
f 1 2 3
f 1 3 4
f 1 4 9
f 1 9 5
f 1 5 13
f 1 13 17
f 1 17 21
f 1 21 23
f 1 23 28
f 1 28 30
f 1 30 25
f 1 25 20
f 1 20 15
f 1 15 6
f 1 6 2
f 2 6 14
f 2 14 8
f 2 8 7
f 2 7 3
f 3 7 8
f 3 8 14
f 3 14 19
f 3 19 24
f 3 24 29
f 3 29 31
f 3 31 26
f 3 26 22
f 3 22 18
f 3 18 12
f 3 12 11
f 3 11 10
f 3 10 9
f 3 9 4
f 5 9 10
f 5 10 11
f 5 11 12
f 5 12 13
f 6 15 19
f 6 19 14
f 12 16 17
f 12 17 13
f 12 18 16
f 15 20 24
f 15 24 19
f 16 21 17
f 16 18 21
f 18 22 23
f 18 23 21
f 20 25 29
f 20 29 24
f 22 26 27
f 22 27 23
f 23 27 28
f 25 30 31
f 25 31 29
f 26 31 30
f 26 30 28
f 26 28 27

