# https://github.com/mikedh/trimesh
v -0.01566020 0.01808374 0.03586084
v -0.01566037 0.01802354 0.03586084
v -0.01480015 0.01791023 0.03586084
v -0.01566037 0.01808728 0.03585983
v -0.01566037 -0.01808728 0.03586084
v -0.01479499 0.01790315 0.03586084
v -0.01480015 0.01791023 0.02548917
v -0.01566037 0.01808728 0.02620085
v -0.01566037 -0.01808728 0.02548917
v -0.01480015 -0.01791023 0.03586084
v -0.01479499 0.01790315 0.02548917
v -0.01479499 -0.01785357 0.03586084
v -0.01565791 0.01808374 0.02548917
v -0.01566037 0.01655050 0.02548917
v -0.01480015 -0.01791023 0.02548917
v -0.01479499 -0.01790315 0.03580500
v -0.01479532 -0.01790315 0.03586084
v -0.01479499 -0.01409306 0.02548917
v -0.01479549 -0.01790315 0.02548917
v -0.01479499 -0.01790315 0.02620085
f 1 2 5
f 1 5 10
f 1 10 17
f 1 17 12
f 1 12 6
f 1 6 3
f 1 3 4
f 1 4 2
f 2 4 8
f 2 8 14
f 2 14 9
f 2 9 5
f 3 6 11
f 3 11 7
f 3 7 8
f 3 8 4
f 5 9 15
f 5 15 10
f 6 12 16
f 6 16 20
f 6 20 18
f 6 18 11
f 7 13 8
f 7 11 18
f 7 18 19
f 7 19 15
f 7 15 9
f 7 9 14
f 7 14 13
f 8 13 14
f 10 15 20
f 10 20 16
f 10 16 17
f 12 17 16
f 15 19 20
f 18 20 19

