# https://github.com/mikedh/trimesh
v 0.04044000 0.02785567 0.04939909
v 0.04021832 0.02785567 0.05009137
v 0.04044000 0.02560713 0.04939909
v 0.04044000 0.02785567 0.00060091
v 0.04021832 0.02560713 0.05009137
v 0.03979626 0.02785567 0.05031051
v 0.04044000 0.02560713 0.00060091
v 0.04032702 0.02560713 0.00024730
v 0.04021832 0.02785567 -0.00009137
v 0.03959802 0.02560713 0.05041012
v 0.03959802 0.02785567 0.05041012
v 0.04021832 0.02560713 -0.00009137
v 0.03990284 0.02560713 -0.00025572
v 0.03959802 0.02785567 -0.00041012
v 0.03920581 0.02560713 0.05042506
v 0.03879867 0.02785567 0.05044000
v 0.03959802 0.02560713 -0.00041012
v 0.03934223 0.02785567 -0.00042008
v 0.03879867 0.02560713 0.05044000
v 0.02040086 0.02785567 0.05044000
v 0.03879867 0.02560713 -0.00044000
v 0.03879867 0.02785567 -0.00044000
v 0.02040086 0.02560713 0.05044000
v 0.01960151 0.02785567 0.05042008
v 0.02040086 0.02560713 -0.00044000
v 0.02040086 0.02785567 -0.00044000
v 0.01960151 0.02560713 0.05041012
v 0.01893432 0.02785567 0.05010133
v 0.01999372 0.02560713 -0.00042506
v 0.01960151 0.02679985 -0.00041012
v 0.02014507 0.02785567 -0.00043004
v 0.01929669 0.02560713 0.05025572
v 0.01867213 0.02785567 0.04939909
v 0.01898121 0.02560713 0.05009137
v 0.01960151 0.02560713 -0.00041012
v 0.01937556 0.02785567 -0.00030553
v 0.01960151 0.02785567 -0.00040514
v 0.01876166 0.02560713 0.04939909
v 0.01887250 0.02560713 0.04975270
v 0.01866574 0.02785567 0.04565381
v 0.01898121 0.02560713 -0.00009137
v 0.01895137 0.02785567 -0.00008639
v 0.01876166 0.02560713 0.00060091
v 0.01866574 0.02785567 0.00380332
v 0.01886824 0.02560713 0.00026224
v 0.01868919 0.02785567 0.00060091
v 0.01884906 0.02785567 0.00013773
v 0.01867427 0.02785567 0.00140276
v 0.01868279 0.02785567 0.00085989
f 1 2 5
f 1 5 3
f 1 3 7
f 1 7 4
f 1 4 9
f 1 9 14
f 1 14 18
f 1 18 22
f 1 22 26
f 1 26 31
f 1 31 37
f 1 37 36
f 1 36 42
f 1 42 47
f 1 47 46
f 1 46 49
f 1 49 48
f 1 48 44
f 1 44 40
f 1 40 33
f 1 33 28
f 1 28 24
f 1 24 20
f 1 20 16
f 1 16 11
f 1 11 6
f 1 6 2
f 2 6 5
f 3 5 10
f 3 10 15
f 3 15 19
f 3 19 23
f 3 23 27
f 3 27 32
f 3 32 34
f 3 34 39
f 3 39 38
f 3 38 43
f 3 43 45
f 3 45 41
f 3 41 35
f 3 35 29
f 3 29 25
f 3 25 21
f 3 21 17
f 3 17 13
f 3 13 12
f 3 12 8
f 3 8 7
f 4 7 8
f 4 8 9
f 5 6 10
f 6 11 10
f 8 12 9
f 9 12 13
f 9 13 14
f 10 11 15
f 11 16 15
f 13 17 14
f 14 17 18
f 15 16 19
f 16 20 23
f 16 23 19
f 17 21 18
f 18 21 22
f 20 24 23
f 21 25 26
f 21 26 22
f 23 24 27
f 24 28 27
f 25 29 26
f 26 29 30
f 26 30 31
f 27 28 32
f 28 33 34
f 28 34 32
f 29 35 30
f 30 36 37
f 30 37 31
f 30 35 36
f 33 38 39
f 33 39 34
f 33 40 38
f 35 41 36
f 36 41 42
f 38 40 44
f 38 44 43
f 41 45 46
f 41 46 47
f 41 47 42
f 43 44 48
f 43 48 49
f 43 49 46
f 43 46 45

