# https://github.com/mikedh/trimesh
v 0.04001100 -0.02906220 0.02723978
v 0.04000683 -0.02906220 0.02863429
v 0.04001100 -0.04029410 0.02723978
v 0.04001100 -0.02906220 0.00196505
v 0.04000683 -0.04029410 0.02863429
v 0.03304805 -0.02906220 0.02863429
v 0.03959872 -0.04044000 0.02863429
v 0.04001100 -0.04029410 0.00196505
v 0.04000891 -0.02906220 -0.00020071
v 0.01874112 -0.02906220 0.02724262
v 0.01873904 -0.02906332 0.02863429
v 0.03304805 -0.04044000 0.02863429
v 0.03959872 -0.04044000 0.00060184
v 0.04000891 -0.04029410 0.00060184
v 0.04000891 -0.04016380 -0.00001857
v 0.04000891 -0.04001010 -0.00009541
v 0.04000891 -0.03959803 -0.00019501
v 0.04000891 -0.03932962 -0.00020071
v 0.03959872 -0.02906220 -0.00041131
v 0.01873904 -0.02906220 0.00196505
v 0.01873904 -0.04043777 0.02863429
v 0.01874320 -0.04044000 0.02724262
v 0.01873904 -0.04044000 0.00060184
v 0.03959872 -0.04021837 -0.00009256
v 0.03959872 -0.03959803 -0.00039708
v 0.03959872 -0.03879837 -0.00041131
v 0.03946129 -0.02906220 -0.00041700
v 0.01873904 -0.02906220 -0.00014094
v 0.01873904 -0.04044000 0.00196505
v 0.01873904 -0.04021837 -0.00009256
v 0.03879914 -0.03959803 -0.00041131
v 0.03879914 -0.03879837 -0.00043977
v 0.03879914 -0.02906220 -0.00043977
v 0.01874528 -0.02906220 -0.00015517
v 0.01873904 -0.02909227 -0.00015517
v 0.01873904 -0.03959803 -0.00041131
v 0.01873904 -0.03953789 -0.00041415
v 0.01873904 -0.03879837 -0.00043977
v 0.02040273 -0.02906220 -0.00043977
v 0.01873904 -0.02999996 -0.00038854
v 0.01960316 -0.02906220 -0.00043692
v 0.01873904 -0.03160038 -0.00043977
v 0.01960316 -0.02920031 -0.00043977
v 0.01880150 -0.03000107 -0.00040846
v 0.01873904 -0.03080073 -0.00043692
v 0.01880150 -0.03080073 -0.00043977
f 1 2 5
f 1 5 3
f 1 3 8
f 1 8 4
f 1 4 9
f 1 9 19
f 1 19 27
f 1 27 33
f 1 33 39
f 1 39 41
f 1 41 34
f 1 34 28
f 1 28 20
f 1 20 10
f 1 10 6
f 1 6 2
f 2 6 11
f 2 11 21
f 2 21 12
f 2 12 7
f 2 7 5
f 3 5 7
f 3 7 13
f 3 13 8
f 4 8 18
f 4 18 9
f 6 10 11
f 7 12 22
f 7 22 29
f 7 29 23
f 7 23 13
f 8 13 14
f 8 14 15
f 8 15 16
f 8 16 17
f 8 17 18
f 9 18 26
f 9 26 19
f 10 20 11
f 11 20 28
f 11 28 35
f 11 35 40
f 11 40 45
f 11 45 42
f 11 42 38
f 11 38 37
f 11 37 36
f 11 36 30
f 11 30 23
f 11 23 29
f 11 29 21
f 12 21 22
f 13 23 30
f 13 30 24
f 13 24 15
f 13 15 14
f 15 24 16
f 16 24 25
f 16 25 17
f 17 25 18
f 18 25 26
f 19 26 27
f 21 29 22
f 24 30 36
f 24 36 31
f 24 31 25
f 25 31 32
f 25 32 26
f 26 32 27
f 27 32 33
f 28 34 35
f 31 36 37
f 31 37 32
f 32 38 42
f 32 42 46
f 32 46 43
f 32 43 39
f 32 39 33
f 32 37 38
f 34 40 35
f 34 41 40
f 39 43 41
f 40 41 44
f 40 44 45
f 41 43 46
f 41 46 45
f 41 45 44
f 42 45 46

