# https://github.com/mikedh/trimesh
v -0.00163102 0.00799719 0.03105714
v -0.00161496 0.00796746 0.03105714
v -0.00163228 0.00799967 0.03099927
v -0.00163228 0.00440285 0.03105714
v -0.00143695 0.00756741 0.03105714
v -0.00161496 0.00796746 0.02140081
v -0.00163228 0.00799967 0.02136571
v -0.00163228 -0.00465360 0.03105714
v -0.00141440 0.00751291 0.03105714
v -0.00143695 0.00756741 0.02136571
v -0.00160732 0.00795012 0.02136571
v -0.00161569 0.00796870 0.02136571
v -0.00163228 0.00145628 0.02136571
v -0.00109774 -0.00465360 0.03105714
v -0.00163228 -0.00465360 0.02138848
v -0.00112192 0.00679949 0.03105714
v -0.00112192 0.00679949 0.02136571
v -0.00163175 -0.00465360 0.02136571
v -0.00109774 -0.00465360 0.02136571
v -0.00109774 0.00673632 0.03105714
v -0.00109879 0.00673880 0.02136571
v -0.00109774 0.00673632 0.02140081
v -0.00109774 0.00106985 0.02136571
f 1 2 3
f 1 3 4
f 1 4 8
f 1 8 14
f 1 14 20
f 1 20 16
f 1 16 9
f 1 9 5
f 1 5 2
f 2 5 10
f 2 10 6
f 2 6 7
f 2 7 3
f 3 7 13
f 3 13 15
f 3 15 8
f 3 8 4
f 5 9 10
f 6 11 12
f 6 12 7
f 6 10 11
f 7 12 11
f 7 11 10
f 7 10 17
f 7 17 21
f 7 21 23
f 7 23 19
f 7 19 18
f 7 18 13
f 8 15 18
f 8 18 19
f 8 19 14
f 9 16 17
f 9 17 10
f 13 18 15
f 14 19 23
f 14 23 22
f 14 22 20
f 16 20 22
f 16 22 17
f 17 22 21
f 21 22 23

