# https://github.com/mikedh/trimesh
v -0.00463869 0.01155269 0.03519451
v -0.00674559 0.01155269 0.03519451
v -0.00463869 -0.01236533 0.03519451
v -0.00463869 0.01155269 0.03043467
v -0.00674559 0.01155269 0.03043467
v -0.00674559 -0.01430956 0.03519451
v -0.00483917 -0.01257292 0.03519451
v -0.00475069 -0.01248178 0.03377625
v -0.00463869 -0.01236533 0.03043467
v -0.00674559 -0.01430956 0.03043467
v -0.00663256 -0.01422602 0.03519451
v -0.00493384 -0.01266912 0.03519451
v -0.00493384 -0.01266912 0.03043467
v -0.00481978 -0.01255267 0.03043467
v -0.00663256 -0.01422602 0.03043467
v -0.00614498 -0.01382603 0.03519451
v -0.00505099 -0.01278304 0.03043467
v -0.00564542 -0.01336023 0.03519451
v -0.00614498 -0.01382603 0.03043467
v -0.00584240 -0.01354756 0.03519451
v -0.00555158 -0.01326909 0.03377625
v -0.00562480 -0.01333998 0.03043467
v -0.00574505 -0.01345643 0.03519451
v -0.00574505 -0.01345643 0.03043467
v -0.00586220 -0.01356529 0.03043467
f 1 2 6
f 1 6 11
f 1 11 16
f 1 16 20
f 1 20 23
f 1 23 18
f 1 18 12
f 1 12 7
f 1 7 3
f 1 3 9
f 1 9 4
f 1 4 5
f 1 5 2
f 2 5 10
f 2 10 6
f 3 7 8
f 3 8 9
f 4 9 14
f 4 14 13
f 4 13 17
f 4 17 22
f 4 22 24
f 4 24 25
f 4 25 19
f 4 19 15
f 4 15 10
f 4 10 5
f 6 10 15
f 6 15 11
f 7 12 13
f 7 13 14
f 7 14 8
f 8 14 9
f 11 15 19
f 11 19 16
f 12 17 13
f 12 18 17
f 16 19 20
f 17 18 21
f 17 21 22
f 18 23 24
f 18 24 22
f 18 22 21
f 19 25 20
f 20 25 24
f 20 24 23

