# https://github.com/mikedh/trimesh
v -0.01679660 -0.01839606 0.00718252
v -0.01679660 0.01535173 0.00718252
v -0.01566059 -0.01808554 0.00718252
v -0.01679660 -0.01839606 0.04779735
v -0.01566059 0.01535173 0.00718252
v -0.01679660 0.01535173 0.05043556
v -0.01566059 -0.01808554 0.04023421
v -0.01566070 -0.01808554 0.04829704
v -0.01566070 -0.01808224 0.04939806
v -0.01679660 -0.01838615 0.04939806
v -0.01566059 0.01535173 0.04023421
v -0.01679660 -0.01679060 0.05043556
v -0.01566070 0.01535173 0.05043556
v -0.01566070 -0.01645695 0.05043556
v -0.01566070 -0.01719362 0.05041015
v -0.01566070 -0.01724977 0.05038898
v -0.01566070 -0.01783778 0.05009255
v -0.01566070 -0.01786421 0.05003750
v -0.01679660 -0.01800626 0.05014337
v -0.01679660 -0.01719362 0.05043132
v -0.01639973 -0.01719362 0.05043132
v -0.01679660 -0.01767261 0.05028735
f 1 2 5
f 1 5 3
f 1 3 7
f 1 7 4
f 1 4 10
f 1 10 19
f 1 19 22
f 1 22 20
f 1 20 12
f 1 12 6
f 1 6 2
f 2 6 13
f 2 13 11
f 2 11 5
f 3 5 11
f 3 11 7
f 4 7 8
f 4 8 9
f 4 9 10
f 6 12 14
f 6 14 13
f 7 11 13
f 7 13 14
f 7 14 15
f 7 15 16
f 7 16 17
f 7 17 18
f 7 18 9
f 7 9 8
f 9 18 10
f 10 18 17
f 10 17 19
f 12 20 21
f 12 21 14
f 14 21 15
f 15 21 22
f 15 22 16
f 16 22 19
f 16 19 17
f 20 22 21

