# https://github.com/mikedh/trimesh
v -0.00463890 0.01155118 0.03519451
v -0.00463869 0.01184577 0.03519340
v -0.00463869 0.01236657 0.03519228
v -0.00463931 0.01236657 0.03519340
v -0.00482781 0.01256120 0.03519340
v -0.00674539 0.01155118 0.03519451
v -0.00463890 -0.01236316 0.03519451
v -0.00463869 0.01155118 0.03519340
v -0.00463869 0.01236657 0.03043385
v -0.00674559 0.01256120 0.03519340
v -0.00482781 0.01256120 0.02379080
v -0.00674539 -0.01430956 0.03519451
v -0.00475109 -0.01248153 0.03377547
v -0.00463869 -0.01236580 0.03043385
v -0.00483936 -0.01257096 0.03519451
v -0.00463869 0.01236394 0.02379192
v -0.00674559 0.01256120 0.02379080
v -0.00674559 0.01155118 0.03519340
v -0.00483729 0.01256120 0.02378857
v -0.00674559 -0.01430956 0.03043385
v -0.00674539 -0.01430956 0.03043385
v -0.00663216 -0.01422539 0.03519451
v -0.00493402 -0.01266828 0.03519451
v -0.00481997 -0.01255254 0.03043385
v -0.00463869 -0.01236580 0.02378857
v -0.00463869 0.01233500 0.02378857
v -0.00661999 0.01256120 0.02378969
v -0.00674559 0.00185077 0.02378969
v -0.00627888 0.01256120 0.02378857
v -0.00674559 -0.01430956 0.02380085
v -0.00663237 -0.01422539 0.02378857
v -0.00663216 -0.01422539 0.03043385
v -0.00614462 -0.01382559 0.03519451
v -0.00532814 -0.01305229 0.02378857
v -0.00493402 -0.01266828 0.02378857
v -0.00564574 -0.01336003 0.03519451
v -0.00574494 -0.01345735 0.03043385
v -0.00533391 -0.01305755 0.03043385
v -0.00674559 -0.01286291 0.02378857
v -0.00674435 -0.01430693 0.02378857
v -0.00615184 -0.01383085 0.02378857
v -0.00614462 -0.01382559 0.03043385
v -0.00584228 -0.01354678 0.03519451
v -0.00574494 -0.01345735 0.02378857
v -0.00574473 -0.01345472 0.03519451
v -0.00613905 -0.01382033 0.02378857
f 1 2 3
f 1 3 4
f 1 4 5
f 1 5 10
f 1 10 6
f 1 6 12
f 1 12 22
f 1 22 33
f 1 33 43
f 1 43 45
f 1 45 36
f 1 36 23
f 1 23 15
f 1 15 7
f 1 7 8
f 1 8 2
f 2 8 14
f 2 14 25
f 2 25 26
f 2 26 16
f 2 16 9
f 2 9 3
f 3 9 11
f 3 11 5
f 3 5 4
f 5 11 19
f 5 19 29
f 5 29 27
f 5 27 17
f 5 17 10
f 6 10 18
f 6 18 12
f 7 13 14
f 7 14 8
f 7 15 13
f 9 16 11
f 10 17 28
f 10 28 39
f 10 39 30
f 10 30 20
f 10 20 18
f 11 16 19
f 12 20 30
f 12 30 21
f 12 21 32
f 12 32 22
f 12 18 20
f 13 15 23
f 13 23 24
f 13 24 14
f 14 24 25
f 16 26 19
f 17 27 28
f 19 26 25
f 19 25 35
f 19 35 34
f 19 34 44
f 19 44 46
f 19 46 41
f 19 41 31
f 19 31 40
f 19 40 39
f 19 39 29
f 21 30 31
f 21 31 32
f 22 32 42
f 22 42 33
f 23 34 35
f 23 35 24
f 23 36 37
f 23 37 38
f 23 38 34
f 24 35 25
f 27 29 39
f 27 39 28
f 30 39 40
f 30 40 31
f 31 41 42
f 31 42 32
f 33 42 44
f 33 44 37
f 33 37 43
f 34 38 37
f 34 37 44
f 36 45 37
f 37 45 43
f 41 46 42
f 42 46 44

