# https://github.com/mikedh/trimesh
v -0.01812399 0.01957274 0.00990113
v -0.01773275 0.01905936 0.01071700
v -0.01773053 0.01905936 0.00990113
v -0.01812399 0.01957274 0.00228935
v -0.01812844 0.01957274 0.01071700
v -0.01773053 0.00742572 0.01071700
v -0.01773053 0.01905936 0.00228935
v -0.04044000 0.01957274 0.00228935
v -0.04043778 0.01957274 0.01071700
v -0.01773053 0.00450182 0.01071700
v -0.01773053 0.00450182 0.00228935
v -0.04044000 0.01957274 0.00990113
v -0.04044000 0.00450182 0.00228935
v -0.04044000 0.00742572 0.01071700
v -0.04044000 0.00450182 0.01071700
f 1 2 3
f 1 3 7
f 1 7 4
f 1 4 8
f 1 8 12
f 1 12 9
f 1 9 5
f 1 5 2
f 2 6 3
f 2 5 9
f 2 9 14
f 2 14 15
f 2 15 10
f 2 10 6
f 3 6 10
f 3 10 11
f 3 11 7
f 4 7 11
f 4 11 13
f 4 13 8
f 8 13 15
f 8 15 14
f 8 14 12
f 9 12 14
f 10 15 13
f 10 13 11

