# https://github.com/mikedh/trimesh
v -0.01387713 0.03076075 0.00060115
v -0.01201061 0.03087335 0.00024540
v -0.01201061 0.03076075 0.00060115
v -0.01387713 0.03076075 0.02378857
v -0.01387713 0.03098074 -0.00009137
v -0.01201061 0.03098074 -0.00009137
v -0.01201061 0.03076075 0.02378857
v -0.01387713 0.03837771 0.02378857
v -0.01387713 0.03150574 -0.00036411
v -0.01201061 0.03160045 -0.00041154
v -0.01201061 0.03611291 0.02378857
v -0.01387713 0.03837771 -0.00044000
v -0.01201061 0.03837771 0.02378620
v -0.01387713 0.03160045 -0.00041154
v -0.01201061 0.03240062 -0.00044000
v -0.01201061 0.03837771 -0.00044000
v -0.01387713 0.03240062 -0.00044000
f 1 2 3
f 1 3 7
f 1 7 4
f 1 4 8
f 1 8 12
f 1 12 17
f 1 17 14
f 1 14 9
f 1 9 5
f 1 5 2
f 2 5 6
f 2 6 10
f 2 10 15
f 2 15 16
f 2 16 13
f 2 13 11
f 2 11 7
f 2 7 3
f 4 7 11
f 4 11 8
f 5 9 6
f 6 9 10
f 8 11 13
f 8 13 16
f 8 16 12
f 9 14 10
f 10 14 17
f 10 17 15
f 12 16 15
f 12 15 17

