# https://github.com/mikedh/trimesh
v -0.02836931 0.04044000 0.01979994
v -0.02836931 0.04040869 0.01980146
v -0.02836931 0.04044000 0.01894286
v -0.02840240 0.04044000 0.01980146
v -0.02836931 0.03970265 0.01980146
v -0.02836931 0.03012111 0.01894286
v -0.03959992 0.04044000 0.01894286
v -0.03880120 0.04044000 0.01980146
v -0.02836931 0.03012111 0.01980070
v -0.04044000 0.03012313 0.01980146
v -0.04044000 0.03012111 0.01894286
v -0.04021905 0.04021981 0.01894286
v -0.03959992 0.04044000 0.01979994
v -0.03960110 0.04043899 0.01980146
v -0.04044000 0.03012111 0.01979994
v -0.04044000 0.03959962 0.01980146
v -0.04044000 0.03959962 0.01894286
v -0.04023560 0.04017536 0.01894286
v -0.04021905 0.04021981 0.01980146
f 1 2 5
f 1 5 9
f 1 9 6
f 1 6 3
f 1 3 7
f 1 7 13
f 1 13 8
f 1 8 4
f 1 4 2
f 2 4 8
f 2 8 14
f 2 14 19
f 2 19 16
f 2 16 10
f 2 10 5
f 3 6 11
f 3 11 17
f 3 17 18
f 3 18 12
f 3 12 7
f 5 10 9
f 6 9 15
f 6 15 11
f 7 12 19
f 7 19 13
f 8 13 14
f 9 10 15
f 10 16 17
f 10 17 11
f 10 11 15
f 12 18 19
f 13 19 14
f 16 19 18
f 16 18 17

