# https://github.com/mikedh/trimesh
v -0.04044000 0.03012111 0.03045242
v -0.04044000 0.03012111 0.04244938
v -0.04044000 0.03959861 0.03045242
v -0.01726986 0.03012111 0.03045242
v -0.04044000 0.03959861 0.04244938
v -0.01727221 0.03012111 0.04244938
v -0.04037172 0.03979154 0.03124870
v -0.04021633 0.04021981 0.03045242
v -0.01639165 0.03055847 0.03045242
v -0.01638929 0.03055645 0.03100089
v -0.01638694 0.03055645 0.03180069
v -0.01726986 0.03012111 0.03875458
v -0.04021868 0.04021981 0.04244938
v -0.01638929 0.03055645 0.03875458
v -0.01639400 0.03056453 0.04244938
v -0.04021868 0.04021981 0.03598054
v -0.03959711 0.04044000 0.03045242
v -0.01638929 0.03360384 0.03045242
v -0.01638694 0.03355131 0.03124870
v -0.01638694 0.03055645 0.03261340
v -0.03959946 0.04044000 0.04244938
v -0.01639165 0.03358263 0.04244938
v -0.01639165 0.03056554 0.04221097
v -0.01638694 0.03743100 0.03284359
v -0.01638929 0.04044000 0.03875458
v -0.03959946 0.04044000 0.03598054
v -0.01638929 0.04044000 0.03045242
v -0.01638694 0.04044000 0.03124870
v -0.01639165 0.04044000 0.04244938
v -0.01638694 0.04044000 0.03284359
f 1 2 5
f 1 5 3
f 1 3 8
f 1 8 17
f 1 17 27
f 1 27 18
f 1 18 9
f 1 9 4
f 1 4 12
f 1 12 6
f 1 6 2
f 2 6 15
f 2 15 22
f 2 22 29
f 2 29 21
f 2 21 13
f 2 13 5
f 3 5 7
f 3 7 8
f 4 9 10
f 4 10 11
f 4 11 20
f 4 20 12
f 5 13 7
f 6 12 14
f 6 14 15
f 7 13 16
f 7 16 8
f 8 16 26
f 8 26 17
f 9 18 10
f 10 18 19
f 10 19 11
f 11 19 28
f 11 28 30
f 11 30 24
f 11 24 20
f 12 20 14
f 13 21 26
f 13 26 16
f 14 22 23
f 14 23 15
f 14 20 24
f 14 24 30
f 14 30 25
f 14 25 29
f 14 29 22
f 15 23 22
f 17 26 21
f 17 21 29
f 17 29 25
f 17 25 30
f 17 30 28
f 17 28 27
f 18 27 28
f 18 28 19

