# https://github.com/mikedh/trimesh
v 0.02040183 0.00235809 -0.00043973
v 0.01876152 0.00235792 0.00235325
v 0.01960183 0.00235809 -0.00041296
v 0.02040183 0.00414206 -0.00043973
v 0.03879756 0.00235809 -0.00043973
v 0.01876152 0.00415792 0.00235325
v 0.01876364 0.00235809 0.00060023
v 0.01898221 0.00235809 -0.00009180
v 0.04044000 0.00235792 0.00235325
v 0.01876152 0.00235792 0.01909010
v 0.01960183 0.00414206 -0.00041296
v 0.03879756 0.00414206 -0.00043973
v 0.03959756 0.00235809 -0.00041296
v 0.01876152 0.00415792 0.01909010
v 0.04044000 0.00415792 0.00235325
v 0.01898221 0.00414206 -0.00009180
v 0.01883366 0.00414206 0.00037848
v 0.01876364 0.00414206 0.00060023
v 0.04044000 0.00235809 0.00060023
v 0.04044000 0.00235792 0.01909010
v 0.04021719 0.00235809 -0.00009180
v 0.03959756 0.00414206 -0.00041296
v 0.04044000 0.00415792 0.01909010
v 0.04044000 0.00414206 0.00060023
v 0.04021719 0.00414206 -0.00009180
f 1 2 3
f 1 3 11
f 1 11 4
f 1 4 12
f 1 12 5
f 1 5 9
f 1 9 2
f 2 6 18
f 2 18 7
f 2 7 8
f 2 8 3
f 2 9 20
f 2 20 10
f 2 10 14
f 2 14 6
f 3 8 16
f 3 16 11
f 4 11 6
f 4 6 15
f 4 15 12
f 5 12 22
f 5 22 13
f 5 13 9
f 6 14 23
f 6 23 15
f 6 11 16
f 6 16 17
f 6 17 18
f 7 18 17
f 7 17 8
f 8 17 16
f 9 19 24
f 9 24 15
f 9 15 23
f 9 23 20
f 9 13 21
f 9 21 19
f 10 20 23
f 10 23 14
f 12 15 22
f 13 22 25
f 13 25 21
f 15 24 25
f 15 25 22
f 19 21 25
f 19 25 24

