# https://github.com/mikedh/trimesh
v -0.00307240 0.00539579 0.02378857
v -0.00307240 0.01042161 0.02378857
v -0.00266728 0.00539579 0.02378857
v -0.00307240 0.00539579 0.05044000
v -0.00307240 0.01042161 0.04939648
v -0.00278634 0.00999951 0.02378857
v -0.00266728 0.00692479 0.02378857
v -0.00266728 0.00539579 0.05043739
v -0.00280006 0.00539579 0.05044000
v -0.00307240 0.00760073 0.05044000
v -0.00307240 0.01023515 0.04994955
v -0.00278634 0.00999951 0.04939648
v -0.00266732 0.00981207 0.02378857
v -0.00266728 0.00692479 0.05039826
v -0.00266728 0.00600040 0.05043739
v -0.00280006 0.00760073 0.05044000
v -0.00307240 0.00839967 0.05041391
v -0.00307240 0.00999951 0.05006172
v -0.00299308 0.00999951 0.05002259
v -0.00266732 0.00981207 0.04939648
v -0.00266732 0.00839967 0.05033826
v -0.00266728 0.00680032 0.05042956
v -0.00266732 0.00919369 0.05011912
v -0.00266732 0.00761106 0.05039565
v -0.00280006 0.00839967 0.05040087
v -0.00307240 0.00924780 0.05025217
v -0.00274477 0.00923501 0.05015042
f 1 2 6
f 1 6 13
f 1 13 7
f 1 7 3
f 1 3 8
f 1 8 9
f 1 9 4
f 1 4 10
f 1 10 17
f 1 17 26
f 1 26 18
f 1 18 11
f 1 11 5
f 1 5 2
f 2 5 12
f 2 12 6
f 3 7 14
f 3 14 22
f 3 22 15
f 3 15 8
f 4 9 16
f 4 16 10
f 5 11 12
f 6 12 20
f 6 20 13
f 7 13 20
f 7 20 14
f 8 15 16
f 8 16 9
f 10 16 17
f 11 18 19
f 11 19 20
f 11 20 12
f 14 21 22
f 14 20 23
f 14 23 21
f 15 22 16
f 16 22 24
f 16 24 25
f 16 25 17
f 17 25 26
f 18 26 25
f 18 25 27
f 18 27 19
f 19 27 23
f 19 23 20
f 21 25 24
f 21 24 22
f 21 23 27
f 21 27 25

