# https://github.com/mikedh/trimesh
v -0.01871575 0.02120349 0.00939718
v -0.01871575 0.02120349 0.00139795
v -0.01876040 0.02209152 0.01109284
v -0.01876253 0.02209152 0.02378773
v -0.01871788 0.02120349 0.01979405
v -0.01876040 0.02209152 0.00060349
v -0.01872213 0.02120349 0.00059874
v -0.03773085 0.02209152 0.02378773
v -0.01872851 0.02121166 0.02378773
v -0.01872851 0.02120349 0.02378773
v -0.01898156 0.02209152 -0.00009138
v -0.01896242 0.02120349 -0.00009850
v -0.04043362 0.02209152 0.02309050
v -0.04043362 0.02209013 0.02378773
v -0.04043362 0.02120349 0.02378773
v -0.01960037 0.02209152 -0.00041154
v -0.01960888 0.02120349 -0.00041865
v -0.04044000 0.02209152 0.01291419
v -0.04044000 0.02120349 0.01291419
v -0.02040206 0.02209152 -0.00044000
v -0.02040418 0.02120349 -0.00044000
v -0.02040206 0.02199981 -0.00044000
v -0.04044000 0.02209152 0.00060349
v -0.04044000 0.02120349 0.00060349
v -0.03879835 0.02209152 -0.00044000
v -0.03799879 0.02120349 -0.00044000
v -0.04024436 0.02209152 -0.00001312
v -0.04021885 0.02120349 -0.00008901
v -0.03879835 0.02199981 -0.00044000
v -0.03960004 0.02120349 -0.00041154
v -0.03959791 0.02209152 -0.00041154
v -0.03880260 0.02120349 -0.00043763
v -0.04021885 0.02209152 -0.00009138
v -0.04021885 0.02199981 -0.00009138
f 1 2 6
f 1 6 3
f 1 3 4
f 1 4 5
f 1 5 10
f 1 10 15
f 1 15 19
f 1 19 24
f 1 24 28
f 1 28 30
f 1 30 32
f 1 32 26
f 1 26 21
f 1 21 17
f 1 17 12
f 1 12 7
f 1 7 2
f 2 7 6
f 3 6 11
f 3 11 16
f 3 16 20
f 3 20 25
f 3 25 31
f 3 31 33
f 3 33 27
f 3 27 23
f 3 23 18
f 3 18 13
f 3 13 8
f 3 8 4
f 4 8 14
f 4 14 15
f 4 15 10
f 4 10 9
f 4 9 5
f 5 9 10
f 6 7 11
f 7 12 11
f 8 13 14
f 11 12 16
f 12 17 16
f 13 18 14
f 14 18 19
f 14 19 15
f 16 17 20
f 17 21 22
f 17 22 20
f 18 23 24
f 18 24 19
f 20 22 21
f 20 21 26
f 20 26 29
f 20 29 25
f 23 27 24
f 24 27 28
f 25 29 30
f 25 30 31
f 26 32 29
f 27 33 34
f 27 34 28
f 28 34 30
f 29 32 30
f 30 33 31
f 30 34 33

