# https://github.com/mikedh/trimesh
v 0.04044000 0.03926329 0.02863429
v 0.01867172 0.03926329 0.02863429
v 0.04044000 0.03798514 0.02863429
v 0.04044000 0.03926329 0.00060162
v 0.01867172 0.03798514 0.02863429
v 0.01867172 0.03926329 -0.00042292
v 0.04044000 0.03798514 0.00060162
v 0.04031215 0.03926329 0.00020034
v 0.01867172 0.03798514 -0.00044000
v 0.03879928 0.03926329 -0.00042292
v 0.01867172 0.03879991 -0.00044000
v 0.04021840 0.03798514 -0.00009279
v 0.04021840 0.03926329 -0.00009279
v 0.03879928 0.03798514 -0.00044000
v 0.03959834 0.03926329 -0.00040300
v 0.03879928 0.03879991 -0.00044000
v 0.03961112 0.03798514 -0.00040585
v 0.03959834 0.03879991 -0.00041154
v 0.03959834 0.03798514 -0.00041154
f 1 2 5
f 1 5 3
f 1 3 7
f 1 7 4
f 1 4 8
f 1 8 13
f 1 13 15
f 1 15 10
f 1 10 6
f 1 6 2
f 2 6 11
f 2 11 9
f 2 9 5
f 3 5 9
f 3 9 14
f 3 14 19
f 3 19 17
f 3 17 12
f 3 12 7
f 4 7 8
f 6 10 16
f 6 16 11
f 7 12 8
f 8 12 13
f 9 11 16
f 9 16 14
f 10 15 16
f 12 17 13
f 13 17 18
f 13 18 15
f 14 16 18
f 14 18 19
f 15 18 16
f 17 19 18

