# https://github.com/mikedh/trimesh
v 0.01876152 -0.01870114 0.02234702
v 0.04044000 -0.01870114 0.02234702
v 0.01876152 -0.01870114 0.02502184
v 0.01876152 0.00452715 0.02234702
v 0.04044000 -0.01870114 0.02766956
v 0.04044000 0.00452715 0.02234702
v 0.01876364 -0.01870114 0.02766956
v 0.01876152 -0.00025902 0.02766956
v 0.01876152 0.00452715 0.02766956
v 0.04044000 0.00452715 0.02766956
f 1 2 5
f 1 5 7
f 1 7 3
f 1 3 8
f 1 8 9
f 1 9 4
f 1 4 6
f 1 6 2
f 2 6 10
f 2 10 5
f 3 7 8
f 4 9 10
f 4 10 6
f 5 10 9
f 5 9 8
f 5 8 7

