# https://github.com/mikedh/trimesh
v -0.01249986 0.01262701 0.02378857
v -0.01134614 0.01262701 0.02378857
v -0.01314369 0.01262701 0.02379081
v -0.01318014 0.01609576 0.02379081
v -0.01241745 0.01609576 0.02378857
v -0.01134614 0.01609576 0.02378857
v -0.01134614 0.01262701 0.04663265
v -0.01318014 0.01262701 0.02379304
v -0.01318014 0.01609576 0.04663265
v -0.01134614 0.01609576 0.04663265
v -0.01318014 0.01262701 0.04663265
f 1 2 7
f 1 7 11
f 1 11 8
f 1 8 3
f 1 3 4
f 1 4 5
f 1 5 6
f 1 6 2
f 2 6 10
f 2 10 7
f 3 8 4
f 4 8 11
f 4 11 9
f 4 9 10
f 4 10 6
f 4 6 5
f 7 10 9
f 7 9 11

