# https://github.com/mikedh/trimesh
v 0.01876000 -0.01781694 0.02767142
v 0.01876000 -0.01781694 0.02907048
v 0.01876000 -0.00888835 0.02767142
v 0.04043576 -0.01781694 0.02767142
v 0.01876213 -0.01054280 0.04527173
v 0.01876000 -0.00888835 0.02907048
v 0.01876425 -0.01781694 0.04527173
v 0.04043576 -0.00888835 0.02767142
v 0.04044000 -0.01781694 0.02907048
v 0.01876213 -0.00888835 0.04527173
v 0.04044000 -0.01781694 0.04527173
v 0.04044000 -0.00888835 0.02907048
v 0.04044000 -0.00888835 0.04527173
f 1 2 6
f 1 6 3
f 1 3 8
f 1 8 4
f 1 4 9
f 1 9 11
f 1 11 7
f 1 7 2
f 2 5 10
f 2 10 6
f 2 7 5
f 3 6 10
f 3 10 13
f 3 13 12
f 3 12 8
f 4 8 12
f 4 12 9
f 5 7 11
f 5 11 13
f 5 13 10
f 9 12 13
f 9 13 11

