# https://github.com/mikedh/trimesh
v -0.01682611 -0.00000642 0.04900583
v -0.03879886 -0.00000642 0.05035771
v -0.03879193 -0.01959390 0.05035771
v -0.01682611 -0.01675241 0.04900583
v -0.01682611 -0.00000642 0.00099417
v -0.03959863 -0.00000642 0.05038753
v -0.03959863 -0.01959390 0.05038753
v -0.03799216 -0.01959390 0.05030801
v -0.01682611 -0.01696140 0.04900085
v -0.01682611 -0.01639962 0.00099417
v -0.03839205 -0.00000642 -0.00033286
v -0.04021810 -0.00000642 0.05008932
v -0.04021348 -0.01959390 0.05009429
v -0.03639263 -0.01959390 0.05020363
v -0.02519591 -0.01959390 0.04946805
v -0.02119477 -0.01959390 0.04920463
v -0.02039500 -0.01959390 0.04914996
v -0.01959524 -0.01959390 0.04909032
v -0.01902662 -0.01959390 0.04902570
v -0.01863136 -0.01959390 0.04884181
v -0.01832162 -0.01959390 0.04843923
v -0.01682611 -0.01720682 0.04872253
v -0.03479772 -0.01959390 0.05009926
v -0.01682611 -0.01696140 0.00099915
v -0.03799910 -0.01959390 -0.00030801
v -0.03879886 -0.01959390 -0.00035771
v -0.03879886 -0.00000642 -0.00035771
v -0.04021810 -0.01959390 0.05008932
v -0.04044000 -0.00000642 0.04939847
v -0.01831931 -0.01959390 0.04843426
v -0.01682611 -0.01729693 0.04859827
v -0.01682611 -0.01729693 0.00140173
v -0.01832393 -0.01959390 0.00155580
v -0.01863367 -0.01959390 0.00115819
v -0.01902893 -0.01959390 0.00097430
v -0.01960217 -0.01959390 0.00090968
v -0.02040194 -0.01959390 0.00085004
v -0.02120170 -0.01959390 0.00079537
v -0.02360794 -0.01959390 0.00063632
v -0.03479772 -0.01959390 -0.00009926
v -0.03959863 -0.01959390 -0.00038753
v -0.03919181 -0.00000642 -0.00037262
v -0.04044000 -0.01959390 0.04939847
v -0.04044000 -0.00000642 0.00060153
v -0.01823610 -0.01959390 0.04779808
v -0.01682611 -0.01755961 0.04779808
v -0.01682611 -0.01738321 0.00165023
v -0.01682611 -0.01755961 0.00220192
v -0.01823610 -0.01959390 0.00219695
v -0.03959863 -0.00000642 -0.00038753
v -0.04021810 -0.01959390 -0.00008932
v -0.04044000 -0.01959390 0.00060153
v -0.04032674 -0.00000642 0.00024865
v -0.04022041 -0.01959390 -0.00008435
v -0.01823147 -0.01959390 0.04699789
v -0.01682611 -0.01756344 0.04702770
v -0.01823147 -0.01959390 0.00299715
v -0.01682611 -0.01756344 0.00300211
v -0.04021810 -0.00000642 -0.00008932
f 1 2 3
f 1 3 4
f 1 4 9
f 1 9 22
f 1 22 31
f 1 31 46
f 1 46 56
f 1 56 58
f 1 58 48
f 1 48 47
f 1 47 32
f 1 32 24
f 1 24 10
f 1 10 5
f 1 5 11
f 1 11 27
f 1 27 42
f 1 42 50
f 1 50 59
f 1 59 53
f 1 53 44
f 1 44 29
f 1 29 12
f 1 12 6
f 1 6 2
f 2 6 3
f 3 6 7
f 3 7 13
f 3 13 28
f 3 28 43
f 3 43 52
f 3 52 54
f 3 54 51
f 3 51 41
f 3 41 26
f 3 26 25
f 3 25 40
f 3 40 39
f 3 39 38
f 3 38 37
f 3 37 36
f 3 36 35
f 3 35 34
f 3 34 33
f 3 33 49
f 3 49 57
f 3 57 55
f 3 55 45
f 3 45 30
f 3 30 21
f 3 21 20
f 3 20 19
f 3 19 18
f 3 18 17
f 3 17 16
f 3 16 15
f 3 15 23
f 3 23 14
f 3 14 8
f 3 8 4
f 4 8 9
f 5 10 11
f 6 12 13
f 6 13 7
f 8 14 9
f 9 15 16
f 9 16 17
f 9 17 18
f 9 18 19
f 9 19 20
f 9 20 21
f 9 21 22
f 9 14 23
f 9 23 15
f 10 24 25
f 10 25 26
f 10 26 11
f 11 26 27
f 12 28 13
f 12 29 43
f 12 43 28
f 21 30 31
f 21 31 22
f 24 32 33
f 24 33 34
f 24 34 35
f 24 35 36
f 24 36 37
f 24 37 38
f 24 38 39
f 24 39 40
f 24 40 25
f 26 41 42
f 26 42 27
f 29 44 52
f 29 52 43
f 30 45 46
f 30 46 31
f 32 47 33
f 33 47 48
f 33 48 49
f 41 50 42
f 41 51 59
f 41 59 50
f 44 53 54
f 44 54 52
f 45 55 46
f 46 55 56
f 48 57 49
f 48 58 57
f 51 54 59
f 53 59 54
f 55 57 58
f 55 58 56

