# https://github.com/mikedh/trimesh
v -0.01840685 -0.01998843 0.04078540
v -0.04044000 -0.01998843 0.04078540
v -0.01869801 -0.02111607 0.04078540
v -0.01840685 -0.01998843 0.01740084
v -0.04044000 -0.02111607 0.04078540
v -0.04044000 -0.01998843 0.01500029
v -0.01869801 -0.02111607 0.01740084
v -0.01840901 -0.01998843 0.01499776
v -0.04044000 -0.02111607 0.01499776
v -0.01853410 -0.01998843 0.01499776
v -0.04044000 -0.01998975 0.01499776
v -0.01870448 -0.02111607 0.01500029
v -0.01870448 -0.02111386 0.01499776
v -0.03985984 -0.02111607 0.01499776
f 1 2 5
f 1 5 3
f 1 3 7
f 1 7 4
f 1 4 8
f 1 8 10
f 1 10 6
f 1 6 2
f 2 6 11
f 2 11 9
f 2 9 5
f 3 5 9
f 3 9 14
f 3 14 12
f 3 12 7
f 4 7 8
f 6 10 11
f 7 12 8
f 8 12 13
f 8 13 14
f 8 14 9
f 8 9 11
f 8 11 10
f 12 14 13

