# https://github.com/mikedh/trimesh
v 0.02634040 -0.02823546 0.02737787
v 0.01944223 -0.02823546 0.02737787
v 0.02634040 -0.02906220 0.02737787
v 0.02634040 -0.02823546 -0.00044000
v 0.01944223 -0.02906220 0.02737787
v 0.01944223 -0.02823546 -0.00035014
v 0.02634040 -0.02906220 -0.00044000
v 0.02040048 -0.02823546 -0.00044000
v 0.01944223 -0.02906220 -0.00037192
v 0.01946857 -0.02823546 -0.00036376
v 0.01944223 -0.02840000 -0.00036103
v 0.02040048 -0.02906220 -0.00044000
v 0.01960025 -0.02906220 -0.00043727
v 0.01960025 -0.02840000 -0.00043183
v 0.01960025 -0.02823546 -0.00042911
f 1 2 5
f 1 5 3
f 1 3 7
f 1 7 4
f 1 4 8
f 1 8 15
f 1 15 10
f 1 10 6
f 1 6 2
f 2 6 11
f 2 11 9
f 2 9 5
f 3 5 9
f 3 9 13
f 3 13 12
f 3 12 7
f 4 7 12
f 4 12 8
f 6 10 11
f 8 13 14
f 8 14 15
f 8 12 13
f 9 11 14
f 9 14 13
f 10 15 11
f 11 15 14

