# https://github.com/mikedh/trimesh
v -0.01679660 -0.01839606 0.00220461
v -0.01679660 -0.01838886 0.00060091
v -0.01345360 -0.01763976 0.00060091
v -0.01679660 -0.01839606 0.04781034
v -0.01679660 -0.01801071 -0.00014117
v -0.01479879 -0.01775501 -0.00004655
v -0.01399967 -0.01767578 0.00004808
v -0.01350188 -0.01762536 0.00013773
v -0.01305237 -0.01752452 0.00060091
v -0.01345360 -0.01763976 0.04939909
v -0.01679660 -0.01839246 0.04861218
v -0.01679660 -0.01719679 -0.00043502
v -0.01639870 -0.01719679 -0.00043004
v -0.01559958 -0.01719679 -0.00041012
v -0.01479879 -0.01719679 -0.00036529
v -0.01399967 -0.01719679 -0.00027066
v -0.01239975 -0.01705633 -0.00009137
v -0.01111949 -0.01682944 0.00013275
v -0.01239975 -0.01731203 0.00060091
v -0.01159896 -0.01691588 0.00001322
v -0.01305237 -0.01752452 0.04939909
v -0.01350188 -0.01762536 0.04986227
v -0.01679660 -0.01838886 0.04939909
v -0.01319888 -0.01639727 -0.00043502
v -0.01679660 -0.01639727 -0.00044000
v -0.01399967 -0.01639727 -0.00044000
v -0.01239975 -0.01639727 -0.00041012
v -0.01159896 -0.01639727 -0.00030553
v -0.00999905 -0.01634325 0.00060091
v -0.01068164 -0.01667458 0.00060091
v -0.01108120 -0.01684745 0.00060091
v -0.01159896 -0.01703472 0.00060091
v -0.00999905 -0.01617038 -0.00001666
v -0.00951125 -0.01604433 0.00011283
v -0.01239975 -0.01731203 0.04939909
v -0.01083147 -0.01642969 -0.00008639
v -0.01111949 -0.01682944 0.04986725
v -0.01159896 -0.01691588 0.04998678
v -0.01239975 -0.01705633 0.05009137
v -0.01399967 -0.01767578 0.04995192
v -0.01479879 -0.01775501 0.05004655
v -0.01679660 -0.01801071 0.05014117
v -0.01079984 -0.01559776 -0.00043004
v -0.01159896 -0.01559776 -0.00044000
v -0.01679660 0.01679343 -0.00044000
v -0.00999905 -0.01559776 -0.00033541
v -0.00906674 -0.01586066 0.00060091
v -0.00999905 -0.01634325 0.04939909
v -0.01068164 -0.01667458 0.04939909
v -0.01108120 -0.01684745 0.04939909
v -0.01159896 -0.01703472 0.04939909
v -0.00839914 -0.01533485 0.00004310
v -0.00922657 -0.01562297 -0.00009635
v -0.00799125 -0.01520520 0.00018754
v -0.00951125 -0.01604433 0.04988717
v -0.00999905 -0.01617038 0.05001666
v -0.01083147 -0.01642969 0.05008639
v -0.01159896 -0.01639727 0.05030553
v -0.01399967 -0.01719679 0.05027066
v -0.01479879 -0.01719679 0.05036529
v -0.01679660 -0.01767578 0.05028561
v -0.00919993 -0.01479824 -0.00042506
v -0.00839914 -0.01399873 -0.00044000
v -0.01679660 0.01719679 -0.00043502
v -0.01399967 0.01639727 -0.00044000
v -0.00839914 -0.01479824 -0.00027565
v -0.00760001 -0.01399873 -0.00037525
v -0.00839914 -0.01546811 0.00060091
v -0.00906674 -0.01586066 0.04939909
v -0.00708891 -0.01447771 0.00007298
v -0.00767493 -0.01476583 -0.00001168
v -0.00663441 -0.01422562 0.00060091
v -0.00703397 -0.01451733 0.00060091
v -0.00758670 -0.01492069 0.00060091
v -0.00798626 -0.01520880 0.00060091
v -0.00839914 -0.01533485 0.04995690
v -0.00799125 -0.01520520 0.04981246
v -0.00922657 -0.01562297 0.05009635
v -0.00999905 -0.01559776 0.05033541
v -0.01239975 -0.01639727 0.05041012
v -0.01559958 -0.01719679 0.05041012
v -0.01639870 -0.01719679 0.05043004
v -0.01679660 -0.01719679 0.05043502
v -0.00680089 -0.01319921 -0.00041510
v -0.00680089 -0.01239969 -0.00044000
v -0.00520098 -0.01159658 -0.00042008
v -0.01639870 0.01719679 -0.00043004
v -0.01319888 0.01639727 -0.00043502
v -0.01679660 0.01767578 -0.00028561
v -0.01159896 0.01559776 -0.00044000
v -0.00681421 -0.01400953 -0.00011129
v -0.00597846 -0.01322082 -0.00014615
v -0.00839914 -0.01546811 0.04939909
v -0.00623151 -0.01375023 0.00002318
v -0.00614661 -0.01382586 0.00060091
v -0.00663441 -0.01422562 0.04939909
v -0.00703397 -0.01451733 0.04939909
v -0.00758670 -0.01492069 0.04939909
v -0.00798626 -0.01520880 0.04939909
v -0.00708891 -0.01447771 0.04992702
v -0.00767493 -0.01476583 0.05001168
v -0.00839914 -0.01479824 0.05027565
v -0.00760001 -0.01399873 0.05037525
v -0.00919993 -0.01479824 0.05042506
v -0.01079984 -0.01559776 0.05043004
v -0.01319888 -0.01639727 0.05043502
v -0.01399967 -0.01639727 0.05044000
v -0.01679660 -0.01679343 0.05044000
v -0.00517434 -0.01242490 -0.00015113
v -0.00440019 -0.00999755 -0.00044000
v -0.00360106 -0.00919803 -0.00043502
v -0.00440019 -0.01079706 -0.00039517
v -0.01559958 0.01719679 -0.00041012
v -0.01239975 0.01639727 -0.00041012
v -0.01079984 0.01559776 -0.00043004
v -0.01679660 0.01801071 -0.00014117
v -0.01479879 0.01719679 -0.00036529
v -0.00839914 0.01399873 -0.00044000
v -0.00542240 -0.01297232 0.00001820
v -0.00574538 -0.01345851 0.00060091
v -0.00614661 -0.01382586 0.04939909
v -0.00623151 -0.01375023 0.04997682
v -0.00681421 -0.01400953 0.05011129
v -0.00597846 -0.01322082 0.05014615
v -0.00680089 -0.01319921 0.05041510
v -0.00839914 -0.01399873 0.05044000
v -0.01159896 -0.01559776 0.05044000
v -0.01679660 0.01639727 0.05044000
v -0.00437854 -0.01160738 -0.00013121
v -0.00462994 -0.01218001 0.00001322
v -0.00280027 -0.00759900 -0.00044000
v -0.00280027 -0.00839851 -0.00040015
v -0.00360106 -0.00999755 -0.00034039
v -0.01399967 0.01719679 -0.00027066
v -0.01159896 0.01639727 -0.00030553
v -0.00999905 0.01559776 -0.00033541
v -0.00919993 0.01479824 -0.00042506
v -0.01479879 0.01775501 -0.00004655
v -0.01679660 0.01838886 0.00060091
v -0.00680089 0.01319921 -0.00041510
v -0.00520098 0.01159658 -0.00042008
v -0.00680089 0.01239969 -0.00044000
v -0.00493460 -0.01266980 0.00060091
v -0.00533416 -0.01305875 0.00060091
v -0.00574538 -0.01345851 0.04939909
v -0.00542240 -0.01297232 0.04998180
v -0.00517434 -0.01242490 0.05015113
v -0.00520098 -0.01159658 0.05042008
v -0.00680089 -0.01239969 0.05044000
v -0.01679660 0.01719679 0.05043502
v -0.01399967 0.01639727 0.05044000
v -0.00361272 -0.01075745 -0.00007145
v -0.00388908 -0.01134448 0.00004310
v -0.00414547 -0.01181987 0.00060091
v -0.00454503 -0.01227004 0.00060091
v -0.00120036 -0.00279830 -0.00044000
v -0.00200115 -0.00599997 -0.00043502
v -0.00200115 -0.00679948 -0.00040015
v -0.00212768 -0.00839851 -0.00008141
v -0.00274533 -0.00923404 -0.00015113
v -0.00299340 -0.00999755 -0.00002164
v -0.01239975 0.01705633 -0.00009137
v -0.01159896 0.01691588 0.00001322
v -0.01083147 0.01642969 -0.00008639
v -0.00999905 0.01617038 -0.00001666
v -0.00760001 0.01399873 -0.00037525
v -0.00922657 0.01562297 -0.00009635
v -0.00839914 0.01479824 -0.00027565
v -0.01399967 0.01767578 0.00004808
v -0.01679660 0.01839246 0.00138782
v -0.01345360 0.01763976 0.00060091
v -0.01350188 0.01762536 0.00013773
v -0.00597846 0.01322082 -0.00014615
v -0.00517434 0.01242490 -0.00015113
v -0.00360106 0.00919803 -0.00043502
v -0.00440019 0.00999755 -0.00044000
v -0.00440019 0.01079706 -0.00039517
v -0.00493460 -0.01266980 0.04939909
v -0.00533416 -0.01305875 0.04939909
v -0.00462994 -0.01218001 0.04998678
v -0.00437854 -0.01160738 0.05013121
v -0.00440019 -0.01079706 0.05039517
v -0.00360106 -0.00919803 0.05043502
v -0.00440019 -0.00999755 0.05044000
v -0.01319888 0.01639727 0.05043502
v -0.01639870 0.01719679 0.05043004
v -0.01679660 0.01801071 0.05014117
v -0.01159896 0.01559776 0.05044000
v -0.00314989 -0.01046213 0.00011283
v -0.00383248 -0.01141651 0.00060091
v -0.00414547 -0.01181987 0.04939909
v -0.00454503 -0.01227004 0.04939909
v -0.00120036 0.00279830 -0.00044000
v -0.00040124 -0.00039976 -0.00032047
v -0.00120036 -0.00359782 -0.00043004
v -0.00120036 -0.00439734 -0.00041012
v -0.00120036 -0.00519685 -0.00032545
v -0.00136185 -0.00679948 -0.00008141
v -0.00149171 -0.00744414 0.00003314
v -0.00229250 -0.00899275 0.00003812
v -0.01111949 0.01682944 0.00013275
v -0.00951125 0.01604433 0.00011283
v -0.00839914 0.01533485 0.00004310
v -0.00681421 0.01400953 -0.00011129
v -0.00767493 0.01476583 -0.00001168
v -0.01679660 0.01839606 0.00218966
v -0.01305237 0.01752452 0.00060091
v -0.01345360 0.01763976 0.04939909
v -0.01239975 0.01731203 0.00060091
v -0.00623151 0.01375023 0.00002318
v -0.00542240 0.01297232 0.00001820
v -0.00462994 0.01218001 0.00001322
v -0.00437854 0.01160738 -0.00013121
v -0.00280027 0.00839851 -0.00040015
v -0.00280027 0.00759900 -0.00044000
v -0.00360106 0.00999755 -0.00034039
v -0.00388908 -0.01134448 0.04995690
v -0.00360106 -0.00999755 0.05034039
v -0.00361272 -0.01075745 0.05007145
v -0.00280027 -0.00839851 0.05040015
v -0.00280027 -0.00759900 0.05044000
v -0.01079984 0.01559776 0.05043004
v -0.01239975 0.01639727 0.05041012
v -0.01559958 0.01719679 0.05041012
v -0.01679660 0.01838886 0.04939909
v -0.01479879 0.01719679 0.05036529
v -0.01399967 0.01719679 0.05027066
v -0.01479879 0.01775501 0.05004655
v -0.00839914 0.01399873 0.05044000
v -0.00246231 -0.00948614 0.00060091
v -0.00278696 -0.00999755 0.00060091
v -0.00312492 -0.01049814 0.00060091
v -0.00383248 -0.01141651 0.04939909
v -0.00314989 -0.01046213 0.04988717
v -0.00200115 0.00599997 -0.00043502
v -0.00120036 0.00359782 -0.00043004
v -0.00040124 0.00039976 -0.00032047
v 0.00010487 -0.00039976 -0.00000172
v -0.00040124 -0.00119927 -0.00028063
v -0.00040124 -0.00199879 -0.00022584
v -0.00057105 -0.00439734 -0.00008639
v -0.00067427 -0.00519685 -0.00000172
v -0.00075585 -0.00571546 0.00010785
v -0.00143843 -0.00756659 0.00060091
v -0.00161657 -0.00796634 0.00060091
v -0.00185464 -0.00839851 0.00060091
v -0.01159896 0.01703472 0.00060091
v -0.01108120 0.01684745 0.00060091
v -0.01068164 0.01667458 0.00060091
v -0.00999905 0.01634325 0.00060091
v -0.00906674 0.01586066 0.00060091
v -0.00799125 0.01520520 0.00018754
v -0.00708891 0.01447771 0.00007298
v -0.01679660 0.01839606 0.04779539
v -0.01305237 0.01752452 0.04939909
v -0.01350188 0.01762536 0.04986227
v -0.01239975 0.01731203 0.04939909
v -0.00614661 0.01382586 0.00060091
v -0.00574538 0.01345851 0.00060091
v -0.00533416 0.01305875 0.00060091
v -0.00493460 0.01266980 0.00060091
v -0.00388908 0.01134448 0.00004310
v -0.00454503 0.01227004 0.00060091
v -0.00414547 0.01181987 0.00060091
v -0.00361272 0.01075745 -0.00007145
v -0.00274533 0.00923404 -0.00015113
v -0.00212768 0.00839851 -0.00008141
v -0.00200115 0.00679948 -0.00040015
v -0.00299340 0.00999755 -0.00002164
v -0.00299340 -0.00999755 0.05002164
v -0.00274533 -0.00923404 0.05015113
v -0.00212768 -0.00839851 0.05008141
v -0.00200115 -0.00679948 0.05040015
v -0.00200115 -0.00599997 0.05043502
v -0.00120036 -0.00279830 0.05044000
v -0.00919993 0.01479824 0.05042506
v -0.00999905 0.01559776 0.05033541
v -0.01159896 0.01639727 0.05030553
v -0.01399967 0.01767578 0.04995192
v -0.01239975 0.01705633 0.05009137
v -0.00680089 0.01239969 0.05044000
v -0.00520098 0.01159658 0.05042008
v -0.00680089 0.01319921 0.05041510
v -0.00246231 -0.00948614 0.04939909
v -0.00278696 -0.00999755 0.04939909
v -0.00312492 -0.01049814 0.04939909
v -0.00229250 -0.00899275 0.04996188
v -0.00120036 0.00439734 -0.00041012
v -0.00040124 0.00119927 -0.00028063
v 0.00010487 0.00039976 -0.00000172
v 0.00021142 -0.00039976 0.00060091
v 0.00007657 -0.00119927 0.00004310
v 0.00004661 -0.00199879 0.00009291
v 0.00002163 -0.00252460 0.00014769
v -0.00034130 -0.00439734 0.00060091
v -0.00054941 -0.00519685 0.00060091
v -0.00073421 -0.00577308 0.00060091
v -0.00088571 -0.00617644 0.00060091
v -0.00112211 -0.00679948 0.00060091
v -0.00143843 -0.00756659 0.04939909
v -0.00161657 -0.00796634 0.04939909
v -0.00185464 -0.00839851 0.04939909
v -0.01159896 0.01703472 0.04939909
v -0.01108120 0.01684745 0.04939909
v -0.01068164 0.01667458 0.04939909
v -0.00999905 0.01634325 0.04939909
v -0.00839914 0.01546811 0.00060091
v -0.00906674 0.01586066 0.04939909
v -0.00798626 0.01520880 0.00060091
v -0.00758670 0.01492069 0.00060091
v -0.00703397 0.01451733 0.00060091
v -0.00663441 0.01422562 0.00060091
v -0.01159896 0.01691588 0.04998678
v -0.01111949 0.01682944 0.04986725
v -0.00614661 0.01382586 0.04939909
v -0.00574538 0.01345851 0.04939909
v -0.00533416 0.01305875 0.04939909
v -0.00493460 0.01266980 0.04939909
v -0.00314989 0.01046213 0.00011283
v -0.00454503 0.01227004 0.04939909
v -0.00383248 0.01141651 0.00060091
v -0.00414547 0.01181987 0.04939909
v -0.00229250 0.00899275 0.00003812
v -0.00149171 0.00744414 0.00003314
v -0.00136185 0.00679948 -0.00008141
v -0.00120036 0.00519685 -0.00032545
v -0.00149171 -0.00744414 0.04996686
v -0.00136185 -0.00679948 0.05008141
v -0.00120036 -0.00519685 0.05032545
v -0.00120036 -0.00439734 0.05041012
v -0.00120036 -0.00359782 0.05043004
v -0.00120036 0.00279830 0.05044000
v -0.00040124 -0.00039976 0.05032047
v -0.00760001 0.01399873 0.05037525
v -0.00839914 0.01479824 0.05027565
v -0.00922657 0.01562297 0.05009635
v -0.00999905 0.01617038 0.05001666
v -0.01083147 0.01642969 0.05008639
v -0.00440019 0.00999755 0.05044000
v -0.00360106 0.00919803 0.05043502
v -0.00440019 0.01079706 0.05039517
v -0.00517434 0.01242490 0.05015113
v -0.00597846 0.01322082 0.05014615
v -0.00040124 0.00199879 -0.00022584
v -0.00057105 0.00439734 -0.00008639
v 0.00007657 0.00119927 0.00004310
v 0.00021142 0.00039976 0.00060091
v 0.00009489 -0.00199879 0.00060091
v 0.00021142 -0.00039976 0.04939909
v 0.00003162 -0.00258942 0.00060091
v -0.00003997 -0.00298918 0.00060091
v -0.00016649 -0.00359782 0.00060091
v -0.00016483 -0.00359782 0.00140276
v -0.00034130 -0.00439734 0.04939909
v -0.00054941 -0.00519685 0.04939909
v -0.00073421 -0.00577308 0.04939909
v -0.00088571 -0.00617644 0.04939909
v -0.00112211 -0.00679948 0.04939909
v -0.00075585 -0.00571546 0.04989215
v -0.00951125 0.01604433 0.04988717
v -0.00839914 0.01546811 0.04939909
v -0.00799125 0.01520520 0.04981246
v -0.00798626 0.01520880 0.04939909
v -0.00758670 0.01492069 0.04939909
v -0.00703397 0.01451733 0.04939909
v -0.00663441 0.01422562 0.04939909
v -0.00708891 0.01447771 0.04992702
v -0.00623151 0.01375023 0.04997682
v -0.00542240 0.01297232 0.04998180
v -0.00462994 0.01218001 0.04998678
v -0.00312492 0.01049814 0.00060091
v -0.00278696 0.00999755 0.00060091
v -0.00246231 0.00948614 0.00060091
v -0.00383248 0.01141651 0.04939909
v -0.00388908 0.01134448 0.04995690
v -0.00314989 0.01046213 0.04988717
v -0.00185464 0.00839851 0.00060091
v -0.00161657 0.00796634 0.00060091
v -0.00075585 0.00571546 0.00010785
v -0.00143843 0.00756659 0.00060091
v -0.00067427 0.00519685 -0.00000172
v -0.00067427 -0.00519685 0.05000172
v -0.00057105 -0.00439734 0.05008639
v -0.00040124 -0.00199879 0.05022584
v -0.00040124 -0.00119927 0.05028063
v -0.00040124 0.00039976 0.05032047
v -0.00120036 0.00359782 0.05043004
v -0.00200115 0.00599997 0.05043502
v -0.00280027 0.00759900 0.05044000
v 0.00010487 -0.00039976 0.05000172
v -0.00681421 0.01400953 0.05011129
v -0.00767493 0.01476583 0.05001168
v -0.00839914 0.01533485 0.04995690
v -0.00280027 0.00839851 0.05040015
v -0.00360106 0.00999755 0.05034039
v -0.00437854 0.01160738 0.05013121
v 0.00004661 0.00199879 0.00009291
v 0.00002163 0.00252460 0.00014769
v 0.00009489 0.00199879 0.00060091
v 0.00021142 0.00039976 0.04939909
v 0.00009489 -0.00199879 0.04939909
v 0.00007657 -0.00119927 0.04995690
v 0.00004661 -0.00199879 0.04990709
v 0.00002163 -0.00252460 0.04985231
v -0.00003830 -0.00298918 0.00140276
v 0.00003162 -0.00258942 0.04939909
v -0.00016483 -0.00359782 0.04859724
v -0.00016649 -0.00359782 0.04939909
v -0.00312492 0.01049814 0.04939909
v -0.00278696 0.00999755 0.04939909
v -0.00246231 0.00948614 0.04939909
v -0.00361272 0.01075745 0.05007145
v -0.00299340 0.00999755 0.05002164
v -0.00229250 0.00899275 0.04996188
v -0.00185464 0.00839851 0.04939909
v -0.00161657 0.00796634 0.04939909
v -0.00112211 0.00679948 0.00060091
v -0.00088571 0.00617644 0.00060091
v -0.00073421 0.00577308 0.00060091
v -0.00054941 0.00519685 0.00060091
v -0.00034130 0.00439734 0.00060091
v -0.00143843 0.00756659 0.04939909
v 0.00010487 0.00039976 0.05000172
v -0.00040124 0.00119927 0.05028063
v -0.00120036 0.00439734 0.05041012
v -0.00200115 0.00679948 0.05040015
v -0.00212768 0.00839851 0.05008141
v -0.00274533 0.00923404 0.05015113
v 0.00003162 0.00258942 0.00060091
v -0.00016649 0.00359782 0.00060091
v -0.00003997 0.00298918 0.00060091
v 0.00009489 0.00199879 0.04939909
v 0.00002163 0.00252460 0.04985231
v 0.00004661 0.00199879 0.04990709
v 0.00007657 0.00119927 0.04995690
v -0.00003997 -0.00298918 0.04939909
v -0.00003830 -0.00298918 0.04859724
v -0.00149171 0.00744414 0.04996686
v -0.00112211 0.00679948 0.04939909
v -0.00088571 0.00617644 0.04939909
v -0.00073421 0.00577308 0.04939909
v -0.00054941 0.00519685 0.04939909
v -0.00016483 0.00359782 0.00140276
v -0.00034130 0.00439734 0.04939909
v -0.00075585 0.00571546 0.04989215
v -0.00040124 0.00199879 0.05022584
v -0.00120036 0.00519685 0.05032545
v -0.00057105 0.00439734 0.05008639
v -0.00136185 0.00679948 0.05008141
v -0.00003830 0.00298918 0.00140276
v 0.00003162 0.00258942 0.04939909
v -0.00003997 0.00298918 0.04939909
v -0.00016649 0.00359782 0.04939909
v -0.00067427 0.00519685 0.05000172
v -0.00016483 0.00359782 0.04859724
v -0.00003830 0.00298918 0.04859724
f 1 2 3
f 1 3 10
f 1 10 4
f 1 4 11
f 1 11 23
f 1 23 42
f 1 42 61
f 1 61 83
f 1 83 108
f 1 108 128
f 1 128 150
f 1 150 187
f 1 187 225
f 1 225 254
f 1 254 206
f 1 206 170
f 1 170 139
f 1 139 116
f 1 116 89
f 1 89 64
f 1 64 45
f 1 45 25
f 1 25 12
f 1 12 5
f 1 5 2
f 2 5 6
f 2 6 7
f 2 7 8
f 2 8 3
f 3 8 9
f 3 9 21
f 3 21 10
f 4 10 11
f 5 12 13
f 5 13 14
f 5 14 15
f 5 15 16
f 5 16 6
f 6 17 7
f 6 16 17
f 7 17 8
f 8 18 19
f 8 19 9
f 8 17 20
f 8 20 18
f 9 19 35
f 9 35 21
f 10 21 22
f 10 22 23
f 10 23 11
f 12 24 13
f 12 25 26
f 12 26 24
f 13 24 14
f 14 24 27
f 14 27 15
f 15 27 16
f 16 27 28
f 16 28 17
f 17 28 20
f 18 29 30
f 18 30 31
f 18 31 32
f 18 32 19
f 18 20 33
f 18 33 34
f 18 34 29
f 19 32 51
f 19 51 35
f 20 28 36
f 20 36 33
f 21 35 22
f 22 37 38
f 22 38 39
f 22 39 40
f 22 40 23
f 22 35 37
f 23 40 41
f 23 41 42
f 24 43 27
f 24 26 44
f 24 44 43
f 25 45 65
f 25 65 90
f 25 90 118
f 25 118 142
f 25 142 176
f 25 176 215
f 25 215 193
f 25 193 156
f 25 156 131
f 25 131 110
f 25 110 85
f 25 85 63
f 25 63 44
f 25 44 26
f 27 46 28
f 27 43 46
f 28 46 33
f 28 33 36
f 29 34 47
f 29 47 69
f 29 69 48
f 29 48 49
f 29 49 30
f 30 49 50
f 30 50 31
f 31 50 51
f 31 51 32
f 33 52 34
f 33 46 53
f 33 53 52
f 34 52 54
f 34 54 47
f 35 51 37
f 37 55 56
f 37 56 38
f 37 51 50
f 37 50 49
f 37 49 48
f 37 48 55
f 38 56 57
f 38 57 58
f 38 58 39
f 39 41 40
f 39 58 59
f 39 59 41
f 41 59 42
f 42 59 60
f 42 60 61
f 43 62 46
f 43 44 63
f 43 63 62
f 45 64 65
f 46 66 53
f 46 62 67
f 46 67 66
f 47 54 68
f 47 68 93
f 47 93 69
f 48 69 55
f 52 70 54
f 52 53 66
f 52 66 71
f 52 71 70
f 54 72 73
f 54 73 74
f 54 74 75
f 54 75 68
f 54 70 72
f 55 76 56
f 55 69 77
f 55 77 76
f 56 76 78
f 56 78 79
f 56 79 58
f 56 58 57
f 58 79 80
f 58 80 59
f 59 80 60
f 60 80 81
f 60 81 61
f 61 81 82
f 61 82 83
f 62 84 67
f 62 63 84
f 63 85 86
f 63 86 84
f 64 87 88
f 64 88 65
f 64 89 87
f 65 88 90
f 66 67 91
f 66 91 71
f 67 92 91
f 67 84 92
f 68 75 99
f 68 99 93
f 69 93 77
f 70 71 91
f 70 91 94
f 70 94 95
f 70 95 72
f 72 95 121
f 72 121 96
f 72 96 97
f 72 97 73
f 73 97 98
f 73 98 74
f 74 98 99
f 74 99 75
f 76 77 100
f 76 100 101
f 76 101 102
f 76 102 78
f 77 93 99
f 77 99 98
f 77 98 97
f 77 97 96
f 77 96 100
f 78 102 79
f 79 102 103
f 79 103 104
f 79 104 105
f 79 105 80
f 80 105 106
f 80 106 81
f 81 106 82
f 82 106 83
f 83 106 107
f 83 107 108
f 84 86 109
f 84 109 92
f 85 110 86
f 86 111 112
f 86 112 109
f 86 110 111
f 87 89 113
f 87 113 88
f 88 113 114
f 88 114 115
f 88 115 90
f 89 116 117
f 89 117 113
f 90 115 118
f 91 92 94
f 92 109 119
f 92 119 94
f 94 119 120
f 94 120 95
f 95 120 145
f 95 145 121
f 96 121 100
f 100 122 123
f 100 123 101
f 100 121 122
f 101 123 102
f 102 123 103
f 103 123 124
f 103 124 125
f 103 125 104
f 104 125 126
f 104 126 105
f 105 127 106
f 105 126 127
f 106 127 107
f 107 127 126
f 107 126 149
f 107 149 184
f 107 184 221
f 107 221 275
f 107 275 332
f 107 332 389
f 107 389 339
f 107 339 281
f 107 281 229
f 107 229 188
f 107 188 151
f 107 151 128
f 107 128 108
f 109 112 129
f 109 129 130
f 109 130 119
f 110 131 111
f 111 132 112
f 111 131 132
f 112 132 133
f 112 133 129
f 113 117 114
f 114 117 134
f 114 134 135
f 114 135 136
f 114 136 115
f 115 137 118
f 115 136 137
f 116 138 134
f 116 134 117
f 116 139 138
f 118 137 140
f 118 140 141
f 118 141 142
f 119 130 143
f 119 143 144
f 119 144 120
f 120 144 179
f 120 179 145
f 121 145 122
f 122 146 124
f 122 124 123
f 122 145 146
f 124 147 125
f 124 146 147
f 125 147 148
f 125 148 126
f 126 148 149
f 128 151 150
f 129 133 152
f 129 152 153
f 129 153 130
f 130 153 154
f 130 154 155
f 130 155 143
f 131 156 157
f 131 157 158
f 131 158 132
f 132 158 159
f 132 159 160
f 132 160 133
f 133 160 161
f 133 161 152
f 134 138 162
f 134 162 135
f 135 162 163
f 135 163 164
f 135 164 165
f 135 165 136
f 136 166 137
f 136 165 167
f 136 167 168
f 136 168 166
f 137 166 140
f 138 169 162
f 138 139 169
f 139 170 171
f 139 171 172
f 139 172 169
f 140 166 173
f 140 173 174
f 140 174 141
f 141 175 176
f 141 176 142
f 141 174 177
f 141 177 175
f 143 155 192
f 143 192 178
f 143 178 179
f 143 179 144
f 145 179 146
f 146 180 147
f 146 179 178
f 146 178 180
f 147 180 181
f 147 181 182
f 147 182 148
f 148 182 183
f 148 183 184
f 148 184 149
f 150 185 186
f 150 186 187
f 150 151 185
f 151 188 185
f 152 161 189
f 152 189 153
f 153 189 154
f 154 189 190
f 154 190 233
f 154 233 191
f 154 191 192
f 154 192 155
f 156 193 237
f 156 237 194
f 156 194 195
f 156 195 157
f 157 195 196
f 157 196 158
f 158 196 197
f 158 197 198
f 158 198 159
f 159 198 199
f 159 199 200
f 159 200 161
f 159 161 160
f 161 200 189
f 162 169 172
f 162 172 163
f 163 165 164
f 163 172 201
f 163 201 165
f 165 201 202
f 165 202 203
f 165 203 167
f 166 168 204
f 166 204 173
f 167 203 168
f 168 203 205
f 168 205 204
f 170 206 171
f 171 207 172
f 171 206 254
f 171 254 208
f 171 208 255
f 171 255 207
f 172 207 209
f 172 209 201
f 173 204 210
f 173 210 211
f 173 211 174
f 174 211 212
f 174 212 213
f 174 213 177
f 175 177 214
f 175 214 215
f 175 215 176
f 177 213 216
f 177 216 214
f 178 192 180
f 180 217 181
f 180 192 191
f 180 191 217
f 181 218 182
f 181 217 219
f 181 219 218
f 182 218 220
f 182 220 183
f 183 220 221
f 183 221 184
f 185 222 223
f 185 223 224
f 185 224 186
f 185 188 222
f 186 224 187
f 187 224 226
f 187 226 227
f 187 227 228
f 187 228 225
f 188 229 222
f 189 200 230
f 189 230 231
f 189 231 232
f 189 232 190
f 190 232 286
f 190 286 233
f 191 233 234
f 191 234 217
f 193 215 235
f 193 235 236
f 193 236 237
f 194 237 290
f 194 290 238
f 194 238 239
f 194 239 196
f 194 196 195
f 196 239 240
f 196 240 241
f 196 241 197
f 197 241 242
f 197 242 198
f 198 242 243
f 198 243 199
f 199 243 244
f 199 244 245
f 199 245 200
f 200 245 246
f 200 246 230
f 201 209 247
f 201 247 248
f 201 248 249
f 201 249 250
f 201 250 202
f 202 250 251
f 202 251 252
f 202 252 203
f 203 252 253
f 203 253 205
f 204 205 253
f 204 253 210
f 207 255 257
f 207 257 209
f 208 254 225
f 208 225 256
f 208 256 255
f 209 257 303
f 209 303 247
f 210 253 258
f 210 258 259
f 210 259 211
f 211 259 260
f 211 260 261
f 211 261 212
f 212 262 213
f 212 261 263
f 212 263 264
f 212 264 262
f 213 262 265
f 213 265 216
f 214 216 266
f 214 266 267
f 214 267 268
f 214 268 215
f 215 268 235
f 216 265 269
f 216 269 266
f 217 234 219
f 218 219 270
f 218 270 271
f 218 271 220
f 219 234 270
f 220 271 272
f 220 272 273
f 220 273 221
f 221 273 274
f 221 274 275
f 222 276 277
f 222 277 223
f 222 229 276
f 223 277 278
f 223 278 227
f 223 227 226
f 223 226 224
f 225 228 279
f 225 279 256
f 227 278 280
f 227 280 228
f 228 280 279
f 229 281 282
f 229 282 283
f 229 283 276
f 230 246 302
f 230 302 284
f 230 284 285
f 230 285 231
f 231 285 286
f 231 286 232
f 233 286 234
f 234 287 270
f 234 286 285
f 234 285 284
f 234 284 287
f 235 268 288
f 235 288 236
f 236 288 237
f 237 289 290
f 237 288 289
f 238 290 347
f 238 347 291
f 238 291 292
f 238 292 240
f 238 240 239
f 240 292 293
f 240 293 241
f 241 293 294
f 241 294 242
f 242 294 243
f 243 294 295
f 243 295 296
f 243 296 297
f 243 297 298
f 243 298 299
f 243 299 244
f 244 299 358
f 244 358 300
f 244 300 301
f 244 301 245
f 245 301 302
f 245 302 246
f 247 303 304
f 247 304 248
f 248 304 305
f 248 305 249
f 249 305 306
f 249 306 250
f 250 306 308
f 250 308 251
f 251 307 252
f 251 308 361
f 251 361 307
f 252 307 309
f 252 309 310
f 252 310 311
f 252 311 312
f 252 312 253
f 253 312 258
f 255 256 257
f 256 279 280
f 256 280 313
f 256 313 314
f 256 314 257
f 257 314 303
f 258 312 366
f 258 366 315
f 258 315 316
f 258 316 259
f 259 316 317
f 259 317 260
f 260 317 318
f 260 318 261
f 261 318 320
f 261 320 263
f 262 264 319
f 262 319 265
f 263 320 322
f 263 322 264
f 264 321 319
f 264 322 374
f 264 374 321
f 265 319 269
f 266 269 267
f 267 269 323
f 267 323 324
f 267 324 325
f 267 325 268
f 268 326 288
f 268 325 326
f 269 319 323
f 270 272 271
f 270 287 272
f 272 287 327
f 272 327 328
f 272 328 273
f 273 329 330
f 273 330 274
f 273 328 329
f 274 330 331
f 274 331 275
f 275 331 333
f 275 333 386
f 275 386 332
f 276 283 334
f 276 334 277
f 277 334 335
f 277 335 336
f 277 336 337
f 277 337 278
f 278 337 338
f 278 338 313
f 278 313 280
f 281 339 282
f 282 340 341
f 282 341 342
f 282 342 283
f 282 339 340
f 283 342 343
f 283 343 334
f 284 302 287
f 287 302 301
f 287 301 327
f 288 344 289
f 288 326 345
f 288 345 344
f 289 344 290
f 290 346 347
f 290 344 346
f 291 348 294
f 291 294 293
f 291 293 292
f 291 347 400
f 291 400 349
f 291 349 401
f 291 401 348
f 294 348 350
f 294 350 351
f 294 351 352
f 294 352 295
f 295 352 353
f 295 353 407
f 295 407 354
f 295 354 355
f 295 355 296
f 296 355 356
f 296 356 297
f 297 356 357
f 297 357 298
f 298 357 358
f 298 358 299
f 300 358 359
f 300 359 327
f 300 327 301
f 303 314 304
f 304 314 305
f 305 314 306
f 306 314 360
f 306 360 308
f 307 361 363
f 307 363 309
f 308 360 362
f 308 362 361
f 309 363 364
f 309 364 310
f 310 364 365
f 310 365 311
f 311 365 366
f 311 366 312
f 313 338 337
f 313 337 314
f 314 337 360
f 315 366 367
f 315 367 368
f 315 368 316
f 316 368 369
f 316 369 317
f 317 369 318
f 318 369 370
f 318 370 320
f 319 321 371
f 319 371 372
f 319 372 373
f 319 373 323
f 320 370 322
f 321 374 409
f 321 409 371
f 322 370 375
f 322 375 376
f 322 376 374
f 323 373 377
f 323 377 378
f 323 378 324
f 324 379 325
f 324 378 380
f 324 380 379
f 325 379 381
f 325 381 326
f 326 381 345
f 327 359 328
f 328 359 382
f 328 382 329
f 329 382 383
f 329 383 330
f 330 384 385
f 330 385 333
f 330 333 331
f 330 383 384
f 332 386 387
f 332 387 388
f 332 388 389
f 333 385 390
f 333 390 423
f 333 423 386
f 334 343 391
f 334 391 335
f 335 391 392
f 335 392 393
f 335 393 336
f 336 393 337
f 337 393 360
f 339 389 340
f 340 394 341
f 340 389 394
f 341 394 395
f 341 395 396
f 341 396 342
f 342 396 370
f 342 370 369
f 342 369 343
f 343 369 368
f 343 368 391
f 344 345 397
f 344 397 346
f 345 381 398
f 345 398 397
f 346 397 347
f 347 397 398
f 347 398 399
f 347 399 432
f 347 432 400
f 348 401 406
f 348 406 350
f 349 400 423
f 349 423 390
f 349 390 402
f 349 402 403
f 349 403 404
f 349 404 401
f 350 405 351
f 350 406 437
f 350 437 405
f 351 405 353
f 351 353 352
f 353 405 437
f 353 437 407
f 354 407 408
f 354 408 404
f 354 404 359
f 354 359 355
f 355 359 356
f 356 359 357
f 357 359 358
f 359 404 382
f 360 393 362
f 361 362 363
f 362 366 365
f 362 365 364
f 362 364 363
f 362 393 367
f 362 367 366
f 367 393 392
f 367 392 391
f 367 391 368
f 370 396 375
f 371 409 410
f 371 410 372
f 372 410 411
f 372 411 373
f 373 411 415
f 373 415 377
f 374 376 409
f 375 396 412
f 375 412 376
f 376 412 413
f 376 413 414
f 376 414 411
f 376 411 410
f 376 410 409
f 377 415 416
f 377 416 378
f 378 416 422
f 378 422 380
f 379 398 381
f 379 380 417
f 379 417 418
f 379 418 419
f 379 419 420
f 379 420 421
f 379 421 398
f 380 422 439
f 380 439 417
f 382 404 383
f 383 404 403
f 383 403 384
f 384 403 402
f 384 402 390
f 384 390 385
f 386 423 424
f 386 424 425
f 386 425 387
f 387 425 388
f 388 425 426
f 388 426 389
f 389 426 394
f 394 426 427
f 394 427 428
f 394 428 395
f 395 428 413
f 395 413 412
f 395 412 396
f 398 429 399
f 398 421 430
f 398 430 431
f 398 431 429
f 399 429 451
f 399 451 432
f 400 432 433
f 400 433 434
f 400 434 435
f 400 435 423
f 401 404 406
f 404 408 436
f 404 436 406
f 406 436 437
f 407 437 436
f 407 436 408
f 411 414 415
f 413 428 427
f 413 427 414
f 414 438 416
f 414 416 415
f 414 427 438
f 416 438 422
f 417 439 440
f 417 440 418
f 418 440 441
f 418 441 419
f 419 441 442
f 419 442 420
f 420 442 444
f 420 444 421
f 421 443 430
f 421 444 455
f 421 455 443
f 422 438 445
f 422 445 439
f 423 435 446
f 423 446 424
f 424 446 425
f 425 447 426
f 425 446 448
f 425 448 447
f 426 447 449
f 426 449 427
f 427 449 438
f 429 431 450
f 429 450 456
f 429 456 451
f 430 443 450
f 430 450 431
f 432 451 433
f 433 451 452
f 433 452 453
f 433 453 444
f 433 444 445
f 433 445 454
f 433 454 448
f 433 448 434
f 434 448 446
f 434 446 435
f 438 449 445
f 439 445 440
f 440 445 441
f 441 445 442
f 442 445 444
f 443 455 456
f 443 456 450
f 444 453 455
f 445 449 454
f 447 448 454
f 447 454 449
f 451 456 452
f 452 456 455
f 452 455 453

