# https://github.com/mikedh/trimesh
v -0.01855245 -0.02839773 0.00940032
v -0.01871742 -0.02760237 0.01020302
v -0.01871956 -0.02760237 0.01979818
v -0.01855459 -0.02839773 0.01579632
v -0.01855245 -0.02839773 0.00219931
v -0.01871742 -0.02760237 0.00060322
v -0.01872813 -0.02760237 0.02333005
v -0.01856531 -0.02839773 0.02333005
v -0.01855674 -0.02839773 0.01979585
v -0.01855459 -0.02839773 0.00140126
v -0.01855888 -0.02839773 0.00060089
v -0.01895952 -0.02760237 -0.00009711
v -0.04044000 -0.02760237 0.02333005
v -0.04044000 -0.02839773 0.02333005
v -0.01888668 -0.02839773 -0.00011107
v -0.01960227 -0.02760237 -0.00041586
v -0.04044000 -0.02760237 0.00060322
v -0.04044000 -0.02839773 0.00060322
v -0.01960655 -0.02839773 -0.00042982
v -0.02040141 -0.02760237 -0.00043913
v -0.04021719 -0.02760237 -0.00009013
v -0.04021933 -0.02839773 -0.00008780
v -0.02040355 -0.02839773 -0.00043913
v -0.03879886 -0.02760237 -0.00043913
v -0.03959801 -0.02760237 -0.00041121
v -0.03960015 -0.02839773 -0.00040888
v -0.03880101 -0.02839773 -0.00043913
f 1 2 3
f 1 3 4
f 1 4 9
f 1 9 8
f 1 8 14
f 1 14 18
f 1 18 22
f 1 22 26
f 1 26 27
f 1 27 23
f 1 23 19
f 1 19 15
f 1 15 11
f 1 11 10
f 1 10 5
f 1 5 6
f 1 6 2
f 2 6 12
f 2 12 16
f 2 16 20
f 2 20 24
f 2 24 25
f 2 25 21
f 2 21 17
f 2 17 13
f 2 13 7
f 2 7 3
f 3 7 8
f 3 8 9
f 3 9 4
f 5 10 6
f 6 10 11
f 6 11 12
f 7 13 14
f 7 14 8
f 11 15 12
f 12 15 16
f 13 17 18
f 13 18 14
f 15 19 16
f 16 19 20
f 17 21 22
f 17 22 18
f 19 23 20
f 20 23 27
f 20 27 24
f 21 25 26
f 21 26 22
f 24 27 25
f 25 27 26

