# https://github.com/mikedh/trimesh
v -0.01801523 0.03387557 0.04859724
v -0.01802840 0.03387557 0.04939909
v -0.02057028 0.03218211 0.04939909
v -0.02056370 0.03218211 0.04859724
v -0.01801523 0.03387557 0.00140276
v -0.02069101 0.03218211 0.04991705
v -0.02059004 0.03218211 0.04961325
v -0.01888447 0.03387557 0.05005651
v -0.02077442 0.03218211 0.05001168
v -0.02056370 0.03218211 0.00140276
v -0.02057028 0.03218211 0.00060091
v -0.01802840 0.03387557 0.00060091
v -0.01894374 0.03387557 0.05009137
v -0.02119368 0.03218211 0.05023580
v -0.02069101 0.03218211 0.00008295
v -0.01888447 0.03387557 -0.00005651
v -0.01970982 0.03387557 0.05031051
v -0.02141977 0.03218211 0.05034039
v -0.02119368 0.03218211 -0.00023580
v -0.02120026 0.03240011 -0.00030553
v -0.01960006 0.03387557 -0.00027066
v -0.02052638 0.03387557 0.05043004
v -0.02200146 0.03218211 0.05043502
v -0.02200146 0.03218211 -0.00043502
v -0.02039248 0.03387557 -0.00039020
v -0.02132538 0.03387557 0.05044000
v -0.02200146 0.03240011 0.05044000
v -0.02221877 0.03218211 0.05044000
v -0.02280047 0.03218211 -0.00044000
v -0.02200146 0.03240011 -0.00044000
v -0.02120026 0.03319984 -0.00042506
v -0.02120026 0.03387557 -0.00043502
v -0.03879809 0.03387557 0.05044000
v -0.03879809 0.03218211 0.05044000
v -0.03879809 0.03218211 -0.00044000
v -0.02200146 0.03387557 -0.00044000
v -0.03959929 0.03387557 0.05041012
v -0.03959929 0.03218211 0.05041012
v -0.03879809 0.03387557 -0.00044000
v -0.03937979 0.03218211 -0.00042008
v -0.04021830 0.03387557 0.05009137
v -0.03976831 0.03218211 0.05032545
v -0.03947417 0.03387557 -0.00041510
v -0.03959929 0.03218211 -0.00041012
v -0.03959929 0.03387557 -0.00041012
v -0.04021830 0.03218211 0.05009137
v -0.04025342 0.03387557 0.04998180
v -0.04027976 0.03218211 0.04990211
v -0.04021830 0.03218211 -0.00009137
v -0.04012172 0.03387557 -0.00014117
v -0.04043781 0.03387557 0.04939909
v -0.04043781 0.03218211 0.04939909
v -0.04021830 0.03387557 -0.00009137
v -0.04037854 0.03218211 0.00041165
v -0.04043781 0.03387557 0.00060091
v -0.04043781 0.03218211 0.00060091
v -0.04040488 0.03387557 0.00049632
f 1 2 3
f 1 3 4
f 1 4 10
f 1 10 5
f 1 5 12
f 1 12 16
f 1 16 21
f 1 21 25
f 1 25 32
f 1 32 36
f 1 36 39
f 1 39 43
f 1 43 45
f 1 45 50
f 1 50 53
f 1 53 57
f 1 57 55
f 1 55 51
f 1 51 47
f 1 47 41
f 1 41 37
f 1 37 33
f 1 33 26
f 1 26 22
f 1 22 17
f 1 17 13
f 1 13 8
f 1 8 2
f 2 6 7
f 2 7 3
f 2 8 9
f 2 9 6
f 3 7 6
f 3 6 9
f 3 9 14
f 3 14 18
f 3 18 23
f 3 23 28
f 3 28 34
f 3 34 38
f 3 38 42
f 3 42 46
f 3 46 48
f 3 48 52
f 3 52 56
f 3 56 54
f 3 54 49
f 3 49 44
f 3 44 40
f 3 40 35
f 3 35 29
f 3 29 24
f 3 24 19
f 3 19 15
f 3 15 11
f 3 11 10
f 3 10 4
f 5 10 11
f 5 11 12
f 8 13 9
f 9 13 14
f 11 15 12
f 12 15 16
f 13 17 18
f 13 18 14
f 15 19 16
f 16 19 20
f 16 20 21
f 17 22 23
f 17 23 18
f 19 24 20
f 20 24 21
f 21 24 25
f 22 26 27
f 22 27 23
f 23 27 28
f 24 29 30
f 24 30 31
f 24 31 25
f 25 31 32
f 26 33 34
f 26 34 28
f 26 28 27
f 29 35 39
f 29 39 36
f 29 36 30
f 30 36 32
f 30 32 31
f 33 37 38
f 33 38 34
f 35 40 39
f 37 41 42
f 37 42 38
f 39 40 43
f 40 44 45
f 40 45 43
f 41 46 42
f 41 47 48
f 41 48 46
f 44 49 50
f 44 50 45
f 47 51 48
f 48 51 52
f 49 53 50
f 49 54 53
f 51 55 56
f 51 56 52
f 53 54 57
f 54 56 55
f 54 55 57

