# https://github.com/mikedh/trimesh
v -0.02328637 -0.03967714 0.05037352
v -0.02499951 -0.03967714 0.05037352
v -0.02328637 -0.04021994 0.05009305
v -0.02328637 -0.03967714 0.01165406
v -0.02499951 -0.04021994 0.05009305
v -0.02499951 -0.03967714 0.01165406
v -0.02328637 -0.04044000 0.04939947
v -0.02328637 -0.04044000 0.01165406
v -0.02499951 -0.04044000 0.04939947
v -0.02499951 -0.04044000 0.01165406
f 1 2 5
f 1 5 3
f 1 3 7
f 1 7 8
f 1 8 4
f 1 4 6
f 1 6 2
f 2 6 10
f 2 10 9
f 2 9 5
f 3 5 9
f 3 9 7
f 4 8 10
f 4 10 6
f 7 9 10
f 7 10 8

