# https://github.com/mikedh/trimesh
v -0.03933410 -0.04030653 0.00017946
v -0.03933410 -0.04044000 0.00060040
v -0.03933410 -0.03938377 0.00017946
v -0.01721611 -0.04030653 0.00017946
v -0.01721611 -0.04043556 0.00058609
v -0.03933410 -0.04044000 0.00993089
v -0.01721611 -0.04044000 0.00060040
v -0.03933410 -0.03938377 0.00993089
v -0.01721611 -0.03938377 0.00017946
v -0.01721611 -0.04044000 0.00993089
v -0.01721611 -0.03938377 0.00993089
f 1 2 6
f 1 6 8
f 1 8 3
f 1 3 9
f 1 9 4
f 1 4 5
f 1 5 2
f 2 5 7
f 2 7 10
f 2 10 6
f 3 8 11
f 3 11 9
f 4 9 11
f 4 11 10
f 4 10 7
f 4 7 5
f 6 10 11
f 6 11 8

