# https://github.com/mikedh/trimesh
v -0.04044000 0.02669397 0.00328098
v -0.04044000 0.02759672 0.00328098
v -0.01876300 0.02669397 0.00328098
v -0.04044000 0.02669397 0.01899833
v -0.04044000 0.02759672 0.01900911
v -0.01872685 0.02759672 0.00328098
v -0.01871622 0.02759672 0.00540249
v -0.01876087 0.02669397 0.00536708
v -0.03844752 0.02669397 0.01900911
v -0.04044000 0.02669539 0.01900911
v -0.01871834 0.02759672 0.01900911
v -0.01871622 0.02759672 0.01819776
v -0.01876087 0.02669397 0.01900911
v -0.01871834 0.02758691 0.01900911
f 1 2 6
f 1 6 3
f 1 3 8
f 1 8 13
f 1 13 9
f 1 9 4
f 1 4 10
f 1 10 5
f 1 5 2
f 2 5 11
f 2 11 12
f 2 12 7
f 2 7 6
f 3 6 7
f 3 7 8
f 4 9 10
f 5 10 9
f 5 9 13
f 5 13 14
f 5 14 11
f 7 12 13
f 7 13 8
f 11 14 12
f 12 14 13

