# https://github.com/mikedh/trimesh
v 0.03321192 0.00235792 0.02234702
v 0.01876141 0.00235792 0.02234702
v 0.03321192 -0.00566458 0.02234702
v 0.03321192 0.00235792 -0.00044000
v 0.01876141 -0.00566458 0.02234702
v 0.01876141 0.00235792 0.00060389
v 0.03321192 -0.00566458 -0.00044000
v 0.02040365 0.00235792 -0.00044000
v 0.01876141 -0.00566458 0.00060389
v 0.01888448 0.00235792 0.00021801
v 0.02040365 -0.00566458 -0.00044000
v 0.01960304 0.00235792 -0.00041100
v 0.01895237 -0.00108950 0.00000611
v 0.01898349 -0.00566458 -0.00008981
v 0.01898349 0.00235792 -0.00008981
v 0.01960304 -0.00566458 -0.00041100
v 0.01934277 -0.00566458 -0.00027717
v 0.01932580 0.00235792 -0.00026825
f 1 2 5
f 1 5 3
f 1 3 7
f 1 7 4
f 1 4 8
f 1 8 12
f 1 12 18
f 1 18 15
f 1 15 10
f 1 10 6
f 1 6 2
f 2 6 9
f 2 9 5
f 3 5 9
f 3 9 14
f 3 14 17
f 3 17 16
f 3 16 11
f 3 11 7
f 4 7 11
f 4 11 8
f 6 10 9
f 8 11 16
f 8 16 12
f 9 10 13
f 9 13 14
f 10 15 13
f 12 16 17
f 12 17 18
f 13 15 14
f 14 15 17
f 15 18 17

