# https://github.com/mikedh/trimesh
v -0.01641633 -0.03149914 0.05038522
v -0.01641633 -0.03087685 0.05011129
v -0.01880087 -0.03009639 0.05041012
v -0.01960076 -0.03009639 0.05044000
v -0.01880087 -0.03079996 0.05044000
v -0.01800099 -0.03149914 0.05043502
v -0.01641633 -0.03149914 -0.00039020
v -0.01736289 -0.03024825 0.04997184
v -0.01773032 -0.03009639 0.05006647
v -0.01799040 -0.03009639 0.05017106
v -0.01641633 -0.03055129 0.04939909
v -0.02209720 -0.03009639 0.05044000
v -0.01880087 -0.03149914 0.05044000
v -0.01648589 -0.03149914 -0.00040015
v -0.01870410 -0.03009639 -0.00041012
v -0.01641633 -0.03087685 -0.00011129
v -0.01732358 -0.03009639 0.04939909
v -0.01641633 -0.03054703 0.04862713
v -0.01730089 -0.03009639 0.04859724
v -0.01730392 -0.03009639 0.04871179
v -0.02289709 -0.03009639 0.05042506
v -0.02509867 -0.03149914 0.05043004
v -0.02439858 -0.03149914 0.05043502
v -0.02350041 -0.03149914 0.05044000
v -0.01730089 -0.03149914 -0.00043502
v -0.01950399 -0.03009639 -0.00044000
v -0.01786641 -0.03009639 -0.00013619
v -0.01773032 -0.03009639 -0.00006647
v -0.01736289 -0.03024825 0.00002816
v -0.01641633 -0.03086298 -0.00008141
v -0.01641633 -0.03054690 0.04859724
v -0.01730089 -0.03009639 0.00140276
v -0.02439858 -0.03079996 0.05041510
v -0.02360021 -0.03009639 0.05039517
v -0.02589856 -0.03149914 0.05040015
v -0.01810230 -0.03149914 -0.00044000
v -0.01880087 -0.03079996 -0.00044000
v -0.02200043 -0.03009639 -0.00044000
v -0.01748839 -0.03009639 0.00020746
v -0.01641633 -0.03055651 0.00060091
v -0.01641633 -0.03054690 0.00540204
v -0.01641633 -0.03054717 0.00460019
v -0.01641633 -0.03055623 0.00063079
v -0.01731904 -0.03009639 0.00073040
v -0.02369698 -0.03009639 0.05039020
v -0.02669845 -0.03149914 0.05033541
v -0.03186370 -0.03009639 0.04990211
v -0.02280032 -0.03149914 -0.00044000
v -0.02280032 -0.03079996 -0.00044000
v -0.02439858 -0.03149914 -0.00043502
v -0.02360021 -0.03079996 -0.00043502
v -0.02280032 -0.03009639 -0.00042506
v -0.01732358 -0.03009639 0.00060091
v -0.03186370 -0.03149914 0.04991207
v -0.03186370 -0.03009639 0.00009789
v -0.02519998 -0.03149914 -0.00042506
v -0.02439858 -0.03079996 -0.00041510
v -0.02360021 -0.03009639 -0.00039517
v -0.03186370 -0.03149914 0.00008793
v -0.02519998 -0.03079996 -0.00037027
v -0.02599987 -0.03149914 -0.00039020
v -0.02679976 -0.03149914 -0.00032545
v -0.03186370 -0.03133629 0.00008793
f 1 2 3
f 1 3 4
f 1 4 5
f 1 5 6
f 1 6 13
f 1 13 24
f 1 24 23
f 1 23 22
f 1 22 35
f 1 35 46
f 1 46 54
f 1 54 59
f 1 59 62
f 1 62 61
f 1 61 56
f 1 56 50
f 1 50 48
f 1 48 36
f 1 36 25
f 1 25 14
f 1 14 7
f 1 7 16
f 1 16 30
f 1 30 40
f 1 40 43
f 1 43 42
f 1 42 41
f 1 41 31
f 1 31 18
f 1 18 11
f 1 11 2
f 2 8 9
f 2 9 10
f 2 10 3
f 2 11 8
f 3 10 9
f 3 9 17
f 3 17 20
f 3 20 19
f 3 19 32
f 3 32 44
f 3 44 53
f 3 53 39
f 3 39 28
f 3 28 27
f 3 27 15
f 3 15 26
f 3 26 38
f 3 38 52
f 3 52 58
f 3 58 55
f 3 55 47
f 3 47 45
f 3 45 34
f 3 34 21
f 3 21 12
f 3 12 4
f 4 12 24
f 4 24 13
f 4 13 5
f 5 13 6
f 7 14 15
f 7 15 16
f 8 11 17
f 8 17 9
f 11 18 19
f 11 19 20
f 11 20 17
f 12 21 22
f 12 22 23
f 12 23 24
f 14 25 15
f 15 25 26
f 15 27 16
f 16 27 28
f 16 28 29
f 16 29 30
f 18 31 19
f 19 31 41
f 19 41 32
f 21 33 22
f 21 34 33
f 22 33 35
f 25 36 37
f 25 37 26
f 26 37 36
f 26 36 48
f 26 48 49
f 26 49 38
f 28 39 29
f 29 39 40
f 29 40 30
f 32 41 42
f 32 42 43
f 32 43 40
f 32 40 44
f 33 34 35
f 34 45 35
f 35 45 47
f 35 47 46
f 38 49 50
f 38 50 51
f 38 51 52
f 39 53 40
f 40 53 44
f 46 47 54
f 47 55 63
f 47 63 59
f 47 59 54
f 48 50 49
f 50 56 51
f 51 56 52
f 52 56 57
f 52 57 58
f 55 58 60
f 55 60 61
f 55 61 62
f 55 62 63
f 56 61 57
f 57 61 58
f 58 61 60
f 59 63 62

