# https://github.com/mikedh/trimesh
v 0.04044000 0.02560713 0.03179940
v 0.04043151 0.02560713 0.03259711
v 0.04044000 0.02504817 0.03179940
v 0.04044000 0.02560713 0.00060265
v 0.04042727 0.02504817 0.03259711
v 0.04043788 0.02504817 0.03195166
v 0.04021930 0.02560713 0.03337165
v 0.04044000 0.02504817 0.00060265
v 0.04026174 0.02504817 0.00003995
v 0.04021930 0.02560713 -0.00009245
v 0.04038270 0.02504817 0.03274606
v 0.04020232 0.02504817 0.03331207
v 0.04009409 0.02560713 0.03337496
v 0.04021718 0.02560456 0.03337496
v 0.04021930 0.02504817 -0.00009245
v 0.03971634 0.02504817 -0.00035063
v 0.03990309 0.02560713 -0.00025464
v 0.04011955 0.02504817 0.03337496
v 0.01876212 0.02560713 0.03337496
v 0.03959963 0.02504817 -0.00041021
v 0.03959963 0.02560713 -0.00041021
v 0.01876212 0.02504817 0.03337496
v 0.01876212 0.02560713 0.00060265
v 0.03879957 0.02504817 -0.00044000
v 0.03919217 0.02560713 -0.00042676
v 0.01876212 0.02504817 0.00060265
v 0.01886823 0.02560713 0.00026172
v 0.01880244 0.02504817 0.00047025
v 0.03879957 0.02560713 -0.00044000
v 0.02040043 0.02504817 -0.00044000
v 0.01898070 0.02560713 -0.00009245
v 0.01898070 0.02504817 -0.00009245
v 0.02040043 0.02560713 -0.00044000
v 0.01975317 0.02504817 -0.00041683
v 0.01960037 0.02560713 -0.00041021
v 0.01960037 0.02504817 -0.00041021
f 1 2 3
f 1 3 8
f 1 8 4
f 1 4 10
f 1 10 17
f 1 17 21
f 1 21 25
f 1 25 29
f 1 29 33
f 1 33 35
f 1 35 31
f 1 31 27
f 1 27 23
f 1 23 19
f 1 19 13
f 1 13 7
f 1 7 2
f 2 5 6
f 2 6 3
f 2 7 5
f 3 6 5
f 3 5 11
f 3 11 12
f 3 12 18
f 3 18 22
f 3 22 26
f 3 26 28
f 3 28 32
f 3 32 36
f 3 36 34
f 3 34 30
f 3 30 24
f 3 24 20
f 3 20 16
f 3 16 15
f 3 15 9
f 3 9 8
f 4 8 9
f 4 9 10
f 5 7 11
f 7 12 11
f 7 13 14
f 7 14 12
f 9 15 10
f 10 15 16
f 10 16 17
f 12 14 18
f 13 19 22
f 13 22 18
f 13 18 14
f 16 20 21
f 16 21 17
f 19 23 26
f 19 26 22
f 20 24 25
f 20 25 21
f 23 27 28
f 23 28 26
f 24 29 25
f 24 30 33
f 24 33 29
f 27 31 32
f 27 32 28
f 30 34 33
f 31 35 36
f 31 36 32
f 33 34 35
f 34 36 35

