# https://github.com/mikedh/trimesh
v -0.00361930 -0.00957096 -0.00039191
v -0.00361930 -0.00956230 -0.00039429
v -0.00359994 -0.00957096 -0.00039191
v -0.00361930 -0.00957096 0.02378620
v -0.00361930 -0.00919998 -0.00043697
v -0.00359994 -0.00919998 -0.00043697
v -0.00278686 -0.00859903 -0.00034211
v -0.00274471 -0.00923575 -0.00015002
v -0.00285376 -0.00957096 -0.00009547
v -0.00274411 -0.00957096 0.02378620
v -0.00361930 -0.00859903 0.02378620
v -0.00361930 -0.00859903 -0.00043697
v -0.00359994 -0.00859903 -0.00043697
v -0.00274411 -0.00859903 -0.00031602
v -0.00274411 -0.00923623 -0.00014764
v -0.00274411 -0.00957096 0.00021046
v -0.00274411 -0.00859903 0.02378620
f 1 2 3
f 1 3 9
f 1 9 16
f 1 16 10
f 1 10 4
f 1 4 11
f 1 11 12
f 1 12 5
f 1 5 2
f 2 5 6
f 2 6 3
f 3 6 7
f 3 7 8
f 3 8 9
f 4 10 17
f 4 17 11
f 5 12 13
f 5 13 6
f 6 13 7
f 7 14 8
f 7 13 12
f 7 12 11
f 7 11 17
f 7 17 14
f 8 15 16
f 8 16 9
f 8 14 15
f 10 16 15
f 10 15 14
f 10 14 17

