# https://github.com/mikedh/trimesh
v -0.01680044 0.03879991 0.05044000
v -0.01680044 0.03726011 0.05044000
v -0.01680044 0.03947819 0.05041510
v -0.03559917 0.03879991 0.05044000
v -0.03399790 0.03726011 0.05044000
v -0.01680044 0.03726011 -0.00044000
v -0.03719812 0.03947819 0.05041510
v -0.01680044 0.03947819 -0.00041510
v -0.03719812 0.03879991 0.05042506
v -0.03479853 0.03800004 0.05044000
v -0.03799876 0.03947819 0.05041012
v -0.03959772 0.03726011 0.05038522
v -0.03405806 0.03726011 -0.00044000
v -0.01680044 0.03879991 -0.00044000
v -0.03787612 0.03947819 -0.00041510
v -0.03959772 0.03947819 0.05038522
v -0.03969259 0.03947819 0.05034039
v -0.04021786 0.03726011 0.05009137
v -0.03719812 0.03879991 -0.00042506
v -0.03559917 0.03879991 -0.00044000
v -0.03959772 0.03726011 -0.00038522
v -0.03959772 0.03947819 -0.00038522
v -0.04021786 0.03947819 0.05009137
v -0.04025257 0.03947819 0.04998678
v -0.04044000 0.03726011 0.04939909
v -0.03964631 0.03726011 -0.00036529
v -0.04012530 0.03947819 -0.00013619
v -0.04044000 0.03947819 0.04939909
v -0.04044000 0.03726011 0.00060091
v -0.04021786 0.03726011 -0.00009137
v -0.04021786 0.03947819 -0.00009137
v -0.04044000 0.03947819 0.00060091
v -0.04023637 0.03726011 -0.00003659
f 1 2 6
f 1 6 14
f 1 14 8
f 1 8 3
f 1 3 7
f 1 7 4
f 1 4 10
f 1 10 5
f 1 5 2
f 2 5 12
f 2 12 18
f 2 18 25
f 2 25 29
f 2 29 33
f 2 33 30
f 2 30 26
f 2 26 21
f 2 21 13
f 2 13 6
f 3 8 15
f 3 15 22
f 3 22 27
f 3 27 31
f 3 31 32
f 3 32 28
f 3 28 24
f 3 24 23
f 3 23 17
f 3 17 16
f 3 16 11
f 3 11 7
f 4 9 10
f 4 7 11
f 4 11 9
f 5 10 9
f 5 9 12
f 6 13 20
f 6 20 14
f 8 14 20
f 8 20 15
f 9 11 16
f 9 16 12
f 12 16 17
f 12 17 18
f 13 19 20
f 13 21 19
f 15 20 19
f 15 19 21
f 15 21 22
f 17 23 18
f 18 23 24
f 18 24 25
f 21 26 22
f 22 26 27
f 24 28 25
f 25 28 32
f 25 32 29
f 26 30 27
f 27 30 31
f 29 32 33
f 30 33 31
f 31 33 32

