# https://github.com/mikedh/trimesh
v 0.03424572 0.01816915 0.05043843
v 0.03424572 0.01816915 0.04238847
v 0.02040148 0.01816915 0.05043843
v 0.03424572 0.00387856 0.05043843
v 0.03424572 0.00387856 0.04238847
v 0.01876152 0.01816915 0.04238847
v 0.01977096 0.01816915 0.05041794
v 0.02040148 0.00387856 0.05043843
v 0.01876152 0.00387856 0.04238847
v 0.01876152 0.01816915 0.04939898
v 0.01960272 0.01816915 0.05041242
v 0.01964970 0.01404675 0.05041399
v 0.01960272 0.00387856 0.05041242
v 0.01876152 0.00387856 0.04939898
v 0.01898281 0.01816915 0.05009247
v 0.01919803 0.00387856 0.05020359
v 0.01898281 0.00387856 0.05009247
f 1 2 6
f 1 6 10
f 1 10 15
f 1 15 11
f 1 11 7
f 1 7 3
f 1 3 8
f 1 8 4
f 1 4 5
f 1 5 2
f 2 5 9
f 2 9 6
f 3 7 12
f 3 12 8
f 4 8 13
f 4 13 16
f 4 16 17
f 4 17 14
f 4 14 9
f 4 9 5
f 6 9 14
f 6 14 10
f 7 11 12
f 8 12 13
f 10 14 17
f 10 17 15
f 11 15 16
f 11 16 13
f 11 13 12
f 15 17 16

