# https://github.com/mikedh/trimesh
v -0.03940608 0.02209172 0.02572360
v -0.03940608 0.02209172 0.03503815
v -0.03940608 0.02309142 0.02572360
v -0.01875977 0.02209172 0.02572360
v -0.03940608 0.02300686 0.03503815
v -0.01875977 0.02209172 0.03503815
v -0.03940608 0.02309142 0.03503632
v -0.01876179 0.02309142 0.02572360
v -0.02378190 0.02309142 0.03503815
v -0.01876179 0.02309142 0.03503815
f 1 2 5
f 1 5 7
f 1 7 3
f 1 3 8
f 1 8 4
f 1 4 6
f 1 6 2
f 2 6 10
f 2 10 9
f 2 9 5
f 3 7 9
f 3 9 10
f 3 10 8
f 4 8 10
f 4 10 6
f 5 9 7

