# https://github.com/mikedh/trimesh
v 0.02875202 -0.00000642 0.01500468
v 0.02875202 0.02390538 0.01500468
v 0.03515251 -0.00000642 0.01500468
v 0.02875202 -0.00000642 0.05043697
v 0.02875202 0.02555688 0.01584054
v 0.02919313 0.02391288 0.01500468
v 0.03515251 0.02391539 0.01500468
v 0.03515251 -0.00000642 0.01946840
v 0.03515188 -0.00000642 0.05043697
v 0.02875202 0.02555688 0.05043697
v 0.03160044 0.02555688 0.01581626
v 0.02999264 0.02391789 0.01500468
v 0.03080093 0.02391789 0.01500468
v 0.03319947 0.02555688 0.01582320
v 0.03351526 0.02555688 0.01582667
v 0.03515251 0.02555688 0.01585095
v 0.03515251 0.02555688 0.01946840
v 0.03515188 0.02555188 0.05043697
v 0.03479849 0.02555688 0.05043697
v 0.03515188 0.02555688 0.05009707
f 1 2 6
f 1 6 12
f 1 12 13
f 1 13 7
f 1 7 3
f 1 3 8
f 1 8 9
f 1 9 4
f 1 4 10
f 1 10 5
f 1 5 2
f 2 5 6
f 3 7 16
f 3 16 17
f 3 17 8
f 4 9 18
f 4 18 19
f 4 19 10
f 5 11 6
f 5 10 19
f 5 19 20
f 5 20 17
f 5 17 16
f 5 16 15
f 5 15 14
f 5 14 11
f 6 11 12
f 7 13 11
f 7 11 14
f 7 14 15
f 7 15 16
f 8 17 18
f 8 18 9
f 11 13 12
f 17 20 18
f 18 20 19

