# https://github.com/mikedh/trimesh
v -0.04044000 -0.02760214 0.04383448
v -0.04044000 -0.02680006 0.04383448
v -0.04040703 -0.02760229 0.04383448
v -0.04044000 -0.02760229 0.04460011
v -0.04044000 -0.02679927 0.04460011
v -0.04040703 -0.02679927 0.04383448
v -0.03081727 -0.02760229 0.04383448
v -0.04044000 -0.02760229 0.04939954
v -0.04044000 -0.02679927 0.04939954
v -0.03081727 -0.02679927 0.04383448
v -0.03081727 -0.02760229 0.05042189
v -0.04021959 -0.02760229 0.05009275
v -0.04021959 -0.02679927 0.05009275
v -0.03081727 -0.02679927 0.05042319
v -0.03081727 -0.02760001 0.05044000
v -0.03160001 -0.02760229 0.05044000
v -0.03959980 -0.02760229 0.05041284
v -0.03959980 -0.02679927 0.05041284
v -0.03081727 -0.02680006 0.05044000
v -0.03160001 -0.02679927 0.05044000
v -0.03879916 -0.02760229 0.05044000
v -0.03879916 -0.02679927 0.05044000
f 1 2 6
f 1 6 10
f 1 10 7
f 1 7 3
f 1 3 4
f 1 4 8
f 1 8 9
f 1 9 5
f 1 5 2
f 2 5 6
f 3 7 11
f 3 11 16
f 3 16 21
f 3 21 17
f 3 17 12
f 3 12 8
f 3 8 4
f 5 9 13
f 5 13 18
f 5 18 22
f 5 22 20
f 5 20 14
f 5 14 10
f 5 10 6
f 7 10 14
f 7 14 19
f 7 19 15
f 7 15 11
f 8 12 13
f 8 13 9
f 11 15 16
f 12 17 18
f 12 18 13
f 14 20 19
f 15 19 20
f 15 20 22
f 15 22 21
f 15 21 16
f 17 21 22
f 17 22 18

