# https://github.com/mikedh/trimesh
v 0.00075818 0.03837846 -0.00044000
v 0.00075818 0.03880017 -0.00044000
v 0.00221992 0.03837846 -0.00044000
v 0.00075818 0.03837846 0.04477512
v 0.00221992 0.03880017 -0.00044000
v 0.00075818 0.03959981 -0.00040459
v 0.00221992 0.03938028 -0.00041787
v 0.00221992 0.03837846 0.04477512
v 0.00075818 0.04043960 0.04477512
v 0.00075818 0.03994222 -0.00023641
v 0.00221992 0.03959981 -0.00040459
v 0.00221992 0.04043960 0.04477512
v 0.00075818 0.04043960 0.00060009
v 0.00075818 0.04021966 -0.00008593
v 0.00221992 0.04021966 -0.00008593
v 0.00221992 0.04004917 -0.00017444
v 0.00221992 0.04043960 0.00060009
v 0.00150164 0.04035667 0.00033896
v 0.00075818 0.04034113 0.00029028
f 1 2 5
f 1 5 3
f 1 3 8
f 1 8 4
f 1 4 9
f 1 9 13
f 1 13 19
f 1 19 14
f 1 14 10
f 1 10 6
f 1 6 2
f 2 6 7
f 2 7 5
f 3 5 7
f 3 7 11
f 3 11 16
f 3 16 15
f 3 15 17
f 3 17 12
f 3 12 8
f 4 8 12
f 4 12 9
f 6 10 11
f 6 11 7
f 9 12 17
f 9 17 13
f 10 14 15
f 10 15 16
f 10 16 11
f 13 18 19
f 13 17 18
f 14 19 15
f 15 19 18
f 15 18 17

