# https://github.com/mikedh/trimesh
v -0.00808456 0.01527193 0.02378857
v -0.00798616 0.01520302 0.02378857
v -0.00794174 0.01517750 0.02148845
v -0.00803189 0.01523875 0.02148845
v -0.00808456 0.01527193 0.02060856
v -0.00808456 -0.01080233 0.02378857
v -0.00759164 0.01492482 0.02378857
v -0.00709414 0.01456494 0.02148845
v -0.00758614 0.01491716 0.01112925
v -0.00792209 0.01515963 0.01112925
v -0.00798616 0.01520557 0.01112925
v -0.00808456 0.01526938 0.01112925
v -0.00808456 -0.01080233 0.01112801
v -0.00674600 -0.01080233 0.02378857
v -0.00703295 0.01451900 0.02378857
v -0.00675020 0.01431227 0.02378857
v -0.00703885 0.01452411 0.02060856
v -0.00703295 0.01451645 0.01112925
v -0.00674600 -0.00082030 0.01112801
v -0.00808456 -0.00082030 0.01112801
v -0.00674600 -0.01080233 0.01112801
v -0.00674600 0.01430716 0.02378857
v -0.00674600 0.01430716 0.02060856
v -0.00674600 0.01430461 0.01112925
v -0.00702181 0.01450879 0.01263250
f 1 2 3
f 1 3 4
f 1 4 5
f 1 5 12
f 1 12 20
f 1 20 13
f 1 13 6
f 1 6 14
f 1 14 22
f 1 22 16
f 1 16 15
f 1 15 7
f 1 7 2
f 2 7 3
f 3 7 8
f 3 8 9
f 3 9 10
f 3 10 11
f 3 11 4
f 4 11 12
f 4 12 5
f 6 13 21
f 6 21 14
f 7 15 8
f 8 15 16
f 8 16 17
f 8 17 18
f 8 18 9
f 9 18 19
f 9 19 10
f 10 19 11
f 11 19 12
f 12 19 20
f 13 20 19
f 13 19 21
f 14 21 19
f 14 19 24
f 14 24 23
f 14 23 22
f 16 22 23
f 16 23 24
f 16 24 25
f 16 25 17
f 17 25 18
f 18 25 24
f 18 24 19

