# https://github.com/mikedh/trimesh
v -0.01681090 -0.03042198 0.01685436
v -0.01637252 -0.03056223 0.01685436
v -0.01637252 -0.03055830 0.01260048
v -0.01681090 -0.03042100 0.01256943
v -0.01681090 -0.04044000 0.01685436
v -0.01637252 -0.04044000 0.01685436
v -0.01637252 -0.03055830 0.01097306
v -0.01681090 -0.03042100 0.01180032
v -0.01681090 -0.04044000 0.01010484
v -0.01637252 -0.04044000 0.01010484
v -0.01637252 -0.03056419 0.01017290
v -0.01681090 -0.03042198 0.01010484
v -0.01637252 -0.03925824 0.01010484
v -0.01637497 -0.03056419 0.01010484
f 1 2 3
f 1 3 4
f 1 4 8
f 1 8 12
f 1 12 9
f 1 9 5
f 1 5 6
f 1 6 2
f 2 6 10
f 2 10 13
f 2 13 11
f 2 11 7
f 2 7 3
f 3 7 8
f 3 8 4
f 5 9 10
f 5 10 6
f 7 11 12
f 7 12 8
f 9 12 14
f 9 14 13
f 9 13 10
f 11 14 12
f 11 13 14

