# https://github.com/mikedh/trimesh
v -0.01398291 -0.03661333 -0.00044000
v -0.01398291 -0.03240038 -0.00044000
v -0.01310681 -0.03661333 -0.00044000
v -0.01398291 -0.03661333 0.00406230
v -0.01310681 -0.03240038 -0.00044000
v -0.01398291 -0.03160053 -0.00041011
v -0.01310681 -0.03661333 0.00406230
v -0.01398291 -0.03076000 0.00406230
v -0.01398282 -0.03661333 0.05044000
v -0.01310681 -0.03160053 -0.00041011
v -0.01398291 -0.03098001 -0.00009137
v -0.01310681 -0.03076000 0.00406230
v -0.01310690 -0.03661333 0.05044000
v -0.01398291 -0.03076000 0.00060091
v -0.01398282 -0.03240038 0.05044000
v -0.01398282 -0.03160053 0.05041011
v -0.01398282 -0.03098001 0.05008639
v -0.01398282 -0.03076000 0.04939411
v -0.01310681 -0.03098001 -0.00009137
v -0.01310690 -0.03076000 0.04939411
v -0.01310690 -0.03098001 0.05008639
v -0.01310690 -0.03160053 0.05041011
v -0.01310690 -0.03240038 0.05044000
v -0.01310681 -0.03076000 0.00060091
f 1 2 5
f 1 5 3
f 1 3 7
f 1 7 13
f 1 13 9
f 1 9 4
f 1 4 8
f 1 8 14
f 1 14 11
f 1 11 6
f 1 6 2
f 2 6 10
f 2 10 5
f 3 5 10
f 3 10 19
f 3 19 24
f 3 24 12
f 3 12 7
f 4 9 15
f 4 15 8
f 6 11 19
f 6 19 10
f 7 12 23
f 7 23 13
f 8 15 16
f 8 16 17
f 8 17 18
f 8 18 20
f 8 20 12
f 8 12 24
f 8 24 14
f 9 13 23
f 9 23 15
f 11 14 24
f 11 24 19
f 12 20 21
f 12 21 22
f 12 22 23
f 15 23 22
f 15 22 16
f 16 22 21
f 16 21 17
f 17 21 20
f 17 20 18

