# https://github.com/mikedh/trimesh
v -0.00163180 0.00562203 0.03105714
v -0.00109774 0.00562203 0.03105714
v -0.00163228 0.00562203 0.03164094
v -0.00163228 0.00799967 0.03174263
v -0.00163102 0.00799734 0.03105714
v -0.00109774 0.00673661 0.03105714
v -0.00109774 0.00562203 0.05015468
v -0.00163228 0.00562203 0.05029592
v -0.00161496 0.00796825 0.03105714
v -0.00163228 0.00799967 0.04859916
v -0.00110496 0.00675569 0.03105714
v -0.00109774 0.00673661 0.04939952
v -0.00109774 0.00595229 0.05007747
v -0.00136098 0.00680015 0.05008312
v -0.00112312 0.00562203 0.05017351
v -0.00117544 0.00562203 0.05020929
v -0.00163228 0.00599604 0.05029404
v -0.00144967 0.00759680 0.03105714
v -0.00161496 0.00796825 0.04859916
v -0.00163228 0.00799897 0.04939952
v -0.00161532 0.00796825 0.04939952
v -0.00112192 0.00680015 0.03105714
v -0.00112192 0.00680015 0.04939952
v -0.00149127 0.00744552 0.04996824
v -0.00163228 0.00751744 0.05003039
v -0.00163228 0.00680015 0.05021871
v -0.00143695 0.00756818 0.03105714
v -0.00143695 0.00756818 0.04939952
v -0.00141440 0.00751348 0.03105714
f 1 2 7
f 1 7 15
f 1 15 16
f 1 16 8
f 1 8 3
f 1 3 4
f 1 4 5
f 1 5 9
f 1 9 18
f 1 18 27
f 1 27 29
f 1 29 22
f 1 22 11
f 1 11 6
f 1 6 2
f 2 6 12
f 2 12 13
f 2 13 7
f 3 8 17
f 3 17 26
f 3 26 25
f 3 25 20
f 3 20 10
f 3 10 4
f 4 9 5
f 4 10 19
f 4 19 9
f 6 11 12
f 7 13 14
f 7 14 15
f 8 16 17
f 9 19 18
f 10 20 21
f 10 21 19
f 11 22 23
f 11 23 12
f 12 23 24
f 12 24 13
f 13 24 14
f 14 24 25
f 14 25 26
f 14 26 16
f 14 16 15
f 16 26 17
f 18 19 28
f 18 28 27
f 19 21 28
f 20 25 24
f 20 24 21
f 21 24 28
f 22 29 23
f 23 28 24
f 23 29 28
f 27 28 29

