# https://github.com/mikedh/trimesh
v -0.03960005 -0.04044000 0.01165406
v -0.03959725 -0.04040584 0.01165406
v -0.03959725 -0.04044000 0.01165785
v -0.03960005 -0.04044000 0.04939629
v -0.04021997 -0.04021987 0.01165406
v -0.03959725 -0.03967713 0.01165406
v -0.03959725 -0.04044000 0.04939629
v -0.03960005 -0.04021987 0.05009037
v -0.04014663 -0.04014659 0.04999176
v -0.04021997 -0.04021987 0.04939629
v -0.04041261 -0.03967713 0.01165406
v -0.03962315 -0.03762545 0.01165406
v -0.03959725 -0.03967713 0.05035966
v -0.03959725 -0.04021987 0.05009037
v -0.03962315 -0.03967685 0.05035587
v -0.03967727 -0.03967685 0.05034070
v -0.03962315 -0.03960274 0.05038621
v -0.04020957 -0.03967685 0.05007900
v -0.04043992 -0.03959971 0.04939629
v -0.04041261 -0.03967713 0.04939629
v -0.04043992 -0.03959971 0.01165406
v -0.04043992 -0.03762545 0.01165406
v -0.03962315 -0.03762545 0.05040138
v -0.03962315 -0.03882996 0.05040138
v -0.03962315 -0.03962286 0.05037863
v -0.04021989 -0.03959971 0.05009037
v -0.04033688 -0.03762545 0.04972247
v -0.04043992 -0.03762545 0.04939629
v -0.03992981 -0.03762545 0.05024209
v -0.04021989 -0.03762545 0.05009037
f 1 2 3
f 1 3 7
f 1 7 4
f 1 4 10
f 1 10 5
f 1 5 11
f 1 11 21
f 1 21 22
f 1 22 12
f 1 12 6
f 1 6 2
f 2 6 13
f 2 13 14
f 2 14 7
f 2 7 3
f 4 7 14
f 4 14 8
f 4 8 9
f 4 9 10
f 5 10 20
f 5 20 11
f 6 12 23
f 6 23 13
f 8 14 13
f 8 13 15
f 8 15 9
f 9 15 16
f 9 16 17
f 9 17 18
f 9 18 19
f 9 19 20
f 9 20 10
f 11 20 19
f 11 19 21
f 12 22 28
f 12 28 27
f 12 27 30
f 12 30 29
f 12 29 23
f 13 23 24
f 13 24 17
f 13 17 25
f 13 25 15
f 15 25 16
f 16 25 17
f 17 24 26
f 17 26 18
f 18 26 19
f 19 26 27
f 19 27 28
f 19 28 22
f 19 22 21
f 23 29 24
f 24 29 26
f 26 29 30
f 26 30 27

