# https://github.com/mikedh/trimesh
v -0.03879836 0.02971680 -0.00043985
v -0.03931534 0.02971680 -0.00042271
v -0.03892080 0.03012107 -0.00043591
v -0.03879836 0.03012107 -0.00043985
v -0.01960205 0.02971680 -0.00043985
v -0.03959877 0.02971680 -0.00041331
v -0.03959877 0.03012107 -0.00041331
v -0.01960205 0.03012107 -0.00043985
v -0.01880163 0.03012107 -0.00041513
v -0.01880163 0.02999997 -0.00041059
v -0.01877896 0.02971680 -0.00032840
v -0.04000011 0.02971680 -0.00020649
v -0.04021779 0.03012107 -0.00009323
v -0.01799215 0.03012107 -0.00018163
v -0.01798988 0.02998889 -0.00013705
v -0.01810326 0.02971680 -0.00006624
v -0.04021779 0.02971680 -0.00009323
v -0.04025180 0.03012107 0.00001170
v -0.01767017 0.03012107 -0.00005396
v -0.01729150 0.03012107 0.00059986
v -0.01779715 0.02971680 0.00059986
v -0.04036064 0.02971680 0.00035453
v -0.04043774 0.03012107 0.00059986
v -0.01727563 0.03012107 0.00110903
v -0.01779488 0.02971680 0.00066749
v -0.04043774 0.02971680 0.00059986
v -0.04043774 0.03012107 0.00110903
v -0.01778581 0.02971680 0.00110903
v -0.04043774 0.02971680 0.00110903
f 1 2 3
f 1 3 4
f 1 4 8
f 1 8 5
f 1 5 11
f 1 11 16
f 1 16 21
f 1 21 25
f 1 25 28
f 1 28 29
f 1 29 26
f 1 26 22
f 1 22 17
f 1 17 12
f 1 12 6
f 1 6 2
f 2 6 3
f 3 6 7
f 3 7 13
f 3 13 18
f 3 18 23
f 3 23 27
f 3 27 24
f 3 24 20
f 3 20 19
f 3 19 14
f 3 14 9
f 3 9 8
f 3 8 4
f 5 8 9
f 5 9 10
f 5 10 11
f 6 12 7
f 7 12 13
f 9 14 10
f 10 14 11
f 11 14 15
f 11 15 16
f 12 17 13
f 13 17 18
f 14 19 15
f 15 19 16
f 16 19 20
f 16 20 21
f 17 22 18
f 18 22 23
f 20 24 25
f 20 25 21
f 22 26 23
f 23 26 29
f 23 29 27
f 24 28 25
f 24 27 29
f 24 29 28

