# https://github.com/mikedh/trimesh
v -0.00808456 0.00424351 0.02337203
v -0.00903205 0.00424351 0.02337203
v -0.00808456 0.00372222 0.02337203
v -0.00808456 0.01497442 0.02323451
v -0.00903205 0.00372222 0.02337203
v -0.00903205 0.01497442 0.02323451
v -0.00808456 -0.01335296 0.02336504
v -0.00808456 0.01497442 -0.00004842
v -0.00903205 -0.01335296 0.02336504
v -0.00903205 0.01497442 -0.00032579
v -0.00808456 -0.01335296 -0.00042135
v -0.00840017 0.01497442 -0.00017195
v -0.00808456 0.01478587 -0.00016030
v -0.00840017 0.01479973 -0.00027684
v -0.00903205 -0.01335296 -0.00043534
v -0.00857491 0.01497442 -0.00023954
v -0.00903205 0.01479973 -0.00039571
v -0.00840017 -0.01335296 -0.00043534
v -0.00808456 -0.01319491 -0.00043534
v -0.00808456 0.01448363 -0.00031646
v -0.00903205 0.00372222 -0.00044000
v -0.00903205 0.01463059 -0.00043067
v -0.00808456 0.00372222 -0.00044000
v -0.00808456 0.01399838 -0.00041436
v -0.00903205 0.00424351 -0.00044000
v -0.00840017 0.01399838 -0.00043767
v -0.00903205 0.01399838 -0.00043767
v -0.00808456 0.00424351 -0.00044000
v -0.00808456 0.01382369 -0.00042835
v -0.00822600 0.01382369 -0.00043767
v -0.00808456 0.01367951 -0.00043767
f 1 2 5
f 1 5 3
f 1 3 7
f 1 7 11
f 1 11 19
f 1 19 23
f 1 23 28
f 1 28 31
f 1 31 29
f 1 29 24
f 1 24 20
f 1 20 13
f 1 13 8
f 1 8 4
f 1 4 6
f 1 6 2
f 2 6 10
f 2 10 17
f 2 17 22
f 2 22 27
f 2 27 25
f 2 25 21
f 2 21 15
f 2 15 9
f 2 9 5
f 3 5 9
f 3 9 7
f 4 8 12
f 4 12 16
f 4 16 10
f 4 10 6
f 7 9 15
f 7 15 18
f 7 18 11
f 8 13 14
f 8 14 12
f 10 16 14
f 10 14 17
f 11 18 19
f 12 14 16
f 13 20 14
f 14 20 17
f 15 21 23
f 15 23 18
f 17 20 22
f 18 23 19
f 20 24 22
f 21 25 28
f 21 28 23
f 22 24 26
f 22 26 27
f 24 29 26
f 25 27 26
f 25 26 28
f 26 29 30
f 26 30 28
f 28 30 31
f 29 31 30

