# https://github.com/mikedh/trimesh
v -0.00954529 -0.01424220 -0.00043578
v -0.00954529 -0.01399999 -0.00044000
v -0.00920005 -0.01424220 -0.00043578
v -0.00954529 -0.01424220 0.01393211
v -0.00903205 -0.01399999 -0.00044000
v -0.00954529 -0.01304285 -0.00044000
v -0.00903205 -0.01424220 -0.00040483
v -0.00903205 -0.01424220 0.01393211
v -0.00954529 -0.01304285 0.01393211
v -0.00903205 -0.01304285 -0.00044000
v -0.00903205 -0.01304285 0.01393211
f 1 2 5
f 1 5 3
f 1 3 7
f 1 7 8
f 1 8 4
f 1 4 9
f 1 9 6
f 1 6 2
f 2 6 10
f 2 10 5
f 3 5 7
f 4 8 11
f 4 11 9
f 5 10 11
f 5 11 8
f 5 8 7
f 6 9 11
f 6 11 10

