# https://github.com/mikedh/trimesh
v -0.02919929 -0.02894713 0.02163636
v -0.04044000 -0.02894713 0.02163636
v -0.02919929 -0.02975279 0.02163636
v -0.02919929 -0.02894713 -0.00018285
v -0.04044000 -0.02894713 0.00060158
v -0.04044000 -0.02975381 0.02163636
v -0.03819208 -0.02975374 0.02163636
v -0.02919929 -0.02975374 0.02152400
v -0.02919929 -0.02894745 -0.00044000
v -0.02920039 -0.02894713 -0.00044000
v -0.04028926 -0.02894713 0.00012617
v -0.04044000 -0.02975381 0.00060158
v -0.03954765 -0.02975381 0.02163636
v -0.03819208 -0.02975381 0.02162124
v -0.02919929 -0.02975374 -0.00044000
v -0.03879945 -0.02894713 -0.00044000
v -0.04021884 -0.02894713 -0.00009208
v -0.04021884 -0.02975381 -0.00009208
v -0.03819208 -0.02975381 -0.00044000
v -0.03905252 -0.02894713 -0.00043136
v -0.03879945 -0.02975381 -0.00044000
v -0.03959937 -0.02894713 -0.00041191
v -0.03978972 -0.02975381 -0.00031466
v -0.03904592 -0.02975381 -0.00043136
v -0.03959937 -0.02975381 -0.00041191
f 1 2 6
f 1 6 13
f 1 13 7
f 1 7 3
f 1 3 8
f 1 8 15
f 1 15 9
f 1 9 4
f 1 4 10
f 1 10 16
f 1 16 20
f 1 20 22
f 1 22 17
f 1 17 11
f 1 11 5
f 1 5 2
f 2 5 12
f 2 12 6
f 3 7 8
f 4 9 10
f 5 11 12
f 6 12 18
f 6 18 23
f 6 23 25
f 6 25 24
f 6 24 21
f 6 21 19
f 6 19 14
f 6 14 13
f 7 13 14
f 7 14 8
f 8 14 19
f 8 19 15
f 9 15 19
f 9 19 21
f 9 21 16
f 9 16 10
f 11 17 18
f 11 18 12
f 16 21 20
f 17 22 23
f 17 23 18
f 20 24 25
f 20 25 22
f 20 21 24
f 22 25 23

