# https://github.com/mikedh/trimesh
v -0.01294537 -0.00611828 0.02378857
v -0.01134632 -0.00611828 0.02378857
v -0.01317996 -0.00611828 0.02379118
v -0.01317996 0.00041953 0.02379118
v -0.01283768 -0.00158353 0.02378857
v -0.01134632 0.00041953 0.02378857
v -0.01134632 -0.00611828 0.05044000
v -0.01317996 -0.00611828 0.05044000
v -0.01278993 0.00041953 0.02378857
v -0.01282565 -0.00107797 0.02378857
v -0.01317996 0.00041953 0.05044000
v -0.01134632 0.00041953 0.05044000
f 1 2 7
f 1 7 8
f 1 8 3
f 1 3 4
f 1 4 5
f 1 5 10
f 1 10 9
f 1 9 6
f 1 6 2
f 2 6 12
f 2 12 7
f 3 8 11
f 3 11 4
f 4 9 10
f 4 10 5
f 4 11 12
f 4 12 6
f 4 6 9
f 7 12 11
f 7 11 8

