# https://github.com/mikedh/trimesh
v -0.02328924 -0.03967714 0.05037352
v -0.03889893 -0.03967714 0.05037352
v -0.03552454 -0.04016894 0.05011959
v -0.02328924 -0.04021994 0.05009305
v -0.02328924 -0.03967714 0.01165406
v -0.03959627 -0.03967714 0.05035836
v -0.03959627 -0.04021994 0.05009305
v -0.02328924 -0.04044000 0.04939947
v -0.02328924 -0.04044000 0.01165406
v -0.04041095 -0.03967714 0.01165406
v -0.03967673 -0.03967714 0.05033562
v -0.04014609 -0.04014654 0.04999072
v -0.03959962 -0.04044000 0.04939947
v -0.03959962 -0.04044000 0.01165406
v -0.04021818 -0.04021994 0.01165406
v -0.04041095 -0.03967714 0.04939947
v -0.04020812 -0.03967714 0.05007411
v -0.04021818 -0.04021994 0.04939947
f 1 2 3
f 1 3 4
f 1 4 8
f 1 8 9
f 1 9 5
f 1 5 10
f 1 10 16
f 1 16 17
f 1 17 11
f 1 11 6
f 1 6 2
f 2 6 7
f 2 7 3
f 3 7 4
f 4 7 13
f 4 13 8
f 5 9 14
f 5 14 15
f 5 15 10
f 6 11 12
f 6 12 7
f 7 12 13
f 8 13 14
f 8 14 9
f 10 15 18
f 10 18 16
f 11 17 12
f 12 17 16
f 12 16 18
f 12 18 13
f 13 18 15
f 13 15 14

