# https://github.com/mikedh/trimesh
v -0.01773190 0.00114337 0.00228935
v -0.01773190 0.00114337 0.00136009
v -0.03171097 0.00114337 0.00228935
v -0.01773190 -0.00723725 0.00228935
v -0.01773190 -0.00723643 0.00136009
v -0.03171097 0.00114337 0.00136009
v -0.03171097 -0.00723725 0.00228935
v -0.01773190 -0.00723725 0.00144505
v -0.01783042 -0.00723725 0.00136009
v -0.03171097 -0.00723725 0.00136009
f 1 2 6
f 1 6 3
f 1 3 7
f 1 7 4
f 1 4 8
f 1 8 5
f 1 5 2
f 2 5 9
f 2 9 10
f 2 10 6
f 3 6 10
f 3 10 7
f 4 7 10
f 4 10 9
f 4 9 8
f 5 8 9

