# https://github.com/mikedh/trimesh
v -0.01841972 0.02882169 0.04860720
v -0.01842619 0.02882169 0.04939909
v -0.01873661 0.02724420 0.04939909
v -0.01841972 0.02882169 0.00140276
v -0.01843481 0.02882169 0.04941901
v -0.01896942 0.02724420 0.05009635
v -0.01883361 0.02724420 0.04970788
v -0.01873661 0.02724420 0.00060091
v -0.01842619 0.02882169 0.00060091
v -0.01879481 0.02882169 0.05013619
v -0.01924535 0.02724420 0.05023580
v -0.01896942 0.02724420 -0.00009635
v -0.01879481 0.02882169 -0.00013619
v -0.01910308 0.02882169 0.05027565
v -0.01960104 0.02724420 0.05041510
v -0.01960104 0.02724420 -0.00041510
v -0.01960104 0.02839998 -0.00043004
v -0.01960104 0.02882169 -0.00043502
v -0.01960104 0.02882169 0.05043502
v -0.01960104 0.02839998 0.05043004
v -0.02040080 0.02724420 0.05044000
v -0.02040080 0.02724420 -0.00044000
v -0.02040080 0.02882169 -0.00044000
v -0.01998044 0.02882169 0.05044000
v -0.03879953 0.02724420 0.05044000
v -0.03879953 0.02724420 -0.00044000
v -0.03879953 0.02882169 -0.00044000
v -0.03879953 0.02882169 0.05044000
v -0.03959929 0.02724420 0.05041012
v -0.03924360 0.02724420 -0.00042506
v -0.03921988 0.02882169 -0.00042506
v -0.03959929 0.02882169 0.05041012
v -0.03987521 0.02724420 0.05027066
v -0.03959929 0.02882169 -0.00041012
v -0.03959929 0.02724420 -0.00041012
v -0.03989246 0.02882169 0.05026070
v -0.04021797 0.02882169 0.05009137
v -0.04021797 0.02724420 0.05009137
v -0.04021797 0.02882169 -0.00009137
v -0.04021797 0.02724420 -0.00009137
v -0.04032360 0.02882169 0.04976266
v -0.04031713 0.02724420 0.04978258
v -0.04044000 0.02882169 0.00060091
v -0.04044000 0.02724420 0.00060091
v -0.04044000 0.02882169 0.04939909
v -0.04044000 0.02724420 0.04939909
f 1 2 3
f 1 3 8
f 1 8 4
f 1 4 9
f 1 9 13
f 1 13 18
f 1 18 23
f 1 23 27
f 1 27 31
f 1 31 34
f 1 34 39
f 1 39 43
f 1 43 45
f 1 45 41
f 1 41 37
f 1 37 36
f 1 36 32
f 1 32 28
f 1 28 24
f 1 24 19
f 1 19 14
f 1 14 10
f 1 10 5
f 1 5 2
f 2 5 6
f 2 6 7
f 2 7 3
f 3 7 6
f 3 6 11
f 3 11 15
f 3 15 21
f 3 21 25
f 3 25 29
f 3 29 33
f 3 33 38
f 3 38 42
f 3 42 46
f 3 46 44
f 3 44 40
f 3 40 35
f 3 35 30
f 3 30 26
f 3 26 22
f 3 22 16
f 3 16 12
f 3 12 8
f 4 8 9
f 5 10 6
f 6 10 11
f 8 12 9
f 9 12 13
f 10 14 15
f 10 15 11
f 12 16 13
f 13 16 17
f 13 17 18
f 14 19 20
f 14 20 15
f 15 20 21
f 16 22 17
f 17 22 18
f 18 22 23
f 19 24 21
f 19 21 20
f 21 24 28
f 21 28 25
f 22 26 27
f 22 27 23
f 25 28 32
f 25 32 29
f 26 30 27
f 27 30 31
f 29 32 33
f 30 34 31
f 30 35 34
f 32 36 33
f 33 36 37
f 33 37 38
f 34 35 40
f 34 40 39
f 37 41 38
f 38 41 42
f 39 40 44
f 39 44 43
f 41 45 46
f 41 46 42
f 43 44 46
f 43 46 45

