# https://github.com/mikedh/trimesh
v 0.04001110 -0.02596428 0.02863429
v 0.02059430 -0.02596255 0.02863429
v 0.04001110 -0.02675829 0.02863429
v 0.04001110 -0.02596255 0.02859444
v 0.01876194 -0.02596589 0.02863429
v 0.01876194 -0.02596255 0.02859444
v 0.04000901 -0.02732516 0.02863429
v 0.04001110 -0.02675829 -0.00019525
v 0.04001110 -0.02596255 -0.00019525
v 0.01874112 -0.02723126 0.02863144
v 0.01876194 -0.02600016 0.02863429
v 0.01874112 -0.02718177 0.02821308
v 0.01876194 -0.02596255 0.00060731
v 0.01873904 -0.02718191 0.00181969
v 0.03817873 -0.02732516 0.02863429
v 0.04000901 -0.02732516 0.00232912
v 0.04000693 -0.02732516 -0.00020094
v 0.04000693 -0.02675829 -0.00020094
v 0.03959673 -0.02675829 -0.00040869
v 0.03959465 -0.02596255 -0.00040585
v 0.01874112 -0.02732516 0.02863144
v 0.01873904 -0.02723126 0.00232912
v 0.01877860 -0.02675829 0.02863429
v 0.01873904 -0.02718191 0.00060162
v 0.01898266 -0.02596255 -0.00008710
v 0.01873904 -0.02732516 0.00057885
v 0.03959673 -0.02732516 -0.00040869
v 0.03879715 -0.02596255 -0.00044000
v 0.03955925 -0.02596255 -0.00040869
v 0.01873904 -0.02732516 0.00232912
v 0.01957401 -0.02596255 -0.00039162
v 0.01896600 -0.02732516 -0.00009564
v 0.03879715 -0.02732516 -0.00044000
v 0.02040274 -0.02596255 -0.00044000
v 0.01960316 -0.02596255 -0.00040585
v 0.01960316 -0.02732516 -0.00041723
v 0.02040274 -0.02732516 -0.00044000
f 1 2 5
f 1 5 11
f 1 11 23
f 1 23 15
f 1 15 7
f 1 7 3
f 1 3 8
f 1 8 9
f 1 9 4
f 1 4 2
f 2 4 9
f 2 9 20
f 2 20 29
f 2 29 28
f 2 28 34
f 2 34 35
f 2 35 31
f 2 31 25
f 2 25 13
f 2 13 6
f 2 6 5
f 3 7 16
f 3 16 8
f 5 10 21
f 5 21 11
f 5 6 12
f 5 12 10
f 6 13 24
f 6 24 14
f 6 14 12
f 7 15 21
f 7 21 30
f 7 30 26
f 7 26 32
f 7 32 36
f 7 36 37
f 7 37 33
f 7 33 27
f 7 27 17
f 7 17 16
f 8 17 18
f 8 18 9
f 8 16 17
f 9 18 19
f 9 19 20
f 10 12 22
f 10 22 30
f 10 30 21
f 11 21 23
f 12 14 22
f 13 25 26
f 13 26 24
f 14 24 26
f 14 26 30
f 14 30 22
f 15 23 21
f 17 27 19
f 17 19 18
f 19 27 33
f 19 33 28
f 19 28 29
f 19 29 20
f 25 31 32
f 25 32 26
f 28 33 37
f 28 37 34
f 31 35 36
f 31 36 32
f 34 37 36
f 34 36 35

