# https://github.com/mikedh/trimesh
v -0.00968336 0.01609624 0.04985435
v -0.00968336 0.01618123 0.04939783
v -0.00970459 0.01609624 0.04993783
v -0.00968336 0.01609624 0.02378857
v -0.01000036 0.01634634 0.04939783
v -0.00968336 0.01618123 0.02378857
v -0.01112117 0.01683218 0.04986739
v -0.01000036 0.01617319 0.05001609
v -0.00991410 0.01609624 0.05002391
v -0.01241725 0.01609624 0.02378857
v -0.01000036 0.01634634 0.02378857
v -0.01068195 0.01667712 0.04939783
v -0.01159975 0.01691789 0.04998739
v -0.01108180 0.01684826 0.04939783
v -0.01159975 0.01703605 0.04939783
v -0.01207868 0.01720259 0.04939783
v -0.01239979 0.01731414 0.04939783
v -0.01305365 0.01752677 0.04939783
v -0.01318032 0.01756266 0.04939783
v -0.01083292 0.01643090 0.05008913
v -0.01159975 0.01640003 0.05030826
v -0.01000036 0.01609624 0.05005783
v -0.01318032 0.01756266 0.02378857
v -0.01318032 0.01609624 0.02379118
v -0.01068195 0.01667712 0.02378857
v -0.01068777 0.01667971 0.02378857
v -0.01239979 0.01705715 0.05009435
v -0.01108180 0.01684826 0.02378857
v -0.01159975 0.01703605 0.02378857
v -0.01238849 0.01731041 0.02378857
v -0.01239979 0.01731414 0.02378857
v -0.01304407 0.01752375 0.02378857
v -0.01305365 0.01752677 0.02378857
v -0.01318032 0.01724092 0.05009174
v -0.01081957 0.01609624 0.05022478
v -0.01207868 0.01640018 0.05037086
v -0.01159975 0.01609624 0.05035782
v -0.01318032 0.01609624 0.05043869
v -0.01239979 0.01640018 0.05040999
v -0.01318032 0.01640018 0.05043608
v -0.01239979 0.01609624 0.05042304
f 1 2 3
f 1 3 9
f 1 9 22
f 1 22 35
f 1 35 37
f 1 37 41
f 1 41 38
f 1 38 24
f 1 24 10
f 1 10 4
f 1 4 6
f 1 6 2
f 2 5 3
f 2 6 11
f 2 11 5
f 3 5 7
f 3 7 8
f 3 8 9
f 4 10 23
f 4 23 33
f 4 33 32
f 4 32 31
f 4 31 30
f 4 30 29
f 4 29 28
f 4 28 26
f 4 26 25
f 4 25 11
f 4 11 6
f 5 11 25
f 5 25 12
f 5 12 7
f 7 13 8
f 7 12 14
f 7 14 15
f 7 15 16
f 7 16 17
f 7 17 18
f 7 18 19
f 7 19 13
f 8 20 21
f 8 21 22
f 8 22 9
f 8 13 20
f 10 24 23
f 12 25 26
f 12 26 14
f 13 27 21
f 13 21 20
f 13 19 27
f 14 26 28
f 14 28 29
f 14 29 15
f 15 29 30
f 15 30 16
f 16 30 17
f 17 30 31
f 17 31 32
f 17 32 18
f 18 32 33
f 18 33 23
f 18 23 19
f 19 34 27
f 19 23 24
f 19 24 38
f 19 38 40
f 19 40 34
f 21 35 22
f 21 27 36
f 21 36 37
f 21 37 35
f 27 34 39
f 27 39 36
f 34 40 39
f 36 39 37
f 37 39 41
f 38 41 40
f 39 40 41

