# https://github.com/mikedh/trimesh
v -0.01721611 -0.04043971 0.02696125
v -0.01721611 -0.03998840 0.02696125
v -0.01681090 -0.04043971 0.02696125
v -0.01721611 -0.04043971 0.04939430
v -0.01681090 -0.03998840 0.02696125
v -0.01721611 -0.03788789 0.02696354
v -0.01718925 -0.03746541 0.02696354
v -0.01681090 -0.04043971 0.04939430
v -0.01681090 -0.04033285 0.04973444
v -0.01721611 -0.04022425 0.05007688
v -0.01710267 -0.03746541 0.02696354
v -0.01681090 -0.03832232 0.02696354
v -0.01721611 -0.03746541 0.02696584
v -0.01681090 -0.04021988 0.05009067
v -0.01721611 -0.04021988 0.05009067
v -0.01681090 -0.03746541 0.02696584
v -0.01721611 -0.03746541 0.05044000
v -0.01681090 -0.03959998 0.05041012
v -0.01721611 -0.03959998 0.05041012
v -0.01681090 -0.03746541 0.05044000
v -0.01721611 -0.03880013 0.05044000
v -0.01681090 -0.03932249 0.05042161
v -0.01721611 -0.03932249 0.05042161
v -0.01681090 -0.03880013 0.05044000
f 1 2 5
f 1 5 3
f 1 3 8
f 1 8 4
f 1 4 10
f 1 10 15
f 1 15 19
f 1 19 23
f 1 23 21
f 1 21 17
f 1 17 13
f 1 13 6
f 1 6 2
f 2 6 7
f 2 7 11
f 2 11 5
f 3 5 12
f 3 12 16
f 3 16 20
f 3 20 24
f 3 24 22
f 3 22 18
f 3 18 14
f 3 14 9
f 3 9 8
f 4 8 9
f 4 9 10
f 5 11 12
f 6 13 7
f 7 13 17
f 7 17 20
f 7 20 16
f 7 16 11
f 9 14 15
f 9 15 10
f 11 16 12
f 14 18 19
f 14 19 15
f 17 21 24
f 17 24 20
f 18 22 23
f 18 23 19
f 21 23 22
f 21 22 24

