# https://github.com/mikedh/trimesh
v 0.01876228 -0.00615692 0.02767019
v 0.02042817 -0.00615692 0.02767019
v 0.01876228 -0.00615692 0.03417540
v 0.01876228 0.01816676 0.02767019
v 0.03321197 -0.00615453 0.02767019
v 0.04044000 -0.00615692 0.02767083
v 0.04044000 -0.00615692 0.03417540
v 0.01876228 0.01816676 0.03417540
v 0.02042817 0.01816915 0.02767019
v 0.03321197 0.01816915 0.02767019
v 0.04044000 0.01816915 0.02767083
v 0.04044000 0.01816915 0.03417540
v 0.02042817 0.01816915 0.03417540
f 1 2 6
f 1 6 7
f 1 7 3
f 1 3 8
f 1 8 4
f 1 4 9
f 1 9 10
f 1 10 5
f 1 5 2
f 2 5 6
f 3 7 12
f 3 12 13
f 3 13 8
f 4 8 13
f 4 13 9
f 5 10 11
f 5 11 6
f 6 11 12
f 6 12 7
f 9 13 12
f 9 12 11
f 9 11 10

