# https://github.com/mikedh/trimesh
v 0.03005054 -0.02965168 0.05044000
v 0.01960157 -0.02965168 0.05044000
v 0.03005054 -0.03045861 0.05044000
v 0.03005054 -0.02965168 0.02863429
v 0.01914207 -0.03045861 0.05044000
v 0.01914982 -0.02965168 0.05042292
v 0.01873904 -0.03045861 0.05042506
v 0.03005054 -0.03045861 0.02863429
v 0.01873904 -0.02965168 0.02863429
v 0.01877225 -0.02965168 0.05030553
v 0.01873904 -0.03006083 0.05040798
v 0.01873904 -0.03045861 0.02863429
v 0.01873904 -0.02965168 0.05029485
f 1 2 5
f 1 5 3
f 1 3 8
f 1 8 4
f 1 4 9
f 1 9 13
f 1 13 10
f 1 10 6
f 1 6 2
f 2 6 7
f 2 7 5
f 3 5 7
f 3 7 12
f 3 12 8
f 4 8 12
f 4 12 9
f 6 10 11
f 6 11 7
f 7 11 13
f 7 13 9
f 7 9 12
f 10 13 11

