# https://github.com/mikedh/trimesh
v -0.00614601 0.01159888 0.05043993
v -0.00614601 0.01239908 0.05042260
v -0.00674595 0.01239908 0.05043851
v -0.00674595 0.01159888 0.05043993
v -0.00614601 -0.01174525 0.05043993
v -0.00614601 0.01256120 0.05036971
v -0.00674595 0.01256120 0.05041759
v -0.00674595 -0.01234408 0.05043993
v -0.00614601 -0.01175570 0.05043966
v -0.00614601 0.01256120 0.04974819
v -0.00674595 0.01256120 0.04974819
v -0.00674595 -0.01239900 0.05043851
v -0.00614601 -0.01239900 0.05042260
v -0.00614601 -0.01373265 0.04974819
v -0.00674595 -0.01415366 0.04974819
v -0.00674595 -0.01314427 0.05041643
v -0.00614601 -0.01254544 0.05041826
v -0.00614601 -0.01369865 0.04988078
v -0.00619610 -0.01377972 0.04974819
v -0.00639185 -0.01393923 0.04974819
v -0.00623023 -0.01374834 0.04998175
v -0.00674595 -0.01397846 0.05009931
v -0.00674595 -0.01319919 0.05039862
v -0.00614601 -0.01321749 0.05020278
v -0.00614601 -0.01357313 0.05003728
v -0.00674595 -0.01394708 0.05011732
v -0.00614601 -0.01337962 0.05014129
v -0.00614601 -0.01338747 0.05013737
f 1 2 3
f 1 3 4
f 1 4 8
f 1 8 5
f 1 5 9
f 1 9 13
f 1 13 17
f 1 17 24
f 1 24 27
f 1 27 28
f 1 28 25
f 1 25 18
f 1 18 14
f 1 14 10
f 1 10 6
f 1 6 2
f 2 6 7
f 2 7 3
f 3 7 11
f 3 11 15
f 3 15 22
f 3 22 26
f 3 26 23
f 3 23 16
f 3 16 12
f 3 12 8
f 3 8 4
f 5 8 12
f 5 12 9
f 6 10 11
f 6 11 7
f 9 12 13
f 10 14 19
f 10 19 20
f 10 20 15
f 10 15 11
f 12 16 17
f 12 17 13
f 14 18 19
f 15 20 21
f 15 21 22
f 16 23 24
f 16 24 17
f 18 21 19
f 18 25 21
f 19 21 20
f 21 25 26
f 21 26 22
f 23 26 24
f 24 26 27
f 25 28 26
f 26 28 27

