# https://github.com/mikedh/trimesh
v -0.01871622 0.02759672 0.01819624
v -0.01871622 0.02759672 0.00540264
v -0.01871834 0.02759672 0.02379593
v -0.01876300 0.02669397 0.02508779
v -0.01876087 0.02669397 0.01900833
v -0.01876087 0.02669397 0.00536766
v -0.01872047 0.02759672 0.00060255
v -0.01872685 0.02759672 0.02508779
v -0.04044000 0.02669397 0.02508779
v -0.01876513 0.02669397 0.00060255
v -0.01895438 0.02669397 0.00000035
v -0.01898415 0.02669397 -0.00009211
v -0.01896288 0.02759672 -0.00009710
v -0.04044000 0.02759672 0.02508779
v -0.04044000 0.02669397 0.00060255
v -0.01952214 0.02669397 -0.00036947
v -0.01960507 0.02669397 -0.00041194
v -0.01960507 0.02759672 -0.00041694
v -0.04044000 0.02759672 0.00060255
v -0.04021672 0.02669397 -0.00009211
v -0.02040462 0.02669397 -0.00043943
v -0.02040462 0.02759672 -0.00043943
v -0.04021672 0.02759672 -0.00009211
v -0.03959793 0.02669397 -0.00041194
v -0.03879838 0.02669397 -0.00043943
v -0.03879838 0.02759672 -0.00043943
v -0.03959793 0.02759672 -0.00041194
f 1 2 7
f 1 7 13
f 1 13 18
f 1 18 22
f 1 22 26
f 1 26 27
f 1 27 23
f 1 23 19
f 1 19 14
f 1 14 8
f 1 8 3
f 1 3 4
f 1 4 5
f 1 5 6
f 1 6 2
f 2 6 7
f 3 8 4
f 4 8 14
f 4 14 9
f 4 9 15
f 4 15 20
f 4 20 24
f 4 24 25
f 4 25 21
f 4 21 17
f 4 17 16
f 4 16 12
f 4 12 11
f 4 11 10
f 4 10 6
f 4 6 5
f 6 10 7
f 7 10 11
f 7 11 12
f 7 12 13
f 9 14 19
f 9 19 15
f 12 16 13
f 13 16 17
f 13 17 18
f 15 19 23
f 15 23 20
f 17 21 18
f 18 21 22
f 20 23 27
f 20 27 24
f 21 25 26
f 21 26 22
f 24 27 26
f 24 26 25

