# https://github.com/mikedh/trimesh
v -0.03879912 0.03012111 -0.00043928
v -0.03892017 0.03012111 -0.00043566
v -0.03879912 0.03062546 -0.00043928
v -0.02326626 0.03012111 -0.00043928
v -0.03959939 0.03012111 -0.00041326
v -0.03942454 0.03062546 -0.00041904
v -0.02326626 0.03062546 -0.00043928
v -0.02326626 0.03012111 0.00694394
v -0.03969353 0.03012111 -0.00036483
v -0.03959939 0.03062546 -0.00041326
v -0.02326626 0.03062546 0.00694394
v -0.04044000 0.03012111 0.00694394
v -0.04021976 0.03012111 -0.00009306
v -0.04021976 0.03062546 -0.00009306
v -0.04044000 0.03062546 0.00694394
v -0.04044000 0.03012111 0.00060008
v -0.04044000 0.03062546 0.00060008
f 1 2 3
f 1 3 7
f 1 7 4
f 1 4 8
f 1 8 12
f 1 12 16
f 1 16 13
f 1 13 9
f 1 9 5
f 1 5 2
f 2 5 6
f 2 6 3
f 3 6 10
f 3 10 14
f 3 14 17
f 3 17 15
f 3 15 11
f 3 11 7
f 4 7 11
f 4 11 8
f 5 9 10
f 5 10 6
f 8 11 15
f 8 15 12
f 9 13 14
f 9 14 10
f 12 15 17
f 12 17 16
f 13 16 17
f 13 17 14

