# https://github.com/mikedh/trimesh
v 0.01479473 -0.03240170 0.05044000
v 0.00445195 -0.03240075 0.05044000
v 0.01479473 -0.03879899 0.05044000
v 0.01479473 -0.03160109 0.05041012
v -0.01396462 -0.03240075 0.05044000
v -0.01396462 -0.03879899 0.05044000
v 0.00445195 -0.03954559 0.05041510
v 0.01479473 -0.03960244 0.05041012
v 0.00445195 -0.03155940 0.05039020
v -0.01396462 -0.03160109 0.05041012
v 0.01479473 -0.03098145 0.05009137
v -0.01396462 -0.03959865 0.05041012
v -0.01396462 -0.04019082 0.05010631
v 0.01479473 -0.04021830 0.05009137
v -0.01396462 -0.03098145 0.05009137
v 0.01479473 -0.03076164 0.04940407
v 0.00445195 -0.03096629 0.05004655
v -0.01396462 -0.04021830 0.05009137
v 0.01479473 -0.04022019 0.05008639
v -0.01396462 -0.03076164 0.04939909
v 0.01479473 -0.03076164 0.00060091
v -0.01396462 -0.04043905 0.04939909
v 0.01479473 -0.04043905 0.04939909
v -0.01396462 -0.03076164 0.00060091
v 0.01479473 -0.03097955 -0.00008639
v -0.01396462 -0.04043905 0.00060091
v 0.01479473 -0.04043905 0.00060091
v -0.01396462 -0.03077111 0.00057103
v 0.01479473 -0.03098145 -0.00009137
v -0.01396462 -0.03098145 -0.00009137
v -0.01396462 -0.04021830 -0.00009137
v 0.00445195 -0.04023345 -0.00004655
v 0.01479473 -0.04021830 -0.00009137
v 0.01479473 -0.03159730 -0.00041012
v -0.01396462 -0.03100893 -0.00010631
v -0.01396462 -0.03959865 -0.00041012
v 0.00445195 -0.03964034 -0.00039020
v 0.01479473 -0.03959865 -0.00041012
v 0.01479473 -0.03240170 -0.00044000
v 0.00445195 -0.03165415 -0.00041510
v -0.01396462 -0.03160109 -0.00041012
v -0.01396462 -0.03879899 -0.00044000
v 0.01479473 -0.03879899 -0.00044000
v 0.00445195 -0.03240075 -0.00044000
v -0.01396462 -0.03240075 -0.00044000
f 1 2 5
f 1 5 6
f 1 6 3
f 1 3 8
f 1 8 14
f 1 14 19
f 1 19 23
f 1 23 27
f 1 27 33
f 1 33 38
f 1 38 43
f 1 43 39
f 1 39 34
f 1 34 29
f 1 29 25
f 1 25 21
f 1 21 16
f 1 16 11
f 1 11 4
f 1 4 2
f 2 4 10
f 2 10 5
f 3 6 7
f 3 7 8
f 4 9 10
f 4 11 9
f 5 10 15
f 5 15 20
f 5 20 24
f 5 24 28
f 5 28 30
f 5 30 35
f 5 35 41
f 5 41 45
f 5 45 42
f 5 42 36
f 5 36 31
f 5 31 26
f 5 26 22
f 5 22 18
f 5 18 13
f 5 13 12
f 5 12 6
f 6 12 7
f 7 12 8
f 8 12 13
f 8 13 14
f 9 11 15
f 9 15 10
f 11 16 17
f 11 17 15
f 13 18 14
f 14 18 19
f 15 17 16
f 15 16 20
f 16 21 24
f 16 24 20
f 18 22 19
f 19 22 23
f 21 25 28
f 21 28 24
f 22 26 27
f 22 27 23
f 25 29 30
f 25 30 28
f 26 31 32
f 26 32 27
f 27 32 33
f 29 34 35
f 29 35 30
f 31 36 37
f 31 37 33
f 31 33 32
f 33 37 38
f 34 39 40
f 34 40 41
f 34 41 35
f 36 42 43
f 36 43 38
f 36 38 37
f 39 43 42
f 39 42 45
f 39 45 44
f 39 44 40
f 40 44 45
f 40 45 41

