# https://github.com/mikedh/trimesh
v -0.00274400 -0.00993347 0.00060115
v -0.00229211 -0.00899223 0.00004144
v -0.00246163 -0.00948813 0.00060115
v -0.00274400 -0.00993347 0.02378857
v -0.00274400 -0.00923532 -0.00014592
v -0.00212715 -0.00839909 -0.00007951
v -0.00163238 -0.00751231 -0.00002734
v -0.00163793 -0.00800821 0.00060115
v -0.00185382 -0.00839909 0.00060115
v -0.00185349 -0.00839909 0.00140038
v -0.00185001 -0.00839326 0.02378857
v -0.00246163 -0.00948813 0.02378857
v -0.00274400 -0.00800821 0.02378857
v -0.00274400 -0.00839909 -0.00037359
v -0.00200017 -0.00679665 -0.00040205
v -0.00163238 -0.00679665 -0.00021707
v -0.00163238 -0.00799654 0.00060352
v -0.00163750 -0.00800821 0.00140038
v -0.00163750 -0.00800821 0.02378857
v -0.00274378 0.00765640 0.02378857
v -0.00274378 0.00993365 0.02378620
v -0.00274400 -0.00800821 -0.00039257
v -0.00274378 -0.00760176 -0.00041865
v -0.00200017 -0.00599738 -0.00043526
v -0.00163238 -0.00439883 -0.00042340
v -0.00163238 -0.00519616 -0.00038545
v -0.00163238 -0.00799654 0.02378857
v -0.00163238 0.00765640 0.02378857
v -0.00274378 0.00993365 0.00060589
v -0.00246142 0.00948637 0.02378620
v -0.00274378 0.00923356 -0.00014592
v -0.00274378 0.00839734 -0.00037122
v -0.00274378 0.00835066 -0.00038308
v -0.00274378 0.00754167 -0.00043526
v -0.00274378 0.00594312 -0.00044000
v -0.00274378 -0.00519616 -0.00044000
v -0.00274378 -0.00679665 -0.00043526
v -0.00274378 0.00975863 0.00027386
v -0.00163238 -0.00359567 -0.00043526
v -0.00200017 -0.00519616 -0.00044000
v -0.00163238 0.00799673 0.02378620
v -0.00185371 0.00839734 0.02378620
v -0.00246142 0.00948637 0.00060589
v -0.00229200 0.00899047 0.00004144
v -0.00212726 0.00839734 -0.00007477
v -0.00200028 0.00679879 -0.00040205
v -0.00200017 0.00638068 -0.00042103
v -0.00200017 0.00599757 -0.00043526
v -0.00200017 0.00569614 -0.00043763
v -0.00200017 0.00519829 -0.00044000
v -0.00163238 -0.00279445 -0.00044000
v -0.00163238 0.00799673 0.00060589
v -0.00185371 0.00839734 0.00140276
v -0.00185392 0.00839734 0.00060589
v -0.00163238 0.00798117 0.00058455
v -0.00163238 0.00751638 -0.00002734
v -0.00163238 0.00721495 -0.00011271
v -0.00192737 0.00765640 -0.00015778
v -0.00163238 0.00679879 -0.00021707
v -0.00163238 0.00644680 -0.00027161
v -0.00163238 0.00563002 -0.00038545
v -0.00163238 0.00482880 -0.00042340
v -0.00163238 0.00402953 -0.00043526
v -0.00163238 0.00323025 -0.00044000
f 1 2 3
f 1 3 12
f 1 12 4
f 1 4 13
f 1 13 22
f 1 22 14
f 1 14 5
f 1 5 2
f 2 6 7
f 2 7 8
f 2 8 9
f 2 9 3
f 2 5 6
f 3 9 10
f 3 10 11
f 3 11 12
f 4 12 11
f 4 11 19
f 4 19 27
f 4 27 28
f 4 28 20
f 4 20 13
f 5 14 6
f 6 14 15
f 6 15 16
f 6 16 7
f 7 17 8
f 7 16 26
f 7 26 25
f 7 25 39
f 7 39 51
f 7 51 64
f 7 64 63
f 7 63 62
f 7 62 61
f 7 61 60
f 7 60 59
f 7 59 57
f 7 57 56
f 7 56 55
f 7 55 52
f 7 52 41
f 7 41 28
f 7 28 27
f 7 27 17
f 8 17 18
f 8 18 9
f 9 18 10
f 10 18 11
f 11 18 19
f 13 20 21
f 13 21 29
f 13 29 22
f 14 22 23
f 14 23 15
f 15 23 24
f 15 24 25
f 15 25 26
f 15 26 16
f 17 27 19
f 17 19 18
f 20 28 21
f 21 28 30
f 21 30 43
f 21 43 29
f 22 31 32
f 22 32 33
f 22 33 34
f 22 34 35
f 22 35 36
f 22 36 37
f 22 37 23
f 22 29 38
f 22 38 31
f 23 37 24
f 24 39 25
f 24 37 40
f 24 40 51
f 24 51 39
f 28 41 42
f 28 42 30
f 29 43 44
f 29 44 38
f 30 42 53
f 30 53 43
f 31 38 44
f 31 44 45
f 31 45 32
f 32 45 33
f 33 46 34
f 33 45 46
f 34 47 48
f 34 48 49
f 34 49 50
f 34 50 35
f 34 46 47
f 35 50 64
f 35 64 51
f 35 51 40
f 35 40 36
f 36 40 37
f 41 52 53
f 41 53 42
f 43 53 54
f 43 54 44
f 44 54 52
f 44 52 55
f 44 55 56
f 44 56 45
f 45 56 57
f 45 57 58
f 45 58 46
f 46 58 59
f 46 59 60
f 46 60 61
f 46 61 62
f 46 62 47
f 47 62 48
f 48 62 63
f 48 63 49
f 49 64 50
f 49 63 64
f 52 54 53
f 57 59 58

