# https://github.com/mikedh/trimesh
v -0.03492422 -0.04044000 0.04879313
v -0.03492422 -0.04044000 0.04940001
v -0.03492422 -0.03967714 0.04879313
v -0.02791216 -0.04044000 0.04879313
v -0.03492422 -0.04025429 0.04998508
v -0.02791216 -0.04044000 0.04940001
v -0.03492422 -0.03967714 0.05037352
v -0.02791216 -0.03967714 0.04879313
v -0.03492422 -0.04021994 0.05009321
v -0.02791216 -0.04021994 0.05009321
v -0.03492422 -0.03976197 0.05032974
v -0.02791216 -0.03967714 0.05037352
v -0.02791216 -0.03988899 0.05026415
f 1 2 5
f 1 5 9
f 1 9 11
f 1 11 7
f 1 7 3
f 1 3 8
f 1 8 4
f 1 4 6
f 1 6 2
f 2 6 5
f 3 7 12
f 3 12 8
f 4 8 12
f 4 12 13
f 4 13 10
f 4 10 6
f 5 6 10
f 5 10 9
f 7 11 12
f 9 10 13
f 9 13 11
f 11 13 12

