# https://github.com/mikedh/trimesh
v -0.00903205 -0.01335296 0.02337208
v -0.00903205 -0.01335296 0.02378853
v -0.00903205 0.00424629 0.02323765
v -0.00808456 -0.01335296 0.02337208
v -0.00808456 -0.01335296 0.02378853
v -0.00903205 0.00424629 0.02378853
v -0.00903205 0.01497442 0.02323765
v -0.00808456 0.00424629 0.02323765
v -0.00808456 0.00424629 0.02378853
v -0.00903205 0.01497442 0.02378848
v -0.00808456 0.01497442 0.02323765
v -0.00808456 0.01497442 0.02378848
f 1 2 6
f 1 6 10
f 1 10 7
f 1 7 3
f 1 3 8
f 1 8 4
f 1 4 5
f 1 5 2
f 2 5 9
f 2 9 6
f 3 7 11
f 3 11 8
f 4 8 11
f 4 11 12
f 4 12 9
f 4 9 5
f 6 9 12
f 6 12 10
f 7 10 12
f 7 12 11

