# https://github.com/mikedh/trimesh
v 0.01873904 -0.02965162 0.02863563
v 0.01873904 -0.02911362 0.02863563
v 0.04043788 -0.02965162 0.02863563
v 0.01873904 -0.02965162 0.04054228
v 0.01873904 -0.02911362 0.04054228
v 0.04043788 -0.02911362 0.02863563
v 0.04043788 -0.02965162 0.04054228
v 0.01873904 -0.02965157 0.04231555
v 0.01873904 -0.02911367 0.04231555
v 0.04043788 -0.02911362 0.04054228
v 0.04043788 -0.02965157 0.04231555
v 0.04043788 -0.02911367 0.04231555
f 1 2 6
f 1 6 3
f 1 3 7
f 1 7 4
f 1 4 8
f 1 8 9
f 1 9 5
f 1 5 2
f 2 5 10
f 2 10 6
f 3 6 10
f 3 10 12
f 3 12 11
f 3 11 7
f 4 7 11
f 4 11 8
f 5 9 12
f 5 12 10
f 8 11 12
f 8 12 9

