# https://github.com/mikedh/trimesh
v -0.04044000 0.02759804 0.00330392
v -0.04044000 0.02882393 0.00330392
v -0.03996574 0.02759684 0.00330392
v -0.04044000 0.02759684 0.00380030
v -0.04044000 0.02882393 0.01094023
v -0.01841901 0.02882393 0.00330392
v -0.01919939 0.02759684 0.00330392
v -0.04044000 0.02759684 0.01019940
v -0.04044000 0.02759984 0.01094023
v -0.01841901 0.02882393 0.01094023
v -0.01841685 0.02882393 0.00460692
v -0.01871650 0.02760008 0.00460019
v -0.01872512 0.02759876 0.00330392
v -0.01872297 0.02759684 0.00380030
v -0.03883612 0.02759684 0.01094023
v -0.01872297 0.02759708 0.01094023
v -0.01871650 0.02760008 0.00620071
v -0.01871650 0.02759684 0.00540008
v -0.01841685 0.02882393 0.00540008
v -0.01871866 0.02759684 0.00460019
v -0.01872728 0.02759684 0.01019940
v -0.01872297 0.02759684 0.00939951
f 1 2 6
f 1 6 13
f 1 13 7
f 1 7 3
f 1 3 4
f 1 4 8
f 1 8 9
f 1 9 5
f 1 5 2
f 2 5 10
f 2 10 19
f 2 19 11
f 2 11 6
f 3 7 14
f 3 14 20
f 3 20 18
f 3 18 22
f 3 22 21
f 3 21 15
f 3 15 8
f 3 8 4
f 5 9 15
f 5 15 16
f 5 16 10
f 6 11 12
f 6 12 13
f 7 13 14
f 8 15 9
f 10 16 17
f 10 17 18
f 10 18 19
f 11 19 18
f 11 18 12
f 12 18 20
f 12 20 14
f 12 14 13
f 15 21 16
f 16 21 22
f 16 22 18
f 16 18 17

