# https://github.com/mikedh/trimesh
v -0.00463869 0.00999548 0.05044000
v -0.00515531 0.00999548 0.05044000
v -0.00463869 -0.01023549 0.05044000
v -0.00463869 0.01079754 0.05040717
v -0.00515531 0.01079754 0.05043701
v -0.00515531 -0.01074861 0.05044000
v -0.00515531 -0.01155067 0.05041911
v -0.00463869 -0.01103506 0.05040418
v -0.00463869 0.01160459 0.05022511
v -0.00515531 0.01159961 0.05040418
v -0.00515531 -0.01167273 0.05038180
v -0.00463869 -0.01187449 0.05014004
v -0.00463869 0.01218247 0.04998783
v -0.00515531 0.01241662 0.05014303
v -0.00515531 -0.01240754 0.05014900
v -0.00515531 -0.01241750 0.05014452
v -0.00463869 -0.01218336 0.04998932
v -0.00463869 0.01236431 0.04939687
v -0.00482742 0.01256109 0.04939687
v -0.00504143 0.01256109 0.04973712
v -0.00515531 0.01256109 0.04991023
v -0.00515531 -0.01280608 0.04966400
v -0.00463869 -0.01219332 0.04996843
v -0.00463869 0.01236431 0.03580189
v -0.00482742 0.01256109 0.03519451
v -0.00515531 0.01256109 0.03519451
v -0.00515531 -0.01288579 0.04939836
v -0.00493341 -0.01266908 0.04939836
v -0.00463869 -0.01236519 0.04939836
v -0.00463914 0.01236431 0.03519451
v -0.00463869 0.01184371 0.03519451
v -0.00515531 -0.01288579 0.03519451
v -0.00493341 -0.01266908 0.03519451
v -0.00463869 -0.01236519 0.03519451
f 1 2 6
f 1 6 3
f 1 3 8
f 1 8 12
f 1 12 17
f 1 17 23
f 1 23 29
f 1 29 34
f 1 34 31
f 1 31 24
f 1 24 18
f 1 18 13
f 1 13 9
f 1 9 4
f 1 4 10
f 1 10 5
f 1 5 2
f 2 5 10
f 2 10 14
f 2 14 21
f 2 21 26
f 2 26 32
f 2 32 27
f 2 27 22
f 2 22 16
f 2 16 15
f 2 15 11
f 2 11 7
f 2 7 6
f 3 6 7
f 3 7 8
f 4 9 10
f 7 11 8
f 8 11 12
f 9 13 14
f 9 14 10
f 11 15 12
f 12 15 16
f 12 16 17
f 13 18 19
f 13 19 20
f 13 20 21
f 13 21 14
f 16 22 17
f 17 22 23
f 18 24 25
f 18 25 19
f 19 25 26
f 19 26 21
f 19 21 20
f 22 27 28
f 22 28 23
f 23 28 29
f 24 30 25
f 24 31 30
f 25 30 31
f 25 31 34
f 25 34 33
f 25 33 32
f 25 32 26
f 27 32 33
f 27 33 28
f 28 33 34
f 28 34 29

