# https://github.com/mikedh/trimesh
v -0.01213451 0.03837846 0.04801714
v -0.01213451 0.03837846 0.05044000
v -0.01213451 0.04043980 0.04801714
v 0.00442038 0.03837846 0.04801714
v -0.01213451 0.03880001 0.05044000
v 0.00442038 0.03837846 0.05044000
v -0.01213451 0.04043980 0.04939980
v 0.00442038 0.04043980 0.04801714
v -0.01213451 0.03959993 0.05041320
v 0.00442038 0.03880001 0.05044000
v -0.01213451 0.04029289 0.04986322
v 0.00442038 0.04043980 0.04939980
v -0.01213451 0.04021985 0.05009327
v 0.00442038 0.03959993 0.05041320
v 0.00442038 0.03961567 0.05040514
v 0.00442038 0.04022550 0.05007548
v 0.00442038 0.04021985 0.05009327
f 1 2 5
f 1 5 9
f 1 9 13
f 1 13 11
f 1 11 7
f 1 7 3
f 1 3 8
f 1 8 4
f 1 4 6
f 1 6 2
f 2 6 10
f 2 10 5
f 3 7 12
f 3 12 8
f 4 8 12
f 4 12 16
f 4 16 17
f 4 17 15
f 4 15 14
f 4 14 10
f 4 10 6
f 5 10 14
f 5 14 9
f 7 11 12
f 9 14 15
f 9 15 13
f 11 13 16
f 11 16 12
f 13 15 17
f 13 17 16

