# https://github.com/mikedh/trimesh
v -0.04044000 0.03012313 0.00860172
v -0.04044000 0.03959861 0.00860172
v -0.04031994 0.03012111 0.00860172
v -0.04044000 0.03012111 0.00872218
v -0.04044000 0.03959861 0.01894172
v -0.04021635 0.04021981 0.00860172
v -0.01727448 0.03012111 0.00860172
v -0.04044000 0.03012111 0.01894172
v -0.04021635 0.04021981 0.01894172
v -0.03978788 0.04037233 0.01444536
v -0.03959719 0.04044000 0.00940139
v -0.03959719 0.04043697 0.00860172
v -0.01638929 0.03055645 0.00860172
v -0.01726977 0.03012313 0.01894172
v -0.01727448 0.03012111 0.01893868
v -0.01871526 0.03012111 0.01894172
v -0.03959719 0.04044000 0.01894172
v -0.03879676 0.04044000 0.00860172
v -0.01638929 0.04044000 0.00860172
v -0.01638929 0.03055645 0.01894172
v -0.01638929 0.04044000 0.01894172
f 1 2 6
f 1 6 12
f 1 12 18
f 1 18 19
f 1 19 13
f 1 13 7
f 1 7 3
f 1 3 4
f 1 4 8
f 1 8 5
f 1 5 2
f 2 5 9
f 2 9 6
f 3 7 15
f 3 15 16
f 3 16 8
f 3 8 4
f 5 8 16
f 5 16 14
f 5 14 20
f 5 20 21
f 5 21 17
f 5 17 9
f 6 9 10
f 6 10 11
f 6 11 12
f 7 13 14
f 7 14 15
f 9 17 10
f 10 17 11
f 11 17 21
f 11 21 19
f 11 19 18
f 11 18 12
f 13 19 21
f 13 21 20
f 13 20 14
f 14 16 15

