# https://github.com/mikedh/trimesh
v -0.01638694 0.03062546 0.00694394
v -0.02326391 0.03062546 0.00694394
v -0.01638694 0.03055461 0.00694394
v -0.01638694 0.03062546 0.00045408
v -0.02326391 0.03012111 0.00694394
v -0.02326391 0.03062546 -0.00043928
v -0.01726482 0.03012358 0.00694394
v -0.01726751 0.03012111 0.00693889
v -0.01638694 0.03055461 0.00220032
v -0.01638694 0.03055891 0.00060008
v -0.01736311 0.03024819 0.00002620
v -0.01718673 0.03062546 -0.00011981
v -0.01732272 0.03012111 0.00694394
v -0.02326391 0.03012111 -0.00043928
v -0.01960023 0.03062546 -0.00043928
v -0.01726751 0.03012111 0.00140020
v -0.01638694 0.03055466 0.00140020
v -0.01728973 0.03012111 0.00060008
v -0.01767010 0.03012111 -0.00005404
v -0.01799123 0.03012111 -0.00018124
v -0.01880044 0.03012111 -0.00041470
v -0.01799796 0.03062546 -0.00035182
v -0.01960023 0.03012111 -0.00043928
v -0.01880044 0.03062546 -0.00043350
f 1 2 5
f 1 5 13
f 1 13 7
f 1 7 3
f 1 3 9
f 1 9 17
f 1 17 10
f 1 10 4
f 1 4 12
f 1 12 22
f 1 22 24
f 1 24 15
f 1 15 6
f 1 6 2
f 2 6 14
f 2 14 5
f 3 7 8
f 3 8 16
f 3 16 9
f 4 10 11
f 4 11 12
f 5 14 23
f 5 23 21
f 5 21 20
f 5 20 19
f 5 19 18
f 5 18 16
f 5 16 8
f 5 8 13
f 6 15 23
f 6 23 14
f 7 13 8
f 9 16 17
f 10 18 19
f 10 19 11
f 10 17 16
f 10 16 18
f 11 19 12
f 12 19 20
f 12 20 21
f 12 21 22
f 15 24 23
f 21 23 24
f 21 24 22

