# https://github.com/mikedh/trimesh
v -0.02696345 -0.02975389 0.00434998
v -0.02696345 -0.02975389 0.00517306
v -0.02696345 -0.02894713 0.00434998
v -0.01796764 -0.02975389 0.00434998
v -0.02696345 -0.02894713 0.00517306
v -0.01780437 -0.02975389 0.00517306
v -0.01833747 -0.02894713 0.00434998
v -0.01775206 -0.02975152 0.00434998
v -0.01774845 -0.02975389 0.00459525
v -0.01833747 -0.02894713 0.00517306
v -0.01774845 -0.02975389 0.00460001
v -0.01775206 -0.02975152 0.00517306
f 1 2 5
f 1 5 3
f 1 3 7
f 1 7 8
f 1 8 4
f 1 4 9
f 1 9 11
f 1 11 6
f 1 6 2
f 2 6 12
f 2 12 10
f 2 10 5
f 3 5 10
f 3 10 7
f 4 8 9
f 6 11 12
f 7 10 11
f 7 11 9
f 7 9 8
f 10 12 11

