# https://github.com/mikedh/trimesh
v -0.01876133 0.02669391 0.02333899
v -0.01876133 0.02601305 0.02333899
v -0.01876133 0.02669391 0.00060045
v -0.02229012 0.02669391 0.02333899
v -0.02229012 0.02601305 0.02333899
v -0.01876133 0.02601305 0.00060045
v -0.01876376 0.02601305 0.00058881
v -0.01898082 0.02669391 -0.00009318
v -0.03114847 0.02669384 0.02333899
v -0.02229012 0.02669391 -0.00044000
v -0.03114847 0.02601312 0.02333899
v -0.02229012 0.02601305 -0.00044000
v -0.01898082 0.02601305 -0.00009318
v -0.01960048 0.02669391 -0.00041207
v -0.03114847 0.02669384 -0.00044000
v -0.02040082 0.02669391 -0.00044000
v -0.03114847 0.02601312 -0.00044000
v -0.02040082 0.02601305 -0.00044000
v -0.01960048 0.02601305 -0.00041207
f 1 2 6
f 1 6 3
f 1 3 8
f 1 8 14
f 1 14 16
f 1 16 10
f 1 10 4
f 1 4 9
f 1 9 11
f 1 11 5
f 1 5 2
f 2 5 12
f 2 12 18
f 2 18 19
f 2 19 13
f 2 13 7
f 2 7 6
f 3 6 7
f 3 7 8
f 4 10 15
f 4 15 9
f 5 11 17
f 5 17 12
f 7 13 8
f 8 13 19
f 8 19 14
f 9 15 17
f 9 17 11
f 10 16 18
f 10 18 12
f 10 12 17
f 10 17 15
f 14 19 18
f 14 18 16

