# https://github.com/mikedh/trimesh
v -0.00574587 -0.01345957 0.00140276
v -0.00574587 -0.01345957 0.02378857
v -0.00574587 -0.01345757 0.00060115
v -0.00574507 -0.01345757 0.00060352
v -0.00493359 -0.01266873 0.00060352
v -0.00493359 -0.01266873 0.02378857
v -0.00574587 0.00689109 0.02378857
v -0.00574587 -0.01311693 -0.00007714
v -0.00542213 -0.01297152 0.00001772
v -0.00462984 -0.01217869 0.00001535
v -0.00454471 -0.01226833 0.00060352
v -0.00455017 -0.01227430 0.02378857
v -0.00574587 0.00689109 -0.00044000
v -0.00438510 0.00689109 0.02378857
v -0.00574587 -0.01240777 -0.00033328
v -0.00517327 -0.01242769 -0.00014829
v -0.00438497 -0.01162291 -0.00012932
v -0.00438497 -0.01208904 0.00060352
v -0.00453898 -0.01226235 0.02378857
v -0.00438510 0.00689109 -0.00044000
v -0.00574587 -0.01079621 -0.00044000
v -0.00438497 -0.01084203 0.02378857
v -0.00574587 -0.01159900 -0.00043051
v -0.00519991 -0.01159900 -0.00041865
v -0.00439909 -0.01084203 -0.00038308
v -0.00438497 -0.01160697 -0.00013643
v -0.00438497 -0.01208904 0.02378857
v -0.00438497 -0.01084203 -0.00037359
v -0.00438510 -0.00839780 -0.00044000
v -0.00519978 -0.01079621 -0.00044000
v -0.00440029 -0.00999740 -0.00044000
v -0.00440029 -0.01079621 -0.00039731
v -0.00438510 -0.01079621 -0.00039020
v -0.00438510 -0.01084203 -0.00037596
v -0.00438497 -0.01135000 -0.00021707
v -0.00438510 -0.00999740 -0.00043763
f 1 2 7
f 1 7 13
f 1 13 21
f 1 21 23
f 1 23 15
f 1 15 8
f 1 8 3
f 1 3 4
f 1 4 5
f 1 5 6
f 1 6 2
f 2 6 12
f 2 12 19
f 2 19 27
f 2 27 22
f 2 22 14
f 2 14 7
f 3 8 9
f 3 9 4
f 4 9 5
f 5 9 10
f 5 10 11
f 5 11 12
f 5 12 6
f 7 14 20
f 7 20 13
f 8 15 16
f 8 16 9
f 9 16 10
f 10 17 18
f 10 18 11
f 10 16 17
f 11 18 19
f 11 19 12
f 13 20 29
f 13 29 31
f 13 31 30
f 13 30 21
f 14 22 28
f 14 28 20
f 15 23 24
f 15 24 16
f 16 24 25
f 16 25 26
f 16 26 17
f 17 26 35
f 17 35 28
f 17 28 22
f 17 22 27
f 17 27 18
f 18 27 19
f 20 28 29
f 21 30 23
f 23 30 24
f 24 30 31
f 24 31 32
f 24 32 25
f 25 32 33
f 25 33 34
f 25 34 35
f 25 35 26
f 28 35 33
f 28 33 36
f 28 36 29
f 29 36 31
f 31 36 32
f 32 36 33
f 33 35 34

