# https://github.com/mikedh/trimesh
v -0.01812429 0.01957274 0.02620946
v -0.01841252 0.01999464 0.02620946
v -0.02848296 0.01962199 0.02621143
v -0.02848296 0.01957274 0.02621143
v -0.01812429 0.01957274 0.01100229
v -0.01812429 0.01957319 0.01098657
v -0.01841075 0.01999485 0.01098264
v -0.01841252 0.01999485 0.02619767
v -0.01904911 0.01999485 0.02620946
v -0.03578249 0.01981131 0.02621143
v -0.02972961 0.01957274 0.02621143
v -0.01812606 0.01957274 0.00620178
v -0.01812606 0.01957402 0.00613693
v -0.01841075 0.01999485 0.00613693
v -0.02848296 0.01999485 0.02620946
v -0.03578249 0.01999485 0.02620750
v -0.03618919 0.01999485 0.01098264
v -0.03578249 0.01957307 0.02621143
v -0.03578249 0.01957274 0.02620357
v -0.01818441 0.01957274 0.00613693
v -0.03618919 0.01999485 0.00613693
v -0.03618919 0.01957274 0.01098264
v -0.03618919 0.01957274 0.00613693
f 1 2 3
f 1 3 4
f 1 4 11
f 1 11 19
f 1 19 22
f 1 22 23
f 1 23 20
f 1 20 12
f 1 12 5
f 1 5 6
f 1 6 7
f 1 7 8
f 1 8 2
f 2 8 9
f 2 9 10
f 2 10 3
f 3 10 18
f 3 18 11
f 3 11 4
f 5 12 13
f 5 13 6
f 6 13 14
f 6 14 7
f 7 14 21
f 7 21 17
f 7 17 16
f 7 16 15
f 7 15 9
f 7 9 8
f 9 15 10
f 10 15 16
f 10 16 17
f 10 17 22
f 10 22 18
f 11 18 19
f 12 20 13
f 13 20 23
f 13 23 21
f 13 21 14
f 17 21 23
f 17 23 22
f 18 22 19

