# https://github.com/mikedh/trimesh
v -0.03880010 -0.02839778 -0.00043893
v -0.03879794 -0.02894708 -0.00043893
v -0.03959842 -0.02894708 -0.00041215
v -0.03959842 -0.02840010 -0.00041215
v -0.03960058 -0.02839778 -0.00041108
v -0.02040422 -0.02839778 -0.00043893
v -0.01985471 -0.02894708 -0.00043893
v -0.04021717 -0.02894708 -0.00009193
v -0.04021717 -0.02840010 -0.00009193
v -0.04021933 -0.02839778 -0.00008979
v -0.01960374 -0.02839778 -0.00043143
v -0.01960158 -0.02840010 -0.00043143
v -0.01960158 -0.02894708 -0.00043571
v -0.04044000 -0.02894708 0.00060100
v -0.04044000 -0.02839778 0.00060100
v -0.01888548 -0.02839778 -0.00011228
v -0.01895471 -0.02894708 -0.00022902
v -0.01888115 -0.02840010 -0.00011121
v -0.04044000 -0.02894708 0.01050231
v -0.04044000 -0.02839778 0.01019814
v -0.01855880 -0.02839778 0.00059993
v -0.01877081 -0.02894708 -0.00014655
v -0.01855663 -0.02840010 0.00060100
v -0.01838572 -0.02894708 0.00047998
v -0.04044000 -0.02840010 0.01050231
v -0.01833812 -0.02894708 0.01050231
v -0.03211718 -0.02839778 0.01050231
v -0.01855447 -0.02839778 0.00139889
v -0.01855230 -0.02840010 0.00140103
v -0.01833812 -0.02894708 0.00140103
v -0.01835110 -0.02894708 0.00060100
v -0.01855230 -0.02840010 0.00939811
v -0.01855447 -0.02839778 0.01019600
v -0.01855663 -0.02840010 0.01050231
f 1 2 3
f 1 3 4
f 1 4 5
f 1 5 10
f 1 10 15
f 1 15 20
f 1 20 27
f 1 27 33
f 1 33 28
f 1 28 21
f 1 21 16
f 1 16 11
f 1 11 6
f 1 6 7
f 1 7 2
f 2 7 13
f 2 13 17
f 2 17 22
f 2 22 24
f 2 24 31
f 2 31 30
f 2 30 26
f 2 26 19
f 2 19 14
f 2 14 8
f 2 8 3
f 3 8 5
f 3 5 4
f 5 8 9
f 5 9 10
f 6 11 7
f 7 11 12
f 7 12 13
f 8 14 10
f 8 10 9
f 10 14 15
f 11 16 12
f 12 17 13
f 12 16 18
f 12 18 17
f 14 19 25
f 14 25 20
f 14 20 15
f 16 21 18
f 17 18 22
f 18 21 23
f 18 23 24
f 18 24 22
f 19 26 34
f 19 34 27
f 19 27 25
f 20 25 27
f 21 28 23
f 23 28 29
f 23 29 30
f 23 30 31
f 23 31 24
f 26 30 29
f 26 29 32
f 26 32 33
f 26 33 34
f 27 34 33
f 28 33 32
f 28 32 29

