# https://github.com/mikedh/trimesh
v -0.04044000 0.03214026 0.02863429
v -0.04044000 0.03214026 0.04939838
v -0.04044000 0.03351615 0.02863429
v -0.01418532 0.03214026 0.02863429
v -0.04029095 0.03214026 0.04986796
v -0.04035262 0.03351615 0.04967372
v -0.04044000 0.03351615 0.04939838
v -0.01418532 0.03351615 0.02863429
v -0.01418532 0.03214026 0.05042933
v -0.04021899 0.03214026 0.05009208
v -0.04021899 0.03351615 0.05009208
v -0.01418532 0.03351615 0.05044000
v -0.01418532 0.03221475 0.05043360
v -0.01666019 0.03214026 0.05044000
v -0.03959963 0.03214026 0.05041225
v -0.03959963 0.03351615 0.05041225
v -0.01418532 0.03240009 0.05044000
v -0.03879780 0.03351615 0.05044000
v -0.03879780 0.03214026 0.05044000
f 1 2 7
f 1 7 3
f 1 3 8
f 1 8 4
f 1 4 9
f 1 9 14
f 1 14 19
f 1 19 15
f 1 15 10
f 1 10 5
f 1 5 2
f 2 5 6
f 2 6 7
f 3 7 6
f 3 6 11
f 3 11 16
f 3 16 18
f 3 18 12
f 3 12 8
f 4 8 12
f 4 12 17
f 4 17 13
f 4 13 9
f 5 10 11
f 5 11 6
f 9 13 14
f 10 15 16
f 10 16 11
f 12 18 19
f 12 19 14
f 12 14 17
f 13 17 14
f 15 19 18
f 15 18 16

