# https://github.com/mikedh/trimesh
v -0.03879960 -0.02679927 -0.00043979
v -0.03879873 -0.02760229 -0.00043979
v -0.03959889 -0.02760229 -0.00041265
v -0.03959889 -0.02679927 -0.00041265
v -0.03160167 -0.02679927 -0.00043979
v -0.03160167 -0.02760229 -0.00043979
v -0.03976084 -0.02760229 -0.00021815
v -0.03976084 -0.02760159 -0.00032929
v -0.03976084 -0.02680014 -0.00032929
v -0.03976084 -0.02679927 -0.00021815
v -0.03081814 -0.02679927 -0.00042299
v -0.03081814 -0.02680014 -0.00043979
v -0.03081814 -0.02760214 -0.00043979
v -0.03081814 -0.02760229 -0.00042299
v -0.03976084 -0.02760229 0.00616101
v -0.03976084 -0.02679927 0.00616101
v -0.03081814 -0.02679927 0.00607248
v -0.03081814 -0.02760229 0.00607248
v -0.03447752 -0.02760229 0.00616101
v -0.03447752 -0.02679927 0.00616101
f 1 2 3
f 1 3 4
f 1 4 10
f 1 10 16
f 1 16 20
f 1 20 17
f 1 17 11
f 1 11 5
f 1 5 12
f 1 12 13
f 1 13 6
f 1 6 2
f 2 6 14
f 2 14 18
f 2 18 19
f 2 19 15
f 2 15 7
f 2 7 3
f 3 7 8
f 3 8 9
f 3 9 4
f 4 9 10
f 5 11 12
f 6 13 14
f 7 15 16
f 7 16 10
f 7 10 9
f 7 9 8
f 11 17 18
f 11 18 14
f 11 14 13
f 11 13 12
f 15 19 20
f 15 20 16
f 17 20 19
f 17 19 18

