# https://github.com/mikedh/trimesh
v 0.01873904 0.03299458 -0.00043644
v 0.01873904 0.03451487 -0.00043644
v 0.01978674 0.03299458 -0.00043644
v 0.01873904 0.03299458 0.03588151
v 0.01978674 0.03451487 -0.00043644
v 0.01873904 0.03451487 0.03587795
v 0.01978674 0.03299458 0.03589930
v 0.01874047 0.03299458 0.03589930
v 0.01978674 0.03451487 0.03589930
v 0.01874098 0.03451487 0.03589930
f 1 2 5
f 1 5 3
f 1 3 7
f 1 7 8
f 1 8 4
f 1 4 6
f 1 6 2
f 2 6 10
f 2 10 9
f 2 9 5
f 3 5 9
f 3 9 7
f 4 8 6
f 6 8 10
f 7 9 10
f 7 10 8

