# https://github.com/mikedh/trimesh
v -0.03947476 -0.02209464 0.01331773
v -0.03947476 -0.02111607 0.01331773
v -0.02512662 -0.02228004 0.01331773
v -0.03947476 -0.02228004 0.01332167
v -0.03947476 -0.02111607 0.02071185
v -0.01913925 -0.02111607 0.01331773
v -0.01876097 -0.02228004 0.01331773
v -0.03947476 -0.02228004 0.02136571
v -0.03947476 -0.02111960 0.02136335
v -0.03155939 -0.02111607 0.02136571
v -0.01870809 -0.02111607 0.01340045
v -0.01870809 -0.02111778 0.01331773
v -0.01870402 -0.02111607 0.01411654
v -0.01869996 -0.02111607 0.01731651
v -0.01876097 -0.02228004 0.02136571
v -0.03947476 -0.02119093 0.02136571
v -0.01870402 -0.02111607 0.02136571
v -0.01869996 -0.02111607 0.01739923
f 1 2 6
f 1 6 12
f 1 12 7
f 1 7 3
f 1 3 4
f 1 4 8
f 1 8 16
f 1 16 9
f 1 9 5
f 1 5 2
f 2 5 10
f 2 10 17
f 2 17 18
f 2 18 14
f 2 14 13
f 2 13 11
f 2 11 6
f 3 7 15
f 3 15 8
f 3 8 4
f 5 9 10
f 6 11 12
f 7 12 13
f 7 13 14
f 7 14 18
f 7 18 15
f 8 15 17
f 8 17 10
f 8 10 16
f 9 16 10
f 11 13 12
f 15 18 17

