# https://github.com/mikedh/trimesh
v 0.02991535 0.01977689 0.05044000
v 0.02040120 0.01977689 0.05044000
v 0.02991535 0.01865659 0.05044000
v 0.02991535 0.01977689 0.02767069
v 0.01977879 0.01977689 0.05041771
v 0.02040120 0.01865659 0.05044000
v 0.02991535 0.01865659 0.02767069
v 0.01876000 0.01977689 0.02767069
v 0.01960189 0.01977689 0.05041102
v 0.01960189 0.01865659 0.05041102
v 0.01876000 0.01865659 0.02767069
v 0.01876000 0.01977689 0.04939915
v 0.01911816 0.01977689 0.05016363
v 0.01945994 0.01865659 0.05033970
v 0.01876000 0.01865659 0.04939915
v 0.01898167 0.01977689 0.05009231
v 0.01898167 0.01865659 0.05009231
f 1 2 6
f 1 6 3
f 1 3 7
f 1 7 4
f 1 4 8
f 1 8 12
f 1 12 16
f 1 16 13
f 1 13 9
f 1 9 5
f 1 5 2
f 2 5 6
f 3 6 10
f 3 10 14
f 3 14 17
f 3 17 15
f 3 15 11
f 3 11 7
f 4 7 11
f 4 11 8
f 5 9 10
f 5 10 6
f 8 11 15
f 8 15 12
f 9 13 14
f 9 14 10
f 12 15 17
f 12 17 16
f 13 16 17
f 13 17 14

