# https://github.com/mikedh/trimesh
v -0.04044000 0.03012313 0.01980250
v -0.04044000 0.03012111 0.01992237
v -0.04044000 0.03456341 0.01980250
v -0.01755475 0.03012111 0.01980250
v -0.04044000 0.03012111 0.03045112
v -0.04044000 0.03959861 0.02663925
v -0.04043530 0.03959861 0.01980250
v -0.01727692 0.03012111 0.01980250
v -0.04044000 0.03959861 0.03045112
v -0.01726986 0.03012111 0.03045112
v -0.04022104 0.04020769 0.02938376
v -0.04021398 0.04021779 0.01980250
v -0.01727222 0.03012111 0.02085631
v -0.01639165 0.03056150 0.01980250
v -0.01639165 0.03055645 0.02140146
v -0.04021633 0.04021981 0.03045112
v -0.01726986 0.03012111 0.02938376
v -0.01638930 0.03055645 0.02493606
v -0.01639165 0.03055645 0.02701137
v -0.01639165 0.03055847 0.03045112
v -0.04021633 0.04021981 0.02978923
v -0.04021398 0.04021981 0.02324954
v -0.03959476 0.04044000 0.02085631
v -0.03959711 0.04043697 0.01980250
v -0.01638930 0.03055645 0.02460147
v -0.01639165 0.04043697 0.01980250
v -0.01638930 0.03355333 0.02324954
v -0.01638930 0.03056150 0.02380094
v -0.03959711 0.04044000 0.03045112
v -0.01638694 0.03056453 0.02978923
v -0.01638930 0.03056150 0.03021242
v -0.01638930 0.03360384 0.03045112
v -0.03959711 0.04044000 0.02978923
v -0.01639165 0.04044000 0.02085631
v -0.01638694 0.03056554 0.02938376
v -0.01638930 0.04044000 0.02324954
v -0.01638930 0.04044000 0.03045112
v -0.01638694 0.04044000 0.02978923
v -0.01638694 0.04044000 0.02938376
f 1 2 5
f 1 5 9
f 1 9 6
f 1 6 3
f 1 3 7
f 1 7 12
f 1 12 24
f 1 24 26
f 1 26 14
f 1 14 8
f 1 8 4
f 1 4 2
f 2 4 8
f 2 8 13
f 2 13 17
f 2 17 10
f 2 10 5
f 3 6 7
f 5 10 20
f 5 20 32
f 5 32 37
f 5 37 29
f 5 29 16
f 5 16 9
f 6 9 11
f 6 11 12
f 6 12 7
f 8 14 15
f 8 15 13
f 9 16 11
f 10 17 25
f 10 25 18
f 10 18 19
f 10 19 20
f 11 16 21
f 11 21 12
f 12 21 22
f 12 22 23
f 12 23 24
f 13 15 25
f 13 25 17
f 14 26 36
f 14 36 27
f 14 27 28
f 14 28 25
f 14 25 15
f 16 29 33
f 16 33 21
f 18 25 30
f 18 30 31
f 18 31 20
f 18 20 19
f 20 31 32
f 21 33 23
f 21 23 22
f 23 33 29
f 23 29 37
f 23 37 38
f 23 38 39
f 23 39 36
f 23 36 34
f 23 34 26
f 23 26 24
f 25 28 35
f 25 35 30
f 26 34 36
f 27 36 39
f 27 39 35
f 27 35 28
f 30 38 37
f 30 37 32
f 30 32 31
f 30 35 39
f 30 39 38

