# https://github.com/mikedh/trimesh
v -0.01718929 -0.03746469 0.02696111
v -0.01710267 -0.03746469 0.02696111
v -0.01721611 -0.03746469 0.02696539
v -0.01721611 -0.03015988 0.02696111
v -0.01681090 -0.03068053 0.02696111
v -0.01681090 -0.03746469 0.02696325
v -0.01721611 -0.03746469 0.04881335
v -0.01681090 -0.03042163 0.02696111
v -0.01721611 -0.03015916 0.02702314
v -0.01681090 -0.03746469 0.04881335
v -0.01721611 -0.03016346 0.04881335
v -0.01681090 -0.03042163 0.04859943
v -0.01721611 -0.03015916 0.04859943
v -0.01681090 -0.03042306 0.04881335
f 1 2 6
f 1 6 10
f 1 10 7
f 1 7 3
f 1 3 4
f 1 4 8
f 1 8 5
f 1 5 2
f 2 5 6
f 3 7 11
f 3 11 13
f 3 13 9
f 3 9 4
f 4 9 8
f 5 8 12
f 5 12 14
f 5 14 10
f 5 10 6
f 7 10 14
f 7 14 11
f 8 9 13
f 8 13 12
f 11 14 13
f 12 13 14

