# https://github.com/mikedh/trimesh
v -0.00614600 -0.01382680 0.03655126
v -0.00614600 -0.00754394 0.03655126
v -0.00614523 -0.01382618 0.03655126
v -0.00614600 -0.01382680 0.04939862
v -0.00515531 -0.00754394 0.03655126
v -0.00614600 -0.00754394 0.05043864
v -0.00574521 -0.01345841 0.03655126
v -0.00614523 -0.01382618 0.04939998
v -0.00614600 -0.01370011 0.04987988
v -0.00515531 -0.01288523 0.03655126
v -0.00515531 -0.00754394 0.04974121
v -0.00614600 -0.01175609 0.05043864
v -0.00515599 -0.00754394 0.05043864
v -0.00532269 -0.01304821 0.03655126
v -0.00574521 -0.01345841 0.04939998
v -0.00542238 -0.01297256 0.04998456
v -0.00614600 -0.01357465 0.05003623
v -0.00515531 -0.01288523 0.04939998
v -0.00515531 -0.00755563 0.05043864
v -0.00614600 -0.01240000 0.05042233
v -0.00520002 -0.01159988 0.05042097
v -0.00515531 -0.01075487 0.05043864
v -0.00533355 -0.01305866 0.04939998
v -0.00515531 -0.01241967 0.05014635
v -0.00517345 -0.01242767 0.05015178
v -0.00597804 -0.01322348 0.05014771
v -0.00515531 -0.01280713 0.04966508
v -0.00614600 -0.01338154 0.05014091
v -0.00614600 -0.01254575 0.05041825
v -0.00515531 -0.01155498 0.05041961
v -0.00515531 -0.01240922 0.05015042
v -0.00614600 -0.01321856 0.05020209
f 1 2 5
f 1 5 10
f 1 10 14
f 1 14 7
f 1 7 3
f 1 3 8
f 1 8 4
f 1 4 9
f 1 9 17
f 1 17 28
f 1 28 32
f 1 32 29
f 1 29 20
f 1 20 12
f 1 12 6
f 1 6 2
f 2 6 13
f 2 13 11
f 2 11 5
f 3 7 15
f 3 15 8
f 4 8 9
f 5 11 19
f 5 19 22
f 5 22 30
f 5 30 31
f 5 31 24
f 5 24 27
f 5 27 18
f 5 18 10
f 6 12 22
f 6 22 19
f 6 19 13
f 7 14 15
f 8 15 9
f 9 16 17
f 9 15 16
f 10 18 14
f 11 13 19
f 12 20 21
f 12 21 22
f 14 18 23
f 14 23 15
f 15 23 16
f 16 24 25
f 16 25 26
f 16 26 17
f 16 23 27
f 16 27 24
f 17 26 28
f 18 27 23
f 20 29 21
f 21 29 25
f 21 25 30
f 21 30 22
f 24 31 25
f 25 32 26
f 25 31 30
f 25 29 32
f 26 32 28

