# https://github.com/mikedh/trimesh
v -0.01726842 0.03012107 0.01423379
v -0.02654812 0.03012107 0.01423379
v -0.01777896 0.02971680 0.01423379
v -0.01726842 0.03012107 0.00140066
v -0.02654812 0.02972721 0.01423379
v -0.02654812 0.03012107 0.00111032
v -0.02601850 0.02971680 0.01423379
v -0.01777896 0.02971680 0.00140066
v -0.01778532 0.02971680 0.00111032
v -0.01727568 0.03012107 0.00111032
v -0.02654812 0.02971680 0.01423251
v -0.02654812 0.02971680 0.00111032
f 1 2 5
f 1 5 7
f 1 7 3
f 1 3 8
f 1 8 4
f 1 4 10
f 1 10 6
f 1 6 2
f 2 6 12
f 2 12 11
f 2 11 5
f 3 7 11
f 3 11 12
f 3 12 9
f 3 9 8
f 4 8 9
f 4 9 10
f 5 11 7
f 6 10 9
f 6 9 12

