# https://github.com/mikedh/trimesh
v -0.01479499 0.01639115 0.05044000
v -0.01566037 0.01639115 0.05044000
v -0.01479499 -0.00359408 0.05044000
v -0.01479499 0.01719141 0.05036441
v -0.01559980 0.01719141 0.05041050
v -0.01566037 -0.00429874 0.05044000
v -0.01566037 0.01719141 0.05041050
v -0.01479549 -0.00429874 0.05044000
v -0.01479499 -0.01639469 0.05043816
v -0.01479499 0.01774734 0.05004176
v -0.01480049 0.01774734 0.05004545
v -0.01559980 0.01782525 0.05009154
v -0.01566037 0.01783587 0.05009154
v -0.01566037 -0.01645489 0.05043816
v -0.01559980 -0.01719495 0.05041234
v -0.01479499 -0.01718787 0.05036625
v -0.01479499 0.01790315 0.04939647
v -0.01566037 0.01808374 0.04939647
v -0.01566037 -0.01719495 0.05041234
v -0.01566037 -0.01724807 0.05038838
v -0.01566037 -0.01783587 0.05009338
v -0.01479499 -0.01719495 0.05036441
v -0.01480015 0.01791023 0.03586192
v -0.01479499 0.01790315 0.03160483
v -0.01566037 0.01808728 0.03586007
v -0.01566037 -0.01786066 0.05003992
v -0.01480032 -0.01775089 0.05004545
v -0.01559980 -0.01782879 0.05009154
v -0.01479499 -0.01774734 0.05004545
v -0.01480015 0.01791023 0.03160483
v -0.01479499 -0.01790315 0.03160483
v -0.01566037 0.01808728 0.03160483
v -0.01566037 -0.01808374 0.04939647
v -0.01480032 -0.01790669 0.04939647
v -0.01479499 -0.01790315 0.04939647
v -0.01480015 -0.01791023 0.03160483
v -0.01566037 -0.01808728 0.03160483
v -0.01566037 -0.01808728 0.03586192
v -0.01480015 -0.01791023 0.03586192
f 1 2 6
f 1 6 8
f 1 8 3
f 1 3 9
f 1 9 16
f 1 16 22
f 1 22 29
f 1 29 35
f 1 35 31
f 1 31 24
f 1 24 17
f 1 17 10
f 1 10 4
f 1 4 5
f 1 5 7
f 1 7 2
f 2 7 13
f 2 13 18
f 2 18 25
f 2 25 32
f 2 32 37
f 2 37 38
f 2 38 33
f 2 33 26
f 2 26 21
f 2 21 20
f 2 20 19
f 2 19 14
f 2 14 6
f 3 8 9
f 4 10 11
f 4 11 12
f 4 12 13
f 4 13 5
f 5 13 7
f 6 14 8
f 8 14 9
f 9 14 15
f 9 15 16
f 10 17 18
f 10 18 11
f 11 18 13
f 11 13 12
f 14 19 15
f 15 19 20
f 15 20 21
f 15 21 22
f 15 22 16
f 17 23 18
f 17 24 30
f 17 30 23
f 18 23 25
f 21 26 27
f 21 27 28
f 21 28 22
f 22 28 27
f 22 27 29
f 23 30 32
f 23 32 25
f 24 31 36
f 24 36 37
f 24 37 32
f 24 32 30
f 26 33 27
f 27 33 34
f 27 34 35
f 27 35 29
f 31 35 39
f 31 39 36
f 33 38 39
f 33 39 34
f 34 39 35
f 36 39 38
f 36 38 37

