# https://github.com/mikedh/trimesh
v -0.01876000 -0.02371985 0.02620586
v -0.01876145 -0.02371985 0.04938916
v -0.01876000 -0.02579927 0.02620586
v -0.01876000 -0.02371985 0.01225603
v -0.01876145 -0.02579927 0.04938916
v -0.01879321 -0.02371985 0.04949374
v -0.01876000 -0.02579927 0.01225603
v -0.01876145 -0.02371985 0.00060212
v -0.01898089 -0.02579927 0.05008640
v -0.01898089 -0.02371985 0.05008640
v -0.01876145 -0.02579927 0.00060212
v -0.01881631 -0.02579927 0.00042781
v -0.01898089 -0.02371985 -0.00009014
v -0.01944577 -0.02579927 0.05032546
v -0.01960169 -0.02371985 0.05040016
v -0.01898089 -0.02579927 -0.00009014
v -0.01960169 -0.02371985 -0.00040888
v -0.01960169 -0.02579927 0.05040016
v -0.02040151 -0.02371985 0.05043502
v -0.01960169 -0.02579927 -0.00040888
v -0.02040151 -0.02371985 -0.00043378
v -0.02040151 -0.02579927 0.05043502
v -0.03350898 -0.02371985 0.05043502
v -0.02040151 -0.02579927 -0.00043378
v -0.03350898 -0.02371985 -0.00043378
v -0.03350898 -0.02579927 0.05043502
v -0.03350898 -0.02579927 -0.00043378
f 1 2 5
f 1 5 3
f 1 3 7
f 1 7 4
f 1 4 8
f 1 8 13
f 1 13 17
f 1 17 21
f 1 21 25
f 1 25 23
f 1 23 19
f 1 19 15
f 1 15 10
f 1 10 6
f 1 6 2
f 2 6 5
f 3 5 9
f 3 9 14
f 3 14 18
f 3 18 22
f 3 22 26
f 3 26 27
f 3 27 24
f 3 24 20
f 3 20 16
f 3 16 12
f 3 12 11
f 3 11 7
f 4 7 11
f 4 11 8
f 5 6 9
f 6 10 9
f 8 11 12
f 8 12 13
f 9 10 14
f 10 15 14
f 12 16 13
f 13 16 20
f 13 20 17
f 14 15 18
f 15 19 22
f 15 22 18
f 17 20 24
f 17 24 21
f 19 23 26
f 19 26 22
f 21 24 27
f 21 27 25
f 23 25 27
f 23 27 26

