# https://github.com/mikedh/trimesh
v -0.01479499 0.01639267 0.05044000
v -0.01566037 0.01639267 0.05044000
v -0.01479499 -0.00359415 0.05044000
v -0.01479499 0.01719285 0.05036579
v -0.01559980 0.01719285 0.05041146
v -0.01566037 0.01719285 0.05041146
v -0.01566037 -0.00429874 0.05044000
v -0.01479549 -0.00429874 0.05044000
v -0.01479499 -0.01639705 0.05043857
v -0.01479499 0.01774873 0.05004327
v -0.01480041 0.01774873 0.05004612
v -0.01559980 0.01782662 0.05009322
v -0.01566037 0.01783724 0.05009322
v -0.01566037 -0.01645724 0.05043857
v -0.01559980 -0.01719723 0.05041288
v -0.01479499 -0.01719015 0.05036722
v -0.01479499 0.01790451 0.04939680
v -0.01566037 0.01808509 0.04939680
v -0.01566037 -0.01719723 0.05041288
v -0.01566037 -0.01725034 0.05039005
v -0.01479499 -0.01719723 0.05036579
v -0.01479499 0.01790451 0.03586084
v -0.01566020 0.01808509 0.03627042
v -0.01566037 0.01808509 0.03933866
v -0.01566037 -0.01783808 0.05009464
v -0.01559980 -0.01783100 0.05009322
v -0.01480024 -0.01775311 0.05004612
v -0.01479499 -0.01774957 0.05004612
v -0.01566020 0.01807800 0.03586084
v -0.01479499 -0.01785225 0.03586084
v -0.01566037 0.01808155 0.03660150
v -0.01566037 -0.01786287 0.05004041
v -0.01566037 -0.01808593 0.04939822
v -0.01480024 -0.01790890 0.04939822
v -0.01479499 -0.01790536 0.04939822
v -0.01566037 0.01802135 0.03586084
v -0.01479499 -0.01790536 0.03660007
v -0.01479532 -0.01790536 0.03586084
v -0.01566037 -0.01808593 0.03586084
v -0.01565563 -0.01808593 0.03586084
v -0.01480024 -0.01790890 0.03586084
f 1 2 7
f 1 7 8
f 1 8 3
f 1 3 9
f 1 9 16
f 1 16 21
f 1 21 28
f 1 28 35
f 1 35 37
f 1 37 30
f 1 30 22
f 1 22 17
f 1 17 10
f 1 10 4
f 1 4 5
f 1 5 6
f 1 6 2
f 2 6 13
f 2 13 18
f 2 18 24
f 2 24 31
f 2 31 36
f 2 36 39
f 2 39 33
f 2 33 32
f 2 32 25
f 2 25 20
f 2 20 19
f 2 19 14
f 2 14 7
f 3 8 9
f 4 10 11
f 4 11 12
f 4 12 13
f 4 13 5
f 5 13 6
f 7 14 8
f 8 14 9
f 9 14 15
f 9 15 16
f 10 17 18
f 10 18 11
f 11 18 13
f 11 13 12
f 14 19 15
f 15 19 20
f 15 20 21
f 15 21 16
f 17 22 23
f 17 23 18
f 18 23 24
f 20 25 21
f 21 25 26
f 21 26 27
f 21 27 28
f 22 29 23
f 22 30 38
f 22 38 41
f 22 41 40
f 22 40 39
f 22 39 36
f 22 36 29
f 23 29 31
f 23 31 24
f 25 32 27
f 25 27 26
f 27 32 33
f 27 33 34
f 27 34 35
f 27 35 28
f 29 36 31
f 30 37 38
f 33 39 40
f 33 40 34
f 34 40 41
f 34 41 37
f 34 37 35
f 37 41 38

