# https://github.com/mikedh/trimesh
v 0.04043987 -0.03735784 0.04939838
v 0.04021963 -0.03735784 0.05009208
v 0.04043987 -0.03959995 0.04939838
v 0.04043987 -0.03735784 0.02863429
v 0.04021963 -0.03959995 0.05009208
v 0.03959973 -0.03735784 0.05041225
v 0.04018756 -0.03984000 0.05004939
v 0.04031085 -0.03984000 0.04965878
v 0.04035437 -0.03984000 0.04939838
v 0.04043987 -0.03959995 0.02863429
v 0.03654031 -0.03735784 0.02863429
v 0.03959973 -0.03879986 0.05041225
v 0.03959973 -0.03959995 0.05039944
v 0.03879966 -0.03735784 0.05044000
v 0.03959973 -0.03984000 0.05027991
v 0.04035437 -0.03984000 0.02863429
v 0.03654031 -0.03735784 0.05044000
v 0.03654031 -0.03984000 0.02863429
v 0.03879966 -0.03879986 0.05044000
v 0.03910350 -0.03959995 0.05040798
v 0.03879966 -0.03984000 0.05028845
v 0.03654031 -0.03879986 0.05044000
v 0.03654031 -0.03984000 0.05028845
v 0.03879966 -0.03959995 0.05041012
v 0.03654031 -0.03959995 0.05041012
f 1 2 5
f 1 5 3
f 1 3 10
f 1 10 4
f 1 4 11
f 1 11 17
f 1 17 14
f 1 14 6
f 1 6 2
f 2 6 12
f 2 12 5
f 3 5 7
f 3 7 8
f 3 8 9
f 3 9 16
f 3 16 10
f 4 10 16
f 4 16 18
f 4 18 11
f 5 12 13
f 5 13 7
f 6 14 19
f 6 19 12
f 7 13 15
f 7 15 21
f 7 21 23
f 7 23 18
f 7 18 16
f 7 16 9
f 7 9 8
f 11 18 23
f 11 23 25
f 11 25 22
f 11 22 17
f 12 19 13
f 13 19 20
f 13 20 15
f 14 17 22
f 14 22 19
f 15 20 21
f 19 22 25
f 19 25 24
f 19 24 20
f 20 24 21
f 21 24 25
f 21 25 23

