# https://github.com/mikedh/trimesh
v -0.01773053 0.01906150 0.02637690
v -0.01679660 0.01838979 0.02637690
v -0.01679660 0.01839353 0.02072561
v -0.01773053 0.01906150 0.01435908
v -0.01773053 -0.01906150 0.02637690
v -0.01679660 -0.01060921 0.02637690
v -0.01679660 0.01839353 0.01435908
v -0.01773053 -0.01906150 0.01435908
v -0.01679660 -0.01839353 0.02621103
v -0.01679806 -0.01839353 0.02637690
v -0.01679660 -0.01781511 0.01435908
v -0.01679797 -0.01839353 0.01435908
v -0.01679660 -0.01839353 0.01497315
f 1 2 3
f 1 3 7
f 1 7 4
f 1 4 8
f 1 8 5
f 1 5 10
f 1 10 6
f 1 6 2
f 2 6 9
f 2 9 13
f 2 13 11
f 2 11 7
f 2 7 3
f 4 7 11
f 4 11 12
f 4 12 8
f 5 8 13
f 5 13 9
f 5 9 10
f 6 10 9
f 8 12 13
f 11 13 12

