# https://github.com/mikedh/trimesh
v -0.01871575 0.02120349 0.02619910
v -0.01872638 0.02120349 0.02378857
v -0.01872638 0.02121166 0.02378857
v -0.01876040 0.02209152 0.02378857
v -0.01876040 0.02209152 0.02699478
v -0.01876466 0.02209152 0.04695465
v -0.01873276 0.02142932 0.04916952
v -0.01872213 0.02120349 0.04939387
v -0.04044000 0.02120349 0.02378857
v -0.03772872 0.02209152 0.02378857
v -0.01876678 0.02209152 0.04939909
v -0.01896242 0.02209152 0.05001216
v -0.01898794 0.02209152 0.05009042
v -0.01896455 0.02120349 0.05009564
v -0.04044000 0.02209013 0.02378857
v -0.04044000 0.02120349 0.02699478
v -0.04044000 0.02209152 0.02380422
v -0.01960462 0.02209152 0.05041130
v -0.01960462 0.02120349 0.05041652
v -0.04044000 0.02209074 0.02699478
v -0.04043575 0.02120349 0.04695465
v -0.04044000 0.02209152 0.02629562
v -0.02040418 0.02209152 0.05044000
v -0.02040418 0.02120349 0.05044000
v -0.04043575 0.02209152 0.04695465
v -0.04043149 0.02120349 0.04939909
v -0.03879410 0.02209152 0.05044000
v -0.03879410 0.02120349 0.05044000
v -0.04043149 0.02209152 0.04939909
v -0.04021460 0.02120349 0.05009042
v -0.04041236 0.02209152 0.04947735
v -0.03959366 0.02209152 0.05041130
v -0.03959366 0.02120349 0.05041130
v -0.04021460 0.02209152 0.05009042
v -0.04014442 0.02209152 0.05012694
f 1 2 3
f 1 3 4
f 1 4 5
f 1 5 6
f 1 6 7
f 1 7 8
f 1 8 14
f 1 14 19
f 1 19 24
f 1 24 28
f 1 28 33
f 1 33 30
f 1 30 26
f 1 26 21
f 1 21 16
f 1 16 9
f 1 9 2
f 2 9 15
f 2 15 10
f 2 10 4
f 2 4 3
f 4 10 17
f 4 17 22
f 4 22 25
f 4 25 29
f 4 29 31
f 4 31 34
f 4 34 35
f 4 35 32
f 4 32 27
f 4 27 23
f 4 23 18
f 4 18 13
f 4 13 12
f 4 12 11
f 4 11 6
f 4 6 5
f 6 11 7
f 7 11 8
f 8 11 12
f 8 12 13
f 8 13 14
f 9 16 20
f 9 20 22
f 9 22 17
f 9 17 15
f 10 15 17
f 13 18 14
f 14 18 19
f 16 21 25
f 16 25 20
f 18 23 19
f 19 23 24
f 20 25 22
f 21 26 29
f 21 29 25
f 23 27 28
f 23 28 24
f 26 30 31
f 26 31 29
f 27 32 33
f 27 33 28
f 30 34 31
f 30 33 35
f 30 35 34
f 32 35 33

