# https://github.com/mikedh/trimesh
v -0.01812328 0.01957274 0.04859923
v -0.01840899 0.01999485 0.04859923
v -0.01840961 0.01999134 0.04885463
v -0.01812634 0.01957274 0.04885463
v -0.01812328 0.01957274 0.03427941
v -0.01845855 0.01999485 0.04885463
v -0.01840961 0.01999485 0.03498855
v -0.02437296 0.01957274 0.04885463
v -0.02437296 0.01957274 0.03427941
v -0.01840961 0.01999419 0.03427941
v -0.02437296 0.01999485 0.04885463
v -0.02166262 0.01999485 0.03427941
v -0.02437296 0.01999485 0.03427941
f 1 2 3
f 1 3 4
f 1 4 8
f 1 8 9
f 1 9 5
f 1 5 2
f 2 6 3
f 2 5 7
f 2 7 12
f 2 12 13
f 2 13 11
f 2 11 6
f 3 6 11
f 3 11 8
f 3 8 4
f 5 9 13
f 5 13 12
f 5 12 10
f 5 10 7
f 7 10 12
f 8 11 13
f 8 13 9

