# https://github.com/mikedh/trimesh
v -0.01479490 -0.01727592 -0.00032047
v -0.01479490 -0.01720288 -0.00036031
v -0.01400011 -0.01719956 -0.00027066
v -0.01400011 -0.01727592 -0.00022086
v -0.01479490 -0.01727592 0.05031549
v -0.01479490 -0.01639831 -0.00044000
v -0.01400011 -0.01639831 -0.00044000
v -0.01391041 -0.01639831 -0.00043004
v -0.01391041 -0.01720841 -0.00024576
v -0.01391041 -0.01727592 -0.00019596
v -0.01410894 -0.01727592 0.05023580
v -0.01400011 -0.01719956 0.05027066
v -0.01479490 -0.01719956 0.05036031
v -0.01479490 -0.00597000 -0.00044000
v -0.01391041 -0.01559929 -0.00044000
v -0.01391041 -0.01727592 0.05018600
v -0.01400011 -0.01727592 0.05021588
v -0.01391041 -0.01710991 0.05028560
v -0.01391041 -0.01727260 0.05020094
v -0.01391041 -0.01720509 0.05024576
v -0.01391041 -0.01674581 0.05036529
v -0.01391041 -0.01639831 0.05043502
v -0.01400011 -0.01639831 0.05044000
v -0.01479490 -0.01639831 0.05044000
v -0.01400011 -0.00597000 -0.00044000
v -0.01479490 -0.00597000 0.05044000
v -0.01391041 -0.00597443 -0.00044000
v -0.01391041 -0.01630757 0.05044000
v -0.01391041 -0.00597000 -0.00035533
v -0.01391041 -0.00597000 0.05044000
f 1 2 3
f 1 3 4
f 1 4 10
f 1 10 16
f 1 16 17
f 1 17 11
f 1 11 5
f 1 5 13
f 1 13 24
f 1 24 26
f 1 26 14
f 1 14 6
f 1 6 2
f 2 6 7
f 2 7 8
f 2 8 3
f 3 9 4
f 3 8 9
f 4 9 10
f 5 11 12
f 5 12 13
f 6 14 25
f 6 25 27
f 6 27 15
f 6 15 7
f 7 15 8
f 8 15 27
f 8 27 29
f 8 29 30
f 8 30 28
f 8 28 22
f 8 22 21
f 8 21 18
f 8 18 20
f 8 20 19
f 8 19 16
f 8 16 10
f 8 10 9
f 11 17 12
f 12 18 13
f 12 17 19
f 12 19 20
f 12 20 18
f 13 18 21
f 13 21 22
f 13 22 23
f 13 23 24
f 14 26 30
f 14 30 29
f 14 29 25
f 16 19 17
f 22 28 23
f 23 28 30
f 23 30 26
f 23 26 24
f 25 29 27

