# https://github.com/mikedh/trimesh
v -0.03879642 0.02882394 -0.00044000
v -0.03959714 0.02882394 -0.00041253
v -0.03879642 0.02971680 -0.00044000
v -0.02040209 0.02882394 -0.00044000
v -0.03959714 0.02971680 -0.00041253
v -0.04021820 0.02882394 -0.00009272
v -0.01960581 0.02971680 -0.00044000
v -0.01960581 0.02920010 -0.00044000
v -0.01960581 0.02882394 -0.00043607
v -0.04021820 0.02971680 -0.00009272
v -0.04043778 0.02882394 0.00060086
v -0.01878070 0.02971680 -0.00032816
v -0.01879844 0.02882394 -0.00013981
v -0.04043778 0.02971680 0.00060086
v -0.04043778 0.02882394 0.00958204
v -0.01810419 0.02971680 -0.00006623
v -0.01825058 0.02936284 0.00002598
v -0.01842802 0.02882394 0.00060086
v -0.04043778 0.02971680 0.00958204
v -0.01902468 0.02882394 0.00958204
v -0.01779810 0.02971680 0.00060086
v -0.01842581 0.02882394 0.00076076
v -0.01779588 0.02971680 0.00066756
v -0.01777813 0.02971680 0.00140136
v -0.01777813 0.02971680 0.00958204
v -0.01842137 0.02882394 0.00940545
v -0.01841915 0.02882691 0.00958204
v -0.01842137 0.02882394 0.00140136
v -0.01841915 0.02882394 0.00460045
v -0.01841915 0.02882394 0.00620637
f 1 2 5
f 1 5 3
f 1 3 7
f 1 7 8
f 1 8 4
f 1 4 9
f 1 9 13
f 1 13 18
f 1 18 22
f 1 22 28
f 1 28 29
f 1 29 30
f 1 30 26
f 1 26 20
f 1 20 15
f 1 15 11
f 1 11 6
f 1 6 2
f 2 6 10
f 2 10 5
f 3 5 10
f 3 10 14
f 3 14 19
f 3 19 25
f 3 25 24
f 3 24 23
f 3 23 21
f 3 21 16
f 3 16 12
f 3 12 7
f 4 8 9
f 6 11 14
f 6 14 10
f 7 12 8
f 8 12 9
f 9 12 13
f 11 15 19
f 11 19 14
f 12 16 13
f 13 16 17
f 13 17 18
f 15 20 27
f 15 27 25
f 15 25 19
f 16 21 17
f 17 21 18
f 18 21 23
f 18 23 24
f 18 24 22
f 20 26 27
f 22 24 28
f 24 25 30
f 24 30 29
f 24 29 28
f 25 27 30
f 26 30 27

