# https://github.com/mikedh/trimesh
v 0.02747553 0.02702367 0.03590286
v 0.01873989 0.02702367 0.03590286
v 0.02747553 0.02597621 0.03590286
v 0.02747553 0.02702367 -0.00043802
v 0.01873989 0.02687515 0.03590286
v 0.01873989 0.02702367 0.02619868
v 0.01876127 0.02597786 0.03590286
v 0.01876127 0.02597436 0.03579614
v 0.02747553 0.02597436 0.03584239
v 0.02747553 0.02597837 -0.00043802
v 0.02120195 0.02702367 -0.00043802
v 0.01873989 0.02687207 0.03579258
v 0.01873989 0.02692374 0.03192229
v 0.01874844 0.02702367 0.00322595
v 0.01876127 0.02597436 0.00060426
v 0.02747553 0.02597436 -0.00032063
v 0.02682474 0.02597436 -0.00043802
v 0.02040065 0.02679976 -0.00043802
v 0.02040065 0.02702367 -0.00043446
v 0.01873989 0.02687423 0.03505979
v 0.01875101 0.02702367 0.00082837
v 0.01875528 0.02702367 0.00060426
v 0.01891349 0.02702367 0.00010269
v 0.01898105 0.02597436 -0.00008940
v 0.02040065 0.02597436 -0.00043802
v 0.01960105 0.02679976 -0.00040956
v 0.01960105 0.02702367 -0.00040600
v 0.01898020 0.02702367 -0.00008585
v 0.01898105 0.02679976 -0.00008940
v 0.01960105 0.02597436 -0.00040956
v 0.01942574 0.02702367 -0.00031707
f 1 2 5
f 1 5 7
f 1 7 3
f 1 3 9
f 1 9 16
f 1 16 10
f 1 10 4
f 1 4 11
f 1 11 19
f 1 19 27
f 1 27 31
f 1 31 28
f 1 28 23
f 1 23 22
f 1 22 21
f 1 21 14
f 1 14 6
f 1 6 2
f 2 6 13
f 2 13 20
f 2 20 12
f 2 12 5
f 3 7 8
f 3 8 9
f 4 10 17
f 4 17 25
f 4 25 18
f 4 18 11
f 5 12 8
f 5 8 7
f 6 14 15
f 6 15 13
f 8 12 15
f 8 15 24
f 8 24 30
f 8 30 25
f 8 25 17
f 8 17 16
f 8 16 9
f 10 16 17
f 11 18 19
f 12 20 15
f 13 15 20
f 14 21 15
f 15 21 22
f 15 22 23
f 15 23 24
f 18 25 30
f 18 30 26
f 18 26 27
f 18 27 19
f 23 28 29
f 23 29 24
f 24 29 26
f 24 26 30
f 26 29 31
f 26 31 27
f 28 31 29

