# https://github.com/mikedh/trimesh
v -0.02328684 -0.03762545 0.05043620
v -0.02795390 -0.03762545 0.05043620
v -0.02328684 -0.03879979 0.05043620
v -0.02328684 -0.03762545 0.01165785
v -0.02795390 -0.03879959 0.05043620
v -0.02795390 -0.03762545 0.01165785
v -0.02509061 -0.03879979 0.05043620
v -0.02328684 -0.03959963 0.05040584
v -0.02328684 -0.03967694 0.01165785
v -0.02795390 -0.03959963 0.05040584
v -0.02795390 -0.03967694 0.01165785
v -0.02328684 -0.03967694 0.05036788
v -0.02795390 -0.03967694 0.05036788
f 1 2 5
f 1 5 7
f 1 7 3
f 1 3 8
f 1 8 12
f 1 12 9
f 1 9 4
f 1 4 6
f 1 6 2
f 2 6 11
f 2 11 13
f 2 13 10
f 2 10 5
f 3 7 10
f 3 10 8
f 4 9 11
f 4 11 6
f 5 10 7
f 8 10 13
f 8 13 12
f 9 12 13
f 9 13 11

