# https://github.com/mikedh/trimesh
v 0.01873904 -0.03048050 -0.00040777
v 0.01799569 -0.03048050 -0.00029830
v 0.01873904 -0.02999916 -0.00038786
v 0.01873904 -0.03048050 0.05042607
v 0.01775305 -0.03048050 -0.00020375
v 0.01873904 -0.02909089 -0.00015400
v 0.01873904 -0.03006085 0.05040617
v 0.01831949 -0.03048050 0.05040617
v 0.01775305 -0.03008643 -0.00007438
v 0.01775305 -0.03048050 0.05023698
v 0.01873904 -0.02882650 -0.00001965
v 0.01873904 -0.02909089 0.05015737
v 0.01775305 -0.02976861 0.00060234
v 0.01842257 -0.02882650 0.00060234
v 0.01824807 -0.02936289 0.00003011
v 0.01775305 -0.03019393 0.05014244
v 0.01873904 -0.02882650 0.05002800
v 0.01775305 -0.02974951 0.00140346
v 0.01841600 -0.02882650 0.00140346
v 0.01775305 -0.03014666 0.05011259
v 0.01842961 -0.02882650 0.04941098
v 0.01824807 -0.02936289 0.04997326
v 0.01775305 -0.03008643 0.05007278
v 0.01775305 -0.02974951 0.04859991
v 0.01841600 -0.02882650 0.04859991
v 0.01842257 -0.02882650 0.04939606
v 0.01775305 -0.02977266 0.04941098
v 0.01775305 -0.02976861 0.04939606
f 1 2 3
f 1 3 6
f 1 6 11
f 1 11 17
f 1 17 12
f 1 12 7
f 1 7 4
f 1 4 8
f 1 8 10
f 1 10 5
f 1 5 2
f 2 5 6
f 2 6 3
f 4 7 8
f 5 9 6
f 5 10 16
f 5 16 20
f 5 20 23
f 5 23 27
f 5 27 28
f 5 28 24
f 5 24 18
f 5 18 13
f 5 13 9
f 6 9 11
f 7 12 8
f 8 12 10
f 9 13 14
f 9 14 15
f 9 15 11
f 10 12 16
f 11 15 14
f 11 14 19
f 11 19 25
f 11 25 26
f 11 26 21
f 11 21 17
f 12 17 16
f 13 18 14
f 14 18 19
f 16 17 20
f 17 21 22
f 17 22 23
f 17 23 20
f 18 24 25
f 18 25 19
f 21 26 22
f 22 26 23
f 23 26 27
f 24 28 26
f 24 26 25
f 26 28 27

