# https://github.com/mikedh/trimesh
v 0.02040468 0.01020078 -0.00044000
v 0.02025613 0.01019935 0.00003797
v 0.01960462 0.01020078 -0.00041323
v 0.02040468 0.02486615 -0.00044000
v 0.03493512 0.01019935 -0.00044000
v 0.01876000 0.01019935 0.01273857
v 0.01876213 0.01020078 0.00060197
v 0.01894039 0.01020078 0.00003797
v 0.01898495 0.01020078 -0.00009204
v 0.01924173 0.02486615 -0.00022587
v 0.01960462 0.02486615 -0.00041323
v 0.03493512 0.02486615 -0.00044000
v 0.03879745 0.01019935 -0.00044000
v 0.01876000 0.01019935 0.01909173
v 0.01876000 0.02486471 0.01273857
v 0.01876213 0.02486328 0.00060197
v 0.01894039 0.02486615 0.00003797
v 0.01897010 0.01299603 -0.00005189
v 0.01898495 0.02486615 -0.00009204
v 0.03493512 0.02486615 0.00003797
v 0.04025962 0.02486471 0.00003797
v 0.04021930 0.02486471 -0.00009204
v 0.03959750 0.02486471 -0.00041323
v 0.03879745 0.02486471 -0.00044000
v 0.03959750 0.01019935 -0.00041323
v 0.01876000 0.02486471 0.01909173
v 0.04043576 0.01019935 0.01909173
v 0.04043576 0.02486328 0.01909173
v 0.01992083 0.02486471 0.01909173
v 0.04043576 0.02486328 0.01273857
v 0.04044000 0.02486184 0.00060197
v 0.04021930 0.01019935 -0.00009204
v 0.04006438 0.01019935 -0.00017234
v 0.04044000 0.01019935 0.01273857
v 0.04044000 0.01787874 0.01273857
v 0.04044000 0.02486184 0.01273666
v 0.04044000 0.01019935 0.00060197
f 1 2 3
f 1 3 11
f 1 11 4
f 1 4 12
f 1 12 24
f 1 24 13
f 1 13 5
f 1 5 2
f 2 6 7
f 2 7 8
f 2 8 9
f 2 9 3
f 2 5 13
f 2 13 25
f 2 25 33
f 2 33 32
f 2 32 37
f 2 37 34
f 2 34 27
f 2 27 14
f 2 14 6
f 3 10 11
f 3 9 10
f 4 11 10
f 4 10 19
f 4 19 17
f 4 17 20
f 4 20 12
f 6 14 26
f 6 26 15
f 6 15 16
f 6 16 7
f 7 16 17
f 7 17 8
f 8 17 18
f 8 18 9
f 9 18 19
f 9 19 10
f 12 20 21
f 12 21 22
f 12 22 23
f 12 23 24
f 13 24 23
f 13 23 25
f 14 27 28
f 14 28 29
f 14 29 26
f 15 26 17
f 15 17 16
f 17 19 18
f 17 26 29
f 17 29 20
f 20 28 21
f 20 29 28
f 21 28 30
f 21 30 31
f 21 31 22
f 22 32 33
f 22 33 23
f 22 31 37
f 22 37 32
f 23 33 25
f 27 34 35
f 27 35 28
f 28 35 36
f 28 36 31
f 28 31 30
f 31 36 35
f 31 35 34
f 31 34 37

