# https://github.com/mikedh/trimesh
v 0.03407701 0.02760636 0.03590401
v 0.03569119 0.02760636 0.03590401
v 0.03334670 0.02760636 0.03590543
v 0.03407701 0.03924905 0.03590401
v 0.03569119 0.03924905 0.03590401
v 0.03569119 0.02760636 0.05043858
v 0.03334670 0.03924905 0.03590543
v 0.03334670 0.02760636 0.05044000
v 0.03569119 0.03924905 0.05042435
v 0.03569119 0.03879766 0.05043858
v 0.03407701 0.02760636 0.05044000
v 0.03334670 0.03924905 0.05042435
v 0.03334670 0.03879880 0.05044000
v 0.03407701 0.03879880 0.05044000
f 1 2 6
f 1 6 11
f 1 11 8
f 1 8 3
f 1 3 7
f 1 7 4
f 1 4 5
f 1 5 2
f 2 5 9
f 2 9 10
f 2 10 6
f 3 8 13
f 3 13 12
f 3 12 7
f 4 7 12
f 4 12 9
f 4 9 5
f 6 10 14
f 6 14 11
f 8 11 14
f 8 14 13
f 9 14 10
f 9 12 13
f 9 13 14

