# https://github.com/mikedh/trimesh
v 0.04001092 -0.02675836 0.02863429
v 0.03818274 -0.02675836 0.02863429
v 0.04001092 -0.02732516 0.02863429
v 0.04001092 -0.02675836 0.00232898
v 0.03818274 -0.02732516 0.02863429
v 0.01876194 -0.02675836 0.02862914
v 0.01874112 -0.02723134 0.02862914
v 0.04001092 -0.02732516 0.00232898
v 0.03818274 -0.02675836 0.00232898
v 0.01874112 -0.02732516 0.02862914
v 0.01874112 -0.02717902 0.02741635
v 0.01874112 -0.02718190 0.02821200
v 0.01876194 -0.02675836 0.00233155
v 0.03841803 -0.02732516 0.00232898
v 0.01874112 -0.02723134 0.00233155
v 0.03818274 -0.02730851 0.00232898
v 0.01874112 -0.02732516 0.00233155
v 0.01874112 -0.02717902 0.00540343
v 0.01874112 -0.02718190 0.00460263
f 1 2 5
f 1 5 3
f 1 3 8
f 1 8 4
f 1 4 9
f 1 9 13
f 1 13 6
f 1 6 2
f 2 6 7
f 2 7 10
f 2 10 5
f 3 5 10
f 3 10 17
f 3 17 14
f 3 14 8
f 4 8 14
f 4 14 16
f 4 16 9
f 6 11 12
f 6 12 7
f 6 13 18
f 6 18 11
f 7 12 11
f 7 11 18
f 7 18 19
f 7 19 15
f 7 15 17
f 7 17 10
f 9 15 13
f 9 16 17
f 9 17 15
f 13 15 19
f 13 19 18
f 14 17 16

