# https://github.com/mikedh/trimesh
v -0.00911659 -0.01588633 0.02378857
v -0.00911659 -0.00886331 0.02378857
v -0.00906717 -0.01585951 0.02378857
v -0.00907691 -0.01586501 0.02636084
v -0.00911659 -0.01588633 0.04939648
v -0.00678823 -0.00886331 0.02378857
v -0.00911659 -0.00886331 0.05044000
v -0.00839964 -0.01546969 0.02378857
v -0.00906717 -0.01585951 0.04939648
v -0.00911659 -0.01588014 0.04945127
v -0.00674647 -0.00886331 0.02379118
v -0.00674647 -0.01286399 0.02378857
v -0.00911659 -0.01399908 0.05044000
v -0.00674647 -0.00886331 0.05044000
v -0.00798594 -0.01520912 0.02378857
v -0.00831727 -0.01541812 0.02636084
v -0.00839964 -0.01546969 0.04939648
v -0.00799058 -0.01520568 0.04981128
v -0.00839964 -0.01533425 0.04995476
v -0.00911659 -0.01558450 0.05007998
v -0.00674647 -0.01430847 0.02378857
v -0.00911659 -0.01471548 0.05042696
v -0.00839964 -0.01399908 0.05044000
v -0.00674647 -0.01234697 0.05044000
v -0.00703325 -0.01452022 0.02378857
v -0.00798594 -0.01520912 0.04939648
v -0.00674647 -0.01428853 0.04952953
v -0.00708894 -0.01447966 0.04992607
v -0.00703325 -0.01452022 0.04939648
v -0.00674647 -0.01430847 0.04939648
v -0.00767479 -0.01476773 0.05001216
v -0.00839964 -0.01479936 0.05027565
v -0.00911659 -0.01551300 0.05012173
v -0.00680355 -0.01435109 0.02636084
v -0.00680030 -0.01319950 0.05041391
v -0.00911659 -0.01479936 0.05041130
v -0.00760031 -0.01399908 0.05037478
v -0.00674647 -0.01314518 0.05041391
v -0.00674647 -0.01397983 0.05009564
v -0.00681352 -0.01400940 0.05011129
v -0.00674647 -0.01394614 0.05011651
v -0.00674647 -0.01320087 0.05039565
f 1 2 6
f 1 6 12
f 1 12 21
f 1 21 25
f 1 25 15
f 1 15 8
f 1 8 3
f 1 3 4
f 1 4 5
f 1 5 10
f 1 10 20
f 1 20 33
f 1 33 36
f 1 36 22
f 1 22 13
f 1 13 7
f 1 7 2
f 2 7 14
f 2 14 11
f 2 11 6
f 3 8 17
f 3 17 9
f 3 9 4
f 4 9 5
f 5 9 10
f 6 11 12
f 7 13 23
f 7 23 24
f 7 24 14
f 8 15 16
f 8 16 17
f 9 17 18
f 9 18 10
f 10 18 19
f 10 19 20
f 11 14 24
f 11 24 38
f 11 38 42
f 11 42 41
f 11 41 39
f 11 39 27
f 11 27 30
f 11 30 21
f 11 21 12
f 13 22 23
f 15 25 29
f 15 29 26
f 15 26 16
f 16 26 17
f 17 26 18
f 18 27 28
f 18 28 19
f 18 26 29
f 18 29 30
f 18 30 27
f 19 28 31
f 19 31 32
f 19 32 20
f 20 32 33
f 21 34 25
f 21 30 34
f 22 35 23
f 22 36 37
f 22 37 35
f 23 35 24
f 24 35 38
f 25 34 29
f 27 39 28
f 28 39 40
f 28 40 31
f 29 34 30
f 31 40 32
f 32 37 36
f 32 36 33
f 32 40 37
f 35 37 41
f 35 41 42
f 35 42 38
f 37 40 41
f 39 41 40

