# https://github.com/mikedh/trimesh
v -0.01855245 -0.02839773 0.03180011
v -0.01871742 -0.02760237 0.03260147
v -0.01855674 -0.02839773 0.04859428
v -0.01855245 -0.02839773 0.02619851
v -0.01872171 -0.02760237 0.04939564
v -0.01871742 -0.02760237 0.02540245
v -0.01855888 -0.02839773 0.04939564
v -0.01855459 -0.02839773 0.02539980
v -0.01896381 -0.02760237 0.05009618
v -0.01872599 -0.02760237 0.02333005
v -0.01888668 -0.02839773 0.05010679
v -0.01856531 -0.02839773 0.02333005
v -0.01960655 -0.02760237 0.05041460
v -0.04044000 -0.02760237 0.02333005
v -0.01960655 -0.02839773 0.05042787
v -0.04044000 -0.02839773 0.02333005
v -0.02040569 -0.02760237 0.05043848
v -0.04044000 -0.02760237 0.03978988
v -0.02040569 -0.02839773 0.05043848
v -0.04044000 -0.02839773 0.03978988
v -0.03879672 -0.02760237 0.05043848
v -0.04043786 -0.02760237 0.04939564
v -0.03879672 -0.02839773 0.05043848
v -0.04043786 -0.02839773 0.04939564
v -0.03959587 -0.02760237 0.05040929
v -0.04021719 -0.02760237 0.05008821
v -0.03959587 -0.02839773 0.05040929
v -0.04021719 -0.02839773 0.05008821
f 1 2 5
f 1 5 3
f 1 3 7
f 1 7 11
f 1 11 15
f 1 15 19
f 1 19 23
f 1 23 27
f 1 27 28
f 1 28 24
f 1 24 20
f 1 20 16
f 1 16 12
f 1 12 8
f 1 8 4
f 1 4 6
f 1 6 2
f 2 6 10
f 2 10 14
f 2 14 18
f 2 18 22
f 2 22 26
f 2 26 25
f 2 25 21
f 2 21 17
f 2 17 13
f 2 13 9
f 2 9 5
f 3 5 7
f 4 8 6
f 5 9 7
f 6 8 10
f 7 9 11
f 8 12 10
f 9 13 11
f 10 12 16
f 10 16 14
f 11 13 15
f 13 17 15
f 14 16 20
f 14 20 18
f 15 17 19
f 17 21 23
f 17 23 19
f 18 20 24
f 18 24 22
f 21 25 27
f 21 27 23
f 22 24 28
f 22 28 26
f 25 26 28
f 25 28 27

