# https://github.com/mikedh/trimesh
v 0.04044000 -0.02596255 0.04939838
v 0.04022758 -0.02596255 0.05006006
v 0.04021908 -0.02679570 0.05008781
v 0.04044000 -0.02679570 0.04939838
v 0.04044000 -0.02596255 0.02936427
v 0.04021696 -0.02596255 0.05008995
v 0.04021696 -0.02600034 0.05008995
v 0.03959669 -0.02679570 0.05041012
v 0.03959881 -0.02745893 0.05040798
v 0.04021696 -0.02745893 0.05008781
v 0.04044000 -0.02745893 0.04939411
v 0.04044000 -0.02596431 0.02863429
v 0.02059985 -0.02596255 0.02863429
v 0.03959669 -0.02596255 0.05041012
v 0.03879798 -0.02745893 0.05044000
v 0.04044000 -0.02745893 0.03452755
v 0.04044000 -0.02679570 0.02863429
v 0.01876240 -0.02596578 0.02863429
v 0.01876240 -0.02596255 0.02863855
v 0.03883197 -0.02596255 0.05043787
v 0.03879798 -0.02679570 0.05044000
v 0.02040442 -0.02745893 0.05044000
v 0.04043788 -0.02745893 0.02863429
v 0.01873904 -0.02723117 0.02863429
v 0.01873904 -0.02718503 0.03100141
v 0.01873904 -0.02717888 0.03606010
v 0.01876240 -0.02596255 0.04939838
v 0.02040230 -0.02596255 0.05043787
v 0.02040442 -0.02679570 0.05044000
v 0.01960784 -0.02679570 0.05041225
v 0.01960572 -0.02745893 0.05041012
v 0.01873904 -0.02745893 0.02863429
v 0.01873904 -0.02717888 0.04901417
v 0.01873904 -0.02718180 0.04939411
v 0.01873904 -0.02745893 0.04944107
v 0.01898332 -0.02596255 0.05008995
v 0.01960359 -0.02596255 0.05041012
v 0.01907254 -0.02745893 0.05014971
v 0.01876453 -0.02745893 0.04951364
v 0.01896845 -0.02745893 0.05009208
f 1 2 3
f 1 3 4
f 1 4 11
f 1 11 16
f 1 16 17
f 1 17 12
f 1 12 5
f 1 5 13
f 1 13 19
f 1 19 27
f 1 27 36
f 1 36 37
f 1 37 28
f 1 28 20
f 1 20 14
f 1 14 6
f 1 6 2
f 2 6 3
f 3 6 7
f 3 7 8
f 3 8 9
f 3 9 10
f 3 10 11
f 3 11 4
f 5 12 13
f 6 14 8
f 6 8 7
f 8 14 21
f 8 21 15
f 8 15 9
f 9 15 22
f 9 22 31
f 9 31 38
f 9 38 40
f 9 40 39
f 9 39 35
f 9 35 32
f 9 32 23
f 9 23 16
f 9 16 11
f 9 11 10
f 12 17 23
f 12 23 32
f 12 32 24
f 12 24 18
f 12 18 13
f 13 18 19
f 14 20 21
f 15 21 29
f 15 29 22
f 16 23 17
f 18 24 19
f 19 24 25
f 19 25 26
f 19 26 33
f 19 33 27
f 20 28 29
f 20 29 21
f 22 29 30
f 22 30 31
f 24 32 35
f 24 35 34
f 24 34 33
f 24 33 26
f 24 26 25
f 27 33 34
f 27 34 35
f 27 35 36
f 28 37 29
f 29 37 30
f 30 37 38
f 30 38 31
f 35 39 36
f 36 40 38
f 36 38 37
f 36 39 40

