# https://github.com/mikedh/trimesh
v 0.02040059 0.00414222 -0.00043973
v 0.02040059 0.00878826 -0.00043973
v 0.03879746 0.00414222 -0.00043973
v 0.01960055 0.00414222 -0.00041296
v 0.03879746 0.00878826 -0.00043973
v 0.01960055 0.00878826 -0.00041296
v 0.01876018 0.00878872 0.00235325
v 0.03959751 0.00414222 -0.00041296
v 0.01898088 0.00414222 -0.00009180
v 0.04044000 0.00878872 0.00235325
v 0.03959751 0.00878826 -0.00041296
v 0.01898088 0.00878826 -0.00009180
v 0.01876230 0.00878826 0.00060023
v 0.01876018 0.00826744 0.00235325
v 0.01876018 0.00878872 0.01909010
v 0.03991583 0.00878826 -0.00024856
v 0.04021930 0.00414222 -0.00009180
v 0.01883233 0.00414222 0.00037848
v 0.04044000 0.00878872 0.01909010
v 0.04044000 0.00878826 0.00060023
v 0.04021930 0.00878826 -0.00009180
v 0.01876230 0.00414222 0.00060023
v 0.01876018 0.00826744 0.01909010
v 0.04044000 0.00414222 0.00060023
v 0.04044000 0.00415814 0.01909010
v 0.01876230 0.00414222 0.00235134
v 0.01876230 0.00415814 0.01909010
v 0.04044000 0.00414222 0.00235134
f 1 2 5
f 1 5 3
f 1 3 8
f 1 8 17
f 1 17 24
f 1 24 28
f 1 28 26
f 1 26 22
f 1 22 18
f 1 18 9
f 1 9 4
f 1 4 6
f 1 6 2
f 2 6 7
f 2 7 10
f 2 10 5
f 3 5 11
f 3 11 8
f 4 9 12
f 4 12 6
f 5 10 11
f 6 12 7
f 7 12 13
f 7 13 22
f 7 22 14
f 7 14 23
f 7 23 15
f 7 15 19
f 7 19 10
f 8 11 16
f 8 16 17
f 9 18 12
f 10 19 25
f 10 25 28
f 10 28 24
f 10 24 20
f 10 20 21
f 10 21 16
f 10 16 11
f 12 18 13
f 13 18 22
f 14 22 26
f 14 26 23
f 15 23 27
f 15 27 25
f 15 25 19
f 16 21 17
f 17 21 20
f 17 20 24
f 23 26 27
f 25 27 26
f 25 26 28

