# https://github.com/mikedh/trimesh
v -0.04043728 0.02971680 0.00110903
v -0.04043864 0.02971680 0.00481547
v -0.04043728 0.03012107 0.00110903
v -0.02655220 0.02971680 0.00110903
v -0.04043864 0.03012107 0.00481547
v -0.04043864 0.02971680 0.01423379
v -0.02655220 0.03012107 0.00110903
v -0.02654948 0.02971680 0.00481547
v -0.04043864 0.03012107 0.01423379
v -0.02654948 0.02971680 0.01423122
v -0.02654948 0.02972721 0.01423379
v -0.02654948 0.03012107 0.00481547
v -0.02654948 0.03012107 0.01423379
f 1 2 5
f 1 5 3
f 1 3 7
f 1 7 4
f 1 4 8
f 1 8 10
f 1 10 6
f 1 6 2
f 2 6 9
f 2 9 5
f 3 5 9
f 3 9 13
f 3 13 12
f 3 12 7
f 4 7 12
f 4 12 8
f 6 10 11
f 6 11 13
f 6 13 9
f 8 12 13
f 8 13 11
f 8 11 10

