# https://github.com/mikedh/trimesh
v -0.01681090 -0.04044000 0.00060038
v -0.01681090 -0.04021934 -0.00009321
v -0.01637252 -0.04022718 -0.00006947
v -0.01640003 -0.04044000 0.00060038
v -0.01681090 -0.04044000 0.01010418
v -0.01681090 -0.03959953 -0.00041317
v -0.01637252 -0.04021934 -0.00009321
v -0.01637252 -0.04043902 0.00060038
v -0.01637252 -0.04044000 0.00062825
v -0.01637252 -0.04044000 0.01010418
v -0.01681090 -0.03042198 0.01010418
v -0.01681090 -0.03918861 -0.00042658
v -0.01637252 -0.03882672 -0.00043897
v -0.01637252 -0.03959953 -0.00041317
v -0.01637252 -0.03925824 0.01010418
v -0.01681090 -0.03042100 0.00616869
v -0.01637497 -0.03056419 0.01010418
v -0.01637252 -0.03055830 0.00619966
v -0.01681090 -0.03879926 -0.00043897
v -0.01637252 -0.03240009 -0.00043897
v -0.01637252 -0.03056909 0.00939924
v -0.01681090 -0.03042100 0.00539976
v -0.01637252 -0.03055830 0.00457303
v -0.01681090 -0.03198917 -0.00043897
v -0.01681090 -0.03160081 -0.00043587
v -0.01640003 -0.03160081 -0.00043278
v -0.01637252 -0.03162827 -0.00043278
v -0.01681090 -0.03042296 0.00136931
v -0.01637252 -0.03056811 0.00060038
v -0.01681090 -0.03111535 -0.00028105
v -0.01637252 -0.03160081 -0.00043174
v -0.01681090 -0.03042885 0.00060038
v -0.01637252 -0.03057596 0.00057664
v -0.01681090 -0.03079662 -0.00013862
v -0.01637252 -0.03090548 -0.00012314
v -0.01681090 -0.03044650 0.00055910
v -0.01637252 -0.03088390 -0.00011178
f 1 2 3
f 1 3 4
f 1 4 9
f 1 9 10
f 1 10 5
f 1 5 11
f 1 11 16
f 1 16 22
f 1 22 28
f 1 28 32
f 1 32 36
f 1 36 34
f 1 34 30
f 1 30 25
f 1 25 24
f 1 24 19
f 1 19 12
f 1 12 6
f 1 6 2
f 2 6 14
f 2 14 7
f 2 7 3
f 3 7 14
f 3 14 13
f 3 13 20
f 3 20 27
f 3 27 31
f 3 31 35
f 3 35 37
f 3 37 33
f 3 33 29
f 3 29 23
f 3 23 18
f 3 18 21
f 3 21 15
f 3 15 10
f 3 10 9
f 3 9 8
f 3 8 4
f 4 8 9
f 5 10 15
f 5 15 17
f 5 17 11
f 6 12 13
f 6 13 14
f 11 17 18
f 11 18 16
f 12 19 13
f 13 19 24
f 13 24 20
f 15 21 17
f 16 18 23
f 16 23 22
f 17 21 18
f 20 24 25
f 20 25 26
f 20 26 27
f 22 23 28
f 23 29 28
f 25 30 26
f 26 31 27
f 26 30 31
f 28 29 32
f 29 33 32
f 30 34 35
f 30 35 31
f 32 33 36
f 33 37 36
f 34 37 35
f 34 36 37

