# https://github.com/mikedh/trimesh
v -0.01876862 -0.03261292 0.01165785
v -0.01876862 -0.02975397 0.01165785
v -0.01803616 -0.03261292 0.01165785
v -0.01876862 -0.03261292 0.05043620
v -0.01803616 -0.02975397 0.01165785
v -0.01876862 -0.02975397 0.05032990
v -0.01803616 -0.03261292 0.05043620
v -0.01876862 -0.03080015 0.05043620
v -0.01803616 -0.02975397 0.04989329
v -0.01876862 -0.02999970 0.05039824
v -0.01803616 -0.03080015 0.05040963
v -0.01803616 -0.02998963 0.05015146
v -0.01803616 -0.02987516 0.05010590
v -0.01808621 -0.02975397 0.05007553
v -0.01803616 -0.03159976 0.05043620
f 1 2 5
f 1 5 3
f 1 3 7
f 1 7 4
f 1 4 8
f 1 8 10
f 1 10 6
f 1 6 2
f 2 6 14
f 2 14 9
f 2 9 5
f 3 5 9
f 3 9 13
f 3 13 12
f 3 12 11
f 3 11 15
f 3 15 7
f 4 7 15
f 4 15 8
f 6 10 11
f 6 11 12
f 6 12 13
f 6 13 14
f 8 15 11
f 8 11 10
f 9 14 13

