# https://github.com/mikedh/trimesh
v -0.04044000 -0.01769499 0.04905596
v -0.03250796 -0.01769499 0.04905596
v -0.04044000 -0.01769499 0.04940007
v -0.04044000 0.00161952 0.04905596
v -0.03250796 -0.01769499 0.05044000
v -0.03250796 0.00161952 0.04905596
v -0.04021872 -0.01769499 0.05009331
v -0.04044000 0.00161952 0.04940007
v -0.03879862 -0.01769499 0.05044000
v -0.03250796 0.00161952 0.05044000
v -0.03998268 -0.01769499 0.05021524
v -0.04020086 -0.00757733 0.05010266
v -0.04021872 0.00161952 0.05009331
v -0.03959913 -0.01769499 0.05041331
v -0.03879862 0.00161952 0.05044000
v -0.03989184 0.00161952 0.05026225
v -0.03959913 0.00161952 0.05041331
f 1 2 5
f 1 5 9
f 1 9 14
f 1 14 11
f 1 11 7
f 1 7 3
f 1 3 8
f 1 8 4
f 1 4 6
f 1 6 2
f 2 6 10
f 2 10 5
f 3 7 13
f 3 13 8
f 4 8 13
f 4 13 16
f 4 16 17
f 4 17 15
f 4 15 10
f 4 10 6
f 5 10 15
f 5 15 9
f 7 11 12
f 7 12 13
f 9 15 17
f 9 17 14
f 11 14 12
f 12 14 16
f 12 16 13
f 14 17 16

