# https://github.com/mikedh/trimesh
v -0.02328620 -0.02975469 0.05043620
v -0.02573771 -0.02975469 0.05044000
v -0.02328620 -0.03222545 0.05043620
v -0.02328620 -0.02975445 0.01713253
v -0.02573771 -0.03222545 0.05044000
v -0.03879783 -0.02975469 0.05044000
v -0.02328620 -0.03222545 0.01165406
v -0.02328620 -0.02975445 0.01165406
v -0.04044000 -0.02975445 0.01713253
v -0.03879783 -0.03222545 0.05044000
v -0.03959709 -0.02975469 0.05040962
v -0.04044000 -0.03222545 0.01165406
v -0.04044000 -0.02975445 0.01165406
v -0.04043832 -0.02975469 0.04939214
v -0.04034765 -0.02975469 0.04968448
v -0.04021668 -0.02975469 0.05009071
v -0.04044000 -0.03222545 0.01713253
v -0.03959709 -0.03222545 0.05040962
v -0.04043832 -0.03222545 0.04939214
v -0.04034765 -0.03222545 0.04968448
v -0.04021668 -0.03222545 0.05009071
f 1 2 5
f 1 5 3
f 1 3 7
f 1 7 8
f 1 8 4
f 1 4 2
f 2 4 9
f 2 9 6
f 2 6 10
f 2 10 5
f 3 5 10
f 3 10 18
f 3 18 21
f 3 21 20
f 3 20 19
f 3 19 17
f 3 17 12
f 3 12 7
f 4 8 13
f 4 13 9
f 6 9 11
f 6 11 18
f 6 18 10
f 7 12 13
f 7 13 8
f 9 14 15
f 9 15 16
f 9 16 11
f 9 13 12
f 9 12 17
f 9 17 19
f 9 19 14
f 11 16 21
f 11 21 18
f 14 19 20
f 14 20 15
f 15 20 21
f 15 21 16

