# https://github.com/mikedh/trimesh
v -0.01438970 0.01669891 0.03135152
v -0.01438970 0.01783236 0.03135152
v -0.01386160 0.01669891 0.03135152
v -0.01438970 0.01669891 0.05037836
v -0.01400005 0.01775769 0.03135152
v -0.01438970 0.01783236 0.04939871
v -0.01386160 0.01772796 0.03135152
v -0.01386160 0.01669891 0.05034670
v -0.01400005 0.01669891 0.05037836
v -0.01438970 0.01720007 0.05031876
v -0.01400005 0.01775769 0.04939871
v -0.01438970 0.01771642 0.04999842
v -0.01400005 0.01767881 0.04995372
v -0.01386160 0.01766439 0.04992764
v -0.01386160 0.01772796 0.04939871
v -0.01386160 0.01720905 0.05024240
v -0.01389309 0.01669891 0.05035415
v -0.01400005 0.01720007 0.05027406
f 1 2 5
f 1 5 7
f 1 7 3
f 1 3 8
f 1 8 17
f 1 17 9
f 1 9 4
f 1 4 10
f 1 10 12
f 1 12 6
f 1 6 2
f 2 6 11
f 2 11 5
f 3 7 15
f 3 15 14
f 3 14 16
f 3 16 8
f 4 9 10
f 5 11 15
f 5 15 7
f 6 12 13
f 6 13 14
f 6 14 11
f 8 16 17
f 9 17 16
f 9 16 18
f 9 18 10
f 10 18 12
f 11 14 15
f 12 18 13
f 13 18 16
f 13 16 14

