# https://github.com/mikedh/trimesh
v -0.01778148 0.02971680 0.04830071
v -0.02919185 0.02971680 0.04830071
v -0.01841930 0.02882542 0.04830071
v -0.01841930 0.02882394 0.04780425
v -0.01778148 0.02971680 0.00958449
v -0.02919185 0.02882394 0.04830071
v -0.02919185 0.02971680 0.00958449
v -0.01886164 0.02882394 0.04830071
v -0.01841930 0.02882394 0.01820241
v -0.01842041 0.02882394 0.01020601
v -0.01842041 0.02882691 0.00958449
v -0.02919185 0.02882394 0.00958449
v -0.01902584 0.02882394 0.00958449
f 1 2 6
f 1 6 8
f 1 8 3
f 1 3 4
f 1 4 9
f 1 9 5
f 1 5 7
f 1 7 2
f 2 7 12
f 2 12 6
f 3 8 4
f 4 8 6
f 4 6 12
f 4 12 13
f 4 13 10
f 4 10 9
f 5 9 10
f 5 10 11
f 5 11 13
f 5 13 12
f 5 12 7
f 10 13 11

