# https://github.com/mikedh/trimesh
v -0.04043938 -0.01998843 0.01178135
v -0.02513837 -0.01998843 0.01178135
v -0.04043938 -0.01998843 0.01278335
v -0.04043938 0.00449703 0.01178135
v -0.02513837 -0.01998843 0.01272548
v -0.02513837 0.00450182 0.01178135
v -0.02822403 -0.01998843 0.01278335
v -0.04043938 0.00449942 0.01278335
v -0.04043938 0.00449942 0.01180019
v -0.04040643 0.00449942 0.01178135
v -0.02513837 -0.01998603 0.01278335
v -0.03409279 0.00450182 0.01178135
v -0.02513837 0.00450182 0.01278335
v -0.03409279 0.00450182 0.01278335
f 1 2 5
f 1 5 7
f 1 7 3
f 1 3 8
f 1 8 9
f 1 9 4
f 1 4 10
f 1 10 12
f 1 12 6
f 1 6 2
f 2 6 13
f 2 13 11
f 2 11 5
f 3 7 11
f 3 11 13
f 3 13 14
f 3 14 8
f 4 9 10
f 5 11 7
f 6 12 14
f 6 14 13
f 8 14 12
f 8 12 9
f 9 12 10

