# https://github.com/mikedh/trimesh
v 0.03424364 -0.00566458 0.00172977
v 0.03424364 -0.01870114 0.00172977
v 0.03424364 -0.00566458 -0.00043979
v 0.01876152 -0.00566458 0.00172977
v 0.03424364 -0.01870114 -0.00043979
v 0.01876152 -0.01870114 0.00172977
v 0.02040159 -0.00566458 -0.00043979
v 0.01876152 -0.00566458 0.00060017
v 0.02040159 -0.01870114 -0.00043979
v 0.01876152 -0.01870114 0.00060017
v 0.01960126 -0.00566458 -0.00041302
v 0.01888884 -0.00566458 0.00019766
v 0.01960126 -0.01870114 -0.00041302
v 0.01895402 -0.01870114 -0.00000732
v 0.01898130 -0.00566458 -0.00009313
v 0.01898130 -0.01870114 -0.00009313
f 1 2 5
f 1 5 3
f 1 3 7
f 1 7 11
f 1 11 15
f 1 15 12
f 1 12 8
f 1 8 4
f 1 4 6
f 1 6 2
f 2 6 10
f 2 10 14
f 2 14 16
f 2 16 13
f 2 13 9
f 2 9 5
f 3 5 9
f 3 9 7
f 4 8 10
f 4 10 6
f 7 9 13
f 7 13 11
f 8 12 10
f 10 12 14
f 11 13 16
f 11 16 15
f 12 15 16
f 12 16 14

