# https://github.com/mikedh/trimesh
v -0.01850955 0.02313966 0.04779073
v -0.01850955 0.02313966 0.00220430
v -0.01871966 0.02760578 0.04859989
v -0.01852091 0.02313966 0.04859493
v -0.01851334 0.02313966 0.00186673
v -0.01871966 0.02760578 0.00139513
v -0.01873480 0.02760578 0.04938920
v -0.01873669 0.02760578 0.04939913
v -0.01872344 0.02599946 0.04939913
v -0.01876319 0.02520068 0.04939913
v -0.01898655 0.02599946 0.04997002
v -0.01886730 0.02313966 0.04927999
v -0.01852091 0.02313966 0.00140506
v -0.01873669 0.02760578 0.00060086
v -0.01897330 0.02760578 0.05006434
v -0.01897519 0.02760578 0.05006930
v -0.01897330 0.02679956 0.05003952
v -0.01960173 0.02760578 0.05035723
v -0.01904901 0.02520068 0.04989059
v -0.01960173 0.02313966 0.04951828
v -0.01912851 0.02462050 0.04983102
v -0.01866287 0.02313966 0.00109728
v -0.01876319 0.02520068 0.00060086
v -0.01872344 0.02599946 0.00060086
v -0.01897519 0.02760578 -0.00006931
v -0.02040240 0.02760578 0.05032248
v -0.03784694 0.02760535 0.05029766
v -0.03784694 0.02313966 0.05029766
v -0.01960173 0.02679956 0.05024801
v -0.01886730 0.02313966 0.00071503
v -0.01898655 0.02599946 0.00002997
v -0.01897330 0.02679956 -0.00003953
v -0.01898087 0.02760578 -0.00007428
v -0.02199997 0.02760578 0.05013384
v -0.02434143 0.02760578 0.04985088
v -0.02524621 0.02760578 0.04973174
v -0.02562857 0.02760578 0.04935446
v -0.03784694 0.02760535 0.00023847
v -0.03784694 0.02313966 -0.00029767
v -0.01917583 0.02313966 0.00060086
v -0.01912851 0.02462050 0.00016897
v -0.01904901 0.02520068 0.00010940
v -0.01960930 0.02760578 -0.00035724
v -0.02562857 0.02760578 0.00065546
v -0.02524432 0.02760578 0.00026825
v -0.03720337 0.02760535 -0.00024802
v -0.03784694 0.02760447 -0.00029767
v -0.01960173 0.02679956 -0.00024802
v -0.01960173 0.02313966 0.00047675
v -0.02040808 0.02760578 -0.00032249
v -0.02434143 0.02760578 0.00014911
v -0.02360700 0.02760578 0.00005976
v -0.02200754 0.02760578 -0.00013385
v -0.02120876 0.02760578 -0.00022817
f 1 2 6
f 1 6 3
f 1 3 4
f 1 4 12
f 1 12 20
f 1 20 28
f 1 28 39
f 1 39 49
f 1 49 40
f 1 40 30
f 1 30 22
f 1 22 13
f 1 13 5
f 1 5 2
f 2 5 6
f 3 7 4
f 3 6 14
f 3 14 25
f 3 25 33
f 3 33 43
f 3 43 50
f 3 50 54
f 3 54 53
f 3 53 52
f 3 52 51
f 3 51 45
f 3 45 44
f 3 44 37
f 3 37 36
f 3 36 35
f 3 35 34
f 3 34 26
f 3 26 18
f 3 18 16
f 3 16 15
f 3 15 8
f 3 8 7
f 4 7 8
f 4 8 9
f 4 9 10
f 4 10 11
f 4 11 12
f 5 13 6
f 6 13 14
f 8 15 9
f 9 15 16
f 9 16 17
f 9 17 10
f 10 17 11
f 11 17 18
f 11 18 19
f 11 19 12
f 12 19 21
f 12 21 20
f 13 22 23
f 13 23 24
f 13 24 14
f 14 24 25
f 16 18 17
f 18 26 27
f 18 27 28
f 18 28 29
f 18 29 19
f 19 29 21
f 20 21 28
f 21 29 28
f 22 30 31
f 22 31 23
f 23 31 32
f 23 32 24
f 24 32 25
f 25 32 33
f 26 34 27
f 27 34 35
f 27 35 36
f 27 36 37
f 27 37 44
f 27 44 38
f 27 38 47
f 27 47 39
f 27 39 28
f 30 40 41
f 30 41 42
f 30 42 31
f 31 42 43
f 31 43 32
f 32 43 33
f 38 44 45
f 38 45 46
f 38 46 47
f 39 47 43
f 39 43 48
f 39 48 41
f 39 41 49
f 40 49 41
f 41 48 42
f 42 48 43
f 43 47 46
f 43 46 50
f 45 51 46
f 46 51 52
f 46 52 53
f 46 53 54
f 46 54 50

