# https://github.com/mikedh/trimesh
v -0.03902394 0.01957274 0.00228935
v -0.03902394 0.01957274 -0.00043227
v -0.04044000 0.01957274 0.00228935
v -0.03902394 -0.01560356 0.00228935
v -0.03957284 0.01957274 -0.00041415
v -0.03902394 -0.01560012 -0.00043227
v -0.04044000 0.01957274 0.00060016
v -0.04044000 -0.01560356 0.00228935
v -0.03902394 -0.01560356 -0.00029799
v -0.03960001 0.01957274 -0.00041309
v -0.03960001 -0.01560356 -0.00041309
v -0.04021988 0.01957274 -0.00009310
v -0.04044000 -0.01560356 0.00060016
v -0.04019882 0.01957274 -0.00010402
v -0.04021988 -0.01560356 -0.00009310
f 1 2 5
f 1 5 10
f 1 10 14
f 1 14 12
f 1 12 7
f 1 7 3
f 1 3 8
f 1 8 4
f 1 4 9
f 1 9 6
f 1 6 2
f 2 6 5
f 3 7 13
f 3 13 8
f 4 8 13
f 4 13 15
f 4 15 11
f 4 11 9
f 5 6 11
f 5 11 10
f 6 9 11
f 7 12 15
f 7 15 13
f 10 11 14
f 11 15 14
f 12 14 15

