# https://github.com/mikedh/trimesh
v 0.00348957 -0.04044000 0.01291851
v 0.00348957 -0.03076095 0.01291851
v 0.00442029 -0.04044000 0.01291851
v 0.00348957 -0.04044000 0.04939682
v 0.00442029 -0.03076095 0.01291851
v 0.00348957 -0.03076095 0.04939682
v 0.00442038 -0.04044000 0.03542406
v 0.00442038 -0.04044000 0.04939682
v 0.00348957 -0.04021830 0.05009105
v 0.00442038 -0.03076095 0.03542406
v 0.00348957 -0.03098170 0.05009105
v 0.00442038 -0.03076095 0.04939682
v 0.00442038 -0.04021830 0.05009105
v 0.00348957 -0.03959867 0.05041061
v 0.00348957 -0.03107834 0.05014247
v 0.00442038 -0.03098170 0.05009105
v 0.00442038 -0.03959867 0.05041061
v 0.00348957 -0.03879903 0.05043633
v 0.00442038 -0.03158522 0.05040327
v 0.00348957 -0.03160133 0.05041061
v 0.00442038 -0.03879903 0.05043633
v 0.00348957 -0.03240097 0.05043633
v 0.00442038 -0.03160133 0.05041061
v 0.00348957 -0.03171218 0.05041429
v 0.00442038 -0.03240097 0.05043633
f 1 2 5
f 1 5 3
f 1 3 7
f 1 7 8
f 1 8 4
f 1 4 9
f 1 9 14
f 1 14 18
f 1 18 22
f 1 22 24
f 1 24 20
f 1 20 15
f 1 15 11
f 1 11 6
f 1 6 2
f 2 6 12
f 2 12 10
f 2 10 5
f 3 5 10
f 3 10 7
f 4 8 13
f 4 13 9
f 6 11 16
f 6 16 12
f 7 10 12
f 7 12 16
f 7 16 19
f 7 19 23
f 7 23 25
f 7 25 21
f 7 21 17
f 7 17 13
f 7 13 8
f 9 13 17
f 9 17 14
f 11 15 16
f 14 17 21
f 14 21 18
f 15 19 16
f 15 20 19
f 18 21 25
f 18 25 22
f 19 20 23
f 20 24 23
f 22 25 24
f 23 24 25

