# https://github.com/mikedh/trimesh
v -0.03240590 -0.01998843 0.02311349
v -0.02159905 -0.01998843 0.02311349
v -0.03240590 -0.01998843 0.02381912
v -0.03240590 0.00450182 0.02311349
v -0.01840713 -0.01998363 0.02311349
v -0.01840713 -0.01998843 0.02379992
v -0.01889410 -0.01998843 0.02381912
v -0.03240590 0.00450182 0.02381912
v -0.01773053 0.00450182 0.02311349
v -0.01773197 -0.01905830 0.02311349
v -0.01773053 -0.01905830 0.02379992
v -0.01773053 -0.01905830 0.02380690
v -0.01773197 -0.01905830 0.02381912
v -0.01840713 -0.01998363 0.02381912
v -0.01773053 0.00450182 0.02381912
v -0.01773053 -0.01587715 0.02311349
v -0.01773053 -0.01869631 0.02381912
f 1 2 6
f 1 6 7
f 1 7 3
f 1 3 8
f 1 8 4
f 1 4 9
f 1 9 16
f 1 16 10
f 1 10 5
f 1 5 2
f 2 5 6
f 3 7 14
f 3 14 13
f 3 13 17
f 3 17 15
f 3 15 8
f 4 8 15
f 4 15 9
f 5 10 6
f 6 10 11
f 6 11 12
f 6 12 13
f 6 13 14
f 6 14 7
f 9 15 17
f 9 17 12
f 9 12 11
f 9 11 16
f 10 16 11
f 12 17 13

