# https://github.com/mikedh/trimesh
v -0.01936862 -0.03989201 0.01165785
v -0.01936862 -0.03479573 0.01165785
v -0.01721611 -0.03989201 0.01165785
v -0.01936862 -0.03989201 0.05025021
v -0.01876854 -0.03439020 0.01165785
v -0.01936862 -0.03479573 0.05043620
v -0.01721611 -0.03868512 0.01165785
v -0.01721611 -0.03989201 0.05025021
v -0.01721611 -0.03961142 0.05040204
v -0.01936862 -0.03959903 0.05040584
v -0.01721737 -0.03439020 0.01165785
v -0.01876854 -0.03439020 0.05043620
v -0.01936862 -0.03879929 0.05043620
v -0.01721695 -0.03531650 0.01165785
v -0.01721611 -0.03479573 0.01179830
v -0.01721611 -0.03959903 0.05040584
v -0.01936862 -0.03936746 0.05041722
v -0.01721632 -0.03439020 0.01179830
v -0.01721632 -0.03439020 0.05043620
v -0.01721611 -0.03881491 0.05043620
v -0.01721611 -0.03479573 0.05043620
f 1 2 5
f 1 5 11
f 1 11 14
f 1 14 7
f 1 7 3
f 1 3 8
f 1 8 4
f 1 4 10
f 1 10 17
f 1 17 13
f 1 13 6
f 1 6 2
f 2 6 12
f 2 12 5
f 3 7 15
f 3 15 21
f 3 21 20
f 3 20 16
f 3 16 9
f 3 9 8
f 4 8 9
f 4 9 10
f 5 12 19
f 5 19 18
f 5 18 11
f 6 13 20
f 6 20 21
f 6 21 19
f 6 19 12
f 7 14 15
f 9 16 10
f 10 16 17
f 11 18 15
f 11 15 14
f 13 17 20
f 15 18 19
f 15 19 21
f 16 20 17

