# https://github.com/mikedh/trimesh
v 0.00442038 -0.03240030 0.05044000
v 0.00442038 -0.03879966 0.05044000
v 0.00442038 -0.03160025 0.05041012
v -0.01719916 -0.03160025 0.05044000
v -0.01721611 -0.03879966 0.05044000
v 0.00442038 -0.03959970 0.05041012
v 0.00442038 -0.03158516 0.05040514
v -0.01721611 -0.03073681 0.05018102
v -0.01721611 -0.03160025 0.05044000
v -0.01721611 -0.03959970 0.05041012
v -0.01721611 -0.03961178 0.05040514
v 0.00442038 -0.04020351 0.05010133
v 0.00442038 -0.03098034 0.05009137
v -0.01721611 -0.03056271 0.05009137
v -0.01721611 -0.04021961 0.05009137
v 0.00442038 -0.04021961 0.05009137
v 0.00442038 -0.03076096 0.04939909
v -0.01721611 -0.03017527 0.04939909
v -0.01721611 -0.04043900 0.04939909
v 0.00442038 -0.04043900 0.04939909
v -0.01721611 -0.03016017 0.04862215
v 0.00442038 -0.03076096 0.00060091
v -0.01721611 -0.04043900 0.00060091
v 0.00442038 -0.04043900 0.00060091
v -0.01721611 -0.03016017 0.00140276
v 0.00442038 -0.03098034 -0.00009137
v -0.01721611 -0.03029703 0.00018754
v -0.01721611 -0.03017527 0.00060091
v -0.01721611 -0.04021961 -0.00009137
v 0.00442038 -0.04021961 -0.00009137
v 0.00442038 -0.03099644 -0.00010133
v -0.01721611 -0.03066133 -0.00015611
v -0.01721611 -0.03056271 -0.00009137
v 0.00442038 -0.03961480 -0.00040514
v -0.01721611 -0.03959970 -0.00041012
v 0.00442038 -0.03160025 -0.00041012
v -0.01721611 -0.03073681 -0.00018102
v 0.00442038 -0.03959970 -0.00041012
v -0.01721611 -0.03879966 -0.00044000
v 0.00442038 -0.03240030 -0.00044000
v -0.01719916 -0.03160025 -0.00044000
v -0.01721611 -0.03160025 -0.00044000
v 0.00442038 -0.03879966 -0.00044000
f 1 2 6
f 1 6 12
f 1 12 16
f 1 16 20
f 1 20 24
f 1 24 30
f 1 30 34
f 1 34 38
f 1 38 43
f 1 43 40
f 1 40 36
f 1 36 31
f 1 31 26
f 1 26 22
f 1 22 17
f 1 17 13
f 1 13 7
f 1 7 3
f 1 3 4
f 1 4 9
f 1 9 5
f 1 5 2
f 2 5 10
f 2 10 6
f 3 7 8
f 3 8 4
f 4 8 9
f 5 9 8
f 5 8 14
f 5 14 18
f 5 18 21
f 5 21 25
f 5 25 28
f 5 28 27
f 5 27 33
f 5 33 32
f 5 32 37
f 5 37 42
f 5 42 39
f 5 39 35
f 5 35 29
f 5 29 23
f 5 23 19
f 5 19 15
f 5 15 11
f 5 11 10
f 6 10 11
f 6 11 12
f 7 13 14
f 7 14 8
f 11 15 12
f 12 15 16
f 13 17 18
f 13 18 14
f 15 19 20
f 15 20 16
f 17 21 18
f 17 22 25
f 17 25 21
f 19 23 24
f 19 24 20
f 22 26 27
f 22 27 28
f 22 28 25
f 23 29 30
f 23 30 24
f 26 31 32
f 26 32 33
f 26 33 27
f 29 34 30
f 29 35 34
f 31 36 32
f 32 36 37
f 34 35 38
f 35 39 43
f 35 43 38
f 36 40 41
f 36 41 37
f 37 41 42
f 39 42 41
f 39 41 40
f 39 40 43

