# https://github.com/mikedh/trimesh
v -0.01876407 -0.02228015 0.04939411
v -0.01898474 -0.02228015 0.05008639
v -0.01876407 -0.02371985 0.04939411
v -0.01876407 -0.02228015 0.00060091
v -0.01960429 -0.02228015 0.05041011
v -0.01898474 -0.02371985 0.05008639
v -0.01876407 -0.02371985 0.00060091
v -0.01898474 -0.02228015 -0.00009137
v -0.02040632 -0.02228015 0.05044000
v -0.01960429 -0.02371985 0.05041011
v -0.01898474 -0.02371985 -0.00009137
v -0.01960429 -0.02228015 -0.00041011
v -0.02040632 -0.02371985 0.05044000
v -0.03879351 -0.02228015 0.05044000
v -0.01960429 -0.02371985 -0.00041011
v -0.02012412 -0.02228015 -0.00043004
v -0.03879351 -0.02371985 0.05044000
v -0.03959342 -0.02228015 0.05041011
v -0.02040419 -0.02371985 -0.00044000
v -0.02040419 -0.02228015 -0.00044000
v -0.03959342 -0.02371985 0.05041011
v -0.04021510 -0.02228015 0.05008639
v -0.03879564 -0.02371985 -0.00044000
v -0.03879564 -0.02228015 -0.00044000
v -0.04021510 -0.02371985 0.05008639
v -0.04044000 -0.02228015 0.04939411
v -0.03959554 -0.02371985 -0.00041011
v -0.03959554 -0.02228015 -0.00041011
v -0.04044000 -0.02371985 0.04939411
v -0.04044000 -0.02228015 0.00060091
v -0.04021510 -0.02371985 -0.00009137
v -0.04021510 -0.02228015 -0.00009137
v -0.04044000 -0.02371985 0.00060091
f 1 2 6
f 1 6 3
f 1 3 7
f 1 7 4
f 1 4 8
f 1 8 12
f 1 12 16
f 1 16 20
f 1 20 24
f 1 24 28
f 1 28 32
f 1 32 30
f 1 30 26
f 1 26 22
f 1 22 18
f 1 18 14
f 1 14 9
f 1 9 5
f 1 5 2
f 2 5 10
f 2 10 6
f 3 6 10
f 3 10 13
f 3 13 17
f 3 17 21
f 3 21 25
f 3 25 29
f 3 29 33
f 3 33 31
f 3 31 27
f 3 27 23
f 3 23 19
f 3 19 15
f 3 15 11
f 3 11 7
f 4 7 11
f 4 11 8
f 5 9 13
f 5 13 10
f 8 11 15
f 8 15 12
f 9 14 17
f 9 17 13
f 12 15 16
f 14 18 21
f 14 21 17
f 15 19 16
f 16 19 20
f 18 22 25
f 18 25 21
f 19 23 24
f 19 24 20
f 22 26 29
f 22 29 25
f 23 27 28
f 23 28 24
f 26 30 33
f 26 33 29
f 27 31 32
f 27 32 28
f 30 32 31
f 30 31 33

