# https://github.com/mikedh/trimesh
v 0.04044000 -0.00888835 0.04939997
v 0.04044000 -0.00888835 0.04787173
v 0.04021930 -0.00888835 0.05009332
v 0.04027023 -0.01781694 0.04993444
v 0.04044000 -0.01781694 0.04939997
v 0.04044000 -0.01781694 0.04787173
v 0.01876212 -0.00888835 0.04787173
v 0.03959963 -0.00888835 0.05041310
v 0.03974181 -0.01781694 0.05033994
v 0.04021930 -0.01781694 0.05009332
v 0.01876212 -0.01781694 0.04787173
v 0.01876212 -0.00888835 0.04939997
v 0.03879957 -0.00888835 0.05044000
v 0.03959963 -0.01781694 0.05041310
v 0.01876212 -0.01781694 0.04939997
v 0.01881093 -0.01781694 0.04955860
v 0.01884701 -0.00888835 0.04966997
v 0.03879957 -0.01781694 0.05044000
v 0.02040043 -0.00888835 0.05044000
v 0.01898070 -0.01781694 0.05009332
v 0.01898070 -0.00888835 0.05009332
v 0.02040043 -0.01781694 0.05044000
v 0.01991233 -0.00888835 0.05042366
v 0.01960037 -0.01781694 0.05041310
v 0.01960037 -0.00888835 0.05041310
v 0.01978500 -0.01781694 0.05041939
f 1 2 7
f 1 7 12
f 1 12 17
f 1 17 21
f 1 21 25
f 1 25 23
f 1 23 19
f 1 19 13
f 1 13 8
f 1 8 3
f 1 3 4
f 1 4 5
f 1 5 6
f 1 6 2
f 2 6 11
f 2 11 7
f 3 8 9
f 3 9 10
f 3 10 4
f 4 10 9
f 4 9 14
f 4 14 18
f 4 18 22
f 4 22 26
f 4 26 24
f 4 24 20
f 4 20 16
f 4 16 15
f 4 15 11
f 4 11 6
f 4 6 5
f 7 11 15
f 7 15 12
f 8 13 18
f 8 18 14
f 8 14 9
f 12 16 17
f 12 15 16
f 13 19 22
f 13 22 18
f 16 20 21
f 16 21 17
f 19 23 22
f 20 24 25
f 20 25 21
f 22 23 26
f 23 25 26
f 24 26 25

