# https://github.com/mikedh/trimesh
v -0.01803609 -0.03439020 0.01165406
v -0.01803609 -0.02975397 0.01165406
v -0.01721723 -0.03439020 0.01165406
v -0.01803609 -0.03439020 0.01904114
v -0.01774842 -0.02975397 0.01165406
v -0.01803609 -0.02975397 0.01903391
v -0.01721827 -0.03015787 0.01165406
v -0.01721611 -0.03015923 0.01180014
v -0.01721611 -0.03439020 0.01179363
v -0.01721611 -0.03439020 0.01904114
v -0.01803609 -0.02988558 0.01904114
v -0.01774842 -0.02975397 0.01904114
v -0.01803320 -0.02975397 0.01904114
v -0.01721611 -0.03015923 0.01904114
f 1 2 5
f 1 5 7
f 1 7 3
f 1 3 9
f 1 9 10
f 1 10 4
f 1 4 11
f 1 11 6
f 1 6 2
f 2 6 13
f 2 13 12
f 2 12 5
f 3 7 8
f 3 8 9
f 4 10 14
f 4 14 12
f 4 12 13
f 4 13 11
f 5 8 7
f 5 12 14
f 5 14 8
f 6 11 13
f 8 14 10
f 8 10 9

