# https://github.com/mikedh/trimesh
v -0.01479200 0.03879965 0.05044000
v -0.01479200 0.03240084 0.05044000
v -0.01479200 0.03960568 0.05041012
v -0.03879809 0.03879965 0.05044000
v -0.01947924 0.03012111 0.05044000
v -0.01479200 0.03160087 0.05041012
v -0.01479200 0.04021981 0.05009137
v -0.03959896 0.04021981 0.05009137
v -0.03879809 0.03959962 0.05041012
v -0.03959896 0.03959962 0.05039517
v -0.03959896 0.03879965 0.05041012
v -0.03947845 0.03012111 0.05041510
v -0.03879809 0.03012111 0.05044000
v -0.01880139 0.03012111 0.05041510
v -0.01868088 0.03012111 0.05041012
v -0.01479200 0.03098674 0.05009635
v -0.01479200 0.04022182 0.05008639
v -0.03959896 0.04044000 0.04939909
v -0.04014627 0.04014607 0.04999176
v -0.04021907 0.03959962 0.05009137
v -0.04012367 0.03012111 0.05014117
v -0.03959896 0.03012111 0.05041012
v -0.01783733 0.03012111 0.05014117
v -0.01479200 0.03098068 0.05009137
v -0.01479200 0.04044000 0.04939909
v -0.04021907 0.04021981 0.04939909
v -0.03959896 0.04044000 0.00060091
v -0.04044000 0.03959962 0.04939909
v -0.04021907 0.03012111 0.05009137
v -0.01767163 0.03012111 0.05005153
v -0.01479200 0.03076049 0.04939909
v -0.01479200 0.04044000 0.00060091
v -0.04021907 0.04021981 0.00060091
v -0.03959896 0.04021981 -0.00009137
v -0.04014627 0.04014607 0.00000824
v -0.04044000 0.03012111 0.04939909
v -0.04044000 0.03959962 0.00060091
v -0.01746827 0.03012111 0.04982243
v -0.01729002 0.03012111 0.04939909
v -0.01728751 0.03012111 0.04931940
v -0.01726994 0.03012111 0.04859724
v -0.01479200 0.03076049 0.00060091
v -0.01479200 0.04021981 -0.00009137
v -0.03959896 0.03959962 -0.00039517
v -0.01479200 0.04021375 -0.00009635
v -0.03879809 0.03959962 -0.00041012
v -0.04021907 0.03959962 -0.00009137
v -0.04044000 0.03012111 0.00060091
v -0.01726994 0.03012111 0.00133801
v -0.01729002 0.03012111 0.00060091
v -0.01767163 0.03012111 -0.00005153
v -0.01479200 0.03097866 -0.00008639
v -0.03879809 0.03879965 -0.00044000
v -0.03959896 0.03879965 -0.00041012
v -0.01479200 0.03959962 -0.00041012
v -0.04021907 0.03012111 -0.00009137
v -0.01479200 0.03098068 -0.00009137
v -0.01799298 0.03012111 -0.00018102
v -0.01479200 0.03879965 -0.00044000
v -0.03879809 0.03012111 -0.00044000
v -0.03959896 0.03012111 -0.00041012
v -0.01880139 0.03012111 -0.00041510
v -0.01479200 0.03159481 -0.00041012
v -0.01479200 0.03240084 -0.00044000
v -0.01960226 0.03012111 -0.00044000
f 1 2 6
f 1 6 16
f 1 16 24
f 1 24 31
f 1 31 42
f 1 42 52
f 1 52 57
f 1 57 63
f 1 63 64
f 1 64 59
f 1 59 55
f 1 55 45
f 1 45 43
f 1 43 32
f 1 32 25
f 1 25 17
f 1 17 7
f 1 7 3
f 1 3 4
f 1 4 13
f 1 13 5
f 1 5 2
f 2 5 6
f 3 7 8
f 3 8 9
f 3 9 4
f 4 9 10
f 4 10 11
f 4 11 12
f 4 12 13
f 5 13 12
f 5 12 22
f 5 22 21
f 5 21 29
f 5 29 36
f 5 36 48
f 5 48 56
f 5 56 61
f 5 61 60
f 5 60 65
f 5 65 62
f 5 62 58
f 5 58 51
f 5 51 50
f 5 50 49
f 5 49 41
f 5 41 40
f 5 40 39
f 5 39 38
f 5 38 30
f 5 30 23
f 5 23 15
f 5 15 14
f 5 14 6
f 6 14 15
f 6 15 16
f 7 17 8
f 8 10 9
f 8 17 18
f 8 18 19
f 8 19 10
f 10 19 20
f 10 20 11
f 11 20 21
f 11 21 22
f 11 22 12
f 15 23 24
f 15 24 16
f 17 25 18
f 18 26 19
f 18 25 32
f 18 32 27
f 18 27 33
f 18 33 26
f 19 26 28
f 19 28 20
f 20 28 36
f 20 36 29
f 20 29 21
f 23 30 24
f 24 30 31
f 26 33 37
f 26 37 28
f 27 32 43
f 27 43 34
f 27 34 35
f 27 35 33
f 28 37 48
f 28 48 36
f 30 38 31
f 31 38 39
f 31 39 40
f 31 40 41
f 31 41 49
f 31 49 42
f 33 35 37
f 34 44 35
f 34 43 45
f 34 45 46
f 34 46 44
f 35 44 47
f 35 47 37
f 37 47 56
f 37 56 48
f 42 49 50
f 42 50 51
f 42 51 52
f 44 46 53
f 44 53 54
f 44 54 47
f 45 55 46
f 46 55 59
f 46 59 53
f 47 54 61
f 47 61 56
f 51 57 52
f 51 58 57
f 53 59 64
f 53 64 65
f 53 65 60
f 53 60 61
f 53 61 54
f 57 58 62
f 57 62 63
f 62 65 63
f 63 65 64

