# https://github.com/mikedh/trimesh
v -0.02795391 -0.03762545 0.05044000
v -0.03179987 -0.03762545 0.05044000
v -0.02795391 -0.03879959 0.05044000
v -0.02795391 -0.03762545 0.02735350
v -0.03179987 -0.03879959 0.05044000
v -0.03879616 -0.03762545 0.05043620
v -0.02795391 -0.03959963 0.05040963
v -0.02795391 -0.03967694 0.02735350
v -0.02795505 -0.03762545 0.01812042
v -0.03879616 -0.03879919 0.05043620
v -0.03879616 -0.03959963 0.05040963
v -0.03959688 -0.03762545 0.05040963
v -0.02795391 -0.03967694 0.05037166
v -0.02795505 -0.03967694 0.01812042
v -0.02795619 -0.03762545 0.01165499
v -0.03959688 -0.03879919 0.05040963
v -0.03959688 -0.03959963 0.05039444
v -0.03179987 -0.03967694 0.05037166
v -0.03959688 -0.03967694 0.05035648
v -0.03889668 -0.03967694 0.05036787
v -0.03962315 -0.03762545 0.05039444
v -0.02795619 -0.03967694 0.01165499
v -0.03962087 -0.03762545 0.01165499
v -0.03962315 -0.03882951 0.05039444
v -0.03962315 -0.03960224 0.05038305
v -0.03962315 -0.03962272 0.05037546
v -0.03962315 -0.03967694 0.05034888
v -0.03962315 -0.03762545 0.01812042
v -0.03962087 -0.03967694 0.01165499
v -0.03962315 -0.03967694 0.01812042
f 1 2 5
f 1 5 3
f 1 3 7
f 1 7 13
f 1 13 8
f 1 8 4
f 1 4 9
f 1 9 15
f 1 15 23
f 1 23 28
f 1 28 21
f 1 21 12
f 1 12 6
f 1 6 2
f 2 6 10
f 2 10 5
f 3 5 11
f 3 11 7
f 4 8 14
f 4 14 9
f 5 10 11
f 6 12 16
f 6 16 10
f 7 11 18
f 7 18 13
f 8 13 18
f 8 18 20
f 8 20 19
f 8 19 27
f 8 27 30
f 8 30 29
f 8 29 22
f 8 22 14
f 9 14 22
f 9 22 15
f 10 16 17
f 10 17 11
f 11 17 19
f 11 19 20
f 11 20 18
f 12 21 24
f 12 24 16
f 15 22 29
f 15 29 23
f 16 24 25
f 16 25 17
f 17 25 26
f 17 26 27
f 17 27 19
f 21 28 30
f 21 30 27
f 21 27 26
f 21 26 25
f 21 25 24
f 23 29 30
f 23 30 28

