# https://github.com/mikedh/trimesh
v -0.01638929 0.04044000 0.04582281
v -0.01638929 0.03656836 0.04582281
v -0.01638929 0.04044000 0.04541760
v -0.03959946 0.04044000 0.04582281
v -0.01638929 0.03656836 0.04541760
v -0.04044000 0.03656836 0.04582281
v -0.03959946 0.04044000 0.04541760
v -0.03961359 0.04043507 0.04541760
v -0.03992673 0.04032364 0.04582281
v -0.04044000 0.03656836 0.04541760
v -0.04044000 0.03959972 0.04582281
v -0.04021868 0.04021979 0.04541760
v -0.04021868 0.04021979 0.04582281
v -0.04044000 0.03959972 0.04541760
f 1 2 5
f 1 5 3
f 1 3 7
f 1 7 4
f 1 4 9
f 1 9 13
f 1 13 11
f 1 11 6
f 1 6 2
f 2 6 10
f 2 10 5
f 3 5 10
f 3 10 14
f 3 14 12
f 3 12 8
f 3 8 7
f 4 7 8
f 4 8 9
f 6 11 14
f 6 14 10
f 8 12 13
f 8 13 9
f 11 13 12
f 11 12 14

