# https://github.com/mikedh/trimesh
v -0.03879874 -0.02111607 -0.00044000
v -0.03959888 -0.02111607 -0.00041280
v -0.03879874 -0.01998843 -0.00044000
v -0.02040200 -0.02111607 -0.00044000
v -0.03959888 -0.01998843 -0.00041280
v -0.04021786 -0.02111607 -0.00009244
v -0.03991808 -0.01998843 -0.00024808
v -0.02040200 -0.01998843 -0.00044000
v -0.01960186 -0.01998843 -0.00043547
v -0.01960186 -0.02040014 -0.00043244
v -0.01960186 -0.02111607 -0.00042035
v -0.04021786 -0.01998843 -0.00009244
v -0.04024158 -0.02111607 -0.00001990
v -0.01879093 -0.01998843 -0.00014382
v -0.01895053 -0.02111607 -0.00009999
v -0.04033216 -0.01998843 0.00026419
v -0.04044000 -0.02111607 0.00060117
v -0.04044000 -0.01998843 0.00060117
v -0.01841135 -0.01998843 0.00060117
v -0.01870035 -0.02111607 0.00060117
v -0.04044000 -0.02111607 0.01499776
v -0.04044000 -0.01998843 0.01460940
v -0.01840920 -0.01998843 0.00140208
v -0.01869820 -0.02111607 0.00060873
v -0.04044000 -0.01998975 0.01499776
v -0.03985985 -0.02111607 0.01499776
v -0.01853428 -0.01998843 0.01499776
v -0.01840704 -0.01998843 0.00620144
v -0.01869820 -0.02111607 0.00140208
v -0.01870467 -0.02111607 0.01491465
v -0.01870251 -0.02111375 0.01499776
v -0.01840704 -0.01998843 0.01499776
f 1 2 5
f 1 5 3
f 1 3 8
f 1 8 4
f 1 4 11
f 1 11 15
f 1 15 20
f 1 20 24
f 1 24 29
f 1 29 30
f 1 30 26
f 1 26 21
f 1 21 17
f 1 17 13
f 1 13 6
f 1 6 2
f 2 6 7
f 2 7 5
f 3 5 7
f 3 7 12
f 3 12 16
f 3 16 18
f 3 18 22
f 3 22 27
f 3 27 32
f 3 32 28
f 3 28 23
f 3 23 19
f 3 19 14
f 3 14 9
f 3 9 8
f 4 8 9
f 4 9 10
f 4 10 11
f 6 12 7
f 6 13 12
f 9 14 10
f 10 14 11
f 11 14 15
f 12 13 16
f 13 17 18
f 13 18 16
f 14 19 15
f 15 19 20
f 17 21 25
f 17 25 22
f 17 22 18
f 19 23 24
f 19 24 20
f 21 26 31
f 21 31 32
f 21 32 27
f 21 27 25
f 22 25 27
f 23 28 24
f 24 28 32
f 24 32 29
f 26 30 31
f 29 32 31
f 29 31 30

