# https://github.com/mikedh/trimesh
v -0.01812399 0.01957274 0.04862233
v -0.01773053 0.01905624 0.04905446
v -0.01773053 0.01906026 0.04859911
v -0.01812399 0.01957274 0.04142508
v -0.01813066 0.01957274 0.04905446
v -0.01773053 0.01504084 0.04905446
v -0.01773053 0.01906026 0.04140411
v -0.01812844 0.01957274 0.04140411
v -0.01812177 0.01956872 0.04140411
v -0.04044000 0.01957274 0.04905446
v -0.04044000 0.01504084 0.04905446
v -0.01773275 -0.00095647 0.04905371
v -0.01773053 0.01430930 0.04905371
v -0.01773053 0.01504084 0.04140411
v -0.04044000 0.01957274 0.04140411
v -0.04044000 0.01430930 0.04905371
v -0.04043778 -0.00095647 0.04905371
v -0.01773053 -0.00095647 0.04316860
v -0.01773053 -0.00095647 0.04140561
v -0.04044000 0.01504084 0.04140411
v -0.04044000 -0.00095647 0.04316860
v -0.04044000 -0.00095647 0.04140561
f 1 2 3
f 1 3 7
f 1 7 4
f 1 4 8
f 1 8 15
f 1 15 10
f 1 10 5
f 1 5 2
f 2 6 13
f 2 13 18
f 2 18 19
f 2 19 14
f 2 14 7
f 2 7 3
f 2 5 10
f 2 10 11
f 2 11 6
f 4 7 9
f 4 9 8
f 6 11 17
f 6 17 12
f 6 12 13
f 7 14 20
f 7 20 15
f 7 15 8
f 7 8 9
f 10 15 20
f 10 20 22
f 10 22 21
f 10 21 16
f 10 16 11
f 11 16 17
f 12 18 13
f 12 17 21
f 12 21 22
f 12 22 19
f 12 19 18
f 14 19 22
f 14 22 20
f 16 21 17

