# https://github.com/mikedh/trimesh
v -0.01387713 0.03837846 -0.00044000
v -0.01387713 0.03880001 -0.00044000
v -0.01213468 0.03837846 -0.00044000
v -0.01387713 0.03837846 0.05044000
v -0.01387713 0.03947704 -0.00041510
v -0.01213468 0.03880001 -0.00044000
v -0.01213468 0.03837846 0.05044000
v -0.01387713 0.03880001 0.05044000
v -0.01213468 0.03933457 -0.00042008
v -0.01387713 0.03959993 -0.00041012
v -0.01213468 0.03959993 -0.00041012
v -0.01213468 0.03880001 0.05044000
v -0.01387713 0.03959993 0.05041012
v -0.01387713 0.04012460 -0.00014117
v -0.01213468 0.04021985 -0.00009137
v -0.01213468 0.03959993 0.05041012
v -0.01213468 0.03980556 0.05030553
v -0.01387713 0.04021985 0.05009137
v -0.01387713 0.04021985 -0.00009137
v -0.01213468 0.04043980 0.00060091
v -0.01213468 0.04021985 0.05009137
v -0.01387713 0.04025374 0.04998678
v -0.01387713 0.04043980 0.00060091
v -0.01213468 0.04043980 0.04939909
v -0.01213468 0.04029289 0.04986227
v -0.01387713 0.04043980 0.04939909
f 1 2 6
f 1 6 3
f 1 3 7
f 1 7 4
f 1 4 8
f 1 8 13
f 1 13 18
f 1 18 22
f 1 22 26
f 1 26 23
f 1 23 19
f 1 19 14
f 1 14 10
f 1 10 5
f 1 5 2
f 2 5 6
f 3 6 9
f 3 9 11
f 3 11 15
f 3 15 20
f 3 20 24
f 3 24 25
f 3 25 21
f 3 21 17
f 3 17 16
f 3 16 12
f 3 12 7
f 4 7 12
f 4 12 8
f 5 9 6
f 5 10 11
f 5 11 9
f 8 12 16
f 8 16 13
f 10 14 11
f 11 14 15
f 13 17 18
f 13 16 17
f 14 19 15
f 15 19 23
f 15 23 20
f 17 21 18
f 18 21 22
f 20 23 26
f 20 26 24
f 21 25 22
f 22 25 24
f 22 24 26

