# https://github.com/mikedh/trimesh
v 0.03912619 0.03936602 0.00177275
v 0.03912619 0.02872214 0.00177275
v 0.03912619 0.03936602 -0.00041097
v 0.02747753 0.03936602 0.00177275
v 0.03912619 0.02872214 -0.00042895
v 0.02747753 0.02872214 0.00177275
v 0.03912619 0.03879923 -0.00042830
v 0.03879891 0.03879923 -0.00043848
v 0.03879891 0.03936602 -0.00041964
v 0.02747753 0.03936602 -0.00042094
v 0.03899391 0.02872214 -0.00043350
v 0.03912619 0.03799907 -0.00042895
v 0.02747753 0.02872214 -0.00044000
v 0.03879891 0.03799907 -0.00044000
v 0.03639961 0.03879923 -0.00044000
v 0.03719900 0.03936602 -0.00042072
v 0.02747753 0.03879923 -0.00044000
v 0.03639961 0.03936602 -0.00042094
v 0.03879891 0.02872214 -0.00044000
f 1 2 5
f 1 5 12
f 1 12 7
f 1 7 3
f 1 3 9
f 1 9 16
f 1 16 18
f 1 18 10
f 1 10 4
f 1 4 6
f 1 6 2
f 2 6 13
f 2 13 19
f 2 19 11
f 2 11 5
f 3 7 8
f 3 8 9
f 4 10 17
f 4 17 13
f 4 13 6
f 5 11 12
f 7 12 14
f 7 14 8
f 8 14 15
f 8 15 16
f 8 16 9
f 10 18 15
f 10 15 17
f 11 19 14
f 11 14 12
f 13 17 15
f 13 15 14
f 13 14 19
f 15 18 16

