# https://github.com/mikedh/trimesh
v 0.04043897 0.01977689 0.04939910
v 0.04021956 0.01977689 0.05009229
v 0.04038953 0.01865648 0.04955735
v 0.04043897 0.01865648 0.04939910
v 0.04043897 0.01977689 0.02766956
v 0.03959944 0.01977689 0.05041325
v 0.04007843 0.01865648 0.05016584
v 0.04021956 0.01865648 0.05009229
v 0.04043897 0.01865648 0.02766956
v 0.02991644 0.01977689 0.02766956
v 0.03959944 0.01865648 0.05041325
v 0.03879905 0.01977689 0.05044000
v 0.02991644 0.01865648 0.02766956
v 0.02991644 0.01977689 0.05044000
v 0.03879905 0.01865648 0.05044000
v 0.02991644 0.01865648 0.05044000
f 1 2 3
f 1 3 4
f 1 4 9
f 1 9 5
f 1 5 10
f 1 10 14
f 1 14 12
f 1 12 6
f 1 6 2
f 2 6 7
f 2 7 8
f 2 8 3
f 3 8 7
f 3 7 11
f 3 11 15
f 3 15 16
f 3 16 13
f 3 13 9
f 3 9 4
f 5 9 13
f 5 13 10
f 6 11 7
f 6 12 15
f 6 15 11
f 10 13 16
f 10 16 14
f 12 14 16
f 12 16 15

