# https://github.com/mikedh/trimesh
v -0.00361930 -0.00859903 -0.00043769
v -0.00361930 -0.00839968 -0.00044000
v -0.00359994 -0.00859903 -0.00043769
v -0.00361930 -0.00859903 0.02312782
v -0.00359994 -0.00839968 -0.00044000
v -0.00361930 -0.00064395 -0.00044000
v -0.00280005 -0.00759997 -0.00044000
v -0.00280005 -0.00839968 -0.00040078
v -0.00278686 -0.00859903 -0.00034080
v -0.00274411 -0.00859903 0.02312782
v -0.00361930 -0.00064395 0.02312782
v -0.00274411 -0.00064395 -0.00044000
v -0.00274411 -0.00519928 -0.00044000
v -0.00274411 -0.00599977 -0.00043769
v -0.00274411 -0.00679948 -0.00043539
v -0.00274411 -0.00760386 -0.00042154
v -0.00274411 -0.00839968 -0.00037540
v -0.00274411 -0.00859903 -0.00031773
v -0.00274411 -0.00064395 0.02312782
f 1 2 5
f 1 5 3
f 1 3 9
f 1 9 18
f 1 18 10
f 1 10 4
f 1 4 11
f 1 11 6
f 1 6 2
f 2 6 12
f 2 12 13
f 2 13 7
f 2 7 5
f 3 5 7
f 3 7 8
f 3 8 9
f 4 10 19
f 4 19 11
f 6 11 19
f 6 19 12
f 7 13 14
f 7 14 15
f 7 15 16
f 7 16 8
f 8 16 17
f 8 17 9
f 9 17 18
f 10 18 17
f 10 17 16
f 10 16 15
f 10 15 14
f 10 14 13
f 10 13 12
f 10 12 19

