# https://github.com/mikedh/trimesh
v -0.01479499 -0.00199638 0.00954945
v -0.01479499 -0.00199638 -0.00000448
v -0.01566037 -0.00199638 0.00954945
v -0.01479499 -0.01727927 0.00954945
v -0.01566037 -0.00199638 -0.00000448
v -0.01479499 -0.01746670 -0.00000448
v -0.01566037 -0.01808570 0.00954945
v -0.01479583 -0.01790930 0.00954945
v -0.01479499 -0.01790930 0.00940448
v -0.01566037 -0.01787307 -0.00000448
v -0.01479499 -0.01790930 0.00060065
v -0.01479524 -0.01776439 -0.00000448
v -0.01566037 -0.01808570 0.00060065
v -0.01564902 -0.01808413 0.00954945
v -0.01480007 -0.01791087 0.00954945
v -0.01480007 -0.01791087 0.00060065
f 1 2 5
f 1 5 3
f 1 3 7
f 1 7 14
f 1 14 15
f 1 15 8
f 1 8 4
f 1 4 9
f 1 9 11
f 1 11 6
f 1 6 2
f 2 6 12
f 2 12 10
f 2 10 5
f 3 5 10
f 3 10 13
f 3 13 7
f 4 8 9
f 6 11 12
f 7 13 14
f 8 15 9
f 9 15 16
f 9 16 11
f 10 12 13
f 11 16 12
f 12 16 13
f 13 16 14
f 14 16 15

