# https://github.com/mikedh/trimesh
v -0.01812399 0.01957274 0.00990133
v -0.01773053 0.01906083 0.00990133
v -0.01812399 0.01957274 0.00228935
v -0.04044000 0.01957274 0.00990133
v -0.01773053 0.01906083 0.00931642
v -0.01773053 0.00450477 0.00990133
v -0.04044000 0.01957274 0.00228935
v -0.01773053 0.01905936 0.00228935
v -0.04044000 0.00450477 0.00990133
v -0.01773053 0.00450182 0.00931642
v -0.04044000 0.00450182 0.00228935
v -0.01773053 0.00450182 0.00228935
v -0.04044000 0.00450182 0.00931642
f 1 2 5
f 1 5 3
f 1 3 7
f 1 7 4
f 1 4 9
f 1 9 6
f 1 6 2
f 2 6 10
f 2 10 12
f 2 12 8
f 2 8 5
f 3 5 8
f 3 8 12
f 3 12 11
f 3 11 7
f 4 7 11
f 4 11 13
f 4 13 9
f 6 9 13
f 6 13 10
f 10 13 11
f 10 11 12

