# https://github.com/mikedh/trimesh
v -0.00135326 0.03779913 0.02378857
v -0.00135326 0.03076075 0.02378857
v -0.00135326 0.03837771 0.02378676
v -0.00211688 0.03784089 0.02378857
v -0.01201061 0.03076075 0.02378857
v -0.00135326 0.03076075 0.00532871
v -0.00135326 0.03837771 0.00532871
v -0.01201061 0.03837771 0.02378676
v -0.01201061 0.03611261 0.02378857
v -0.01201061 0.03076075 0.00532871
v -0.01201061 0.03837771 0.00532871
f 1 2 6
f 1 6 7
f 1 7 3
f 1 3 4
f 1 4 9
f 1 9 5
f 1 5 2
f 2 5 10
f 2 10 6
f 3 7 11
f 3 11 8
f 3 8 4
f 4 8 9
f 5 9 8
f 5 8 11
f 5 11 10
f 6 10 11
f 6 11 7

