# https://github.com/mikedh/trimesh
v 0.00075773 0.04043960 0.04801240
v -0.00300923 0.04043960 0.04801714
v 0.00075773 0.03837846 0.04801240
v 0.00075773 0.04043960 0.00060826
v -0.00300923 0.03837846 0.04801714
v -0.00375884 0.04043960 0.04801714
v 0.00075773 0.03837846 -0.00043526
v 0.00075773 0.04034094 0.00029520
v -0.00022408 0.04039078 0.00044699
v -0.00123365 0.04043698 0.00059877
v -0.01213451 0.04043960 0.00060826
v -0.00375884 0.03837846 0.04801714
v -0.01213451 0.04043960 0.04801240
v -0.00300923 0.03837846 -0.00044000
v 0.00075773 0.03880054 -0.00043526
v 0.00075773 0.04021908 -0.00008426
v 0.00018985 0.04027678 0.00009124
v -0.01213451 0.04036656 0.00037584
v -0.00300923 0.04021928 -0.00008900
v -0.00375884 0.04021928 -0.00008900
v -0.01213451 0.03837846 0.04801240
v -0.00375884 0.03837846 -0.00044000
v -0.00300923 0.03880054 -0.00044000
v 0.00075773 0.03959949 -0.00040680
v 0.00075773 0.03994207 -0.00023130
v -0.01213451 0.04021948 -0.00008426
v -0.00562150 0.03992452 -0.00024079
v -0.01047629 0.03997011 -0.00021707
v -0.01213451 0.04001390 -0.00019335
v -0.01213451 0.03837846 -0.00043526
v -0.00375884 0.03880054 -0.00044000
v -0.01047629 0.03959969 -0.00040680
v -0.01213451 0.03959969 -0.00040680
v -0.01213451 0.03880033 -0.00043526
v -0.01213451 0.03933479 -0.00041629
f 1 2 5
f 1 5 3
f 1 3 7
f 1 7 15
f 1 15 24
f 1 24 25
f 1 25 16
f 1 16 8
f 1 8 4
f 1 4 11
f 1 11 13
f 1 13 6
f 1 6 2
f 2 6 12
f 2 12 5
f 3 5 12
f 3 12 21
f 3 21 30
f 3 30 22
f 3 22 14
f 3 14 7
f 4 8 9
f 4 9 10
f 4 10 11
f 6 13 21
f 6 21 12
f 7 14 23
f 7 23 15
f 8 16 17
f 8 17 9
f 9 18 11
f 9 11 10
f 9 17 19
f 9 19 20
f 9 20 18
f 11 18 26
f 11 26 29
f 11 29 33
f 11 33 35
f 11 35 34
f 11 34 30
f 11 30 21
f 11 21 13
f 14 22 31
f 14 31 23
f 15 23 24
f 16 25 19
f 16 19 17
f 18 20 26
f 19 25 27
f 19 27 20
f 20 27 28
f 20 28 29
f 20 29 26
f 22 30 34
f 22 34 31
f 23 31 33
f 23 33 32
f 23 32 24
f 24 32 27
f 24 27 25
f 27 32 33
f 27 33 28
f 28 33 29
f 31 34 35
f 31 35 33

