# https://github.com/mikedh/trimesh
v -0.01310664 -0.03807163 -0.00044000
v -0.01310664 -0.03807163 0.00806213
v -0.01310664 -0.03240111 -0.00044000
v 0.00442038 -0.03807163 -0.00044000
v -0.01310664 -0.03076000 0.00806213
v -0.00083978 -0.03807163 0.00806213
v -0.01310664 -0.03160167 -0.00041253
v 0.00442038 -0.03162099 -0.00041337
v 0.00442038 -0.03240111 -0.00044000
v 0.00442038 -0.03807163 0.00806130
v -0.01310664 -0.03076000 0.00060113
v -0.00083978 -0.03076000 0.00806213
v -0.01310664 -0.03105272 -0.00013041
v -0.00083978 -0.03160095 -0.00041253
v 0.00442038 -0.03160095 -0.00041253
v 0.00442038 -0.03076000 0.00806130
v -0.01310664 -0.03098044 -0.00009295
v 0.00442038 -0.03076000 0.00060113
v -0.00083978 -0.03085948 0.00028738
v -0.00083978 -0.03098044 -0.00009295
v 0.00442038 -0.03099618 -0.00010044
v 0.00442038 -0.03098044 -0.00009212
f 1 2 5
f 1 5 11
f 1 11 17
f 1 17 13
f 1 13 7
f 1 7 3
f 1 3 9
f 1 9 4
f 1 4 10
f 1 10 6
f 1 6 2
f 2 6 12
f 2 12 5
f 3 7 8
f 3 8 9
f 4 9 8
f 4 8 15
f 4 15 21
f 4 21 22
f 4 22 18
f 4 18 16
f 4 16 10
f 5 12 16
f 5 16 18
f 5 18 11
f 6 10 16
f 6 16 12
f 7 13 14
f 7 14 8
f 8 14 15
f 11 18 19
f 11 19 17
f 13 17 20
f 13 20 15
f 13 15 14
f 15 20 21
f 17 19 20
f 18 22 19
f 19 22 20
f 20 22 21

