# https://github.com/mikedh/trimesh
v -0.03879516 0.02759684 -0.00043888
v -0.03879516 0.02882393 -0.00043888
v -0.02040230 0.02759684 -0.00043888
v -0.03959926 0.02759684 -0.00041051
v -0.02040230 0.02882393 -0.00043888
v -0.03959926 0.02882393 -0.00041051
v -0.01960467 0.02882393 -0.00043483
v -0.01960467 0.02839969 -0.00043078
v -0.01960467 0.02759684 -0.00041862
v -0.04021796 0.02759684 -0.00009237
v -0.04021796 0.02882393 -0.00009237
v -0.01879627 0.02882393 -0.00013897
v -0.01896226 0.02759684 -0.00009845
v -0.04032359 0.02759852 0.00023794
v -0.04043569 0.02759684 0.00060067
v -0.04032359 0.02882393 0.00023794
v -0.01842548 0.02882393 0.00060067
v -0.01872081 0.02759684 0.00060067
v -0.04044000 0.02759684 0.00380241
v -0.04044000 0.02759816 0.00330594
v -0.04043569 0.02882393 0.00060067
v -0.01841901 0.02882393 0.00140313
v -0.01871650 0.02759684 0.00540126
v -0.04044000 0.02759684 0.01979896
v -0.04044000 0.02882393 0.00330594
v -0.01841685 0.02882393 0.00460893
v -0.01871650 0.02759684 0.01819809
v -0.04044000 0.02759876 0.02026301
v -0.02787629 0.02759684 0.02026301
v -0.04044000 0.02882393 0.02026301
v -0.01841685 0.02882393 0.01819809
v -0.01871650 0.02760008 0.01899853
v -0.01871866 0.02759684 0.01899853
v -0.01872297 0.02759684 0.01979896
v -0.01872512 0.02759816 0.02026301
v -0.01841901 0.02882393 0.02026301
f 1 2 5
f 1 5 3
f 1 3 9
f 1 9 13
f 1 13 18
f 1 18 23
f 1 23 27
f 1 27 33
f 1 33 34
f 1 34 29
f 1 29 24
f 1 24 19
f 1 19 15
f 1 15 10
f 1 10 4
f 1 4 6
f 1 6 2
f 2 6 11
f 2 11 16
f 2 16 21
f 2 21 25
f 2 25 30
f 2 30 36
f 2 36 31
f 2 31 26
f 2 26 22
f 2 22 17
f 2 17 12
f 2 12 7
f 2 7 5
f 3 5 7
f 3 7 8
f 3 8 9
f 4 10 11
f 4 11 6
f 7 12 8
f 8 12 9
f 9 12 13
f 10 14 16
f 10 16 11
f 10 15 14
f 12 17 13
f 13 17 18
f 14 15 21
f 14 21 16
f 15 19 20
f 15 20 25
f 15 25 21
f 17 22 18
f 18 22 23
f 19 24 28
f 19 28 30
f 19 30 25
f 19 25 20
f 22 26 23
f 23 26 31
f 23 31 27
f 24 29 28
f 27 32 33
f 27 31 32
f 28 29 35
f 28 35 36
f 28 36 30
f 29 34 35
f 31 36 32
f 32 36 35
f 32 35 34
f 32 34 33

