# https://github.com/mikedh/trimesh
v 0.03284003 0.03426493 0.03590428
v 0.03284003 0.03925019 0.03590428
v 0.03334647 0.03426493 0.03590428
v 0.03284003 0.03426493 0.05044000
v 0.03334647 0.03925019 0.03590428
v 0.03284003 0.03925019 0.05042435
v 0.03334647 0.03426493 0.05044000
v 0.03284003 0.03879978 0.05044000
v 0.03334647 0.03925019 0.05042435
v 0.03284003 0.03904719 0.05043146
v 0.03334647 0.03879978 0.05044000
v 0.03334647 0.03888225 0.05043715
f 1 2 5
f 1 5 3
f 1 3 7
f 1 7 4
f 1 4 8
f 1 8 10
f 1 10 6
f 1 6 2
f 2 6 9
f 2 9 5
f 3 5 9
f 3 9 12
f 3 12 11
f 3 11 7
f 4 7 11
f 4 11 8
f 6 10 9
f 8 11 12
f 8 12 10
f 9 10 12

