# https://github.com/mikedh/trimesh
v -0.02677772 0.02309152 0.01652000
v -0.04043867 0.02309152 0.01652000
v -0.02677772 0.02209162 0.01652000
v -0.02677772 0.02309152 -0.00044000
v -0.04043867 0.02209162 0.01652000
v -0.04043867 0.02309152 0.00060091
v -0.02677772 0.02209162 -0.00044000
v -0.03879909 0.02309152 -0.00044000
v -0.04043867 0.02209162 0.00060091
v -0.04021934 0.02309152 -0.00009303
v -0.04024475 0.02209162 -0.00001334
v -0.03879909 0.02209162 -0.00044000
v -0.03909062 0.02309152 -0.00043004
v -0.04021934 0.02209162 -0.00009303
v -0.03959882 0.02309152 -0.00041178
v -0.03959882 0.02209162 -0.00041178
f 1 2 5
f 1 5 3
f 1 3 7
f 1 7 4
f 1 4 8
f 1 8 13
f 1 13 15
f 1 15 10
f 1 10 6
f 1 6 2
f 2 6 9
f 2 9 5
f 3 5 9
f 3 9 11
f 3 11 14
f 3 14 16
f 3 16 12
f 3 12 7
f 4 7 12
f 4 12 8
f 6 10 11
f 6 11 9
f 8 12 13
f 10 14 11
f 10 15 16
f 10 16 14
f 12 16 13
f 13 16 15

