# https://github.com/mikedh/trimesh
v -0.00463869 -0.01236681 0.02378857
v -0.00454446 -0.01226956 0.02378857
v -0.00463869 -0.01236681 0.04917088
v -0.00463869 -0.00357470 0.02378857
v -0.00453865 -0.01226354 0.02378857
v -0.00454446 -0.01226956 0.04917088
v -0.00463869 -0.00357470 0.04917088
v -0.00423250 -0.00357470 0.02378857
v -0.00423250 -0.01191843 0.02378857
v -0.00423250 -0.01191843 0.04917088
v -0.00423250 -0.00357470 0.04917088
f 1 2 6
f 1 6 3
f 1 3 7
f 1 7 4
f 1 4 8
f 1 8 9
f 1 9 5
f 1 5 2
f 2 5 6
f 3 6 10
f 3 10 11
f 3 11 7
f 4 7 11
f 4 11 8
f 5 9 10
f 5 10 6
f 8 11 10
f 8 10 9

