# https://github.com/mikedh/trimesh
v 0.04043788 -0.00615692 0.04939914
v 0.04021719 -0.00615692 0.05009007
v 0.04043788 -0.00888835 0.04939914
v 0.04043788 -0.00615692 0.02767041
v 0.04021719 -0.00888835 0.05009007
v 0.03959755 -0.00615692 0.05040880
v 0.04043788 -0.00888835 0.02767041
v 0.03217893 -0.00615692 0.02767041
v 0.03959755 -0.00888835 0.05040880
v 0.03879967 -0.00615692 0.05044000
v 0.03217893 -0.00888835 0.02767041
v 0.01876132 -0.00615692 0.02767264
v 0.03879967 -0.00888835 0.05044000
v 0.03217893 -0.00615692 0.05044000
v 0.01876132 -0.00888835 0.02767264
v 0.01876132 -0.00615692 0.04939914
v 0.03217893 -0.00888835 0.05044000
v 0.02040377 -0.00615692 0.05043777
v 0.01876132 -0.00888835 0.04939914
v 0.01898201 -0.00615692 0.05009230
v 0.02040377 -0.00888835 0.05043777
v 0.01960376 -0.00615692 0.05040880
v 0.01898201 -0.00888835 0.05009230
v 0.01948068 -0.00615692 0.05034862
v 0.01960376 -0.00888835 0.05040880
f 1 2 5
f 1 5 3
f 1 3 7
f 1 7 4
f 1 4 8
f 1 8 12
f 1 12 16
f 1 16 20
f 1 20 24
f 1 24 22
f 1 22 18
f 1 18 14
f 1 14 10
f 1 10 6
f 1 6 2
f 2 6 9
f 2 9 5
f 3 5 9
f 3 9 13
f 3 13 17
f 3 17 21
f 3 21 25
f 3 25 23
f 3 23 19
f 3 19 15
f 3 15 11
f 3 11 7
f 4 7 11
f 4 11 8
f 6 10 13
f 6 13 9
f 8 11 15
f 8 15 12
f 10 14 17
f 10 17 13
f 12 15 19
f 12 19 16
f 14 18 21
f 14 21 17
f 16 19 23
f 16 23 20
f 18 22 25
f 18 25 21
f 20 23 24
f 22 24 25
f 23 25 24

