# https://github.com/mikedh/trimesh
v -0.00109774 -0.00159750 0.01739438
v -0.00109774 -0.00159712 -0.00041014
v 0.00012467 -0.00159750 0.01739438
v -0.00109774 -0.00159750 0.05041512
v -0.00109774 -0.00119941 -0.00041512
v -0.00040010 -0.00039942 -0.00032055
v -0.00040010 -0.00119941 -0.00027575
v -0.00040010 -0.00159712 -0.00025086
v 0.00015440 -0.00118948 0.01739438
v 0.00012467 -0.00159750 0.04939971
v 0.00006226 -0.00159712 0.00006770
v 0.00012467 -0.00159712 0.00060527
v -0.00079749 -0.00159750 0.05035539
v -0.00040010 -0.00039980 0.05032055
v -0.00109774 -0.00109741 0.05042508
v -0.00109774 -0.00039942 -0.00042508
v -0.00040010 0.00039982 -0.00032055
v 0.00010570 -0.00039942 -0.00000199
v 0.00007674 -0.00119941 0.00004281
v 0.00015363 -0.00119941 0.00060527
v 0.00021143 -0.00039942 0.00060527
v 0.00021143 -0.00039980 0.01739438
v 0.00021143 -0.00039980 0.04939971
v 0.00015363 -0.00119979 0.04939971
v 0.00010096 -0.00159750 0.04964859
v -0.00040010 -0.00119979 0.05027575
v -0.00040010 -0.00159750 0.05025086
v 0.00010570 -0.00039980 0.04999701
v -0.00040010 0.00039905 0.05032055
v -0.00109774 0.00039905 0.05042508
v -0.00109774 0.00109743 -0.00042508
v -0.00109774 0.00230506 -0.00041014
v -0.00070548 0.00230506 -0.00030562
v -0.00040010 0.00119981 -0.00027575
v 0.00010570 0.00039982 -0.00000199
v 0.00021143 0.00039982 0.00060527
v 0.00021143 0.00039905 0.04939971
v 0.00007674 -0.00119979 0.04995719
v 0.00006226 -0.00159750 0.04993230
v -0.00016021 -0.00159750 0.05008661
v 0.00010570 0.00039905 0.04999701
v -0.00109774 0.00230544 0.05039023
v -0.00109774 0.00199981 0.05040517
v -0.00109774 0.00119981 0.05041512
v -0.00040010 0.00154289 0.05025584
v -0.00109774 0.00230544 0.01739438
v 0.00006277 0.00230544 0.01739438
v -0.00037562 0.00230506 -0.00017122
v -0.00040010 0.00199981 -0.00022598
v 0.00007674 0.00119981 0.00004281
v 0.00004765 0.00199981 0.00009756
v 0.00003279 0.00230506 0.00012743
v 0.00005278 0.00230506 0.00034146
v 0.00015363 0.00119981 0.00060527
v 0.00021143 0.00039982 0.01738940
v 0.00015350 0.00119981 0.04939473
v 0.00012864 0.00154289 0.04939473
v 0.00018938 0.00070316 0.04939971
v 0.00003253 0.00230544 0.04986760
v 0.00004752 0.00199981 0.04989746
v 0.00006418 0.00154289 0.04993230
v 0.00007661 0.00119981 0.04995719
v 0.00015363 0.00119981 0.01738940
v -0.00040010 0.00199981 0.05022100
v -0.00037575 0.00230544 0.05016625
v 0.00006277 0.00230544 0.04938976
v 0.00006303 0.00230506 0.00060527
v -0.00009985 0.00230506 0.00002788
v 0.00009532 0.00199981 0.00060527
v 0.00012864 0.00154289 0.01739438
v 0.00009532 0.00199981 0.01738940
v 0.00009519 0.00199981 0.04938976
v 0.00006303 0.00230506 0.01738940
v 0.00009455 0.00200745 0.01738940
f 1 2 3
f 1 3 10
f 1 10 25
f 1 25 39
f 1 39 40
f 1 40 27
f 1 27 13
f 1 13 4
f 1 4 15
f 1 15 30
f 1 30 44
f 1 44 43
f 1 43 42
f 1 42 46
f 1 46 32
f 1 32 31
f 1 31 16
f 1 16 5
f 1 5 2
f 2 5 6
f 2 6 7
f 2 7 8
f 2 8 3
f 3 9 10
f 3 8 11
f 3 11 12
f 3 12 9
f 4 13 14
f 4 14 15
f 5 16 6
f 6 17 35
f 6 35 18
f 6 18 7
f 6 16 31
f 6 31 17
f 7 18 8
f 8 18 19
f 8 19 11
f 9 12 20
f 9 20 21
f 9 21 22
f 9 22 23
f 9 23 24
f 9 24 10
f 10 24 25
f 11 19 21
f 11 21 20
f 11 20 12
f 13 26 14
f 13 27 26
f 14 26 28
f 14 28 41
f 14 41 29
f 14 29 30
f 14 30 15
f 17 31 32
f 17 32 33
f 17 33 34
f 17 34 35
f 18 35 36
f 18 36 21
f 18 21 19
f 21 36 55
f 21 55 37
f 21 37 23
f 21 23 22
f 23 25 24
f 23 37 41
f 23 41 28
f 23 28 38
f 23 38 39
f 23 39 25
f 26 27 28
f 27 40 38
f 27 38 28
f 29 42 43
f 29 43 44
f 29 44 30
f 29 41 45
f 29 45 42
f 32 46 47
f 32 47 33
f 33 47 48
f 33 48 49
f 33 49 34
f 34 49 35
f 35 49 50
f 35 50 36
f 36 50 51
f 36 51 52
f 36 52 53
f 36 53 54
f 36 54 63
f 36 63 55
f 37 56 57
f 37 57 58
f 37 58 59
f 37 59 60
f 37 60 61
f 37 61 62
f 37 62 41
f 37 55 63
f 37 63 56
f 38 40 39
f 41 62 45
f 42 45 64
f 42 64 65
f 42 65 59
f 42 59 66
f 42 66 47
f 42 47 46
f 45 62 64
f 47 66 73
f 47 73 67
f 47 67 53
f 47 53 52
f 47 52 68
f 47 68 48
f 48 68 49
f 49 68 51
f 49 51 50
f 51 68 52
f 53 67 69
f 53 69 54
f 54 69 70
f 54 70 57
f 54 57 63
f 56 63 57
f 57 59 58
f 57 70 69
f 57 69 71
f 57 71 72
f 57 72 59
f 59 72 66
f 59 65 60
f 60 65 64
f 60 64 61
f 61 64 62
f 66 72 73
f 67 73 74
f 67 74 69
f 69 74 71
f 71 74 72
f 72 74 73

