# https://github.com/mikedh/trimesh
v -0.01681090 -0.04044000 0.00060192
v -0.01681090 -0.04021934 -0.00009034
v -0.01640007 -0.04044000 0.00060192
v -0.01681090 -0.04044000 0.01685769
v -0.01681090 -0.03959953 -0.00040908
v -0.01637252 -0.04021934 -0.00009034
v -0.01637252 -0.04043804 0.00060192
v -0.01637252 -0.04044000 0.00063180
v -0.01637252 -0.04044000 0.01685769
v -0.01681090 -0.04043804 0.04939413
v -0.01637252 -0.03959953 -0.00040908
v -0.01681090 -0.03879828 -0.00043897
v -0.01637252 -0.03882574 -0.00043897
v -0.01637252 -0.04043804 0.04939413
v -0.01681090 -0.04021738 0.05008639
v -0.01681090 -0.03198917 -0.00043897
v -0.01637252 -0.03240009 -0.00043897
v -0.01637252 -0.04021738 0.05008639
v -0.01681090 -0.03959757 0.05040514
v -0.01681090 -0.03160179 -0.00043398
v -0.01637252 -0.03160179 -0.00042901
v -0.01637252 -0.03959757 0.05040514
v -0.01637252 -0.03957109 0.05041012
v -0.01681090 -0.03879828 0.05044000
v -0.01681090 -0.03111535 -0.00027959
v -0.01637252 -0.03090548 -0.00012022
v -0.01637252 -0.03877082 0.05044000
v -0.01640016 -0.03879828 0.05044000
v -0.01681090 -0.03240205 0.05044000
v -0.01681090 -0.03079662 -0.00013516
v -0.01637252 -0.03088488 -0.00011026
v -0.01637252 -0.03240205 0.05044000
v -0.01681090 -0.03160179 0.05043004
v -0.01681090 -0.03044748 0.00056208
v -0.01637252 -0.03057596 0.00057702
v -0.01637252 -0.03160179 0.05042007
v -0.01681090 -0.03079760 0.05013122
v -0.01681090 -0.03042983 0.00060192
v -0.01637252 -0.03056811 0.00060192
v -0.01637252 -0.03088586 0.05010632
v -0.01681090 -0.03042787 0.04939413
v -0.01681090 -0.03042296 0.00137387
v -0.01637252 -0.03055928 0.00457622
v -0.01637252 -0.03056321 0.04939413
v -0.01681090 -0.03042296 0.04859230
v -0.01681090 -0.03042100 0.00540295
v -0.01637252 -0.03055928 0.04859230
v -0.01681090 -0.03042100 0.04779047
f 1 2 6
f 1 6 3
f 1 3 8
f 1 8 9
f 1 9 4
f 1 4 10
f 1 10 15
f 1 15 19
f 1 19 24
f 1 24 29
f 1 29 33
f 1 33 37
f 1 37 41
f 1 41 45
f 1 45 48
f 1 48 46
f 1 46 42
f 1 42 38
f 1 38 34
f 1 34 30
f 1 30 25
f 1 25 20
f 1 20 16
f 1 16 12
f 1 12 5
f 1 5 2
f 2 5 11
f 2 11 6
f 3 7 8
f 3 6 7
f 4 9 14
f 4 14 10
f 5 12 13
f 5 13 11
f 6 11 13
f 6 13 17
f 6 17 21
f 6 21 26
f 6 26 31
f 6 31 35
f 6 35 39
f 6 39 43
f 6 43 47
f 6 47 44
f 6 44 40
f 6 40 36
f 6 36 32
f 6 32 27
f 6 27 23
f 6 23 22
f 6 22 18
f 6 18 14
f 6 14 9
f 6 9 8
f 6 8 7
f 10 14 18
f 10 18 15
f 12 16 17
f 12 17 13
f 15 18 22
f 15 22 19
f 16 20 21
f 16 21 17
f 19 22 23
f 19 23 24
f 20 25 21
f 21 25 26
f 23 27 28
f 23 28 24
f 24 28 27
f 24 27 32
f 24 32 29
f 25 30 26
f 26 30 31
f 29 32 33
f 30 34 31
f 31 34 35
f 32 36 33
f 33 36 37
f 34 38 35
f 35 38 39
f 36 40 37
f 37 40 41
f 38 42 39
f 39 42 43
f 40 44 41
f 41 44 45
f 42 46 43
f 43 46 48
f 43 48 47
f 44 47 45
f 45 47 48

