# https://github.com/mikedh/trimesh
v 0.01873763 -0.03086169 0.05044000
v 0.01873763 -0.03879926 0.05044000
v 0.01873763 -0.03048050 0.05042506
v 0.00442178 -0.03160065 0.05041012
v 0.00442178 -0.03240006 0.05044000
v 0.00442178 -0.03879926 0.05044000
v 0.01873763 -0.03959965 0.05041012
v 0.01831856 -0.03048050 0.05041012
v 0.00442178 -0.03158506 0.05040514
v 0.01873763 -0.03048050 -0.00040514
v 0.00442178 -0.03959965 0.05041012
v 0.00442178 -0.04020408 0.05010133
v 0.01873763 -0.04021968 0.05009137
v 0.01742294 -0.03048050 0.05015113
v 0.00442178 -0.03076030 0.04939909
v 0.00442178 -0.03098062 0.05009137
v 0.01873763 -0.03080027 -0.00043502
v 0.00442178 -0.03160065 -0.00041012
v 0.00442178 -0.03099622 -0.00010133
v 0.00442178 -0.03098062 -0.00009137
v 0.00442178 -0.03076030 0.00060091
v 0.01799479 -0.03048050 -0.00030055
v 0.00442178 -0.04021968 0.05009137
v 0.01873763 -0.04043903 0.04939909
v 0.01725335 -0.03048050 0.05006149
v 0.01664926 -0.03048050 0.04939909
v 0.01663805 -0.03048050 0.04895085
v 0.01662403 -0.03048050 0.04539981
v 0.01873763 -0.03160065 -0.00044000
v 0.01719869 -0.03160065 -0.00044000
v 0.00442178 -0.03240006 -0.00044000
v 0.01662403 -0.03048050 0.00140276
v 0.01664085 -0.03048050 0.00060091
v 0.01725335 -0.03048050 -0.00006149
v 0.00442178 -0.04043903 0.04939909
v 0.01873763 -0.04043903 0.00060091
v 0.01873763 -0.03879926 -0.00044000
v 0.00442178 -0.03879926 -0.00044000
v 0.00442178 -0.04043903 0.00060091
v 0.01873763 -0.04021968 -0.00009137
v 0.01873763 -0.03953823 -0.00041510
v 0.00442178 -0.03959965 -0.00041012
v 0.00442178 -0.04021968 -0.00009137
v 0.01873763 -0.04017191 -0.00011627
v 0.01873763 -0.03959965 -0.00041012
v 0.00442178 -0.03961524 -0.00040514
f 1 2 7
f 1 7 13
f 1 13 24
f 1 24 36
f 1 36 40
f 1 40 44
f 1 44 45
f 1 45 41
f 1 41 37
f 1 37 29
f 1 29 17
f 1 17 10
f 1 10 3
f 1 3 4
f 1 4 5
f 1 5 6
f 1 6 2
f 2 6 11
f 2 11 7
f 3 8 9
f 3 9 4
f 3 10 22
f 3 22 34
f 3 34 33
f 3 33 32
f 3 32 28
f 3 28 27
f 3 27 26
f 3 26 25
f 3 25 14
f 3 14 8
f 4 9 16
f 4 16 15
f 4 15 21
f 4 21 20
f 4 20 19
f 4 19 18
f 4 18 31
f 4 31 38
f 4 38 42
f 4 42 46
f 4 46 43
f 4 43 39
f 4 39 35
f 4 35 23
f 4 23 12
f 4 12 11
f 4 11 6
f 4 6 5
f 7 11 12
f 7 12 13
f 8 14 15
f 8 15 16
f 8 16 9
f 10 17 18
f 10 18 19
f 10 19 20
f 10 20 21
f 10 21 22
f 12 23 13
f 13 23 35
f 13 35 24
f 14 25 15
f 15 25 26
f 15 26 27
f 15 27 28
f 15 28 32
f 15 32 21
f 17 29 30
f 17 30 31
f 17 31 18
f 21 32 33
f 21 33 34
f 21 34 22
f 24 35 39
f 24 39 36
f 29 37 38
f 29 38 31
f 29 31 30
f 36 39 43
f 36 43 40
f 37 41 38
f 38 41 42
f 40 43 44
f 41 45 42
f 42 45 46
f 43 46 44
f 44 46 45

