# https://github.com/mikedh/trimesh
v -0.01479482 0.01359497 0.00736663
v -0.01438982 0.01359497 0.00736663
v -0.01479486 0.01359497 0.02263101
v -0.01479482 0.01682070 0.00736663
v -0.01438982 0.01682070 0.00736663
v -0.01438978 0.01359497 0.03851945
v -0.01479490 0.01359497 0.03851945
v -0.01479486 0.01682070 0.02263101
v -0.01438978 0.01682070 0.03851945
v -0.01438978 0.01359497 0.05043578
v -0.01479490 0.01359497 0.05043578
v -0.01479490 0.01681881 0.03851945
v -0.01479490 0.01682070 0.03924472
v -0.01438978 0.01682070 0.05035145
v -0.01438978 0.01639949 0.05043578
v -0.01479490 0.01639949 0.05043578
v -0.01479490 0.01682070 0.05039783
v -0.01440342 0.01682070 0.05035566
f 1 2 6
f 1 6 10
f 1 10 11
f 1 11 7
f 1 7 3
f 1 3 8
f 1 8 4
f 1 4 5
f 1 5 2
f 2 5 9
f 2 9 6
f 3 7 12
f 3 12 8
f 4 8 13
f 4 13 17
f 4 17 18
f 4 18 14
f 4 14 9
f 4 9 5
f 6 9 14
f 6 14 15
f 6 15 10
f 7 11 16
f 7 16 17
f 7 17 13
f 7 13 12
f 8 12 13
f 10 15 16
f 10 16 11
f 14 18 15
f 15 18 17
f 15 17 16

