# https://github.com/mikedh/trimesh
v 0.01873904 -0.04044000 0.02863429
v 0.01873904 -0.04044000 0.04085885
v 0.01873904 -0.03984006 0.02863429
v 0.03959947 -0.04044000 0.02863429
v 0.01873904 -0.03984006 0.04085885
v 0.03959947 -0.04044000 0.04085885
v 0.04035273 -0.03984006 0.02863429
v 0.04021942 -0.04021999 0.02863429
v 0.03980048 -0.04036876 0.04085885
v 0.04035273 -0.03984006 0.04085885
v 0.04031041 -0.03996298 0.04085885
v 0.04021942 -0.04021999 0.04085885
f 1 2 5
f 1 5 3
f 1 3 7
f 1 7 8
f 1 8 4
f 1 4 6
f 1 6 2
f 2 6 9
f 2 9 12
f 2 12 11
f 2 11 10
f 2 10 5
f 3 5 10
f 3 10 7
f 4 8 9
f 4 9 6
f 7 10 11
f 7 11 8
f 8 11 12
f 8 12 9

