# https://github.com/mikedh/trimesh
v 0.04043791 -0.02911369 0.04939838
v 0.04043791 -0.02965146 0.04939838
v 0.04043791 -0.02911369 0.04231622
v 0.04043579 -0.02801360 0.04939411
v 0.04021702 -0.02801360 0.05008781
v 0.04021702 -0.02911353 0.05009208
v 0.04043791 -0.02965146 0.04231622
v 0.04021702 -0.02965162 0.05009208
v 0.04033596 -0.02965162 0.04971428
v 0.04043579 -0.02965162 0.03810065
v 0.04043579 -0.02801360 0.02863429
v 0.03989629 -0.02801360 0.05025430
v 0.03959681 -0.02801360 0.05040798
v 0.03959681 -0.02911353 0.05041012
v 0.04043579 -0.02965162 0.03706116
v 0.04043579 -0.02965146 0.02863642
v 0.04043579 -0.02911336 0.02863429
v 0.03959681 -0.02965162 0.05041012
v 0.03630247 -0.02801360 0.02863429
v 0.03918262 -0.02801360 0.05042292
v 0.03879393 -0.02911353 0.05044000
v 0.01873904 -0.02965162 0.03706116
v 0.01873904 -0.02965146 0.02863642
v 0.03630247 -0.02911336 0.02863429
v 0.03879393 -0.02965162 0.05044000
v 0.01873904 -0.02911353 0.02863642
v 0.01874329 -0.02801360 0.02863855
v 0.03879605 -0.02801360 0.05043573
v 0.03630247 -0.02801360 0.05043787
v 0.01969059 -0.02911353 0.05044000
v 0.01873904 -0.02965162 0.05029699
v 0.01960776 -0.02965162 0.05044000
v 0.01873904 -0.02911353 0.05016038
v 0.01874329 -0.02801360 0.04970361
v 0.02040214 -0.02801360 0.05043787
v 0.01960776 -0.02919995 0.05044000
v 0.01877302 -0.02965162 0.05030766
v 0.01960351 -0.02801360 0.05042292
v 0.01923181 -0.02801360 0.05025643
v 0.01892170 -0.02801360 0.05010275
v 0.01915110 -0.02965162 0.05042292
v 0.01875391 -0.02801360 0.04973562
v 0.01874329 -0.02803669 0.04971428
v 0.01999008 -0.02801360 0.05043360
v 0.01960351 -0.02840018 0.05042933
f 1 2 7
f 1 7 3
f 1 3 11
f 1 11 4
f 1 4 5
f 1 5 6
f 1 6 8
f 1 8 2
f 2 8 9
f 2 9 10
f 2 10 15
f 2 15 7
f 3 7 17
f 3 17 11
f 4 11 19
f 4 19 27
f 4 27 34
f 4 34 42
f 4 42 40
f 4 40 39
f 4 39 38
f 4 38 44
f 4 44 35
f 4 35 29
f 4 29 28
f 4 28 20
f 4 20 13
f 4 13 12
f 4 12 5
f 5 12 6
f 6 12 13
f 6 13 14
f 6 14 18
f 6 18 8
f 7 15 16
f 7 16 17
f 8 18 25
f 8 25 32
f 8 32 41
f 8 41 37
f 8 37 31
f 8 31 22
f 8 22 15
f 8 15 10
f 8 10 9
f 11 17 24
f 11 24 19
f 13 20 21
f 13 21 14
f 14 21 25
f 14 25 18
f 15 22 23
f 15 23 16
f 16 23 24
f 16 24 17
f 19 24 23
f 19 23 26
f 19 26 27
f 20 28 21
f 21 28 29
f 21 29 35
f 21 35 30
f 21 30 36
f 21 36 32
f 21 32 25
f 22 31 33
f 22 33 26
f 22 26 23
f 26 33 34
f 26 34 27
f 30 35 36
f 31 37 38
f 31 38 39
f 31 39 40
f 31 40 33
f 32 36 41
f 33 40 42
f 33 42 43
f 33 43 34
f 34 43 42
f 35 44 36
f 36 44 45
f 36 45 41
f 37 41 38
f 38 41 45
f 38 45 44

