# https://github.com/mikedh/trimesh
v -0.01773053 0.01719891 0.05044000
v -0.01773053 0.01801988 0.05034408
v -0.01800005 0.01799664 0.05042198
v -0.01841258 0.01799664 0.05043119
v -0.01841258 0.01719891 0.05044000
v -0.01773053 -0.01719638 0.05044000
v -0.01773053 0.01872080 0.05008898
v -0.01797876 0.01882148 0.05015319
v -0.01841258 0.01953014 0.05005280
v -0.01841258 0.01880986 0.05029395
v -0.01841258 -0.01761073 0.05044000
v -0.01773053 -0.01772691 0.05042794
v -0.01773053 0.01904995 0.04940007
v -0.01823119 0.01945269 0.04998615
v -0.01841258 0.01957274 0.04992546
v -0.01841258 -0.01799798 0.05043119
v -0.01841258 -0.01841233 0.05042076
v -0.01773053 -0.01802121 0.05034408
v -0.01773053 0.01905383 0.04905596
v -0.01812844 0.01957274 0.04905596
v -0.01813238 0.01957274 0.04940007
v -0.01814867 0.01957274 0.04945006
v -0.01841258 0.01957274 0.04905596
v -0.01841258 -0.01931462 0.05016159
v -0.01773053 -0.01860208 0.05015794
v -0.01773053 -0.01905516 0.04905596
v -0.01841258 -0.01998456 0.04905596
v -0.01841258 -0.01953148 0.05005280
v -0.01773053 -0.01872213 0.05008898
v -0.01823119 -0.01945015 0.04998615
v -0.01773053 -0.01905129 0.04940007
v -0.01841105 -0.01998843 0.04940007
v -0.01840918 -0.01998456 0.04905596
v -0.01841258 -0.01998456 0.04940468
v -0.01773053 -0.01904742 0.04941565
f 1 2 3
f 1 3 4
f 1 4 5
f 1 5 11
f 1 11 6
f 1 6 12
f 1 12 18
f 1 18 25
f 1 25 29
f 1 29 35
f 1 35 31
f 1 31 26
f 1 26 19
f 1 19 13
f 1 13 7
f 1 7 2
f 2 7 8
f 2 8 9
f 2 9 10
f 2 10 3
f 3 10 4
f 4 10 9
f 4 9 15
f 4 15 23
f 4 23 27
f 4 27 34
f 4 34 28
f 4 28 24
f 4 24 17
f 4 17 16
f 4 16 11
f 4 11 5
f 6 11 12
f 7 13 14
f 7 14 9
f 7 9 8
f 9 14 15
f 11 16 12
f 12 16 17
f 12 17 18
f 13 19 20
f 13 20 21
f 13 21 22
f 13 22 14
f 14 22 15
f 15 22 21
f 15 21 20
f 15 20 23
f 17 24 18
f 18 24 25
f 19 26 33
f 19 33 27
f 19 27 23
f 19 23 20
f 24 28 25
f 25 28 30
f 25 30 29
f 26 31 32
f 26 32 33
f 27 33 32
f 27 32 34
f 28 34 32
f 28 32 30
f 29 30 32
f 29 32 35
f 31 35 32

