# https://github.com/mikedh/trimesh
v -0.03930761 -0.02894708 0.04679171
v -0.03930761 -0.02894708 0.04779788
v -0.03930761 -0.02839773 0.04679171
v -0.01833910 -0.02894708 0.04679171
v -0.03930761 -0.02839773 0.04779788
v -0.01833910 -0.02894708 0.04779788
v -0.01892617 -0.02839773 0.04679171
v -0.01856284 -0.02840004 0.04679171
v -0.01855874 -0.02839773 0.04779769
v -0.01917661 -0.02839773 0.04779788
v -0.01855874 -0.02840004 0.04779788
v -0.01856490 -0.02839773 0.04699777
f 1 2 5
f 1 5 3
f 1 3 7
f 1 7 8
f 1 8 4
f 1 4 6
f 1 6 2
f 2 6 11
f 2 11 10
f 2 10 5
f 3 5 10
f 3 10 9
f 3 9 12
f 3 12 7
f 4 8 9
f 4 9 6
f 6 9 11
f 7 12 8
f 8 12 9
f 9 10 11

