# https://github.com/mikedh/trimesh
v -0.03827708 0.00449942 0.03667819
v -0.03240865 0.00450182 0.03667585
v -0.04037946 0.00449942 0.03667819
v -0.03240865 0.00084602 0.03667819
v -0.03240865 0.00450182 0.01278803
v -0.03827551 0.00450182 0.03667585
v -0.03240787 -0.00860871 0.03667819
v -0.04043921 0.00449942 0.03667351
v -0.04043921 0.00447785 0.03667819
v -0.03809389 0.00450182 0.01278335
v -0.03240787 -0.00860871 0.01278335
v -0.03240865 0.00431004 0.01278335
v -0.03827551 0.00450182 0.01278335
v -0.03240787 -0.01998843 0.03667819
v -0.04043921 0.00449942 0.01278335
v -0.04043921 0.00383539 0.03667819
v -0.03240787 -0.01998843 0.01278335
v -0.03827630 -0.01998843 0.03667819
v -0.04043921 0.00383539 0.01278335
v -0.04043921 -0.01998363 0.03667585
v -0.03827630 -0.01998843 0.01278335
v -0.04043921 -0.01998363 0.01278569
f 1 2 6
f 1 6 3
f 1 3 9
f 1 9 16
f 1 16 18
f 1 18 14
f 1 14 7
f 1 7 4
f 1 4 2
f 2 5 10
f 2 10 13
f 2 13 6
f 2 4 7
f 2 7 11
f 2 11 5
f 3 6 8
f 3 8 9
f 5 11 12
f 5 12 10
f 6 13 15
f 6 15 8
f 7 14 17
f 7 17 11
f 8 15 19
f 8 19 22
f 8 22 20
f 8 20 16
f 8 16 9
f 10 12 11
f 10 11 17
f 10 17 21
f 10 21 19
f 10 19 15
f 10 15 13
f 14 18 21
f 14 21 17
f 16 20 18
f 18 20 22
f 18 22 21
f 19 21 22

