# https://github.com/mikedh/trimesh
v -0.00954529 0.00466504 0.00763500
v -0.00954529 0.00561702 0.00763421
v -0.01014043 0.00466504 0.00763500
v -0.00954529 -0.01435291 0.00763500
v -0.01014043 0.00561702 0.00763421
v -0.00954529 0.00561702 -0.00043921
v -0.01014043 -0.01435291 0.00763500
v -0.00954529 -0.01435291 0.00336116
v -0.01014043 0.00561702 -0.00043921
v -0.00954529 -0.01399714 -0.00043921
v -0.01014043 -0.01435291 0.00336116
v -0.00999998 -0.01435096 -0.00043921
v -0.00954529 -0.01435096 -0.00043368
v -0.01014043 -0.01435096 -0.00043921
f 1 2 5
f 1 5 3
f 1 3 7
f 1 7 4
f 1 4 8
f 1 8 13
f 1 13 10
f 1 10 6
f 1 6 2
f 2 6 9
f 2 9 5
f 3 5 9
f 3 9 14
f 3 14 11
f 3 11 7
f 4 7 11
f 4 11 8
f 6 10 12
f 6 12 14
f 6 14 9
f 8 12 13
f 8 11 14
f 8 14 12
f 10 13 12

