# https://github.com/mikedh/trimesh
v -0.00674600 0.00689109 -0.00044000
v -0.00674600 0.01234529 -0.00044000
v -0.00438484 0.00689109 -0.00044000
v -0.00674600 0.00689109 0.02378857
v -0.00440009 0.01000124 -0.00044000
v -0.00674600 0.01294656 -0.00042103
v -0.00654654 0.01294583 -0.00041628
v -0.00599994 0.01239903 -0.00041865
v -0.00438484 0.00918576 -0.00044000
v -0.00438484 0.00689109 0.02378857
v -0.00674600 0.01430883 0.02378857
v -0.00520001 0.01159880 -0.00041865
v -0.00438484 0.01078477 -0.00039731
v -0.00438484 0.01000124 -0.00043763
v -0.00674600 0.01314552 -0.00041391
v -0.00674600 0.01320071 -0.00039731
v -0.00517390 0.01242735 -0.00015066
v -0.00438484 0.01208968 0.02378857
v -0.00674600 0.01430883 0.00060352
v -0.00663830 0.01422968 0.02378857
v -0.00438484 0.01161477 -0.00013406
v -0.00674600 0.01394648 -0.00011271
v -0.00597775 0.01322322 -0.00014592
v -0.00541057 0.01294583 0.00000824
v -0.00462983 0.01217973 0.00001298
v -0.00454478 0.01226977 0.02378857
v -0.00438484 0.01208968 0.00060115
v -0.00663252 0.01422533 0.00060352
v -0.00674600 0.01428850 0.00047071
v -0.00662559 0.01422024 0.02378857
v -0.00438484 0.01162349 -0.00012932
v -0.00674600 0.01397988 -0.00009374
v -0.00622990 0.01375042 0.00002247
v -0.00542282 0.01297197 0.00001772
v -0.00538098 0.01294656 0.00006753
v -0.00493353 0.01266916 0.00060115
v -0.00454478 0.01226977 0.00060115
v -0.00438484 0.01199746 0.00030944
v -0.00493930 0.01267497 0.02378857
v -0.00614485 0.01382594 0.00060352
v -0.00614485 0.01382594 0.02378857
v -0.00574500 0.01345850 0.00060352
v -0.00533360 0.01305838 0.00060352
v -0.00574500 0.01345850 0.02378857
f 1 2 5
f 1 5 9
f 1 9 3
f 1 3 10
f 1 10 4
f 1 4 11
f 1 11 19
f 1 19 29
f 1 29 32
f 1 32 22
f 1 22 16
f 1 16 15
f 1 15 6
f 1 6 2
f 2 6 7
f 2 7 8
f 2 8 5
f 3 9 14
f 3 14 13
f 3 13 21
f 3 21 31
f 3 31 38
f 3 38 27
f 3 27 18
f 3 18 10
f 4 10 18
f 4 18 26
f 4 26 39
f 4 39 44
f 4 44 41
f 4 41 30
f 4 30 20
f 4 20 11
f 5 8 12
f 5 12 13
f 5 13 14
f 5 14 9
f 6 15 7
f 7 15 16
f 7 16 17
f 7 17 8
f 8 17 12
f 11 20 19
f 12 17 13
f 13 17 21
f 16 22 23
f 16 23 17
f 17 23 24
f 17 24 25
f 17 25 21
f 18 27 37
f 18 37 26
f 19 28 29
f 19 20 28
f 20 30 28
f 21 25 31
f 22 32 33
f 22 33 23
f 23 33 24
f 24 34 25
f 24 33 34
f 25 34 35
f 25 35 36
f 25 36 37
f 25 37 27
f 25 27 38
f 25 38 31
f 26 37 36
f 26 36 39
f 28 40 29
f 28 30 40
f 29 40 33
f 29 33 32
f 30 41 40
f 33 40 42
f 33 42 34
f 34 42 35
f 35 42 36
f 36 42 43
f 36 43 39
f 39 43 42
f 39 42 44
f 40 41 44
f 40 44 42

