# https://github.com/mikedh/trimesh
v -0.01679660 0.01535173 -0.00044000
v -0.01679660 0.01679672 -0.00044000
v -0.01566048 0.01535173 -0.00044000
v -0.01679660 0.01535173 0.05044000
v -0.01679660 0.01719990 -0.00043502
v -0.01566048 0.01640008 -0.00044000
v -0.01566048 0.01535173 0.05044000
v -0.01679660 0.01640008 0.05044000
v -0.01679660 0.01767759 -0.00028561
v -0.01639999 0.01719990 -0.00043004
v -0.01566048 0.01719990 -0.00041510
v -0.01566048 0.01640008 0.05044000
v -0.01679660 0.01719990 0.05043502
v -0.01679660 0.01801045 -0.00014117
v -0.01566048 0.01725503 -0.00039020
v -0.01566048 0.01719990 0.05041510
v -0.01639999 0.01719990 0.05043004
v -0.01679660 0.01801045 0.05014117
v -0.01679660 0.01838921 0.00060091
v -0.01566048 0.01786801 -0.00004157
v -0.01566048 0.01784238 -0.00009137
v -0.01566048 0.01784238 0.05009137
v -0.01679660 0.01838921 0.04939909
v -0.01679660 0.01839576 0.00138782
v -0.01566048 0.01808615 0.00060091
v -0.01566048 0.01808615 0.04939909
v -0.01679660 0.01838951 0.04936921
v -0.01566048 0.01808704 0.00140276
v -0.01566048 0.01808644 0.00066067
v -0.01679660 0.01839606 0.00220461
v -0.01679660 0.01839576 0.04859724
v -0.01566048 0.01808704 0.04859724
v -0.01679660 0.01839606 0.04779539
f 1 2 6
f 1 6 3
f 1 3 7
f 1 7 4
f 1 4 8
f 1 8 13
f 1 13 18
f 1 18 23
f 1 23 27
f 1 27 31
f 1 31 33
f 1 33 30
f 1 30 24
f 1 24 19
f 1 19 14
f 1 14 9
f 1 9 5
f 1 5 2
f 2 5 6
f 3 6 11
f 3 11 15
f 3 15 21
f 3 21 20
f 3 20 25
f 3 25 29
f 3 29 28
f 3 28 32
f 3 32 26
f 3 26 22
f 3 22 16
f 3 16 12
f 3 12 7
f 4 7 12
f 4 12 8
f 5 9 10
f 5 10 6
f 6 10 11
f 8 12 13
f 9 14 11
f 9 11 10
f 11 14 15
f 12 16 17
f 12 17 13
f 13 17 18
f 14 19 20
f 14 20 21
f 14 21 15
f 16 18 17
f 16 22 18
f 18 22 23
f 19 24 25
f 19 25 20
f 22 26 23
f 23 26 27
f 24 28 29
f 24 29 25
f 24 30 28
f 26 31 27
f 26 32 31
f 28 30 33
f 28 33 32
f 31 32 33

