# https://github.com/mikedh/trimesh
v -0.00423239 -0.01191900 0.02379118
v -0.00423239 0.00862031 0.02379118
v -0.00414428 -0.01181647 0.02379118
v -0.00414428 -0.01181848 0.03863751
v -0.00423239 -0.01191900 0.04939856
v -0.00307240 0.00862031 0.02379118
v -0.00423239 0.00862031 0.05043684
v -0.00382533 -0.01141034 0.02379118
v -0.00383112 -0.01141839 0.03863751
v -0.00414428 -0.01181848 0.04939856
v -0.00423239 -0.01188482 0.04950552
v -0.00307240 -0.01020404 0.02379118
v -0.00307240 0.00862031 0.05034554
v -0.00423239 -0.00983210 0.05043684
v -0.00360016 0.00862031 0.05043684
v -0.00311986 -0.01048752 0.02379118
v -0.00314280 -0.01051969 0.03015650
v -0.00312463 -0.01049758 0.03863751
v -0.00383112 -0.01141839 0.04939856
v -0.00314984 -0.01046340 0.04988640
v -0.00388732 -0.01134601 0.04995683
v -0.00423239 -0.01152695 0.05008205
v -0.00307240 -0.01041917 0.02379379
v -0.00307240 0.00839513 0.05041075
v -0.00363355 -0.00923297 0.05043684
v -0.00423239 -0.01063228 0.05038466
v -0.00307240 0.00759897 0.05043684
v -0.00310113 -0.01046340 0.03863751
v -0.00312463 -0.01049758 0.04939856
v -0.00307240 -0.01042118 0.04939856
v -0.00307240 -0.01036488 0.04978205
v -0.00307240 -0.01023420 0.04995422
v -0.00361277 -0.01075894 0.05007422
v -0.00423239 -0.01144452 0.05012118
v -0.00307240 -0.01042118 0.03863751
v -0.00307240 -0.00787186 0.05043684
v -0.00307240 -0.00867003 0.05041075
v -0.00360016 -0.00999897 0.05034293
v -0.00307240 -0.01009346 0.05002988
v -0.00307240 -0.00952851 0.05022292
v -0.00307240 -0.00999897 0.05006379
f 1 2 6
f 1 6 12
f 1 12 16
f 1 16 8
f 1 8 3
f 1 3 4
f 1 4 10
f 1 10 5
f 1 5 11
f 1 11 22
f 1 22 34
f 1 34 26
f 1 26 14
f 1 14 7
f 1 7 2
f 2 7 15
f 2 15 13
f 2 13 6
f 3 8 4
f 4 8 9
f 4 9 19
f 4 19 10
f 5 10 11
f 6 13 24
f 6 24 27
f 6 27 36
f 6 36 37
f 6 37 40
f 6 40 41
f 6 41 39
f 6 39 32
f 6 32 31
f 6 31 30
f 6 30 35
f 6 35 23
f 6 23 12
f 7 14 25
f 7 25 36
f 7 36 27
f 7 27 15
f 8 16 17
f 8 17 18
f 8 18 9
f 9 18 29
f 9 29 19
f 10 19 20
f 10 20 21
f 10 21 11
f 11 21 22
f 12 23 16
f 13 15 24
f 14 26 25
f 15 27 24
f 16 23 18
f 16 18 17
f 18 23 28
f 18 28 29
f 19 29 20
f 20 29 30
f 20 30 31
f 20 31 32
f 20 32 33
f 20 33 21
f 21 33 22
f 22 33 34
f 23 35 28
f 25 26 37
f 25 37 36
f 26 38 37
f 26 34 38
f 28 35 30
f 28 30 29
f 32 39 33
f 33 39 38
f 33 38 34
f 37 38 40
f 38 39 41
f 38 41 40

