# https://github.com/mikedh/trimesh
v -0.03240672 -0.01998843 0.01697838
v -0.02797197 -0.01998843 0.01697838
v -0.03240672 -0.01998843 0.02083632
v -0.03240672 0.00450182 0.01697838
v -0.01840716 -0.01998603 0.01697838
v -0.01840716 -0.01998843 0.01740024
v -0.02438912 -0.01998843 0.02083632
v -0.03240672 0.00450182 0.02083632
v -0.01773197 0.00450182 0.01697838
v -0.01773197 -0.01906069 0.01697838
v -0.01840716 -0.01998843 0.01820016
v -0.01840860 -0.01998843 0.02059990
v -0.01840716 -0.01998603 0.02083632
v -0.01773197 0.00450182 0.02083632
v -0.01773197 -0.01906069 0.02083632
f 1 2 6
f 1 6 11
f 1 11 12
f 1 12 7
f 1 7 3
f 1 3 8
f 1 8 4
f 1 4 9
f 1 9 10
f 1 10 5
f 1 5 2
f 2 5 6
f 3 7 13
f 3 13 15
f 3 15 14
f 3 14 8
f 4 8 14
f 4 14 9
f 5 10 6
f 6 10 15
f 6 15 11
f 7 12 13
f 9 14 15
f 9 15 10
f 11 15 12
f 12 15 13

