# https://github.com/mikedh/trimesh
v -0.04044000 0.02759984 0.01094097
v -0.04044000 0.02882393 0.01094097
v -0.03883612 0.02759684 0.01094097
v -0.04044000 0.02759684 0.01100029
v -0.04044000 0.02882393 0.02026301
v -0.01841901 0.02882393 0.01094097
v -0.01872297 0.02759708 0.01094097
v -0.01872297 0.02759684 0.01100029
v -0.04044000 0.02759684 0.01979947
v -0.04044000 0.02759864 0.02026301
v -0.01841901 0.02882393 0.02026301
v -0.01841685 0.02882393 0.01740600
v -0.01871650 0.02759684 0.01819986
v -0.01871866 0.02759684 0.01180054
v -0.02787413 0.02759684 0.02026301
v -0.01872512 0.02759816 0.02026301
v -0.01871650 0.02760008 0.01899921
v -0.01841685 0.02882393 0.01819986
v -0.01871866 0.02759684 0.01899921
v -0.01872297 0.02759684 0.01979947
f 1 2 6
f 1 6 7
f 1 7 3
f 1 3 4
f 1 4 9
f 1 9 10
f 1 10 5
f 1 5 2
f 2 5 11
f 2 11 18
f 2 18 12
f 2 12 6
f 3 7 8
f 3 8 14
f 3 14 13
f 3 13 19
f 3 19 20
f 3 20 15
f 3 15 9
f 3 9 4
f 5 10 15
f 5 15 16
f 5 16 11
f 6 12 13
f 6 13 14
f 6 14 7
f 7 14 8
f 9 15 10
f 11 16 17
f 11 17 18
f 12 18 13
f 13 17 19
f 13 18 17
f 15 20 16
f 16 20 17
f 17 20 19

