# https://github.com/mikedh/trimesh
v -0.01560295 0.03071542 0.00219963
v -0.01560295 0.03071637 0.00139778
v -0.01559985 0.03071732 0.00060091
v -0.01479208 0.03076016 0.00060091
v -0.01560295 0.03071542 0.04459298
v -0.01560295 0.03071732 0.00060091
v -0.01560295 0.03095910 -0.00009635
v -0.01479208 0.03097814 -0.00008639
v -0.01479208 0.03076016 0.04939909
v -0.01560295 0.03071637 0.04539483
v -0.01479208 0.03098005 -0.00009137
v -0.01560295 0.03160068 -0.00041510
v -0.01559985 0.03160068 -0.00041510
v -0.01479208 0.03159402 -0.00041012
v -0.01479208 0.03098005 0.05009137
v -0.01559985 0.03072208 0.04939909
v -0.01560295 0.03072113 0.04938913
v -0.01560295 0.03240028 -0.00044000
v -0.01479208 0.03240028 -0.00044000
v -0.01479208 0.03098671 0.05009635
v -0.01560295 0.03095720 0.05009635
v -0.01560295 0.03879798 -0.00044000
v -0.01479208 0.03318274 -0.00044000
v -0.01479208 0.03160068 0.05041012
v -0.01560295 0.03159783 0.05041510
v -0.01560295 0.03959852 -0.00041012
v -0.01479216 0.03879798 -0.00044000
v -0.01479216 0.03959852 -0.00041012
v -0.01479216 0.04021250 -0.00009137
v -0.01479216 0.04021821 -0.00008639
v -0.01479216 0.04043715 0.00059593
v -0.01479216 0.04043905 0.00061087
v -0.01479216 0.04044000 0.02461651
v -0.01479208 0.03318274 0.05044000
v -0.01479208 0.03240028 0.05044000
v -0.01559985 0.03240028 0.05044000
v -0.01560295 0.03239742 0.05043502
v -0.01560295 0.04021821 -0.00008639
v -0.01560295 0.04043905 0.00061087
v -0.01479216 0.04044000 0.04938913
v -0.01560279 0.04044000 0.02461651
v -0.01479216 0.04021916 0.05008639
v -0.01479216 0.03959852 0.05041012
v -0.01479216 0.03879798 0.05044000
v -0.01560295 0.03319987 0.05044000
v -0.01560295 0.04044000 0.02539843
v -0.01560295 0.04044000 0.04938913
v -0.01560295 0.04021916 0.05008639
v -0.01559977 0.03959852 0.05041012
v -0.01559977 0.03879798 0.05044000
v -0.01560295 0.03879512 0.05044000
v -0.01560295 0.03959662 0.05041012
f 1 2 3
f 1 3 4
f 1 4 9
f 1 9 5
f 1 5 10
f 1 10 17
f 1 17 21
f 1 21 25
f 1 25 37
f 1 37 45
f 1 45 51
f 1 51 52
f 1 52 48
f 1 48 47
f 1 47 46
f 1 46 39
f 1 39 38
f 1 38 26
f 1 26 22
f 1 22 18
f 1 18 12
f 1 12 7
f 1 7 6
f 1 6 2
f 2 6 3
f 3 6 7
f 3 7 8
f 3 8 4
f 4 8 11
f 4 11 14
f 4 14 19
f 4 19 23
f 4 23 34
f 4 34 35
f 4 35 24
f 4 24 20
f 4 20 15
f 4 15 9
f 5 9 10
f 7 11 8
f 7 12 13
f 7 13 14
f 7 14 11
f 9 15 16
f 9 16 17
f 9 17 10
f 12 18 19
f 12 19 13
f 13 19 14
f 15 20 21
f 15 21 16
f 16 21 17
f 18 22 27
f 18 27 23
f 18 23 19
f 20 24 21
f 21 24 25
f 22 26 28
f 22 28 27
f 23 27 28
f 23 28 29
f 23 29 30
f 23 30 31
f 23 31 32
f 23 32 33
f 23 33 40
f 23 40 34
f 24 35 25
f 25 35 36
f 25 36 37
f 26 38 29
f 26 29 28
f 29 38 30
f 30 38 31
f 31 38 39
f 31 39 32
f 32 39 41
f 32 41 33
f 33 41 46
f 33 46 47
f 33 47 40
f 34 40 42
f 34 42 43
f 34 43 44
f 34 44 50
f 34 50 51
f 34 51 45
f 34 45 36
f 34 36 35
f 36 45 37
f 39 46 41
f 40 47 48
f 40 48 42
f 42 48 49
f 42 49 43
f 43 49 50
f 43 50 44
f 48 52 49
f 49 52 50
f 50 52 51

