# https://github.com/mikedh/trimesh
v -0.01565757 0.01808374 0.01429262
v -0.01480015 0.01791023 0.01429262
v -0.01566037 0.01808728 0.01426031
v -0.01566037 0.01766944 0.01429262
v -0.01479499 0.01790315 0.01429262
v -0.01480015 0.01791023 0.01114889
v -0.01566037 0.01808728 0.01114889
v -0.01566037 -0.01808728 0.01429262
v -0.01479499 0.01790315 0.01114889
v -0.01479499 -0.01758800 0.01429262
v -0.01566037 -0.01808728 0.01114889
v -0.01480015 -0.01791023 0.01429262
v -0.01479499 -0.01727640 0.01114889
v -0.01479549 -0.01790315 0.01429262
v -0.01479499 -0.01790315 0.01420490
v -0.01480015 -0.01791023 0.01114889
v -0.01479499 -0.01790315 0.01180048
v -0.01479583 -0.01790315 0.01114889
f 1 2 3
f 1 3 4
f 1 4 8
f 1 8 12
f 1 12 14
f 1 14 10
f 1 10 5
f 1 5 2
f 2 5 9
f 2 9 6
f 2 6 7
f 2 7 3
f 3 7 11
f 3 11 8
f 3 8 4
f 5 10 15
f 5 15 17
f 5 17 13
f 5 13 9
f 6 9 13
f 6 13 18
f 6 18 16
f 6 16 11
f 6 11 7
f 8 11 16
f 8 16 12
f 10 14 15
f 12 16 17
f 12 17 15
f 12 15 14
f 13 17 18
f 16 18 17

