# https://github.com/mikedh/trimesh
v -0.03240672 -0.01998843 0.02083632
v -0.02438990 -0.01998843 0.02083632
v -0.03240672 -0.01998843 0.02268878
v -0.03240672 0.00450182 0.02083632
v -0.01840853 -0.01998603 0.02083632
v -0.01840853 -0.01998843 0.02140007
v -0.03077491 -0.01998843 0.02268878
v -0.03240672 0.00450182 0.02268878
v -0.01773340 0.00450182 0.02083632
v -0.01773340 -0.01906070 0.02083632
v -0.01840853 -0.01998843 0.02219973
v -0.01840853 -0.01998603 0.02268878
v -0.01773340 0.00450182 0.02268878
v -0.01773340 -0.01906070 0.02268878
f 1 2 6
f 1 6 11
f 1 11 7
f 1 7 3
f 1 3 8
f 1 8 4
f 1 4 9
f 1 9 10
f 1 10 5
f 1 5 2
f 2 5 6
f 3 7 12
f 3 12 14
f 3 14 13
f 3 13 8
f 4 8 13
f 4 13 9
f 5 10 6
f 6 10 14
f 6 14 11
f 7 11 12
f 9 13 14
f 9 14 10
f 11 14 12

