# https://github.com/mikedh/trimesh
v 0.04044000 0.03926329 0.04939838
v 0.04021840 0.03926329 0.05009208
v 0.04044000 0.03798827 0.04939838
v 0.04044000 0.03926329 0.02863429
v 0.03995844 0.03926329 0.05022655
v 0.04021840 0.03798827 0.05009208
v 0.04044000 0.03798827 0.02863429
v 0.01867172 0.03926329 0.02863429
v 0.03959834 0.03926329 0.05040371
v 0.03959834 0.03879996 0.05041225
v 0.03959834 0.03798827 0.05041225
v 0.01867172 0.03798827 0.02863429
v 0.01867172 0.03926329 0.05042292
v 0.03926167 0.03926329 0.05041652
v 0.03879928 0.03879996 0.05044000
v 0.03879928 0.03798827 0.05044000
v 0.01867172 0.03798827 0.05044000
v 0.01867172 0.03879996 0.05044000
v 0.03879928 0.03926329 0.05042292
f 1 2 6
f 1 6 3
f 1 3 7
f 1 7 4
f 1 4 8
f 1 8 13
f 1 13 19
f 1 19 14
f 1 14 9
f 1 9 5
f 1 5 2
f 2 5 6
f 3 6 11
f 3 11 16
f 3 16 17
f 3 17 12
f 3 12 7
f 4 7 12
f 4 12 8
f 5 9 10
f 5 10 11
f 5 11 6
f 8 12 17
f 8 17 18
f 8 18 13
f 9 14 10
f 10 14 15
f 10 15 16
f 10 16 11
f 13 18 15
f 13 15 19
f 14 19 15
f 15 18 17
f 15 17 16

