# https://github.com/mikedh/trimesh
v -0.01773053 0.01906150 0.04488817
v -0.01679660 0.01839353 0.04488817
v -0.01773053 0.01906150 0.03019043
v -0.01773053 -0.01906150 0.04488817
v -0.01679660 -0.01812858 0.04488817
v -0.01679660 0.01839353 0.03020050
v -0.01679788 0.01839353 0.03019043
v -0.01773053 -0.01906150 0.03019043
v -0.01679660 -0.01839353 0.04461045
v -0.01680355 -0.01839726 0.04488817
v -0.01679916 -0.01839353 0.04488817
v -0.01679660 0.01206084 0.03019043
v -0.01679660 -0.01839353 0.03019043
f 1 2 6
f 1 6 3
f 1 3 8
f 1 8 4
f 1 4 10
f 1 10 11
f 1 11 5
f 1 5 2
f 2 5 9
f 2 9 13
f 2 13 12
f 2 12 6
f 3 6 7
f 3 7 12
f 3 12 13
f 3 13 8
f 4 8 13
f 4 13 9
f 4 9 10
f 5 11 9
f 6 12 7
f 9 11 10

