# https://github.com/mikedh/trimesh
v -0.01638835 0.04044000 0.04645007
v -0.01638835 0.03063221 0.04645007
v -0.01638835 0.04044000 0.04582281
v -0.03959716 0.04044000 0.04645007
v -0.01639306 0.03056150 0.04645007
v -0.01638835 0.03056150 0.04621300
v -0.01638835 0.03055847 0.04582281
v -0.03959716 0.04044000 0.04582281
v -0.04021870 0.04021981 0.04645007
v -0.01726887 0.03012111 0.04645007
v -0.01726887 0.03012111 0.04582281
v -0.04021870 0.04021981 0.04582281
v -0.04044000 0.03959962 0.04645007
v -0.03084147 0.03012111 0.04645007
v -0.03084147 0.03012111 0.04582281
v -0.04044000 0.03959962 0.04582281
v -0.04044000 0.03012212 0.04645007
v -0.04044000 0.03012212 0.04582281
f 1 2 6
f 1 6 7
f 1 7 3
f 1 3 8
f 1 8 4
f 1 4 9
f 1 9 13
f 1 13 17
f 1 17 14
f 1 14 10
f 1 10 5
f 1 5 2
f 2 5 6
f 3 7 11
f 3 11 15
f 3 15 18
f 3 18 16
f 3 16 12
f 3 12 8
f 4 8 12
f 4 12 9
f 5 10 6
f 6 10 7
f 7 10 11
f 9 12 16
f 9 16 13
f 10 14 15
f 10 15 11
f 13 16 18
f 13 18 17
f 14 17 18
f 14 18 15

