# https://github.com/mikedh/trimesh
v -0.00814933 0.00604303 0.02378857
v -0.00814933 0.01361610 0.02378857
v -0.00694422 0.00604303 0.02378857
v -0.00814933 0.00604303 0.05043876
v -0.00674628 0.01361610 0.02378857
v -0.00814933 0.01361610 0.05041789
v -0.00674628 0.00604303 0.02379118
v -0.00674628 0.00604303 0.05043876
v -0.00814933 0.01319875 0.05043876
v -0.00674628 0.01361610 0.05023528
v -0.00759987 0.01319875 0.05043876
v -0.00759987 0.01361610 0.05040484
v -0.00674628 0.01159903 0.05043876
v -0.00677842 0.01361610 0.05024832
v -0.00674628 0.01320023 0.05039702
v -0.00680026 0.01239963 0.05043876
v -0.00680026 0.01319875 0.05041267
v -0.00680699 0.01361610 0.05025876
v -0.00674628 0.01239963 0.05043615
f 1 2 5
f 1 5 3
f 1 3 7
f 1 7 8
f 1 8 4
f 1 4 9
f 1 9 6
f 1 6 2
f 2 6 12
f 2 12 18
f 2 18 14
f 2 14 10
f 2 10 5
f 3 5 7
f 4 8 13
f 4 13 16
f 4 16 11
f 4 11 9
f 5 10 15
f 5 15 19
f 5 19 13
f 5 13 8
f 5 8 7
f 6 9 11
f 6 11 12
f 10 14 15
f 11 16 17
f 11 17 12
f 12 17 18
f 13 19 16
f 14 18 15
f 15 18 17
f 15 17 19
f 16 19 17

