# https://github.com/mikedh/trimesh
v -0.00674600 0.01417228 0.00459127
v -0.00674600 0.01417228 0.00028551
v -0.00808456 0.01417228 0.00459127
v -0.00674600 -0.01079989 0.00459127
v -0.00674600 0.01397913 -0.00009916
v -0.00690939 0.01417228 -0.00004991
v -0.00808456 0.01417228 -0.00037991
v -0.00808456 -0.01079989 0.00459127
v -0.00674600 -0.01079989 -0.00044000
v -0.00674600 0.01394490 -0.00011689
v -0.00681322 0.01400847 -0.00011443
v -0.00699993 0.01417228 -0.00009276
v -0.00777469 0.01417228 -0.00035528
v -0.00759990 0.01399869 -0.00037695
v -0.00808456 0.01399869 -0.00041488
v -0.00808456 -0.01079989 -0.00044000
v -0.00674600 0.01234594 -0.00044000
v -0.00674600 0.01319921 -0.00039862
v -0.00680012 0.01319921 -0.00041586
v -0.00808456 0.01368330 -0.00044000
v -0.00759990 0.01319921 -0.00044000
v -0.00674600 0.01239973 -0.00043852
v -0.00674600 0.01314542 -0.00041636
f 1 2 6
f 1 6 12
f 1 12 13
f 1 13 7
f 1 7 3
f 1 3 8
f 1 8 4
f 1 4 9
f 1 9 17
f 1 17 22
f 1 22 23
f 1 23 18
f 1 18 10
f 1 10 5
f 1 5 2
f 2 5 6
f 3 7 15
f 3 15 20
f 3 20 16
f 3 16 8
f 4 8 16
f 4 16 9
f 5 10 11
f 5 11 6
f 6 11 12
f 7 13 14
f 7 14 15
f 9 16 20
f 9 20 21
f 9 21 17
f 10 14 11
f 10 18 14
f 11 14 13
f 11 13 12
f 14 18 19
f 14 19 15
f 15 19 20
f 17 21 22
f 18 23 19
f 19 23 20
f 20 23 22
f 20 22 21

