# https://github.com/mikedh/trimesh
v -0.03240672 -0.01998843 0.02450650
v -0.03240672 -0.01998843 0.03201333
v -0.03240672 -0.01953775 0.02382052
v -0.02380443 -0.01998843 0.02450650
v -0.03240528 -0.01998843 0.03667677
v -0.03240672 0.00449942 0.03201333
v -0.01809973 -0.01953775 0.02382052
v -0.03240672 0.00449942 0.02382052
v -0.01840860 -0.01998363 0.02450650
v -0.01840860 -0.01998843 0.02460216
v -0.02259482 -0.01998843 0.03667677
v -0.03240528 0.00449942 0.03667677
v -0.03240528 0.00450182 0.02872311
v -0.01773340 -0.01905830 0.02382052
v -0.03240528 0.00450182 0.02669788
v -0.01773340 0.00449942 0.02382052
v -0.01840860 -0.01998843 0.03179935
v -0.01773053 -0.01905830 0.02450650
v -0.01841291 -0.01998843 0.03659873
v -0.01841291 -0.01998363 0.03667677
v -0.01773484 0.00449942 0.03667677
v -0.01773340 0.00450182 0.02872311
v -0.01773340 0.00450182 0.02669788
v -0.01773053 0.00449703 0.02450650
v -0.01773053 -0.01905830 0.02561415
v -0.01773340 -0.01906069 0.03018445
v -0.01773484 -0.01905830 0.03667677
v -0.01773340 0.00449942 0.03351243
v -0.01773053 0.00449703 0.02561415
v -0.01773340 -0.01905830 0.03351243
f 1 2 6
f 1 6 8
f 1 8 3
f 1 3 7
f 1 7 4
f 1 4 10
f 1 10 17
f 1 17 19
f 1 19 11
f 1 11 5
f 1 5 2
f 2 5 12
f 2 12 6
f 3 8 16
f 3 16 14
f 3 14 7
f 4 7 9
f 4 9 10
f 5 11 20
f 5 20 27
f 5 27 21
f 5 21 12
f 6 12 13
f 6 13 15
f 6 15 8
f 7 14 9
f 8 15 23
f 8 23 16
f 9 14 10
f 10 14 18
f 10 18 25
f 10 25 17
f 11 19 20
f 12 21 22
f 12 22 13
f 13 22 23
f 13 23 15
f 14 16 24
f 14 24 18
f 16 23 24
f 17 25 26
f 17 26 27
f 17 27 19
f 18 24 29
f 18 29 25
f 19 27 20
f 21 28 22
f 21 27 30
f 21 30 28
f 22 28 29
f 22 29 24
f 22 24 23
f 25 29 28
f 25 28 30
f 25 30 26
f 26 30 27

