# https://github.com/mikedh/trimesh
v -0.00674624 0.01361610 0.05023651
v -0.00674624 0.01398077 0.05009825
v -0.00677826 0.01361610 0.05024956
v -0.00674624 0.01361610 0.02378857
v -0.00708874 0.01448077 0.04992867
v -0.00681330 0.01401054 0.05011390
v -0.00674624 0.01430966 0.04939909
v -0.00680680 0.01361610 0.05025999
v -0.00911659 0.01361610 0.02378857
v -0.00674624 0.01430966 0.02378857
v -0.00839980 0.01533521 0.04995737
v -0.00767465 0.01476832 0.05001216
v -0.00799070 0.01520655 0.04981128
v -0.00839980 0.01479988 0.05027825
v -0.00760017 0.01400010 0.05037478
v -0.00703305 0.01452099 0.04939909
v -0.00675018 0.01431277 0.02378857
v -0.00760017 0.01361610 0.05040608
v -0.00911659 0.01587210 0.02378857
v -0.00911659 0.01361610 0.05044000
v -0.00911659 0.01558566 0.05007998
v -0.00911659 0.01588610 0.04939909
v -0.00798606 0.01520988 0.04939909
v -0.00839980 0.01547055 0.04939909
v -0.00906740 0.01586077 0.04939909
v -0.00911659 0.01479988 0.05041130
v -0.00839980 0.01400010 0.05044000
v -0.00703305 0.01452099 0.02378857
v -0.00839980 0.01361610 0.05044000
v -0.00911659 0.01588610 0.02379118
v -0.00907320 0.01586366 0.02378857
v -0.00911659 0.01400010 0.05044000
v -0.00798606 0.01520988 0.02378857
v -0.00839400 0.01546699 0.02378857
v -0.00839980 0.01547055 0.02378857
v -0.00906740 0.01586077 0.02378857
f 1 2 3
f 1 3 8
f 1 8 18
f 1 18 29
f 1 29 20
f 1 20 9
f 1 9 4
f 1 4 10
f 1 10 7
f 1 7 2
f 2 5 6
f 2 6 3
f 2 7 5
f 3 6 8
f 4 9 19
f 4 19 31
f 4 31 36
f 4 36 35
f 4 35 34
f 4 34 33
f 4 33 28
f 4 28 17
f 4 17 10
f 5 11 12
f 5 12 6
f 5 7 13
f 5 13 11
f 6 12 14
f 6 14 15
f 6 15 8
f 7 16 13
f 7 10 17
f 7 17 16
f 8 15 18
f 9 20 32
f 9 32 26
f 9 26 21
f 9 21 22
f 9 22 30
f 9 30 19
f 11 21 14
f 11 14 12
f 11 13 22
f 11 22 21
f 13 16 23
f 13 23 24
f 13 24 25
f 13 25 22
f 14 26 15
f 14 21 26
f 15 26 27
f 15 27 18
f 16 17 28
f 16 28 33
f 16 33 23
f 18 27 29
f 19 30 31
f 20 29 27
f 20 27 32
f 22 25 36
f 22 36 30
f 23 33 34
f 23 34 24
f 24 34 35
f 24 35 36
f 24 36 25
f 26 32 27
f 30 36 31

