# https://github.com/mikedh/trimesh
v -0.04043785 0.02759876 0.02026301
v -0.04043785 0.02882393 0.02026301
v -0.02787536 0.02759684 0.02026301
v -0.04043785 0.02759684 0.02060046
v -0.04043785 0.02882393 0.03049271
v -0.01841901 0.02882393 0.02026301
v -0.01872725 0.02759816 0.02026301
v -0.01872941 0.02759684 0.02060046
v -0.04043785 0.02759684 0.03019932
v -0.04043785 0.02759816 0.03049271
v -0.01842332 0.02882393 0.03049271
v -0.01841686 0.02882393 0.02300068
v -0.01871863 0.02760008 0.02300068
v -0.01872079 0.02759684 0.02300068
v -0.02667473 0.02759684 0.03049271
v -0.01872941 0.02759888 0.03049271
v -0.01871863 0.02760008 0.02380075
v -0.01841686 0.02882393 0.02380075
v -0.01872079 0.02759684 0.02380075
v -0.01873157 0.02759684 0.03019932
f 1 2 6
f 1 6 7
f 1 7 3
f 1 3 4
f 1 4 9
f 1 9 10
f 1 10 5
f 1 5 2
f 2 5 11
f 2 11 18
f 2 18 12
f 2 12 6
f 3 7 8
f 3 8 14
f 3 14 19
f 3 19 20
f 3 20 15
f 3 15 9
f 3 9 4
f 5 10 15
f 5 15 16
f 5 16 11
f 6 12 13
f 6 13 7
f 7 14 8
f 7 13 14
f 9 15 10
f 11 16 17
f 11 17 18
f 12 18 17
f 12 17 13
f 13 17 19
f 13 19 14
f 15 20 16
f 16 20 19
f 16 19 17

