# https://github.com/mikedh/trimesh
v -0.01936862 -0.03479497 0.01784250
v -0.01936862 -0.03479448 0.01165785
v -0.01876879 -0.03479497 0.01784250
v -0.01936862 -0.03479497 0.05043620
v -0.01876879 -0.03479448 0.01165785
v -0.01936862 -0.02975453 0.01165785
v -0.01876873 -0.03041277 0.01165785
v -0.01876879 -0.03479497 0.05043620
v -0.01936862 -0.03080111 0.05043620
v -0.01936862 -0.02975453 0.05036027
v -0.01876873 -0.02975453 0.01165785
v -0.01876873 -0.03041277 0.05040963
v -0.01876879 -0.03080111 0.05043620
v -0.01936862 -0.03000026 0.05042861
v -0.01877995 -0.02975453 0.05033370
v -0.01880009 -0.03000026 0.05040583
v -0.01876873 -0.02975453 0.05032990
v -0.01876873 -0.02999977 0.05039444
f 1 2 5
f 1 5 3
f 1 3 8
f 1 8 4
f 1 4 9
f 1 9 14
f 1 14 10
f 1 10 6
f 1 6 2
f 2 6 11
f 2 11 7
f 2 7 5
f 3 5 7
f 3 7 12
f 3 12 8
f 4 8 13
f 4 13 9
f 6 10 15
f 6 15 17
f 6 17 11
f 7 11 17
f 7 17 18
f 7 18 12
f 8 12 13
f 9 13 14
f 10 14 16
f 10 16 15
f 12 18 13
f 13 18 16
f 13 16 14
f 15 16 17
f 16 18 17

