# https://github.com/mikedh/trimesh
v -0.03574470 -0.01560356 0.00136009
v -0.03171097 -0.01560356 0.00136009
v -0.03574470 -0.01560356 0.00228935
v -0.03574470 0.01956241 0.00136009
v -0.03171097 -0.01560356 0.00228935
v -0.03171097 0.01957274 0.00136009
v -0.03574470 0.01957274 0.00228935
v -0.03574470 0.01957274 0.00136146
v -0.03574351 0.01957274 0.00136009
v -0.03171097 0.01957274 0.00228935
f 1 2 5
f 1 5 3
f 1 3 7
f 1 7 8
f 1 8 4
f 1 4 9
f 1 9 6
f 1 6 2
f 2 6 10
f 2 10 5
f 3 5 10
f 3 10 7
f 4 8 9
f 6 9 8
f 6 8 7
f 6 7 10

