# https://github.com/mikedh/trimesh
v -0.00109774 -0.00300444 -0.00038526
v -0.00109774 -0.00291400 -0.00039023
v -0.00040010 -0.00039954 -0.00032055
v -0.00040010 -0.00159700 -0.00025086
v -0.00040023 -0.00199980 -0.00022100
v -0.00037473 -0.00300444 -0.00009158
v -0.00109774 -0.00300444 0.05039023
v -0.00109774 -0.00279914 -0.00039521
v -0.00109774 -0.00199980 -0.00041014
v -0.00109774 -0.00039954 -0.00042508
v -0.00040010 0.00039980 -0.00032055
v 0.00010570 -0.00039954 -0.00000199
v 0.00007674 -0.00119941 0.00004281
v 0.00006226 -0.00159700 0.00006770
v 0.00004765 -0.00199980 0.00009756
v 0.00002202 -0.00252628 0.00015231
v -0.00004257 -0.00300444 0.00060527
v -0.00056029 -0.00300444 0.05017122
v -0.00040023 -0.00199980 0.05022100
v -0.00040010 -0.00159648 0.05025086
v -0.00040010 -0.00039954 0.05032055
v -0.00109774 -0.00269728 0.05040517
v -0.00109774 0.00109728 -0.00042508
v -0.00109774 0.00230514 -0.00041014
v -0.00070548 0.00230514 -0.00030562
v -0.00040010 0.00199954 -0.00022598
v 0.00010570 0.00039980 -0.00000199
v 0.00021143 -0.00039954 0.00060527
v 0.00015363 -0.00119941 0.00060527
v 0.00012467 -0.00159700 0.00060527
v 0.00009519 -0.00199980 0.00060527
v 0.00003304 -0.00258917 0.00060527
v -0.00003936 -0.00298936 0.00060527
v -0.00004244 -0.00300444 0.00062518
v -0.00037473 -0.00300444 0.05008661
v 0.00004765 -0.00199980 0.04990244
v 0.00006226 -0.00159648 0.04993230
v 0.00007674 -0.00119941 0.04995719
v 0.00010570 -0.00039954 0.04999203
v -0.00040010 0.00039928 0.05032055
v -0.00109774 -0.00109702 0.05042508
v -0.00109774 -0.00189741 0.05041512
v -0.00109774 0.00230514 0.01738940
v -0.00037562 0.00230514 -0.00016625
v -0.00009985 0.00230514 0.00002788
v 0.00004765 0.00199954 0.00009756
v 0.00007674 0.00119967 0.00004281
v 0.00021143 0.00039980 0.00060527
v 0.00015440 -0.00118902 0.01738940
v 0.00021143 -0.00039954 0.04939971
v 0.00012505 -0.00159181 0.01739438
v 0.00009519 -0.00199980 0.04939473
v -0.00003757 -0.00298936 0.00140664
v 0.00003304 -0.00258917 0.04939473
v -0.00004077 -0.00300444 0.00140664
v -0.00004257 -0.00300444 0.04939473
v 0.00002202 -0.00252628 0.04984769
v 0.00010570 0.00039928 0.04999203
v -0.00109774 0.00230462 0.05039521
v -0.00109774 0.00199954 0.05041014
v -0.00109774 0.00039928 0.05042508
v -0.00040010 0.00154269 0.05025584
v 0.00006303 0.00230514 0.01738940
v 0.00003279 0.00230514 0.00012743
v 0.00005278 0.00230514 0.00034146
v 0.00015363 0.00119967 0.00060527
v 0.00021143 0.00039980 0.01738940
v 0.00015440 -0.00118902 0.01739438
v 0.00021143 0.00039928 0.04939971
v 0.00015363 -0.00119941 0.04939971
v 0.00012467 -0.00159700 0.04939473
v 0.00012467 -0.00159648 0.04939971
v -0.00003757 -0.00298936 0.04859833
v -0.00003936 -0.00298936 0.04939473
v -0.00004077 -0.00300444 0.04861824
v 0.00007661 0.00119915 0.04995719
v -0.00040010 0.00199954 0.05022100
v -0.00037575 0.00230462 0.05016625
v 0.00003266 0.00230462 0.04986760
v 0.00006290 0.00230462 0.04939473
v 0.00009519 0.00199954 0.04939473
v 0.00009455 0.00200681 0.01739438
v 0.00006303 0.00230514 0.00060527
v 0.00009532 0.00199954 0.00060527
v 0.00012864 0.00154269 0.01739438
v 0.00015363 0.00119967 0.01738940
v 0.00012864 0.00154269 0.04939473
v 0.00018938 0.00070281 0.04939971
v 0.00004752 0.00199954 0.04990244
v 0.00009532 0.00199954 0.01738940
f 1 2 3
f 1 3 4
f 1 4 5
f 1 5 6
f 1 6 17
f 1 17 34
f 1 34 55
f 1 55 75
f 1 75 56
f 1 56 35
f 1 35 18
f 1 18 7
f 1 7 22
f 1 22 42
f 1 42 41
f 1 41 61
f 1 61 60
f 1 60 59
f 1 59 43
f 1 43 24
f 1 24 23
f 1 23 10
f 1 10 9
f 1 9 8
f 1 8 2
f 2 8 3
f 3 8 9
f 3 9 10
f 3 10 23
f 3 23 11
f 3 11 27
f 3 27 12
f 3 12 4
f 4 12 5
f 5 12 13
f 5 13 14
f 5 14 15
f 5 15 6
f 6 15 16
f 6 16 17
f 7 18 19
f 7 19 20
f 7 20 21
f 7 21 22
f 11 23 24
f 11 24 25
f 11 25 26
f 11 26 27
f 12 27 48
f 12 48 28
f 12 28 13
f 13 28 14
f 14 28 15
f 15 28 16
f 16 28 29
f 16 29 30
f 16 30 31
f 16 31 32
f 16 32 33
f 16 33 17
f 17 33 34
f 18 35 19
f 19 35 36
f 19 36 37
f 19 37 38
f 19 38 20
f 20 38 39
f 20 39 21
f 21 40 61
f 21 61 41
f 21 41 42
f 21 42 22
f 21 39 58
f 21 58 40
f 24 43 63
f 24 63 83
f 24 83 65
f 24 65 64
f 24 64 45
f 24 45 44
f 24 44 25
f 25 44 26
f 26 44 45
f 26 45 46
f 26 46 47
f 26 47 27
f 27 47 48
f 28 49 29
f 28 48 67
f 28 67 69
f 28 69 50
f 28 50 68
f 28 68 49
f 29 49 30
f 30 49 51
f 30 51 31
f 31 51 52
f 31 52 54
f 31 54 32
f 32 53 33
f 32 54 73
f 32 73 53
f 33 53 34
f 34 53 55
f 35 56 57
f 35 57 36
f 36 57 50
f 36 50 37
f 37 50 38
f 38 50 39
f 39 50 69
f 39 69 58
f 40 59 60
f 40 60 61
f 40 58 62
f 40 62 59
f 43 59 63
f 45 64 46
f 46 64 48
f 46 48 47
f 48 64 65
f 48 65 66
f 48 66 86
f 48 86 67
f 49 68 51
f 50 57 70
f 50 70 68
f 51 68 71
f 51 71 52
f 52 71 72
f 52 72 57
f 52 57 54
f 53 73 75
f 53 75 55
f 54 57 74
f 54 74 73
f 56 75 74
f 56 74 57
f 57 72 70
f 58 76 62
f 58 69 76
f 59 62 77
f 59 77 78
f 59 78 63
f 62 76 77
f 63 78 79
f 63 79 80
f 63 80 81
f 63 81 82
f 63 82 90
f 63 90 84
f 63 84 83
f 65 83 84
f 65 84 66
f 66 84 85
f 66 85 87
f 66 87 86
f 67 86 69
f 68 70 71
f 69 87 88
f 69 88 79
f 69 79 89
f 69 89 76
f 69 86 87
f 70 72 71
f 73 74 75
f 76 89 77
f 77 89 78
f 78 89 79
f 79 88 87
f 79 87 81
f 79 81 80
f 81 87 90
f 81 90 82
f 84 90 87
f 84 87 85

