# https://github.com/mikedh/trimesh
v -0.01846615 -0.02236816 0.04779987
v -0.01847302 -0.02236816 0.04816722
v -0.01854093 -0.02359996 0.04859741
v -0.01855924 -0.02396153 0.04859741
v -0.01855695 -0.02396153 0.04815756
v -0.01849057 -0.02280008 0.04779987
v -0.01846615 -0.02236816 0.00220013
v -0.01849209 -0.02236816 0.04859741
v -0.01850659 -0.02280008 0.04859741
v -0.01871338 -0.02396153 0.04900343
v -0.01855695 -0.02396153 0.00220013
v -0.01849057 -0.02280008 0.00220013
v -0.01855924 -0.02396153 0.00140259
v -0.01854093 -0.02359996 0.00140259
v -0.01850659 -0.02280008 0.00140259
v -0.01849209 -0.02236816 0.00140259
v -0.01865539 -0.02236816 0.04889709
v -0.01889041 -0.02396153 0.04939495
v -0.01889041 -0.02396153 0.00060505
v -0.01886141 -0.02280008 0.00075006
v -0.01885912 -0.02236816 0.00079356
v -0.01885912 -0.02236816 0.04920644
v -0.01886141 -0.02280008 0.04924994
v -0.01927727 -0.02396153 0.04955929
v -0.01960005 -0.02396153 0.00031021
v -0.01960005 -0.02236816 0.00062922
v -0.01919944 -0.02236816 0.04930311
v -0.01960005 -0.02396153 0.04968979
v -0.02626074 -0.02396153 0.00046488
v -0.02626074 -0.02236816 0.00046488
v -0.01960005 -0.02236816 0.04937078
v -0.02626074 -0.02236816 0.04953512
v -0.02626074 -0.02396153 0.04953512
f 1 2 3
f 1 3 4
f 1 4 5
f 1 5 6
f 1 6 12
f 1 12 7
f 1 7 16
f 1 16 21
f 1 21 26
f 1 26 30
f 1 30 32
f 1 32 31
f 1 31 27
f 1 27 22
f 1 22 17
f 1 17 8
f 1 8 2
f 2 8 9
f 2 9 3
f 3 9 10
f 3 10 4
f 4 10 18
f 4 18 24
f 4 24 28
f 4 28 33
f 4 33 29
f 4 29 25
f 4 25 19
f 4 19 13
f 4 13 11
f 4 11 5
f 5 11 12
f 5 12 6
f 7 12 13
f 7 13 14
f 7 14 15
f 7 15 16
f 8 17 18
f 8 18 10
f 8 10 9
f 11 13 12
f 13 19 14
f 14 19 15
f 15 19 16
f 16 20 21
f 16 19 20
f 17 22 23
f 17 23 18
f 18 23 22
f 18 22 24
f 19 25 21
f 19 21 20
f 21 25 26
f 22 27 28
f 22 28 24
f 25 29 30
f 25 30 26
f 27 31 28
f 28 31 32
f 28 32 33
f 29 33 32
f 29 32 30

