# https://github.com/mikedh/trimesh
v -0.01479490 0.00015445 0.00736663
v -0.01479490 0.00327040 0.00736663
v -0.01438978 0.00015445 0.00736663
v -0.01479490 0.00015445 0.05043578
v -0.01479490 0.00327040 0.05043578
v -0.01479486 0.01682070 0.03924269
v -0.01479486 0.01681744 0.03851757
v -0.01479482 0.01682070 0.00736663
v -0.01438978 0.00327040 0.00736663
v -0.01438978 0.00015445 0.05043578
v -0.01479486 0.01682070 0.05038941
v -0.01479486 0.01639817 0.05043578
v -0.01438986 0.01682070 0.00736663
v -0.01438982 0.01682070 0.03851757
v -0.01438978 0.00327040 0.05043578
v -0.01438982 0.01639817 0.05043578
v -0.01440346 0.01682070 0.05035146
v -0.01438982 0.01682070 0.05034725
f 1 2 8
f 1 8 13
f 1 13 9
f 1 9 3
f 1 3 10
f 1 10 4
f 1 4 5
f 1 5 2
f 2 5 11
f 2 11 6
f 2 6 7
f 2 7 8
f 3 9 15
f 3 15 10
f 4 10 15
f 4 15 16
f 4 16 12
f 4 12 5
f 5 12 11
f 6 8 7
f 6 11 17
f 6 17 18
f 6 18 14
f 6 14 13
f 6 13 8
f 9 13 14
f 9 14 18
f 9 18 15
f 11 12 16
f 11 16 17
f 15 18 16
f 16 18 17

