# https://github.com/mikedh/trimesh
v 0.03424572 0.00387856 0.05043843
v 0.03424572 0.00387856 0.04238847
v 0.02040148 0.00387856 0.05043843
v 0.03424572 -0.00615516 0.05043843
v 0.03424572 0.00148308 0.04238847
v 0.01876152 0.00387856 0.04238847
v 0.01960272 0.00387856 0.05041242
v 0.01988615 0.00148308 0.05042188
v 0.02024688 -0.00615516 0.05043370
v 0.02040148 -0.00615516 0.05043843
v 0.03424572 -0.00615516 0.04238926
v 0.01876152 0.00148308 0.04238847
v 0.01876152 0.00387856 0.04939898
v 0.01960272 0.00148308 0.05041242
v 0.01919803 0.00387856 0.05020359
v 0.01920258 0.00148308 0.05020595
v 0.01960272 -0.00615516 0.05041163
v 0.01876152 -0.00615516 0.04238926
v 0.01876152 0.00148308 0.04939898
v 0.01893885 -0.00615516 0.04995535
v 0.01898281 0.00387856 0.05009247
v 0.01898281 0.00148308 0.05009247
v 0.01898281 -0.00615516 0.05009168
v 0.01876152 -0.00615516 0.04939820
f 1 2 6
f 1 6 13
f 1 13 21
f 1 21 15
f 1 15 7
f 1 7 3
f 1 3 10
f 1 10 4
f 1 4 11
f 1 11 5
f 1 5 2
f 2 5 12
f 2 12 6
f 3 7 8
f 3 8 9
f 3 9 10
f 4 10 9
f 4 9 17
f 4 17 23
f 4 23 20
f 4 20 24
f 4 24 18
f 4 18 11
f 5 11 18
f 5 18 12
f 6 12 18
f 6 18 24
f 6 24 19
f 6 19 13
f 7 14 8
f 7 15 16
f 7 16 14
f 8 14 9
f 9 14 17
f 13 19 20
f 13 20 21
f 14 16 17
f 15 21 16
f 16 21 22
f 16 22 23
f 16 23 17
f 19 24 20
f 20 23 22
f 20 22 21

