# https://github.com/mikedh/trimesh
v 0.03681251 0.02760408 0.03590286
v 0.04043965 0.02760408 0.03590286
v 0.03569146 0.02760408 0.03590428
v 0.03681251 0.04044000 0.03590286
v 0.04043965 0.03959818 0.03590286
v 0.04043965 0.02760408 0.04939696
v 0.03569146 0.04044000 0.03590428
v 0.03569146 0.02760408 0.05044000
v 0.03959933 0.04044000 0.03590286
v 0.04021935 0.04021887 0.03590286
v 0.04043965 0.03959818 0.04939696
v 0.04022027 0.02760408 0.05008710
v 0.03569146 0.04044000 0.04939838
v 0.03681251 0.02760408 0.05044000
v 0.03569146 0.03879782 0.05044000
v 0.04013940 0.04024776 0.03590286
v 0.03959933 0.04044000 0.04939696
v 0.04021935 0.04021887 0.04939696
v 0.04014591 0.04014599 0.04999318
v 0.04021935 0.03959818 0.05008995
v 0.04021935 0.02840067 0.05008995
v 0.03959933 0.02760408 0.05041154
v 0.03681251 0.04033320 0.04973562
v 0.03681251 0.04044000 0.04939838
v 0.03569146 0.04021887 0.05009279
v 0.03681251 0.03681137 0.05044000
v 0.03879944 0.02760408 0.05043858
v 0.03569146 0.03959818 0.05041296
v 0.03640025 0.03879782 0.05044000
v 0.03959933 0.04021887 0.05008995
v 0.03959933 0.03959818 0.05039731
v 0.03959933 0.03879656 0.05041154
v 0.03681251 0.04021887 0.05009279
v 0.03879944 0.03799997 0.05043858
v 0.03681251 0.03959818 0.05041296
v 0.03879944 0.03879656 0.05043573
v 0.03879944 0.03959818 0.05041012
f 1 2 6
f 1 6 12
f 1 12 22
f 1 22 27
f 1 27 14
f 1 14 8
f 1 8 3
f 1 3 7
f 1 7 4
f 1 4 9
f 1 9 16
f 1 16 10
f 1 10 5
f 1 5 2
f 2 5 11
f 2 11 6
f 3 8 15
f 3 15 28
f 3 28 25
f 3 25 13
f 3 13 7
f 4 7 13
f 4 13 24
f 4 24 17
f 4 17 9
f 5 10 18
f 5 18 11
f 6 11 12
f 8 14 26
f 8 26 29
f 8 29 15
f 9 17 16
f 10 16 18
f 11 18 19
f 11 19 20
f 11 20 12
f 12 20 21
f 12 21 22
f 13 23 24
f 13 25 23
f 14 27 34
f 14 34 26
f 15 29 35
f 15 35 28
f 16 17 18
f 17 24 23
f 17 23 30
f 17 30 19
f 17 19 18
f 19 30 31
f 19 31 20
f 20 31 32
f 20 32 22
f 20 22 21
f 22 32 34
f 22 34 27
f 23 25 33
f 23 33 30
f 25 28 35
f 25 35 33
f 26 34 29
f 29 34 36
f 29 36 37
f 29 37 35
f 30 33 35
f 30 35 37
f 30 37 31
f 31 37 36
f 31 36 32
f 32 36 34

