# https://github.com/mikedh/trimesh
v -0.00307240 -0.00776307 0.03444192
v -0.00307240 0.00139022 0.03444348
v -0.00293074 0.00476766 0.03444192
v -0.00266728 -0.00776307 0.03444192
v -0.00307240 -0.00776307 0.05044000
v -0.00307240 0.00476766 0.03444505
v -0.00266732 0.00476766 0.03444192
v -0.00266728 -0.00197003 0.03444192
v -0.00266728 -0.00776307 0.05038832
v -0.00296425 -0.00776307 0.05044000
v -0.00307240 0.00476766 0.05044000
v -0.00266732 0.00476766 0.05044000
v -0.00266728 -0.00197003 0.05044000
v -0.00266728 -0.00746618 0.05043374
v -0.00280006 -0.00776307 0.05043217
v -0.00280006 -0.00759868 0.05044000
v -0.00266728 -0.00586641 0.05044000
v -0.00266728 -0.00666630 0.05043843
f 1 2 3
f 1 3 7
f 1 7 8
f 1 8 4
f 1 4 9
f 1 9 15
f 1 15 10
f 1 10 5
f 1 5 11
f 1 11 6
f 1 6 2
f 2 6 3
f 3 6 11
f 3 11 12
f 3 12 7
f 4 8 13
f 4 13 17
f 4 17 18
f 4 18 14
f 4 14 9
f 5 10 16
f 5 16 17
f 5 17 13
f 5 13 12
f 5 12 11
f 7 12 13
f 7 13 8
f 9 14 15
f 10 15 16
f 14 18 16
f 14 16 15
f 16 18 17

