# https://github.com/mikedh/trimesh
v 0.00442038 0.04043980 0.04194675
v 0.00222020 0.04043980 0.04194675
v 0.00442038 0.03837846 0.04194675
v 0.00442038 0.04043980 0.00060141
v 0.00222020 0.03837846 0.04194675
v 0.00222020 0.04043980 0.00060141
v 0.00442038 0.03837846 -0.00044000
v 0.00442038 0.04021985 -0.00009148
v 0.00222020 0.04037946 0.00041056
v 0.00222020 0.03837846 -0.00044000
v 0.00442038 0.03880001 -0.00044000
v 0.00442038 0.04020411 -0.00009978
v 0.00222020 0.04021985 -0.00009148
v 0.00222020 0.03880001 -0.00044000
v 0.00222020 0.03938017 -0.00041925
v 0.00442038 0.03959993 -0.00041096
v 0.00222020 0.03959993 -0.00041096
f 1 2 5
f 1 5 3
f 1 3 7
f 1 7 11
f 1 11 16
f 1 16 12
f 1 12 8
f 1 8 4
f 1 4 6
f 1 6 2
f 2 6 9
f 2 9 13
f 2 13 17
f 2 17 15
f 2 15 14
f 2 14 10
f 2 10 5
f 3 5 10
f 3 10 7
f 4 8 9
f 4 9 6
f 7 10 14
f 7 14 11
f 8 12 13
f 8 13 9
f 11 15 16
f 11 14 15
f 12 16 17
f 12 17 13
f 15 17 16

