# https://github.com/mikedh/trimesh
v -0.03725190 0.01999488 0.05044000
v -0.03880039 0.01999488 0.05044000
v -0.03725190 0.01957274 0.05044000
v -0.03725190 0.01999488 0.02621186
v -0.03784015 0.02049354 0.05000129
v -0.04024901 0.02049354 0.05000129
v -0.03920483 0.01999488 0.05042546
v -0.03880039 0.01957274 0.05044000
v -0.03725190 0.01957274 0.02674751
v -0.03725190 0.01957310 0.02621186
v -0.03784015 0.02049354 0.02567863
v -0.04021999 0.01999488 0.05009098
v -0.03959991 0.01999488 0.05041091
v -0.04044000 0.02049354 0.04939777
v -0.04024901 0.01999488 0.05000129
v -0.03959991 0.01957274 0.05041091
v -0.04044000 0.01957274 0.02697535
v -0.04044000 0.01957319 0.02621186
v -0.04044000 0.01999488 0.02567863
v -0.03784015 0.01999488 0.02567863
v -0.04044000 0.02049354 0.02567863
v -0.04021999 0.01957274 0.05009098
v -0.03962082 0.01957274 0.05040122
v -0.04044000 0.01957274 0.04939777
f 1 2 8
f 1 8 3
f 1 3 9
f 1 9 10
f 1 10 4
f 1 4 11
f 1 11 5
f 1 5 6
f 1 6 2
f 2 6 7
f 2 7 8
f 3 8 16
f 3 16 23
f 3 23 22
f 3 22 24
f 3 24 17
f 3 17 9
f 4 10 20
f 4 20 11
f 5 11 21
f 5 21 14
f 5 14 6
f 6 12 13
f 6 13 7
f 6 14 24
f 6 24 15
f 6 15 22
f 6 22 12
f 7 13 16
f 7 16 8
f 9 17 18
f 9 18 10
f 10 18 19
f 10 19 20
f 11 20 19
f 11 19 21
f 12 22 23
f 12 23 13
f 13 23 16
f 14 21 19
f 14 19 18
f 14 18 17
f 14 17 24
f 15 24 22

