# https://github.com/mikedh/trimesh
v -0.01560191 -0.03860616 -0.00044000
v -0.01560263 -0.03799906 -0.00044000
v -0.01498531 -0.03860616 -0.00044000
v -0.01560263 -0.03860616 0.00002316
v -0.01560263 -0.03240005 -0.00044000
v -0.01498531 -0.03240005 -0.00044000
v -0.01498531 -0.03860616 0.05043835
v -0.01560263 -0.03860616 0.05043835
v -0.01560263 -0.03160141 -0.00041510
v -0.01559991 -0.03160141 -0.00041510
v -0.01498531 -0.03160141 -0.00041012
v -0.01498531 -0.03240083 0.05043835
v -0.01560263 -0.03240391 0.05043835
v -0.01560263 -0.03095956 -0.00009636
v -0.01559991 -0.03095956 -0.00009636
v -0.01498531 -0.03145157 -0.00033541
v -0.01559991 -0.03240083 0.05043835
v -0.01498531 -0.03160141 0.05041345
v -0.01559991 -0.03160141 0.05041843
v -0.01560263 -0.03160372 0.05041843
v -0.01560263 -0.03072166 0.00060585
v -0.01498531 -0.03097501 -0.00009138
v -0.01498531 -0.03097578 0.05008973
v -0.01559991 -0.03095956 0.05009471
v -0.01560263 -0.03095956 0.05009471
v -0.01560263 -0.03071626 0.00460500
v -0.01498531 -0.03075101 0.00060585
v -0.01498531 -0.03092094 0.00007297
v -0.01498531 -0.03075101 0.04939748
v -0.01560263 -0.03071626 0.04939748
v -0.01559991 -0.03071626 0.00540683
v -0.01498531 -0.03075024 0.00399243
v -0.01560263 -0.03071548 0.01820112
v -0.01559991 -0.03071626 0.04859565
v -0.01498531 -0.03075024 0.03419772
v -0.01560263 -0.03071548 0.02459577
f 1 2 5
f 1 5 6
f 1 6 3
f 1 3 7
f 1 7 8
f 1 8 4
f 1 4 2
f 2 4 8
f 2 8 13
f 2 13 20
f 2 20 25
f 2 25 30
f 2 30 36
f 2 36 33
f 2 33 26
f 2 26 21
f 2 21 14
f 2 14 9
f 2 9 5
f 3 6 11
f 3 11 16
f 3 16 22
f 3 22 28
f 3 28 27
f 3 27 32
f 3 32 35
f 3 35 29
f 3 29 23
f 3 23 18
f 3 18 12
f 3 12 7
f 5 9 10
f 5 10 6
f 6 10 11
f 7 12 17
f 7 17 13
f 7 13 8
f 9 14 15
f 9 15 10
f 10 15 11
f 11 15 16
f 12 18 19
f 12 19 17
f 13 17 20
f 14 21 15
f 15 22 16
f 15 21 22
f 17 19 20
f 18 23 24
f 18 24 19
f 19 24 25
f 19 25 20
f 21 26 27
f 21 27 28
f 21 28 22
f 23 29 30
f 23 30 24
f 24 30 25
f 26 31 32
f 26 32 27
f 26 33 31
f 29 34 30
f 29 35 34
f 30 34 36
f 31 33 32
f 32 33 36
f 32 36 35
f 34 35 36

