# https://github.com/mikedh/trimesh
v -0.01498531 -0.03860616 0.02458196
v -0.01498531 -0.03074962 0.02458196
v -0.01398299 -0.03860616 0.02458196
v -0.01498531 -0.03860616 0.05044000
v -0.01398299 -0.03076039 0.02458196
v -0.01498531 -0.03074962 0.04859987
v -0.01398299 -0.03860616 0.04998187
v -0.01398692 -0.03860616 0.05044000
v -0.01498531 -0.03240075 0.05044000
v -0.01398299 -0.03076039 0.04939970
v -0.01498531 -0.03075039 0.04939970
v -0.01398299 -0.03799938 0.05044000
v -0.01498531 -0.03160018 0.05041469
v -0.01398299 -0.03240075 0.05044000
v -0.01398299 -0.03098033 0.05009324
v -0.01498531 -0.03097495 0.05009324
v -0.01398299 -0.03160018 0.05041216
f 1 2 5
f 1 5 3
f 1 3 7
f 1 7 8
f 1 8 4
f 1 4 9
f 1 9 13
f 1 13 16
f 1 16 11
f 1 11 6
f 1 6 2
f 2 6 10
f 2 10 5
f 3 5 10
f 3 10 15
f 3 15 17
f 3 17 14
f 3 14 12
f 3 12 7
f 4 8 12
f 4 12 14
f 4 14 9
f 6 11 10
f 7 12 8
f 9 14 13
f 10 11 15
f 11 16 15
f 13 17 16
f 13 14 17
f 15 16 17

