# https://github.com/mikedh/trimesh
v -0.02707977 -0.01190616 0.02268878
v -0.02684091 -0.01190616 0.02268878
v -0.02707977 -0.01190616 0.02311349
v -0.02707977 0.00450021 0.02268878
v -0.01773144 -0.01190616 0.02269003
v -0.01773144 0.00430587 0.02268878
v -0.01773144 -0.01190616 0.02311349
v -0.02707977 0.00450021 0.02311349
v -0.01773144 0.00450021 0.02268878
v -0.01773144 0.00450021 0.02311349
f 1 2 5
f 1 5 7
f 1 7 3
f 1 3 8
f 1 8 4
f 1 4 9
f 1 9 6
f 1 6 2
f 2 6 5
f 3 7 10
f 3 10 8
f 4 8 10
f 4 10 9
f 5 6 9
f 5 9 10
f 5 10 7

