# https://github.com/mikedh/trimesh
v -0.00266720 0.00339698 0.02378857
v -0.00266720 0.00553051 0.02378857
v -0.00163238 0.00339698 0.02378857
v -0.00266720 0.00339698 0.05044000
v -0.00163238 0.00553051 0.02378857
v -0.00266720 0.00981202 0.02379118
v -0.00163238 0.00339698 0.05043217
v -0.00200008 0.00339698 0.05044000
v -0.00266720 0.00520015 0.05044000
v -0.00246623 0.00949610 0.02379118
v -0.00245843 0.00948354 0.02379118
v -0.00185350 0.00839951 0.02379118
v -0.00163238 0.00799943 0.02379118
v -0.00266720 0.00981202 0.04939648
v -0.00163238 0.00360047 0.05043217
v -0.00200008 0.00520015 0.05044000
v -0.00266720 0.00600030 0.05043739
v -0.00246167 0.00948857 0.04939648
v -0.00223822 0.00908912 0.04939648
v -0.00185350 0.00839951 0.04859558
v -0.00163238 0.00799943 0.04859558
v -0.00229211 0.00899240 0.04995998
v -0.00266720 0.00919338 0.05011651
v -0.00200008 0.00600030 0.05043478
v -0.00163238 0.00440062 0.05042435
v -0.00266720 0.00679983 0.05042956
v -0.00185381 0.00839951 0.04939648
v -0.00163238 0.00799880 0.04939648
v -0.00163238 0.00751708 0.05002781
v -0.00212710 0.00839951 0.05007738
v -0.00266720 0.00839951 0.05033565
v -0.00200008 0.00679983 0.05040087
v -0.00163238 0.00520015 0.05038260
v -0.00266720 0.00761003 0.05039304
v -0.00163238 0.00679983 0.05021564
f 1 2 5
f 1 5 3
f 1 3 7
f 1 7 8
f 1 8 4
f 1 4 9
f 1 9 17
f 1 17 26
f 1 26 34
f 1 34 31
f 1 31 23
f 1 23 14
f 1 14 6
f 1 6 2
f 2 6 5
f 3 5 13
f 3 13 21
f 3 21 28
f 3 28 29
f 3 29 35
f 3 35 33
f 3 33 25
f 3 25 15
f 3 15 7
f 4 8 16
f 4 16 9
f 5 6 10
f 5 10 11
f 5 11 12
f 5 12 13
f 6 14 10
f 7 15 16
f 7 16 8
f 9 16 17
f 10 14 18
f 10 18 11
f 11 18 19
f 11 19 12
f 12 19 20
f 12 20 21
f 12 21 13
f 14 22 18
f 14 23 22
f 15 24 16
f 15 25 24
f 16 24 17
f 17 24 26
f 18 22 19
f 19 22 27
f 19 27 20
f 20 27 21
f 21 27 28
f 22 29 28
f 22 28 27
f 22 23 30
f 22 30 29
f 23 31 30
f 24 25 32
f 24 32 26
f 25 33 32
f 26 32 34
f 29 30 35
f 30 31 32
f 30 32 35
f 31 34 32
f 32 33 35

