# https://github.com/mikedh/trimesh
v -0.02696345 -0.02894713 0.02163636
v -0.02919907 -0.02894713 0.02163636
v -0.02696345 -0.02975255 0.02163636
v -0.02696345 -0.02894713 0.00435167
v -0.02919907 -0.02975279 0.02163636
v -0.02919907 -0.02894713 0.00435167
v -0.02696345 -0.02975389 0.02150607
v -0.02696345 -0.02975389 0.00435167
v -0.02919907 -0.02975302 0.02161268
v -0.02919907 -0.02975389 0.00435167
v -0.02919907 -0.02975381 0.02153145
v -0.02919907 -0.02975389 0.02152299
f 1 2 5
f 1 5 3
f 1 3 7
f 1 7 8
f 1 8 4
f 1 4 6
f 1 6 2
f 2 6 10
f 2 10 12
f 2 12 11
f 2 11 9
f 2 9 5
f 3 5 7
f 4 8 10
f 4 10 6
f 5 9 7
f 7 9 11
f 7 11 12
f 7 12 10
f 7 10 8

