# https://github.com/mikedh/trimesh
v 0.01769484 -0.04043982 0.00060091
v 0.01769484 -0.04035604 0.00033695
v 0.01873904 -0.04043982 0.00060091
v 0.01769484 -0.04043982 0.04939909
v 0.01769484 -0.04021985 -0.00009137
v 0.01873904 -0.04021985 -0.00009137
v 0.01873904 -0.04043982 0.04939909
v 0.01769484 -0.04030380 0.04982741
v 0.01769484 -0.03959986 -0.00041012
v 0.01873904 -0.04017264 -0.00011627
v 0.01873904 -0.04021985 0.05009137
v 0.01769484 -0.04021985 0.05009137
v 0.01769484 -0.03880003 -0.00044000
v 0.01873904 -0.03953886 -0.00041510
v 0.01873904 -0.03959986 -0.00041012
v 0.01873904 -0.03959986 0.05041012
v 0.01769484 -0.03983644 0.05029059
v 0.01873904 -0.03880003 -0.00044000
v 0.01769484 -0.03853416 -0.00044000
v 0.01769484 -0.03959986 0.05041012
v 0.01873904 -0.03880003 0.05044000
v 0.01873904 -0.03853416 -0.00044000
v 0.01769484 -0.03853416 0.05044000
v 0.01769484 -0.03880003 0.05044000
v 0.01873904 -0.03853416 0.05044000
f 1 2 3
f 1 3 7
f 1 7 4
f 1 4 8
f 1 8 12
f 1 12 17
f 1 17 20
f 1 20 24
f 1 24 23
f 1 23 19
f 1 19 13
f 1 13 9
f 1 9 5
f 1 5 2
f 2 5 6
f 2 6 3
f 3 6 10
f 3 10 15
f 3 15 14
f 3 14 18
f 3 18 22
f 3 22 25
f 3 25 21
f 3 21 16
f 3 16 11
f 3 11 7
f 4 7 8
f 5 9 10
f 5 10 6
f 7 11 8
f 8 11 12
f 9 13 14
f 9 14 15
f 9 15 10
f 11 16 17
f 11 17 12
f 13 18 14
f 13 19 22
f 13 22 18
f 16 20 17
f 16 21 24
f 16 24 20
f 19 23 25
f 19 25 22
f 21 25 23
f 21 23 24

