# https://github.com/mikedh/trimesh
v -0.00814946 -0.00886194 0.02378857
v -0.00814946 -0.00531314 0.02378857
v -0.00678804 -0.00886194 0.02378857
v -0.00814946 -0.00886194 0.05044000
v -0.00682513 -0.00531314 0.02378857
v -0.00814946 -0.00531314 0.05044000
v -0.00674614 -0.00886194 0.02379118
v -0.00674614 -0.00886194 0.05044000
v -0.00674614 -0.00531314 0.02379379
v -0.00674614 -0.00531314 0.05044000
f 1 2 5
f 1 5 3
f 1 3 7
f 1 7 8
f 1 8 4
f 1 4 6
f 1 6 2
f 2 6 10
f 2 10 9
f 2 9 5
f 3 5 7
f 4 8 10
f 4 10 6
f 5 9 7
f 7 9 10
f 7 10 8

