# https://github.com/mikedh/trimesh
v -0.01386148 0.01639664 0.05043813
v -0.01318045 0.01559642 0.05043813
v -0.01318045 0.01639664 0.05043626
v -0.01386148 0.01720613 0.05024008
v -0.01386148 -0.00597000 0.05043813
v -0.01318045 -0.00519761 0.05043813
v -0.01318045 0.01723861 0.05009061
v -0.01386148 0.01766075 0.04992805
v -0.01318058 -0.00597000 0.05043813
v -0.01386148 -0.00597000 0.03587382
v -0.01318045 -0.00597000 0.04969263
v -0.01318045 0.01755869 0.04939929
v -0.01350260 0.01762364 0.04986079
v -0.01386148 0.01772570 0.04939929
v -0.01386142 -0.00597000 0.03135225
v -0.01386148 0.01772570 0.03587382
v -0.01318045 -0.00597000 0.03135225
v -0.01319152 0.01756333 0.04376788
v -0.01323965 0.01757725 0.04842585
v -0.01345386 0.01763756 0.04939929
v -0.01318045 0.01755869 0.03135225
v -0.01380161 0.01771410 0.04842585
v -0.01386142 0.01772570 0.03587382
v -0.01386142 0.01772570 0.03135225
v -0.01322365 0.01757261 0.03887450
v -0.01342866 0.01763060 0.03587382
v -0.01345386 0.01763756 0.03587382
v -0.01345393 0.01763756 0.03135225
v -0.01338806 0.01761900 0.03193333
f 1 2 3
f 1 3 4
f 1 4 8
f 1 8 14
f 1 14 16
f 1 16 10
f 1 10 5
f 1 5 9
f 1 9 6
f 1 6 2
f 2 6 11
f 2 11 17
f 2 17 21
f 2 21 12
f 2 12 7
f 2 7 3
f 3 7 4
f 4 7 8
f 5 10 15
f 5 15 17
f 5 17 11
f 5 11 9
f 6 9 11
f 7 12 13
f 7 13 8
f 8 13 14
f 10 16 24
f 10 24 15
f 12 18 19
f 12 19 20
f 12 20 13
f 12 21 18
f 13 20 14
f 14 20 22
f 14 22 23
f 14 23 24
f 14 24 16
f 15 24 28
f 15 28 21
f 15 21 17
f 18 25 19
f 18 21 25
f 19 25 26
f 19 26 20
f 20 26 27
f 20 27 22
f 21 28 29
f 21 29 25
f 22 24 23
f 22 27 28
f 22 28 24
f 25 29 26
f 26 29 28
f 26 28 27

