# https://github.com/mikedh/trimesh
v -0.03552490 -0.03967714 0.05037352
v -0.03889952 -0.03967714 0.05037352
v -0.03552490 -0.04016901 0.05011959
v -0.03552490 -0.03967714 0.01165406
v -0.03959708 -0.03967714 0.05035836
v -0.03959708 -0.04021994 0.05009305
v -0.03552490 -0.04021994 0.05009305
v -0.03552490 -0.04044000 0.01165406
v -0.03959708 -0.03967714 0.01165406
v -0.03959708 -0.04044000 0.04939947
v -0.03552490 -0.04044000 0.04939947
v -0.03894576 -0.04044000 0.01165406
v -0.03959708 -0.04040587 0.01165406
v -0.03959708 -0.04044000 0.01165785
f 1 2 3
f 1 3 7
f 1 7 11
f 1 11 8
f 1 8 4
f 1 4 9
f 1 9 5
f 1 5 2
f 2 5 6
f 2 6 3
f 3 6 7
f 4 8 12
f 4 12 13
f 4 13 9
f 5 9 13
f 5 13 14
f 5 14 10
f 5 10 6
f 6 10 11
f 6 11 7
f 8 11 10
f 8 10 14
f 8 14 12
f 12 14 13

