# https://github.com/mikedh/trimesh
v -0.01479490 -0.01790999 0.00060589
v -0.01350269 -0.01762599 0.00014271
v -0.01399985 -0.01775689 0.00060589
v -0.01479490 -0.01790999 0.04939411
v -0.01479490 -0.01775455 -0.00003659
v -0.01399985 -0.01767858 0.00005306
v -0.01318047 -0.01756171 0.00060589
v -0.01345386 -0.01764001 0.00060589
v -0.01318063 -0.01723913 -0.00009137
v -0.01399985 -0.01775689 0.04939411
v -0.01350269 -0.01762599 0.04985729
v -0.01399985 -0.01767858 0.04994694
v -0.01479490 -0.01775455 0.05004157
v -0.01479490 -0.01727536 -0.00032047
v -0.01399985 -0.01727536 -0.00022086
v -0.01318047 -0.01731744 0.00008294
v -0.01318047 -0.01756171 0.04939411
v -0.01345386 -0.01764001 0.04939411
v -0.01318047 -0.01727536 -0.00000670
v -0.01391041 -0.01720640 -0.00024577
v -0.01318063 -0.01639763 -0.00043004
v -0.01318047 -0.01755469 0.04952858
v -0.01318063 -0.01723796 0.05007643
v -0.01324052 -0.01727536 0.05007145
v -0.01399985 -0.01727536 0.05021588
v -0.01410858 -0.01727536 0.05023581
v -0.01479490 -0.01727536 0.05032047
v -0.01479490 -0.01720173 -0.00035533
v -0.01399985 -0.01719939 -0.00026569
v -0.01318063 -0.01559703 -0.00044000
v -0.01318063 -0.00597000 -0.00044000
v -0.01318047 -0.01727536 0.05000670
v -0.01399985 -0.01639763 -0.00043502
v -0.01318063 -0.01720407 0.05009635
v -0.01399985 -0.01719939 0.05026569
v -0.01479490 -0.01719939 0.05035533
v -0.01479490 -0.01639763 -0.00043502
v -0.01391041 -0.01559703 -0.00044000
v -0.01323025 -0.00597000 -0.00044000
v -0.01318063 -0.00597000 0.00281221
v -0.01318063 -0.00597234 0.04968298
v -0.01318063 -0.00598285 0.05043502
v -0.01318063 -0.00851321 0.05044000
v -0.01318063 -0.01096876 0.05044000
v -0.01318063 -0.01639529 0.05043004
v -0.01391041 -0.01710706 0.05028561
v -0.01399985 -0.01639763 0.05043502
v -0.01479490 -0.01639763 0.05043502
v -0.01479490 -0.00597000 -0.00043502
v -0.01391041 -0.00597584 -0.00044000
v -0.01391057 -0.00597000 0.05043502
v -0.01318079 -0.00597234 0.05043502
v -0.01391041 -0.00851321 0.05044000
v -0.01391041 -0.01096876 0.05044000
v -0.01391057 -0.01630646 0.05043502
v -0.01479490 -0.00597000 0.05043502
f 1 2 3
f 1 3 10
f 1 10 4
f 1 4 13
f 1 13 27
f 1 27 36
f 1 36 48
f 1 48 56
f 1 56 49
f 1 49 37
f 1 37 28
f 1 28 14
f 1 14 5
f 1 5 6
f 1 6 2
f 2 7 8
f 2 8 3
f 2 6 9
f 2 9 7
f 3 8 18
f 3 18 10
f 4 10 11
f 4 11 12
f 4 12 13
f 5 14 15
f 5 15 6
f 6 15 9
f 7 9 16
f 7 16 19
f 7 19 32
f 7 32 22
f 7 22 17
f 7 17 18
f 7 18 8
f 9 19 16
f 9 15 20
f 9 20 21
f 9 21 19
f 10 18 11
f 11 22 23
f 11 23 24
f 11 24 12
f 11 18 22
f 12 24 25
f 12 25 26
f 12 26 13
f 13 26 27
f 14 28 29
f 14 29 15
f 15 29 20
f 17 22 18
f 19 21 30
f 19 30 31
f 19 31 40
f 19 40 32
f 20 29 21
f 21 29 28
f 21 28 33
f 21 33 30
f 22 32 23
f 23 34 24
f 23 32 34
f 24 34 35
f 24 35 25
f 25 35 26
f 26 35 27
f 27 35 36
f 28 37 33
f 30 38 50
f 30 50 39
f 30 39 31
f 30 33 37
f 30 37 38
f 31 39 49
f 31 49 56
f 31 56 51
f 31 51 40
f 32 41 42
f 32 42 43
f 32 43 44
f 32 44 45
f 32 45 34
f 32 40 41
f 34 45 46
f 34 46 35
f 35 46 36
f 36 46 45
f 36 45 47
f 36 47 48
f 37 49 50
f 37 50 38
f 39 50 49
f 40 51 52
f 40 52 41
f 41 52 42
f 42 52 43
f 43 53 54
f 43 54 44
f 43 52 51
f 43 51 56
f 43 56 53
f 44 54 48
f 44 48 47
f 44 47 55
f 44 55 45
f 45 55 47
f 48 54 53
f 48 53 56

