# https://github.com/mikedh/trimesh
v 0.02171572 -0.02675836 0.01638211
v 0.02171572 -0.02596255 0.01638211
v 0.04001110 -0.02675836 0.01638211
v 0.01875976 -0.02675836 0.01638331
v 0.04001110 -0.02596255 0.01638211
v 0.01876184 -0.02596255 0.01638331
v 0.04001110 -0.02675836 0.02863429
v 0.01875976 -0.02675836 0.02863309
v 0.04001110 -0.02596255 0.02859951
v 0.01876184 -0.02596255 0.02859951
v 0.01877848 -0.02675836 0.02863429
v 0.04001110 -0.02596419 0.02863429
v 0.01876184 -0.02600010 0.02863429
v 0.01876184 -0.02596582 0.02863429
v 0.02059241 -0.02596255 0.02863429
f 1 2 5
f 1 5 3
f 1 3 7
f 1 7 11
f 1 11 8
f 1 8 4
f 1 4 2
f 2 4 6
f 2 6 10
f 2 10 15
f 2 15 9
f 2 9 5
f 3 5 9
f 3 9 12
f 3 12 7
f 4 8 10
f 4 10 6
f 7 12 15
f 7 15 14
f 7 14 13
f 7 13 11
f 8 11 13
f 8 13 14
f 8 14 10
f 9 15 12
f 10 14 15

