# https://github.com/mikedh/trimesh
v 0.02253923 0.02702533 -0.00043644
v 0.02453884 0.02702533 -0.00043644
v 0.02253923 0.02702533 0.03589824
v 0.02253904 0.02932628 -0.00043644
v 0.02253904 0.03080116 -0.00044000
v 0.02280039 0.03080116 -0.00044000
v 0.02439965 0.03160191 -0.00044000
v 0.02453903 0.03240146 -0.00044000
v 0.02453903 0.02932628 -0.00043644
v 0.02453884 0.02702533 0.03589824
v 0.02253904 0.02932628 0.03590179
v 0.02253904 0.03879903 -0.00044000
v 0.02453903 0.03879903 -0.00044000
v 0.02453903 0.02932628 0.03590179
v 0.02253904 0.03934412 0.03590179
v 0.02253904 0.03934412 -0.00041510
v 0.02453903 0.03934412 -0.00041510
v 0.02453903 0.03934412 0.03590179
f 1 2 10
f 1 10 3
f 1 3 11
f 1 11 4
f 1 4 5
f 1 5 6
f 1 6 2
f 2 6 7
f 2 7 8
f 2 8 9
f 2 9 14
f 2 14 10
f 3 10 14
f 3 14 11
f 4 11 15
f 4 15 16
f 4 16 12
f 4 12 5
f 5 12 13
f 5 13 8
f 5 8 7
f 5 7 6
f 8 13 17
f 8 17 18
f 8 18 14
f 8 14 9
f 11 14 18
f 11 18 15
f 12 16 17
f 12 17 13
f 15 18 17
f 15 17 16

