# https://github.com/mikedh/trimesh
v -0.00903205 0.01094651 0.02378857
v -0.00903205 0.01094651 -0.00044000
v -0.00954529 0.01094651 0.02378857
v -0.00903205 -0.01424232 0.02378857
v -0.00903205 -0.01399576 -0.00044000
v -0.00954529 0.01094651 -0.00044000
v -0.00954529 -0.01424232 0.02378857
v -0.00903205 -0.01424232 0.01393208
v -0.00903205 -0.01423985 -0.00040205
v -0.00920005 -0.01423985 -0.00043526
v -0.00954529 -0.01399576 -0.00044000
v -0.00954529 -0.01424232 0.01393208
v -0.00954529 -0.01423985 -0.00043526
f 1 2 6
f 1 6 3
f 1 3 7
f 1 7 4
f 1 4 8
f 1 8 9
f 1 9 5
f 1 5 2
f 2 5 11
f 2 11 6
f 3 6 11
f 3 11 13
f 3 13 12
f 3 12 7
f 4 7 12
f 4 12 8
f 5 9 10
f 5 10 13
f 5 13 11
f 8 10 9
f 8 12 13
f 8 13 10

