# https://github.com/mikedh/trimesh
v -0.01871557 -0.02760229 0.03179260
v -0.01876058 -0.02679927 0.04939736
v -0.01871675 -0.02760229 0.04859058
v -0.01871557 -0.02760229 0.00140385
v -0.01898091 -0.02679927 0.05008960
v -0.01871912 -0.02759994 0.04939736
v -0.01876058 -0.02679927 0.00060205
v -0.01871912 -0.02760229 0.04939736
v -0.01871675 -0.02760229 0.00060205
v -0.01871675 -0.02759994 0.00060205
v -0.01960164 -0.02679927 0.05040833
v -0.01895959 -0.02759994 0.05009458
v -0.01898091 -0.02679927 -0.00009019
v -0.01895959 -0.02760229 0.05009458
v -0.01895841 -0.02760229 -0.00009517
v -0.01895841 -0.02759994 -0.00009517
v -0.01960164 -0.02759994 0.05041331
v -0.02040241 -0.02679927 0.05043821
v -0.01960045 -0.02680014 -0.00040892
v -0.01960164 -0.02679927 -0.00040892
v -0.01960164 -0.02760229 0.05041331
v -0.01960045 -0.02760229 -0.00041390
v -0.01960045 -0.02759994 -0.00041390
v -0.03079831 -0.02679927 0.05043821
v -0.02040241 -0.02760229 0.05043821
v -0.02040004 -0.02680014 -0.00043880
v -0.02040123 -0.02679927 -0.00043880
v -0.02040004 -0.02760229 -0.00043880
v -0.03081727 -0.02679927 0.05041829
v -0.03081727 -0.02680022 0.05043821
v -0.03079831 -0.02760229 0.05043821
v -0.03080068 -0.02679927 -0.00043880
v -0.03079950 -0.02760229 -0.00043880
v -0.03081727 -0.02679927 0.01419780
v -0.03081727 -0.02760001 0.05043821
v -0.03081727 -0.02760229 0.05041829
v -0.03081608 -0.02680014 -0.00043880
v -0.03081608 -0.02679927 -0.00041888
v -0.03081608 -0.02760214 -0.00043880
v -0.03081608 -0.02760229 -0.00041888
v -0.03081727 -0.02760229 0.01419780
f 1 2 3
f 1 3 8
f 1 8 14
f 1 14 21
f 1 21 25
f 1 25 31
f 1 31 36
f 1 36 41
f 1 41 40
f 1 40 33
f 1 33 28
f 1 28 22
f 1 22 15
f 1 15 9
f 1 9 4
f 1 4 7
f 1 7 2
f 2 5 6
f 2 6 3
f 2 7 13
f 2 13 20
f 2 20 27
f 2 27 32
f 2 32 38
f 2 38 34
f 2 34 29
f 2 29 24
f 2 24 18
f 2 18 11
f 2 11 5
f 3 6 8
f 4 9 10
f 4 10 7
f 5 11 12
f 5 12 6
f 6 12 14
f 6 14 8
f 7 10 13
f 9 15 16
f 9 16 10
f 10 16 13
f 11 17 12
f 11 18 17
f 12 17 21
f 12 21 14
f 13 16 19
f 13 19 20
f 15 22 23
f 15 23 16
f 16 23 19
f 17 18 25
f 17 25 21
f 18 24 30
f 18 30 35
f 18 35 31
f 18 31 25
f 19 23 26
f 19 26 27
f 19 27 20
f 22 28 26
f 22 26 23
f 24 29 30
f 26 28 33
f 26 33 39
f 26 39 37
f 26 37 32
f 26 32 27
f 29 34 41
f 29 41 36
f 29 36 35
f 29 35 30
f 31 35 36
f 32 37 38
f 33 40 39
f 34 38 37
f 34 37 39
f 34 39 41
f 39 40 41

