# https://github.com/mikedh/trimesh
v -0.04044000 -0.02975374 0.02163637
v -0.04044000 -0.02894713 0.02163637
v -0.03954495 -0.02975374 0.02163637
v -0.04044000 -0.02975381 0.02456071
v -0.04044000 -0.02894713 0.03495561
v -0.01834144 -0.02894713 0.02163637
v -0.01856576 -0.02975381 0.02456071
v -0.01775289 -0.02975152 0.02163637
v -0.01775067 -0.02975374 0.02219698
v -0.04044000 -0.02975381 0.03495561
v -0.01833922 -0.02894713 0.03495561
v -0.01833922 -0.02894713 0.02396097
v -0.01775067 -0.02975381 0.02459591
v -0.01775067 -0.02975374 0.03099999
v -0.01936086 -0.02975381 0.03495561
v -0.01775289 -0.02975152 0.03495561
v -0.01775067 -0.02975381 0.03419942
f 1 2 6
f 1 6 8
f 1 8 3
f 1 3 7
f 1 7 4
f 1 4 10
f 1 10 5
f 1 5 2
f 2 5 11
f 2 11 12
f 2 12 6
f 3 8 9
f 3 9 7
f 4 7 13
f 4 13 17
f 4 17 15
f 4 15 10
f 5 10 15
f 5 15 16
f 5 16 11
f 6 12 9
f 6 9 8
f 7 9 13
f 9 14 17
f 9 17 13
f 9 12 11
f 9 11 14
f 11 16 17
f 11 17 14
f 15 17 16

