# https://github.com/mikedh/trimesh
v -0.02513599 -0.01998843 0.01178135
v -0.01946548 -0.01998843 0.01178135
v -0.02513599 -0.01998843 0.01272558
v -0.02513599 0.00450182 0.01178135
v -0.01840792 -0.01998843 0.01180019
v -0.01840792 -0.01998363 0.01178135
v -0.02513599 -0.01998363 0.01278335
v -0.02164728 -0.01998843 0.01266046
v -0.01840792 -0.01998363 0.01278335
v -0.02513599 0.00450182 0.01278335
v -0.01773091 0.00450182 0.01178135
v -0.01840792 -0.01998843 0.01259984
v -0.01773091 -0.01905830 0.01178135
v -0.01773091 -0.01905830 0.01278335
v -0.01773091 0.00450182 0.01278335
f 1 2 5
f 1 5 12
f 1 12 8
f 1 8 3
f 1 3 7
f 1 7 10
f 1 10 4
f 1 4 11
f 1 11 13
f 1 13 6
f 1 6 2
f 2 6 5
f 3 8 9
f 3 9 7
f 4 10 15
f 4 15 11
f 5 6 13
f 5 13 14
f 5 14 12
f 7 9 14
f 7 14 15
f 7 15 10
f 8 12 9
f 9 12 14
f 11 15 14
f 11 14 13

