# https://github.com/mikedh/trimesh
v -0.00814946 -0.00531314 0.02378857
v -0.00682513 -0.00531314 0.02378857
v -0.00814946 -0.00531314 0.02486420
v -0.00814946 0.00604303 0.02378857
v -0.00674614 -0.00531314 0.02379184
v -0.00694410 0.00604303 0.02378857
v -0.00674614 0.00604303 0.02378920
v -0.00674614 -0.00531314 0.02486420
v -0.00814946 0.00604303 0.02486420
v -0.00674614 0.00604303 0.02486420
f 1 2 5
f 1 5 8
f 1 8 3
f 1 3 9
f 1 9 4
f 1 4 6
f 1 6 2
f 2 6 7
f 2 7 5
f 3 8 10
f 3 10 9
f 4 9 10
f 4 10 7
f 4 7 6
f 5 7 10
f 5 10 8

