# https://github.com/mikedh/trimesh
v -0.02087877 -0.02216829 0.00140276
v -0.02087877 -0.02215525 0.00068060
v -0.01880081 -0.02022948 0.00060091
v -0.01880081 -0.02023818 0.00140276
v -0.02087877 -0.02216829 0.04859724
v -0.02087877 -0.02215090 0.00060091
v -0.01880081 -0.02011211 0.00002816
v -0.01880081 -0.02023818 0.04859724
v -0.01880081 -0.02023383 0.04939411
v -0.02087877 -0.02215090 0.04939909
v -0.02087877 -0.02181617 0.00001322
v -0.01880081 -0.01959915 -0.00029059
v -0.01880081 -0.02011211 0.04996686
v -0.02087877 -0.02213351 0.04946384
v -0.02087877 -0.02117715 -0.00022584
v -0.01960018 -0.01959915 -0.00041012
v -0.01880081 -0.01879928 -0.00044000
v -0.02087877 -0.02181617 0.04998678
v -0.01880081 -0.01959915 0.05029059
v -0.02087877 -0.02166402 0.05008639
v -0.02087877 -0.02039902 -0.00039517
v -0.02039996 -0.01959915 -0.00044000
v -0.01880081 0.01879882 -0.00044000
v -0.01880081 -0.01879928 0.05043502
v -0.01960018 -0.01959915 0.05041012
v -0.02087877 -0.02087720 0.05035035
v -0.02087877 -0.01959915 -0.00044000
v -0.02087877 0.02007686 -0.00044000
v -0.01960018 0.01959868 -0.00042008
v -0.01880081 0.01959868 -0.00033541
v -0.02087877 -0.02007733 0.05044000
v -0.01880081 -0.01799942 0.05044000
v -0.01960018 -0.01879928 0.05044000
v -0.02039996 -0.01959915 0.05044000
v -0.02087877 0.02087673 -0.00037027
v -0.02087877 0.02168529 -0.00010631
v -0.01880081 0.02015076 -0.00001666
v -0.02087877 0.01959868 0.05044000
v -0.01880081 0.01879882 0.05044000
v -0.02087877 0.02184613 -0.00000670
v -0.02087877 0.02221999 0.00058597
v -0.02087877 0.02222433 0.00060091
v -0.01880081 0.02030726 0.00060091
v -0.02087877 0.02039855 0.05040514
v -0.02039996 0.01959868 0.05044000
v -0.01880081 0.01959868 0.05033541
v -0.01960018 0.01959868 0.05042008
v -0.02087877 0.02224172 0.00140276
v -0.01880081 0.02031161 0.00140276
v -0.02039996 0.02039855 0.05035533
v -0.02087877 0.02118103 0.05024576
v -0.01880081 0.02015076 0.05001666
v -0.02087877 0.02184613 0.05000670
v -0.02087877 0.02224172 0.04859724
v -0.01880081 0.02031161 0.04859724
v -0.01880081 0.02030726 0.04939909
v -0.02087877 0.02222433 0.04939909
f 1 2 3
f 1 3 4
f 1 4 8
f 1 8 5
f 1 5 10
f 1 10 14
f 1 14 18
f 1 18 20
f 1 20 26
f 1 26 31
f 1 31 38
f 1 38 44
f 1 44 51
f 1 51 53
f 1 53 57
f 1 57 54
f 1 54 48
f 1 48 42
f 1 42 41
f 1 41 40
f 1 40 36
f 1 36 35
f 1 35 28
f 1 28 27
f 1 27 21
f 1 21 15
f 1 15 11
f 1 11 6
f 1 6 2
f 2 6 3
f 3 6 7
f 3 7 12
f 3 12 17
f 3 17 23
f 3 23 30
f 3 30 37
f 3 37 43
f 3 43 49
f 3 49 55
f 3 55 56
f 3 56 52
f 3 52 46
f 3 46 39
f 3 39 32
f 3 32 24
f 3 24 19
f 3 19 13
f 3 13 9
f 3 9 8
f 3 8 4
f 5 8 9
f 5 9 10
f 6 11 7
f 7 11 12
f 9 13 10
f 10 13 14
f 11 15 12
f 12 15 16
f 12 16 17
f 13 18 14
f 13 19 20
f 13 20 18
f 15 21 16
f 16 21 22
f 16 22 17
f 17 22 27
f 17 27 28
f 17 28 23
f 19 24 25
f 19 25 26
f 19 26 20
f 21 27 22
f 23 28 29
f 23 29 30
f 24 31 25
f 24 32 33
f 24 33 34
f 24 34 31
f 25 31 26
f 28 35 29
f 29 35 30
f 30 35 36
f 30 36 37
f 31 34 33
f 31 33 32
f 31 32 39
f 31 39 45
f 31 45 38
f 36 40 37
f 37 40 41
f 37 41 42
f 37 42 43
f 38 45 44
f 39 46 47
f 39 47 45
f 42 48 43
f 43 48 49
f 44 47 50
f 44 50 51
f 44 45 47
f 46 52 53
f 46 53 51
f 46 51 50
f 46 50 47
f 48 54 55
f 48 55 49
f 52 56 57
f 52 57 53
f 54 57 56
f 54 56 55

