# https://github.com/mikedh/trimesh
v -0.04044000 0.02971680 0.04815795
v -0.04043773 0.02882406 0.04830091
v -0.04044000 0.02971680 0.04939994
v -0.04044000 0.03012107 0.04815795
v -0.01778013 0.02971680 0.04815795
v -0.04043773 0.02882406 0.04939972
v -0.01886209 0.02882406 0.04830091
v -0.04032205 0.02882406 0.04976718
v -0.04021771 0.02882406 0.05009309
v -0.04044000 0.03012107 0.04939994
v -0.01726751 0.03012107 0.04815795
v -0.01841751 0.02882546 0.04830091
v -0.01841751 0.02882406 0.04860024
v -0.03959848 0.02882406 0.05041319
v -0.03981850 0.02971680 0.05029972
v -0.04021771 0.03012107 0.05009309
v -0.01726751 0.03012107 0.04860002
v -0.01841751 0.02882406 0.04860694
v -0.03879778 0.02882406 0.05044000
v -0.03959848 0.03012107 0.05041319
v -0.01729019 0.03012107 0.04939994
v -0.01842432 0.02882406 0.04939972
v -0.01997807 0.02882406 0.05044000
v -0.03879778 0.02971680 0.05044000
v -0.03879552 0.03012107 0.05044000
v -0.01746711 0.03012107 0.04982414
v -0.01843339 0.02882406 0.04941937
v -0.01960381 0.02882406 0.05043643
v -0.01960381 0.02920002 0.05044000
v -0.01947906 0.03012107 0.05044000
v -0.01767126 0.03012107 0.05005378
v -0.01879631 0.02882406 0.05014000
v -0.01910026 0.02882406 0.05027604
v -0.01868063 0.03012107 0.05041051
v -0.01783911 0.03012107 0.05014089
f 1 2 6
f 1 6 3
f 1 3 10
f 1 10 4
f 1 4 11
f 1 11 5
f 1 5 7
f 1 7 2
f 2 7 13
f 2 13 18
f 2 18 22
f 2 22 27
f 2 27 32
f 2 32 33
f 2 33 28
f 2 28 23
f 2 23 19
f 2 19 14
f 2 14 9
f 2 9 8
f 2 8 6
f 3 6 8
f 3 8 9
f 3 9 16
f 3 16 10
f 4 10 16
f 4 16 20
f 4 20 25
f 4 25 30
f 4 30 34
f 4 34 35
f 4 35 31
f 4 31 26
f 4 26 21
f 4 21 17
f 4 17 11
f 5 11 12
f 5 12 7
f 7 12 13
f 9 14 15
f 9 15 16
f 11 17 18
f 11 18 13
f 11 13 12
f 14 19 24
f 14 24 20
f 14 20 15
f 15 20 16
f 17 21 22
f 17 22 18
f 19 23 29
f 19 29 30
f 19 30 25
f 19 25 24
f 20 24 25
f 21 26 22
f 22 26 27
f 23 28 29
f 26 31 32
f 26 32 27
f 28 33 34
f 28 34 29
f 29 34 30
f 31 35 32
f 32 35 33
f 33 35 34

