# https://github.com/mikedh/trimesh
v -0.00599996 0.01159688 0.05043907
v -0.00614600 0.01239786 0.05042140
v -0.00614600 0.01159688 0.05043907
v -0.00520002 0.01079787 0.05043907
v -0.00520002 0.01159688 0.05042004
v -0.00599996 0.01239786 0.05041596
v -0.00599560 0.01256120 0.05036430
v -0.00614600 0.01256120 0.05036838
v -0.00614600 -0.00754394 0.05043907
v -0.00515531 0.00999886 0.05043907
v -0.00515531 0.01079787 0.05043635
v -0.00515531 0.01159688 0.05040373
v -0.00517345 0.01242344 0.05015087
v -0.00523425 0.01256120 0.05011009
v -0.00614600 0.01256120 0.03655262
v -0.00614600 -0.00754394 0.03655262
v -0.00515618 -0.00754394 0.05043907
v -0.00515531 -0.00681775 0.05043907
v -0.00515531 0.01241754 0.05014544
v -0.00515531 0.01256120 0.04991298
v -0.00515531 0.01256120 0.03655262
v -0.00515531 -0.00754394 0.03655262
v -0.00515531 -0.00754394 0.04974033
f 1 2 3
f 1 3 9
f 1 9 17
f 1 17 18
f 1 18 10
f 1 10 4
f 1 4 5
f 1 5 2
f 2 5 6
f 2 6 7
f 2 7 8
f 2 8 15
f 2 15 16
f 2 16 9
f 2 9 3
f 4 10 11
f 4 11 5
f 5 11 12
f 5 12 13
f 5 13 7
f 5 7 6
f 7 13 14
f 7 14 20
f 7 20 21
f 7 21 15
f 7 15 8
f 9 16 22
f 9 22 23
f 9 23 17
f 10 18 23
f 10 23 22
f 10 22 21
f 10 21 20
f 10 20 19
f 10 19 12
f 10 12 11
f 12 19 13
f 13 19 14
f 14 19 20
f 15 21 22
f 15 22 16
f 17 23 18

