# https://github.com/mikedh/trimesh
v -0.03552490 -0.04044000 0.01165460
v -0.03552490 -0.04044000 0.01718541
v -0.03552490 -0.03967714 0.01165460
v -0.02499951 -0.04044000 0.01165460
v -0.03552490 -0.03967714 0.01718541
v -0.02499951 -0.04044000 0.01718541
v -0.02499951 -0.03967714 0.01165460
v -0.02500054 -0.03967714 0.01718541
v -0.02499951 -0.03977324 0.01718541
v -0.02499951 -0.03967714 0.01715401
f 1 2 5
f 1 5 3
f 1 3 7
f 1 7 4
f 1 4 6
f 1 6 2
f 2 6 9
f 2 9 8
f 2 8 5
f 3 5 8
f 3 8 10
f 3 10 7
f 4 7 10
f 4 10 9
f 4 9 6
f 8 9 10

