# https://github.com/mikedh/trimesh
v -0.00423216 0.00862063 0.02379379
v -0.00463854 0.00882452 0.02378857
v -0.00307265 0.00862063 0.02379379
v -0.00423216 0.00862063 0.05043217
v -0.00463854 0.01233530 0.02378857
v -0.00423235 0.00882452 0.02378857
v -0.00463854 0.00882452 0.05044000
v -0.00266743 0.00924805 0.02378857
v -0.00307265 0.00862063 0.05034348
v -0.00360040 0.00862063 0.05043217
v -0.00454437 0.01227003 0.02378857
v -0.00463854 0.01236684 0.02379379
v -0.00439984 0.00882452 0.05044000
v -0.00463854 0.01000016 0.05044000
v -0.00266743 0.00981277 0.02378857
v -0.00266743 0.00924805 0.04999911
v -0.00274867 0.00924805 0.05014781
v -0.00360040 0.01000016 0.05033826
v -0.00360040 0.00920038 0.05043217
v -0.00423235 0.01189820 0.02378857
v -0.00454437 0.01227003 0.04939387
v -0.00414996 0.01182596 0.02379118
v -0.00414417 0.01181936 0.02379118
v -0.00463854 0.01236684 0.04939387
v -0.00439984 0.01000016 0.05044000
v -0.00463854 0.01079920 0.05040348
v -0.00278649 0.01000016 0.02378857
v -0.00266743 0.00981277 0.04939909
v -0.00266743 0.00930563 0.04994172
v -0.00299315 0.01000016 0.05002259
v -0.00307246 0.01000016 0.05006433
v -0.00439984 0.01079920 0.05039826
v -0.00361275 0.01075849 0.05007216
v -0.00437765 0.01160740 0.05013477
v -0.00307246 0.01042186 0.02378857
v -0.00414417 0.01181936 0.04939387
v -0.00462947 0.01217982 0.04998607
v -0.00383118 0.01141929 0.02379118
v -0.00463854 0.01218349 0.04998607
v -0.00463854 0.01160484 0.05022608
v -0.00278649 0.01000016 0.04939909
v -0.00315003 0.01046587 0.04987911
v -0.00307246 0.01023594 0.04995215
v -0.00328414 0.01055057 0.04993911
v -0.00388734 0.01134595 0.04995215
v -0.00342732 0.01089234 0.02379118
v -0.00312475 0.01049777 0.02379379
v -0.00307246 0.01042186 0.04939909
v -0.00383118 0.01141929 0.04939387
v -0.00316489 0.01055057 0.02379379
v -0.00312475 0.01049777 0.04939387
v -0.00316489 0.01055057 0.04939387
f 1 2 6
f 1 6 3
f 1 3 9
f 1 9 10
f 1 10 4
f 1 4 7
f 1 7 2
f 2 5 11
f 2 11 20
f 2 20 35
f 2 35 27
f 2 27 15
f 2 15 8
f 2 8 6
f 2 7 14
f 2 14 26
f 2 26 40
f 2 40 39
f 2 39 24
f 2 24 12
f 2 12 5
f 3 6 8
f 3 8 16
f 3 16 9
f 4 10 13
f 4 13 7
f 5 12 11
f 7 13 25
f 7 25 14
f 8 15 28
f 8 28 29
f 8 29 16
f 9 16 17
f 9 17 18
f 9 18 19
f 9 19 10
f 10 19 25
f 10 25 13
f 11 12 24
f 11 24 21
f 11 21 22
f 11 22 23
f 11 23 20
f 14 25 26
f 15 27 41
f 15 41 28
f 16 29 30
f 16 30 17
f 17 30 31
f 17 31 18
f 18 32 19
f 18 31 33
f 18 33 34
f 18 34 32
f 19 32 25
f 20 23 35
f 21 36 22
f 21 24 37
f 21 37 36
f 22 36 23
f 23 36 49
f 23 49 38
f 23 38 35
f 24 39 37
f 25 32 26
f 26 32 40
f 27 35 48
f 27 48 41
f 28 41 42
f 28 42 43
f 28 43 30
f 28 30 29
f 30 33 31
f 30 43 44
f 30 44 33
f 32 34 40
f 33 44 45
f 33 45 34
f 34 45 37
f 34 37 40
f 35 38 46
f 35 46 47
f 35 47 51
f 35 51 48
f 36 37 45
f 36 45 42
f 36 42 49
f 37 39 40
f 38 49 52
f 38 52 50
f 38 50 46
f 41 48 42
f 42 48 51
f 42 51 52
f 42 52 49
f 42 45 44
f 42 44 43
f 46 50 47
f 47 50 52
f 47 52 51

