# https://github.com/mikedh/trimesh
v -0.01679660 -0.01839606 0.00220607
v -0.01679660 -0.01839276 0.00140425
v -0.01566070 -0.01808554 0.00060243
v -0.01566059 -0.01808554 0.00279374
v -0.01679660 -0.01839606 0.04779030
v -0.01679660 -0.01838946 0.00063231
v -0.01679660 -0.01838615 0.00060243
v -0.01566070 -0.01793689 0.00018409
v -0.01566070 -0.01783778 -0.00008982
v -0.01566070 -0.01719692 -0.00041354
v -0.01566070 -0.01639749 -0.00043346
v -0.01566059 0.01535173 0.00279374
v -0.01566059 -0.01808554 0.01894967
v -0.01566070 -0.01808554 0.04829330
v -0.01566070 -0.01808224 0.04939394
v -0.01679660 -0.01838615 0.04939394
v -0.01679660 -0.01800956 -0.00013962
v -0.01639973 -0.01719692 -0.00042848
v -0.01566070 0.01535173 -0.00043346
v -0.01679660 -0.01719692 -0.00043346
v -0.01566059 0.01535173 0.01894967
v -0.01566070 -0.01639419 0.05043481
v -0.01566070 -0.01719362 0.05040991
v -0.01566070 -0.01724977 0.05038501
v -0.01566070 -0.01783778 0.05009118
v -0.01566070 -0.01786421 0.05003141
v -0.01679660 -0.01800626 0.05013600
v -0.01679660 0.01535173 -0.00043346
v -0.01566070 0.01535173 0.05043481
v -0.01679660 -0.01719362 0.05043481
v -0.01639973 -0.01719362 0.05042983
v -0.01679660 -0.01767261 0.05028541
v -0.01679660 0.01535173 0.05043481
f 1 2 3
f 1 3 4
f 1 4 13
f 1 13 5
f 1 5 16
f 1 16 27
f 1 27 32
f 1 32 30
f 1 30 33
f 1 33 28
f 1 28 20
f 1 20 17
f 1 17 7
f 1 7 6
f 1 6 2
f 2 6 3
f 3 6 7
f 3 7 8
f 3 8 4
f 4 8 9
f 4 9 10
f 4 10 11
f 4 11 19
f 4 19 12
f 4 12 21
f 4 21 13
f 5 13 14
f 5 14 15
f 5 15 16
f 7 17 9
f 7 9 8
f 9 17 10
f 10 17 18
f 10 18 11
f 11 18 20
f 11 20 28
f 11 28 19
f 12 19 28
f 12 28 33
f 12 33 29
f 12 29 21
f 13 21 29
f 13 29 22
f 13 22 23
f 13 23 24
f 13 24 25
f 13 25 26
f 13 26 15
f 13 15 14
f 15 26 16
f 16 26 25
f 16 25 27
f 17 20 18
f 22 29 33
f 22 33 30
f 22 30 31
f 22 31 23
f 23 32 24
f 23 31 32
f 24 32 27
f 24 27 25
f 30 32 31

