# https://github.com/mikedh/trimesh
v 0.01639201 -0.04043927 0.01686979
v 0.01639201 -0.03710937 0.01686979
v 0.01707727 -0.04043927 0.01686979
v 0.01639201 -0.04043927 0.04939833
v 0.01639375 -0.03295575 0.01686979
v 0.01639201 -0.03056458 0.01740213
v 0.01707727 -0.03048074 0.01686979
v 0.01707727 -0.04043927 0.04939833
v 0.01639201 -0.04021897 0.05009168
v 0.01639476 -0.03056165 0.01686979
v 0.01639201 -0.03055970 0.01900243
v 0.01663825 -0.03048074 0.01686979
v 0.01707727 -0.03048074 0.04980579
v 0.01707727 -0.04021897 0.05009168
v 0.01639509 -0.03983880 0.05028884
v 0.01639201 -0.03960485 0.05040714
v 0.01663389 -0.03048074 0.01856539
v 0.01639201 -0.03055385 0.02620215
v 0.01664992 -0.03048074 0.04939504
v 0.01639201 -0.03056653 0.04940490
v 0.01639201 -0.03088138 0.05011140
v 0.01707727 -0.03074199 0.05015083
v 0.01707727 -0.03983880 0.05028884
v 0.01707727 -0.03959802 0.05040714
v 0.01707727 -0.03879869 0.05044000
v 0.01639201 -0.03879869 0.05044000
v 0.01663315 -0.03048074 0.01900243
v 0.01639201 -0.03055385 0.03180814
v 0.01662436 -0.03048074 0.02578154
v 0.01663919 -0.03048074 0.04895143
v 0.01639201 -0.03056360 0.04939504
v 0.01707727 -0.03080145 0.05018040
v 0.01639201 -0.03160079 0.05043014
v 0.01707727 -0.03172263 0.05044000
v 0.01639201 -0.03240012 0.05044000
v 0.01662436 -0.03048074 0.03180157
v 0.01639201 -0.03055483 0.04540578
v 0.01662490 -0.03048074 0.04539593
v 0.01707727 -0.03160079 0.05043343
f 1 2 5
f 1 5 10
f 1 10 12
f 1 12 7
f 1 7 3
f 1 3 8
f 1 8 4
f 1 4 9
f 1 9 16
f 1 16 26
f 1 26 35
f 1 35 33
f 1 33 21
f 1 21 20
f 1 20 31
f 1 31 37
f 1 37 28
f 1 28 18
f 1 18 11
f 1 11 6
f 1 6 2
f 2 6 5
f 3 7 13
f 3 13 22
f 3 22 32
f 3 32 39
f 3 39 34
f 3 34 25
f 3 25 24
f 3 24 23
f 3 23 14
f 3 14 8
f 4 8 14
f 4 14 9
f 5 6 10
f 6 11 10
f 7 12 17
f 7 17 27
f 7 27 29
f 7 29 36
f 7 36 38
f 7 38 30
f 7 30 19
f 7 19 13
f 9 14 23
f 9 23 15
f 9 15 16
f 10 11 12
f 11 17 12
f 11 18 17
f 13 19 20
f 13 20 21
f 13 21 22
f 15 23 16
f 16 23 24
f 16 24 25
f 16 25 26
f 17 18 27
f 18 28 36
f 18 36 29
f 18 29 27
f 19 30 31
f 19 31 20
f 21 32 22
f 21 33 32
f 25 34 35
f 25 35 26
f 28 37 38
f 28 38 36
f 30 38 37
f 30 37 31
f 32 33 39
f 33 35 34
f 33 34 39

