# https://github.com/mikedh/trimesh
v -0.01775033 -0.02975502 0.01165389
v -0.01765712 -0.02982510 0.01165389
v -0.01775033 -0.02975502 0.00993106
v -0.04044000 -0.02975502 0.01165389
v -0.01721838 -0.03015878 0.01165389
v -0.01722065 -0.03015668 0.00993106
v -0.04044000 -0.02975502 0.00993106
v -0.04044000 -0.03959901 0.01165389
v -0.01721838 -0.04043896 0.01165389
v -0.01721838 -0.03015982 0.01020009
v -0.01721838 -0.03702164 0.00993106
v -0.04044000 -0.03959901 0.00993106
v -0.04021949 -0.04021929 0.01165389
v -0.01721838 -0.04043896 0.00993106
v -0.03959888 -0.04043896 0.01165389
v -0.04021949 -0.04021929 0.00993106
v -0.03980803 -0.04036573 0.00993106
v -0.03971255 -0.04039921 0.01165389
v -0.03959888 -0.04043896 0.00993106
f 1 2 3
f 1 3 7
f 1 7 4
f 1 4 8
f 1 8 13
f 1 13 18
f 1 18 15
f 1 15 9
f 1 9 5
f 1 5 2
f 2 5 6
f 2 6 3
f 3 6 11
f 3 11 14
f 3 14 19
f 3 19 17
f 3 17 16
f 3 16 12
f 3 12 7
f 4 7 12
f 4 12 8
f 5 9 14
f 5 14 11
f 5 11 10
f 5 10 6
f 6 10 11
f 8 12 16
f 8 16 13
f 9 15 19
f 9 19 14
f 13 16 17
f 13 17 18
f 15 18 19
f 17 19 18

