# https://github.com/mikedh/trimesh
v -0.01437099 0.00859425 0.03135152
v -0.01438970 0.00859425 0.03135152
v -0.01318032 -0.00579892 0.03135152
v -0.01318032 0.00859425 0.03135053
v -0.01438970 0.00859425 0.02126905
v -0.01438970 -0.00597000 0.03135152
v -0.01318032 -0.00597000 0.03135152
v -0.01318032 0.00859425 0.02126905
v -0.01438970 -0.00597000 0.02126905
v -0.01318032 -0.00597000 0.02126905
f 1 2 6
f 1 6 7
f 1 7 3
f 1 3 4
f 1 4 8
f 1 8 5
f 1 5 2
f 2 5 9
f 2 9 6
f 3 7 10
f 3 10 8
f 3 8 4
f 5 8 10
f 5 10 9
f 6 9 10
f 6 10 7

