# https://github.com/mikedh/trimesh
v -0.02795391 -0.03762545 0.05044000
v -0.03179987 -0.03762545 0.05044000
v -0.02795391 -0.03879979 0.05044000
v -0.02795391 -0.03762545 0.02735165
v -0.03179987 -0.03879979 0.05044000
v -0.03879730 -0.03762545 0.05043774
v -0.02795391 -0.03959963 0.05041288
v -0.02795391 -0.03967694 0.02735165
v -0.03962315 -0.03762545 0.02735165
v -0.03879730 -0.03879939 0.05043774
v -0.03879730 -0.03959963 0.05041062
v -0.03179987 -0.03959963 0.05041288
v -0.03959688 -0.03762545 0.05041062
v -0.02795391 -0.03967694 0.05037220
v -0.03962315 -0.03967694 0.02735165
v -0.03962315 -0.03762545 0.05039706
v -0.03959688 -0.03879939 0.05041062
v -0.03959688 -0.03959963 0.05039706
v -0.03959688 -0.03967694 0.05035864
v -0.03889782 -0.03967694 0.05036994
v -0.03179987 -0.03967694 0.05037220
v -0.03962315 -0.03967694 0.05035186
v -0.03962315 -0.03882951 0.05039706
v -0.03962315 -0.03960224 0.05038350
v -0.03962315 -0.03962272 0.05037898
f 1 2 5
f 1 5 3
f 1 3 7
f 1 7 14
f 1 14 8
f 1 8 4
f 1 4 9
f 1 9 16
f 1 16 13
f 1 13 6
f 1 6 2
f 2 6 10
f 2 10 5
f 3 5 12
f 3 12 7
f 4 8 15
f 4 15 9
f 5 10 11
f 5 11 12
f 6 13 17
f 6 17 10
f 7 12 21
f 7 21 14
f 8 14 21
f 8 21 20
f 8 20 19
f 8 19 22
f 8 22 15
f 9 15 22
f 9 22 25
f 9 25 24
f 9 24 23
f 9 23 16
f 10 17 18
f 10 18 11
f 11 18 19
f 11 19 20
f 11 20 12
f 12 20 21
f 13 16 23
f 13 23 17
f 17 23 18
f 18 23 24
f 18 24 25
f 18 25 19
f 19 25 22

