# https://github.com/mikedh/trimesh
v -0.01840685 -0.01998843 0.04459298
v -0.01841116 -0.01998843 0.04859724
v -0.01870016 -0.02111607 0.04939411
v -0.01869801 -0.02111607 0.04460294
v -0.01840685 -0.01998843 0.01739988
v -0.01841332 -0.01998843 0.04939411
v -0.01891799 -0.02111607 0.05002164
v -0.01869801 -0.02111607 0.01739988
v -0.01870016 -0.02111607 0.00060589
v -0.01840901 -0.01998843 0.00620389
v -0.01879290 -0.01998843 0.05014117
v -0.01895250 -0.02111607 0.05009635
v -0.01841116 -0.01998843 0.00060589
v -0.01895034 -0.02111607 -0.00009634
v -0.01910779 -0.01998843 0.05028062
v -0.01960383 -0.02111607 0.05042007
v -0.01952619 -0.02111607 0.05038521
v -0.01879075 -0.01998843 -0.00014117
v -0.01960168 -0.02111607 -0.00041509
v -0.01960383 -0.01998843 0.05043502
v -0.01960383 -0.02040014 0.05043004
v -0.02040398 -0.02111607 0.05044000
v -0.01960168 -0.02040014 -0.00042505
v -0.01960168 -0.01998843 -0.00043004
v -0.02040182 -0.02111607 -0.00044000
v -0.01999205 -0.01998843 0.05044000
v -0.03879873 -0.02111607 0.05044000
v -0.02040182 -0.01998843 -0.00044000
v -0.03879873 -0.02111607 -0.00044000
v -0.03879873 -0.01998843 0.05044000
v -0.03951477 -0.02111607 0.05041510
v -0.03879873 -0.01998843 -0.00044000
v -0.03959888 -0.02111607 -0.00040513
v -0.03959888 -0.01998843 0.05041011
v -0.03959888 -0.02111607 0.05041011
v -0.03959888 -0.01998843 -0.00040513
v -0.04021786 -0.02111607 -0.00008638
v -0.03991807 -0.01998843 -0.00024576
v -0.04021786 -0.01998843 0.05009137
v -0.04021786 -0.02111607 0.05009137
v -0.04024158 -0.02111607 -0.00001666
v -0.04021786 -0.01998843 -0.00008638
v -0.04032569 -0.01998843 0.04975270
v -0.04041628 -0.02111607 0.04946881
v -0.04044000 -0.02111607 0.00060589
v -0.04033216 -0.01998843 0.00026722
v -0.04043785 -0.01998843 0.04939411
v -0.04043785 -0.02111607 0.04939411
v -0.04044000 -0.01998843 0.00060589
v -0.04044000 -0.02111607 0.04459298
v -0.04044000 -0.01998843 0.04460294
v -0.04044000 -0.02111187 0.04460294
f 1 2 3
f 1 3 4
f 1 4 8
f 1 8 5
f 1 5 10
f 1 10 13
f 1 13 18
f 1 18 24
f 1 24 28
f 1 28 32
f 1 32 36
f 1 36 38
f 1 38 42
f 1 42 46
f 1 46 49
f 1 49 51
f 1 51 47
f 1 47 43
f 1 43 39
f 1 39 34
f 1 34 30
f 1 30 26
f 1 26 20
f 1 20 15
f 1 15 11
f 1 11 6
f 1 6 2
f 2 6 3
f 3 6 7
f 3 7 12
f 3 12 17
f 3 17 16
f 3 16 22
f 3 22 27
f 3 27 31
f 3 31 35
f 3 35 40
f 3 40 44
f 3 44 48
f 3 48 50
f 3 50 45
f 3 45 41
f 3 41 37
f 3 37 33
f 3 33 29
f 3 29 25
f 3 25 19
f 3 19 14
f 3 14 9
f 3 9 8
f 3 8 4
f 5 8 9
f 5 9 10
f 6 11 12
f 6 12 7
f 9 13 10
f 9 14 13
f 11 15 16
f 11 16 17
f 11 17 12
f 13 14 18
f 14 19 18
f 15 20 21
f 15 21 16
f 16 21 22
f 18 19 23
f 18 23 24
f 19 25 23
f 20 26 22
f 20 22 21
f 22 26 30
f 22 30 27
f 23 25 24
f 24 25 28
f 25 29 32
f 25 32 28
f 27 30 31
f 29 33 36
f 29 36 32
f 30 34 31
f 31 34 35
f 33 37 38
f 33 38 36
f 34 39 40
f 34 40 35
f 37 41 42
f 37 42 38
f 39 43 44
f 39 44 40
f 41 45 46
f 41 46 42
f 43 47 44
f 44 47 48
f 45 49 46
f 45 50 52
f 45 52 51
f 45 51 49
f 47 51 52
f 47 52 48
f 48 52 50

