# https://github.com/mikedh/trimesh
v -0.00274400 -0.00993347 0.00060115
v -0.00229211 -0.00899223 0.00004144
v -0.00246163 -0.00948813 0.00060115
v -0.00274400 -0.00993347 0.02378857
v -0.00274400 -0.00923532 -0.00014592
v -0.00163238 -0.00751231 -0.00002734
v -0.00163793 -0.00800821 0.00060115
v -0.00185382 -0.00839909 0.00060115
v -0.00212715 -0.00839909 -0.00007951
v -0.00185349 -0.00839909 0.00140038
v -0.00185001 -0.00839326 0.02378857
v -0.00246163 -0.00948813 0.02378857
v -0.00274400 -0.00800821 0.02378857
v -0.00274400 -0.00839909 -0.00037359
v -0.00163238 -0.00799654 0.00060352
v -0.00163238 -0.00679665 -0.00021707
v -0.00163750 -0.00800821 0.00140038
v -0.00200017 -0.00679665 -0.00040205
v -0.00163750 -0.00800821 0.02378857
v -0.00274378 0.00765640 0.02378857
v -0.00274378 0.00993365 0.02378620
v -0.00274400 -0.00800821 -0.00039257
v -0.00274378 -0.00760176 -0.00041865
v -0.00163238 -0.00799654 0.02378857
v -0.00163238 -0.00519616 -0.00038545
v -0.00200017 -0.00599738 -0.00043526
v -0.00163238 -0.00439883 -0.00042340
v -0.00163238 0.00765640 0.02378857
v -0.00274378 0.00993365 0.00060352
v -0.00246142 0.00948637 0.02378620
v -0.00274378 0.00923356 -0.00014592
v -0.00274378 0.00835261 -0.00038545
v -0.00274378 0.00754167 -0.00043526
v -0.00274378 0.00594312 -0.00044000
v -0.00274378 -0.00519616 -0.00044000
v -0.00274378 -0.00679665 -0.00043526
v -0.00274378 0.00975863 0.00027149
v -0.00200017 -0.00519616 -0.00044000
v -0.00163238 -0.00359567 -0.00043526
v -0.00163238 0.00799673 0.02378620
v -0.00185360 0.00839734 0.02378620
v -0.00246142 0.00948637 0.00060352
v -0.00229200 0.00899047 0.00003907
v -0.00212726 0.00839734 -0.00007951
v -0.00200028 0.00679684 -0.00040205
v -0.00200028 0.00638068 -0.00042103
v -0.00200028 0.00599757 -0.00043526
v -0.00200028 0.00569614 -0.00043763
v -0.00200017 0.00519829 -0.00044000
v -0.00163238 -0.00279445 -0.00044000
v -0.00163238 0.00799673 0.00060352
v -0.00185360 0.00839734 0.00140276
v -0.00185392 0.00839734 0.00060352
v -0.00163238 0.00798117 0.00057980
v -0.00163238 0.00751638 -0.00002734
v -0.00163238 0.00721301 -0.00011271
v -0.00163238 0.00679684 -0.00021707
v -0.00163238 0.00644680 -0.00027161
v -0.00163238 0.00563002 -0.00038545
v -0.00163238 0.00482880 -0.00042340
v -0.00163238 0.00402953 -0.00043526
v -0.00163238 0.00323025 -0.00044000
f 1 2 3
f 1 3 12
f 1 12 4
f 1 4 13
f 1 13 22
f 1 22 14
f 1 14 5
f 1 5 2
f 2 6 7
f 2 7 8
f 2 8 3
f 2 5 9
f 2 9 6
f 3 8 10
f 3 10 11
f 3 11 12
f 4 12 11
f 4 11 19
f 4 19 24
f 4 24 28
f 4 28 20
f 4 20 13
f 5 14 9
f 6 15 7
f 6 9 16
f 6 16 25
f 6 25 27
f 6 27 39
f 6 39 50
f 6 50 62
f 6 62 61
f 6 61 60
f 6 60 59
f 6 59 58
f 6 58 57
f 6 57 56
f 6 56 55
f 6 55 54
f 6 54 51
f 6 51 40
f 6 40 28
f 6 28 24
f 6 24 15
f 7 15 17
f 7 17 8
f 8 17 10
f 9 14 18
f 9 18 16
f 10 17 11
f 11 17 19
f 13 20 21
f 13 21 29
f 13 29 22
f 14 22 23
f 14 23 18
f 15 24 19
f 15 19 17
f 16 18 25
f 18 23 26
f 18 26 27
f 18 27 25
f 20 28 21
f 21 28 30
f 21 30 42
f 21 42 29
f 22 31 32
f 22 32 33
f 22 33 34
f 22 34 35
f 22 35 36
f 22 36 23
f 22 29 37
f 22 37 31
f 23 36 26
f 26 36 38
f 26 38 50
f 26 50 39
f 26 39 27
f 28 40 41
f 28 41 30
f 29 42 43
f 29 43 37
f 30 41 52
f 30 52 42
f 31 44 32
f 31 37 43
f 31 43 44
f 32 44 45
f 32 45 33
f 33 46 47
f 33 47 48
f 33 48 49
f 33 49 34
f 33 45 46
f 34 49 62
f 34 62 50
f 34 50 38
f 34 38 35
f 35 38 36
f 40 51 52
f 40 52 41
f 42 53 43
f 42 52 53
f 43 53 51
f 43 51 54
f 43 54 55
f 43 55 44
f 44 56 57
f 44 57 45
f 44 55 56
f 45 57 58
f 45 58 59
f 45 59 60
f 45 60 46
f 46 60 47
f 47 60 61
f 47 61 48
f 48 62 49
f 48 61 62
f 51 53 52

