# https://github.com/mikedh/trimesh
v -0.04044000 0.03351615 0.02863429
v -0.04044000 0.03351615 0.04939838
v -0.04044000 0.03487017 0.02863429
v -0.01418532 0.03351615 0.02863429
v -0.04035262 0.03351615 0.04967372
v -0.04044000 0.03487017 0.04939838
v -0.01418532 0.03487017 0.02863429
v -0.01418532 0.03351615 0.05044000
v -0.04021899 0.03351615 0.05009208
v -0.04021899 0.03487017 0.05009208
v -0.01418532 0.03487017 0.05044000
v -0.03879780 0.03351615 0.05044000
v -0.03959963 0.03351615 0.05041225
v -0.03959963 0.03487017 0.05041225
v -0.03879780 0.03487017 0.05044000
f 1 2 6
f 1 6 3
f 1 3 7
f 1 7 4
f 1 4 8
f 1 8 12
f 1 12 13
f 1 13 9
f 1 9 5
f 1 5 2
f 2 5 6
f 3 6 10
f 3 10 14
f 3 14 15
f 3 15 11
f 3 11 7
f 4 7 11
f 4 11 8
f 5 9 10
f 5 10 6
f 8 11 15
f 8 15 12
f 9 13 14
f 9 14 10
f 12 15 14
f 12 14 13

