# https://github.com/mikedh/trimesh
v -0.01638930 0.04044000 0.00694322
v -0.01638694 0.03062615 0.00694322
v -0.01638930 0.04044000 0.00060133
v -0.03959846 0.04044000 0.00694322
v -0.01638694 0.03062615 0.00045535
v -0.01638694 0.03055544 0.00694322
v -0.01638930 0.04021880 -0.00009169
v -0.03959846 0.04044000 0.00060133
v -0.04021530 0.04021880 0.00694322
v -0.01638694 0.03055948 0.00060133
v -0.01638930 0.03088271 -0.00011120
v -0.01638930 0.03160087 -0.00043133
v -0.01638930 0.03238872 -0.00043855
v -0.01638930 0.03879864 -0.00043855
v -0.01638930 0.03959760 -0.00041182
v -0.01638694 0.03055544 0.00140129
v -0.01726747 0.03012414 0.00694322
v -0.01727218 0.03012111 0.00693816
v -0.01754999 0.03986830 -0.00027307
v -0.03959846 0.04021880 -0.00009169
v -0.04014467 0.04014506 0.00000659
v -0.04021530 0.04021880 0.00060133
v -0.04043896 0.03959760 0.00694322
v -0.01727218 0.03012111 0.00140129
v -0.01729337 0.03012111 0.00060133
v -0.01767242 0.03012111 -0.00005266
v -0.01736635 0.03024838 0.00002755
v -0.01799496 0.03012111 -0.00017985
v -0.01880486 0.03012111 -0.00041326
v -0.01640342 0.03160087 -0.00043205
v -0.01720390 0.03160087 -0.00043855
v -0.01754999 0.03914509 -0.00042772
v -0.03879798 0.03879864 -0.00043855
v -0.03879798 0.03959760 -0.00041182
v -0.01732633 0.03012111 0.00694322
v -0.03959846 0.03959760 -0.00039809
v -0.04021530 0.03959760 -0.00009169
v -0.04043896 0.03959760 0.00060133
v -0.04043896 0.03062615 0.00694322
v -0.01960298 0.03012111 -0.00043855
v -0.03879798 0.03012111 -0.00043855
v -0.03891805 0.03012111 -0.00043494
v -0.03959846 0.03879864 -0.00041182
v -0.04043661 0.03012111 0.00694322
v -0.04021765 0.03062615 -0.00009169
v -0.04043896 0.03062615 0.00060133
v -0.03959610 0.03012111 -0.00041182
v -0.03959846 0.03062615 -0.00041182
v -0.04005991 0.03062615 -0.00017334
v -0.04043661 0.03012111 0.00060133
v -0.04021765 0.03012111 -0.00009169
v -0.03969028 0.03012111 -0.00036340
f 1 2 5
f 1 5 3
f 1 3 8
f 1 8 4
f 1 4 9
f 1 9 23
f 1 23 39
f 1 39 44
f 1 44 35
f 1 35 17
f 1 17 6
f 1 6 2
f 2 6 16
f 2 16 10
f 2 10 5
f 3 5 7
f 3 7 20
f 3 20 8
f 4 8 22
f 4 22 9
f 5 10 11
f 5 11 12
f 5 12 13
f 5 13 14
f 5 14 15
f 5 15 7
f 6 17 18
f 6 18 24
f 6 24 16
f 7 15 19
f 7 19 20
f 8 20 21
f 8 21 22
f 9 22 38
f 9 38 23
f 10 16 24
f 10 24 25
f 10 25 26
f 10 26 27
f 10 27 11
f 11 27 26
f 11 26 28
f 11 28 29
f 11 29 12
f 12 30 13
f 12 29 30
f 13 30 31
f 13 31 40
f 13 40 41
f 13 41 33
f 13 33 14
f 14 32 15
f 14 33 32
f 15 32 34
f 15 34 19
f 17 35 18
f 18 35 44
f 18 44 50
f 18 50 51
f 18 51 52
f 18 52 47
f 18 47 42
f 18 42 41
f 18 41 40
f 18 40 29
f 18 29 28
f 18 28 26
f 18 26 25
f 18 25 24
f 19 34 20
f 20 34 36
f 20 36 21
f 21 37 38
f 21 38 22
f 21 36 37
f 23 38 46
f 23 46 39
f 29 40 30
f 30 40 31
f 32 33 34
f 33 41 42
f 33 42 43
f 33 43 36
f 33 36 34
f 36 43 37
f 37 43 45
f 37 45 38
f 38 45 51
f 38 51 46
f 39 46 50
f 39 50 44
f 42 47 48
f 42 48 43
f 43 48 49
f 43 49 45
f 45 49 51
f 46 51 50
f 47 52 48
f 48 52 51
f 48 51 49

