# https://github.com/mikedh/trimesh
v 0.02567981 0.03926342 0.01413994
v 0.02567981 0.03954570 0.01409147
v 0.02435445 0.03926342 0.01404299
v 0.02567981 0.03926342 -0.00042455
v 0.02435445 0.03954524 0.01396316
v 0.02567981 0.03989421 0.01373505
v 0.02435445 0.04018294 0.01340858
v 0.02435445 0.03926342 -0.00042455
v 0.02502012 0.03960017 -0.00041315
v 0.02567981 0.03960017 -0.00041172
v 0.02567981 0.04022348 0.01337436
v 0.02435445 0.04018536 0.01340145
v 0.02435445 0.03960017 -0.00041315
v 0.02567981 0.03984825 -0.00028484
v 0.02567981 0.04043367 0.01259881
v 0.02435445 0.04042445 0.01264300
v 0.02435445 0.04021979 -0.00009238
v 0.02567981 0.04021979 -0.00009238
v 0.02435445 0.04042952 0.01259881
v 0.02567981 0.04044000 0.01179901
v 0.02435445 0.04044000 0.01184321
v 0.02435445 0.04044000 0.00060192
v 0.02502012 0.04044000 0.00060049
v 0.02567981 0.04030802 0.00018420
v 0.02567981 0.04044000 0.00060049
f 1 2 3
f 1 3 8
f 1 8 4
f 1 4 10
f 1 10 14
f 1 14 18
f 1 18 24
f 1 24 25
f 1 25 20
f 1 20 15
f 1 15 11
f 1 11 6
f 1 6 2
f 2 5 3
f 2 6 7
f 2 7 5
f 3 5 7
f 3 7 12
f 3 12 16
f 3 16 19
f 3 19 21
f 3 21 22
f 3 22 17
f 3 17 13
f 3 13 8
f 4 8 13
f 4 13 9
f 4 9 10
f 6 11 7
f 7 11 12
f 9 13 14
f 9 14 10
f 11 15 16
f 11 16 12
f 13 17 14
f 14 17 18
f 15 19 16
f 15 20 21
f 15 21 19
f 17 22 23
f 17 23 24
f 17 24 18
f 20 25 23
f 20 23 22
f 20 22 21
f 23 25 24

