# https://github.com/mikedh/trimesh
v 0.04044000 -0.02607333 0.04939909
v 0.04021884 -0.02607333 0.05009137
v 0.04044000 -0.02760371 0.04939909
v 0.04044000 -0.02607333 0.00060091
v 0.04016142 -0.02607333 0.05012125
v 0.04021884 -0.02760371 0.05009137
v 0.04044000 -0.02760371 0.00060091
v 0.04024011 -0.02607333 -0.00002662
v 0.03959789 -0.02760371 0.05041012
v 0.03959789 -0.02607333 0.05041012
v 0.04021884 -0.02760371 -0.00009137
v 0.04021884 -0.02607333 -0.00009137
v 0.03952559 -0.02607333 0.05041510
v 0.03879831 -0.02760371 0.05044000
v 0.03959789 -0.02760371 -0.00041012
v 0.03959789 -0.02607333 -0.00041012
v 0.03879831 -0.02607333 0.05044000
v 0.02040159 -0.02760371 0.05044000
v 0.03879831 -0.02760371 -0.00044000
v 0.03879831 -0.02607333 -0.00044000
v 0.02040159 -0.02607333 0.05044000
v 0.01960201 -0.02760371 0.05041510
v 0.02040159 -0.02760371 -0.00044000
v 0.02040159 -0.02607333 -0.00044000
v 0.01960201 -0.02607333 0.05041012
v 0.01960201 -0.02759997 0.05041510
v 0.01895980 -0.02760371 0.05009635
v 0.01960201 -0.02760371 -0.00041510
v 0.01960201 -0.02759997 -0.00041510
v 0.01967431 -0.02607333 -0.00041510
v 0.01898106 -0.02607333 0.05009137
v 0.01895980 -0.02759997 0.05009635
v 0.01871737 -0.02760371 0.04939909
v 0.01895980 -0.02760371 -0.00009635
v 0.01895980 -0.02759997 -0.00009635
v 0.01960201 -0.02607333 -0.00041012
v 0.01876203 -0.02607333 0.04939909
v 0.01871737 -0.02759997 0.04939909
v 0.01871737 -0.02760371 0.00060091
v 0.01898106 -0.02607333 -0.00009137
v 0.01903848 -0.02607333 -0.00012125
v 0.01871737 -0.02759997 0.00060091
v 0.01876203 -0.02607333 0.00060091
f 1 2 6
f 1 6 3
f 1 3 7
f 1 7 4
f 1 4 8
f 1 8 12
f 1 12 16
f 1 16 20
f 1 20 24
f 1 24 30
f 1 30 36
f 1 36 41
f 1 41 40
f 1 40 43
f 1 43 37
f 1 37 31
f 1 31 25
f 1 25 21
f 1 21 17
f 1 17 13
f 1 13 10
f 1 10 5
f 1 5 2
f 2 5 6
f 3 6 9
f 3 9 14
f 3 14 18
f 3 18 22
f 3 22 27
f 3 27 33
f 3 33 39
f 3 39 34
f 3 34 28
f 3 28 23
f 3 23 19
f 3 19 15
f 3 15 11
f 3 11 7
f 4 7 8
f 5 9 6
f 5 10 9
f 7 11 8
f 8 11 12
f 9 10 13
f 9 13 14
f 11 15 16
f 11 16 12
f 13 17 14
f 14 17 21
f 14 21 18
f 15 19 20
f 15 20 16
f 18 21 26
f 18 26 22
f 19 23 24
f 19 24 20
f 21 25 26
f 22 26 32
f 22 32 27
f 23 28 29
f 23 29 24
f 24 29 30
f 25 31 32
f 25 32 26
f 27 32 38
f 27 38 33
f 28 34 35
f 28 35 29
f 29 35 36
f 29 36 30
f 31 37 38
f 31 38 32
f 33 38 42
f 33 42 39
f 34 39 42
f 34 42 35
f 35 40 41
f 35 41 36
f 35 42 40
f 37 43 42
f 37 42 38
f 40 42 43

