# https://github.com/mikedh/trimesh
v 0.02516394 0.02702410 -0.00043627
v 0.02516394 0.03240221 -0.00043983
v 0.02747639 0.03141429 -0.00043983
v 0.02747639 0.02702410 -0.00043627
v 0.02516394 0.02702410 0.03589773
v 0.02516394 0.03879812 -0.00043983
v 0.02747639 0.03879812 -0.00043983
v 0.02747639 0.02702410 0.03589773
v 0.02516394 0.03361312 0.03590129
v 0.02516394 0.03959792 -0.00041137
v 0.02747639 0.03959792 -0.00041137
v 0.02747639 0.03361312 0.03590129
v 0.02516394 0.03975116 0.03590129
v 0.02516394 0.03960540 -0.00040781
v 0.02516394 0.03962658 -0.00039714
v 0.02747639 0.03975116 -0.00032955
v 0.02747639 0.03975116 0.03590129
v 0.02516394 0.03975116 -0.00032955
f 1 2 3
f 1 3 4
f 1 4 8
f 1 8 5
f 1 5 9
f 1 9 13
f 1 13 18
f 1 18 15
f 1 15 14
f 1 14 10
f 1 10 6
f 1 6 2
f 2 6 7
f 2 7 3
f 3 7 11
f 3 11 16
f 3 16 17
f 3 17 12
f 3 12 8
f 3 8 4
f 5 8 12
f 5 12 9
f 6 10 11
f 6 11 7
f 9 12 17
f 9 17 13
f 10 14 11
f 11 14 15
f 11 15 16
f 13 17 16
f 13 16 18
f 15 18 16

