# https://github.com/mikedh/trimesh
v -0.00438476 0.01209055 0.02378857
v -0.00415009 0.01182550 0.02378857
v -0.00438476 0.01209055 0.01162981
v -0.00438476 0.00177499 0.02378857
v -0.00413990 0.01181278 0.02378857
v -0.00414439 0.01181702 0.01162981
v -0.00438476 0.00177499 0.01162981
v -0.00438461 -0.00957105 0.02378857
v -0.00383142 0.01141839 0.02378857
v -0.00383142 0.01141839 0.01162981
v -0.00407778 0.01173221 0.01162981
v -0.00438461 -0.00957105 0.01162981
v -0.00361945 -0.00957105 0.02378857
v -0.00361937 0.01114063 0.02378857
v -0.00366448 0.01120000 0.01162981
v -0.00361945 -0.00957105 0.01162981
v -0.00361937 0.00177499 0.02378857
v -0.00361937 0.01114063 0.01162981
v -0.00361937 0.00177499 0.01162981
f 1 2 3
f 1 3 7
f 1 7 4
f 1 4 8
f 1 8 13
f 1 13 17
f 1 17 14
f 1 14 9
f 1 9 5
f 1 5 2
f 2 5 6
f 2 6 3
f 3 6 11
f 3 11 10
f 3 10 15
f 3 15 18
f 3 18 19
f 3 19 16
f 3 16 12
f 3 12 7
f 4 7 12
f 4 12 8
f 5 9 10
f 5 10 11
f 5 11 6
f 8 12 16
f 8 16 13
f 9 14 15
f 9 15 10
f 13 16 19
f 13 19 17
f 14 18 15
f 14 17 19
f 14 19 18

