# https://github.com/mikedh/trimesh
v -0.04044000 -0.01769499 0.04905596
v -0.04044000 -0.01769499 0.04940007
v -0.04044000 0.00161740 0.04905596
v -0.03250796 -0.01769499 0.04905596
v -0.04021794 -0.01769499 0.05009331
v -0.04021872 0.00162104 0.05009331
v -0.04044000 0.00161740 0.04940007
v -0.04043922 0.01957274 0.04905596
v -0.03250796 -0.01769499 0.05044000
v -0.03250796 0.01957274 0.04905596
v -0.03959913 -0.01769499 0.05041331
v -0.04021872 0.01957274 0.05009331
v -0.04043922 0.01957274 0.04940007
v -0.03879862 -0.01769499 0.05044000
v -0.03250796 0.01957274 0.05044000
v -0.03879940 0.00162104 0.05044000
v -0.03959913 0.01957274 0.05041331
v -0.03879940 0.01957274 0.05044000
f 1 2 7
f 1 7 3
f 1 3 8
f 1 8 10
f 1 10 4
f 1 4 9
f 1 9 14
f 1 14 11
f 1 11 5
f 1 5 2
f 2 5 6
f 2 6 12
f 2 12 7
f 3 7 13
f 3 13 8
f 4 10 15
f 4 15 9
f 5 11 6
f 6 11 17
f 6 17 12
f 7 12 13
f 8 13 12
f 8 12 17
f 8 17 18
f 8 18 15
f 8 15 10
f 9 15 18
f 9 18 16
f 9 16 14
f 11 14 16
f 11 16 18
f 11 18 17

