# https://github.com/mikedh/trimesh
v -0.04044000 -0.01998837 0.00228969
v -0.02078928 -0.01998597 0.00228961
v -0.02098046 -0.01998837 0.00228969
v -0.04044000 -0.01998837 0.00317762
v -0.04044000 -0.00767136 0.00228961
v -0.01840853 -0.01998597 0.00228961
v -0.02097601 -0.01998837 0.00229135
v -0.02097601 -0.01998837 0.00317762
v -0.04044000 0.00449942 0.00317762
v -0.04044000 0.00449942 0.00228961
v -0.01773275 -0.01905824 0.00228961
v -0.01773053 -0.01905824 0.00299984
v -0.01840853 -0.01998597 0.00317762
v -0.01773053 0.00449942 0.00317762
v -0.01773053 0.00449942 0.00228961
v -0.01773053 -0.01839900 0.00228961
v -0.01773053 -0.01905824 0.00317762
f 1 2 6
f 1 6 3
f 1 3 7
f 1 7 8
f 1 8 4
f 1 4 9
f 1 9 10
f 1 10 5
f 1 5 2
f 2 5 10
f 2 10 15
f 2 15 16
f 2 16 11
f 2 11 6
f 3 6 7
f 4 8 13
f 4 13 17
f 4 17 14
f 4 14 9
f 6 11 12
f 6 12 17
f 6 17 13
f 6 13 8
f 6 8 7
f 9 14 15
f 9 15 10
f 11 16 12
f 12 16 15
f 12 15 14
f 12 14 17

