# https://github.com/mikedh/trimesh
v -0.01479490 0.01790732 0.00520811
v -0.01399970 0.01775305 0.00520811
v -0.01426218 0.01780681 0.00086316
v -0.01479490 0.01790966 0.00086316
v -0.01479490 -0.00596532 0.00520811
v -0.01363338 0.01767825 0.00086316
v -0.01399970 0.01775539 0.00086316
v -0.01345402 0.01763617 0.00520811
v -0.01399970 0.01775539 0.00060055
v -0.01479490 0.01790732 0.00059668
v -0.01479490 -0.00597000 0.00086316
v -0.01318047 -0.00596532 0.00520811
v -0.01345402 0.01763851 0.00086316
v -0.01345402 0.01763851 0.00060055
v -0.01324605 0.01757774 0.00520811
v -0.01330089 0.01759410 0.00424778
v -0.01349274 0.01762916 0.00023235
v -0.01360462 0.01765254 0.00023235
v -0.01479490 0.01775071 -0.00004906
v -0.01350269 0.01762449 0.00013781
v -0.01399985 0.01767825 0.00004548
v -0.01479490 -0.00597000 -0.00043938
v -0.01318047 -0.00597000 0.00086316
v -0.01318047 0.01755904 0.00520811
v -0.01318047 0.01756137 0.00086316
v -0.01318047 0.01756137 0.00060055
v -0.01318047 0.01755436 0.00047008
v -0.01341072 0.01760579 0.00023235
v -0.01399985 0.01719673 -0.00027463
v -0.01479490 0.01719673 -0.00036696
v -0.01318047 0.01723880 -0.00009274
v -0.01318047 -0.00597000 -0.00043938
v -0.01479490 0.01639731 -0.00043938
v -0.01318047 0.01720374 -0.00010822
v -0.01318047 0.01639731 -0.00043772
v -0.01479490 0.01719205 -0.00036806
v -0.01318047 0.01559790 -0.00043938
v -0.01399985 0.01639731 -0.00043938
v -0.01320023 0.01639731 -0.00043828
v -0.01318047 0.01637861 -0.00043828
f 1 2 3
f 1 3 4
f 1 4 10
f 1 10 19
f 1 19 30
f 1 30 36
f 1 36 33
f 1 33 22
f 1 22 11
f 1 11 5
f 1 5 12
f 1 12 24
f 1 24 15
f 1 15 8
f 1 8 2
f 2 6 7
f 2 7 3
f 2 8 6
f 3 7 9
f 3 9 4
f 4 9 10
f 5 11 23
f 5 23 12
f 6 9 7
f 6 8 13
f 6 13 14
f 6 14 9
f 8 15 16
f 8 16 13
f 9 14 17
f 9 17 18
f 9 18 10
f 10 18 20
f 10 20 21
f 10 21 19
f 11 22 32
f 11 32 23
f 12 23 32
f 12 32 37
f 12 37 40
f 12 40 35
f 12 35 34
f 12 34 31
f 12 31 27
f 12 27 26
f 12 26 25
f 12 25 24
f 13 16 25
f 13 25 26
f 13 26 14
f 14 26 27
f 14 27 17
f 15 24 16
f 16 24 25
f 17 28 20
f 17 20 18
f 17 27 28
f 19 21 29
f 19 29 30
f 20 28 31
f 20 31 21
f 21 31 29
f 22 33 38
f 22 38 37
f 22 37 32
f 27 31 28
f 29 31 34
f 29 34 35
f 29 35 30
f 30 35 36
f 33 36 38
f 35 39 36
f 35 40 39
f 36 39 38
f 37 38 40
f 38 39 40

