# https://github.com/mikedh/trimesh
v 0.01959579 0.02920453 -0.00043644
v 0.01873904 0.03006153 -0.00040443
v 0.01873904 0.03080019 -0.00043644
v 0.01978674 0.02920453 -0.00043644
v 0.01873904 0.02920453 -0.00017680
v 0.01873904 0.02925795 -0.00019103
v 0.01873904 0.03299428 -0.00043644
v 0.01978674 0.03299428 -0.00043644
v 0.01978674 0.02920453 0.03589930
v 0.01873904 0.02920453 0.03589574
v 0.01873904 0.03299428 0.03587796
v 0.01978674 0.03299428 0.03589930
v 0.01873945 0.02920453 0.03589930
v 0.01873965 0.02999475 0.03589930
v 0.01874047 0.03299428 0.03589930
f 1 2 3
f 1 3 7
f 1 7 8
f 1 8 4
f 1 4 9
f 1 9 13
f 1 13 10
f 1 10 5
f 1 5 6
f 1 6 2
f 2 6 5
f 2 5 10
f 2 10 11
f 2 11 7
f 2 7 3
f 4 8 12
f 4 12 9
f 7 11 15
f 7 15 12
f 7 12 8
f 9 12 15
f 9 15 14
f 9 14 13
f 10 13 14
f 10 14 15
f 10 15 11

