# https://github.com/mikedh/trimesh
v 0.02747639 0.02702367 0.03590286
v 0.01873989 0.02702367 0.03590286
v 0.02747639 0.02597621 0.03590286
v 0.02747639 0.02702367 0.01986906
v 0.01873989 0.02687525 0.03590286
v 0.01873989 0.02702367 0.02620034
v 0.01876042 0.02597775 0.03590286
v 0.01876042 0.02597436 0.03579927
v 0.02747639 0.02597436 0.03584479
v 0.02747639 0.02597436 0.01986906
v 0.01874930 0.02702367 0.01986906
v 0.01873989 0.02687217 0.03579456
v 0.01874074 0.02702367 0.02482390
v 0.01876042 0.02597662 0.01986906
v 0.01873989 0.02692374 0.03192266
v 0.01876042 0.02597436 0.02057532
v 0.02702310 0.02597436 0.01986906
v 0.01874844 0.02702367 0.02002444
v 0.01873989 0.02687423 0.03506319
v 0.01874417 0.02702367 0.02162373
f 1 2 5
f 1 5 7
f 1 7 3
f 1 3 9
f 1 9 10
f 1 10 4
f 1 4 11
f 1 11 18
f 1 18 20
f 1 20 13
f 1 13 6
f 1 6 2
f 2 6 15
f 2 15 19
f 2 19 12
f 2 12 5
f 3 7 8
f 3 8 9
f 4 10 17
f 4 17 14
f 4 14 11
f 5 8 7
f 5 12 8
f 6 13 14
f 6 14 15
f 8 12 16
f 8 16 17
f 8 17 10
f 8 10 9
f 11 14 18
f 12 19 16
f 13 20 14
f 14 20 18
f 14 17 16
f 14 16 19
f 14 19 15

