# https://github.com/mikedh/trimesh
v -0.00307240 -0.01042148 0.02379118
v -0.00307240 -0.01020626 0.02378857
v -0.00278636 -0.00999879 0.02378857
v -0.00307240 -0.01042148 0.04939648
v -0.00307240 0.00539579 0.02378857
v -0.00266728 -0.00981145 0.02378857
v -0.00278636 -0.00999879 0.04939648
v -0.00307240 -0.01036574 0.04978258
v -0.00266728 0.00539579 0.02378857
v -0.00307240 0.00539579 0.03444549
v -0.00266728 -0.00981145 0.04939648
v -0.00266728 -0.00968604 0.04963910
v -0.00307240 -0.01023413 0.04994955
v -0.00266728 0.00539579 0.03370981
v -0.00266732 0.00539579 0.03444549
v -0.00307240 0.00539424 0.05043739
v -0.00299305 -0.00999879 0.05001998
v -0.00266728 -0.00919369 0.05011651
v -0.00307240 -0.01009634 0.05002520
v -0.00266736 0.00539424 0.05043739
v -0.00266728 -0.00776462 0.05038782
v -0.00307240 -0.00776462 0.05044000
v -0.00274481 -0.00923549 0.05014781
v -0.00307240 -0.00952812 0.05022347
v -0.00307240 -0.00999879 0.05006172
v -0.00266728 -0.00909150 0.05015042
v -0.00296422 -0.00776462 0.05044000
v -0.00266736 0.00476564 0.05043739
v -0.00266740 -0.00666379 0.05043739
v -0.00266740 -0.00746425 0.05043217
v -0.00266728 -0.00828794 0.05036434
v -0.00307240 -0.00787145 0.05044000
v -0.00275424 -0.00909150 0.05019217
v -0.00280009 -0.00839942 0.05040087
v -0.00307240 -0.00867192 0.05041391
v -0.00266728 -0.00839942 0.05033826
v -0.00280009 -0.00759741 0.05043739
f 1 2 3
f 1 3 7
f 1 7 4
f 1 4 8
f 1 8 13
f 1 13 19
f 1 19 25
f 1 25 24
f 1 24 35
f 1 35 32
f 1 32 22
f 1 22 16
f 1 16 10
f 1 10 5
f 1 5 2
f 2 5 9
f 2 9 6
f 2 6 3
f 3 6 11
f 3 11 7
f 4 7 8
f 5 10 15
f 5 15 14
f 5 14 9
f 6 9 14
f 6 14 21
f 6 21 31
f 6 31 36
f 6 36 26
f 6 26 18
f 6 18 12
f 6 12 11
f 7 11 8
f 8 11 12
f 8 12 13
f 10 16 20
f 10 20 15
f 12 17 13
f 12 18 17
f 13 17 19
f 14 15 20
f 14 20 21
f 16 22 27
f 16 27 20
f 17 18 23
f 17 23 24
f 17 24 25
f 17 25 19
f 18 26 23
f 20 27 28
f 20 28 21
f 21 28 29
f 21 29 30
f 21 30 31
f 22 32 27
f 23 26 33
f 23 33 24
f 24 33 34
f 24 34 35
f 26 36 33
f 27 37 29
f 27 29 28
f 27 32 35
f 27 35 37
f 29 37 30
f 30 37 35
f 30 35 34
f 30 34 31
f 31 34 36
f 33 36 34

