# https://github.com/mikedh/trimesh
v -0.03640180 -0.02975381 0.03495655
v -0.03640180 -0.02894713 0.03495655
v -0.01935524 -0.02975381 0.03495655
v -0.03640180 -0.02975381 0.03714762
v -0.03640180 -0.02894713 0.04801480
v -0.01833821 -0.02894713 0.03495655
v -0.01775210 -0.02975152 0.03495655
v -0.01774845 -0.02975381 0.03499618
v -0.02554137 -0.02975381 0.03714762
v -0.03640180 -0.02975374 0.04801480
v -0.01833821 -0.02894713 0.04801480
v -0.01833274 -0.02895385 0.03714762
v -0.01774845 -0.02975374 0.03739562
v -0.01774845 -0.02975381 0.03660049
v -0.01788539 -0.02975374 0.04801480
v -0.01775210 -0.02975152 0.04801480
v -0.01774845 -0.02975374 0.04779876
f 1 2 6
f 1 6 7
f 1 7 3
f 1 3 8
f 1 8 14
f 1 14 9
f 1 9 4
f 1 4 10
f 1 10 5
f 1 5 2
f 2 5 11
f 2 11 6
f 3 7 8
f 4 9 15
f 4 15 10
f 5 10 15
f 5 15 16
f 5 16 11
f 6 11 12
f 6 12 8
f 6 8 7
f 8 12 13
f 8 13 17
f 8 17 14
f 9 14 15
f 11 16 17
f 11 17 12
f 12 17 13
f 14 17 15
f 15 17 16

