# https://github.com/mikedh/trimesh
v 0.01559935 0.03071357 0.02380162
v 0.01479854 0.03076022 0.02378857
v 0.01558853 0.03071452 0.02378857
v 0.01559935 0.03071452 0.02378857
v 0.01559935 0.03071357 0.04859819
v 0.01479854 0.03088114 0.02378857
v 0.01479854 0.03076022 0.04939648
v 0.01559935 0.04044000 0.02378857
v 0.01559935 0.03071452 0.04939648
v 0.01479854 0.04044000 0.02380162
v 0.01480003 0.04044000 0.02378857
v 0.01479854 0.03098015 0.05009042
v 0.01559935 0.04044000 0.04939648
v 0.01559935 0.03095730 0.05009564
v 0.01479854 0.04044000 0.04939648
v 0.01479854 0.03159900 0.05041130
v 0.01559935 0.04021912 0.05009042
v 0.01559935 0.03160091 0.05041652
v 0.01479854 0.04021912 0.05009042
v 0.01480003 0.03240161 0.05044000
v 0.01479854 0.03239970 0.05043739
v 0.01559935 0.03959836 0.05041130
v 0.01559935 0.03239970 0.05043739
v 0.01479854 0.03959836 0.05041130
v 0.01559935 0.03320040 0.05044000
v 0.01479854 0.03320040 0.05044000
v 0.01480003 0.03879957 0.05044000
v 0.01559935 0.03879767 0.05044000
v 0.01479854 0.03879767 0.05044000
f 1 2 3
f 1 3 4
f 1 4 8
f 1 8 13
f 1 13 17
f 1 17 22
f 1 22 28
f 1 28 25
f 1 25 23
f 1 23 18
f 1 18 14
f 1 14 9
f 1 9 5
f 1 5 7
f 1 7 2
f 2 6 11
f 2 11 8
f 2 8 4
f 2 4 3
f 2 7 12
f 2 12 16
f 2 16 21
f 2 21 26
f 2 26 29
f 2 29 24
f 2 24 19
f 2 19 15
f 2 15 10
f 2 10 6
f 5 9 7
f 6 10 11
f 7 9 12
f 8 11 10
f 8 10 15
f 8 15 13
f 9 14 12
f 12 14 16
f 13 15 19
f 13 19 17
f 14 18 16
f 16 18 20
f 16 20 21
f 17 19 24
f 17 24 22
f 18 23 20
f 20 25 28
f 20 28 27
f 20 27 29
f 20 29 26
f 20 26 21
f 20 23 25
f 22 24 27
f 22 27 28
f 24 29 27

