# https://github.com/mikedh/trimesh
v -0.01812346 0.01957274 0.03667761
v -0.01989313 0.01957274 0.03667761
v -0.01773053 0.01906083 0.03667761
v -0.01812346 0.01957274 0.03082972
v -0.01989313 0.01957274 0.03082972
v -0.01989313 0.00450182 0.03667761
v -0.01773053 0.01906083 0.03082972
v -0.01773053 0.00450182 0.03667761
v -0.01989313 0.00450182 0.03082972
v -0.01773053 0.00450182 0.03082972
f 1 2 6
f 1 6 8
f 1 8 3
f 1 3 7
f 1 7 4
f 1 4 5
f 1 5 2
f 2 5 9
f 2 9 6
f 3 8 10
f 3 10 7
f 4 7 10
f 4 10 9
f 4 9 5
f 6 9 10
f 6 10 8

