# https://github.com/mikedh/trimesh
v -0.00163228 -0.00799967 0.02140270
v -0.00163228 -0.00465393 0.02138847
v -0.00163149 -0.00799803 0.02136571
v -0.00161496 -0.00796823 0.02136571
v -0.00163228 -0.00799967 0.04859764
v -0.00163175 -0.00465393 0.02136571
v -0.00163228 -0.00465393 0.05042676
v -0.00143695 -0.00756831 0.02136571
v -0.00161496 -0.00796823 0.04859764
v -0.00161532 -0.00796823 0.04939984
v -0.00163228 -0.00799869 0.04939984
v -0.00109774 -0.00465393 0.02136571
v -0.00163228 -0.00483243 0.05042676
v -0.00145359 -0.00465393 0.05041822
v -0.00112192 -0.00679992 0.02136571
v -0.00143695 -0.00756831 0.04939984
v -0.00149127 -0.00744548 0.04996877
v -0.00163228 -0.00751721 0.05002851
v -0.00109774 -0.00673638 0.02136571
v -0.00109774 -0.00465393 0.05033004
v -0.00163228 -0.00563259 0.05038409
v -0.00120003 -0.00465393 0.05038409
v -0.00112192 -0.00679992 0.04939984
v -0.00109774 -0.00645503 0.04970422
v -0.00109774 -0.00595227 0.05007687
v -0.00136098 -0.00679992 0.05008255
v -0.00163228 -0.00721621 0.05011669
v -0.00109774 -0.00673638 0.04939984
v -0.00116132 -0.00465393 0.05036418
v -0.00109774 -0.00507022 0.05028737
v -0.00163228 -0.00644815 0.05027599
v -0.00120003 -0.00520025 0.05032435
v -0.00109774 -0.00589822 0.05009678
v -0.00109774 -0.00520025 0.05026177
v -0.00163228 -0.00679992 0.05021910
f 1 2 3
f 1 3 4
f 1 4 9
f 1 9 5
f 1 5 11
f 1 11 18
f 1 18 27
f 1 27 35
f 1 35 31
f 1 31 21
f 1 21 13
f 1 13 7
f 1 7 2
f 2 6 3
f 2 7 14
f 2 14 22
f 2 22 29
f 2 29 20
f 2 20 12
f 2 12 6
f 3 6 12
f 3 12 19
f 3 19 15
f 3 15 8
f 3 8 4
f 4 8 16
f 4 16 9
f 5 9 10
f 5 10 11
f 7 13 14
f 8 15 23
f 8 23 16
f 9 16 10
f 10 16 17
f 10 17 11
f 11 17 18
f 12 20 30
f 12 30 34
f 12 34 33
f 12 33 25
f 12 25 24
f 12 24 28
f 12 28 19
f 13 21 14
f 14 21 22
f 15 19 28
f 15 28 23
f 16 23 17
f 17 24 25
f 17 25 26
f 17 26 27
f 17 27 18
f 17 23 28
f 17 28 24
f 20 29 30
f 21 31 32
f 21 32 22
f 22 32 30
f 22 30 29
f 25 33 26
f 26 33 34
f 26 34 32
f 26 32 35
f 26 35 27
f 30 32 34
f 31 35 32

