# https://github.com/mikedh/trimesh
v -0.01773053 0.01906150 0.03018899
v -0.01679788 0.01839353 0.03018899
v -0.01679660 0.01839353 0.03018633
v -0.01773053 0.01906150 0.00631601
v -0.01773053 -0.01906150 0.03018899
v -0.01679660 0.01206084 0.03018899
v -0.01679660 0.01839353 0.00306338
v -0.01773053 0.01863236 0.00306338
v -0.01715624 0.01863236 0.00306338
v -0.01773053 -0.01906150 0.00306338
v -0.01679660 -0.01839353 0.03018899
v -0.01679660 -0.01791960 0.00306338
v -0.01679706 -0.01839353 0.00306338
v -0.01679660 -0.01839353 0.00380684
f 1 2 3
f 1 3 7
f 1 7 4
f 1 4 8
f 1 8 10
f 1 10 5
f 1 5 11
f 1 11 6
f 1 6 2
f 2 6 3
f 3 6 11
f 3 11 14
f 3 14 12
f 3 12 7
f 4 7 9
f 4 9 8
f 5 10 14
f 5 14 11
f 7 12 13
f 7 13 10
f 7 10 8
f 7 8 9
f 10 13 14
f 12 14 13

