# https://github.com/mikedh/trimesh
v -0.01477971 -0.03346334 0.05044000
v -0.02706852 -0.03346334 0.05044000
v -0.01477971 -0.03879896 0.05044000
v -0.01477971 -0.03346334 -0.00044000
v -0.02839738 -0.03400080 0.05044000
v -0.03959345 -0.03346334 0.05038522
v -0.03559432 -0.03879896 0.05044000
v -0.01477971 -0.03957407 0.05041012
v -0.01477971 -0.03879896 -0.00044000
v -0.02680475 -0.03346334 -0.00044000
v -0.02999502 -0.03480049 0.05044000
v -0.03959345 -0.03942519 0.05038522
v -0.03781996 -0.03942519 0.05041510
v -0.03719698 -0.03879896 0.05042506
v -0.03479800 -0.03799927 0.05044000
v -0.03399667 -0.03720025 0.05044000
v -0.03979944 -0.03346334 0.05029059
v -0.03799581 -0.03959933 0.05040514
v -0.01477971 -0.03959933 0.05040514
v -0.01477971 -0.03942519 -0.00041510
v -0.03559432 -0.03879896 -0.00044000
v -0.02839738 -0.03400080 -0.00044000
v -0.03959345 -0.03346334 -0.00038522
v -0.03879714 -0.03959933 0.05039517
v -0.03984214 -0.03511736 0.05027066
v -0.04008079 -0.03942519 0.05015611
v -0.03959596 -0.03959933 0.05038023
v -0.04021643 -0.03346334 0.05009137
v -0.03959596 -0.04021942 0.05008639
v -0.01477971 -0.04021942 0.05008639
v -0.03719698 -0.03942519 -0.00041510
v -0.01477971 -0.03959933 -0.00040514
v -0.03719698 -0.03879896 -0.00042506
v -0.03479800 -0.03799927 -0.00044000
v -0.03799581 -0.03942519 -0.00041012
v -0.02999502 -0.03480049 -0.00044000
v -0.04021643 -0.03346334 -0.00009137
v -0.03399667 -0.03720025 -0.00044000
v -0.03959345 -0.03942519 -0.00038522
v -0.04016619 -0.03713401 0.05011627
v -0.04021643 -0.03942519 0.05009137
v -0.04021643 -0.03959933 0.05008639
v -0.04014359 -0.04014635 0.04998678
v -0.04044000 -0.03346334 0.04939909
v -0.03959596 -0.04044000 0.04939411
v -0.01477971 -0.04044000 0.04939411
v -0.03799581 -0.03959933 -0.00040514
v -0.01477971 -0.03961914 -0.00039517
v -0.03879714 -0.03959933 -0.00039517
v -0.04044000 -0.03346334 0.00060091
v -0.04021643 -0.03942519 -0.00009137
v -0.03959596 -0.03959933 -0.00038023
v -0.04044000 -0.03942519 0.04939909
v -0.04044000 -0.03959933 0.04939411
v -0.04021643 -0.04021942 0.04939411
v -0.03959596 -0.04044000 0.00060589
v -0.01477971 -0.04044000 0.00060589
v -0.03959596 -0.04021942 -0.00008639
v -0.01477971 -0.04021942 -0.00008639
v -0.04044000 -0.03942519 0.00060091
v -0.04021643 -0.03959933 -0.00008639
v -0.04014359 -0.04014635 0.00001322
v -0.04044000 -0.03959933 0.00060589
v -0.04021643 -0.04021942 0.00060589
v -0.01477971 -0.04022693 -0.00006647
f 1 2 5
f 1 5 11
f 1 11 16
f 1 16 15
f 1 15 7
f 1 7 3
f 1 3 8
f 1 8 19
f 1 19 30
f 1 30 46
f 1 46 57
f 1 57 65
f 1 65 59
f 1 59 48
f 1 48 32
f 1 32 20
f 1 20 9
f 1 9 4
f 1 4 10
f 1 10 23
f 1 23 37
f 1 37 50
f 1 50 44
f 1 44 28
f 1 28 17
f 1 17 6
f 1 6 2
f 2 6 5
f 3 7 8
f 4 9 21
f 4 21 34
f 4 34 38
f 4 38 36
f 4 36 22
f 4 22 10
f 5 6 11
f 6 12 13
f 6 13 14
f 6 14 7
f 6 7 15
f 6 15 16
f 6 16 11
f 6 17 12
f 7 14 13
f 7 13 8
f 8 13 18
f 8 18 19
f 9 20 31
f 9 31 21
f 10 22 23
f 12 24 13
f 12 17 25
f 12 25 26
f 12 26 27
f 12 27 24
f 13 24 18
f 17 28 25
f 18 24 29
f 18 29 30
f 18 30 19
f 20 32 47
f 20 47 31
f 21 33 23
f 21 23 34
f 21 31 35
f 21 35 33
f 22 36 23
f 23 36 38
f 23 38 34
f 23 33 39
f 23 39 51
f 23 51 37
f 24 27 29
f 25 28 40
f 25 40 26
f 26 40 41
f 26 41 42
f 26 42 27
f 27 42 43
f 27 43 29
f 28 41 40
f 28 44 53
f 28 53 41
f 29 43 45
f 29 45 46
f 29 46 30
f 31 47 35
f 32 48 47
f 33 35 39
f 35 47 49
f 35 49 39
f 37 51 60
f 37 60 50
f 39 49 52
f 39 52 51
f 41 53 54
f 41 54 42
f 42 54 43
f 43 54 55
f 43 55 45
f 44 50 60
f 44 60 63
f 44 63 54
f 44 54 53
f 45 55 64
f 45 64 56
f 45 56 57
f 45 57 46
f 47 48 58
f 47 58 49
f 48 59 58
f 49 58 52
f 51 52 61
f 51 61 63
f 51 63 60
f 52 58 62
f 52 62 61
f 54 63 64
f 54 64 55
f 56 64 62
f 56 62 58
f 56 58 65
f 56 65 57
f 58 59 65
f 61 62 63
f 62 64 63

