# https://github.com/mikedh/trimesh
v -0.00163228 -0.00799947 0.00140205
v -0.00163228 -0.00799790 0.00060376
v -0.00161532 -0.00796815 0.00060376
v -0.00161496 -0.00796815 0.00140205
v -0.00163228 -0.00799947 0.02065707
v -0.00163228 -0.00751713 -0.00002591
v -0.00149127 -0.00744509 0.00003172
v -0.00143685 -0.00756724 0.00060376
v -0.00161496 -0.00796815 0.02136571
v -0.00163149 -0.00799790 0.02136571
v -0.00163228 0.00145471 0.02136571
v -0.00163228 -0.00679988 -0.00021801
v -0.00136109 -0.00679988 -0.00008141
v -0.00109774 -0.00673567 0.00060376
v -0.00112192 -0.00679988 0.00060376
v -0.00109774 -0.00595109 -0.00007501
v -0.00143685 -0.00756724 0.02136571
v -0.00163228 0.00799918 0.02136571
v -0.00163228 -0.00519782 -0.00038664
v -0.00120003 -0.00519782 -0.00032474
v -0.00109774 -0.00519782 -0.00026070
v -0.00109774 -0.00673567 0.02136571
v -0.00112192 -0.00679988 0.02136571
v -0.00163228 0.00799918 0.00134655
v -0.00161569 0.00796786 0.02136571
v -0.00163228 -0.00439758 -0.00042506
v -0.00120003 -0.00439758 -0.00040798
v -0.00109774 -0.00439758 -0.00035889
v -0.00109774 0.00106633 0.02136571
v -0.00161496 0.00796630 0.00140418
v -0.00161532 0.00796630 0.00060162
v -0.00163228 0.00799762 0.00060162
v -0.00143685 0.00756696 0.02136571
v -0.00161496 0.00796630 0.02059944
v -0.00163228 -0.00359733 -0.00043360
v -0.00120003 -0.00359733 -0.00043360
v -0.00109774 -0.00359733 -0.00038664
v -0.00109811 0.00304424 0.02136571
v -0.00109774 0.00673382 0.02068055
v -0.00143685 0.00756696 0.00060162
v -0.00149127 0.00744481 0.00003385
v -0.00163228 0.00798039 0.00057814
v -0.00112192 0.00679803 0.02136571
v -0.00163228 -0.00279709 -0.00044000
v -0.00109774 -0.00039948 -0.00042506
v -0.00109774 -0.00199684 -0.00040798
v -0.00120003 -0.00279709 -0.00044000
v -0.00109889 0.00673852 0.02136571
v -0.00109774 0.00673382 0.00060162
v -0.00112192 0.00679803 0.00060162
v -0.00109774 0.00595080 -0.00007501
v -0.00136109 0.00679803 -0.00007927
v -0.00163228 0.00751684 -0.00003018
v -0.00109774 0.00645350 0.00029426
v -0.00163228 0.00323060 -0.00044000
v -0.00109774 0.00109608 -0.00042506
v -0.00120003 0.00279837 -0.00044000
v -0.00109774 0.00589599 -0.00009635
v -0.00109774 0.00519754 -0.00026070
v -0.00120003 0.00519754 -0.00032474
v -0.00163228 0.00679803 -0.00022015
v -0.00163228 0.00721460 -0.00011556
v -0.00163228 0.00403084 -0.00043360
v -0.00109774 0.00269658 -0.00040798
v -0.00120003 0.00359861 -0.00043360
v -0.00109774 0.00506756 -0.00028418
v -0.00109774 0.00439886 -0.00035889
v -0.00120003 0.00439886 -0.00040798
v -0.00163228 0.00563133 -0.00038450
v -0.00163228 0.00644567 -0.00027565
v -0.00163228 0.00483109 -0.00042506
v -0.00109774 0.00350309 -0.00039091
v -0.00109774 0.00428454 -0.00036743
f 1 2 3
f 1 3 4
f 1 4 9
f 1 9 5
f 1 5 11
f 1 11 18
f 1 18 24
f 1 24 32
f 1 32 42
f 1 42 53
f 1 53 62
f 1 62 61
f 1 61 70
f 1 70 69
f 1 69 71
f 1 71 63
f 1 63 55
f 1 55 44
f 1 44 35
f 1 35 26
f 1 26 19
f 1 19 12
f 1 12 6
f 1 6 2
f 2 6 7
f 2 7 3
f 3 8 4
f 3 7 8
f 4 8 17
f 4 17 9
f 5 9 10
f 5 10 11
f 6 12 13
f 6 13 7
f 7 14 15
f 7 15 8
f 7 13 16
f 7 16 14
f 8 15 23
f 8 23 17
f 9 17 23
f 9 23 22
f 9 22 29
f 9 29 38
f 9 38 48
f 9 48 43
f 9 43 33
f 9 33 25
f 9 25 18
f 9 18 11
f 9 11 10
f 12 19 20
f 12 20 13
f 13 20 21
f 13 21 16
f 14 22 23
f 14 23 15
f 14 16 21
f 14 21 28
f 14 28 37
f 14 37 46
f 14 46 45
f 14 45 56
f 14 56 64
f 14 64 72
f 14 72 73
f 14 73 67
f 14 67 66
f 14 66 59
f 14 59 58
f 14 58 51
f 14 51 54
f 14 54 49
f 14 49 39
f 14 39 29
f 14 29 22
f 18 25 24
f 19 26 27
f 19 27 20
f 20 28 21
f 20 27 28
f 24 30 31
f 24 31 32
f 24 25 30
f 25 33 34
f 25 34 30
f 26 35 36
f 26 36 27
f 27 37 28
f 27 36 37
f 29 39 38
f 30 34 33
f 30 33 40
f 30 40 31
f 31 40 41
f 31 41 32
f 32 41 42
f 33 43 50
f 33 50 40
f 35 44 47
f 35 47 36
f 36 45 46
f 36 46 37
f 36 47 45
f 38 39 48
f 39 49 48
f 40 50 41
f 41 51 52
f 41 52 53
f 41 53 42
f 41 50 49
f 41 49 54
f 41 54 51
f 43 48 50
f 44 55 57
f 44 57 47
f 45 47 57
f 45 57 56
f 48 49 50
f 51 58 52
f 52 58 59
f 52 59 60
f 52 60 61
f 52 61 62
f 52 62 53
f 55 63 65
f 55 65 57
f 56 57 65
f 56 65 64
f 59 66 60
f 60 67 68
f 60 68 69
f 60 69 70
f 60 70 61
f 60 66 67
f 63 71 65
f 64 65 72
f 65 71 68
f 65 68 73
f 65 73 72
f 67 73 68
f 68 71 69

