# https://github.com/mikedh/trimesh
v 0.03027239 -0.02732516 0.02863429
v 0.01873904 -0.02732516 0.02863429
v 0.03027239 -0.02823538 0.02863429
v 0.03027239 -0.02732516 -0.00044000
v 0.01873904 -0.02732516 0.00057885
v 0.01873904 -0.02823538 0.02863429
v 0.03027239 -0.02823538 -0.00044000
v 0.02040085 -0.02732516 -0.00044000
v 0.01896595 -0.02732516 -0.00009564
v 0.01873904 -0.02823538 0.00027149
v 0.02040085 -0.02823538 -0.00044000
v 0.01960042 -0.02823538 -0.00042577
v 0.01960042 -0.02732516 -0.00041723
v 0.01889709 -0.02823538 -0.00010702
f 1 2 6
f 1 6 3
f 1 3 7
f 1 7 4
f 1 4 8
f 1 8 13
f 1 13 9
f 1 9 5
f 1 5 2
f 2 5 10
f 2 10 6
f 3 6 10
f 3 10 14
f 3 14 12
f 3 12 11
f 3 11 7
f 4 7 11
f 4 11 8
f 5 9 10
f 8 12 13
f 8 11 12
f 9 13 14
f 9 14 10
f 12 14 13

