# https://github.com/mikedh/trimesh
v 0.02096033 -0.02801344 0.04276766
v 0.02096033 -0.02801344 0.04976697
v 0.02096033 -0.02745905 0.04276766
v 0.04043809 -0.02801344 0.04276766
v 0.02096033 -0.02745905 0.04976697
v 0.04032178 -0.02801344 0.04976697
v 0.04043809 -0.02745905 0.04276766
v 0.04043809 -0.02801344 0.04939971
v 0.04032178 -0.02745905 0.04976697
v 0.04032559 -0.02801344 0.04975807
v 0.04043809 -0.02745905 0.04939971
f 1 2 5
f 1 5 3
f 1 3 7
f 1 7 4
f 1 4 8
f 1 8 10
f 1 10 6
f 1 6 2
f 2 6 9
f 2 9 5
f 3 5 9
f 3 9 11
f 3 11 7
f 4 7 11
f 4 11 8
f 6 10 9
f 8 11 10
f 9 10 11

