# https://github.com/mikedh/trimesh
v -0.01798147 0.02945043 0.04859724
v -0.01799906 0.02945043 0.04939909
v -0.01873551 0.02760647 0.04939909
v -0.01872012 0.02760647 0.04859724
v -0.01798147 0.02945043 0.00140276
v -0.01814195 0.02945043 0.04984733
v -0.01897294 0.02760647 0.05006647
v -0.01872012 0.02760647 0.00139778
v -0.01873551 0.02760647 0.00060091
v -0.01799906 0.02945043 0.00060091
v -0.01821230 0.02945043 0.04999674
v -0.01897514 0.02760647 0.05007145
v -0.01897514 0.02760647 -0.00007145
v -0.01821230 0.02945043 0.00000326
v -0.01845852 0.02945043 0.05015113
v -0.01960167 0.02760647 0.05035533
v -0.01960167 0.02760647 -0.00035533
v -0.01875530 0.02945043 -0.00025074
v -0.01875530 0.02945043 0.05025074
v -0.01935106 0.02945043 0.05043004
v -0.01960167 0.02840012 0.05041510
v -0.03959143 0.02760647 0.05038522
v -0.03959803 0.02760647 -0.00038522
v -0.01960167 0.02840012 -0.00041510
v -0.01960167 0.02919990 -0.00044000
v -0.01960167 0.02945043 -0.00044000
v -0.01960167 0.02945043 0.05044000
v -0.01960167 0.02919990 0.05044000
v -0.02040188 0.02840012 0.05041510
v -0.03959803 0.02760647 0.05038522
v -0.03959803 0.02945043 -0.00038522
v -0.02065249 0.02945043 -0.00044000
v -0.02040188 0.02919990 -0.00044000
v -0.02040188 0.02840012 -0.00041510
v -0.04021797 0.02760647 -0.00009137
v -0.02040188 0.02945043 0.05044000
v -0.02040188 0.02919990 0.05044000
v -0.03959803 0.02945043 0.05038522
v -0.04021797 0.02760647 0.05009137
v -0.04021797 0.02945043 -0.00009137
v -0.04022017 0.02760647 -0.00008639
v -0.04021797 0.02945043 0.05009137
v -0.04044000 0.02760647 0.04939909
v -0.04028831 0.02945043 0.00012777
v -0.04044000 0.02945043 0.00060091
v -0.04044000 0.02760647 0.00060091
v -0.04044000 0.02945043 0.04939909
f 1 2 3
f 1 3 4
f 1 4 8
f 1 8 5
f 1 5 10
f 1 10 14
f 1 14 18
f 1 18 26
f 1 26 32
f 1 32 31
f 1 31 40
f 1 40 44
f 1 44 45
f 1 45 47
f 1 47 42
f 1 42 38
f 1 38 36
f 1 36 27
f 1 27 20
f 1 20 19
f 1 19 15
f 1 15 11
f 1 11 6
f 1 6 2
f 2 6 3
f 3 6 7
f 3 7 12
f 3 12 16
f 3 16 22
f 3 22 30
f 3 30 39
f 3 39 43
f 3 43 46
f 3 46 41
f 3 41 35
f 3 35 23
f 3 23 17
f 3 17 13
f 3 13 9
f 3 9 8
f 3 8 4
f 5 8 9
f 5 9 10
f 6 11 12
f 6 12 7
f 9 13 10
f 10 13 14
f 11 15 12
f 12 15 16
f 13 17 18
f 13 18 14
f 15 19 16
f 16 19 20
f 16 20 21
f 16 21 22
f 17 23 24
f 17 24 18
f 18 24 25
f 18 25 26
f 20 27 28
f 20 28 21
f 21 28 37
f 21 37 29
f 21 29 30
f 21 30 22
f 23 31 32
f 23 32 33
f 23 33 34
f 23 34 24
f 23 35 40
f 23 40 31
f 24 34 33
f 24 33 25
f 25 33 32
f 25 32 26
f 27 36 37
f 27 37 28
f 29 37 30
f 30 37 36
f 30 36 38
f 30 38 42
f 30 42 39
f 35 41 40
f 39 42 47
f 39 47 43
f 40 41 44
f 41 45 44
f 41 46 45
f 43 47 45
f 43 45 46

