# https://github.com/mikedh/trimesh
v 0.04043872 0.02597426 0.04939411
v 0.04021662 0.02597426 0.05009137
v 0.04043872 0.02486742 0.04939411
v 0.04043872 0.02597426 0.00060589
v 0.04021662 0.02486742 0.05009137
v 0.03959842 0.02597426 0.05041012
v 0.04043872 0.02486742 0.00060589
v 0.04021662 0.02597426 -0.00008639
v 0.03959842 0.02486742 0.05041012
v 0.03879773 0.02597426 0.05043502
v 0.04021662 0.02486742 -0.00008639
v 0.03985447 0.02486742 -0.00027565
v 0.03959842 0.02597426 -0.00040514
v 0.03879773 0.02486742 0.05043502
v 0.02737585 0.02597426 0.05044000
v 0.03959842 0.02486742 -0.00040514
v 0.03882319 0.02597426 -0.00043502
v 0.02737585 0.02486742 0.05044000
v 0.02598667 0.02597426 0.05044000
v 0.03879773 0.02486742 -0.00043502
v 0.02737585 0.02486742 -0.00044000
v 0.02737585 0.02597426 -0.00044000
v 0.02598667 0.02486742 0.05044000
v 0.02598667 0.02597426 -0.00044000
v 0.02598667 0.02486742 -0.00044000
f 1 2 5
f 1 5 3
f 1 3 7
f 1 7 4
f 1 4 8
f 1 8 13
f 1 13 17
f 1 17 22
f 1 22 24
f 1 24 19
f 1 19 15
f 1 15 10
f 1 10 6
f 1 6 2
f 2 6 9
f 2 9 5
f 3 5 9
f 3 9 14
f 3 14 18
f 3 18 23
f 3 23 25
f 3 25 21
f 3 21 20
f 3 20 16
f 3 16 12
f 3 12 11
f 3 11 7
f 4 7 11
f 4 11 8
f 6 10 14
f 6 14 9
f 8 11 12
f 8 12 13
f 10 15 18
f 10 18 14
f 12 16 13
f 13 16 17
f 15 19 23
f 15 23 18
f 16 20 17
f 17 20 21
f 17 21 22
f 19 24 25
f 19 25 23
f 21 25 24
f 21 24 22

