# https://github.com/mikedh/trimesh
v 0.02173874 0.02750951 0.01726474
v 0.02173874 0.02702372 0.01726474
v 0.02173874 0.02791487 0.01692333
v 0.01873933 0.02750951 0.01726474
v 0.01875078 0.02702372 0.01726474
v 0.02173874 0.02702372 -0.00044000
v 0.01873933 0.02791487 0.01692333
v 0.02173874 0.02791487 -0.00043827
v 0.01873933 0.02729012 0.01726474
v 0.01874197 0.02722766 0.01726474
v 0.01873933 0.02722452 0.01659925
v 0.01873933 0.02717219 0.01579859
v 0.01874931 0.02702372 0.01659925
v 0.02119964 0.02702372 -0.00044000
v 0.02173874 0.02759997 -0.00044000
v 0.01873933 0.02791487 0.00041612
v 0.02088487 0.02791487 -0.00043827
v 0.01874755 0.02702372 0.01499966
v 0.01874784 0.02702372 0.01579859
v 0.01873933 0.02717044 0.01499966
v 0.02119964 0.02759997 -0.00044000
v 0.02039980 0.02702372 -0.00043827
v 0.01881920 0.02791487 0.00018563
v 0.01891286 0.02702372 0.00010071
v 0.01875430 0.02702372 0.00060156
v 0.01874109 0.02750951 0.00060156
v 0.01873933 0.02758592 0.00060156
v 0.02039980 0.02791487 -0.00043653
v 0.01874755 0.02702372 0.01442255
v 0.01873933 0.02717044 0.01456986
v 0.01960025 0.02702372 -0.00040880
v 0.02008532 0.02791487 -0.00042787
v 0.01894516 0.02791487 -0.00008819
v 0.01897922 0.02702372 -0.00008992
v 0.01875078 0.02702372 0.00082512
v 0.01873933 0.02729012 0.00109028
v 0.01874784 0.02702372 0.00402431
v 0.01873933 0.02717672 0.00417682
v 0.01932365 0.02791487 -0.00028056
v 0.01960025 0.02791487 -0.00040534
v 0.01942583 0.02702372 -0.00032042
v 0.01874814 0.02702372 0.00322538
v 0.01873933 0.02718012 0.00338135
f 1 2 6
f 1 6 15
f 1 15 8
f 1 8 3
f 1 3 7
f 1 7 4
f 1 4 9
f 1 9 10
f 1 10 5
f 1 5 2
f 2 5 13
f 2 13 19
f 2 19 18
f 2 18 29
f 2 29 37
f 2 37 42
f 2 42 35
f 2 35 25
f 2 25 24
f 2 24 34
f 2 34 41
f 2 41 31
f 2 31 22
f 2 22 14
f 2 14 6
f 3 8 17
f 3 17 28
f 3 28 32
f 3 32 40
f 3 40 39
f 3 39 33
f 3 33 23
f 3 23 16
f 3 16 7
f 4 7 16
f 4 16 27
f 4 27 36
f 4 36 43
f 4 43 38
f 4 38 30
f 4 30 20
f 4 20 12
f 4 12 11
f 4 11 9
f 5 10 11
f 5 11 12
f 5 12 13
f 6 14 21
f 6 21 15
f 8 15 21
f 8 21 17
f 9 11 10
f 12 18 19
f 12 19 13
f 12 20 18
f 14 22 21
f 16 23 24
f 16 24 25
f 16 25 26
f 16 26 27
f 17 22 28
f 17 21 22
f 18 20 30
f 18 30 29
f 22 31 32
f 22 32 28
f 23 33 34
f 23 34 24
f 25 35 36
f 25 36 26
f 26 36 27
f 29 30 37
f 30 38 37
f 31 39 40
f 31 40 32
f 31 41 39
f 33 39 41
f 33 41 34
f 35 42 43
f 35 43 36
f 37 43 42
f 37 38 43

