# https://github.com/mikedh/trimesh
v -0.01680044 0.03947828 0.05041739
v -0.01680044 0.03960001 0.05041242
v -0.03559917 0.03947828 0.05041739
v -0.01680044 0.03947828 -0.00041739
v -0.03799876 0.03960001 0.05041242
v -0.01680044 0.03990967 0.05025319
v -0.03799876 0.03947828 0.05041242
v -0.03627716 0.03947828 -0.00041739
v -0.01680044 0.03960001 -0.00041242
v -0.03959772 0.04021997 0.05008898
v -0.03959772 0.03960001 0.05038754
v -0.01680044 0.04021997 0.05008898
v -0.03959772 0.03947828 0.05038754
v -0.03799876 0.03947828 -0.00041242
v -0.03799876 0.03960001 -0.00041242
v -0.01680044 0.04021997 -0.00008898
v -0.01680044 0.04032985 0.04974563
v -0.03959772 0.04044000 0.04939731
v -0.04014613 0.04014664 0.04999443
v -0.03969259 0.03947828 0.05034275
v -0.04021786 0.03960001 0.05008898
v -0.03959772 0.03947828 -0.00038754
v -0.03959772 0.03960001 -0.00038754
v -0.03959772 0.04021997 -0.00008898
v -0.01680044 0.04033003 0.00025437
v -0.01680044 0.04044000 0.04939731
v -0.04021786 0.04021997 0.04939731
v -0.03959772 0.04044000 0.00060269
v -0.04044000 0.03960001 0.04939731
v -0.04021786 0.03947828 0.05008898
v -0.04025257 0.03947828 0.04998448
v -0.04012530 0.03947828 -0.00013376
v -0.04021786 0.03960001 -0.00008898
v -0.04014613 0.04014664 0.00000557
v -0.01680044 0.04044000 0.00060269
v -0.04021786 0.04021997 0.00060269
v -0.04044000 0.03947828 0.04939731
v -0.04044000 0.03960001 0.00060269
v -0.04021786 0.03947828 -0.00008898
v -0.04044000 0.03947828 0.00060269
f 1 2 5
f 1 5 3
f 1 3 7
f 1 7 13
f 1 13 20
f 1 20 30
f 1 30 31
f 1 31 37
f 1 37 40
f 1 40 39
f 1 39 32
f 1 32 22
f 1 22 14
f 1 14 8
f 1 8 4
f 1 4 9
f 1 9 16
f 1 16 25
f 1 25 35
f 1 35 26
f 1 26 17
f 1 17 12
f 1 12 6
f 1 6 2
f 2 6 5
f 3 5 7
f 4 8 15
f 4 15 9
f 5 6 10
f 5 10 11
f 5 11 13
f 5 13 7
f 6 12 10
f 8 14 15
f 9 15 24
f 9 24 16
f 10 12 17
f 10 17 18
f 10 18 19
f 10 19 11
f 11 20 13
f 11 19 21
f 11 21 20
f 14 22 23
f 14 23 15
f 15 23 24
f 16 24 25
f 17 26 18
f 18 27 19
f 18 26 35
f 18 35 28
f 18 28 36
f 18 36 27
f 19 27 29
f 19 29 21
f 20 21 30
f 21 29 31
f 21 31 30
f 22 32 23
f 23 32 33
f 23 33 34
f 23 34 24
f 24 34 28
f 24 28 25
f 25 28 35
f 27 36 38
f 27 38 29
f 28 34 36
f 29 37 31
f 29 38 40
f 29 40 37
f 32 39 33
f 33 38 34
f 33 39 40
f 33 40 38
f 34 38 36

