# https://github.com/mikedh/trimesh
v 0.04044000 -0.02679583 0.04939624
v 0.04021908 -0.02679583 0.05008781
v 0.04044000 -0.02745893 0.04939624
v 0.04044000 -0.02679583 0.03452541
v 0.04021696 -0.02680017 0.05008995
v 0.04021696 -0.02745893 0.05008995
v 0.03959881 -0.02679583 0.05040798
v 0.04044000 -0.02745893 0.03452541
v 0.04043788 -0.02679583 0.02863429
v 0.03970715 -0.02745893 0.05035249
v 0.03879798 -0.02679583 0.05044000
v 0.03959881 -0.02745893 0.05040798
v 0.04043788 -0.02745893 0.02863429
v 0.01876028 -0.02679583 0.02863429
v 0.02040442 -0.02679583 0.05044000
v 0.03879798 -0.02745893 0.05044000
v 0.01873904 -0.02745893 0.02863429
v 0.01873904 -0.02723124 0.02863429
v 0.01873904 -0.02718508 0.03100141
v 0.01873904 -0.02717898 0.03606010
v 0.01876028 -0.02679583 0.03452541
v 0.02040442 -0.02745893 0.05044000
v 0.01960359 -0.02679583 0.05040798
v 0.01960359 -0.02745893 0.05041225
v 0.01873904 -0.02745893 0.04944107
v 0.01873904 -0.02717898 0.04901631
v 0.01876240 -0.02679583 0.04939624
v 0.01907254 -0.02745893 0.05014971
v 0.01898120 -0.02679583 0.05008781
v 0.01876453 -0.02745893 0.04951577
v 0.01873904 -0.02718190 0.04939624
v 0.01896633 -0.02745893 0.05009208
f 1 2 3
f 1 3 8
f 1 8 4
f 1 4 9
f 1 9 14
f 1 14 21
f 1 21 27
f 1 27 29
f 1 29 23
f 1 23 15
f 1 15 11
f 1 11 7
f 1 7 2
f 2 5 6
f 2 6 3
f 2 7 5
f 3 6 10
f 3 10 12
f 3 12 16
f 3 16 22
f 3 22 24
f 3 24 28
f 3 28 32
f 3 32 30
f 3 30 25
f 3 25 17
f 3 17 13
f 3 13 8
f 4 8 13
f 4 13 9
f 5 7 10
f 5 10 6
f 7 11 16
f 7 16 12
f 7 12 10
f 9 13 17
f 9 17 18
f 9 18 14
f 11 15 22
f 11 22 16
f 14 18 19
f 14 19 20
f 14 20 26
f 14 26 21
f 15 23 24
f 15 24 22
f 17 25 31
f 17 31 26
f 17 26 20
f 17 20 19
f 17 19 18
f 21 26 27
f 23 28 24
f 23 29 28
f 25 30 29
f 25 29 31
f 26 31 27
f 27 31 29
f 28 29 32
f 29 30 32

