# https://github.com/mikedh/trimesh
v -0.01160001 0.01559891 0.05044000
v -0.01318014 0.01559891 0.05044000
v -0.01134614 0.01479943 0.05044000
v -0.01134614 0.01559891 0.05043702
v -0.01318014 0.01609610 0.05043851
v -0.01318014 0.00041954 0.05044000
v -0.01134614 0.00041954 0.05044000
v -0.01134614 0.01609610 0.05028831
v -0.01160001 0.01609610 0.05035875
v -0.01239986 0.01609610 0.05042434
v -0.01318014 0.01609610 0.04663302
v -0.01318014 0.00041954 0.04663302
v -0.01134614 0.00041954 0.04665389
v -0.01134614 0.01609610 0.04663302
v -0.01135817 0.00041954 0.04663302
v -0.01134614 0.00042260 0.04663302
f 1 2 6
f 1 6 7
f 1 7 3
f 1 3 4
f 1 4 5
f 1 5 2
f 2 5 11
f 2 11 12
f 2 12 6
f 3 7 13
f 3 13 16
f 3 16 14
f 3 14 8
f 3 8 4
f 4 8 9
f 4 9 10
f 4 10 5
f 5 10 9
f 5 9 8
f 5 8 14
f 5 14 11
f 6 12 15
f 6 15 13
f 6 13 7
f 11 14 16
f 11 16 15
f 11 15 12
f 13 15 16

