# https://github.com/mikedh/trimesh
v 0.02096032 -0.02745905 0.05043925
v 0.02039997 -0.02745905 0.05043925
v 0.02096032 -0.02801344 0.05043925
v 0.02096032 -0.02745905 0.04276698
v 0.01998660 -0.02801344 0.05043624
v 0.02039997 -0.02801344 0.05043925
v 0.01977253 -0.02745905 0.05042348
v 0.02096032 -0.02801344 0.04276698
v 0.01977253 -0.02745905 0.04276698
v 0.01977253 -0.02801344 0.05043024
v 0.01977253 -0.02801344 0.04276698
f 1 2 6
f 1 6 3
f 1 3 8
f 1 8 4
f 1 4 9
f 1 9 7
f 1 7 2
f 2 5 6
f 2 7 5
f 3 6 5
f 3 5 10
f 3 10 11
f 3 11 8
f 4 8 11
f 4 11 9
f 5 7 10
f 7 9 11
f 7 11 10

