# https://github.com/mikedh/trimesh
v 0.01873904 0.02794808 0.00039878
v 0.01866814 0.02794808 0.00060101
v 0.01808239 0.02949245 0.00021975
v 0.01808239 0.02975902 -0.00007531
v 0.01873904 0.02807647 0.00032252
v 0.01873904 0.02794808 0.03342928
v 0.01808239 0.02932738 0.00060101
v 0.01865965 0.02794808 0.00094912
v 0.01808239 0.02931882 0.00074025
v 0.01808239 0.02988129 -0.00013830
v 0.01873904 0.02909382 -0.00015488
v 0.01873904 0.04044000 0.03342928
v 0.01860386 0.02794808 0.03342928
v 0.01865246 0.02794808 0.00140332
v 0.01808239 0.02928580 0.00140332
v 0.01808239 0.03071768 -0.00041016
v 0.01873904 0.03006227 -0.00040685
v 0.01808239 0.04044000 0.03342928
v 0.01873904 0.04044000 0.00060101
v 0.01847865 0.02795419 0.03342928
v 0.01848045 0.02794808 0.03339613
v 0.01863362 0.02794808 0.00408873
v 0.01808239 0.02842007 0.03342928
v 0.01808239 0.02855458 0.02539627
v 0.01808239 0.02857537 0.02459727
v 0.01808239 0.03151982 -0.00044000
v 0.01873904 0.03086196 -0.00044000
v 0.01808239 0.04044000 0.00060101
v 0.01873904 0.04021868 -0.00009189
v 0.01808239 0.03879903 -0.00044000
v 0.01873904 0.03879903 -0.00044000
v 0.01808239 0.04021868 -0.00009189
v 0.01873904 0.03959995 -0.00041016
v 0.01808239 0.03951558 -0.00041348
v 0.01808239 0.03959995 -0.00041016
f 1 2 3
f 1 3 4
f 1 4 5
f 1 5 11
f 1 11 17
f 1 17 27
f 1 27 31
f 1 31 33
f 1 33 29
f 1 29 19
f 1 19 12
f 1 12 6
f 1 6 13
f 1 13 21
f 1 21 22
f 1 22 14
f 1 14 8
f 1 8 2
f 2 7 3
f 2 8 9
f 2 9 7
f 3 7 9
f 3 9 15
f 3 15 25
f 3 25 24
f 3 24 23
f 3 23 18
f 3 18 28
f 3 28 32
f 3 32 35
f 3 35 34
f 3 34 30
f 3 30 26
f 3 26 16
f 3 16 10
f 3 10 4
f 4 10 5
f 5 10 11
f 6 12 18
f 6 18 23
f 6 23 20
f 6 20 13
f 8 14 15
f 8 15 9
f 10 16 11
f 11 16 17
f 12 19 28
f 12 28 18
f 13 20 21
f 14 22 23
f 14 23 24
f 14 24 25
f 14 25 15
f 16 26 27
f 16 27 17
f 19 29 32
f 19 32 28
f 20 23 21
f 21 23 22
f 26 30 31
f 26 31 27
f 29 33 35
f 29 35 32
f 30 34 31
f 31 34 33
f 33 34 35

