# https://github.com/mikedh/trimesh
v -0.01638918 0.04044000 0.00860099
v -0.01638918 0.03055544 0.00860099
v -0.01638918 0.04044000 0.00694395
v -0.03879906 0.04044000 0.00860099
v -0.01638918 0.03055544 0.00694395
v -0.01726817 0.03012111 0.00860099
v -0.03929237 0.04044000 0.00694395
v -0.03929237 0.04044000 0.00859985
v -0.03929237 0.04018647 0.00860099
v -0.01726593 0.03012414 0.00694395
v -0.01726817 0.03012111 0.00700007
v -0.03929237 0.03012111 0.00860099
v -0.03929237 0.03012111 0.00694395
v -0.01732423 0.03012111 0.00694395
f 1 2 5
f 1 5 3
f 1 3 7
f 1 7 8
f 1 8 4
f 1 4 9
f 1 9 12
f 1 12 6
f 1 6 2
f 2 6 11
f 2 11 5
f 3 5 10
f 3 10 14
f 3 14 13
f 3 13 7
f 4 8 9
f 5 11 10
f 6 12 13
f 6 13 14
f 6 14 11
f 7 13 12
f 7 12 9
f 7 9 8
f 10 11 14

