# https://github.com/mikedh/trimesh
v -0.00463869 0.00999548 0.05044000
v -0.00463869 0.01079505 0.05040717
v -0.00515531 0.01159961 0.05040418
v -0.00515531 0.01079505 0.05043701
v -0.00515531 0.00999548 0.05044000
v -0.00463869 -0.01023549 0.05044000
v -0.00463869 0.01160459 0.05022511
v -0.00515531 0.01241911 0.05014452
v -0.00515531 -0.01075110 0.05044000
v -0.00515531 -0.01155316 0.05041911
v -0.00463869 -0.01103506 0.05040418
v -0.00463869 0.01218247 0.04998932
v -0.00515531 0.01256109 0.04991172
v -0.00515531 -0.01240754 0.05014900
v -0.00463869 -0.01187449 0.05013855
v -0.00463869 0.01236680 0.04939836
v -0.00482742 0.01256109 0.04939836
v -0.00504148 0.01256109 0.04973712
v -0.00515531 0.01256109 0.03519451
v -0.00515531 -0.01241750 0.05014303
v -0.00463869 -0.01218087 0.04998783
v -0.00463869 0.01236680 0.03580189
v -0.00482742 0.01256109 0.03519451
v -0.00515531 -0.01288579 0.03519451
v -0.00515531 -0.01280359 0.04966400
v -0.00463869 -0.01219332 0.04996843
v -0.00463914 0.01236680 0.03519451
v -0.00463869 0.01184371 0.03519451
v -0.00493341 -0.01266908 0.03519451
v -0.00515531 -0.01288579 0.04939687
v -0.00493341 -0.01266908 0.04939687
v -0.00463869 -0.01236519 0.04939687
v -0.00463869 -0.01236519 0.03519451
f 1 2 3
f 1 3 4
f 1 4 5
f 1 5 9
f 1 9 6
f 1 6 11
f 1 11 15
f 1 15 21
f 1 21 26
f 1 26 32
f 1 32 33
f 1 33 28
f 1 28 22
f 1 22 16
f 1 16 12
f 1 12 7
f 1 7 2
f 2 7 3
f 3 7 8
f 3 8 13
f 3 13 19
f 3 19 24
f 3 24 30
f 3 30 25
f 3 25 20
f 3 20 14
f 3 14 10
f 3 10 9
f 3 9 5
f 3 5 4
f 6 9 10
f 6 10 11
f 7 12 8
f 8 12 13
f 10 14 11
f 11 14 15
f 12 16 17
f 12 17 18
f 12 18 13
f 13 18 17
f 13 17 23
f 13 23 19
f 14 20 21
f 14 21 15
f 16 22 23
f 16 23 17
f 19 23 27
f 19 27 28
f 19 28 33
f 19 33 29
f 19 29 24
f 20 25 21
f 21 25 26
f 22 27 23
f 22 28 27
f 24 29 31
f 24 31 30
f 25 30 31
f 25 31 26
f 26 31 32
f 29 33 32
f 29 32 31

