# https://github.com/mikedh/trimesh
v -0.01438970 0.00859425 0.02126905
v -0.01438970 0.01783146 0.02126905
v -0.01318032 0.00859425 0.02126905
v -0.01438970 0.00859425 0.03135152
v -0.01399999 0.01775731 0.02126905
v -0.01438970 0.01783146 0.03135152
v -0.01435146 0.01782422 0.03135152
v -0.01318032 0.01756198 0.02126905
v -0.01318032 0.00859425 0.03135053
v -0.01437111 0.00859425 0.03135152
v -0.01391049 0.01773832 0.02126905
v -0.01399999 0.01775731 0.03135152
v -0.01345378 0.01763975 0.02126905
v -0.01333362 0.01760629 0.03135152
v -0.01318032 0.01756198 0.03135152
v -0.01345378 0.01763975 0.03135152
f 1 2 5
f 1 5 11
f 1 11 13
f 1 13 8
f 1 8 3
f 1 3 9
f 1 9 10
f 1 10 4
f 1 4 6
f 1 6 2
f 2 6 7
f 2 7 5
f 3 8 15
f 3 15 9
f 4 10 15
f 4 15 14
f 4 14 16
f 4 16 12
f 4 12 7
f 4 7 6
f 5 7 12
f 5 12 11
f 8 13 14
f 8 14 15
f 9 15 10
f 11 12 16
f 11 16 13
f 13 16 14

