# https://github.com/mikedh/trimesh
v 0.02096033 -0.02801344 0.04976698
v 0.02096033 -0.02801344 0.05044000
v 0.02096033 -0.02745905 0.04976698
v 0.04032166 -0.02801344 0.04976698
v 0.02096033 -0.02745905 0.05044000
v 0.03879967 -0.02801344 0.05044000
v 0.04032166 -0.02745905 0.04976698
v 0.04021931 -0.02801344 0.05009334
v 0.03879967 -0.02745905 0.05044000
v 0.03959952 -0.02801344 0.05041332
v 0.04021931 -0.02745905 0.05009334
v 0.03959952 -0.02745905 0.05041332
f 1 2 5
f 1 5 3
f 1 3 7
f 1 7 4
f 1 4 8
f 1 8 10
f 1 10 6
f 1 6 2
f 2 6 9
f 2 9 5
f 3 5 9
f 3 9 12
f 3 12 11
f 3 11 7
f 4 7 11
f 4 11 8
f 6 10 12
f 6 12 9
f 8 11 12
f 8 12 10

