# https://github.com/mikedh/trimesh
v -0.03618919 0.01957274 0.00613693
v -0.03618919 0.01957274 0.01098204
v -0.03618919 0.01999485 0.00613693
v -0.01818340 0.01957274 0.00613693
v -0.03618919 0.01999485 0.01098204
v -0.01814096 0.01957274 0.01098204
v -0.01840975 0.01999485 0.00613693
v -0.01812504 0.01957398 0.00613693
v -0.01812504 0.01957274 0.00620002
v -0.01840975 0.01999485 0.01098204
v -0.01812504 0.01957274 0.01022362
v -0.01812504 0.01957311 0.01098204
f 1 2 5
f 1 5 3
f 1 3 7
f 1 7 8
f 1 8 4
f 1 4 9
f 1 9 11
f 1 11 6
f 1 6 2
f 2 6 12
f 2 12 10
f 2 10 5
f 3 5 10
f 3 10 7
f 4 8 9
f 6 11 12
f 7 10 8
f 8 12 11
f 8 11 9
f 8 10 12

