# https://github.com/mikedh/trimesh
v -0.01386148 0.01772570 0.04323562
v -0.01345382 0.01763756 0.04323562
v -0.01386142 0.01772570 0.03587436
v -0.01386148 0.01772570 0.03587436
v -0.01386148 -0.00597000 0.04323562
v -0.01342862 0.01763060 0.03587436
v -0.01345382 0.01763756 0.03587436
v -0.01318038 0.01755869 0.04323562
v -0.01386142 0.01772570 0.03135152
v -0.01386148 -0.00597000 0.03587436
v -0.01318038 -0.00597000 0.04323562
v -0.01345389 0.01763756 0.03135152
v -0.01338801 0.01761900 0.03193316
v -0.01338801 0.01761900 0.03193200
v -0.01349676 0.01764683 0.03266370
v -0.01318038 0.01755869 0.03587436
v -0.01386142 -0.00597000 0.03135152
v -0.01318038 -0.00597000 0.03587436
v -0.01318045 0.01755869 0.03135152
v -0.01318045 -0.00597000 0.03135152
f 1 2 3
f 1 3 9
f 1 9 4
f 1 4 10
f 1 10 5
f 1 5 11
f 1 11 8
f 1 8 2
f 2 6 7
f 2 7 9
f 2 9 3
f 2 8 6
f 4 9 17
f 4 17 10
f 5 10 17
f 5 17 20
f 5 20 18
f 5 18 11
f 6 12 7
f 6 8 13
f 6 13 14
f 6 14 12
f 7 12 15
f 7 15 9
f 8 11 18
f 8 18 16
f 8 16 14
f 8 14 13
f 9 15 12
f 9 12 19
f 9 19 20
f 9 20 17
f 12 14 19
f 14 16 19
f 16 18 20
f 16 20 19

