# https://github.com/mikedh/trimesh
v 0.01876212 0.01816914 0.03737632
v 0.01876212 0.01816914 0.04939910
v 0.01876212 0.01865637 0.03737632
v 0.04044000 0.01816914 0.03737632
v 0.01880880 0.01816914 0.04954615
v 0.01876212 0.01865637 0.04939910
v 0.04044000 0.01865637 0.03737632
v 0.04044000 0.01816914 0.04939910
v 0.01898280 0.01816914 0.05009218
v 0.01898280 0.01865637 0.05009218
v 0.04044000 0.01865637 0.04939910
v 0.04021720 0.01816914 0.05009218
v 0.01960454 0.01816914 0.05041314
v 0.01960454 0.01865637 0.05041314
v 0.04021720 0.01865637 0.05009218
v 0.03959546 0.01816914 0.05041314
v 0.02040239 0.01816914 0.05044000
v 0.02040239 0.01865637 0.05044000
v 0.03959546 0.01865637 0.05041314
v 0.03879761 0.01816914 0.05044000
v 0.03879761 0.01865637 0.05044000
f 1 2 6
f 1 6 3
f 1 3 7
f 1 7 4
f 1 4 8
f 1 8 12
f 1 12 16
f 1 16 20
f 1 20 17
f 1 17 13
f 1 13 9
f 1 9 5
f 1 5 2
f 2 5 6
f 3 6 10
f 3 10 14
f 3 14 18
f 3 18 21
f 3 21 19
f 3 19 15
f 3 15 11
f 3 11 7
f 4 7 11
f 4 11 8
f 5 9 10
f 5 10 6
f 8 11 15
f 8 15 12
f 9 13 14
f 9 14 10
f 12 15 19
f 12 19 16
f 13 17 18
f 13 18 14
f 16 19 21
f 16 21 20
f 17 20 21
f 17 21 18

