# https://github.com/mikedh/trimesh
v -0.00674600 0.01430962 0.01112688
v -0.00698696 0.01448704 0.01112688
v -0.00674600 0.01417472 0.01112688
v -0.00674600 0.01430962 0.00060001
v -0.00703295 0.01452088 0.01112688
v -0.00703295 0.01452088 0.00060001
v -0.00808456 0.01417472 0.01112688
v -0.00674600 0.01417472 0.00028573
v -0.00674600 0.01428943 0.00046934
v -0.00799075 0.01520663 0.00018660
v -0.00712139 0.01458489 0.01112688
v -0.00758614 0.01492073 0.00060001
v -0.00792209 0.01516367 0.01112688
v -0.00808456 0.01527182 0.01112688
v -0.00808456 0.01417472 -0.00038002
v -0.00690939 0.01417472 -0.00004883
v -0.00708864 0.01448060 0.00007170
v -0.00808456 0.01523606 0.00015393
v -0.00808456 0.01526710 0.00028122
v -0.00808456 0.01527182 0.00060001
v -0.00798616 0.01520985 0.00060001
v -0.00798616 0.01520985 0.01112688
v -0.00805233 0.01525163 0.01112688
v -0.00808456 0.01448457 -0.00031693
v -0.00777469 0.01417472 -0.00035523
v -0.00699993 0.01417472 -0.00009276
v -0.00767445 0.01476833 -0.00001391
v -0.00808456 0.01508881 0.00001763
v -0.00808456 0.01478616 -0.00016373
f 1 2 5
f 1 5 11
f 1 11 13
f 1 13 22
f 1 22 23
f 1 23 14
f 1 14 7
f 1 7 3
f 1 3 8
f 1 8 9
f 1 9 4
f 1 4 2
f 2 4 6
f 2 6 5
f 3 7 15
f 3 15 25
f 3 25 26
f 3 26 16
f 3 16 8
f 4 9 10
f 4 10 6
f 5 6 11
f 6 10 12
f 6 12 13
f 6 13 11
f 7 14 20
f 7 20 19
f 7 19 18
f 7 18 28
f 7 28 29
f 7 29 24
f 7 24 15
f 8 16 17
f 8 17 9
f 9 17 10
f 10 17 18
f 10 18 19
f 10 19 20
f 10 20 21
f 10 21 12
f 12 21 13
f 13 21 22
f 14 23 20
f 15 24 25
f 16 26 17
f 17 26 27
f 17 27 28
f 17 28 18
f 20 23 21
f 21 23 22
f 24 29 26
f 24 26 25
f 26 29 27
f 27 29 28

