# https://github.com/mikedh/trimesh
v -0.03525180 0.01999497 0.02527187
v -0.03525180 0.01999497 0.03261257
v -0.03525180 0.02120329 0.02527187
v -0.01841062 0.01999497 0.02527187
v -0.03525180 0.02120329 0.03261257
v -0.01841226 0.01999497 0.03261257
v -0.03262521 0.02120329 0.02527187
v -0.01871730 0.02119986 0.02527187
v -0.01871730 0.02120329 0.02539690
v -0.01840897 0.01999497 0.02620023
v -0.02008253 0.02120329 0.03261257
v -0.01840897 0.01999497 0.02698776
v -0.01871895 0.02120329 0.03259604
v -0.01871565 0.02118720 0.03261257
v -0.01871730 0.02120329 0.02699710
v -0.01871565 0.02119986 0.02620023
v -0.01871895 0.02119986 0.03261257
f 1 2 5
f 1 5 3
f 1 3 7
f 1 7 8
f 1 8 4
f 1 4 10
f 1 10 12
f 1 12 6
f 1 6 2
f 2 6 14
f 2 14 17
f 2 17 11
f 2 11 5
f 3 5 11
f 3 11 13
f 3 13 15
f 3 15 9
f 3 9 7
f 4 8 9
f 4 9 10
f 6 12 13
f 6 13 14
f 7 9 8
f 9 15 16
f 9 16 10
f 10 16 12
f 11 17 13
f 12 16 13
f 13 17 14
f 13 16 15

