# https://github.com/mikedh/trimesh
v -0.01875978 0.02669355 0.04656025
v -0.01876402 0.02669391 0.04938415
v -0.01876190 0.02601234 0.04939909
v -0.01876190 0.02309181 0.04939909
v -0.01875978 0.02669355 0.02334152
v -0.01876402 0.02669391 0.04656025
v -0.01879161 0.02669391 0.04948376
v -0.01898048 0.02669391 0.05008639
v -0.01897836 0.02601234 0.05008141
v -0.01898260 0.02309181 0.05009137
v -0.01876190 0.02309181 0.00060091
v -0.01876190 0.02669355 0.00060091
v -0.02717423 0.02669391 -0.00043502
v -0.01898260 0.02601234 0.05009137
v -0.01960228 0.02669391 0.05040514
v -0.01960228 0.02601234 0.05041012
v -0.01937733 0.02309181 0.05029557
v -0.01898260 0.02309181 -0.00009137
v -0.01898260 0.02669355 -0.00009137
v -0.01960228 0.02669355 -0.00041012
v -0.02040235 0.02669355 -0.00043502
v -0.03114696 0.02669355 -0.00044000
v -0.03114696 0.02669391 -0.00043502
v -0.02040235 0.02669391 0.05043004
v -0.02040235 0.02601234 0.05044000
v -0.02011161 0.02309181 0.05043004
v -0.01960228 0.02309181 0.05041012
v -0.01960228 0.02309181 -0.00041012
v -0.02040235 0.02601234 -0.00044000
v -0.03879743 0.02669355 -0.00044000
v -0.03949139 0.02669355 -0.00041012
v -0.03959749 0.02669355 -0.00040514
v -0.04021505 0.02669355 -0.00008639
v -0.04043576 0.02669355 0.00061585
v -0.04043788 0.02669391 0.04577334
v -0.03114696 0.02669391 0.05044000
v -0.02040235 0.02309181 0.05044000
v -0.02040235 0.02309181 -0.00044000
v -0.03879743 0.02601305 -0.00044000
v -0.03959537 0.02309216 -0.00040514
v -0.03959749 0.02601305 -0.00040514
v -0.03982032 0.02309216 -0.00029059
v -0.04021505 0.02309216 -0.00008639
v -0.04043576 0.02601305 0.00061585
v -0.04043788 0.02669355 0.01204592
v -0.04043788 0.02669391 0.04939909
v -0.04044000 0.02669355 0.02620526
v -0.03879743 0.02669391 0.05044000
v -0.02086286 0.02309181 0.05044000
v -0.02086286 0.02309181 -0.00044000
v -0.03111300 0.02309322 -0.00044000
v -0.03879319 0.02309216 -0.00043502
v -0.04043364 0.02309216 0.00061585
v -0.04043788 0.02601305 0.01204592
v -0.04021930 0.02669391 0.05009137
v -0.04044000 0.02669355 0.04577334
v -0.04043788 0.02601305 0.04939909
v -0.04044000 0.02601305 0.02620526
v -0.03879743 0.02601305 0.05044000
v -0.03959962 0.02669391 0.05041012
v -0.03111300 0.02309287 0.05044000
v -0.03879319 0.02309216 0.05043502
v -0.03959537 0.02309216 0.05041012
v -0.04021505 0.02309216 0.05009137
v -0.04043364 0.02309216 0.04938415
v -0.04021930 0.02601305 0.05009137
v -0.04044000 0.02601305 0.04577334
v -0.03959962 0.02601305 0.05041012
f 1 2 3
f 1 3 4
f 1 4 11
f 1 11 5
f 1 5 6
f 1 6 2
f 2 6 13
f 2 13 23
f 2 23 35
f 2 35 46
f 2 46 55
f 2 55 60
f 2 60 48
f 2 48 36
f 2 36 24
f 2 24 15
f 2 15 8
f 2 8 7
f 2 7 3
f 3 7 8
f 3 8 9
f 3 9 4
f 4 9 10
f 4 10 17
f 4 17 27
f 4 27 26
f 4 26 37
f 4 37 49
f 4 49 50
f 4 50 38
f 4 38 28
f 4 28 18
f 4 18 11
f 5 11 12
f 5 12 6
f 6 12 13
f 8 14 10
f 8 10 9
f 8 15 16
f 8 16 14
f 10 14 17
f 11 18 19
f 11 19 12
f 12 19 13
f 13 19 20
f 13 20 21
f 13 21 22
f 13 22 30
f 13 30 23
f 14 16 17
f 15 24 25
f 15 25 16
f 16 26 27
f 16 27 17
f 16 25 26
f 18 28 20
f 18 20 19
f 20 28 38
f 20 38 29
f 20 29 21
f 21 29 22
f 22 29 38
f 22 38 50
f 22 50 51
f 22 51 39
f 22 39 30
f 23 30 31
f 23 31 32
f 23 32 33
f 23 33 34
f 23 34 35
f 24 36 25
f 25 36 48
f 25 48 59
f 25 59 61
f 25 61 49
f 25 49 37
f 25 37 26
f 30 39 31
f 31 39 40
f 31 40 41
f 31 41 32
f 32 42 33
f 32 41 42
f 33 42 43
f 33 43 44
f 33 44 34
f 34 44 54
f 34 54 45
f 34 45 35
f 35 45 47
f 35 47 56
f 35 56 46
f 39 51 52
f 39 52 40
f 40 42 41
f 40 52 50
f 40 50 42
f 42 50 43
f 43 53 44
f 43 50 53
f 44 53 54
f 45 54 58
f 45 58 47
f 46 56 67
f 46 67 57
f 46 57 66
f 46 66 55
f 47 58 67
f 47 67 56
f 48 60 68
f 48 68 59
f 49 61 62
f 49 62 63
f 49 63 64
f 49 64 65
f 49 65 53
f 49 53 50
f 50 52 51
f 53 58 54
f 53 65 67
f 53 67 58
f 55 66 68
f 55 68 60
f 57 67 65
f 57 65 64
f 57 64 66
f 59 68 63
f 59 63 62
f 59 62 61
f 63 68 66
f 63 66 64

