# https://github.com/mikedh/trimesh
v -0.00183334 0.04043960 0.04801240
v -0.00300954 0.04043960 0.04801714
v -0.00183334 0.03837846 0.04801240
v -0.00183334 0.04043960 0.00060826
v -0.00300954 0.03837866 0.04801714
v -0.00375809 0.04043960 0.04801714
v -0.00300917 0.03837846 0.04801240
v -0.00183334 0.03837846 -0.00043526
v -0.00183334 0.04039380 0.00045647
v -0.00561873 0.04043960 0.00060826
v -0.00375809 0.03837866 0.04801714
v -0.00561873 0.04043960 0.04800766
v -0.00561873 0.03837866 0.04800766
v -0.00300917 0.03837846 -0.00043526
v -0.00300954 0.03837866 -0.00044000
v -0.00183334 0.03880017 -0.00043526
v -0.00183334 0.04021966 -0.00008426
v -0.00300954 0.04021946 -0.00008900
v -0.00300917 0.04027717 0.00009124
v -0.00561873 0.04033488 0.00027623
v -0.00561873 0.03837866 -0.00043526
v -0.00375809 0.03837866 -0.00044000
v -0.00300954 0.03880038 -0.00044000
v -0.00183334 0.03959981 -0.00040680
v -0.00375809 0.04021946 -0.00008900
v -0.00561873 0.04021946 -0.00008426
v -0.00561873 0.03880038 -0.00043526
v -0.00375809 0.03880038 -0.00044000
v -0.00300917 0.03959981 -0.00040680
v -0.00561873 0.03959961 -0.00040680
f 1 2 5
f 1 5 3
f 1 3 8
f 1 8 16
f 1 16 24
f 1 24 17
f 1 17 9
f 1 9 4
f 1 4 10
f 1 10 12
f 1 12 6
f 1 6 2
f 2 6 11
f 2 11 5
f 3 5 11
f 3 11 7
f 3 7 14
f 3 14 8
f 4 9 10
f 6 12 13
f 6 13 11
f 7 11 13
f 7 13 21
f 7 21 14
f 8 14 22
f 8 22 15
f 8 15 23
f 8 23 16
f 9 17 18
f 9 18 19
f 9 19 20
f 9 20 10
f 10 20 26
f 10 26 30
f 10 30 27
f 10 27 21
f 10 21 13
f 10 13 12
f 14 21 22
f 15 22 28
f 15 28 23
f 16 23 24
f 17 24 18
f 18 24 29
f 18 29 25
f 18 25 19
f 19 25 20
f 20 25 26
f 21 27 28
f 21 28 22
f 23 28 29
f 23 29 24
f 25 29 30
f 25 30 26
f 27 30 28
f 28 30 29

