# https://github.com/mikedh/trimesh
v -0.01317946 -0.01756143 0.02380162
v -0.01317946 -0.01756143 0.04939387
v -0.01318003 -0.00958906 0.02379118
v -0.01317946 -0.01597636 0.02378857
v -0.01317774 -0.01755919 0.02378857
v -0.01305290 -0.01752558 0.02378857
v -0.01305290 -0.01752558 0.04939387
v -0.01317946 -0.01755359 0.04952953
v -0.01318003 -0.00958906 0.05044000
v -0.01318003 -0.00611872 0.02379118
v -0.01302804 -0.00958906 0.02378857
v -0.01239953 -0.01731275 0.02378857
v -0.01239953 -0.01731275 0.04939387
v -0.01112165 -0.01682995 0.04986867
v -0.01160046 -0.01691620 0.04998607
v -0.01239953 -0.01705622 0.05009303
v -0.01317946 -0.01723881 0.05009042
v -0.01318003 -0.00611872 0.05044000
v -0.01317946 -0.01639867 0.05043739
v -0.01317946 -0.01559886 0.05044000
v -0.01294548 -0.00611872 0.02378857
v -0.01160046 -0.01703494 0.02378857
v -0.01160046 -0.01703494 0.04939387
v -0.01026144 -0.01625193 0.05004086
v -0.01108222 -0.01684675 0.04939387
v -0.01082910 -0.01672801 0.04955562
v -0.01026144 -0.01647149 0.04939387
v -0.01026144 -0.01636395 0.04977476
v -0.01082910 -0.01642780 0.05009042
v -0.01171388 -0.01649053 0.05027565
v -0.01171359 -0.01639867 0.05032260
v -0.01239953 -0.01639867 0.05041391
v -0.01026173 -0.00611872 0.05044000
v -0.01079996 -0.01559774 0.05042696
v -0.01160046 -0.01559886 0.05044000
v -0.01026173 -0.00611872 0.02378857
v -0.01108222 -0.01684675 0.02378857
v -0.01026144 -0.01585874 0.05025477
v -0.01082910 -0.01673921 0.04939387
v -0.01068169 -0.01667536 0.04939387
v -0.01026144 -0.01647149 0.02378857
v -0.01160046 -0.01639867 0.05030173
v -0.01026144 -0.01559774 0.05036434
v -0.01082939 -0.01562799 0.05042435
v -0.01026144 -0.00959018 0.05044000
v -0.01026144 -0.01506005 0.05042956
v -0.01026144 -0.01479793 0.05044000
v -0.01026144 -0.00959018 0.02378857
v -0.01082910 -0.01673921 0.02378857
v -0.01068169 -0.01667536 0.02378857
f 1 2 9
f 1 9 3
f 1 3 4
f 1 4 5
f 1 5 6
f 1 6 7
f 1 7 2
f 2 7 8
f 2 8 9
f 3 10 4
f 3 9 18
f 3 18 10
f 4 10 11
f 4 11 21
f 4 21 36
f 4 36 48
f 4 48 41
f 4 41 50
f 4 50 49
f 4 49 37
f 4 37 22
f 4 22 12
f 4 12 6
f 4 6 5
f 6 12 13
f 6 13 7
f 7 13 8
f 8 14 15
f 8 15 16
f 8 16 17
f 8 17 9
f 8 13 14
f 9 17 19
f 9 19 20
f 9 20 35
f 9 35 47
f 9 47 45
f 9 45 33
f 9 33 18
f 10 21 11
f 10 18 33
f 10 33 36
f 10 36 21
f 12 22 23
f 12 23 13
f 13 23 14
f 14 24 15
f 14 23 25
f 14 25 26
f 14 26 27
f 14 27 28
f 14 28 24
f 15 24 29
f 15 29 30
f 15 30 16
f 16 30 31
f 16 31 32
f 16 32 17
f 17 32 19
f 19 34 35
f 19 35 20
f 19 32 34
f 22 37 25
f 22 25 23
f 24 28 27
f 24 27 41
f 24 41 48
f 24 48 45
f 24 45 47
f 24 47 46
f 24 46 43
f 24 43 38
f 24 38 29
f 25 39 26
f 25 37 49
f 25 49 39
f 26 39 40
f 26 40 27
f 27 40 50
f 27 50 41
f 29 38 42
f 29 42 30
f 30 42 31
f 31 42 43
f 31 43 32
f 32 43 44
f 32 44 34
f 33 45 48
f 33 48 36
f 34 46 47
f 34 47 35
f 34 44 43
f 34 43 46
f 38 43 42
f 39 49 50
f 39 50 40

