# https://github.com/mikedh/trimesh
v -0.00438468 -0.01209030 0.00060052
v -0.00438468 -0.01162394 -0.00012989
v -0.00388745 -0.01134649 0.00004323
v -0.00414441 -0.01181975 0.00060052
v -0.00438468 -0.01209030 0.02378857
v -0.00438468 -0.01160766 -0.00013700
v -0.00437777 -0.01160791 -0.00013463
v -0.00314979 -0.01046580 0.00011200
v -0.00361249 -0.01075953 -0.00007535
v -0.00383124 -0.01141973 0.00060052
v -0.00414441 -0.01181975 0.02378857
v -0.00438468 -0.00957105 0.02378857
v -0.00438468 -0.01135142 -0.00021763
v -0.00438468 -0.01079923 -0.00039075
v -0.00359997 -0.01000018 -0.00034332
v -0.00299320 -0.01000018 -0.00002317
v -0.00274411 -0.00993383 0.00060052
v -0.00278635 -0.01000018 0.00060052
v -0.00312458 -0.01049860 0.00060052
v -0.00312892 -0.01050427 0.02378857
v -0.00383124 -0.01141973 0.02378857
v -0.00438468 -0.00957105 -0.00043818
v -0.00274411 -0.00957105 0.02378857
v -0.00438468 -0.01000018 -0.00043818
v -0.00359997 -0.00957105 -0.00039312
v -0.00285380 -0.00957105 -0.00009432
v -0.00274411 -0.00957105 0.00021160
v -0.00274411 -0.00993383 0.02378857
v -0.00278635 -0.01000018 0.02378857
v -0.00312458 -0.01049860 0.02378857
f 1 2 3
f 1 3 4
f 1 4 11
f 1 11 5
f 1 5 12
f 1 12 22
f 1 22 24
f 1 24 14
f 1 14 13
f 1 13 6
f 1 6 2
f 2 6 7
f 2 7 3
f 3 8 4
f 3 7 9
f 3 9 8
f 4 8 10
f 4 10 21
f 4 21 11
f 5 11 21
f 5 21 20
f 5 20 30
f 5 30 29
f 5 29 28
f 5 28 23
f 5 23 12
f 6 13 7
f 7 13 14
f 7 14 15
f 7 15 9
f 8 9 16
f 8 16 17
f 8 17 18
f 8 18 19
f 8 19 10
f 9 15 16
f 10 19 20
f 10 20 21
f 12 23 27
f 12 27 26
f 12 26 25
f 12 25 22
f 14 24 25
f 14 25 15
f 15 25 26
f 15 26 16
f 16 27 17
f 16 26 27
f 17 27 23
f 17 23 28
f 17 28 29
f 17 29 18
f 18 29 30
f 18 30 19
f 19 30 20
f 22 25 24

