# https://github.com/mikedh/trimesh
v -0.02152070 -0.03880836 0.03149098
v -0.02152070 -0.02975486 0.03149098
v -0.01936862 -0.03880836 0.03149098
v -0.02152070 -0.03880836 0.05043814
v -0.01936862 -0.02975486 0.03149098
v -0.02152070 -0.02975486 0.05044000
v -0.01936862 -0.03880836 0.05043814
v -0.02152070 -0.03879861 0.05044000
v -0.01936862 -0.02975486 0.05036395
v -0.01960034 -0.02975486 0.05044000
v -0.01936862 -0.03879861 0.05044000
v -0.01936862 -0.03000122 0.05043072
v -0.01936862 -0.03080147 0.05044000
f 1 2 5
f 1 5 3
f 1 3 7
f 1 7 4
f 1 4 8
f 1 8 6
f 1 6 2
f 2 6 10
f 2 10 9
f 2 9 5
f 3 5 9
f 3 9 12
f 3 12 13
f 3 13 11
f 3 11 7
f 4 7 11
f 4 11 8
f 6 8 11
f 6 11 13
f 6 13 10
f 9 10 12
f 10 13 12

