# https://github.com/mikedh/trimesh
v 0.04043872 0.02597426 0.04334517
v 0.02737459 0.02597426 0.04334517
v 0.04043872 0.02486742 0.04334517
v 0.04043872 0.02597426 0.00060668
v 0.02737459 0.02486742 0.04334517
v 0.02737459 0.02597426 -0.00043907
v 0.04043872 0.02486742 0.00060668
v 0.04030957 0.02486742 0.00019952
v 0.04021749 0.02597426 -0.00008763
v 0.02737459 0.02486742 -0.00043907
v 0.03882233 0.02597426 -0.00043907
v 0.04021749 0.02486742 -0.00008763
v 0.03985559 0.02486742 -0.00027621
v 0.03959856 0.02597426 -0.00040907
v 0.03879803 0.02486742 -0.00043907
v 0.03959856 0.02486742 -0.00040907
f 1 2 5
f 1 5 3
f 1 3 7
f 1 7 4
f 1 4 9
f 1 9 14
f 1 14 11
f 1 11 6
f 1 6 2
f 2 6 10
f 2 10 5
f 3 5 10
f 3 10 15
f 3 15 16
f 3 16 13
f 3 13 12
f 3 12 8
f 3 8 7
f 4 7 8
f 4 8 9
f 6 11 15
f 6 15 10
f 8 12 9
f 9 12 13
f 9 13 14
f 11 14 16
f 11 16 15
f 13 16 14

