# https://github.com/mikedh/trimesh
v 0.01873933 0.03451487 -0.00043644
v 0.01873933 0.03625343 -0.00043644
v 0.02173874 0.03451487 -0.00043644
v 0.01873933 0.03451487 0.03587440
v 0.01873962 0.03934389 -0.00041510
v 0.01873962 0.03886033 -0.00043644
v 0.01873933 0.03625343 0.03586729
v 0.02173874 0.03625343 -0.00043644
v 0.02173874 0.03451487 0.03589930
v 0.01874109 0.03451487 0.03589930
v 0.02173845 0.03934389 -0.00041510
v 0.02173845 0.03897708 -0.00043288
v 0.01873962 0.03934389 0.03585662
v 0.02173845 0.03879935 -0.00043644
v 0.02173874 0.03625343 0.03589930
v 0.01874197 0.03701068 0.03589930
v 0.02173845 0.03934389 0.03589930
v 0.01874285 0.03934389 0.03589930
f 1 2 6
f 1 6 14
f 1 14 8
f 1 8 3
f 1 3 9
f 1 9 10
f 1 10 4
f 1 4 7
f 1 7 2
f 2 5 6
f 2 7 13
f 2 13 5
f 3 8 15
f 3 15 9
f 4 10 7
f 5 11 12
f 5 12 6
f 5 13 18
f 5 18 17
f 5 17 11
f 6 12 14
f 7 10 13
f 8 14 12
f 8 12 11
f 8 11 17
f 8 17 15
f 9 15 17
f 9 17 18
f 9 18 16
f 9 16 10
f 10 16 13
f 13 16 18

