# https://github.com/mikedh/trimesh
v -0.02707977 -0.01998843 0.02284713
v -0.02707977 -0.01998843 0.02311349
v -0.02707977 -0.01998603 0.02268878
v -0.01840859 -0.01998603 0.02268878
v -0.01840859 -0.01998843 0.02299995
v -0.02159943 -0.01998843 0.02311349
v -0.02707977 -0.01190492 0.02311349
v -0.02707977 -0.01190492 0.02268878
v -0.01773144 -0.01906069 0.02268878
v -0.01773144 -0.01906069 0.02311349
v -0.01840768 -0.01998603 0.02311349
v -0.02707885 0.00450182 0.02311349
v -0.02707885 0.00450182 0.02268878
v -0.01773236 0.00449942 0.02268878
v -0.01773144 -0.01190492 0.02269007
v -0.01773144 -0.01190492 0.02311349
v -0.01853396 0.00450182 0.02311349
v -0.01853396 0.00450182 0.02268878
v -0.01773236 0.00449942 0.02311349
f 1 2 7
f 1 7 8
f 1 8 3
f 1 3 4
f 1 4 5
f 1 5 6
f 1 6 2
f 2 6 11
f 2 11 10
f 2 10 16
f 2 16 19
f 2 19 17
f 2 17 12
f 2 12 7
f 3 8 13
f 3 13 18
f 3 18 14
f 3 14 9
f 3 9 4
f 4 9 5
f 5 9 10
f 5 10 11
f 5 11 6
f 7 12 13
f 7 13 8
f 9 14 15
f 9 15 16
f 9 16 10
f 12 17 18
f 12 18 13
f 14 18 17
f 14 17 19
f 14 19 16
f 14 16 15

