# https://github.com/mikedh/trimesh
v -0.03624000 0.02120341 0.05000145
v -0.03994090 0.02120341 0.05000145
v -0.03624000 0.02049368 0.05000145
v -0.03624000 0.02120341 0.00196198
v -0.04044000 0.02120341 0.04939955
v -0.04024883 0.02119987 0.05000145
v -0.04024883 0.02049368 0.05000145
v -0.03624000 0.02049368 0.00196198
v -0.04021964 0.02120341 0.00196198
v -0.04044000 0.02120341 0.00220650
v -0.04044000 0.02049368 0.04939955
v -0.04044000 0.02049368 0.00196198
v -0.04044000 0.02119987 0.00196198
f 1 2 6
f 1 6 7
f 1 7 3
f 1 3 8
f 1 8 4
f 1 4 9
f 1 9 10
f 1 10 5
f 1 5 2
f 2 5 6
f 3 7 11
f 3 11 12
f 3 12 8
f 4 8 12
f 4 12 13
f 4 13 9
f 5 10 13
f 5 13 12
f 5 12 11
f 5 11 7
f 5 7 6
f 9 13 10

