# https://github.com/mikedh/trimesh
v 0.01876152 -0.00615692 0.03727460
v 0.01876152 -0.00615692 0.04238767
v 0.01876152 -0.00615453 0.03417540
v 0.03424572 -0.00615692 0.03727460
v 0.03424572 -0.00615692 0.04238767
v 0.01876152 0.01816827 0.04238767
v 0.01876152 0.00426987 0.03417540
v 0.03424572 -0.00615453 0.03417540
v 0.03424572 0.01816827 0.04238767
v 0.01876152 0.01816827 0.03727460
v 0.03424572 0.00426987 0.03417540
v 0.01876152 0.01816589 0.03417620
v 0.03424572 0.01816827 0.03727460
v 0.03424117 0.01816589 0.03417620
v 0.03424572 0.00814151 0.03417620
f 1 2 6
f 1 6 10
f 1 10 12
f 1 12 7
f 1 7 3
f 1 3 8
f 1 8 4
f 1 4 5
f 1 5 2
f 2 5 9
f 2 9 6
f 3 7 11
f 3 11 8
f 4 8 11
f 4 11 15
f 4 15 13
f 4 13 9
f 4 9 5
f 6 9 13
f 6 13 10
f 7 12 14
f 7 14 11
f 10 13 14
f 10 14 12
f 11 14 15
f 13 15 14

