# https://github.com/mikedh/trimesh
v 0.00288939 -0.03755208 0.01291550
v 0.00288939 -0.03076000 0.01291550
v 0.00348939 -0.03755208 0.01291550
v 0.00288939 -0.03755208 0.05044000
v 0.00348939 -0.03076000 0.01291550
v 0.00288939 -0.03076000 0.04939683
v 0.00348939 -0.03755208 0.05044000
v 0.00288939 -0.03240085 0.05044000
v 0.00348939 -0.03076000 0.04939683
v 0.00288939 -0.03095613 0.05001392
v 0.00348939 -0.03240085 0.05044000
v 0.00288939 -0.03160103 0.05041061
v 0.00348939 -0.03098073 0.05009105
v 0.00288939 -0.03098073 0.05009105
v 0.00348939 -0.03160103 0.05041061
f 1 2 5
f 1 5 3
f 1 3 7
f 1 7 4
f 1 4 8
f 1 8 12
f 1 12 14
f 1 14 10
f 1 10 6
f 1 6 2
f 2 6 9
f 2 9 5
f 3 5 9
f 3 9 13
f 3 13 15
f 3 15 11
f 3 11 7
f 4 7 11
f 4 11 8
f 6 10 9
f 8 11 15
f 8 15 12
f 9 10 13
f 10 14 13
f 12 15 13
f 12 13 14

