# https://github.com/mikedh/trimesh
v -0.01812399 0.01957274 0.01594329
v -0.01773053 0.01906083 0.01877250
v -0.01812399 0.01957274 0.01395014
v -0.01812621 0.01957274 0.01742988
v -0.01812399 0.01957126 0.01877250
v -0.01773053 0.01906083 0.01742988
v -0.01773053 0.00709379 0.01877250
v -0.04044000 0.01957274 0.01395014
v -0.01773053 0.01905936 0.01395014
v -0.04044000 0.01957274 0.01742988
v -0.04044000 0.01957126 0.01877250
v -0.01773053 0.00450329 0.01877203
v -0.04044000 0.00709379 0.01877250
v -0.04044000 0.00450182 0.01395014
v -0.01773053 0.00450182 0.01395014
v -0.01773275 0.00450182 0.01742988
v -0.01773053 0.00450182 0.01594329
v -0.04044000 0.00450329 0.01877203
v -0.04044000 0.00450182 0.01742988
f 1 2 6
f 1 6 3
f 1 3 8
f 1 8 10
f 1 10 4
f 1 4 5
f 1 5 2
f 2 5 11
f 2 11 13
f 2 13 7
f 2 7 12
f 2 12 17
f 2 17 15
f 2 15 9
f 2 9 6
f 3 6 9
f 3 9 15
f 3 15 14
f 3 14 8
f 4 10 11
f 4 11 5
f 7 13 18
f 7 18 12
f 8 14 19
f 8 19 18
f 8 18 13
f 8 13 11
f 8 11 10
f 12 16 17
f 12 18 19
f 12 19 16
f 14 15 17
f 14 17 16
f 14 16 19

