# https://github.com/mikedh/trimesh
v 0.03197501 0.02597548 0.03590428
v 0.03197501 0.02760408 0.03590428
v 0.03820321 0.02597436 0.03590428
v 0.01876240 0.02597771 0.03590570
v 0.01873904 0.02687505 0.03590570
v 0.04043788 0.02760408 0.03590428
v 0.01873904 0.02732778 0.03590570
v 0.01874116 0.02760408 0.03590570
v 0.04043788 0.02597436 0.03590428
v 0.01876240 0.02597436 0.03657728
v 0.01873904 0.02686643 0.03747509
v 0.04043788 0.02760408 0.04939848
v 0.01873904 0.02760408 0.03591993
v 0.04043788 0.02597436 0.04939848
v 0.01876240 0.02597436 0.04939848
v 0.01873904 0.02686085 0.03980428
v 0.01873904 0.02686117 0.03907294
v 0.01873904 0.02686260 0.03854364
v 0.04021908 0.02760408 0.05008713
v 0.04021908 0.02759961 0.05009140
v 0.01873904 0.02760408 0.04991497
v 0.04021908 0.02597436 0.05009140
v 0.01898120 0.02597436 0.05009283
v 0.01873904 0.02686085 0.04939848
v 0.03959881 0.02760408 0.05041012
v 0.01880276 0.02760408 0.05008571
v 0.03959881 0.02597436 0.05041012
v 0.01960147 0.02597436 0.05041296
v 0.03879799 0.02760408 0.05044000
v 0.01953137 0.02760408 0.05039447
v 0.03879799 0.02597436 0.05044000
v 0.02040230 0.02597436 0.05044000
v 0.01960147 0.02760408 0.05042293
v 0.02200608 0.02760408 0.05044000
v 0.02040230 0.02679991 0.05044000
v 0.02040230 0.02760408 0.05043715
v 0.02120100 0.02759961 0.05044000
f 1 2 6
f 1 6 9
f 1 9 3
f 1 3 4
f 1 4 5
f 1 5 7
f 1 7 2
f 2 7 8
f 2 8 13
f 2 13 21
f 2 21 26
f 2 26 30
f 2 30 33
f 2 33 36
f 2 36 34
f 2 34 29
f 2 29 25
f 2 25 19
f 2 19 12
f 2 12 6
f 3 9 14
f 3 14 22
f 3 22 27
f 3 27 31
f 3 31 32
f 3 32 28
f 3 28 23
f 3 23 15
f 3 15 10
f 3 10 4
f 4 10 11
f 4 11 5
f 5 11 18
f 5 18 17
f 5 17 16
f 5 16 24
f 5 24 21
f 5 21 13
f 5 13 7
f 6 12 14
f 6 14 9
f 7 13 8
f 10 15 24
f 10 24 16
f 10 16 17
f 10 17 18
f 10 18 11
f 12 19 20
f 12 20 22
f 12 22 14
f 15 23 21
f 15 21 24
f 19 25 20
f 20 25 27
f 20 27 22
f 21 23 26
f 23 28 26
f 25 29 31
f 25 31 27
f 26 28 30
f 28 32 33
f 28 33 30
f 29 34 37
f 29 37 35
f 29 35 32
f 29 32 31
f 32 35 33
f 33 35 36
f 34 36 37
f 35 37 36

