# https://github.com/mikedh/trimesh
v -0.01833676 -0.02894702 0.03819069
v -0.01833676 -0.02894702 0.03255418
v -0.01855744 -0.02839778 0.03818599
v -0.01856177 -0.02839778 0.04779319
v -0.01834109 -0.02894702 0.04779319
v -0.03930628 -0.02894708 0.04779788
v -0.01855744 -0.02839778 0.03260117
v -0.03930628 -0.02894708 0.02379751
v -0.01833892 -0.02894702 0.02516728
v -0.03930628 -0.02839778 0.04779788
v -0.04044000 -0.02894708 0.04779788
v -0.01855961 -0.02839778 0.02620577
v -0.04044000 -0.02894708 0.02379751
v -0.01834109 -0.02894702 0.02379751
v -0.01855961 -0.02840015 0.02540693
v -0.03968707 -0.02839778 0.04779788
v -0.04044000 -0.02839784 0.04779788
v -0.01856177 -0.02839778 0.02540693
v -0.04044000 -0.02840010 0.02379751
v -0.01857043 -0.02840015 0.02379751
v -0.01857043 -0.02839778 0.02380221
v -0.04044000 -0.02839778 0.04699670
v -0.03930628 -0.02839993 0.02379751
v -0.04044000 -0.02839778 0.02380456
v -0.01870241 -0.02839778 0.02379751
f 1 2 7
f 1 7 3
f 1 3 4
f 1 4 5
f 1 5 6
f 1 6 8
f 1 8 2
f 2 8 9
f 2 9 7
f 3 7 12
f 3 12 18
f 3 18 21
f 3 21 25
f 3 25 24
f 3 24 22
f 3 22 16
f 3 16 10
f 3 10 4
f 4 10 5
f 5 10 6
f 6 10 16
f 6 16 17
f 6 17 11
f 6 11 13
f 6 13 8
f 7 9 12
f 8 13 19
f 8 19 23
f 8 23 25
f 8 25 20
f 8 20 14
f 8 14 9
f 9 14 15
f 9 15 12
f 11 17 22
f 11 22 24
f 11 24 19
f 11 19 13
f 12 15 18
f 14 20 21
f 14 21 15
f 15 21 18
f 16 22 17
f 19 24 23
f 20 25 21
f 23 24 25

