# https://github.com/mikedh/trimesh
v -0.01871622 0.02759672 0.04860004
v -0.01871834 0.02759672 0.04939995
v -0.01876087 0.02669397 0.04939995
v -0.01871622 0.02759672 0.03819513
v -0.01895863 0.02759672 0.05009832
v -0.01897990 0.02669397 0.05009217
v -0.01876087 0.02669397 0.03752445
v -0.01876300 0.02669397 0.01900974
v -0.01871834 0.02759672 0.02300619
v -0.01960082 0.02759672 0.05041829
v -0.01960082 0.02669397 0.05041213
v -0.01872047 0.02758691 0.01900974
v -0.03844752 0.02669397 0.01900974
v -0.01872047 0.02759672 0.01900974
v -0.02040036 0.02759672 0.05043982
v -0.02040036 0.02669397 0.05043982
v -0.04044000 0.02669539 0.01900974
v -0.04044000 0.02669397 0.01970197
v -0.04044000 0.02759672 0.01900974
v -0.03879838 0.02759672 0.05043982
v -0.03879838 0.02669397 0.05043982
v -0.04044000 0.02669397 0.04939995
v -0.04044000 0.02759672 0.04939995
v -0.03959793 0.02759672 0.05041213
v -0.03959793 0.02669397 0.05041213
v -0.04024862 0.02669397 0.04999987
v -0.04021672 0.02759672 0.05009217
v -0.04021672 0.02669397 0.05009217
f 1 2 3
f 1 3 7
f 1 7 4
f 1 4 9
f 1 9 14
f 1 14 19
f 1 19 23
f 1 23 27
f 1 27 24
f 1 24 20
f 1 20 15
f 1 15 10
f 1 10 5
f 1 5 2
f 2 5 6
f 2 6 3
f 3 6 11
f 3 11 16
f 3 16 21
f 3 21 25
f 3 25 28
f 3 28 26
f 3 26 22
f 3 22 18
f 3 18 13
f 3 13 8
f 3 8 7
f 4 7 8
f 4 8 9
f 5 10 11
f 5 11 6
f 8 12 9
f 8 13 17
f 8 17 19
f 8 19 14
f 8 14 12
f 9 12 14
f 10 15 16
f 10 16 11
f 13 18 17
f 15 20 21
f 15 21 16
f 17 18 22
f 17 22 23
f 17 23 19
f 20 24 25
f 20 25 21
f 22 26 23
f 23 26 27
f 24 27 28
f 24 28 25
f 26 28 27

