# https://github.com/mikedh/trimesh
v -0.01400005 0.01639888 0.05044000
v -0.01386160 0.01639888 0.05043973
v -0.01400005 0.01669891 0.05037822
v -0.01438970 0.01639888 0.05044000
v -0.01386160 0.01559936 0.05044000
v -0.01386160 0.01669891 0.05034760
v -0.01389309 0.01669891 0.05035473
v -0.01438970 0.01669891 0.05037822
v -0.01438970 -0.00133165 0.05044000
v -0.01386160 -0.00133165 0.05044000
v -0.01386160 0.01669891 0.04774294
v -0.01438970 0.01669891 0.04774294
v -0.01438970 -0.00133165 0.04774294
v -0.01386160 -0.00133165 0.04774294
f 1 2 3
f 1 3 8
f 1 8 4
f 1 4 9
f 1 9 10
f 1 10 5
f 1 5 2
f 2 6 7
f 2 7 3
f 2 5 10
f 2 10 14
f 2 14 11
f 2 11 6
f 3 7 6
f 3 6 11
f 3 11 12
f 3 12 8
f 4 8 12
f 4 12 13
f 4 13 9
f 9 13 14
f 9 14 10
f 11 14 13
f 11 13 12

