# https://github.com/mikedh/trimesh
v -0.02020240 -0.03938377 -0.00041970
v -0.02020240 -0.03894356 -0.00043492
v -0.01721611 -0.03938377 -0.00041970
v -0.02020240 -0.03938377 0.00993089
v -0.02020240 -0.03879935 -0.00043899
v -0.01721611 -0.03879935 -0.00043899
v -0.01721611 -0.03938377 0.00993089
v -0.02020240 -0.02975397 0.00993089
v -0.02020240 -0.02975397 -0.00043899
v -0.01721611 -0.03158454 -0.00043899
v -0.01721611 -0.03702157 0.00993089
v -0.01774846 -0.02975397 0.00993089
v -0.01959988 -0.02975397 -0.00043899
v -0.01904588 -0.02975397 -0.00041970
v -0.01721611 -0.03073618 -0.00018317
v -0.01721611 -0.03015930 0.00942230
v -0.01722020 -0.03015741 0.00993089
v -0.01774846 -0.02975397 0.00140049
v -0.01877985 -0.02975397 -0.00033848
v -0.01721611 -0.03066171 -0.00015779
v -0.01721611 -0.03015930 0.00140049
v -0.01776805 -0.02975397 0.00060054
v -0.01819341 -0.02975397 -0.00014357
v -0.01721611 -0.03056274 -0.00009485
v -0.01721611 -0.03017438 0.00063912
v -0.01721611 -0.03017532 0.00060054
v -0.01777185 -0.02975397 0.00058937
v -0.01808641 -0.02975397 -0.00007556
v -0.01736286 -0.03024885 0.00002596
v -0.01721611 -0.03029692 0.00018636
f 1 2 3
f 1 3 7
f 1 7 4
f 1 4 8
f 1 8 9
f 1 9 5
f 1 5 2
f 2 5 6
f 2 6 3
f 3 6 10
f 3 10 15
f 3 15 20
f 3 20 24
f 3 24 30
f 3 30 26
f 3 26 25
f 3 25 21
f 3 21 16
f 3 16 11
f 3 11 7
f 4 7 11
f 4 11 17
f 4 17 12
f 4 12 8
f 5 9 13
f 5 13 10
f 5 10 6
f 8 12 18
f 8 18 22
f 8 22 27
f 8 27 28
f 8 28 23
f 8 23 19
f 8 19 14
f 8 14 13
f 8 13 9
f 10 13 14
f 10 14 15
f 11 16 17
f 12 17 16
f 12 16 21
f 12 21 18
f 14 19 15
f 15 19 20
f 18 21 22
f 19 23 20
f 20 23 24
f 21 25 22
f 22 25 26
f 22 26 27
f 23 28 29
f 23 29 24
f 24 29 30
f 26 30 27
f 27 30 28
f 28 30 29

