# https://github.com/mikedh/trimesh
v -0.01871575 0.02120349 0.02619362
v -0.01876040 0.02209152 0.02699386
v -0.01872213 0.02120619 0.02699386
v -0.01879655 0.02120349 0.02699386
v -0.01871575 0.02120349 0.00139949
v -0.03898548 0.02209152 0.02699386
v -0.01876040 0.02209152 0.00060193
v -0.04044000 0.02120349 0.02699386
v -0.01872000 0.02120349 0.00059925
v -0.04044000 0.02209152 0.02629029
v -0.04044000 0.02209074 0.02699386
v -0.01898156 0.02209152 -0.00009090
v -0.04044000 0.02120349 0.00060193
v -0.01896242 0.02120349 -0.00009895
v -0.04044000 0.02209152 0.00060193
v -0.01905173 0.02209152 -0.00012849
v -0.04024436 0.02209152 -0.00001302
v -0.04021885 0.02120349 -0.00008821
v -0.01960675 0.02120349 -0.00041852
v -0.01960037 0.02209152 -0.00041314
v -0.04021885 0.02209152 -0.00009090
v -0.04021885 0.02199990 -0.00009090
v -0.03960004 0.02120349 -0.00041046
v -0.02040418 0.02120349 -0.00044000
v -0.02040206 0.02199990 -0.00044000
v -0.02040206 0.02209152 -0.00044000
v -0.03959791 0.02209152 -0.00041314
v -0.03959791 0.02199990 -0.00041314
v -0.03880260 0.02120349 -0.00043731
v -0.03800091 0.02120349 -0.00044000
v -0.03879835 0.02209152 -0.00044000
v -0.03879835 0.02199990 -0.00044000
f 1 2 3
f 1 3 4
f 1 4 8
f 1 8 13
f 1 13 18
f 1 18 23
f 1 23 29
f 1 29 30
f 1 30 24
f 1 24 19
f 1 19 14
f 1 14 9
f 1 9 5
f 1 5 7
f 1 7 2
f 2 6 11
f 2 11 8
f 2 8 4
f 2 4 3
f 2 7 12
f 2 12 16
f 2 16 20
f 2 20 26
f 2 26 31
f 2 31 27
f 2 27 21
f 2 21 17
f 2 17 15
f 2 15 10
f 2 10 6
f 5 9 7
f 6 10 11
f 7 9 12
f 8 11 10
f 8 10 15
f 8 15 13
f 9 14 12
f 12 14 16
f 13 15 17
f 13 17 18
f 14 19 20
f 14 20 16
f 17 21 22
f 17 22 18
f 18 22 23
f 19 24 25
f 19 25 26
f 19 26 20
f 21 27 28
f 21 28 22
f 22 28 23
f 23 28 29
f 24 30 32
f 24 32 31
f 24 31 26
f 24 26 25
f 27 31 32
f 27 32 28
f 28 32 29
f 29 32 30

