# https://github.com/mikedh/trimesh
v -0.01438970 -0.00597000 0.02126678
v -0.01438970 -0.00596767 0.00520949
v -0.01318032 -0.00597000 0.02126678
v -0.01438970 -0.00597000 0.03135152
v -0.01438970 0.01782913 0.00520949
v -0.01318032 -0.00596767 0.00520949
v -0.01318032 -0.00597000 0.03135152
v -0.01438970 0.01783146 0.03135152
v -0.01399999 0.01775224 0.00520949
v -0.01438970 0.01783146 0.02126678
v -0.01399999 0.01775690 0.02126678
v -0.01318032 0.01755887 0.00520949
v -0.01318032 0.01756120 0.03135152
v -0.01399999 0.01775690 0.03135152
v -0.01345378 0.01763575 0.00520949
v -0.01345378 0.01763808 0.02126678
v -0.01324590 0.01757751 0.00520949
v -0.01318032 0.01756120 0.02126678
v -0.01333362 0.01760546 0.03135152
v -0.01345378 0.01763808 0.03135152
f 1 2 6
f 1 6 3
f 1 3 7
f 1 7 4
f 1 4 8
f 1 8 10
f 1 10 5
f 1 5 2
f 2 5 9
f 2 9 15
f 2 15 17
f 2 17 12
f 2 12 6
f 3 6 12
f 3 12 18
f 3 18 13
f 3 13 7
f 4 7 13
f 4 13 19
f 4 19 20
f 4 20 14
f 4 14 8
f 5 10 11
f 5 11 9
f 8 14 11
f 8 11 10
f 9 11 15
f 11 16 15
f 11 14 20
f 11 20 16
f 12 17 18
f 13 18 19
f 15 16 17
f 16 20 19
f 16 19 18
f 16 18 17

