# https://github.com/mikedh/trimesh
v -0.03232313 -0.01560356 0.00068754
v -0.02468116 -0.01560356 0.00068754
v -0.03232313 -0.01560356 0.00135987
v -0.03232313 -0.01240945 0.00068754
v -0.02468116 -0.01560356 0.00135987
v -0.01773053 -0.01560028 0.00068754
v -0.03232313 -0.01240945 0.00135987
v -0.03232170 0.00480201 0.00068754
v -0.01773053 -0.01560028 0.00135987
v -0.01773053 0.01792645 0.00068754
v -0.03232170 0.00480201 0.00135987
v -0.03232028 0.01793302 0.00068754
v -0.01773053 0.01792645 0.00135987
v -0.02468259 0.01793302 0.00068754
v -0.03232028 0.01793302 0.00135987
v -0.02468259 0.01793302 0.00135987
f 1 2 5
f 1 5 3
f 1 3 7
f 1 7 4
f 1 4 8
f 1 8 12
f 1 12 14
f 1 14 10
f 1 10 6
f 1 6 2
f 2 6 9
f 2 9 5
f 3 5 9
f 3 9 13
f 3 13 16
f 3 16 15
f 3 15 11
f 3 11 7
f 4 7 11
f 4 11 8
f 6 10 13
f 6 13 9
f 8 11 15
f 8 15 12
f 10 14 16
f 10 16 13
f 12 15 16
f 12 16 14

