# https://github.com/mikedh/trimesh
v -0.02152070 -0.03989201 0.01165406
v -0.01936862 -0.03989201 0.01165406
v -0.02152070 -0.03989201 0.05025776
v -0.02152070 -0.02975397 0.01165406
v -0.01936862 -0.02975397 0.01165406
v -0.01936862 -0.03989201 0.05025776
v -0.02152070 -0.03984834 0.05028054
v -0.02152070 -0.02975397 0.03148743
v -0.01936862 -0.02975397 0.03148743
v -0.01936862 -0.03959926 0.05040962
v -0.02152070 -0.03959926 0.05040962
v -0.02152070 -0.02975595 0.05044000
v -0.01960076 -0.02975595 0.05044000
v -0.01936862 -0.02975595 0.05036027
v -0.01936862 -0.03879842 0.05044000
v -0.02152070 -0.03879842 0.05044000
v -0.01936862 -0.03080191 0.05044000
v -0.01936862 -0.03000206 0.05042861
f 1 2 6
f 1 6 3
f 1 3 7
f 1 7 11
f 1 11 16
f 1 16 12
f 1 12 8
f 1 8 4
f 1 4 5
f 1 5 2
f 2 5 9
f 2 9 14
f 2 14 18
f 2 18 17
f 2 17 15
f 2 15 10
f 2 10 6
f 3 6 7
f 4 8 9
f 4 9 5
f 6 10 7
f 7 10 11
f 8 12 13
f 8 13 9
f 9 13 14
f 10 15 16
f 10 16 11
f 12 16 15
f 12 15 17
f 12 17 13
f 13 17 18
f 13 18 14

