# https://github.com/mikedh/trimesh
v -0.03240672 -0.01998722 0.01278335
v -0.01840853 -0.01998722 0.01278335
v -0.03240672 -0.01998722 0.01510093
v -0.03240672 0.00431244 0.01278335
v -0.01840853 -0.01998722 0.01510093
v -0.01773340 -0.01905953 0.01278335
v -0.03240672 0.00450182 0.01510093
v -0.03240672 0.00450182 0.01278675
v -0.03207059 0.00450182 0.01278335
v -0.01773340 -0.01905953 0.01510093
v -0.01773340 0.00450182 0.01278335
v -0.01773340 0.00450182 0.01510093
f 1 2 5
f 1 5 3
f 1 3 7
f 1 7 8
f 1 8 4
f 1 4 9
f 1 9 11
f 1 11 6
f 1 6 2
f 2 6 10
f 2 10 5
f 3 5 10
f 3 10 12
f 3 12 7
f 4 8 9
f 6 11 12
f 6 12 10
f 7 12 11
f 7 11 9
f 7 9 8

