# https://github.com/mikedh/trimesh
v 0.01959978 0.02999458 -0.00043644
v 0.01978674 0.02999458 -0.00043644
v 0.01879985 0.02999458 -0.00040443
v 0.01873904 0.03086138 -0.00043644
v 0.01978674 0.03451443 -0.00043644
v 0.01978674 0.02999458 0.03589930
v 0.01873904 0.02999458 -0.00038309
v 0.01873904 0.03006184 -0.00040443
v 0.01873904 0.03451443 -0.00043644
v 0.01978674 0.03451443 0.03589574
v 0.01978674 0.03299409 0.03589930
v 0.01873965 0.02999458 0.03589930
v 0.01873904 0.02999458 0.03588507
v 0.01873904 0.03451443 0.03587440
v 0.01874109 0.03451443 0.03589574
v 0.01874047 0.03299409 0.03589930
f 1 2 6
f 1 6 12
f 1 12 13
f 1 13 7
f 1 7 3
f 1 3 4
f 1 4 9
f 1 9 5
f 1 5 2
f 2 5 10
f 2 10 11
f 2 11 6
f 3 7 8
f 3 8 4
f 4 8 7
f 4 7 13
f 4 13 14
f 4 14 9
f 5 9 14
f 5 14 15
f 5 15 10
f 6 11 16
f 6 16 12
f 10 15 16
f 10 16 11
f 12 16 14
f 12 14 13
f 14 16 15

