# https://github.com/mikedh/trimesh
v 0.00288939 -0.03967352 0.02747835
v 0.00288939 -0.04044000 0.02747835
v 0.00288939 -0.03967352 0.01291484
v 0.00288782 -0.03076095 0.04939524
v 0.00288782 -0.03098265 0.05008944
v 0.00288782 -0.03160227 0.05040899
v 0.00288782 -0.03240097 0.05043838
v 0.00288939 -0.04044000 0.01291484
v 0.00288782 -0.03879809 0.05043838
v 0.00288782 -0.03950962 0.05041267
v 0.00288782 -0.03959867 0.05040899
v 0.00288782 -0.04014819 0.05012617
v 0.00288782 -0.04021830 0.05008944
v 0.00288782 -0.04044000 0.04939524
v 0.00288626 -0.03076095 0.01291484
v 0.00288782 -0.03076095 0.03387307
v -0.01310508 -0.03076095 0.04939524
v -0.00041754 -0.03076379 0.04940626
v -0.01310508 -0.03098265 0.05008944
v 0.00181996 -0.03177850 0.05041634
v -0.01310508 -0.03160227 0.05040899
v -0.01310508 -0.03240097 0.05043838
v -0.01310664 -0.04044000 0.01291484
v -0.01310508 -0.03879809 0.05043838
v -0.01310508 -0.03959867 0.05040899
v -0.00041754 -0.03960910 0.05040532
v -0.01310508 -0.04021830 0.05008944
v -0.01310508 -0.04044000 0.04939524
v -0.01310664 -0.03076095 0.01291484
v -0.01310664 -0.03076095 0.02747468
v -0.01310664 -0.03483684 0.03386940
v -0.01310664 -0.04044000 0.02747835
v -0.01310664 -0.04043811 0.03386940
f 1 2 8
f 1 8 3
f 1 3 16
f 1 16 4
f 1 4 5
f 1 5 6
f 1 6 7
f 1 7 9
f 1 9 2
f 2 9 10
f 2 10 11
f 2 11 12
f 2 12 13
f 2 13 14
f 2 14 28
f 2 28 32
f 2 32 23
f 2 23 8
f 3 8 23
f 3 23 29
f 3 29 15
f 3 15 16
f 4 16 15
f 4 15 29
f 4 29 30
f 4 30 17
f 4 17 18
f 4 18 5
f 5 18 19
f 5 19 21
f 5 21 6
f 6 20 7
f 6 21 20
f 7 20 22
f 7 22 24
f 7 24 9
f 9 24 10
f 10 24 25
f 10 25 11
f 11 25 26
f 11 26 12
f 12 26 27
f 12 27 13
f 13 27 28
f 13 28 14
f 17 30 19
f 17 19 18
f 19 30 31
f 19 31 21
f 20 21 22
f 21 31 22
f 22 31 33
f 22 33 24
f 23 32 33
f 23 33 31
f 23 31 30
f 23 30 29
f 24 33 25
f 25 27 26
f 25 33 27
f 27 33 28
f 28 33 32

