# https://github.com/mikedh/trimesh
v -0.00307240 0.00539579 0.02378857
v -0.00307240 0.00924757 0.02378857
v -0.00266715 0.00539579 0.02378857
v -0.00307240 0.00539579 0.05044000
v -0.00266715 0.00981222 0.02379118
v -0.00266715 0.00924757 0.02378857
v -0.00307240 0.00924757 0.05025217
v -0.00163238 0.00553025 0.02379118
v -0.00266715 0.00539579 0.05043739
v -0.00279993 0.00539579 0.05044000
v -0.00307240 0.00760033 0.05044000
v -0.00246628 0.00949617 0.02379118
v -0.00266715 0.00981222 0.04939648
v -0.00246163 0.00948882 0.02379118
v -0.00245839 0.00948320 0.02379118
v -0.00185354 0.00839974 0.02379118
v -0.00163238 0.00799938 0.02379118
v -0.00307240 0.00839931 0.05041391
v -0.00279993 0.00839931 0.05040087
v -0.00274467 0.00923503 0.05015042
v -0.00274862 0.00924757 0.05014781
v -0.00163238 0.00553025 0.05029652
v -0.00200014 0.00553025 0.05043478
v -0.00279993 0.00760033 0.05044000
v -0.00246163 0.00948882 0.04939648
v -0.00229220 0.00899249 0.04995998
v -0.00185354 0.00839974 0.04859558
v -0.00163238 0.00799938 0.04859558
v -0.00200014 0.00680048 0.05040087
v -0.00266715 0.00839931 0.05033826
v -0.00212714 0.00839974 0.05007738
v -0.00266715 0.00919353 0.05011912
v -0.00163238 0.00599675 0.05029130
v -0.00200014 0.00600021 0.05043478
v -0.00223835 0.00908890 0.04939648
v -0.00163238 0.00751775 0.05002781
v -0.00163238 0.00799852 0.04939648
v -0.00185382 0.00839974 0.04939648
v -0.00163238 0.00680048 0.05021564
f 1 2 6
f 1 6 3
f 1 3 9
f 1 9 10
f 1 10 4
f 1 4 11
f 1 11 18
f 1 18 7
f 1 7 2
f 2 5 6
f 2 7 13
f 2 13 5
f 3 6 17
f 3 17 8
f 3 8 22
f 3 22 9
f 4 10 24
f 4 24 11
f 5 12 6
f 5 13 12
f 6 12 14
f 6 14 15
f 6 15 16
f 6 16 17
f 7 18 19
f 7 19 20
f 7 20 21
f 7 21 13
f 8 17 28
f 8 28 37
f 8 37 36
f 8 36 39
f 8 39 33
f 8 33 22
f 9 22 23
f 9 23 10
f 10 23 34
f 10 34 24
f 11 24 18
f 12 13 25
f 12 25 14
f 13 26 25
f 13 21 26
f 14 25 15
f 15 25 27
f 15 27 16
f 16 27 28
f 16 28 17
f 18 24 19
f 19 29 30
f 19 30 20
f 19 24 29
f 20 30 31
f 20 31 32
f 20 32 21
f 21 32 26
f 22 33 34
f 22 34 23
f 24 34 29
f 25 35 27
f 25 26 35
f 26 32 31
f 26 31 36
f 26 36 37
f 26 37 38
f 26 38 35
f 27 35 38
f 27 38 28
f 28 38 37
f 29 33 39
f 29 39 31
f 29 31 30
f 29 34 33
f 31 39 36

