# https://github.com/mikedh/trimesh
v -0.01869742 -0.02111618 0.04379558
v -0.01869742 -0.02111618 0.02300755
v -0.01870168 -0.02111618 0.04939351
v -0.01876340 -0.02228004 0.04939351
v -0.01876127 -0.02228004 0.04412428
v -0.01876127 -0.02228004 0.02136901
v -0.01869955 -0.02111618 0.00140274
v -0.01891876 -0.02111618 0.05002103
v -0.01898261 -0.02228004 0.05008578
v -0.01876340 -0.02228004 0.00716502
v -0.01876552 -0.02228004 0.00060090
v -0.01870380 -0.02111618 0.00060090
v -0.01895281 -0.02111618 0.05009574
v -0.01960407 -0.02228004 0.05040950
v -0.01898261 -0.02228004 -0.00009137
v -0.01895494 -0.02111618 -0.00009635
v -0.01952745 -0.02111618 0.05038460
v -0.01960407 -0.02111618 0.05040950
v -0.02040431 -0.02228004 0.05043938
v -0.01960194 -0.02228004 -0.00041012
v -0.01960194 -0.02111618 -0.00041510
v -0.02040431 -0.02111618 0.05043938
v -0.03879696 -0.02228004 0.05043938
v -0.02040218 -0.02228004 -0.00044000
v -0.02040218 -0.02111618 -0.00044000
v -0.03879696 -0.02111618 0.05043938
v -0.03959933 -0.02228004 0.05040950
v -0.03879696 -0.02228004 -0.00044000
v -0.03879696 -0.02111618 -0.00044000
v -0.03959933 -0.02111618 0.05040950
v -0.04015481 -0.02111618 0.05012064
v -0.04021866 -0.02228004 0.05008578
v -0.03959933 -0.02228004 -0.00041012
v -0.03959933 -0.02111618 -0.00041012
v -0.04021866 -0.02111618 0.05008578
v -0.04044000 -0.02228004 0.04939351
v -0.04021866 -0.02228004 -0.00009137
v -0.04021866 -0.02111618 -0.00009137
v -0.04044000 -0.02111618 0.04939351
v -0.04044000 -0.02228004 0.00060090
v -0.04044000 -0.02111618 0.00060090
f 1 2 7
f 1 7 12
f 1 12 16
f 1 16 21
f 1 21 25
f 1 25 29
f 1 29 34
f 1 34 38
f 1 38 41
f 1 41 39
f 1 39 35
f 1 35 31
f 1 31 30
f 1 30 26
f 1 26 22
f 1 22 18
f 1 18 17
f 1 17 13
f 1 13 8
f 1 8 3
f 1 3 4
f 1 4 5
f 1 5 6
f 1 6 2
f 2 6 7
f 3 8 9
f 3 9 4
f 4 9 14
f 4 14 19
f 4 19 23
f 4 23 27
f 4 27 32
f 4 32 36
f 4 36 40
f 4 40 37
f 4 37 33
f 4 33 28
f 4 28 24
f 4 24 20
f 4 20 15
f 4 15 11
f 4 11 10
f 4 10 6
f 4 6 5
f 6 10 7
f 7 10 11
f 7 11 12
f 8 13 9
f 9 13 14
f 11 15 12
f 12 15 16
f 13 17 14
f 14 18 22
f 14 22 19
f 14 17 18
f 15 20 16
f 16 20 21
f 19 22 26
f 19 26 23
f 20 24 21
f 21 24 25
f 23 26 30
f 23 30 27
f 24 28 29
f 24 29 25
f 27 30 31
f 27 31 32
f 28 33 34
f 28 34 29
f 31 35 32
f 32 35 39
f 32 39 36
f 33 37 38
f 33 38 34
f 36 39 41
f 36 41 40
f 37 40 41
f 37 41 38

