# https://github.com/mikedh/trimesh
v 0.02173874 0.02791487 0.03590286
v 0.01877339 0.02791487 0.03590286
v 0.02173874 0.02750951 0.03590286
v 0.02173874 0.02791487 0.01692559
v 0.01874990 0.02750951 0.03590286
v 0.01873933 0.02791487 0.03589728
v 0.02173874 0.02702372 0.03590100
v 0.02173874 0.02750951 0.01692559
v 0.01873933 0.02791487 0.01692559
v 0.01873933 0.02750951 0.03590100
v 0.01873933 0.02702372 0.03590100
v 0.02173874 0.02702372 0.01726553
v 0.01873933 0.02750951 0.01692559
v 0.01873933 0.02702372 0.02642351
v 0.01875078 0.02702372 0.01726553
v 0.01874197 0.02722766 0.01726553
v 0.01873933 0.02729012 0.01726553
v 0.01873933 0.02704334 0.02484455
v 0.01874256 0.02702372 0.02322658
v 0.01874902 0.02702372 0.01762590
v 0.01873933 0.02721920 0.01782095
v 0.01873933 0.02705338 0.02405507
v 0.01874432 0.02702372 0.02162532
v 0.01873933 0.02706411 0.02326559
v 0.01873933 0.02707571 0.02247796
v 0.01873933 0.02709272 0.02169591
f 1 2 5
f 1 5 3
f 1 3 7
f 1 7 12
f 1 12 8
f 1 8 4
f 1 4 9
f 1 9 6
f 1 6 2
f 2 6 5
f 3 5 11
f 3 11 7
f 4 8 13
f 4 13 9
f 5 6 10
f 5 10 11
f 6 9 13
f 6 13 17
f 6 17 21
f 6 21 26
f 6 26 25
f 6 25 24
f 6 24 22
f 6 22 18
f 6 18 14
f 6 14 11
f 6 11 10
f 7 11 14
f 7 14 19
f 7 19 23
f 7 23 20
f 7 20 15
f 7 15 12
f 8 12 15
f 8 15 13
f 13 15 16
f 13 16 17
f 14 18 19
f 15 20 21
f 15 21 16
f 16 21 17
f 18 22 19
f 19 22 24
f 19 24 23
f 20 23 25
f 20 25 26
f 20 26 21
f 23 24 25

