# https://github.com/mikedh/trimesh
v -0.04044000 -0.01560356 0.00060034
v -0.04021987 -0.01560356 -0.00009295
v -0.04044000 -0.01560356 0.00228908
v -0.04044000 0.01957274 0.00060034
v -0.03959992 -0.01560356 -0.00041301
v -0.04021987 0.01957274 -0.00009295
v -0.04019873 0.01957274 -0.00010391
v -0.03902362 -0.01560356 0.00228935
v -0.04044000 0.01957274 0.00228908
v -0.03879982 -0.01560356 -0.00044000
v -0.03959992 0.01957274 -0.00041301
v -0.03957280 0.01957274 -0.00041409
v -0.03574509 -0.01560356 0.00228935
v -0.03902362 0.01957274 0.00228935
v -0.03640043 -0.01560356 -0.00044000
v -0.03879982 0.01957274 -0.00044000
v -0.03574509 -0.01560356 0.00057469
v -0.03574509 0.01957274 0.00228935
v -0.03574509 -0.01560012 -0.00044000
v -0.03574509 0.01957274 -0.00044000
f 1 2 5
f 1 5 10
f 1 10 15
f 1 15 17
f 1 17 13
f 1 13 8
f 1 8 3
f 1 3 9
f 1 9 4
f 1 4 6
f 1 6 2
f 2 6 7
f 2 7 5
f 3 8 14
f 3 14 9
f 4 9 14
f 4 14 18
f 4 18 20
f 4 20 16
f 4 16 12
f 4 12 11
f 4 11 7
f 4 7 6
f 5 7 11
f 5 11 12
f 5 12 10
f 8 13 18
f 8 18 14
f 10 12 16
f 10 16 20
f 10 20 19
f 10 19 15
f 13 17 19
f 13 19 20
f 13 20 18
f 15 19 17

