# https://github.com/mikedh/trimesh
v -0.01774845 -0.02975389 0.02139967
v -0.01833708 -0.02894713 0.02059915
v -0.01833765 -0.02894713 0.02163637
v -0.01775187 -0.02975152 0.02163637
v -0.02358110 -0.02975350 0.02150797
v -0.02358110 -0.02975389 0.02146666
v -0.01774845 -0.02975389 0.01099621
v -0.01833708 -0.02894713 0.01023030
v -0.02358110 -0.02894713 0.02163637
v -0.02358110 -0.02975216 0.02163637
v -0.02358110 -0.02975389 0.01023030
v -0.01843814 -0.02975389 0.01023030
v -0.01775187 -0.02975152 0.01023030
v -0.02358110 -0.02894713 0.01023030
f 1 2 3
f 1 3 4
f 1 4 5
f 1 5 6
f 1 6 11
f 1 11 12
f 1 12 7
f 1 7 8
f 1 8 2
f 2 8 14
f 2 14 9
f 2 9 3
f 3 9 10
f 3 10 4
f 4 10 5
f 5 10 9
f 5 9 14
f 5 14 11
f 5 11 6
f 7 12 13
f 7 13 8
f 8 13 12
f 8 12 11
f 8 11 14

