# https://github.com/mikedh/trimesh
v -0.04041257 -0.03967694 0.01165406
v -0.04044000 -0.03959982 0.01165406
v -0.03962315 -0.03967694 0.01165406
v -0.04041257 -0.03967694 0.04939629
v -0.04044000 -0.03762545 0.01165406
v -0.04044000 -0.03959982 0.04939629
v -0.03962315 -0.03762545 0.01165406
v -0.03962315 -0.03967694 0.05035587
v -0.04020964 -0.03967694 0.05007900
v -0.04044000 -0.03762545 0.04939629
v -0.04021996 -0.03959982 0.05009037
v -0.04033694 -0.03762545 0.04972247
v -0.03962315 -0.03762545 0.05040138
v -0.03962315 -0.03962312 0.05038242
v -0.03967720 -0.03967694 0.05034070
v -0.03962315 -0.03960283 0.05038621
v -0.03962315 -0.03882983 0.05040138
v -0.03992979 -0.03762545 0.05024209
v -0.04021996 -0.03762545 0.05009037
f 1 2 5
f 1 5 7
f 1 7 3
f 1 3 8
f 1 8 15
f 1 15 9
f 1 9 4
f 1 4 6
f 1 6 2
f 2 6 10
f 2 10 5
f 3 7 13
f 3 13 17
f 3 17 16
f 3 16 14
f 3 14 8
f 4 9 6
f 5 10 12
f 5 12 19
f 5 19 18
f 5 18 13
f 5 13 7
f 6 9 11
f 6 11 12
f 6 12 10
f 8 14 15
f 9 15 14
f 9 14 11
f 11 14 16
f 11 16 17
f 11 17 18
f 11 18 19
f 11 19 12
f 13 18 17

