# https://github.com/mikedh/trimesh
v -0.03902394 -0.01560356 -0.00029787
v -0.03902394 -0.01560356 0.00228935
v -0.03902394 -0.01560012 -0.00043252
v -0.03879991 -0.01560356 -0.00044000
v -0.03574509 -0.01560356 0.00228935
v -0.03902394 0.01957274 0.00228935
v -0.03902394 0.01957274 -0.00043252
v -0.03640015 -0.01560356 -0.00044000
v -0.03879991 0.01957274 -0.00044000
v -0.03574509 -0.01560356 0.00057442
v -0.03574509 0.01957274 0.00228935
v -0.03574509 -0.01560012 -0.00044000
v -0.03574509 0.01957274 -0.00044000
f 1 2 6
f 1 6 7
f 1 7 3
f 1 3 4
f 1 4 8
f 1 8 10
f 1 10 5
f 1 5 2
f 2 5 11
f 2 11 6
f 3 7 9
f 3 9 4
f 4 9 13
f 4 13 12
f 4 12 8
f 5 10 12
f 5 12 13
f 5 13 11
f 6 11 13
f 6 13 9
f 6 9 7
f 8 12 10

