# https://github.com/mikedh/trimesh
v 0.01769484 -0.03853397 -0.00044000
v 0.01769484 -0.03793332 -0.00044000
v 0.01873904 -0.03853397 -0.00044000
v 0.01769484 -0.03853397 0.05044000
v 0.01873904 -0.03793332 -0.00044000
v 0.01769484 -0.03160168 -0.00043502
v 0.01873904 -0.03129923 -0.00043502
v 0.01873904 -0.03853397 0.05044000
v 0.01769484 -0.03160168 0.05044000
v 0.01769484 -0.03129923 -0.00033541
v 0.01800005 -0.03129923 -0.00041510
v 0.01769484 -0.03129781 0.04339270
v 0.01873904 -0.03129781 0.04339270
v 0.01873904 -0.03129781 0.05044000
v 0.01830198 -0.03129781 0.05044000
v 0.01769484 -0.03129781 0.05042506
f 1 2 5
f 1 5 3
f 1 3 8
f 1 8 4
f 1 4 9
f 1 9 16
f 1 16 12
f 1 12 10
f 1 10 6
f 1 6 2
f 2 6 7
f 2 7 5
f 3 5 7
f 3 7 13
f 3 13 14
f 3 14 8
f 4 8 14
f 4 14 15
f 4 15 9
f 6 10 11
f 6 11 7
f 7 11 12
f 7 12 13
f 9 15 16
f 10 12 11
f 12 16 15
f 12 15 14
f 12 14 13

