# https://github.com/mikedh/trimesh
v 0.04001110 -0.04029413 0.02373670
v 0.04001110 -0.04029132 0.00769091
v 0.04013549 -0.04024924 0.00769091
v 0.04001110 -0.04029413 0.02863428
v 0.04001110 -0.02596395 0.00769091
v 0.04022009 -0.04021838 0.00769091
v 0.04022009 -0.04021838 0.02863428
v 0.04001110 -0.02596676 0.02863428
v 0.04044000 -0.02596395 0.00769091
v 0.04001110 -0.02596395 0.02373670
v 0.04044000 -0.03959838 0.00769091
v 0.04044000 -0.03959838 0.02863428
v 0.04044000 -0.02596676 0.02863428
v 0.04001110 -0.02596536 0.02859943
v 0.04044000 -0.02596395 0.02373670
v 0.04044000 -0.02596536 0.02859943
f 1 2 3
f 1 3 4
f 1 4 8
f 1 8 14
f 1 14 10
f 1 10 5
f 1 5 2
f 2 5 9
f 2 9 11
f 2 11 6
f 2 6 3
f 3 6 7
f 3 7 4
f 4 7 12
f 4 12 13
f 4 13 8
f 5 10 15
f 5 15 9
f 6 11 12
f 6 12 7
f 8 13 16
f 8 16 14
f 9 15 16
f 9 16 13
f 9 13 12
f 9 12 11
f 10 14 16
f 10 16 15

