# https://github.com/mikedh/trimesh
v -0.00266720 -0.00981228 0.02378857
v -0.00246167 -0.00948913 0.02378857
v -0.00266720 -0.00981228 0.04939605
v -0.00266720 -0.00600538 0.02378857
v -0.00223275 -0.00907915 0.02378857
v -0.00246167 -0.00948913 0.04939605
v -0.00229211 -0.00899268 0.04995954
v -0.00266720 -0.00968667 0.04963866
v -0.00163238 -0.00600538 0.02378857
v -0.00266720 -0.00600538 0.05043955
v -0.00185006 -0.00839373 0.02378857
v -0.00223822 -0.00908884 0.04939605
v -0.00185350 -0.00839969 0.04859777
v -0.00212710 -0.00839969 0.05007954
v -0.00266720 -0.00919357 0.05011606
v -0.00185381 -0.00839969 0.04939605
v -0.00163238 -0.00799902 0.04939605
v -0.00163238 -0.00798262 0.04941953
v -0.00163238 -0.00751785 0.05002737
v -0.00163238 -0.00799977 0.02378857
v -0.00163238 -0.00600538 0.05029346
v -0.00266720 -0.00666732 0.05043955
v -0.00200008 -0.00600538 0.05043694
v -0.00163238 -0.00799977 0.04859777
v -0.00163238 -0.00721670 0.05011606
v -0.00163238 -0.00713768 0.05013693
v -0.00200008 -0.00680000 0.05040303
v -0.00266720 -0.00839969 0.05033520
v -0.00266720 -0.00913058 0.05013954
v -0.00163238 -0.00644853 0.05027520
v -0.00266720 -0.00746753 0.05043172
v -0.00233759 -0.00713768 0.05041868
v -0.00163238 -0.00680000 0.05021780
v -0.00266720 -0.00828862 0.05036129
f 1 2 6
f 1 6 3
f 1 3 8
f 1 8 15
f 1 15 29
f 1 29 28
f 1 28 34
f 1 34 31
f 1 31 22
f 1 22 10
f 1 10 4
f 1 4 9
f 1 9 20
f 1 20 11
f 1 11 5
f 1 5 2
f 2 5 6
f 3 6 7
f 3 7 8
f 4 10 23
f 4 23 21
f 4 21 9
f 5 11 6
f 6 12 7
f 6 11 13
f 6 13 12
f 7 14 15
f 7 15 8
f 7 12 16
f 7 16 17
f 7 17 18
f 7 18 19
f 7 19 14
f 9 21 30
f 9 30 33
f 9 33 26
f 9 26 25
f 9 25 19
f 9 19 18
f 9 18 17
f 9 17 24
f 9 24 20
f 10 22 23
f 11 20 24
f 11 24 13
f 12 13 16
f 13 24 16
f 14 19 25
f 14 25 26
f 14 26 27
f 14 27 28
f 14 28 29
f 14 29 15
f 16 24 17
f 21 23 30
f 22 31 23
f 23 27 30
f 23 31 32
f 23 32 27
f 26 33 27
f 27 33 30
f 27 32 34
f 27 34 28
f 31 34 32

