# https://github.com/mikedh/trimesh
v 0.01722284 0.02946259 0.03510036
v 0.01696734 0.03058645 0.03509886
v 0.01808233 0.02946259 0.03510036
v 0.01722284 0.02946259 0.04859912
v 0.01696734 0.02979674 0.03510036
v 0.01808233 0.03058645 0.03509886
v 0.01696734 0.04043797 0.03509886
v 0.01808233 0.02946259 0.05025831
v 0.01696734 0.02979674 0.04859912
v 0.01722622 0.02946259 0.04939944
v 0.01808233 0.04043797 0.03509886
v 0.01696734 0.04043797 0.04939794
v 0.01808233 0.02999336 0.05041447
v 0.01806225 0.02946259 0.05025831
v 0.01696734 0.02980856 0.04939944
v 0.01741143 0.02946259 0.05000155
v 0.01808233 0.04043797 0.04939794
v 0.01696734 0.04037457 0.04959914
v 0.01808233 0.03000088 0.05041597
v 0.01799993 0.03000088 0.05041297
v 0.01796348 0.02946259 0.05025531
v 0.01696734 0.03012767 0.05003609
v 0.01718606 0.03000948 0.05011567
v 0.01808233 0.04024349 0.05001356
v 0.01696734 0.04021878 0.05009164
v 0.01808233 0.03079382 0.05043550
v 0.01696734 0.03160072 0.05043700
v 0.01720003 0.03080134 0.05037393
v 0.01696734 0.03079274 0.05030186
v 0.01808233 0.04021878 0.05009164
v 0.01696734 0.04003935 0.05018474
v 0.01808233 0.03159427 0.05043850
v 0.01720003 0.03160072 0.05043850
v 0.01696734 0.03240118 0.05043850
v 0.01808233 0.03959883 0.05041147
v 0.01696734 0.03959883 0.05041147
v 0.01808233 0.03879837 0.05043850
v 0.01696734 0.03879837 0.05043850
v 0.01808233 0.03888111 0.05043700
f 1 2 6
f 1 6 3
f 1 3 8
f 1 8 14
f 1 14 21
f 1 21 16
f 1 16 10
f 1 10 4
f 1 4 9
f 1 9 5
f 1 5 2
f 2 5 9
f 2 9 15
f 2 15 22
f 2 22 29
f 2 29 27
f 2 27 34
f 2 34 38
f 2 38 36
f 2 36 31
f 2 31 25
f 2 25 18
f 2 18 12
f 2 12 7
f 2 7 11
f 2 11 6
f 3 6 11
f 3 11 17
f 3 17 24
f 3 24 30
f 3 30 35
f 3 35 39
f 3 39 37
f 3 37 32
f 3 32 26
f 3 26 19
f 3 19 13
f 3 13 8
f 4 10 9
f 7 12 17
f 7 17 11
f 8 13 14
f 9 10 15
f 10 16 15
f 12 18 17
f 13 19 20
f 13 20 21
f 13 21 14
f 15 16 22
f 16 23 22
f 16 21 23
f 17 18 24
f 18 25 24
f 19 26 27
f 19 27 20
f 20 28 29
f 20 29 21
f 20 27 28
f 21 29 23
f 22 23 29
f 24 25 30
f 25 31 30
f 26 32 33
f 26 33 27
f 27 33 34
f 27 29 28
f 30 31 35
f 31 36 35
f 32 37 38
f 32 38 34
f 32 34 33
f 35 36 39
f 36 38 39
f 37 39 38

