# https://github.com/mikedh/trimesh
v 0.01659637 0.03020174 0.03562822
v 0.01696733 0.03020174 0.03562822
v 0.01659485 0.03020174 0.03658944
v 0.01659717 0.03020274 0.01421240
v 0.01660013 0.03020274 0.01341056
v 0.01660093 0.03020274 0.01330099
v 0.01660613 0.03020274 0.01261867
v 0.01661704 0.03020274 0.01184172
v 0.01663424 0.03020274 0.01105482
v 0.01676823 0.03020274 0.00639314
v 0.01680010 0.03020274 0.00563114
v 0.01681231 0.03020274 0.00540204
v 0.01682381 0.03020274 0.00520780
v 0.01684390 0.03020274 0.00487411
v 0.01686066 0.03020274 0.00460019
v 0.01696336 0.03020274 0.00300147
v 0.01696733 0.03020274 0.00294669
v 0.01696733 0.03020174 0.03817322
v 0.01659485 0.03020174 0.03739129
v 0.01659312 0.03020274 0.01740486
v 0.01622902 0.03050740 0.01740486
v 0.01622902 0.03051342 0.01181184
v 0.01622902 0.03053847 0.00538710
v 0.01622902 0.03054449 0.00456532
v 0.01622902 0.03057756 0.00063577
v 0.01696733 0.03028091 0.00064573
v 0.01659681 0.03020174 0.03817322
v 0.01696733 0.03020274 0.05005651
v 0.01659312 0.03020274 0.04860222
v 0.01622902 0.03050740 0.04859724
v 0.01622902 0.03064470 0.00043656
v 0.01696733 0.03036810 0.00030706
v 0.01683017 0.03020274 0.04998180
v 0.01661748 0.03020274 0.04939909
v 0.01696733 0.03079303 0.05030055
v 0.01622902 0.03081608 0.05011627
v 0.01622902 0.03051743 0.04935427
v 0.01622902 0.03089525 -0.00010631
v 0.01696733 0.03076196 -0.00014615
v 0.01668115 0.03028392 0.04993200
v 0.01622902 0.03051943 0.04939909
v 0.01696733 0.03160178 0.05043502
v 0.01640009 0.03160178 0.05043004
v 0.01622902 0.03160178 0.05042506
v 0.01622902 0.03103255 -0.00017604
v 0.01696733 0.03092632 -0.00022086
v 0.01696733 0.03240152 0.05044000
v 0.01622902 0.03240152 0.05044000
v 0.01622902 0.03160078 -0.00042506
v 0.01640009 0.03160078 -0.00043004
v 0.01696733 0.03160078 -0.00043502
v 0.01696733 0.03879843 0.05044000
v 0.01622902 0.03879843 0.05044000
v 0.01622902 0.03177115 -0.00043004
v 0.01622902 0.03240052 -0.00044000
v 0.01696733 0.03183329 -0.00044000
v 0.01696733 0.03959817 0.05041012
v 0.01622902 0.03959817 0.05041012
v 0.01622902 0.03879843 -0.00044000
v 0.01696733 0.03879843 -0.00044000
v 0.01696733 0.04021852 0.05008639
v 0.01622902 0.04021852 0.05008639
v 0.01622902 0.03959817 -0.00041012
v 0.01696733 0.03959817 -0.00041012
v 0.01696733 0.04044000 0.04939909
v 0.01622902 0.04044000 0.04939909
v 0.01622902 0.04021852 -0.00009137
v 0.01696733 0.04021852 -0.00009137
v 0.01696733 0.04044000 0.00060091
v 0.01622902 0.04044000 0.00060091
f 1 2 18
f 1 18 27
f 1 27 19
f 1 19 3
f 1 3 4
f 1 4 5
f 1 5 6
f 1 6 7
f 1 7 8
f 1 8 9
f 1 9 10
f 1 10 11
f 1 11 12
f 1 12 13
f 1 13 14
f 1 14 15
f 1 15 16
f 1 16 17
f 1 17 2
f 2 17 26
f 2 26 32
f 2 32 39
f 2 39 46
f 2 46 51
f 2 51 56
f 2 56 60
f 2 60 64
f 2 64 68
f 2 68 69
f 2 69 65
f 2 65 61
f 2 61 57
f 2 57 52
f 2 52 47
f 2 47 42
f 2 42 35
f 2 35 28
f 2 28 18
f 3 19 29
f 3 29 20
f 3 20 4
f 4 20 21
f 4 21 22
f 4 22 5
f 5 22 23
f 5 23 6
f 6 23 7
f 7 23 24
f 7 24 25
f 7 25 8
f 8 25 9
f 9 25 10
f 10 25 11
f 11 25 12
f 12 25 13
f 13 25 14
f 14 25 15
f 15 25 16
f 16 25 17
f 17 25 26
f 18 28 27
f 19 27 29
f 20 29 30
f 20 30 21
f 21 30 37
f 21 37 41
f 21 41 36
f 21 36 44
f 21 44 48
f 21 48 53
f 21 53 58
f 21 58 62
f 21 62 66
f 21 66 70
f 21 70 67
f 21 67 63
f 21 63 59
f 21 59 55
f 21 55 54
f 21 54 49
f 21 49 45
f 21 45 38
f 21 38 31
f 21 31 25
f 21 25 24
f 21 24 23
f 21 23 22
f 25 31 32
f 25 32 26
f 27 28 33
f 27 33 34
f 27 34 29
f 28 35 36
f 28 36 33
f 29 34 37
f 29 37 30
f 31 38 32
f 32 38 39
f 33 36 40
f 33 40 34
f 34 41 37
f 34 40 41
f 35 42 43
f 35 43 44
f 35 44 36
f 36 41 40
f 38 45 39
f 39 45 46
f 42 47 48
f 42 48 43
f 43 48 44
f 45 49 46
f 46 49 50
f 46 50 51
f 47 52 53
f 47 53 48
f 49 54 50
f 50 55 56
f 50 56 51
f 50 54 55
f 52 57 58
f 52 58 53
f 55 59 60
f 55 60 56
f 57 61 62
f 57 62 58
f 59 63 64
f 59 64 60
f 61 65 66
f 61 66 62
f 63 67 68
f 63 68 64
f 65 69 70
f 65 70 66
f 67 70 69
f 67 69 68

