# https://github.com/mikedh/trimesh
v -0.01871813 0.02120349 0.03259835
v -0.01871813 0.02120349 0.02699845
v -0.01871813 0.02120619 0.02699386
v -0.01876065 0.02209152 0.03884775
v -0.01872025 0.02120349 0.04939576
v -0.01879467 0.02120349 0.02699386
v -0.01876278 0.02209152 0.02699386
v -0.01876065 0.02209152 0.03473274
v -0.01876278 0.02209152 0.04695383
v -0.01873089 0.02142932 0.04916855
v -0.01876491 0.02209152 0.04939805
v -0.01896052 0.02209152 0.05001312
v -0.01898604 0.02209152 0.05009115
v -0.01896265 0.02120349 0.05009345
v -0.04043787 0.02120349 0.02699386
v -0.03898139 0.02209152 0.02699386
v -0.01960478 0.02209152 0.05041016
v -0.01960478 0.02120349 0.05041705
v -0.04043787 0.02209074 0.02699386
v -0.04044000 0.02120349 0.03473274
v -0.04043787 0.02209152 0.02700304
v -0.02040638 0.02209152 0.05044000
v -0.02040638 0.02120349 0.05044000
v -0.04044000 0.02209152 0.03473274
v -0.04044000 0.02120349 0.03884775
v -0.03879428 0.02209152 0.05044000
v -0.03879428 0.02120349 0.05044000
v -0.04044000 0.02209152 0.03884775
v -0.04043787 0.02120349 0.04695383
v -0.03959375 0.02209152 0.05041016
v -0.03959375 0.02120349 0.05041016
v -0.04043787 0.02209152 0.04695383
v -0.04043149 0.02120349 0.04939805
v -0.04014445 0.02209152 0.05012787
v -0.04021461 0.02120349 0.05009115
v -0.04043149 0.02209152 0.04939805
v -0.04041236 0.02209152 0.04947608
v -0.04021461 0.02209152 0.05009115
f 1 2 3
f 1 3 4
f 1 4 5
f 1 5 14
f 1 14 18
f 1 18 23
f 1 23 27
f 1 27 31
f 1 31 35
f 1 35 33
f 1 33 29
f 1 29 25
f 1 25 20
f 1 20 15
f 1 15 6
f 1 6 2
f 2 6 3
f 3 6 15
f 3 15 19
f 3 19 16
f 3 16 7
f 3 7 8
f 3 8 4
f 4 8 7
f 4 7 16
f 4 16 21
f 4 21 24
f 4 24 28
f 4 28 32
f 4 32 36
f 4 36 37
f 4 37 38
f 4 38 34
f 4 34 30
f 4 30 26
f 4 26 22
f 4 22 17
f 4 17 13
f 4 13 12
f 4 12 11
f 4 11 9
f 4 9 10
f 4 10 5
f 5 10 11
f 5 11 12
f 5 12 13
f 5 13 14
f 9 11 10
f 13 17 14
f 14 17 18
f 15 20 24
f 15 24 19
f 16 19 21
f 17 22 18
f 18 22 23
f 19 24 21
f 20 25 28
f 20 28 24
f 22 26 27
f 22 27 23
f 25 29 32
f 25 32 28
f 26 30 31
f 26 31 27
f 29 33 36
f 29 36 32
f 30 34 31
f 31 34 35
f 33 35 37
f 33 37 36
f 34 38 35
f 35 38 37

