# https://github.com/mikedh/trimesh
v -0.00968279 0.01392748 0.03157471
v -0.00968279 0.01487595 0.03157471
v -0.00911664 0.01392748 0.03157471
v -0.00968279 0.01392748 0.05044000
v -0.00911664 0.01487595 0.03157471
v -0.00968279 0.01487595 0.05040491
v -0.00911664 0.01392748 0.05044000
v -0.00968279 0.01400009 0.05044000
v -0.00911664 0.01487595 0.05036244
v -0.00968279 0.01480000 0.05043446
v -0.00920000 0.01480000 0.05042707
v -0.00920249 0.01487595 0.05039752
v -0.00911664 0.01400009 0.05044000
v -0.00911953 0.01487595 0.05037167
v -0.00911664 0.01485580 0.05037906
v -0.00911664 0.01480000 0.05041230
f 1 2 5
f 1 5 3
f 1 3 7
f 1 7 4
f 1 4 8
f 1 8 10
f 1 10 6
f 1 6 2
f 2 6 12
f 2 12 14
f 2 14 9
f 2 9 5
f 3 5 9
f 3 9 15
f 3 15 16
f 3 16 13
f 3 13 7
f 4 7 13
f 4 13 8
f 6 10 11
f 6 11 12
f 8 13 10
f 9 14 15
f 10 13 11
f 11 13 16
f 11 16 12
f 12 16 14
f 14 16 15

