# https://github.com/mikedh/trimesh
v 0.04044000 -0.01870114 0.02766917
v 0.01876637 -0.01870114 0.02766917
v 0.04044000 -0.02596255 0.02766917
v 0.04044000 -0.01870114 0.01294598
v 0.01876637 -0.02596255 0.02766917
v 0.01876212 -0.01870114 0.02375381
v 0.04044000 -0.02596255 0.01294598
v 0.04044000 -0.01870256 0.00060281
v 0.04021507 -0.01870256 -0.00008781
v 0.02598950 -0.01870114 -0.00044000
v 0.01876212 -0.02596255 0.02375381
v 0.01876212 -0.01870114 0.01294598
v 0.04044000 -0.02596184 0.00060281
v 0.02598950 -0.02596255 -0.00044000
v 0.04021507 -0.02596184 -0.00009056
v 0.04021507 -0.02247827 -0.00009056
v 0.03996893 -0.02247827 -0.00021988
v 0.03959546 -0.01870256 -0.00040973
v 0.03879549 -0.01870256 -0.00043725
v 0.03879549 -0.02247827 -0.00044000
v 0.02040239 -0.01870114 -0.00044000
v 0.01876212 -0.02596255 0.01294598
v 0.01876424 -0.01870114 0.00060281
v 0.02040239 -0.02596255 -0.00044000
v 0.03879549 -0.02596184 -0.00044000
v 0.03959546 -0.02596184 -0.00040973
v 0.01960242 -0.01870114 -0.00040973
v 0.01876424 -0.02596255 0.00060281
v 0.01895522 -0.01870114 -0.00000526
v 0.01960242 -0.02596255 -0.00040973
v 0.01957483 -0.02596255 -0.00039598
v 0.01952602 -0.01870114 -0.00037121
v 0.01897219 -0.02596255 -0.00005754
v 0.01898280 -0.01870114 -0.00009056
v 0.01898280 -0.02596255 -0.00009056
f 1 2 5
f 1 5 3
f 1 3 7
f 1 7 13
f 1 13 8
f 1 8 4
f 1 4 10
f 1 10 21
f 1 21 27
f 1 27 32
f 1 32 34
f 1 34 29
f 1 29 23
f 1 23 12
f 1 12 6
f 1 6 2
f 2 6 11
f 2 11 5
f 3 5 11
f 3 11 22
f 3 22 28
f 3 28 33
f 3 33 35
f 3 35 31
f 3 31 30
f 3 30 24
f 3 24 14
f 3 14 7
f 4 8 9
f 4 9 10
f 6 12 22
f 6 22 11
f 7 14 15
f 7 15 13
f 8 13 15
f 8 15 16
f 8 16 9
f 9 16 17
f 9 17 18
f 9 18 10
f 10 18 19
f 10 19 20
f 10 20 25
f 10 25 14
f 10 14 24
f 10 24 21
f 12 23 28
f 12 28 22
f 14 25 26
f 14 26 15
f 15 26 17
f 15 17 16
f 17 26 18
f 18 26 25
f 18 25 20
f 18 20 19
f 21 24 30
f 21 30 27
f 23 29 28
f 27 31 32
f 27 30 31
f 28 29 33
f 29 34 35
f 29 35 33
f 31 35 32
f 32 35 34

