# https://github.com/mikedh/trimesh
v -0.00163228 -0.00594959 -0.00029272
v -0.00163228 -0.00519863 -0.00038664
v -0.00120003 -0.00519863 -0.00032474
v -0.00115645 -0.00594959 -0.00011983
v -0.00163228 -0.00594959 0.02080862
v -0.00163228 -0.00439851 -0.00042506
v -0.00120003 -0.00439851 -0.00040798
v -0.00109774 -0.00439851 -0.00035889
v -0.00109774 -0.00519863 -0.00026070
v -0.00109774 -0.00594959 -0.00007501
v -0.00163154 -0.00594959 0.02136571
v -0.00163228 0.00145489 0.02136571
v -0.00163228 -0.00359840 -0.00043360
v -0.00120003 -0.00359840 -0.00043360
v -0.00109774 -0.00359840 -0.00038664
v -0.00109774 -0.00594959 0.02136571
v -0.00163228 0.00799918 0.02136571
v -0.00163228 -0.00279828 -0.00044000
v -0.00109774 -0.00040066 -0.00042506
v -0.00109774 -0.00199816 -0.00040798
v -0.00120003 -0.00279828 -0.00044000
v -0.00109774 0.00106712 0.02136571
v -0.00163228 0.00799918 0.00134442
v -0.00161569 0.00796915 0.02136571
v -0.00163228 0.00323126 -0.00044000
v -0.00109774 0.00109716 -0.00042506
v -0.00120003 0.00279843 -0.00044000
v -0.00109774 0.00673484 0.02068055
v -0.00109811 0.00304557 0.02136571
v -0.00161496 0.00796778 0.00140418
v -0.00161532 0.00796778 0.00060162
v -0.00163228 0.00799782 0.00060162
v -0.00143690 0.00756772 0.02136571
v -0.00161496 0.00796778 0.02059944
v -0.00144616 0.00304557 -0.00044000
v -0.00163228 0.00403138 -0.00043360
v -0.00120003 0.00359991 -0.00043360
v -0.00109774 0.00269739 -0.00040798
v -0.00109884 0.00673893 0.02136571
v -0.00109774 0.00673484 0.00060162
v -0.00143690 0.00756772 0.00060162
v -0.00149127 0.00744484 0.00003385
v -0.00163228 0.00798143 0.00057814
v -0.00112192 0.00679901 0.02136571
v -0.00163228 0.00483149 -0.00042506
v -0.00120003 0.00440003 -0.00040798
v -0.00109774 0.00428534 -0.00036743
v -0.00109774 0.00350434 -0.00039091
v -0.00112192 0.00679901 0.00060162
v -0.00109774 0.00645357 0.00029426
v -0.00109774 0.00595111 -0.00007501
v -0.00136103 0.00679901 -0.00008141
v -0.00163228 0.00751720 -0.00003018
v -0.00163228 0.00563161 -0.00038450
v -0.00120003 0.00519878 -0.00032474
v -0.00109774 0.00440003 -0.00035889
v -0.00109774 0.00589649 -0.00009635
v -0.00109774 0.00519878 -0.00026070
v -0.00163228 0.00679901 -0.00022015
v -0.00163228 0.00721545 -0.00011556
v -0.00163228 0.00644674 -0.00027565
v -0.00109774 0.00506907 -0.00028418
f 1 2 3
f 1 3 4
f 1 4 10
f 1 10 16
f 1 16 11
f 1 11 5
f 1 5 12
f 1 12 17
f 1 17 23
f 1 23 32
f 1 32 43
f 1 43 53
f 1 53 60
f 1 60 59
f 1 59 61
f 1 61 54
f 1 54 45
f 1 45 36
f 1 36 25
f 1 25 18
f 1 18 13
f 1 13 6
f 1 6 2
f 2 6 7
f 2 7 3
f 3 8 9
f 3 9 4
f 3 7 8
f 4 9 10
f 5 11 12
f 6 13 14
f 6 14 7
f 7 14 15
f 7 15 8
f 8 15 20
f 8 20 19
f 8 19 26
f 8 26 38
f 8 38 48
f 8 48 47
f 8 47 56
f 8 56 62
f 8 62 58
f 8 58 57
f 8 57 51
f 8 51 50
f 8 50 40
f 8 40 28
f 8 28 22
f 8 22 16
f 8 16 10
f 8 10 9
f 11 16 22
f 11 22 29
f 11 29 39
f 11 39 44
f 11 44 33
f 11 33 24
f 11 24 17
f 11 17 12
f 13 18 21
f 13 21 14
f 14 19 20
f 14 20 15
f 14 21 19
f 17 24 23
f 18 25 35
f 18 35 27
f 18 27 21
f 19 21 27
f 19 27 26
f 22 28 29
f 23 30 31
f 23 31 32
f 23 24 30
f 24 33 34
f 24 34 30
f 25 36 35
f 26 27 37
f 26 37 38
f 27 35 37
f 28 39 29
f 28 40 39
f 30 34 33
f 30 33 41
f 30 41 31
f 31 41 42
f 31 42 32
f 32 42 43
f 33 44 49
f 33 49 41
f 35 36 37
f 36 45 37
f 37 45 46
f 37 46 47
f 37 47 48
f 37 48 38
f 39 40 49
f 39 49 44
f 40 50 42
f 40 42 49
f 41 49 42
f 42 51 52
f 42 52 53
f 42 53 43
f 42 50 51
f 45 54 46
f 46 54 55
f 46 55 56
f 46 56 47
f 51 57 52
f 52 57 58
f 52 58 55
f 52 55 59
f 52 59 60
f 52 60 53
f 54 61 55
f 55 61 59
f 55 58 62
f 55 62 56

