# https://github.com/mikedh/trimesh
v -0.00911659 -0.00886194 0.02378857
v -0.00911659 0.01361610 0.02378857
v -0.00814946 -0.00886194 0.02378857
v -0.00911659 -0.00886194 0.05044000
v -0.00814946 0.01361610 0.02378857
v -0.00911659 0.01361610 0.05044000
v -0.00814946 -0.00886194 0.05044000
v -0.00814946 0.01361610 0.05041913
v -0.00840014 0.01361610 0.05044000
v -0.00814946 0.01319805 0.05044000
f 1 2 5
f 1 5 3
f 1 3 7
f 1 7 4
f 1 4 6
f 1 6 2
f 2 6 9
f 2 9 8
f 2 8 5
f 3 5 8
f 3 8 10
f 3 10 7
f 4 7 10
f 4 10 9
f 4 9 6
f 8 9 10

