# https://github.com/mikedh/trimesh
v -0.00438476 0.01058459 -0.00040782
v -0.00438476 0.01078493 -0.00039721
v -0.00418454 0.01058459 -0.00038307
v -0.00438476 0.01058459 0.01162981
v -0.00438476 0.01160777 -0.00013798
v -0.00361930 0.01058459 -0.00014152
v -0.00438476 0.01161515 -0.00013563
v -0.00361930 0.01058459 0.01162981
v -0.00438476 0.01209055 0.01162981
v -0.00361930 0.01076694 -0.00007553
v -0.00438476 0.01162384 -0.00013092
v -0.00388757 0.01134656 0.00004230
v -0.00361930 0.01114358 0.01162981
v -0.00438476 0.01209055 0.00060082
v -0.00419555 0.01187739 0.01162981
v -0.00361930 0.01077387 -0.00007200
v -0.00438476 0.01199827 0.00030977
v -0.00414444 0.01181975 0.00060082
v -0.00383136 0.01141983 0.00060082
v -0.00361930 0.01114358 0.00060082
v -0.00361930 0.01108314 0.00037105
v -0.00366441 0.01120239 0.01162981
v -0.00414444 0.01181975 0.01162981
v -0.00407783 0.01173470 0.01162981
v -0.00383136 0.01141983 0.01162981
f 1 2 3
f 1 3 6
f 1 6 8
f 1 8 4
f 1 4 9
f 1 9 14
f 1 14 17
f 1 17 11
f 1 11 7
f 1 7 5
f 1 5 2
f 2 5 3
f 3 5 7
f 3 7 6
f 4 8 13
f 4 13 22
f 4 22 25
f 4 25 24
f 4 24 23
f 4 23 15
f 4 15 9
f 6 7 10
f 6 10 16
f 6 16 21
f 6 21 20
f 6 20 13
f 6 13 8
f 7 11 12
f 7 12 10
f 9 15 14
f 10 12 16
f 11 17 12
f 12 17 18
f 12 18 19
f 12 19 20
f 12 20 21
f 12 21 16
f 13 20 22
f 14 18 17
f 14 15 18
f 15 23 18
f 18 23 24
f 18 24 19
f 19 24 25
f 19 25 22
f 19 22 20

