# https://github.com/mikedh/trimesh
v -0.03933410 -0.03938377 0.00993089
v -0.04043990 -0.03938377 0.00993089
v -0.03933410 -0.04044000 0.00993089
v -0.03933410 -0.03938377 -0.00040803
v -0.04043990 -0.03960006 0.00993089
v -0.04043990 -0.03938377 0.00060096
v -0.03960008 -0.04044000 0.00993089
v -0.03933410 -0.04044000 0.00060096
v -0.03933410 -0.03960006 -0.00040399
v -0.03960008 -0.03960006 -0.00039994
v -0.03960008 -0.03938377 -0.00040298
v -0.04036596 -0.03980860 0.00993089
v -0.04043990 -0.03960006 0.00060096
v -0.04021993 -0.03938377 -0.00009329
v -0.04021993 -0.04021999 0.00993089
v -0.03960008 -0.04044000 0.00060096
v -0.03933410 -0.04021999 -0.00009329
v -0.03960008 -0.04021999 -0.00009329
v -0.04021993 -0.03960006 -0.00009329
v -0.04014664 -0.04014658 0.00000488
v -0.04021993 -0.04021999 0.00060096
f 1 2 5
f 1 5 12
f 1 12 15
f 1 15 7
f 1 7 3
f 1 3 8
f 1 8 17
f 1 17 9
f 1 9 4
f 1 4 11
f 1 11 14
f 1 14 6
f 1 6 2
f 2 6 13
f 2 13 5
f 3 7 16
f 3 16 8
f 4 9 10
f 4 10 11
f 5 13 12
f 6 14 19
f 6 19 13
f 7 15 21
f 7 21 16
f 8 16 18
f 8 18 17
f 9 17 18
f 9 18 10
f 10 19 11
f 10 18 20
f 10 20 19
f 11 19 14
f 12 13 21
f 12 21 15
f 13 19 20
f 13 20 21
f 16 21 20
f 16 20 18

