# https://github.com/mikedh/trimesh
v -0.01876032 0.02545105 0.03550915
v -0.02063407 0.02545105 0.03550915
v -0.01876032 0.02451943 0.03550915
v -0.01876032 0.02545105 0.01418326
v -0.02076135 0.02451943 0.03550915
v -0.02199458 0.02545105 0.03408519
v -0.01876032 0.02451943 0.01418326
v -0.02115934 0.02545105 0.01418326
v -0.02199458 0.02451943 0.03413321
v -0.02199458 0.02545105 0.01589326
v -0.02149464 0.02451943 0.01418326
v -0.02199458 0.02544940 0.01588700
v -0.02199458 0.02451943 0.01589535
f 1 2 5
f 1 5 3
f 1 3 7
f 1 7 4
f 1 4 8
f 1 8 10
f 1 10 6
f 1 6 2
f 2 6 5
f 3 5 9
f 3 9 13
f 3 13 11
f 3 11 7
f 4 7 11
f 4 11 8
f 5 6 9
f 6 10 12
f 6 12 13
f 6 13 9
f 8 11 12
f 8 12 10
f 11 13 12

