# https://github.com/mikedh/trimesh
v -0.01387713 0.03076075 0.02378857
v -0.01387713 0.03837771 0.02378857
v -0.01033539 0.03076075 0.02378857
v -0.01387713 0.03076075 0.04939861
v -0.01033539 0.03837771 0.02378857
v -0.01387713 0.03837771 0.05043950
v -0.01033539 0.03076075 0.04939861
v -0.01387713 0.03098144 0.05009254
v -0.01033539 0.03837771 0.05043950
v -0.01387713 0.03240105 0.05043950
v -0.01033539 0.03098144 0.05009254
v -0.01387713 0.03107613 0.05014211
v -0.01033539 0.03240105 0.05043950
v -0.01387713 0.03160103 0.05041081
v -0.01033539 0.03134082 0.05027776
v -0.01033539 0.03160103 0.05041081
f 1 2 5
f 1 5 3
f 1 3 7
f 1 7 4
f 1 4 8
f 1 8 12
f 1 12 14
f 1 14 10
f 1 10 6
f 1 6 2
f 2 6 9
f 2 9 5
f 3 5 9
f 3 9 13
f 3 13 16
f 3 16 15
f 3 15 11
f 3 11 7
f 4 7 11
f 4 11 8
f 6 10 13
f 6 13 9
f 8 11 12
f 10 14 16
f 10 16 13
f 11 15 12
f 12 15 14
f 14 15 16

