# https://github.com/mikedh/trimesh
v -0.00109774 0.00230552 -0.00041293
v -0.00109774 0.00269804 -0.00041293
v -0.00070538 0.00230552 -0.00030849
v -0.00109774 0.00230552 0.05039828
v -0.00109774 0.00408857 -0.00036817
v -0.00109763 0.00350521 -0.00038806
v -0.00109763 0.00408814 -0.00036817
v -0.00109774 0.00428635 -0.00035822
v -0.00037562 0.00230552 -0.00016922
v -0.00037562 0.00230552 0.05016949
v -0.00109774 0.00279954 0.05039828
v -0.00109774 0.00440042 -0.00034827
v -0.00092014 0.00408857 -0.00028859
v -0.00053663 0.00408814 -0.00009462
v -0.00048391 0.00360020 -0.00010954
v -0.00009984 0.00230552 0.00002475
v -0.00109774 0.00440042 0.05034855
v -0.00109763 0.00360020 0.05038336
v 0.00003277 0.00230552 0.04987605
v -0.00053663 0.00408857 0.05009489
v -0.00057050 0.00440042 0.05008494
v -0.00109774 0.00408857 0.05035849
v -0.00109774 0.00506967 -0.00027864
v -0.00057050 0.00440042 -0.00007969
v 0.00003277 0.00230552 0.00012920
v -0.00109774 0.00519978 0.05025405
v 0.00002198 0.00252672 0.04985118
v 0.00006311 0.00230552 0.04939857
v -0.00067390 0.00519978 0.05000039
v -0.00109774 0.00519978 -0.00025377
v -0.00067390 0.00519978 0.00000486
v 0.00002198 0.00252672 0.00015407
v 0.00005277 0.00230552 0.00034307
v -0.00109774 0.00595143 0.05007002
v -0.00075503 0.00571722 0.04989097
v 0.00003300 0.00259004 0.04939857
v -0.00003325 0.00295611 0.04939857
v -0.00003950 0.00298994 0.04939857
v -0.00016574 0.00360020 0.04939857
v -0.00027278 0.00408857 0.04939857
v -0.00034130 0.00440042 0.04939857
v 0.00006311 0.00230552 0.00060170
v -0.00109774 0.00589765 -0.00008964
v -0.00075503 0.00571722 0.00011925
v -0.00034130 0.00440042 0.00061165
v -0.00027278 0.00408814 0.00060668
v -0.00016574 0.00360020 0.00060668
v -0.00003507 0.00295611 0.00057186
v -0.00003325 0.00295611 0.00060170
v 0.00003300 0.00259004 0.00060170
v -0.00109774 0.00673648 0.04939857
v -0.00054788 0.00519978 0.04939857
v -0.00073276 0.00577577 0.04939857
v -0.00003154 0.00295611 0.04859781
v -0.00003779 0.00298994 0.04859781
v -0.00016392 0.00360020 0.04859781
v -0.00027210 0.00408857 0.04859781
v -0.00109774 0.00595143 -0.00006975
v -0.00109774 0.00645456 0.00030328
v -0.00109774 0.00673648 0.00061165
v -0.00073276 0.00577577 0.00061165
v -0.00054788 0.00519978 0.00061165
v -0.00027210 0.00408857 0.00092499
v -0.00027278 0.00408857 0.00061165
v -0.00016392 0.00360020 0.00140744
v -0.00003950 0.00298994 0.00060668
v -0.00003154 0.00295611 0.00133781
v -0.00003779 0.00298994 0.00140744
f 1 2 3
f 1 3 9
f 1 9 16
f 1 16 25
f 1 25 33
f 1 33 42
f 1 42 28
f 1 28 19
f 1 19 10
f 1 10 4
f 1 4 11
f 1 11 22
f 1 22 17
f 1 17 26
f 1 26 34
f 1 34 51
f 1 51 60
f 1 60 59
f 1 59 58
f 1 58 43
f 1 43 30
f 1 30 23
f 1 23 12
f 1 12 8
f 1 8 5
f 1 5 2
f 2 5 6
f 2 6 3
f 3 6 7
f 3 7 8
f 3 8 9
f 4 10 11
f 5 8 7
f 5 7 6
f 8 12 13
f 8 13 9
f 9 13 14
f 9 14 15
f 9 15 16
f 10 17 18
f 10 18 11
f 10 19 20
f 10 20 21
f 10 21 17
f 11 18 22
f 12 23 24
f 12 24 14
f 12 14 13
f 14 24 25
f 14 25 16
f 14 16 15
f 17 22 18
f 17 21 26
f 19 27 21
f 19 21 20
f 19 28 27
f 21 27 29
f 21 29 26
f 23 30 31
f 23 31 24
f 24 31 32
f 24 32 25
f 25 32 33
f 26 29 34
f 27 35 29
f 27 28 36
f 27 36 37
f 27 37 38
f 27 38 39
f 27 39 40
f 27 40 41
f 27 41 35
f 28 42 50
f 28 50 36
f 29 35 34
f 30 43 31
f 31 44 32
f 31 43 44
f 32 44 45
f 32 45 46
f 32 46 47
f 32 47 48
f 32 48 49
f 32 49 50
f 32 50 42
f 32 42 33
f 34 35 51
f 35 41 52
f 35 52 53
f 35 53 51
f 36 54 37
f 36 50 67
f 36 67 54
f 37 54 55
f 37 55 38
f 38 55 56
f 38 56 39
f 39 56 40
f 40 56 41
f 41 56 57
f 41 57 63
f 41 63 45
f 41 45 62
f 41 62 52
f 43 58 44
f 44 58 59
f 44 59 60
f 44 60 61
f 44 61 62
f 44 62 45
f 45 63 64
f 45 64 46
f 46 64 47
f 47 64 65
f 47 65 66
f 47 66 48
f 48 66 49
f 49 66 67
f 49 67 50
f 51 53 61
f 51 61 60
f 52 62 61
f 52 61 53
f 54 67 68
f 54 68 55
f 55 68 65
f 55 65 56
f 56 65 63
f 56 63 57
f 63 65 64
f 65 68 66
f 66 68 67

