# https://github.com/mikedh/trimesh
v -0.01134614 0.01300423 0.02378857
v -0.01134614 0.01609610 0.02378857
v -0.01047343 0.01300423 0.02378857
v -0.01134614 0.01300423 0.05044000
v -0.01134614 0.01609610 0.05028347
v -0.00968279 0.01609610 0.02378857
v -0.00968279 0.01300968 0.02378857
v -0.01047343 0.01300423 0.05044000
v -0.01134614 0.01479985 0.05044000
v -0.01081926 0.01609610 0.05022347
v -0.01134614 0.01559975 0.05043478
v -0.01079972 0.01559975 0.05042696
v -0.00968279 0.01609610 0.04985302
v -0.00968279 0.01300968 0.05044000
v -0.01047343 0.01479985 0.05044000
v -0.01000012 0.01609610 0.05005912
v -0.01000012 0.01559975 0.05033565
v -0.01000012 0.01479955 0.05044000
v -0.00968279 0.01479955 0.05042956
v -0.00970444 0.01609610 0.04993650
v -0.00968279 0.01609035 0.04993128
v -0.00968279 0.01400025 0.05044000
v -0.00968279 0.01561004 0.05023651
f 1 2 6
f 1 6 7
f 1 7 3
f 1 3 8
f 1 8 4
f 1 4 9
f 1 9 11
f 1 11 5
f 1 5 2
f 2 5 10
f 2 10 16
f 2 16 20
f 2 20 13
f 2 13 6
f 3 7 14
f 3 14 8
f 4 8 14
f 4 14 22
f 4 22 18
f 4 18 15
f 4 15 9
f 5 11 12
f 5 12 10
f 6 13 21
f 6 21 23
f 6 23 19
f 6 19 22
f 6 22 14
f 6 14 7
f 9 15 11
f 10 12 17
f 10 17 16
f 11 15 18
f 11 18 12
f 12 19 17
f 12 18 19
f 13 20 21
f 16 17 23
f 16 23 21
f 16 21 20
f 17 19 23
f 18 22 19

