# https://github.com/mikedh/trimesh
v -0.00361930 0.00893691 -0.00043592
v -0.00361930 0.00921943 -0.00043592
v -0.00359994 0.00893691 -0.00043592
v -0.00361930 0.00893691 0.02378620
v -0.00361930 0.01000000 -0.00034581
v -0.00359994 0.00920020 -0.00043592
v -0.00333685 0.00893691 -0.00042407
v -0.00274411 0.00893691 0.02378620
v -0.00361930 0.01114322 0.02378620
v -0.00361930 0.01001944 -0.00034344
v -0.00359994 0.01000000 -0.00034344
v -0.00276450 0.00893691 -0.00023909
v -0.00274411 0.00993369 0.02378620
v -0.00274411 0.00893691 -0.00022961
v -0.00361930 0.01114322 0.00060040
v -0.00343699 0.01090585 0.02378620
v -0.00361930 0.01077367 -0.00007309
v -0.00361253 0.01075920 -0.00007546
v -0.00299315 0.01000000 -0.00002329
v -0.00274471 0.00923584 -0.00015135
v -0.00278634 0.01000000 0.02378620
v -0.00274411 0.00993369 0.00060040
v -0.00274411 0.00923649 -0.00014898
v -0.00343134 0.01089829 0.00060040
v -0.00314975 0.01046545 0.00011188
v -0.00361930 0.01108296 0.00037037
v -0.00342689 0.01089268 0.02378620
v -0.00274411 0.00976090 0.00027077
v -0.00279114 0.01000713 0.02378620
v -0.00278634 0.01000000 0.00060040
v -0.00312456 0.01049828 0.00060040
v -0.00312456 0.01049828 0.02378620
f 1 2 6
f 1 6 3
f 1 3 7
f 1 7 12
f 1 12 14
f 1 14 8
f 1 8 4
f 1 4 9
f 1 9 15
f 1 15 26
f 1 26 17
f 1 17 10
f 1 10 5
f 1 5 2
f 2 5 6
f 3 6 7
f 4 8 13
f 4 13 21
f 4 21 29
f 4 29 32
f 4 32 27
f 4 27 16
f 4 16 9
f 5 10 11
f 5 11 6
f 6 11 7
f 7 11 12
f 8 14 23
f 8 23 28
f 8 28 22
f 8 22 13
f 9 16 15
f 10 17 11
f 11 17 18
f 11 18 19
f 11 19 20
f 11 20 12
f 12 20 14
f 13 22 30
f 13 30 21
f 14 20 23
f 15 24 25
f 15 25 26
f 15 16 24
f 16 27 24
f 17 25 19
f 17 19 18
f 17 26 25
f 19 25 28
f 19 28 20
f 20 28 23
f 21 30 29
f 22 28 25
f 22 25 30
f 24 31 25
f 24 27 31
f 25 31 30
f 27 32 31
f 29 30 31
f 29 31 32

