# https://github.com/mikedh/trimesh
v -0.01479490 0.00327030 0.00736663
v -0.01438978 0.00327030 0.00736663
v -0.01479490 0.00327030 0.03302090
v -0.01479490 0.00743298 0.00736663
v -0.01438978 0.00743298 0.00736663
v -0.01438978 0.00327030 0.03302090
v -0.01479486 0.00327030 0.05043578
v -0.01479490 0.00743298 0.03302090
v -0.01438978 0.00743298 0.03302090
v -0.01438982 0.00327030 0.05043578
v -0.01479486 0.00743298 0.05043578
v -0.01438982 0.00743298 0.05043578
f 1 2 6
f 1 6 10
f 1 10 7
f 1 7 3
f 1 3 8
f 1 8 4
f 1 4 5
f 1 5 2
f 2 5 9
f 2 9 6
f 3 7 11
f 3 11 8
f 4 8 11
f 4 11 12
f 4 12 9
f 4 9 5
f 6 9 12
f 6 12 10
f 7 10 12
f 7 12 11

