# https://github.com/mikedh/trimesh
v -0.03879760 -0.02371985 -0.00044000
v -0.03959758 -0.02371985 -0.00041247
v -0.03879760 -0.02228015 -0.00044000
v -0.02040223 -0.02371985 -0.00044000
v -0.03959758 -0.02228015 -0.00041247
v -0.04021719 -0.02371985 -0.00009253
v -0.04000075 -0.02228015 -0.00020455
v -0.02040223 -0.02228015 -0.00044000
v -0.02012213 -0.02228015 -0.00043050
v -0.01960225 -0.02371985 -0.00041247
v -0.04021719 -0.02228015 -0.00009253
v -0.04044000 -0.02371985 0.00060051
v -0.01960225 -0.02228015 -0.00041247
v -0.01898263 -0.02371985 -0.00009253
v -0.04044000 -0.02228015 0.00060051
v -0.04044000 -0.02371985 0.00925780
v -0.01898263 -0.02228015 -0.00009253
v -0.01876407 -0.02371985 0.00060051
v -0.04044000 -0.02228015 0.00925780
v -0.01876407 -0.02371985 0.00925780
v -0.01876407 -0.02228015 0.00060051
v -0.01876407 -0.02228015 0.00925780
f 1 2 5
f 1 5 3
f 1 3 8
f 1 8 4
f 1 4 10
f 1 10 14
f 1 14 18
f 1 18 20
f 1 20 16
f 1 16 12
f 1 12 6
f 1 6 2
f 2 6 7
f 2 7 5
f 3 5 7
f 3 7 11
f 3 11 15
f 3 15 19
f 3 19 22
f 3 22 21
f 3 21 17
f 3 17 13
f 3 13 9
f 3 9 8
f 4 8 9
f 4 9 10
f 6 11 7
f 6 12 15
f 6 15 11
f 9 13 10
f 10 13 17
f 10 17 14
f 12 16 19
f 12 19 15
f 14 17 21
f 14 21 18
f 16 20 22
f 16 22 19
f 18 21 22
f 18 22 20

