# https://github.com/mikedh/trimesh
v 0.02173903 0.02920408 0.03589930
v 0.01873962 0.02920408 0.03589930
v 0.02173903 0.02791487 0.03589930
v 0.02173903 0.02920408 -0.00043644
v 0.01873933 0.02920408 0.03589574
v 0.01873933 0.02791487 0.03589930
v 0.02173903 0.02791487 -0.00043644
v 0.01959592 0.02920408 -0.00043644
v 0.01873933 0.02920408 -0.00018031
v 0.01873933 0.02791487 0.00041734
v 0.02039996 0.02791487 -0.00043644
v 0.02008516 0.02791487 -0.00042577
v 0.01960004 0.02791487 -0.00040442
v 0.01932341 0.02791487 -0.00027991
v 0.01894489 0.02791487 -0.00008781
v 0.01873933 0.02909353 -0.00015540
v 0.01873933 0.02807451 0.00032130
v 0.01881891 0.02791487 0.00018611
f 1 2 6
f 1 6 3
f 1 3 7
f 1 7 4
f 1 4 8
f 1 8 9
f 1 9 5
f 1 5 2
f 2 5 6
f 3 6 10
f 3 10 18
f 3 18 15
f 3 15 14
f 3 14 13
f 3 13 12
f 3 12 11
f 3 11 7
f 4 7 11
f 4 11 8
f 5 9 16
f 5 16 17
f 5 17 10
f 5 10 6
f 8 11 12
f 8 12 13
f 8 13 9
f 9 13 14
f 9 14 15
f 9 15 16
f 10 17 18
f 15 18 16
f 16 18 17

