# https://github.com/mikedh/trimesh
v -0.00163228 -0.00365012 0.03105714
v -0.00163228 0.00440301 0.03105714
v -0.00120694 -0.00365012 0.03105714
v -0.00163228 -0.00365012 0.05043621
v -0.00163228 0.00799967 0.03174397
v -0.00163102 0.00799625 0.03105714
v -0.00109774 0.00270960 0.03105714
v -0.00109774 -0.00365012 0.03106094
v -0.00125021 -0.00365012 0.05043431
v -0.00163228 -0.00323161 0.05044000
v -0.00163228 0.00799967 0.04859772
v -0.00161496 0.00796774 0.03105714
v -0.00109774 0.00673502 0.03105714
v -0.00109774 -0.00365012 0.05038498
v -0.00120003 -0.00365012 0.05043241
v -0.00120003 -0.00279942 0.05044000
v -0.00163228 0.00280082 0.05044000
v -0.00161496 0.00796774 0.04859772
v -0.00163228 0.00799739 0.04939838
v -0.00161532 0.00796774 0.04939838
v -0.00143685 0.00756748 0.03105714
v -0.00112192 0.00680002 0.03105714
v -0.00109774 0.00673502 0.04939838
v -0.00109774 -0.00350416 0.05039067
v -0.00109774 -0.00269679 0.05041154
v -0.00109774 -0.00189741 0.05041913
v -0.00109774 -0.00109688 0.05042482
v -0.00120003 0.00280082 0.05044000
v -0.00163228 0.00360021 0.05043621
v -0.00143685 0.00756748 0.04939838
v -0.00163228 0.00751730 0.05003018
v -0.00149127 0.00744432 0.04996757
v -0.00112192 0.00680002 0.04939838
v -0.00109774 0.00595160 0.05007572
v -0.00109774 0.00040039 0.05042482
v -0.00109774 0.00120092 0.05041913
v -0.00109774 0.00200144 0.05041154
v -0.00120003 0.00360021 0.05043241
v -0.00163228 0.00439959 0.05042482
v -0.00163228 0.00680002 0.05021801
v -0.00136109 0.00680002 0.05008141
v -0.00109774 0.00519897 0.05026165
v -0.00109774 0.00360021 0.05038687
v -0.00120003 0.00439959 0.05040775
v -0.00163228 0.00519897 0.05038687
v -0.00120003 0.00478275 0.05036980
v -0.00120003 0.00519897 0.05032426
v -0.00109774 0.00439959 0.05035841
f 1 2 6
f 1 6 12
f 1 12 21
f 1 21 22
f 1 22 13
f 1 13 7
f 1 7 3
f 1 3 8
f 1 8 14
f 1 14 15
f 1 15 9
f 1 9 4
f 1 4 10
f 1 10 17
f 1 17 29
f 1 29 39
f 1 39 45
f 1 45 40
f 1 40 31
f 1 31 19
f 1 19 11
f 1 11 5
f 1 5 2
f 2 5 6
f 3 7 8
f 4 9 10
f 5 11 18
f 5 18 12
f 5 12 6
f 7 13 23
f 7 23 34
f 7 34 42
f 7 42 48
f 7 48 43
f 7 43 37
f 7 37 36
f 7 36 35
f 7 35 27
f 7 27 26
f 7 26 25
f 7 25 24
f 7 24 14
f 7 14 8
f 9 15 16
f 9 16 10
f 10 16 28
f 10 28 17
f 11 19 20
f 11 20 18
f 12 18 30
f 12 30 21
f 13 22 33
f 13 33 23
f 14 24 15
f 15 24 25
f 15 25 26
f 15 26 16
f 16 26 27
f 16 27 35
f 16 35 28
f 17 28 29
f 18 20 30
f 19 31 32
f 19 32 20
f 20 32 30
f 21 30 33
f 21 33 22
f 23 33 32
f 23 32 34
f 28 35 36
f 28 36 37
f 28 37 38
f 28 38 29
f 29 38 39
f 30 32 33
f 31 40 41
f 31 41 32
f 32 41 34
f 34 41 42
f 37 43 38
f 38 43 44
f 38 44 39
f 39 44 45
f 40 45 46
f 40 46 47
f 40 47 41
f 41 47 42
f 42 47 48
f 43 48 44
f 44 48 46
f 44 46 45
f 46 48 47

