# https://github.com/mikedh/trimesh
v -0.02280119 0.02881892 0.05044000
v -0.02200082 0.02881892 0.05039517
v -0.03879905 0.02881892 0.05044000
v -0.02087877 0.01959951 0.05044000
v -0.02169254 0.02881892 0.05023082
v -0.02087877 0.02039986 0.05040514
v -0.03959942 0.02881892 0.05041012
v -0.03879905 -0.02359373 0.05044000
v -0.02087877 -0.02007425 0.05044000
v -0.02141107 0.02881892 0.05007643
v -0.02087877 0.02117969 0.05024576
v -0.03989429 0.02881892 0.05026070
v -0.03959942 -0.02359373 0.05041012
v -0.02280119 -0.02359373 0.05044000
v -0.02200082 -0.02359373 0.05040514
v -0.02087877 -0.02087460 0.05035035
v -0.02131150 0.02881892 0.04972282
v -0.02087877 0.02184665 0.05000670
v -0.02122151 0.02881892 0.04939909
v -0.04021980 0.02881892 0.05009137
v -0.04021980 -0.02359373 0.05009137
v -0.02139767 -0.02359373 0.05008141
v -0.02087877 -0.02165956 0.05008639
v -0.02087877 0.02222117 0.04939909
v -0.02122151 0.02881892 0.00060091
v -0.02087877 0.02222630 0.04937917
v -0.02087877 0.02224169 0.04859724
v -0.04044000 0.02881892 0.04939909
v -0.04044000 -0.02359373 0.04939909
v -0.02139575 -0.02359373 0.05007643
v -0.02087877 -0.02181860 0.04998678
v -0.02141107 0.02881892 -0.00007643
v -0.02087877 0.02224169 0.00140276
v -0.02087877 0.02222117 0.00060091
v -0.02087877 0.02221604 0.00058597
v -0.02087877 0.02184665 -0.00000670
v -0.02087877 0.02168760 -0.00010631
v -0.02087877 0.02087699 -0.00037027
v -0.04044000 0.02881892 0.00060091
v -0.04044000 -0.02359373 0.00060091
v -0.02119279 -0.02359373 0.04939909
v -0.02087877 -0.02213156 0.04946384
v -0.02171935 0.02881892 -0.00024576
v -0.02087877 0.02007664 -0.00044000
v -0.04021980 0.02881892 -0.00009137
v -0.04022172 -0.02359373 -0.00008639
v -0.02119279 -0.02359373 0.00060091
v -0.02087877 -0.02216747 0.04859724
v -0.02087877 -0.02215208 0.04939909
v -0.02200082 0.02881892 -0.00039517
v -0.02280119 0.02881892 -0.00044000
v -0.02242015 0.02881892 -0.00042008
v -0.02087877 -0.01959712 -0.00044000
v -0.03992301 0.02881892 -0.00024576
v -0.04021980 -0.02359373 -0.00009137
v -0.02139767 -0.02359373 -0.00008141
v -0.02087877 -0.02181860 0.00001322
v -0.02087877 -0.02215208 0.00060091
v -0.02087877 -0.02216747 0.00140276
v -0.03879905 0.02881892 -0.00044000
v -0.02087877 -0.02039747 -0.00039517
v -0.02200082 -0.02359373 -0.00040514
v -0.02120045 -0.02039747 -0.00044000
v -0.03959942 0.02881892 -0.00041012
v -0.03960325 -0.02359373 -0.00041012
v -0.02140341 -0.02359373 -0.00008639
v -0.02087877 -0.02117729 -0.00022584
v -0.03921838 0.02881892 -0.00042506
v -0.03879905 -0.02359373 -0.00044000
v -0.02280119 -0.02359373 -0.00044000
f 1 2 5
f 1 5 10
f 1 10 17
f 1 17 19
f 1 19 25
f 1 25 32
f 1 32 43
f 1 43 50
f 1 50 52
f 1 52 51
f 1 51 60
f 1 60 68
f 1 68 64
f 1 64 54
f 1 54 45
f 1 45 39
f 1 39 28
f 1 28 20
f 1 20 12
f 1 12 7
f 1 7 3
f 1 3 8
f 1 8 14
f 1 14 9
f 1 9 4
f 1 4 2
f 2 4 6
f 2 6 5
f 3 7 13
f 3 13 8
f 4 9 16
f 4 16 23
f 4 23 31
f 4 31 42
f 4 42 49
f 4 49 48
f 4 48 59
f 4 59 58
f 4 58 57
f 4 57 67
f 4 67 61
f 4 61 53
f 4 53 44
f 4 44 38
f 4 38 37
f 4 37 36
f 4 36 35
f 4 35 34
f 4 34 33
f 4 33 27
f 4 27 26
f 4 26 24
f 4 24 18
f 4 18 11
f 4 11 6
f 5 6 10
f 6 11 10
f 7 12 13
f 8 13 21
f 8 21 29
f 8 29 40
f 8 40 46
f 8 46 55
f 8 55 65
f 8 65 69
f 8 69 70
f 8 70 62
f 8 62 66
f 8 66 56
f 8 56 47
f 8 47 41
f 8 41 30
f 8 30 22
f 8 22 15
f 8 15 14
f 9 14 15
f 9 15 16
f 10 11 17
f 11 18 19
f 11 19 17
f 12 20 21
f 12 21 13
f 15 22 16
f 16 22 23
f 18 24 19
f 19 24 26
f 19 26 27
f 19 27 33
f 19 33 25
f 20 28 29
f 20 29 21
f 22 30 31
f 22 31 23
f 25 33 34
f 25 34 35
f 25 35 36
f 25 36 37
f 25 37 38
f 25 38 32
f 28 39 40
f 28 40 29
f 30 41 31
f 31 41 42
f 32 38 44
f 32 44 43
f 39 45 46
f 39 46 40
f 41 47 59
f 41 59 48
f 41 48 49
f 41 49 42
f 43 44 50
f 44 51 52
f 44 52 50
f 44 53 63
f 44 63 70
f 44 70 69
f 44 69 60
f 44 60 51
f 45 54 55
f 45 55 46
f 47 56 57
f 47 57 58
f 47 58 59
f 53 61 62
f 53 62 63
f 54 64 65
f 54 65 55
f 56 66 67
f 56 67 57
f 60 69 68
f 61 67 66
f 61 66 62
f 62 70 63
f 64 68 65
f 65 68 69

