# https://github.com/mikedh/trimesh
v 0.01639201 -0.04044000 0.00060205
v 0.01639201 -0.04021967 -0.00009096
v 0.01707727 -0.04044000 0.00060205
v 0.01639201 -0.04044000 0.01367927
v 0.01707727 -0.04021967 -0.00009096
v 0.01639201 -0.03959965 -0.00041120
v 0.01707727 -0.04044000 0.01367927
v 0.01639201 -0.04043903 0.01686979
v 0.01707727 -0.03959965 -0.00041120
v 0.01639201 -0.03879926 -0.00043830
v 0.01639435 -0.03936567 -0.00041967
v 0.01707727 -0.04043903 0.01686979
v 0.01639201 -0.03710782 0.01686979
v 0.01707727 -0.03936567 -0.00041967
v 0.01639201 -0.03240104 -0.00043830
v 0.01707727 -0.03879926 -0.00043830
v 0.01707727 -0.03048050 0.01686979
v 0.01639476 -0.03056240 0.01686979
v 0.01639201 -0.03056045 0.01660716
v 0.01639201 -0.03160163 -0.00042983
v 0.01707727 -0.03160163 -0.00043830
v 0.01663825 -0.03048050 0.01686979
v 0.01707727 -0.03048050 0.01367927
v 0.01640006 -0.03056045 0.01686979
v 0.01663315 -0.03048050 0.01659869
v 0.01639201 -0.03055557 0.01580741
v 0.01639201 -0.03159481 -0.00042814
v 0.01707727 -0.03074275 -0.00015365
v 0.01663845 -0.03048050 0.01367927
v 0.01707727 -0.03048148 0.00027503
v 0.01662544 -0.03048050 0.01579894
v 0.01639201 -0.03055459 0.01020579
v 0.01639201 -0.03088216 -0.00011129
v 0.01664194 -0.03048148 0.00060374
v 0.01662443 -0.03048148 0.00140179
v 0.01662597 -0.03048050 0.01537704
v 0.01639201 -0.03055947 0.00060374
v 0.01639201 -0.03055459 0.00140179
f 1 2 5
f 1 5 3
f 1 3 7
f 1 7 4
f 1 4 8
f 1 8 13
f 1 13 19
f 1 19 26
f 1 26 32
f 1 32 38
f 1 38 37
f 1 37 33
f 1 33 27
f 1 27 20
f 1 20 15
f 1 15 10
f 1 10 6
f 1 6 2
f 2 6 9
f 2 9 5
f 3 5 9
f 3 9 14
f 3 14 16
f 3 16 21
f 3 21 28
f 3 28 30
f 3 30 23
f 3 23 17
f 3 17 12
f 3 12 7
f 4 7 12
f 4 12 8
f 6 10 11
f 6 11 14
f 6 14 9
f 8 12 17
f 8 17 22
f 8 22 24
f 8 24 18
f 8 18 13
f 10 15 21
f 10 21 16
f 10 16 14
f 10 14 11
f 13 18 19
f 15 20 21
f 17 23 29
f 17 29 36
f 17 36 31
f 17 31 25
f 17 25 22
f 18 24 19
f 19 25 26
f 19 24 22
f 19 22 25
f 20 27 21
f 21 27 28
f 23 30 29
f 25 31 26
f 26 31 32
f 27 33 28
f 28 33 30
f 29 30 34
f 29 34 35
f 29 35 36
f 30 33 37
f 30 37 34
f 31 36 35
f 31 35 38
f 31 38 32
f 34 37 35
f 35 37 38

