# https://github.com/mikedh/trimesh
v 0.02747753 0.02749085 0.03169530
v 0.02747753 0.02749085 0.03590196
v 0.02747753 0.02749212 0.02672690
v 0.03912619 0.02749085 0.03169530
v 0.03912619 0.02749085 0.03590196
v 0.02747753 0.03858940 0.03590286
v 0.03912619 0.02749212 0.02672690
v 0.02747753 0.03858940 0.02672600
v 0.03912619 0.03858940 0.03590286
v 0.02747753 0.04044000 0.03590286
v 0.03912619 0.03858940 0.02672600
v 0.02747753 0.04044000 0.02672600
v 0.03912619 0.04044000 0.03590286
v 0.03912619 0.04044000 0.02672600
f 1 2 6
f 1 6 10
f 1 10 12
f 1 12 8
f 1 8 3
f 1 3 7
f 1 7 4
f 1 4 5
f 1 5 2
f 2 5 9
f 2 9 6
f 3 8 11
f 3 11 7
f 4 7 11
f 4 11 14
f 4 14 13
f 4 13 9
f 4 9 5
f 6 9 13
f 6 13 10
f 8 12 14
f 8 14 11
f 10 13 14
f 10 14 12

