# https://github.com/mikedh/trimesh
v 0.01560061 -0.04044000 0.01296232
v 0.01639193 -0.04044000 0.01296232
v 0.01560061 -0.04044000 0.01790788
v 0.01560061 -0.04043710 0.00060091
v 0.01639193 -0.04043710 0.00060091
v 0.01639193 -0.04044000 0.01790788
v 0.01560061 -0.04043807 0.04939909
v 0.01560061 -0.04021841 -0.00009137
v 0.01639193 -0.04021841 -0.00009137
v 0.01639193 -0.04043807 0.04939909
v 0.01560061 -0.04021841 0.05009137
v 0.01560061 -0.03959910 -0.00041012
v 0.01639193 -0.03959716 -0.00041012
v 0.01639193 -0.04021841 0.05009137
v 0.01560061 -0.03959813 0.05041012
v 0.01560061 -0.03879787 -0.00043502
v 0.01639193 -0.03879787 -0.00044000
v 0.01639193 -0.03959813 0.05041012
v 0.01560061 -0.03879884 0.05044000
v 0.01560061 -0.03799955 -0.00044000
v 0.01639193 -0.03240160 -0.00044000
v 0.01639193 -0.03879884 0.05044000
v 0.01560061 -0.03240063 0.05044000
v 0.01560061 -0.03240256 -0.00044000
v 0.01639193 -0.03160133 -0.00043004
v 0.01639193 -0.03240063 0.05044000
v 0.01639193 -0.03160133 0.05043004
v 0.01560061 -0.03160133 0.05041510
v 0.01560061 -0.03160133 -0.00041510
v 0.01639193 -0.03088332 -0.00011129
v 0.01639193 -0.03088913 0.05011129
v 0.01560061 -0.03095880 0.05009635
v 0.01560061 -0.03095977 -0.00009635
v 0.01639193 -0.03055916 0.00060091
v 0.01639193 -0.03088236 0.05010631
v 0.01639193 -0.03056400 0.04939909
v 0.01560061 -0.03072269 0.04939411
v 0.01560061 -0.03071882 0.00060091
v 0.01639193 -0.03055625 0.00140276
v 0.01639193 -0.03055529 0.04540479
v 0.01560061 -0.03071785 0.04539483
v 0.01560061 -0.03071689 0.00140276
v 0.01639193 -0.03055432 0.01580116
v 0.01560061 -0.03071689 0.03179828
f 1 2 6
f 1 6 3
f 1 3 7
f 1 7 11
f 1 11 15
f 1 15 19
f 1 19 23
f 1 23 28
f 1 28 32
f 1 32 37
f 1 37 41
f 1 41 44
f 1 44 42
f 1 42 38
f 1 38 33
f 1 33 29
f 1 29 24
f 1 24 20
f 1 20 16
f 1 16 12
f 1 12 8
f 1 8 4
f 1 4 5
f 1 5 2
f 2 5 9
f 2 9 13
f 2 13 17
f 2 17 21
f 2 21 25
f 2 25 30
f 2 30 34
f 2 34 39
f 2 39 43
f 2 43 40
f 2 40 36
f 2 36 35
f 2 35 31
f 2 31 27
f 2 27 26
f 2 26 22
f 2 22 18
f 2 18 14
f 2 14 10
f 2 10 6
f 3 6 10
f 3 10 7
f 4 8 9
f 4 9 5
f 7 10 14
f 7 14 11
f 8 12 9
f 9 12 13
f 11 14 18
f 11 18 15
f 12 16 17
f 12 17 13
f 15 18 22
f 15 22 19
f 16 20 17
f 17 20 24
f 17 24 21
f 19 22 26
f 19 26 23
f 21 24 25
f 23 26 27
f 23 27 28
f 24 29 25
f 25 29 30
f 27 31 28
f 28 31 32
f 29 33 30
f 30 33 34
f 31 35 32
f 32 35 36
f 32 36 37
f 33 38 34
f 34 38 39
f 36 40 37
f 37 40 41
f 38 42 39
f 39 42 43
f 40 43 44
f 40 44 41
f 42 44 43

