# https://github.com/mikedh/trimesh
v -0.00109774 -0.00600111 0.00001987
v -0.00109774 -0.00595212 -0.00007459
v -0.00075522 -0.00571746 0.00010936
v -0.00105676 -0.00600111 0.00010439
v -0.00109774 -0.00600111 0.05000398
v -0.00067388 -0.00519973 -0.00000499
v -0.00109774 -0.00519973 -0.00026351
v -0.00016558 -0.00360019 0.00060154
v -0.00034119 -0.00440011 0.00060154
v -0.00054795 -0.00519973 0.00060154
v -0.00073287 -0.00577642 0.00060154
v -0.00081824 -0.00600111 0.00060154
v -0.00106649 -0.00600111 0.04995426
v -0.00075522 -0.00571746 0.04988963
v -0.00109774 -0.00595212 0.05007358
v -0.00057051 -0.00440011 -0.00008950
v -0.00004244 -0.00300444 0.00060154
v -0.00109774 -0.00440011 -0.00035797
v -0.00004234 -0.00300444 0.00062143
v -0.00004058 -0.00300444 0.00140197
v -0.00016382 -0.00360019 0.00140197
v -0.00034119 -0.00440011 0.04939745
v -0.00054795 -0.00519973 0.04939745
v -0.00073287 -0.00577642 0.04939745
v -0.00081824 -0.00600111 0.04939745
v -0.00083531 -0.00600111 0.04958637
v -0.00016558 -0.00360019 0.04939745
v -0.00067388 -0.00519973 0.05000398
v -0.00109774 -0.00589786 0.05009346
v -0.00048368 -0.00360019 -0.00010939
v -0.00037472 -0.00300444 -0.00009447
v -0.00109774 -0.00360019 -0.00038780
v -0.00004058 -0.00300444 0.04859702
v -0.00016382 -0.00360019 0.04859702
v -0.00004244 -0.00300444 0.04939745
v -0.00057051 -0.00440011 0.05008849
v -0.00109774 -0.00506978 0.05028736
v -0.00109774 -0.00519973 0.05026250
v -0.00109774 -0.00300444 -0.00039277
v -0.00037472 -0.00300444 0.05009346
v -0.00048368 -0.00360019 0.05011335
v -0.00109774 -0.00428600 0.05036690
v -0.00109774 -0.00440011 0.05035696
v -0.00109774 -0.00300444 0.05039673
v -0.00053398 -0.00300444 0.05016307
v -0.00109774 -0.00350486 0.05039176
f 1 2 3
f 1 3 4
f 1 4 12
f 1 12 25
f 1 25 26
f 1 26 13
f 1 13 5
f 1 5 15
f 1 15 29
f 1 29 38
f 1 38 37
f 1 37 43
f 1 43 42
f 1 42 46
f 1 46 44
f 1 44 39
f 1 39 32
f 1 32 18
f 1 18 7
f 1 7 2
f 2 6 3
f 2 7 6
f 3 8 9
f 3 9 10
f 3 10 11
f 3 11 12
f 3 12 4
f 3 6 8
f 5 13 14
f 5 14 15
f 6 7 16
f 6 16 17
f 6 17 8
f 7 18 16
f 8 17 19
f 8 19 20
f 8 20 21
f 8 21 9
f 9 21 34
f 9 34 22
f 9 22 23
f 9 23 10
f 10 23 24
f 10 24 11
f 11 24 25
f 11 25 12
f 13 26 14
f 14 26 24
f 14 24 23
f 14 23 22
f 14 22 27
f 14 27 28
f 14 28 29
f 14 29 15
f 16 30 31
f 16 31 17
f 16 18 30
f 17 31 39
f 17 39 44
f 17 44 45
f 17 45 40
f 17 40 35
f 17 35 33
f 17 33 20
f 17 20 19
f 18 32 31
f 18 31 30
f 20 33 34
f 20 34 21
f 22 34 27
f 24 26 25
f 27 35 28
f 27 34 33
f 27 33 35
f 28 36 37
f 28 37 38
f 28 38 29
f 28 35 36
f 31 32 39
f 35 40 36
f 36 40 41
f 36 41 42
f 36 42 43
f 36 43 37
f 40 45 42
f 40 42 41
f 42 45 46
f 44 46 45

