# https://github.com/mikedh/trimesh
v 0.02040239 0.00878931 -0.00043987
v 0.01960242 0.00878931 -0.00041310
v 0.02040239 0.01019935 -0.00043987
v 0.03879761 0.00878931 -0.00043987
v 0.01960242 0.01019935 -0.00041310
v 0.01898280 0.00878931 -0.00009326
v 0.03879761 0.01019935 -0.00043987
v 0.03959759 0.00878931 -0.00041310
v 0.01898280 0.01019935 -0.00009326
v 0.01892763 0.01019935 0.00007969
v 0.01876212 0.00878931 0.00059998
v 0.03959759 0.01019935 -0.00041310
v 0.03991588 0.00878931 -0.00024883
v 0.01876212 0.01019935 0.00059998
v 0.01876212 0.00878931 0.00695266
v 0.04021720 0.01019935 -0.00009326
v 0.04021720 0.00878931 -0.00009326
v 0.01876212 0.01019935 0.00695266
v 0.04044000 0.00878931 0.00695266
v 0.04044000 0.01019935 0.00059998
v 0.04044000 0.00878931 0.00059998
v 0.04044000 0.01019935 0.00695266
f 1 2 5
f 1 5 3
f 1 3 7
f 1 7 4
f 1 4 8
f 1 8 13
f 1 13 17
f 1 17 21
f 1 21 19
f 1 19 15
f 1 15 11
f 1 11 6
f 1 6 2
f 2 6 9
f 2 9 5
f 3 5 9
f 3 9 10
f 3 10 14
f 3 14 18
f 3 18 22
f 3 22 20
f 3 20 16
f 3 16 12
f 3 12 7
f 4 7 12
f 4 12 8
f 6 10 9
f 6 11 10
f 8 12 13
f 10 11 14
f 11 15 18
f 11 18 14
f 12 16 13
f 13 16 17
f 15 19 22
f 15 22 18
f 16 20 21
f 16 21 17
f 19 21 20
f 19 20 22

