# https://github.com/mikedh/trimesh
v -0.01565986 0.01808374 0.01489950
v -0.01566037 0.01808728 0.01425996
v -0.01566037 0.01802354 0.01489950
v -0.01480015 0.01790669 0.01489950
v -0.01480024 0.01791023 0.01429227
v -0.01566037 0.01808728 0.01114889
v -0.01566037 -0.01808728 0.01489950
v -0.01479499 0.01790315 0.01489950
v -0.01480024 0.01791023 0.01114889
v -0.01566037 -0.01808728 0.01114889
v -0.01480015 -0.01791023 0.01489950
v -0.01479499 0.01790315 0.01114889
v -0.01479499 -0.01790669 0.01489950
v -0.01480024 -0.01791023 0.01114889
v -0.01480015 -0.01791023 0.01429263
v -0.01479499 -0.01727640 0.01114889
v -0.01479499 -0.01790315 0.01180055
v -0.01479592 -0.01790315 0.01114889
f 1 2 3
f 1 3 7
f 1 7 11
f 1 11 13
f 1 13 8
f 1 8 4
f 1 4 5
f 1 5 2
f 2 6 10
f 2 10 7
f 2 7 3
f 2 5 9
f 2 9 6
f 4 8 5
f 5 8 12
f 5 12 9
f 6 9 12
f 6 12 16
f 6 16 18
f 6 18 14
f 6 14 10
f 7 10 15
f 7 15 11
f 8 13 17
f 8 17 16
f 8 16 12
f 10 14 15
f 11 15 13
f 13 15 14
f 13 14 17
f 14 18 17
f 16 17 18

