# https://github.com/mikedh/trimesh
v -0.01566037 0.01808728 0.01114858
v -0.01479499 0.01790669 0.01114858
v -0.01566037 0.01808728 0.00140244
v -0.01566037 0.00093482 0.01114858
v -0.01479499 0.01790669 0.00059707
v -0.01479499 0.00093482 0.01114858
v -0.01566037 0.01808374 0.00060048
v -0.01566037 -0.01808728 0.01114745
v -0.01479499 0.01775089 -0.00004836
v -0.01480032 0.01775443 -0.00004609
v -0.01480024 -0.01791023 0.01114745
v -0.01479592 -0.01790669 0.01114745
v -0.01479499 -0.01727285 0.01114745
v -0.01566037 0.01786420 -0.00003928
v -0.01566037 -0.01808728 0.00954918
v -0.01479499 0.01719849 -0.00036711
v -0.01566037 0.01783941 -0.00009487
v -0.01480024 -0.01791023 0.00954918
v -0.01479499 -0.01790669 0.01100452
v -0.01566037 -0.01808020 0.00060275
v -0.01480041 -0.01790669 0.00060275
v -0.01566037 0.01725161 -0.00039093
v -0.01479499 0.01639823 -0.00043970
v -0.01559980 0.01719849 -0.00041248
v -0.01479499 -0.01790315 0.00060275
v -0.01479499 -0.01790669 0.01019915
v -0.01566037 -0.01783941 -0.00009373
v -0.01480041 -0.01775089 -0.00004722
v -0.01479499 -0.01775089 -0.00004269
v -0.01566037 0.01719849 -0.00041475
v -0.01566037 0.01639823 -0.00043970
v -0.01479499 0.00093482 -0.00043970
v -0.01566037 -0.01719495 -0.00041361
v -0.01559980 -0.01719495 -0.00041248
v -0.01480041 -0.01719495 -0.00036711
v -0.01479499 -0.01719849 -0.00036370
v -0.01566037 0.00093482 -0.00043970
v -0.01479499 -0.01639469 -0.00043857
v -0.01566037 -0.01639469 -0.00043857
f 1 2 5
f 1 5 3
f 1 3 7
f 1 7 14
f 1 14 17
f 1 17 22
f 1 22 30
f 1 30 31
f 1 31 37
f 1 37 39
f 1 39 33
f 1 33 27
f 1 27 20
f 1 20 15
f 1 15 8
f 1 8 4
f 1 4 6
f 1 6 2
f 2 6 13
f 2 13 19
f 2 19 26
f 2 26 25
f 2 25 29
f 2 29 36
f 2 36 38
f 2 38 32
f 2 32 23
f 2 23 16
f 2 16 9
f 2 9 5
f 3 5 7
f 4 8 6
f 5 9 10
f 5 10 7
f 6 8 11
f 6 11 12
f 6 12 13
f 7 10 14
f 8 15 18
f 8 18 11
f 9 16 17
f 9 17 10
f 10 17 14
f 11 18 26
f 11 26 19
f 11 19 12
f 12 19 13
f 15 20 21
f 15 21 18
f 16 22 17
f 16 23 24
f 16 24 22
f 18 21 25
f 18 25 26
f 20 27 28
f 20 28 29
f 20 29 21
f 21 29 25
f 22 24 30
f 23 31 30
f 23 30 24
f 23 32 37
f 23 37 31
f 27 33 34
f 27 34 35
f 27 35 28
f 28 35 36
f 28 36 29
f 32 38 39
f 32 39 37
f 33 39 38
f 33 38 34
f 34 38 35
f 35 38 36

