# https://github.com/mikedh/trimesh
v 0.01769484 -0.03720794 -0.00043571
v 0.01769484 -0.03160092 -0.00043571
v 0.01873904 -0.03720794 -0.00043571
v 0.01769484 -0.03720794 0.04339219
v 0.01769484 -0.03129839 -0.00034131
v 0.01800005 -0.03129839 -0.00042284
v 0.01873904 -0.03129839 -0.00043571
v 0.01873904 -0.03720794 0.04339219
v 0.01769484 -0.03129839 0.04339219
v 0.01873904 -0.03129839 0.04339219
f 1 2 7
f 1 7 3
f 1 3 8
f 1 8 4
f 1 4 9
f 1 9 5
f 1 5 2
f 2 5 6
f 2 6 7
f 3 7 10
f 3 10 8
f 4 8 10
f 4 10 9
f 5 9 10
f 5 10 7
f 5 7 6

