# https://github.com/mikedh/trimesh
v 0.01622895 0.03050682 0.01814101
v 0.01622895 0.03051265 0.01180580
v 0.01622895 0.03050682 0.04292984
v 0.01559941 0.03071490 0.00540266
v 0.01559941 0.03071587 0.00460014
v 0.01560009 0.03072170 0.00060030
v 0.01622895 0.03053891 0.00540266
v 0.01622895 0.03128467 0.04293833
v 0.01622636 0.03051071 0.04293833
v 0.01559941 0.03071490 0.04293833
v 0.01559941 0.03072268 0.00060030
v 0.01559941 0.03095895 -0.00009606
v 0.01622895 0.03064392 0.00043895
v 0.01622895 0.03057877 0.00063427
v 0.01622895 0.03054474 0.00456193
v 0.01622895 0.04044000 0.04293833
v 0.01559941 0.03142760 0.04293833
v 0.01559941 0.03160068 -0.00041877
v 0.01622895 0.03089672 -0.00010880
v 0.01560015 0.04044000 0.04293833
v 0.01622895 0.04044000 0.00843014
v 0.01559941 0.04044000 0.04219101
v 0.01622895 0.03103284 -0.00017674
v 0.01559941 0.03240089 -0.00044000
v 0.01622895 0.03160068 -0.00042726
v 0.01559996 0.04044000 0.00843014
v 0.01622895 0.04043903 0.00060030
v 0.01559941 0.04044000 0.00860423
v 0.01622895 0.03240089 -0.00044000
v 0.01622895 0.03177180 -0.00043151
v 0.01559941 0.03879873 -0.00044000
v 0.01559941 0.04043903 0.00060030
v 0.01622895 0.04021929 -0.00009182
v 0.01622895 0.03879873 -0.00044000
v 0.01559941 0.03959895 -0.00041028
v 0.01559941 0.04021929 -0.00009182
v 0.01622895 0.03959895 -0.00041028
f 1 2 7
f 1 7 15
f 1 15 14
f 1 14 13
f 1 13 19
f 1 19 23
f 1 23 25
f 1 25 30
f 1 30 29
f 1 29 34
f 1 34 37
f 1 37 33
f 1 33 27
f 1 27 21
f 1 21 16
f 1 16 8
f 1 8 3
f 1 3 10
f 1 10 4
f 1 4 2
f 2 4 5
f 2 5 6
f 2 6 7
f 3 8 9
f 3 9 10
f 4 10 17
f 4 17 22
f 4 22 28
f 4 28 32
f 4 32 36
f 4 36 35
f 4 35 31
f 4 31 24
f 4 24 18
f 4 18 12
f 4 12 11
f 4 11 5
f 5 11 6
f 6 11 12
f 6 12 13
f 6 13 14
f 6 14 15
f 6 15 7
f 8 16 20
f 8 20 17
f 8 17 10
f 8 10 9
f 12 18 19
f 12 19 13
f 16 21 26
f 16 26 28
f 16 28 22
f 16 22 20
f 17 20 22
f 18 23 19
f 18 24 25
f 18 25 23
f 21 27 32
f 21 32 26
f 24 29 30
f 24 30 25
f 24 31 34
f 24 34 29
f 26 32 28
f 27 33 36
f 27 36 32
f 31 35 37
f 31 37 34
f 33 37 35
f 33 35 36

