# https://github.com/mikedh/trimesh
v -0.00674600 0.00689169 -0.00044000
v -0.00674600 0.01234531 -0.00044000
v -0.00438484 0.00689169 -0.00044000
v -0.00674600 0.00689169 0.02378857
v -0.00674600 0.01294633 -0.00042103
v -0.00654654 0.01294633 -0.00041628
v -0.00599994 0.01239925 -0.00041865
v -0.00520001 0.01080009 -0.00044000
v -0.00438484 0.00918552 -0.00044000
v -0.00438484 0.00689169 0.02378857
v -0.00674600 0.01294633 0.02378857
v -0.00569786 0.01294633 -0.00014592
v -0.00517367 0.01242770 -0.00015066
v -0.00520001 0.01159967 -0.00041865
v -0.00440009 0.00999992 -0.00044000
v -0.00438484 0.00999992 -0.00043763
v -0.00438484 0.01208985 0.02378857
v -0.00521850 0.01294633 0.02378857
v -0.00541057 0.01294633 0.00000824
v -0.00438484 0.01078468 -0.00039731
v -0.00462983 0.01217994 0.00001298
v -0.00438484 0.01161508 -0.00013406
v -0.00454478 0.01226944 0.02378857
v -0.00438484 0.01208985 0.00060115
v -0.00493930 0.01267546 0.02378857
v -0.00521850 0.01294633 0.00060115
v -0.00538098 0.01294633 0.00006753
v -0.00438484 0.01199798 0.00030944
v -0.00438484 0.01162338 -0.00012932
v -0.00493353 0.01266953 0.00060115
v -0.00454478 0.01226944 0.00060115
v -0.00493353 0.01266953 0.02378857
f 1 2 8
f 1 8 15
f 1 15 9
f 1 9 3
f 1 3 10
f 1 10 4
f 1 4 11
f 1 11 5
f 1 5 2
f 2 5 6
f 2 6 7
f 2 7 8
f 3 9 16
f 3 16 20
f 3 20 22
f 3 22 29
f 3 29 28
f 3 28 24
f 3 24 17
f 3 17 10
f 4 10 17
f 4 17 23
f 4 23 32
f 4 32 25
f 4 25 18
f 4 18 11
f 5 11 18
f 5 18 26
f 5 26 27
f 5 27 19
f 5 19 12
f 5 12 6
f 6 12 13
f 6 13 7
f 7 13 14
f 7 14 8
f 8 14 15
f 9 15 16
f 12 19 13
f 13 20 14
f 13 19 21
f 13 21 22
f 13 22 20
f 14 20 15
f 15 20 16
f 17 24 31
f 17 31 23
f 18 25 26
f 19 27 21
f 21 28 29
f 21 29 22
f 21 27 30
f 21 30 31
f 21 31 24
f 21 24 28
f 23 31 30
f 23 30 32
f 25 32 30
f 25 30 26
f 26 30 27

