# https://github.com/mikedh/trimesh
v -0.00674591 -0.01430956 0.00060115
v -0.00623030 -0.01374955 0.00002247
v -0.00663266 -0.01422528 0.00060115
v -0.00674591 -0.01430956 0.02322412
v -0.00674591 -0.01397910 -0.00009849
v -0.00574601 -0.01345680 0.00059877
v -0.00614534 -0.01382496 0.00060115
v -0.00597827 -0.01322171 -0.00014592
v -0.00574601 -0.01311747 -0.00007951
v -0.00663266 -0.01422528 0.02378857
v -0.00674434 -0.01430734 0.02378857
v -0.00674591 -0.01286353 0.02378857
v -0.00674591 -0.01320064 -0.00039731
v -0.00574601 -0.01345791 0.00140038
v -0.00614534 -0.01382496 0.02378857
v -0.00600009 -0.01239889 -0.00041865
v -0.00574601 -0.01240665 -0.00033328
v -0.00674591 -0.00298081 0.02378857
v -0.00674591 -0.01239889 -0.00043763
v -0.00574601 -0.01345791 0.02378857
v -0.00600009 -0.01159935 -0.00044000
v -0.00574601 -0.01159935 -0.00043051
v -0.00674591 -0.00298081 -0.00044000
v -0.00574601 -0.00298081 0.02378857
v -0.00674591 -0.01159935 -0.00044000
v -0.00574601 -0.01079871 -0.00044000
v -0.00574601 -0.00298081 -0.00044000
f 1 2 3
f 1 3 10
f 1 10 4
f 1 4 12
f 1 12 18
f 1 18 23
f 1 23 25
f 1 25 19
f 1 19 13
f 1 13 5
f 1 5 2
f 2 6 7
f 2 7 3
f 2 5 8
f 2 8 9
f 2 9 6
f 3 7 15
f 3 15 10
f 4 10 11
f 4 11 12
f 5 13 8
f 6 14 7
f 6 9 17
f 6 17 22
f 6 22 26
f 6 26 27
f 6 27 24
f 6 24 20
f 6 20 14
f 7 14 20
f 7 20 15
f 8 13 16
f 8 16 17
f 8 17 9
f 10 15 20
f 10 20 24
f 10 24 18
f 10 18 12
f 10 12 11
f 13 19 16
f 16 19 21
f 16 21 22
f 16 22 17
f 18 24 27
f 18 27 23
f 19 25 21
f 21 25 23
f 21 23 27
f 21 27 26
f 21 26 22

