# https://github.com/mikedh/trimesh
v -0.01014043 -0.01641432 0.00060115
v -0.00954534 -0.01605459 0.00010310
v -0.00951171 -0.01604566 0.00011259
v -0.00999993 -0.01634608 0.00060115
v -0.01014043 -0.01641432 0.02378857
v -0.01014043 -0.01621617 -0.00002971
v -0.00999993 -0.01617280 -0.00001785
v -0.00903205 -0.01555602 -0.00006528
v -0.00903205 -0.01583986 0.00060352
v -0.00906753 -0.01586069 0.00060352
v -0.00954534 -0.01610944 0.00060352
v -0.00999993 -0.01634608 0.02378857
v -0.01014043 -0.01435309 0.02378857
v -0.01014043 -0.01559982 -0.00035225
v -0.00999993 -0.01559982 -0.00033802
v -0.00954534 -0.01561407 -0.00019809
v -0.00922712 -0.01562406 -0.00009849
v -0.00903205 -0.01480020 -0.00039494
v -0.00903205 -0.01583986 0.02378620
v -0.00906753 -0.01586069 0.02378620
v -0.00954534 -0.01610944 0.02378620
v -0.00954534 -0.01610923 0.02378857
v -0.00954534 -0.01435309 0.02378857
v -0.00954534 -0.01424253 0.02378620
v -0.01014043 -0.01435309 -0.00044000
v -0.01014043 -0.01480020 -0.00044000
v -0.00999993 -0.01480020 -0.00044000
v -0.00920011 -0.01480020 -0.00042577
v -0.00903205 -0.01424253 -0.00040205
v -0.00903205 -0.01424253 0.02378620
v -0.00954534 -0.01424253 -0.00043288
v -0.00999993 -0.01435309 -0.00044000
v -0.00920011 -0.01424253 -0.00043288
f 1 2 3
f 1 3 4
f 1 4 12
f 1 12 5
f 1 5 13
f 1 13 25
f 1 25 26
f 1 26 14
f 1 14 6
f 1 6 7
f 1 7 2
f 2 7 8
f 2 8 3
f 3 9 10
f 3 10 4
f 3 8 9
f 4 10 11
f 4 11 21
f 4 21 12
f 5 12 22
f 5 22 23
f 5 23 13
f 6 14 15
f 6 15 7
f 7 15 16
f 7 16 17
f 7 17 8
f 8 17 18
f 8 18 29
f 8 29 30
f 8 30 19
f 8 19 9
f 9 19 20
f 9 20 10
f 10 20 21
f 10 21 11
f 12 20 22
f 12 21 20
f 13 23 30
f 13 30 24
f 13 24 31
f 13 31 25
f 14 26 27
f 14 27 28
f 14 28 15
f 15 28 18
f 15 18 16
f 16 18 17
f 18 28 33
f 18 33 29
f 19 30 23
f 19 23 22
f 19 22 20
f 24 30 29
f 24 29 33
f 24 33 31
f 25 31 33
f 25 33 32
f 25 32 27
f 25 27 26
f 27 32 33
f 27 33 28

