# https://github.com/mikedh/trimesh
v -0.00423225 0.00862063 0.02379379
v -0.00463854 0.00882415 0.02378857
v -0.00307256 0.00862063 0.02379379
v -0.00423225 0.00862063 0.05043478
v -0.00463854 0.01233567 0.02378857
v -0.00423240 0.00882415 0.02378857
v -0.00463854 0.00882415 0.05044000
v -0.00318156 0.01055057 0.02379118
v -0.00307256 0.01042150 0.02379379
v -0.00307256 0.00862063 0.05034348
v -0.00360027 0.00862063 0.05043478
v -0.00454440 0.01227003 0.02378857
v -0.00463854 0.01236684 0.02379379
v -0.00423240 0.01189820 0.02378857
v -0.00439997 0.00882415 0.05044000
v -0.00463854 0.01000016 0.05044000
v -0.00342718 0.01089234 0.02379118
v -0.00312468 0.01049814 0.02379379
v -0.00307256 0.01042150 0.04939387
v -0.00307256 0.00922239 0.05025477
v -0.00360027 0.01000016 0.05033826
v -0.00360027 0.00920038 0.05043478
v -0.00415007 0.01182596 0.02379118
v -0.00414424 0.01181936 0.02379118
v -0.00454440 0.01227003 0.04939648
v -0.00463854 0.01236684 0.04939648
v -0.00383132 0.01141965 0.02379118
v -0.00439997 0.01000016 0.05044000
v -0.00463854 0.01079956 0.05040608
v -0.00316485 0.01055057 0.02379379
v -0.00312468 0.01049814 0.04939387
v -0.00314998 0.01046550 0.04988172
v -0.00307256 0.01023594 0.04994955
v -0.00307256 0.01000016 0.05005912
v -0.00361269 0.01075886 0.05007216
v -0.00437774 0.01160740 0.05013477
v -0.00439997 0.01079956 0.05039826
v -0.00414424 0.01181936 0.04939648
v -0.00462949 0.01217982 0.04998607
v -0.00463854 0.01218386 0.04998607
v -0.00383132 0.01141965 0.04939648
v -0.00463854 0.01160484 0.05022608
v -0.00316485 0.01055057 0.04939648
v -0.00388744 0.01134631 0.04995476
v -0.00328398 0.01055057 0.04993911
f 1 2 6
f 1 6 3
f 1 3 10
f 1 10 11
f 1 11 4
f 1 4 7
f 1 7 2
f 2 5 12
f 2 12 14
f 2 14 6
f 2 7 16
f 2 16 29
f 2 29 42
f 2 42 40
f 2 40 26
f 2 26 13
f 2 13 5
f 3 6 8
f 3 8 9
f 3 9 19
f 3 19 33
f 3 33 34
f 3 34 20
f 3 20 10
f 4 11 15
f 4 15 7
f 5 13 12
f 6 14 8
f 7 15 28
f 7 28 16
f 8 14 17
f 8 17 18
f 8 18 9
f 9 18 31
f 9 31 19
f 10 20 21
f 10 21 22
f 10 22 11
f 11 22 28
f 11 28 15
f 12 23 24
f 12 24 14
f 12 13 26
f 12 26 25
f 12 25 23
f 14 24 27
f 14 27 17
f 16 28 29
f 17 27 30
f 17 30 18
f 18 30 43
f 18 43 31
f 19 31 32
f 19 32 33
f 20 34 21
f 21 34 35
f 21 35 36
f 21 36 37
f 21 37 22
f 22 37 28
f 23 25 38
f 23 38 24
f 24 38 41
f 24 41 27
f 25 26 39
f 25 39 38
f 26 40 39
f 27 41 43
f 27 43 30
f 28 37 29
f 29 37 42
f 31 43 32
f 32 43 41
f 32 41 38
f 32 38 44
f 32 44 45
f 32 45 33
f 33 45 35
f 33 35 34
f 35 45 44
f 35 44 36
f 36 44 39
f 36 39 42
f 36 42 37
f 38 39 44
f 39 40 42

