# https://github.com/mikedh/trimesh
v -0.03784694 0.02760647 0.05029870
v -0.03800025 0.02760647 0.05030924
v -0.03795608 0.02501436 0.05030623
v -0.03784694 0.02501436 0.05029870
v -0.03784694 0.02760647 0.03500864
v -0.03880005 0.02760647 0.05036193
v -0.03800025 0.02501436 0.05030924
v -0.03784694 0.02501436 0.03603089
v -0.03784694 0.02610185 0.03500864
v -0.04044000 0.02760647 0.03500864
v -0.03959985 0.02760647 0.05038753
v -0.03898584 0.02501436 0.05036796
v -0.03880005 0.02501436 0.05036193
v -0.03796395 0.02501436 0.03601884
v -0.03880005 0.02612418 0.03500864
v -0.03800025 0.02501436 0.03601583
v -0.03861450 0.02501436 0.03600379
v -0.03880005 0.02501436 0.03600379
v -0.04044000 0.02760647 0.04939991
v -0.04044000 0.02759987 0.03500864
v -0.03959985 0.02501436 0.05038753
v -0.04021486 0.02760647 0.05009546
v -0.03953690 0.02625815 0.03500864
v -0.03920769 0.02501436 0.03605949
v -0.04044000 0.02501436 0.04939991
v -0.04021994 0.02760647 0.05009244
v -0.04021994 0.02683031 0.03500864
v -0.04042680 0.02501436 0.03740091
v -0.04043746 0.02501436 0.03801516
v -0.04044000 0.02501436 0.03820034
v -0.04021994 0.02501436 0.05009244
v -0.03954578 0.02625993 0.03500864
v -0.03937673 0.02501436 0.03610767
v -0.03994504 0.02643094 0.03500864
v -0.04020064 0.02501436 0.03670987
v -0.04037274 0.02501436 0.03722326
v -0.03968970 0.02501436 0.03627629
f 1 2 3
f 1 3 4
f 1 4 8
f 1 8 9
f 1 9 5
f 1 5 10
f 1 10 19
f 1 19 26
f 1 26 22
f 1 22 11
f 1 11 6
f 1 6 2
f 2 6 13
f 2 13 7
f 2 7 3
f 3 7 13
f 3 13 12
f 3 12 21
f 3 21 31
f 3 31 25
f 3 25 30
f 3 30 29
f 3 29 28
f 3 28 36
f 3 36 35
f 3 35 37
f 3 37 33
f 3 33 24
f 3 24 18
f 3 18 17
f 3 17 16
f 3 16 14
f 3 14 8
f 3 8 4
f 5 9 15
f 5 15 23
f 5 23 32
f 5 32 34
f 5 34 27
f 5 27 20
f 5 20 10
f 6 11 12
f 6 12 13
f 8 14 9
f 9 14 16
f 9 16 17
f 9 17 18
f 9 18 15
f 10 20 30
f 10 30 25
f 10 25 19
f 11 21 12
f 11 22 21
f 15 18 24
f 15 24 23
f 19 25 31
f 19 31 26
f 20 27 28
f 20 28 29
f 20 29 30
f 21 22 31
f 22 26 31
f 23 24 32
f 24 33 32
f 27 34 35
f 27 35 36
f 27 36 28
f 32 33 34
f 33 37 34
f 34 37 35

