# https://github.com/mikedh/trimesh
v -0.01773053 0.01891006 0.01974741
v -0.01773053 0.01891006 0.01877285
v -0.04044000 0.01891006 0.01974741
v -0.01773053 0.00450182 0.01974741
v -0.01773053 0.00565690 0.01877276
v -0.04044000 0.01891006 0.01877285
v -0.04044000 0.00450182 0.01974741
v -0.01773053 0.00450182 0.01877276
v -0.04044000 0.00565690 0.01877276
v -0.04044000 0.00450182 0.01877276
f 1 2 6
f 1 6 3
f 1 3 7
f 1 7 4
f 1 4 8
f 1 8 5
f 1 5 2
f 2 5 9
f 2 9 6
f 3 6 9
f 3 9 10
f 3 10 7
f 4 7 10
f 4 10 8
f 5 8 10
f 5 10 9

