# https://github.com/mikedh/trimesh
v -0.01498531 -0.03860616 -0.00043804
v -0.01498531 -0.03240075 -0.00043804
v -0.01398299 -0.03860616 -0.00043804
v -0.01498531 -0.03860616 0.05044000
v -0.01398299 -0.03240075 -0.00043804
v -0.01498531 -0.03221541 -0.00043306
v -0.01398299 -0.03860616 0.04997684
v -0.01398692 -0.03860616 0.05044000
v -0.01498531 -0.03240075 0.05044000
v -0.01498531 -0.03160018 -0.00041314
v -0.01398299 -0.03160018 -0.00040815
v -0.01398299 -0.03799862 0.05044000
v -0.01398299 -0.03240075 0.05044000
v -0.01498531 -0.03160018 0.05041012
v -0.01498531 -0.03145175 -0.00033843
v -0.01398299 -0.03098033 -0.00008942
v -0.01398299 -0.03160018 0.05041012
v -0.01498531 -0.03097495 0.05008640
v -0.01498531 -0.03097495 -0.00008942
v -0.01498531 -0.03092035 0.00006995
v -0.01398299 -0.03076500 0.00058789
v -0.01398299 -0.03098033 0.05008640
v -0.01498531 -0.03075116 0.04939415
v -0.01498531 -0.03075116 0.00060283
v -0.01398299 -0.03076115 0.00060283
v -0.01398299 -0.03076115 0.04939415
v -0.01498531 -0.03074962 0.04859233
v -0.01498531 -0.03074962 0.00478622
f 1 2 5
f 1 5 3
f 1 3 7
f 1 7 8
f 1 8 4
f 1 4 9
f 1 9 14
f 1 14 18
f 1 18 23
f 1 23 27
f 1 27 28
f 1 28 24
f 1 24 20
f 1 20 19
f 1 19 15
f 1 15 10
f 1 10 6
f 1 6 2
f 2 6 5
f 3 5 11
f 3 11 16
f 3 16 21
f 3 21 25
f 3 25 26
f 3 26 22
f 3 22 17
f 3 17 13
f 3 13 12
f 3 12 7
f 4 8 12
f 4 12 13
f 4 13 9
f 5 6 10
f 5 10 11
f 7 12 8
f 9 13 17
f 9 17 14
f 10 15 11
f 11 15 16
f 14 17 18
f 15 19 16
f 16 19 20
f 16 20 21
f 17 22 18
f 18 22 23
f 20 24 21
f 21 24 25
f 22 26 23
f 23 26 27
f 24 28 25
f 25 28 27
f 25 27 26

