# https://github.com/mikedh/trimesh
v -0.02956752 -0.01560356 -0.00007790
v -0.02956752 -0.01560356 0.00068747
v -0.02956752 -0.01560023 -0.00044000
v -0.02919910 -0.01560356 -0.00044000
v -0.02473289 -0.01560356 0.00068747
v -0.02956752 0.01849158 0.00068747
v -0.02956752 0.01849158 -0.00044000
v -0.02519863 -0.01560356 -0.00044000
v -0.02473289 -0.01560356 -0.00003971
v -0.01773409 -0.01560023 0.00068747
v -0.02473289 0.01849158 0.00068747
v -0.02473289 0.01849158 -0.00044000
v -0.01773409 -0.01560023 -0.00044000
v -0.01773409 0.01848824 0.00068747
v -0.01773409 0.01848824 -0.00019411
v -0.01849294 0.01848824 -0.00042047
v -0.01929350 0.01848824 -0.00044000
v -0.01773409 0.01719332 -0.00044000
v -0.01773409 0.01801766 -0.00034387
v -0.01773409 0.01772397 -0.00042775
f 1 2 6
f 1 6 7
f 1 7 3
f 1 3 4
f 1 4 8
f 1 8 9
f 1 9 5
f 1 5 2
f 2 5 10
f 2 10 14
f 2 14 11
f 2 11 6
f 3 7 12
f 3 12 17
f 3 17 18
f 3 18 13
f 3 13 8
f 3 8 4
f 5 9 13
f 5 13 10
f 6 11 12
f 6 12 7
f 8 13 9
f 10 13 18
f 10 18 20
f 10 20 19
f 10 19 15
f 10 15 14
f 11 14 15
f 11 15 12
f 12 15 16
f 12 16 17
f 15 19 16
f 16 19 20
f 16 20 17
f 17 20 18

