# https://github.com/mikedh/trimesh
v -0.03725190 0.01999485 0.05044000
v -0.03880008 0.01999485 0.05044000
v -0.03725190 0.01957274 0.05044000
v -0.03725190 0.01999485 0.02621143
v -0.03920514 0.01999485 0.05042577
v -0.03880008 0.01957274 0.05044000
v -0.03725190 0.01957274 0.02674742
v -0.03725190 0.01957303 0.02621143
v -0.04044000 0.01999485 0.02621143
v -0.03959991 0.01999485 0.05041154
v -0.03959991 0.01957274 0.05041154
v -0.04044000 0.01957274 0.02697509
v -0.04044000 0.01957315 0.02621143
v -0.04044000 0.01999485 0.04939885
v -0.03962082 0.01957274 0.05040205
v -0.03991385 0.01999485 0.05025027
v -0.04044000 0.01957274 0.04939885
v -0.04021999 0.01999485 0.05009137
v -0.04021999 0.01957274 0.05009137
f 1 2 6
f 1 6 3
f 1 3 7
f 1 7 8
f 1 8 4
f 1 4 9
f 1 9 14
f 1 14 18
f 1 18 16
f 1 16 10
f 1 10 5
f 1 5 2
f 2 5 6
f 3 6 11
f 3 11 15
f 3 15 19
f 3 19 17
f 3 17 12
f 3 12 7
f 4 8 13
f 4 13 9
f 5 10 11
f 5 11 6
f 7 12 8
f 8 12 13
f 9 13 12
f 9 12 17
f 9 17 14
f 10 15 11
f 10 16 15
f 14 17 19
f 14 19 18
f 15 16 19
f 16 18 19

