# https://github.com/mikedh/trimesh
v 0.04043788 -0.02801360 0.04939838
v 0.04043788 -0.02911346 0.04939838
v 0.04043788 -0.02801360 0.02863429
v 0.04021910 -0.02801360 0.05009208
v 0.04043788 -0.02911346 0.02863429
v 0.04021910 -0.02911346 0.05009208
v 0.03630449 -0.02801360 0.02863429
v 0.03989837 -0.02801360 0.05025857
v 0.03630449 -0.02911346 0.02863429
v 0.03959888 -0.02911346 0.05041012
v 0.01874288 -0.02801360 0.02863642
v 0.03959888 -0.02801360 0.05041012
v 0.01874288 -0.02911346 0.02863642
v 0.03879812 -0.02911346 0.05044000
v 0.01874288 -0.02801360 0.04970147
v 0.03879812 -0.02801360 0.05044000
v 0.01874288 -0.02911346 0.05015612
v 0.03630449 -0.02911346 0.05044000
v 0.01874288 -0.02803653 0.04971642
v 0.01875350 -0.02801360 0.04973562
v 0.03630449 -0.02801360 0.05044000
v 0.01875987 -0.02911346 0.05016679
v 0.01874288 -0.02909064 0.05015398
v 0.01969020 -0.02911346 0.05043787
v 0.01892130 -0.02801360 0.05010489
v 0.02040176 -0.02801360 0.05043787
v 0.01960524 -0.02911346 0.05043573
v 0.01960524 -0.02840010 0.05042933
v 0.01960524 -0.02801360 0.05042292
v 0.01923141 -0.02801360 0.05025643
v 0.01999182 -0.02801360 0.05043360
f 1 2 5
f 1 5 3
f 1 3 7
f 1 7 11
f 1 11 15
f 1 15 20
f 1 20 25
f 1 25 30
f 1 30 29
f 1 29 31
f 1 31 26
f 1 26 21
f 1 21 16
f 1 16 12
f 1 12 8
f 1 8 4
f 1 4 6
f 1 6 2
f 2 6 10
f 2 10 14
f 2 14 18
f 2 18 24
f 2 24 27
f 2 27 22
f 2 22 17
f 2 17 13
f 2 13 9
f 2 9 5
f 3 5 9
f 3 9 7
f 4 8 6
f 6 8 10
f 7 9 13
f 7 13 11
f 8 12 10
f 10 12 16
f 10 16 14
f 11 13 17
f 11 17 23
f 11 23 19
f 11 19 15
f 14 16 21
f 14 21 18
f 15 19 20
f 17 22 23
f 18 21 24
f 19 23 20
f 20 23 25
f 21 26 24
f 22 27 28
f 22 28 29
f 22 29 30
f 22 30 25
f 22 25 23
f 24 26 31
f 24 31 28
f 24 28 27
f 28 31 29

