# https://github.com/mikedh/trimesh
v 0.00442038 0.04043960 0.04194675
v 0.00442038 0.03837866 0.04194675
v 0.00442038 0.04043960 0.00060556
v 0.00222004 0.04043960 0.04194675
v 0.00274363 0.03837846 0.04194675
v 0.00442038 0.03837866 -0.00044000
v 0.00442038 0.04043395 0.00058482
v 0.00274363 0.04043960 0.00060141
v 0.00222004 0.04043960 0.00060141
v 0.00222004 0.03837846 0.04194675
v 0.00274363 0.03837846 -0.00044000
v 0.00442038 0.03880017 -0.00044000
v 0.00442038 0.04021946 -0.00009148
v 0.00222004 0.04037927 0.00041056
v 0.00222004 0.03837846 -0.00044000
v 0.00222004 0.03938028 -0.00041925
v 0.00442038 0.03959961 -0.00041096
v 0.00222004 0.03880017 -0.00044000
v 0.00274363 0.04021966 -0.00009148
v 0.00222004 0.04021966 -0.00009148
v 0.00222004 0.03959981 -0.00041096
v 0.00274363 0.03959981 -0.00041096
f 1 2 6
f 1 6 12
f 1 12 17
f 1 17 13
f 1 13 7
f 1 7 3
f 1 3 8
f 1 8 9
f 1 9 4
f 1 4 10
f 1 10 5
f 1 5 2
f 2 5 11
f 2 11 6
f 3 7 8
f 4 9 14
f 4 14 20
f 4 20 21
f 4 21 16
f 4 16 18
f 4 18 15
f 4 15 10
f 5 10 15
f 5 15 11
f 6 11 15
f 6 15 18
f 6 18 12
f 7 13 14
f 7 14 8
f 8 14 9
f 12 16 17
f 12 18 16
f 13 17 22
f 13 22 19
f 13 19 14
f 14 19 20
f 16 21 22
f 16 22 17
f 19 22 21
f 19 21 20

