# https://github.com/mikedh/trimesh
v 0.01873904 -0.02965168 0.04971689
v 0.01873904 -0.02965168 0.05029879
v 0.01873904 -0.02911362 0.04971689
v 0.04033733 -0.02965168 0.04971689
v 0.01877287 -0.02965168 0.05030962
v 0.01875807 -0.02911362 0.05016947
v 0.01873904 -0.02911362 0.05016105
v 0.04033733 -0.02911362 0.04971689
v 0.04031407 -0.02965168 0.04979150
v 0.01914922 -0.02965168 0.05042344
v 0.01960170 -0.02911362 0.05043922
v 0.04021893 -0.02911362 0.05009331
v 0.04021893 -0.02965168 0.05009331
v 0.01960170 -0.02965168 0.05044000
v 0.01960170 -0.02920000 0.05044000
v 0.01968839 -0.02911362 0.05044000
v 0.03959942 -0.02911362 0.05041332
v 0.03959942 -0.02965168 0.05041332
v 0.03879807 -0.02965168 0.05044000
v 0.03879807 -0.02911362 0.05044000
f 1 2 7
f 1 7 3
f 1 3 8
f 1 8 4
f 1 4 9
f 1 9 13
f 1 13 18
f 1 18 19
f 1 19 14
f 1 14 10
f 1 10 5
f 1 5 2
f 2 5 6
f 2 6 7
f 3 7 6
f 3 6 11
f 3 11 16
f 3 16 20
f 3 20 17
f 3 17 12
f 3 12 8
f 4 8 9
f 5 10 11
f 5 11 6
f 8 12 9
f 9 12 13
f 10 14 15
f 10 15 11
f 11 15 16
f 12 17 18
f 12 18 13
f 14 19 20
f 14 20 16
f 14 16 15
f 17 20 19
f 17 19 18

