# https://github.com/mikedh/trimesh
v -0.01566037 0.01808728 0.01114858
v -0.01479499 0.01790932 0.01114858
v -0.01566037 0.01808728 0.00540019
v -0.01566037 0.00093598 0.01114858
v -0.01479499 0.01790932 0.00469515
v -0.01479499 0.00093598 0.01114858
v -0.01565757 0.01808560 0.00469515
v -0.01566037 0.01740734 0.00469515
v -0.01566037 0.00093598 0.00469515
v -0.01479499 0.00093598 0.00469515
f 1 2 5
f 1 5 3
f 1 3 8
f 1 8 9
f 1 9 4
f 1 4 6
f 1 6 2
f 2 6 10
f 2 10 5
f 3 7 8
f 3 5 7
f 4 9 10
f 4 10 6
f 5 10 9
f 5 9 8
f 5 8 7

