# https://github.com/mikedh/trimesh
v -0.00614601 0.01256120 0.04974819
v -0.00674595 0.01256120 0.04974819
v -0.00614601 -0.01373353 0.04974819
v -0.00614601 0.01256120 0.03655148
v -0.00674595 0.01256120 0.03655148
v -0.00674595 -0.01415174 0.04974819
v -0.00619622 -0.01378088 0.04974819
v -0.00614601 -0.01382559 0.04939682
v -0.00614601 -0.01382559 0.03655148
v -0.00674595 -0.01430956 0.03655148
v -0.00674595 -0.01428852 0.04952988
v -0.00639189 -0.01394132 0.04974819
v -0.00663266 -0.01422539 0.04939812
v -0.00643347 -0.01406232 0.04332681
v -0.00663272 -0.01422539 0.03655148
v -0.00663266 -0.01422539 0.03880949
v -0.00674595 -0.01430956 0.04939812
f 1 2 6
f 1 6 12
f 1 12 7
f 1 7 3
f 1 3 8
f 1 8 9
f 1 9 4
f 1 4 5
f 1 5 2
f 2 5 10
f 2 10 17
f 2 17 11
f 2 11 6
f 3 7 8
f 4 9 15
f 4 15 10
f 4 10 5
f 6 11 12
f 7 12 11
f 7 11 8
f 8 11 13
f 8 13 14
f 8 14 9
f 9 14 15
f 10 15 16
f 10 16 13
f 10 13 17
f 11 17 13
f 13 16 14
f 14 16 15

