# https://github.com/mikedh/trimesh
v 0.01622895 0.03879971 0.05044000
v 0.01622895 0.03240089 0.05044000
v 0.01622895 0.03959992 0.05041012
v 0.00442038 0.03879971 0.05044000
v 0.00442038 0.03240089 0.05044000
v 0.01622895 0.03160068 0.05042506
v 0.01622895 0.04008705 0.05016109
v 0.00442038 0.03961548 0.05040514
v 0.00442038 0.03959992 0.05041012
v 0.00442038 0.03160068 0.05041012
v 0.01622895 0.03081505 0.05012125
v 0.01622895 0.04021929 0.05009137
v 0.00442038 0.04021929 0.05009137
v 0.00442038 0.03099590 0.05010133
v 0.00442038 0.03098034 0.05009137
v 0.01622895 0.03051849 0.04939909
v 0.01622895 0.04044000 0.04939909
v 0.00442038 0.04044000 0.04939909
v 0.00442038 0.03076060 0.04939909
v 0.01622895 0.03051752 0.04935925
v 0.01622895 0.04044000 0.00060091
v 0.00442038 0.04044000 0.00060091
v 0.01622895 0.03050682 0.04859724
v 0.00442038 0.03076060 0.00060091
v 0.01622895 0.04026693 0.00005804
v 0.00442038 0.04021929 -0.00009137
v 0.01622895 0.03050682 0.01813698
v 0.00442038 0.03098034 -0.00009137
v 0.01622895 0.03057780 0.00063577
v 0.01622895 0.03054377 0.00460019
v 0.01622895 0.03053891 0.00538710
v 0.01622895 0.03051265 0.01180188
v 0.01622895 0.04021929 -0.00009137
v 0.00442038 0.04020373 -0.00010133
v 0.00442038 0.03158512 -0.00040514
v 0.01622895 0.03089575 -0.00010631
v 0.01622895 0.03064392 0.00043656
v 0.01622895 0.03959992 -0.00041012
v 0.00442038 0.03959992 -0.00041012
v 0.01622895 0.03103284 -0.00017604
v 0.00442038 0.03160068 -0.00041012
v 0.01622895 0.03160068 -0.00042506
v 0.01622895 0.03879971 -0.00044000
v 0.00442038 0.03879971 -0.00044000
v 0.00442038 0.03240089 -0.00044000
v 0.01622895 0.03177180 -0.00043004
v 0.01622895 0.03240089 -0.00044000
f 1 2 6
f 1 6 11
f 1 11 16
f 1 16 20
f 1 20 23
f 1 23 27
f 1 27 32
f 1 32 31
f 1 31 30
f 1 30 29
f 1 29 37
f 1 37 36
f 1 36 40
f 1 40 42
f 1 42 46
f 1 46 47
f 1 47 43
f 1 43 38
f 1 38 33
f 1 33 25
f 1 25 21
f 1 21 17
f 1 17 12
f 1 12 7
f 1 7 3
f 1 3 9
f 1 9 4
f 1 4 5
f 1 5 2
f 2 5 6
f 3 7 8
f 3 8 9
f 4 9 8
f 4 8 13
f 4 13 18
f 4 18 22
f 4 22 26
f 4 26 34
f 4 34 39
f 4 39 44
f 4 44 45
f 4 45 41
f 4 41 35
f 4 35 28
f 4 28 24
f 4 24 19
f 4 19 15
f 4 15 14
f 4 14 10
f 4 10 5
f 5 10 6
f 6 10 11
f 7 12 13
f 7 13 8
f 10 14 11
f 11 14 15
f 11 15 16
f 12 17 18
f 12 18 13
f 15 19 16
f 16 19 20
f 17 21 22
f 17 22 18
f 19 23 20
f 19 24 27
f 19 27 23
f 21 25 22
f 22 25 26
f 24 28 29
f 24 29 30
f 24 30 31
f 24 31 32
f 24 32 27
f 25 33 26
f 26 33 34
f 28 35 36
f 28 36 37
f 28 37 29
f 33 38 34
f 34 38 39
f 35 40 36
f 35 41 42
f 35 42 40
f 38 43 44
f 38 44 39
f 41 45 42
f 42 45 46
f 43 47 45
f 43 45 44
f 45 47 46

