# https://github.com/mikedh/trimesh
v -0.02328620 -0.02975523 0.05043620
v -0.02573771 -0.02975523 0.05044000
v -0.02328620 -0.03762468 0.05043620
v -0.02328620 -0.02975445 0.01713633
v -0.02573771 -0.03222608 0.05044000
v -0.03879783 -0.02975523 0.05044000
v -0.03879615 -0.03762468 0.05043620
v -0.02328620 -0.03762468 0.01165406
v -0.02328620 -0.02975445 0.01165406
v -0.04044000 -0.02975445 0.01713633
v -0.03879783 -0.03222608 0.05044000
v -0.03959541 -0.02975523 0.05040962
v -0.03959541 -0.03762468 0.05040583
v -0.04044000 -0.03762468 0.01165406
v -0.04044000 -0.02975445 0.01165406
v -0.04044000 -0.03222608 0.04176100
v -0.04043832 -0.02975523 0.04939594
v -0.04034765 -0.02975523 0.04968448
v -0.04021668 -0.02975523 0.05009071
v -0.03959541 -0.03222608 0.05040962
v -0.04021668 -0.03762468 0.05008691
v -0.04044000 -0.03762468 0.04176100
v -0.04043832 -0.03222608 0.04939594
v -0.04034765 -0.03222608 0.04968448
v -0.04021668 -0.03222608 0.05009071
v -0.04043832 -0.03762468 0.04939214
f 1 2 5
f 1 5 3
f 1 3 8
f 1 8 9
f 1 9 4
f 1 4 2
f 2 4 10
f 2 10 6
f 2 6 11
f 2 11 5
f 3 5 11
f 3 11 7
f 3 7 13
f 3 13 21
f 3 21 26
f 3 26 22
f 3 22 14
f 3 14 8
f 4 9 15
f 4 15 10
f 6 10 12
f 6 12 20
f 6 20 11
f 7 11 13
f 8 14 15
f 8 15 9
f 10 16 17
f 10 17 18
f 10 18 19
f 10 19 12
f 10 15 14
f 10 14 22
f 10 22 16
f 11 20 13
f 12 19 25
f 12 25 20
f 13 20 25
f 13 25 21
f 16 22 23
f 16 23 17
f 17 23 24
f 17 24 18
f 18 24 25
f 18 25 19
f 21 25 24
f 21 24 26
f 22 26 23
f 23 26 24

