# https://github.com/mikedh/trimesh
v -0.01479490 0.01790999 0.00520798
v -0.01399985 0.01775572 0.00520798
v -0.01399970 0.01775572 0.00180541
v -0.01479490 0.01790999 0.00139571
v -0.01479490 -0.00596766 0.00520798
v -0.01373026 0.01769962 0.00180541
v -0.01345386 0.01763884 0.00520798
v -0.01399970 0.01775572 0.00086326
v -0.01479490 0.01790532 0.00059731
v -0.01479490 -0.00597000 0.00086326
v -0.01318047 -0.00596766 0.00520798
v -0.01345386 0.01763884 0.00424814
v -0.01345402 0.01763884 0.00086326
v -0.01330073 0.01759677 0.00424814
v -0.01324605 0.01758041 0.00520798
v -0.01399970 0.01775338 0.00060063
v -0.01360462 0.01765053 0.00023295
v -0.01350269 0.01762248 0.00013785
v -0.01399970 0.01767624 0.00004552
v -0.01479490 0.01774871 -0.00004903
v -0.01318047 -0.00597000 0.00086326
v -0.01479490 -0.00597000 -0.00043993
v -0.01318047 0.01756171 0.00520798
v -0.01325159 0.01758274 0.00180541
v -0.01318047 0.01756171 0.00086326
v -0.01318047 0.01755937 0.00060063
v -0.01345402 0.01763417 0.00060063
v -0.01349290 0.01762716 0.00023295
v -0.01341088 0.01760612 0.00023295
v -0.01318047 0.01723913 -0.00009216
v -0.01399970 0.01719472 -0.00027462
v -0.01479490 0.01719472 -0.00036695
v -0.01318047 -0.00597000 -0.00043993
v -0.01479490 0.01639763 -0.00043993
v -0.01318047 0.01755002 0.00047015
v -0.01318047 0.01720173 -0.00010764
v -0.01318047 0.01639763 -0.00043772
v -0.01479490 0.01719004 -0.00036806
v -0.01318047 0.01559586 -0.00043993
v -0.01399970 0.01639763 -0.00043993
v -0.01318047 0.01637659 -0.00043828
v -0.01320038 0.01639763 -0.00043828
f 1 2 3
f 1 3 8
f 1 8 4
f 1 4 9
f 1 9 20
f 1 20 32
f 1 32 38
f 1 38 34
f 1 34 22
f 1 22 10
f 1 10 5
f 1 5 11
f 1 11 23
f 1 23 15
f 1 15 7
f 1 7 2
f 2 6 3
f 2 7 6
f 3 6 8
f 4 8 9
f 5 10 21
f 5 21 11
f 6 7 12
f 6 12 13
f 6 13 8
f 7 14 12
f 7 15 14
f 8 13 16
f 8 16 9
f 9 16 17
f 9 17 18
f 9 18 19
f 9 19 20
f 10 22 33
f 10 33 21
f 11 21 33
f 11 33 39
f 11 39 41
f 11 41 37
f 11 37 36
f 11 36 30
f 11 30 35
f 11 35 26
f 11 26 25
f 11 25 23
f 12 14 13
f 13 14 24
f 13 24 25
f 13 25 26
f 13 26 27
f 13 27 16
f 14 15 23
f 14 23 24
f 16 27 28
f 16 28 17
f 17 28 18
f 18 28 29
f 18 29 30
f 18 30 19
f 19 30 31
f 19 31 20
f 20 31 32
f 22 34 40
f 22 40 39
f 22 39 33
f 23 25 24
f 26 35 29
f 26 29 27
f 27 29 28
f 29 35 30
f 30 36 31
f 31 36 37
f 31 37 32
f 32 37 38
f 34 38 40
f 37 41 42
f 37 42 38
f 38 42 40
f 39 40 42
f 39 42 41

