# https://github.com/mikedh/trimesh
v -0.01721611 -0.03989201 0.05026262
v -0.02152049 -0.03989201 0.05026262
v -0.01721611 -0.04021997 0.05009261
v -0.01721611 -0.03989201 0.03096631
v -0.02152049 -0.04021997 0.05009261
v -0.02152049 -0.03989201 0.03096631
v -0.02152049 -0.04030821 0.04981492
v -0.01721611 -0.04043995 0.04939934
v -0.01721611 -0.04043995 0.03096631
v -0.02152049 -0.04043995 0.03096631
v -0.02152049 -0.04043995 0.04939934
f 1 2 5
f 1 5 3
f 1 3 8
f 1 8 9
f 1 9 4
f 1 4 6
f 1 6 2
f 2 6 10
f 2 10 11
f 2 11 7
f 2 7 5
f 3 5 7
f 3 7 8
f 4 9 10
f 4 10 6
f 7 11 8
f 8 11 10
f 8 10 9

