# https://github.com/mikedh/trimesh
v -0.01871622 0.02759672 0.04859847
v -0.01871622 0.02759672 0.03819560
v -0.01871834 0.02759672 0.04940003
v -0.01876087 0.02669397 0.04940003
v -0.01876087 0.02669397 0.02508779
v -0.01872472 0.02759672 0.02508779
v -0.01895863 0.02759672 0.05009736
v -0.01897990 0.02669397 0.05009240
v -0.04044000 0.02669397 0.02508779
v -0.04044000 0.02759672 0.02508779
v -0.01960082 0.02759672 0.05041749
v -0.01960082 0.02669397 0.05041252
v -0.04044000 0.02669397 0.04940003
v -0.04044000 0.02759672 0.04940003
v -0.02040036 0.02759672 0.05043982
v -0.02040036 0.02669397 0.05043982
v -0.04024862 0.02669397 0.05000058
v -0.04021672 0.02759672 0.05009240
v -0.03879838 0.02759672 0.05043982
v -0.03879838 0.02669397 0.05043982
v -0.04021672 0.02669397 0.05009240
v -0.03968086 0.02669397 0.05037034
v -0.03959793 0.02759672 0.05041252
v -0.03959793 0.02669397 0.05041252
f 1 2 6
f 1 6 10
f 1 10 14
f 1 14 18
f 1 18 23
f 1 23 19
f 1 19 15
f 1 15 11
f 1 11 7
f 1 7 3
f 1 3 4
f 1 4 5
f 1 5 2
f 2 5 6
f 3 7 8
f 3 8 4
f 4 8 12
f 4 12 16
f 4 16 20
f 4 20 24
f 4 24 22
f 4 22 21
f 4 21 17
f 4 17 13
f 4 13 9
f 4 9 5
f 5 9 10
f 5 10 6
f 7 11 12
f 7 12 8
f 9 13 14
f 9 14 10
f 11 15 16
f 11 16 12
f 13 17 14
f 14 17 18
f 15 19 20
f 15 20 16
f 17 21 18
f 18 21 22
f 18 22 23
f 19 23 24
f 19 24 20
f 22 24 23

