# https://github.com/mikedh/trimesh
v 0.03424572 -0.00566586 0.02234702
v 0.03424572 -0.01869987 0.02234702
v 0.03424572 -0.00566458 0.02145036
v 0.01876152 -0.00566586 0.02234702
v 0.01876152 -0.01869987 0.02234702
v 0.03424572 -0.01870114 0.02145036
v 0.01876152 -0.00566458 0.02145036
v 0.03424572 -0.00566458 0.00173272
v 0.01876152 -0.01870114 0.02145036
v 0.03424572 -0.01870114 0.00173272
v 0.01876152 -0.00566458 0.00173272
v 0.03424268 -0.00566458 -0.00043979
v 0.01876152 -0.01870114 0.00173272
v 0.03424268 -0.01870114 -0.00043979
v 0.01876303 -0.00566458 0.00060186
v 0.02040300 -0.00566458 -0.00043979
v 0.01876303 -0.01870114 0.00060186
v 0.02040300 -0.01870114 -0.00043979
v 0.01889035 -0.00566458 0.00019814
v 0.01960272 -0.00566458 -0.00041302
v 0.01895552 -0.01870114 -0.00000707
v 0.01960272 -0.01870114 -0.00041302
v 0.01898281 -0.00566458 -0.00009183
v 0.01898281 -0.01870114 -0.00009183
f 1 2 6
f 1 6 10
f 1 10 8
f 1 8 3
f 1 3 7
f 1 7 4
f 1 4 5
f 1 5 2
f 2 5 9
f 2 9 6
f 3 8 12
f 3 12 16
f 3 16 20
f 3 20 23
f 3 23 19
f 3 19 15
f 3 15 11
f 3 11 7
f 4 7 11
f 4 11 13
f 4 13 9
f 4 9 5
f 6 9 13
f 6 13 17
f 6 17 21
f 6 21 24
f 6 24 22
f 6 22 18
f 6 18 14
f 6 14 10
f 8 10 14
f 8 14 12
f 11 15 17
f 11 17 13
f 12 14 18
f 12 18 16
f 15 19 17
f 16 18 22
f 16 22 20
f 17 19 21
f 19 23 21
f 20 22 24
f 20 24 23
f 21 23 24

