# https://github.com/mikedh/trimesh
v -0.04043774 0.02971680 0.02835540
v -0.04043774 0.02971680 0.04815601
v -0.04043774 0.03012107 0.02835540
v -0.01778096 0.02971680 0.02835540
v -0.04043774 0.03012107 0.04815601
v -0.02593050 0.02971680 0.04815795
v -0.01726836 0.03012107 0.02835540
v -0.01778096 0.02971680 0.04815795
v -0.02593050 0.03012107 0.04815795
v -0.01726836 0.03012107 0.04815795
f 1 2 5
f 1 5 3
f 1 3 7
f 1 7 4
f 1 4 8
f 1 8 6
f 1 6 2
f 2 6 9
f 2 9 5
f 3 5 9
f 3 9 10
f 3 10 7
f 4 7 10
f 4 10 8
f 6 8 10
f 6 10 9

