# https://github.com/mikedh/trimesh
v -0.02020269 -0.02975397 0.00494172
v -0.02020269 -0.03878377 0.00494172
v -0.02020269 -0.02975397 -0.00044000
v -0.04043802 -0.02975397 0.00494172
v -0.02020269 -0.03878377 -0.00044000
v -0.04043802 -0.03878377 0.00494172
v -0.03879978 -0.02975397 -0.00044000
v -0.04043802 -0.02975397 0.00060052
v -0.03879978 -0.03878377 -0.00044000
v -0.04043802 -0.03878377 0.00060052
v -0.03959810 -0.02975397 -0.00041313
v -0.04028747 -0.02975397 0.00012004
v -0.03959810 -0.03878377 -0.00041313
v -0.04022408 -0.03878377 -0.00007911
v -0.03961197 -0.03878377 -0.00040681
v -0.03979025 -0.02975397 -0.00031461
v -0.04021814 -0.02975397 -0.00009281
v -0.04021814 -0.03878377 -0.00009281
f 1 2 5
f 1 5 3
f 1 3 7
f 1 7 11
f 1 11 16
f 1 16 17
f 1 17 12
f 1 12 8
f 1 8 4
f 1 4 6
f 1 6 2
f 2 6 10
f 2 10 14
f 2 14 18
f 2 18 15
f 2 15 13
f 2 13 9
f 2 9 5
f 3 5 9
f 3 9 7
f 4 8 10
f 4 10 6
f 7 9 13
f 7 13 11
f 8 12 10
f 10 12 14
f 11 13 15
f 11 15 16
f 12 17 14
f 14 17 18
f 15 18 16
f 16 18 17

