# https://github.com/mikedh/trimesh
v -0.01639033 0.03072111 0.04285458
v -0.01639033 0.03056101 0.04285458
v -0.01639268 0.03072111 0.04244942
v -0.04043765 0.03072111 0.04285458
v -0.01639268 0.03056301 0.04244942
v -0.01726850 0.03012111 0.04285458
v -0.01726850 0.03012111 0.04244942
v -0.04043765 0.03072111 0.04244942
v -0.04043765 0.03012111 0.04285458
v -0.04043765 0.03012111 0.04244942
f 1 2 5
f 1 5 3
f 1 3 8
f 1 8 4
f 1 4 9
f 1 9 6
f 1 6 2
f 2 6 7
f 2 7 5
f 3 5 7
f 3 7 10
f 3 10 8
f 4 8 10
f 4 10 9
f 6 9 10
f 6 10 7

