# https://github.com/mikedh/trimesh
v -0.01566037 -0.01808728 0.01429293
v -0.01480007 -0.01791023 0.01429293
v -0.01566037 -0.01808728 0.01489950
v -0.01566037 0.01766935 0.01429293
v -0.01479549 -0.01790669 0.01429293
v -0.01479499 -0.01790669 0.01489950
v -0.01480007 -0.01791023 0.01489950
v -0.01566037 0.01802699 0.01489950
v -0.01565766 0.01808364 0.01429293
v -0.01479499 -0.01758800 0.01429293
v -0.01479499 0.01790659 0.01489950
v -0.01565995 0.01808718 0.01489950
v -0.01480007 0.01791013 0.01429293
v -0.01479499 0.01790659 0.01429293
v -0.01480007 0.01791013 0.01489950
f 1 2 7
f 1 7 3
f 1 3 8
f 1 8 4
f 1 4 9
f 1 9 13
f 1 13 14
f 1 14 10
f 1 10 5
f 1 5 2
f 2 5 6
f 2 6 7
f 3 7 6
f 3 6 11
f 3 11 15
f 3 15 12
f 3 12 8
f 4 8 9
f 5 10 6
f 6 10 14
f 6 14 11
f 8 12 9
f 9 12 13
f 11 14 13
f 11 13 15
f 12 15 13

