# https://github.com/mikedh/trimesh
v -0.04043938 -0.01998843 0.01178135
v -0.01946695 -0.01998843 0.01178135
v -0.04043938 -0.01998843 0.01278335
v -0.04043938 0.00449703 0.01178135
v -0.01840888 -0.01998363 0.01178135
v -0.01840888 -0.01998843 0.01180019
v -0.02822491 -0.01998843 0.01278335
v -0.04043938 0.00449942 0.01278335
v -0.04043938 0.00449942 0.01180019
v -0.04040604 0.00449942 0.01178135
v -0.01773091 -0.01905830 0.01178135
v -0.01840888 -0.01998843 0.01259984
v -0.02164755 -0.01998843 0.01266046
v -0.01840888 -0.01998363 0.01278335
v -0.03409097 0.00450182 0.01278335
v -0.03409097 0.00450182 0.01178135
v -0.01773091 0.00449942 0.01178135
v -0.01773091 -0.01905830 0.01278335
v -0.02513962 0.00450182 0.01278335
v -0.02513962 0.00450182 0.01178135
v -0.01773091 0.00449942 0.01278335
f 1 2 6
f 1 6 12
f 1 12 13
f 1 13 7
f 1 7 3
f 1 3 8
f 1 8 9
f 1 9 4
f 1 4 10
f 1 10 16
f 1 16 20
f 1 20 17
f 1 17 11
f 1 11 5
f 1 5 2
f 2 5 6
f 3 7 14
f 3 14 18
f 3 18 21
f 3 21 19
f 3 19 15
f 3 15 8
f 4 9 10
f 5 11 6
f 6 11 18
f 6 18 12
f 7 13 14
f 8 15 16
f 8 16 9
f 9 16 10
f 11 17 21
f 11 21 18
f 12 18 14
f 12 14 13
f 15 19 20
f 15 20 16
f 17 20 19
f 17 19 21

