# https://github.com/mikedh/trimesh
v -0.01715624 0.01863236 0.00306068
v -0.01773053 0.01906150 0.00203542
v -0.01773053 0.01863236 0.00306068
v -0.01679660 0.01839353 0.00306068
v -0.01773053 0.01906150 0.00139977
v -0.01773053 -0.01906150 0.00306068
v -0.01679660 0.01839353 0.00138641
v -0.01679660 -0.01791960 0.00306068
v -0.01773053 0.01905030 0.00060033
v -0.01679660 0.01838606 0.00060033
v -0.01773053 -0.01906150 0.00139977
v -0.01679660 -0.01839353 0.00301305
v -0.01679706 -0.01839353 0.00306068
v -0.01773053 0.01904657 0.00058491
v -0.01679660 0.01837487 0.00057635
v -0.01734493 0.01856892 0.00001095
v -0.01773053 -0.01905030 0.00060033
v -0.01679660 -0.01838606 0.00060033
v -0.01679660 -0.01839353 0.00139977
v -0.01773053 0.01872192 -0.00008877
v -0.01679660 0.01800916 -0.00014394
v -0.01773053 -0.01872192 -0.00008877
v -0.01734493 -0.01856892 0.00001095
v -0.01679660 -0.01800916 -0.00014394
v -0.01773053 0.01860250 -0.00015764
v -0.01679660 0.01767704 -0.00028923
v -0.01773053 -0.01802036 -0.00034371
v -0.01679660 -0.01719938 -0.00043657
v -0.01773053 0.01802036 -0.00034371
v -0.01679660 0.01719938 -0.00043657
v -0.01773053 -0.01719938 -0.00043966
v -0.01720003 -0.01719938 -0.00043966
v -0.01679660 -0.01639707 -0.00043966
v -0.01773053 0.01772928 -0.00042766
v -0.01679660 0.01679636 -0.00043966
v -0.01720003 0.01719938 -0.00043966
v -0.01773053 0.01719938 -0.00043966
f 1 2 3
f 1 3 6
f 1 6 13
f 1 13 8
f 1 8 4
f 1 4 2
f 2 5 9
f 2 9 14
f 2 14 20
f 2 20 25
f 2 25 29
f 2 29 34
f 2 34 37
f 2 37 31
f 2 31 27
f 2 27 22
f 2 22 17
f 2 17 11
f 2 11 6
f 2 6 3
f 2 4 7
f 2 7 5
f 4 8 12
f 4 12 19
f 4 19 18
f 4 18 24
f 4 24 28
f 4 28 33
f 4 33 35
f 4 35 30
f 4 30 26
f 4 26 21
f 4 21 15
f 4 15 10
f 4 10 7
f 5 7 10
f 5 10 9
f 6 11 19
f 6 19 12
f 6 12 13
f 8 13 12
f 9 10 14
f 10 15 16
f 10 16 14
f 11 17 18
f 11 18 19
f 14 16 20
f 15 21 16
f 16 21 20
f 17 22 23
f 17 23 18
f 18 23 24
f 20 21 25
f 21 26 25
f 22 27 24
f 22 24 23
f 24 27 28
f 25 26 29
f 26 30 29
f 27 31 32
f 27 32 28
f 28 32 33
f 29 30 34
f 30 35 36
f 30 36 34
f 31 37 36
f 31 36 35
f 31 35 33
f 31 33 32
f 34 36 37

