# https://github.com/mikedh/trimesh
v 0.01769484 -0.04043982 0.00060091
v 0.01769484 -0.04035593 0.00033695
v 0.01873904 -0.04043982 0.00060091
v 0.01769484 -0.04043982 0.04939909
v 0.01769484 -0.04021980 -0.00009137
v 0.01873904 -0.04021980 -0.00009137
v 0.01873904 -0.04043982 0.04939909
v 0.01769484 -0.04021980 0.05009137
v 0.01769484 -0.03959973 -0.00041012
v 0.01873904 -0.04017246 -0.00011627
v 0.01873904 -0.04021980 0.05009137
v 0.01769484 -0.03983642 0.05029059
v 0.01873904 -0.03953865 -0.00041510
v 0.01873904 -0.03959973 -0.00041012
v 0.01769484 -0.03880011 -0.00044000
v 0.01873904 -0.03959973 0.05041012
v 0.01769484 -0.03959973 0.05041012
v 0.01873904 -0.03880011 -0.00044000
v 0.01769484 -0.03793427 -0.00044000
v 0.01873904 -0.03880011 0.05044000
v 0.01769484 -0.03880011 0.05044000
v 0.01873904 -0.03793427 -0.00044000
v 0.01769484 -0.03793427 0.05044000
v 0.01873904 -0.03793427 0.05044000
f 1 2 3
f 1 3 7
f 1 7 4
f 1 4 8
f 1 8 12
f 1 12 17
f 1 17 21
f 1 21 23
f 1 23 19
f 1 19 15
f 1 15 9
f 1 9 5
f 1 5 2
f 2 5 6
f 2 6 3
f 3 6 10
f 3 10 14
f 3 14 13
f 3 13 18
f 3 18 22
f 3 22 24
f 3 24 20
f 3 20 16
f 3 16 11
f 3 11 7
f 4 7 11
f 4 11 8
f 5 9 10
f 5 10 6
f 8 11 12
f 9 13 14
f 9 14 10
f 9 15 13
f 11 16 12
f 12 16 17
f 13 15 18
f 15 19 22
f 15 22 18
f 16 20 21
f 16 21 17
f 19 23 24
f 19 24 22
f 20 24 23
f 20 23 21

