# https://github.com/mikedh/trimesh
v -0.03308906 -0.02894708 0.01050338
v -0.03308906 -0.02894708 0.01294896
v -0.03309051 -0.02894702 0.01294896
v -0.03308906 -0.02839805 0.01050338
v -0.01833820 -0.02894708 0.01050338
v -0.03309051 -0.02894702 0.02379281
v -0.01833965 -0.02894708 0.01294896
v -0.03309051 -0.02839778 0.01294896
v -0.03308906 -0.02839778 0.01100030
v -0.03211713 -0.02839778 0.01050338
v -0.01855627 -0.02840010 0.01050338
v -0.01855339 -0.02839778 0.01579782
v -0.01833676 -0.02894702 0.01556106
v -0.01833676 -0.02894702 0.01979922
v -0.03309051 -0.02839934 0.02379281
v -0.01833965 -0.02894702 0.02379281
v -0.03309051 -0.02839778 0.02326727
v -0.01856061 -0.02839778 0.01099900
v -0.01855339 -0.02839778 0.01979662
v -0.01869925 -0.02839778 0.02379281
v -0.01856349 -0.02840015 0.02379281
v -0.01856349 -0.02839778 0.02299540
f 1 2 6
f 1 6 3
f 1 3 8
f 1 8 4
f 1 4 10
f 1 10 11
f 1 11 5
f 1 5 7
f 1 7 2
f 2 7 16
f 2 16 6
f 3 6 15
f 3 15 17
f 3 17 8
f 4 8 9
f 4 9 10
f 5 11 12
f 5 12 13
f 5 13 14
f 5 14 7
f 6 16 21
f 6 21 20
f 6 20 15
f 7 14 16
f 8 17 20
f 8 20 22
f 8 22 19
f 8 19 12
f 8 12 18
f 8 18 10
f 8 10 9
f 10 18 11
f 11 18 12
f 12 19 14
f 12 14 13
f 14 19 16
f 15 20 17
f 16 19 21
f 19 22 21
f 20 21 22

