# https://github.com/mikedh/trimesh
v -0.01026139 -0.01647306 0.02378896
v -0.01026139 -0.00611872 0.02378896
v -0.01000964 -0.01634941 0.02378896
v -0.01001609 -0.01635346 0.02778297
v -0.01026139 -0.01647306 0.04939650
v -0.00968279 -0.00611872 0.02378896
v -0.01026139 -0.00611872 0.02778297
v -0.00999990 -0.01634434 0.02378896
v -0.00999978 -0.01634535 0.02778297
v -0.00999978 -0.01634535 0.04939650
v -0.00968279 -0.01614974 0.04971216
v -0.00968279 -0.01608994 0.04993129
v -0.01026139 -0.01636562 0.04977737
v -0.00968279 -0.01617913 0.02378896
v -0.00968279 -0.00611872 0.02778297
v -0.01026139 -0.00611973 0.05044000
v -0.00968279 -0.01618014 0.02778297
v -0.00968279 -0.01618014 0.04939650
v -0.00968279 -0.01594703 0.05005129
v -0.00999978 -0.01617204 0.05001477
v -0.01026139 -0.01625211 0.05003825
v -0.00968279 -0.00611973 0.05044000
v -0.01026139 -0.01479970 0.05044000
v -0.00968279 -0.01560851 0.05023652
v -0.00999978 -0.01559939 0.05033304
v -0.01026139 -0.01585987 0.05025739
v -0.00968279 -0.01448145 0.05044000
v -0.00999978 -0.01479970 0.05044000
v -0.01026139 -0.01506018 0.05043217
v -0.00968279 -0.01528215 0.05036956
v -0.01026139 -0.01559939 0.05036434
v -0.00968279 -0.01479970 0.05043217
f 1 2 6
f 1 6 14
f 1 14 8
f 1 8 3
f 1 3 4
f 1 4 5
f 1 5 13
f 1 13 21
f 1 21 26
f 1 26 31
f 1 31 29
f 1 29 23
f 1 23 16
f 1 16 7
f 1 7 2
f 2 7 15
f 2 15 6
f 3 8 9
f 3 9 4
f 4 9 10
f 4 10 5
f 5 10 11
f 5 11 12
f 5 12 13
f 6 15 22
f 6 22 27
f 6 27 32
f 6 32 30
f 6 30 24
f 6 24 19
f 6 19 12
f 6 12 11
f 6 11 18
f 6 18 17
f 6 17 14
f 7 16 22
f 7 22 15
f 8 14 9
f 9 17 18
f 9 18 10
f 9 14 17
f 10 18 11
f 12 19 20
f 12 20 13
f 13 20 21
f 16 23 28
f 16 28 27
f 16 27 22
f 19 24 25
f 19 25 20
f 20 25 26
f 20 26 21
f 23 29 28
f 24 30 25
f 25 30 31
f 25 31 26
f 27 28 32
f 28 29 32
f 29 31 32
f 30 32 31

