# https://github.com/mikedh/trimesh
v 0.03472844 -0.02607333 -0.00044000
v 0.03879955 -0.02607333 -0.00044000
v 0.03472844 -0.02607333 0.03347668
v 0.03472844 0.02282034 -0.00044000
v 0.03879955 0.02282034 -0.00044000
v 0.03959988 -0.02607333 -0.00041012
v 0.03472844 0.02282034 0.03347668
v 0.03472942 -0.02607333 0.04977760
v 0.03472942 -0.02606855 0.05044000
v 0.03959988 0.02282034 -0.00041012
v 0.03972560 -0.02607333 -0.00034537
v 0.03472942 0.02281555 0.05044000
v 0.03472942 0.02282034 0.04979254
v 0.03480036 -0.02607333 0.05044000
v 0.03972560 0.02282034 -0.00034537
v 0.03972560 -0.02607333 0.05034537
v 0.03480036 0.02282034 0.05044000
v 0.03879955 -0.02607333 0.05044000
v 0.03972560 0.02282034 0.05034537
v 0.03961554 0.02282034 0.05040514
v 0.03959988 -0.02607333 0.05041012
v 0.03879955 0.02282034 0.05044000
v 0.03952650 -0.02607333 0.05041510
v 0.03959988 0.02282034 0.05041012
f 1 2 6
f 1 6 11
f 1 11 16
f 1 16 21
f 1 21 23
f 1 23 18
f 1 18 14
f 1 14 8
f 1 8 3
f 1 3 7
f 1 7 4
f 1 4 5
f 1 5 2
f 2 5 10
f 2 10 6
f 3 8 9
f 3 9 12
f 3 12 7
f 4 7 13
f 4 13 17
f 4 17 22
f 4 22 24
f 4 24 20
f 4 20 19
f 4 19 15
f 4 15 10
f 4 10 5
f 6 10 15
f 6 15 11
f 7 12 13
f 8 14 9
f 9 14 18
f 9 18 22
f 9 22 17
f 9 17 12
f 11 15 19
f 11 19 16
f 12 17 13
f 16 19 20
f 16 20 21
f 18 23 22
f 20 24 21
f 21 24 23
f 22 23 24

