# https://github.com/mikedh/trimesh
v -0.03618961 0.01982726 0.02621143
v -0.03618961 0.01957303 0.02621143
v -0.03618961 0.01999485 0.02620621
v -0.04043959 0.01999485 0.02621143
v -0.04043959 0.01957319 0.02621143
v -0.04043959 0.01957274 0.02619838
v -0.03618961 0.01957274 0.02620099
v -0.03618961 0.01999485 -0.00043874
v -0.04043959 0.01999485 0.00060212
v -0.04043959 0.01957274 0.00060212
v -0.03618961 0.01957274 -0.00043874
v -0.03879967 0.01999485 -0.00043874
v -0.04032810 0.01999485 0.00024995
v -0.04021952 0.01957274 -0.00009179
v -0.03879967 0.01957274 -0.00043874
v -0.03919446 0.01999485 -0.00042570
v -0.04021952 0.01999485 -0.00009179
v -0.03990543 0.01999485 -0.00025352
v -0.03959966 0.01957274 -0.00041005
v -0.03957220 0.01957274 -0.00041265
v -0.03959966 0.01999485 -0.00041005
f 1 2 7
f 1 7 11
f 1 11 8
f 1 8 3
f 1 3 4
f 1 4 5
f 1 5 2
f 2 5 6
f 2 6 7
f 3 8 12
f 3 12 16
f 3 16 21
f 3 21 18
f 3 18 17
f 3 17 13
f 3 13 9
f 3 9 4
f 4 9 10
f 4 10 6
f 4 6 5
f 6 10 14
f 6 14 19
f 6 19 20
f 6 20 15
f 6 15 11
f 6 11 7
f 8 11 15
f 8 15 12
f 9 13 10
f 10 13 14
f 12 15 16
f 13 17 14
f 14 17 18
f 14 18 19
f 15 20 16
f 16 20 21
f 18 21 19
f 19 21 20

