# https://github.com/mikedh/trimesh
v -0.01721838 -0.03160044 0.05044000
v -0.01721838 -0.03879916 0.05044000
v -0.01721838 -0.03073640 0.05018102
v -0.01960078 -0.02839773 0.05043004
v -0.01960078 -0.02920047 0.05044000
v -0.03879869 -0.03879916 0.05044000
v -0.01721838 -0.03959954 0.05041012
v -0.01721838 -0.03056195 0.05009137
v -0.01888242 -0.02840009 0.05011129
v -0.01888015 -0.02839773 0.05010631
v -0.02040098 -0.02839773 0.05044000
v -0.03879869 -0.02839773 0.05044000
v -0.03959888 -0.03879916 0.05041012
v -0.03959888 -0.03959954 0.05039517
v -0.03879869 -0.03959954 0.05041012
v -0.01721838 -0.03961133 0.05040514
v -0.01721838 -0.03017531 0.04939909
v -0.01736387 -0.03024839 0.04997184
v -0.01855734 -0.02840009 0.04939909
v -0.01855734 -0.02839773 0.04939411
v -0.03959888 -0.02839773 0.05041012
v -0.04021949 -0.03959954 0.05009137
v -0.04014447 -0.04014649 0.04999176
v -0.03959888 -0.04021957 0.05009137
v -0.01721838 -0.04021957 0.05009137
v -0.01721838 -0.03015999 0.04862215
v -0.01855280 -0.02840009 0.04859724
v -0.01855507 -0.02839773 0.04859724
v -0.04021949 -0.02839773 0.05009137
v -0.04044000 -0.03959954 0.04939909
v -0.04021949 -0.04021957 0.04939909
v -0.03959888 -0.04044000 0.04939909
v -0.01721838 -0.04044000 0.04939909
v -0.01855280 -0.02839773 0.03259514
v -0.01721838 -0.03015999 0.00140276
v -0.04044000 -0.02839773 0.04939909
v -0.04044000 -0.03959954 0.00060091
v -0.04021949 -0.04021957 0.00060091
v -0.03959888 -0.04044000 0.00060091
v -0.01721838 -0.04044000 0.00060091
v -0.01855280 -0.02839773 0.00139778
v -0.01721838 -0.03017531 0.00060091
v -0.01855734 -0.02840009 0.00060091
v -0.04044000 -0.02839773 0.00060091
v -0.04021949 -0.03959954 -0.00009137
v -0.04014447 -0.04014649 0.00000824
v -0.03959888 -0.04021957 -0.00009137
v -0.01721838 -0.04021957 -0.00009137
v -0.01855962 -0.02839773 0.00060091
v -0.01721838 -0.03029672 0.00018754
v -0.01888242 -0.02839773 -0.00011129
v -0.04021949 -0.02839773 -0.00008639
v -0.04021949 -0.02840009 -0.00009137
v -0.03959888 -0.03959954 -0.00039517
v -0.03960116 -0.02839773 -0.00041012
v -0.03959888 -0.03879916 -0.00041012
v -0.03879869 -0.03959954 -0.00041012
v -0.01721838 -0.03959954 -0.00041012
v -0.01721838 -0.03056195 -0.00009137
v -0.01736387 -0.03024839 0.00002816
v -0.01721838 -0.03066214 -0.00015611
v -0.01960078 -0.02840009 -0.00043004
v -0.01960306 -0.02839773 -0.00043004
v -0.03879869 -0.03879916 -0.00044000
v -0.03880096 -0.02839773 -0.00043502
v -0.03879869 -0.02840009 -0.00044000
v -0.01721838 -0.03879916 -0.00044000
v -0.01721838 -0.03073640 -0.00018102
v -0.01721838 -0.03160044 -0.00044000
v -0.01960078 -0.02920047 -0.00044000
v -0.02040325 -0.02839773 -0.00044000
v -0.03800076 -0.02839773 -0.00044000
f 1 2 7
f 1 7 16
f 1 16 25
f 1 25 33
f 1 33 40
f 1 40 48
f 1 48 58
f 1 58 67
f 1 67 69
f 1 69 68
f 1 68 61
f 1 61 59
f 1 59 50
f 1 50 42
f 1 42 35
f 1 35 26
f 1 26 17
f 1 17 8
f 1 8 3
f 1 3 4
f 1 4 5
f 1 5 11
f 1 11 12
f 1 12 6
f 1 6 2
f 2 6 15
f 2 15 7
f 3 8 9
f 3 9 4
f 4 9 10
f 4 10 20
f 4 20 28
f 4 28 34
f 4 34 41
f 4 41 49
f 4 49 51
f 4 51 63
f 4 63 71
f 4 71 72
f 4 72 65
f 4 65 55
f 4 55 52
f 4 52 44
f 4 44 36
f 4 36 29
f 4 29 21
f 4 21 12
f 4 12 11
f 4 11 5
f 6 12 21
f 6 21 13
f 6 13 14
f 6 14 15
f 7 15 16
f 8 10 9
f 8 17 18
f 8 18 10
f 10 18 19
f 10 19 20
f 13 21 29
f 13 29 22
f 13 22 14
f 14 22 23
f 14 23 24
f 14 24 15
f 15 24 16
f 16 24 25
f 17 26 20
f 17 20 18
f 18 20 19
f 20 26 27
f 20 27 28
f 22 29 36
f 22 36 30
f 22 30 23
f 23 30 31
f 23 31 32
f 23 32 24
f 24 32 33
f 24 33 25
f 26 34 27
f 26 35 41
f 26 41 34
f 27 34 28
f 30 36 44
f 30 44 37
f 30 37 38
f 30 38 31
f 31 38 39
f 31 39 32
f 32 39 40
f 32 40 33
f 35 42 43
f 35 43 41
f 37 44 53
f 37 53 45
f 37 45 46
f 37 46 38
f 38 46 39
f 39 46 47
f 39 47 48
f 39 48 40
f 41 43 49
f 42 50 43
f 43 50 51
f 43 51 49
f 44 52 53
f 45 54 46
f 45 53 55
f 45 55 56
f 45 56 54
f 46 54 47
f 47 54 57
f 47 57 58
f 47 58 48
f 50 59 60
f 50 60 51
f 51 60 59
f 51 59 61
f 51 61 62
f 51 62 63
f 52 55 53
f 54 56 64
f 54 64 57
f 55 65 66
f 55 66 64
f 55 64 56
f 57 64 67
f 57 67 58
f 61 68 62
f 62 69 63
f 62 68 69
f 63 69 70
f 63 70 71
f 64 66 72
f 64 72 71
f 64 71 70
f 64 70 69
f 64 69 67
f 65 72 66

