# https://github.com/mikedh/trimesh
v 0.02040066 -0.02732516 -0.00044000
v 0.01960108 -0.02732516 -0.00041723
v 0.02040066 -0.02675836 -0.00044000
v 0.03879924 -0.02732516 -0.00044000
v 0.01896600 -0.02732516 -0.00009713
v 0.01956776 -0.02675836 -0.00039663
v 0.01960108 -0.02675836 -0.00041317
v 0.03879924 -0.02675836 -0.00044000
v 0.03959882 -0.02732516 -0.00041317
v 0.01898057 -0.02675836 -0.00009306
v 0.01873904 -0.02732516 0.00057777
v 0.03959882 -0.02675836 -0.00041317
v 0.03986950 -0.02732516 -0.00027385
v 0.01875986 -0.02675836 0.00060027
v 0.01873904 -0.02732516 0.00232898
v 0.01873904 -0.02718201 0.00060027
v 0.03998819 -0.02675836 -0.00021205
v 0.04000693 -0.02732516 -0.00020311
v 0.01875986 -0.02675836 0.00232898
v 0.01873904 -0.02723134 0.00232898
v 0.04000901 -0.02732516 0.00232898
v 0.01873904 -0.02718201 0.00181779
v 0.04000901 -0.02675836 -0.00020094
v 0.04000901 -0.02732516 -0.00020094
v 0.04000901 -0.02675836 0.00232898
f 1 2 3
f 1 3 8
f 1 8 4
f 1 4 9
f 1 9 13
f 1 13 18
f 1 18 24
f 1 24 21
f 1 21 15
f 1 15 11
f 1 11 5
f 1 5 2
f 2 5 6
f 2 6 7
f 2 7 3
f 3 7 6
f 3 6 10
f 3 10 14
f 3 14 19
f 3 19 25
f 3 25 23
f 3 23 17
f 3 17 12
f 3 12 8
f 4 8 12
f 4 12 9
f 5 10 6
f 5 11 10
f 9 12 13
f 10 11 14
f 11 15 20
f 11 20 22
f 11 22 16
f 11 16 14
f 12 17 18
f 12 18 13
f 14 16 22
f 14 22 19
f 15 21 25
f 15 25 19
f 15 19 20
f 17 23 18
f 18 23 24
f 19 22 20
f 21 24 23
f 21 23 25

