# https://github.com/mikedh/trimesh
v -0.00307240 -0.01042148 0.02379117
v -0.00307240 -0.01020698 0.02378857
v -0.00278631 -0.00999989 0.02378857
v -0.00307240 -0.01042148 0.04939924
v -0.00307240 -0.00909273 0.02378857
v -0.00278167 -0.00999261 0.02378857
v -0.00278631 -0.00999989 0.04939924
v -0.00307240 -0.01036658 0.04978327
v -0.00266724 -0.00909273 0.02378857
v -0.00307240 -0.00909273 0.05029704
v -0.00266724 -0.00981258 0.02378857
v -0.00266724 -0.00981258 0.04939924
v -0.00266724 -0.00968693 0.04964055
v -0.00307240 -0.01023573 0.04995452
v -0.00266724 -0.00909273 0.05015173
v -0.00307240 -0.00952862 0.05022438
v -0.00275418 -0.00909273 0.05019324
v -0.00299311 -0.00999989 0.05002199
v -0.00266724 -0.00919419 0.05011800
v -0.00307240 -0.01009706 0.05002977
v -0.00266724 -0.00913097 0.05014135
v -0.00307240 -0.00999989 0.05006351
v -0.00274474 -0.00923582 0.05014913
f 1 2 3
f 1 3 7
f 1 7 4
f 1 4 8
f 1 8 14
f 1 14 20
f 1 20 22
f 1 22 16
f 1 16 10
f 1 10 5
f 1 5 2
f 2 5 9
f 2 9 11
f 2 11 6
f 2 6 3
f 3 6 7
f 4 7 8
f 5 10 17
f 5 17 15
f 5 15 9
f 6 11 12
f 6 12 7
f 7 12 8
f 8 12 13
f 8 13 14
f 9 15 21
f 9 21 19
f 9 19 13
f 9 13 12
f 9 12 11
f 10 16 17
f 13 18 14
f 13 19 18
f 14 18 20
f 15 17 21
f 16 22 18
f 16 18 23
f 16 23 21
f 16 21 17
f 18 19 21
f 18 21 23
f 18 22 20

