# https://github.com/mikedh/trimesh
v -0.01565800 0.01808541 0.02548917
v -0.01479499 0.01790944 0.02548917
v -0.01566037 0.01808728 0.02546015
v -0.01566037 0.01655230 0.02548917
v -0.01479499 0.01790944 0.01489956
v -0.01479499 -0.00103631 0.02548917
v -0.01566037 0.01808728 0.01500011
v -0.01566037 -0.00103631 0.02548710
v -0.01516376 -0.00103631 0.02548917
v -0.01565995 0.01808541 0.01489956
v -0.01479499 -0.00103631 0.01489956
v -0.01566037 0.01802737 0.01489956
v -0.01566037 -0.00103631 0.01489956
f 1 2 3
f 1 3 4
f 1 4 9
f 1 9 6
f 1 6 2
f 2 5 7
f 2 7 3
f 2 6 11
f 2 11 5
f 3 7 12
f 3 12 13
f 3 13 8
f 3 8 4
f 4 8 9
f 5 10 7
f 5 11 13
f 5 13 12
f 5 12 10
f 6 9 8
f 6 8 13
f 6 13 11
f 7 10 12

