# https://github.com/mikedh/trimesh
v 0.01769478 -0.03160028 0.05043943
v 0.01769478 -0.03129781 0.05042866
v 0.01720005 -0.03160028 0.05043943
v 0.01769478 -0.03879967 0.05043943
v 0.01750219 -0.03129781 0.05042866
v 0.01769478 -0.03129781 0.04465057
v 0.01707734 -0.03160028 0.05043887
v 0.01707734 -0.03172288 0.05043943
v 0.01707734 -0.03879967 0.05043943
v 0.01769478 -0.03910483 0.05042980
v 0.01707734 -0.03129781 0.05034196
v 0.01707734 -0.03129781 0.04465057
v 0.01769478 -0.04044000 0.04465057
v 0.01707734 -0.03892227 0.05043547
v 0.01707734 -0.03959970 0.05041280
v 0.01769478 -0.03959970 0.05041280
v 0.01707734 -0.04044000 0.04465057
v 0.01769478 -0.04044000 0.04939953
v 0.01707734 -0.03969456 0.05036406
v 0.01769478 -0.04021986 0.05009318
v 0.01707734 -0.04044000 0.04939953
v 0.01707734 -0.04021986 0.05009318
f 1 2 5
f 1 5 3
f 1 3 8
f 1 8 9
f 1 9 4
f 1 4 10
f 1 10 16
f 1 16 20
f 1 20 18
f 1 18 13
f 1 13 6
f 1 6 2
f 2 6 12
f 2 12 11
f 2 11 5
f 3 7 8
f 3 5 7
f 4 9 10
f 5 11 7
f 6 13 17
f 6 17 12
f 7 11 12
f 7 12 17
f 7 17 21
f 7 21 22
f 7 22 19
f 7 19 15
f 7 15 14
f 7 14 9
f 7 9 8
f 9 14 10
f 10 14 15
f 10 15 16
f 13 18 21
f 13 21 17
f 15 19 16
f 16 19 20
f 18 20 22
f 18 22 21
f 19 22 20

