# https://github.com/mikedh/trimesh
v 0.04035345 -0.03984011 0.04939706
v 0.04030479 -0.03984011 0.04965991
v 0.04014400 -0.04014649 0.04999270
v 0.04021804 -0.04021996 0.04939706
v 0.04035345 -0.03984011 0.04618142
v 0.04018419 -0.03984011 0.05004781
v 0.03959813 -0.03984011 0.05027886
v 0.03959813 -0.04021996 0.05009021
v 0.03959813 -0.04044000 0.04939706
v 0.03979913 -0.04036870 0.04085878
v 0.04021804 -0.04021996 0.02863641
v 0.04035133 -0.03984011 0.02863641
v 0.03879627 -0.03984011 0.05028734
v 0.01874327 -0.04021996 0.05009021
v 0.01874327 -0.04023669 0.05003933
v 0.02617798 -0.04013656 0.05013473
v 0.01874327 -0.04044000 0.04939706
v 0.03959813 -0.04044000 0.02863641
v 0.01873904 -0.03984011 0.02863641
v 0.01874327 -0.03984011 0.05028734
v 0.01873904 -0.04044000 0.04618142
v 0.01873904 -0.04044000 0.02863641
v 0.01873904 -0.03984011 0.04618142
f 1 2 3
f 1 3 4
f 1 4 11
f 1 11 5
f 1 5 12
f 1 12 19
f 1 19 23
f 1 23 20
f 1 20 13
f 1 13 7
f 1 7 6
f 1 6 2
f 2 6 3
f 3 6 7
f 3 7 8
f 3 8 9
f 3 9 4
f 4 9 10
f 4 10 11
f 5 11 12
f 7 13 8
f 8 14 15
f 8 15 9
f 8 13 16
f 8 16 14
f 9 15 17
f 9 17 21
f 9 21 22
f 9 22 18
f 9 18 10
f 10 18 11
f 11 18 22
f 11 22 19
f 11 19 12
f 13 20 16
f 14 16 20
f 14 20 21
f 14 21 15
f 15 21 17
f 19 22 21
f 19 21 23
f 20 23 21

