# https://github.com/mikedh/trimesh
v -0.03879698 -0.02228004 -0.00043865
v -0.03959934 -0.02228004 -0.00041172
v -0.03879698 -0.02111618 -0.00043865
v -0.02040028 -0.02228004 -0.00043865
v -0.03959934 -0.02111618 -0.00041172
v -0.04021866 -0.02228004 -0.00009121
v -0.02040028 -0.02111618 -0.00043865
v -0.01960006 -0.02111618 -0.00041980
v -0.01960006 -0.02228004 -0.00041172
v -0.04021866 -0.02111618 -0.00009121
v -0.04044000 -0.02228004 0.00060097
v -0.01895306 -0.02111618 -0.00009929
v -0.01938297 -0.02228004 -0.00029994
v -0.04044000 -0.02111618 0.00060097
v -0.04044000 -0.02228004 0.01331741
v -0.01870406 -0.02111618 0.00060097
v -0.01898073 -0.02228004 -0.00009121
v -0.04044000 -0.02111618 0.01331741
v -0.01876152 -0.02228004 0.01331741
v -0.01869767 -0.02111618 0.00140088
v -0.01876365 -0.02228004 0.00060097
v -0.01914035 -0.02111618 0.01331741
v -0.01876152 -0.02228004 0.01001407
v -0.01870619 -0.02111618 0.01259964
v -0.01871044 -0.02111778 0.01331741
v -0.01871044 -0.02111618 0.01331472
f 1 2 5
f 1 5 3
f 1 3 7
f 1 7 4
f 1 4 9
f 1 9 13
f 1 13 17
f 1 17 21
f 1 21 23
f 1 23 19
f 1 19 15
f 1 15 11
f 1 11 6
f 1 6 2
f 2 6 10
f 2 10 5
f 3 5 10
f 3 10 14
f 3 14 18
f 3 18 22
f 3 22 26
f 3 26 24
f 3 24 20
f 3 20 16
f 3 16 12
f 3 12 8
f 3 8 7
f 4 7 8
f 4 8 9
f 6 11 14
f 6 14 10
f 8 12 9
f 9 12 13
f 11 15 18
f 11 18 14
f 12 16 17
f 12 17 13
f 15 19 25
f 15 25 22
f 15 22 18
f 16 20 21
f 16 21 17
f 19 23 20
f 19 20 24
f 19 24 25
f 20 23 21
f 22 25 26
f 24 26 25

