# https://github.com/mikedh/trimesh
v -0.01638679 0.03055466 0.02540042
v -0.01638679 0.03055563 0.01900267
v -0.01560302 0.03071723 0.01899935
v -0.01638679 0.03055466 0.04459699
v -0.01638679 0.03056047 0.01650470
v -0.01569387 0.03070174 0.01650470
v -0.01560302 0.03072109 0.01650470
v -0.01560302 0.03071723 0.04539422
v -0.01560302 0.03072109 0.04939364
v -0.01638679 0.03055563 0.04541082
v -0.01638679 0.04044000 0.01650470
v -0.01560302 0.04044000 0.01650470
v -0.01638679 0.03056434 0.04939696
v -0.01560302 0.03095816 0.05009453
v -0.01638679 0.03056821 0.04941025
v -0.01638679 0.04044000 0.04939696
v -0.01560302 0.04044000 0.04939696
v -0.01560302 0.03159777 0.05041675
v -0.01638679 0.03088172 0.05011114
v -0.01638679 0.04021938 0.05009121
v -0.01560302 0.04021938 0.05009121
v -0.01560302 0.03239703 0.05043668
v -0.01638679 0.03160067 0.05043004
v -0.01638679 0.03960977 0.05040678
v -0.01560302 0.03959623 0.05041010
v -0.01560302 0.03319727 0.05044000
v -0.01638679 0.03240187 0.05044000
v -0.01638679 0.03959816 0.05041010
v -0.01638679 0.03879889 0.05044000
v -0.01560302 0.03879599 0.05044000
f 1 2 3
f 1 3 8
f 1 8 4
f 1 4 10
f 1 10 13
f 1 13 15
f 1 15 19
f 1 19 23
f 1 23 27
f 1 27 29
f 1 29 28
f 1 28 24
f 1 24 20
f 1 20 16
f 1 16 11
f 1 11 5
f 1 5 2
f 2 5 6
f 2 6 3
f 3 6 7
f 3 7 12
f 3 12 17
f 3 17 21
f 3 21 25
f 3 25 30
f 3 30 26
f 3 26 22
f 3 22 18
f 3 18 14
f 3 14 9
f 3 9 8
f 4 8 9
f 4 9 10
f 5 11 12
f 5 12 7
f 5 7 6
f 9 13 10
f 9 14 15
f 9 15 13
f 11 16 17
f 11 17 12
f 14 18 19
f 14 19 15
f 16 20 21
f 16 21 17
f 18 22 23
f 18 23 19
f 20 24 21
f 21 24 25
f 22 26 27
f 22 27 23
f 24 28 25
f 25 28 29
f 25 29 30
f 26 30 29
f 26 29 27

