# https://github.com/mikedh/trimesh
v 0.01978674 0.02920408 -0.00043644
v 0.01978674 0.03020427 -0.00044000
v 0.02173884 0.02920408 -0.00043644
v 0.01978674 0.02920408 0.03589744
v 0.02038680 0.03020427 -0.00044000
v 0.01978674 0.03153353 -0.00044000
v 0.02173903 0.03153353 -0.00043644
v 0.02173884 0.02920408 0.03589744
v 0.01978674 0.03020427 0.03590099
v 0.02038680 0.03153353 -0.00044000
v 0.01978674 0.03451487 -0.00043644
v 0.02173903 0.03451487 -0.00043644
v 0.02173903 0.03153353 0.03589744
v 0.02038680 0.03020427 0.03590099
v 0.01978674 0.03153353 0.03590099
v 0.01978674 0.03451487 0.03589744
v 0.02173903 0.03451487 0.03589744
v 0.02038680 0.03153353 0.03590099
f 1 2 5
f 1 5 3
f 1 3 8
f 1 8 4
f 1 4 9
f 1 9 15
f 1 15 16
f 1 16 11
f 1 11 6
f 1 6 2
f 2 6 10
f 2 10 5
f 3 7 13
f 3 13 8
f 3 5 7
f 4 8 14
f 4 14 9
f 5 10 12
f 5 12 7
f 6 11 12
f 6 12 10
f 7 12 17
f 7 17 13
f 8 13 14
f 9 14 18
f 9 18 15
f 11 16 17
f 11 17 12
f 13 17 18
f 13 18 14
f 15 18 17
f 15 17 16

