# https://github.com/mikedh/trimesh
v 0.04001110 -0.02732516 0.02863429
v 0.03027326 -0.02732516 0.02863429
v 0.04001110 -0.02823538 0.02863429
v 0.04001110 -0.02732516 -0.00019809
v 0.03027326 -0.02823538 0.02863429
v 0.03027326 -0.02732516 -0.00044000
v 0.04001110 -0.02823538 -0.00019809
v 0.03986907 -0.02732516 -0.00027209
v 0.03027326 -0.02823538 -0.00044000
v 0.03879959 -0.02732516 -0.00044000
v 0.03959932 -0.02823538 -0.00041154
v 0.03959932 -0.02732516 -0.00041154
v 0.03879959 -0.02823538 -0.00044000
f 1 2 5
f 1 5 3
f 1 3 7
f 1 7 4
f 1 4 8
f 1 8 12
f 1 12 10
f 1 10 6
f 1 6 2
f 2 6 9
f 2 9 5
f 3 5 9
f 3 9 13
f 3 13 11
f 3 11 7
f 4 7 8
f 6 10 13
f 6 13 9
f 7 11 8
f 8 11 12
f 10 12 11
f 10 11 13

