# https://github.com/mikedh/trimesh
v 0.03493694 0.02486615 0.00003676
v 0.03493694 0.01019962 0.00003676
v 0.03493694 0.02486615 -0.00044000
v 0.01893872 0.02486615 0.00003676
v 0.03493694 0.01019962 -0.00044000
v 0.01893872 0.01019962 0.00003676
v 0.02040293 0.02486615 -0.00044000
v 0.01898257 0.02486615 -0.00009340
v 0.01896848 0.01299338 -0.00005200
v 0.02040293 0.01019962 -0.00044000
v 0.01898257 0.01019962 -0.00009340
v 0.02020248 0.01019962 -0.00043333
v 0.01980942 0.01299338 -0.00042021
v 0.01960270 0.02486615 -0.00041331
v 0.01923939 0.02486615 -0.00022640
v 0.01914230 0.01299338 -0.00017609
v 0.01944767 0.01019962 -0.00033350
v 0.01960270 0.01019962 -0.00041331
f 1 2 5
f 1 5 3
f 1 3 7
f 1 7 14
f 1 14 15
f 1 15 8
f 1 8 4
f 1 4 6
f 1 6 2
f 2 6 11
f 2 11 17
f 2 17 18
f 2 18 12
f 2 12 10
f 2 10 5
f 3 5 10
f 3 10 7
f 4 8 9
f 4 9 6
f 6 9 11
f 7 10 12
f 7 12 13
f 7 13 14
f 8 15 11
f 8 11 9
f 11 15 16
f 11 16 17
f 12 18 13
f 13 18 14
f 14 18 15
f 15 18 17
f 15 17 16

