# https://github.com/mikedh/trimesh
v 0.00288939 -0.04044000 0.01291851
v 0.00288939 -0.03755275 0.01291851
v 0.00348939 -0.04044000 0.01291851
v 0.00288939 -0.04044000 0.04939682
v 0.00348939 -0.03755275 0.01291851
v 0.00288939 -0.03755275 0.05043633
v 0.00348939 -0.04044000 0.04939682
v 0.00348939 -0.04025403 0.04998452
v 0.00288939 -0.04021984 0.05009105
v 0.00348939 -0.03755275 0.05043633
v 0.00288939 -0.03880023 0.05043633
v 0.00348939 -0.04021984 0.05009105
v 0.00288939 -0.04015060 0.05012778
v 0.00348939 -0.03880023 0.05043633
v 0.00288939 -0.03951046 0.05041429
v 0.00348939 -0.03892459 0.05043265
v 0.00348939 -0.03969643 0.05036286
v 0.00288939 -0.03959977 0.05041061
v 0.00348939 -0.03959977 0.05041061
f 1 2 5
f 1 5 3
f 1 3 7
f 1 7 4
f 1 4 9
f 1 9 13
f 1 13 18
f 1 18 15
f 1 15 11
f 1 11 6
f 1 6 2
f 2 6 10
f 2 10 5
f 3 5 10
f 3 10 14
f 3 14 16
f 3 16 19
f 3 19 17
f 3 17 12
f 3 12 8
f 3 8 7
f 4 7 8
f 4 8 9
f 6 11 14
f 6 14 10
f 8 12 9
f 9 12 13
f 11 15 16
f 11 16 14
f 12 17 13
f 13 17 18
f 15 18 19
f 15 19 16
f 17 19 18

