# https://github.com/mikedh/trimesh
v 0.02747608 0.02702367 0.01986508
v 0.01874895 0.02702367 0.01986508
v 0.02747608 0.02597436 0.01986508
v 0.02747608 0.02702367 -0.00043801
v 0.01876091 0.02597683 0.01986508
v 0.01874809 0.02702367 0.01499703
v 0.01876091 0.02597436 0.01979551
v 0.02702238 0.02597436 0.01986508
v 0.02747608 0.02597436 -0.00032272
v 0.02747608 0.02597837 -0.00043801
v 0.02120116 0.02702367 -0.00043801
v 0.01874809 0.02702367 0.01442058
v 0.01876091 0.02597436 0.00060358
v 0.02682500 0.02597436 -0.00043801
v 0.02040141 0.02679976 -0.00043801
v 0.02040141 0.02702367 -0.00043602
v 0.01874895 0.02702367 0.00322545
v 0.01875493 0.02702367 0.00060358
v 0.01891300 0.02702367 0.00010266
v 0.01898135 0.02597436 -0.00009015
v 0.01875151 0.02702367 0.00082621
v 0.02040141 0.02597436 -0.00043801
v 0.01960081 0.02679976 -0.00041018
v 0.01960081 0.02702367 -0.00040621
v 0.01897964 0.02702367 -0.00008816
v 0.01898050 0.02679976 -0.00009015
v 0.01960081 0.02597436 -0.00041018
v 0.01942651 0.02702367 -0.00031875
f 1 2 5
f 1 5 8
f 1 8 3
f 1 3 9
f 1 9 10
f 1 10 4
f 1 4 11
f 1 11 16
f 1 16 24
f 1 24 28
f 1 28 25
f 1 25 19
f 1 19 18
f 1 18 21
f 1 21 17
f 1 17 12
f 1 12 6
f 1 6 2
f 2 6 7
f 2 7 5
f 3 8 7
f 3 7 13
f 3 13 20
f 3 20 27
f 3 27 22
f 3 22 14
f 3 14 9
f 4 10 14
f 4 14 22
f 4 22 15
f 4 15 11
f 5 7 8
f 6 12 13
f 6 13 7
f 9 14 10
f 11 15 16
f 12 17 13
f 13 18 19
f 13 19 20
f 13 17 21
f 13 21 18
f 15 22 27
f 15 27 23
f 15 23 16
f 16 23 24
f 19 25 26
f 19 26 20
f 20 26 27
f 23 27 26
f 23 26 28
f 23 28 24
f 25 28 26

