# https://github.com/mikedh/trimesh
v -0.02499951 -0.03967714 0.05037352
v -0.02791188 -0.03967714 0.05037352
v -0.02499951 -0.04008389 0.05016236
v -0.02499951 -0.03967714 0.01718866
v -0.02791188 -0.04021994 0.05009089
v -0.02791188 -0.03967714 0.01718866
v -0.02499951 -0.04021994 0.05009089
v -0.02499951 -0.04044000 0.01718866
v -0.02791188 -0.04030581 0.04982125
v -0.02791188 -0.04044000 0.01718866
v -0.02499951 -0.04044000 0.04939893
v -0.02791188 -0.04044000 0.04939893
f 1 2 3
f 1 3 7
f 1 7 11
f 1 11 8
f 1 8 4
f 1 4 6
f 1 6 2
f 2 5 3
f 2 6 10
f 2 10 12
f 2 12 9
f 2 9 5
f 3 5 7
f 4 8 10
f 4 10 6
f 5 9 7
f 7 9 11
f 8 11 12
f 8 12 10
f 9 12 11

