# https://github.com/mikedh/trimesh
v -0.04044000 0.03012111 0.00694520
v -0.04044000 0.03012111 0.01894060
v -0.04044000 0.03959861 0.00694520
v -0.01732627 0.03012111 0.00694520
v -0.04043530 0.03012111 0.01979894
v -0.04043530 0.03012313 0.01980145
v -0.04044000 0.03959861 0.01894060
v -0.04023519 0.04017435 0.00694520
v -0.01726742 0.03012414 0.00694520
v -0.01726977 0.03012111 0.00700058
v -0.01754992 0.03012111 0.01980145
v -0.04043530 0.03959861 0.01980145
v -0.04021635 0.04021981 0.01980145
v -0.04021871 0.04021981 0.00860148
v -0.04021871 0.04021981 0.00694520
v -0.01639165 0.03055645 0.00694520
v -0.01638929 0.03055645 0.00860274
v -0.01726977 0.03012111 0.00860148
v -0.01727213 0.03012111 0.01980145
v -0.03959719 0.04043697 0.01980145
v -0.03959719 0.04044000 0.01979894
v -0.03959719 0.04044000 0.00694520
v -0.01639165 0.04044000 0.00694520
v -0.01638929 0.04044000 0.00860274
v -0.01638929 0.03055645 0.01894060
v -0.01639165 0.03056150 0.01980145
v -0.03879676 0.04044000 0.01980145
v -0.01638929 0.04044000 0.01894060
v -0.01639165 0.04044000 0.01980145
f 1 2 7
f 1 7 3
f 1 3 8
f 1 8 15
f 1 15 22
f 1 22 23
f 1 23 16
f 1 16 9
f 1 9 4
f 1 4 10
f 1 10 18
f 1 18 19
f 1 19 11
f 1 11 5
f 1 5 2
f 2 5 6
f 2 6 12
f 2 12 7
f 3 7 8
f 4 9 10
f 5 11 6
f 6 11 19
f 6 19 26
f 6 26 29
f 6 29 27
f 6 27 20
f 6 20 13
f 6 13 12
f 7 12 13
f 7 13 14
f 7 14 8
f 8 14 15
f 9 16 10
f 10 16 17
f 10 17 25
f 10 25 18
f 13 20 21
f 13 21 14
f 14 21 22
f 14 22 15
f 16 23 24
f 16 24 17
f 17 24 28
f 17 28 25
f 18 25 19
f 19 25 26
f 20 27 21
f 21 27 29
f 21 29 28
f 21 28 24
f 21 24 23
f 21 23 22
f 25 28 29
f 25 29 26

