# https://github.com/mikedh/trimesh
v -0.01875974 -0.02679927 0.04939412
v -0.01876186 -0.02579927 0.04939910
v -0.01892527 -0.02579927 0.04991706
v -0.01898045 -0.02679927 0.05009137
v -0.01875974 -0.02679927 0.00140323
v -0.01876186 -0.02579927 0.00060637
v -0.01898045 -0.02579927 0.05009137
v -0.01960013 -0.02679927 0.05041011
v -0.01876186 -0.02679927 0.00060637
v -0.01898045 -0.02679927 -0.00009088
v -0.01898045 -0.02579927 -0.00008590
v -0.01960013 -0.02579927 0.05041011
v -0.02040231 -0.02679927 0.05043999
v -0.01960225 -0.02679927 -0.00040465
v -0.01960013 -0.02600003 -0.00040465
v -0.01960013 -0.02579927 -0.00040465
v -0.02040231 -0.02579927 0.05043999
v -0.03879743 -0.02679927 0.05043999
v -0.02040231 -0.02679927 -0.00043951
v -0.01980386 -0.02579927 -0.00041461
v -0.03879743 -0.02579927 0.05043999
v -0.03959749 -0.02679927 0.05041011
v -0.03879743 -0.02679927 -0.00043951
v -0.02040231 -0.02579927 -0.00043951
v -0.03959749 -0.02579927 0.05041011
v -0.04021717 -0.02679927 0.05009137
v -0.03879743 -0.02579927 -0.00043951
v -0.03959325 -0.02679927 -0.00040465
v -0.04021717 -0.02579927 0.05009137
v -0.04044000 -0.02679927 0.04939910
v -0.03959325 -0.02579927 -0.00040465
v -0.04021293 -0.02679927 -0.00008590
v -0.04044000 -0.02579927 0.04939910
v -0.04044000 -0.02679927 0.00060637
v -0.04021293 -0.02579927 -0.00008590
v -0.04044000 -0.02579927 0.00060637
f 1 2 3
f 1 3 7
f 1 7 4
f 1 4 8
f 1 8 13
f 1 13 18
f 1 18 22
f 1 22 26
f 1 26 30
f 1 30 34
f 1 34 32
f 1 32 28
f 1 28 23
f 1 23 19
f 1 19 14
f 1 14 10
f 1 10 9
f 1 9 5
f 1 5 6
f 1 6 2
f 2 6 11
f 2 11 16
f 2 16 20
f 2 20 24
f 2 24 27
f 2 27 31
f 2 31 35
f 2 35 36
f 2 36 33
f 2 33 29
f 2 29 25
f 2 25 21
f 2 21 17
f 2 17 12
f 2 12 7
f 2 7 3
f 4 7 12
f 4 12 8
f 5 9 6
f 6 9 10
f 6 10 11
f 8 12 17
f 8 17 13
f 10 14 15
f 10 15 16
f 10 16 11
f 13 17 21
f 13 21 18
f 14 19 20
f 14 20 15
f 15 20 16
f 18 21 25
f 18 25 22
f 19 23 27
f 19 27 24
f 19 24 20
f 22 25 29
f 22 29 26
f 23 28 31
f 23 31 27
f 26 29 33
f 26 33 30
f 28 32 35
f 28 35 31
f 30 33 36
f 30 36 34
f 32 34 36
f 32 36 35

