# https://github.com/mikedh/trimesh
v 0.03283987 0.03879885 0.05044000
v 0.03283987 0.02760522 0.05044000
v 0.03283987 0.03924791 0.05042292
v 0.03170529 0.03924905 0.05042292
v 0.03170529 0.03879885 0.05044000
v 0.03170529 0.02760522 0.05044000
v 0.03283987 0.02760522 0.03590428
v 0.03283987 0.03924791 0.03590428
v 0.03170529 0.03924905 0.03590286
v 0.01874041 0.03924905 0.05042292
v 0.01874041 0.03879771 0.05044000
v 0.02200613 0.02760636 0.05044000
v 0.02040226 0.02760636 0.05043431
v 0.01960170 0.02760636 0.05042150
v 0.01880115 0.02760636 0.05008425
v 0.01874041 0.02760636 0.04991350
v 0.03170529 0.02760522 0.03590428
v 0.03170529 0.03806826 0.03590286
v 0.01874317 0.03924905 0.03590286
v 0.01874041 0.03924905 0.03653893
v 0.01874041 0.03160123 0.05044000
v 0.01960170 0.02920203 0.05044000
v 0.01960170 0.02840191 0.05043431
v 0.01880253 0.02840191 0.05032331
v 0.01880253 0.02920203 0.05043431
v 0.01874041 0.02840191 0.05029059
v 0.01874041 0.02768614 0.05005722
v 0.01874041 0.02760636 0.03590428
v 0.01874317 0.03806826 0.03590286
v 0.01874041 0.03000214 0.05043431
v 0.01880253 0.03000214 0.05044000
v 0.01874041 0.02919861 0.05041439
f 1 2 7
f 1 7 8
f 1 8 3
f 1 3 4
f 1 4 10
f 1 10 5
f 1 5 11
f 1 11 21
f 1 21 31
f 1 31 22
f 1 22 12
f 1 12 6
f 1 6 2
f 2 6 17
f 2 17 7
f 3 8 9
f 3 9 4
f 4 9 19
f 4 19 20
f 4 20 10
f 5 10 11
f 6 12 13
f 6 13 14
f 6 14 15
f 6 15 16
f 6 16 28
f 6 28 17
f 7 17 29
f 7 29 18
f 7 18 9
f 7 9 8
f 9 18 29
f 9 29 19
f 10 20 28
f 10 28 16
f 10 16 27
f 10 27 26
f 10 26 32
f 10 32 30
f 10 30 21
f 10 21 11
f 12 22 13
f 13 22 23
f 13 23 14
f 14 24 15
f 14 23 25
f 14 25 24
f 15 24 26
f 15 26 27
f 15 27 16
f 17 28 29
f 19 29 28
f 19 28 20
f 21 30 31
f 22 31 25
f 22 25 23
f 24 25 32
f 24 32 26
f 25 31 30
f 25 30 32

