# https://github.com/mikedh/trimesh
v -0.01865186 -0.02562420 0.04859827
v -0.01867745 -0.02562420 0.04902074
v -0.01870731 -0.02774752 0.04939847
v -0.01869451 -0.02774752 0.04874738
v -0.01869238 -0.02774752 0.04859827
v -0.01865186 -0.02562420 0.00140173
v -0.01874143 -0.02562420 0.04939847
v -0.01872224 -0.02600019 0.04939847
v -0.01896111 -0.02774752 0.05007441
v -0.01869238 -0.02774752 0.00140173
v -0.01870731 -0.02774752 0.00060153
v -0.01872224 -0.02600019 0.00060153
v -0.01874143 -0.02562420 0.00060153
v -0.01888006 -0.02562420 0.04970165
v -0.01897390 -0.02679996 0.05003962
v -0.01909120 -0.02774752 0.05013405
v -0.01890352 -0.02774752 0.00005482
v -0.01897390 -0.02679996 -0.00003962
v -0.01898457 -0.02600019 0.00002996
v -0.01901442 -0.02562420 0.00006476
v -0.01901442 -0.02562420 0.04993524
v -0.01898457 -0.02600019 0.04997004
v -0.01960093 -0.02774752 0.05036765
v -0.01896111 -0.02774752 -0.00007441
v -0.01960093 -0.02774752 -0.00036765
v -0.01960093 -0.02759995 -0.00035274
v -0.01960093 -0.02679996 -0.00024836
v -0.01960093 -0.02600019 -0.00009926
v -0.01960093 -0.02562420 -0.00002471
v -0.01934073 -0.02562420 0.04999985
v -0.01960093 -0.02679996 0.05024836
v -0.01960093 -0.02759995 0.05035274
v -0.03959970 -0.02562420 0.05038753
v -0.03959970 -0.02774752 0.05038753
v -0.03959970 -0.02774752 -0.00038753
v -0.03959970 -0.02562420 -0.00038753
v -0.01960093 -0.02562420 0.05002471
v -0.01960093 -0.02600019 0.05009926
v -0.04021820 -0.02562420 0.05008932
v -0.04021820 -0.02774752 0.05008932
v -0.04010516 -0.02774752 -0.00014399
v -0.03988975 -0.02562420 -0.00024836
v -0.04025872 -0.02774752 0.04996506
v -0.04044000 -0.02562420 0.04939847
v -0.04021820 -0.02774752 -0.00008932
v -0.04021820 -0.02562420 -0.00008932
v -0.04044000 -0.02774752 0.04939847
v -0.04044000 -0.02562420 0.00060153
v -0.04044000 -0.02774752 0.00060153
v -0.04032270 -0.02562420 0.00023374
f 1 2 3
f 1 3 4
f 1 4 5
f 1 5 10
f 1 10 6
f 1 6 13
f 1 13 20
f 1 20 29
f 1 29 36
f 1 36 42
f 1 42 46
f 1 46 50
f 1 50 48
f 1 48 44
f 1 44 39
f 1 39 33
f 1 33 37
f 1 37 30
f 1 30 21
f 1 21 14
f 1 14 7
f 1 7 2
f 2 7 8
f 2 8 3
f 3 9 16
f 3 16 23
f 3 23 34
f 3 34 40
f 3 40 43
f 3 43 47
f 3 47 49
f 3 49 45
f 3 45 41
f 3 41 35
f 3 35 25
f 3 25 24
f 3 24 17
f 3 17 11
f 3 11 10
f 3 10 5
f 3 5 4
f 3 8 9
f 6 10 11
f 6 11 12
f 6 12 13
f 7 14 15
f 7 15 8
f 8 15 9
f 9 15 16
f 11 17 12
f 12 17 18
f 12 18 13
f 13 18 19
f 13 19 20
f 14 21 22
f 14 22 15
f 15 22 23
f 15 23 16
f 17 24 18
f 18 24 25
f 18 25 19
f 19 25 26
f 19 26 20
f 20 26 27
f 20 27 28
f 20 28 29
f 21 30 31
f 21 31 32
f 21 32 22
f 22 32 23
f 23 32 33
f 23 33 34
f 25 35 36
f 25 36 26
f 26 36 27
f 27 36 28
f 28 36 29
f 30 37 38
f 30 38 31
f 31 33 32
f 31 38 33
f 33 38 37
f 33 39 40
f 33 40 34
f 35 41 42
f 35 42 36
f 39 43 40
f 39 44 43
f 41 45 42
f 42 45 46
f 43 44 47
f 44 48 49
f 44 49 47
f 45 49 50
f 45 50 46
f 48 50 49

