# https://github.com/mikedh/trimesh
v -0.01812621 0.01957274 0.01071688
v -0.01812621 0.01957274 0.00990146
v -0.04044000 0.01957274 0.01071688
v -0.01812399 0.01957126 0.01133068
v -0.04044000 0.01957274 0.00990146
v -0.01812399 0.01957126 0.01071702
v -0.01773053 0.01905788 0.01071702
v -0.01773498 0.01905936 0.00990146
v -0.04044000 0.01957126 0.01133068
v -0.01773053 0.01091020 0.01133082
v -0.01773053 0.01905788 0.01133068
v -0.04044000 0.00450182 0.00990146
v -0.01773053 0.00742572 0.00990146
v -0.04044000 0.01091020 0.01133082
v -0.01773053 0.00450329 0.01133082
v -0.04044000 0.00450182 0.01071688
v -0.01773053 0.00450182 0.00990146
v -0.04044000 0.00450329 0.01133082
v -0.01773053 0.00450182 0.01071688
f 1 2 5
f 1 5 3
f 1 3 9
f 1 9 4
f 1 4 6
f 1 6 2
f 2 6 7
f 2 7 8
f 2 8 13
f 2 13 17
f 2 17 12
f 2 12 5
f 3 5 12
f 3 12 16
f 3 16 18
f 3 18 14
f 3 14 9
f 4 10 11
f 4 11 7
f 4 7 6
f 4 9 14
f 4 14 10
f 7 11 10
f 7 10 15
f 7 15 19
f 7 19 17
f 7 17 13
f 7 13 8
f 10 14 18
f 10 18 15
f 12 17 19
f 12 19 16
f 15 18 16
f 15 16 19

