# https://github.com/mikedh/trimesh
v -0.00482757 0.01256120 0.04939846
v -0.00493386 0.01267039 0.04939846
v -0.00542250 0.01297262 0.04998495
v -0.00523452 0.01256120 0.05011006
v -0.00482757 0.01256120 0.02379118
v -0.00492823 0.01266474 0.02378857
v -0.00493950 0.01267604 0.02378857
v -0.00550870 0.01322899 0.04939846
v -0.00574551 0.01345883 0.04939846
v -0.00623001 0.01375079 0.04997973
v -0.00597800 0.01322368 0.05014656
v -0.00599546 0.01256120 0.05036551
v -0.00483715 0.01256120 0.02378857
v -0.00550870 0.01322899 0.02378857
v -0.00573950 0.01345318 0.02378857
v -0.00574551 0.01345883 0.02378857
v -0.00614513 0.01382609 0.04939846
v -0.00674588 0.01398046 0.05009442
v -0.00663264 0.01422604 0.04939846
v -0.00674588 0.01430939 0.04939846
v -0.00674570 0.01320161 0.05039679
v -0.00674570 0.01256120 0.05041764
v -0.00627922 0.01256120 0.02378857
v -0.00614513 0.01382609 0.02378857
v -0.00674588 0.01322899 0.05038376
v -0.00663264 0.01422604 0.02380160
v -0.00663415 0.01422724 0.02378857
v -0.00674588 0.01430939 0.02378857
v -0.00674570 0.01256120 0.02379118
v -0.00674588 0.01322899 0.02379118
f 1 2 3
f 1 3 4
f 1 4 12
f 1 12 22
f 1 22 29
f 1 29 23
f 1 23 13
f 1 13 5
f 1 5 6
f 1 6 2
f 2 6 7
f 2 7 8
f 2 8 3
f 3 8 9
f 3 9 10
f 3 10 11
f 3 11 4
f 4 11 12
f 5 13 6
f 6 13 23
f 6 23 28
f 6 28 27
f 6 27 24
f 6 24 16
f 6 16 15
f 6 15 14
f 6 14 7
f 7 14 8
f 8 14 15
f 8 15 9
f 9 15 16
f 9 16 24
f 9 24 17
f 9 17 10
f 10 18 11
f 10 17 19
f 10 19 20
f 10 20 18
f 11 21 12
f 11 18 21
f 12 21 22
f 17 24 26
f 17 26 19
f 18 25 21
f 18 20 28
f 18 28 30
f 18 30 25
f 19 26 27
f 19 27 20
f 20 27 28
f 21 25 22
f 22 25 30
f 22 30 29
f 23 29 28
f 24 27 26
f 28 29 30

