# https://github.com/mikedh/trimesh
v -0.00361930 0.01058459 0.00819657
v -0.00361930 0.01058459 -0.00014157
v -0.00438476 0.01058459 0.00819657
v -0.00361930 -0.00957105 0.00819657
v -0.00418454 0.01058459 -0.00038336
v -0.00361930 0.01001836 -0.00034447
v -0.00438476 0.01058459 -0.00040703
v -0.00438476 -0.00957105 0.00819657
v -0.00361930 -0.00957105 -0.00039350
v -0.00361930 0.00921734 -0.00043662
v -0.00438476 0.00998482 -0.00043915
v -0.00438476 -0.00957105 -0.00043746
v -0.00361930 -0.00919816 -0.00043662
v -0.00361930 0.00841830 -0.00044000
v -0.00438476 0.00918380 -0.00044000
v -0.00438476 -0.00919816 -0.00043915
v -0.00361930 -0.00839912 -0.00044000
v -0.00438476 -0.00839912 -0.00044000
f 1 2 5
f 1 5 7
f 1 7 3
f 1 3 8
f 1 8 4
f 1 4 9
f 1 9 13
f 1 13 17
f 1 17 14
f 1 14 10
f 1 10 6
f 1 6 2
f 2 6 5
f 3 7 11
f 3 11 15
f 3 15 18
f 3 18 16
f 3 16 12
f 3 12 8
f 4 8 12
f 4 12 9
f 5 6 10
f 5 10 7
f 7 10 11
f 9 12 13
f 10 14 11
f 11 14 15
f 12 16 13
f 13 16 17
f 14 17 18
f 14 18 15
f 16 18 17

