# https://github.com/mikedh/trimesh
v -0.01773197 -0.01215406 0.01697800
v -0.01773197 -0.01215406 0.01510139
v -0.03240672 -0.01215406 0.01697800
v -0.01773197 -0.01906128 0.01697800
v -0.01773197 -0.01906128 0.01510139
v -0.03240672 -0.01215406 0.01510139
v -0.03240672 -0.01998843 0.01697800
v -0.01840716 -0.01998766 0.01697800
v -0.01840716 -0.01998843 0.01659996
v -0.01840716 -0.01998766 0.01510139
v -0.03240672 -0.01998843 0.01510139
v -0.02797197 -0.01998843 0.01697800
v -0.01840860 -0.01998843 0.01580016
v -0.02097291 -0.01998843 0.01510139
f 1 2 6
f 1 6 3
f 1 3 7
f 1 7 12
f 1 12 8
f 1 8 4
f 1 4 5
f 1 5 2
f 2 5 10
f 2 10 14
f 2 14 11
f 2 11 6
f 3 6 11
f 3 11 7
f 4 8 9
f 4 9 5
f 5 9 10
f 7 11 14
f 7 14 13
f 7 13 9
f 7 9 12
f 8 12 9
f 9 13 10
f 10 13 14

