# https://github.com/mikedh/trimesh
v -0.04044000 -0.01998843 0.00477445
v -0.04044000 -0.01998843 0.01039907
v -0.04044000 -0.01998603 0.00317762
v -0.01892869 -0.01998843 0.00477445
v -0.02906748 -0.01998843 0.01039907
v -0.04044000 -0.01765591 0.01039907
v -0.01840853 -0.01998603 0.00317762
v -0.04044000 -0.01435490 0.00317762
v -0.01841075 -0.01998843 0.00540145
v -0.01840853 -0.01998843 0.01019902
v -0.01840853 -0.01998603 0.01039907
v -0.04043778 0.00450182 0.01039907
v -0.04044000 0.00449942 0.00780978
v -0.01773053 -0.01905830 0.00317762
v -0.01840853 -0.01998843 0.00859936
v -0.04044000 0.00449942 0.00477445
v -0.04043778 0.00449942 0.00317762
v -0.01773053 -0.01906069 0.01039907
v -0.01773053 0.00450182 0.01039907
v -0.04043778 0.00450182 0.00780978
v -0.01773053 -0.01906069 0.00918960
v -0.01773053 0.00449942 0.00317762
v -0.01773053 0.00450182 0.00918960
v -0.01773498 0.00450182 0.00780978
f 1 2 6
f 1 6 13
f 1 13 16
f 1 16 8
f 1 8 3
f 1 3 7
f 1 7 4
f 1 4 9
f 1 9 15
f 1 15 10
f 1 10 5
f 1 5 2
f 2 5 11
f 2 11 18
f 2 18 19
f 2 19 12
f 2 12 6
f 3 8 17
f 3 17 22
f 3 22 14
f 3 14 7
f 4 7 9
f 5 10 11
f 6 12 13
f 7 14 15
f 7 15 9
f 8 16 17
f 10 15 21
f 10 21 18
f 10 18 11
f 12 19 23
f 12 23 24
f 12 24 20
f 12 20 16
f 12 16 13
f 14 21 15
f 14 22 23
f 14 23 19
f 14 19 18
f 14 18 21
f 16 20 17
f 17 20 24
f 17 24 22
f 22 24 23

