# https://github.com/mikedh/trimesh
v -0.00808456 0.01527182 0.01112688
v -0.00805220 0.01525141 0.01112688
v -0.00808456 0.01527182 0.00060052
v -0.00808456 0.01417444 0.01112688
v -0.00798616 0.01520802 0.01112688
v -0.00798616 0.01520802 0.00060052
v -0.00808456 0.01526672 0.00028123
v -0.00799075 0.01520547 0.00018726
v -0.00674600 0.01417444 0.01112688
v -0.00808456 -0.01079989 0.01112575
v -0.00792209 0.01516209 0.01112688
v -0.00758614 0.01491964 0.00060052
v -0.00808456 0.01523354 0.00015442
v -0.00703295 0.01451897 0.00060052
v -0.00674600 0.01430715 0.00060052
v -0.00674600 0.01428928 0.00047032
v -0.00708877 0.01447814 0.00007177
v -0.00674600 0.01430715 0.01112688
v -0.00674600 -0.01079989 0.01112575
v -0.00808456 -0.01079989 -0.00044000
v -0.00698696 0.01448579 0.01112688
v -0.00808456 0.01508808 0.00001856
v -0.00674600 0.01397538 -0.00009693
v -0.00767445 0.01476652 -0.00001315
v -0.00690939 0.01417444 -0.00004824
v -0.00700006 0.01417444 -0.00009240
v -0.00674600 -0.01079989 -0.00044000
v -0.00808456 0.01367935 -0.00044000
v -0.00808456 0.01478438 -0.00016260
v -0.00674600 0.01394221 -0.00011505
v -0.00681348 0.01400601 -0.00011278
v -0.00808456 0.01448324 -0.00031658
v -0.00674600 0.01234207 -0.00044000
v -0.00808456 0.01399580 -0.00041282
v -0.00680025 0.01319446 -0.00041396
v -0.00674600 0.01314086 -0.00041509
v -0.00674600 0.01319446 -0.00039697
v -0.00759990 0.01399580 -0.00037546
v -0.00777456 0.01417444 -0.00035508
v -0.00808456 0.01417444 -0.00037999
f 1 2 3
f 1 3 7
f 1 7 13
f 1 13 22
f 1 22 29
f 1 29 32
f 1 32 40
f 1 40 34
f 1 34 28
f 1 28 20
f 1 20 10
f 1 10 4
f 1 4 9
f 1 9 18
f 1 18 21
f 1 21 11
f 1 11 5
f 1 5 2
f 2 5 6
f 2 6 3
f 3 6 8
f 3 8 7
f 4 10 19
f 4 19 9
f 5 11 6
f 6 11 12
f 6 12 8
f 7 8 13
f 8 12 14
f 8 14 15
f 8 15 16
f 8 16 17
f 8 17 13
f 9 19 27
f 9 27 33
f 9 33 36
f 9 36 37
f 9 37 30
f 9 30 23
f 9 23 16
f 9 16 15
f 9 15 18
f 10 20 27
f 10 27 19
f 11 21 12
f 12 21 14
f 13 17 22
f 14 21 15
f 15 21 18
f 16 23 17
f 17 24 22
f 17 23 25
f 17 25 26
f 17 26 24
f 20 28 33
f 20 33 27
f 22 24 29
f 23 30 31
f 23 31 25
f 24 26 29
f 25 31 26
f 26 31 32
f 26 32 29
f 28 34 35
f 28 35 36
f 28 36 33
f 30 37 38
f 30 38 31
f 31 38 39
f 31 39 32
f 32 39 40
f 34 40 38
f 34 38 35
f 35 37 36
f 35 38 37
f 38 40 39

