# https://github.com/mikedh/trimesh
v -0.01638929 0.03656798 0.04582281
v -0.01638929 0.03055843 0.04582281
v -0.01638929 0.03656798 0.04541760
v -0.04044000 0.03656798 0.04582281
v -0.01638929 0.03055528 0.04541760
v -0.01726986 0.03012174 0.04582281
v -0.04044000 0.03656798 0.04541760
v -0.04044000 0.03012174 0.04582281
v -0.01726986 0.03012174 0.04541760
v -0.04044000 0.03012174 0.04541760
f 1 2 5
f 1 5 3
f 1 3 7
f 1 7 4
f 1 4 8
f 1 8 6
f 1 6 2
f 2 6 5
f 3 5 9
f 3 9 10
f 3 10 7
f 4 7 10
f 4 10 8
f 5 6 9
f 6 8 10
f 6 10 9

