# https://github.com/mikedh/trimesh
v 0.01398542 0.03076164 0.00060589
v 0.01398542 0.03098145 -0.00009137
v 0.01479854 0.03076164 0.00060589
v 0.01398542 0.03076164 0.04939909
v 0.01398542 0.03160109 -0.00041011
v 0.01479854 0.03098145 -0.00009137
v 0.01479854 0.03076164 0.04939411
v 0.01400007 0.03076164 0.04939909
v 0.01398542 0.03098145 0.05009137
v 0.01398542 0.03240265 -0.00044000
v 0.01479854 0.03160109 -0.00041011
v 0.01479854 0.03098050 0.05008639
v 0.01400007 0.03098145 0.05009137
v 0.01398542 0.03158972 0.05040514
v 0.01479854 0.03240265 -0.00044000
v 0.01398542 0.03879804 -0.00044000
v 0.01479854 0.03160014 0.05041011
v 0.01398542 0.03160109 0.05041011
v 0.01479854 0.03879804 -0.00044000
v 0.01398542 0.03959770 -0.00041011
v 0.01479854 0.03239980 0.05043502
v 0.01400007 0.03240170 0.05044000
v 0.01398542 0.03240170 0.05044000
v 0.01479854 0.03959770 -0.00041011
v 0.01398542 0.04021830 -0.00009137
v 0.01479854 0.03319947 0.05044000
v 0.01398542 0.03879899 0.05044000
v 0.01479854 0.04021830 -0.00009137
v 0.01398542 0.04043811 0.00060589
v 0.01479854 0.03879709 0.05044000
v 0.01398542 0.03959865 0.05041011
v 0.01400007 0.03879899 0.05044000
v 0.01479854 0.04043811 0.00060589
v 0.01398542 0.04043905 0.03552363
v 0.01479854 0.03959676 0.05041011
v 0.01398542 0.04021830 0.05009137
v 0.01400007 0.03959865 0.05041011
v 0.01479854 0.04043905 0.03552363
v 0.01398542 0.04043905 0.04939909
v 0.01479854 0.04021830 0.05009137
v 0.01479854 0.04043905 0.04939909
f 1 2 6
f 1 6 3
f 1 3 7
f 1 7 8
f 1 8 4
f 1 4 9
f 1 9 14
f 1 14 18
f 1 18 23
f 1 23 27
f 1 27 31
f 1 31 36
f 1 36 39
f 1 39 34
f 1 34 29
f 1 29 25
f 1 25 20
f 1 20 16
f 1 16 10
f 1 10 5
f 1 5 2
f 2 5 11
f 2 11 6
f 3 6 11
f 3 11 15
f 3 15 19
f 3 19 24
f 3 24 28
f 3 28 33
f 3 33 38
f 3 38 41
f 3 41 40
f 3 40 35
f 3 35 30
f 3 30 26
f 3 26 21
f 3 21 17
f 3 17 12
f 3 12 7
f 4 8 13
f 4 13 9
f 5 10 15
f 5 15 11
f 7 12 8
f 8 12 13
f 9 13 14
f 10 16 19
f 10 19 15
f 12 17 13
f 13 17 14
f 14 17 18
f 16 20 24
f 16 24 19
f 17 21 22
f 17 22 23
f 17 23 18
f 20 25 28
f 20 28 24
f 21 26 22
f 22 26 30
f 22 30 32
f 22 32 27
f 22 27 23
f 25 29 33
f 25 33 28
f 27 32 37
f 27 37 31
f 29 34 38
f 29 38 33
f 30 35 37
f 30 37 32
f 31 37 40
f 31 40 36
f 34 39 41
f 34 41 38
f 35 40 37
f 36 40 41
f 36 41 39

