# https://github.com/mikedh/trimesh
v -0.01721611 -0.03938377 0.00017940
v -0.01721611 -0.04030656 0.00017940
v -0.01721611 -0.03938377 -0.00042054
v -0.03933410 -0.03938377 0.00017940
v -0.01721611 -0.04021994 -0.00009335
v -0.03933410 -0.04030656 0.00017940
v -0.01721611 -0.03960001 -0.00041332
v -0.03879934 -0.03938377 -0.00042054
v -0.03933410 -0.03938377 -0.00040803
v -0.01721611 -0.04020747 -0.00009981
v -0.03933410 -0.04021994 -0.00009335
v -0.03879934 -0.03960001 -0.00041332
v -0.03933410 -0.03960001 -0.00040439
f 1 2 5
f 1 5 10
f 1 10 7
f 1 7 3
f 1 3 8
f 1 8 9
f 1 9 4
f 1 4 6
f 1 6 2
f 2 6 11
f 2 11 5
f 3 7 12
f 3 12 8
f 4 9 13
f 4 13 11
f 4 11 6
f 5 11 10
f 7 10 12
f 8 12 13
f 8 13 9
f 10 11 12
f 11 13 12

