# https://github.com/mikedh/trimesh
v -0.03574509 -0.01560356 0.00057417
v -0.03574509 -0.01560356 0.00136000
v -0.03574509 -0.01560012 -0.00043983
v -0.03559978 -0.01560356 -0.00043983
v -0.03232496 -0.01560356 0.00136000
v -0.03574509 0.01956241 0.00136000
v -0.03574509 0.01957274 -0.00043983
v -0.03240029 -0.01560356 -0.00043983
v -0.03232496 -0.01560356 -0.00006735
v -0.03232496 0.01957274 0.00136000
v -0.03574342 0.01957274 0.00136000
v -0.03574509 0.01957274 0.00135190
v -0.03232496 0.01957274 -0.00043983
v -0.03232496 -0.01560012 -0.00043983
f 1 2 6
f 1 6 12
f 1 12 7
f 1 7 3
f 1 3 4
f 1 4 8
f 1 8 9
f 1 9 5
f 1 5 2
f 2 5 10
f 2 10 11
f 2 11 6
f 3 7 13
f 3 13 14
f 3 14 8
f 3 8 4
f 5 9 14
f 5 14 13
f 5 13 10
f 6 11 12
f 7 12 11
f 7 11 10
f 7 10 13
f 8 14 9

