# https://github.com/mikedh/trimesh
v -0.01876069 0.02451934 0.04939909
v -0.01898007 0.02451934 0.05009137
v -0.01876069 0.02334844 0.04939909
v -0.01876069 0.02451934 0.00060091
v -0.01950754 0.02451934 0.05036529
v -0.01898007 0.02334844 0.05009137
v -0.01876069 0.02334844 0.00060091
v -0.01898007 0.02451934 -0.00009137
v -0.01960038 0.02451934 0.05041012
v -0.01960038 0.02334844 0.05041012
v -0.01898007 0.02334844 -0.00009137
v -0.01940507 0.02334844 -0.00031051
v -0.01960038 0.02451934 -0.00041012
v -0.01985209 0.02334844 0.05042008
v -0.02040019 0.02451934 0.05044000
v -0.01960038 0.02334844 -0.00041012
v -0.01971936 0.02451934 -0.00041510
v -0.02040019 0.02334844 0.05044000
v -0.02578567 0.02451934 0.05044000
v -0.02040019 0.02334844 -0.00044000
v -0.02040019 0.02451934 -0.00044000
v -0.02578567 0.02334844 0.05044000
v -0.02578567 0.02451934 -0.00044000
v -0.02578567 0.02334844 -0.00044000
f 1 2 6
f 1 6 3
f 1 3 7
f 1 7 4
f 1 4 8
f 1 8 13
f 1 13 17
f 1 17 21
f 1 21 23
f 1 23 19
f 1 19 15
f 1 15 9
f 1 9 5
f 1 5 2
f 2 5 6
f 3 6 10
f 3 10 14
f 3 14 18
f 3 18 22
f 3 22 24
f 3 24 20
f 3 20 16
f 3 16 12
f 3 12 11
f 3 11 7
f 4 7 11
f 4 11 8
f 5 9 10
f 5 10 6
f 8 11 12
f 8 12 13
f 9 14 10
f 9 15 14
f 12 16 13
f 13 16 17
f 14 15 18
f 15 19 22
f 15 22 18
f 16 20 17
f 17 20 21
f 19 23 24
f 19 24 22
f 20 24 23
f 20 23 21

