# https://github.com/mikedh/trimesh
v 0.02025188 0.02486444 0.01274008
v 0.02025188 0.02486444 0.00003676
v 0.01876212 0.02486444 0.01274008
v 0.04044000 0.01788004 0.01274008
v 0.04044000 0.02486300 0.01273759
v 0.01894038 0.02486444 0.00003676
v 0.04044000 0.02486300 0.01006039
v 0.04043575 0.02486300 0.00060129
v 0.04025537 0.02486300 0.00003924
v 0.04025537 0.01788004 0.00003676
v 0.01876212 0.02486444 0.00060129
v 0.01876212 0.01020078 0.01274008
v 0.04044000 0.01019935 0.01274008
v 0.01894038 0.01020078 0.00003676
v 0.04044000 0.01928122 0.00060129
v 0.04025749 0.01540068 0.00003676
v 0.01876212 0.01020078 0.00060129
v 0.02025400 0.01019935 0.01274008
v 0.04044000 0.01019935 0.00060129
v 0.02025400 0.01019935 0.00003676
v 0.04025749 0.01280073 0.00003676
v 0.04025537 0.01019935 0.00003676
f 1 2 6
f 1 6 11
f 1 11 3
f 1 3 12
f 1 12 18
f 1 18 13
f 1 13 4
f 1 4 5
f 1 5 7
f 1 7 2
f 2 7 8
f 2 8 9
f 2 9 10
f 2 10 16
f 2 16 21
f 2 21 22
f 2 22 20
f 2 20 14
f 2 14 6
f 3 11 17
f 3 17 12
f 4 13 19
f 4 19 15
f 4 15 7
f 4 7 5
f 6 14 17
f 6 17 11
f 7 15 8
f 8 15 9
f 9 15 16
f 9 16 10
f 12 17 20
f 12 20 18
f 13 18 20
f 13 20 22
f 13 22 19
f 14 20 17
f 15 19 21
f 15 21 16
f 19 22 21

