# https://github.com/mikedh/trimesh
v -0.01318002 -0.01756280 0.00060115
v -0.01318032 0.00197485 -0.00044000
v -0.01318002 -0.01723835 -0.00009137
v -0.01228287 -0.01703415 -0.00007951
v -0.01160086 -0.01691389 0.00001298
v -0.01112209 -0.01682768 0.00013156
v -0.01305326 -0.01752423 0.00060115
v -0.01318002 -0.01756280 0.02325021
v -0.01318002 -0.01559565 -0.00044000
v -0.01318002 -0.01639431 -0.00043763
v -0.01318032 0.00197485 0.02378857
v -0.01318032 0.00561420 -0.00044000
v -0.01239892 -0.01639431 -0.00041391
v -0.01239952 -0.01703642 -0.00010323
v -0.01239952 -0.01705457 -0.00009374
v -0.01160086 -0.01639431 -0.00030719
v -0.01083494 -0.01642608 -0.00009137
v -0.01014073 -0.01621507 -0.00002734
v -0.01014073 -0.01641019 0.00060352
v -0.01068170 -0.01667339 0.00060352
v -0.01083405 -0.01673919 0.00060352
v -0.01108251 -0.01684356 0.00060115
v -0.01160295 -0.01703642 0.00060115
v -0.01239952 -0.01731322 0.00060115
v -0.01305326 -0.01752423 0.02378857
v -0.01317793 -0.01756054 0.02378857
v -0.01318002 -0.01703415 0.02343045
v -0.01160086 -0.01559565 -0.00044000
v -0.01080013 -0.01559792 -0.00043051
v -0.01318002 -0.01597229 0.02378857
v -0.01318032 0.00561420 0.02378857
v -0.01014043 0.00561420 -0.00044000
v -0.01014073 -0.01559792 -0.00035225
v -0.01014043 0.00197485 -0.00044000
v -0.01014073 -0.01641019 0.02378620
v -0.01068170 -0.01667339 0.02378620
v -0.01083405 -0.01673919 0.02378620
v -0.01108251 -0.01684356 0.02378857
v -0.01160295 -0.01703642 0.02378383
v -0.01239952 -0.01731322 0.02378857
v -0.01014073 -0.01479699 -0.00044000
v -0.01014043 0.00561420 0.02378857
v -0.01014043 0.00197485 0.02378857
v -0.01014073 -0.01584750 0.02378857
v -0.01083494 -0.01673692 0.02378857
v -0.01161187 -0.01703868 0.02378857
f 1 2 3
f 1 3 4
f 1 4 5
f 1 5 6
f 1 6 7
f 1 7 25
f 1 25 8
f 1 8 11
f 1 11 2
f 2 9 10
f 2 10 3
f 2 11 31
f 2 31 12
f 2 12 32
f 2 32 34
f 2 34 41
f 2 41 28
f 2 28 9
f 3 13 14
f 3 14 15
f 3 15 4
f 3 10 13
f 4 15 16
f 4 16 5
f 5 16 17
f 5 17 18
f 5 18 6
f 6 18 19
f 6 19 20
f 6 20 21
f 6 21 22
f 6 22 23
f 6 23 24
f 6 24 7
f 7 24 40
f 7 40 25
f 8 25 26
f 8 26 27
f 8 27 11
f 9 28 10
f 10 28 29
f 10 29 13
f 11 30 26
f 11 26 25
f 11 25 40
f 11 40 46
f 11 46 38
f 11 38 45
f 11 45 44
f 11 44 43
f 11 43 42
f 11 42 31
f 11 27 30
f 12 31 42
f 12 42 32
f 13 29 33
f 13 33 16
f 13 16 14
f 14 16 15
f 16 33 18
f 16 18 17
f 18 33 34
f 18 34 19
f 19 35 36
f 19 36 20
f 19 34 43
f 19 43 35
f 20 36 37
f 20 37 21
f 21 37 38
f 21 38 22
f 22 38 39
f 22 39 23
f 23 39 40
f 23 40 24
f 26 30 27
f 28 41 29
f 29 41 33
f 32 42 43
f 32 43 34
f 33 41 34
f 35 43 44
f 35 44 45
f 35 45 36
f 36 45 37
f 37 45 38
f 38 46 39
f 39 46 40

