# https://github.com/mikedh/trimesh
v -0.00814933 -0.00886194 0.02379118
v -0.00814933 0.00604303 0.02379118
v -0.00678818 -0.00886194 0.02379118
v -0.00814933 -0.00886194 0.05044000
v -0.00694436 0.00604303 0.02379118
v -0.00814933 0.00604303 0.05043739
v -0.00682526 -0.00531223 0.02379118
v -0.00674628 0.00604303 0.02379379
v -0.00674628 -0.00886194 0.02379379
v -0.00674628 -0.00886194 0.05044000
v -0.00814933 -0.00531223 0.05044000
v -0.00674628 0.00604303 0.05043739
v -0.00674628 -0.00531223 0.05044000
f 1 2 5
f 1 5 7
f 1 7 3
f 1 3 9
f 1 9 10
f 1 10 4
f 1 4 11
f 1 11 6
f 1 6 2
f 2 6 12
f 2 12 8
f 2 8 5
f 3 7 8
f 3 8 9
f 4 10 13
f 4 13 11
f 5 8 7
f 6 11 13
f 6 13 12
f 8 12 13
f 8 13 10
f 8 10 9

