# https://github.com/mikedh/trimesh
v -0.03618919 0.01957274 0.01098204
v -0.03618919 0.01999485 0.01098204
v -0.02848473 0.01957274 0.01098204
v -0.03618919 0.01957274 0.02620398
v -0.03618919 0.01999485 0.02620845
v -0.02848473 0.01999485 0.01098204
v -0.01812429 0.01957319 0.01098502
v -0.01814374 0.01957274 0.01098502
v -0.02973138 0.01957274 0.02621143
v -0.03618919 0.01957307 0.02621143
v -0.03618919 0.01982726 0.02621143
v -0.02848473 0.01999485 0.02620994
v -0.01841075 0.01999485 0.01098502
v -0.01841075 0.01999485 0.02619950
v -0.01812429 0.01957274 0.02620994
v -0.01812429 0.01957274 0.01100142
v -0.02848473 0.01957274 0.02621143
v -0.02848473 0.01962199 0.02621143
v -0.01841075 0.01999464 0.02620994
v -0.01904911 0.01999485 0.02620994
f 1 2 6
f 1 6 3
f 1 3 8
f 1 8 16
f 1 16 15
f 1 15 17
f 1 17 9
f 1 9 4
f 1 4 10
f 1 10 11
f 1 11 5
f 1 5 2
f 2 5 12
f 2 12 20
f 2 20 14
f 2 14 13
f 2 13 6
f 3 6 7
f 3 7 8
f 4 9 10
f 5 11 12
f 6 13 7
f 7 13 14
f 7 14 15
f 7 15 16
f 7 16 8
f 9 17 18
f 9 18 11
f 9 11 10
f 11 18 19
f 11 19 20
f 11 20 12
f 14 19 15
f 14 20 19
f 15 19 18
f 15 18 17

