# https://github.com/mikedh/trimesh
v -0.01773197 -0.01285281 0.02268878
v -0.01773197 -0.01906146 0.02268878
v -0.01773197 -0.01285281 0.02083632
v -0.03240672 -0.01285281 0.02268878
v -0.01773197 -0.01906146 0.02083632
v -0.01840716 -0.01998773 0.02268878
v -0.01840716 -0.01998843 0.02219992
v -0.03240672 -0.01285281 0.02083632
v -0.03240672 -0.01998843 0.02268878
v -0.01840716 -0.01998843 0.02140007
v -0.01840716 -0.01998773 0.02083632
v -0.03077619 -0.01998843 0.02268878
v -0.03240672 -0.01998843 0.02083632
v -0.02438912 -0.01998843 0.02083632
f 1 2 5
f 1 5 3
f 1 3 8
f 1 8 4
f 1 4 9
f 1 9 12
f 1 12 6
f 1 6 2
f 2 6 7
f 2 7 10
f 2 10 5
f 3 5 11
f 3 11 14
f 3 14 13
f 3 13 8
f 4 8 13
f 4 13 9
f 5 10 11
f 6 12 7
f 7 12 9
f 7 9 13
f 7 13 14
f 7 14 10
f 10 14 11

