# https://github.com/mikedh/trimesh
v -0.01773053 0.01906150 0.04488701
v -0.01679660 0.01839353 0.04488701
v -0.01773053 0.01906150 0.02637814
v -0.01773053 -0.01906150 0.04488701
v -0.01679660 -0.01812858 0.04488701
v -0.01679660 0.01839353 0.02637814
v -0.01773053 -0.01906150 0.02637814
v -0.01679660 -0.01839353 0.04461159
v -0.01680355 -0.01839726 0.04488701
v -0.01679916 -0.01839353 0.04488701
v -0.01679660 -0.01061294 0.02637814
v -0.01679806 -0.01839353 0.02637814
v -0.01679660 -0.01839353 0.02700145
f 1 2 6
f 1 6 3
f 1 3 7
f 1 7 4
f 1 4 9
f 1 9 10
f 1 10 5
f 1 5 2
f 2 5 8
f 2 8 13
f 2 13 11
f 2 11 6
f 3 6 11
f 3 11 12
f 3 12 7
f 4 7 13
f 4 13 8
f 4 8 9
f 5 10 8
f 7 12 13
f 8 10 9
f 11 13 12

