# https://github.com/mikedh/trimesh
v -0.03976179 -0.02760229 -0.00021747
v -0.04021997 -0.02760229 -0.00009210
v -0.03976179 -0.02760166 -0.00032987
v -0.03976179 -0.02760229 0.04383384
v -0.04044000 -0.02760229 0.00060390
v -0.04022017 -0.02679927 -0.00009210
v -0.03976179 -0.02680006 -0.00032987
v -0.03976179 -0.02679927 0.04383384
v -0.04040713 -0.02760229 0.04383384
v -0.04044000 -0.02679927 0.00060390
v -0.04044000 -0.02760229 0.04379925
v -0.03976179 -0.02679927 -0.00021747
v -0.04040713 -0.02679927 0.04383384
v -0.04044000 -0.02760214 0.04383384
v -0.04044000 -0.02679927 0.04379925
v -0.04044000 -0.02680006 0.04383384
f 1 2 3
f 1 3 7
f 1 7 12
f 1 12 8
f 1 8 4
f 1 4 9
f 1 9 11
f 1 11 5
f 1 5 2
f 2 5 6
f 2 6 3
f 3 6 7
f 4 8 13
f 4 13 16
f 4 16 14
f 4 14 9
f 5 10 6
f 5 11 14
f 5 14 16
f 5 16 15
f 5 15 10
f 6 12 7
f 6 10 15
f 6 15 13
f 6 13 8
f 6 8 12
f 9 14 11
f 13 15 16

