# https://github.com/mikedh/trimesh
v 0.01873904 -0.04044000 0.04085886
v 0.01873904 -0.04044000 0.04618250
v 0.01873904 -0.03984011 0.04085886
v 0.03959813 -0.04044000 0.04085886
v 0.01874115 -0.04044000 0.04939865
v 0.01874115 -0.04023669 0.05004022
v 0.01874115 -0.04021996 0.05009192
v 0.01874115 -0.03984011 0.05028946
v 0.01873904 -0.03984011 0.04618250
v 0.04035133 -0.03984011 0.04085886
v 0.03979913 -0.04036870 0.04085886
v 0.03959813 -0.04044000 0.04939865
v 0.03959813 -0.04021996 0.05009192
v 0.02617587 -0.04013656 0.05013623
v 0.03879627 -0.03984011 0.05028946
v 0.04035345 -0.03984011 0.04618342
v 0.04030902 -0.03996303 0.04085886
v 0.04021804 -0.04021996 0.04085886
v 0.04021804 -0.04021996 0.04939865
v 0.04014400 -0.04014655 0.04999407
v 0.03959813 -0.03984011 0.05028023
v 0.04035345 -0.03984011 0.04939865
v 0.04018419 -0.03984011 0.05004945
v 0.04030690 -0.03984011 0.04966082
f 1 2 9
f 1 9 3
f 1 3 10
f 1 10 17
f 1 17 18
f 1 18 11
f 1 11 4
f 1 4 12
f 1 12 5
f 1 5 2
f 2 5 6
f 2 6 7
f 2 7 8
f 2 8 9
f 3 9 8
f 3 8 15
f 3 15 21
f 3 21 23
f 3 23 24
f 3 24 22
f 3 22 16
f 3 16 10
f 4 11 12
f 5 12 6
f 6 12 13
f 6 13 7
f 7 13 14
f 7 14 8
f 8 14 15
f 10 16 17
f 11 18 19
f 11 19 12
f 12 19 20
f 12 20 13
f 13 21 15
f 13 15 14
f 13 20 21
f 16 22 19
f 16 19 18
f 16 18 17
f 19 22 20
f 20 23 21
f 20 22 24
f 20 24 23

