# https://github.com/mikedh/trimesh
v -0.01936862 -0.03989201 0.01165785
v -0.01936862 -0.03479620 0.01165785
v -0.01876854 -0.03438932 0.01165406
v -0.01721611 -0.03989201 0.01165785
v -0.01936862 -0.03989201 0.05025017
v -0.01936841 -0.02975496 0.01165785
v -0.01876854 -0.03261298 0.01165406
v -0.01936862 -0.03479620 0.05043241
v -0.01803636 -0.03438932 0.01165406
v -0.01721611 -0.03868429 0.01165785
v -0.01721611 -0.03989201 0.05025017
v -0.01721611 -0.03961117 0.05040204
v -0.01936862 -0.03959826 0.05040583
v -0.01876854 -0.02975397 0.01165785
v -0.01936841 -0.02975496 0.05035648
v -0.01803636 -0.03261298 0.01165406
v -0.01936862 -0.03879941 0.05043241
v -0.01876854 -0.03261298 0.05044000
v -0.01936841 -0.03080191 0.05043241
v -0.01936841 -0.03000107 0.05042102
v -0.01721695 -0.03531620 0.01165785
v -0.01721632 -0.03015985 0.01180212
v -0.01721611 -0.03479620 0.01179833
v -0.01721611 -0.03959826 0.05040583
v -0.01936862 -0.03936704 0.05041722
v -0.01774876 -0.02975397 0.01165785
v -0.01876854 -0.02975397 0.05032990
v -0.01879994 -0.03000107 0.05040204
v -0.01721864 -0.03015886 0.01165785
v -0.01721611 -0.03881429 0.05043241
v -0.01876854 -0.03438932 0.05044000
v -0.01803636 -0.03261298 0.05044000
v -0.01876854 -0.03080092 0.05043241
v -0.01721632 -0.03160077 0.05043241
v -0.01721632 -0.03015985 0.01904222
v -0.01721611 -0.03479620 0.05043241
v -0.01774876 -0.02975397 0.04859106
v -0.01721632 -0.03073741 0.05017804
v -0.01808630 -0.02975397 0.05006414
v -0.01876854 -0.03000107 0.05039444
v -0.01803636 -0.03438932 0.05044000
v -0.01721632 -0.03016084 0.04861005
v -0.01721632 -0.03056374 0.05008312
v -0.01721632 -0.03017672 0.04938835
v -0.01776835 -0.02975397 0.04938835
v -0.01736339 -0.03024916 0.04996163
f 1 2 7
f 1 7 3
f 1 3 9
f 1 9 4
f 1 4 11
f 1 11 5
f 1 5 13
f 1 13 25
f 1 25 17
f 1 17 8
f 1 8 2
f 2 6 7
f 2 8 15
f 2 15 6
f 3 7 16
f 3 16 9
f 4 9 16
f 4 16 10
f 4 10 23
f 4 23 36
f 4 36 30
f 4 30 24
f 4 24 12
f 4 12 11
f 5 11 12
f 5 12 13
f 6 14 7
f 6 15 27
f 6 27 14
f 7 14 26
f 7 26 16
f 8 17 31
f 8 31 18
f 8 18 19
f 8 19 20
f 8 20 15
f 10 16 21
f 10 21 22
f 10 22 23
f 12 24 13
f 13 24 25
f 14 27 39
f 14 39 45
f 14 45 37
f 14 37 26
f 15 20 28
f 15 28 27
f 16 26 29
f 16 29 21
f 17 30 31
f 17 25 30
f 18 32 33
f 18 33 19
f 18 31 41
f 18 41 32
f 19 33 20
f 20 33 34
f 20 34 28
f 21 29 22
f 22 35 36
f 22 36 23
f 22 29 26
f 22 26 37
f 22 37 35
f 24 30 25
f 27 38 39
f 27 28 40
f 27 40 34
f 27 34 38
f 28 34 40
f 30 36 32
f 30 32 41
f 30 41 31
f 32 36 34
f 32 34 33
f 34 36 38
f 35 37 42
f 35 42 36
f 36 43 38
f 36 42 44
f 36 44 43
f 37 45 42
f 38 43 39
f 39 43 46
f 39 46 45
f 42 45 44
f 43 44 46
f 44 45 46

