# https://github.com/mikedh/trimesh
v 0.00442127 -0.04044000 0.00060091
v 0.01350048 -0.04044000 0.00060091
v 0.00442127 -0.04044000 0.00968517
v 0.00442127 -0.04021828 -0.00009137
v 0.01350137 -0.04044000 0.00968517
v 0.00761655 -0.04021828 -0.00009137
v 0.01350048 -0.04021828 -0.00008639
v 0.00442216 -0.04044000 0.03479142
v 0.00442216 -0.04043811 0.04939398
v 0.00442216 -0.04021733 0.05008626
v 0.00442216 -0.03959575 0.05040501
v 0.00442216 -0.03879793 0.05043987
v 0.00442127 -0.03076095 0.00968517
v 0.00442127 -0.03959859 -0.00041012
v 0.01350048 -0.03959859 -0.00041012
v 0.01350048 -0.03879793 -0.00044000
v 0.01350137 -0.03076190 0.00968517
v 0.01350137 -0.04044000 0.01132871
v 0.01349959 -0.04044000 0.03479142
v 0.01349959 -0.04043811 0.04939398
v 0.01349959 -0.04021733 0.05008626
v 0.01349959 -0.03959575 0.05040501
v 0.01349959 -0.03879793 0.05043987
v 0.00442216 -0.03240208 0.05043987
v 0.00442216 -0.03160046 0.05040998
v 0.00442216 -0.03098172 0.05008626
v 0.00442216 -0.03076000 0.04939398
v 0.00442127 -0.03076095 0.00060091
v 0.00442127 -0.03879887 -0.00044000
v 0.00761655 -0.03879887 -0.00044000
v 0.01350048 -0.03240113 -0.00044000
v 0.01350137 -0.03076000 0.03479142
v 0.01350048 -0.03160236 -0.00041012
v 0.01350048 -0.03098267 -0.00008639
v 0.01350048 -0.03076095 0.00060091
v 0.01350137 -0.03200411 0.05041995
v 0.01349959 -0.03240208 0.05043987
v 0.01350137 -0.03160046 0.05040998
v 0.01350137 -0.03098172 0.05008626
v 0.01350137 -0.03076000 0.04939398
v 0.00442216 -0.03076000 0.03479142
v 0.00442127 -0.03098172 -0.00009137
v 0.00442127 -0.03240113 -0.00044000
v 0.00761655 -0.03160141 -0.00041012
v 0.00761655 -0.03098172 -0.00009137
v 0.00442127 -0.03160141 -0.00041012
f 1 2 5
f 1 5 18
f 1 18 19
f 1 19 8
f 1 8 3
f 1 3 13
f 1 13 28
f 1 28 42
f 1 42 46
f 1 46 43
f 1 43 29
f 1 29 14
f 1 14 4
f 1 4 6
f 1 6 2
f 2 6 7
f 2 7 5
f 3 8 9
f 3 9 10
f 3 10 11
f 3 11 12
f 3 12 24
f 3 24 13
f 4 14 15
f 4 15 6
f 5 7 15
f 5 15 16
f 5 16 31
f 5 31 17
f 5 17 32
f 5 32 40
f 5 40 39
f 5 39 38
f 5 38 36
f 5 36 18
f 6 15 7
f 8 19 20
f 8 20 9
f 9 20 21
f 9 21 10
f 10 21 22
f 10 22 11
f 11 22 23
f 11 23 12
f 12 23 37
f 12 37 24
f 13 24 25
f 13 25 26
f 13 26 27
f 13 27 41
f 13 41 28
f 14 29 30
f 14 30 15
f 15 30 16
f 16 30 29
f 16 29 43
f 16 43 31
f 17 31 33
f 17 33 34
f 17 34 35
f 17 35 32
f 18 36 20
f 18 20 19
f 20 36 21
f 21 36 22
f 22 36 23
f 23 36 37
f 24 37 38
f 24 38 25
f 25 38 39
f 25 39 26
f 26 39 40
f 26 40 27
f 27 40 32
f 27 32 41
f 28 35 45
f 28 45 42
f 28 41 32
f 28 32 35
f 31 43 46
f 31 46 44
f 31 44 33
f 33 44 45
f 33 45 34
f 34 45 35
f 36 38 37
f 42 45 44
f 42 44 46

