# https://github.com/mikedh/trimesh
v 0.00017421 -0.02724136 0.02570506
v -0.00286540 -0.02690348 0.02546193
v -0.00286767 -0.02690348 0.02570506
v 0.00017421 -0.04044000 0.02570506
v 0.00017421 -0.02724136 0.01579829
v -0.00286540 -0.02690348 0.02459947
v -0.02306420 -0.02690348 0.02570506
v -0.02306420 -0.04044000 0.02570506
v 0.00017421 -0.04044000 0.00140008
v 0.00017421 -0.02724269 0.00140008
v -0.00292683 -0.02690348 0.00220112
v -0.02306420 -0.02690348 -0.00044000
v -0.02306420 -0.04044000 0.00140008
v 0.00017421 -0.04040555 0.00060161
v 0.00017421 -0.02726521 0.00082426
v -0.00307471 -0.02690348 0.00060161
v -0.00302921 -0.02690348 0.00082938
v -0.00292910 -0.02690348 0.00140008
v -0.00749761 -0.02690348 -0.00044000
v -0.02306420 -0.03879961 -0.00044000
v -0.02306420 -0.04040555 0.00060161
v 0.00017421 -0.04018559 -0.00002541
v 0.00017421 -0.02727449 0.00060161
v -0.00328403 -0.02690348 0.00039175
v -0.00669676 -0.02690348 -0.00042720
v 0.00017421 -0.02840077 -0.00042208
v 0.00017421 -0.02920109 -0.00044000
v 0.00017421 -0.03879961 -0.00044000
v -0.02306420 -0.03959993 -0.00034531
v -0.02306420 -0.04018559 -0.00002541
v -0.02306420 -0.03998949 -0.00013289
v 0.00017421 -0.03959993 -0.00034531
v 0.00017421 -0.02754612 0.00009488
v -0.00423959 -0.02690348 -0.00007147
v -0.00377546 -0.02690348 0.00009744
v -0.00589818 -0.02690348 -0.00036834
v 0.00017421 -0.02765213 -0.00010218
f 1 2 3
f 1 3 7
f 1 7 8
f 1 8 4
f 1 4 9
f 1 9 14
f 1 14 22
f 1 22 32
f 1 32 28
f 1 28 27
f 1 27 26
f 1 26 37
f 1 37 33
f 1 33 23
f 1 23 15
f 1 15 10
f 1 10 5
f 1 5 6
f 1 6 2
f 2 6 11
f 2 11 18
f 2 18 17
f 2 17 16
f 2 16 24
f 2 24 35
f 2 35 34
f 2 34 36
f 2 36 25
f 2 25 19
f 2 19 12
f 2 12 7
f 2 7 3
f 4 8 13
f 4 13 9
f 5 10 6
f 6 10 11
f 7 12 20
f 7 20 29
f 7 29 31
f 7 31 30
f 7 30 21
f 7 21 13
f 7 13 8
f 9 13 21
f 9 21 14
f 10 15 16
f 10 16 17
f 10 17 18
f 10 18 11
f 12 19 27
f 12 27 28
f 12 28 20
f 14 21 30
f 14 30 22
f 15 23 16
f 16 23 24
f 19 25 26
f 19 26 27
f 20 28 32
f 20 32 29
f 22 30 31
f 22 31 32
f 23 33 34
f 23 34 35
f 23 35 24
f 25 36 26
f 26 36 37
f 29 32 31
f 33 37 34
f 34 37 36

