# https://github.com/mikedh/trimesh
v 0.04044000 0.02161105 0.04859724
v 0.04042296 0.02161105 0.04898571
v 0.04041444 0.01740452 0.04919489
v 0.04044000 0.01740452 0.04859724
v 0.04044000 0.02161105 0.00140276
v 0.04040308 0.02161105 0.04939909
v 0.04040308 0.01740452 0.04939909
v 0.04044000 0.01740452 0.00140276
v 0.04040308 0.02161105 0.00060091
v 0.04029800 0.02161105 0.04970290
v 0.04018441 0.01740452 0.05002662
v 0.04040308 0.01740452 0.00060091
v 0.04034913 0.01740452 0.00044154
v 0.04029233 0.02161105 0.00028216
v 0.04018441 0.02161105 0.05002662
v 0.03959939 0.01740452 0.05034537
v 0.04018441 0.01740452 -0.00002662
v 0.04018441 0.02161105 -0.00002662
v 0.03959939 0.02161105 0.05034537
v 0.03879853 0.01740452 0.05044000
v 0.03959939 0.01740452 -0.00034537
v 0.03988338 0.02161105 -0.00019098
v 0.03879853 0.02161105 0.05044000
v 0.01640005 0.01740452 0.05044000
v 0.03939491 0.01740452 -0.00037027
v 0.03959939 0.02161105 -0.00034537
v 0.01400031 0.02161105 0.05044000
v 0.01400031 0.02119966 0.05044000
v 0.01480117 0.01959982 0.05043502
v 0.01560203 0.01800040 0.05043004
v 0.01560203 0.01740452 0.05038522
v 0.03879853 0.01740452 -0.00044000
v 0.03879853 0.02161105 -0.00044000
v 0.01320229 0.02161105 0.05042008
v 0.01400031 0.02039995 0.05042506
v 0.01320229 0.02119966 0.05040514
v 0.01238439 0.02161105 0.05025572
v 0.01480117 0.01800040 0.05023082
v 0.01480969 0.01740452 0.05004157
v 0.01640005 0.01740452 -0.00044000
v 0.01359136 0.02161105 -0.00044000
v 0.01175677 0.02161105 0.04999176
v 0.01464781 0.01740452 0.04992203
v 0.01619557 0.01740452 -0.00043502
v 0.01320229 0.02161105 -0.00042008
v 0.01560203 0.01800040 -0.00043004
v 0.01400031 0.02039995 -0.00042506
v 0.01184481 0.02141791 0.04994196
v 0.01439790 0.01759601 0.04980251
v 0.01147278 0.02161105 0.04939909
v 0.01447458 0.01740452 0.04939909
v 0.01560203 0.01740452 -0.00038522
v 0.01279050 0.02161105 -0.00039517
v 0.01145858 0.02161105 0.04915505
v 0.01143018 0.02161105 0.04859724
v 0.01444050 0.01740452 0.04859724
v 0.01539755 0.01740452 -0.00033043
v 0.01238155 0.02161105 -0.00025572
v 0.01443482 0.01740452 0.03099643
v 0.01142734 0.02161105 0.02460157
v 0.01480969 0.01740452 -0.00004157
v 0.01194421 0.02161105 -0.00010133
v 0.01443482 0.01740452 0.01606014
v 0.01143302 0.02161105 0.00140276
v 0.01443766 0.01740452 0.00140276
v 0.01471597 0.01740452 0.00001322
v 0.01175393 0.02161105 0.00000824
v 0.01146994 0.02161105 0.00060091
v 0.01446890 0.01740452 0.00060091
v 0.01464497 0.01740452 0.00007797
v 0.01155514 0.02161105 0.00037181
v 0.01184197 0.02141339 0.00005804
v 0.01439790 0.01759354 0.00019749
v 0.01448878 0.01740452 0.00037679
f 1 2 3
f 1 3 4
f 1 4 8
f 1 8 5
f 1 5 9
f 1 9 14
f 1 14 18
f 1 18 22
f 1 22 26
f 1 26 33
f 1 33 41
f 1 41 45
f 1 45 53
f 1 53 58
f 1 58 62
f 1 62 67
f 1 67 71
f 1 71 68
f 1 68 64
f 1 64 60
f 1 60 55
f 1 55 54
f 1 54 50
f 1 50 42
f 1 42 37
f 1 37 34
f 1 34 27
f 1 27 23
f 1 23 19
f 1 19 15
f 1 15 10
f 1 10 6
f 1 6 2
f 2 6 3
f 3 6 7
f 3 7 11
f 3 11 16
f 3 16 20
f 3 20 24
f 3 24 31
f 3 31 39
f 3 39 43
f 3 43 51
f 3 51 56
f 3 56 59
f 3 59 63
f 3 63 65
f 3 65 69
f 3 69 74
f 3 74 70
f 3 70 66
f 3 66 61
f 3 61 57
f 3 57 52
f 3 52 44
f 3 44 40
f 3 40 32
f 3 32 25
f 3 25 21
f 3 21 17
f 3 17 13
f 3 13 12
f 3 12 8
f 3 8 4
f 5 8 12
f 5 12 9
f 6 10 7
f 7 10 11
f 9 12 13
f 9 13 14
f 10 15 11
f 11 15 19
f 11 19 16
f 13 17 18
f 13 18 14
f 16 19 23
f 16 23 20
f 17 21 22
f 17 22 18
f 20 23 27
f 20 27 28
f 20 28 24
f 21 25 26
f 21 26 22
f 24 28 29
f 24 29 30
f 24 30 31
f 25 32 33
f 25 33 26
f 27 34 28
f 28 34 35
f 28 35 29
f 29 35 30
f 30 35 36
f 30 36 31
f 31 36 37
f 31 37 38
f 31 38 39
f 32 40 41
f 32 41 33
f 34 36 35
f 34 37 36
f 37 42 38
f 38 42 39
f 39 42 43
f 40 44 41
f 41 44 46
f 41 46 47
f 41 47 45
f 42 48 49
f 42 49 43
f 42 50 48
f 43 49 51
f 44 52 46
f 45 47 53
f 46 52 53
f 46 53 47
f 48 50 49
f 49 50 51
f 50 54 51
f 51 54 55
f 51 55 56
f 52 57 53
f 53 57 58
f 55 59 56
f 55 60 59
f 57 61 62
f 57 62 58
f 59 60 63
f 60 64 65
f 60 65 63
f 61 66 67
f 61 67 62
f 64 68 69
f 64 69 65
f 66 70 67
f 67 70 72
f 67 72 71
f 68 71 73
f 68 73 74
f 68 74 69
f 70 74 73
f 70 73 72
f 71 72 73

