# https://github.com/mikedh/trimesh
v -0.04044000 -0.03879829 0.02570506
v -0.04044000 -0.03879829 0.04859747
v -0.04044000 -0.02690348 0.02570506
v -0.04034458 -0.03959861 0.02570506
v -0.04044000 -0.02690348 0.04859747
v -0.04034458 -0.03959861 0.04859747
v -0.04040422 -0.03879829 0.04939888
v -0.00286896 -0.02690348 0.02570506
v -0.04012194 -0.04012730 0.02570506
v -0.04040422 -0.02690348 0.04939888
v -0.04012194 -0.04012730 0.04859747
v -0.04010604 -0.04010742 0.04939888
v -0.04030880 -0.03959861 0.04939888
v -0.04013784 -0.03959861 0.04996787
v -0.04018555 -0.03879829 0.05002355
v -0.00286896 -0.02690348 0.02626920
v 0.00017648 -0.02724004 0.02940223
v 0.00017648 -0.02724136 0.02570506
v -0.03959714 -0.04034725 0.02570506
v -0.04018555 -0.02690348 0.05002355
v -0.03959714 -0.04034725 0.04859747
v -0.03959714 -0.04031147 0.04939888
v -0.04005833 -0.04005972 0.04987102
v -0.03959714 -0.03959861 0.05024146
v -0.03959714 -0.03879829 0.05034557
v 0.00017648 -0.02724269 0.04859747
v 0.00017648 -0.02724136 0.04322241
v 0.00017648 -0.02724004 0.03602420
v -0.00294848 -0.02690348 0.04794374
v 0.00017648 -0.04044000 0.02570506
v -0.03879801 -0.04044000 0.02570506
v -0.03959714 -0.02690348 0.05034557
v -0.03879801 -0.04044000 0.04859747
v -0.03959714 -0.04013657 0.04996787
v -0.03879801 -0.04040422 0.04939888
v -0.03879801 -0.03959861 0.05034557
v -0.03879801 -0.03879829 0.05044000
v -0.03890138 -0.02690348 0.05042789
v 0.00017648 -0.02725329 0.04882264
v -0.00295245 -0.02690348 0.04859747
v -0.00306775 -0.02690348 0.04939888
v 0.00017648 -0.04044000 0.04859747
v -0.03879801 -0.04018427 0.05002355
v 0.00017648 -0.04040422 0.04939888
v 0.00017648 -0.03959861 0.05034557
v -0.03879801 -0.02690348 0.05044000
v 0.00017648 -0.03879829 0.05044000
v 0.00017648 -0.02728112 0.04939888
v -0.00399411 -0.02690348 0.05002355
v 0.00017648 -0.04018427 0.05002355
v -0.00760013 -0.02690348 0.05044000
v 0.00017648 -0.02920109 0.05044000
v 0.00017648 -0.02766007 0.05010103
v -0.00520274 -0.02690348 0.05023904
v -0.00680100 -0.02690348 0.05042789
v 0.00017648 -0.02840077 0.05042305
v -0.00600187 -0.02690348 0.05037220
f 1 2 5
f 1 5 3
f 1 3 8
f 1 8 18
f 1 18 30
f 1 30 31
f 1 31 19
f 1 19 9
f 1 9 4
f 1 4 6
f 1 6 2
f 2 6 13
f 2 13 7
f 2 7 10
f 2 10 5
f 3 5 10
f 3 10 20
f 3 20 32
f 3 32 38
f 3 38 46
f 3 46 51
f 3 51 55
f 3 55 57
f 3 57 54
f 3 54 49
f 3 49 41
f 3 41 40
f 3 40 29
f 3 29 16
f 3 16 8
f 4 9 11
f 4 11 6
f 6 11 12
f 6 12 13
f 7 13 14
f 7 14 15
f 7 15 20
f 7 20 10
f 8 16 28
f 8 28 17
f 8 17 18
f 9 19 21
f 9 21 11
f 11 21 12
f 12 21 22
f 12 22 23
f 12 23 13
f 13 23 14
f 14 23 24
f 14 24 25
f 14 25 15
f 15 25 32
f 15 32 20
f 16 26 27
f 16 27 28
f 16 29 26
f 17 28 27
f 17 27 26
f 17 26 39
f 17 39 48
f 17 48 53
f 17 53 56
f 17 56 52
f 17 52 47
f 17 47 45
f 17 45 50
f 17 50 44
f 17 44 42
f 17 42 30
f 17 30 18
f 19 31 33
f 19 33 21
f 21 33 35
f 21 35 22
f 22 34 23
f 22 35 34
f 23 34 24
f 24 34 36
f 24 36 25
f 25 36 37
f 25 37 38
f 25 38 32
f 26 29 40
f 26 40 41
f 26 41 39
f 30 42 33
f 30 33 31
f 33 42 44
f 33 44 35
f 34 35 43
f 34 43 36
f 35 44 50
f 35 50 43
f 36 43 50
f 36 50 45
f 36 45 47
f 36 47 37
f 37 46 38
f 37 47 52
f 37 52 51
f 37 51 46
f 39 41 48
f 41 49 48
f 48 49 53
f 49 54 53
f 51 52 56
f 51 56 55
f 53 54 57
f 53 57 56
f 55 56 57

