# https://github.com/mikedh/trimesh
v -0.01082083 0.02223347 0.02460157
v -0.01453483 0.01722653 0.00140276
v -0.01083533 0.02223347 0.00279727
v -0.01084403 0.02223347 0.04619668
v -0.01454062 0.01722653 0.04859724
v -0.01453483 0.01722653 0.02958199
v -0.01456962 0.01722653 0.00060091
v -0.01083823 0.02223347 0.00140276
v -0.01084693 0.02223347 0.04859724
v -0.01454642 0.01722653 0.04876160
v -0.01483055 0.01722653 0.00000326
v -0.01439856 0.01759509 0.00019749
v -0.01088462 0.02223347 0.00060091
v -0.01084693 0.02223347 0.00120354
v -0.01089042 0.02223347 0.04939909
v -0.01456962 0.01722653 0.04939909
v -0.01109627 0.02223347 0.00006800
v -0.01532923 0.01722653 -0.00024078
v -0.01158335 0.02199038 -0.00008639
v -0.01104118 0.02223347 0.00017259
v -0.01104408 0.02223347 0.04983737
v -0.01439566 0.01758921 0.04980748
v -0.01457542 0.01722653 0.04945886
v -0.01158914 0.02223347 -0.00017106
v -0.01560176 0.01722653 -0.00037027
v -0.01107017 0.02223347 0.04990709
v -0.01109047 0.02223347 0.04993698
v -0.01482765 0.01722653 0.04999674
v -0.01240095 0.02199969 -0.00038522
v -0.01240095 0.02223347 -0.00040015
v -0.01560176 0.01800041 -0.00043004
v -0.01640197 0.01722653 -0.00044000
v -0.01484795 0.01722653 0.05001168
v -0.01134560 0.02223347 0.05008639
v -0.01320115 0.02199969 -0.00044000
v -0.01320115 0.02223347 -0.00044000
v -0.03879900 0.01722653 -0.00044000
v -0.01557567 0.01722653 0.05036529
v -0.01158914 0.02223347 0.05017604
v -0.03879900 0.02223347 -0.00044000
v -0.03959921 0.01722653 -0.00034537
v -0.01216900 0.02223347 0.05038023
v -0.01560176 0.01722653 0.05037027
v -0.03959921 0.02223347 -0.00034537
v -0.04018486 0.01722653 -0.00002662
v -0.01240095 0.02223347 0.05040015
v -0.01560176 0.01800041 0.05043004
v -0.01640197 0.01722653 0.05044000
v -0.04018486 0.02223347 -0.00002662
v -0.04040521 0.01722653 0.00060091
v -0.01296921 0.02223347 0.05043502
v -0.01320115 0.02199969 0.05044000
v -0.03879900 0.01722653 0.05044000
v -0.04040521 0.02223347 0.00060091
v -0.04044000 0.01722653 0.00140276
v -0.01320115 0.02223347 0.05044000
v -0.03959921 0.01722653 0.05034537
v -0.03879900 0.02223347 0.05044000
v -0.04044000 0.02223347 0.00140276
v -0.04044000 0.01722653 0.04859724
v -0.03959921 0.02223347 0.05034537
v -0.04018486 0.01722653 0.05002662
v -0.04044000 0.02223347 0.04859724
v -0.04040521 0.01722653 0.04939909
v -0.04018486 0.02223347 0.05002662
v -0.04040521 0.02223347 0.04939909
f 1 2 3
f 1 3 8
f 1 8 14
f 1 14 13
f 1 13 20
f 1 20 17
f 1 17 24
f 1 24 30
f 1 30 36
f 1 36 40
f 1 40 44
f 1 44 49
f 1 49 54
f 1 54 59
f 1 59 63
f 1 63 66
f 1 66 65
f 1 65 61
f 1 61 58
f 1 58 56
f 1 56 51
f 1 51 46
f 1 46 42
f 1 42 39
f 1 39 34
f 1 34 27
f 1 27 26
f 1 26 21
f 1 21 15
f 1 15 9
f 1 9 4
f 1 4 5
f 1 5 6
f 1 6 2
f 2 7 8
f 2 8 3
f 2 6 5
f 2 5 10
f 2 10 16
f 2 16 23
f 2 23 28
f 2 28 33
f 2 33 38
f 2 38 43
f 2 43 48
f 2 48 53
f 2 53 57
f 2 57 62
f 2 62 64
f 2 64 60
f 2 60 55
f 2 55 50
f 2 50 45
f 2 45 41
f 2 41 37
f 2 37 32
f 2 32 25
f 2 25 18
f 2 18 11
f 2 11 7
f 4 9 5
f 5 9 10
f 7 11 12
f 7 12 13
f 7 13 14
f 7 14 8
f 9 15 16
f 9 16 10
f 11 17 12
f 11 18 19
f 11 19 17
f 12 17 20
f 12 20 13
f 15 21 22
f 15 22 23
f 15 23 16
f 17 19 24
f 18 25 19
f 19 25 24
f 21 26 22
f 22 26 27
f 22 27 28
f 22 28 23
f 24 25 29
f 24 29 30
f 25 31 29
f 25 32 31
f 27 33 28
f 27 34 33
f 29 31 30
f 30 31 35
f 30 35 36
f 31 32 35
f 32 37 40
f 32 40 36
f 32 36 35
f 33 34 38
f 34 39 38
f 37 41 44
f 37 44 40
f 38 39 42
f 38 42 43
f 41 45 49
f 41 49 44
f 42 46 47
f 42 47 43
f 43 47 48
f 45 50 54
f 45 54 49
f 46 51 47
f 47 51 52
f 47 52 48
f 48 52 56
f 48 56 58
f 48 58 53
f 50 55 59
f 50 59 54
f 51 56 52
f 53 58 61
f 53 61 57
f 55 60 63
f 55 63 59
f 57 61 65
f 57 65 62
f 60 64 66
f 60 66 63
f 62 65 66
f 62 66 64

