# https://github.com/mikedh/trimesh
v -0.00286365 -0.02690348 0.02466631
v -0.00292618 -0.02690348 0.00220461
v -0.00743563 -0.02496548 0.02458164
v -0.00743563 -0.02496548 0.02539843
v -0.00744667 -0.02496548 0.02859587
v -0.00751655 -0.02496548 0.04854246
v -0.00294824 -0.02690348 0.04794481
v -0.00292985 -0.02690348 0.00140276
v -0.00751655 -0.02496548 0.00140276
v -0.00744667 -0.02496548 0.02139417
v -0.00756069 -0.02496548 0.04929450
v -0.00295192 -0.02690348 0.04859724
v -0.00302916 -0.02690348 0.00083001
v -0.00757540 -0.02496548 0.00060091
v -0.00752023 -0.02496548 0.00134299
v -0.00756805 -0.02496548 0.04939909
v -0.00306595 -0.02690348 0.04939909
v -0.00307698 -0.02690348 0.00060091
v -0.00759012 -0.02496548 0.00053118
v -0.00782184 -0.02496548 0.04991705
v -0.00399653 -0.02690348 0.05002164
v -0.00328664 -0.02690348 0.00039173
v -0.00782920 -0.02496548 0.00008793
v -0.00840299 -0.02496548 0.05015113
v -0.00840299 -0.02520014 0.05027565
v -0.00600114 -0.02679990 0.05036031
v -0.00520297 -0.02690348 0.05023580
v -0.00377584 -0.02690348 0.00009789
v -0.00796529 -0.02496548 0.00000824
v -0.00919013 -0.02496548 0.05033541
v -0.00920116 -0.02520014 0.05041510
v -0.00680298 -0.02679990 0.05042506
v -0.00600114 -0.02690348 0.05037027
v -0.00423929 -0.02690348 -0.00007145
v -0.00860897 -0.02496548 -0.00023082
v -0.01000301 -0.02496548 0.05042506
v -0.01000301 -0.02520014 0.05044000
v -0.00680298 -0.02690348 0.05043004
v -0.00589815 -0.02690348 -0.00036529
v -0.00600114 -0.02679990 -0.00035533
v -0.00943657 -0.02496548 -0.00040514
v -0.01080117 -0.02496548 0.05044000
v -0.00760115 -0.02679990 0.05044000
v -0.00760115 -0.02690348 0.05044000
v -0.00669999 -0.02690348 -0.00042506
v -0.00680298 -0.02679990 -0.00042506
v -0.00920116 -0.02520014 -0.00041510
v -0.01023473 -0.02496548 -0.00043502
v -0.03879953 -0.02496548 0.05044000
v -0.03879953 -0.02690348 0.05044000
v -0.00749816 -0.02690348 -0.00044000
v -0.00760115 -0.02679990 -0.00044000
v -0.01000301 -0.02520014 -0.00044000
v -0.01103658 -0.02496548 -0.00044000
v -0.03959770 -0.02496548 0.05034537
v -0.03959770 -0.02690348 0.05034537
v -0.03879953 -0.02690348 -0.00044000
v -0.03879953 -0.02496548 -0.00044000
v -0.04018253 -0.02496548 0.05002662
v -0.04018253 -0.02690348 0.05002662
v -0.03959770 -0.02690348 -0.00034537
v -0.03959770 -0.02496548 -0.00034537
v -0.04034069 -0.02496548 0.04958337
v -0.04040322 -0.02690348 0.04939909
v -0.04018253 -0.02690348 -0.00002662
v -0.04018253 -0.02496548 -0.00002662
v -0.04040322 -0.02496548 0.04939909
v -0.04044000 -0.02690348 0.04859724
v -0.04040322 -0.02690348 0.00060091
v -0.04024874 -0.02496548 0.00015765
v -0.04044000 -0.02496548 0.04859724
v -0.04044000 -0.02690348 0.00140276
v -0.04041425 -0.02496548 0.00083499
v -0.04040322 -0.02496548 0.00060091
v -0.04044000 -0.02496548 0.00140276
f 1 2 3
f 1 3 4
f 1 4 5
f 1 5 6
f 1 6 7
f 1 7 12
f 1 12 17
f 1 17 21
f 1 21 27
f 1 27 33
f 1 33 38
f 1 38 44
f 1 44 50
f 1 50 56
f 1 56 60
f 1 60 64
f 1 64 68
f 1 68 72
f 1 72 69
f 1 69 65
f 1 65 61
f 1 61 57
f 1 57 51
f 1 51 45
f 1 45 39
f 1 39 34
f 1 34 28
f 1 28 22
f 1 22 18
f 1 18 13
f 1 13 8
f 1 8 2
f 2 8 9
f 2 9 10
f 2 10 3
f 3 10 9
f 3 9 15
f 3 15 14
f 3 14 19
f 3 19 23
f 3 23 29
f 3 29 35
f 3 35 41
f 3 41 48
f 3 48 54
f 3 54 58
f 3 58 62
f 3 62 66
f 3 66 70
f 3 70 74
f 3 74 73
f 3 73 75
f 3 75 71
f 3 71 67
f 3 67 63
f 3 63 59
f 3 59 55
f 3 55 49
f 3 49 42
f 3 42 36
f 3 36 30
f 3 30 24
f 3 24 20
f 3 20 16
f 3 16 11
f 3 11 6
f 3 6 5
f 3 5 4
f 6 11 12
f 6 12 7
f 8 13 14
f 8 14 15
f 8 15 9
f 11 16 12
f 12 16 17
f 13 18 14
f 14 18 19
f 16 20 17
f 17 20 21
f 18 22 23
f 18 23 19
f 20 24 21
f 21 24 25
f 21 25 26
f 21 26 27
f 22 28 23
f 23 28 29
f 24 30 25
f 25 30 31
f 25 31 26
f 26 31 32
f 26 32 33
f 26 33 27
f 28 34 35
f 28 35 29
f 30 36 31
f 31 36 37
f 31 37 32
f 32 37 38
f 32 38 33
f 34 39 40
f 34 40 41
f 34 41 35
f 36 42 37
f 37 43 38
f 37 42 49
f 37 49 50
f 37 50 44
f 37 44 43
f 38 43 44
f 39 45 46
f 39 46 41
f 39 41 40
f 41 46 47
f 41 47 48
f 45 51 52
f 45 52 46
f 46 52 53
f 46 53 48
f 46 48 47
f 48 53 54
f 49 55 56
f 49 56 50
f 51 57 58
f 51 58 54
f 51 54 53
f 51 53 52
f 55 59 60
f 55 60 56
f 57 61 62
f 57 62 58
f 59 63 60
f 60 63 64
f 61 65 66
f 61 66 62
f 63 67 64
f 64 67 71
f 64 71 68
f 65 69 70
f 65 70 66
f 68 71 75
f 68 75 72
f 69 72 73
f 69 73 74
f 69 74 70
f 72 75 73

