# https://github.com/mikedh/trimesh
v 0.04044000 -0.02373167 0.04859724
v 0.04040591 -0.02373167 0.04939909
v 0.04044000 -0.02595582 0.04859724
v 0.04044000 -0.02373167 0.00140276
v 0.04018432 -0.02373167 0.05002662
v 0.04019795 -0.02595582 0.04999176
v 0.04040591 -0.02595582 0.04939909
v 0.04044000 -0.02595582 0.00140276
v 0.04040591 -0.02373167 0.00060091
v 0.04018432 -0.02595582 0.05002662
v 0.03959795 -0.02373167 0.05034537
v 0.04040591 -0.02595582 0.00060091
v 0.04022182 -0.02373167 0.00007797
v 0.03959795 -0.02595582 0.05034537
v 0.03879682 -0.02373167 0.05044000
v 0.04018432 -0.02595582 -0.00002662
v 0.04018432 -0.02373167 -0.00002662
v 0.03879682 -0.02595582 0.05044000
v 0.01227061 -0.02373167 0.05044000
v 0.03959795 -0.02595582 -0.00034537
v 0.03959795 -0.02373167 -0.00034537
v 0.00924674 -0.02595582 0.05044000
v 0.01146947 -0.02373167 0.05043502
v 0.01080129 -0.02440011 0.05044000
v 0.03879682 -0.02595582 -0.00044000
v 0.03879682 -0.02373167 -0.00044000
v 0.01000015 -0.02519984 0.05044000
v 0.00844560 -0.02595582 0.05043004
v 0.01080129 -0.02373167 0.05038522
v 0.00920242 -0.02519984 0.05041510
v 0.01000015 -0.02595582 -0.00044000
v 0.01240015 -0.02373167 -0.00044000
v 0.00764446 -0.02595582 0.05036529
v 0.01067174 -0.02373167 0.05037525
v 0.01000015 -0.02519984 -0.00044000
v 0.00920242 -0.02595582 -0.00043502
v 0.01160242 -0.02373167 -0.00043502
v 0.00668309 -0.02595582 0.05011627
v 0.00982628 -0.02373167 0.05009635
v 0.00840128 -0.02595582 -0.00042506
v 0.00920242 -0.02519984 -0.00041510
v 0.01080129 -0.02373167 -0.00038522
v 0.00963537 -0.02373167 0.05000670
v 0.00698309 -0.02548050 0.04992702
v 0.00616150 -0.02595582 0.04980748
v 0.00760355 -0.02595582 -0.00035035
v 0.00667968 -0.02595582 -0.00011129
v 0.00998992 -0.02373167 -0.00015113
v 0.00946833 -0.02373167 0.04983737
v 0.00939674 -0.02383313 0.04994694
v 0.00584104 -0.02595582 0.04952360
v 0.00600127 -0.02595582 0.00036185
v 0.00698309 -0.02548028 0.00007298
v 0.00963196 -0.02373167 -0.00000670
v 0.00926719 -0.02373167 0.04939909
v 0.00576604 -0.02595582 0.04941403
v 0.00575923 -0.02595582 0.00058597
v 0.00939333 -0.02383226 0.00005306
v 0.00927401 -0.02373167 0.00058597
v 0.00921946 -0.02373167 0.04859724
v 0.00568423 -0.02595582 0.04859724
v 0.00571150 -0.02595582 0.04888611
v 0.00568423 -0.02595582 0.00140276
v 0.00926719 -0.02373167 0.00060091
v 0.00921605 -0.02373167 0.04779539
v 0.00567741 -0.02595582 0.04732225
v 0.00568082 -0.02595582 0.04811912
v 0.00568082 -0.02595582 0.00220461
v 0.00921946 -0.02373167 0.00140276
v 0.00917855 -0.02373167 0.02619530
v 0.00561263 -0.02595582 0.02539843
v 0.00561604 -0.02595582 0.02380470
v 0.00921605 -0.02373167 0.00294669
v 0.00917855 -0.02373167 0.02371505
v 0.00918196 -0.02373167 0.02140413
v 0.00920924 -0.02373167 0.00620389
v 0.00921264 -0.02373167 0.00454042
f 1 2 7
f 1 7 3
f 1 3 8
f 1 8 4
f 1 4 9
f 1 9 13
f 1 13 17
f 1 17 21
f 1 21 26
f 1 26 32
f 1 32 37
f 1 37 42
f 1 42 48
f 1 48 54
f 1 54 59
f 1 59 64
f 1 64 69
f 1 69 73
f 1 73 77
f 1 77 76
f 1 76 75
f 1 75 74
f 1 74 70
f 1 70 65
f 1 65 60
f 1 60 55
f 1 55 49
f 1 49 43
f 1 43 39
f 1 39 34
f 1 34 29
f 1 29 23
f 1 23 19
f 1 19 15
f 1 15 11
f 1 11 5
f 1 5 2
f 2 5 6
f 2 6 7
f 3 7 6
f 3 6 10
f 3 10 14
f 3 14 18
f 3 18 22
f 3 22 28
f 3 28 33
f 3 33 38
f 3 38 45
f 3 45 51
f 3 51 56
f 3 56 62
f 3 62 61
f 3 61 67
f 3 67 66
f 3 66 71
f 3 71 72
f 3 72 68
f 3 68 63
f 3 63 57
f 3 57 52
f 3 52 47
f 3 47 46
f 3 46 40
f 3 40 36
f 3 36 31
f 3 31 25
f 3 25 20
f 3 20 16
f 3 16 12
f 3 12 8
f 4 8 12
f 4 12 9
f 5 10 6
f 5 11 14
f 5 14 10
f 9 12 13
f 11 15 18
f 11 18 14
f 12 16 13
f 13 16 17
f 15 19 24
f 15 24 27
f 15 27 22
f 15 22 18
f 16 20 21
f 16 21 17
f 19 23 24
f 20 25 26
f 20 26 21
f 22 27 28
f 23 29 30
f 23 30 28
f 23 28 24
f 24 28 27
f 25 31 35
f 25 35 32
f 25 32 26
f 28 30 33
f 29 34 30
f 30 34 33
f 31 36 35
f 32 35 37
f 33 34 38
f 34 39 38
f 35 36 40
f 35 40 37
f 37 40 41
f 37 41 42
f 38 39 43
f 38 43 44
f 38 44 45
f 40 46 41
f 41 46 42
f 42 46 47
f 42 47 48
f 43 49 50
f 43 50 44
f 44 50 51
f 44 51 45
f 47 52 53
f 47 53 54
f 47 54 48
f 49 55 56
f 49 56 51
f 49 51 50
f 52 57 53
f 53 58 54
f 53 57 58
f 54 58 59
f 55 60 61
f 55 61 62
f 55 62 56
f 57 63 64
f 57 64 59
f 57 59 58
f 60 65 66
f 60 66 67
f 60 67 61
f 63 68 69
f 63 69 64
f 65 70 71
f 65 71 66
f 68 72 69
f 69 72 73
f 70 74 71
f 71 74 75
f 71 75 76
f 71 76 77
f 71 77 73
f 71 73 72

