# https://github.com/mikedh/trimesh
v 0.04044000 0.00359448 0.04859724
v 0.04040544 0.00359448 0.04939909
v 0.04044000 -0.00359534 0.04859724
v 0.04044000 0.00359448 0.00140276
v 0.04040544 -0.00359534 0.04939909
v 0.04018508 0.00359448 0.05002662
v 0.04044000 -0.00359534 0.00140276
v 0.04040544 0.00359448 0.00060091
v 0.04018508 -0.00279937 0.05002662
v 0.04018508 -0.00359534 0.05002164
v 0.03959964 0.00359448 0.05034537
v 0.04040328 -0.00359534 0.00060091
v 0.04040544 -0.00279937 0.00060091
v 0.04018724 0.00359448 -0.00002164
v 0.03959964 -0.00359534 0.05034537
v 0.03879816 0.00359448 0.05044000
v 0.04018076 -0.00359534 -0.00002662
v 0.04018508 -0.00279937 -0.00002662
v 0.04018508 0.00359448 -0.00002662
v 0.03879816 -0.00359534 0.05044000
v 0.02040092 0.00359448 0.05044000
v 0.03959964 -0.00359534 -0.00034537
v 0.03959964 0.00359448 -0.00034537
v 0.02040092 -0.00359534 0.05044000
v 0.01960160 0.00359448 0.05039517
v 0.03879816 -0.00359534 -0.00044000
v 0.03879816 0.00359448 -0.00044000
v 0.01960593 -0.00359534 0.05039517
v 0.01893407 0.00359448 0.05007145
v 0.01893407 -0.00359534 0.05007145
v 0.02040092 -0.00359534 -0.00044000
v 0.02040092 0.00359448 -0.00044000
v 0.01862298 0.00359448 0.04939909
v 0.01862514 -0.00359534 0.04939909
v 0.01837238 -0.00039948 -0.00044000
v 0.01960160 -0.00359534 -0.00039020
v 0.01837238 -0.00119967 -0.00043004
v 0.01837238 0.00039931 -0.00044000
v 0.01837238 0.00082932 -0.00043502
v 0.01837238 0.00119951 -0.00043004
v 0.01960160 0.00359448 -0.00039020
v 0.01857978 0.00359448 0.04859724
v 0.01858194 -0.00359534 0.04860222
v 0.01893191 -0.00359534 -0.00006647
v 0.01837238 -0.00156986 -0.00035533
v 0.01837238 0.00203771 -0.00016109
v 0.01894055 0.00359448 -0.00007145
v 0.01857978 0.00359448 0.04779042
v 0.01837238 0.00295896 0.02300285
v 0.01837238 0.00295756 0.02322199
v 0.01837238 0.00295333 0.02380470
v 0.01837238 0.00289140 0.02459161
v 0.01837238 0.00262607 0.02520918
v 0.01837238 0.00255640 0.02532871
v 0.01837238 0.00201590 0.02547314
v 0.01837238 0.00174002 0.02553789
v 0.01837238 0.00119951 0.02557275
v 0.01837238 -0.00119967 0.02557275
v 0.01837238 -0.00201536 0.02547314
v 0.01837238 -0.00262272 0.02520918
v 0.01837238 -0.00271632 0.02511953
v 0.01837238 -0.00288734 0.02459161
v 0.01837238 -0.00291268 0.02438243
v 0.01837238 -0.00295068 0.02380470
v 0.01837238 -0.00295209 0.02358556
v 0.01837238 -0.00295561 0.02300285
v 0.01837238 -0.00295631 0.02220100
v 0.01837238 -0.00295772 0.01420244
v 0.01837238 -0.00295912 0.00540204
v 0.01858194 -0.00359534 0.00140276
v 0.01862514 -0.00359534 0.00060091
v 0.01837238 -0.00240877 -0.00004655
v 0.01837238 0.00253388 0.00011781
v 0.01893407 0.00359448 -0.00006647
v 0.01858194 0.00359448 0.02139417
v 0.01837238 0.00295615 0.00300147
v 0.01837238 0.00295896 0.02242014
v 0.01837238 -0.00295912 0.00198547
v 0.01837238 -0.00295842 0.00140276
v 0.01837238 -0.00284582 0.00059593
v 0.01837238 -0.00253404 0.00011781
v 0.01837238 0.00264437 0.00028216
v 0.01862730 0.00359448 0.00060091
v 0.01858626 0.00359448 0.00139778
v 0.01837238 0.00295474 0.00140276
v 0.01837238 0.00284354 0.00059593
v 0.01837238 0.00287803 0.00084495
f 1 2 5
f 1 5 3
f 1 3 7
f 1 7 4
f 1 4 8
f 1 8 14
f 1 14 19
f 1 19 23
f 1 23 27
f 1 27 32
f 1 32 41
f 1 41 47
f 1 47 74
f 1 74 83
f 1 83 84
f 1 84 75
f 1 75 48
f 1 48 42
f 1 42 33
f 1 33 29
f 1 29 25
f 1 25 21
f 1 21 16
f 1 16 11
f 1 11 6
f 1 6 2
f 2 6 9
f 2 9 5
f 3 5 10
f 3 10 15
f 3 15 20
f 3 20 24
f 3 24 28
f 3 28 30
f 3 30 34
f 3 34 43
f 3 43 70
f 3 70 71
f 3 71 44
f 3 44 36
f 3 36 31
f 3 31 26
f 3 26 22
f 3 22 17
f 3 17 12
f 3 12 7
f 4 7 13
f 4 13 8
f 5 9 10
f 6 11 15
f 6 15 9
f 7 12 13
f 8 13 14
f 9 15 10
f 11 16 20
f 11 20 15
f 12 17 18
f 12 18 13
f 13 18 14
f 14 18 19
f 16 21 24
f 16 24 20
f 17 22 18
f 18 22 23
f 18 23 19
f 21 25 24
f 22 26 27
f 22 27 23
f 24 25 28
f 25 29 30
f 25 30 28
f 26 31 35
f 26 35 38
f 26 38 32
f 26 32 27
f 29 33 30
f 30 33 34
f 31 36 37
f 31 37 35
f 32 38 39
f 32 39 40
f 32 40 41
f 33 42 43
f 33 43 34
f 35 37 45
f 35 45 72
f 35 72 81
f 35 81 80
f 35 80 79
f 35 79 78
f 35 78 69
f 35 69 68
f 35 68 67
f 35 67 66
f 35 66 65
f 35 65 64
f 35 64 63
f 35 63 62
f 35 62 61
f 35 61 60
f 35 60 59
f 35 59 58
f 35 58 57
f 35 57 56
f 35 56 55
f 35 55 54
f 35 54 53
f 35 53 52
f 35 52 51
f 35 51 50
f 35 50 49
f 35 49 77
f 35 77 76
f 35 76 85
f 35 85 87
f 35 87 86
f 35 86 82
f 35 82 73
f 35 73 46
f 35 46 40
f 35 40 39
f 35 39 38
f 36 44 45
f 36 45 37
f 40 46 47
f 40 47 41
f 42 48 77
f 42 77 49
f 42 49 50
f 42 50 51
f 42 51 52
f 42 52 53
f 42 53 54
f 42 54 55
f 42 55 56
f 42 56 57
f 42 57 58
f 42 58 43
f 43 58 59
f 43 59 60
f 43 60 61
f 43 61 62
f 43 62 63
f 43 63 64
f 43 64 65
f 43 65 66
f 43 66 67
f 43 67 68
f 43 68 69
f 43 69 78
f 43 78 70
f 44 71 72
f 44 72 45
f 46 73 74
f 46 74 47
f 48 75 76
f 48 76 77
f 70 78 79
f 70 79 80
f 70 80 71
f 71 80 81
f 71 81 72
f 73 82 83
f 73 83 74
f 75 84 76
f 76 84 85
f 82 86 83
f 83 86 84
f 84 86 87
f 84 87 85

