# https://github.com/mikedh/trimesh
v -0.01105583 -0.02198802 0.02726111
v -0.01473209 -0.01686812 0.02779900
v -0.01473496 -0.01686812 0.04859724
v -0.01107884 -0.02198802 0.04728739
v -0.01105583 -0.02198802 0.02300285
v -0.01473209 -0.01686812 0.00140276
v -0.01476660 -0.01686812 0.04937419
v -0.01108172 -0.02198802 0.04859724
v -0.01108459 -0.02198802 0.00329532
v -0.01108747 -0.02198802 0.00140276
v -0.01476660 -0.01686812 0.00062083
v -0.01496796 -0.01686812 0.04996188
v -0.01112487 -0.02198802 0.04939909
v -0.01113062 -0.02198802 0.00060091
v -0.01484715 -0.01686812 0.00033695
v -0.01557492 -0.01686812 0.05027565
v -0.01158799 -0.02198802 0.05008639
v -0.01184401 -0.02141469 0.04994196
v -0.01121404 -0.02198802 0.00035687
v -0.01497084 -0.01686812 0.00004310
v -0.01640050 -0.01686812 0.05043502
v -0.01560081 -0.01720039 0.05037027
v -0.01240206 -0.02198802 0.05038023
v -0.01158224 -0.02198802 -0.00007643
v -0.01184401 -0.02141569 0.00005804
v -0.01159087 -0.02198802 -0.00008639
v -0.01512905 -0.01686812 -0.00005153
v -0.01319024 -0.02198802 0.05043502
v -0.01400144 -0.02039983 0.05042506
v -0.01560081 -0.01800025 0.05043004
v -0.01320175 -0.02119969 0.05040514
v -0.01720018 -0.01686812 0.05044000
v -0.01640050 -0.01720039 0.05044000
v -0.01557492 -0.01686812 -0.00027066
v -0.01241357 -0.02198802 -0.00038522
v -0.01560081 -0.01720039 -0.00036529
v -0.01400144 -0.02119969 0.05044000
v -0.01400144 -0.02198802 0.05044000
v -0.03879748 -0.01686812 0.05044000
v -0.01593449 -0.01686812 -0.00039020
v -0.01321326 -0.02198802 -0.00044000
v -0.01320175 -0.02119969 -0.00040514
v -0.01560081 -0.01800025 -0.00043004
v -0.01640050 -0.01686812 -0.00043502
v -0.03879748 -0.02198802 0.05044000
v -0.03926636 -0.01686812 0.05038522
v -0.01400144 -0.02039983 -0.00042506
v -0.03879748 -0.02198802 -0.00044000
v -0.01640050 -0.01720039 -0.00044000
v -0.01673418 -0.01686812 -0.00044000
v -0.03959717 -0.02198802 0.05034537
v -0.03959717 -0.01686812 0.05034537
v -0.03879748 -0.01686812 -0.00044000
v -0.03959717 -0.02198802 -0.00034537
v -0.04018399 -0.02198802 0.05002662
v -0.04018399 -0.01686812 0.05002662
v -0.03959717 -0.01686812 -0.00034537
v -0.03960867 -0.02198802 -0.00034039
v -0.04040261 -0.02198802 0.04940905
v -0.04040548 -0.01686812 0.04939909
v -0.04018399 -0.01686812 -0.00002662
v -0.04018399 -0.02198802 -0.00002662
v -0.04040548 -0.02198802 0.04939909
v -0.04044000 -0.01686812 0.04859724
v -0.04040548 -0.01686812 0.00060091
v -0.04040548 -0.02198802 0.00060091
v -0.04044000 -0.02198802 0.04859724
v -0.04044000 -0.01686812 0.00140276
v -0.04041986 -0.01686812 0.00093460
v -0.04044000 -0.02198802 0.00140276
f 1 2 3
f 1 3 4
f 1 4 8
f 1 8 13
f 1 13 17
f 1 17 23
f 1 23 28
f 1 28 38
f 1 38 45
f 1 45 51
f 1 51 55
f 1 55 59
f 1 59 63
f 1 63 67
f 1 67 70
f 1 70 66
f 1 66 62
f 1 62 58
f 1 58 54
f 1 54 48
f 1 48 41
f 1 41 35
f 1 35 26
f 1 26 24
f 1 24 19
f 1 19 14
f 1 14 10
f 1 10 9
f 1 9 5
f 1 5 6
f 1 6 2
f 2 6 11
f 2 11 15
f 2 15 20
f 2 20 27
f 2 27 34
f 2 34 40
f 2 40 44
f 2 44 50
f 2 50 53
f 2 53 57
f 2 57 61
f 2 61 65
f 2 65 69
f 2 69 68
f 2 68 64
f 2 64 60
f 2 60 56
f 2 56 52
f 2 52 46
f 2 46 39
f 2 39 32
f 2 32 21
f 2 21 16
f 2 16 12
f 2 12 7
f 2 7 3
f 3 7 8
f 3 8 4
f 5 9 6
f 6 9 10
f 6 10 11
f 7 12 13
f 7 13 8
f 10 14 11
f 11 14 15
f 12 16 17
f 12 17 18
f 12 18 13
f 13 18 17
f 14 19 15
f 15 19 20
f 16 21 22
f 16 22 17
f 17 22 23
f 19 24 25
f 19 25 20
f 20 25 26
f 20 26 27
f 21 28 29
f 21 29 30
f 21 30 31
f 21 31 23
f 21 23 22
f 21 32 33
f 21 33 28
f 23 31 28
f 24 26 25
f 26 34 27
f 26 35 36
f 26 36 34
f 28 31 29
f 28 33 37
f 28 37 38
f 29 31 30
f 32 39 45
f 32 45 38
f 32 38 37
f 32 37 33
f 34 36 40
f 35 41 42
f 35 42 43
f 35 43 44
f 35 44 40
f 35 40 36
f 39 46 45
f 41 44 43
f 41 43 47
f 41 47 42
f 41 48 53
f 41 53 50
f 41 50 49
f 41 49 44
f 42 47 43
f 44 49 50
f 45 46 51
f 46 52 51
f 48 54 57
f 48 57 53
f 51 52 56
f 51 56 55
f 54 58 57
f 55 56 59
f 56 60 59
f 57 58 61
f 58 62 61
f 59 60 63
f 60 64 67
f 60 67 63
f 61 62 66
f 61 66 65
f 64 68 70
f 64 70 67
f 65 66 69
f 66 70 69
f 68 69 70

