# https://github.com/mikedh/trimesh
v 0.04044000 -0.00359534 0.04859724
v 0.04040459 -0.00359534 0.04939909
v 0.04043056 -0.01341321 0.04881140
v 0.04044000 -0.01341321 0.04859724
v 0.04044000 -0.00359534 0.00140276
v 0.04018499 -0.00359534 0.05002164
v 0.04018499 -0.00360015 0.05002662
v 0.04040459 -0.01341321 0.04939909
v 0.04044000 -0.01341321 0.00140276
v 0.04040459 -0.00359534 0.00060091
v 0.03959943 -0.00359534 0.05034537
v 0.04018499 -0.01341321 0.05002662
v 0.04040459 -0.01341321 0.00060091
v 0.04018499 -0.00360015 -0.00002662
v 0.04018027 -0.00359534 -0.00002662
v 0.03959943 -0.01341321 0.05034537
v 0.03879899 -0.00359534 0.05044000
v 0.04018499 -0.01341321 -0.00002662
v 0.03975526 -0.01341321 -0.00026070
v 0.03959943 -0.00359534 -0.00034537
v 0.03879899 -0.01341321 0.05044000
v 0.02040077 -0.00359534 0.05044000
v 0.03959943 -0.01341321 -0.00034537
v 0.03901150 -0.01341321 -0.00041510
v 0.03879899 -0.00359534 -0.00044000
v 0.01800183 -0.01341321 0.05044000
v 0.01960506 -0.00359534 0.05039517
v 0.01960034 -0.00440068 0.05041510
v 0.01960034 -0.00520026 0.05042506
v 0.01960034 -0.00600080 0.05043502
v 0.01800183 -0.01319986 0.05044000
v 0.03879899 -0.01341321 -0.00044000
v 0.02040077 -0.00359534 -0.00044000
v 0.01778696 -0.01341321 0.05042506
v 0.01893449 -0.00359534 0.05007145
v 0.01700305 -0.01341321 0.05023082
v 0.01720139 -0.01341321 0.05032545
v 0.01800183 -0.01239933 0.05043004
v 0.01800183 -0.01341321 -0.00044000
v 0.01800183 -0.01319986 -0.00044000
v 0.01960034 -0.00600080 -0.00043502
v 0.01960034 -0.00520026 -0.00042506
v 0.01960034 -0.00440068 -0.00041012
v 0.01960034 -0.00359534 -0.00039020
v 0.01657804 -0.01341321 0.04999176
v 0.01862518 -0.00359534 0.04939909
v 0.01720139 -0.01341321 -0.00032545
v 0.01800183 -0.01239933 -0.00042506
v 0.01893449 -0.00360015 -0.00007145
v 0.01893213 -0.00359534 -0.00006647
v 0.01650249 -0.01341321 0.04981745
v 0.01858268 -0.00359534 0.04860222
v 0.01858032 -0.00360015 0.04859724
v 0.01636318 -0.01341321 0.04939909
v 0.01657804 -0.01341321 0.00000824
v 0.01720139 -0.01319986 -0.00030055
v 0.01862518 -0.00359534 0.00060091
v 0.01858032 -0.00359534 0.00380830
v 0.01632068 -0.01341321 0.03075737
v 0.01632540 -0.01341321 0.04219740
v 0.01632776 -0.01341321 0.04779539
v 0.01633012 -0.01341321 0.04859724
v 0.01631832 -0.01341321 0.02460157
v 0.01635610 -0.01341321 0.00060091
v 0.01858032 -0.00359534 0.00140276
v 0.01632068 -0.01341321 0.00140276
v 0.01633012 -0.01341321 0.00117366
f 1 2 3
f 1 3 4
f 1 4 9
f 1 9 5
f 1 5 10
f 1 10 15
f 1 15 20
f 1 20 25
f 1 25 33
f 1 33 44
f 1 44 50
f 1 50 57
f 1 57 65
f 1 65 58
f 1 58 52
f 1 52 46
f 1 46 35
f 1 35 27
f 1 27 22
f 1 22 17
f 1 17 11
f 1 11 6
f 1 6 2
f 2 6 7
f 2 7 12
f 2 12 8
f 2 8 3
f 3 8 12
f 3 12 16
f 3 16 21
f 3 21 26
f 3 26 34
f 3 34 37
f 3 37 36
f 3 36 45
f 3 45 51
f 3 51 54
f 3 54 62
f 3 62 61
f 3 61 60
f 3 60 59
f 3 59 63
f 3 63 66
f 3 66 67
f 3 67 64
f 3 64 55
f 3 55 47
f 3 47 39
f 3 39 32
f 3 32 24
f 3 24 23
f 3 23 19
f 3 19 18
f 3 18 13
f 3 13 9
f 3 9 4
f 5 9 13
f 5 13 10
f 6 11 7
f 7 11 16
f 7 16 12
f 10 13 18
f 10 18 14
f 10 14 15
f 11 17 21
f 11 21 16
f 14 18 19
f 14 19 20
f 14 20 15
f 17 22 31
f 17 31 26
f 17 26 21
f 19 23 20
f 20 23 24
f 20 24 25
f 22 27 28
f 22 28 29
f 22 29 30
f 22 30 31
f 24 32 25
f 25 32 39
f 25 39 40
f 25 40 33
f 26 31 34
f 27 35 36
f 27 36 37
f 27 37 38
f 27 38 28
f 28 38 29
f 29 38 31
f 29 31 30
f 31 38 34
f 33 40 41
f 33 41 42
f 33 42 43
f 33 43 44
f 34 38 37
f 35 45 36
f 35 46 45
f 39 47 40
f 40 47 48
f 40 48 42
f 40 42 41
f 42 48 43
f 43 48 44
f 44 48 47
f 44 47 49
f 44 49 50
f 45 46 51
f 46 52 53
f 46 53 54
f 46 54 51
f 47 55 56
f 47 56 49
f 49 55 50
f 49 56 55
f 50 55 57
f 52 58 53
f 53 59 60
f 53 60 61
f 53 61 62
f 53 62 54
f 53 58 63
f 53 63 59
f 55 64 57
f 57 64 65
f 58 65 63
f 63 65 66
f 64 67 65
f 65 67 66

