# https://github.com/mikedh/trimesh
v -0.01752751 0.00966924 0.04859876
v -0.01453915 0.01722653 0.04859876
v -0.01454442 0.01722653 0.04876485
v -0.01456875 0.01722653 0.04939837
v -0.01752751 0.00970993 0.04898788
v -0.01752751 0.00968034 0.02620252
v -0.01453299 0.01722653 0.02620252
v -0.01752751 0.00978021 0.04936990
v -0.01457374 0.01722653 0.04946243
v -0.01752751 0.01722653 0.02620252
v -0.01752751 0.00980314 0.04945531
v -0.01482760 0.01722653 0.04999867
v -0.01752751 0.01015822 0.04988003
v -0.01752751 0.00983199 0.04954785
v -0.01752751 0.01722653 0.05044000
v -0.01484578 0.01722653 0.05001053
v -0.01752751 0.01018559 0.04989427
v -0.01752751 0.01527211 0.05044000
v -0.01639976 0.01722653 0.05044000
v -0.01752751 0.01064571 0.05000579
v -0.01531394 0.01722653 0.05023832
v -0.01752751 0.01447170 0.05043525
v -0.01719977 0.01559982 0.05044000
v -0.01639976 0.01719990 0.05044000
v -0.01560005 0.01722653 0.05037119
v -0.01557367 0.01722653 0.05036407
v -0.01752751 0.01135661 0.05014103
v -0.01719977 0.01479941 0.05043288
v -0.01752751 0.01367203 0.05041390
v -0.01639976 0.01639949 0.05043051
v -0.01719977 0.01399974 0.05039729
v -0.01560005 0.01719990 0.05036882
v -0.01719977 0.01320007 0.05030238
v -0.01752751 0.01287236 0.05035458
f 1 2 3
f 1 3 4
f 1 4 5
f 1 5 8
f 1 8 11
f 1 11 14
f 1 14 13
f 1 13 17
f 1 17 20
f 1 20 27
f 1 27 34
f 1 34 29
f 1 29 22
f 1 22 18
f 1 18 15
f 1 15 10
f 1 10 6
f 1 6 7
f 1 7 2
f 2 7 10
f 2 10 15
f 2 15 19
f 2 19 25
f 2 25 26
f 2 26 21
f 2 21 16
f 2 16 12
f 2 12 9
f 2 9 4
f 2 4 3
f 4 8 5
f 4 9 8
f 6 10 7
f 8 9 11
f 9 12 13
f 9 13 14
f 9 14 11
f 12 16 17
f 12 17 13
f 15 18 23
f 15 23 24
f 15 24 19
f 16 20 17
f 16 21 20
f 18 22 23
f 19 24 25
f 20 21 26
f 20 26 27
f 22 28 23
f 22 29 28
f 23 28 24
f 24 28 30
f 24 30 25
f 25 31 32
f 25 32 26
f 25 30 31
f 26 32 27
f 27 32 33
f 27 33 34
f 28 29 30
f 29 34 31
f 29 31 30
f 31 34 32
f 32 34 33

