# https://github.com/mikedh/trimesh
v -0.01095153 0.01239986 0.02379846
v -0.01104744 0.01301564 0.02379846
v -0.01108928 0.01295966 0.02459902
v -0.01103392 0.01239986 0.02459902
v -0.01114464 0.01184482 0.02459902
v -0.01110473 0.01173702 0.02379846
v -0.01095153 0.01239986 0.00140103
v -0.01152573 0.01341585 0.02379846
v -0.01104744 0.01301564 0.00140103
v -0.01165061 0.01338250 0.02458859
v -0.01115430 0.01286855 0.02505015
v -0.01115816 0.01239986 0.02504755
v -0.01118970 0.01196869 0.02501104
v -0.01201689 0.00963477 0.02494845
v -0.01185016 0.00994088 0.02464857
v -0.01196024 0.00953174 0.02441388
v -0.01124957 0.01133682 0.02379846
v -0.01110473 0.01173702 0.00140103
v -0.01112211 0.01178467 0.00060047
v -0.01098436 0.01239986 0.00060047
v -0.01106289 0.01299540 0.00060047
v -0.01192612 0.01363024 0.02379846
v -0.01195058 0.01362012 0.02431479
v -0.01152573 0.01341585 0.00140103
v -0.01209220 0.01355818 0.02484675
v -0.01160040 0.01239986 0.02526138
v -0.01562624 0.01502738 0.02619754
v -0.01157851 0.01166139 0.02517011
v -0.01181798 0.01080024 0.02514664
v -0.01192677 0.01016837 0.02507102
v -0.01233038 0.00994088 0.02521183
v -0.01255054 0.00941085 0.02513360
v -0.01233038 0.00929293 0.02464857
v -0.01240055 0.00911665 0.02379846
v -0.01194028 0.00949720 0.02379846
v -0.01173494 0.01000043 0.02379846
v -0.01124957 0.01133682 0.00140103
v -0.01176970 0.01000043 0.00060047
v -0.01198341 0.00957045 0.00017541
v -0.01115945 0.01188829 0.00014412
v -0.01110860 0.01239986 0.00007632
v -0.01111889 0.01291619 0.00009197
v -0.01165061 0.01343431 0.00054049
v -0.01537069 0.01502738 0.02379586
v -0.01537133 0.01502738 0.02459902
v -0.01543956 0.01502738 0.02537611
v -0.01192612 0.01363024 0.00140103
v -0.01536940 0.01502738 0.00300215
v -0.01195058 0.01362012 0.00076475
v -0.01240055 0.01160005 0.02542305
v -0.01240055 0.01080024 0.02536829
v -0.01589339 0.01502738 0.02620014
v -0.01572345 0.01479988 0.02620014
v -0.01752716 0.00968003 0.02620014
v -0.01320005 0.01000043 0.02539698
v -0.01752716 0.00957224 0.02608801
v -0.01320005 0.00936916 0.02517793
v -0.01320005 0.00904102 0.02459902
v -0.01320005 0.00894394 0.02379846
v -0.01240055 0.00911665 0.00140103
v -0.01194028 0.00949720 0.00140103
v -0.01173494 0.01000043 0.00140103
v -0.01195702 0.00952638 0.00060047
v -0.01190231 0.01000043 0.00007893
v -0.01240055 0.00916489 0.00060047
v -0.01240055 0.00940727 0.00002938
v -0.01240055 0.01000043 -0.00023399
v -0.01176133 0.01080024 -0.00004363
v -0.01155727 0.01161315 -0.00007492
v -0.01160040 0.01239986 -0.00023921
v -0.01200788 0.01359630 0.00023278
v -0.01160040 0.01308473 -0.00003581
v -0.01539064 0.01502738 0.00060308
v -0.01537004 0.01502738 0.00140103
v -0.01536940 0.01502738 0.00220159
v -0.01752716 0.01502738 0.02620014
v -0.01752716 0.00946504 0.02456512
v -0.01752716 0.00943645 0.02379846
v -0.01320005 0.00894394 0.00140103
v -0.01320005 0.00898384 0.00060047
v -0.01320005 0.00931199 -0.00007492
v -0.01320005 0.01000043 -0.00039567
v -0.01240055 0.01080024 -0.00036177
v -0.01240055 0.01160005 -0.00041914
v -0.01240055 0.01239986 -0.00043218
v -0.01254152 0.01369337 0.00008154
v -0.01583417 0.01502738 -0.00016619
v -0.01563847 0.01502738 -0.00007232
v -0.01320005 0.01319967 -0.00034351
v -0.01640000 0.01502738 -0.00036959
v -0.01752716 0.01502738 -0.00043739
v -0.01752716 0.00943645 0.02378543
v -0.01752716 0.00945253 0.00218333
v -0.01752716 0.00945313 0.00140103
v -0.01752716 0.00945611 0.00137495
v -0.01752716 0.00953174 0.00073607
v -0.01752716 0.00966157 0.00029276
v -0.01752716 0.01006058 -0.00002016
v -0.01752716 0.01080024 -0.00029397
v -0.01752716 0.01160005 -0.00043218
v -0.01479970 0.01080024 -0.00042696
v -0.01400020 0.01080024 -0.00043739
v -0.01320005 0.01080024 -0.00043739
v -0.01320005 0.01239986 -0.00043739
v -0.01719950 0.01502738 -0.00043739
v -0.01752716 0.01239986 -0.00043739
f 1 2 3
f 1 3 4
f 1 4 5
f 1 5 6
f 1 6 18
f 1 18 7
f 1 7 9
f 1 9 2
f 2 8 3
f 2 9 24
f 2 24 8
f 3 8 10
f 3 10 11
f 3 11 4
f 4 11 12
f 4 12 13
f 4 13 5
f 5 13 14
f 5 14 15
f 5 15 16
f 5 16 6
f 6 16 17
f 6 17 37
f 6 37 18
f 7 18 19
f 7 19 20
f 7 20 21
f 7 21 9
f 8 22 23
f 8 23 10
f 8 24 47
f 8 47 22
f 9 21 24
f 10 23 25
f 10 25 11
f 11 26 12
f 11 25 27
f 11 27 26
f 12 26 28
f 12 28 13
f 13 28 29
f 13 29 30
f 13 30 14
f 14 30 31
f 14 31 32
f 14 32 33
f 14 33 16
f 14 16 15
f 16 33 34
f 16 34 35
f 16 35 36
f 16 36 17
f 17 36 62
f 17 62 37
f 18 37 19
f 19 38 39
f 19 39 40
f 19 40 20
f 19 37 38
f 20 40 41
f 20 41 42
f 20 42 21
f 21 42 43
f 21 43 24
f 22 44 45
f 22 45 46
f 22 46 23
f 22 47 75
f 22 75 48
f 22 48 44
f 23 46 27
f 23 27 25
f 24 43 49
f 24 49 47
f 26 27 50
f 26 50 51
f 26 51 28
f 27 46 45
f 27 45 44
f 27 44 48
f 27 48 75
f 27 75 74
f 27 74 73
f 27 73 88
f 27 88 87
f 27 87 90
f 27 90 105
f 27 105 91
f 27 91 76
f 27 76 52
f 27 52 53
f 27 53 54
f 27 54 50
f 28 51 29
f 29 51 31
f 29 31 30
f 31 51 55
f 31 55 54
f 31 54 32
f 32 54 56
f 32 56 57
f 32 57 58
f 32 58 33
f 33 58 34
f 34 58 59
f 34 59 79
f 34 79 60
f 34 60 61
f 34 61 35
f 35 61 62
f 35 62 36
f 37 62 38
f 38 63 39
f 38 62 63
f 39 64 40
f 39 63 65
f 39 65 66
f 39 66 67
f 39 67 64
f 40 64 68
f 40 68 69
f 40 69 41
f 41 69 70
f 41 70 42
f 42 71 43
f 42 70 72
f 42 72 71
f 43 71 49
f 47 49 73
f 47 73 74
f 47 74 75
f 49 71 73
f 50 54 51
f 51 54 55
f 52 76 54
f 52 54 53
f 54 76 91
f 54 91 106
f 54 106 100
f 54 100 99
f 54 99 98
f 54 98 97
f 54 97 96
f 54 96 95
f 54 95 94
f 54 94 93
f 54 93 92
f 54 92 78
f 54 78 77
f 54 77 56
f 56 77 59
f 56 59 58
f 56 58 57
f 59 77 78
f 59 78 92
f 59 92 79
f 60 79 80
f 60 80 65
f 60 65 63
f 60 63 61
f 61 63 62
f 64 67 68
f 65 80 66
f 66 81 82
f 66 82 67
f 66 80 81
f 67 82 83
f 67 83 70
f 67 70 68
f 68 70 69
f 70 83 84
f 70 84 85
f 70 85 72
f 71 72 86
f 71 86 87
f 71 87 88
f 71 88 73
f 72 85 89
f 72 89 90
f 72 90 87
f 72 87 86
f 79 93 94
f 79 94 80
f 79 92 93
f 80 94 95
f 80 95 96
f 80 96 97
f 80 97 81
f 81 98 82
f 81 97 98
f 82 98 99
f 82 99 100
f 82 100 101
f 82 101 102
f 82 102 103
f 82 103 84
f 82 84 83
f 84 103 85
f 85 103 104
f 85 104 105
f 85 105 90
f 85 90 89
f 91 105 104
f 91 104 103
f 91 103 102
f 91 102 106
f 100 106 102
f 100 102 101

