# https://github.com/mikedh/trimesh
v -0.02306648 -0.02690348 0.02570506
v -0.04044000 -0.02690348 0.02570506
v -0.02306648 -0.03067862 0.02570506
v -0.02306648 -0.02690348 -0.00044000
v -0.04044000 -0.03067862 0.02570506
v -0.04044000 -0.02690348 0.00140008
v -0.02306648 -0.03067862 -0.00044000
v -0.03879890 -0.02690348 -0.00044000
v -0.04044000 -0.03067862 0.00140008
v -0.04040429 -0.02690348 0.00060161
v -0.03879890 -0.03067862 -0.00044000
v -0.03949616 -0.02690348 -0.00035810
v -0.04040429 -0.03067862 0.00060161
v -0.04037708 -0.02690348 0.00051971
v -0.03959990 -0.03067862 -0.00034531
v -0.03959990 -0.02690348 -0.00034531
v -0.04021892 -0.03067862 0.00006929
v -0.04018491 -0.02690348 -0.00002541
v -0.04018491 -0.03067862 -0.00002541
v -0.04011008 -0.02690348 -0.00006635
f 1 2 5
f 1 5 3
f 1 3 7
f 1 7 4
f 1 4 8
f 1 8 12
f 1 12 16
f 1 16 20
f 1 20 18
f 1 18 14
f 1 14 10
f 1 10 6
f 1 6 2
f 2 6 9
f 2 9 5
f 3 5 9
f 3 9 13
f 3 13 17
f 3 17 19
f 3 19 15
f 3 15 11
f 3 11 7
f 4 7 11
f 4 11 8
f 6 10 13
f 6 13 9
f 8 11 12
f 10 14 13
f 11 15 12
f 12 15 16
f 13 14 17
f 14 18 17
f 15 19 20
f 15 20 16
f 17 18 19
f 18 20 19

