# https://github.com/mikedh/trimesh
v -0.00734465 0.02503033 0.02460157
v -0.01082394 0.02223374 0.02198684
v -0.01083690 0.02223374 0.00140276
v -0.00740944 0.02503033 0.00140276
v -0.00734789 0.02503033 0.02633475
v -0.01084662 0.02223374 0.04859724
v -0.01082394 0.02223374 0.02699715
v -0.01088549 0.02223374 0.00060091
v -0.00746776 0.02503033 0.00066067
v -0.00740944 0.02503033 0.04709316
v -0.00741268 0.02503033 0.04789002
v -0.00741592 0.02503033 0.04859724
v -0.01088225 0.02223374 0.04923474
v -0.01104099 0.02223374 0.00017259
v -0.00747424 0.02503033 0.00060091
v -0.00742240 0.02503033 0.04868689
v -0.01089197 0.02223374 0.04939909
v -0.01109606 0.02223374 0.00006800
v -0.01106043 0.02225127 0.00007797
v -0.00796341 0.02477570 0.00017259
v -0.00778523 0.02503033 0.00006302
v -0.00747424 0.02503033 0.04939909
v -0.01104423 0.02223374 0.04983737
v -0.01158848 0.02223374 -0.00017106
v -0.00840075 0.02503033 -0.00017604
v -0.00748719 0.02503033 0.04942897
v -0.00796341 0.02477433 0.04983239
v -0.01107015 0.02223374 0.04990709
v -0.01240161 0.02223374 -0.00040015
v -0.01160143 0.02280024 -0.00037027
v -0.01000109 0.02439977 -0.00039020
v -0.00919444 0.02503033 -0.00035533
v -0.00778523 0.02503033 0.04994196
v -0.01106043 0.02224908 0.04992702
v -0.01109282 0.02223374 0.04993698
v -0.01240161 0.02280024 -0.00043502
v -0.01080126 0.02439977 -0.00044000
v -0.01320178 0.02223374 -0.00044000
v -0.01000109 0.02503033 -0.00042506
v -0.00788566 0.02503033 0.05000172
v -0.01134551 0.02223374 0.05008639
v -0.01080126 0.02503033 -0.00044000
v -0.03879754 0.02223374 -0.00044000
v -0.00855301 0.02503033 0.05024078
v -0.01158848 0.02223374 0.05017604
v -0.03879754 0.02503033 -0.00044000
v -0.03959771 0.02223374 -0.00034537
v -0.00937262 0.02503033 0.05041012
v -0.01216836 0.02223374 0.05038023
v -0.03959771 0.02503033 -0.00034537
v -0.04018407 0.02223374 -0.00002662
v -0.01296853 0.02223374 0.05043502
v -0.01240161 0.02223374 0.05040015
v -0.01016955 0.02503033 0.05044000
v -0.01080126 0.02439977 0.05044000
v -0.04018407 0.02503033 -0.00002662
v -0.04024887 0.02223374 0.00015765
v -0.01320178 0.02223374 0.05044000
v -0.03879754 0.02503033 0.05044000
v -0.04035901 0.02503033 0.00047142
v -0.04040437 0.02223374 0.00060091
v -0.03879754 0.02223374 0.05044000
v -0.03896924 0.02503033 0.05042008
v -0.04040437 0.02503033 0.00060091
v -0.04044000 0.02223374 0.00140276
v -0.03959771 0.02223374 0.05034537
v -0.03959771 0.02503033 0.05034537
v -0.04044000 0.02503033 0.00140276
v -0.04044000 0.02223374 0.04859724
v -0.04018407 0.02223374 0.05002662
v -0.04018407 0.02503033 0.05002662
v -0.04044000 0.02503033 0.04859724
v -0.04040437 0.02223374 0.04939909
v -0.04040437 0.02503033 0.04939909
f 1 2 3
f 1 3 4
f 1 4 9
f 1 9 15
f 1 15 21
f 1 21 25
f 1 25 32
f 1 32 39
f 1 39 42
f 1 42 46
f 1 46 50
f 1 50 56
f 1 56 60
f 1 60 64
f 1 64 68
f 1 68 72
f 1 72 74
f 1 74 71
f 1 71 67
f 1 67 63
f 1 63 59
f 1 59 54
f 1 54 48
f 1 48 44
f 1 44 40
f 1 40 33
f 1 33 26
f 1 26 22
f 1 22 16
f 1 16 12
f 1 12 11
f 1 11 10
f 1 10 5
f 1 5 6
f 1 6 7
f 1 7 2
f 2 7 6
f 2 6 13
f 2 13 17
f 2 17 23
f 2 23 28
f 2 28 35
f 2 35 41
f 2 41 45
f 2 45 49
f 2 49 53
f 2 53 52
f 2 52 58
f 2 58 62
f 2 62 66
f 2 66 70
f 2 70 73
f 2 73 69
f 2 69 65
f 2 65 61
f 2 61 57
f 2 57 51
f 2 51 47
f 2 47 43
f 2 43 38
f 2 38 29
f 2 29 24
f 2 24 18
f 2 18 14
f 2 14 8
f 2 8 3
f 3 8 4
f 4 8 9
f 5 10 6
f 6 10 11
f 6 11 12
f 6 12 13
f 8 14 15
f 8 15 9
f 12 16 17
f 12 17 13
f 14 18 19
f 14 19 20
f 14 20 15
f 15 20 21
f 16 22 17
f 17 22 23
f 18 21 19
f 18 24 21
f 19 21 20
f 21 24 25
f 22 26 27
f 22 27 28
f 22 28 23
f 24 29 30
f 24 30 25
f 25 30 31
f 25 31 32
f 26 33 27
f 27 33 34
f 27 34 28
f 28 34 35
f 29 36 37
f 29 37 31
f 29 31 30
f 29 38 36
f 31 37 39
f 31 39 32
f 33 40 35
f 33 35 34
f 35 40 41
f 36 38 37
f 37 42 39
f 37 38 43
f 37 43 46
f 37 46 42
f 40 44 45
f 40 45 41
f 43 47 50
f 43 50 46
f 44 48 49
f 44 49 45
f 47 51 56
f 47 56 50
f 48 52 53
f 48 53 49
f 48 54 55
f 48 55 52
f 51 57 56
f 52 55 58
f 54 59 62
f 54 62 58
f 54 58 55
f 56 57 60
f 57 61 60
f 59 63 62
f 60 61 64
f 61 65 68
f 61 68 64
f 62 63 66
f 63 67 66
f 65 69 72
f 65 72 68
f 66 67 71
f 66 71 70
f 69 73 74
f 69 74 72
f 70 71 74
f 70 74 73

