# https://github.com/mikedh/trimesh
v -0.02306648 -0.03067899 0.02570506
v -0.04044000 -0.03067899 0.02570506
v -0.02306648 -0.03267879 0.02570506
v -0.02306648 -0.03067899 -0.00044000
v -0.04044000 -0.03267899 0.02570506
v -0.04044000 -0.03067899 0.00140008
v -0.02317192 -0.03267899 0.02570506
v -0.02306648 -0.03267899 0.02453294
v -0.02306648 -0.03267899 -0.00044000
v -0.03879890 -0.03067899 -0.00044000
v -0.04044000 -0.03267899 0.00140008
v -0.04040429 -0.03067899 0.00060161
v -0.04042809 -0.03267899 0.00112113
v -0.03879890 -0.03267899 -0.00044000
v -0.03932099 -0.03267899 -0.00037858
v -0.03959990 -0.03067899 -0.00034531
v -0.04021892 -0.03067899 0.00006929
v -0.04032776 -0.03267899 0.00038151
v -0.04040429 -0.03267899 0.00060161
v -0.03959990 -0.03267899 -0.00034531
v -0.03998084 -0.03267899 -0.00013801
v -0.04018491 -0.03067899 -0.00002541
v -0.04018491 -0.03267899 -0.00002541
f 1 2 5
f 1 5 7
f 1 7 3
f 1 3 8
f 1 8 9
f 1 9 4
f 1 4 10
f 1 10 16
f 1 16 22
f 1 22 17
f 1 17 12
f 1 12 6
f 1 6 2
f 2 6 11
f 2 11 5
f 3 7 8
f 4 9 14
f 4 14 10
f 5 11 13
f 5 13 19
f 5 19 18
f 5 18 23
f 5 23 21
f 5 21 20
f 5 20 15
f 5 15 14
f 5 14 9
f 5 9 8
f 5 8 7
f 6 12 13
f 6 13 11
f 10 15 16
f 10 14 15
f 12 17 18
f 12 18 19
f 12 19 13
f 15 20 16
f 16 20 21
f 16 21 22
f 17 22 23
f 17 23 18
f 21 23 22

