# https://github.com/mikedh/trimesh
v -0.02306648 -0.03267897 0.02570506
v -0.04044000 -0.03267923 0.02570506
v -0.02306648 -0.03527205 0.02570506
v -0.02306648 -0.03267923 -0.00044000
v -0.03879890 -0.03267923 -0.00044000
v -0.03932099 -0.03267923 -0.00037858
v -0.03959990 -0.03267923 -0.00034531
v -0.03998084 -0.03267923 -0.00013801
v -0.04018491 -0.03267923 -0.00002541
v -0.04032776 -0.03267923 0.00038151
v -0.04040429 -0.03267923 0.00060161
v -0.04042809 -0.03267923 0.00112113
v -0.04044000 -0.03267923 0.00140008
v -0.04044000 -0.03527205 0.02570506
v -0.02306648 -0.03527205 -0.00044000
v -0.03912712 -0.03527205 -0.00040161
v -0.03879890 -0.03527205 -0.00044000
v -0.03959990 -0.03527205 -0.00034531
v -0.03983968 -0.03527205 -0.00021479
v -0.04018491 -0.03527205 -0.00002541
v -0.04027504 -0.03527205 0.00023052
v -0.04040429 -0.03527205 0.00060161
v -0.04041959 -0.03527205 0.00092919
v -0.04044000 -0.03527205 0.00140008
f 1 2 14
f 1 14 3
f 1 3 15
f 1 15 4
f 1 4 5
f 1 5 6
f 1 6 7
f 1 7 8
f 1 8 9
f 1 9 10
f 1 10 11
f 1 11 12
f 1 12 13
f 1 13 2
f 2 13 24
f 2 24 14
f 3 14 24
f 3 24 23
f 3 23 22
f 3 22 21
f 3 21 20
f 3 20 19
f 3 19 18
f 3 18 16
f 3 16 17
f 3 17 15
f 4 15 17
f 4 17 5
f 5 16 6
f 5 17 16
f 6 16 18
f 6 18 7
f 7 18 8
f 8 19 20
f 8 20 9
f 8 18 19
f 9 20 21
f 9 21 10
f 10 22 11
f 10 21 22
f 11 22 23
f 11 23 12
f 12 24 13
f 12 23 24

