# https://github.com/mikedh/trimesh
v 0.00017648 0.03879891 0.05044000
v -0.03879801 0.03879891 0.05044000
v 0.00017648 0.02920273 0.05044000
v 0.00017648 0.03959985 0.05034537
v -0.03879801 0.03959985 0.05034537
v -0.03959714 0.03879891 0.05034537
v -0.03947389 0.02692511 0.05036031
v -0.03879801 0.02692511 0.05044000
v -0.01017246 0.02503061 0.05044000
v 0.00017648 0.02840330 0.05042008
v 0.00017648 0.04018207 0.05002164
v -0.03879801 0.04018207 0.05002164
v -0.03959714 0.04013833 0.04996686
v -0.03959714 0.03959985 0.05024078
v -0.04013784 0.03959985 0.04996686
v -0.04018555 0.03879891 0.05002164
v -0.04018555 0.02692511 0.05002662
v -0.03959714 0.02692511 0.05034537
v -0.03896499 0.02503061 0.05042008
v -0.03959316 0.02503061 0.05034537
v -0.03879403 0.02503061 0.05044000
v -0.00937333 0.02503061 0.05041012
v 0.00017648 0.02819364 0.05033541
v 0.00017648 0.04040380 0.04938913
v -0.03879801 0.04040380 0.04938913
v -0.03959714 0.04031028 0.04938913
v -0.04005833 0.04005839 0.04987223
v -0.04030880 0.03959985 0.04938913
v -0.04040422 0.03879891 0.04938913
v -0.04018555 0.02503061 0.05002662
v -0.00855432 0.02503061 0.05024078
v 0.00017648 0.02765817 0.05010133
v 0.00017648 0.04044000 0.04859724
v -0.03879801 0.04044000 0.04859724
v -0.03959714 0.04034347 0.04859724
v -0.04010604 0.04010816 0.04938913
v -0.04034458 0.03959985 0.04859724
v -0.04044000 0.03879891 0.04859724
v -0.04040422 0.02692511 0.04938913
v -0.04040024 0.02503061 0.04939909
v -0.00788639 0.02503061 0.05000172
v -0.00778302 0.02503061 0.04994196
v 0.00017648 0.02755258 0.04990709
v 0.00017648 0.04044000 0.02140912
v -0.03879801 0.04044000 0.00140774
v -0.03960509 0.04034347 0.02140912
v -0.04012194 0.04012626 0.04859724
v -0.04034458 0.03959985 0.00140774
v -0.04044000 0.02503061 0.04859724
v -0.04044000 0.03879891 0.00140774
v -0.00748881 0.02503061 0.04942897
v 0.00017648 0.02727806 0.04938913
v 0.00017648 0.02724186 0.02140912
v 0.00016853 0.03879891 -0.00044000
v 0.00016853 0.03959985 -0.00034039
v 0.00016853 0.04018207 -0.00002164
v 0.00016853 0.04040380 0.00061087
v 0.00016853 0.04044000 0.00140774
v -0.03879801 0.04040380 0.00061087
v -0.03959714 0.04031330 0.00061087
v -0.03959714 0.04034347 0.00140774
v -0.04012194 0.04012626 0.00140774
v -0.04011001 0.04010816 0.00061087
v -0.04031278 0.03959985 0.00061087
v -0.04044000 0.02503061 0.00140276
v -0.04040422 0.03879891 0.00061087
v -0.04044000 0.02692511 0.00140276
v -0.00747688 0.02503061 0.04939909
v 0.00017648 0.02724488 0.04859724
v 0.00017648 0.02724186 0.03579756
v -0.00734966 0.02503061 0.02380968
v 0.00016853 0.02724186 0.00140774
v 0.00016853 0.02727806 0.00061087
v 0.00016853 0.02765817 -0.00009635
v 0.00016853 0.02840631 -0.00042008
v 0.00016853 0.02920424 -0.00044000
v -0.03879801 0.03879891 -0.00044000
v -0.03879801 0.03959985 -0.00034039
v -0.03879801 0.04018207 -0.00002164
v -0.02686274 0.04020319 0.00003314
v -0.03959714 0.04013833 0.00003314
v -0.04006230 0.04006140 0.00012777
v -0.04013784 0.03959985 0.00003314
v -0.04040422 0.02692511 0.00061087
v -0.04043205 0.02503061 0.00123342
v -0.04035651 0.02503061 0.00047142
v -0.04018158 0.03879891 -0.00002164
v -0.04018555 0.02692511 -0.00002662
v -0.00741725 0.02503061 0.04859724
v -0.00740929 0.02503061 0.04629131
v -0.00734966 0.02503061 0.02633475
v 0.00017648 0.02724337 0.04597256
v -0.00740929 0.02503061 0.00220958
v -0.00741327 0.02503061 0.00140276
v -0.00747688 0.02503061 0.00060091
v -0.00778699 0.02503061 0.00006302
v -0.00840324 0.02503061 -0.00017604
v -0.00919442 0.02503061 -0.00035533
v -0.00920237 0.02520105 -0.00041012
v -0.01000150 0.02503061 -0.00042506
v -0.01000150 0.02520105 -0.00044000
v -0.03959316 0.02692511 -0.00034537
v -0.03959714 0.03879891 -0.00034039
v -0.03879801 0.02692511 -0.00044000
v -0.03959714 0.03959985 -0.00024078
v -0.04040024 0.02503061 0.00060091
v -0.04018555 0.02503061 -0.00002662
v -0.01080460 0.02503061 -0.00044000
v -0.03959316 0.02503061 -0.00034537
v -0.03879403 0.02503061 -0.00044000
f 1 2 8
f 1 8 21
f 1 21 9
f 1 9 3
f 1 3 10
f 1 10 23
f 1 23 32
f 1 32 43
f 1 43 52
f 1 52 69
f 1 69 92
f 1 92 70
f 1 70 53
f 1 53 44
f 1 44 33
f 1 33 24
f 1 24 11
f 1 11 4
f 1 4 5
f 1 5 2
f 2 5 6
f 2 6 7
f 2 7 8
f 3 9 10
f 4 11 12
f 4 12 5
f 5 12 13
f 5 13 14
f 5 14 6
f 6 14 15
f 6 15 16
f 6 16 17
f 6 17 30
f 6 30 18
f 6 18 7
f 7 19 8
f 7 18 20
f 7 20 19
f 8 19 21
f 9 21 19
f 9 19 20
f 9 20 30
f 9 30 40
f 9 40 49
f 9 49 65
f 9 65 85
f 9 85 106
f 9 106 86
f 9 86 107
f 9 107 109
f 9 109 110
f 9 110 108
f 9 108 100
f 9 100 98
f 9 98 97
f 9 97 96
f 9 96 95
f 9 95 94
f 9 94 93
f 9 93 71
f 9 71 91
f 9 91 90
f 9 90 89
f 9 89 68
f 9 68 51
f 9 51 42
f 9 42 41
f 9 41 31
f 9 31 22
f 9 22 10
f 10 22 23
f 11 24 25
f 11 25 12
f 12 25 13
f 13 25 26
f 13 26 27
f 13 27 14
f 14 27 15
f 15 27 28
f 15 28 29
f 15 29 16
f 16 29 17
f 17 29 39
f 17 39 30
f 18 30 20
f 22 31 32
f 22 32 23
f 24 33 34
f 24 34 25
f 25 34 26
f 26 34 35
f 26 35 36
f 26 36 27
f 27 36 28
f 28 36 37
f 28 37 38
f 28 38 29
f 29 38 49
f 29 49 39
f 30 39 40
f 31 41 32
f 32 41 42
f 32 42 43
f 33 44 58
f 33 58 45
f 33 45 34
f 34 45 46
f 34 46 35
f 35 47 36
f 35 46 47
f 36 47 37
f 37 47 62
f 37 62 48
f 37 48 50
f 37 50 38
f 38 50 67
f 38 67 65
f 38 65 49
f 39 49 40
f 42 51 52
f 42 52 43
f 44 53 76
f 44 76 54
f 44 54 55
f 44 55 56
f 44 56 57
f 44 57 58
f 45 58 57
f 45 57 59
f 45 59 60
f 45 60 61
f 45 61 46
f 46 61 62
f 46 62 47
f 48 62 63
f 48 63 64
f 48 64 50
f 50 64 66
f 50 66 67
f 51 68 52
f 52 68 69
f 53 70 91
f 53 91 71
f 53 71 72
f 53 72 73
f 53 73 74
f 53 74 75
f 53 75 76
f 54 76 101
f 54 101 108
f 54 108 110
f 54 110 104
f 54 104 77
f 54 77 78
f 54 78 55
f 55 78 79
f 55 79 56
f 56 79 80
f 56 80 57
f 57 80 59
f 59 80 79
f 59 79 81
f 59 81 60
f 60 81 82
f 60 82 63
f 60 63 61
f 61 63 62
f 63 82 64
f 64 82 83
f 64 83 66
f 65 67 66
f 65 66 84
f 65 84 85
f 66 86 84
f 66 83 87
f 66 87 88
f 66 88 86
f 68 89 69
f 69 89 90
f 69 90 91
f 69 91 92
f 70 92 91
f 71 93 72
f 72 93 94
f 72 94 95
f 72 95 73
f 73 95 96
f 73 96 74
f 74 96 97
f 74 97 98
f 74 98 75
f 75 98 99
f 75 99 100
f 75 100 101
f 75 101 76
f 77 102 103
f 77 103 105
f 77 105 78
f 77 104 109
f 77 109 102
f 78 105 81
f 78 81 79
f 81 105 82
f 82 105 83
f 83 105 103
f 83 103 87
f 84 86 106
f 84 106 85
f 86 88 107
f 87 103 88
f 88 103 102
f 88 102 109
f 88 109 107
f 98 100 99
f 100 108 101
f 104 110 109

