# https://github.com/mikedh/trimesh
v 0.04044000 0.03879785 0.04859724
v 0.04034541 0.03959773 0.04859724
v 0.04040453 0.03879785 0.04939909
v 0.04044000 0.02161330 0.04859724
v 0.04044000 0.03879785 0.00140276
v 0.04012076 0.04012484 0.04859724
v 0.04010894 0.04010825 0.04939909
v 0.04030994 0.03959773 0.04939909
v 0.04034541 0.03959773 0.00140276
v 0.04040453 0.02674065 0.04939909
v 0.04013653 0.03959773 0.04996686
v 0.04017988 0.03879785 0.05002662
v 0.04018382 0.02503768 0.05002662
v 0.04040059 0.02161330 0.04939909
v 0.04044000 0.02161330 0.00140276
v 0.04041636 0.03534951 0.00084993
v 0.04040453 0.03879785 0.00060091
v 0.04031388 0.03959773 0.00060091
v 0.03959658 0.04034600 0.04859724
v 0.04012076 0.04012484 0.00140276
v 0.03959658 0.04031099 0.04939909
v 0.04005770 0.04005849 0.04987223
v 0.04010894 0.04011010 0.00060091
v 0.04018382 0.02161330 0.05002662
v 0.03959658 0.03959773 0.05024078
v 0.03959658 0.03879785 0.05034537
v 0.04040059 0.02161330 0.00060091
v 0.04040453 0.02674065 0.00060091
v 0.04021929 0.02907948 0.00007298
v 0.04017988 0.03879785 -0.00002662
v 0.04013653 0.03959773 0.00002816
v 0.04006165 0.04006217 0.00012279
v 0.03879257 0.04044000 0.04859724
v 0.03959658 0.04034600 0.00140276
v 0.03879257 0.04040498 0.04939909
v 0.03959658 0.04013774 0.04996686
v 0.03959658 0.04031283 0.00060091
v 0.03959658 0.02161330 0.05034537
v 0.03879257 0.03959773 0.05034537
v 0.03879257 0.03879785 0.05044000
v 0.03947440 0.02907948 0.05036031
v 0.04018382 0.02161330 -0.00002662
v 0.04018382 0.02503768 -0.00002662
v 0.03959658 0.03879785 -0.00034537
v 0.03959658 0.03959773 -0.00024576
v 0.03959658 0.04013958 0.00002816
v 0.00018042 0.04044000 0.04859724
v 0.03879257 0.04044000 0.00140276
v 0.00018042 0.04040498 0.04939909
v 0.03879257 0.04018382 0.05002662
v 0.03879257 0.04040498 0.00060091
v 0.03943105 0.02503768 0.05036529
v 0.03879651 0.02161330 0.05044000
v 0.00018042 0.03959773 0.05034537
v 0.00018042 0.03879785 0.05044000
v 0.03879651 0.02503768 0.05044000
v 0.03959658 0.02161330 -0.00034537
v 0.03964387 0.02673881 -0.00032047
v 0.03964387 0.02674065 -0.00032047
v 0.03879257 0.03959773 -0.00034537
v 0.03879651 0.02503768 -0.00044000
v 0.03879257 0.03879785 -0.00044000
v 0.03879257 0.04018382 -0.00002662
v 0.00018042 0.04044000 0.00140276
v 0.00017648 0.03325397 0.02943756
v 0.00018042 0.04018382 0.05002662
v 0.00018042 0.04040498 0.00060091
v 0.01400229 0.02161330 0.05044000
v 0.00018042 0.03325397 0.05044000
v 0.03879651 0.02161330 -0.00044000
v 0.00018042 0.03959773 -0.00034537
v 0.00018042 0.03879785 -0.00044000
v 0.00018042 0.04018382 -0.00002662
v 0.00017648 0.03325397 -0.00043502
v 0.00017648 0.02907948 0.02943756
v 0.01320222 0.02200034 0.05044000
v 0.01320222 0.02161330 0.05042008
v 0.00018042 0.02897995 0.05043502
v 0.00360140 0.02840308 0.05044000
v 0.01359240 0.02161330 -0.00044000
v 0.00018042 0.03325397 -0.00044000
v 0.00017648 0.02907948 -0.00043502
v 0.00018042 0.02724196 0.02597616
v 0.00018042 0.02724565 0.04859724
v 0.00018042 0.02728066 0.04939909
v 0.00018042 0.02755343 0.04990709
v 0.00018042 0.02765849 0.05010133
v 0.00018042 0.02819481 0.05033541
v 0.00018042 0.02840308 0.05042506
v 0.01238639 0.02161330 0.05025572
v 0.00360140 0.02840308 -0.00044000
v 0.01320222 0.02161330 -0.00042008
v 0.00018042 0.02840308 -0.00042008
v 0.00018042 0.02862608 -0.00042506
v 0.00292351 0.02907948 -0.00044000
v 0.00018042 0.02765664 -0.00010133
v 0.00018042 0.02727698 0.00060091
v 0.00018042 0.02725302 0.00117864
v 0.00018042 0.02724380 0.00140276
v 0.00018042 0.02724196 0.02517431
v 0.01143261 0.02161330 0.04859724
v 0.01147202 0.02161330 0.04939909
v 0.01175973 0.02161330 0.04999176
v 0.01279233 0.02161330 -0.00039020
v 0.01238639 0.02161330 -0.00025572
v 0.01194497 0.02161330 -0.00010133
v 0.01175973 0.02161330 0.00000824
v 0.01155873 0.02161330 0.00037181
v 0.01147202 0.02161330 0.00060091
v 0.01143261 0.02161330 0.00140276
f 1 2 8
f 1 8 3
f 1 3 10
f 1 10 4
f 1 4 15
f 1 15 5
f 1 5 9
f 1 9 2
f 2 6 7
f 2 7 8
f 2 9 20
f 2 20 6
f 3 8 11
f 3 11 12
f 3 12 13
f 3 13 24
f 3 24 10
f 4 10 14
f 4 14 24
f 4 24 38
f 4 38 53
f 4 53 68
f 4 68 77
f 4 77 90
f 4 90 103
f 4 103 102
f 4 102 101
f 4 101 110
f 4 110 109
f 4 109 108
f 4 108 107
f 4 107 106
f 4 106 105
f 4 105 104
f 4 104 92
f 4 92 80
f 4 80 70
f 4 70 57
f 4 57 42
f 4 42 27
f 4 27 15
f 5 15 16
f 5 16 17
f 5 17 18
f 5 18 9
f 6 19 7
f 6 20 34
f 6 34 19
f 7 21 22
f 7 22 8
f 7 19 21
f 8 22 11
f 9 18 23
f 9 23 20
f 10 24 14
f 11 25 26
f 11 26 12
f 11 22 25
f 12 26 13
f 13 26 38
f 13 38 24
f 15 27 28
f 15 28 16
f 16 28 17
f 17 28 29
f 17 29 30
f 17 30 31
f 17 31 18
f 18 31 32
f 18 32 23
f 19 33 35
f 19 35 21
f 19 34 48
f 19 48 33
f 20 23 34
f 21 35 36
f 21 36 22
f 22 36 25
f 23 32 37
f 23 37 34
f 25 39 26
f 25 36 39
f 26 39 40
f 26 40 41
f 26 41 38
f 27 42 28
f 28 42 29
f 29 42 43
f 29 43 30
f 30 44 31
f 30 43 44
f 31 44 45
f 31 45 32
f 32 45 46
f 32 46 37
f 33 47 49
f 33 49 35
f 33 48 64
f 33 64 47
f 34 37 48
f 35 49 66
f 35 66 50
f 35 50 36
f 36 50 39
f 37 51 48
f 37 46 51
f 38 41 52
f 38 52 53
f 39 50 66
f 39 66 54
f 39 54 55
f 39 55 40
f 40 55 69
f 40 69 79
f 40 79 76
f 40 76 68
f 40 68 53
f 40 53 56
f 40 56 41
f 41 56 53
f 41 53 52
f 42 57 58
f 42 58 59
f 42 59 43
f 43 59 44
f 44 60 45
f 44 59 58
f 44 58 57
f 44 57 70
f 44 70 61
f 44 61 62
f 44 62 60
f 45 60 46
f 46 60 63
f 46 63 51
f 47 64 74
f 47 74 65
f 47 65 49
f 48 51 67
f 48 67 64
f 49 65 66
f 51 63 73
f 51 73 67
f 54 66 65
f 54 65 55
f 55 65 75
f 55 75 69
f 60 71 73
f 60 73 63
f 60 62 72
f 60 72 71
f 61 70 80
f 61 80 91
f 61 91 95
f 61 95 81
f 61 81 72
f 61 72 62
f 64 67 74
f 65 74 82
f 65 82 75
f 67 73 74
f 68 76 77
f 69 75 78
f 69 78 79
f 71 72 74
f 71 74 73
f 72 81 82
f 72 82 74
f 75 83 84
f 75 84 85
f 75 85 86
f 75 86 87
f 75 87 88
f 75 88 89
f 75 89 78
f 75 82 100
f 75 100 83
f 76 79 78
f 76 78 89
f 76 89 77
f 77 89 90
f 80 92 93
f 80 93 94
f 80 94 82
f 80 82 91
f 81 95 82
f 82 95 91
f 82 94 93
f 82 93 96
f 82 96 97
f 82 97 98
f 82 98 99
f 82 99 100
f 83 100 110
f 83 110 101
f 83 101 84
f 84 101 102
f 84 102 85
f 85 102 103
f 85 103 86
f 86 103 87
f 87 103 90
f 87 90 88
f 88 90 89
f 92 104 93
f 93 104 96
f 96 104 105
f 96 105 106
f 96 106 107
f 96 107 97
f 97 107 108
f 97 108 109
f 97 109 98
f 98 109 99
f 99 109 110
f 99 110 100

