# https://github.com/mikedh/trimesh
v -0.01721256 -0.01559894 0.05044000
v -0.01721256 -0.01686812 0.05044000
v -0.01721256 -0.01479894 0.05043502
v -0.02040051 0.00037221 0.05044000
v -0.03879828 -0.01686812 0.05044000
v -0.01721256 -0.01686812 -0.00044000
v -0.01721256 -0.01399895 0.05039517
v -0.01960011 0.00037221 0.05034537
v -0.01962739 0.00037221 0.05035035
v -0.03879828 0.00037221 0.05044000
v -0.03926669 -0.01686812 0.05038522
v -0.03879828 -0.01686812 -0.00044000
v -0.01721256 -0.01239897 -0.00044000
v -0.01721256 -0.01319896 0.05030055
v -0.01900890 0.00037221 0.05002662
v -0.03959867 0.00037221 0.05034537
v -0.03959867 -0.01686812 0.05034537
v -0.03879828 0.00037221 -0.00044000
v -0.03959867 -0.01686812 -0.00034537
v -0.01721256 -0.01158885 -0.00042008
v -0.02040051 0.00037221 -0.00044000
v -0.01721256 -0.01208336 0.05008639
v -0.01879289 0.00037221 0.04941901
v -0.04018533 0.00037221 0.05002662
v -0.04018533 -0.01686812 0.05002662
v -0.03959867 0.00037221 -0.00034537
v -0.04018533 -0.01686812 -0.00002662
v -0.01721256 -0.01078717 -0.00023580
v -0.01960011 0.00037221 -0.00035035
v -0.01900208 0.00037221 -0.00003160
v -0.01721256 -0.01159898 0.04982741
v -0.01878607 0.00037221 0.04939909
v -0.04040589 0.00037221 0.04939909
v -0.04040589 -0.01686812 0.04939909
v -0.04018533 0.00037221 -0.00002662
v -0.04040589 -0.01686812 0.00060091
v -0.01878152 0.00037221 0.00060091
v -0.01721256 -0.01015764 0.00007298
v -0.01721256 -0.01093063 0.04939909
v -0.01875196 0.00037221 0.04859724
v -0.04044000 0.00037221 0.04859724
v -0.04044000 -0.01686812 0.04859724
v -0.04040589 0.00037221 0.00060091
v -0.04044000 -0.01686812 0.00140276
v -0.01877924 0.00037221 0.00063079
v -0.01721256 -0.00987410 0.00051126
v -0.01721256 -0.01081249 0.04859724
v -0.01874514 0.00037221 0.03262503
v -0.01721256 -0.00979140 0.02380470
v -0.04044000 0.00037221 0.00140276
v -0.01875651 0.00037221 0.00140276
v -0.01721256 -0.00986566 0.00054114
v -0.01721256 -0.00978971 0.02300285
v -0.01874286 0.00037221 0.01983032
v -0.01875423 0.00037221 0.00300147
v -0.01721256 -0.00980490 0.00140276
v -0.01874286 0.00037221 0.01980044
v -0.01874514 0.00037221 0.01580116
f 1 2 6
f 1 6 13
f 1 13 20
f 1 20 28
f 1 28 38
f 1 38 46
f 1 46 52
f 1 52 56
f 1 56 53
f 1 53 49
f 1 49 47
f 1 47 39
f 1 39 31
f 1 31 22
f 1 22 14
f 1 14 7
f 1 7 3
f 1 3 4
f 1 4 10
f 1 10 5
f 1 5 2
f 2 5 11
f 2 11 17
f 2 17 25
f 2 25 34
f 2 34 42
f 2 42 44
f 2 44 36
f 2 36 27
f 2 27 19
f 2 19 12
f 2 12 6
f 3 7 8
f 3 8 9
f 3 9 4
f 4 9 8
f 4 8 15
f 4 15 23
f 4 23 32
f 4 32 40
f 4 40 48
f 4 48 54
f 4 54 57
f 4 57 58
f 4 58 55
f 4 55 51
f 4 51 45
f 4 45 37
f 4 37 30
f 4 30 29
f 4 29 21
f 4 21 18
f 4 18 26
f 4 26 35
f 4 35 43
f 4 43 50
f 4 50 41
f 4 41 33
f 4 33 24
f 4 24 16
f 4 16 10
f 5 10 11
f 6 12 18
f 6 18 21
f 6 21 13
f 7 14 15
f 7 15 8
f 10 16 11
f 11 16 17
f 12 19 26
f 12 26 18
f 13 21 20
f 14 22 15
f 15 22 23
f 16 24 25
f 16 25 17
f 19 27 35
f 19 35 26
f 20 21 29
f 20 29 30
f 20 30 28
f 22 31 32
f 22 32 23
f 24 33 34
f 24 34 25
f 27 36 43
f 27 43 35
f 28 30 37
f 28 37 38
f 31 39 32
f 32 39 40
f 33 41 42
f 33 42 34
f 36 44 50
f 36 50 43
f 37 45 46
f 37 46 38
f 39 47 40
f 40 47 49
f 40 49 48
f 41 50 44
f 41 44 42
f 45 51 52
f 45 52 46
f 48 49 53
f 48 53 54
f 51 55 56
f 51 56 52
f 53 57 54
f 53 56 57
f 55 58 56
f 56 58 57

