# https://github.com/mikedh/trimesh
v -0.01721004 -0.01686812 0.02620252
v -0.01721004 -0.01081233 0.02620252
v -0.01473159 -0.01686812 0.02620252
v -0.01721004 -0.01686812 0.05044000
v -0.01721004 -0.01081410 0.04859876
v -0.01473426 -0.01686812 0.04830454
v -0.01719985 -0.01686812 0.05044000
v -0.01721004 -0.01559958 0.05044000
v -0.01721004 -0.01081648 0.04861537
v -0.01476435 -0.01686812 0.04937701
v -0.01473450 -0.01686812 0.04859876
v -0.01719985 -0.01559958 0.05044000
v -0.01639991 -0.01686812 0.05043525
v -0.01721004 -0.01479993 0.05043525
v -0.01721004 -0.01093147 0.04939837
v -0.01496743 -0.01686812 0.04996071
v -0.01719985 -0.01479993 0.05043525
v -0.01639991 -0.01639983 0.05043051
v -0.01557400 -0.01686812 0.05027628
v -0.01721004 -0.01399968 0.05039729
v -0.01721004 -0.01160012 0.04983021
v -0.01674031 -0.01263037 0.04988003
v -0.01721004 -0.01208501 0.05008646
v -0.01719985 -0.01399968 0.05039729
v -0.01639991 -0.01559958 0.05037119
v -0.01719985 -0.01320003 0.05030238
v -0.01721004 -0.01320003 0.05030475
f 1 2 3
f 1 3 6
f 1 6 11
f 1 11 10
f 1 10 16
f 1 16 19
f 1 19 13
f 1 13 7
f 1 7 4
f 1 4 8
f 1 8 14
f 1 14 20
f 1 20 27
f 1 27 23
f 1 23 21
f 1 21 15
f 1 15 9
f 1 9 5
f 1 5 2
f 2 5 3
f 3 5 6
f 4 7 12
f 4 12 8
f 5 9 10
f 5 10 11
f 5 11 6
f 7 13 12
f 8 12 17
f 8 17 14
f 9 15 10
f 10 15 16
f 12 13 17
f 13 18 17
f 13 19 18
f 14 17 24
f 14 24 20
f 15 21 22
f 15 22 16
f 16 23 19
f 16 22 23
f 17 18 24
f 18 19 25
f 18 25 24
f 19 23 26
f 19 26 25
f 20 24 27
f 21 23 22
f 23 27 26
f 24 25 26
f 24 26 27

