# https://github.com/mikedh/trimesh
v -0.02306648 -0.03527306 0.02570506
v -0.04044000 -0.03527306 0.02570506
v -0.02306648 -0.04044000 0.02570506
v -0.02306648 -0.03527306 -0.00044000
v -0.04044000 -0.03879963 0.02570506
v -0.04044000 -0.03527306 0.00140008
v -0.03879720 -0.04044000 0.02570506
v -0.02306648 -0.04044000 0.00140008
v -0.02306648 -0.03879963 -0.00044000
v -0.03879720 -0.03527306 -0.00044000
v -0.04038218 -0.03929432 0.02570506
v -0.04044000 -0.03879963 0.00140008
v -0.04040429 -0.03527306 0.00060161
v -0.03959820 -0.04034642 0.02570506
v -0.03879720 -0.04044000 0.00140008
v -0.02306648 -0.04040510 0.00060161
v -0.02306648 -0.03959933 -0.00034275
v -0.03879720 -0.03879963 -0.00044000
v -0.03912712 -0.03527306 -0.00040161
v -0.04034477 -0.03959933 0.02570506
v -0.04034477 -0.03959933 0.00140008
v -0.04040429 -0.03879963 0.00060161
v -0.04031075 -0.03959933 0.00060161
v -0.04018491 -0.03527306 -0.00002541
v -0.04012539 -0.04012639 0.02570506
v -0.03959820 -0.04034642 0.00140008
v -0.03879720 -0.04040510 0.00060161
v -0.02497457 -0.04024779 0.00015118
v -0.02306648 -0.04033175 0.00039175
v -0.03879720 -0.03959933 -0.00034275
v -0.02306648 -0.03998982 -0.00013289
v -0.02497457 -0.03976524 -0.00025573
v -0.03959820 -0.03879963 -0.00034275
v -0.03959820 -0.03527306 -0.00034275
v -0.04012539 -0.04012639 0.00140008
v -0.04010838 -0.04010869 0.00060161
v -0.04018491 -0.03879963 -0.00002541
v -0.04013559 -0.03959933 0.00003090
v -0.04005906 -0.04006063 0.00012559
v -0.03983798 -0.03527306 -0.00021479
v -0.03959820 -0.04031152 0.00060161
v -0.03959820 -0.04013803 0.00003090
v -0.03879720 -0.04018507 -0.00002541
v -0.02306648 -0.04018507 -0.00002541
v -0.03959820 -0.03959933 -0.00023782
f 1 2 5
f 1 5 11
f 1 11 20
f 1 20 25
f 1 25 14
f 1 14 7
f 1 7 3
f 1 3 8
f 1 8 16
f 1 16 29
f 1 29 44
f 1 44 31
f 1 31 17
f 1 17 9
f 1 9 4
f 1 4 10
f 1 10 19
f 1 19 34
f 1 34 40
f 1 40 24
f 1 24 13
f 1 13 6
f 1 6 2
f 2 6 12
f 2 12 5
f 3 7 15
f 3 15 8
f 4 9 18
f 4 18 10
f 5 12 11
f 6 13 22
f 6 22 12
f 7 14 26
f 7 26 15
f 8 15 27
f 8 27 16
f 9 17 30
f 9 30 18
f 10 18 19
f 11 12 21
f 11 21 20
f 12 22 23
f 12 23 21
f 13 24 37
f 13 37 22
f 14 25 35
f 14 35 26
f 15 26 41
f 15 41 27
f 16 27 28
f 16 28 29
f 17 31 32
f 17 32 30
f 18 30 33
f 18 33 19
f 19 33 34
f 20 21 35
f 20 35 25
f 21 23 36
f 21 36 35
f 22 37 38
f 22 38 23
f 23 38 39
f 23 39 36
f 24 40 37
f 26 35 36
f 26 36 41
f 27 41 42
f 27 42 43
f 27 43 28
f 28 44 29
f 28 43 44
f 30 32 43
f 30 43 42
f 30 42 45
f 30 45 33
f 31 44 43
f 31 43 32
f 33 45 38
f 33 38 37
f 33 37 40
f 33 40 34
f 36 39 41
f 38 45 39
f 39 45 42
f 39 42 41

