# https://github.com/mikedh/trimesh
v -0.00743648 -0.02496519 0.02618036
v -0.01105508 -0.02198832 0.02645926
v -0.01107769 -0.02198832 0.04648554
v -0.01108092 -0.02198832 0.04859724
v -0.00751402 -0.02496519 0.04774559
v -0.00743648 -0.02496519 0.02458164
v -0.01105508 -0.02198832 0.02380470
v -0.01109708 -0.02198832 0.04890603
v -0.00751726 -0.02496519 0.04859724
v -0.00751402 -0.02496519 0.00214982
v -0.01108739 -0.02198832 0.00140276
v -0.01105831 -0.02198832 0.02140413
v -0.01112616 -0.02198832 0.04939909
v -0.00756895 -0.02496519 0.04939909
v -0.00751726 -0.02496519 0.00140276
v -0.01112939 -0.02198832 0.00060091
v -0.01158817 -0.02198832 0.05008639
v -0.01106154 -0.02225150 0.04992702
v -0.00795666 -0.02477079 0.04983737
v -0.00782419 -0.02496519 0.04991705
v -0.00752049 -0.02496519 0.00134299
v -0.00757541 -0.02496519 0.00060091
v -0.00758833 -0.02496519 0.00053118
v -0.01121339 -0.02198832 0.00035687
v -0.01240236 -0.02198832 0.05038023
v -0.01240236 -0.02200027 0.05038522
v -0.00840252 -0.02496519 0.05015113
v -0.00783065 -0.02496519 0.00008793
v -0.00796312 -0.02477458 0.00017259
v -0.01106154 -0.02225354 0.00007298
v -0.01159140 -0.02198832 -0.00008639
v -0.01319069 -0.02198832 0.05043502
v -0.01320039 -0.02200027 0.05044000
v -0.01000181 -0.02439978 0.05039020
v -0.00919086 -0.02496519 0.05033541
v -0.00796312 -0.02496519 0.00000824
v -0.00860929 -0.02496519 -0.00023082
v -0.01241205 -0.02198832 -0.00038522
v -0.01400165 -0.02198832 0.05044000
v -0.01080307 -0.02439978 0.05044000
v -0.01000181 -0.02496519 0.05042506
v -0.00943640 -0.02496519 -0.00040514
v -0.01321331 -0.02198832 -0.00044000
v -0.03879871 -0.02198832 0.05044000
v -0.01080307 -0.02496519 0.05044000
v -0.01023766 -0.02496519 -0.00043502
v -0.01320039 -0.02200027 -0.00044000
v -0.03879871 -0.02198832 -0.00044000
v -0.03959997 -0.02198832 0.05034537
v -0.03879871 -0.02496519 0.05044000
v -0.01103569 -0.02496519 -0.00044000
v -0.03959997 -0.02198832 -0.00034537
v -0.03879871 -0.02496519 -0.00044000
v -0.04018476 -0.02198832 0.05002662
v -0.03959997 -0.02496519 0.05034537
v -0.03959997 -0.02496519 -0.00034537
v -0.04018476 -0.02198832 -0.00002662
v -0.04040123 -0.02198832 0.04940905
v -0.04018476 -0.02496519 0.05002662
v -0.04018476 -0.02496519 -0.00002662
v -0.04024938 -0.02496519 0.00015765
v -0.04040446 -0.02198832 0.00060091
v -0.04040446 -0.02198832 0.04939909
v -0.04040446 -0.02496519 0.04939909
v -0.04040446 -0.02496519 0.00060091
v -0.04044000 -0.02198832 0.00140276
v -0.04044000 -0.02198832 0.04859724
v -0.04044000 -0.02496519 0.04859724
v -0.04044000 -0.02496519 0.00140276
f 1 2 3
f 1 3 4
f 1 4 5
f 1 5 9
f 1 9 14
f 1 14 20
f 1 20 27
f 1 27 35
f 1 35 41
f 1 41 45
f 1 45 50
f 1 50 55
f 1 55 59
f 1 59 64
f 1 64 68
f 1 68 69
f 1 69 65
f 1 65 61
f 1 61 60
f 1 60 56
f 1 56 53
f 1 53 51
f 1 51 46
f 1 46 42
f 1 42 37
f 1 37 36
f 1 36 28
f 1 28 23
f 1 23 22
f 1 22 21
f 1 21 15
f 1 15 10
f 1 10 6
f 1 6 7
f 1 7 2
f 2 7 12
f 2 12 11
f 2 11 16
f 2 16 24
f 2 24 31
f 2 31 38
f 2 38 43
f 2 43 48
f 2 48 52
f 2 52 57
f 2 57 62
f 2 62 66
f 2 66 67
f 2 67 63
f 2 63 58
f 2 58 54
f 2 54 49
f 2 49 44
f 2 44 39
f 2 39 32
f 2 32 25
f 2 25 17
f 2 17 13
f 2 13 8
f 2 8 4
f 2 4 3
f 4 8 9
f 4 9 5
f 6 10 11
f 6 11 12
f 6 12 7
f 8 13 9
f 9 13 14
f 10 15 11
f 11 15 16
f 13 17 18
f 13 18 19
f 13 19 14
f 14 19 20
f 15 21 16
f 16 21 22
f 16 22 23
f 16 23 24
f 17 25 26
f 17 26 27
f 17 27 20
f 17 20 18
f 18 20 19
f 23 28 29
f 23 29 24
f 24 29 30
f 24 30 31
f 25 32 26
f 26 32 33
f 26 33 34
f 26 34 35
f 26 35 27
f 28 30 29
f 28 36 31
f 28 31 30
f 31 37 38
f 31 36 37
f 32 39 33
f 33 40 34
f 33 39 44
f 33 44 50
f 33 50 45
f 33 45 40
f 34 41 35
f 34 40 41
f 37 42 38
f 38 42 43
f 40 45 41
f 42 46 47
f 42 47 43
f 43 47 51
f 43 51 53
f 43 53 48
f 44 49 55
f 44 55 50
f 46 51 47
f 48 53 56
f 48 56 52
f 49 54 59
f 49 59 55
f 52 56 60
f 52 60 57
f 54 58 59
f 57 60 61
f 57 61 62
f 58 63 64
f 58 64 59
f 61 65 62
f 62 65 69
f 62 69 66
f 63 67 68
f 63 68 64
f 66 69 68
f 66 68 67

