# https://github.com/mikedh/trimesh
v -0.01753004 0.01722653 0.05044000
v -0.03879829 0.01722653 0.05044000
v -0.01753004 0.01527172 0.05044000
v -0.01753004 0.01722653 -0.00044000
v -0.03959896 0.01722653 0.05034537
v -0.03879829 0.00037390 0.05044000
v -0.02040080 0.00037390 0.05044000
v -0.01753004 0.01447165 0.05043502
v -0.01753004 0.01239971 -0.00044000
v -0.03879829 0.01722653 -0.00044000
v -0.04016638 0.01722653 0.05003659
v -0.03959896 0.00037390 0.05034537
v -0.01962704 0.00037390 0.05035035
v -0.01753004 0.01367158 0.05041510
v -0.01753004 0.01159964 -0.00043004
v -0.02040080 0.00037390 -0.00044000
v -0.03959896 0.01722653 -0.00034537
v -0.03879829 0.00037390 -0.00044000
v -0.04018433 0.01722653 0.05002662
v -0.04018433 0.00037390 0.05002662
v -0.01960012 0.00037390 0.05034537
v -0.01753004 0.01287151 0.05035533
v -0.01960012 0.00037390 -0.00035035
v -0.01753004 0.01079957 -0.00029557
v -0.01900355 0.00037390 -0.00003160
v -0.03959896 0.00037390 -0.00034537
v -0.03961915 0.01722653 -0.00033541
v -0.04039739 0.01722653 0.04941901
v -0.04040412 0.00037390 0.04939909
v -0.01902822 0.00037390 0.05003659
v -0.01901027 0.00037390 0.05002662
v -0.01753004 0.01135550 0.05014117
v -0.01753004 0.01005888 -0.00001666
v -0.01878151 0.00037390 0.00060091
v -0.04016638 0.00037390 -0.00003659
v -0.04018433 0.01722653 -0.00002662
v -0.04040412 0.01722653 0.04939909
v -0.04040636 0.00037390 0.04936921
v -0.01879273 0.00037390 0.04941901
v -0.01753004 0.01018426 0.04989215
v -0.01753004 0.01064450 0.05000670
v -0.01753004 0.00966132 0.00029212
v -0.01877927 0.00037390 0.00063079
v -0.04018433 0.00037390 -0.00002662
v -0.04039739 0.00037390 0.00058099
v -0.04040412 0.01722653 0.00060091
v -0.04044000 0.01722653 0.04859724
v -0.04044000 0.00037390 0.04859724
v -0.01878600 0.00037390 0.04939909
v -0.01753004 0.01015621 0.04987721
v -0.01753004 0.00953100 0.00073538
v -0.01875684 0.00037390 0.00140276
v -0.04040412 0.00037390 0.00060091
v -0.04040636 0.01722653 0.00063079
v -0.04044000 0.01722653 0.00140276
v -0.04044000 0.00037390 0.00140276
v -0.01753004 0.00983124 0.04954850
v -0.01875236 0.00037390 0.04859724
v -0.01753004 0.00945182 0.00140276
v -0.01875460 0.00037390 0.00220461
v -0.01753004 0.00980154 0.04945388
v -0.01753004 0.00966792 0.04859724
v -0.01753004 0.00970916 0.04898571
v -0.01753004 0.00977845 0.04936921
v -0.01874563 0.00037390 0.03502559
v -0.01753004 0.00943532 0.02380470
v -0.01753004 0.00943532 0.02378976
v -0.01874338 0.00037390 0.01900357
v -0.01874563 0.00037390 0.01500429
v -0.01874338 0.00037390 0.02542334
f 1 2 6
f 1 6 7
f 1 7 3
f 1 3 8
f 1 8 14
f 1 14 22
f 1 22 32
f 1 32 41
f 1 41 40
f 1 40 50
f 1 50 57
f 1 57 61
f 1 61 64
f 1 64 63
f 1 63 62
f 1 62 66
f 1 66 67
f 1 67 59
f 1 59 51
f 1 51 42
f 1 42 33
f 1 33 24
f 1 24 15
f 1 15 9
f 1 9 4
f 1 4 10
f 1 10 17
f 1 17 27
f 1 27 36
f 1 36 46
f 1 46 54
f 1 54 55
f 1 55 47
f 1 47 37
f 1 37 28
f 1 28 19
f 1 19 11
f 1 11 5
f 1 5 2
f 2 5 12
f 2 12 6
f 3 7 8
f 4 9 16
f 4 16 18
f 4 18 10
f 5 11 12
f 6 12 20
f 6 20 29
f 6 29 38
f 6 38 48
f 6 48 56
f 6 56 53
f 6 53 45
f 6 45 44
f 6 44 35
f 6 35 26
f 6 26 18
f 6 18 16
f 6 16 23
f 6 23 25
f 6 25 34
f 6 34 43
f 6 43 52
f 6 52 60
f 6 60 69
f 6 69 68
f 6 68 70
f 6 70 65
f 6 65 58
f 6 58 49
f 6 49 39
f 6 39 31
f 6 31 30
f 6 30 21
f 6 21 13
f 6 13 7
f 7 13 8
f 8 13 14
f 9 15 16
f 10 18 26
f 10 26 17
f 11 19 20
f 11 20 12
f 13 21 14
f 14 21 22
f 15 23 16
f 15 24 25
f 15 25 23
f 17 26 27
f 19 28 20
f 20 28 29
f 21 30 22
f 22 30 31
f 22 31 32
f 24 33 25
f 25 33 34
f 26 35 27
f 27 35 36
f 28 37 29
f 29 37 38
f 31 39 40
f 31 40 41
f 31 41 32
f 33 42 34
f 34 42 43
f 35 44 36
f 36 45 46
f 36 44 45
f 37 47 38
f 38 47 48
f 39 49 40
f 40 49 50
f 42 51 43
f 43 51 52
f 45 53 46
f 46 53 54
f 47 55 56
f 47 56 48
f 49 57 50
f 49 58 57
f 51 59 52
f 52 59 60
f 53 56 54
f 54 56 55
f 57 58 61
f 58 62 63
f 58 63 64
f 58 64 61
f 58 65 66
f 58 66 62
f 59 67 68
f 59 68 69
f 59 69 60
f 65 70 66
f 66 70 68
f 66 68 67

