# https://github.com/mikedh/trimesh
v 0.04043694 -0.02019190 0.04859724
v 0.04041246 -0.02019190 0.04918991
v 0.04043388 -0.02373145 0.04872673
v 0.04043694 -0.02373145 0.04859724
v 0.04043694 -0.02019190 0.00140276
v 0.04040328 -0.02019190 0.04939909
v 0.04040328 -0.02373145 0.04939909
v 0.04043694 -0.02373145 0.00140276
v 0.04043082 -0.02019190 0.00119358
v 0.04024108 -0.02019190 0.04986227
v 0.04036962 -0.02373145 0.04949870
v 0.04040940 -0.02373145 0.00073538
v 0.04040328 -0.02019190 0.00060091
v 0.04040328 -0.02373145 0.00060091
v 0.04018293 -0.02019190 0.05002662
v 0.04018293 -0.02373145 0.05002662
v 0.04034819 -0.02019190 0.00044154
v 0.04018293 -0.02373145 -0.00002662
v 0.03959841 -0.02019190 0.05034537
v 0.03959841 -0.02373145 0.05034537
v 0.04018293 -0.02019190 -0.00002662
v 0.03959841 -0.02373145 -0.00034537
v 0.03879966 -0.02019190 0.05044000
v 0.03879966 -0.02373145 0.05044000
v 0.03959841 -0.02019190 -0.00034537
v 0.03939031 -0.02019190 -0.00037027
v 0.03879966 -0.02373145 -0.00044000
v 0.01500860 -0.02019190 0.05044000
v 0.01226960 -0.02373145 0.05044000
v 0.03879966 -0.02019190 -0.00044000
v 0.01240119 -0.02373145 -0.00044000
v 0.01420985 -0.02019190 0.05043004
v 0.01480050 -0.02040013 0.05044000
v 0.01320300 -0.02199979 0.05044000
v 0.01147085 -0.02373145 0.05043502
v 0.01560230 -0.02019190 -0.00044000
v 0.01240119 -0.02359979 -0.00044000
v 0.01160244 -0.02373145 -0.00043502
v 0.01400175 -0.02019190 0.05040015
v 0.01066904 -0.02373145 0.05037525
v 0.01080063 -0.02373145 0.05038522
v 0.01480050 -0.02040013 -0.00044000
v 0.01480050 -0.02019190 -0.00043502
v 0.01320300 -0.02199979 -0.00044000
v 0.01160244 -0.02359979 -0.00043502
v 0.01080063 -0.02373145 -0.00038522
v 0.01328563 -0.02019190 0.05018102
v 0.00982439 -0.02373145 0.05009635
v 0.01400175 -0.02040013 -0.00042506
v 0.01400175 -0.02019190 -0.00039517
v 0.00998965 -0.02373145 -0.00015113
v 0.01080063 -0.02359979 -0.00037525
v 0.01316934 -0.02019190 0.05012125
v 0.00963465 -0.02373145 0.05000670
v 0.01316628 -0.02019190 -0.00012125
v 0.00963159 -0.02373145 -0.00000670
v 0.00998659 -0.02357900 -0.00009635
v 0.01273783 -0.02019190 0.04980748
v 0.01260623 -0.02054253 0.04996686
v 0.00946633 -0.02373145 0.04983737
v 0.01260317 -0.02053906 0.00003314
v 0.01299184 -0.02019190 0.00001820
v 0.00926435 -0.02373145 0.00060091
v 0.01264908 -0.02019190 0.00042660
v 0.01265214 -0.02019190 0.04955846
v 0.00926741 -0.02373145 0.04939909
v 0.00922150 -0.02373145 0.00134797
v 0.01263072 -0.02019190 0.00064075
v 0.01263684 -0.02019190 0.04943395
v 0.00921844 -0.02373145 0.04859724
v 0.00921844 -0.02373145 0.00140276
v 0.01260317 -0.02019190 0.00140276
v 0.01260929 -0.02019190 0.04889109
v 0.01260011 -0.02019190 0.04859724
v 0.00921538 -0.02373145 0.04779539
v 0.00921538 -0.02373145 0.00294669
v 0.01260011 -0.02019190 0.00220461
v 0.01259705 -0.02019190 0.02779900
v 0.00917866 -0.02373145 0.02619530
v 0.00921232 -0.02373145 0.00454042
v 0.00920926 -0.02373145 0.00620389
v 0.00919090 -0.02373145 0.01660301
v 0.00917866 -0.02373145 0.02371505
v 0.01259705 -0.02019190 0.02220100
f 1 2 3
f 1 3 4
f 1 4 8
f 1 8 5
f 1 5 9
f 1 9 13
f 1 13 17
f 1 17 21
f 1 21 25
f 1 25 26
f 1 26 30
f 1 30 36
f 1 36 43
f 1 43 50
f 1 50 55
f 1 55 62
f 1 62 64
f 1 64 68
f 1 68 72
f 1 72 77
f 1 77 84
f 1 84 78
f 1 78 74
f 1 74 73
f 1 73 69
f 1 69 65
f 1 65 58
f 1 58 53
f 1 53 47
f 1 47 39
f 1 39 32
f 1 32 28
f 1 28 23
f 1 23 19
f 1 19 15
f 1 15 10
f 1 10 6
f 1 6 2
f 2 6 3
f 3 6 7
f 3 7 11
f 3 11 16
f 3 16 20
f 3 20 24
f 3 24 29
f 3 29 35
f 3 35 41
f 3 41 40
f 3 40 48
f 3 48 54
f 3 54 60
f 3 60 66
f 3 66 70
f 3 70 75
f 3 75 79
f 3 79 83
f 3 83 82
f 3 82 81
f 3 81 80
f 3 80 76
f 3 76 71
f 3 71 67
f 3 67 63
f 3 63 56
f 3 56 51
f 3 51 46
f 3 46 38
f 3 38 31
f 3 31 27
f 3 27 22
f 3 22 18
f 3 18 14
f 3 14 12
f 3 12 8
f 3 8 4
f 5 8 9
f 6 10 11
f 6 11 7
f 8 12 9
f 9 12 14
f 9 14 13
f 10 15 16
f 10 16 11
f 13 14 17
f 14 18 17
f 15 19 20
f 15 20 16
f 17 18 21
f 18 22 25
f 18 25 21
f 19 23 24
f 19 24 20
f 22 26 25
f 22 27 26
f 23 28 33
f 23 33 34
f 23 34 29
f 23 29 24
f 26 27 30
f 27 31 37
f 27 37 44
f 27 44 42
f 27 42 36
f 27 36 30
f 28 32 33
f 29 34 35
f 31 38 45
f 31 45 37
f 32 39 40
f 32 40 41
f 32 41 35
f 32 35 34
f 32 34 33
f 36 42 43
f 37 45 44
f 38 46 45
f 39 47 40
f 40 47 48
f 42 44 49
f 42 49 43
f 43 49 50
f 44 45 49
f 45 46 49
f 46 51 52
f 46 52 49
f 47 53 54
f 47 54 48
f 49 52 50
f 50 52 51
f 50 51 55
f 51 56 57
f 51 57 55
f 53 58 59
f 53 59 54
f 54 59 58
f 54 58 60
f 55 57 56
f 55 56 61
f 55 61 62
f 56 63 64
f 56 64 61
f 58 65 66
f 58 66 60
f 61 64 62
f 63 67 68
f 63 68 64
f 65 69 66
f 66 69 70
f 67 71 68
f 68 71 72
f 69 73 70
f 70 73 74
f 70 74 75
f 71 76 77
f 71 77 72
f 74 78 79
f 74 79 75
f 76 80 77
f 77 80 81
f 77 81 82
f 77 82 83
f 77 83 84
f 78 84 83
f 78 83 79

