# https://github.com/mikedh/trimesh
v 0.01837023 -0.00295964 0.00220067
v 0.01431296 -0.00241967 0.00140108
v 0.01837023 -0.00295790 0.00140108
v 0.01837023 -0.00295848 0.00940202
v 0.01431296 -0.00241967 0.02379963
v 0.01391328 -0.00227541 0.00140108
v 0.01434197 -0.00241330 0.00083577
v 0.01837023 -0.00292894 0.00119227
v 0.01837023 -0.00295732 0.01659828
v 0.01837023 -0.00295675 0.01979917
v 0.01837023 -0.00295617 0.02299750
v 0.01837023 -0.00295211 0.02358064
v 0.01837023 -0.00295037 0.02379963
v 0.01434197 -0.00241330 0.02428091
v 0.01391328 -0.00227541 0.02379963
v 0.01343808 -0.00187507 0.00140108
v 0.01345408 -0.00184842 0.00060150
v 0.01404534 -0.00227251 0.00058113
v 0.01480017 -0.00238433 0.00035194
v 0.01837023 -0.00284551 0.00059640
v 0.01837023 -0.00291271 0.02438022
v 0.01837023 -0.00288780 0.02458903
v 0.01837023 -0.00271631 0.02512124
v 0.01480017 -0.00232871 0.02472145
v 0.01404534 -0.00221747 0.02456866
v 0.01347910 -0.00180728 0.02459922
v 0.01343808 -0.00187507 0.02379963
v 0.01326800 -0.00119952 0.00140108
v 0.01330002 -0.00119952 0.00060150
v 0.01351311 -0.00174819 0.00008457
v 0.01400032 -0.00190346 -0.00004275
v 0.01837023 -0.00253439 0.00011513
v 0.01480017 -0.00198457 -0.00011151
v 0.01837023 -0.00240866 -0.00004530
v 0.01837023 -0.00262303 0.02521037
v 0.01480017 -0.00192837 0.02521037
v 0.01400032 -0.00183393 0.02514925
v 0.01354663 -0.00169257 0.02505758
v 0.01335304 -0.00119952 0.02459922
v 0.01326800 -0.00119952 0.02379963
v 0.01326050 -0.00040000 0.00140108
v 0.01329251 -0.00040000 0.00060150
v 0.01346609 -0.00119952 0.00002091
v 0.01400032 -0.00119952 -0.00029485
v 0.01480017 -0.00119952 -0.00043236
v 0.01837023 -0.00156974 -0.00035597
v 0.01837023 -0.00201585 0.02547265
v 0.01480017 -0.00119952 0.02543191
v 0.01400032 -0.00119952 0.02530458
v 0.01351911 -0.00119952 0.02508814
v 0.01334754 -0.00040000 0.02459922
v 0.01326050 -0.00040000 0.02379963
v 0.01326050 0.00039953 0.00140108
v 0.01329251 0.00039953 0.00060150
v 0.01346259 -0.00040000 0.00001836
v 0.01400032 -0.00040000 -0.00030249
v 0.01480017 -0.00040000 -0.00044000
v 0.01837023 -0.00077021 -0.00043745
v 0.01837023 -0.00119952 -0.00043236
v 0.01837023 -0.00119952 0.02557196
v 0.01480017 -0.00040000 0.02543955
v 0.01400032 -0.00040000 0.02530968
v 0.01351761 -0.00040000 0.02509068
v 0.01334754 0.00039953 0.02459922
v 0.01326050 0.00039953 0.02379963
v 0.01326800 0.00119963 0.00140108
v 0.01330002 0.00119963 0.00060150
v 0.01346609 0.00119963 0.00002091
v 0.01346259 0.00039953 0.00001836
v 0.01400032 0.00039953 -0.00030249
v 0.01837023 -0.00040000 -0.00044000
v 0.01480017 0.00039953 -0.00044000
v 0.01837023 0.00119963 0.02557196
v 0.01480017 0.00039953 0.02543955
v 0.01400032 0.00039953 0.02530968
v 0.01351761 0.00039953 0.02509068
v 0.01335304 0.00119963 0.02459922
v 0.01351911 0.00119963 0.02508814
v 0.01326800 0.00119963 0.02379963
v 0.01343808 0.00187518 0.00140108
v 0.01345408 0.00184853 0.00060150
v 0.01351311 0.00174772 0.00008457
v 0.01400032 0.00119963 -0.00029485
v 0.01837023 0.00039953 -0.00044000
v 0.01480017 0.00119963 -0.00043236
v 0.01837023 0.00174018 0.02554140
v 0.01480017 0.00119963 0.02543191
v 0.01400032 0.00119963 0.02530458
v 0.01354663 0.00169268 0.02505758
v 0.01347910 0.00180739 0.02459922
v 0.01343808 0.00187518 0.02379963
v 0.01391328 0.00227494 0.00140108
v 0.01404534 0.00227262 0.00058113
v 0.01400032 0.00190299 -0.00004275
v 0.01837023 0.00119963 -0.00043236
v 0.01480017 0.00198468 -0.00011151
v 0.01837023 0.00203798 -0.00016498
v 0.01837023 0.00201596 0.02547265
v 0.01837023 0.00255651 0.02533005
v 0.01480017 0.00192848 0.02521037
v 0.01400032 0.00183404 0.02514925
v 0.01404534 0.00221700 0.02456866
v 0.01391328 0.00227494 0.02379963
v 0.01431296 0.00241978 0.00140108
v 0.01434197 0.00241283 0.00083577
v 0.01480017 0.00238444 0.00035194
v 0.01837023 0.00253392 0.00011513
v 0.01837023 0.00262604 0.02521037
v 0.01480017 0.00232824 0.02472145
v 0.01434197 0.00241283 0.02428091
v 0.01431296 0.00241978 0.02379963
v 0.01837023 0.00295628 0.00460197
v 0.01837023 0.00295570 0.00220067
v 0.01837023 0.00295454 0.00140108
v 0.01837023 0.00295917 0.02299750
v 0.01837023 0.00287864 0.00084596
v 0.01837023 0.00284388 0.00059640
v 0.01837023 0.00264458 0.00028064
v 0.01837023 0.00289197 0.02458903
v 0.01837023 0.00295338 0.02379963
f 1 2 3
f 1 3 8
f 1 8 20
f 1 20 32
f 1 32 34
f 1 34 46
f 1 46 59
f 1 59 58
f 1 58 71
f 1 71 84
f 1 84 95
f 1 95 97
f 1 97 107
f 1 107 118
f 1 118 117
f 1 117 116
f 1 116 114
f 1 114 113
f 1 113 112
f 1 112 115
f 1 115 120
f 1 120 119
f 1 119 108
f 1 108 99
f 1 99 98
f 1 98 86
f 1 86 73
f 1 73 60
f 1 60 47
f 1 47 35
f 1 35 23
f 1 23 22
f 1 22 21
f 1 21 13
f 1 13 12
f 1 12 11
f 1 11 10
f 1 10 9
f 1 9 4
f 1 4 5
f 1 5 2
f 2 6 7
f 2 7 3
f 2 5 15
f 2 15 6
f 3 7 8
f 4 9 5
f 5 9 10
f 5 10 11
f 5 11 12
f 5 12 13
f 5 13 14
f 5 14 15
f 6 16 17
f 6 17 18
f 6 18 7
f 6 15 27
f 6 27 16
f 7 18 19
f 7 19 20
f 7 20 8
f 13 21 14
f 14 21 22
f 14 22 23
f 14 23 24
f 14 24 25
f 14 25 15
f 15 25 26
f 15 26 27
f 16 28 17
f 16 27 40
f 16 40 28
f 17 28 29
f 17 29 30
f 17 30 18
f 18 30 31
f 18 31 19
f 19 32 20
f 19 31 33
f 19 33 34
f 19 34 32
f 23 35 36
f 23 36 37
f 23 37 24
f 24 37 25
f 25 37 38
f 25 38 26
f 26 39 40
f 26 40 27
f 26 38 39
f 28 41 42
f 28 42 29
f 28 40 52
f 28 52 41
f 29 42 43
f 29 43 30
f 30 43 44
f 30 44 31
f 31 44 45
f 31 45 33
f 33 45 34
f 34 45 46
f 35 47 36
f 36 47 48
f 36 48 37
f 37 48 49
f 37 49 38
f 38 50 39
f 38 49 50
f 39 50 51
f 39 51 52
f 39 52 40
f 41 53 54
f 41 54 42
f 41 52 65
f 41 65 53
f 42 54 69
f 42 69 55
f 42 55 43
f 43 55 56
f 43 56 44
f 44 56 57
f 44 57 45
f 45 57 58
f 45 58 59
f 45 59 46
f 47 60 48
f 48 60 61
f 48 61 49
f 49 61 62
f 49 62 50
f 50 62 63
f 50 63 51
f 51 63 76
f 51 76 64
f 51 64 65
f 51 65 52
f 53 66 67
f 53 67 54
f 53 65 79
f 53 79 66
f 54 67 68
f 54 68 69
f 55 69 70
f 55 70 56
f 56 70 72
f 56 72 57
f 57 71 58
f 57 72 84
f 57 84 71
f 60 73 74
f 60 74 61
f 61 74 75
f 61 75 62
f 62 75 76
f 62 76 63
f 64 77 65
f 64 76 78
f 64 78 77
f 65 77 79
f 66 80 81
f 66 81 67
f 66 79 91
f 66 91 80
f 67 81 82
f 67 82 68
f 68 82 83
f 68 83 70
f 68 70 69
f 70 83 85
f 70 85 72
f 72 85 95
f 72 95 84
f 73 86 87
f 73 87 74
f 74 87 88
f 74 88 75
f 75 88 78
f 75 78 76
f 77 89 90
f 77 90 79
f 77 78 89
f 78 88 89
f 79 90 91
f 80 92 81
f 80 91 103
f 80 103 92
f 81 92 93
f 81 93 82
f 82 94 83
f 82 93 94
f 83 94 85
f 85 94 96
f 85 96 97
f 85 97 95
f 86 98 87
f 87 98 99
f 87 99 100
f 87 100 101
f 87 101 88
f 88 101 89
f 89 102 90
f 89 101 102
f 90 102 103
f 90 103 91
f 92 104 105
f 92 105 93
f 92 103 111
f 92 111 104
f 93 106 94
f 93 105 106
f 94 106 96
f 96 106 107
f 96 107 97
f 99 108 109
f 99 109 101
f 99 101 100
f 101 109 102
f 102 109 110
f 102 110 103
f 103 110 111
f 104 112 113
f 104 113 114
f 104 114 105
f 104 111 115
f 104 115 112
f 105 114 116
f 105 116 117
f 105 117 106
f 106 117 118
f 106 118 107
f 108 119 109
f 109 119 110
f 110 120 111
f 110 119 120
f 111 120 115

