# https://github.com/mikedh/trimesh
v 0.04044000 -0.01341321 0.04859724
v 0.04040457 -0.01341321 0.04939909
v 0.04044000 -0.02019190 0.04859724
v 0.04044000 -0.01341321 0.00140276
v 0.04040457 -0.02019190 0.04939909
v 0.04018381 -0.01341321 0.05002662
v 0.04044000 -0.02019190 0.00140276
v 0.04040457 -0.01341321 0.00060091
v 0.04018381 -0.02019190 0.05002662
v 0.04002845 -0.01341321 0.05011129
v 0.04040457 -0.02019190 0.00060091
v 0.04024377 -0.01341321 0.00014271
v 0.03959783 -0.02019190 0.05034537
v 0.03959783 -0.01341321 0.05034537
v 0.04018381 -0.02019190 -0.00002662
v 0.04018381 -0.01341321 -0.00002662
v 0.03879926 -0.02019190 0.05044000
v 0.03879926 -0.01341321 0.05044000
v 0.03959783 -0.02019190 -0.00034537
v 0.03975590 -0.01341321 -0.00026070
v 0.01500852 -0.02019190 0.05044000
v 0.01800110 -0.01341321 0.05044000
v 0.03939069 -0.02019190 -0.00037027
v 0.03959783 -0.01341321 -0.00034537
v 0.01560267 -0.01879980 0.05044000
v 0.01480138 -0.01959936 0.05043502
v 0.01420995 -0.02019190 0.05043004
v 0.01778851 -0.01341321 0.05042506
v 0.03879926 -0.02019190 -0.00044000
v 0.03901185 -0.01341321 -0.00041510
v 0.01720253 -0.01400044 0.05039517
v 0.01400009 -0.02019190 0.05040015
v 0.01720253 -0.01341321 0.05032545
v 0.03879926 -0.01341321 -0.00044000
v 0.01560267 -0.02019190 -0.00044000
v 0.01400009 -0.01959936 0.05032545
v 0.01328601 -0.02019190 0.05018102
v 0.01700357 -0.01341321 0.05023082
v 0.01800110 -0.01341321 -0.00044000
v 0.01560267 -0.01879980 -0.00044000
v 0.01480138 -0.02019190 -0.00043502
v 0.01316882 -0.02019190 0.05012125
v 0.01657840 -0.01341321 0.04999176
v 0.01480138 -0.01959936 -0.00043502
v 0.01720253 -0.01480000 -0.00043502
v 0.01720253 -0.01400044 -0.00039517
v 0.01720253 -0.01341321 -0.00032545
v 0.01400009 -0.02019190 -0.00039517
v 0.01273819 -0.02019190 0.04980748
v 0.01650208 -0.01341321 0.04981745
v 0.01400009 -0.01959936 -0.00032545
v 0.01316609 -0.02019190 -0.00012125
v 0.01657840 -0.01341321 0.00000824
v 0.01280905 -0.02000876 0.04972780
v 0.01265370 -0.02019190 0.04955846
v 0.01636308 -0.01341321 0.04939909
v 0.01299166 -0.02019190 0.00001820
v 0.01280633 -0.02000545 0.00025228
v 0.01635763 -0.01341321 0.00060091
v 0.01263735 -0.02019190 0.04943395
v 0.01635218 -0.01341321 0.04916003
v 0.01261009 -0.02019190 0.04889109
v 0.01263190 -0.02019190 0.04934431
v 0.01264825 -0.02019190 0.00042660
v 0.01263190 -0.02019190 0.00064075
v 0.01633038 -0.01341321 0.00117366
v 0.01633038 -0.01341321 0.04859724
v 0.01260192 -0.02019190 0.04859724
v 0.01260192 -0.02019190 0.00140276
v 0.01632220 -0.01341321 0.00140276
v 0.01632765 -0.01341321 0.04779539
v 0.01259919 -0.02019190 0.04738202
v 0.01259919 -0.02019190 0.01020316
v 0.01631948 -0.01341321 0.00196056
v 0.01632493 -0.01341321 0.04115649
v 0.01631948 -0.01341321 0.02779900
v 0.01259646 -0.02019190 0.02498506
v 0.01259646 -0.02019190 0.02460157
f 1 2 5
f 1 5 3
f 1 3 7
f 1 7 4
f 1 4 8
f 1 8 12
f 1 12 16
f 1 16 20
f 1 20 24
f 1 24 30
f 1 30 34
f 1 34 39
f 1 39 47
f 1 47 53
f 1 53 59
f 1 59 66
f 1 66 70
f 1 70 74
f 1 74 76
f 1 76 75
f 1 75 71
f 1 71 67
f 1 67 61
f 1 61 56
f 1 56 50
f 1 50 43
f 1 43 38
f 1 38 33
f 1 33 28
f 1 28 22
f 1 22 18
f 1 18 14
f 1 14 10
f 1 10 6
f 1 6 2
f 2 6 9
f 2 9 5
f 3 5 9
f 3 9 13
f 3 13 17
f 3 17 21
f 3 21 27
f 3 27 32
f 3 32 37
f 3 37 42
f 3 42 49
f 3 49 55
f 3 55 60
f 3 60 63
f 3 63 62
f 3 62 68
f 3 68 72
f 3 72 77
f 3 77 78
f 3 78 73
f 3 73 69
f 3 69 65
f 3 65 64
f 3 64 57
f 3 57 52
f 3 52 48
f 3 48 41
f 3 41 35
f 3 35 29
f 3 29 23
f 3 23 19
f 3 19 15
f 3 15 11
f 3 11 7
f 4 7 11
f 4 11 8
f 6 10 9
f 8 11 12
f 9 10 13
f 10 14 13
f 11 15 12
f 12 15 16
f 13 14 18
f 13 18 17
f 15 19 20
f 15 20 16
f 17 18 22
f 17 22 25
f 17 25 21
f 19 23 24
f 19 24 20
f 21 25 26
f 21 26 27
f 22 28 27
f 22 27 26
f 22 26 25
f 23 29 30
f 23 30 24
f 27 28 31
f 27 31 32
f 28 33 31
f 29 34 30
f 29 35 40
f 29 40 39
f 29 39 34
f 31 33 32
f 32 33 36
f 32 36 37
f 33 38 37
f 33 37 36
f 35 41 44
f 35 44 40
f 37 38 42
f 38 43 42
f 39 40 44
f 39 44 45
f 39 45 46
f 39 46 47
f 41 48 44
f 42 43 49
f 43 50 49
f 44 48 45
f 45 48 46
f 46 48 51
f 46 51 47
f 47 51 52
f 47 52 53
f 48 52 51
f 49 50 54
f 49 54 55
f 50 56 54
f 52 57 53
f 53 57 58
f 53 58 59
f 54 56 55
f 55 56 60
f 56 61 62
f 56 62 63
f 56 63 60
f 57 64 58
f 58 64 59
f 59 65 66
f 59 64 65
f 61 67 62
f 62 67 68
f 65 69 66
f 66 69 70
f 67 71 68
f 68 71 72
f 69 73 74
f 69 74 70
f 71 75 72
f 72 75 76
f 72 76 77
f 73 78 74
f 74 78 77
f 74 77 76

