# https://github.com/mikedh/trimesh
v 0.04044000 0.01740452 0.04859724
v 0.04041454 0.01740452 0.04919489
v 0.04044000 0.00359448 0.04859724
v 0.04044000 0.01740452 0.00140276
v 0.04040436 0.01740452 0.04939909
v 0.04040436 0.00359448 0.04940407
v 0.04044000 0.00359448 0.00140276
v 0.04040436 0.01740452 0.00060091
v 0.04018542 0.01740452 0.05002662
v 0.04018542 0.00359448 0.05002662
v 0.04040436 0.00359448 0.00060091
v 0.04018542 0.01740452 -0.00002662
v 0.03959989 0.01740452 0.05034537
v 0.03959989 0.00359448 0.05034537
v 0.04018542 0.00359448 -0.00002662
v 0.03959989 0.01740452 -0.00034537
v 0.03879796 0.01740452 0.05044000
v 0.03879796 0.00359448 0.05044000
v 0.03959989 0.00359448 -0.00034537
v 0.03939367 0.01740452 -0.00037027
v 0.01640249 0.01740452 0.05044000
v 0.02040195 0.00359448 0.05044000
v 0.03879796 0.00359448 -0.00044000
v 0.03879796 0.01740452 -0.00044000
v 0.01560056 0.01740452 0.05038522
v 0.01640249 0.01719905 0.05044000
v 0.01640249 0.01639878 0.05043004
v 0.01960002 0.00440015 0.05041510
v 0.01960002 0.00359448 0.05039517
v 0.02040195 0.00359448 -0.00044000
v 0.01640249 0.01740452 -0.00044000
v 0.01560056 0.01719905 0.05037027
v 0.01480881 0.01740452 0.05004157
v 0.01893302 0.00359448 0.05007145
v 0.01640249 0.01719905 -0.00044000
v 0.01960002 0.00359448 -0.00039020
v 0.01960002 0.00440015 -0.00041012
v 0.01960002 0.00520042 -0.00042506
v 0.01619628 0.01740452 -0.00043502
v 0.01464588 0.01740452 0.04992203
v 0.01893048 0.00359448 0.05006647
v 0.01894066 0.00359448 -0.00007145
v 0.01893557 0.00360123 -0.00007145
v 0.01539690 0.01740452 -0.00033043
v 0.01560056 0.01740452 -0.00038522
v 0.01447277 0.01740452 0.04939909
v 0.01862243 0.00359448 0.04939909
v 0.01893557 0.00359448 -0.00006647
v 0.01862752 0.00359448 0.00060091
v 0.01448804 0.01740452 0.00037679
v 0.01464334 0.01740452 0.00007797
v 0.01471717 0.01740452 0.00001322
v 0.01480881 0.01740452 -0.00004157
v 0.01445240 0.01740452 0.04888611
v 0.01858170 0.00359448 0.04859724
v 0.01858679 0.00359448 0.00139778
v 0.01447022 0.01740452 0.00060091
v 0.01444222 0.01740452 0.04859724
v 0.01443967 0.01740452 0.04806434
v 0.01443203 0.01740452 0.02485557
v 0.01858170 0.00359448 0.02219602
v 0.01443713 0.01740452 0.00140276
v 0.01445495 0.01740452 0.00089973
v 0.01858425 0.00359448 0.01099505
v 0.01443203 0.01740452 0.02460157
f 1 2 3
f 1 3 7
f 1 7 4
f 1 4 8
f 1 8 12
f 1 12 16
f 1 16 20
f 1 20 24
f 1 24 31
f 1 31 39
f 1 39 45
f 1 45 44
f 1 44 53
f 1 53 52
f 1 52 51
f 1 51 50
f 1 50 57
f 1 57 63
f 1 63 62
f 1 62 65
f 1 65 60
f 1 60 59
f 1 59 58
f 1 58 54
f 1 54 46
f 1 46 40
f 1 40 33
f 1 33 25
f 1 25 21
f 1 21 17
f 1 17 13
f 1 13 9
f 1 9 5
f 1 5 2
f 2 5 6
f 2 6 3
f 3 6 10
f 3 10 14
f 3 14 18
f 3 18 22
f 3 22 29
f 3 29 34
f 3 34 41
f 3 41 47
f 3 47 55
f 3 55 61
f 3 61 64
f 3 64 56
f 3 56 49
f 3 49 48
f 3 48 42
f 3 42 36
f 3 36 30
f 3 30 23
f 3 23 19
f 3 19 15
f 3 15 11
f 3 11 7
f 4 7 11
f 4 11 8
f 5 9 6
f 6 9 10
f 8 11 15
f 8 15 12
f 9 13 14
f 9 14 10
f 12 15 19
f 12 19 16
f 13 17 18
f 13 18 14
f 16 19 20
f 17 21 26
f 17 26 22
f 17 22 18
f 19 23 20
f 20 23 24
f 21 25 26
f 22 26 27
f 22 27 28
f 22 28 29
f 23 30 35
f 23 35 31
f 23 31 24
f 25 32 29
f 25 29 28
f 25 28 27
f 25 27 26
f 25 33 32
f 29 32 33
f 29 33 34
f 30 36 37
f 30 37 38
f 30 38 39
f 30 39 35
f 31 35 39
f 33 40 34
f 34 40 41
f 36 42 43
f 36 43 44
f 36 44 45
f 36 45 37
f 37 45 39
f 37 39 38
f 40 46 47
f 40 47 41
f 42 48 43
f 43 48 49
f 43 49 50
f 43 50 51
f 43 51 52
f 43 52 53
f 43 53 44
f 46 54 55
f 46 55 47
f 49 56 63
f 49 63 57
f 49 57 50
f 54 58 55
f 55 58 59
f 55 59 60
f 55 60 65
f 55 65 61
f 56 62 63
f 56 64 62
f 61 65 62
f 61 62 64

