# https://github.com/mikedh/trimesh
v 0.04044000 -0.02595619 0.04859724
v 0.04039665 -0.02595619 0.04939909
v 0.04040059 -0.03864922 0.04939909
v 0.04044000 -0.03879950 0.04859724
v 0.04044000 -0.02595619 0.00140276
v 0.04017991 -0.02595619 0.05002662
v 0.04040059 -0.03879950 0.04939909
v 0.04030602 -0.03959911 0.04939909
v 0.04034148 -0.03959911 0.04859724
v 0.04044000 -0.03879950 0.00140276
v 0.04040059 -0.03864922 0.00060091
v 0.04039665 -0.02595619 0.00060091
v 0.03959272 -0.02595619 0.05034537
v 0.03970306 -0.03864922 0.05028561
v 0.04017991 -0.03879950 0.05002662
v 0.04013262 -0.03959911 0.04996686
v 0.04005380 -0.04005988 0.04987223
v 0.04010503 -0.04010808 0.04939909
v 0.04012079 -0.04012651 0.04859724
v 0.04034148 -0.03959911 0.00140276
v 0.04030995 -0.03959911 0.00060091
v 0.04040059 -0.03879950 0.00060091
v 0.04039271 -0.03236863 0.00057601
v 0.04038877 -0.02595619 0.00056605
v 0.03879273 -0.02595619 0.05044000
v 0.03950996 -0.03568331 0.05035533
v 0.03959272 -0.03879950 0.05034537
v 0.03959272 -0.03959911 0.05024078
v 0.03959272 -0.04031223 0.04939909
v 0.03959272 -0.04013785 0.04996686
v 0.03959272 -0.04034626 0.04859724
v 0.04012079 -0.04012651 0.00140276
v 0.04010503 -0.04011091 0.00060091
v 0.04005774 -0.04006271 0.00012279
v 0.04013656 -0.03959911 0.00002816
v 0.04017991 -0.03879950 -0.00002662
v 0.04017991 -0.02595619 -0.00002662
v 0.03879273 -0.03879950 0.05044000
v 0.00924829 -0.02595619 0.05044000
v 0.03879273 -0.03959911 0.05034537
v 0.03879273 -0.04040580 0.04939909
v 0.03879273 -0.04018464 0.05002662
v 0.03879273 -0.04043983 0.04859724
v 0.03959272 -0.04034626 0.00140276
v 0.03959272 -0.04031365 0.00060091
v 0.03959272 -0.04014069 0.00002816
v 0.03959272 -0.03959911 -0.00024576
v 0.03959272 -0.03879950 -0.00034537
v 0.03959272 -0.02595619 -0.00034537
v 0.00018042 -0.03879950 0.05044000
v 0.00844830 -0.02595619 0.05043004
v 0.00018042 -0.02840037 0.05042008
v 0.00120504 -0.02840037 0.05043004
v 0.00018042 -0.02920140 0.05044000
v 0.00018042 -0.03959911 0.05034537
v 0.00018042 -0.04040580 0.04939909
v 0.00018042 -0.04018464 0.05002662
v 0.00018042 -0.04043983 0.04859724
v 0.03879273 -0.04043983 0.00140276
v 0.03879273 -0.04040580 0.00060091
v 0.03879273 -0.04018464 -0.00002662
v 0.03879273 -0.03959911 -0.00034537
v 0.03879273 -0.03879950 -0.00044000
v 0.03956120 -0.03236863 -0.00035035
v 0.03879273 -0.02595619 -0.00044000
v 0.00764831 -0.02595619 0.05036529
v 0.00018042 -0.02786730 0.05019098
v 0.00018042 -0.04043983 0.00140276
v 0.00018042 -0.04040580 0.00060091
v 0.00018042 -0.04018464 -0.00002662
v 0.00018042 -0.03959911 -0.00034537
v 0.00018042 -0.03879950 -0.00044000
v 0.03887943 -0.03568331 -0.00043004
v 0.01000493 -0.02595619 -0.00044000
v 0.00668674 -0.02595619 0.05011627
v 0.00018042 -0.02766031 0.05010133
v 0.00018042 -0.02920140 -0.00044000
v 0.00920494 -0.02600156 -0.00044000
v 0.00920494 -0.02595619 -0.00043502
v 0.00616655 -0.02595619 0.04980251
v 0.00018042 -0.02728178 0.04939909
v 0.00018042 -0.02897739 -0.00043502
v 0.00120504 -0.02840037 -0.00043004
v 0.00018042 -0.02840037 -0.00042008
v 0.00840495 -0.02600156 -0.00043004
v 0.00840495 -0.02595619 -0.00042506
v 0.00584734 -0.02595619 0.04952360
v 0.00576853 -0.02595619 0.04941403
v 0.00018042 -0.02724349 0.04859724
v 0.00018042 -0.02765322 -0.00010133
v 0.00760496 -0.02600156 -0.00037027
v 0.00761284 -0.02595619 -0.00035035
v 0.00568577 -0.02595619 0.04859724
v 0.00568183 -0.02595619 0.04779042
v 0.00561877 -0.02595619 0.02577197
v 0.00018042 -0.02724066 0.03442296
v 0.00018042 -0.02754689 0.00009291
v 0.00668674 -0.02595619 -0.00011129
v 0.00561877 -0.02595619 0.02417823
v 0.00018042 -0.02724066 0.03259514
v 0.00018042 -0.02727469 0.00060091
v 0.00600498 -0.02595619 0.00036185
v 0.00564636 -0.02595619 0.01500927
v 0.00018042 -0.02724349 0.00140276
v 0.00576459 -0.02595619 0.00058597
v 0.00568183 -0.02595619 0.00332520
v 0.00568577 -0.02595619 0.00220958
v 0.00568971 -0.02595619 0.00140276
v 0.00573700 -0.02595619 0.00086985
f 1 2 3
f 1 3 7
f 1 7 4
f 1 4 10
f 1 10 5
f 1 5 12
f 1 12 24
f 1 24 37
f 1 37 49
f 1 49 65
f 1 65 74
f 1 74 79
f 1 79 86
f 1 86 92
f 1 92 98
f 1 98 102
f 1 102 105
f 1 105 109
f 1 109 108
f 1 108 107
f 1 107 106
f 1 106 103
f 1 103 99
f 1 99 95
f 1 95 94
f 1 94 93
f 1 93 88
f 1 88 87
f 1 87 80
f 1 80 75
f 1 75 66
f 1 66 51
f 1 51 39
f 1 39 25
f 1 25 13
f 1 13 6
f 1 6 2
f 2 6 3
f 3 6 15
f 3 15 7
f 4 7 8
f 4 8 9
f 4 9 20
f 4 20 10
f 5 10 22
f 5 22 11
f 5 11 12
f 6 13 14
f 6 14 15
f 7 15 16
f 7 16 8
f 8 16 17
f 8 17 18
f 8 18 9
f 9 18 19
f 9 19 32
f 9 32 20
f 10 20 21
f 10 21 22
f 11 22 23
f 11 23 24
f 11 24 12
f 13 25 26
f 13 26 27
f 13 27 14
f 14 27 15
f 15 27 16
f 16 27 28
f 16 28 17
f 17 29 18
f 17 28 30
f 17 30 29
f 18 29 31
f 18 31 19
f 19 31 44
f 19 44 32
f 20 32 33
f 20 33 21
f 21 33 34
f 21 34 35
f 21 35 22
f 22 35 36
f 22 36 23
f 23 36 37
f 23 37 24
f 25 38 26
f 25 39 54
f 25 54 50
f 25 50 38
f 26 38 27
f 27 40 28
f 27 38 40
f 28 40 30
f 29 30 41
f 29 41 43
f 29 43 31
f 30 40 42
f 30 42 41
f 31 43 59
f 31 59 44
f 32 44 33
f 33 44 45
f 33 45 34
f 34 46 47
f 34 47 35
f 34 45 46
f 35 47 48
f 35 48 36
f 36 48 49
f 36 49 37
f 38 50 55
f 38 55 40
f 39 51 52
f 39 52 53
f 39 53 54
f 40 55 57
f 40 57 42
f 41 56 58
f 41 58 43
f 41 42 57
f 41 57 56
f 43 58 68
f 43 68 59
f 44 59 45
f 45 60 46
f 45 59 60
f 46 60 61
f 46 61 62
f 46 62 47
f 47 62 48
f 48 62 63
f 48 63 64
f 48 64 49
f 49 64 65
f 50 54 52
f 50 52 67
f 50 67 76
f 50 76 81
f 50 81 89
f 50 89 96
f 50 96 100
f 50 100 104
f 50 104 101
f 50 101 97
f 50 97 90
f 50 90 84
f 50 84 82
f 50 82 77
f 50 77 72
f 50 72 71
f 50 71 70
f 50 70 69
f 50 69 68
f 50 68 58
f 50 58 56
f 50 56 57
f 50 57 55
f 51 66 52
f 52 54 53
f 52 66 67
f 59 68 69
f 59 69 60
f 60 69 70
f 60 70 61
f 61 70 71
f 61 71 62
f 62 71 72
f 62 72 63
f 63 72 77
f 63 77 78
f 63 78 74
f 63 74 65
f 63 65 73
f 63 73 64
f 64 73 65
f 66 75 76
f 66 76 67
f 74 78 79
f 75 80 81
f 75 81 76
f 77 82 78
f 78 82 83
f 78 83 84
f 78 84 85
f 78 85 86
f 78 86 79
f 80 87 81
f 81 87 88
f 81 88 89
f 82 84 83
f 84 90 91
f 84 91 86
f 84 86 85
f 86 91 92
f 88 93 89
f 89 93 94
f 89 94 95
f 89 95 96
f 90 97 98
f 90 98 92
f 90 92 91
f 95 99 100
f 95 100 96
f 97 101 98
f 98 101 102
f 99 103 104
f 99 104 100
f 101 104 105
f 101 105 102
f 103 106 104
f 104 106 107
f 104 107 108
f 104 108 109
f 104 109 105

