# https://github.com/mikedh/trimesh
v -0.01720967 -0.01686812 -0.00043739
v -0.01720967 -0.01239022 -0.00043739
v -0.01673181 -0.01686812 -0.00043739
v -0.01720967 -0.01686812 0.02620014
v -0.01400004 -0.01080011 -0.00043739
v -0.01720967 -0.01160059 -0.00042435
v -0.01639976 -0.01160059 -0.00043218
v -0.01320054 -0.01240030 -0.00043739
v -0.01240043 -0.01240030 -0.00043218
v -0.01639976 -0.01686812 -0.00043478
v -0.01473153 -0.01686812 0.02620014
v -0.01720967 -0.01081252 0.02620014
v -0.01320054 -0.01080011 -0.00043739
v -0.01479954 -0.01080011 -0.00042696
v -0.01320054 -0.01000040 -0.00039567
v -0.01720967 -0.01078769 -0.00023660
v -0.01559965 -0.01080011 -0.00038263
v -0.01240043 -0.01160059 -0.00041914
v -0.01160032 -0.01240030 -0.00023921
v -0.01593170 -0.01686812 -0.00039306
v -0.01240043 -0.01160059 0.02542305
v -0.01240043 -0.01080011 0.02536829
v -0.01473092 -0.01686812 0.02590548
v -0.01104771 -0.01301540 0.02379846
v -0.01108937 -0.01295955 0.02459902
v -0.01115431 -0.01286958 0.02505015
v -0.01160032 -0.01240030 0.02526138
v -0.01320054 -0.01000040 0.02539698
v -0.01255052 -0.00941089 0.02513360
v -0.01320054 -0.00936901 0.02517793
v -0.01720967 -0.01006943 0.02539176
v -0.01400004 -0.01000040 -0.00030701
v -0.01320054 -0.00931161 -0.00007492
v -0.01240043 -0.00940701 0.00002938
v -0.01240043 -0.01000040 -0.00023399
v -0.01240043 -0.01080011 -0.00036177
v -0.01720967 -0.01015941 0.00007111
v -0.01557330 -0.01686812 -0.00027311
v -0.01176083 -0.01080011 -0.00004363
v -0.01155682 -0.01161300 -0.00007492
v -0.01110898 -0.01240030 0.00007632
v -0.01111939 -0.01291612 0.00009197
v -0.01160032 -0.01308443 -0.00003581
v -0.01157887 -0.01166187 0.02517011
v -0.01181842 -0.01080011 0.02514664
v -0.01233059 -0.00994145 0.02521183
v -0.01473031 -0.01686812 0.00460066
v -0.01095153 -0.01240030 0.02379846
v -0.01104771 -0.01301540 0.00140103
v -0.01103362 -0.01240030 0.02459902
v -0.01115799 -0.01240030 0.02504755
v -0.01201691 -0.00963506 0.02494845
v -0.01233059 -0.00929299 0.02464857
v -0.01320054 -0.00904168 0.02459902
v -0.01720967 -0.01004383 0.02532918
v -0.01400004 -0.00943494 0.00001113
v -0.01320054 -0.00898428 0.00060047
v -0.01240043 -0.00916501 0.00060047
v -0.01198322 -0.00957068 0.00017541
v -0.01190235 -0.01000040 0.00007893
v -0.01720967 -0.00987629 0.00051181
v -0.01512669 -0.01686812 -0.00005406
v -0.01115983 -0.01188836 0.00014412
v -0.01098461 -0.01240030 0.00060047
v -0.01496924 -0.01686812 0.00003982
v -0.01106303 -0.01299523 0.00060047
v -0.01476462 -0.01686812 0.00062133
v -0.01484548 -0.01686812 0.00033448
v -0.01118923 -0.01196903 0.02501104
v -0.01192685 -0.01016794 0.02507102
v -0.01473031 -0.01686812 0.00140103
v -0.01110469 -0.01173711 0.02379846
v -0.01114451 -0.01184492 0.02459902
v -0.01095153 -0.01240030 0.00140103
v -0.01474072 -0.01686812 0.00115069
v -0.01185027 -0.00994145 0.02464857
v -0.01195994 -0.00953189 0.02441388
v -0.01240043 -0.00911692 0.02379846
v -0.01320054 -0.00894472 0.02379846
v -0.01720967 -0.00984837 0.02459902
v -0.01720967 -0.00986698 0.00054049
v -0.01720967 -0.00980648 0.00140103
v -0.01320054 -0.00894472 0.00140103
v -0.01240043 -0.00911692 0.00140103
v -0.01195749 -0.00952647 0.00060047
v -0.01112184 -0.01178442 0.00060047
v -0.01176940 -0.01000040 0.00060047
v -0.01173448 -0.01000040 0.02379846
v -0.01110469 -0.01173711 0.00140103
v -0.01194033 -0.00949777 0.02379846
v -0.01720967 -0.00979174 0.02379846
v -0.01720967 -0.00980570 0.00205295
v -0.01720967 -0.00979174 0.02283623
v -0.01194033 -0.00949777 0.00140103
v -0.01173448 -0.01000040 0.00140103
f 1 2 5
f 1 5 13
f 1 13 8
f 1 8 3
f 1 3 10
f 1 10 20
f 1 20 38
f 1 38 62
f 1 62 65
f 1 65 68
f 1 68 67
f 1 67 75
f 1 75 71
f 1 71 47
f 1 47 23
f 1 23 11
f 1 11 4
f 1 4 12
f 1 12 31
f 1 31 55
f 1 55 80
f 1 80 91
f 1 91 93
f 1 93 92
f 1 92 82
f 1 82 81
f 1 81 61
f 1 61 37
f 1 37 16
f 1 16 6
f 1 6 2
f 2 6 7
f 2 7 5
f 3 8 9
f 3 9 10
f 4 11 12
f 5 7 6
f 5 6 14
f 5 14 15
f 5 15 13
f 6 16 17
f 6 17 15
f 6 15 14
f 8 13 9
f 9 13 18
f 9 18 19
f 9 19 20
f 9 20 10
f 11 21 22
f 11 22 12
f 11 23 24
f 11 24 25
f 11 25 26
f 11 26 27
f 11 27 21
f 12 28 29
f 12 29 30
f 12 30 31
f 12 22 28
f 13 15 18
f 15 17 16
f 15 16 32
f 15 32 33
f 15 33 34
f 15 34 35
f 15 35 36
f 15 36 18
f 16 37 32
f 18 36 19
f 19 38 20
f 19 36 35
f 19 35 39
f 19 39 40
f 19 40 41
f 19 41 42
f 19 42 43
f 19 43 38
f 21 27 22
f 22 27 44
f 22 44 45
f 22 45 46
f 22 46 28
f 23 47 24
f 24 48 25
f 24 47 71
f 24 71 49
f 24 49 74
f 24 74 48
f 25 48 50
f 25 50 26
f 26 50 51
f 26 51 27
f 27 51 44
f 28 46 29
f 29 46 52
f 29 52 53
f 29 53 54
f 29 54 30
f 30 54 31
f 31 54 55
f 32 37 33
f 33 37 56
f 33 56 57
f 33 57 34
f 34 57 58
f 34 58 59
f 34 59 35
f 35 59 60
f 35 60 39
f 37 61 56
f 38 43 42
f 38 42 62
f 39 60 63
f 39 63 40
f 40 63 41
f 41 63 64
f 41 64 42
f 42 65 62
f 42 64 66
f 42 66 67
f 42 67 68
f 42 68 65
f 44 51 69
f 44 69 45
f 45 69 70
f 45 70 46
f 46 70 52
f 48 72 73
f 48 73 50
f 48 74 89
f 48 89 72
f 49 71 75
f 49 75 66
f 49 66 74
f 50 73 69
f 50 69 51
f 52 69 73
f 52 73 76
f 52 76 77
f 52 77 53
f 52 70 69
f 53 77 78
f 53 78 54
f 54 79 80
f 54 80 55
f 54 78 79
f 56 61 57
f 57 61 81
f 57 81 82
f 57 82 83
f 57 83 84
f 57 84 58
f 58 85 59
f 58 84 85
f 59 86 63
f 59 63 60
f 59 85 87
f 59 87 86
f 63 86 64
f 64 86 74
f 64 74 66
f 66 75 67
f 72 88 77
f 72 77 73
f 72 89 95
f 72 95 88
f 73 77 76
f 74 86 89
f 77 88 90
f 77 90 78
f 78 90 94
f 78 94 84
f 78 84 83
f 78 83 79
f 79 83 93
f 79 93 91
f 79 91 80
f 82 92 83
f 83 92 93
f 84 94 85
f 85 94 95
f 85 95 87
f 86 87 95
f 86 95 89
f 88 95 94
f 88 94 90

