# https://github.com/mikedh/trimesh
v -0.01453237 0.01722653 0.00140103
v -0.01537007 0.01502797 0.00380010
v -0.01537007 0.01502797 0.00220159
v -0.01537036 0.01502797 0.00140103
v -0.01539147 0.01502797 0.00060308
v -0.01456814 0.01722653 0.00060047
v -0.01453266 0.01722653 0.02539958
v -0.01537124 0.01502797 0.02379586
v -0.01563894 0.01502797 -0.00007232
v -0.01482880 0.01722653 0.00000331
v -0.01453325 0.01722653 0.02620014
v -0.01537183 0.01502797 0.02459902
v -0.01583481 0.01502797 -0.00016619
v -0.01560024 0.01719985 -0.00036959
v -0.01532755 0.01722653 -0.00024181
v -0.01752780 0.01722653 0.02620014
v -0.01538737 0.01558644 0.02620014
v -0.01562663 0.01502797 0.02619754
v -0.01544015 0.01502797 0.02537611
v -0.01639982 0.01502797 -0.00036959
v -0.01560024 0.01722653 -0.00037220
v -0.01752780 0.01502797 0.02620014
v -0.01752780 0.01722653 -0.00043739
v -0.01589374 0.01502797 0.02620014
v -0.01639982 0.01639992 -0.00042957
v -0.01719999 0.01502797 -0.00043739
v -0.01639982 0.01719985 -0.00043739
v -0.01639982 0.01722653 -0.00043739
v -0.01752780 0.01502797 -0.00043739
f 1 2 3
f 1 3 4
f 1 4 5
f 1 5 6
f 1 6 10
f 1 10 15
f 1 15 21
f 1 21 28
f 1 28 23
f 1 23 16
f 1 16 11
f 1 11 7
f 1 7 2
f 2 7 8
f 2 8 12
f 2 12 19
f 2 19 18
f 2 18 24
f 2 24 22
f 2 22 29
f 2 29 26
f 2 26 20
f 2 20 13
f 2 13 9
f 2 9 5
f 2 5 4
f 2 4 3
f 5 9 6
f 6 9 10
f 7 11 12
f 7 12 8
f 9 13 14
f 9 14 15
f 9 15 10
f 11 16 22
f 11 22 24
f 11 24 17
f 11 17 18
f 11 18 19
f 11 19 12
f 13 20 14
f 14 20 21
f 14 21 15
f 16 23 29
f 16 29 22
f 17 24 18
f 20 25 21
f 20 26 25
f 21 25 27
f 21 27 28
f 23 28 27
f 23 27 26
f 23 26 29
f 25 26 27

